<?xml version="1.0" encoding="UTF-8" standalone="no"?>
<!-- Created with Inkscape (http://www.inkscape.org/) -->

<svg
   xmlns:dc="http://purl.org/dc/elements/1.1/"
   xmlns:cc="http://creativecommons.org/ns#"
   xmlns:rdf="http://www.w3.org/1999/02/22-rdf-syntax-ns#"
   xmlns:svg="http://www.w3.org/2000/svg"
   xmlns="http://www.w3.org/2000/svg"
   xmlns:xlink="http://www.w3.org/1999/xlink"
   xmlns:sodipodi="http://sodipodi.sourceforge.net/DTD/sodipodi-0.dtd"
   xmlns:inkscape="http://www.inkscape.org/namespaces/inkscape"
   width="24"
   height="24"
   id="svg2"
   version="1.1"
   inkscape:version="0.91 r"
   sodipodi:docname="input-keyboard.svg">
  <defs
     id="defs4">
    <linearGradient
       id="linearGradient3089">
      <stop
         style="stop-color:#000000;stop-opacity:1;"
         offset="0"
         id="stop3091" />
      <stop
         style="stop-color:#363636;stop-opacity:1;"
         offset="1"
         id="stop3093" />
    </linearGradient>
    <linearGradient
       inkscape:collect="always"
       xlink:href="#linearGradient3089"
       id="linearGradient3287"
       gradientUnits="userSpaceOnUse"
       gradientTransform="translate(0,-1028.8622)"
       x1="11.517858"
       y1="1032.9425"
       x2="11.517858"
       y2="1047.8086" />
  </defs>
  <sodipodi:namedview
     id="base"
     pagecolor="#ffffff"
     bordercolor="#666666"
     borderopacity="1.0"
     inkscape:pageopacity="0.0"
     inkscape:pageshadow="2"
     inkscape:zoom="16"
     inkscape:cx="20.333975"
     inkscape:cy="10.188755"
     inkscape:document-units="px"
     inkscape:current-layer="layer1"
     showgrid="true"
     inkscape:window-width="1366"
     inkscape:window-height="711"
     inkscape:window-x="0"
     inkscape:window-y="30"
     inkscape:window-maximized="1"
     showguides="false"
     inkscape:snap-bbox="true"
     inkscape:bbox-paths="true"
     inkscape:snap-bbox-edge-midpoints="true"
     inkscape:bbox-nodes="true"
     inkscape:object-paths="true"
     inkscape:snap-intersection-paths="true"
     inkscape:object-nodes="true"
     inkscape:snap-smooth-nodes="true">
    <inkscape:grid
       type="xygrid"
       id="grid4147" />
  </sodipodi:namedview>
  <metadata
     id="metadata7">
    <rdf:RDF>
      <cc:Work
         rdf:about="">
        <dc:format>image/svg+xml</dc:format>
        <dc:type
           rdf:resource="http://purl.org/dc/dcmitype/StillImage" />
        <dc:title></dc:title>
      </cc:Work>
    </rdf:RDF>
  </metadata>
  <g
     inkscape:label="Layer 1"
     inkscape:groupmode="layer"
     id="layer1"
     transform="translate(0,-1028.3622)">
    <path
       id="path4217"
       d="m 11,1033.3622 0,3 -6,0 c -1.2312,0 -2,0.892 -2,2 l 0,8 c 0,1.108 0.7688,2 2,2 l 14,0 c 1.231,0 2,-0.892 2,-2 l 0,-8 c 0,-1.108 -0.769,-2 -2,-2 l -7,0 0,-2 1,0 0,1 4,0 0,-1 -3,0 0,-1 -3,0 z m -6,5 2,0 0,2 -2,0 0,-2 z m 3,0 2,0 0,2 -2,0 0,-2 z m 3,0 2,0 0,2 -2,0 0,-2 z m 3,0 2,0 0,2 -2,0 0,-2 z m 3,0 2,0 0,2 -2,0 0,-2 z m -12,3 2,0 0,2 -2,0 0,-2 z m 3,0 2,0 0,2 -2,0 0,-2 z m 3,0 2,0 0,2 -2,0 0,-2 z m 3,0 2,0 0,2 -2,0 0,-2 z m 3,0 2,0 0,2 -2,0 0,-2 z m -10,3 10,0 0,2 -10,0 0,-2 z"
       style="opacity:0.6;fill:#ffffff;fill-opacity:1;fill-rule:evenodd;color:#000000;clip-rule:nonzero;display:inline;overflow:visible;visibility:visible;isolation:auto;mix-blend-mode:normal;color-interpolation:sRGB;color-interpolation-filters:linearRGB;solid-color:#000000;solid-opacity:1;stroke-width:1;stroke-linecap:butt;stroke-linejoin:miter;stroke-miterlimit:4;stroke-dasharray:none;stroke-dashoffset:0;stroke-opacity:1;filter-blend-mode:normal;filter-gaussianBlur-deviation:0;color-rendering:auto;image-rendering:auto;shape-rendering:auto;text-rendering:auto;enable-background:accumulate"
       inkscape:connector-curvature="0" />
    <path
       style="opacity:0.7;fill:url(#linearGradient3287);fill-opacity:1;fill-rule:evenodd"
       d="M 11 4 L 11 7 L 5 7 C 3.7688 7 3 7.892 3 9 L 3 17 C 3 18.108 3.7688 19 5 19 L 19 19 C 20.231 19 21 18.108 21 17 L 21 9 C 21 7.892 20.231 7 19 7 L 12 7 L 12 5 L 13 5 L 13 6 L 17 6 L 17 5 L 14 5 L 14 4 L 11 4 z M 5 9 L 7 9 L 7 11 L 5 11 L 5 9 z M 8 9 L 10 9 L 10 11 L 8 11 L 8 9 z M 11 9 L 13 9 L 13 11 L 11 11 L 11 9 z M 14 9 L 16 9 L 16 11 L 14 11 L 14 9 z M 17 9 L 19 9 L 19 11 L 17 11 L 17 9 z M 5 12 L 7 12 L 7 14 L 5 14 L 5 12 z M 8 12 L 10 12 L 10 14 L 8 14 L 8 12 z M 11 12 L 13 12 L 13 14 L 11 14 L 11 12 z M 14 12 L 16 12 L 16 14 L 14 14 L 14 12 z M 17 12 L 19 12 L 19 14 L 17 14 L 17 12 z M 7 15 L 17 15 L 17 17 L 7 17 L 7 15 z "
       transform="translate(0,1028.3622)"
       id="rect2396" />
  </g>
</svg>
