<?xml version="1.0" encoding="UTF-8" standalone="no"?>
<!-- Created with Inkscape (http://www.inkscape.org/) -->

<svg xmlns:dc="http://purl.org/dc/elements/1.1/" xmlns:cc="http://creativecommons.org/ns#" xmlns:rdf="http://www.w3.org/1999/02/22-rdf-syntax-ns#" xmlns:svg="http://www.w3.org/2000/svg" xmlns="http://www.w3.org/2000/svg" xmlns:xlink="http://www.w3.org/1999/xlink" xmlns:sodipodi="http://sodipodi.sourceforge.net/DTD/sodipodi-0.dtd" xmlns:inkscape="http://www.inkscape.org/namespaces/inkscape" width="16" height="16" id="svg3330" version="1.1" inkscape:version="0.48.4 r9939" sodipodi:docname="applications-science.svg">
  <defs id="defs3332">
    <linearGradient y2="11.02436" y1="3.0069399" x2="0" id="linearGradient1022-8-8-3-0-27" gradientUnits="userSpaceOnUse">
      <stop id="stop3001-0-9-4-6" offset="0" />
      <stop id="stop3003-5-6-6-01" stop-color="#363636" offset="1" />
    </linearGradient>
    <linearGradient inkscape:collect="always" xlink:href="#linearGradient1022-8-8-3-0-27" id="linearGradient3005" gradientUnits="userSpaceOnUse" gradientTransform="matrix(1.119994,0,0,1.0064811,-269.98336,1336.0312)" x1="235.7007" y1="-296.74573" x2="235.7007" y2="-281.84232" />
    <linearGradient inkscape:collect="always" xlink:href="#linearGradient1022-8-8-3-0-27-8" id="linearGradient3005-9" gradientUnits="userSpaceOnUse" gradientTransform="matrix(1.119994,0,0,1.0064811,-269.98336,1336.0312)" x1="235.7007" y1="-296.74573" x2="235.7007" y2="-281.84232" />
    <linearGradient y2="11.02436" y1="3.0069399" x2="0" id="linearGradient1022-8-8-3-0-27-8" gradientUnits="userSpaceOnUse">
      <stop id="stop3001-0-9-4-6-5" offset="0" />
      <stop id="stop3003-5-6-6-01-8" stop-color="#363636" offset="1" />
    </linearGradient>
    <linearGradient inkscape:collect="always" xlink:href="#linearGradient1022-8-8-3-0-27-8" id="linearGradient2996" gradientUnits="userSpaceOnUse" gradientTransform="matrix(1.119994,0,0,1.0064811,-269.98336,299.669)" x1="235.7007" y1="-296.74573" x2="235.7007" y2="-281.84232" />
    <linearGradient inkscape:collect="always" xlink:href="#linearGradient1022-8-8-3-0-27-8" id="linearGradient2999" gradientUnits="userSpaceOnUse" gradientTransform="matrix(1.119994,0,0,1.0064811,-269.98336,299.669)" x1="248.20076" y1="-297.73932" x2="248.20076" y2="-282.83591" />
  </defs>
  <sodipodi:namedview id="base" pagecolor="#ffffff" bordercolor="#666666" borderopacity="1.0" inkscape:pageopacity="0.0" inkscape:pageshadow="2" inkscape:zoom="15.839192" inkscape:cx="7.928377" inkscape:cy="7.7804157" inkscape:document-units="px" inkscape:current-layer="capa1" showgrid="true" inkscape:showpageshadow="false" inkscape:window-width="1280" inkscape:window-height="949" inkscape:window-x="0" inkscape:window-y="0" inkscape:window-maximized="1" inkscape:snap-bbox="true">
    <inkscape:grid type="xygrid" id="grid2990" />
  </sodipodi:namedview>
  <metadata id="metadata3335">
    <rdf:RDF>
      <cc:Work rdf:about="">
        <dc:format>image/svg+xml</dc:format>
        <dc:type rdf:resource="http://purl.org/dc/dcmitype/StillImage" />
        <dc:title />
      </cc:Work>
    </rdf:RDF>
  </metadata>
  <g inkscape:label="Capa 1" inkscape:groupmode="layer" id="capa1" transform="translate(0,-1036.3622)">
    <path id="path3001" d="m 4.9999999,1037.3622 -1,1 1,1 0,3 -3,3 0,5 2,2 8.0000001,0 2,-2 0,-5 -3,-3 0,-3 1,-1 -1,-1 -6.0000001,0 z m 2,2 2,0 0,4 3.0000001,3 0,3 -1,1 -6.0000001,0 -1,-1 0,-3 3,-3 0,-4 z m -1,6 -1,1 0,3 6.0000001,0 0,-3 -1.0000001,-1 -4,0 z" style="text-indent:0;text-transform:none;block-progression:tb;opacity:0.75;color:black;fill:white;fill-opacity:1;fill-rule:nonzero;stroke:none;stroke-width:1;marker:none;visibility:visible;display:inline;overflow:visible;enable-background:accumulate" inkscape:connector-curvature="0" />
    <path style="text-indent:0;text-transform:none;block-progression:tb;color:#000000;fill:url(#linearGradient2999);opacity:0.75;fill-opacity:1;fill-rule:nonzero;stroke:none;stroke-width:1;marker:none;visibility:visible;display:inline;overflow:visible;enable-background:accumulate" d="M 5 0 L 4 1 L 5 2 L 5 5 L 2 8 L 2 13 L 4 15 L 12 15 L 14 13 L 14 8 L 11 5 L 11 2 L 12 1 L 11 0 L 5 0 z M 7 2 L 9 2 L 9 6 L 12 9 L 12 12 L 11 13 L 5 13 L 4 12 L 4 9 L 7 6 L 7 2 z M 6 8 L 5 9 L 5 12 L 11 12 L 11 9 L 10 8 L 6 8 z " transform="translate(0,1036.3622)" id="path29274-9-1" />
  </g>
</svg>
