<?xml version="1.0" encoding="UTF-8" standalone="no"?>
<!-- Created with Inkscape (http://www.inkscape.org/) -->

<svg xmlns:dc="http://purl.org/dc/elements/1.1/" xmlns:cc="http://creativecommons.org/ns#" xmlns:rdf="http://www.w3.org/1999/02/22-rdf-syntax-ns#" xmlns:svg="http://www.w3.org/2000/svg" xmlns="http://www.w3.org/2000/svg" xmlns:xlink="http://www.w3.org/1999/xlink" xmlns:sodipodi="http://sodipodi.sourceforge.net/DTD/sodipodi-0.dtd" xmlns:inkscape="http://www.inkscape.org/namespaces/inkscape" width="16" height="16" id="svg6662" version="1.1" inkscape:version="0.48.4 r9939" sodipodi:docname="applications-graphics.svg">
  <defs id="defs6664">
    <linearGradient y2="11.02436" y1="3.0069399" x2="0" id="linearGradient1022-8-8-3-0-3-2" gradientUnits="userSpaceOnUse">
      <stop id="stop3001-0-9-4-4-7" offset="0" />
      <stop id="stop3003-5-6-6-9-1" stop-color="#363636" offset="1" />
    </linearGradient>
    <linearGradient inkscape:collect="always" xlink:href="#linearGradient1022-8-8-3-0-3-2" id="linearGradient2997" gradientUnits="userSpaceOnUse" gradientTransform="matrix(-0.83999761,-0.67999672,0.75486273,-0.61107815,297.88223,902.72281)" x1="74.285271" y1="-301.35648" x2="63.255802" y2="-313.62988" />
  </defs>
  <sodipodi:namedview id="base" pagecolor="#ffffff" bordercolor="#666666" borderopacity="1.0" inkscape:pageopacity="0.0" inkscape:pageshadow="2" inkscape:zoom="31.678384" inkscape:cx="12.951599" inkscape:cy="8.717449" inkscape:document-units="px" inkscape:current-layer="capa1" showgrid="true" inkscape:showpageshadow="false" inkscape:window-width="1280" inkscape:window-height="949" inkscape:window-x="0" inkscape:window-y="0" inkscape:window-maximized="1" inkscape:snap-bbox="true">
    <inkscape:grid type="xygrid" id="grid3199" empspacing="5" visible="true" enabled="true" snapvisiblegridlinesonly="true" />
  </sodipodi:namedview>
  <metadata id="metadata6667">
    <rdf:RDF>
      <cc:Work rdf:about="">
        <dc:format>image/svg+xml</dc:format>
        <dc:type rdf:resource="http://purl.org/dc/dcmitype/StillImage" />
        <dc:title />
      </cc:Work>
    </rdf:RDF>
  </metadata>
  <g inkscape:label="Capa 1" inkscape:groupmode="layer" id="capa1" transform="translate(0,-1036.3622)">
    <path inkscape:connector-curvature="0" id="path3769" d="m 8.5,1037.3622 -1.5,2 0,0.9985 3,0 0,-1 z m -7.5,0 0,15 15,0 -5,-5 0,2 -7,0 0,-6 2,2 0,-3 z m 6,4 0,7 3,0 0,-7 z" style="opacity:0.75;color:black;fill:white;fill-opacity:1;fill-rule:nonzero;stroke:none;stroke-width:1;marker:none;visibility:visible;display:inline;overflow:visible;enable-background:accumulate" sodipodi:nodetypes="ccccccccccccccccccccc" />
    <path sodipodi:nodetypes="ccccccccccccccccccccc" style="opacity:0.75;color:black;fill:url(#linearGradient2997);fill-opacity:1;fill-rule:nonzero;stroke:none;stroke-width:1;marker:none;visibility:visible;display:inline;overflow:visible;enable-background:accumulate" d="m 8.5,1036.3622 -1.5,2 0,0.9985 3,0 0,-1 z m -7.5,0 0,15 15,0 -5,-5 0,2 -7,0 0,-6 2,2 0,-3 z m 6,4 0,7 3,0 0,-7 z" id="path3608" inkscape:connector-curvature="0" />
  </g>
</svg>
