<?xml version="1.0" encoding="UTF-8" standalone="no"?>
<!-- Created with Inkscape (http://www.inkscape.org/) -->

<svg xmlns:dc="http://purl.org/dc/elements/1.1/" xmlns:cc="http://creativecommons.org/ns#" xmlns:rdf="http://www.w3.org/1999/02/22-rdf-syntax-ns#" xmlns:svg="http://www.w3.org/2000/svg" xmlns="http://www.w3.org/2000/svg" xmlns:xlink="http://www.w3.org/1999/xlink" xmlns:sodipodi="http://sodipodi.sourceforge.net/DTD/sodipodi-0.dtd" xmlns:inkscape="http://www.inkscape.org/namespaces/inkscape" width="16" height="16" id="svg6662" version="1.1" inkscape:version="0.48.4 r9939" sodipodi:docname="applications-internet.svg">
  <defs id="defs6664">
    <linearGradient gradientUnits="userSpaceOnUse" id="linearGradient1022-8-8-3-0-1-0" x2="0" y1="3.0069399" y2="11.02436">
      <stop offset="0" id="stop3001-0-9-4-2-2" />
      <stop offset="1" stop-color="#363636" id="stop3003-5-6-6-2-3" />
    </linearGradient>
    <linearGradient y2="23.446781" x2="232.12924" y1="9.5369329" x1="232.12924" gradientTransform="matrix(1.119994,0,0,1.0064811,-76.983362,59.49574)" gradientUnits="userSpaceOnUse" id="linearGradient3229" xlink:href="#linearGradient1022-8-8-3-0-1-0" inkscape:collect="always" />
    <linearGradient inkscape:collect="always" xlink:href="#linearGradient1022-8-8-3-0-1-0" id="linearGradient2992" gradientUnits="userSpaceOnUse" gradientTransform="matrix(1.119994,0,0,1.0064811,-251.98336,1027.7635)" x1="232.12924" y1="9.5369329" x2="232.12924" y2="23.446781" />
  </defs>
  <sodipodi:namedview id="base" pagecolor="#ffffff" bordercolor="#666666" borderopacity="1.0" inkscape:pageopacity="0.0" inkscape:pageshadow="2" inkscape:zoom="31.678384" inkscape:cx="9.3529302" inkscape:cy="7.9598346" inkscape:document-units="px" inkscape:current-layer="capa1" showgrid="true" inkscape:showpageshadow="false" inkscape:window-width="920" inkscape:window-height="931" inkscape:window-x="78" inkscape:window-y="0" inkscape:window-maximized="0" inkscape:snap-bbox="true">
    <inkscape:grid type="xygrid" id="grid3199" empspacing="5" visible="true" enabled="true" snapvisiblegridlinesonly="true" />
  </sodipodi:namedview>
  <metadata id="metadata6667">
    <rdf:RDF>
      <cc:Work rdf:about="">
        <dc:format>image/svg+xml</dc:format>
        <dc:type rdf:resource="http://purl.org/dc/dcmitype/StillImage" />
        <dc:title />
      </cc:Work>
    </rdf:RDF>
  </metadata>
  <g inkscape:label="Capa 1" inkscape:groupmode="layer" id="capa1" transform="translate(0,-1036.3622)">
    <path sodipodi:nodetypes="cccccccccccccccccccccccccccccccccccccccccccccccccccccccc" inkscape:connector-curvature="0" id="path3775" d="m 4,1038.3622 -3,3 0,8 3,3 8,0 3,-3 0,-8 -3,-3 z m 1,2 1,0 0,3 -3,-1 z m 2,0 2,0 0,3 -2,0 z m 3,0 1,0 2,2 -3,1 z m -7,3 3,1 0,3 -3,-1 z m 10,0 0,3 -3,1 0,-3 z m -6,1 2,0 0,3 -2,0 z m -4,3 3,1 0,2 -1,0 -2,-2 z m 10,0 0,1 -2,2 -1,0 0,-2 z m -6,1 2,0 0,2 -2,0 z" style="opacity:0.75;color:black;fill:white;fill-opacity:1;fill-rule:nonzero;stroke:none;stroke-width:1;marker:none;visibility:visible;display:inline;overflow:visible;enable-background:accumulate" />
    <path style="opacity:0.75;color:black;fill:url(#linearGradient2992);fill-opacity:1;fill-rule:nonzero;stroke:none;stroke-width:1;marker:none;visibility:visible;display:inline;overflow:visible;enable-background:accumulate" d="m 4,1037.3622 -3,3 0,8 3,3 8,0 3,-3 0,-8 -3,-3 z m 1,2 1,0 0,3 -3,-1 z m 2,0 2,0 0,3 -2,0 z m 3,0 1,0 2,2 -3,1 z m -7,3 3,1 0,3 -3,-1 z m 10,0 0,3 -3,1 0,-3 z m -6,1 2,0 0,3 -2,0 z m -4,3 3,1 0,2 -1,0 -2,-2 z m 10,0 0,1 -2,2 -1,0 0,-2 z m -6,1 2,0 0,2 -2,0 z" id="path6681" inkscape:connector-curvature="0" sodipodi:nodetypes="cccccccccccccccccccccccccccccccccccccccccccccccccccccccc" />
  </g>
</svg>
