<?xml version="1.0" encoding="UTF-8" standalone="no"?>
<!-- Created with Inkscape (http://www.inkscape.org/) -->

<svg xmlns:dc="http://purl.org/dc/elements/1.1/" xmlns:cc="http://creativecommons.org/ns#" xmlns:rdf="http://www.w3.org/1999/02/22-rdf-syntax-ns#" xmlns:svg="http://www.w3.org/2000/svg" xmlns="http://www.w3.org/2000/svg" xmlns:xlink="http://www.w3.org/1999/xlink" xmlns:sodipodi="http://sodipodi.sourceforge.net/DTD/sodipodi-0.dtd" xmlns:inkscape="http://www.inkscape.org/namespaces/inkscape" width="16" height="16" id="svg3330" version="1.1" inkscape:version="0.48.4 r9939" sodipodi:docname="applications-office.svg">
  <defs id="defs3332">
    <linearGradient y2="11.02436" y1="3.0069399" x2="0" id="linearGradient1022-8-8-3-0-27" gradientUnits="userSpaceOnUse">
      <stop id="stop3001-0-9-4-6" offset="0" />
      <stop id="stop3003-5-6-6-01" stop-color="#363636" offset="1" />
    </linearGradient>
    <linearGradient y2="-281.84232" x2="235.7007" y1="-296.74573" x1="235.7007" gradientTransform="matrix(1.119994,0,0,1.0064811,81.016638,387.76344)" gradientUnits="userSpaceOnUse" id="linearGradient4164" xlink:href="#linearGradient1022-8-8-3-0-27" inkscape:collect="always" />
    <linearGradient inkscape:collect="always" xlink:href="#linearGradient1022-8-8-3-0-27" id="linearGradient2992" gradientUnits="userSpaceOnUse" gradientTransform="matrix(1.119994,0,0,1.0064811,-253.98336,1336.0312)" x1="235.7007" y1="-296.74573" x2="235.7007" y2="-282.83591" />
  </defs>
  <sodipodi:namedview id="base" pagecolor="#ffffff" bordercolor="#666666" borderopacity="1.0" inkscape:pageopacity="0.0" inkscape:pageshadow="2" inkscape:zoom="31.678384" inkscape:cx="9.9802495" inkscape:cy="8.285492" inkscape:document-units="px" inkscape:current-layer="capa1" showgrid="true" inkscape:showpageshadow="false" inkscape:window-width="1280" inkscape:window-height="949" inkscape:window-x="0" inkscape:window-y="0" inkscape:window-maximized="1" inkscape:snap-bbox="true">
    <inkscape:grid type="xygrid" id="grid2990" />
  </sodipodi:namedview>
  <metadata id="metadata3335">
    <rdf:RDF>
      <cc:Work rdf:about="">
        <dc:format>image/svg+xml</dc:format>
        <dc:type rdf:resource="http://purl.org/dc/dcmitype/StillImage" />
        <dc:title />
      </cc:Work>
    </rdf:RDF>
  </metadata>
  <g inkscape:label="Capa 1" inkscape:groupmode="layer" id="capa1" transform="translate(0,-1036.3622)">
    <path inkscape:connector-curvature="0" id="path3775" d="m 4,1038.3622 -2,2 0,10 2,2 8,0 2,-2 0,-10 -2,-2 z m 0,3 1,-1 6,0 1,1 0,8 -1,1 -6,0 -1,-1 z m 2,0 -1,1 0,1 6,0 0,-1 -1,-1 z m -1,3 0,2 6,0 0,-2 z m 0,3 0,1 1,1 3,0 0,-2 z" style="opacity:0.75;color:black;fill:white;fill-opacity:1;fill-rule:nonzero;stroke:none;stroke-width:1;marker:none;visibility:visible;display:inline;overflow:visible;enable-background:accumulate" sodipodi:nodetypes="cccccccccccccccccccccccccccccccccccc" />
    <path sodipodi:nodetypes="cccccccccccccccccccccccccccccccccccc" style="opacity:0.75;color:black;fill:url(#linearGradient2992);fill-opacity:1;fill-rule:nonzero;stroke:none;stroke-width:1;marker:none;visibility:visible;display:inline;overflow:visible;enable-background:accumulate" d="m 4,1037.3622 -2,2 0,10 2,2 8,0 2,-2 0,-10 -2,-2 z m 0,3 1,-1 6,0 1,1 0,8 -1,1 -6,0 -1,-1 z m 2,0 -1,1 0,1 6,0 0,-1 -1,-1 z m -1,3 0,2 6,0 0,-2 z m 0,3 0,1 1,1 3,0 0,-2 z" id="path4586" inkscape:connector-curvature="0" />
  </g>
</svg>
