<?xml version="1.0" encoding="UTF-8" standalone="no"?>
<!-- Created with Inkscape (http://www.inkscape.org/) -->

<svg xmlns:dc="http://purl.org/dc/elements/1.1/" xmlns:cc="http://creativecommons.org/ns#" xmlns:rdf="http://www.w3.org/1999/02/22-rdf-syntax-ns#" xmlns:svg="http://www.w3.org/2000/svg" xmlns="http://www.w3.org/2000/svg" xmlns:xlink="http://www.w3.org/1999/xlink" xmlns:sodipodi="http://sodipodi.sourceforge.net/DTD/sodipodi-0.dtd" xmlns:inkscape="http://www.inkscape.org/namespaces/inkscape" width="16" height="16" id="svg3330" version="1.1" inkscape:version="0.48.4 r9939" sodipodi:docname="applications-education16.svg">
    <defs id="defs3332">
        <linearGradient y2="11.02436" y1="3.0069399" x2="0" id="linearGradient1022-8-8-3-0-27" gradientUnits="userSpaceOnUse">
            <stop id="stop3001-0-9-4-6" offset="0" />
            <stop id="stop3003-5-6-6-01" stop-color="#363636" offset="1" />
        </linearGradient>
        <linearGradient inkscape:collect="always" xlink:href="#linearGradient1022-8-8-3-0-27" id="linearGradient3927" gradientUnits="userSpaceOnUse" gradientTransform="matrix(7.839958,0,0,1.7253961,-1804.8836,1540.7947)" x1="231.23639" y1="-291.77792" x2="231.23639" y2="-284.24344" />
    </defs>
    <sodipodi:namedview id="base" pagecolor="#ffffff" bordercolor="#666666" borderopacity="1.0" inkscape:pageopacity="0.0" inkscape:pageshadow="2" inkscape:zoom="22.627417" inkscape:cx="15.318383" inkscape:cy="10.450213" inkscape:document-units="px" inkscape:current-layer="capa1" showgrid="true" inkscape:showpageshadow="false" inkscape:window-width="1280" inkscape:window-height="951" inkscape:window-x="0" inkscape:window-y="0" inkscape:window-maximized="1" inkscape:snap-bbox="true" inkscape:snap-global="true" inkscape:snap-nodes="false" inkscape:bbox-nodes="false" inkscape:snap-bbox-edge-midpoints="false" inkscape:bbox-paths="false">
        <inkscape:grid type="xygrid" id="grid2990" />
    </sodipodi:namedview>
    <metadata id="metadata3335">
        <rdf:RDF>
            <cc:Work rdf:about="">
                <dc:format>image/svg+xml</dc:format>
                <dc:type rdf:resource="http://purl.org/dc/dcmitype/StillImage" />
                <dc:title />
            </cc:Work>
        </rdf:RDF>
    </metadata>
    <g inkscape:label="Capa 1" inkscape:groupmode="layer" id="capa1" transform="translate(0,-1036.3622)">
        <path inkscape:connector-curvature="0" id="path3929" d="m 2,1038.3622 -2,2 0,9 1,1 6,0 1,1 1,-1 6,0 1,-1 0,-9 -2,-2 -4,0 -2,2 -2,-2 -4,0 z m 0,1 4,0 1,1 0,8 -1,-1 -4,0 -1,1 0,-8 1,-1 z m 8,0 4,0 1,1 0,8 -1,-1 -4,0 -1,1 0,-8 1,-1 z" style="opacity:0.75000000000000000;color:black;fill:white;fill-opacity:1;fill-rule:nonzero;stroke:none;stroke-width:1;marker:none;visibility:visible;display:inline;overflow:visible;enable-background:accumulate" />
        <path style="opacity:0.75;color:black;fill:url(#linearGradient3927);fill-opacity:1;fill-rule:nonzero;stroke:none;stroke-width:1;marker:none;visibility:visible;display:inline;overflow:visible;enable-background:accumulate" d="m 2,1037.3622 -2,2 0,9 1,1 6,0 1,1 1,-1 6,0 1,-1 0,-9 -2,-2 -4,0 -2,2 -2,-2 -4,0 z m 0,1 4,0 1,1 0,8 -1,-1 -4,0 -1,1 0,-8 1,-1 z m 8,0 4,0 1,1 0,8 -1,-1 -4,0 -1,1 0,-8 1,-1 z" id="path2992" inkscape:connector-curvature="0" />
    </g>
</svg>
