<?xml version="1.0" encoding="UTF-8" standalone="no"?>
<!-- Created with Inkscape (http://www.inkscape.org/) -->

<svg
   xmlns:dc="http://purl.org/dc/elements/1.1/"
   xmlns:cc="http://creativecommons.org/ns#"
   xmlns:rdf="http://www.w3.org/1999/02/22-rdf-syntax-ns#"
   xmlns:svg="http://www.w3.org/2000/svg"
   xmlns="http://www.w3.org/2000/svg"
   xmlns:xlink="http://www.w3.org/1999/xlink"
   xmlns:sodipodi="http://sodipodi.sourceforge.net/DTD/sodipodi-0.dtd"
   xmlns:inkscape="http://www.inkscape.org/namespaces/inkscape"
   width="16"
   height="16"
   id="svg6662"
   version="1.1"
   inkscape:version="0.48.3.1 r9886"
   sodipodi:docname="applications-internet.svg">
  <defs
     id="defs6664">
    <linearGradient
       gradientUnits="userSpaceOnUse"
       id="linearGradient1022-8-8-3-0-1-0"
       x2="0"
       y1="3.0069399"
       y2="11.02436">
      <stop
         offset="0"
         id="stop3001-0-9-4-2-2" />
      <stop
         offset="1"
         stop-color="#363636"
         id="stop3003-5-6-6-2-3" />
    </linearGradient>
    <linearGradient
       y2="23.446781"
       x2="232.12924"
       y1="9.5369329"
       x1="232.12924"
       gradientTransform="matrix(1.119994,0,0,1.0064811,-76.983362,59.49574)"
       gradientUnits="userSpaceOnUse"
       id="linearGradient3229"
       xlink:href="#linearGradient1022-8-8-3-0-1-0"
       inkscape:collect="always" />
  </defs>
  <sodipodi:namedview
     id="base"
     pagecolor="#ffffff"
     bordercolor="#666666"
     borderopacity="1.0"
     inkscape:pageopacity="0.0"
     inkscape:pageshadow="2"
     inkscape:zoom="15.839192"
     inkscape:cx="9.3529302"
     inkscape:cy="7.8651328"
     inkscape:document-units="px"
     inkscape:current-layer="capa1"
     showgrid="true"
     inkscape:showpageshadow="false"
     inkscape:window-width="730"
     inkscape:window-height="702"
     inkscape:window-x="167"
     inkscape:window-y="155"
     inkscape:window-maximized="0">
    <inkscape:grid
       type="xygrid"
       id="grid3199"
       empspacing="5"
       visible="true"
       enabled="true"
       snapvisiblegridlinesonly="true" />
  </sodipodi:namedview>
  <metadata
     id="metadata6667">
    <rdf:RDF>
      <cc:Work
         rdf:about="">
        <dc:format>image/svg+xml</dc:format>
        <dc:type
           rdf:resource="http://purl.org/dc/dcmitype/StillImage" />
        <dc:title />
      </cc:Work>
    </rdf:RDF>
  </metadata>
  <g
     inkscape:label="Capa 1"
     inkscape:groupmode="layer"
     id="capa1"
     transform="translate(0,-1036.3622)">
    <g
       transform="translate(-175,660.00002)"
       id="g4128">
      <rect
         y="376.36218"
         x="175"
         height="16"
         width="16"
         id="rect2997"
         style="opacity:0.6;color:#000000;fill:none;stroke:none;stroke-width:1;marker:none;visibility:visible;display:inline;overflow:visible;enable-background:accumulate" />
      <path
         inkscape:connector-curvature="0"
         style="opacity:0.6;color:#000000;fill:#ffffff;fill-opacity:1;fill-rule:nonzero;stroke:none;stroke-width:1;marker:none;visibility:visible;display:inline;overflow:visible;enable-background:accumulate"
         d="m 179,378.36218 -3,3 0,8 3,3 3,0 3,0 2,0 3,-3 0,-8 -3,-3 -8,0 z m 1,2 1,0 0,3 -3,-1 2,-2 z m 2,0 2,0 0,3 -2,0 0,-3 z m 3,0 1,0 2,2 -3,1 0,-3 z m -7,3 3,1 0,3 -3,-1 0,-3 z m 10,0 0,3 -3,1 0,-3 3,-1 z m -6,1 2,0 0,3 -2,0 0,-3 z m -4,3 3,1 0,2 -1,0 -2,-2 0,-1 z m 10,0 0,1 -2,2 -1,0 0,-2 3,-1 z m -6,1 2,0 0,2 -2,0 0,-2 z"
         id="path4120" />
      <path
         inkscape:connector-curvature="0"
         id="path6681"
         transform="translate(0,308.2677)"
         d="m 179,69.09375 -3,3 0,8 3,3 3,0 3,0 2,0 3,-3 0,-8 -3,-3 -8,0 z m 1,2 1,0 0,3 -3,-1 2,-2 z m 2,0 2,0 0,3 -2,0 0,-3 z m 3,0 1,0 2,2 -3,1 0,-3 z m -7,3 3,1 0,3 -3,-1 0,-3 z m 10,0 0,3 -3,1 0,-3 3,-1 z m -6,1 2,0 0,3 -2,0 0,-3 z m -4,3 3,1 0,2 -1,0 -2,-2 0,-1 z m 10,0 0,1 -2,2 -1,0 0,-2 3,-1 z m -6,1 2,0 0,2 -2,0 0,-2 z"
         style="opacity:0.7;color:#000000;fill:url(#linearGradient3229);fill-opacity:1;fill-rule:nonzero;stroke:none;stroke-width:1;marker:none;visibility:visible;display:inline;overflow:visible;enable-background:accumulate" />
    </g>
  </g>
</svg>
