<?xml version="1.0" encoding="UTF-8" standalone="no"?>
<!-- Created with Inkscape (http://www.inkscape.org/) -->

<svg xmlns:dc="http://purl.org/dc/elements/1.1/" xmlns:cc="http://creativecommons.org/ns#" xmlns:rdf="http://www.w3.org/1999/02/22-rdf-syntax-ns#" xmlns:svg="http://www.w3.org/2000/svg" xmlns="http://www.w3.org/2000/svg" xmlns:xlink="http://www.w3.org/1999/xlink" xmlns:sodipodi="http://sodipodi.sourceforge.net/DTD/sodipodi-0.dtd" xmlns:inkscape="http://www.inkscape.org/namespaces/inkscape" width="16" height="16" id="svg3330" version="1.1" inkscape:version="0.48.4 r9939" sodipodi:docname="applications-system.svg">
  <defs id="defs3332">
    <linearGradient y2="11.02436" y1="3.0069399" x2="0" id="linearGradient1022-8-8-3-0-2-9-92-6" gradientUnits="userSpaceOnUse">
      <stop id="stop3001-0-9-4-1-28-7-7" offset="0" />
      <stop id="stop3003-5-6-6-1-8-8-9" stop-color="#363636" offset="1" />
    </linearGradient>
    <linearGradient inkscape:collect="always" xlink:href="#linearGradient1022-8-8-3-0-2-9-92-6" id="linearGradient3058" gradientUnits="userSpaceOnUse" gradientTransform="matrix(6.719964,0,0,1.0064855,-817.90016,-0.5942)" x1="122.75365" y1="1.5839274" x2="122.75365" y2="15.493715" />
    <linearGradient inkscape:collect="always" xlink:href="#linearGradient1022-8-8-3-0-2-9-92-6" id="linearGradient2992" gradientUnits="userSpaceOnUse" gradientTransform="matrix(6.719964,0,0,1.0064855,-817.90016,1035.768)" x1="122.75365" y1="1.5839274" x2="122.75365" y2="15.493715" />
  </defs>
  <sodipodi:namedview id="base" pagecolor="#ffffff" bordercolor="#666666" borderopacity="1.0" inkscape:pageopacity="0.0" inkscape:pageshadow="2" inkscape:zoom="22.627417" inkscape:cx="17.971611" inkscape:cy="6.6093503" inkscape:document-units="px" inkscape:current-layer="capa1" showgrid="true" inkscape:showpageshadow="false" inkscape:window-width="1280" inkscape:window-height="949" inkscape:window-x="0" inkscape:window-y="0" inkscape:window-maximized="1">
    <inkscape:grid type="xygrid" id="grid3004" />
  </sodipodi:namedview>
  <metadata id="metadata3335">
    <rdf:RDF>
      <cc:Work rdf:about="">
        <dc:format>image/svg+xml</dc:format>
        <dc:type rdf:resource="http://purl.org/dc/dcmitype/StillImage" />
        <dc:title />
      </cc:Work>
    </rdf:RDF>
  </metadata>
  <g inkscape:label="Capa 1" inkscape:groupmode="layer" id="capa1" transform="translate(0,-1036.3622)">
    <path id="path3060" d="M 3.1875,1038.3622 1,1040.5497 l 0,6.625 2.1875,2.1875 1.8125,0 -2,2 0,1 10,0 0,-1 -2,-2 2,0 2,-2 0,-7 -2,-2 -9.8125,0 z m 0.8125,2 8,0 1,1 0,5 -1,1 -8,0 -1,-1 0,-5 1,-1 z" style="text-indent:0;text-transform:none;block-progression:tb;opacity:0.75;color:black;fill:white;fill-opacity:1;fill-rule:nonzero;stroke:none;stroke-width:1;marker:none;visibility:visible;display:inline;overflow:visible;enable-background:accumulate" inkscape:connector-curvature="0" />
    <path inkscape:connector-curvature="0" style="text-indent:0;text-transform:none;block-progression:tb;opacity:0.75;color:black;fill:url(#linearGradient2992);fill-opacity:1;fill-rule:nonzero;stroke:none;stroke-width:1;marker:none;visibility:visible;display:inline;overflow:visible;enable-background:accumulate" d="M 3.1875,1037.3622 1,1039.5497 l 0,6.625 2.1875,2.1875 1.8125,0 -2,2 0,1 10,0 0,-1 -2,-2 2,0 2,-2 0,-7 -2,-2 -9.8125,0 z m 0.8125,2 8,0 1,1 0,5 -1,1 -8,0 -1,-1 0,-5 1,-1 z" id="rect11749-5" />
  </g>
</svg>
