<?xml version="1.0" encoding="UTF-8" standalone="no"?>
<!-- Created with Inkscape (http://www.inkscape.org/) -->

<svg
   xmlns:dc="http://purl.org/dc/elements/1.1/"
   xmlns:cc="http://creativecommons.org/ns#"
   xmlns:rdf="http://www.w3.org/1999/02/22-rdf-syntax-ns#"
   xmlns:svg="http://www.w3.org/2000/svg"
   xmlns="http://www.w3.org/2000/svg"
   xmlns:xlink="http://www.w3.org/1999/xlink"
   xmlns:sodipodi="http://sodipodi.sourceforge.net/DTD/sodipodi-0.dtd"
   xmlns:inkscape="http://www.inkscape.org/namespaces/inkscape"
   width="16"
   height="16"
   id="svg6662"
   version="1.1"
   inkscape:version="0.48.3.1 r9886"
   sodipodi:docname="applications-development.svg">
  <defs
     id="defs6664">
    <linearGradient
       y2="11.02436"
       y1="3.0069399"
       x2="0"
       id="linearGradient1022-8-8-3-0-06-59-7-8-0-2"
       gradientUnits="userSpaceOnUse">
      <stop
         id="stop3001-0-9-4-9-02-6-2-81-9"
         offset="0" />
      <stop
         id="stop3003-5-6-6-5-70-7-1-4-9"
         stop-color="#363636"
         offset="1" />
    </linearGradient>
    <linearGradient
       inkscape:collect="always"
       xlink:href="#linearGradient1022-8-8-3-0-06-59-7-8-0-2"
       id="linearGradient3141"
       gradientUnits="userSpaceOnUse"
       gradientTransform="matrix(2.3556973,0,0,2.3198273,-529.79651,-2249.3279)"
       x1="228.2961"
       y1="1417.2133"
       x2="228.2961"
       y2="1422.3861" />
  </defs>
  <sodipodi:namedview
     id="base"
     pagecolor="#ffffff"
     bordercolor="#666666"
     borderopacity="1.0"
     inkscape:pageopacity="0.0"
     inkscape:pageshadow="2"
     inkscape:zoom="22.627416"
     inkscape:cx="12.017207"
     inkscape:cy="9.4119289"
     inkscape:document-units="px"
     inkscape:current-layer="capa1"
     showgrid="true"
     inkscape:showpageshadow="false"
     inkscape:window-width="1280"
     inkscape:window-height="976"
     inkscape:window-x="0"
     inkscape:window-y="24"
     inkscape:window-maximized="1">
    <inkscape:grid
       type="xygrid"
       id="grid3199"
       empspacing="5"
       visible="true"
       enabled="true"
       snapvisiblegridlinesonly="true" />
  </sodipodi:namedview>
  <metadata
     id="metadata6667">
    <rdf:RDF>
      <cc:Work
         rdf:about="">
        <dc:format>image/svg+xml</dc:format>
        <dc:type
           rdf:resource="http://purl.org/dc/dcmitype/StillImage" />
        <dc:title />
      </cc:Work>
    </rdf:RDF>
  </metadata>
  <g
     inkscape:label="Capa 1"
     inkscape:groupmode="layer"
     id="capa1"
     transform="translate(0,-1036.3622)">
    <rect
       y="1036.3629"
       x="0"
       height="16"
       width="16"
       id="rect2989"
       style="opacity:0.6;color:#000000;fill:none;stroke:none;stroke-width:1;marker:none;visibility:visible;display:inline;overflow:visible;enable-background:accumulate" />
    <path
       inkscape:connector-curvature="0"
       d="m 7.4035133,1039.7578 c 0.4299589,-0.015 0.8544428,0.2266 1.0742974,0.6669 0.1325945,0.2654 0.1576629,0.6776 0.042129,0.9792 -0.1740114,0.4538 -0.5805212,0.7292 -1.0742961,0.7292 -0.2600079,0 -0.2704369,0.012 -0.252776,0.083 0.010219,0.046 0.057528,1.0637 0.1263873,2.2502 0.094244,1.6237 0.1155609,2.1963 0.084259,2.3125 -0.022869,0.084 -0.028271,0.1556 -0.021065,0.1667 0.3598894,0.2011 0.7244812,0.4048 1.1164262,0.521 0.3055217,-0.4246 0.8807697,-1.0536 0.9900374,-1.1043 0.7586415,-0.1044 1.5609915,-0.1187 2.3171115,0 1.29354,1.4836 2.561248,3.1077 3.707378,4.7087 l -9.4369614,0.021 2.0011412,-3.1043 c -0.00821,-0.012 -0.6597301,-0.3297 -1.4323957,-0.7294 -1.2568018,-0.6497 -1.4986956,-0.772 -1.4955895,-0.6666 4.569e-4,0.017 0.092755,0.4363 0.210646,0.9167 l 0.273841,0.8543 0,1.2916 c 0.0043,1.2311 -0.00606,1.2569 -0.084259,1.3335 -0.085851,0.083 -0.2553784,0.11 -0.7583278,0.062 l 0,-0.021 c -0.1812358,-0.017 -0.4195224,-0.082 -0.4844868,-0.1457 l 0.021065,-2.6252 -0.2317109,-0.8334 -0.2106472,-0.8334 -1.1796199,2.0419 c -0.6513812,1.1222 -1.2492731,2.1074 -1.3270722,2.1874 -0.1974932,0.2037 -0.3124987,0.1839 -0.65300409,-0.062 -0.29157777,-0.2109 -0.35399139,-0.325 -0.31596968,-0.5209 0.0342548,-0.1766 8.0907e-4,-0.1078 1.39026717,-2.5003 0.6886216,-1.1855 1.254916,-2.2042 1.2638784,-2.25 0.013934,-0.071 -0.037158,-0.1023 -0.4002282,-0.2918 -0.4192525,-0.2193 -0.4275319,-0.2254 -0.484487,-0.1458 -0.1011594,0.1416 -0.2435573,0.1044 -0.526617,-0.1458 -0.388431,-0.3439 -0.4139412,-0.2958 0.4423583,-1.8751 0.3882533,-0.7161 0.7691671,-1.3425 0.8215216,-1.396 l 0.084259,-0.1033 1.7062355,0 1.7062366,-0.02 -0.063195,-0.1875 c -0.1352449,-0.4265 0.00794,-0.9398 0.3370332,-1.2501 0.2093435,-0.1976 0.4582233,-0.3032 0.7161981,-0.3125 z m -3.5599245,3.0002 -0.4212933,0.021 -0.442357,0.8336 c -0.2478611,0.4579 -0.4522634,0.8445 -0.4423581,0.8541 0.025268,0.025 0.7551788,0.3746 0.7793929,0.3751 0.010859,10e-5 0.2191223,-0.44 0.4634218,-0.9794 0.2442982,-0.5391 0.4486878,-1.0036 0.4634219,-1.0416 0.024839,-0.063 -0.00467,-0.072 -0.4002282,-0.062 z m 2.8015978,1.0418 -1.1796198,2.146 1.1796198,0.5209 z"
       style="opacity:0.6;color:#000000;fill:#ffffff;fill-opacity:1;fill-rule:nonzero;stroke:none;stroke-width:1;marker:none;visibility:visible;display:inline;overflow:visible;enable-background:accumulate"
       id="path3143" />
    <path
       id="path3169"
       style="opacity:0.7;color:#000000;fill:url(#linearGradient3141);fill-opacity:1;fill-rule:nonzero;stroke:none;stroke-width:1.00139093;marker:none;visibility:visible;display:inline;overflow:visible;enable-background:accumulate"
       d="m 7.4035133,1038.6953 c 0.4299589,-0.015 0.8544428,0.2266 1.0742974,0.6669 0.1325945,0.2654 0.1576629,0.6776 0.042129,0.9792 -0.1740114,0.4538 -0.5805212,0.7292 -1.0742961,0.7292 -0.2600079,0 -0.2704369,0.012 -0.252776,0.083 0.010219,0.046 0.057528,1.0637 0.1263873,2.2502 0.094244,1.6237 0.1155609,2.1963 0.084259,2.3125 -0.022869,0.084 -0.028271,0.1556 -0.021065,0.1667 0.3598894,0.2011 0.7244812,0.4048 1.1164262,0.521 0.3055217,-0.4246 0.8807697,-1.0536 0.9900374,-1.1043 0.7586425,-0.1044 1.5609915,-0.1187 2.3171115,0 1.29354,1.4836 2.561248,3.1077 3.707378,4.7087 l -9.4369614,0.021 2.0011412,-3.1043 c -0.00821,-0.012 -0.6597301,-0.3297 -1.4323957,-0.7294 -1.2568018,-0.6497 -1.4986956,-0.772 -1.4955895,-0.6666 4.569e-4,0.017 0.092755,0.4363 0.210646,0.9167 l 0.273841,0.8543 0,1.2916 c 0.0043,1.2311 -0.00606,1.2569 -0.084259,1.3335 -0.085851,0.083 -0.2553784,0.11 -0.7583278,0.062 l 0,-0.021 c -0.1812358,-0.017 -0.4195224,-0.082 -0.4844868,-0.1457 l 0.021065,-2.6252 -0.2317109,-0.8334 -0.2106472,-0.8334 -1.1796199,2.0419 c -0.6513812,1.1222 -1.2492731,2.1074 -1.3270722,2.1874 -0.1974932,0.2037 -0.3124987,0.1839 -0.65300409,-0.062 -0.29157777,-0.2109 -0.35399139,-0.325 -0.31596968,-0.5209 0.0342548,-0.1766 8.0907e-4,-0.1078 1.39026717,-2.5003 0.6886216,-1.1855 1.254916,-2.2042 1.2638784,-2.25 0.013934,-0.071 -0.037158,-0.1023 -0.4002282,-0.2918 -0.4192525,-0.2193 -0.4275319,-0.2254 -0.484487,-0.1458 -0.1011594,0.1416 -0.2435573,0.1044 -0.526617,-0.1458 -0.388431,-0.3439 -0.4139412,-0.2958 0.4423583,-1.8751 0.3882533,-0.7161 0.7691671,-1.3425 0.8215216,-1.396 l 0.084259,-0.1033 1.7062355,0 1.7062366,-0.02 -0.063195,-0.1875 c -0.1352449,-0.4265 0.00794,-0.9398 0.3370332,-1.2501 0.2093435,-0.1976 0.4582233,-0.3032 0.7161981,-0.3125 z m -3.5599245,3.0002 -0.4212933,0.021 -0.442357,0.8336 c -0.2478611,0.4579 -0.4522634,0.8445 -0.4423581,0.8541 0.025268,0.025 0.7551788,0.3746 0.7793929,0.3751 0.010859,10e-5 0.2191223,-0.44 0.4634218,-0.9794 0.2442982,-0.5391 0.4486878,-1.0036 0.4634219,-1.0416 0.024839,-0.063 -0.00467,-0.072 -0.4002282,-0.062 z m 2.8015978,1.0418 -1.1796198,2.146 1.1796198,0.5209 z"
       inkscape:connector-curvature="0" />
  </g>
</svg>
