<?xml version="1.0" encoding="UTF-8" standalone="no"?>
<!-- Created with Inkscape (http://www.inkscape.org/) -->

<svg
   xmlns:dc="http://purl.org/dc/elements/1.1/"
   xmlns:cc="http://creativecommons.org/ns#"
   xmlns:rdf="http://www.w3.org/1999/02/22-rdf-syntax-ns#"
   xmlns:svg="http://www.w3.org/2000/svg"
   xmlns="http://www.w3.org/2000/svg"
   xmlns:xlink="http://www.w3.org/1999/xlink"
   xmlns:sodipodi="http://sodipodi.sourceforge.net/DTD/sodipodi-0.dtd"
   xmlns:inkscape="http://www.inkscape.org/namespaces/inkscape"
   width="16"
   height="16"
   id="svg3330"
   version="1.1"
   inkscape:version="0.48.3.1 r9886"
   sodipodi:docname="applications-office.svg">
  <defs
     id="defs3332">
    <linearGradient
       y2="11.02436"
       y1="3.0069399"
       x2="0"
       id="linearGradient1022-8-8-3-0-27"
       gradientUnits="userSpaceOnUse">
      <stop
         id="stop3001-0-9-4-6"
         offset="0" />
      <stop
         id="stop3003-5-6-6-01"
         stop-color="#363636"
         offset="1" />
    </linearGradient>
    <linearGradient
       y2="-281.84232"
       x2="235.7007"
       y1="-296.74573"
       x1="235.7007"
       gradientTransform="matrix(1.119994,0,0,1.0064811,81.016638,387.76344)"
       gradientUnits="userSpaceOnUse"
       id="linearGradient4164"
       xlink:href="#linearGradient1022-8-8-3-0-27"
       inkscape:collect="always" />
    <linearGradient
       inkscape:collect="always"
       xlink:href="#linearGradient1022-8-8-3-0-27"
       id="linearGradient3005"
       gradientUnits="userSpaceOnUse"
       gradientTransform="matrix(1.119994,0,0,1.0064811,-269.98336,1336.0312)"
       x1="235.7007"
       y1="-296.74573"
       x2="235.7007"
       y2="-281.84232" />
    <linearGradient
       inkscape:collect="always"
       xlink:href="#linearGradient1022-8-8-3-0-27-8"
       id="linearGradient3005-9"
       gradientUnits="userSpaceOnUse"
       gradientTransform="matrix(1.119994,0,0,1.0064811,-269.98336,1336.0312)"
       x1="235.7007"
       y1="-296.74573"
       x2="235.7007"
       y2="-281.84232" />
    <linearGradient
       y2="11.02436"
       y1="3.0069399"
       x2="0"
       id="linearGradient1022-8-8-3-0-27-8"
       gradientUnits="userSpaceOnUse">
      <stop
         id="stop3001-0-9-4-6-5"
         offset="0" />
      <stop
         id="stop3003-5-6-6-01-8"
         stop-color="#363636"
         offset="1" />
    </linearGradient>
    <linearGradient
       y2="-281.84232"
       x2="235.7007"
       y1="-296.74573"
       x1="235.7007"
       gradientTransform="matrix(1.119994,0,0,1.0064811,-255.98336,298.669)"
       gradientUnits="userSpaceOnUse"
       id="linearGradient3037"
       xlink:href="#linearGradient1022-8-8-3-0-27-8"
       inkscape:collect="always" />
  </defs>
  <sodipodi:namedview
     id="base"
     pagecolor="#ffffff"
     bordercolor="#666666"
     borderopacity="1.0"
     inkscape:pageopacity="0.0"
     inkscape:pageshadow="2"
     inkscape:zoom="31.678384"
     inkscape:cx="11.24294"
     inkscape:cy="7.4016085"
     inkscape:document-units="px"
     inkscape:current-layer="capa1"
     showgrid="true"
     inkscape:showpageshadow="false"
     inkscape:window-width="1280"
     inkscape:window-height="976"
     inkscape:window-x="0"
     inkscape:window-y="24"
     inkscape:window-maximized="1">
    <inkscape:grid
       type="xygrid"
       id="grid2990" />
  </sodipodi:namedview>
  <metadata
     id="metadata3335">
    <rdf:RDF>
      <cc:Work
         rdf:about="">
        <dc:format>image/svg+xml</dc:format>
        <dc:type
           rdf:resource="http://purl.org/dc/dcmitype/StillImage" />
        <dc:title></dc:title>
      </cc:Work>
    </rdf:RDF>
  </metadata>
  <g
     inkscape:label="Capa 1"
     inkscape:groupmode="layer"
     id="capa1"
     transform="translate(0,-1036.3622)">
    <rect
       y="1036.3622"
       x="0"
       height="16"
       width="16"
       id="rect3097"
       style="opacity:0.6;color:#000000;fill:none;stroke:none;stroke-width:1;marker:none;visibility:visible;display:inline;overflow:visible;enable-background:accumulate" />
    <path
       sodipodi:nodetypes="ccccccccccccccccccccccccccccc"
       inkscape:connector-curvature="0"
       id="path4009"
       d="m -12,1038.3622 -2,2 0,10 2,2 8,0 2,-2 0,-10 -2,-2 z m 0,2 8,0 0,10 -8,0 z m 1,1 0,2 6,0 0,-2 z m 0,3 0,2 6,0 0,-2 z m 0,3 0,2 4,0 0,-2 z"
       style="opacity:0.6;color:#000000;fill:#ffffff;fill-opacity:1;fill-rule:nonzero;stroke:none;stroke-width:1;marker:none;visibility:visible;display:inline;overflow:visible;enable-background:accumulate" />
    <path
       sodipodi:nodetypes="ccccccccccccccccccccccccccccc"
       style="opacity:0.7;color:#000000;fill:url(#linearGradient3005);fill-opacity:1;fill-rule:nonzero;stroke:none;stroke-width:1;marker:none;visibility:visible;display:inline;overflow:visible;enable-background:accumulate"
       d="m -12,1037.3622 -2,2 0,10 2,2 8,0 2,-2 0,-10 -2,-2 z m 0,2 8,0 0,10 -8,0 z m 1,1 0,2 6,0 0,-2 z m 0,3 0,2 6,0 0,-2 z m 0,3 0,2 4,0 0,-2 z"
       id="path4586"
       inkscape:connector-curvature="0" />
    <path
       inkscape:connector-curvature="0"
       id="path29274-9-1"
       style="text-indent:0;text-transform:none;block-progression:tb;color:#000000;fill:url(#linearGradient3005-9);opacity:0.69999999999999996;fill-opacity:1;fill-rule:nonzero;stroke:none;stroke-width:1;marker:none;visibility:visible;display:inline;overflow:visible;enable-background:accumulate"
       d="m 4,1037.3622 1,1 0,3 -3,3 0,5 2,2 8,0 2,-2 0,-5 -3,-3 -10e-7,-3 1,-1 -1,-1 -5.999999,0 z m 3,1 2,0 0,4 3,3 0,3 -1,1 -6,0 -1,-1 0,-3 3,-3 z"
       sodipodi:nodetypes="cccccccccccccccccccccccccc" />
    <path
       inkscape:connector-curvature="0"
       id="rect5725"
       style="opacity:0.69999999999999996;color:#000000;fill:url(#linearGradient3005-9);fill-opacity:1;fill-rule:nonzero;stroke:none;stroke-width:1;marker:none;visibility:visible;display:inline;overflow:visible;enable-background:accumulate"
       d="m 5,1045.3622 0,3 6,0 0,-3 -1,-1 -4,0 z"
       sodipodi:nodetypes="ccccccc" />
  </g>
</svg>
