<?xml version="1.0" encoding="UTF-8" standalone="no"?>
<!-- Created with Inkscape (http://www.inkscape.org/) -->

<svg xmlns:dc="http://purl.org/dc/elements/1.1/" xmlns:cc="http://creativecommons.org/ns#" xmlns:rdf="http://www.w3.org/1999/02/22-rdf-syntax-ns#" xmlns:svg="http://www.w3.org/2000/svg" xmlns="http://www.w3.org/2000/svg" xmlns:xlink="http://www.w3.org/1999/xlink" xmlns:sodipodi="http://sodipodi.sourceforge.net/DTD/sodipodi-0.dtd" xmlns:inkscape="http://www.inkscape.org/namespaces/inkscape" width="16" height="16" id="svg6662" version="1.1" inkscape:version="0.48.4 r9939" sodipodi:docname="applications-accessories.svg">
  <defs id="defs6664">
    <linearGradient y2="11.02436" y1="3.0069399" x2="0" id="linearGradient1022-8-8-3-0-3-2" gradientUnits="userSpaceOnUse">
      <stop id="stop3001-0-9-4-4-7" offset="0" />
      <stop id="stop3003-5-6-6-9-1" stop-color="#363636" offset="1" />
    </linearGradient>
    <linearGradient y2="-314.9913" x2="67.984756" y1="-304.38339" x1="77.517548" gradientTransform="matrix(-0.83999761,-0.7343075,0.75486273,-0.65988445,434.88223,-74.84167)" gradientUnits="userSpaceOnUse" id="linearGradient3207" xlink:href="#linearGradient1022-8-8-3-0-3-2" inkscape:collect="always" />
    <linearGradient inkscape:collect="always" xlink:href="#linearGradient1022-8-8-3-0-3-2" id="linearGradient2992" gradientUnits="userSpaceOnUse" gradientTransform="matrix(-0.83999761,-0.7343075,0.75486273,-0.65988445,299.88223,893.42605)" x1="77.517548" y1="-304.38339" x2="67.984756" y2="-314.9913" />
  </defs>
  <sodipodi:namedview id="base" pagecolor="#ffffff" bordercolor="#666666" borderopacity="1.0" inkscape:pageopacity="0.0" inkscape:pageshadow="2" inkscape:zoom="15.839192" inkscape:cx="9.3529302" inkscape:cy="8.0545364" inkscape:document-units="px" inkscape:current-layer="capa1" showgrid="true" inkscape:showpageshadow="false" inkscape:window-width="1062" inkscape:window-height="903" inkscape:window-x="37" inkscape:window-y="5" inkscape:window-maximized="0" inkscape:snap-bbox="true">
    <inkscape:grid type="xygrid" id="grid3199" empspacing="5" visible="true" enabled="true" snapvisiblegridlinesonly="true" />
  </sodipodi:namedview>
  <metadata id="metadata6667">
    <rdf:RDF>
      <cc:Work rdf:about="">
        <dc:format>image/svg+xml</dc:format>
        <dc:type rdf:resource="http://purl.org/dc/dcmitype/StillImage" />
        <dc:title />
      </cc:Work>
    </rdf:RDF>
  </metadata>
  <g inkscape:label="Capa 1" inkscape:groupmode="layer" id="capa1" transform="translate(0,-1036.3622)">
    <path inkscape:connector-curvature="0" style="opacity:0.59999999999999998;color:black;fill:white;fill-opacity:1;fill-rule:nonzero;stroke:none;stroke-width:1;marker:none;visibility:visible;display:inline;overflow:visible;enable-background:accumulate" d="m 5.5,1038.3622 -1.5,3 3,0 z m 5,0 -1.5,1 0,3 3,0 0,-2 1,0 0,5 1,0 0,-6 -2,0 z m -6.5,4 0,10 3,0 0,-10 z m 5,1 0,9 3,0 0,-9 z" id="path3775" sodipodi:nodetypes="ccccccccccccccccccccccccc" />
    <path sodipodi:nodetypes="ccccccccccccccccccccccccc" id="path3732" d="m 5.5,1037.3622 -1.5,3 3,0 z m 5,0 -1.5,1 0,3 3,0 0,-2 1,0 0,5 1,0 0,-6 -2,0 z m -6.5,4 0,10 3,0 0,-10 z m 5,1 0,9 3,0 0,-9 z" style="opacity:0.75;color:black;fill:url(#linearGradient2992);fill-opacity:1;fill-rule:nonzero;stroke:none;stroke-width:1;marker:none;visibility:visible;display:inline;overflow:visible;enable-background:accumulate" inkscape:connector-curvature="0" />
  </g>
</svg>
