<?xml version="1.0" encoding="UTF-8" standalone="no"?>
<!-- Created with Inkscape (http://www.inkscape.org/) -->

<svg xmlns:dc="http://purl.org/dc/elements/1.1/" xmlns:cc="http://creativecommons.org/ns#" xmlns:rdf="http://www.w3.org/1999/02/22-rdf-syntax-ns#" xmlns:svg="http://www.w3.org/2000/svg" xmlns="http://www.w3.org/2000/svg" xmlns:xlink="http://www.w3.org/1999/xlink" xmlns:sodipodi="http://sodipodi.sourceforge.net/DTD/sodipodi-0.dtd" xmlns:inkscape="http://www.inkscape.org/namespaces/inkscape" width="16" height="16" id="svg6662" version="1.1" inkscape:version="0.48.4 r9939" sodipodi:docname="applications-multimedia.svg">
  <defs id="defs6664">
    <linearGradient gradientUnits="userSpaceOnUse" id="linearGradient1022-8-8-3-0-27-4-9-5" x2="0" y1="3.0069399" y2="11.02436">
      <stop offset="0" id="stop3001-0-9-4-6-1-4-4" />
      <stop offset="1" stop-color="#363636" id="stop3003-5-6-6-01-9-5-8" />
    </linearGradient>
    <linearGradient inkscape:collect="always" xlink:href="#linearGradient1022-8-8-3-0-27-4-9-5" id="linearGradient3379" gradientUnits="userSpaceOnUse" gradientTransform="matrix(0.559997,0,0,0.45749186,-130.49168,-430.8925)" x1="252.66507" y1="941.85828" x2="252.66507" y2="974.64575" />
  </defs>
  <sodipodi:namedview id="base" pagecolor="#ffffff" bordercolor="#666666" borderopacity="1.0" inkscape:pageopacity="0.0" inkscape:pageshadow="2" inkscape:zoom="32" inkscape:cx="10.768993" inkscape:cy="9.0146441" inkscape:document-units="px" inkscape:current-layer="capa1" showgrid="true" inkscape:showpageshadow="false" inkscape:window-width="1280" inkscape:window-height="949" inkscape:window-x="0" inkscape:window-y="0" inkscape:window-maximized="1">
    <inkscape:grid type="xygrid" id="grid3199" empspacing="5" visible="true" enabled="true" snapvisiblegridlinesonly="true" />
  </sodipodi:namedview>
  <metadata id="metadata6667">
    <rdf:RDF>
      <cc:Work rdf:about="">
        <dc:format>image/svg+xml</dc:format>
        <dc:type rdf:resource="http://purl.org/dc/dcmitype/StillImage" />
        <dc:title />
      </cc:Work>
    </rdf:RDF>
  </metadata>
  <g inkscape:label="Capa 1" inkscape:groupmode="layer" id="capa1" transform="translate(0,-1036.3622)">
    <path id="path3381" d="m 0,1037.3622 0,2 0,12 1,0 0,-2 2,0 0,2 1,0 0,-5 4,0 0,-1 -4,0 0,-5 5,0 0,2 1,0 0,-1 2,0 0,1 1,0 0,-3 0,-2 -1,0 0,2 -2,0 0,-2 -1,0 0,2 -5,0 0,-2 -1,0 0,2 -2,0 0,-2 z m 1,4 2,0 0,2 -2,0 z m 8,2 0,5 -1,0 c -1.225625,0 -2,0.8382 -2,2 0,1.1617 0.774409,2 2,2 1.225592,0 2,-1.0571 2,-2 l 0,-5 5,0 0,3 -1,0 c -1.225625,0 -2,0.8382 -2,2 0,1.1616 0.774408,2 2,2 1.225591,0 2,-0.8384 2,-2 l 0,-7 z m -8,2 2,0 0,2 -2,0 z" style="opacity:0.75;color:#000000;fill:#ffffff;fill-opacity:1;fill-rule:nonzero;stroke:none;stroke-width:1;marker:none;visibility:visible;display:inline;overflow:visible;enable-background:accumulate" inkscape:connector-curvature="0" sodipodi:nodetypes="ccccccccccccccccccccccccccccccccccccccccccsssscccssssccccccc" />
    <path style="opacity:0.75;color:#000000;fill:url(#linearGradient3379);fill-opacity:1;fill-rule:nonzero;stroke:none;stroke-width:1;marker:none;visibility:visible;display:inline;overflow:visible;enable-background:accumulate" d="m 0,0 0,2 0,12 1,0 0,-2 2,0 0,2 1,0 0,-5 4,0 0,-1 -4,0 0,-5 5,0 0,2 1,0 0,-1 2,0 0,1 1,0 0,-3 0,-2 -1,0 0,2 L 10,2 10,0 9,0 9,2 4,2 4,0 3,0 3,2 1,2 1,0 z M 1,4 3,4 3,6 1,6 z m 8,2 0,5 -1,0 c -1.225625,0 -2,0.8382 -2,2 0,1.1617 0.774409,2 2,2 1.225592,0 2,-1.0571 2,-2 l 0,-5 5,0 0,3 -1,0 c -1.225625,0 -2,0.8382 -2,2 0,1.1616 0.774408,2 2,2 1.225591,0 2,-0.8384 2,-2 l 0,-7 z m -8,2 2,0 0,2 -2,0 z" transform="translate(0,1036.3622)" id="path3271" inkscape:connector-curvature="0" sodipodi:nodetypes="ccccccccccccccccccccccccccccccccccccccccccsssscccssssccccccc" />
  </g>
</svg>
