<?xml version="1.0" encoding="UTF-8" standalone="no"?>
<!-- Created with Inkscape (http://www.inkscape.org/) -->

<svg xmlns:dc="http://purl.org/dc/elements/1.1/" xmlns:cc="http://creativecommons.org/ns#" xmlns:rdf="http://www.w3.org/1999/02/22-rdf-syntax-ns#" xmlns:svg="http://www.w3.org/2000/svg" xmlns="http://www.w3.org/2000/svg" xmlns:xlink="http://www.w3.org/1999/xlink" xmlns:sodipodi="http://sodipodi.sourceforge.net/DTD/sodipodi-0.dtd" xmlns:inkscape="http://www.inkscape.org/namespaces/inkscape" width="16" height="16" id="svg3330" version="1.1" inkscape:version="0.48.4 r9939" sodipodi:docname="gnome-logout.svg">
  <defs id="defs3332">
    <linearGradient y2="11.02436" y1="3.0069399" x2="0" id="linearGradient1022-8-8-3-0-2-9-92" gradientUnits="userSpaceOnUse">
      <stop id="stop3001-0-9-4-1-28-7" offset="0" />
      <stop id="stop3003-5-6-6-1-8-8" stop-color="#363636" offset="1" />
    </linearGradient>
    <linearGradient inkscape:collect="always" xlink:href="#linearGradient1022-8-8-3-0-2-9-92" id="linearGradient3487" gradientUnits="userSpaceOnUse" gradientTransform="matrix(6.719964,0,0,1.0064855,-799.90016,1035.768)" x1="119.92626" y1="2.5774837" x2="119.92626" y2="14.500159" />
  </defs>
  <sodipodi:namedview id="base" pagecolor="#ffffff" bordercolor="#666666" borderopacity="1.0" inkscape:pageopacity="0.0" inkscape:pageshadow="2" inkscape:zoom="32" inkscape:cx="7.2324271" inkscape:cy="8.647644" inkscape:document-units="px" inkscape:current-layer="capa1" showgrid="true" inkscape:showpageshadow="false" inkscape:window-width="899" inkscape:window-height="830" inkscape:window-x="55" inkscape:window-y="60" inkscape:window-maximized="0" inkscape:snap-bbox="true">
    <inkscape:grid type="xygrid" id="grid3004" />
  </sodipodi:namedview>
  <metadata id="metadata3335">
    <rdf:RDF>
      <cc:Work rdf:about="">
        <dc:format>image/svg+xml</dc:format>
        <dc:type rdf:resource="http://purl.org/dc/dcmitype/StillImage" />
        <dc:title />
      </cc:Work>
    </rdf:RDF>
  </metadata>
  <g inkscape:label="Capa 1" inkscape:groupmode="layer" id="capa1" transform="translate(0,-1036.3622)">
    <path id="path3490" d="m 5,1039.3622 -2,2 0,3 2,2 -2,0 -2,2 0,3 10,0 0,-3 -2,-2 -2,0 2,-2 0,-3 -2,-2 -2,0 z m 5,0 3,3 -3,3 3,0 3,-3 -3,-3 -3,0 z" style="opacity:0.75;color:black;fill:white;fill-opacity:1;fill-rule:nonzero;stroke:none;stroke-width:1;marker:none;visibility:visible;display:inline;overflow:visible;enable-background:accumulate" inkscape:connector-curvature="0" />
    <path style="opacity:0.75;color:black;fill:url(#linearGradient3487);fill-opacity:1;fill-rule:nonzero;stroke:none;stroke-width:1;marker:none;visibility:visible;display:inline;overflow:visible;enable-background:accumulate" d="m 5,1038.3622 -2,2 0,3 2,2 -2,0 -2,2 0,3 10,0 0,-3 -2,-2 -2,0 2,-2 0,-3 -2,-2 -2,0 z m 5,0 3,3 -3,3 3,0 3,-3 -3,-3 -3,0 z" id="path3442" inkscape:connector-curvature="0" />
  </g>
</svg>
