<?xml version="1.0" encoding="UTF-8" standalone="no"?>
<!-- Created with Inkscape (http://www.inkscape.org/) -->

<svg xmlns:dc="http://purl.org/dc/elements/1.1/" xmlns:cc="http://creativecommons.org/ns#" xmlns:rdf="http://www.w3.org/1999/02/22-rdf-syntax-ns#" xmlns:svg="http://www.w3.org/2000/svg" xmlns="http://www.w3.org/2000/svg" xmlns:xlink="http://www.w3.org/1999/xlink" xmlns:sodipodi="http://sodipodi.sourceforge.net/DTD/sodipodi-0.dtd" xmlns:inkscape="http://www.inkscape.org/namespaces/inkscape" width="16" height="16" id="svg6662" version="1.1" inkscape:version="0.48.4 r9939" sodipodi:docname="access.svg">
  <defs id="defs6664">
    <linearGradient y2="11.02436" y1="3.0069399" x2="0" id="linearGradient1022-8-8-3-0-2-4" gradientUnits="userSpaceOnUse">
      <stop id="stop3001-0-9-4-1-3" offset="0" />
      <stop id="stop3003-5-6-6-1-2" stop-color="#363636" offset="1" />
    </linearGradient>
    <linearGradient y2="-262.96466" x2="85.253456" y1="-307.6749" x1="85.253456" gradientTransform="matrix(4.479976,0,0,0.33549367,-218.93345,479.58516)" gradientUnits="userSpaceOnUse" id="linearGradient3144" xlink:href="#linearGradient1022-8-8-3-0-2-4" inkscape:collect="always" />
    <linearGradient inkscape:collect="always" xlink:href="#linearGradient1022-8-8-3-0-2-4" id="linearGradient2992" gradientUnits="userSpaceOnUse" gradientTransform="matrix(4.479976,0,0,0.33549367,-373.93345,1139.5852)" x1="85.253456" y1="-307.6749" x2="85.253456" y2="-262.96466" />
  </defs>
  <sodipodi:namedview id="base" pagecolor="#ffffff" bordercolor="#666666" borderopacity="1.0" inkscape:pageopacity="0.0" inkscape:pageshadow="2" inkscape:zoom="31.678384" inkscape:cx="9.3529302" inkscape:cy="7.9598346" inkscape:document-units="px" inkscape:current-layer="capa1" showgrid="true" inkscape:showpageshadow="false" inkscape:window-width="1280" inkscape:window-height="949" inkscape:window-x="0" inkscape:window-y="0" inkscape:window-maximized="1">
    <inkscape:grid type="xygrid" id="grid3199" empspacing="5" visible="true" enabled="true" snapvisiblegridlinesonly="true" />
  </sodipodi:namedview>
  <metadata id="metadata6667">
    <rdf:RDF>
      <cc:Work rdf:about="">
        <dc:format>image/svg+xml</dc:format>
        <dc:type rdf:resource="http://purl.org/dc/dcmitype/StillImage" />
        <dc:title />
      </cc:Work>
    </rdf:RDF>
  </metadata>
  <g inkscape:label="Capa 1" inkscape:groupmode="layer" id="capa1" transform="translate(0,-1036.3622)">
    <path style="opacity:0.75;color:black;fill:white;fill-opacity:1;fill-rule:nonzero;stroke:none;stroke-width:1;marker:none;visibility:visible;display:inline;overflow:visible;enable-background:accumulate" d="m 7,1037.3622 -1,1 0,3 2,1 0,1 -5,-7e-4 0,1 4,0 0,3 -5,5.0007 2,0 4,-4 1,0 4,4 2,0 -5,-5 0,-3 4,0 0,-1 -5,0 0,-1 2,-1 0,-3 -1,-1 z" id="path3943" inkscape:connector-curvature="0" sodipodi:nodetypes="ccccccccccccccccccccccccc" />
    <path sodipodi:nodetypes="ccccccccccccccccccccccccc" inkscape:connector-curvature="0" id="rect3819" d="m 7,1036.3622 -1,1 0,3 2,1 0,1 -5,-7e-4 0,1 4,0 0,3 -5,5.0007 2,0 4,-4 1,0 4,4 2,0 -5,-5 0,-3 4,0 0,-1 -5,0 0,-1 2,-1 0,-3 -1,-1 z" style="opacity:0.75;color:black;fill:url(#linearGradient2992);fill-opacity:1;fill-rule:nonzero;stroke:none;stroke-width:1;marker:none;visibility:visible;display:inline;overflow:visible;enable-background:accumulate" />
  </g>
</svg>
