<?xml version="1.0" encoding="UTF-8" standalone="no"?>
<!-- Created with Inkscape (http://www.inkscape.org/) -->

<svg xmlns:dc="http://purl.org/dc/elements/1.1/" xmlns:cc="http://creativecommons.org/ns#" xmlns:rdf="http://www.w3.org/1999/02/22-rdf-syntax-ns#" xmlns:svg="http://www.w3.org/2000/svg" xmlns="http://www.w3.org/2000/svg" xmlns:xlink="http://www.w3.org/1999/xlink" xmlns:sodipodi="http://sodipodi.sourceforge.net/DTD/sodipodi-0.dtd" xmlns:inkscape="http://www.inkscape.org/namespaces/inkscape" width="16" height="16" id="svg6662" version="1.1" inkscape:version="0.48.4 r9939" sodipodi:docname="wine.svg">
  <defs id="defs6664">
    <linearGradient inkscape:collect="always" xlink:href="#linearGradient1022-8-8-3-0-1-0-6-5" id="linearGradient5654-2" gradientUnits="userSpaceOnUse" gradientTransform="matrix(1.119994,0,0,1.0064811,-233.98336,1026.7642)" x1="215.16487" y1="10.529756" x2="215.16487" y2="24.439604" />
    <linearGradient y2="11.02436" y1="3.0069399" x2="0" id="linearGradient1022-8-8-3-0-1-0-6-5" gradientUnits="userSpaceOnUse">
      <stop id="stop3001-0-9-4-2-2-6-4" offset="0" />
      <stop id="stop3003-5-6-6-2-3-3-1" stop-color="#363636" offset="1" />
    </linearGradient>
  </defs>
  <sodipodi:namedview id="base" pagecolor="#ffffff" bordercolor="#666666" borderopacity="1.0" inkscape:pageopacity="0.0" inkscape:pageshadow="2" inkscape:zoom="32" inkscape:cx="5.1522371" inkscape:cy="8.5852615" inkscape:document-units="px" inkscape:current-layer="capa1" showgrid="true" inkscape:showpageshadow="false" inkscape:window-width="940" inkscape:window-height="908" inkscape:window-x="23" inkscape:window-y="7" inkscape:window-maximized="0" showguides="true" inkscape:guide-bbox="true">
    <inkscape:grid type="xygrid" id="grid3199" empspacing="5" visible="true" enabled="true" snapvisiblegridlinesonly="true" />
  </sodipodi:namedview>
  <metadata id="metadata6667">
    <rdf:RDF>
      <cc:Work rdf:about="">
        <dc:format>image/svg+xml</dc:format>
        <dc:type rdf:resource="http://purl.org/dc/dcmitype/StillImage" />
        <dc:title />
      </cc:Work>
    </rdf:RDF>
  </metadata>
  <g inkscape:label="Capa 1" inkscape:groupmode="layer" id="capa1" transform="translate(0,-1036.3622)">
    <path sodipodi:nodetypes="cccccccccccccccccccccccc" inkscape:connector-curvature="0" id="path5708" d="m 3,1039.3622 0,5 4,4 0,2 -3,1 0,1 8,0 0,-1 -3,-1 0,-2 4,-4 0,-5 -1,-1 -8,0 z m 1,1 1,-1 6,0 1,1 0,1 -1,1 -6,0 -1,-1 z" style="opacity:0.75;color:#000000;fill:#ffffff;fill-opacity:1;fill-rule:nonzero;stroke:none;stroke-width:1;marker:none;visibility:visible;display:inline;overflow:visible;enable-background:accumulate" />
    <path style="opacity:0.75;color:#000000;fill:url(#linearGradient5654-2);fill-opacity:1;fill-rule:nonzero;stroke:none;stroke-width:1;marker:none;visibility:visible;display:inline;overflow:visible;enable-background:accumulate" d="m 3,1038.3622 0,5 4,4 0,2 -3,1 0,1 8,0 0,-1 -3,-1 0,-2 4,-4 0,-5 -1,-1 -8,0 z m 1,1 1,-1 6,0 1,1 0,1 -1,1 -6,0 -1,-1 z" id="path3004" inkscape:connector-curvature="0" sodipodi:nodetypes="cccccccccccccccccccccccc" />
  </g>
</svg>
