<?xml version="1.0" encoding="UTF-8" standalone="no"?>
<!-- Created with Inkscape (http://www.inkscape.org/) -->

<svg xmlns:dc="http://purl.org/dc/elements/1.1/" xmlns:cc="http://creativecommons.org/ns#" xmlns:rdf="http://www.w3.org/1999/02/22-rdf-syntax-ns#" xmlns:svg="http://www.w3.org/2000/svg" xmlns="http://www.w3.org/2000/svg" xmlns:xlink="http://www.w3.org/1999/xlink" xmlns:sodipodi="http://sodipodi.sourceforge.net/DTD/sodipodi-0.dtd" xmlns:inkscape="http://www.inkscape.org/namespaces/inkscape" version="1.0" width="64" height="64" id="svg3437" inkscape:version="0.48.4 r9939" sodipodi:docname="xfce-trash_empty.svg">
    <metadata id="metadata101">
        <rdf:RDF>
            <cc:Work rdf:about="">
                <dc:format>image/svg+xml</dc:format>
                <dc:type rdf:resource="http://purl.org/dc/dcmitype/StillImage" />
                <dc:title />
            </cc:Work>
        </rdf:RDF>
    </metadata>
    <sodipodi:namedview pagecolor="#ffffff" bordercolor="#666666" borderopacity="1" objecttolerance="10" gridtolerance="10" guidetolerance="10" inkscape:pageopacity="0" inkscape:pageshadow="2" inkscape:window-width="1280" inkscape:window-height="950" id="namedview99" showgrid="true" inkscape:zoom="11.313708" inkscape:cx="45.003239" inkscape:cy="34.885045" inkscape:window-x="0" inkscape:window-y="0" inkscape:window-maximized="1" inkscape:current-layer="svg3437" inkscape:snap-to-guides="true" inkscape:snap-grids="true" showguides="true" inkscape:guide-bbox="true" inkscape:snap-bbox="true">
        <inkscape:grid type="xygrid" id="grid911" empspacing="5" visible="true" enabled="true" snapvisiblegridlinesonly="true" />
    </sodipodi:namedview>
    <defs id="defs3439">
        <linearGradient id="linearGradient4066">
            <stop id="stop4068" offset="0" style="stop-color:#ffffff;stop-opacity:1;" />
            <stop id="stop4070" offset="1" style="stop-color:#ffffff;stop-opacity:0;" />
        </linearGradient>
        <linearGradient id="linearGradient4060">
            <stop id="stop4062" offset="0" style="stop-color:#ffffff;stop-opacity:1;" />
            <stop id="stop4064" offset="1" style="stop-color:#ffffff;stop-opacity:0;" />
        </linearGradient>
        <linearGradient inkscape:collect="always" id="linearGradient1153">
            <stop style="stop-color:#000000;stop-opacity:1;" offset="0" id="stop1155" />
            <stop style="stop-color:#000000;stop-opacity:0;" offset="1" id="stop1157" />
        </linearGradient>
        <linearGradient id="linearGradient1123">
            <stop style="stop-color:#757575;stop-opacity:1;" offset="0" id="stop1125" />
            <stop style="stop-color:#a9a9a9;stop-opacity:1;" offset="1" id="stop1127" />
        </linearGradient>
        <linearGradient id="linearGradient6288-0">
            <stop id="stop6290-8" offset="0" style="stop-color:#ababab;stop-opacity:1;" />
            <stop id="stop6292-0" offset="1" style="stop-color:#f1f1f1;stop-opacity:1;" />
        </linearGradient>
        <linearGradient inkscape:collect="always" xlink:href="#linearGradient6288-0" id="linearGradient1060" x1="4" y1="24" x2="24.124998" y2="24" gradientUnits="userSpaceOnUse" spreadMethod="reflect" gradientTransform="matrix(1.3076953,0,0,1.3103448,0.6153714,1.5000005)" />
        <linearGradient inkscape:collect="always" xlink:href="#linearGradient1123" id="linearGradient1129" x1="22.375" y1="14.625" x2="22.375" y2="6.3567719" gradientUnits="userSpaceOnUse" gradientTransform="matrix(1.0285714,0,0,1.2941176,-0.68571428,-3.4117647)" />
        <linearGradient inkscape:collect="always" xlink:href="#linearGradient1153" id="linearGradient1159" x1="8.5" y1="10.812498" x2="17.25" y2="10.812498" gradientUnits="userSpaceOnUse" gradientTransform="matrix(1.0857143,0,0,1.3538461,-3.2285716,-4.1384593)" />
        <linearGradient inkscape:collect="always" xlink:href="#linearGradient1153" id="linearGradient1167" gradientUnits="userSpaceOnUse" gradientTransform="matrix(1.0857143,0,0,1.3538461,-51.228573,-4.1384593)" x1="8.5" y1="10.812498" x2="17.25" y2="10.812498" />
        <linearGradient inkscape:collect="always" xlink:href="#linearGradient4060" id="linearGradient1177" gradientUnits="userSpaceOnUse" gradientTransform="matrix(-1.0285716,0,0,-4.5288264,64.742857,87.569565)" x1="8.5" y1="10.812498" x2="17.25" y2="10.812498" />
        <radialGradient r="117.14286" fy="486.64789" fx="605.71429" cy="486.64789" cx="605.71429" gradientTransform="matrix(-0.06214224,0,0,0.02900085,113.32277,26.707456)" gradientUnits="userSpaceOnUse" id="radialGradient3131" xlink:href="#linearGradient5060-4" inkscape:collect="always" />
        <radialGradient r="117.14286" fy="486.64789" fx="605.71429" cy="486.64789" cx="605.71429" gradientTransform="matrix(0.06214224,0,0,0.02900085,68.427258,26.707456)" gradientUnits="userSpaceOnUse" id="radialGradient3129" xlink:href="#linearGradient5060-4" inkscape:collect="always" />
        <linearGradient y2="609.50507" x2="302.85715" y1="366.64789" x1="302.85715" gradientTransform="matrix(0.06214224,0,0,0.02900085,68.415029,26.707456)" gradientUnits="userSpaceOnUse" id="linearGradient3127" xlink:href="#linearGradient5048-4" inkscape:collect="always" />
        <linearGradient id="linearGradient5048-4">
            <stop offset="0" style="stop-color:#000000;stop-opacity:0" id="stop5050-6" />
            <stop offset="0.5" style="stop-color:#000000;stop-opacity:1" id="stop5056-6" />
            <stop offset="1" style="stop-color:#000000;stop-opacity:0" id="stop5052-8" />
        </linearGradient>
        <linearGradient id="linearGradient5060-4">
            <stop offset="0" style="stop-color:#000000;stop-opacity:1" id="stop5062-5" />
            <stop offset="1" style="stop-color:#000000;stop-opacity:0" id="stop5064-0" />
        </linearGradient>
        <linearGradient inkscape:collect="always" xlink:href="#linearGradient4066" id="linearGradient1333" gradientUnits="userSpaceOnUse" gradientTransform="matrix(1.0285714,0,0,-4.5288264,-0.7428572,87.569565)" x1="8.5" y1="10.812498" x2="17.25" y2="10.812498" />
    </defs>
    <rect style="color:black;fill:white;fill-opacity:1;fill-rule:nonzero;stroke:#676767;stroke-width:1;stroke-linecap:round;stroke-linejoin:miter;stroke-miterlimit:4;stroke-opacity:1;stroke-dasharray:none;stroke-dashoffset:0.7;marker:none;visibility:visible;display:inline;overflow:visible;enable-background:accumulate" id="rect1062" width="51" height="18.000002" x="6.5" y="6.5" ry="3.0000002" rx="3.0000002" />
    <g id="g1303" transform="matrix(1.3333333,0,0,1.3636364,0,1.1818179)">
        <rect rx="1.1250001" style="color:black;fill:url(#linearGradient1129);fill-opacity:1;fill-rule:nonzero;stroke:none;stroke-width:1;marker:none;visibility:visible;display:inline;overflow:visible;enable-background:accumulate" id="rect1119" width="36" height="11" x="6" y="5" ry="1.0999999" />
        <rect ry="1.0999999" rx="1.1250001" y="5" x="6" height="11" width="9.5" id="rect1151" style="opacity:0.33157893;color:black;fill:url(#linearGradient1159);fill-opacity:1;stroke:none;stroke-width:1;marker:none;visibility:visible;display:inline;overflow:visible;enable-background:accumulate" />
        <rect transform="scale(-1,1)" style="opacity:0.33157893;color:black;fill:url(#linearGradient1167);fill-opacity:1;stroke:none;stroke-width:1;marker:none;visibility:visible;display:inline;overflow:visible;enable-background:accumulate" id="rect1165" width="9.5" height="11" x="-42" y="5" rx="1.1250001" ry="1.0999999" />
    </g>
    <g id="g8378" transform="translate(51.334604,16.37304)" />
    <g id="g1298" transform="matrix(1.2753215,0,0,1.2778529,-83.894845,5.2842675)">
        <rect style="opacity:0.5;fill:url(#linearGradient3127);fill-opacity:1;fill-rule:nonzero;stroke:none;stroke-width:104.96237946;marker:none;visibility:visible;display:inline;overflow:visible" id="rect4173" y="37.340553" x="75.872093" height="7.0430632" width="30.005821" />
        <path inkscape:connector-curvature="0" style="opacity:0.5;fill:url(#radialGradient3129);fill-opacity:1;fill-rule:nonzero;stroke:none;stroke-width:104.96237946;marker:none;visibility:visible;display:inline;overflow:visible" id="path5058" d="m 105.87792,37.340798 c 0,0 0,7.042675 0,7.042675 3.20017,0.01326 7.73646,-1.577906 7.73645,-3.52179 0,-1.943885 -3.57115,-3.520884 -7.73645,-3.520885 z" />
        <path inkscape:connector-curvature="0" style="opacity:0.5;fill:url(#radialGradient3131);fill-opacity:1;fill-rule:nonzero;stroke:none;stroke-width:104.96237946;marker:none;visibility:visible;display:inline;overflow:visible" id="path5018" d="m 75.872098,37.340798 c 0,0 0,7.042675 0,7.042675 -3.200173,0.01326 -7.736457,-1.577906 -7.736457,-3.52179 0,-1.943885 3.57115,-3.520884 7.736457,-3.520885 z" />
    </g>
    <path style="color:black;fill:url(#linearGradient1060);fill-opacity:1;fill-rule:nonzero;stroke:#636363;stroke-width:1;stroke-linecap:round;stroke-linejoin:miter;stroke-miterlimit:4;stroke-opacity:1;stroke-dasharray:none;stroke-dashoffset:0.7;marker:none;visibility:visible;display:inline;overflow:visible;enable-background:accumulate" d="m 6.5000003,20.5 0,34.068965 c 0,2.177793 1.7496953,3.931035 3.9230857,3.931035 l 43.153942,0 c 2.173393,0 3.92309,-1.753242 3.92309,-3.931035 l 0,-34.068965 c 0,2.177793 -1.749697,3.931035 -3.92309,3.931035 l -43.153942,0 c -2.1733904,0 -3.9230857,-1.753242 -3.9230857,-3.931035 z" id="rect1056" inkscape:connector-curvature="0" />
    <path style="font-size:xx-small;font-style:normal;font-variant:normal;font-weight:normal;font-stretch:normal;text-indent:0;text-align:start;text-decoration:none;line-height:normal;letter-spacing:normal;word-spacing:normal;text-transform:none;direction:ltr;block-progression:tb;writing-mode:lr-tb;text-anchor:start;baseline-shift:baseline;color:black;fill:white;fill-opacity:1;stroke:none;stroke-width:1;marker:none;visibility:visible;display:inline;overflow:visible;enable-background:accumulate;font-family:Sans;-inkscape-font-specification:Sans" d="m 7,20 0,1 c 0,1.63123 1.1890117,3 3,3 l 44,0 c 1.810993,0 3,-1.331733 3,-2.962963 L 57,20 l -1,0 0,1 c 0,0.995139 -0.895199,2 -2,2 L 10,23 C 8.895199,23 8,22 8,21 l 0,-1 z" id="rect1311" inkscape:connector-curvature="0" sodipodi:nodetypes="cssssccsssscc" />
    <g id="g7666" transform="matrix(1.0512963,0,0,0.4615385,52.470841,37.769238)" style="opacity:0.5" />
    <g id="g3425" transform="matrix(-0.64501498,0,0,-0.28355502,89.693215,29.061964)" style="opacity:0.4" />
    <g id="g2894" transform="matrix(-0.61921377,0,0,-0.6192054,90.196325,44.79698)" />
    <g id="g2814" transform="matrix(-0.61921377,0,0,-0.6192054,90.351129,44.79698)" />
    <g id="g2637" inkscape:label="base" style="display:inline" transform="matrix(-0.61921377,0,0,-0.6192054,51.474801,13.567616)" />
    <g id="g2953" style="opacity:0.6" transform="matrix(-0.61921377,0,0,-0.6192054,89.112701,44.79698)" />
    <path style="opacity:1;color:black;fill:#7a7a7a;fill-opacity:1;fill-rule:nonzero;stroke:none;stroke-width:1;marker:none;visibility:visible;display:inline;overflow:visible;enable-background:accumulate" d="M 14.5,30 C 13.671573,30 13,30.671573 13,31.5 13,32.328427 13.671573,33 14.5,33 15.328427,33 16,32.328427 16,31.5 16,30.671573 15.328427,30 14.5,30 z m 9,0 C 22.671573,30 22,30.671573 22,31.5 22,32.328427 22.671573,33 23.5,33 24.328427,33 25,32.328427 25,31.5 25,30.671573 24.328427,30 23.5,30 z m 9,0 C 31.671573,30 31,30.671573 31,31.5 31,32.328427 31.671573,33 32.5,33 33.328427,33 34,32.328427 34,31.5 34,30.671573 33.328427,30 32.5,30 z m 9,0 C 40.671573,30 40,30.671573 40,31.5 40,32.328427 40.671573,33 41.5,33 42.328427,33 43,32.328427 43,31.5 43,30.671573 42.328427,30 41.5,30 z m 9,0 C 49.671573,30 49,30.671573 49,31.5 49,32.328427 49.671573,33 50.5,33 51.328427,33 52,32.328427 52,31.5 52,30.671573 51.328427,30 50.5,30 z m -36,7 C 13.671573,37 13,37.671573 13,38.5 13,39.328427 13.671573,40 14.5,40 15.328427,40 16,39.328427 16,38.5 16,37.671573 15.328427,37 14.5,37 z m 9,0 C 22.671573,37 22,37.671573 22,38.5 22,39.328427 22.671573,40 23.5,40 24.328427,40 25,39.328427 25,38.5 25,37.671573 24.328427,37 23.5,37 z m 9,0 C 31.671573,37 31,37.671573 31,38.5 31,39.328427 31.671573,40 32.5,40 33.328427,40 34,39.328427 34,38.5 34,37.671573 33.328427,37 32.5,37 z m 9,0 C 40.671573,37 40,37.671573 40,38.5 40,39.328427 40.671573,40 41.5,40 42.328427,40 43,39.328427 43,38.5 43,37.671573 42.328427,37 41.5,37 z m 9,0 C 49.671573,37 49,37.671573 49,38.5 49,39.328427 49.671573,40 50.5,40 51.328427,40 52,39.328427 52,38.5 52,37.671573 51.328427,37 50.5,37 z m -36,7 C 13.671573,44 13,44.671573 13,45.5 13,46.328427 13.671573,47 14.5,47 15.328427,47 16,46.328427 16,45.5 16,44.671573 15.328427,44 14.5,44 z m 9,0 C 22.671573,44 22,44.671573 22,45.5 22,46.328427 22.671573,47 23.5,47 24.328427,47 25,46.328427 25,45.5 25,44.671573 24.328427,44 23.5,44 z m 9,0 C 31.671573,44 31,44.671573 31,45.5 31,46.328427 31.671573,47 32.5,47 33.328427,47 34,46.328427 34,45.5 34,44.671573 33.328427,44 32.5,44 z m 9,0 C 40.671573,44 40,44.671573 40,45.5 40,46.328427 40.671573,47 41.5,47 42.328427,47 43,46.328427 43,45.5 43,44.671573 42.328427,44 41.5,44 z m 9,0 C 49.671573,44 49,44.671573 49,45.5 49,46.328427 49.671573,47 50.5,47 51.328427,47 52,46.328427 52,45.5 52,44.671573 51.328427,44 50.5,44 z m -36,7 C 13.671573,51 13,51.671573 13,52.5 13,53.328427 13.671573,54 14.5,54 15.328427,54 16,53.328427 16,52.5 16,51.671573 15.328427,51 14.5,51 z m 9,0 C 22.671573,51 22,51.671573 22,52.5 22,53.328427 22.671573,54 23.5,54 24.328427,54 25,53.328427 25,52.5 25,51.671573 24.328427,51 23.5,51 z m 9,0 C 31.671573,51 31,51.671573 31,52.5 31,53.328427 31.671573,54 32.5,54 33.328427,54 34,53.328427 34,52.5 34,51.671573 33.328427,51 32.5,51 z m 9,0 C 40.671573,51 40,51.671573 40,52.5 40,53.328427 40.671573,54 41.5,54 42.328427,54 43,53.328427 43,52.5 43,51.671573 42.328427,51 41.5,51 z m 9,0 C 49.671573,51 49,51.671573 49,52.5 49,53.328427 49.671573,54 50.5,54 51.328427,54 52,53.328427 52,52.5 52,51.671573 51.328427,51 50.5,51 z" id="path3126" inkscape:connector-curvature="0" />
    <path style="color:black;fill:url(#linearGradient1177);fill-opacity:1;stroke:none;stroke-width:1;marker:none;visibility:visible;display:inline;overflow:visible;enable-background:accumulate" d="m 53.923079,57 -4.846158,0 C 47.926309,57 47,56.120821 47,55.028747 L 47,26 l 7,0 c 1.471799,0 2,-1 2,-1 l 0,30.028747 C 56,56.120821 55.073691,57 53.923079,57 z" id="rect1175" inkscape:connector-curvature="0" sodipodi:nodetypes="ssscccss" />
    <path sodipodi:nodetypes="ssscccss" inkscape:connector-curvature="0" id="path1331" d="m 10.076923,57 4.846154,0 C 16.073692,57 17,56.120821 17,55.028747 L 17,26 10,26 C 8.5282092,26 8,25 8,25 L 8,55.028747 C 8,56.120821 8.9263072,57 10.076923,57 z" style="color:black;fill:url(#linearGradient1333);fill-opacity:1;stroke:none;stroke-width:1;marker:none;visibility:visible;display:inline;overflow:visible;enable-background:accumulate" />
</svg>
