<?xml version="1.0" encoding="UTF-8" standalone="no"?>
<!-- Created with Inkscape (http://www.inkscape.org/) -->

<svg
   xmlns:dc="http://purl.org/dc/elements/1.1/"
   xmlns:cc="http://creativecommons.org/ns#"
   xmlns:rdf="http://www.w3.org/1999/02/22-rdf-syntax-ns#"
   xmlns:svg="http://www.w3.org/2000/svg"
   xmlns="http://www.w3.org/2000/svg"
   xmlns:sodipodi="http://sodipodi.sourceforge.net/DTD/sodipodi-0.dtd"
   xmlns:inkscape="http://www.inkscape.org/namespaces/inkscape"
   width="22"
   height="22"
   id="svg5557"
   version="1.1"
   inkscape:version="0.91 r"
   sodipodi:docname="battery-low-symbolic.svg">
  <defs
     id="defs5559" />
  <sodipodi:namedview
     id="base"
     pagecolor="#ffffff"
     bordercolor="#666666"
     borderopacity="1.0"
     inkscape:pageopacity="0.0"
     inkscape:pageshadow="2"
     inkscape:zoom="11.2"
     inkscape:cx="36.991664"
     inkscape:cy="23.036675"
     inkscape:document-units="px"
     inkscape:current-layer="layer1"
     showgrid="false"
     inkscape:showpageshadow="false"
     fit-margin-top="0"
     fit-margin-left="0"
     fit-margin-right="0"
     fit-margin-bottom="0"
     inkscape:window-width="1215"
     inkscape:window-height="1000"
     inkscape:window-x="65"
     inkscape:window-y="24"
     inkscape:window-maximized="1" />
  <metadata
     id="metadata5562">
    <rdf:RDF>
      <cc:Work
         rdf:about="">
        <dc:format>image/svg+xml</dc:format>
        <dc:type
           rdf:resource="http://purl.org/dc/dcmitype/StillImage" />
        <dc:title />
      </cc:Work>
    </rdf:RDF>
  </metadata>
  <g
     inkscape:label="Layer 1"
     inkscape:groupmode="layer"
     id="layer1"
     transform="translate(-417.57144,-215.6479)">
    <path
       style="font-size:medium;font-style:normal;font-variant:normal;font-weight:normal;font-stretch:normal;text-indent:0;text-align:start;text-decoration:none;line-height:normal;letter-spacing:normal;word-spacing:normal;text-transform:none;direction:ltr;block-progression:tb;writing-mode:lr-tb;text-anchor:start;baseline-shift:baseline;opacity:1;color:#000000;fill:#bebebe;fill-opacity:1;fill-rule:nonzero;stroke:none;stroke-width:2;marker:none;visibility:visible;display:inline;overflow:visible;enable-background:accumulate;font-family:Sans;-inkscape-font-specification:Sans;clip-rule:nonzero;isolation:auto;mix-blend-mode:normal;color-interpolation:sRGB;color-interpolation-filters:linearRGB;solid-color:#000000;solid-opacity:1;stroke-linecap:butt;stroke-linejoin:miter;stroke-miterlimit:4;stroke-dasharray:none;stroke-dashoffset:0;stroke-opacity:1;filter-blend-mode:normal;filter-gaussianBlur-deviation:0;color-rendering:auto;image-rendering:auto;shape-rendering:auto;text-rendering:auto"
       d="M 10 1 C 9.446 1 9 1.446 9 2 L 9 3 L 8 3 C 6.3553 3 5 4.3553 5 6 L 5 10 L 5 17 C 5 18.6447 6.3553 20 8 20 L 13 20 L 14 20 C 15.6447 20 17 18.6447 17 17 L 17 13 L 17 10 L 17 6 C 17 4.3553 15.6447 3 14 3 L 13 3 L 13 2 C 13 1.446 12.554 1 12 1 L 10 1 z M 8 5 L 10 5 L 12 5 L 14 5 C 14.5713 5 15 5.4287 15 6 L 15 7.875 L 15 15.125 L 15 17 C 15 17.5713 14.5713 18 14 18 L 13 18 L 10 18 L 8 18 C 7.4287 18 7 17.5713 7 17 L 7 10 L 7 6 C 7 5.4287 7.4287 5 8 5 z M 9 14 C 8.446 14 8 14.446 8 15 L 8 16 C 8 16.554 8.446 17 9 17 L 13 17 C 13.554 17 14 16.554 14 16 L 14 15 C 14 14.446 13.554 14 13 14 L 9 14 z "
       transform="translate(417.57144,215.6479)"
       id="path5294" />
  </g>
</svg>
