<?xml version="1.0" encoding="UTF-8" standalone="no"?>
<!-- Created with Inkscape (http://www.inkscape.org/) -->

<svg
   xmlns:dc="http://purl.org/dc/elements/1.1/"
   xmlns:cc="http://creativecommons.org/ns#"
   xmlns:rdf="http://www.w3.org/1999/02/22-rdf-syntax-ns#"
   xmlns:svg="http://www.w3.org/2000/svg"
   xmlns="http://www.w3.org/2000/svg"
   xmlns:sodipodi="http://sodipodi.sourceforge.net/DTD/sodipodi-0.dtd"
   xmlns:inkscape="http://www.inkscape.org/namespaces/inkscape"
   width="22"
   height="22.000008"
   id="svg7582"
   version="1.1"
   inkscape:version="0.91 r"
   sodipodi:docname="battery-caution-charging-symbolic.svg">
  <defs
     id="defs7584" />
  <sodipodi:namedview
     id="base"
     pagecolor="#ffffff"
     bordercolor="#666666"
     borderopacity="1.0"
     inkscape:pageopacity="0.0"
     inkscape:pageshadow="2"
     inkscape:zoom="11.2"
     inkscape:cx="11"
     inkscape:cy="11.000007"
     inkscape:document-units="px"
     inkscape:current-layer="layer1"
     showgrid="false"
     inkscape:showpageshadow="false"
     fit-margin-top="0"
     fit-margin-left="0"
     fit-margin-right="0"
     fit-margin-bottom="0"
     inkscape:window-width="1215"
     inkscape:window-height="1000"
     inkscape:window-x="65"
     inkscape:window-y="24"
     inkscape:window-maximized="1" />
  <metadata
     id="metadata7587">
    <rdf:RDF>
      <cc:Work
         rdf:about="">
        <dc:format>image/svg+xml</dc:format>
        <dc:type
           rdf:resource="http://purl.org/dc/dcmitype/StillImage" />
        <dc:title />
      </cc:Work>
    </rdf:RDF>
  </metadata>
  <g
     inkscape:label="Layer 1"
     inkscape:groupmode="layer"
     id="layer1"
     transform="translate(-364,-521.36218)">
    <path
       style="font-size:medium;font-style:normal;font-variant:normal;font-weight:normal;font-stretch:normal;text-indent:0;text-align:start;text-decoration:none;line-height:normal;letter-spacing:normal;word-spacing:normal;text-transform:none;direction:ltr;block-progression:tb;writing-mode:lr-tb;text-anchor:start;baseline-shift:baseline;opacity:1;color:#000000;fill:#bebebe;fill-opacity:1;fill-rule:nonzero;stroke:none;stroke-width:2;marker:none;visibility:visible;display:inline;overflow:visible;enable-background:accumulate;font-family:Sans;-inkscape-font-specification:Sans;clip-rule:nonzero;isolation:auto;mix-blend-mode:normal;color-interpolation:sRGB;color-interpolation-filters:linearRGB;solid-color:#000000;solid-opacity:1;stroke-linecap:butt;stroke-linejoin:miter;stroke-miterlimit:4;stroke-dasharray:none;stroke-dashoffset:0;stroke-opacity:1;filter-blend-mode:normal;filter-gaussianBlur-deviation:0;color-rendering:auto;image-rendering:auto;shape-rendering:auto;text-rendering:auto"
       d="M 6 1 C 5.446 1 5 1.446 5 2 L 5 3 L 4 3 C 2.3553 3 1 4.3553 1 6 L 1 17 C 1 18.6447 2.3553 20 4 20 L 11 20 L 11 18 L 4 18 C 3.4287 18 3 17.5713 3 17 L 3 6 C 3 5.4287 3.4287 5 4 5 L 6 5 L 8 5 L 10 5 C 10.5713 5 11 5.4287 11 6 L 11 10.125 L 13 8 L 13 6 C 13 4.3553 11.6447 3 10 3 L 9 3 L 9 2 C 9 1.446 8.554 1 8 1 L 6 1 z M 14 9 C 13 9 13 10 13 10 L 13 12 L 12 12 L 12 16 C 12 18 14 18 14 18 L 15 18 L 15 21 L 17 21 L 17 18 L 18 18 C 20 18 20 16 20 16 L 20 12 L 19 12 L 19 10 C 19 10 19 9 18 9 C 17 9 17 10 17 10 L 17 12 L 15 12 L 15 10 C 15 10 15 9 14 9 z "
       transform="translate(364,521.36218)"
       id="path4718" />
  </g>
</svg>
