<?xml version="1.0" encoding="UTF-8" standalone="no"?>
<!-- Created with Inkscape (http://www.inkscape.org/) -->

<svg xmlns:dc="http://purl.org/dc/elements/1.1/" xmlns:cc="http://creativecommons.org/ns#" xmlns:rdf="http://www.w3.org/1999/02/22-rdf-syntax-ns#" xmlns:svg="http://www.w3.org/2000/svg" xmlns="http://www.w3.org/2000/svg" xmlns:sodipodi="http://sodipodi.sourceforge.net/DTD/sodipodi-0.dtd" xmlns:inkscape="http://www.inkscape.org/namespaces/inkscape" id="svg7384" height="16" width="16" version="1.1" inkscape:version="0.48.4 r9939" sodipodi:docname="document-properties-symbolic.svg">
    <defs id="defs9" />
    <sodipodi:namedview pagecolor="#ffffff" bordercolor="#666666" borderopacity="1" objecttolerance="10" gridtolerance="10" guidetolerance="10" inkscape:pageopacity="0" inkscape:pageshadow="2" inkscape:window-width="1280" inkscape:window-height="998" id="namedview7" showgrid="true" inkscape:snap-to-guides="false" inkscape:snap-page="true" inkscape:snap-center="false" inkscape:snap-object-midpoints="false" inkscape:snap-nodes="true" inkscape:snap-bbox="true" inkscape:zoom="29.5" inkscape:cx="15.576228" inkscape:cy="8.2103321" inkscape:window-x="0" inkscape:window-y="0" inkscape:window-maximized="1" inkscape:current-layer="svg7384">
        <inkscape:grid type="xygrid" id="grid2986" />
    </sodipodi:namedview>
    <metadata id="metadata90">
        <rdf:RDF>
            <cc:Work rdf:about="">
                <dc:format>image/svg+xml</dc:format>
                <dc:type rdf:resource="http://purl.org/dc/dcmitype/StillImage" />
                <dc:title>Gnome Symbolic Icon Theme</dc:title>
            </cc:Work>
        </rdf:RDF>
    </metadata>
    <title id="title9167">Gnome Symbolic Icon Theme</title>
    <path style="opacity:1;color:black;fill:#bebebe;fill-opacity:1;fill-rule:nonzero;stroke:none;stroke-width:1;marker:none;visibility:visible;display:inline;overflow:visible;enable-background:accumulate" d="M 7.4375 4 L 7.4375 5.125 C 7.0709428 5.199841 6.73826 5.4247065 6.4375 5.625 L 5.5625 4.78125 L 4.78125 5.5625 L 5.625 6.40625 L 5.625 6.4375 C 5.4242594 6.7375905 5.2312584 7.040509 5.15625 7.40625 L 4 7.40625 L 4 8.5625 L 5.15625 8.5625 C 5.232368 8.9336583 5.4196201 9.2591759 5.625 9.5625 L 4.78125 10.40625 L 5.5625 11.21875 L 6.4375 10.375 C 6.7365624 10.572911 7.0737577 10.769484 7.4375 10.84375 L 7.4375 12 L 8.5625 12 L 8.5625 10.84375 C 8.9262423 10.76949 9.2634377 10.572911 9.5625 10.375 L 10.4375 11.21875 L 11.21875 10.40625 L 10.375 9.5625 C 10.580379 9.2591759 10.736381 8.9336583 10.8125 8.5625 L 12 8.5625 L 12 7.40625 L 10.84375 7.40625 C 10.76763 7.0350923 10.580379 6.709575 10.375 6.40625 L 11.21875 5.5625 L 10.4375 4.78125 L 9.59375 5.625 C 9.2897483 5.4200777 8.9344863 5.2634498 8.5625 5.1875 L 8.5625 4 L 7.4375 4 z M 8 7 C 8.5508503 7 9 7.4503766 9 8 C 9 8.5496233 8.5508503 8.96875 8 8.96875 C 7.4491498 8.96875 7 8.5496233 7 8 C 7 7.4503766 7.4491498 7 8 7 z " id="path2991" />
    <path style="font-size:medium;font-style:normal;font-variant:normal;font-weight:normal;font-stretch:normal;text-indent:0;text-align:start;text-decoration:none;line-height:normal;letter-spacing:normal;word-spacing:normal;text-transform:none;direction:ltr;block-progression:tb;writing-mode:lr-tb;text-anchor:start;baseline-shift:baseline;opacity:1;color:black;fill:#bebebe;fill-opacity:1;stroke:none;stroke-width:2;marker:none;visibility:visible;display:inline;overflow:visible;enable-background:accumulate;font-family:Sans;-inkscape-font-specification:Sans" d="M 4.15625,0 C 2.4263164,0 1,1.4263164 1,3.15625 l 0,9.6875 C 1,14.573684 2.4263164,16 4.15625,16 l 7.6875,0 C 13.573684,16 15,14.573684 15,12.84375 l 0,-9.6875 C 15,1.4263164 13.573684,0 11.84375,0 l -7.6875,0 z m 0,2 7.6875,0 C 12.500278,2 13,2.4997219 13,3.15625 l 0,9.6875 C 13,13.500278 12.500278,14 11.84375,14 l -7.6875,0 C 3.4997219,14 3,13.500278 3,12.84375 L 3,3.15625 C 3,2.4997219 3.4997219,2 4.15625,2 z" id="rect2997" inkscape:connector-curvature="0" />
</svg>
