<?xml version="1.0" encoding="UTF-8" standalone="no"?>
<!-- Created with Inkscape (http://www.inkscape.org/) -->

<svg
   xmlns:dc="http://purl.org/dc/elements/1.1/"
   xmlns:cc="http://creativecommons.org/ns#"
   xmlns:rdf="http://www.w3.org/1999/02/22-rdf-syntax-ns#"
   xmlns:svg="http://www.w3.org/2000/svg"
   xmlns="http://www.w3.org/2000/svg"
   xmlns:sodipodi="http://sodipodi.sourceforge.net/DTD/sodipodi-0.dtd"
   xmlns:inkscape="http://www.inkscape.org/namespaces/inkscape"
   width="16"
   height="16"
   id="svg3330"
   version="1.1"
   inkscape:version="0.91 r"
   sodipodi:docname="tag-symbolic.svg">
  <defs
     id="defs3332">
    <path
       id="path-1"
       d="M8.60957372,-1.86808672 L1.48149987,4.29864327 L1.48149987,19.5668775 C1.48149987,19.8368658 1.70518247,20.0557345 1.98057672,20.0557345 L15.982423,20.0557345 C16.2580556,20.0557345 16.4814999,19.8329873 16.4814999,19.5668775 L16.4814999,4.29864327 L9.35342607,-1.86808672 C9.14801692,-2.0457929 8.81076027,-2.04213981 8.60957372,-1.86808672 Z M8.98149987,7.83351232 C10.0860694,7.83351232 10.9814999,6.95798032 10.9814999,5.87795676 C10.9814999,4.79793321 10.0860694,3.92240121 8.98149987,3.92240121 C7.87693032,3.92240121 6.98149987,4.79793321 6.98149987,5.87795676 C6.98149987,6.95798032 7.87693032,7.83351232 8.98149987,7.83351232 L8.98149987,7.83351232 Z" />
  </defs>
  <sodipodi:namedview
     id="base"
     pagecolor="#ffffff"
     bordercolor="#666666"
     borderopacity="1.0"
     inkscape:pageopacity="0.0"
     inkscape:pageshadow="2"
     inkscape:zoom="22.4"
     inkscape:cx="12.323937"
     inkscape:cy="6.9582786"
     inkscape:document-units="px"
     inkscape:current-layer="capa1"
     showgrid="true"
     inkscape:showpageshadow="false"
     inkscape:window-width="1280"
     inkscape:window-height="998"
     inkscape:window-x="0"
     inkscape:window-y="0"
     inkscape:window-maximized="1"
     inkscape:snap-bbox="true"
     inkscape:bbox-nodes="true"
     inkscape:bbox-paths="true"
     inkscape:snap-nodes="false">
    <inkscape:grid
       type="xygrid"
       id="grid2990" />
  </sodipodi:namedview>
  <metadata
     id="metadata3335">
    <rdf:RDF>
      <cc:Work
         rdf:about="">
        <dc:format>image/svg+xml</dc:format>
        <dc:type
           rdf:resource="http://purl.org/dc/dcmitype/StillImage" />
        <dc:title />
      </cc:Work>
    </rdf:RDF>
  </metadata>
  <g
     inkscape:label="Capa 1"
     inkscape:groupmode="layer"
     id="capa1"
     transform="translate(0,-1036.3622)">
    <path
       style="color:#000000;clip-rule:nonzero;display:inline;overflow:visible;visibility:visible;opacity:1;isolation:auto;mix-blend-mode:normal;color-interpolation:sRGB;color-interpolation-filters:linearRGB;solid-color:#000000;solid-opacity:1;fill:#bebebe;fill-opacity:1;fill-rule:nonzero;stroke:none;stroke-width:1;stroke-linecap:butt;stroke-linejoin:miter;stroke-miterlimit:4;stroke-dasharray:none;stroke-dashoffset:0;stroke-opacity:1;marker:none;color-rendering:auto;image-rendering:auto;shape-rendering:auto;text-rendering:auto;enable-background:accumulate"
       d="m 3,1037.3622 -2,2 0,5 8,8 2,0 5,-5 0,-2 -8,-8 z m 1.5,2 c 0.8284286,0 1.4999979,0.6716 1.5,1.5 -2.1e-6,0.8284 -0.6715714,1.5 -1.5,1.5 -0.8284286,0 -1.4999979,-0.6716 -1.5,-1.5 2.1e-6,-0.8284 0.6715714,-1.5 1.5,-1.5 z"
       id="path3377"
       inkscape:connector-curvature="0"
       sodipodi:nodetypes="ccccccccccscsc" />
  </g>
</svg>
