/* XPM */
static char * shade_toggled_pressed_xpm[] = {
"20 24 6 1",
" 	c None",
".	c #8D8D8D",
"+	c #FFFFFF",
"@	c #DEDEDE",
"#	c #008AFF",
"$	c #DFDFDF",
"....................",
"++++++++++++++++++++",
"@@@@@@@@@@@@@@@@@@@@",
"@@@@@@@@@@@@@@@@@@@@",
"@@@@@@@@@@@@@@@@@@@@",
"@@@@@@@@@@@@@@@@@@@@",
"@@@@@@@@@@@@@@@@@@@@",
"@@@@@@@@@@@@@@@@@@@@",
"@@@@@@@@@@@@@@@@@@@@",
"@@@@@@@@@++@@@@@@@@@",
"@@@@@@@@@##@@@@@@@@@",
"@@@@@@@@@##@@@@@@@@@",
"@@@@@@@@@##@@@@@@@@@",
"@@@@@@+++##+++@@@@@@",
"@@@@@@########@@@@@@",
"@@@@@@@######@@@@@@@",
"@@@@@@@@####$@@@@@@@",
"@@@@@@@@@##@@@@@@@@@",
"@@@@@@@@@@@@@@@@@@@@",
"@@@@@@@@@@@@@@@@@@@@",
"@@@@@@@@@@@@@@@@@@@@",
"@@@@@@@@@@@@@@@@@@@@",
"@@@@@@@@@@@@@@@@@@@@",
"@@@@@@@@@@@@@@@@@@@@"};
