<?xml version="1.0" encoding="UTF-8" standalone="no"?>
<!-- Created with Inkscape (http://www.inkscape.org/) -->

<svg
   xmlns:dc="http://purl.org/dc/elements/1.1/"
   xmlns:cc="http://creativecommons.org/ns#"
   xmlns:rdf="http://www.w3.org/1999/02/22-rdf-syntax-ns#"
   xmlns:svg="http://www.w3.org/2000/svg"
   xmlns="http://www.w3.org/2000/svg"
   xmlns:xlink="http://www.w3.org/1999/xlink"
   xmlns:sodipodi="http://sodipodi.sourceforge.net/DTD/sodipodi-0.dtd"
   xmlns:inkscape="http://www.inkscape.org/namespaces/inkscape"
   width="24"
   height="24"
   id="svg4525"
   version="1.1"
   inkscape:version="0.48.4 r9939"
   sodipodi:docname="software-update-urgent.svg">
  <defs
     id="defs4527">
    <linearGradient
       id="linearGradient4266">
      <stop
         style="stop-color:#a60000;stop-opacity:1;"
         offset="0"
         id="stop4268" />
      <stop
         style="stop-color:#ff1313;stop-opacity:1;"
         offset="1"
         id="stop4270" />
    </linearGradient>
    <linearGradient
       inkscape:collect="always"
       xlink:href="#linearGradient4266"
       id="linearGradient3759"
       gradientUnits="userSpaceOnUse"
       gradientTransform="matrix(-0.02970916,0.12123051,-0.12187193,-0.02955279,53.024249,1019.6672)"
       x1="155.12581"
       y1="302.0582"
       x2="309.96011"
       y2="262.68567" />
  </defs>
  <sodipodi:namedview
     id="base"
     pagecolor="#ffffff"
     bordercolor="#666666"
     borderopacity="1.0"
     inkscape:pageopacity="0.0"
     inkscape:pageshadow="2"
     inkscape:zoom="15.839192"
     inkscape:cx="22.98774"
     inkscape:cy="13.772567"
     inkscape:document-units="px"
     inkscape:current-layer="layer1"
     showgrid="true"
     inkscape:window-width="1280"
     inkscape:window-height="974"
     inkscape:window-x="0"
     inkscape:window-y="26"
     inkscape:window-maximized="1"
     inkscape:snap-bbox="true">
    <inkscape:grid
       type="xygrid"
       id="grid3762" />
  </sodipodi:namedview>
  <metadata
     id="metadata4530">
    <rdf:RDF>
      <cc:Work
         rdf:about="">
        <dc:format>image/svg+xml</dc:format>
        <dc:type
           rdf:resource="http://purl.org/dc/dcmitype/StillImage" />
        <dc:title />
      </cc:Work>
    </rdf:RDF>
  </metadata>
  <g
     inkscape:label="Layer 1"
     inkscape:groupmode="layer"
     id="layer1"
     transform="translate(0,-1028.3622)">
    <path
       inkscape:connector-curvature="0"
       style="opacity:1;fill:#000000;fill-opacity:1;stroke:none"
       d="m 12,1030.9675 c -0.45924,4e-4 -2.1453268,3.6242 -2.5694445,3.7993 -0.4241167,0.1752 -4.1894622,-1.1868 -4.5138889,-0.8634 -0.3244266,0.3233 1.0781234,4.0333 0.9027778,4.4555 -0.1753444,0.4223 -3.8198755,2.0992 -3.8194444,2.556 4.322e-4,0.4568 3.6433022,2.134 3.8194444,2.5559 0.1761422,0.4219 -1.1930922,4.1674 -0.8680556,4.4901 0.3250378,0.3228 4.0547189,-1.0724 4.4791667,-0.898 0.4244477,0.1744 2.1102045,3.7998 2.5694445,3.7993 0.45924,-4e-4 2.145327,-3.6241 2.569444,-3.7993 0.424118,-0.1752 4.189462,1.1868 4.513889,0.8635 0.324427,-0.3234 -1.078122,-4.0334 -0.902778,-4.4556 0.175345,-0.4222 3.819876,-2.0991 3.819445,-2.5559 -4.31e-4,-0.4568 -3.643302,-2.1341 -3.819445,-2.556 -0.176142,-0.4218 1.193093,-4.1673 0.868056,-4.4901 -0.325037,-0.3227 -4.054719,1.0725 -4.479167,0.898 -0.424447,-0.1744 -2.110204,-3.7997 -2.569444,-3.7993 z m -0.06944,4.4556 c 0.09382,-0.011 0.184822,-0.018 0.277778,0 0.340342,0.063 0.704086,0.4036 0.798611,0.7253 0.0496,0.1688 0.08367,1.2767 0.06944,3.2467 -0.0208,2.8817 -0.03366,2.9913 -0.173611,3.1777 -0.336265,0.4478 -0.874141,0.6153 -1.319445,0.4144 -0.283892,-0.128 -0.573928,-0.4814 -0.625,-0.7598 -0.02268,-0.1236 -0.04621,-1.5597 -0.03472,-3.1777 l 0.03472,-2.9358 0.208334,-0.2763 c 0.196422,-0.2428 0.482425,-0.3835 0.763888,-0.4145 z M 12,1044.2653 c 0.749851,0 1.01342,0.2072 1.076389,0.898 0.045,0.4937 -0.08939,0.8879 -0.347222,1.0706 -0.201998,0.1431 -0.789633,0.2047 -1.111112,0.1382 -0.499452,-0.1039 -0.755557,-0.5384 -0.694444,-1.2088 0.06297,-0.6908 0.326537,-0.898 1.076389,-0.898 z"
       id="path2999-6-4-9" />
    <path
       style="opacity:1;fill:url(#linearGradient3759);fill-opacity:1;stroke:none"
       d="m 12,1029.8622 c -0.45924,5e-4 -2.1453272,3.6242 -2.5694445,3.7994 -0.4241174,0.1752 -4.1894623,-1.1868 -4.5138889,-0.8635 -0.3244265,0.3233 1.0781227,4.0334 0.9027778,4.4556 -0.1753448,0.4222 -3.819876,2.0991 -3.8194444,2.5559 4.315e-4,0.4568 3.6433021,2.134 3.8194444,2.5559 0.1761423,0.4219 -1.1930924,4.1674 -0.8680556,4.4901 0.325037,0.3228 4.054719,-1.0724 4.4791667,-0.898 0.4244476,0.1744 2.1102045,3.7998 2.5694445,3.7994 0.45924,-5e-4 2.145327,-3.6242 2.569444,-3.7994 0.424118,-0.1752 4.189462,1.1868 4.513889,0.8635 0.324427,-0.3233 -1.078122,-4.0334 -0.902778,-4.4556 0.175345,-0.4222 3.819876,-2.0991 3.819445,-2.5559 -4.31e-4,-0.4568 -3.643302,-2.134 -3.819445,-2.5559 -0.176142,-0.4219 1.193093,-4.1674 0.868056,-4.4902 -0.325037,-0.3227 -4.054719,1.0725 -4.479167,0.8981 -0.424447,-0.1745 -2.110204,-3.7998 -2.569444,-3.7994 z"
       id="path3768" />
    <path
       style="opacity:1;fill:#ffffff;fill-opacity:1;stroke:none"
       d="M 11.9375 5.96875 C 11.656037 5.99975 11.352672 6.1322 11.15625 6.375 L 10.96875 6.65625 L 10.9375 9.59375 C 10.92601 11.21175 10.94607 12.6264 10.96875 12.75 C 11.019822 13.0284 11.309858 13.40325 11.59375 13.53125 C 12.039054 13.73205 12.569985 13.54155 12.90625 13.09375 C 13.046201 12.90735 13.0417 12.8191 13.0625 9.9375 C 13.07673 7.9674 13.0496 6.8563 13 6.6875 C 12.905475 6.3658 12.559092 6.03175 12.21875 5.96875 C 12.125794 5.95175 12.03132 5.95875 11.9375 5.96875 z M 12 14.8125 C 11.250148 14.8125 11.00047 14.9967 10.9375 15.6875 C 10.876387 16.3579 11.125548 16.80235 11.625 16.90625 C 11.946479 16.97285 12.516752 16.92425 12.71875 16.78125 C 12.976582 16.59855 13.1075 16.1812 13.0625 15.6875 C 12.999531 14.9967 12.749851 14.8125 12 14.8125 z "
       transform="translate(0,1028.3622)"
       id="path3766" />
  </g>
</svg>
