<?xml version="1.0" encoding="UTF-8" standalone="no"?>
<!-- Created with Inkscape (http://www.inkscape.org/) -->

<svg xmlns:dc="http://purl.org/dc/elements/1.1/" xmlns:cc="http://creativecommons.org/ns#" xmlns:rdf="http://www.w3.org/1999/02/22-rdf-syntax-ns#" xmlns:svg="http://www.w3.org/2000/svg" xmlns="http://www.w3.org/2000/svg" xmlns:xlink="http://www.w3.org/1999/xlink" xmlns:sodipodi="http://sodipodi.sourceforge.net/DTD/sodipodi-0.dtd" xmlns:inkscape="http://www.inkscape.org/namespaces/inkscape" width="48px" height="48px" id="svg4700" version="1.1" inkscape:version="0.48.4 r9939" sodipodi:docname="audacious.svg">
    <defs id="defs4702">
        <linearGradient id="linearGradient3998">
            <stop style="stop-color:#0d1e28;stop-opacity:1;" offset="0" id="stop4000" />
            <stop style="stop-color:#24526e;stop-opacity:1;" offset="1" id="stop4002" />
        </linearGradient>
        <linearGradient inkscape:collect="always" id="linearGradient3882">
            <stop style="stop-color:#ffffff;stop-opacity:1;" offset="0" id="stop3884" />
            <stop style="stop-color:#ffffff;stop-opacity:0;" offset="1" id="stop3886" />
        </linearGradient>
        <linearGradient id="linearGradient3874">
            <stop style="stop-color:#3175c0;stop-opacity:1;" offset="0" id="stop3876" />
            <stop style="stop-color:#0b1723;stop-opacity:1;" offset="1" id="stop3878" />
        </linearGradient>
        <linearGradient id="linearGradient4050">
            <stop id="stop4052" offset="0" style="stop-color:#ffffff;stop-opacity:0.66929132;" />
            <stop id="stop4054" offset="1" style="stop-color:#ffffff;stop-opacity:0;" />
        </linearGradient>
        <filter id="filter3174" color-interpolation-filters="sRGB">
            <feGaussianBlur stdDeviation="1.71" id="feGaussianBlur3176" />
        </filter>
        <linearGradient gradientTransform="scale(1.0058652,0.994169)" gradientUnits="userSpaceOnUse" id="ButtonShadow" y2="7.0165396" x2="45.447727" y1="92.539597" x1="45.447727">
            <stop offset="0" style="stop-color:#000000;stop-opacity:1" id="stop3750" />
            <stop offset="1" style="stop-color:#000000;stop-opacity:0.58823532" id="stop3752" />
        </linearGradient>
        <linearGradient inkscape:collect="always" xlink:href="#linearGradient4050" id="linearGradient4523" x1="22.440199" y1="4.8942533" x2="22.440199" y2="38.21666" gradientUnits="userSpaceOnUse" gradientTransform="matrix(0.99857425,0,0,1.0345522,-0.81332958,0.60549469)" />
        <radialGradient inkscape:collect="always" xlink:href="#linearGradient3874" id="radialGradient3880" cx="25.175152" cy="33.663082" fx="25.175152" fy="33.663082" r="21.015722" gradientTransform="matrix(1.2656067,0,0,1.2656264,-7.1583946,-6.1416886)" gradientUnits="userSpaceOnUse" />
        <radialGradient inkscape:collect="always" xlink:href="#linearGradient3882" id="radialGradient3892" cx="29.303301" cy="20.259962" fx="29.303301" fy="20.259962" r="24.34375" gradientUnits="userSpaceOnUse" />
        <clipPath clipPathUnits="userSpaceOnUse" id="clipPath3896">
            <rect rx="3" ry="3.0000002" y="2.5254784" x="3.5" height="40.974522" width="41.000496" id="rect3898" style="color:#000000;fill:none;stroke:#34769e;stroke-width:1.03094733;stroke-linecap:butt;stroke-linejoin:miter;stroke-miterlimit:4;stroke-opacity:1;stroke-dasharray:none;stroke-dashoffset:0;marker:none;visibility:visible;display:inline;overflow:visible;enable-background:accumulate" />
        </clipPath>
        <linearGradient y2="25.48744" y1="-5.7136502" x2="31.74275" x1="8.2114201" id="linearGradient4594" gradientUnits="userSpaceOnUse">
            <stop id="stop37-5" stop-color="#fff" offset="0" />
            <stop id="stop39" stop-opacity="0" stop-color="#fff" offset="1" />
        </linearGradient>
        <linearGradient inkscape:collect="always" xlink:href="#linearGradient4594" id="linearGradient3996" gradientUnits="userSpaceOnUse" gradientTransform="matrix(0.98821956,0,0,0.98630136,3.4829976,-1.917807)" x1="8.2114201" y1="-5.7136502" x2="31.74275" y2="25.48744" />
        <linearGradient inkscape:collect="always" xlink:href="#linearGradient3998" id="linearGradient4004" x1="17.480215" y1="43.784" x2="17.480215" y2="2.6583908" gradientUnits="userSpaceOnUse" gradientTransform="matrix(0.9992331,0,0,0.99986653,0.0181578,0.99033352)" />
        <radialGradient inkscape:collect="always" xlink:href="#linearGradient5060" id="radialGradient3129" gradientUnits="userSpaceOnUse" gradientTransform="matrix(0.06214224,0,0,0.02900085,1.6365015,28.953157)" cx="605.71429" cy="486.64789" fx="605.71429" fy="486.64789" r="117.14286" />
        <linearGradient id="linearGradient5060">
            <stop id="stop5062" style="stop-color:#000000;stop-opacity:1" offset="0" />
            <stop id="stop5064" style="stop-color:#000000;stop-opacity:0" offset="1" />
        </linearGradient>
        <linearGradient inkscape:collect="always" xlink:href="#linearGradient5048" id="linearGradient3127" gradientUnits="userSpaceOnUse" gradientTransform="matrix(0.06214224,0,0,0.02900085,1.6242719,28.953157)" x1="302.85715" y1="366.64789" x2="302.85715" y2="609.50507" />
        <linearGradient id="linearGradient5048">
            <stop id="stop5050" style="stop-color:#000000;stop-opacity:0" offset="0" />
            <stop id="stop5056" style="stop-color:#000000;stop-opacity:1" offset="0.5" />
            <stop id="stop5052" style="stop-color:#000000;stop-opacity:0" offset="1" />
        </linearGradient>
        <radialGradient r="117.14286" fy="486.64789" fx="605.71429" cy="486.64789" cx="605.71429" gradientTransform="matrix(-0.06214224,0,0,0.02900085,46.53201,28.953157)" gradientUnits="userSpaceOnUse" id="radialGradient3144" xlink:href="#linearGradient5060" inkscape:collect="always" />
    </defs>
    <sodipodi:namedview id="base" pagecolor="#ffffff" bordercolor="#666666" borderopacity="1.0" inkscape:pageopacity="0.0" inkscape:pageshadow="2" inkscape:zoom="11.313708" inkscape:cx="25.374372" inkscape:cy="22.727332" inkscape:current-layer="layer1" showgrid="true" inkscape:grid-bbox="true" inkscape:document-units="px" inkscape:window-width="1280" inkscape:window-height="976" inkscape:window-x="0" inkscape:window-y="24" inkscape:window-maximized="1" inkscape:snap-to-guides="false" inkscape:snap-grids="false">
        <inkscape:grid type="xygrid" id="grid1021" empspacing="5" visible="true" enabled="true" snapvisiblegridlinesonly="true" />
    </sodipodi:namedview>
    <metadata id="metadata4705">
        <rdf:RDF>
            <cc:Work rdf:about="">
                <dc:format>image/svg+xml</dc:format>
                <dc:type rdf:resource="http://purl.org/dc/dcmitype/StillImage" />
                <dc:title />
            </cc:Work>
        </rdf:RDF>
    </metadata>
    <g id="layer1" inkscape:label="Layer 1" inkscape:groupmode="layer">
        <g id="g1017" transform="matrix(1.0114617,0,0,0.99388573,-0.36029852,1.6557905)">
            <path inkscape:connector-curvature="0" style="opacity:0.5;fill:url(#radialGradient3129);fill-opacity:1;fill-rule:nonzero;stroke:none;stroke-width:104.96237946;marker:none;visibility:visible;display:inline;overflow:visible" id="path5058" d="m 39.087163,39.586499 c 0,0 0,7.042675 0,7.042675 3.200171,0.01326 7.736457,-1.577906 7.736455,-3.52179 0,-1.943885 -3.57115,-3.520884 -7.736455,-3.520885 z" />
            <rect style="opacity:0.5;fill:url(#linearGradient3127);fill-opacity:1;fill-rule:nonzero;stroke:none;stroke-width:104.96237946;marker:none;visibility:visible;display:inline;overflow:visible" id="rect4173" y="39.58625" x="9.0813398" height="7.0430632" width="30.005821" />
            <path inkscape:connector-curvature="0" style="opacity:0.5;fill:url(#radialGradient3144);fill-opacity:1;fill-rule:nonzero;stroke:none;stroke-width:104.96237946;marker:none;visibility:visible;display:inline;overflow:visible" id="path5018" d="m 9.0813406,39.586499 c 0,0 0,7.042675 0,7.042675 -3.2001721,0.01326 -7.7364568,-1.577906 -7.7364568,-3.52179 0,-1.943885 3.57115,-3.520884 7.7364568,-3.520885 z" />
        </g>
        <rect style="color:black;fill:url(#radialGradient3880);fill-opacity:1;fill-rule:nonzero;stroke:url(#linearGradient4004);stroke-width:1.03094733;stroke-linecap:butt;stroke-linejoin:miter;stroke-miterlimit:4;stroke-opacity:1;stroke-dasharray:none;stroke-dashoffset:0;marker:none;visibility:visible;display:inline;overflow:visible;enable-background:accumulate" id="rect3117" width="40.969051" height="40.969051" x="3.5154736" y="3.515475" ry="3.0000002" rx="3" />
        <g id="layer2" style="display:none" transform="translate(5.204491,-179.6879)">
            <rect width="86" height="85" rx="6" ry="6" x="5" y="7" id="rect3745" style="opacity:0.9;fill:url(#ButtonShadow);fill-opacity:1;fill-rule:nonzero;stroke:none;filter:url(#filter3174)" />
        </g>
        <g id="layer4" transform="translate(5.204491,-178.6879)" />
        <rect width="38.975693" height="38.975693" ry="2" x="4.5121527" y="4.5121541" id="rect4513" style="opacity:0.5;fill:none;stroke:url(#linearGradient4523);stroke-width:1.02430558;stroke-miterlimit:4;stroke-opacity:1;stroke-dasharray:none" rx="2.0000005" />
        <path style="font-size:32.94774628px;font-style:normal;font-variant:normal;font-weight:bold;font-stretch:normal;line-height:125%;letter-spacing:0px;word-spacing:0px;color:black;fill:url(#radialGradient3892);fill-opacity:1;fill-rule:nonzero;stroke:none;stroke-width:4.83461523;marker:none;visibility:visible;display:inline;overflow:visible;enable-background:accumulate;font-family:Ubuntu;-inkscape-font-specification:Ubuntu Bold" d="M 24,-1.34375 C 10.557644,-1.34375 -0.34375,9.5576437 -0.34375,23 -0.34375,36.442356 10.557644,47.34375 24,47.34375 37.442356,47.34375 48.34375,36.442356 48.34375,23 48.34375,9.5576437 37.442356,-1.34375 24,-1.34375 z m 0,1 C 36.901917,-0.34375 47.34375,10.098083 47.34375,23 47.34375,35.901917 36.901917,46.34375 24,46.34375 11.098083,46.34375 0.65625,35.901917 0.65625,23 0.65625,10.098083 11.098083,-0.34375 24,-0.34375 z M 24,2.1875 C 12.526786,2.1875 3.21875,11.526785 3.21875,23 3.21875,34.473214 12.526786,43.78125 24,43.78125 35.473214,43.78125 44.8125,34.473214 44.8125,23 44.8125,11.526785 35.473214,2.1875 24,2.1875 z m 0,2 C 34.392334,4.1875 42.8125,12.607665 42.8125,23 42.8125,33.392334 34.392334,41.78125 24,41.78125 13.607665,41.78125 5.21875,33.392334 5.21875,23 5.21875,12.607665 13.607665,4.1875 24,4.1875 z m 0,2.28125 C 14.888367,6.46875 7.46875,13.888366 7.46875,23 7.46875,32.111634 14.888367,39.53125 24,39.53125 33.111634,39.53125 40.53125,32.111634 40.53125,23 40.53125,13.888366 33.111634,6.46875 24,6.46875 z m 0,3.96875 c 6.949874,0 12.5625,5.612627 12.5625,12.5625 0,6.949873 -5.612626,12.53125 -12.5625,12.53125 -6.949873,0 -12.53125,-5.581377 -12.53125,-12.53125 0,-6.949873 5.581377,-12.5625 12.53125,-12.5625 z m -0.09375,3.5 c -0.571102,2e-5 -1.116413,0.02787 -1.6875,0.09375 -0.549135,0.04395 -1.088556,0.09966 -1.59375,0.1875 -0.505203,0.06591 -0.966951,0.140191 -1.40625,0.25 -0.417341,0.08788 -0.776955,0.19341 -1.0625,0.28125 l 0.625,3.9375 c 0.593055,-0.219638 1.281035,-0.358911 2.09375,-0.46875 0.812705,-0.131776 1.634067,-0.218737 2.46875,-0.21875 1.252006,1.3e-5 2.151041,0.276064 2.65625,0.78125 0.505188,0.505211 0.749989,1.165336 0.75,2 l 0,0.46875 c -0.307523,-0.08785 -0.713562,-0.17481 -1.21875,-0.21875 -0.483244,-0.06588 -1.05052,-0.09374 -1.6875,-0.09375 -0.94451,1.1e-5 -1.84015,0.114824 -2.71875,0.3125 -0.878612,0.175731 -1.662834,0.457672 -2.34375,0.875 -0.680923,0.417347 -1.238914,0.984623 -1.65625,1.6875 -0.395374,0.702892 -0.593751,1.552109 -0.59375,2.5625 -1e-6,1.054332 0.179806,1.931403 0.53125,2.65625 0.35144,0.724852 0.872293,1.319983 1.53125,1.78125 0.658951,0.439304 1.411924,0.771063 2.3125,0.96875 0.922531,0.197689 1.942269,0.28125 3.0625,0.28125 1.779168,0 3.310473,-0.09285 4.5625,-0.3125 1.252,-0.197687 2.234599,-0.377494 2.9375,-0.53125 l 0,-10.21875 c -1.6e-5,-1.076282 -0.133399,-2.058881 -0.375,-2.9375 -0.241632,-0.878592 -0.656955,-1.60371 -1.25,-2.21875 -0.571108,-0.615008 -1.346046,-1.108005 -2.3125,-1.4375 -0.966478,-0.32946 -2.175309,-0.468732 -3.625,-0.46875 z m 0.1875,10.3125 c 0.219652,-0.01647 0.456862,3e-6 0.6875,0 0.329468,10e-6 0.698367,0.01858 1.09375,0.0625 0.395362,0.04394 0.677303,0.08108 0.875,0.125 l 0,3.71875 c -0.263593,0.04393 -0.623207,0.07179 -1.0625,0.09375 -0.439313,0.02197 -0.891776,0.03125 -1.375,0.03125 -0.90058,4e-6 -1.629094,-0.1207 -2.15625,-0.40625 -0.505206,-0.307508 -0.750006,-0.856214 -0.75,-1.625 -6e-6,-0.395367 0.105523,-0.736412 0.28125,-1 0.175715,-0.263575 0.411231,-0.471237 0.71875,-0.625 0.307505,-0.153749 0.667119,-0.23731 1.0625,-0.28125 0.208664,-0.03295 0.405348,-0.07728 0.625,-0.09375 z" id="path3829" clip-path="url(#clipPath3896)" inkscape:connector-curvature="0" transform="matrix(0.97559796,0,0,0.9762164,0.58540715,1.5345877)" />
        <path style="opacity:0.98999999;fill:url(#linearGradient3996)" inkscape:connector-curvature="0" d="m 21,4.0000012 20.452897,0 C 42.725724,4.0000012 44,5.0127412 44,6.502934 l 0,33.497067 -12.750641,0 z" id="path57-5" sodipodi:nodetypes="cssccc" />
    </g>
</svg>
