<?xml version="1.0" encoding="UTF-8" standalone="no"?>
<svg
   xmlns:dc="http://purl.org/dc/elements/1.1/"
   xmlns:cc="http://creativecommons.org/ns#"
   xmlns:rdf="http://www.w3.org/1999/02/22-rdf-syntax-ns#"
   xmlns:svg="http://www.w3.org/2000/svg"
   xmlns="http://www.w3.org/2000/svg"
   xmlns:xlink="http://www.w3.org/1999/xlink"
   xmlns:sodipodi="http://sodipodi.sourceforge.net/DTD/sodipodi-0.dtd"
   xmlns:inkscape="http://www.inkscape.org/namespaces/inkscape"
   viewBox="0 0 22 22"
   id="svg2"
   version="1.1"
   inkscape:version="0.48.3.1 r9886"
   width="100%"
   height="100%"
   sodipodi:docname="go-bottom.svg">
  <metadata
     id="metadata17">
    <rdf:RDF>
      <cc:Work
         rdf:about="">
        <dc:format>image/svg+xml</dc:format>
        <dc:type
           rdf:resource="http://purl.org/dc/dcmitype/StillImage" />
      </cc:Work>
    </rdf:RDF>
  </metadata>
  <sodipodi:namedview
     pagecolor="#ffffff"
     bordercolor="#666666"
     borderopacity="1"
     objecttolerance="10"
     gridtolerance="10"
     guidetolerance="10"
     inkscape:pageopacity="0"
     inkscape:pageshadow="2"
     inkscape:window-width="640"
     inkscape:window-height="480"
     id="namedview15"
     showgrid="false"
     inkscape:zoom="10.727273"
     inkscape:cx="11"
     inkscape:cy="11"
     inkscape:window-x="0"
     inkscape:window-y="24"
     inkscape:window-maximized="0"
     inkscape:current-layer="svg2" />
  <defs
     id="defs4">
    <linearGradient
       gradientTransform="matrix(0,1.052632,.984363,0,3.067548,45.665556)"
       gradientUnits="userSpaceOnUse"
       id="linearGradient1022-7"
       x2="0"
       y1="-.06157"
       y2="8.08321">
      <stop
         offset="0"
         id="stop7" />
      <stop
         offset="1"
         stop-color="#363636"
         id="stop9" />
    </linearGradient>
    <linearGradient
       gradientTransform="matrix(0,1.052632,0.984363,0,3.067548,45.665556)"
       gradientUnits="userSpaceOnUse"
       id="linearGradient1022-7-5"
       x2="0"
       y1="-0.06157"
       y2="8.08321">
      <stop
         offset="0"
         id="stop7-2" />
      <stop
         offset="1"
         stop-color="#363636"
         id="stop9-4" />
    </linearGradient>
    <linearGradient
       y2="8.08321"
       x2="0"
       y1="-0.06157"
       gradientTransform="matrix(0,1.052632,0.984363,0,-0.568992,39.395149)"
       gradientUnits="userSpaceOnUse"
       id="linearGradient3777"
       xlink:href="#linearGradient1022-7-5"
       inkscape:collect="always" />
  </defs>
  <path
     id="path11"
     d="m 3.625,20.95742 v -2.65625 h 14.6875 v 2.65625 H 3.625 z M 11.03125,16.80117 4.09375,9.76992 C 3.84853,9.53309 3.67118,9.2036 3.65625,8.86367 c -6.1e-4,-0.014 -1.6e-4,-0.04863 0,-0.0625 V 7.48867 H 5 c 0.37432,-0.02921 0.7405,0.09402 1,0.375 l 5.03125,5.0625 5,-5.0625 C 16.28214,7.61281 16.64629,7.48867 17,7.48867 h 1.34375 v 1.3125 c 0,0.35371 -0.12409,0.71788 -0.375,0.96875 l -6.9375,7.03125 z"
     style="opacity:0.59999999999999998;color:#000000;fill:#ffffff;fill-opacity:1;fill-rule:evenodd;stroke-width:1;stroke-linecap:butt;stroke-linejoin:miter;stroke-miterlimit:4;stroke-opacity:1;stroke-dasharray:none;stroke-dashoffset:0;marker:none;visibility:visible;display:inline;overflow:visible;enable-background:accumulate" />
  <path
     id="path13"
     style="opacity:0.69999999999999996;color:#000000;fill:url(#linearGradient1022-7-5);fill-opacity:1;fill-rule:nonzero;stroke-width:1;stroke-linecap:butt;stroke-linejoin:miter;stroke-miterlimit:4;stroke-opacity:1;stroke-dasharray:none;stroke-dashoffset:0;marker:none;visibility:visible;display:inline;overflow:visible;enable-background:accumulate"
     d="m 3.66696,6.27453 v 1.3333 c -1.6e-4,0.01387 -6.1e-4,0.02773 0,0.04173 0.01493,0.33993 0.17144,0.67981 0.41666,0.91665 l 6.95824,7.04143 6.9165,-7.04143 C 18.20927,8.31534 18.33335,7.96161 18.33335,7.6079 V 6.2746 h -1.3333 c -0.35371,0 -0.70742,0.12413 -0.95831,0.37499 L 11.04186,11.7328 6.00038,6.64959 C 5.74088,6.36861 5.37473,6.24539 5.0004,6.2746 H 3.6671 z M 3.63654,16.96809 v 2.67089 h 14.68992 v -2.67089 z" />
</svg>
