<?xml version="1.0" encoding="UTF-8" standalone="no"?>
<svg
   xmlns:dc="http://purl.org/dc/elements/1.1/"
   xmlns:cc="http://creativecommons.org/ns#"
   xmlns:rdf="http://www.w3.org/1999/02/22-rdf-syntax-ns#"
   xmlns:svg="http://www.w3.org/2000/svg"
   xmlns="http://www.w3.org/2000/svg"
   xmlns:xlink="http://www.w3.org/1999/xlink"
   xmlns:sodipodi="http://sodipodi.sourceforge.net/DTD/sodipodi-0.dtd"
   xmlns:inkscape="http://www.inkscape.org/namespaces/inkscape"
   viewBox="0 0 22 22"
   id="svg3072"
   version="1.1"
   inkscape:version="0.48.3.1 r9886"
   width="100%"
   height="100%"
   sodipodi:docname="go-jump-rtl.svg">
  <metadata
     id="metadata3087">
    <rdf:RDF>
      <cc:Work
         rdf:about="">
        <dc:format>image/svg+xml</dc:format>
        <dc:type
           rdf:resource="http://purl.org/dc/dcmitype/StillImage" />
      </cc:Work>
    </rdf:RDF>
  </metadata>
  <sodipodi:namedview
     pagecolor="#ffffff"
     bordercolor="#666666"
     borderopacity="1"
     objecttolerance="10"
     gridtolerance="10"
     guidetolerance="10"
     inkscape:pageopacity="0"
     inkscape:pageshadow="2"
     inkscape:window-width="640"
     inkscape:window-height="480"
     id="namedview3085"
     showgrid="false"
     inkscape:zoom="10.727273"
     inkscape:cx="15.194915"
     inkscape:cy="9.2799188"
     inkscape:window-x="0"
     inkscape:window-y="24"
     inkscape:window-maximized="0"
     inkscape:current-layer="svg3072" />
  <defs
     id="defs3074">
    <linearGradient
       gradientUnits="userSpaceOnUse"
       id="linearGradient1022-1"
       x2="0"
       y1="3.00694"
       y2="11.02436">
      <stop
         offset="0"
         id="stop3077" />
      <stop
         offset="1"
         stop-color="#363636"
         id="stop3079" />
    </linearGradient>
    <linearGradient
       gradientUnits="userSpaceOnUse"
       id="linearGradient1022-1-2"
       x2="0"
       y1="3.0069399"
       y2="11.02436">
      <stop
         offset="0"
         id="stop3077-1" />
      <stop
         offset="1"
         stop-color="#363636"
         id="stop3079-0" />
    </linearGradient>
    <linearGradient
       gradientTransform="translate(-6.30032,-4.97167)"
       y2="11.02436"
       x2="0"
       y1="3.0069399"
       gradientUnits="userSpaceOnUse"
       id="linearGradient3577"
       xlink:href="#linearGradient1022-1-2"
       inkscape:collect="always" />
  </defs>
  <path
     style="opacity:0.59999999999999998;fill:#ffffff;color:#000000;fill-opacity:1;fill-rule:nonzero;stroke-width:1;stroke-linecap:butt;stroke-linejoin:miter;stroke-miterlimit:4;stroke-opacity:1;stroke-dasharray:none;stroke-dashoffset:0;marker:none;visibility:visible;display:inline;overflow:visible;enable-background:accumulate"
     d="m 13.63534,6.3125 c 2.168,0 3.94962,1.78162 3.94962,3.94962 v 0.56423 h -2.25693 v -0.56423 c 0,-0.94821 -0.74448,-1.69269 -1.6927,-1.69269 -0.94822,0 -1.6927,0.74448 -1.6927,1.69269 v 5.74811 l 1.44585,-1.44584 c 0.21474,-0.20614 0.52119,-0.35264 0.81108,-0.35264 h 1.12846 v 1.12846 c 0,0.3492 -0.1019,0.62327 -0.31738,0.84635 L 10.81417,20.3125 6.6177,16.18656 C 6.40222,15.96349 6.30032,15.68941 6.30032,15.34021 v -1.12846 h 1.12846 c 0.28989,0 0.59635,0.14651 0.81108,0.35264 l 1.44584,1.44584 v -5.74811 c 0,-2.168 1.78162,-3.94962 3.94962,-3.94962 z"
     id="path3081" />
  <path
     d="m 13.63534,4.97167 c 2.168,0 3.94962,1.78162 3.94962,3.94962 V 9.48552 H 15.32803 V 8.92129 c 0,-0.94821 -0.74448,-1.6927 -1.6927,-1.6927 -0.94822,0 -1.6927,0.74448 -1.6927,1.6927 v 5.74811 l 1.44585,-1.44584 c 0.21474,-0.20614 0.52119,-0.35264 0.81108,-0.35264 h 1.12846 v 1.12846 c 0,0.3492 -0.1019,0.62327 -0.31738,0.84635 L 10.81417,18.97167 6.6177,14.84573 C 6.40222,14.62266 6.30032,14.34858 6.30032,13.99938 v -1.12846 h 1.12846 c 0.28989,0 0.59635,0.14651 0.81108,0.35264 L 9.6857,14.6694 V 8.92129 c 0,-2.168 1.78162,-3.94962 3.94962,-3.94962 z"
     id="path3083"
     style="opacity:0.69999999999999996;color:#000000;fill:url(#linearGradient1022-1-2);fill-opacity:1;fill-rule:nonzero;stroke-width:1;stroke-linecap:butt;stroke-linejoin:miter;stroke-miterlimit:4;stroke-opacity:1;stroke-dasharray:none;stroke-dashoffset:0;marker:none;visibility:visible;display:inline;overflow:visible;enable-background:accumulate" />
</svg>
