<?xml version="1.0" encoding="UTF-8" standalone="no"?>
<svg
   xmlns:dc="http://purl.org/dc/elements/1.1/"
   xmlns:cc="http://creativecommons.org/ns#"
   xmlns:rdf="http://www.w3.org/1999/02/22-rdf-syntax-ns#"
   xmlns:svg="http://www.w3.org/2000/svg"
   xmlns="http://www.w3.org/2000/svg"
   xmlns:xlink="http://www.w3.org/1999/xlink"
   xmlns:sodipodi="http://sodipodi.sourceforge.net/DTD/sodipodi-0.dtd"
   xmlns:inkscape="http://www.inkscape.org/namespaces/inkscape"
   viewBox="0 0 22 22"
   id="svg3038"
   version="1.1"
   inkscape:version="0.48.3.1 r9886"
   width="100%"
   height="100%"
   sodipodi:docname="view-refresh.svg">
  <metadata
     id="metadata3055">
    <rdf:RDF>
      <cc:Work
         rdf:about="">
        <dc:format>image/svg+xml</dc:format>
        <dc:type
           rdf:resource="http://purl.org/dc/dcmitype/StillImage" />
      </cc:Work>
    </rdf:RDF>
  </metadata>
  <sodipodi:namedview
     pagecolor="#ffffff"
     bordercolor="#666666"
     borderopacity="1"
     objecttolerance="10"
     gridtolerance="10"
     guidetolerance="10"
     inkscape:pageopacity="0"
     inkscape:pageshadow="2"
     inkscape:window-width="1280"
     inkscape:window-height="976"
     id="namedview3053"
     showgrid="true"
     inkscape:zoom="19.666667"
     inkscape:cx="16.322034"
     inkscape:cy="8.839593"
     inkscape:window-x="0"
     inkscape:window-y="24"
     inkscape:window-maximized="1"
     inkscape:current-layer="layer12">
    <inkscape:grid
       type="xygrid"
       id="grid2987"
       empspacing="5"
       visible="true"
       enabled="true"
       snapvisiblegridlinesonly="true" />
  </sodipodi:namedview>
  <defs
     id="defs3040">
    <linearGradient
       gradientUnits="userSpaceOnUse"
       id="linearGradient1022-8"
       x2="0"
       y1="3.0069399"
       y2="11.02436">
      <stop
         offset="0"
         id="stop3043" />
      <stop
         offset="1"
         stop-color="#363636"
         id="stop3045" />
    </linearGradient>
    <linearGradient
       inkscape:collect="always"
       xlink:href="#linearGradient1022-8"
       id="linearGradient3631"
       gradientUnits="userSpaceOnUse"
       y1="3.0069399"
       x2="0"
       y2="11.02436"
       gradientTransform="matrix(1.047469,0,0,1.047469,0.209833,0.145558)" />
    <linearGradient
       inkscape:collect="always"
       xlink:href="#linearGradient1022-8-9"
       id="linearGradient3631-2"
       gradientUnits="userSpaceOnUse"
       y1="3.0069399"
       x2="0"
       y2="11.02436"
       gradientTransform="matrix(1.047469,0,0,1.047469,0.4779,0.085124)" />
    <linearGradient
       gradientUnits="userSpaceOnUse"
       id="linearGradient1022-8-9"
       x2="0"
       y1="3.0069399"
       y2="11.02436">
      <stop
         offset="0"
         id="stop3043-0" />
      <stop
         offset="1"
         stop-color="#363636"
         id="stop3045-6" />
    </linearGradient>
    <linearGradient
       y2="11.02436"
       x2="0"
       y1="3.0069399"
       gradientTransform="matrix(1.047469,0,0,1.047469,-3.6660996,-4.189876)"
       gradientUnits="userSpaceOnUse"
       id="linearGradient3015"
       xlink:href="#linearGradient1022-8-9"
       inkscape:collect="always" />
    <linearGradient
       inkscape:collect="always"
       xlink:href="#linearGradient1022-8-9"
       id="linearGradient3058"
       gradientUnits="userSpaceOnUse"
       gradientTransform="matrix(1.047469,0,0,1.047469,-0.33505032,0.88767713)"
       y1="3.0069399"
       x2="0"
       y2="11.02436" />
  </defs>
  <g
     style="opacity:0.6;color:#000000;fill:#ffffff;fill-opacity:1;fill-rule:nonzero;stroke-width:0.80773646;stroke-linecap:butt;stroke-linejoin:miter;stroke-miterlimit:4;stroke-opacity:1;stroke-dasharray:none;stroke-dashoffset:0;marker:none;visibility:visible;display:inline;overflow:visible;enable-background:accumulate"
     id="g3021"
     transform="matrix(1.2300853,0,0,1.2460211,-294.68492,-778.70136)">
    <path
       inkscape:connector-curvature="0"
       id="path3023"
       style="text-indent:0;text-transform:none;block-progression:tb;color:#000000;fill:#ffffff;fill-opacity:1;fill-rule:nonzero;stroke-width:0.80773646;stroke-linecap:butt;stroke-linejoin:miter;stroke-miterlimit:4;stroke-opacity:1;stroke-dasharray:none;stroke-dashoffset:0;marker:none;visibility:visible;display:inline;overflow:visible;enable-background:accumulate"
       d="m 253.91,628.97 a 1.0001,1.0001 0 0 0 -0.125,0.0312 1.0001,1.0001 0 0 0 -0.78125,1 v 1.6875 c -0.38225,-0.57796 -0.84927,-1.0822 -1.4062,-1.5 -1.1556,-0.86677 -2.532,-1.2523 -3.875,-1.1875 -0.19186,0.009 -0.37223,0.0353 -0.5625,0.0625 -1.5222,0.21741 -2.9782,1.023 -3.9688,2.3438 -1.9812,2.6414 -1.4227,6.425 1.2188,8.4062 2.6415,1.9812 6.425,1.4227 8.4062,-1.2188 a 1.0063,1.0063 0 0 0 0.19,-0.6 1.0063,1.0063 0 0 0 0,-0.15625 v -0.84375 h -0.8125 -0.0937 a 1.0063,1.0063 0 0 0 -0.0937,0 1.0063,1.0063 0 0 0 -0.8125,0.40625 c -1.3326,1.7767 -3.817,2.1139 -5.5938,0.78125 -1.7767,-1.3326 -2.1139,-3.817 -0.78125,-5.5938 1.3326,-1.7767 3.817,-2.1139 5.5938,-0.78125 0.42946,0.32212 0.76954,0.73295 1.0312,1.1875 h -1.4375 a 1.0001,1.0001 0 0 0 -1,1 1.0001,1.0001 0 0 0 0,0.21875 v 0.78125 h 0.84375 0.15625 4 1 v -1 -4 a 1.0001,1.0001 0 0 0 0,-0.1875 v -0.8125 h -0.8125 a 1.0001,1.0001 0 0 0 -0.28125,-0.0312 z" />
  </g>
  <g
     transform="matrix(1.2300853,0,0,1.2460211,-293.68492,-780.7014)"
     id="layer12"
     style="opacity:0.7;color:#000000;fill:url(#linearGradient3631-2);fill-opacity:1;fill-rule:nonzero;stroke-width:1;stroke-linecap:butt;stroke-linejoin:miter;stroke-miterlimit:4;stroke-opacity:1;stroke-dasharray:none;stroke-dashoffset:0;marker:none;visibility:visible;display:inline;overflow:visible;enable-background:accumulate">
    <path
       d="m 253.09705,629.77255 a 1.0001,1.0001 0 0 0 -0.125,0.0312 1.0001,1.0001 0 0 0 -0.78125,1 v 1.6875 c -0.38225,-0.57796 -0.84927,-1.0822 -1.4062,-1.5 -1.1556,-0.86677 -2.532,-1.2523 -3.875,-1.1875 -0.19186,0.009 -0.37223,0.0353 -0.5625,0.0625 -1.5222,0.21741 -2.9782,1.023 -3.9688,2.3438 -1.9812,2.6414 -1.4227,6.425 1.2188,8.4062 2.6415,1.9812 6.425,1.4227 8.4062,-1.2188 a 1.0063,1.0063 0 0 0 0.19,-0.6 1.0063,1.0063 0 0 0 0,-0.15625 v -0.84375 h -0.8125 -0.0937 a 1.0063,1.0063 0 0 0 -0.0937,0 1.0063,1.0063 0 0 0 -0.8125,0.40625 c -1.3326,1.7767 -3.817,2.1139 -5.5938,0.78125 -1.7767,-1.3326 -2.1139,-3.817 -0.78125,-5.5938 1.3326,-1.7767 3.817,-2.1139 5.5938,-0.78125 0.42946,0.32212 0.76954,0.73295 1.0312,1.1875 h -1.4375 a 1.0001,1.0001 0 0 0 -1,1 1.0001,1.0001 0 0 0 0,0.21875 v 0.78125 h 0.84375 0.15625 4 1 v -1 -4 a 1.0001,1.0001 0 0 0 0,-0.1875 v -0.8125 h -0.8125 a 1.0001,1.0001 0 0 0 -0.28125,-0.0312 z"
       style="text-indent:0;text-transform:none;block-progression:tb;color:#000000;fill:url(#linearGradient3058);fill-opacity:1;fill-rule:nonzero;stroke-width:1;stroke-linecap:butt;stroke-linejoin:miter;stroke-miterlimit:4;stroke-opacity:1;stroke-dasharray:none;stroke-dashoffset:0;marker:none;visibility:visible;display:inline;overflow:visible;enable-background:accumulate"
       id="path4597"
       inkscape:connector-curvature="0" />
  </g>
</svg>
