<?xml version="1.0" encoding="UTF-8" standalone="no"?>
<!-- Created with Inkscape (http://www.inkscape.org/) -->

<svg xmlns:dc="http://purl.org/dc/elements/1.1/" xmlns:cc="http://creativecommons.org/ns#" xmlns:rdf="http://www.w3.org/1999/02/22-rdf-syntax-ns#" xmlns:svg="http://www.w3.org/2000/svg" xmlns="http://www.w3.org/2000/svg" xmlns:xlink="http://www.w3.org/1999/xlink" xmlns:sodipodi="http://sodipodi.sourceforge.net/DTD/sodipodi-0.dtd" xmlns:inkscape="http://www.inkscape.org/namespaces/inkscape" width="16" height="16" id="svg4700" version="1.1" inkscape:version="0.48.4 r9939" sodipodi:docname="rpm16.svg">
    <defs id="defs4702">
        <linearGradient id="linearGradient4050">
            <stop id="stop4052" offset="0" style="stop-color:#ffffff;stop-opacity:1;" />
            <stop id="stop4054" offset="1" style="stop-color:#ffffff;stop-opacity:0;" />
        </linearGradient>
        <filter id="filter3174" color-interpolation-filters="sRGB">
            <feGaussianBlur stdDeviation="1.71" id="feGaussianBlur3176" />
        </filter>
        <linearGradient gradientTransform="scale(1.0058652,0.994169)" gradientUnits="userSpaceOnUse" id="ButtonShadow" y2="7.0165396" x2="45.447727" y1="92.539597" x1="45.447727">
            <stop offset="0" style="stop-color:#000000;stop-opacity:1" id="stop3750" />
            <stop offset="1" style="stop-color:#000000;stop-opacity:0.58823532" id="stop3752" />
        </linearGradient>
        <linearGradient inkscape:collect="always" xlink:href="#linearGradient4050" id="linearGradient3120" gradientUnits="userSpaceOnUse" gradientTransform="matrix(0.36913491,0,0,0.41847006,-0.87525563,30.811562)" x1="22.440199" y1="4.8942533" x2="22.440199" y2="38.21666" />
        <linearGradient inkscape:collect="always" xlink:href="#linearGradient3157-5-2-4" id="linearGradient3075-3" gradientUnits="userSpaceOnUse" x1="-42.696152" x2="-5.8431101" gradientTransform="matrix(0,-0.40863577,-0.40740515,0,-1.8787684,30.214841)" />
        <linearGradient x2="-5.8431101" x1="-42.696152" id="linearGradient3157-5-2-4" gradientUnits="userSpaceOnUse">
            <stop id="stop29-2" stop-color="#ae802b" offset="0" />
            <stop id="stop31-9" stop-color="#e1c18b" offset="1" />
        </linearGradient>
    </defs>
    <sodipodi:namedview id="base" pagecolor="#ffffff" bordercolor="#666666" borderopacity="1.0" inkscape:pageopacity="0.0" inkscape:pageshadow="2" inkscape:zoom="22.627417" inkscape:cx="17.686573" inkscape:cy="7.0817163" inkscape:current-layer="layer1" showgrid="true" inkscape:grid-bbox="true" inkscape:document-units="px" inkscape:window-width="1280" inkscape:window-height="998" inkscape:window-x="0" inkscape:window-y="0" inkscape:window-maximized="1" inkscape:snap-to-guides="false" inkscape:snap-grids="true" inkscape:snap-bbox="true">
        <inkscape:grid type="xygrid" id="grid1021" empspacing="5" visible="true" enabled="true" snapvisiblegridlinesonly="true" />
    </sodipodi:namedview>
    <metadata id="metadata4705">
        <rdf:RDF>
            <cc:Work rdf:about="">
                <dc:format>image/svg+xml</dc:format>
                <dc:type rdf:resource="http://purl.org/dc/dcmitype/StillImage" />
                <dc:title />
            </cc:Work>
        </rdf:RDF>
    </metadata>
    <g id="layer1" inkscape:label="Layer 1" inkscape:groupmode="layer" transform="translate(0,-32)">
        <g id="layer2" style="display:none" transform="translate(5.204491,-179.6879)">
            <rect width="86" height="85" rx="6" ry="6" x="5" y="7" id="rect3745" style="opacity:0.9;fill:url(#ButtonShadow);fill-opacity:1;fill-rule:nonzero;stroke:none;filter:url(#filter3174)" />
        </g>
        <g id="layer4" transform="translate(4.204491,-178.6879)" />
        <rect style="color:#000000;fill:url(#linearGradient3075-3);fill-opacity:1;fill-rule:nonzero;stroke:#66420d;stroke-width:1;stroke-linecap:round;stroke-linejoin:round;stroke-miterlimit:4;stroke-opacity:1;stroke-dasharray:none;stroke-dashoffset:0;marker:none;visibility:visible;display:inline;overflow:visible;enable-background:accumulate" id="rect3874" width="15" height="15" x="0.5" y="32.5" ry="2" />
        <path style="fill:white" inkscape:connector-curvature="0" d="m 7,42 h 6 v 4 H 7 z" id="path49" />
        <path style="fill:#6a6a6a" d="m 8,43 v 2 h 2 V 43 H 8 z" id="path3123" inkscape:connector-curvature="0" />
        <path style="fill:#6a6a6a" d="m 11,43 v 2 h 1 v -2 h -1 z" id="path3119" inkscape:connector-curvature="0" />
        <path style="fill:#66420d;fill-opacity:1" d="m 3,42 0,1 1,0 0,2 -1,0 0,1 3,0 0,-1 -1,0 0,-2 1,0 0,-1 z" id="path53" inkscape:connector-curvature="0" sodipodi:nodetypes="ccccccccccccc" />
        <rect width="13" height="13" ry="1" x="1.5" y="33.5" id="rect4513" style="opacity:0.5;fill:none;stroke:url(#linearGradient3120);stroke-width:0.99999994;stroke-miterlimit:4;stroke-opacity:1;stroke-dasharray:none" />
        <path id="path3132" d="M 8.0625,35 C 4.8689232,35 2.2604575,37.202318 2,40 l 1.9375,0 c 0.2506796,-1.837141 2.0066827,-3.28125 4.125,-3.28125 0.9648505,0 1.8565911,0.31635 2.5625,0.8125 L 12,36.28125 C 10.937794,35.475906 9.5637237,35 8.0625,35 z M 12.5,37 11,38.21875 C 11.490615,38.727733 11.836478,39.326833 11.9375,40 L 9.75,40 C 9.5605578,39.412813 9.0474884,39 8.4375,39 c -0.7695614,0 -1.40625,0.673093 -1.40625,1.5 0,0.826906 0.6366886,1.5 1.40625,1.5 0.6099884,0 1.1230578,-0.412813 1.3125,-1 l 4.25,0 0,-1 c -0.116059,-1.138847 -0.644069,-2.176823 -1.5,-3 z" style="color:black;fill:#66420d;fill-opacity:0.78406537;fill-rule:nonzero;stroke:none;stroke-width:0.40000001000000002;marker:none;visibility:visible;display:inline;overflow:visible;enable-background:accumulate" inkscape:connector-curvature="0" />
        <path style="color:black;fill:white;fill-opacity:1;fill-rule:nonzero;stroke:none;stroke-width:0.40000001;marker:none;visibility:visible;display:inline;overflow:visible;enable-background:accumulate" d="M 8.03125 2 C 4.8376732 2 2.2292075 4.202318 1.96875 7 L 3.90625 7 C 4.1569296 5.162859 5.9129327 3.71875 8.03125 3.71875 C 8.9961005 3.71875 9.8878411 4.0351 10.59375 4.53125 L 11.96875 3.28125 C 10.906544 2.475906 9.5324737 2 8.03125 2 z M 12.46875 4 L 10.96875 5.21875 C 11.459365 5.727733 11.805228 6.326833 11.90625 7 L 9.71875 7 C 9.5293078 6.4128127 9.0162384 6 8.40625 6 C 7.6366886 6 7 6.673093 7 7.5 C 7 8.326906 7.6366886 9 8.40625 9 C 9.0162384 9 9.5293078 8.5871868 9.71875 8 L 13.96875 8 L 13.96875 7 C 13.852691 5.861153 13.324681 4.823177 12.46875 4 z " transform="translate(0,32)" id="path3874" />
    </g>
</svg>
