<?xml version="1.0" encoding="UTF-8" standalone="no"?>
<svg xmlns:dc="http://purl.org/dc/elements/1.1/" xmlns:cc="http://creativecommons.org/ns#" xmlns:rdf="http://www.w3.org/1999/02/22-rdf-syntax-ns#" xmlns:svg="http://www.w3.org/2000/svg" xmlns="http://www.w3.org/2000/svg" xmlns:xlink="http://www.w3.org/1999/xlink" xmlns:sodipodi="http://sodipodi.sourceforge.net/DTD/sodipodi-0.dtd" xmlns:inkscape="http://www.inkscape.org/namespaces/inkscape" viewBox="0 0 16 16" id="svg2" version="1.1" inkscape:version="0.48.4 r9939" width="100%" height="100%" sodipodi:docname="text-x-java.svg">
    <metadata id="metadata32">
        <rdf:RDF>
            <cc:Work rdf:about="">
                <dc:format>image/svg+xml</dc:format>
                <dc:type rdf:resource="http://purl.org/dc/dcmitype/StillImage" />
                <dc:title />
            </cc:Work>
        </rdf:RDF>
    </metadata>
    <sodipodi:namedview pagecolor="#ffffff" bordercolor="#666666" borderopacity="1" objecttolerance="10" gridtolerance="10" guidetolerance="10" inkscape:pageopacity="0" inkscape:pageshadow="2" inkscape:window-width="772" inkscape:window-height="655" id="namedview30" showgrid="true" inkscape:zoom="19.056947" inkscape:cx="6.6614066" inkscape:cy="7.3227638" inkscape:window-x="286" inkscape:window-y="294" inkscape:window-maximized="0" inkscape:current-layer="svg2" inkscape:snap-bbox="true">
        <inkscape:grid type="xygrid" id="grid3009" />
    </sodipodi:namedview>
    <defs id="defs4">
        <linearGradient gradientUnits="userSpaceOnUse" id="linearGradient3258-1" x2="0" y1="33.36102" y2="47.17878">
            <stop offset="0" stop-color="#d1d1d1" id="stop15" />
            <stop offset="1" stop-color="#fbfbfb" id="stop17" />
        </linearGradient>
        <linearGradient gradientUnits="userSpaceOnUse" id="linearGradient3756" x2="0" y1="32.84374" y2="47.26854">
            <stop offset="0" stop-color="#fff" stop-opacity=".669" id="stop20" />
            <stop offset="1" stop-color="#fff" stop-opacity="0" id="stop22" />
        </linearGradient>
        <linearGradient id="linearGradient4342">
            <stop style="stop-color:#b4b4b4;stop-opacity:1;" offset="0" id="stop4344" />
            <stop id="stop4350" offset="0.5" style="stop-color:#dcdcdc;stop-opacity:1;" />
            <stop style="stop-color:#b4b4b4;stop-opacity:1;" offset="1" id="stop4346" />
        </linearGradient>
        <linearGradient inkscape:collect="always" xlink:href="#linearGradient4342" id="linearGradient3151" gradientUnits="userSpaceOnUse" gradientTransform="matrix(0.36842106,0,0,0.47058821,-1.4736833,-3.7352933)" x1="14" y1="28" x2="32" y2="28" />
    </defs>
    <g transform="translate(0,-32)" id="g24">
        <path d="m3.5,32.5h9a2,2 0 0,1 2,2v11a2,2 0 0,1 -2,2h-9a2,2 0 0,1 -2-2v-11a2,2 0 0,1 2-2" id="path26" stroke-linejoin="round" stroke-linecap="round" stroke="#818181" fill="url(#linearGradient3258-1)" />
        <path d="m3.5,33.5h9a1,1 0 0,1 1,1v11a1,1 0 0,1 -1,1h-9a1,1 0 0,1 -1-1v-11a1,1 0 0,1 1-1" id="path28" stroke="url(#linearGradient3756)" fill="none" />
    </g>
    <path style="color:black;fill:none;stroke:#464646;stroke-width:1.00000012;stroke-linecap:round;stroke-linejoin:round;stroke-miterlimit:4;stroke-opacity:1;stroke-dashoffset:0;marker:none;visibility:visible;display:inline;overflow:visible;enable-background:accumulate" d="m 8.4090911,6.4999998 3.1818189,0 c 0.503636,0 0.909091,0.2973329 0.909091,0.6666667 l 0,1.6666655 c 0,0.3693349 -0.405455,0.6666679 -0.909091,0.6666679 l -3.1818189,0 c -0.503637,0 -0.909091,-0.297333 -0.909091,-0.6666679 l 0,-1.6666655 c 0,-0.3693338 0.405454,-0.6666667 0.909091,-0.6666667 z" id="rect4539" inkscape:connector-curvature="0" />
    <rect y="4.5" x="3.5000005" height="7.9999995" width="7" id="rect4333" style="color:black;fill:url(#linearGradient3151);fill-opacity:1;stroke:#464646;stroke-width:1.00000012;stroke-linecap:round;stroke-linejoin:round;stroke-miterlimit:4;stroke-opacity:1;stroke-dasharray:none;stroke-dashoffset:0;marker:none;visibility:visible;display:inline;overflow:visible;enable-background:accumulate" ry="1.5" rx="1.5" />
    <rect style="color:black;fill:black;fill-opacity:1;fill-rule:nonzero;stroke:none;stroke-width:1.00000012;marker:none;visibility:visible;display:inline;overflow:visible;enable-background:accumulate" id="rect4314" width="3.9999995" height="2" x="5.0000005" y="6" />
</svg>
