<?xml version="1.0" encoding="UTF-8" standalone="no"?>
<!-- Created with Inkscape (http://www.inkscape.org/) -->

<svg
   xmlns:dc="http://purl.org/dc/elements/1.1/"
   xmlns:cc="http://creativecommons.org/ns#"
   xmlns:rdf="http://www.w3.org/1999/02/22-rdf-syntax-ns#"
   xmlns:svg="http://www.w3.org/2000/svg"
   xmlns="http://www.w3.org/2000/svg"
   xmlns:xlink="http://www.w3.org/1999/xlink"
   xmlns:sodipodi="http://sodipodi.sourceforge.net/DTD/sodipodi-0.dtd"
   xmlns:inkscape="http://www.inkscape.org/namespaces/inkscape"
   version="1.0"
   width="16"
   height="16"
   id="svg4073"
   inkscape:version="0.48.4 r9939"
   sodipodi:docname="nm-device-wired.svg">
  <metadata
     id="metadata18">
    <rdf:RDF>
      <cc:Work
         rdf:about="">
        <dc:format>image/svg+xml</dc:format>
        <dc:type
           rdf:resource="http://purl.org/dc/dcmitype/StillImage" />
        <dc:title />
      </cc:Work>
    </rdf:RDF>
  </metadata>
  <sodipodi:namedview
     pagecolor="#ffffff"
     bordercolor="#666666"
     borderopacity="1"
     objecttolerance="10"
     gridtolerance="10"
     guidetolerance="10"
     inkscape:pageopacity="0"
     inkscape:pageshadow="2"
     inkscape:window-width="1280"
     inkscape:window-height="971"
     id="namedview16"
     showgrid="true"
     inkscape:zoom="29.377072"
     inkscape:cx="15.074871"
     inkscape:cy="8.7394537"
     inkscape:window-x="0"
     inkscape:window-y="24"
     inkscape:window-maximized="1"
     inkscape:current-layer="svg4073"
     inkscape:snap-bbox="true"
     inkscape:bbox-nodes="false">
    <inkscape:grid
       type="xygrid"
       id="grid2989"
       empspacing="5"
       visible="true"
       enabled="true"
       snapvisiblegridlinesonly="true" />
  </sodipodi:namedview>
  <defs
     id="defs4075">
    <linearGradient
       id="linearGradient3004-8-3">
      <stop
         id="stop3006-3-0"
         offset="0"
         style="stop-color:#000000;stop-opacity:1;" />
      <stop
         id="stop3008-7-3"
         offset="1"
         style="stop-color:#363636;stop-opacity:1;" />
    </linearGradient>
    <linearGradient
       inkscape:collect="always"
       xlink:href="#linearGradient3004-8-3"
       id="linearGradient3015"
       gradientUnits="userSpaceOnUse"
       gradientTransform="matrix(0.84210526,0,0,0.68421053,-8.4213128,1.4736842)"
       x1="17.125309"
       y1="-2.153846"
       x2="17.125309"
       y2="19.76923" />
    <linearGradient
       inkscape:collect="always"
       xlink:href="#linearGradient3004-8-3"
       id="linearGradient3018"
       gradientUnits="userSpaceOnUse"
       gradientTransform="matrix(0.84210526,0,0,0.68421053,-8.4213128,1.4736842)"
       x1="17.125309"
       y1="-2.153846"
       x2="17.125309"
       y2="19.76923" />
    <linearGradient
       inkscape:collect="always"
       xlink:href="#linearGradient3004-8-3-0"
       id="linearGradient3018-8"
       gradientUnits="userSpaceOnUse"
       gradientTransform="matrix(0.84210526,0,0,0.68421053,-8.4213128,1.4736842)"
       x1="17.125309"
       y1="-2.153846"
       x2="17.125309"
       y2="19.76923" />
    <linearGradient
       id="linearGradient3004-8-3-0">
      <stop
         id="stop3006-3-0-1"
         offset="0"
         style="stop-color:#000000;stop-opacity:1;" />
      <stop
         id="stop3008-7-3-5"
         offset="1"
         style="stop-color:#363636;stop-opacity:1;" />
    </linearGradient>
    <linearGradient
       inkscape:collect="always"
       xlink:href="#linearGradient3004-8-3-9"
       id="linearGradient3018-4"
       gradientUnits="userSpaceOnUse"
       gradientTransform="matrix(0.84210526,0,0,0.68421053,-8.4213128,1.4736842)"
       x1="17.125309"
       y1="-2.153846"
       x2="17.125309"
       y2="19.76923" />
    <linearGradient
       id="linearGradient3004-8-3-9">
      <stop
         id="stop3006-3-0-7"
         offset="0"
         style="stop-color:#000000;stop-opacity:1;" />
      <stop
         id="stop3008-7-3-7"
         offset="1"
         style="stop-color:#363636;stop-opacity:1;" />
    </linearGradient>
    <linearGradient
       inkscape:collect="always"
       xlink:href="#linearGradient3004-8-3-9"
       id="linearGradient3108"
       gradientUnits="userSpaceOnUse"
       gradientTransform="matrix(0.84210526,0,0,-0.68421053,-8.4213128,-1.4736842)"
       x1="17.125309"
       y1="-2.153846"
       x2="17.125309"
       y2="19.76923" />
  </defs>
  <path
     id="path3112"
     d="m 8,1 -1,1 0,5 1,1 3,0 0,1 0,2 -1,1 0,0 -1,0 0,-2 -1,-1 -7,0 -1,1 0,5 1,1 7,0 1,-1 0,-1 1,0 1,0 2,-2 0,-3 0,-1 2,0 1,-1 0,-5 -1,-1 z m 1,2 5,0 0,3 -5,0 z m -7,8 5,0 0,3 -5,0 z"
     style="opacity:0.6;color:#000000;fill:#ffffff;fill-opacity:1;fill-rule:nonzero;stroke:none;stroke-width:1;marker:none;visibility:visible;display:inline;overflow:visible;enable-background:accumulate"
     inkscape:connector-curvature="0"
     sodipodi:nodetypes="ccccccccccccccccccccccccccccccccccccccc" />
  <path
     style="opacity:0.7;color:#000000;fill:url(#linearGradient3018);fill-opacity:1;fill-rule:nonzero;stroke:none;stroke-width:1;marker:none;visibility:visible;display:inline;overflow:visible;enable-background:accumulate"
     d="m 8,0 -1,1 0,5 1,1 3,0 0,1 0,2 -1,1 0,0 L 9,11 9,9 8,8 1,8 0,9 l 0,5 1,1 7,0 1,-1 0,-1 1,0 1,0 2,-2 0,-3 0,-1 2,0 1,-1 0,-5 -1,-1 z m 1,2 5,0 0,3 -5,0 z m -7,8 5,0 0,3 -5,0 z"
     id="path3013"
     inkscape:connector-curvature="0"
     sodipodi:nodetypes="ccccccccccccccccccccccccccccccccccccccc" />
</svg>
