<?xml version="1.0" encoding="UTF-8" standalone="no"?>
<!-- Created with Inkscape (http://www.inkscape.org/) -->

<svg
   xmlns:dc="http://purl.org/dc/elements/1.1/"
   xmlns:cc="http://creativecommons.org/ns#"
   xmlns:rdf="http://www.w3.org/1999/02/22-rdf-syntax-ns#"
   xmlns:svg="http://www.w3.org/2000/svg"
   xmlns="http://www.w3.org/2000/svg"
   xmlns:xlink="http://www.w3.org/1999/xlink"
   xmlns:sodipodi="http://sodipodi.sourceforge.net/DTD/sodipodi-0.dtd"
   xmlns:inkscape="http://www.inkscape.org/namespaces/inkscape"
   version="1.0"
   width="16"
   height="16"
   id="svg4073"
   inkscape:version="0.48.4 r9939"
   sodipodi:docname="nm-no-connection.svg">
  <metadata
     id="metadata18">
    <rdf:RDF>
      <cc:Work
         rdf:about="">
        <dc:format>image/svg+xml</dc:format>
        <dc:type
           rdf:resource="http://purl.org/dc/dcmitype/StillImage" />
        <dc:title />
      </cc:Work>
    </rdf:RDF>
  </metadata>
  <sodipodi:namedview
     pagecolor="#ffffff"
     bordercolor="#666666"
     borderopacity="1"
     objecttolerance="10"
     gridtolerance="10"
     guidetolerance="10"
     inkscape:pageopacity="0"
     inkscape:pageshadow="2"
     inkscape:window-width="1280"
     inkscape:window-height="971"
     id="namedview16"
     showgrid="true"
     inkscape:zoom="29.377072"
     inkscape:cx="15.074871"
     inkscape:cy="8.7394537"
     inkscape:window-x="0"
     inkscape:window-y="24"
     inkscape:window-maximized="1"
     inkscape:current-layer="svg4073"
     inkscape:snap-bbox="true"
     inkscape:bbox-nodes="false">
    <inkscape:grid
       type="xygrid"
       id="grid2989"
       empspacing="5"
       visible="true"
       enabled="true"
       snapvisiblegridlinesonly="true" />
  </sodipodi:namedview>
  <defs
     id="defs4075">
    <linearGradient
       id="linearGradient3004-8-3">
      <stop
         id="stop3006-3-0"
         offset="0"
         style="stop-color:#000000;stop-opacity:1;" />
      <stop
         id="stop3008-7-3"
         offset="1"
         style="stop-color:#363636;stop-opacity:1;" />
    </linearGradient>
    <linearGradient
       inkscape:collect="always"
       xlink:href="#linearGradient3004-8-3"
       id="linearGradient3001"
       gradientUnits="userSpaceOnUse"
       gradientTransform="matrix(0.84210526,0,0,0.68421053,-8.4213128,1.4736842)"
       x1="18.959887"
       y1="-0.69230765"
       x2="19.000309"
       y2="21.23077" />
    <linearGradient
       inkscape:collect="always"
       xlink:href="#linearGradient3004-8-3"
       id="linearGradient3006"
       gradientUnits="userSpaceOnUse"
       gradientTransform="matrix(0.84210526,0,0,-0.68421053,-15.421313,13.526316)"
       x1="18.959887"
       y1="-0.69230765"
       x2="19.000309"
       y2="21.23077" />
    <linearGradient
       inkscape:collect="always"
       xlink:href="#linearGradient3004-8-3-1"
       id="linearGradient3006-0"
       gradientUnits="userSpaceOnUse"
       gradientTransform="matrix(0.84210526,0,0,-0.68421053,-15.421313,13.526316)"
       x1="18.959887"
       y1="-0.69230765"
       x2="19.000309"
       y2="21.23077" />
    <linearGradient
       id="linearGradient3004-8-3-1">
      <stop
         id="stop3006-3-0-3"
         offset="0"
         style="stop-color:#000000;stop-opacity:1;" />
      <stop
         id="stop3008-7-3-3"
         offset="1"
         style="stop-color:#363636;stop-opacity:1;" />
    </linearGradient>
    <linearGradient
       inkscape:collect="always"
       xlink:href="#linearGradient3004-8-3"
       id="linearGradient3043"
       gradientUnits="userSpaceOnUse"
       gradientTransform="matrix(0.84210526,0,0,0.68421053,-1.0005596,2.1578952)"
       x1="18.959887"
       y1="-0.69230765"
       x2="19.000309"
       y2="21.23077" />
    <linearGradient
       inkscape:collect="always"
       xlink:href="#linearGradient3004-8-3-1"
       id="linearGradient3047"
       gradientUnits="userSpaceOnUse"
       gradientTransform="matrix(3.1972043,0,0,-4.5467003,-92.109957,41.078173)"
       x1="18.959887"
       y1="-0.69230765"
       x2="19.000309"
       y2="21.23077" />
    <linearGradient
       inkscape:collect="always"
       xlink:href="#linearGradient3004-8-3-1"
       id="linearGradient3051"
       gradientUnits="userSpaceOnUse"
       gradientTransform="matrix(1.5986022,0,0,-3.0311337,-38.054978,30.052115)"
       x1="18.959887"
       y1="-0.69230765"
       x2="19.000309"
       y2="21.23077" />
    <linearGradient
       inkscape:collect="always"
       xlink:href="#linearGradient3004-8-3-1"
       id="linearGradient3055"
       gradientUnits="userSpaceOnUse"
       gradientTransform="matrix(1.5986022,0,0,-3.0311336,-41.054978,33.052114)"
       x1="18.959887"
       y1="-0.69230765"
       x2="19.000309"
       y2="21.23077" />
    <linearGradient
       inkscape:collect="always"
       xlink:href="#linearGradient3004-8-3-1"
       id="linearGradient3059"
       gradientUnits="userSpaceOnUse"
       gradientTransform="matrix(1.5986022,0,0,-3.0311336,-38.054978,33.052114)"
       x1="18.959887"
       y1="-0.69230765"
       x2="19.000309"
       y2="21.23077" />
    <linearGradient
       inkscape:collect="always"
       xlink:href="#linearGradient3004-8-3-1"
       id="linearGradient3063"
       gradientUnits="userSpaceOnUse"
       gradientTransform="matrix(1.5986022,0,0,-3.0311336,-41.054978,30.052114)"
       x1="18.959887"
       y1="-0.69230765"
       x2="19.000309"
       y2="21.23077" />
    <linearGradient
       inkscape:collect="always"
       xlink:href="#linearGradient3004-8-3-1"
       id="linearGradient3067"
       gradientUnits="userSpaceOnUse"
       gradientTransform="matrix(3.1972044,0,0,-1.5155668,-90.109956,20.026057)"
       x1="18.959887"
       y1="-0.69230765"
       x2="19.000309"
       y2="21.23077" />
    <linearGradient
       inkscape:collect="always"
       xlink:href="#linearGradient3004-8-3-1"
       id="linearGradient3071"
       gradientUnits="userSpaceOnUse"
       gradientTransform="matrix(3.1972044,0,0,-1.5155668,-94.109956,20.026057)"
       x1="18.959887"
       y1="-0.69230765"
       x2="19.000309"
       y2="21.23077" />
    <linearGradient
       inkscape:collect="always"
       xlink:href="#linearGradient3004-8-3-1"
       id="linearGradient3075"
       gradientUnits="userSpaceOnUse"
       gradientTransform="matrix(3.1972044,0,0,-1.5155668,-90.109956,24.026057)"
       x1="18.959887"
       y1="-0.69230765"
       x2="19.000309"
       y2="21.23077" />
    <linearGradient
       inkscape:collect="always"
       xlink:href="#linearGradient3004-8-3-1"
       id="linearGradient3079"
       gradientUnits="userSpaceOnUse"
       gradientTransform="matrix(3.1972044,0,0,-1.5155668,-94.109956,24.026057)"
       x1="18.959887"
       y1="-0.69230765"
       x2="19.000309"
       y2="21.23077" />
    <linearGradient
       inkscape:collect="always"
       xlink:href="#linearGradient3004-8-3-1"
       id="linearGradient3082"
       gradientUnits="userSpaceOnUse"
       gradientTransform="matrix(3.1972043,0,0,-4.5467003,-92.109957,40.078173)"
       x1="18.959887"
       y1="-0.69230765"
       x2="19.000309"
       y2="21.23077" />
    <linearGradient
       inkscape:collect="always"
       xlink:href="#linearGradient3004-8-3"
       id="linearGradient3087"
       gradientUnits="userSpaceOnUse"
       gradientTransform="matrix(0.84210526,0,0,0.68421053,-8.4213128,1.4736842)"
       x1="17.125309"
       y1="-2.153846"
       x2="17.125309"
       y2="19.76923" />
  </defs>
  <path
     id="path3089"
     d="m 8,1 -1,1 0,5 1,1 4,0 0,1 1,1 1,-1 0,-1 1,0 1,-1 0,-5 -1,-1 -7,0 z m 1,2 5,0 0,3 -5,0 0,-3 z m -8,6 -1,1 0,5 1,1 7,0 1,-1 0,-1 1,0 1,-1 L 10,12 9,12 9,10 8,9 1,9 z m 10,4 0,1 -1,0 0,1 2,0 0,-1 2,0 0,1 2,0 0,-1 -1,0 0,-1 -1,0 0,-1 1,0 0,-1 1,0 0,-1 -2,0 0,1 -2,0 0,-1 -2,0 0,1 1,0 0,1 1,0 0,1 -1,0 z m -9,-2 5,0 0,3 -5,0 0,-3 z"
     style="opacity:0.59999999999999998;color:#000000;fill:#ffffff;fill-opacity:1;fill-rule:nonzero;stroke:none;stroke-width:1;marker:none;visibility:visible;display:inline;overflow:visible;enable-background:accumulate"
     inkscape:connector-curvature="0" />
  <path
     style="opacity:0.69999999999999996;color:#000000;fill:url(#linearGradient3087);fill-opacity:1;fill-rule:nonzero;stroke:none;stroke-width:1;marker:none;visibility:visible;display:inline;overflow:visible;enable-background:accumulate"
     d="M 8 0 L 7 1 L 7 6 L 8 7 L 12 7 L 12 8 L 13 9 L 14 8 L 14 7 L 15 7 L 16 6 L 16 1 L 15 0 L 8 0 z M 9 2 L 14 2 L 14 5 L 9 5 L 9 2 z M 1 8 L 0 9 L 0 14 L 1 15 L 8 15 L 9 14 L 9 13 L 10 13 L 11 12 L 10 11 L 9 11 L 9 9 L 8 8 L 1 8 z M 11 12 L 11 13 L 10 13 L 10 14 L 12 14 L 12 13 L 14 13 L 14 14 L 16 14 L 16 13 L 15 13 L 15 12 L 14 12 L 14 11 L 15 11 L 15 10 L 16 10 L 16 9 L 14 9 L 14 10 L 12 10 L 12 9 L 10 9 L 10 10 L 11 10 L 11 11 L 12 11 L 12 12 L 11 12 z M 2 10 L 7 10 L 7 13 L 2 13 L 2 10 z "
     id="path2992" />
</svg>
