<?xml version="1.0" encoding="UTF-8" standalone="no"?>
<svg xmlns:dc="http://purl.org/dc/elements/1.1/" xmlns:cc="http://creativecommons.org/ns#" xmlns:rdf="http://www.w3.org/1999/02/22-rdf-syntax-ns#" xmlns:svg="http://www.w3.org/2000/svg" xmlns="http://www.w3.org/2000/svg" xmlns:xlink="http://www.w3.org/1999/xlink" xmlns:sodipodi="http://sodipodi.sourceforge.net/DTD/sodipodi-0.dtd" xmlns:inkscape="http://www.inkscape.org/namespaces/inkscape" viewBox="0 0 16 16" id="svg2" version="1.1" inkscape:version="0.48.4 r9939" width="100%" height="100%" sodipodi:docname="leafpad.svg">
    <metadata id="metadata44">
        <rdf:RDF>
            <cc:Work rdf:about="">
                <dc:format>image/svg+xml</dc:format>
                <dc:type rdf:resource="http://purl.org/dc/dcmitype/StillImage" />
            </cc:Work>
        </rdf:RDF>
    </metadata>
    <sodipodi:namedview pagecolor="#ffffff" bordercolor="#666666" borderopacity="1" objecttolerance="10" gridtolerance="10" guidetolerance="10" inkscape:pageopacity="0" inkscape:pageshadow="2" inkscape:window-width="1280" inkscape:window-height="976" id="namedview42" showgrid="true" inkscape:zoom="20.85965" inkscape:cx="16.724978" inkscape:cy="10.013457" inkscape:window-x="0" inkscape:window-y="24" inkscape:window-maximized="1" inkscape:current-layer="svg2">
        <inkscape:grid type="xygrid" id="grid2996" />
    </sodipodi:namedview>
    <defs id="defs4">
        <linearGradient gradientUnits="userSpaceOnUse" id="linearGradient3258-1" x2="0" y1="33.36102" y2="47.17878">
            <stop offset="0" stop-color="#d1d1d1" id="stop15" />
            <stop offset="1" stop-color="#fbfbfb" id="stop17" />
        </linearGradient>
        <linearGradient gradientUnits="userSpaceOnUse" id="linearGradient3756" x2="0" y1="32.84374" y2="47.26854">
            <stop offset="0" stop-color="#fff" stop-opacity=".669" id="stop20" />
            <stop offset="1" stop-color="#fff" stop-opacity="0" id="stop22" />
        </linearGradient>
        <linearGradient inkscape:collect="always" xlink:href="#linearGradient3756" id="linearGradient3031" gradientUnits="userSpaceOnUse" y1="32.84374" x2="0" y2="47.26854" gradientTransform="translate(0,-32)" />
        <linearGradient inkscape:collect="always" xlink:href="#linearGradient3258-1" id="linearGradient3034" gradientUnits="userSpaceOnUse" y1="33.36102" x2="0" y2="47.17878" gradientTransform="translate(0,-32)" />
        <linearGradient inkscape:collect="always" xlink:href="#linearGradient3916-9-8-6" id="linearGradient3224-5" gradientUnits="userSpaceOnUse" gradientTransform="matrix(0.74910127,0,0,1.1236518,-2.9213578,-8.99961)" x1="4" y1="9.5" x2="10" y2="9.5" />
        <linearGradient id="linearGradient3916-9-8-6">
            <stop id="stop3918-8-0-6" offset="0" style="stop-color:#505050;stop-opacity:1;" />
            <stop style="stop-color:#c7c7c7;stop-opacity:1;" offset="0.5" id="stop3924-8-6-3" />
            <stop id="stop3920-7-8-4" offset="1" style="stop-color:#505050;stop-opacity:1;" />
        </linearGradient>
    </defs>
    <path inkscape:connector-curvature="0" style="fill:url(#linearGradient3034);stroke:#818181;stroke-linecap:round;stroke-linejoin:round" id="path26" d="m 3.5,0.5 h 9 a 2,2 0 0 1 2,2 v 11 a 2,2 0 0 1 -2,2 h -9 a 2,2 0 0 1 -2,-2 v -11 a 2,2 0 0 1 2,-2" />
    <path inkscape:connector-curvature="0" style="fill:none;stroke:url(#linearGradient3031)" id="path28" d="m 3.5,1.5 h 9 a 1,1 0 0 1 1,1 v 11 a 1,1 0 0 1 -1,1 h -9 a 1,1 0 0 1 -1,-1 v -11 a 1,1 0 0 1 1,-1" />
    <path style="fill:#999" d="m 6,4 0,1 6,0 0,-1 z m 0,2 0,1 6,0 0,-1 z m 0,2 0,1 5,0 0,-1 z m 0,2 0,1 3,0 0,-1 z m 0,2 0,1 2,0 0,-1 z" id="path30" inkscape:connector-curvature="0" sodipodi:nodetypes="ccccccccccccccccccccccccc" />
    <path style="color:#000000;fill:#4d4d4d;fill-opacity:1;fill-rule:evenodd;stroke:none;stroke-width:1;marker:none;visibility:visible;display:inline;overflow:visible;enable-background:accumulate" d="m 15.081748,6.500315 c -0.156379,-0.00517 -0.344337,0.05113 -0.488743,0.195644 l -0.423579,0.4565027 -0.162913,0.1304294 -0.260664,0.2934659 -0.03257,0 c -0.0063,0.00618 0.0044,0.024819 0,0.032609 L 13.420019,7.9024302 10.226893,11.065341 9.5426532,11.750095 9.3797386,11.913131 8.9561607,12.956565 8.5,14 l 1.0426532,-0.456503 1.0426528,-0.423896 0.162916,-0.163036 0.684241,-0.684753 3.160542,-3.1955181 0.293246,-0.2934659 0.03257,-0.032609 0.293246,-0.2608585 0.130333,-0.1630368 0.456159,-0.4238952 c 0.288816,-0.2890313 0.247558,-0.665264 0,-0.9130051 L 15.505326,6.695959 C 15.381549,6.5720885 15.238127,6.5054765 15.081748,6.500315 z" id="rect4086" inkscape:connector-curvature="0" />
    <path style="color:black;fill:#4d4d4d;fill-opacity:1;fill-rule:nonzero;stroke:none;stroke-width:1;marker:none;visibility:visible;display:inline;overflow:visible;enable-background:accumulate" d="M 4,3 C 3.4477152,3 3,3.4477152 3,4 3,4.5522848 3.4477152,5 4,5 4.5522848,5 5,4.5522848 5,4 5,3.4477152 4.5522848,3 4,3 z" id="path3486" />
    <path style="color:black;fill:#4d4d4d;fill-opacity:1;fill-rule:nonzero;stroke:none;stroke-width:1;marker:none;visibility:visible;display:inline;overflow:visible;enable-background:accumulate" d="M 4,7 C 3.4477152,7 3,7.4477152 3,8 3,8.5522848 3.4477152,9 4,9 4.5522848,9 5,8.5522848 5,8 5,7.4477152 4.5522848,7 4,7 z" id="path3484" />
    <path style="color:black;fill:#4d4d4d;fill-opacity:1;fill-rule:nonzero;stroke:none;stroke-width:1;marker:none;visibility:visible;display:inline;overflow:visible;enable-background:accumulate" d="m 4,11 c -0.5522848,0 -1,0.447715 -1,1 0,0.552285 0.4477152,1 1,1 0.5522848,0 1,-0.447715 1,-1 0,-0.552285 -0.4477152,-1 -1,-1 z" id="path3914" />
    <path style="color:black;fill:url(#linearGradient3224-5);fill-opacity:1;fill-rule:nonzero;stroke:none;stroke-width:1;marker:none;visibility:visible;display:inline;overflow:visible;enable-background:accumulate" d="M 0 3 L 0 4 L 4 4 L 4 3 L 0 3 z M 0 7 L 0 8 L 4 8 L 4 7 L 0 7 z M 0 11 L 0 12 L 4 12 L 4 11 L 0 11 z " id="path3475" />
</svg>
