<?xml version="1.0" encoding="UTF-8" standalone="no"?>
<!-- Created with Inkscape (http://www.inkscape.org/) -->

<svg xmlns:dc="http://purl.org/dc/elements/1.1/" xmlns:cc="http://creativecommons.org/ns#" xmlns:rdf="http://www.w3.org/1999/02/22-rdf-syntax-ns#" xmlns:svg="http://www.w3.org/2000/svg" xmlns="http://www.w3.org/2000/svg" xmlns:xlink="http://www.w3.org/1999/xlink" xmlns:sodipodi="http://sodipodi.sourceforge.net/DTD/sodipodi-0.dtd" xmlns:inkscape="http://www.inkscape.org/namespaces/inkscape" width="16" height="16" id="svg4700" version="1.1" inkscape:version="0.48.4 r9939" sodipodi:docname="audacious.svg">
    <defs id="defs4702">
        <linearGradient id="linearGradient4050">
            <stop id="stop4052" offset="0" style="stop-color:#ffffff;stop-opacity:0.66929132;" />
            <stop id="stop4054" offset="1" style="stop-color:#ffffff;stop-opacity:0;" />
        </linearGradient>
        <filter id="filter3174" color-interpolation-filters="sRGB">
            <feGaussianBlur stdDeviation="1.71" id="feGaussianBlur3176" />
        </filter>
        <linearGradient gradientTransform="scale(1.0058652,0.994169)" gradientUnits="userSpaceOnUse" id="ButtonShadow" y2="7.0165396" x2="45.447727" y1="92.539597" x1="45.447727">
            <stop offset="0" style="stop-color:#000000;stop-opacity:1" id="stop3750" />
            <stop offset="1" style="stop-color:#000000;stop-opacity:0.58823532" id="stop3752" />
        </linearGradient>
        <linearGradient inkscape:collect="always" xlink:href="#linearGradient4050" id="linearGradient3120" gradientUnits="userSpaceOnUse" gradientTransform="matrix(0.36913489,0,0,0.41847003,-0.87525492,30.811561)" x1="22.440199" y1="4.8942533" x2="22.440199" y2="38.21666" />
        <linearGradient gradientUnits="userSpaceOnUse" id="linearGradient4594" x1="8.2114201" x2="31.74275" y1="-5.7136502" y2="25.48744">
            <stop offset="0" stop-color="#fff" id="stop37-5" />
            <stop offset="1" stop-color="#fff" stop-opacity="0" id="stop39" />
        </linearGradient>
        <clipPath id="clipPath3896" clipPathUnits="userSpaceOnUse">
            <rect style="color:#000000;fill:none;stroke:#34769e;stroke-width:1.03094733;stroke-linecap:butt;stroke-linejoin:miter;stroke-miterlimit:4;stroke-opacity:1;stroke-dasharray:none;stroke-dashoffset:0;marker:none;visibility:visible;display:inline;overflow:visible;enable-background:accumulate" id="rect3898" width="41.000496" height="40.974522" x="3.5" y="2.5254784" ry="3.0000002" rx="3" />
        </clipPath>
        <linearGradient x1="45.447727" y1="92.539597" x2="45.447727" y2="7.0165396" id="ButtonShadow-9" gradientUnits="userSpaceOnUse" gradientTransform="scale(1.0058652,0.994169)">
            <stop id="stop3750-6" style="stop-color:#000000;stop-opacity:1" offset="0" />
            <stop id="stop3752-3" style="stop-color:#000000;stop-opacity:0.58823532" offset="1" />
        </linearGradient>
        <filter color-interpolation-filters="sRGB" id="filter3174-5">
            <feGaussianBlur id="feGaussianBlur3176-2" stdDeviation="1.71" />
        </filter>
        <linearGradient id="linearGradient3882">
            <stop id="stop3884" offset="0" style="stop-color:#ffffff;stop-opacity:1;" />
            <stop id="stop3886" offset="1" style="stop-color:#ffffff;stop-opacity:0.15789473;" />
        </linearGradient>
        <linearGradient inkscape:collect="always" xlink:href="#linearGradient4594" id="linearGradient3147" gradientUnits="userSpaceOnUse" gradientTransform="matrix(0.48530688,0,0,0.48436487,28.739363,23.065596)" x1="8.2114201" y1="-5.7136502" x2="31.74275" y2="25.48744" />
        <radialGradient inkscape:collect="always" xlink:href="#linearGradient3882" id="radialGradient3162" gradientUnits="userSpaceOnUse" cx="29.303301" cy="20.259962" fx="29.303301" fy="20.259962" r="24.34375" gradientTransform="matrix(1.2605735,0,0,1.2605735,-7.6356643,-5.2792097)" />
        <radialGradient inkscape:collect="always" xlink:href="#linearGradient3874-1" id="radialGradient3157-0" gradientUnits="userSpaceOnUse" gradientTransform="matrix(0.39565879,0,0,0.39686012,-2.0040182,31.509255)" cx="28.773218" cy="19.740349" fx="28.773218" fy="19.740349" r="21.015722" />
        <linearGradient id="linearGradient3874-1">
            <stop id="stop3876-7" offset="0" style="stop-color:#4797ff;stop-opacity:1;" />
            <stop id="stop3878-1" offset="1" style="stop-color:#27527d;stop-opacity:1;" />
        </linearGradient>
        <linearGradient inkscape:collect="always" xlink:href="#linearGradient3998-5" id="linearGradient3159-0" gradientUnits="userSpaceOnUse" gradientTransform="matrix(0.34986773,0,0,0.35114701,-0.6864618,32.410937)" x1="17.480215" y1="43.784" x2="17.480215" y2="2.6583908" />
        <linearGradient id="linearGradient3998-5">
            <stop id="stop4000-1" offset="0" style="stop-color:#163243;stop-opacity:1;" />
            <stop id="stop4002-5" offset="1" style="stop-color:#0e71ae;stop-opacity:1;" />
        </linearGradient>
    </defs>
    <sodipodi:namedview id="base" pagecolor="#ffffff" bordercolor="#666666" borderopacity="1.0" inkscape:pageopacity="0.0" inkscape:pageshadow="2" inkscape:zoom="22.627417" inkscape:cx="17.434619" inkscape:cy="9.5311599" inkscape:current-layer="layer1" showgrid="true" inkscape:grid-bbox="true" inkscape:document-units="px" inkscape:window-width="1280" inkscape:window-height="976" inkscape:window-x="0" inkscape:window-y="24" inkscape:window-maximized="1" inkscape:snap-to-guides="false" inkscape:snap-grids="false">
        <inkscape:grid type="xygrid" id="grid1021" empspacing="5" visible="true" enabled="true" snapvisiblegridlinesonly="true" />
    </sodipodi:namedview>
    <metadata id="metadata4705">
        <rdf:RDF>
            <cc:Work rdf:about="">
                <dc:format>image/svg+xml</dc:format>
                <dc:type rdf:resource="http://purl.org/dc/dcmitype/StillImage" />
                <dc:title />
            </cc:Work>
        </rdf:RDF>
    </metadata>
    <g id="layer1" inkscape:label="Layer 1" inkscape:groupmode="layer" transform="translate(0,-32)">
        <g id="layer2" style="display:none" transform="translate(5.204491,-179.6879)">
            <rect width="86" height="85" rx="6" ry="6" x="5" y="7" id="rect3745" style="opacity:0.9;fill:url(#ButtonShadow);fill-opacity:1;fill-rule:nonzero;stroke:none;filter:url(#filter3174)" />
        </g>
        <g id="layer4" transform="translate(5.204491,-179.6879)" />
        <rect style="color:#000000;fill:url(#radialGradient3157-0);fill-opacity:1;fill-rule:nonzero;stroke:url(#linearGradient3159-0);stroke-width:1;stroke-linecap:butt;stroke-linejoin:miter;stroke-miterlimit:4;stroke-opacity:1;stroke-dasharray:none;stroke-dashoffset:0;marker:none;visibility:visible;display:inline;overflow:visible;enable-background:accumulate" id="rect3874" width="14.969052" height="14.969052" x="0.51547366" y="32.515472" ry="2" rx="1.9999999" />
        <g id="layer2-3" style="display:none" transform="matrix(0.49109216,0,0,0.49109216,29.584775,-63.74481)">
            <rect width="86" height="85" rx="12.217667" ry="12.217667" x="5" y="7" id="rect3745-9" style="opacity:0.9;fill:url(#ButtonShadow-9);fill-opacity:1;fill-rule:nonzero;stroke:none;filter:url(#filter3174-5)" />
        </g>
        <g id="layer4-3" transform="matrix(0.49109216,0,0,0.49109216,29.584775,-63.74481)" />
        <path style="font-size:32.94774627999999694px;font-style:normal;font-variant:normal;font-weight:bold;font-stretch:normal;line-height:125%;letter-spacing:0px;word-spacing:0px;color:#000000;fill:url(#radialGradient3162);fill-opacity:1;fill-rule:nonzero;stroke:none;stroke-width:4.83461522999999982;marker:none;visibility:visible;display:inline;overflow:visible;enable-background:accumulate;font-family:Ubuntu;-inkscape-font-specification:Ubuntu Bold" d="M 24,-1.34375 C 10.557644,-1.34375 -0.34375,9.5576437 -0.34375,23 -0.34375,36.442356 10.557644,47.34375 24,47.34375 37.442356,47.34375 48.34375,36.442356 48.34375,23 48.34375,9.5576437 37.442356,-1.34375 24,-1.34375 z m 0,1 C 36.901917,-0.34375 47.34375,10.098083 47.34375,23 47.34375,35.901917 36.901917,46.34375 24,46.34375 11.098083,46.34375 0.65625,35.901917 0.65625,23 0.65625,10.098083 11.098083,-0.34375 24,-0.34375 z M 24,2.1875 C 12.526786,2.1875 3.21875,11.526785 3.21875,23 3.21875,34.473214 12.526786,43.78125 24,43.78125 35.473214,43.78125 44.8125,34.473214 44.8125,23 44.8125,11.526785 35.473214,2.1875 24,2.1875 z m 0,2 C 34.392334,4.1875 42.8125,12.607665 42.8125,23 42.8125,33.392334 34.392334,41.78125 24,41.78125 13.607665,41.78125 5.21875,33.392334 5.21875,23 5.21875,12.607665 13.607665,4.1875 24,4.1875 z m 0,2.28125 C 14.888367,6.46875 7.46875,13.888366 7.46875,23 7.46875,32.111634 14.888367,39.53125 24,39.53125 33.111634,39.53125 40.53125,32.111634 40.53125,23 40.53125,13.888366 33.111634,6.46875 24,6.46875 z m 0,3.96875 c 6.949874,0 12.5625,5.612627 12.5625,12.5625 0,6.949873 -5.612626,12.53125 -12.5625,12.53125 -6.949873,0 -12.53125,-5.581377 -12.53125,-12.53125 0,-6.949873 5.581377,-12.5625 12.53125,-12.5625 z m -0.09375,3.5 c -0.571102,2e-5 -1.116413,0.02787 -1.6875,0.09375 -0.549135,0.04395 -1.088556,0.09966 -1.59375,0.1875 -0.505203,0.06591 -0.966951,0.140191 -1.40625,0.25 -0.417341,0.08788 -0.776955,0.19341 -1.0625,0.28125 l 0.625,3.9375 c 0.593055,-0.219638 1.281035,-0.358911 2.09375,-0.46875 0.812705,-0.131776 1.634067,-0.218737 2.46875,-0.21875 1.252006,1.3e-5 2.151041,0.276064 2.65625,0.78125 0.505188,0.505211 0.749989,1.165336 0.75,2 l 0,0.46875 c -0.307523,-0.08785 -0.713562,-0.17481 -1.21875,-0.21875 -0.483244,-0.06588 -1.05052,-0.09374 -1.6875,-0.09375 -0.94451,1.1e-5 -1.84015,0.114824 -2.71875,0.3125 -0.878612,0.175731 -1.662834,0.457672 -2.34375,0.875 -0.680923,0.417347 -1.238914,0.984623 -1.65625,1.6875 -0.395374,0.702892 -0.593751,1.552109 -0.59375,2.5625 -1e-6,1.054332 0.179806,1.931403 0.53125,2.65625 0.35144,0.724852 0.872293,1.319983 1.53125,1.78125 0.658951,0.439304 1.411924,0.771063 2.3125,0.96875 0.922531,0.197689 1.942269,0.28125 3.0625,0.28125 1.779168,0 3.310473,-0.09285 4.5625,-0.3125 1.252,-0.197687 2.234599,-0.377494 2.9375,-0.53125 l 0,-10.21875 c -1.6e-5,-1.076282 -0.133399,-2.058881 -0.375,-2.9375 -0.241632,-0.878592 -0.656955,-1.60371 -1.25,-2.21875 -0.571108,-0.615008 -1.346046,-1.108005 -2.3125,-1.4375 -0.966478,-0.32946 -2.175309,-0.468732 -3.625,-0.46875 z m 0.1875,10.3125 c 0.219652,-0.01647 0.456862,3e-6 0.6875,0 0.329468,10e-6 0.698367,0.01858 1.09375,0.0625 0.395362,0.04394 0.677303,0.08108 0.875,0.125 l 0,3.71875 c -0.263593,0.04393 -0.623207,0.07179 -1.0625,0.09375 -0.439313,0.02197 -0.891776,0.03125 -1.375,0.03125 -0.90058,4e-6 -1.629094,-0.1207 -2.15625,-0.40625 -0.505206,-0.307508 -0.750006,-0.856214 -0.75,-1.625 -6e-6,-0.395367 0.105523,-0.736412 0.28125,-1 0.175715,-0.263575 0.411231,-0.471237 0.71875,-0.625 0.307505,-0.153749 0.667119,-0.23731 1.0625,-0.28125 0.208664,-0.03295 0.405348,-0.07728 0.625,-0.09375 z" id="path3829" clip-path="url(#clipPath3896)" inkscape:connector-curvature="0" transform="matrix(0.34145928,0,0,0.34167574,-0.19510743,32.137106)" />
        <path style="opacity:0.98999999;fill:url(#linearGradient3147)" inkscape:connector-curvature="0" d="m 37.341825,25.971786 10.044258,0 c 0.625075,0 1.250862,0.497348 1.250862,1.22917 l 0,16.450147 -6.26174,0 z" id="path57-5" sodipodi:nodetypes="cssccc" />
        <rect width="12.999999" height="12.999999" ry="1" x="1.4999999" y="33.499996" id="rect4513" style="opacity:0.5;fill:none;stroke:url(#linearGradient3120);stroke-width:1;stroke-miterlimit:4;stroke-opacity:1;stroke-dasharray:none" rx="1" />
    </g>
</svg>
