<?xml version="1.0" encoding="UTF-8" standalone="no"?>
<svg xmlns:dc="http://purl.org/dc/elements/1.1/" xmlns:cc="http://creativecommons.org/ns#" xmlns:rdf="http://www.w3.org/1999/02/22-rdf-syntax-ns#" xmlns:svg="http://www.w3.org/2000/svg" xmlns="http://www.w3.org/2000/svg" xmlns:xlink="http://www.w3.org/1999/xlink" xmlns:sodipodi="http://sodipodi.sourceforge.net/DTD/sodipodi-0.dtd" xmlns:inkscape="http://www.inkscape.org/namespaces/inkscape" viewBox="0 0 16 16" id="svg2" version="1.1" inkscape:version="0.48.4 r9939" width="100%" height="100%" sodipodi:docname="brightside.svg">
    <metadata id="metadata51">
        <rdf:RDF>
            <cc:Work rdf:about="">
                <dc:format>image/svg+xml</dc:format>
                <dc:type rdf:resource="http://purl.org/dc/dcmitype/StillImage" />
            </cc:Work>
        </rdf:RDF>
    </metadata>
    <sodipodi:namedview pagecolor="#ffffff" bordercolor="#666666" borderopacity="1" objecttolerance="10" gridtolerance="10" guidetolerance="10" inkscape:pageopacity="0" inkscape:pageshadow="2" inkscape:window-width="1280" inkscape:window-height="976" id="namedview49" showgrid="true" inkscape:zoom="17.788155" inkscape:cx="22.020229" inkscape:cy="15.329464" inkscape:window-x="0" inkscape:window-y="24" inkscape:window-maximized="1" inkscape:current-layer="svg2" inkscape:snap-bbox="true">
        <inkscape:grid type="xygrid" id="grid3259" empspacing="5" visible="true" enabled="true" snapvisiblegridlinesonly="true" />
    </sodipodi:namedview>
    <defs id="defs4">
        <linearGradient x1="45.447727" y1="92.539597" x2="45.447727" y2="7.0165396" id="ButtonShadow" gradientUnits="userSpaceOnUse" gradientTransform="scale(1.0058652,0.994169)">
            <stop id="stop3750" style="stop-color:#000000;stop-opacity:1" offset="0" />
            <stop id="stop3752" style="stop-color:#000000;stop-opacity:0.58823532" offset="1" />
        </linearGradient>
        <filter color-interpolation-filters="sRGB" id="filter3174">
            <feGaussianBlur id="feGaussianBlur3176" stdDeviation="1.71" />
        </filter>
        <linearGradient inkscape:collect="always" xlink:href="#linearGradient4050-7-5" id="linearGradient3425-6" gradientUnits="userSpaceOnUse" gradientTransform="matrix(0.33580941,0,0,0.3479084,3.804189,1.5328644)" x1="13.839919" y1="3.2931969" x2="13.839919" y2="23.579182" />
        <linearGradient id="linearGradient4050-7-5">
            <stop id="stop4052-6-5" offset="0" style="stop-color:white;stop-opacity:0.50196081;" />
            <stop id="stop4054-0-9" offset="1" style="stop-color:#ffffff;stop-opacity:0;" />
        </linearGradient>
        <clipPath id="clipPath4235" clipPathUnits="userSpaceOnUse">
            <rect style="color:black;fill:black;fill-opacity:1;fill-rule:nonzero;stroke:none;stroke-width:1;marker:none;visibility:visible;display:inline;overflow:visible;enable-background:accumulate" id="rect4237" width="41" height="41" x="-44.5" y="3.5" ry="3.0022664" rx="3.0022662" transform="scale(-1,1)" />
        </clipPath>
        <filter id="filter3174-9" color-interpolation-filters="sRGB">
            <feGaussianBlur stdDeviation="1.71" id="feGaussianBlur3176-8" />
        </filter>
        <linearGradient gradientTransform="scale(1.0058652,0.994169)" gradientUnits="userSpaceOnUse" id="ButtonShadow-6" y2="7.0165396" x2="45.447727" y1="92.539597" x1="45.447727">
            <stop offset="0" style="stop-color:#000000;stop-opacity:1" id="stop3750-5" />
            <stop offset="1" style="stop-color:#000000;stop-opacity:0.58823532" id="stop3752-1" />
        </linearGradient>
        <filter id="filter3174-2" color-interpolation-filters="sRGB">
            <feGaussianBlur stdDeviation="1.71" id="feGaussianBlur3176-9" />
        </filter>
        <linearGradient gradientTransform="scale(1.0058652,0.994169)" gradientUnits="userSpaceOnUse" id="ButtonShadow-3" y2="7.0165396" x2="45.447727" y1="92.539597" x1="45.447727">
            <stop offset="0" style="stop-color:#000000;stop-opacity:1" id="stop3750-8" />
            <stop offset="1" style="stop-color:#000000;stop-opacity:0.58823532" id="stop3752-3" />
        </linearGradient>
        <linearGradient inkscape:collect="always" xlink:href="#linearGradient3783-0-4-1-7" id="linearGradient4226-4" gradientUnits="userSpaceOnUse" gradientTransform="matrix(0.40114456,0,0,0.40114458,0.465458,-1.6274584)" x1="-9" y1="4" x2="-9" y2="44" />
        <linearGradient id="linearGradient3783-0-4-1-7">
            <stop id="stop3858-7-0-0-8" offset="0" style="stop-color:#8bd2e4;stop-opacity:1;" />
            <stop style="stop-color:#225f9f;stop-opacity:1;" offset="1" id="stop3787-3-7-4-4" />
        </linearGradient>
        <linearGradient inkscape:collect="always" xlink:href="#linearGradient3791-6-4-9-2" id="linearGradient4228-9" gradientUnits="userSpaceOnUse" gradientTransform="matrix(0.40114456,0,0,0.40114458,-18.78948,-1.627458)" x1="10" y1="43" x2="10" y2="3" />
        <linearGradient id="linearGradient3791-6-4-9-2">
            <stop style="stop-color:#083952;stop-opacity:1;" offset="0" id="stop3793-0-4-8-4" />
            <stop style="stop-color:#75aed0;stop-opacity:1;" offset="1" id="stop3795-8-0-0-8" />
        </linearGradient>
        <linearGradient inkscape:collect="always" xlink:href="#linearGradient3791-6-4-9-2" id="linearGradient3053" gradientUnits="userSpaceOnUse" gradientTransform="matrix(0.40114456,0,0,0.40114458,-18.78948,-1.6274584)" x1="10" y1="43" x2="10" y2="3" />
    </defs>
    <rect style="color:black;fill:url(#linearGradient4226-4);fill-opacity:1;fill-rule:nonzero;stroke:url(#linearGradient3053);stroke-width:0.98324025;stroke-linecap:round;stroke-linejoin:round;stroke-miterlimit:4;stroke-opacity:1;stroke-dasharray:none;stroke-dashoffset:0;marker:none;visibility:visible;display:inline;overflow:visible;enable-background:accumulate" id="rect3874" width="15.01676" height="15.01676" x="0.49162102" y="0.4916206" ry="3" rx="3" />
    <g style="font-size:24.41373444px;font-style:normal;font-variant:normal;font-weight:bold;font-stretch:normal;text-align:start;line-height:125%;letter-spacing:0px;word-spacing:0px;writing-mode:lr-tb;text-anchor:start;fill:black;fill-opacity:1;stroke:none;font-family:Century Gothic;-inkscape-font-specification:Century Gothic Bold" id="text3835" transform="translate(-382.29915,-986.63472)" />
    <g id="layer2" style="display:none" transform="translate(5.204491,-211.6879)">
        <rect width="86" height="85" rx="6" ry="6" x="5" y="7" id="rect3745" style="opacity:0.9;fill:url(#ButtonShadow);fill-opacity:1;fill-rule:nonzero;stroke:none;filter:url(#filter3174)" />
    </g>
    <g id="layer4" transform="translate(5.204491,-211.6879)" />
    <rect width="13.055215" height="13.055215" ry="2" x="1.472393" y="1.4723924" id="rect4513-2" style="color:black;fill:none;stroke:url(#linearGradient3425-6);stroke-width:0.9447853;stroke-linecap:butt;stroke-linejoin:miter;stroke-miterlimit:4;stroke-opacity:1;stroke-dasharray:none;stroke-dashoffset:0;marker:none;visibility:visible;display:inline;overflow:visible;enable-background:accumulate" rx="2" />
    <path style="font-size:medium;font-style:normal;font-variant:normal;font-weight:normal;font-stretch:normal;text-indent:0;text-align:start;text-decoration:none;line-height:normal;letter-spacing:normal;word-spacing:normal;text-transform:none;direction:ltr;block-progression:tb;writing-mode:lr-tb;text-anchor:start;baseline-shift:baseline;color:black;fill:white;fill-opacity:1;stroke:none;stroke-width:0.75691414;marker:none;visibility:visible;display:inline;overflow:visible;enable-background:accumulate;font-family:Sans;-inkscape-font-specification:Sans" d="m 5,-37.21875 c -23.398386,0 -42.46875,19.070364 -42.46875,42.46875 0,23.398385 19.070364,42.46875 42.46875,42.46875 23.398386,0 42.46875,-19.070365 42.46875,-42.46875 0,-23.398386 -19.070364,-42.46875 -42.46875,-42.46875 z m 0,0.8125 c 23.048762,0 41.65625,18.607487 41.65625,41.65625 0,23.048762 -18.607488,41.65625 -41.65625,41.65625 -23.048762,0 -41.65625,-18.607488 -41.65625,-41.65625 0,-23.048763 18.607488,-41.65625 41.65625,-41.65625 z m 0,9.53125 c -17.76384,0 -32.125,14.36116 -32.125,32.125 0,17.76384 14.36116,32.125 32.125,32.125 17.76384,0 32.125,-14.36116 32.125,-32.125 0,-17.76384 -14.36116,-32.125 -32.125,-32.125 z m 0,0.90625 c 17.223399,0 31.21875,13.995351 31.21875,31.21875 0,17.2234 -13.995351,31.21875 -31.21875,31.21875 -17.223399,0 -31.21875,-13.99535 -31.21875,-31.21875 0,-17.223399 13.995351,-31.21875 31.21875,-31.21875 z M 5,-19.5 C -8.6877785,-19.5 -19.75,-8.4377785 -19.75,5.25 -19.75,18.937779 -8.6877785,30 5,30 18.687779,30 29.75,18.937779 29.75,5.25 29.75,-8.4377785 18.687779,-19.5 5,-19.5 z m 0,1.40625 c 12.877119,0 23.34375,10.4666315 23.34375,23.34375 0,12.877119 -10.466631,23.34375 -23.34375,23.34375 -12.8771185,0 -23.34375,-10.466631 -23.34375,-23.34375 0,-12.8771185 10.4666315,-23.34375 23.34375,-23.34375 z m 0,5.1875 c -10.0259312,0 -18.15625,8.1303187 -18.15625,18.15625 0,10.025931 8.1303188,18.15625 18.15625,18.15625 10.025932,0 18.15625,-8.130319 18.15625,-18.15625 0,-10.0259313 -8.130318,-18.15625 -18.15625,-18.15625 z m 0,1.96875 c 8.945051,0 16.1875,7.2424491 16.1875,16.1875 0,8.94505 -7.242449,16.1875 -16.1875,16.1875 -8.9450508,0 -16.1875,-7.24245 -16.1875,-16.1875 0,-8.9450509 7.2424492,-16.1875 16.1875,-16.1875 z m 0,3 c -7.2585848,0 -13.1875,5.9289152 -13.1875,13.1875 0,7.258585 5.9289152,13.1875 13.1875,13.1875 7.258585,0 13.1875,-5.928915 13.1875,-13.1875 C 18.1875,-2.0085848 12.258585,-7.9375 5,-7.9375 z m 0,3.03125 c 5.637265,0 10.15625,4.51898558 10.15625,10.15625 0,5.637265 -4.518985,10.15625 -10.15625,10.15625 -5.6372644,0 -10.15625,-4.518985 -10.15625,-10.15625 0,-5.63726442 4.5189856,-10.15625 10.15625,-10.15625 z m 0,2 c -4.4912386,0 -8.15625,3.6650114 -8.15625,8.15625 0,4.4912386 3.6650114,8.15625 8.15625,8.15625 4.4912386,0 8.15625,-3.6650114 8.15625,-8.15625 0,-4.4912386 -3.6650114,-8.15625 -8.15625,-8.15625 z" id="path4140" clip-path="url(#clipPath4235)" inkscape:connector-curvature="0" transform="matrix(0.35492695,0,0,0.35492696,-0.51824665,-0.51824642)" />
    <g id="layer2-8" style="display:none" transform="translate(-6.795509,-161.6879)">
        <rect width="86" height="85" rx="6" ry="6" x="5" y="7" id="rect3745-8" style="opacity:0.9;fill:url(#ButtonShadow-6);fill-opacity:1;fill-rule:nonzero;stroke:none;filter:url(#filter3174-9)" />
    </g>
    <g id="layer4-0" transform="translate(-6.795509,-160.6879)" />
    <g id="layer2-4" style="display:none" transform="translate(-0.795509,-161.6879)">
        <rect width="86" height="85" rx="6" ry="6" x="5" y="7" id="rect3745-0" style="opacity:0.9;fill:url(#ButtonShadow-3);fill-opacity:1;fill-rule:nonzero;stroke:none;filter:url(#filter3174-2)" />
    </g>
    <g id="layer4-9" transform="translate(-0.795509,-160.6879)" />
    <rect rx="3" ry="3" y="0.49162102" x="0.49162012" height="15.01676" width="15.01676" id="rect4285" style="color:black;fill:none;stroke:url(#linearGradient4228-9);stroke-width:0.98324025;stroke-linecap:round;stroke-linejoin:round;stroke-miterlimit:4;stroke-opacity:1;stroke-dasharray:none;stroke-dashoffset:0;marker:none;visibility:visible;display:inline;overflow:visible;enable-background:accumulate" />
    <path sodipodi:nodetypes="cccssccc" id="path3970-3" d="m 2.4711873,2.4711873 6.057626,6.459151 -3.028813,0 1.081719,2.3068397 c 0.501931,1.070403 -0.97416,1.75163 -1.298062,0.922737 l -1.08172,-2.7682077 -1.73075,2.3068397 z" style="fill:white;fill-opacity:1;fill-rule:evenodd;stroke:#3c3c3c;stroke-width:0.94237464999999998;stroke-linecap:butt;stroke-linejoin:round;stroke-miterlimit:4;stroke-opacity:1;stroke-dasharray:none;stroke-dashoffset:0;marker:none;visibility:visible;display:inline;overflow:visible" inkscape:connector-curvature="0" />
    <path inkscape:connector-curvature="0" style="fill:none;stroke:white;stroke-width:0.76060640999999984;stroke-linecap:butt;stroke-linejoin:round;stroke-miterlimit:4;stroke-opacity:1;stroke-dasharray:none;stroke-dashoffset:0;marker:none;visibility:visible;display:inline;overflow:visible" d="m 3.380303,4.453751 3.467155,3.807115 -2.423501,0 L 5.646903,11 c 0.366694,0.821314 0.218766,0.624861 -0.05162,0 L 4.297117,8.381356 3.380308,9.440678 z" sodipodi:nodetypes="cccssccc" id="path3180-7" />
</svg>
