<?xml version="1.0" encoding="UTF-8" standalone="no"?>
<!-- Created with Inkscape (http://www.inkscape.org/) -->

<svg xmlns:dc="http://purl.org/dc/elements/1.1/" xmlns:cc="http://creativecommons.org/ns#" xmlns:rdf="http://www.w3.org/1999/02/22-rdf-syntax-ns#" xmlns:svg="http://www.w3.org/2000/svg" xmlns="http://www.w3.org/2000/svg" xmlns:xlink="http://www.w3.org/1999/xlink" xmlns:sodipodi="http://sodipodi.sourceforge.net/DTD/sodipodi-0.dtd" xmlns:inkscape="http://www.inkscape.org/namespaces/inkscape" width="16" height="16" id="svg3448" version="1.1" inkscape:version="0.48.4 r9939" sodipodi:docname="chromium-browser.svg">
    <defs id="defs3450">
        <radialGradient inkscape:collect="always" xlink:href="#linearGradient3897" id="radialGradient5709" gradientUnits="userSpaceOnUse" cx="19.439171" cy="12.307296" fx="19.439171" fy="12.307296" r="3.7123108" />
        <linearGradient id="linearGradient3897">
            <stop id="stop3899" offset="0" style="stop-color:#ffffff;stop-opacity:1;" />
            <stop id="stop3901" offset="1" style="stop-color:#ffffff;stop-opacity:0;" />
        </linearGradient>
        <linearGradient inkscape:collect="always" xlink:href="#linearGradient4050-5" id="linearGradient3144-3" gradientUnits="userSpaceOnUse" gradientTransform="matrix(0.39389985,0,0,0.44654485,16.198388,1034.462)" x1="22.440199" y1="4.8942533" x2="22.440199" y2="38.21666" />
        <linearGradient id="linearGradient4050-5">
            <stop style="stop-color:#ffffff;stop-opacity:0.66929132;" offset="0" id="stop4052-8" />
            <stop style="stop-color:#ffffff;stop-opacity:0;" offset="1" id="stop4054-2" />
        </linearGradient>
        <linearGradient inkscape:collect="always" xlink:href="#linearGradient4340" id="linearGradient5707" gradientUnits="userSpaceOnUse" x1="22.450642" y1="10.611728" x2="22.450642" y2="28.503645" />
        <linearGradient id="linearGradient4340">
            <stop style="stop-color:#93b7e0;stop-opacity:1" offset="0" id="stop4342" />
            <stop style="stop-color:#3d7abc;stop-opacity:1" offset="1" id="stop4344" />
        </linearGradient>
        <radialGradient inkscape:collect="always" xlink:href="#linearGradient5133" id="radialGradient7201" gradientUnits="userSpaceOnUse" gradientTransform="matrix(0.2670724,0,0,0.2265542,1.429983,1076.1915)" cx="23.839571" cy="-140.10657" fx="23.839571" fy="-140.10657" r="20.265625" />
        <linearGradient id="linearGradient5133">
            <stop style="stop-color:#153046;stop-opacity:1;" offset="0" id="stop5135" />
            <stop style="stop-color:#2e6899;stop-opacity:1;" offset="1" id="stop5137" />
        </linearGradient>
        <linearGradient inkscape:collect="always" xlink:href="#linearGradient5116" id="linearGradient7198" gradientUnits="userSpaceOnUse" gradientTransform="matrix(0.3760735,0,0,0.3755168,37.213419,1035.4426)" x1="23.336372" y1="2.3363733" x2="23.336372" y2="45.005161" />
        <linearGradient id="linearGradient5116">
            <stop style="stop-color:#3376aa;stop-opacity:1;" offset="0" id="stop5118" />
            <stop style="stop-color:#20416a;stop-opacity:1;" offset="1" id="stop5120" />
        </linearGradient>
        <linearGradient inkscape:collect="always" xlink:href="#linearGradient4037-6" id="linearGradient5697" gradientUnits="userSpaceOnUse" gradientTransform="matrix(0.2098802,0,0,0.2098802,18.84332,1045.257)" x1="-74.496864" y1="6.4047446" x2="-74.496864" y2="27.736292" />
        <linearGradient id="linearGradient4037-6">
            <stop id="stop4039-2" offset="0" style="stop-color:#88b6e1;stop-opacity:1;" />
            <stop id="stop4041-8" offset="1" style="stop-color:#408acf;stop-opacity:1;" />
        </linearGradient>
        <linearGradient inkscape:collect="always" xlink:href="#linearGradient4057-2" id="linearGradient5700" gradientUnits="userSpaceOnUse" gradientTransform="matrix(0.2023522,0,0,0.2023522,-1.132699,1045.2031)" x1="36.996616" y1="22.483704" x2="36.996616" y2="36.919563" />
        <linearGradient id="linearGradient4057-2">
            <stop id="stop4059-5" offset="0" style="stop-color:#b7d5f0;stop-opacity:1;" />
            <stop id="stop4061-66" offset="1" style="stop-color:#5f94c4;stop-opacity:1;" />
        </linearGradient>
        <linearGradient id="linearGradient4029-7">
            <stop id="stop4031-4" offset="0" style="stop-color:#3f7ebd;stop-opacity:1;" />
            <stop id="stop4033-2" offset="1" style="stop-color:#2a5073;stop-opacity:1;" />
        </linearGradient>
        <linearGradient y2="42.355721" x2="20.784166" y1="3.6142881" x1="20.784166" gradientTransform="matrix(0.3760913,0,0,0.3760913,-0.70470498,1035.9831)" gradientUnits="userSpaceOnUse" id="linearGradient3446" xlink:href="#linearGradient4029-7" inkscape:collect="always" />
    </defs>
    <sodipodi:namedview id="base" pagecolor="#ffffff" bordercolor="#666666" borderopacity="1.0" inkscape:pageopacity="0.0" inkscape:pageshadow="2" inkscape:zoom="7.9195959" inkscape:cx="21.007054" inkscape:cy="12.575068" inkscape:document-units="px" inkscape:current-layer="capa1" showgrid="false" inkscape:window-width="1280" inkscape:window-height="976" inkscape:window-x="0" inkscape:window-y="24" inkscape:window-maximized="1" />
    <metadata id="metadata3453">
        <rdf:RDF>
            <cc:Work rdf:about="">
                <dc:format>image/svg+xml</dc:format>
                <dc:type rdf:resource="http://purl.org/dc/dcmitype/StillImage" />
                <dc:title />
            </cc:Work>
        </rdf:RDF>
    </metadata>
    <g inkscape:label="Capa 1" inkscape:groupmode="layer" id="capa1" transform="translate(0,-1036.3622)">
        <path style="color:black;fill:url(#linearGradient3446);fill-opacity:1;fill-rule:nonzero;stroke:none;stroke-width:1;marker:none;visibility:visible;display:inline;overflow:visible;enable-background:accumulate" d="m 1.275394,1036.9063 c -0.42586298,0 -0.76870498,0.3434 -0.76870498,0.7699 l 0,3.7821 4.39769198,4.5571 c -0.09676,-0.319 -0.130413,-1.2524 -0.130413,-1.6031 0,-1.9133 1.31716,-3.3289 3.227597,-3.3354 l 7.494878,0 0,-3.4007 c 0,-0.4265 -0.342843,-0.7699 -0.768706,-0.7699 z" id="path5704" inkscape:connector-curvature="0" sodipodi:nodetypes="ssccsscsss" />
        <path style="color:black;fill:url(#linearGradient5700);fill-opacity:1;fill-rule:nonzero;stroke:none;stroke-width:1;marker:none;visibility:visible;display:inline;overflow:visible;enable-background:accumulate" d="m 9.060394,1041.1783 c 1.117396,0.5743 2.1945,1.8897 2.1945,3.234 0,0.8432 -0.330519,1.6126 -0.83047,2.2133 -0.138195,0.1661 -0.05836,0.3195 -0.224842,0.4571 l -0.435713,0.024 -4.864463,4.8115 9.828331,0 c 0.425863,0 0.768706,-0.3433 0.768706,-0.7698 l 0,-9.9702 z" id="path5702" inkscape:connector-curvature="0" sodipodi:nodetypes="csscccsscc" />
        <path style="color:black;fill:url(#linearGradient5697);fill-opacity:1;fill-rule:nonzero;stroke:none;stroke-width:1;marker:none;visibility:visible;display:inline;overflow:visible;enable-background:accumulate" d="m 0.50668902,1041.4688 0,9.6797 c 0,0.4265 0.342842,0.7698 0.76870498,0.7698 l 3.690751,0 4.637862,-4.5468 c -0.311323,0.092 -1.261289,0.3247 -1.602442,0.3247 -1.096098,0 -2.04297,-0.6691 -2.676748,-1.4657 z" id="rect5686" inkscape:connector-curvature="0" sodipodi:nodetypes="cssccscc" />
        <rect style="fill:none;stroke:url(#linearGradient7198);stroke-width:0.99921238;stroke-linecap:butt;stroke-linejoin:miter;stroke-miterlimit:4;stroke-opacity:1;stroke-dasharray:none;stroke-dashoffset:0;marker:none;visibility:visible;display:inline;overflow:visible;enable-background:accumulate" id="rect3874-8" width="15.000788" height="15.000788" x="0.49960619" y="1036.8618" ry="1.9969451" rx="1.9999056" />
        <path inkscape:connector-curvature="0" style="color:black;fill:url(#radialGradient7201);fill-opacity:1;fill-rule:nonzero;stroke:none;stroke-width:4;marker:none;visibility:visible;display:inline;overflow:visible;enable-background:accumulate" d="m 8,1040.3622 c -2.209138,0 -4,1.7909 -4,4 0,0.095 0.02466,0.1874 0.03125,0.2812 l -3.53124998,-3.5937 -0.40625,1 4.59374998,4.5625 0.125,0.1562 c 0.729866,0.9704 1.87983,1.5938 3.1875,1.5938 0.116504,0 0.229774,-0.022 0.34375,-0.031 L 5,1051.5497 l 0.9375,0.3437 4.5,-4.375 c 0.24506,-0.1886 0.460855,-0.3855 0.65625,-0.625 l 0.15625,-0.1562 -0.03125,-0.031 C 11.696846,1046.0472 12,1045.239 12,1044.3625 c 0,-1.1936 -0.51461,-2.2671 -1.34375,-3 l 4.84375,0 0,-1 -7.5,0 z" id="path3993" />
        <path sodipodi:type="arc" style="color:black;fill:url(#linearGradient5707);fill-opacity:1;fill-rule:nonzero;stroke:none;stroke-width:4.0116396;marker:none;visibility:visible;display:inline;overflow:visible;enable-background:accumulate" id="path3063" sodipodi:cx="22.450642" sodipodi:cy="19.185398" sodipodi:rx="8.5736704" sodipodi:ry="8.5736704" d="m 31.024312,19.185398 a 8.5736704,8.5736704 0 1 1 -17.147341,0 8.5736704,8.5736704 0 1 1 17.147341,0 z" transform="matrix(0.34990848,0,0,0.34990848,0.14433002,1037.6491)" />
        <rect width="13" height="13" ry="0.99999994" x="1.500001" y="1037.8622" id="rect4513-2" style="opacity:0.5;color:black;fill:none;stroke:url(#linearGradient3144-3);stroke-width:1;stroke-linecap:butt;stroke-linejoin:miter;stroke-miterlimit:4;stroke-opacity:1;stroke-dasharray:none;stroke-dashoffset:0;marker:none;visibility:visible;display:inline;overflow:visible;enable-background:accumulate" rx="0.99999994" />
        <path sodipodi:type="arc" style="opacity:0.51741297;fill:url(#radialGradient5709);fill-opacity:1;fill-rule:nonzero;stroke:none;stroke-width:4.01164007;marker:none;visibility:visible;display:inline;overflow:visible;enable-background:accumulate" id="path3895" sodipodi:cx="18.384777" sodipodi:cy="15.031145" sodipodi:rx="3.7123108" sodipodi:ry="3.7123108" d="m 22.097088,15.031145 a 3.7123108,3.7123108 0 1 1 -7.424622,0 3.7123108,3.7123108 0 1 1 7.424622,0 z" transform="matrix(0.808122,0,0,0.808122,-6.8571427,1032.2152)" />
    </g>
</svg>
