<?xml version="1.0" encoding="UTF-8" standalone="no"?>
<svg
   xmlns:dc="http://purl.org/dc/elements/1.1/"
   xmlns:cc="http://creativecommons.org/ns#"
   xmlns:rdf="http://www.w3.org/1999/02/22-rdf-syntax-ns#"
   xmlns:svg="http://www.w3.org/2000/svg"
   xmlns="http://www.w3.org/2000/svg"
   xmlns:xlink="http://www.w3.org/1999/xlink"
   xmlns:sodipodi="http://sodipodi.sourceforge.net/DTD/sodipodi-0.dtd"
   xmlns:inkscape="http://www.inkscape.org/namespaces/inkscape"
   viewBox="0 0 16 16"
   id="svg2"
   version="1.1"
   inkscape:version="0.48.4 r9939"
   width="100%"
   height="100%"
   sodipodi:docname="app16.svg">
  <metadata
     id="metadata32">
    <rdf:RDF>
      <cc:Work
         rdf:about="">
        <dc:format>image/svg+xml</dc:format>
        <dc:type
           rdf:resource="http://purl.org/dc/dcmitype/StillImage" />
      </cc:Work>
    </rdf:RDF>
  </metadata>
  <sodipodi:namedview
     pagecolor="#ffffff"
     bordercolor="#666666"
     borderopacity="1"
     objecttolerance="10"
     gridtolerance="10"
     guidetolerance="10"
     inkscape:pageopacity="0"
     inkscape:pageshadow="2"
     inkscape:window-width="1280"
     inkscape:window-height="976"
     id="namedview30"
     showgrid="true"
     inkscape:zoom="20.85965"
     inkscape:cx="21.236447"
     inkscape:cy="6.5754444"
     inkscape:window-x="0"
     inkscape:window-y="24"
     inkscape:window-maximized="1"
     inkscape:current-layer="svg2"
     inkscape:snap-bbox="true">
    <inkscape:grid
       type="xygrid"
       id="grid3009" />
  </sodipodi:namedview>
  <defs
     id="defs4">
    <linearGradient
       inkscape:collect="always"
       xlink:href="#linearGradient3756-2"
       id="linearGradient3008-7"
       gradientUnits="userSpaceOnUse"
       y1="33.5"
       x2="8.4230766"
       y2="47.5"
       gradientTransform="matrix(1.1818182,0,0,1,-1.9545455,-32.5)"
       x1="8.4230766" />
    <linearGradient
       gradientUnits="userSpaceOnUse"
       id="linearGradient3756-2"
       x2="0"
       y1="32.843739"
       y2="47.268539">
      <stop
         offset="0"
         stop-color="#fff"
         stop-opacity=".669"
         id="stop20-9" />
      <stop
         offset="1"
         stop-color="#fff"
         stop-opacity="0"
         id="stop22-7" />
    </linearGradient>
    <linearGradient
       y2="-17.677721"
       x2="112.01686"
       y1="-17.677721"
       x1="64.111649"
       gradientTransform="matrix(0,-0.59478311,0.59478311,0,44.064284,80.225293)"
       gradientUnits="userSpaceOnUse"
       id="linearGradient3370"
       xlink:href="#linearGradient4242"
       inkscape:collect="always" />
    <linearGradient
       y2="39.416653"
       x2="104.49854"
       y1="36.659534"
       x1="104.00895"
       gradientUnits="userSpaceOnUse"
       id="linearGradient3368"
       xlink:href="#linearGradient4287"
       inkscape:collect="always" />
    <radialGradient
       r="1.5"
       fy="38.662945"
       fx="104.5"
       cy="38.662945"
       cx="104.5"
       gradientTransform="matrix(0.65316463,-7.5227128e-8,5.1005971e-8,0.7873116,36.244294,8.2633501)"
       gradientUnits="userSpaceOnUse"
       id="radialGradient3366"
       xlink:href="#linearGradient4275"
       inkscape:collect="always" />
    <linearGradient
       y2="39.416653"
       x2="104.49854"
       y1="36.659534"
       x1="104.00895"
       gradientUnits="userSpaceOnUse"
       id="linearGradient3364"
       xlink:href="#linearGradient4287"
       inkscape:collect="always" />
    <radialGradient
       r="1.5"
       fy="38.662945"
       fx="104.5"
       cy="38.662945"
       cx="104.5"
       gradientTransform="matrix(0.65316463,-7.5227128e-8,5.1005971e-8,0.7873116,36.244294,8.2633501)"
       gradientUnits="userSpaceOnUse"
       id="radialGradient3362"
       xlink:href="#linearGradient4275"
       inkscape:collect="always" />
    <linearGradient
       y2="39.416653"
       x2="104.49854"
       y1="36.659534"
       x1="104.00895"
       gradientUnits="userSpaceOnUse"
       id="linearGradient3360"
       xlink:href="#linearGradient4287"
       inkscape:collect="always" />
    <radialGradient
       r="1.5"
       fy="38.662945"
       fx="104.5"
       cy="38.662945"
       cx="104.5"
       gradientTransform="matrix(0.65316463,-7.5227128e-8,5.1005971e-8,0.7873116,36.244294,8.2633501)"
       gradientUnits="userSpaceOnUse"
       id="radialGradient3358"
       xlink:href="#linearGradient4275"
       inkscape:collect="always" />
    <linearGradient
       id="linearGradient3851-9">
      <stop
         id="stop3853-6"
         style="stop-color:#d27400;stop-opacity:1;"
         offset="0" />
      <stop
         id="stop3855-9"
         style="stop-color:#923c00;stop-opacity:1;"
         offset="1" />
    </linearGradient>
    <linearGradient
       y2="44.858185"
       x2="0.85715157"
       y1="5.7142859"
       x1="0.85715157"
       gradientTransform="matrix(0.55067157,0,0,0.55067157,45.979021,22.233212)"
       gradientUnits="userSpaceOnUse"
       id="linearGradient3317-5"
       xlink:href="#linearGradient3851-9"
       inkscape:collect="always" />
    <radialGradient
       r="19.99999"
       fy="6.5499201"
       fx="23.642216"
       cy="6.5499201"
       cx="23.642216"
       gradientTransform="matrix(0,-0.65476221,0.70178711,1.0655611e-8,10.088151,54.099077)"
       gradientUnits="userSpaceOnUse"
       id="radialGradient3323"
       xlink:href="#linearGradient4019"
       inkscape:collect="always" />
    <linearGradient
       y2="25.48744"
       x2="31.74275"
       y1="-5.7136502"
       x1="8.2114201"
       gradientTransform="matrix(0.51559282,0,0,0.52054796,0.86069382,22.876712)"
       gradientUnits="userSpaceOnUse"
       id="linearGradient3302"
       xlink:href="#linearGradient4594"
       inkscape:collect="always" />
    <linearGradient
       inkscape:collect="always"
       id="linearGradient4287">
      <stop
         style="stop-color:#ffffff;stop-opacity:1;"
         offset="0"
         id="stop4289" />
      <stop
         style="stop-color:#ffffff;stop-opacity:0;"
         offset="1"
         id="stop4291" />
    </linearGradient>
    <linearGradient
       id="linearGradient4275">
      <stop
         id="stop4277"
         offset="0"
         style="stop-color:#ffe024;stop-opacity:1;" />
      <stop
         style="stop-color:#ffac58;stop-opacity:0.73109245;"
         offset="0.5"
         id="stop4281" />
      <stop
         id="stop4279"
         offset="1"
         style="stop-color:#df6500;stop-opacity:0.70588237;" />
    </linearGradient>
    <linearGradient
       id="linearGradient4242">
      <stop
         style="stop-color:#ff8d06;stop-opacity:1;"
         offset="0"
         id="stop4244" />
      <stop
         style="stop-color:#e62e00;stop-opacity:1;"
         offset="1"
         id="stop4246" />
    </linearGradient>
    <linearGradient
       id="linearGradient4019">
      <stop
         offset="0"
         style="stop-color:#fff85c;stop-opacity:1;"
         id="stop4021" />
      <stop
         offset="0.74620908"
         style="stop-color:#f6c600;stop-opacity:1;"
         id="stop4025" />
      <stop
         offset="1"
         style="stop-color:#d96200;stop-opacity:1;"
         id="stop4027" />
    </linearGradient>
    <filter
       id="filter3174-5"
       color-interpolation-filters="sRGB">
      <feGaussianBlur
         stdDeviation="1.71"
         id="feGaussianBlur3176-94" />
    </filter>
    <linearGradient
       gradientTransform="scale(1.0058652,0.994169)"
       gradientUnits="userSpaceOnUse"
       id="ButtonShadow-9"
       y2="7.0165396"
       x2="45.447727"
       y1="92.539597"
       x1="45.447727">
      <stop
         offset="0"
         style="stop-color:#000000;stop-opacity:1"
         id="stop3750-9" />
      <stop
         offset="1"
         style="stop-color:#000000;stop-opacity:0.58823532"
         id="stop3752-6" />
    </linearGradient>
    <filter
       id="filter3174-0"
       color-interpolation-filters="sRGB">
      <feGaussianBlur
         stdDeviation="1.71"
         id="feGaussianBlur3176-9" />
    </filter>
    <linearGradient
       gradientTransform="scale(1.0058652,0.994169)"
       gradientUnits="userSpaceOnUse"
       id="ButtonShadow-3"
       y2="7.0165396"
       x2="45.447727"
       y1="92.539597"
       x1="45.447727">
      <stop
         offset="0"
         style="stop-color:#000000;stop-opacity:1"
         id="stop3750-8" />
      <stop
         offset="1"
         style="stop-color:#000000;stop-opacity:0.58823532"
         id="stop3752-1" />
    </linearGradient>
    <filter
       color-interpolation-filters="sRGB"
       id="filter3174-04">
      <feGaussianBlur
         stdDeviation="1.71"
         id="feGaussianBlur3176-1" />
    </filter>
    <linearGradient
       y2="7.0165"
       x2="45.448"
       gradientTransform="scale(1.0059,0.99417)"
       y1="92.54"
       gradientUnits="userSpaceOnUse"
       x1="45.448"
       id="ButtonShadow-36">
      <stop
         offset="0"
         id="stop3750-7" />
      <stop
         offset="1"
         stop-opacity=".58824"
         id="stop3752-5" />
    </linearGradient>
    <filter
       inkscape:collect="always"
       id="filter4323"
       x="-0.18186533"
       width="1.3637307"
       y="-0.18186533"
       height="1.3637307">
      <feGaussianBlur
         inkscape:collect="always"
         stdDeviation="0.22733167"
         id="feGaussianBlur4325" />
    </filter>
    <linearGradient
       gradientUnits="userSpaceOnUse"
       id="linearGradient4594"
       x1="8.2114201"
       x2="31.74275"
       y1="-5.7136502"
       y2="25.48744">
      <stop
         offset="0"
         stop-color="#fff"
         id="stop37-5" />
      <stop
         offset="1"
         stop-color="#fff"
         stop-opacity="0"
         id="stop39" />
    </linearGradient>
    <linearGradient
       id="linearGradient4050-7">
      <stop
         style="stop-color:#ffffff;stop-opacity:0.66929132;"
         offset="0"
         id="stop4052-6" />
      <stop
         style="stop-color:#ffffff;stop-opacity:0;"
         offset="1"
         id="stop4054-0" />
    </linearGradient>
    <linearGradient
       gradientTransform="matrix(0.99867376,0,0,1.0190983,-0.8405857,0.2353786)"
       gradientUnits="userSpaceOnUse"
       y2="43.488541"
       x2="13.623017"
       y1="25.213705"
       x1="13.623017"
       id="linearGradient4523"
       xlink:href="#linearGradient4050-7"
       inkscape:collect="always" />
    <linearGradient
       x1="45.447727"
       y1="92.539597"
       x2="45.447727"
       y2="7.0165396"
       id="ButtonShadow"
       gradientUnits="userSpaceOnUse"
       gradientTransform="scale(1.0058652,0.994169)">
      <stop
         id="stop3750"
         style="stop-color:#000000;stop-opacity:1"
         offset="0" />
      <stop
         id="stop3752"
         style="stop-color:#000000;stop-opacity:0.58823532"
         offset="1" />
    </linearGradient>
    <filter
       color-interpolation-filters="sRGB"
       id="filter3174">
      <feGaussianBlur
         id="feGaussianBlur3176"
         stdDeviation="1.71" />
    </filter>
    <linearGradient
       inkscape:collect="always"
       xlink:href="#linearGradient4594"
       id="linearGradient3276"
       gradientUnits="userSpaceOnUse"
       gradientTransform="matrix(0.51559282,0,0,0.52054796,18.43933,-4.841538)"
       x1="8.2114201"
       y1="-5.7136502"
       x2="31.74275"
       y2="25.48744" />
    <linearGradient
       inkscape:collect="always"
       xlink:href="#linearGradient4050-7"
       id="linearGradient3292"
       gradientUnits="userSpaceOnUse"
       gradientTransform="matrix(0.99867376,0,0,1.0190983,17.159414,-27.764621)"
       x1="13.623017"
       y1="25.213705"
       x2="13.623017"
       y2="43.488541" />
    <linearGradient
       inkscape:collect="always"
       xlink:href="#linearGradient3851-9"
       id="linearGradient3299"
       gradientUnits="userSpaceOnUse"
       gradientTransform="matrix(0.55067157,0,0,0.55067157,63.557657,-5.485038)"
       x1="0.85715157"
       y1="5.7142859"
       x2="0.85715157"
       y2="44.858185" />
    <radialGradient
       inkscape:collect="always"
       xlink:href="#linearGradient4019"
       id="radialGradient3309"
       gradientUnits="userSpaceOnUse"
       gradientTransform="matrix(0,-0.65476221,0.70178711,1.0655611e-8,27.666787,26.380827)"
       cx="23.642216"
       cy="6.5499201"
       fx="23.642216"
       fy="6.5499201"
       r="19.99999" />
    <radialGradient
       inkscape:collect="always"
       xlink:href="#linearGradient4019-3"
       id="radialGradient3309-3"
       gradientUnits="userSpaceOnUse"
       gradientTransform="matrix(0,-0.55000027,0.58950117,0,24.646011,23.377674)"
       cx="24.32303"
       cy="-24.844751"
       fx="24.32303"
       fy="-24.844751"
       r="19.99999" />
    <linearGradient
       id="linearGradient4019-3">
      <stop
         offset="0"
         style="stop-color:#fff85c;stop-opacity:1;"
         id="stop4021-6" />
      <stop
         offset="0.74620908"
         style="stop-color:#f6c600;stop-opacity:1;"
         id="stop4025-8" />
      <stop
         offset="1"
         style="stop-color:#d96200;stop-opacity:1;"
         id="stop4027-0" />
    </linearGradient>
    <linearGradient
       inkscape:collect="always"
       xlink:href="#linearGradient3851-9-2"
       id="linearGradient3299-6"
       gradientUnits="userSpaceOnUse"
       gradientTransform="matrix(0.55067157,0,0,0.55067157,63.557657,-5.485038)"
       x1="0.85715157"
       y1="5.7142859"
       x2="0.85715157"
       y2="44.858185" />
    <linearGradient
       id="linearGradient3851-9-2">
      <stop
         id="stop3853-6-7"
         style="stop-color:#d27400;stop-opacity:1;"
         offset="0" />
      <stop
         id="stop3855-9-0"
         style="stop-color:#923c00;stop-opacity:1;"
         offset="1" />
    </linearGradient>
    <linearGradient
       inkscape:collect="always"
       xlink:href="#linearGradient4242"
       id="linearGradient3382"
       gradientUnits="userSpaceOnUse"
       gradientTransform="matrix(0,-0.59478311,0.59478311,0,44.064284,80.225293)"
       x1="64.111649"
       y1="-17.677721"
       x2="112.01686"
       y2="-17.677721" />
    <radialGradient
       inkscape:collect="always"
       xlink:href="#linearGradient4275"
       id="radialGradient3384"
       gradientUnits="userSpaceOnUse"
       gradientTransform="matrix(0.65316463,-7.5227128e-8,5.1005971e-8,0.7873116,36.244294,8.2633501)"
       cx="104.5"
       cy="38.662945"
       fx="104.5"
       fy="38.662945"
       r="1.5" />
    <linearGradient
       inkscape:collect="always"
       xlink:href="#linearGradient4287"
       id="linearGradient3386"
       gradientUnits="userSpaceOnUse"
       x1="104.00895"
       y1="36.659534"
       x2="104.49854"
       y2="39.416653" />
    <radialGradient
       inkscape:collect="always"
       xlink:href="#linearGradient4275"
       id="radialGradient3388"
       gradientUnits="userSpaceOnUse"
       gradientTransform="matrix(0.65316463,-7.5227128e-8,5.1005971e-8,0.7873116,36.244294,8.2633501)"
       cx="104.5"
       cy="38.662945"
       fx="104.5"
       fy="38.662945"
       r="1.5" />
    <linearGradient
       inkscape:collect="always"
       xlink:href="#linearGradient4287"
       id="linearGradient3390"
       gradientUnits="userSpaceOnUse"
       x1="104.00895"
       y1="36.659534"
       x2="104.49854"
       y2="39.416653" />
    <radialGradient
       inkscape:collect="always"
       xlink:href="#linearGradient4275"
       id="radialGradient3392"
       gradientUnits="userSpaceOnUse"
       gradientTransform="matrix(0.65316463,-7.5227128e-8,5.1005971e-8,0.7873116,36.244294,8.2633501)"
       cx="104.5"
       cy="38.662945"
       fx="104.5"
       fy="38.662945"
       r="1.5" />
    <linearGradient
       inkscape:collect="always"
       xlink:href="#linearGradient4287"
       id="linearGradient3394"
       gradientUnits="userSpaceOnUse"
       x1="104.00895"
       y1="36.659534"
       x2="104.49854"
       y2="39.416653" />
    <linearGradient
       inkscape:collect="always"
       xlink:href="#linearGradient4242"
       id="linearGradient3402"
       gradientUnits="userSpaceOnUse"
       gradientTransform="matrix(0,-0.59478311,0.59478311,0,44.064284,80.225293)"
       x1="64.111649"
       y1="-17.677721"
       x2="112.01686"
       y2="-17.677721" />
    <linearGradient
       inkscape:collect="always"
       xlink:href="#linearGradient4242"
       id="linearGradient3405"
       gradientUnits="userSpaceOnUse"
       gradientTransform="matrix(0,-0.23533545,0.23693572,0,-5.4712276,27.967256)"
       x1="64.111649"
       y1="-17.677721"
       x2="112.01686"
       y2="-17.677721" />
    <clipPath
       clipPathUnits="userSpaceOnUse"
       id="clipPath3414">
      <rect
         width="14.690018"
         height="14.5908"
         ry="2.5"
         x="-19.203503"
         y="0.81138021"
         id="rect3416"
         style="color:#000000;fill:#000000;fill-opacity:1;fill-rule:nonzero;stroke:none;stroke-width:1;marker:none;visibility:visible;display:inline;overflow:visible;enable-background:accumulate"
         rx="2.5" />
    </clipPath>
    <linearGradient
       inkscape:collect="always"
       xlink:href="#linearGradient4242"
       id="linearGradient3418"
       gradientUnits="userSpaceOnUse"
       gradientTransform="matrix(0,-0.23533545,0.23693572,0,-5.4712276,27.967256)"
       x1="64.111649"
       y1="-17.677721"
       x2="112.01686"
       y2="-17.677721" />
  </defs>
  <rect
     rx="2.0041349"
     ry="2.0041349"
     y="0.49999997"
     x="0.49999997"
     height="14.999999"
     width="14.999999"
     id="rect3329"
     style="color:#000000;fill:url(#radialGradient3309-3);fill-opacity:1;fill-rule:nonzero;stroke:none;stroke-width:1;stroke-linecap:butt;stroke-linejoin:miter;stroke-miterlimit:4;stroke-opacity:1;stroke-dasharray:none;stroke-dashoffset:0;marker:none;visibility:visible;display:inline;overflow:visible;enable-background:accumulate" />
  <g
     id="g3409"
     clip-path="url(#clipPath3414)"
     transform="translate(20.038687,0)">
    <path
       sodipodi:type="arc"
       style="color:#000000;fill:#ff6101;fill-opacity:1;fill-rule:evenodd;stroke:none;stroke-width:2.57727289;marker:none;visibility:visible;display:inline;overflow:visible;enable-background:accumulate"
       id="path4222"
       sodipodi:cx="75"
       sodipodi:cy="-18"
       sodipodi:rx="27"
       sodipodi:ry="27"
       d="M 102,-18 C 102,-3.0883118 89.911688,9 75,9 60.088312,9 48,-3.0883118 48,-18 c 0,-14.911688 12.088312,-27 27,-27 14.911688,0 27,12.088312 27,27 z"
       transform="matrix(0.30932624,0,0,0.30723704,-32.85446,15.825667)" />
    <path
       transform="matrix(0.27203734,0,0,0.27019999,-30.057791,15.159)"
       d="M 102,-18 C 102,-3.0883118 89.911688,9 75,9 60.088312,9 48,-3.0883118 48,-18 c 0,-14.911688 12.088312,-27 27,-27 14.911688,0 27,12.088312 27,27 z"
       sodipodi:ry="27"
       sodipodi:rx="27"
       sodipodi:cy="-18"
       sodipodi:cx="75"
       id="path4220"
       style="color:#000000;fill:#ffffff;fill-opacity:0.74117647;fill-rule:evenodd;stroke:none;stroke-width:1;marker:none;visibility:visible;display:inline;overflow:visible;enable-background:accumulate"
       sodipodi:type="arc" />
    <path
       inkscape:connector-curvature="0"
       id="rect3383"
       d="m -15.84457,10.72158 c 0.01157,0.336146 0.10366,0.801612 0.844084,0.801612 l 5.0793094,-1.176678 -5.0793094,-1.1766767 c -0.846199,0 -0.844084,0.5883387 -0.844084,0.9413417 l 0,0.470671 c 0,0.04074 -0.0017,0.09171 0,0.13973 z m 0.496085,1.904747 c 0.0047,0.218122 0.118467,0.428129 0.207318,0.580984 l 0.236936,0.404483 c 0.164078,0.282272 0.474061,0.81737 1.206891,0.397129 l 3.8057804,-3.544741 -4.9904584,1.507618 c -0.366415,0.210121 -0.471119,0.436404 -0.466467,0.654527 z m 0,-4.478728 c 0.02279,0.1934886 0.153258,0.3971284 0.473871,0.5809845 l 4.9830544,1.5002635 -3.7983754,-3.5373863 c -0.73283,-0.4202416 -1.042814,0.1148567 -1.206892,0.3971288 l -0.236935,0.4044826 c -0.09996,0.171962 -0.244023,0.4057559 -0.214723,0.6545269 z m 1.821443,6.751186 c 0.03472,0.335276 0.343713,0.511119 0.555318,0.632464 l 0.414638,0.235335 c 0.284191,0.16297 0.820812,0.470482 1.243912,-0.257398 l 1.5104655,-4.956753 -3.5614405,3.780076 c -0.132218,0.227462 -0.178674,0.413877 -0.162893,0.566276 z m 0,-9.0015814 c 0.0066,0.1326945 0.05712,0.2887009 0.162893,0.4706708 L -9.8027085,10.14795 -11.313174,5.1911974 c -0.4231,-0.7278802 -0.959721,-0.4203678 -1.243912,-0.2573981 l -0.414638,0.2353354 c -0.230841,0.132376 -0.57511,0.3299858 -0.555318,0.7280689 z m 2.658123,9.7296494 c 0,0.840484 0.592339,0.838383 0.9477424,0.838383 l 0.4738714,0 c 0.3281561,0 0.9477431,0.0021 0.9477431,-0.838383 l -1.1846788,-5.045003 -1.1846781,5.045003 z m 0,-10.5533235 1.1846781,5.0376495 1.1846788,-5.0376495 c 0,-0.8404816 -0.619587,-0.8457365 -0.9477431,-0.8457365 l -0.4738714,0 c -0.3554034,0 -0.9477424,0.00525 -0.9477424,0.8457365 z m 1.3031462,5.4789035 1.5104651,4.956753 c 0.4230996,0.72788 0.9361238,0.4339 1.2439124,0.257398 l 0.4146377,-0.235335 c 0.2841915,-0.16297 0.8229285,-0.47086 0.3998289,-1.19874 l -3.5688441,-3.780076 z m 0,-0.404483 3.5688441,-3.7800756 C -5.5738291,5.6399942 -6.1125661,5.3321043 -6.3967576,5.1691347 L -6.8113953,4.9337993 C -7.1191835,4.7572978 -7.6322081,4.4633172 -8.0553077,5.1911974 L -9.5657728,10.14795 z m 0.088851,0.316232 3.8057802,3.544741 c 0.7328298,0.420241 1.0291895,-0.09142 1.2068915,-0.397129 l 0.2369357,-0.404483 C -4.0632365,12.925039 -3.753633,12.392042 -4.4864628,11.9718 l -4.990459,-1.507618 z m 0,-0.235335 4.9830547,-1.5002635 C -3.7610377,8.3083411 -4.0706412,7.7753442 -4.234719,7.4930721 L -4.4716547,7.0885895 C -4.6493568,6.7828798 -4.9457165,6.2712188 -5.6785463,6.6914607 l -3.7983759,3.5373863 z m 0.029618,0.117667 5.0793096,1.176678 c 0.8461997,0 0.8440836,-0.615402 0.8440836,-0.941342 l 0,-0.470671 c 0,-0.353003 0.00215,-0.9413417 -0.8440836,-0.9413417 l -5.0793104,1.1766767 z"
       style="color:#000000;fill:url(#linearGradient3418);fill-opacity:1;fill-rule:evenodd;stroke:none;stroke-width:1.11111116;marker:none;visibility:visible;display:inline;overflow:visible;enable-background:accumulate" />
  </g>
  <g
     id="layer2"
     style="display:none"
     transform="translate(22.783127,-207.40615)">
    <rect
       width="86"
       height="85"
       rx="6"
       ry="6"
       x="5"
       y="7"
       id="rect3745"
       style="opacity:0.9;fill:url(#ButtonShadow);fill-opacity:1;fill-rule:nonzero;stroke:none;filter:url(#filter3174)" />
  </g>
  <g
     id="layer4"
     transform="translate(21.783127,-206.40615)" />
  <g
     id="g4574"
     transform="matrix(1.6071093,0,0,1.6011113,18.593231,-35.684375)" />
  <g
     id="layer4-2"
     transform="translate(-13.348382,-199.94998)" />
  <g
     id="layer2-06"
     style="display:none"
     transform="translate(46.651618,-200.94998)">
    <rect
       width="86"
       height="85"
       rx="6"
       ry="6"
       x="5"
       y="7"
       id="rect3745-6"
       style="opacity:0.9;fill:url(#ButtonShadow-9);fill-opacity:1;fill-rule:nonzero;stroke:none;filter:url(#filter3174-5)" />
  </g>
  <g
     id="layer2-0"
     style="display:none"
     transform="matrix(1.9515901,0,0,1.9515901,4.182311,-418.19922)">
    <rect
       width="86"
       height="85"
       rx="3.0744162"
       ry="3.0744162"
       x="5"
       y="7"
       id="rect3745-9"
       style="opacity:0.9;fill:url(#ButtonShadow-3);fill-opacity:1;fill-rule:nonzero;stroke:none;filter:url(#filter3174-0)" />
  </g>
  <g
     id="layer4-7"
     transform="matrix(1.9515901,0,0,1.9515901,4.182311,-418.19922)" />
  <g
     style="display:none"
     id="layer2-4"
     transform="matrix(0.11211723,0,0,0.11211723,118.17324,-20.403864)"
     display="none">
    <rect
       id="rect3745-5"
       rx="53.515415"
       ry="53.515415"
       height="85"
       width="86"
       y="7"
       x="5"
       style="opacity:0.9;fill:url(#ButtonShadow-36);filter:url(#filter3174-04)" />
  </g>
  <rect
     style="color:#000000;fill:none;fill-opacity:1;fill-rule:nonzero;stroke:url(#linearGradient3299-6);stroke-width:1;stroke-linecap:round;stroke-linejoin:round;stroke-miterlimit:4;stroke-opacity:1;stroke-dasharray:none;stroke-dashoffset:0;marker:none;visibility:visible;display:inline;overflow:visible;enable-background:accumulate"
     id="rect3067"
     width="14.999999"
     height="14.999999"
     x="0.49999997"
     y="0.49999997"
     ry="2.0041349"
     rx="2.0041349" />
  <rect
     style="color:#000000;fill:none;stroke:url(#linearGradient3008-7);stroke-width:1;stroke-linecap:butt;stroke-linejoin:miter;stroke-miterlimit:4;stroke-opacity:1;stroke-dasharray:none;stroke-dashoffset:0;marker:none;visibility:visible;display:inline;overflow:visible;enable-background:accumulate;opacity:0.5"
     id="rect3032"
     width="13"
     height="13"
     x="1.5"
     y="1.5"
     ry="1" />
  <g
     id="g3966"
     transform="matrix(0.42171777,0,0,0.42171777,-0.37301739,1.665549)">
    <path
       sodipodi:type="arc"
       style="color:#000000;fill:#8d2c00;fill-opacity:1;fill-rule:evenodd;stroke:none;stroke-width:1.11111116;marker:none;visibility:visible;display:inline;overflow:visible;filter:url(#filter4323);enable-background:accumulate"
       id="path4295"
       sodipodi:cx="104.5"
       sodipodi:cy="38.5"
       sodipodi:rx="1.5"
       sodipodi:ry="1.5"
       d="m 106,38.5 c 0,0.828427 -0.67157,1.5 -1.5,1.5 -0.82843,0 -1.5,-0.671573 -1.5,-1.5 0,-0.828427 0.67157,-1.5 1.5,-1.5 0.82843,0 1.5,0.671573 1.5,1.5 z"
       transform="matrix(2.3947634,0,0,2.2314592,-240.03945,-73.083996)" />
    <path
       transform="matrix(2.3947634,0,0,2.2314592,-240.11883,-74.108803)"
       d="m 106,38.5 c 0,0.828427 -0.67157,1.5 -1.5,1.5 -0.82843,0 -1.5,-0.671573 -1.5,-1.5 0,-0.828427 0.67157,-1.5 1.5,-1.5 0.82843,0 1.5,0.671573 1.5,1.5 z"
       sodipodi:ry="1.5"
       sodipodi:rx="1.5"
       sodipodi:cy="38.5"
       sodipodi:cx="104.5"
       id="path4265"
       style="color:#000000;fill:url(#radialGradient3392);fill-opacity:1;fill-rule:evenodd;stroke:none;stroke-width:1.11111116;marker:none;visibility:visible;display:inline;overflow:visible;enable-background:accumulate"
       sodipodi:type="arc" />
    <path
       sodipodi:type="arc"
       style="color:#000000;fill:url(#linearGradient3394);fill-opacity:1;fill-rule:evenodd;stroke:none;stroke-width:1.11111116;marker:none;visibility:visible;display:inline;overflow:visible;enable-background:accumulate"
       id="path4283"
       sodipodi:cx="104.5"
       sodipodi:cy="38.5"
       sodipodi:rx="1.5"
       sodipodi:ry="1.5"
       d="m 106,38.5 c 0,0.828427 -0.67157,1.5 -1.5,1.5 -0.82843,0 -1.5,-0.671573 -1.5,-1.5 0,-0.828427 0.67157,-1.5 1.5,-1.5 0.82843,0 1.5,0.671573 1.5,1.5 z"
       transform="matrix(1.259313,-0.46308357,0.26012694,0.91918043,-132.54233,23.459589)" />
  </g>
  <g
     id="g3987"
     transform="matrix(0.15335191,0,0,0.15335191,1.2298892,1.7829265)">
    <path
       sodipodi:type="arc"
       style="color:#000000;fill:#8d2c00;fill-opacity:1;fill-rule:evenodd;stroke:none;stroke-width:1.11111116;marker:none;visibility:visible;display:inline;overflow:visible;filter:url(#filter4323);enable-background:accumulate"
       id="path3989"
       sodipodi:cx="104.5"
       sodipodi:cy="38.5"
       sodipodi:rx="1.5"
       sodipodi:ry="1.5"
       d="m 106,38.5 c 0,0.828427 -0.67157,1.5 -1.5,1.5 -0.82843,0 -1.5,-0.671573 -1.5,-1.5 0,-0.828427 0.67157,-1.5 1.5,-1.5 0.82843,0 1.5,0.671573 1.5,1.5 z"
       transform="matrix(2.3947634,0,0,2.2314592,-240.03945,-73.083996)" />
    <path
       transform="matrix(2.3947634,0,0,2.2314592,-240.11883,-74.108803)"
       d="m 106,38.5 c 0,0.828427 -0.67157,1.5 -1.5,1.5 -0.82843,0 -1.5,-0.671573 -1.5,-1.5 0,-0.828427 0.67157,-1.5 1.5,-1.5 0.82843,0 1.5,0.671573 1.5,1.5 z"
       sodipodi:ry="1.5"
       sodipodi:rx="1.5"
       sodipodi:cy="38.5"
       sodipodi:cx="104.5"
       id="path3991"
       style="color:#000000;fill:url(#radialGradient3388);fill-opacity:1;fill-rule:evenodd;stroke:none;stroke-width:1.11111116;marker:none;visibility:visible;display:inline;overflow:visible;enable-background:accumulate"
       sodipodi:type="arc" />
    <path
       sodipodi:type="arc"
       style="color:#000000;fill:url(#linearGradient3390);fill-opacity:1;fill-rule:evenodd;stroke:none;stroke-width:1.11111116;marker:none;visibility:visible;display:inline;overflow:visible;enable-background:accumulate"
       id="path3993"
       sodipodi:cx="104.5"
       sodipodi:cy="38.5"
       sodipodi:rx="1.5"
       sodipodi:ry="1.5"
       d="m 106,38.5 c 0,0.828427 -0.67157,1.5 -1.5,1.5 -0.82843,0 -1.5,-0.671573 -1.5,-1.5 0,-0.828427 0.67157,-1.5 1.5,-1.5 0.82843,0 1.5,0.671573 1.5,1.5 z"
       transform="matrix(1.259313,-0.46308357,0.26012694,0.91918043,-132.54233,23.459589)" />
  </g>
  <g
     id="g4193"
     transform="matrix(0.2428291,0,0,0.2428291,3.6568082,-0.00638017)">
    <path
       sodipodi:type="arc"
       style="color:#000000;fill:#8d2c00;fill-opacity:1;fill-rule:evenodd;stroke:none;stroke-width:1.11111116;marker:none;visibility:visible;display:inline;overflow:visible;filter:url(#filter4323);enable-background:accumulate"
       id="path4195"
       sodipodi:cx="104.5"
       sodipodi:cy="38.5"
       sodipodi:rx="1.5"
       sodipodi:ry="1.5"
       d="m 106,38.5 c 0,0.828427 -0.67157,1.5 -1.5,1.5 -0.82843,0 -1.5,-0.671573 -1.5,-1.5 0,-0.828427 0.67157,-1.5 1.5,-1.5 0.82843,0 1.5,0.671573 1.5,1.5 z"
       transform="matrix(2.3947634,0,0,2.2314592,-240.03945,-73.083996)" />
    <path
       transform="matrix(2.3947634,0,0,2.2314592,-240.11883,-74.108803)"
       d="m 106,38.5 c 0,0.828427 -0.67157,1.5 -1.5,1.5 -0.82843,0 -1.5,-0.671573 -1.5,-1.5 0,-0.828427 0.67157,-1.5 1.5,-1.5 0.82843,0 1.5,0.671573 1.5,1.5 z"
       sodipodi:ry="1.5"
       sodipodi:rx="1.5"
       sodipodi:cy="38.5"
       sodipodi:cx="104.5"
       id="path4197"
       style="color:#000000;fill:url(#radialGradient3384);fill-opacity:1;fill-rule:evenodd;stroke:none;stroke-width:1.11111116;marker:none;visibility:visible;display:inline;overflow:visible;enable-background:accumulate"
       sodipodi:type="arc" />
    <path
       sodipodi:type="arc"
       style="color:#000000;fill:url(#linearGradient3386);fill-opacity:1;fill-rule:evenodd;stroke:none;stroke-width:1.11111116;marker:none;visibility:visible;display:inline;overflow:visible;enable-background:accumulate"
       id="path4199"
       sodipodi:cx="104.5"
       sodipodi:cy="38.5"
       sodipodi:rx="1.5"
       sodipodi:ry="1.5"
       d="m 106,38.5 c 0,0.828427 -0.67157,1.5 -1.5,1.5 -0.82843,0 -1.5,-0.671573 -1.5,-1.5 0,-0.828427 0.67157,-1.5 1.5,-1.5 0.82843,0 1.5,0.671573 1.5,1.5 z"
       transform="matrix(1.259313,-0.46308357,0.26012694,0.91918043,-132.54233,23.459589)" />
  </g>
</svg>
