<?xml version="1.0" encoding="UTF-8" standalone="no"?>
<!-- Created with Inkscape (http://www.inkscape.org/) -->

<svg xmlns:dc="http://purl.org/dc/elements/1.1/" xmlns:cc="http://creativecommons.org/ns#" xmlns:rdf="http://www.w3.org/1999/02/22-rdf-syntax-ns#" xmlns:svg="http://www.w3.org/2000/svg" xmlns="http://www.w3.org/2000/svg" xmlns:xlink="http://www.w3.org/1999/xlink" xmlns:sodipodi="http://sodipodi.sourceforge.net/DTD/sodipodi-0.dtd" xmlns:inkscape="http://www.inkscape.org/namespaces/inkscape" width="16" height="16" id="svg3448" version="1.1" inkscape:version="0.48.4 r9939" sodipodi:docname="evince.svg">
    <defs id="defs3450">
        <linearGradient inkscape:collect="always" xlink:href="#linearGradient4050-5" id="linearGradient3144-3" gradientUnits="userSpaceOnUse" gradientTransform="matrix(0.39389985,0,0,0.44654485,16.198388,1034.462)" x1="22.440199" y1="4.8942533" x2="22.440199" y2="38.21666" />
        <linearGradient id="linearGradient4050-5">
            <stop style="stop-color:#ffffff;stop-opacity:0.66929132;" offset="0" id="stop4052-8" />
            <stop style="stop-color:#ffffff;stop-opacity:0;" offset="1" id="stop4054-2" />
        </linearGradient>
        <linearGradient inkscape:collect="always" xlink:href="#linearGradient4132-3-7-9" id="linearGradient3167-5" gradientUnits="userSpaceOnUse" gradientTransform="matrix(0,-0.37378085,-0.37378085,0,-21.33736,1035.096)" x1="-5.3196001" x2="-50.520779" />
        <linearGradient gradientUnits="userSpaceOnUse" id="linearGradient4132-3-7-9" x1="-5.3196001" x2="-50.520779" gradientTransform="matrix(0,-1,-1,0,0,0)">
            <stop offset="0" stop-color="#f65454" id="stop29-7-7-2" />
            <stop offset="1" stop-color="#740000" id="stop31-0-6-8" />
        </linearGradient>
        <linearGradient inkscape:collect="always" xlink:href="#linearGradient3298-8-9-5-6" id="linearGradient3170-8" gradientUnits="userSpaceOnUse" gradientTransform="matrix(0,-0.37378085,-0.37378085,0,-21.33736,1035.096)" x1="-39.333229" x2="-1.64257" />
        <linearGradient gradientUnits="userSpaceOnUse" id="linearGradient3298-8-9-5-6" x1="-39.333229" x2="-1.64257" gradientTransform="matrix(0,-1,-1,0,0,0)">
            <stop offset="0" stop-color="#791235" id="stop24-3-6-7" style="stop-color:#5f0e0e;stop-opacity:1;" />
            <stop offset="1" stop-color="#dd3b27" id="stop26-3-8-8" />
        </linearGradient>
    </defs>
    <sodipodi:namedview id="base" pagecolor="#ffffff" bordercolor="#666666" borderopacity="1.0" inkscape:pageopacity="0.0" inkscape:pageshadow="2" inkscape:zoom="26.937137" inkscape:cx="16.714125" inkscape:cy="8.3692645" inkscape:document-units="px" inkscape:current-layer="capa1" showgrid="true" inkscape:window-width="1280" inkscape:window-height="976" inkscape:window-x="0" inkscape:window-y="24" inkscape:window-maximized="1">
        <inkscape:grid type="xygrid" id="grid4918" empspacing="5" visible="true" enabled="true" snapvisiblegridlinesonly="true" />
    </sodipodi:namedview>
    <metadata id="metadata3453">
        <rdf:RDF>
            <cc:Work rdf:about="">
                <dc:format>image/svg+xml</dc:format>
                <dc:type rdf:resource="http://purl.org/dc/dcmitype/StillImage" />
                <dc:title />
            </cc:Work>
        </rdf:RDF>
    </metadata>
    <g inkscape:label="Capa 1" inkscape:groupmode="layer" id="capa1" transform="translate(0,-1036.3622)">
        <rect style="fill:url(#linearGradient3167-5);stroke:url(#linearGradient3170-8);stroke-width:1;stroke-linecap:round;stroke-linejoin:round;stroke-miterlimit:4;stroke-opacity:1;stroke-dasharray:none;stroke-dashoffset:0;marker:none;visibility:visible;display:inline;overflow:visible;enable-background:accumulate;color:black;fill-opacity:1;fill-rule:nonzero" id="rect3874-8" width="15.000788" height="15.000788" x="0.49960619" y="1036.8618" ry="1.9969451" rx="1.9999056" />
        <rect width="13" height="13" ry="0.99999994" x="1.500001" y="1037.8622" id="rect4513-2" style="opacity:0.5;color:black;fill:none;stroke:url(#linearGradient3144-3);stroke-width:1;stroke-linecap:butt;stroke-linejoin:miter;stroke-miterlimit:4;stroke-opacity:1;stroke-dasharray:none;stroke-dashoffset:0;marker:none;visibility:visible;display:inline;overflow:visible;enable-background:accumulate" rx="0.99999994" />
        <path inkscape:connector-curvature="0" style="fill:#480b0b;fill-opacity:1;stroke:#480b0b;stroke-opacity:1;stroke-width:0.20000000000000001;stroke-miterlimit:4;stroke-dasharray:none;fill-rule:evenodd" d="m 6.8199714,1045.2102 c -0.2203861,0.4245 -0.435804,0.8184 -0.6346802,1.1798 1.1001123,-0.4716 2.2841641,-0.7736 3.4112769,-0.9877 -0.1514777,-0.1071 -0.2985279,-0.2203 -0.4368892,-0.3399 -0.6206765,-0.538 -1.0938755,-1.2086 -1.4368887,-1.9146 -0.2175328,0.5996 -0.4762022,1.237 -0.9028103,2.0624 m -0.4181751,-0.219 c 0.3196399,-0.641 0.6829061,-1.3633 0.9736618,-2.0883 l 0.1149637,-0.2861 c -0.3797807,-1.4785 -0.6075087,-2.6655 -0.4040634,-3.4329 0.054775,-0.2 0.2812729,-0.3216 0.5234287,-0.3216 l 0.1475624,0 h 0.027078 c 0.3315246,-0.01 0.4876311,0.4264 0.505344,0.5942 0.029258,0.279 -0.097083,0.7518 -0.097083,0.7518 0,-0.1908 0.00723,-0.4991 -0.1104816,-0.7656 -0.1371053,-0.308 -0.2680703,-0.492 -0.3854936,-0.5209 -0.059278,0.039 -0.116906,0.1244 -0.1366507,0.2855 -0.040881,0.2262 -0.053138,0.5122 -0.053138,0.6593 0,0.5199 0.1001064,1.2068 0.2968394,1.9143 0.03711,-0.1094 0.06976,-0.2145 0.095741,-0.3135 0.040348,-0.1555 0.2968133,-1.1862 0.2968133,-1.1862 0,0 -0.064617,1.3722 -0.1549074,1.787 -0.019346,0.089 -0.040685,0.1746 -0.062911,0.2635 0.3244111,0.9274 0.8471548,1.7552 1.4707516,2.3506 0.2458744,0.2354 0.556399,0.425 0.850298,0.5974 0.641824,-0.095 1.232762,-0.1381 1.725764,-0.1323 0.654083,0.01 1.134201,0.1077 1.328618,0.3037 0.09521,0.097 0.13382,0.2103 0.145819,0.3392 0.0027,0.05 -0.02103,0.1679 -0.02805,0.1976 0.0072,-0.034 0.0072,-0.2118 -0.518057,-0.3835 -0.413519,-0.1353 -1.187448,-0.1309 -2.116116,-0.029 1.074142,0.538 2.120602,0.805 2.452245,0.6449 0.08107,-0.039 0.179418,-0.1782 0.179418,-0.1782 0,0 -0.05847,0.2718 -0.100436,0.3394 -0.05357,0.075 -0.158651,0.154 -0.258273,0.1807 -0.523745,0.1431 -1.887073,-0.1878 -3.075581,-0.8828 -1.327871,0.2002 -2.7861649,0.5701 -3.9551036,0.9622 -1.1487089,2.0596 -2.0123236,3.0055 -2.7148835,2.6458 l -0.2583028,-0.1331 c -0.1049872,-0.063 -0.1210172,-0.211 -0.096733,-0.3325 0.081912,-0.4099 0.5844285,-1.0276 1.5938323,-1.6444 0.1086527,-0.069 0.5926272,-0.329 0.5926272,-0.329 0,0 -0.3582938,0.3545 -0.4422334,0.4244 -0.8056725,0.6752 -1.4002973,1.5251 -1.3854703,1.8549 l 0.00294,0.028 c 0.6843925,-0.1004 1.7107373,-1.5248 3.0302111,-4.1658" id="path3585" />
        <path id="path47" d="m 6.8199677,1046.2103 c -0.2203863,0.4244 -0.4358042,0.8184 -0.6346802,1.1798 1.1001119,-0.4716 2.2841638,-0.7736 3.4112769,-0.9877 -0.1514778,-0.1072 -0.2985279,-0.2203 -0.4368891,-0.3401 -0.6206766,-0.5379 -1.0938756,-1.2086 -1.436889,-1.9145 -0.2175328,0.5996 -0.476202,1.237 -0.9028103,2.0625 m -0.418175,-0.219 c 0.3196397,-0.6411 0.682906,-1.3633 0.9736617,-2.0883 l 0.1149638,-0.2861 c -0.3797808,-1.4787 -0.6075087,-2.6655 -0.4040634,-3.4329 0.054774,-0.2 0.2812727,-0.3217 0.5234288,-0.3217 l 0.1475622,0 h 0.027078 c 0.3315247,-0.011 0.4876312,0.4265 0.5053441,0.5943 0.029258,0.279 -0.097081,0.7518 -0.097081,0.7518 0,-0.1907 0.00723,-0.4991 -0.1104816,-0.7657 -0.1371052,-0.3079 -0.2680704,-0.4922 -0.3854936,-0.5208 -0.059278,0.039 -0.1169059,0.124 -0.1366508,0.2855 -0.040881,0.2262 -0.053138,0.5121 -0.053138,0.6592 0,0.5201 0.1001064,1.2069 0.2968395,1.9144 0.03711,-0.1095 0.06976,-0.2145 0.095741,-0.3136 0.040348,-0.1556 0.2968134,-1.1861 0.2968134,-1.1861 0,0 -0.064617,1.3721 -0.1549074,1.7869 -0.019346,0.088 -0.040685,0.1747 -0.062911,0.2634 0.3244111,0.9276 0.8471549,1.7554 1.4707518,2.3508 0.2458743,0.2353 0.5563985,0.4249 0.8502985,0.5973 0.641823,-0.094 1.232761,-0.138 1.725765,-0.1322 0.654081,0.011 1.134199,0.1072 1.328617,0.3037 0.09521,0.096 0.133819,0.2103 0.145819,0.3392 0.0027,0.053 -0.02103,0.1678 -0.02805,0.1976 0.0072,-0.033 0.0072,-0.2119 -0.518056,-0.3836 -0.41352,-0.1352 -1.18745,-0.1308 -2.116118,-0.029 1.074142,0.538 2.120603,0.8049 2.452245,0.6448 0.08107,-0.039 0.179419,-0.1781 0.179419,-0.1781 0,0 -0.05847,0.2717 -0.100436,0.3393 -0.05357,0.075 -0.158652,0.154 -0.258274,0.1808 -0.523744,0.143 -1.887072,-0.1882 -3.07558,-0.8828 -1.3278715,0.2001 -2.7861655,0.5695 -3.9551043,0.9622 -1.1487089,2.0595 -2.0123236,3.0055 -2.7148836,2.6457 l -0.2583028,-0.1331 c -0.1049871,-0.063 -0.1210173,-0.211 -0.096733,-0.3325 0.081912,-0.4105 0.5844284,-1.0276 1.5938322,-1.6443 0.1086529,-0.069 0.5926272,-0.329 0.5926272,-0.329 0,0 -0.3582939,0.3545 -0.4422335,0.4243 -0.8056726,0.6753 -1.4002972,1.525 -1.3854701,1.8548 l 0.00294,0.028 c 0.6843923,-0.099 1.7107369,-1.5249 3.030211,-4.1658" style="fill:white;stroke:white;stroke-opacity:1;stroke-width:0.20000000000000001;stroke-miterlimit:4;stroke-dasharray:none;fill-rule:evenodd" inkscape:connector-curvature="0" />
    </g>
</svg>
