<?xml version="1.0" encoding="UTF-8" standalone="no"?>
<!-- Created with Inkscape (http://www.inkscape.org/) -->

<svg xmlns:dc="http://purl.org/dc/elements/1.1/" xmlns:cc="http://creativecommons.org/ns#" xmlns:rdf="http://www.w3.org/1999/02/22-rdf-syntax-ns#" xmlns:svg="http://www.w3.org/2000/svg" xmlns="http://www.w3.org/2000/svg" xmlns:xlink="http://www.w3.org/1999/xlink" xmlns:sodipodi="http://sodipodi.sourceforge.net/DTD/sodipodi-0.dtd" xmlns:inkscape="http://www.inkscape.org/namespaces/inkscape" width="16" height="16" id="svg3448" version="1.1" inkscape:version="0.48.4 r9939" sodipodi:docname="firefox.svg">
    <defs id="defs3450">
        <linearGradient inkscape:collect="always" xlink:href="#linearGradient4050-5" id="linearGradient3144-3" gradientUnits="userSpaceOnUse" gradientTransform="matrix(0.39389985,0,0,0.44654485,16.198388,1034.462)" x1="22.440199" y1="4.8942533" x2="22.440199" y2="38.21666" />
        <linearGradient id="linearGradient4050-5">
            <stop style="stop-color:#ffffff;stop-opacity:0.66929132;" offset="0" id="stop4052-8" />
            <stop style="stop-color:#ffffff;stop-opacity:0;" offset="1" id="stop4054-2" />
        </linearGradient>
        <linearGradient x1="-41.377441" y1="-22.484381" x2="-35.833858" y2="-15.49803" gradientUnits="userSpaceOnUse" gradientTransform="matrix(5.42935,0,0,-13.78607,228.09827,65.174)" spreadMethod="pad" id="linearGradient3321">
            <stop style="stop-opacity:1;stop-color:#f2521e" offset="0" id="stop5927" />
            <stop style="stop-opacity:1;stop-color:#f8ea15" offset="1" id="stop5929" />
        </linearGradient>
        <linearGradient x1="17.630859" y1="-19.693359" x2="18.91025" y2="-27.857929" gradientUnits="userSpaceOnUse" gradientTransform="matrix(5.6841,0,0,-19.22408,267.77887,-55.83174)" spreadMethod="pad" id="linearGradient3313">
            <stop style="stop-opacity:1;stop-color:#f4702a" offset="0" id="stop3315" />
            <stop style="stop-opacity:1;stop-color:#f8ea15" offset="1" id="stop3317" />
        </linearGradient>
        <linearGradient x1="10.87256" y1="-26.120119" x2="10.53322" y2="-32.914871" gradientUnits="userSpaceOnUse" gradientTransform="matrix(19.0999,0,0,-17.12614,121.49928,7.56142)" spreadMethod="pad" id="linearGradient3305">
            <stop style="stop-opacity:1;stop-color:#f4702a" offset="0" id="stop5935" />
            <stop style="stop-opacity:1;stop-color:#f8ea15" offset="1" id="stop5937" />
        </linearGradient>
        <linearGradient x1="-3.2573199" y1="13.54395" x2="6.70999" y2="13.4752" gradientUnits="userSpaceOnUse" gradientTransform="matrix(12.17407,0,0,-3.08809,177.63647,306.96375)" spreadMethod="pad" id="linearGradient3289">
            <stop style="stop-opacity:1;stop-color:#f4702a" offset="0" id="stop3291" />
            <stop style="stop-opacity:1;stop-color:#f8ea15" offset="1" id="stop3293" />
        </linearGradient>
        <linearGradient x1="-77.271973" y1="-9.48242" x2="-72.520279" y2="-3.3313" gradientUnits="userSpaceOnUse" gradientTransform="matrix(2.66957,0,0,-4.93924,263.02097,267.06696)" spreadMethod="pad" id="linearGradient3261">
            <stop style="stop-opacity:1;stop-color:#f25a1c" offset="0" id="stop5955" />
            <stop style="stop-opacity:1;stop-color:#f8ea15" offset="1" id="stop5957" />
        </linearGradient>
        <linearGradient x1="-38.68652" y1="-16.67285" x2="-36.3494" y2="-8.8489504" gradientUnits="userSpaceOnUse" gradientTransform="matrix(4.83058,0,0,-8.82098,239.15665,175.57478)" spreadMethod="pad" id="linearGradient3245">
            <stop style="stop-opacity:1;stop-color:#f25a1c" offset="0" id="stop3247" />
            <stop style="stop-opacity:1;stop-color:#f8ea15" offset="1" id="stop3249" />
        </linearGradient>
        <linearGradient x1="-45.37402" y1="-39.330078" x2="-51.383011" y2="-31.54538" gradientUnits="userSpaceOnUse" gradientTransform="matrix(4.53276,0,0,-5.74251,238.18839,269.1824)" spreadMethod="pad" id="linearGradient3229">
            <stop style="stop-opacity:1;stop-color:#f4702a" offset="0" id="stop3231" />
            <stop style="stop-opacity:1;stop-color:#f8ea15" offset="1" id="stop3233" />
        </linearGradient>
        <linearGradient x1="-30.213381" y1="-31.957029" x2="-37.865452" y2="-24.209431" gradientUnits="userSpaceOnUse" gradientTransform="matrix(5.67361,0,0,-10.04199,228.0296,164.92323)" spreadMethod="pad" id="linearGradient3221">
            <stop style="stop-opacity:1;stop-color:#f4702a" offset="0" id="stop3223" />
            <stop style="stop-opacity:1;stop-color:#f8ea15" offset="1" id="stop3225" />
        </linearGradient>
        <linearGradient x1="-32.92432" y1="-26.855471" x2="-28.662411" y2="-20.27902" gradientUnits="userSpaceOnUse" gradientTransform="matrix(6.61578,0,0,-17.06166,213.87437,-6.31587)" spreadMethod="pad" id="linearGradient3213">
            <stop style="stop-opacity:1;stop-color:#f2521e" offset="0" id="stop3215" />
            <stop style="stop-opacity:1;stop-color:#f8ea15" offset="1" id="stop3217" />
        </linearGradient>
        <linearGradient x1="-34.025879" y1="-36.40723" x2="-33.829472" y2="-41.001949" gradientUnits="userSpaceOnUse" gradientTransform="matrix(5.96114,0,0,-10.38142,222.61082,168.7533)" spreadMethod="pad" id="linearGradient3205">
            <stop style="stop-opacity:1;stop-color:#ee531b" offset="0" id="stop3207" />
            <stop style="stop-opacity:1;stop-color:#f6d4a0" offset="1" id="stop3209" />
        </linearGradient>
        <linearGradient x1="-15.17773" y1="-35.817379" x2="-19.743389" y2="-28.45645" gradientUnits="userSpaceOnUse" gradientTransform="matrix(9.94395,0,0,-7.99263,179.67209,216.81993)" spreadMethod="pad" id="linearGradient3197">
            <stop style="stop-opacity:1;stop-color:#f25a1c" offset="0" id="stop3199" />
            <stop style="stop-opacity:1;stop-color:#f8ea15" offset="1" id="stop3201" />
        </linearGradient>
        <linearGradient x1="-18.536619" y1="-39.275391" x2="-10.22168" y2="-39.275391" gradientUnits="userSpaceOnUse" gradientTransform="matrix(5.93228,0,0,-3.92044,239.12523,311.4967)" spreadMethod="pad" id="linearGradient3169">
            <stop style="stop-opacity:1;stop-color:#efcb98" offset="0" id="stop3171" />
            <stop style="stop-opacity:1;stop-color:#faf9a6" offset="1" id="stop3173" />
        </linearGradient>
        <linearGradient x1="-14.14014" y1="-32.173828" x2="-17.72328" y2="-39.770031" gradientUnits="userSpaceOnUse" gradientTransform="matrix(6.01892,0,0,-6.78339,237.32146,247.01984)" spreadMethod="pad" id="linearGradient3161">
            <stop style="stop-opacity:1;stop-color:#de461f" offset="0" id="stop3163" />
            <stop style="stop-opacity:1;stop-color:#91191e" offset="1" id="stop3165" />
        </linearGradient>
        <linearGradient x1="13.89893" y1="-15.4209" x2="14.48489" y2="-22.71619" gradientUnits="userSpaceOnUse" gradientTransform="matrix(3.17247,0,0,-9.89137,289.81943,157.09485)" spreadMethod="pad" id="linearGradient3145">
            <stop style="stop-opacity:1;stop-color:#f4702a" offset="0" id="stop3147" />
            <stop style="stop-opacity:1;stop-color:#f8ea15" offset="1" id="stop3149" />
        </linearGradient>
        <linearGradient x1="12.64209" y1="-22.338869" x2="4.2685399" y2="-22.37674" gradientUnits="userSpaceOnUse" gradientTransform="matrix(54.7749,0,0,-39.16513,-268.64502,-531.39844)" spreadMethod="pad" id="linearGradient3115">
            <stop style="stop-opacity:1;stop-color:#f4702a" offset="0" id="stop3117" />
            <stop style="stop-opacity:1;stop-color:#b41d23" offset="0.75" id="stop3119" />
            <stop style="stop-opacity:1;stop-color:#b41d23" offset="0.75" id="stop3121" />
            <stop style="stop-opacity:1;stop-color:#b41d23" offset="1" id="stop3123" />
        </linearGradient>
        <linearGradient x1="23.452641" y1="-22.317381" x2="24.26726" y2="-29.336809" gradientUnits="userSpaceOnUse" gradientTransform="matrix(2.3698,0,0,-10.39659,300.96265,155.11229)" spreadMethod="pad" id="linearGradient3107">
            <stop style="stop-opacity:1;stop-color:#f4702a" offset="0" id="stop3109" />
            <stop style="stop-opacity:1;stop-color:#f8ea15" offset="1" id="stop3111" />
        </linearGradient>
        <linearGradient x1="1.09326" y1="-16.45801" x2="-4.8798099" y2="-25.798519" gradientUnits="userSpaceOnUse" gradientTransform="matrix(15.28743,0,0,-16.0154,136.25641,14.19536)" spreadMethod="pad" id="linearGradient3097">
            <stop style="stop-opacity:1;stop-color:#ef571b" offset="0" id="stop3099" />
            <stop style="stop-opacity:1;stop-color:#ab2421" offset="1" id="stop3101" />
        </linearGradient>
        <radialGradient fx="8.37988" fy="-25.759769" cx="8.37988" cy="-25.759769" r="4.2149401" gradientUnits="userSpaceOnUse" gradientTransform="matrix(51.12198,0,0,-50.80341,-230.4174,-797.71722)" spreadMethod="pad" id="radialGradient3079">
            <stop style="stop-opacity:1;stop-color:#51b1e7" offset="0" id="stop3081" />
            <stop style="stop-opacity:1;stop-color:#222c5d" offset="1" id="stop3083" />
        </radialGradient>
        <linearGradient inkscape:collect="always" xlink:href="#linearGradient5630-7-0" id="linearGradient3445-0" gradientUnits="userSpaceOnUse" gradientTransform="matrix(0.37166156,0,0,0.37166156,39.412557,1039.3716)" x1="-42" y1="-7" x2="-42" y2="5.2194262" />
        <linearGradient id="linearGradient5630-7-0">
            <stop style="stop-color:#fba128;stop-opacity:1" offset="0" id="stop5632-7-9" />
            <stop style="stop-color:#b63702;stop-opacity:1" offset="1" id="stop5634-6-1" />
        </linearGradient>
        <linearGradient inkscape:collect="always" xlink:href="#linearGradient3801-25-7-19" id="linearGradient3447-9" gradientUnits="userSpaceOnUse" gradientTransform="matrix(0.37137654,0,0,0.37161196,17.119612,1035.6514)" x1="24.420143" y1="2.3661644" x2="24.420143" y2="43.004219" />
        <linearGradient id="linearGradient3801-25-7-19">
            <stop id="stop3803-1-5" offset="0" style="stop-color:#ef7500;stop-opacity:1;" />
            <stop id="stop3805-3-03" offset="1" style="stop-color:#8e0000;stop-opacity:1;" />
        </linearGradient>
        <clipPath clipPathUnits="userSpaceOnUse" id="clipPath4073">
            <rect rx="1.0732831" ry="1.0732831" y="1057.8027" x="0.13359451" height="14.657131" width="14.657131" id="rect4075" style="fill:black;fill-opacity:1;fill-rule:nonzero;stroke:none;stroke-width:1;marker:none;visibility:visible;display:inline;overflow:visible;enable-background:accumulate" />
        </clipPath>
        <radialGradient inkscape:collect="always" xlink:href="#radialGradient3079" id="radialGradient4077" gradientUnits="userSpaceOnUse" gradientTransform="matrix(2.0228108,0,0,2.0102056,-9.3403952,1114.7643)" spreadMethod="pad" cx="8.37988" cy="-25.759769" fx="8.37988" fy="-25.759769" r="4.2149401" />
        <linearGradient inkscape:collect="always" xlink:href="#linearGradient3097" id="linearGradient4079" gradientUnits="userSpaceOnUse" gradientTransform="matrix(0.6048979,0,0,0.63370245,5.1682712,1082.6383)" spreadMethod="pad" x1="1.09326" y1="-16.45801" x2="-4.8798099" y2="-25.798519" />
        <linearGradient inkscape:collect="always" xlink:href="#linearGradient3107" id="linearGradient4081" gradientUnits="userSpaceOnUse" gradientTransform="matrix(0.093769,0,0,0.41137558,11.68542,1077.0624)" spreadMethod="pad" x1="23.452641" y1="-22.317381" x2="24.26726" y2="-29.336809" />
        <linearGradient inkscape:collect="always" xlink:href="#linearGradient3115" id="linearGradient4083" gradientUnits="userSpaceOnUse" gradientTransform="matrix(2.1673507,0,0,1.5496984,-10.852998,1104.2265)" spreadMethod="pad" x1="12.64209" y1="-22.338869" x2="4.2685399" y2="-22.37674" />
        <linearGradient inkscape:collect="always" xlink:href="#linearGradient3145" id="linearGradient4085" gradientUnits="userSpaceOnUse" gradientTransform="matrix(0.12552932,0,0,0.3913849,11.244502,1076.984)" spreadMethod="pad" x1="13.89893" y1="-15.4209" x2="14.48489" y2="-22.71619" />
        <linearGradient inkscape:collect="always" xlink:href="#linearGradient3145" id="linearGradient4087" gradientUnits="userSpaceOnUse" gradientTransform="matrix(0.12552932,0,0,0.3913849,11.244502,1076.984)" spreadMethod="pad" x1="13.89893" y1="-15.4209" x2="14.48489" y2="-22.71619" />
        <linearGradient inkscape:collect="always" xlink:href="#linearGradient3161" id="linearGradient4089" gradientUnits="userSpaceOnUse" gradientTransform="matrix(0.23815854,0,0,0.26840735,9.1672452,1073.4258)" spreadMethod="pad" x1="-14.14014" y1="-32.173828" x2="-17.72328" y2="-39.770031" />
        <linearGradient inkscape:collect="always" xlink:href="#linearGradient3169" id="linearGradient4091" gradientUnits="userSpaceOnUse" gradientTransform="matrix(0.23473034,0,0,0.15512521,9.2386176,1070.8746)" spreadMethod="pad" x1="-18.536619" y1="-39.275391" x2="-10.22168" y2="-39.275391" />
        <linearGradient inkscape:collect="always" xlink:href="#linearGradient3197" id="linearGradient4093" gradientUnits="userSpaceOnUse" gradientTransform="matrix(0.39346539,0,0,0.31625495,6.8861567,1074.6208)" spreadMethod="pad" x1="-15.17773" y1="-35.817379" x2="-19.743389" y2="-28.45645" />
        <linearGradient inkscape:collect="always" xlink:href="#linearGradient3205" id="linearGradient4095" gradientUnits="userSpaceOnUse" gradientTransform="matrix(0.23587228,0,0,0.41077536,8.5851702,1076.5227)" spreadMethod="pad" x1="-34.025879" y1="-36.40723" x2="-33.829472" y2="-41.001949" />
        <linearGradient inkscape:collect="always" xlink:href="#linearGradient3213" id="linearGradient4097" gradientUnits="userSpaceOnUse" gradientTransform="matrix(0.26177529,0,0,0.6751012,8.2394835,1083.4499)" spreadMethod="pad" x1="-32.92432" y1="-26.855471" x2="-28.662411" y2="-20.27902" />
        <linearGradient inkscape:collect="always" xlink:href="#linearGradient3221" id="linearGradient4099" gradientUnits="userSpaceOnUse" gradientTransform="matrix(0.2244952,0,0,0.39734467,8.7995822,1076.6742)" spreadMethod="pad" x1="-30.213381" y1="-31.957029" x2="-37.865452" y2="-24.209431" />
        <linearGradient inkscape:collect="always" xlink:href="#linearGradient3229" id="linearGradient4101" gradientUnits="userSpaceOnUse" gradientTransform="matrix(0.1793537,0,0,0.22722146,9.2015483,1072.5489)" spreadMethod="pad" x1="-45.37402" y1="-39.330078" x2="-51.383011" y2="-31.54538" />
        <linearGradient inkscape:collect="always" xlink:href="#linearGradient3245" id="linearGradient4103" gradientUnits="userSpaceOnUse" gradientTransform="matrix(0.19113793,0,0,0.34903137,9.2398606,1076.2528)" spreadMethod="pad" x1="-38.68652" y1="-16.67285" x2="-36.3494" y2="-8.8489504" />
        <linearGradient inkscape:collect="always" xlink:href="#linearGradient3261" id="linearGradient4105" gradientUnits="userSpaceOnUse" gradientTransform="matrix(0.1056304,0,0,0.19543743,10.184132,1072.6326)" spreadMethod="pad" x1="-77.271973" y1="-9.48242" x2="-72.520279" y2="-3.3313" />
        <linearGradient inkscape:collect="always" xlink:href="#linearGradient3289" id="linearGradient4107" gradientUnits="userSpaceOnUse" gradientTransform="matrix(0.4817075,0,0,0.12219053,6.8056107,1071.0539)" spreadMethod="pad" x1="-3.2573199" y1="13.54395" x2="6.70999" y2="13.4752" />
        <linearGradient inkscape:collect="always" xlink:href="#linearGradient3305" id="linearGradient4109" gradientUnits="userSpaceOnUse" gradientTransform="matrix(0.75575095,0,0,0.67765258,4.5843565,1082.9008)" spreadMethod="pad" x1="10.87256" y1="-26.120119" x2="10.53322" y2="-32.914871" />
        <linearGradient inkscape:collect="always" xlink:href="#linearGradient3313" id="linearGradient4111" gradientUnits="userSpaceOnUse" gradientTransform="matrix(0.22491028,0,0,0.76066452,10.372394,1085.4092)" spreadMethod="pad" x1="17.630859" y1="-19.693359" x2="18.91025" y2="-27.857929" />
        <linearGradient inkscape:collect="always" xlink:href="#linearGradient3321" id="linearGradient4113" gradientUnits="userSpaceOnUse" gradientTransform="matrix(0.21483025,0,0,0.54549162,8.8022991,1080.6212)" spreadMethod="pad" x1="-41.377441" y1="-22.484381" x2="-35.833858" y2="-15.49803" />
        <linearGradient inkscape:collect="always" xlink:href="#linearGradient3801-25-7-5" id="linearGradient3407-3" gradientUnits="userSpaceOnUse" gradientTransform="matrix(0.37135704,0,0,0.37159245,27.53539,1035.6523)" x1="24.420143" y1="2.3661644" x2="24.420143" y2="43.004219" />
        <linearGradient id="linearGradient3801-25-7-5">
            <stop id="stop3803-1-0" offset="0" style="stop-color:#ef7500;stop-opacity:1;" />
            <stop id="stop3805-3-5" offset="1" style="stop-color:#8e0000;stop-opacity:1;" />
        </linearGradient>
    </defs>
    <sodipodi:namedview id="base" pagecolor="#ffffff" bordercolor="#666666" borderopacity="1.0" inkscape:pageopacity="0.0" inkscape:pageshadow="2" inkscape:zoom="15.839192" inkscape:cx="14.346361" inkscape:cy="8.8501305" inkscape:document-units="px" inkscape:current-layer="capa1" showgrid="true" inkscape:window-width="1280" inkscape:window-height="976" inkscape:window-x="0" inkscape:window-y="24" inkscape:window-maximized="1">
        <inkscape:grid type="xygrid" id="grid4918" empspacing="5" visible="true" enabled="true" snapvisiblegridlinesonly="true" />
    </sodipodi:namedview>
    <metadata id="metadata3453">
        <rdf:RDF>
            <cc:Work rdf:about="">
                <dc:format>image/svg+xml</dc:format>
                <dc:type rdf:resource="http://purl.org/dc/dcmitype/StillImage" />
                <dc:title />
            </cc:Work>
        </rdf:RDF>
    </metadata>
    <g inkscape:label="Capa 1" inkscape:groupmode="layer" id="capa1" transform="translate(0,-1036.3622)">
        <rect style="fill:url(#linearGradient3445-0);stroke:url(#linearGradient3447-9);stroke-width:0.99999994000000003;stroke-linecap:butt;stroke-linejoin:miter;stroke-miterlimit:4;stroke-opacity:1;stroke-dasharray:none;stroke-dashoffset:0;marker:none;visibility:visible;display:inline;overflow:visible;enable-background:accumulate;color:black;fill-opacity:1;fill-rule:nonzero" id="rect3874-8" width="15.000788" height="15.000788" x="0.49960619" y="1036.8618" ry="1.9969451" rx="1.9999056" />
        <g id="g4047" clip-path="url(#clipPath4073)" transform="translate(0.44194174,-20.960665)">
            <path id="path3085" style="fill:url(#radialGradient4077);fill-opacity:1;fill-rule:nonzero;stroke:none" d="m 15.906836,1067.2411 c 0,-4.616 -3.765173,-8.3579 -8.4102188,-8.3579 -4.6447565,0 -8.41021952,3.7419 -8.41021952,8.3579 0,4.6156 3.76546302,8.3577 8.41021952,8.3577 4.6450458,0 8.4102188,-3.7421 8.4102188,-8.3577 l 0,0 z" inkscape:connector-curvature="0" />
            <path inkscape:connector-curvature="0" d="m 15.906836,1067.2411 c 0,-4.616 -3.765173,-8.3579 -8.4102188,-8.3579 -4.6447565,0 -8.41021952,3.7419 -8.41021952,8.3579 0,4.6156 3.76546302,8.3577 8.41021952,8.3577 4.6450458,0 8.4102188,-3.7421 8.4102188,-8.3577 l 0,0 z" style="fill:none;stroke:#ffb511;stroke-width:0.5;stroke-miterlimit:4;stroke-opacity:1;stroke-dasharray:none" id="path4086" />
            <path id="path3095" style="fill:#f4702a;fill-opacity:1;fill-rule:nonzero;stroke:none" d="m 13.764312,1061.3788 -0.598277,-0.191 c 0.857287,0.6239 1.623305,1.6444 1.996654,2.4803 -0.186404,-1.5743 -1.296519,-2.9131 -3.019055,-3.4351 0.882327,0.4329 1.421484,0.8106 1.620678,1.1458 l 0,0 z" inkscape:connector-curvature="0" />
            <path id="path3103" style="fill:url(#linearGradient4079);fill-opacity:1;fill-rule:nonzero;stroke:none" d="m 2.8622937,1066.4471 c -0.6323398,0.2672 -1.0108472,0.9632 -1.0405619,1.7267 0.029715,1.0141 0.529825,1.8226 1.4717754,2.3617 0.7468903,0.4624 1.5667351,0.8274 2.4026356,1.0565 0.4074296,0.1356 0.7990749,0.1311 1.1556146,0.1186 -0.6960003,-0.2333 -1.3268718,-0.6321 -1.8869333,-1.2005 -0.3521733,-0.3775 -0.6419805,-0.8312 -0.8625818,-1.353 -0.2163893,-0.7513 -0.2883579,-1.363 -0.2246005,-1.8384 l 0,0 c 0.016866,-0.4158 0.1900748,-0.6446 0.5210153,-0.6955 -0.2376225,-0.021 -0.402117,-0.035 -0.4869339,-0.04 -0.076335,0 -0.1535978,-0.01 -0.2300873,-0.013 -0.452891,-0.024 -0.3727108,-0.1143 -0.8193422,-0.1203 l 0,0 z" inkscape:connector-curvature="0" />
            <path id="path3105" transform="translate(0,1036.3622)" d="m 10.65625,23.8125 c 0.471033,0.2079 0.761694,0.4942 0.90625,0.8125 -0.4373,-0.081 -0.839499,-0.04225 -1.1875,0.09375 2.495007,0.9843 3.6984,2.1464 3.5625,3.5 -0.182501,-0.2842 -0.440254,-0.4693 -0.75,-0.5625 0.382043,1.4851 0.434746,2.7199 0.125,3.6875 -0.212062,-0.645 -0.419595,-1.0517 -0.59375,-1.1875 0.242278,1.9902 -0.07356,3.4787 -0.96875,4.4375 0.169633,-0.5854 0.226064,-1.0596 0.1875,-1.4375 -1.051961,1.5744 -2.2525618,2.3863 -3.59375,2.4375 -0.5301538,0 -1.0291411,-0.0972 -1.5,-0.25 -0.3565401,0.013 -0.7175893,-0.052 -1.125,-0.1875 C 4.8828306,34.92715 4.0906603,34.5877 3.34375,34.125 2.4018193,33.5862 1.904715,32.8266 1.875,31.8125 1.904715,31.0487 2.2428149,30.5173 2.875,30.25 2.917428,30.233 2.9534182,30.23575 3,30.21875 l 0.6875,0 c 0.07649,0 0.1424146,-0.003 0.21875,0 0.084971,0 0.2623775,0.01025 0.5,0.03125 0.3733872,0.034 0.797678,0.14115 1.28125,0.28125 C 5.768163,30.06875 5.6677073,29.5589 5.375,29.0625 5.29851,28.8928 5.1211039,28.72535 4.875,28.59375 4.5779285,27.83845 4.4976006,27.12755 4.625,26.40625 L 4.65625,26.375 4.625,26.34375 C 4.64202,26.33375 4.643537,26.3205 4.65625,26.3125 4.728373,25.9263 4.8303469,25.5969 5,25.3125 L 5.0625,25.28125 C 5.2323272,25.00115 5.5516969,24.6974 6.03125,24.375 5.1400932,24.4852 4.3419821,24.875 3.625,25.5625 3.0308954,25.3459 2.3105127,25.40895 1.5,25.71875 l -0.09375,0.0625 C 1.2450977,25.84925 1.0902669,25.9194 0.9375,26 c -0.54304077,0.3013 -0.98876455,0.6751 -1.375,1.125 -0.0551215,0.076 -0.13391392,0.1766 -0.21875,0.3125 0.25769549,0.5218 -0.7951199,2.95445 -0.5,4.21875 1.25600455,2.8543 3.147356,3.81495 3.75,3.90625 1.8606966,2.1984 8.441432,2.6637 10.1875,-0.875 l 0.9375,-1 c 0.756358,-0.8727 0.905147,-2.9524 0.96875,-5.125 l 0,-0.03125 c -0.404368,-1.3653 -1.389475,-2.625331 -1.5,-2.84375 0.02636,0.0111 0.120716,0.03759 0.25,0.15625 -0.562651,-1.139 -1.826316,-1.78095 -2.78125,-2.03125 z" style="fill:#ee531b;fill-opacity:1;fill-rule:nonzero;stroke:none" inkscape:connector-curvature="0" />
            <path id="path3113" style="fill:url(#linearGradient4081);fill-opacity:1;fill-rule:nonzero;stroke:none" d="m 13.512412,1067.7324 c 0.169325,0.178 0.392012,0.1825 0.668333,0.013 0.258354,-1.3725 0.06681,-2.473 -0.57034,-3.2972 0.222688,1.0425 0.18737,2.1342 -0.09799,3.2837 z" inkscape:connector-curvature="0" />
            <path id="path3125" style="fill:url(#linearGradient4083);fill-opacity:1;fill-rule:nonzero;stroke:none" d="m 15.556286,1065.0192 c -0.144247,-0.5686 -0.391046,-0.9484 -0.696619,-1.3047 0.06368,0.2079 0.198885,0.8764 0.152013,1.2244 0.420298,1.2051 0.45434,2.5755 0.09347,4.1032 0.471071,-0.7892 0.861422,-1.6804 1.175418,-2.6691 -0.01256,2.1048 -5.499339,8.5587 -8.3336517,9.042 l -1.0778314,-1.676 c 1.6038501,-0.068 3.0806297,-0.5559 4.4301261,-1.4594 0,0 0.02508,-0.017 0.07612,-0.042 -0.182192,-0.2294 -0.330921,-0.4033 -0.441164,-0.5135 -0.110513,-0.1143 -0.352134,-0.042 -0.717175,0.2205 -0.5089397,0.3058 -0.9337195,0.5092 -1.277199,0.5983 -0.7383898,0.6156 -1.6252184,0.8064 -2.6646596,0.5815 -0.5261349,0 -1.0651762,-0.072 -1.6293725,-0.2333 0.078712,0.1723 0.1844332,0.2324 0.3529269,0.385 -0.8538683,-0.2156 -1.7596504,-0.7712 -2.4024231,-1.3315 -0.3186135,-0.098 -0.500477,-0.1318 -1.0905435,-0.5048 l -0.00852,0 c -0.1778643,-0.03 -2.26157672,-2.9446 -2.14287178,-4.6336 -0.13139885,0.1698 -0.27566455,0.7087 -0.43695172,1.6081 -0.046775,-0.1909 -0.07649,-0.3988 -0.089184,-0.6279 0,-0.01 0,-0.013 0.00435,-0.021 -0.1273989,-1.2348 0.3224201,-2.2955 1.34936083,-3.1823 0.0848171,-0.2673 0.23968982,-0.609 0.35424091,-0.8338 l -0.0126934,-0.03 c -0.71282883,0.2715 -1.41522425,0.9864 -1.99230724,1.9412 -0.00417,0.1019 0.00435,0.1994 0.029715,0.2886 l 0.52617361,-0.4285 c -0.19088591,0.4794 -0.31828521,0.9885 -0.38188811,1.5275 -0.1951949,1.7693 0.30138003,3.5176 1.49793511,5.2443 1.79487159,2.3212 4.05227509,3.5647 6.76786359,3.7299 2.7158978,0.1613 5.032576,-0.84 6.946308,-2.9957 1.293969,-1.5869 2.087305,-3.2462 2.384455,-4.9813 0.297264,-1.1924 0.330998,-2.2235 0.09772,-3.0891 -0.08064,0.6195 -0.169981,0.9377 -0.258971,0.9589 -0.02539,-1.031 -0.178367,-1.952 -0.462416,-2.7623 0.165499,0.8783 0.05209,1.1836 -0.121758,1.8625 l 0,0 z" inkscape:connector-curvature="0" />
            <path id="path3143" style="fill:url(#linearGradient4085);fill-opacity:1;fill-rule:nonzero;stroke:none;stroke-width:1;marker:none;visibility:visible;display:inline;overflow:visible;enable-background:accumulate" d="m 13.718059,1071.6 c 0.180569,-0.3826 0.335442,-0.7914 0.455925,-1.2261 0.103132,-0.3788 0.185089,-0.7785 0.241003,-1.2004 -0.292744,0.3698 -0.576755,0.7143 -0.860495,1.0369 -0.249621,0.284 -0.498971,0.5462 -0.739974,0.7917 -0.494836,0.4903 -0.972283,0.899 -1.428556,1.2133 -0.05143,0.026 -0.07744,0.038 -0.07744,0.043 -1.3681596,0.9164 -2.865496,1.4112 -4.4918159,1.48 l 1.092959,1.6997 c 2.8741129,-0.4909 4.8100629,-1.7685 5.8083899,-3.8381 z" inkscape:connector-curvature="0" />
            <path id="path3151" style="fill:url(#linearGradient4087);fill-opacity:1;fill-rule:nonzero;stroke:none" d="m 13.514035,1070.2598 c 0.01704,-0.2332 0.02121,-0.4627 0.01252,-0.6789 -0.02121,-0.6365 -0.169672,-1.2303 -0.449819,-1.7949 0.03852,1.1455 -0.156805,2.1345 -0.589622,2.9702 l 0.297226,0.2844 c 0.237449,-0.2419 0.483553,-0.5006 0.729695,-0.7808 l 0,0 z" inkscape:connector-curvature="0" />
            <path id="path3167" style="fill:url(#linearGradient4089);fill-opacity:1;fill-rule:nonzero;stroke:none" d="m 4.6413995,1062.7578 -0.00415,0 c -0.1273994,0.7213 -0.046755,1.4597 0.2503159,2.215 0.4624933,-0.2759 1.0184011,-0.522 1.6717806,-0.7299 -0.1187435,-0.1952 -0.3648478,-0.369 -0.7382157,-0.5218 -0.1315918,-0.038 -0.2970522,-0.1528 -0.5007867,-0.348 l -0.5219811,-0.5091 -0.1569593,-0.1231 c 0,0 0,0.01 0,0.017 l 0,0 z" inkscape:connector-curvature="0" />
            <path id="path3175" style="fill:url(#linearGradient4091);fill-opacity:1;fill-rule:nonzero;stroke:none" d="m 4.8875618,1064.9728 c 0.2461039,0.1316 0.4030632,0.2843 0.479553,0.454 0.4540118,-0.4201 0.8570947,-0.7255 1.2007287,-0.9207 0.1527862,-0.081 0.2418147,-0.2038 0.2715297,-0.3692 -0.055102,0.051 -0.1484585,0.085 -0.2800309,0.106 -0.6533795,0.2079 -1.2092873,0.454 -1.6717805,0.7299 l 0,0 z" inkscape:connector-curvature="0" />
            <path id="path3177" style="fill:#100f0d;fill-opacity:1;fill-rule:nonzero;stroke:none" d="m 5.8253,1063.7082 -0.00417,0.013 c 0.3733678,0.1528 0.6194722,0.3266 0.7382156,0.5218 0.1315725,-0.021 0.2249291,-0.055 0.280031,-0.106 0.00433,0 0.0085,-0.01 0.012866,-0.01 l 0.00415,0 c 0.00417,0 0.012694,-0.013 0.01702,-0.017 0.089009,-0.1315 0.059275,-0.2376 -0.093357,-0.3309 -0.3182274,0.017 -0.6365127,0 -0.9547594,-0.068 l 0,0 z" inkscape:connector-curvature="0" />
            <path sodipodi:nodetypes="cccccccccccc" inkscape:connector-curvature="0" id="path3187" d="m 3.875,1067.331 c -0.090842,2.0016 0.6871903,2.8252 1.09375,3.1875 0.8783086,0.076 1.6706719,-0.081 2.375,-0.4375 l 1.125,-0.7188 c -0.00504,-0.01 0.00514,-0.026 0,-0.031 0.1484589,-0.055 0.3015611,-0.032 0.4375,0.031 0.2798764,-0.038 0.3744136,-0.1872 0.28125,-0.4375 -0.1356295,-0.1867 -0.3305665,-0.3516 -0.59375,-0.5 -0.57289,-0.2972 -1.1888351,-0.2696 -1.8125,0.125 -0.5941232,0.3354 -1.1628808,0.3254 -1.71875,-0.031 -0.3650216,-0.25 -0.7230201,-0.58 -1.0625,-1 z" style="fill:#ee531b;fill-opacity:1;fill-rule:nonzero;stroke:none" />
            <path id="path3203" style="fill:url(#linearGradient4093);fill-opacity:1;fill-rule:nonzero;stroke:none" d="m 1.6027343,1063.5765 c -0.1668905,-0.099 -0.3789711,-0.1986 -0.6406863,-0.3024 -0.13078004,-0.045 -0.27069916,-0.095 -0.42414191,-0.1444 -0.46910105,0.1671 -0.87525598,0.3927 -1.22257997,0.6769 -0.004521,0 -0.009003,0 -0.009003,0.01 -0.004502,0 -0.004502,0 -0.004502,0 -0.004676,0 -0.009158,0.01 -0.009158,0.018 -0.0991333,0.1533 -0.23455032,0.3833 -0.40600032,0.6947 -0.2706991,0.4828 -0.3482708,0.8838 -0.3617759,1.2266 0.61354089,-1.015 1.23254966,-1.6642 1.99054927,-1.9529 0,0 0.004483,0 0.008984,0 0.009003,0 0.0179682,-0.01 0.0316276,-0.01 -0.004637,0 -0.004637,0 -0.004637,0 0.35648209,-0.095 0.67685413,-0.1309 0.95655663,-0.1174 l 0.2886865,0.032 c -0.054136,-0.045 -0.1172753,-0.09 -0.1939195,-0.1353 l 0,0 z" inkscape:connector-curvature="0" />
            <path id="path3211" style="fill:url(#linearGradient4095);fill-opacity:1;fill-rule:nonzero;stroke:none" d="m 1.5057262,1062.0747 0.00417,0 c -0.5091332,-0.2334 -0.85276705,-0.8997 -1.01824691,-1.99 -0.64922589,0.6363 -0.96329943,1.7736 -0.94210465,3.4157 l 1.95617816,-1.4215 0,0 z" inkscape:connector-curvature="0" />
            <path id="path3219" style="fill:url(#linearGradient4097);fill-opacity:1;fill-rule:nonzero;stroke:none" d="m -1.1674541,1067.769 c -0.00435,0.01 -0.00435,0.013 -0.00435,0.021 0.012694,0.2291 0.042409,0.437 0.089183,0.6278 0.16128719,-0.8993 0.30555288,-1.4382 0.43695175,-1.608 -0.11870496,1.689 -0.0126552,2.9364 0.31828521,3.7338 l -0.0382547,-0.2756 -0.004154,0 c -0.004173,-0.021 -0.00854,-0.042 -0.00854,-0.064 -0.004173,-0.017 -0.004173,-0.03 -0.004173,-0.042 l -0.0170212,-0.089 0.004327,0 c -0.0552557,-0.5045 -0.0425622,-0.98 0.0295609,-1.4298 l 0.004367,-0.013 c 0.0848167,-0.5646 0.18667422,-0.9887 0.30539856,-1.2773 0.08497139,0.5643 0.26731804,1.0989 0.54752267,1.6082 0.0848167,0.1571 0.18234665,0.3139 0.28853181,0.4669 -0.50494045,-1.1503 -0.58142994,-2.2491 -0.23342976,-3.2887 0.008501,-0.047 0.0211942,-0.089 0.0297146,-0.1315 0.10185756,-0.3776 0.24179569,-0.7383 0.42847026,-1.0778 -1.3577073,0.8869 -2.0409758,1.8756 -2.1723937,2.8387 l 0,0 z" inkscape:connector-curvature="0" />
            <path id="path3227" style="fill:url(#linearGradient4099);fill-opacity:1;fill-rule:nonzero;stroke:none" d="m 2.2524429,1064.4291 -0.6354114,-0.4076 c -0.2454668,0.2937 -0.4514421,0.596 -0.6223899,0.9116 -0.19276022,0.3505 -0.33735475,0.723 -0.4424387,1.113 -0.00881,0.044 -0.0219865,0.088 -0.0306809,0.1358 -0.0833871,0.3637 -0.1270705,0.745 -0.13591955,1.1437 0.46898508,-1.3979 1.09120085,-2.3663 1.86684045,-2.8965 z" inkscape:connector-curvature="0" />
            <path id="path3235" style="fill:url(#linearGradient4101);fill-opacity:1;fill-rule:nonzero;stroke:none" d="m 0.49229013,1063.831 c -0.12131289,0.2381 -0.22460044,0.4987 -0.31440193,0.7816 -0.09880486,0.2965 -0.16629101,0.6155 -0.20213081,0.9479 0.49402471,-0.7996 0.99272441,-1.4241 1.49140511,-1.8868 -0.2786013,-0.013 -0.59748557,0.023 -0.9524027,0.117 -0.004482,0 -0.004482,0.01 -0.008964,0.013 -0.004502,0.01 -0.009023,0.018 -0.0135049,0.027 l 0,0 z" inkscape:connector-curvature="0" />
            <path id="path3251" style="fill:url(#linearGradient4103);fill-opacity:1;fill-rule:nonzero;stroke:none" d="m 2.0148399,1070.6756 c 0,-0.1568 0.012829,-0.3056 0.042428,-0.4498 -0.1102231,0.1442 -0.2291211,0.2377 -0.3436722,0.2718 -0.1272446,0.038 -0.2673374,-0.072 -0.4369906,-0.3396 -0.017022,0.4495 0.055102,0.8781 0.2291216,1.2814 0.2502771,0.5857 0.7001349,1.1288 1.357881,1.621 -0.055276,-0.085 -0.1018961,-0.1658 -0.1486323,-0.2461 -0.1739809,-0.2931 -0.3097457,-0.5771 -0.4201235,-0.8489 -0.00417,-0.01 -0.00835,-0.017 -0.00835,-0.025 -0.174,-0.4415 -0.2631641,-0.8531 -0.2716649,-1.2306 0,-0.013 0,-0.021 0,-0.034 l 0,0 z" inkscape:connector-curvature="0" />
            <path id="path3267" style="fill:url(#linearGradient4105);fill-opacity:1;fill-rule:nonzero;stroke:none" d="m 2.2865049,1071.9403 c 0,0.01 0.00417,0.017 0.00835,0.025 0.1315915,0.1273 0.2843582,0.2295 0.4625317,0.3143 0.042582,0.017 0.089164,0.038 0.1359389,0.055 -0.1062045,-0.1189 -0.2080619,-0.2507 -0.2970525,-0.3908 -0.2376221,-0.3476 -0.4286627,-0.7595 -0.5814297,-1.2345 0.0085,0.3776 0.097665,0.7892 0.271665,1.2307 l 0,0 z" inkscape:connector-curvature="0" />
            <path id="path3295" style="fill:url(#linearGradient4107);fill-opacity:1;fill-rule:nonzero;stroke:none" d="m 8.939798,1072.5425 c 0.08899,-0.072 0.1738068,-0.1527 0.258624,-0.2375 -1.1624742,0.5009 -2.2740578,0.4669 -3.339234,-0.1061 0.2588363,0.2163 0.3267668,0.3734 0.2037345,0.4624 -0.1187439,0.1019 -0.4116034,0.1318 -0.8698271,0.098 0.3775605,0.1655 0.738216,0.2885 1.082043,0.365 1.0394412,0.2249 1.9262698,0.034 2.6646596,-0.5815 l 0,0 z" inkscape:connector-curvature="0" />
            <path id="path6061" style="fill:url(#linearGradient4109);fill-opacity:1;fill-rule:nonzero;stroke:none" d="m 13.166035,1061.1878 0.598277,0.191 c -0.199194,-0.3352 -0.738351,-0.7129 -1.620678,-1.1458 -0.738428,-0.2205 -1.616891,-0.3478 -2.630907,-0.3775 0.4452983,0.089 0.823168,0.1994 1.128431,0.3395 0.954934,0.2503 1.88421,0.9249 2.78806,2.0281 -0.827418,-0.7594 -1.633894,-1.1286 -2.414672,-1.1032 1.905385,0.6959 3.1315,2.0342 3.670657,3.8545 0.0042,-0.2249 0.237487,-0.2902 0.326477,-0.035 0.04687,-0.348 0.04239,-0.6239 -0.02121,-0.8318 0.305882,0.3565 0.526328,0.8147 0.670614,1.3833 0.173806,-0.6789 0.182462,-1.4554 0.01696,-2.3337 0,0 -0.0045,-0.013 -0.0083,-0.021 -0.221104,-0.6324 -0.522117,-1.1966 -0.899716,-1.6973 0.233275,0.9165 0.313919,1.5657 0.246143,1.9561 -0.0045,-0.01 -0.0083,-0.013 -0.0083,-0.021 -0.373735,-0.8359 -0.984533,-1.5614 -1.841821,-2.1853 l 0,0 z" inkscape:connector-curvature="0" />
            <path id="path3319" style="fill:url(#linearGradient4111);fill-opacity:1;fill-rule:nonzero;stroke:none" d="m 14.689415,1064.8558 c 0,0.017 0,0.034 0,0.047 -0.06461,2.209 -0.457277,3.7796 -1.177969,4.7159 0.0087,0.2198 0.0042,0.4531 -0.01318,0.6902 0.285016,-0.3236 0.569722,-0.6687 0.863045,-1.0398 -0.05591,0.4229 -0.138141,0.8242 -0.241622,1.2037 0.362452,-0.4271 0.694726,-0.8929 0.996704,-1.4022 0.366935,-1.5531 0.332235,-2.9468 -0.09479,-4.1721 -0.09057,-0.2589 -0.198537,-0.5048 -0.32354,-0.7508 0,0.246 -0.0045,0.4789 -0.0087,0.7077 l 0,0 z" inkscape:connector-curvature="0" />
            <path id="path3327" style="fill:url(#linearGradient4113);fill-opacity:1;fill-rule:nonzero;stroke:none" d="m -0.39519561,1068.643 c 0.0933567,0.7216 0.30976534,1.3325 0.57710237,1.8418 0.21206166,0.3987 0.47522579,0.7383 0.79331789,1.0182 0.13157255,0.1147 0.26733745,0.2163 0.41593105,0.3097 -0.40741082,-0.4581 -0.67042024,-0.9038 -0.78079805,-1.3363 l 0.0126934,0.051 c -0.008327,-0.013 -0.0126934,-0.034 -0.0168473,-0.047 -0.15713331,-0.4623 -0.19521386,-0.9671 -0.11455109,-1.5188 -0.28020463,-0.5093 -0.46255128,-1.1204 -0.54752267,-1.6847 -0.11872434,0.2886 -0.33399301,1.0186 -0.33932563,1.3663 l 0,0 z" inkscape:connector-curvature="0" />
        </g>
        <rect rx="1.9998006" ry="1.9968402" y="1036.8625" x="0.49960619" height="15" width="15" id="rect4115" style="color:black;fill:none;stroke:url(#linearGradient3407-3);stroke-width:0.99999994;stroke-linecap:butt;stroke-linejoin:miter;stroke-miterlimit:4;stroke-opacity:1;stroke-dasharray:none;stroke-dashoffset:0;marker:none;visibility:visible;display:inline;overflow:visible;enable-background:accumulate" />
        <rect width="13" height="13" ry="0.99999994" x="1.500001" y="1037.8622" id="rect4513-2" style="opacity:0.5;color:black;fill:none;stroke:url(#linearGradient3144-3);stroke-width:1;stroke-linecap:butt;stroke-linejoin:miter;stroke-miterlimit:4;stroke-opacity:1;stroke-dasharray:none;stroke-dashoffset:0;marker:none;visibility:visible;display:inline;overflow:visible;enable-background:accumulate" rx="0.99999994" />
    </g>
</svg>
