<?xml version="1.0" encoding="UTF-8" standalone="no"?>
<svg xmlns:dc="http://purl.org/dc/elements/1.1/" xmlns:cc="http://creativecommons.org/ns#" xmlns:rdf="http://www.w3.org/1999/02/22-rdf-syntax-ns#" xmlns:svg="http://www.w3.org/2000/svg" xmlns="http://www.w3.org/2000/svg" xmlns:xlink="http://www.w3.org/1999/xlink" xmlns:sodipodi="http://sodipodi.sourceforge.net/DTD/sodipodi-0.dtd" xmlns:inkscape="http://www.inkscape.org/namespaces/inkscape" viewBox="0 0 16 16" id="svg2" version="1.1" inkscape:version="0.48.4 r9939" width="100%" height="100%" sodipodi:docname="galculator.svg">
    <metadata id="metadata44">
        <rdf:RDF>
            <cc:Work rdf:about="">
                <dc:format>image/svg+xml</dc:format>
                <dc:type rdf:resource="http://purl.org/dc/dcmitype/StillImage" />
            </cc:Work>
        </rdf:RDF>
    </metadata>
    <sodipodi:namedview pagecolor="#ffffff" bordercolor="#666666" borderopacity="1" objecttolerance="10" gridtolerance="10" guidetolerance="10" inkscape:pageopacity="0" inkscape:pageshadow="2" inkscape:window-width="1280" inkscape:window-height="970" id="namedview42" showgrid="true" inkscape:zoom="10.429825" inkscape:cx="22.440678" inkscape:cy="7.2871378" inkscape:window-x="0" inkscape:window-y="27" inkscape:window-maximized="1" inkscape:current-layer="svg2">
        <inkscape:grid type="xygrid" id="grid3180" />
    </sodipodi:namedview>
    <defs id="defs4">
        <radialGradient inkscape:collect="always" xlink:href="#linearGradient4350-8" id="radialGradient3164-5" gradientUnits="userSpaceOnUse" gradientTransform="matrix(0.39682542,0,0,0.51843308,1.5667743,1.7887519)" cx="19.011726" cy="2.3363643" fx="19.011726" fy="2.3363643" r="14" />
        <linearGradient id="linearGradient4350-8">
            <stop style="stop-color:#76bbff;stop-opacity:1;" offset="0" id="stop4358-7" />
            <stop id="stop4354-0" offset="1" style="stop-color:#182d42;stop-opacity:1;" />
        </linearGradient>
        <linearGradient inkscape:collect="always" xlink:href="#linearGradient3242-52-665-1" id="linearGradient4073-5" gradientUnits="userSpaceOnUse" gradientTransform="matrix(0.43751743,0,0,0.4255184,2.4055099,-2.9455554)" x1="22.505953" y1="25.38084" x2="22.505953" y2="32.497475" />
        <linearGradient id="linearGradient3242-52-665-1">
            <stop offset="0" style="stop-color:#e4e4e4;stop-opacity:1;" id="stop2903-6" />
            <stop offset="1" style="stop-color:#adadad;stop-opacity:1;" id="stop2909-7" />
        </linearGradient>
        <linearGradient inkscape:collect="always" xlink:href="#linearGradient2490-654-721-5" id="linearGradient4075-8" gradientUnits="userSpaceOnUse" gradientTransform="matrix(0.42463266,0,0,0.37853241,3.8088118,-1.2331689)" x1="31.278551" y1="56.744396" x2="31.278551" y2="4.0075235" />
        <linearGradient id="linearGradient2490-654-721-5">
            <stop offset="0" style="stop-color:#3d3d3d;stop-opacity:1;" id="stop2913-7" />
            <stop offset="1" style="stop-color:#858585;stop-opacity:1;" id="stop2915-2" />
        </linearGradient>
    </defs>
    <path d="M 3,0.5 H 13 A 1.5,1.5 0 0 1 14.5,2 V 14 A 1.5,1.5 0 0 1 13,15.5 H 3 A 1.5,1.5 0 0 1 1.5,14 V 2 A 1.5,1.5 0 0 1 3,0.5" id="path20" style="color:#000000;fill:url(#linearGradient4073-5);fill-opacity:1;fill-rule:nonzero;stroke:url(#linearGradient4075-8);stroke-width:1;stroke-linecap:round;stroke-linejoin:miter;stroke-miterlimit:6;stroke-opacity:1;stroke-dasharray:none;stroke-dashoffset:1.39999999999999991;marker:none;visibility:visible;display:inline;overflow:visible;enable-background:accumulate" />
    <path d="m 10,12 v 2 h 2 v -2 z" id="path28" inkscape:connector-curvature="0" style="fill:#ffffff;stroke:none" />
    <path d="m 4,12 v 2 h 2 v -2 z" id="path34" inkscape:connector-curvature="0" style="fill:#ffffff;stroke:none" />
    <path d="m 7,12 v 2 h 2 v -2 z" id="path40" inkscape:connector-curvature="0" style="fill:#ffffff;stroke:none" />
    <rect style="color:#000000;fill:url(#radialGradient3164-5);fill-opacity:1;fill-rule:nonzero;stroke:none;stroke-width:0.99999994;marker:none;visibility:visible;display:inline;overflow:visible;enable-background:accumulate" id="rect3182" width="10" height="4" x="3" y="2" ry="1" rx="1" />
    <path style="fill:#ffffff;stroke:none" inkscape:connector-curvature="0" id="path3184" d="m 10,9 v 2 h 2 V 9 z" />
    <path style="fill:#ffffff;stroke:none" inkscape:connector-curvature="0" id="path3186" d="m 4,9 v 2 H 6 V 9 z" />
    <path style="fill:#ffffff;stroke:none" inkscape:connector-curvature="0" id="path3188" d="m 7,9 v 2 H 9 V 9 z" />
    <path d="m 10,6 v 2 h 2 V 6 z" id="path3190" inkscape:connector-curvature="0" style="fill:#ffffff;stroke:none" />
    <path d="M 4,6 V 8 H 6 V 6 z" id="path3192" inkscape:connector-curvature="0" style="fill:#ffffff;stroke:none" />
    <path d="M 7,6 V 8 H 9 V 6 z" id="path3194" inkscape:connector-curvature="0" style="fill:#ffffff;stroke:none" />
    <path style="fill:#757575;fill-opacity:1" d="m 3,8 0,1 3,0 1,0 2,0 1,0 3,0 0,-2 -1,0 0,1 L 10,8 10,7 9,7 9,8 7,8 7,7 6,7 6,8 z" id="path4152" inkscape:connector-curvature="0" sodipodi:nodetypes="ccccccccccccccccccc" />
    <path sodipodi:nodetypes="ccccccccccccccccccc" inkscape:connector-curvature="0" id="path4163" d="m 3,11 0,1 3,0 1,0 2,0 1,0 3,0 0,-2 -1,0 0,1 -2,0 0,-1 -1,0 0,1 -2,0 0,-1 -1,0 0,1 z" style="fill:#757575;fill-opacity:1" />
    <path style="fill:#757575;fill-opacity:1" d="m 3,14 0,1 3,0 1,0 2,0 1,0 3,0 0,-2 -1,0 0,1 -2,0 0,-1 -1,0 0,1 -2,0 0,-1 -1,0 0,1 z" id="path4165" inkscape:connector-curvature="0" sodipodi:nodetypes="ccccccccccccccccccc" />
</svg>
