<?xml version="1.0" encoding="UTF-8" standalone="no"?>
<svg xmlns:dc="http://purl.org/dc/elements/1.1/" xmlns:cc="http://creativecommons.org/ns#" xmlns:rdf="http://www.w3.org/1999/02/22-rdf-syntax-ns#" xmlns:svg="http://www.w3.org/2000/svg" xmlns="http://www.w3.org/2000/svg" xmlns:xlink="http://www.w3.org/1999/xlink" xmlns:sodipodi="http://sodipodi.sourceforge.net/DTD/sodipodi-0.dtd" xmlns:inkscape="http://www.inkscape.org/namespaces/inkscape" viewBox="0 0 16 16" id="svg2" version="1.1" inkscape:version="0.48.4 r9939" width="100%" height="100%" sodipodi:docname="gnome-disks.svg">
    <metadata id="metadata54">
        <rdf:RDF>
            <cc:Work rdf:about="">
                <dc:format>image/svg+xml</dc:format>
                <dc:type rdf:resource="http://purl.org/dc/dcmitype/StillImage" />
            </cc:Work>
        </rdf:RDF>
    </metadata>
    <sodipodi:namedview pagecolor="#ffffff" bordercolor="#666666" borderopacity="1" objecttolerance="10" gridtolerance="10" guidetolerance="10" inkscape:pageopacity="0" inkscape:pageshadow="2" inkscape:window-width="1280" inkscape:window-height="998" id="namedview52" showgrid="true" inkscape:zoom="20.85965" inkscape:cx="11.886815" inkscape:cy="8.8588475" inkscape:window-x="0" inkscape:window-y="0" inkscape:window-maximized="1" inkscape:current-layer="svg2" inkscape:snap-nodes="true" inkscape:snap-page="true" inkscape:snap-to-guides="false" inkscape:snap-bbox="false" inkscape:snap-center="true" inkscape:snap-object-midpoints="true">
        <inkscape:grid type="xygrid" id="grid3135" />
    </sodipodi:namedview>
    <defs id="defs4">
        <linearGradient gradientUnits="userSpaceOnUse" id="linearGradient3179" x2="0" y1="-12.42762" y2="-1.45591" gradientTransform="matrix(0.99967544,0,0,-0.99959433,0.00259149,0.00264185)">
            <stop offset="0" stop-color="#b6b6b6" id="stop15" />
            <stop offset="1" stop-color="#f0f0f0" id="stop17" />
        </linearGradient>
        <linearGradient id="linearGradient3886-2">
            <stop style="stop-color:white;stop-opacity:1;" offset="0" id="stop3888-7" />
            <stop style="stop-color:gray;stop-opacity:1;" offset="1" id="stop3890-8" />
        </linearGradient>
        <radialGradient inkscape:collect="always" xlink:href="#linearGradient3886-2" id="radialGradient3138" gradientUnits="userSpaceOnUse" gradientTransform="matrix(0.54999999,0,0,0.64322906,-6.1216677,-10.727399)" cx="28.799797" cy="32" fx="28.799797" fy="32" r="15" />
    </defs>
    <path d="m 15.5,11.5 v 3.07022 C 15.5,15.08532 15.02214,15.5 14.42857,15.5 H 1.57142 C 0.97785,15.5 0.49999,15.08532 0.49999,14.57022 V 11.5 h 15 z" id="path26" style="color:#000000;fill:#b4b4b4;fill-opacity:1;fill-rule:nonzero;stroke:#808080;stroke-width:1;stroke-linecap:butt;stroke-linejoin:miter;stroke-miterlimit:4;stroke-opacity:1;stroke-dasharray:none;stroke-dashoffset:0;marker:none;visibility:visible;display:inline;overflow:visible;enable-background:accumulate" />
    <path d="M 1.4996754,12.5 H 14.500325 A 0.99967544,0.99959433 0 0 0 15.5,11.500406 V 1.4995943 A 0.99967544,0.99959433 0 0 0 14.500325,0.5 H 1.4996754 A 0.99967544,0.99959433 0 0 0 0.5,1.4995943 V 11.500406 A 0.99967544,0.99959433 0 0 0 1.4996754,12.5" id="path28" style="fill:url(#linearGradient3179);stroke:gray;stroke-width:1;stroke-miterlimit:4;stroke-dasharray:none" inkscape:connector-curvature="0" />
    <path style="fill:gray;stroke:none" inkscape:connector-curvature="0" id="path32" d="M 14,2.5 C 14,2.7761461 13.77614,3 13.5,3 13.22386,3 13,2.7761404 13,2.5 13,2.2238596 13.22386,2 13.5,2 13.77614,2 14,2.2238596 14,2.5 z" />
    <path d="m 3,13 h 2 v 2 H 3 z" id="path38" inkscape:connector-curvature="0" style="fill:aqua;stroke:none" />
    <g id="g2997">
        <path sodipodi:nodetypes="cccccccccccccccccc" inkscape:connector-curvature="0" id="path4096" d="M 6,3 5,4 7,6 7,7 6,7 4,5 3,6 l 0,3 2,2 2,0 5,5 3,0 1,-1 0,-2 L 11,8 11,6 8,3 z" style="font-size:medium;font-style:normal;font-variant:normal;font-weight:normal;font-stretch:normal;text-indent:0;text-align:start;text-decoration:none;line-height:normal;letter-spacing:normal;word-spacing:normal;text-transform:none;direction:ltr;block-progression:tb;writing-mode:lr-tb;text-anchor:start;baseline-shift:baseline;color:black;fill:#505050;fill-opacity:1;fill-rule:nonzero;stroke:none;stroke-width:0.99999994;marker:none;visibility:visible;display:inline;overflow:visible;enable-background:accumulate;font-family:Sans;-inkscape-font-specification:Sans" />
        <path sodipodi:nodetypes="cccccccccccccccc" inkscape:connector-curvature="0" id="path4098" d="m 6,4 2,2 0,1 0.03072,1.1684318 -2.0625,0 L 4,6 l 0,2 2,2 2,0 5,5 2,0 0,-2 L 10,8 10,6 8,4 z" style="font-size:medium;font-style:normal;font-variant:normal;font-weight:normal;font-stretch:normal;text-indent:0;text-align:start;text-decoration:none;line-height:normal;letter-spacing:normal;word-spacing:normal;text-transform:none;direction:ltr;block-progression:tb;writing-mode:lr-tb;text-anchor:start;baseline-shift:baseline;color:black;fill:url(#radialGradient3138);fill-opacity:1;fill-rule:nonzero;stroke:none;stroke-width:0.99999994;marker:none;visibility:visible;display:inline;overflow:visible;enable-background:accumulate;font-family:Sans;-inkscape-font-specification:Sans" />
    </g>
    <path d="M 3,2.5 C 3,2.7761461 2.77614,3 2.5,3 2.22386,3 2,2.7761404 2,2.5 2,2.2238596 2.22386,2 2.5,2 2.77614,2 3,2.2238596 3,2.5 z" id="path3939" inkscape:connector-curvature="0" style="fill:gray;stroke:none" />
    <path style="fill:gray;stroke:none" inkscape:connector-curvature="0" id="path3941" d="M 3,10.5 C 3,10.776146 2.77614,11 2.5,11 2.22386,11 2,10.77614 2,10.5 2,10.22386 2.22386,10 2.5,10 2.77614,10 3,10.22386 3,10.5 z" />
</svg>
