<?xml version="1.0" encoding="UTF-8" standalone="no"?>
<svg xmlns:dc="http://purl.org/dc/elements/1.1/" xmlns:cc="http://creativecommons.org/ns#" xmlns:rdf="http://www.w3.org/1999/02/22-rdf-syntax-ns#" xmlns:svg="http://www.w3.org/2000/svg" xmlns="http://www.w3.org/2000/svg" xmlns:xlink="http://www.w3.org/1999/xlink" xmlns:sodipodi="http://sodipodi.sourceforge.net/DTD/sodipodi-0.dtd" xmlns:inkscape="http://www.inkscape.org/namespaces/inkscape" viewBox="0 0 16 16" id="svg2" version="1.1" inkscape:version="0.48.4 r9939" width="100%" height="100%" sodipodi:docname="libreoffice-calc.svg">
    <metadata id="metadata64">
        <rdf:RDF>
            <cc:Work rdf:about="">
                <dc:format>image/svg+xml</dc:format>
                <dc:type rdf:resource="http://purl.org/dc/dcmitype/StillImage" />
                <dc:title />
            </cc:Work>
        </rdf:RDF>
    </metadata>
    <sodipodi:namedview pagecolor="#ffffff" bordercolor="#666666" borderopacity="1" objecttolerance="10" gridtolerance="10" guidetolerance="10" inkscape:pageopacity="0" inkscape:pageshadow="2" inkscape:window-width="1280" inkscape:window-height="976" id="namedview62" showgrid="true" inkscape:zoom="20.85965" inkscape:cx="17.731707" inkscape:cy="8.3472081" inkscape:window-x="0" inkscape:window-y="24" inkscape:window-maximized="1" inkscape:current-layer="svg2">
        <inkscape:grid type="xygrid" id="grid3010" />
    </sodipodi:namedview>
    <defs id="defs4">
        <linearGradient inkscape:collect="always" xlink:href="#linearGradient3157-5-8-4-1" id="linearGradient3770-3" gradientUnits="userSpaceOnUse" gradientTransform="matrix(0,-0.42471043,-1,0,26,-1.6930502)" x1="-42.696152" x2="-5.8431101" />
        <linearGradient x2="-5.8431101" x1="-42.696152" id="linearGradient3157-5-8-4-1" gradientUnits="userSpaceOnUse">
            <stop id="stop19-8-7-8" stop-color="#fff" offset="0" />
            <stop id="stop21-0-3-0" stop-color="#cdcdcd" offset="1" />
        </linearGradient>
        <linearGradient inkscape:collect="always" xlink:href="#linearGradient3866-6-0-2" id="linearGradient3772-5" gradientUnits="userSpaceOnUse" gradientTransform="matrix(0,-0.42471043,-1,0,26,-1.6930502)" x1="-5" y1="-21" x2="-43" y2="-21" />
        <linearGradient id="linearGradient3866-6-0-2">
            <stop id="stop3868-3-4-2" offset="0" style="stop-color:#818181;stop-opacity:1;" />
            <stop id="stop3870-8-8-1" offset="1" style="stop-color:#667c03;stop-opacity:1;" />
        </linearGradient>
    </defs>
    <path inkscape:connector-curvature="0" style="fill:url(#linearGradient3770-3);stroke:url(#linearGradient3772-5);stroke-linecap:round;stroke-linejoin:round;color:#000000;fill-opacity:1;fill-rule:nonzero;stroke-width:1;stroke-miterlimit:4;stroke-opacity:1;stroke-dasharray:none;stroke-dashoffset:0;marker:none;visibility:visible;display:inline;overflow:visible;enable-background:accumulate" id="path36" d="m 3.5,0.5 h 9 a 2,2 0 0 1 2,2 v 11 a 2,2 0 0 1 -2,2 h -9 a 2,2 0 0 1 -2,-2 v -11 a 2,2 0 0 1 2,-2" />
    <path id="path3034" d="M 5,1 3.0159232,1 C 2.574206,1 2,1.6446825 2,2 l 0,12 c 0,0.396237 0.5771648,1 0.9840768,1 L 5,15" style="color:#000000;fill:#a4c201;fill-opacity:1;fill-rule:nonzero;stroke:none;stroke-width:1;marker:none;visibility:visible;display:inline;overflow:visible;enable-background:accumulate" inkscape:connector-curvature="0" sodipodi:nodetypes="cssssc" />
    <path d="m 6,2.9999999 h 3 v 2 H 6 z" id="path44" inkscape:connector-curvature="0" style="fill:#9fbc01;fill-opacity:1" />
    <path d="M 6,5.9999999 H 9 V 7.9999998 H 6 z" id="path50" inkscape:connector-curvature="0" style="fill:#bdbdbd" />
    <path style="fill:#bdbdbd" inkscape:connector-curvature="0" id="path3808" d="m 6,9 h 3 v 2 H 6 z" />
    <path d="m 6,12 h 3 v 2 H 6 z" id="path3810" inkscape:connector-curvature="0" style="fill:#bdbdbd" />
    <path style="fill:#9fbc01;fill-opacity:1" inkscape:connector-curvature="0" id="path3812" d="m 10,2.9999999 h 3 v 2 h -3 z" />
    <path style="fill:#bdbdbd" inkscape:connector-curvature="0" id="path3814" d="m 10,5.9999999 h 3 v 1.9999999 h -3 z" />
    <path d="m 10,9 h 3 v 2 h -3 z" id="path3816" inkscape:connector-curvature="0" style="fill:#bdbdbd" />
    <path style="fill:#bdbdbd" inkscape:connector-curvature="0" id="path3818" d="m 10,12 h 3 v 2 h -3 z" />
    <g id="g3464" transform="matrix(0.40000074,0,0,0.5,1.9999629,4.341615)">
        <path inkscape:connector-curvature="0" id="path86" d="m 25.00001,9.31677 c -1.818246,0 -3.530875,0.25968 -4.999991,0.68323 l -4.999991,0 0,4.31677 0,0.465839 0.0625,0 c 0.457475,2.546354 4.719764,4.534161 9.937482,4.534161 5.217716,0 9.480006,-1.987807 9.937481,-4.534161 l 0.0625,0 0,-0.465839 0,-4.31677 L 30,10 C 28.530884,9.57645 26.818255,9.31677 25.00001,9.31677 z" style="fill:#667c03;fill-opacity:1" />
        <path d="m 35.000028,10.31677 c 0,2.761419 -4.477139,5 -9.999981,5 -5.522843,0 -9.999982,-2.238581 -9.999982,-5 0,-2.761419 4.477139,-5 9.999982,-5 5.522842,0 9.999981,2.238581 9.999981,5 z" id="path90" inkscape:connector-curvature="0" style="color:#000000;fill:#adcc01;fill-opacity:1;fill-rule:nonzero;stroke-width:1;stroke-linecap:butt;stroke-linejoin:miter;stroke-miterlimit:4;stroke-opacity:1;stroke-dasharray:none;stroke-dashoffset:0;marker:none;visibility:visible;display:inline;overflow:visible;enable-background:accumulate" />
    </g>
</svg>
