<?xml version="1.0" encoding="UTF-8" standalone="no"?>
<!-- Created with Inkscape (http://www.inkscape.org/) -->

<svg xmlns:dc="http://purl.org/dc/elements/1.1/" xmlns:cc="http://creativecommons.org/ns#" xmlns:rdf="http://www.w3.org/1999/02/22-rdf-syntax-ns#" xmlns:svg="http://www.w3.org/2000/svg" xmlns="http://www.w3.org/2000/svg" xmlns:xlink="http://www.w3.org/1999/xlink" xmlns:sodipodi="http://sodipodi.sourceforge.net/DTD/sodipodi-0.dtd" xmlns:inkscape="http://www.inkscape.org/namespaces/inkscape" width="16" height="16" id="svg4700" version="1.1" inkscape:version="0.48.4 r9939" sodipodi:docname="gpicview.svg">
    <defs id="defs4702">
        <filter id="filter3174" color-interpolation-filters="sRGB">
            <feGaussianBlur stdDeviation="1.71" id="feGaussianBlur3176" />
        </filter>
        <linearGradient gradientTransform="scale(1.0058652,0.994169)" gradientUnits="userSpaceOnUse" id="ButtonShadow" y2="7.0165396" x2="45.447727" y1="92.539597" x1="45.447727">
            <stop offset="0" style="stop-color:#000000;stop-opacity:1" id="stop3750" />
            <stop offset="1" style="stop-color:#000000;stop-opacity:0.58823532" id="stop3752" />
        </linearGradient>
        <linearGradient inkscape:collect="always" xlink:href="#linearGradient20028-0-1" id="linearGradient3100-7" gradientUnits="userSpaceOnUse" x1="60.454826" y1="-9.8733616" x2="68.331146" y2="35.364891" gradientTransform="matrix(0.3681923,0,0,0.35810397,-19.259002,31.53569)" />
        <linearGradient y2="34.685299" y1="3.7228" x2="21.1047" x1="14.8565" id="linearGradient20028-0-1" gradientUnits="userSpaceOnUse">
            <stop id="stop26-7" stop-color="#a40" offset="0" />
            <stop id="stop28-4" stop-color="#fea" offset="1" />
        </linearGradient>
        <linearGradient y2="7.0165396" x2="45.447727" y1="92.539597" x1="45.447727" gradientTransform="scale(1.0058652,0.994169)" gradientUnits="userSpaceOnUse" id="linearGradient3140" xlink:href="#ButtonShadow-8" inkscape:collect="always" />
        <linearGradient y2="7.0165396" x2="45.447727" y1="92.539597" x1="45.447727" gradientTransform="scale(1.0058652,0.994169)" gradientUnits="userSpaceOnUse" id="linearGradient3138" xlink:href="#ButtonShadow-91" inkscape:collect="always" />
        <linearGradient y2="7.0165396" x2="45.447727" y1="92.539597" x1="45.447727" gradientTransform="scale(1.0058652,0.994169)" gradientUnits="userSpaceOnUse" id="linearGradient3136" xlink:href="#ButtonShadow-9" inkscape:collect="always" />
        <filter id="filter3174-4" color-interpolation-filters="sRGB">
            <feGaussianBlur stdDeviation="1.71" id="feGaussianBlur3176-2" />
        </filter>
        <linearGradient gradientTransform="scale(1.0058652,0.994169)" gradientUnits="userSpaceOnUse" id="ButtonShadow-91" y2="7.0165396" x2="45.447727" y1="92.539597" x1="45.447727">
            <stop offset="0" style="stop-color:#000000;stop-opacity:1" id="stop3750-4" />
            <stop offset="1" style="stop-color:#000000;stop-opacity:0.58823532" id="stop3752-2" />
        </linearGradient>
        <linearGradient x1="45.447727" y1="92.539597" x2="45.447727" y2="7.0165396" id="ButtonShadow-9" gradientUnits="userSpaceOnUse" gradientTransform="scale(1.0058652,0.994169)">
            <stop id="stop3750-3" style="stop-color:#000000;stop-opacity:1" offset="0" />
            <stop id="stop3752-0" style="stop-color:#000000;stop-opacity:0.58823532" offset="1" />
        </linearGradient>
        <filter color-interpolation-filters="sRGB" id="filter3174-2">
            <feGaussianBlur id="feGaussianBlur3176-1" stdDeviation="1.71" />
        </filter>
        <linearGradient x1="45.447727" y1="92.539597" x2="45.447727" y2="7.0165396" id="ButtonShadow-8" gradientUnits="userSpaceOnUse" gradientTransform="scale(1.0058652,0.994169)">
            <stop id="stop3750-6" style="stop-color:#000000;stop-opacity:1" offset="0" />
            <stop id="stop3752-1" style="stop-color:#000000;stop-opacity:0.58823532" offset="1" />
        </linearGradient>
        <filter color-interpolation-filters="sRGB" id="filter3174-3">
            <feGaussianBlur id="feGaussianBlur3176-19" stdDeviation="1.71" />
        </filter>
        <linearGradient x1="45.447727" y1="92.539597" x2="45.447727" y2="7.0165396" id="ButtonShadow-6" gradientUnits="userSpaceOnUse" gradientTransform="scale(1.0058652,0.994169)">
            <stop id="stop3750-9" style="stop-color:#000000;stop-opacity:1" offset="0" />
            <stop id="stop3752-07" style="stop-color:#000000;stop-opacity:0.58823532" offset="1" />
        </linearGradient>
        <filter color-interpolation-filters="sRGB" id="filter3174-0">
            <feGaussianBlur id="feGaussianBlur3176-20" stdDeviation="1.71" />
        </filter>
        <linearGradient id="linearGradient3872-8-5-0">
            <stop id="stop3874-8-0-3" offset="0" style="stop-color:#338100;stop-opacity:1" />
            <stop id="stop3876-5-6-3" offset="1" style="stop-color:#1b4e18;stop-opacity:1;" />
        </linearGradient>
        <linearGradient inkscape:collect="always" xlink:href="#linearGradient3875-7-0" id="linearGradient3246-2" gradientUnits="userSpaceOnUse" gradientTransform="matrix(0.35253628,0,0,0.35253632,-2.4419,30.656541)" x1="22" y1="31" x2="22" y2="42" />
        <linearGradient inkscape:collect="always" id="linearGradient3875-7-0">
            <stop style="stop-color:#da862e;stop-opacity:1" offset="0" id="stop3878-3-7" />
            <stop style="stop-color:#39220a;stop-opacity:1" offset="1" id="stop3880-8-6" />
        </linearGradient>
        <linearGradient gradientUnits="userSpaceOnUse" id="linearGradient1022-8-8-3-0-05-2-4-2-3" x2="0" y1="3.0069399" y2="11.02436">
            <stop offset="0" id="stop3001-0-9-4-49-1-4-8-2" />
            <stop offset="1" stop-color="#363636" id="stop3003-5-6-6-8-2-3-9-7" />
        </linearGradient>
        <linearGradient y2="-31.648474" x2="25.401121" y1="-35.622715" x1="25.401121" gradientTransform="matrix(-0.5833302,0,0,0.50324056,27.817241,35.926796)" gradientUnits="userSpaceOnUse" id="linearGradient4147-1" xlink:href="#linearGradient1022-8-8-3-0-05-2-4-2-3" inkscape:collect="always" />
        <linearGradient id="linearGradient3873">
            <stop style="stop-color:#b4b4b4;stop-opacity:1;" offset="0" id="stop3875" />
            <stop style="stop-color:white;stop-opacity:1;" offset="1" id="stop3877" />
        </linearGradient>
        <linearGradient x1="45.447727" y1="92.539597" x2="45.447727" y2="7.0165396" id="ButtonShadow-0" gradientUnits="userSpaceOnUse" gradientTransform="scale(1.0058652,0.994169)">
            <stop id="stop3750-1" style="stop-color:#000000;stop-opacity:1" offset="0" />
            <stop id="stop3752-3" style="stop-color:#000000;stop-opacity:0.58823532" offset="1" />
        </linearGradient>
        <filter color-interpolation-filters="sRGB" id="filter3174-6">
            <feGaussianBlur id="feGaussianBlur3176-7" stdDeviation="1.71" />
        </filter>
        <linearGradient inkscape:collect="always" xlink:href="#linearGradient3873" id="linearGradient3998" gradientUnits="userSpaceOnUse" gradientTransform="matrix(-0.34479809,0,0,0.34479809,16.273966,32.261967)" x1="29.79705" y1="42.743954" x2="29.79705" y2="31.14296" />
        <linearGradient inkscape:collect="always" xlink:href="#linearGradient3873" id="linearGradient4019" gradientUnits="userSpaceOnUse" gradientTransform="matrix(-0.34479809,0,0,-0.34479809,16.273966,47.738033)" x1="26.896803" y1="36.943455" x2="26.896803" y2="42.743954" />
        <linearGradient inkscape:collect="always" xlink:href="#linearGradient1022-8-8-3-0-05-2-4-2-3" id="linearGradient4046" gradientUnits="userSpaceOnUse" gradientTransform="matrix(-0.5833302,0,0,0.50324056,27.817241,35.926796)" x1="25.401121" y1="-35.622715" x2="25.401121" y2="-31.648474" />
        <linearGradient inkscape:collect="always" xlink:href="#linearGradient1022-8-8-3-0-05-2-4-2-3" id="linearGradient4052" gradientUnits="userSpaceOnUse" gradientTransform="matrix(-0.5833302,0,0,0.50324056,27.817241,35.926796)" x1="25.401121" y1="-35.622715" x2="25.401121" y2="-31.648474" />
        <radialGradient inkscape:collect="always" xlink:href="#linearGradient3872-8-5-0" id="radialGradient4076" gradientUnits="userSpaceOnUse" gradientTransform="matrix(0.35871681,2.6368254e-8,-2.4012587e-8,0.50492568,-1.2545,25.710723)" cx="17.061928" cy="22.215902" fx="17.061928" fy="22.215902" r="5.6176791" />
        <linearGradient x1="45.447727" y1="92.539597" x2="45.447727" y2="7.0165396" id="ButtonShadow-93" gradientUnits="userSpaceOnUse" gradientTransform="scale(1.0058652,0.994169)">
            <stop id="stop3750-36" style="stop-color:#000000;stop-opacity:1" offset="0" />
            <stop id="stop3752-27" style="stop-color:#000000;stop-opacity:0.58823532" offset="1" />
        </linearGradient>
        <filter color-interpolation-filters="sRGB" id="filter3174-1">
            <feGaussianBlur id="feGaussianBlur3176-9" stdDeviation="1.71" />
        </filter>
        <linearGradient inkscape:collect="always" xlink:href="#linearGradient3829-2-2-9" id="linearGradient3256-6" gradientUnits="userSpaceOnUse" gradientTransform="matrix(0.37338618,0,0,0.37338623,-1.1148086,31.732909)" x1="24" y1="2" x2="24" y2="44" />
        <linearGradient id="linearGradient3829-2-2-9">
            <stop style="stop-color:gray;stop-opacity:1;" offset="0" id="stop3831-7-9-6" />
            <stop style="stop-color:#3c3c3c;stop-opacity:1;" offset="1" id="stop3833-7-0-7" />
        </linearGradient>
    </defs>
    <sodipodi:namedview id="base" pagecolor="#ffffff" bordercolor="#666666" borderopacity="1.0" inkscape:pageopacity="0.0" inkscape:pageshadow="2" inkscape:zoom="16.000001" inkscape:cx="8.5679417" inkscape:cy="13.370442" inkscape:current-layer="layer1" showgrid="true" inkscape:grid-bbox="true" inkscape:document-units="px" inkscape:window-width="873" inkscape:window-height="914" inkscape:window-x="0" inkscape:window-y="0" inkscape:window-maximized="0" inkscape:snap-to-guides="false" inkscape:snap-grids="true" inkscape:snap-bbox="true" inkscape:snap-page="true">
        <inkscape:grid type="xygrid" id="grid1021" empspacing="5" visible="true" enabled="true" snapvisiblegridlinesonly="true" />
    </sodipodi:namedview>
    <metadata id="metadata4705">
        <rdf:RDF>
            <cc:Work rdf:about="">
                <dc:format>image/svg+xml</dc:format>
                <dc:type rdf:resource="http://purl.org/dc/dcmitype/StillImage" />
                <dc:title />
            </cc:Work>
        </rdf:RDF>
    </metadata>
    <g id="layer1" inkscape:label="Layer 1" inkscape:groupmode="layer" transform="translate(0,-32)">
        <g id="layer2" style="display:none" transform="translate(5.204491,-179.6879)">
            <rect width="86" height="85" rx="6" ry="6" x="5" y="7" id="rect3745" style="opacity:0.9;fill:url(#ButtonShadow);fill-opacity:1;fill-rule:nonzero;stroke:none;filter:url(#filter3174)" />
        </g>
        <g id="layer4" transform="translate(5.204491,-179.6879)" />
        <rect style="color:black;fill:url(#linearGradient3100-7);fill-opacity:1;fill-rule:evenodd;stroke:none;stroke-width:1;marker:none;visibility:visible;display:inline;overflow:visible;enable-background:accumulate" id="rect3154" y="33" x="1" ry="1.5" height="14" width="14" rx="1.5" />
        <path style="color:black;fill:url(#linearGradient3246-2);fill-opacity:1;fill-rule:nonzero;stroke:none;stroke-width:1;marker:none;visibility:visible;display:inline;overflow:visible;enable-background:accumulate" inkscape:connector-curvature="0" d="m 15,42.574131 0,2.99998 -14,0 0,-4 c 5,-3 11.02945,0.678569 14,0.99998 z" id="path46" sodipodi:nodetypes="cccccc" />
        <path style="fill:#ffff85;fill-opacity:1;fill-rule:evenodd;stroke:none" inkscape:connector-curvature="0" d="m 13,37.5 a 1.5,1.5 0 0 1 -3,0 1.5,1.5 0 1 1 3,0 z" id="path58" />
        <path style="color:black;fill:#2f1d07;fill-opacity:1;fill-rule:nonzero;stroke:none;stroke-width:1;marker:none;visibility:visible;display:inline;overflow:visible;enable-background:accumulate" d="m 4.325305,38.590756 c 0.4328407,0.442052 0.4532444,1.235961 0.1338062,1.740187 -0.1479205,0.191146 -1.0548137,0.489195 -0.4010856,0.44617 0.2756989,-0.166428 0.2258657,0.203114 0.198491,0.09103 0.3337594,-0.245925 0.65283,0.104051 0.976548,-0.101027 0.4483864,0.180406 0.764949,-0.242407 1.2607268,-0.104498 0.451788,-0.07958 -0.567979,-0.08342 -0.7282522,-0.27057 C 5.4252934,40.028793 5.396599,39.353827 5.5894855,38.90403 6.2218997,38.615648 5.9115864,37.839453 5.3763058,37.644117 4.9306815,37.319468 3.8943336,37.616655 4.2479855,38.271372 c 0.056825,0.09177 0.1401871,0.207702 0.077319,0.319384 z" id="path54" inkscape:connector-curvature="0" />
        <path style="color:black;fill:url(#radialGradient4076);fill-opacity:1;fill-rule:nonzero;stroke:none;stroke-width:1;marker:none;visibility:visible;display:inline;overflow:visible;enable-background:accumulate" d="m 4.939782,35.846357 c -0.5926035,0.09436 -1.1381682,0.08129 -1.5201854,0.649436 -0.068033,0.580152 -1.1035998,0.239912 -0.7708787,0.936888 0.2392289,0.616916 -0.3502172,1.277625 0.078174,1.854312 0.2933842,0.505643 1.0494292,0.402613 1.4714812,0.135257 0.1834256,-0.391438 0.4165197,-0.950024 0.8529246,-0.849887 0.2015167,0.05319 0.6760967,0.156065 0.5531646,0.423171 0.5065336,-0.01964 0.4827331,0.318259 0.6228044,0.639596 0.5126659,0.259961 0.7382475,-0.586521 1.2263015,-0.2324 0.3786113,-0.216834 -0.00275,-0.770238 0.3009166,-1.12811 C 7.4835705,37.791264 7.3027751,37.221023 7.0478747,36.699462 6.9772963,36.069386 5.9903926,36.613915 5.9705645,35.991261 5.5567926,36.122018 5.3159365,35.861369 4.939782,35.846357 z" id="path56" inkscape:connector-curvature="0" />
        <g id="layer2-3" style="display:none" transform="matrix(0.75732562,0,0,0.75732562,19.796963,-122.574)">
            <rect width="86" height="85" rx="7.922616" ry="7.922616" x="5" y="7" id="rect3745-0" style="opacity:0.9;fill:url(#linearGradient3140);fill-opacity:1;fill-rule:nonzero;stroke:none;filter:url(#filter3174-3)" />
        </g>
        <g id="layer4-0" transform="matrix(0.75732562,0,0,0.75732562,19.796963,-122.574)" />
        <g id="layer2-0" style="display:none" transform="matrix(0.75732562,0,0,0.75732562,39.914849,-114.65702)">
            <rect width="86" height="85" rx="7.922616" ry="7.922616" x="5" y="7" id="rect3745-7" style="opacity:0.9;fill:url(#linearGradient3138);fill-opacity:1;fill-rule:nonzero;stroke:none;filter:url(#filter3174-4)" />
        </g>
        <g id="layer4-3" transform="matrix(0.75732562,0,0,0.75732562,39.914849,-114.65702)" />
        <g id="layer2-1" style="display:none" transform="matrix(0.75732562,0,0,0.75732562,82.41975,-112.43409)">
            <rect width="86" height="85" rx="7.922616" ry="7.922616" x="5" y="7" id="rect3745-1" style="opacity:0.9;fill:url(#linearGradient3136);fill-opacity:1;fill-rule:nonzero;stroke:none;filter:url(#filter3174-2)" />
        </g>
        <g id="layer4-8" transform="matrix(0.75732562,0,0,0.75732562,82.41975,-112.43409)" />
        <g id="layer2-07" style="display:none" transform="matrix(0.99999504,0,0,1,24.76702,-177.7504)">
            <rect width="86" height="85" rx="6.0000296" ry="6" x="5" y="7" id="rect3745-2" style="opacity:0.9;fill:url(#ButtonShadow-6);fill-opacity:1;fill-rule:nonzero;stroke:none;filter:url(#filter3174-0)" />
        </g>
        <g id="layer4-2" transform="matrix(0.99999504,0,0,1,24.76702,-177.7504)" />
        <g id="layer2-2" style="display:none" transform="matrix(0.99999504,0,0,1,23.814616,-181.5484)">
            <rect width="86" height="85" rx="6.0000296" ry="6" x="5" y="7" id="rect3745-18" style="opacity:0.9;fill:url(#ButtonShadow-0);fill-opacity:1;fill-rule:nonzero;stroke:none;filter:url(#filter3174-6)" />
        </g>
        <g id="layer4-7" transform="matrix(0.99999504,0,0,1,23.814616,-181.5484)" />
        <path style="fill:url(#linearGradient3998);fill-opacity:1;fill-rule:evenodd;stroke:none" d="m 15,43 0,3 c 0,0.585298 -0.487625,1 -1,1 L 2,47 C 1.2583901,47 1,46.63079 1,46 l 0,-3 z" id="path4022" inkscape:connector-curvature="0" sodipodi:nodetypes="ccscccc" />
        <path transform="translate(-9,27)" d="m 14,19 c 0,0.552285 -0.447715,1 -1,1 -0.552285,0 -1,-0.447715 -1,-1 0,-0.552285 0.447715,-1 1,-1 0.552285,0 1,0.447715 1,1 z" sodipodi:ry="1" sodipodi:rx="1" sodipodi:cy="19" sodipodi:cx="13" id="path4237" style="opacity:0.62999998;color:black;fill:white;fill-opacity:1;fill-rule:nonzero;stroke:none;stroke-width:0.66666669;marker:none;visibility:visible;display:inline;overflow:visible;enable-background:accumulate" sodipodi:type="arc" />
        <path sodipodi:type="arc" style="opacity:0.62999998;color:black;fill:url(#linearGradient4147-1);fill-opacity:1;fill-rule:nonzero;stroke:none;stroke-width:1;marker:none;visibility:visible;display:inline;overflow:visible;enable-background:accumulate" id="path4149" sodipodi:cx="13" sodipodi:cy="19" sodipodi:rx="1" sodipodi:ry="1" d="m 14,19 c 0,0.552285 -0.447715,1 -1,1 -0.552285,0 -1,-0.447715 -1,-1 0,-0.552285 0.447715,-1 1,-1 0.552285,0 1,0.447715 1,1 z" transform="translate(-9,26)" />
        <path sodipodi:nodetypes="ccscccc" inkscape:connector-curvature="0" id="path4017" d="m 15,35 0,-1 c 0,-0.585298 -0.487625,-1 -1,-1 L 2,33 c -0.7416099,0 -1,0.36921 -1,1 l 0,1 z" style="fill:url(#linearGradient4019);fill-opacity:1;fill-rule:evenodd;stroke:none" />
        <path sodipodi:type="arc" style="opacity:0.62999998;color:black;fill:white;fill-opacity:1;fill-rule:nonzero;stroke:none;stroke-width:0.66666669;marker:none;visibility:visible;display:inline;overflow:visible;enable-background:accumulate" id="path4042" sodipodi:cx="13" sodipodi:cy="19" sodipodi:rx="1" sodipodi:ry="1" d="m 14,19 c 0,0.552285 -0.447715,1 -1,1 -0.552285,0 -1,-0.447715 -1,-1 0,-0.552285 0.447715,-1 1,-1 0.552285,0 1,0.447715 1,1 z" transform="translate(-5,27)" />
        <path transform="translate(-5,26)" d="m 14,19 c 0,0.552285 -0.447715,1 -1,1 -0.552285,0 -1,-0.447715 -1,-1 0,-0.552285 0.447715,-1 1,-1 0.552285,0 1,0.447715 1,1 z" sodipodi:ry="1" sodipodi:rx="1" sodipodi:cy="19" sodipodi:cx="13" id="path4044" style="opacity:0.62999998;color:black;fill:url(#linearGradient4046);fill-opacity:1;fill-rule:nonzero;stroke:none;stroke-width:1;marker:none;visibility:visible;display:inline;overflow:visible;enable-background:accumulate" sodipodi:type="arc" />
        <path transform="translate(-1,27)" d="m 14,19 c 0,0.552285 -0.447715,1 -1,1 -0.552285,0 -1,-0.447715 -1,-1 0,-0.552285 0.447715,-1 1,-1 0.552285,0 1,0.447715 1,1 z" sodipodi:ry="1" sodipodi:rx="1" sodipodi:cy="19" sodipodi:cx="13" id="path4048" style="opacity:0.62999998;color:black;fill:white;fill-opacity:1;fill-rule:nonzero;stroke:none;stroke-width:0.66666669;marker:none;visibility:visible;display:inline;overflow:visible;enable-background:accumulate" sodipodi:type="arc" />
        <path sodipodi:type="arc" style="opacity:0.62999998;color:black;fill:url(#linearGradient4052);fill-opacity:1;fill-rule:nonzero;stroke:none;stroke-width:1;marker:none;visibility:visible;display:inline;overflow:visible;enable-background:accumulate" id="path4050" sodipodi:cx="13" sodipodi:cy="19" sodipodi:rx="1" sodipodi:ry="1" d="m 14,19 c 0,0.552285 -0.447715,1 -1,1 -0.552285,0 -1,-0.447715 -1,-1 0,-0.552285 0.447715,-1 1,-1 0.552285,0 1,0.447715 1,1 z" transform="translate(-1,26)" />
        <g id="layer2-4" style="display:none" transform="matrix(0.99999504,0,0,1,24.204469,-176.68788)">
            <rect width="86" height="85" rx="6.0000296" ry="6" x="5" y="7" id="rect3745-5" style="opacity:0.9;fill:url(#ButtonShadow-93);fill-opacity:1;fill-rule:nonzero;stroke:none;filter:url(#filter3174-1)" />
        </g>
        <g id="layer4-73" transform="matrix(0.99999504,0,0,1,24.204469,-176.68788)" />
        <rect style="color:black;fill:none;stroke:url(#linearGradient3256-6);stroke-width:1;stroke-linecap:butt;stroke-linejoin:miter;stroke-miterlimit:4;stroke-opacity:1;stroke-dasharray:none;stroke-dashoffset:0;marker:none;visibility:visible;display:inline;overflow:visible;enable-background:accumulate" id="rect3874" width="15" height="15" x="0.5" y="32.5" ry="2" rx="2" />
    </g>
</svg>
