<?xml version="1.0" encoding="UTF-8" standalone="no"?>
<!-- Created with Inkscape (http://www.inkscape.org/) -->

<svg xmlns:dc="http://purl.org/dc/elements/1.1/" xmlns:cc="http://creativecommons.org/ns#" xmlns:rdf="http://www.w3.org/1999/02/22-rdf-syntax-ns#" xmlns:svg="http://www.w3.org/2000/svg" xmlns="http://www.w3.org/2000/svg" xmlns:xlink="http://www.w3.org/1999/xlink" xmlns:sodipodi="http://sodipodi.sourceforge.net/DTD/sodipodi-0.dtd" xmlns:inkscape="http://www.inkscape.org/namespaces/inkscape" width="16" height="16" id="svg3448" version="1.1" inkscape:version="0.48.4 r9939" sodipodi:docname="inkscape.svg">
    <defs id="defs3450">
        <linearGradient inkscape:collect="always" xlink:href="#linearGradient5116" id="linearGradient7198" gradientUnits="userSpaceOnUse" gradientTransform="matrix(0.3760735,0,0,0.3755168,37.213419,1035.4426)" x1="23.336372" y1="2.3363733" x2="23.336372" y2="45.005161" />
        <linearGradient id="linearGradient5116">
            <stop style="stop-color:#3397aa;stop-opacity:1;" offset="0" id="stop5118" />
            <stop style="stop-color:#205b6a;stop-opacity:1;" offset="1" id="stop5120" />
        </linearGradient>
        <clipPath id="clipPath4349" clipPathUnits="userSpaceOnUse">
            <rect style="color:black;fill:black;fill-opacity:1;fill-rule:nonzero;stroke:none;stroke-width:1;marker:none;visibility:visible;display:inline;overflow:visible;enable-background:accumulate" id="rect4351" width="21.249046" height="21.044142" x="-38.249046" y="1030.3181" ry="1.5409786" rx="1.5559828" />
        </clipPath>
        <linearGradient id="linearGradient5899-9">
            <stop offset="0" style="stop-color:#ffffff;stop-opacity:1" id="stop5901-9" />
            <stop offset="1" style="stop-color:#ffffff;stop-opacity:0" id="stop5903-3" />
        </linearGradient>
        <linearGradient gradientUnits="userSpaceOnUse" id="WhiteTransparent-3">
            <stop offset="0" style="stop-color:#ffffff;stop-opacity:1" id="stop7606-1" />
            <stop offset="1" style="stop-color:#ffffff;stop-opacity:0" id="stop7608-8" />
        </linearGradient>
        <linearGradient inkscape:collect="always" xlink:href="#WhiteTransparent-3" id="linearGradient3945" gradientUnits="userSpaceOnUse" gradientTransform="matrix(0.22027124,0,0,0.21814715,-38.827801,1029.388)" x1="30.997242" y1="37.310387" x2="46.037903" y2="52.497498" />
        <linearGradient inkscape:collect="always" xlink:href="#linearGradient5899-9" id="linearGradient3949" gradientUnits="userSpaceOnUse" gradientTransform="matrix(0.10658109,0,0,0.10555332,-40.565132,1028.2636)" x1="95.5" y1="208.16444" x2="153.5" y2="223.5" />
        <linearGradient inkscape:collect="always" xlink:href="#linearGradient5116" id="linearGradient3953" gradientUnits="userSpaceOnUse" gradientTransform="matrix(0.3760735,0,0,0.3755168,37.213419,1035.4426)" x1="23.336372" y1="2.3363733" x2="23.336372" y2="45.005161" />
    </defs>
    <sodipodi:namedview id="base" pagecolor="#ffffff" bordercolor="#666666" borderopacity="1.0" inkscape:pageopacity="0.0" inkscape:pageshadow="2" inkscape:zoom="15.839192" inkscape:cx="16.204343" inkscape:cy="10.597322" inkscape:document-units="px" inkscape:current-layer="capa1" showgrid="true" inkscape:window-width="1280" inkscape:window-height="976" inkscape:window-x="0" inkscape:window-y="24" inkscape:window-maximized="1" inkscape:snap-page="true" inkscape:snap-center="true" inkscape:snap-object-midpoints="true">
        <inkscape:grid type="xygrid" id="grid3023" />
    </sodipodi:namedview>
    <metadata id="metadata3453">
        <rdf:RDF>
            <cc:Work rdf:about="">
                <dc:format>image/svg+xml</dc:format>
                <dc:type rdf:resource="http://purl.org/dc/dcmitype/StillImage" />
                <dc:title />
            </cc:Work>
        </rdf:RDF>
    </metadata>
    <g inkscape:label="Capa 1" inkscape:groupmode="layer" id="capa1" transform="translate(0,-1036.3622)">
        <rect style="fill:#a1e4ed;stroke:url(#linearGradient7198);stroke-width:0.99921238000000001;stroke-linecap:butt;stroke-linejoin:miter;stroke-miterlimit:4;stroke-opacity:1;stroke-dasharray:none;stroke-dashoffset:0;marker:none;visibility:visible;display:inline;overflow:visible;enable-background:accumulate;fill-opacity:1" id="rect3874-8" width="15.000788" height="15.000788" x="0.49960616" y="1036.8618" ry="1.9969451" rx="1.9999056" />
        <g transform="matrix(0.13829173,-0.03007045,0.03678814,0.10843189,-14.665476,1042.2875)" id="g9018" />
        <path style="color:black;fill:#205c6b;fill-opacity:1;fill-rule:nonzero;stroke:none;stroke-width:1;marker:none;visibility:visible;display:inline;overflow:visible;enable-background:accumulate" d="M 3 0.96875 L 3 14.96875 L 4 14.96875 L 4 0.96875 L 3 0.96875 z M 7 1 L 7 15 L 8 15 L 8 1 L 7 1 z M 11 1 L 11 15 L 12 15 L 12 1 L 11 1 z " transform="translate(0,1036.3622)" id="rect3936" />
        <path id="path3943" d="m 1,1048.3622 14,0 0,-1 -14,0 0,1 z m 0.03125,-4 14,0 0,-1 -14,0 0,1 z m 0,-4 14,0 0,-1 -14,0 0,1 z" style="color:black;fill:#205c6b;fill-opacity:1;fill-rule:nonzero;stroke:none;stroke-width:1;marker:none;visibility:visible;display:inline;overflow:visible;enable-background:accumulate" inkscape:connector-curvature="0" />
        <g id="g4336" transform="matrix(0.72079632,0,0,0.72079632,28.169464,294.52651)" clip-path="url(#clipPath4349)">
            <path style="fill:black;fill-opacity:1;stroke:none" id="use7631" d="m -26.934651,1032.1728 -8.992588,9.122 c -3.40496,3.3722 2.204494,3.0912 4.234373,4.3665 0.938548,0.6053 -3.01208,1.3835 -2.204492,2.1833 0.785759,0.7998 4.736385,1.5347 5.522146,2.3129 0.785761,0.7998 -1.593347,1.6428 -0.807586,2.4426 0.763933,0.7998 2.597373,0.043 2.924773,1.859 0.240094,1.3402 3.361308,0.6701 4.758215,-0.4755 0.873066,-0.735 -1.50604,-0.735 -0.720281,-1.5348 1.964401,-1.9671 3.710534,-0.8863 4.430813,-2.702 0.392882,-0.9728 -2.968427,-1.6645 -2.073533,-2.2913 2.139015,-1.4916 9.9966138,-2.2481 6.373387,-5.8364 l -9.319988,-9.4463 c -1.156812,-1.0808 -3.055732,-1.0808 -4.125239,0 z" inkscape:connector-curvature="0" sodipodi:nodetypes="cccccccccccccc" />
            <path style="fill:none" id="use7639" d="m -26.934651,1032.1728 -8.992588,9.122 c -3.40496,3.3722 2.204494,3.0912 4.234373,4.3665 0.938548,0.6053 -3.01208,1.3835 -2.204492,2.1833 0.785759,0.7998 4.736385,1.5347 5.522146,2.3129 0.785761,0.7998 -1.593347,1.6428 -0.807586,2.4426 0.763933,0.7998 2.597373,0.043 2.924773,1.859 0.240094,1.3402 3.361308,0.6701 4.758215,-0.4755 0.873066,-0.735 -1.50604,-0.735 -0.720281,-1.5348 1.964401,-1.9671 3.710534,-0.8863 4.430813,-2.702 0.392882,-0.9728 -2.968427,-1.6645 -2.073533,-2.2913 2.139015,-1.4916 9.9966138,-2.2481 6.373387,-5.8364 l -9.319988,-9.4463 c -1.156812,-1.0808 -3.055732,-1.0808 -4.125239,0 z m 10.324013,17.574 c 0,0.4539 3.557747,0.7133 3.361309,-0.1081 -0.283749,-1.3834 -2.968427,-1.2754 -3.361309,0.1081 z m -15.169534,2.3994 c 0.807587,0.6917 2.029879,-0.1513 2.422761,-1.1241 -0.785761,-1.0159 -3.688708,0.065 -2.422761,1.1241 z m 14.733001,-1.4483 c -1.004025,0.9079 0.174613,1.859 1.156815,1.2321 0.261918,-0.1729 -0.02183,-1.0159 -1.156815,-1.2321 z" inkscape:connector-curvature="0" />
            <path style="fill:url(#linearGradient3945);stroke:none" id="path7643" d="m -35.127244,1041.8005 c -2.445011,2.3996 1.850277,1.7234 5.154348,3.0105 l 6.828407,-11.8891 c -1.035274,-1.0471 -2.356903,-0.9598 -3.304068,0 l -8.678687,8.8786 z" inkscape:connector-curvature="0" />
            <path style="fill:white;fill-opacity:1;fill-rule:nonzero;stroke:none" id="icecap" d="m -23.355078,1032.8213 3.557747,3.5883 c 0.3274,0.3242 4.301325,2.4909 2.913971,2.4909 l -4.900198,-0.6319 -1.462387,-0.7782 -2.379106,1.4915 -0.785761,-3.1343 -1.265946,2.7236 -3.164868,-0.022 c -0.611146,0 -0.52384,-0.6269 0.109134,-1.2537 1.24412,-1.3619 3.66688,-3.6748 4.430813,-4.4746 0.785761,-0.7998 2.160842,-0.7782 2.946601,0 z" inkscape:connector-curvature="0" sodipodi:nodetypes="ccccccccccccc" />
            <path sodipodi:nodetypes="cccccsccc" style="opacity:0.5;fill:url(#linearGradient3949);fill-opacity:1;fill-rule:evenodd;stroke:none" id="path5897" d="m -30.260369,1046.4818 c -0.542563,0.1586 -2.054929,0.4561 -2.177955,1.0037 -0.182867,0.8136 4.32505,1.1773 5.059519,2.5611 0.631345,1.1894 -1.110322,1.532 -0.881985,2.1755 0.17583,0.4956 2.51333,0.014 3.51333,2.0139 0.494336,0.6515 0.823578,-0.6876 0.462589,-1.3785 -0.5751,-1.1007 1.965639,-2.4488 3.117497,-3.0611 0.672019,-0.3572 -1.385554,-2.111 -1.385554,-2.111 z" inkscape:connector-curvature="0" />
        </g>
        <rect rx="1.9999056" ry="1.9969451" y="1036.8618" x="0.49960709" height="15.000788" width="15.000788" id="rect3951" style="fill:none;stroke:url(#linearGradient3953);stroke-width:0.99921238;stroke-linecap:butt;stroke-linejoin:miter;stroke-miterlimit:4;stroke-opacity:1;stroke-dasharray:none;stroke-dashoffset:0;marker:none;visibility:visible;display:inline;overflow:visible;enable-background:accumulate" />
    </g>
    <style id="style26" type="text/css" />
</svg>
