<?xml version="1.0" encoding="UTF-8" standalone="no"?>
<svg xmlns:dc="http://purl.org/dc/elements/1.1/" xmlns:cc="http://creativecommons.org/ns#" xmlns:rdf="http://www.w3.org/1999/02/22-rdf-syntax-ns#" xmlns:svg="http://www.w3.org/2000/svg" xmlns="http://www.w3.org/2000/svg" xmlns:xlink="http://www.w3.org/1999/xlink" xmlns:sodipodi="http://sodipodi.sourceforge.net/DTD/sodipodi-0.dtd" xmlns:inkscape="http://www.inkscape.org/namespaces/inkscape" viewBox="0 0 16 16" id="svg3166" version="1.1" inkscape:version="0.48.3.1 r9886" width="100%" height="100%" sodipodi:docname="system-search.svg">
  <metadata id="metadata3176">
    <rdf:RDF>
      <cc:Work rdf:about="">
        <dc:format>image/svg+xml</dc:format>
        <dc:type rdf:resource="http://purl.org/dc/dcmitype/StillImage" />
      </cc:Work>
    </rdf:RDF>
  </metadata>
  <defs id="defs3174">
    <linearGradient inkscape:collect="always" xlink:href="#linearGradient1022-7-1" id="linearGradient4055-8" gradientUnits="userSpaceOnUse" gradientTransform="matrix(0,1.052632,0.984363,0,0.036298,40.739386)" y1="-0.06157" x2="0" y2="8.08321" />
    <linearGradient y2="8.08321" y1="-0.06157" x2="0" id="linearGradient1022-7-1" gradientUnits="userSpaceOnUse" gradientTransform="matrix(0,1.052632,0.984363,0,3.067548,39.665556)">
      <stop id="stop7-9" offset="0" />
      <stop id="stop9-0" stop-color="#363636" offset="1" />
    </linearGradient>
  </defs>
  <sodipodi:namedview pagecolor="#ffffff" bordercolor="#666666" borderopacity="1" objecttolerance="10" gridtolerance="10" guidetolerance="10" inkscape:pageopacity="0" inkscape:pageshadow="2" inkscape:window-width="640" inkscape:window-height="480" id="namedview3172" showgrid="true" inkscape:zoom="14.75" inkscape:cx="10.983051" inkscape:cy="8.7190402" inkscape:window-x="0" inkscape:window-y="24" inkscape:window-maximized="0" inkscape:current-layer="svg3166">
    <inkscape:grid type="xygrid" id="grid4026" />
  </sodipodi:namedview>
  <path id="path4091" d="m 6,0.9993672 c -2.7502441,0 -5,2.249756 -5,5 0,2.750244 2.249756,4.9999998 5,4.9999998 0.8797064,0 1.6862044,-0.253136 2.40625,-0.65625 l 5.21875,5.5 c 0.09497,0.10582 0.25739,0.16365 0.40625,0.15625 0.14886,-0.0074 0.27117,-0.07179 0.375,-0.1875 l 0.96875,-1.0625 c 0.19322,-0.21977 0.19442,-0.5348 0,-0.71875 L 10.03125,8.9056172 C 10.632447,8.0803767 11,7.0927019 11,5.9993672 c 0,-2.750244 -2.2497559,-5 -5,-5 z m 0,1.875 c 1.7302559,0 3.125,1.394744 3.125,3.125 0,1.730256 -1.394744,3.125 -3.125,3.125 -1.730256,0 -3.125,-1.394744 -3.125,-3.125 0,-1.730256 1.3947441,-3.125 3.125,-3.125 z" style="opacity:0.59999999999999998;color:#000000;fill:#ffffff;fill-opacity:1;fill-rule:evenodd;stroke-width:1;stroke-linecap:butt;stroke-linejoin:miter;stroke-miterlimit:4;stroke-opacity:1;stroke-dasharray:none;stroke-dashoffset:0;marker:none;visibility:visible;display:inline;overflow:visible;enable-background:accumulate" inkscape:connector-curvature="0" />
  <path style="fill:url(#linearGradient4055-8);fill-rule:nonzero;opacity:0.69999999999999996;color:#000000;fill-opacity:1;stroke-width:1;stroke-linecap:butt;stroke-linejoin:miter;stroke-miterlimit:4;stroke-opacity:1;stroke-dasharray:none;stroke-dashoffset:0;marker:none;visibility:visible;display:inline;overflow:visible;enable-background:accumulate" d="M 6 0 C 3.2497559 0 1 2.249756 1 5 C 1 7.750244 3.249756 10 6 10 C 6.8797064 10 7.6862044 9.7468635 8.40625 9.34375 L 13.625 14.84375 C 13.71997 14.94957 13.88239 15.0074 14.03125 15 C 14.18011 14.9926 14.30242 14.92821 14.40625 14.8125 L 15.375 13.75 C 15.56822 13.53023 15.56942 13.2152 15.375 13.03125 L 10.03125 7.90625 C 10.632447 7.0810095 11 6.0933347 11 5 C 11 2.249756 8.7502441 0 6 0 z M 6 1.875 C 7.7302559 1.875 9.125 3.269744 9.125 5 C 9.125 6.730256 7.730256 8.125 6 8.125 C 4.269744 8.125 2.875 6.730256 2.875 5 C 2.875 3.269744 4.2697441 1.875 6 1.875 z " id="path3168" />
</svg>
