<?xml version="1.0" encoding="UTF-8" standalone="no"?>
<svg xmlns:dc="http://purl.org/dc/elements/1.1/" xmlns:cc="http://creativecommons.org/ns#" xmlns:rdf="http://www.w3.org/1999/02/22-rdf-syntax-ns#" xmlns:svg="http://www.w3.org/2000/svg" xmlns="http://www.w3.org/2000/svg" xmlns:xlink="http://www.w3.org/1999/xlink" xmlns:sodipodi="http://sodipodi.sourceforge.net/DTD/sodipodi-0.dtd" xmlns:inkscape="http://www.inkscape.org/namespaces/inkscape" viewBox="0 0 16 16" id="svg2" version="1.1" inkscape:version="0.48.4 r9939" width="100%" height="100%" sodipodi:docname="lxkeymap.svg">
    <metadata id="metadata47">
        <rdf:RDF>
            <cc:Work rdf:about="">
                <dc:format>image/svg+xml</dc:format>
                <dc:type rdf:resource="http://purl.org/dc/dcmitype/StillImage" />
            </cc:Work>
        </rdf:RDF>
    </metadata>
    <sodipodi:namedview pagecolor="#ffffff" bordercolor="#666666" borderopacity="1" objecttolerance="10" gridtolerance="10" guidetolerance="10" inkscape:pageopacity="0" inkscape:pageshadow="2" inkscape:window-width="640" inkscape:window-height="480" id="namedview45" showgrid="false" inkscape:zoom="14.75" inkscape:cx="8" inkscape:cy="8" inkscape:window-x="0" inkscape:window-y="24" inkscape:window-maximized="0" inkscape:current-layer="svg2" />
    <defs id="defs4">
        <linearGradient id="linearGradient5582-8">
            <stop offset="0" stop-color="#f1f1ef" id="stop7" />
            <stop offset="1" stop-color="#dcdfd8" id="stop9" />
        </linearGradient>
        <linearGradient id="linearGradient5554-2">
            <stop offset="0" stop-color="#5b5c58" id="stop12" />
            <stop offset="1" stop-color="#a5a7a2" id="stop14" />
        </linearGradient>
        <linearGradient id="linearGradient3893-8">
            <stop offset="0" stop-color="#fff" stop-opacity="0" id="stop17" />
            <stop offset="1" stop-color="#fff" id="stop19" />
        </linearGradient>
        <linearGradient inkscape:collect="always" xlink:href="#linearGradient3893-8" id="linearGradient3027" gradientUnits="userSpaceOnUse" y1="38.65317" x2="0" y2="46.5" gradientTransform="translate(0,-32)" />
        <radialGradient inkscape:collect="always" xlink:href="#linearGradient5582-8" id="radialGradient3030" gradientUnits="userSpaceOnUse" gradientTransform="matrix(0.469698,0,-6.9439518e-7,0.52564,7.82808,22.211506)" cx="1.47353" cy="-13.31115" r="9.99092" />
        <linearGradient inkscape:collect="always" xlink:href="#linearGradient5554-2" id="linearGradient3032" gradientUnits="userSpaceOnUse" y1="47.92892" x2="0" y2="37.21464" gradientTransform="translate(0,-32)" />
        <linearGradient inkscape:collect="always" xlink:href="#linearGradient3893-8" id="linearGradient3037" gradientUnits="userSpaceOnUse" y1="33.65318" x2="0" y2="41.50001" gradientTransform="translate(0,-32)" />
        <radialGradient inkscape:collect="always" xlink:href="#linearGradient5582-8" id="radialGradient3040" gradientUnits="userSpaceOnUse" gradientTransform="matrix(0.469698,0,-6.9439518e-7,0.52564,2.828082,17.211513)" cx="1.47353" cy="-13.31115" r="9.99092" />
        <linearGradient inkscape:collect="always" xlink:href="#linearGradient5554-2" id="linearGradient3042" gradientUnits="userSpaceOnUse" y1="42.92891" x2="0" y2="32.21463" gradientTransform="translate(0,-32)" />
    </defs>
    <path inkscape:connector-curvature="0" style="fill:url(#radialGradient3040);stroke:url(#linearGradient3042);stroke-linecap:round" id="path29" d="m 1.5,0.5 h 8 a 1,1 0 0 1 1,1 v 8 a 1,1 0 0 1 -1,1 h -8 a 1,1 0 0 1 -1,-1 v -8 a 1,1 0 0 1 1,-1" />
    <path inkscape:connector-curvature="0" style="fill:url(#linearGradient3037);fill-rule:evenodd;stroke:#ffffff" id="path31" d="M 1.6,1.5 H 9.4 A 0.1,0.1 0 0 1 9.5,1.6 V 9.4 A 0.1,0.1 0 0 1 9.4,9.5 H 1.6 A 0.1,0.1 0 0 1 1.5,9.4 V 1.6 A 0.1,0.1 0 0 1 1.6,1.5" />
    <text style="font-size:9.42237663px;letter-spacing:0;word-spacing:0;font-family:Ubuntu" id="text33" y="9.6962843" xml:space="preserve" x="1.1772971" word-spacing="0" transform="scale(1.0799568,0.92596296)" letter-spacing="0" font-size="9.422"><tspan id="tspan35" y="9.6962843" x="1.1772971">あ</tspan></text>
    <path inkscape:connector-curvature="0" style="fill:url(#radialGradient3030);stroke:url(#linearGradient3032);stroke-linecap:round" id="path37" d="m 6.5,5.49999 h 8 a 1,1 0 0 1 1,1 v 8 a 1,1 0 0 1 -1,1 h -8 a 1,1 0 0 1 -1,-1 v -8 a 1,1 0 0 1 1,-1" />
    <path inkscape:connector-curvature="0" style="fill:url(#linearGradient3027);fill-rule:evenodd;stroke:#ffffff" id="path39" d="m 6.6,6.5 h 7.8 a 0.1,0.1 0 0 1 0.1,0.1 v 7.8 a 0.1,0.1 0 0 1 -0.1,0.1 H 6.6 A 0.1,0.1 0 0 1 6.5,14.4 V 6.6 A 0.1,0.1 0 0 1 6.6,6.5" />
    <g style="font-size:21.43099976px;letter-spacing:0;word-spacing:0;font-family:Bitstream Vera Sans" id="g41" word-spacing="0" transform="matrix(0.463622,0,0,0.432847,-3.651421,-2.874668)" letter-spacing="0" font-size="21.431">
        <path inkscape:connector-curvature="0" id="path43" d="M 35.18492,38.73358 C 34.94202,38.09064 34.71342,37.462 34.49912,36.84764 34.2848,36.21899 34.06334,35.5832 33.83475,34.94026 h -6.7294 l -1.35017,3.79332 h -2.16455 c 0.5715,-1.57162 1.10728,-3.0218 1.60734,-4.35053 0.50006,-1.34302 0.98583,-2.6146 1.45732,-3.81475 0.48577,-1.20014 0.9644,-2.34313 1.43589,-3.42899 0.47148,-1.10012 0.9644,-2.18597 1.47875,-3.25754 h 1.90738 c 0.51434,1.07157 1.00726,2.15742 1.47875,3.25754 0.47148,1.08586 0.94296,2.22885 1.41446,3.42899 0.48576,1.20015 0.97868,2.47174 1.47875,3.81475 0.50005,1.32874 1.03583,2.77891 1.60734,4.35053 H 35.1849 m -1.95024,-5.50782 c -0.45721,-1.243 -0.91441,-2.44315 -1.3716,-3.60044 -0.44292,-1.17156 -0.90726,-2.29313 -1.39303,-3.3647 -0.50007,1.07157 -0.9787,2.19313 -1.43589,3.3647 -0.44292,1.15729 -0.88583,2.35744 -1.32873,3.60044 h 5.52925" />
    </g>
</svg>
