<?xml version="1.0" encoding="UTF-8" standalone="no"?>
<!-- Created with Inkscape (http://www.inkscape.org/) -->

<svg xmlns:dc="http://purl.org/dc/elements/1.1/" xmlns:cc="http://creativecommons.org/ns#" xmlns:rdf="http://www.w3.org/1999/02/22-rdf-syntax-ns#" xmlns:svg="http://www.w3.org/2000/svg" xmlns="http://www.w3.org/2000/svg" xmlns:xlink="http://www.w3.org/1999/xlink" xmlns:sodipodi="http://sodipodi.sourceforge.net/DTD/sodipodi-0.dtd" xmlns:inkscape="http://www.inkscape.org/namespaces/inkscape" width="16" height="16" id="svg4700" version="1.1" inkscape:version="0.48.4 r9939" sodipodi:docname="utilities-system-monitor.svg">
    <defs id="defs4702">
        <filter id="filter3174" color-interpolation-filters="sRGB">
            <feGaussianBlur stdDeviation="1.71" id="feGaussianBlur3176" />
        </filter>
        <linearGradient gradientTransform="scale(1.0058652,0.994169)" gradientUnits="userSpaceOnUse" id="ButtonShadow" y2="7.0165396" x2="45.447727" y1="92.539597" x1="45.447727">
            <stop offset="0" style="stop-color:#000000;stop-opacity:1" id="stop3750" />
            <stop offset="1" style="stop-color:#000000;stop-opacity:0.58823532" id="stop3752" />
        </linearGradient>
        <filter id="filter3174-2" color-interpolation-filters="sRGB">
            <feGaussianBlur stdDeviation="1.71" id="feGaussianBlur3176-1" />
        </filter>
        <linearGradient gradientTransform="scale(1.0058652,0.994169)" gradientUnits="userSpaceOnUse" id="ButtonShadow-9" y2="7.0165396" x2="45.447727" y1="92.539597" x1="45.447727">
            <stop offset="0" style="stop-color:#000000;stop-opacity:1" id="stop3750-3" />
            <stop offset="1" style="stop-color:#000000;stop-opacity:0.58823532" id="stop3752-0" />
        </linearGradient>
        <linearGradient x1="45.447727" y1="92.539597" x2="45.447727" y2="7.0165396" id="ButtonShadow-91" gradientUnits="userSpaceOnUse" gradientTransform="scale(1.0058652,0.994169)">
            <stop id="stop3750-4" style="stop-color:#000000;stop-opacity:1" offset="0" />
            <stop id="stop3752-2" style="stop-color:#000000;stop-opacity:0.58823532" offset="1" />
        </linearGradient>
        <filter color-interpolation-filters="sRGB" id="filter3174-4">
            <feGaussianBlur id="feGaussianBlur3176-2" stdDeviation="1.71" />
        </filter>
        <linearGradient id="linearGradient3993-6-3">
            <stop id="stop3995-6-0" offset="0" style="stop-color:#407a7a;stop-opacity:1;" />
            <stop id="stop3997-3-5" offset="1" style="stop-color:#0a1414;stop-opacity:1;" />
        </linearGradient>
        <linearGradient id="linearGradient4079-4">
            <stop id="stop4081-4" offset="0" style="stop-color:#646464;stop-opacity:1;" />
            <stop id="stop4083-4" offset="1" style="stop-color:#000000;stop-opacity:1;" />
        </linearGradient>
        <linearGradient id="linearGradient4050-70">
            <stop style="stop-color:#ffffff;stop-opacity:1;" offset="0" id="stop4052-1" />
            <stop style="stop-color:#ffffff;stop-opacity:0;" offset="1" id="stop4054-04" />
        </linearGradient>
        <linearGradient inkscape:collect="always" xlink:href="#linearGradient4050-70" id="linearGradient3043" gradientUnits="userSpaceOnUse" gradientTransform="matrix(0.35243596,0,0,0.36513402,16.456867,31.814452)" x1="22.440199" y1="4.8942533" x2="22.440199" y2="38.21666" />
        <radialGradient inkscape:collect="always" xlink:href="#linearGradient3993-6-3" id="radialGradient3049" gradientUnits="userSpaceOnUse" gradientTransform="matrix(0.00654469,0,0,0.00630617,39.7761,38.701381)" cx="-4612.6758" cy="9.4496918" fx="-4612.6758" fy="9.4496918" r="1280" />
        <linearGradient inkscape:collect="always" xlink:href="#linearGradient4079-4" id="linearGradient3051" gradientUnits="userSpaceOnUse" gradientTransform="matrix(0.36852473,0,0,0.36851581,17.130048,31.598755)" x1="16.515474" y1="2.125" x2="16.515474" y2="43.626984" />
    </defs>
    <sodipodi:namedview id="base" pagecolor="#ffffff" bordercolor="#666666" borderopacity="1.0" inkscape:pageopacity="0.0" inkscape:pageshadow="2" inkscape:zoom="30.416668" inkscape:cx="11.483533" inkscape:cy="9.2940104" inkscape:current-layer="layer1" showgrid="true" inkscape:grid-bbox="true" inkscape:document-units="px" inkscape:window-width="1280" inkscape:window-height="976" inkscape:window-x="0" inkscape:window-y="24" inkscape:window-maximized="1" inkscape:snap-to-guides="false" inkscape:snap-grids="true" showguides="true" inkscape:guide-bbox="true">
        <inkscape:grid type="xygrid" id="grid1021" empspacing="5" visible="true" enabled="true" snapvisiblegridlinesonly="true" />
    </sodipodi:namedview>
    <metadata id="metadata4705">
        <rdf:RDF>
            <cc:Work rdf:about="">
                <dc:format>image/svg+xml</dc:format>
                <dc:type rdf:resource="http://purl.org/dc/dcmitype/StillImage" />
                <dc:title />
            </cc:Work>
        </rdf:RDF>
    </metadata>
    <g id="layer1" inkscape:label="Layer 1" inkscape:groupmode="layer" transform="translate(0,-32)">
        <g id="layer2" style="display:none" transform="translate(5.204491,-179.6879)">
            <rect width="86" height="85" rx="6" ry="6" x="5" y="7" id="rect3745" style="opacity:0.9;fill:url(#ButtonShadow);fill-opacity:1;fill-rule:nonzero;stroke:none;filter:url(#filter3174)" />
        </g>
        <g id="layer4" transform="translate(5.204491,-179.6879)" />
        <g id="layer2-0" style="display:none" transform="translate(31.768872,-169.23404)">
            <rect width="86" height="85" rx="6" ry="6" x="5" y="7" id="rect3745-7" style="opacity:0.9;fill:url(#ButtonShadow-91);fill-opacity:1;fill-rule:nonzero;stroke:none;filter:url(#filter3174-4)" />
        </g>
        <g id="layer4-3" transform="translate(31.768872,-169.23404)" />
        <g id="layer2-1" style="display:none" transform="translate(87.893873,-166.29881)">
            <rect width="86" height="85" rx="6" ry="6" x="5" y="7" id="rect3745-1" style="opacity:0.9;fill:url(#ButtonShadow-9);fill-opacity:1;fill-rule:nonzero;stroke:none;filter:url(#filter3174-2)" />
        </g>
        <g id="layer4-8" transform="translate(87.893873,-166.29881)" />
        <rect style="color:#000000;fill:url(#radialGradient3049);fill-opacity:1;fill-rule:nonzero;stroke:url(#linearGradient3051);stroke-width:0.99999994;stroke-linecap:butt;stroke-linejoin:miter;stroke-miterlimit:4;stroke-opacity:1;stroke-dasharray:none;stroke-dashoffset:0;marker:none;visibility:visible;display:inline;overflow:visible;enable-background:accumulate" id="rect3874" width="15" height="14.999637" x="0.50000036" y="32.500362" ry="2" rx="2" />
        <path style="color:#000000;fill:#ffffff;fill-opacity:0.1;fill-rule:nonzero;stroke:none;stroke-width:1;marker:none;visibility:visible;display:inline;overflow:visible;enable-background:accumulate" d="M 2 2 L 2 3 L 14 3 L 14 2 L 2 2 z M 2 4 L 2 5 L 14 5 L 14 4 L 2 4 z M 2 6 L 2 7 L 14 7 L 14 6 L 2 6 z M 2 8 L 2 9 L 14 9 L 14 8 L 2 8 z M 2 10 L 2 11 L 14 11 L 14 10 L 2 10 z M 2 12 L 2 13 L 14 13 L 14 12 L 2 12 z " transform="translate(0,32)" id="path3845" />
        <path style="font-size:medium;font-style:normal;font-variant:normal;font-weight:normal;font-stretch:normal;text-indent:0;text-align:start;text-decoration:none;line-height:normal;letter-spacing:normal;word-spacing:normal;text-transform:none;direction:ltr;block-progression:tb;writing-mode:lr-tb;text-anchor:start;baseline-shift:baseline;color:#000000;fill:#00ffff;fill-opacity:0.15;stroke:none;stroke-width:5;marker:none;visibility:visible;display:inline;overflow:visible;enable-background:accumulate;font-family:Sans;-inkscape-font-specification:Sans" d="M 8.3652388,36.109242 C 8.0771655,36.138932 7.80898,36.337258 7.6800566,36.615952 L 6.802168,38.516112 6.5024008,37.767564 C 6.3794741,37.453543 6.0829035,37.226974 5.7667734,37.205572 5.4506451,37.184172 5.1300059,37.368955 4.9714474,37.663919 L 4.1899121,39.057369 1,39.057387 l 0,1.842579 3.6823863,-1.8e-5 c 0.2959142,0.0011 0.5870433,-0.175809 0.7387119,-0.449129 l 0.1605889,-0.287903 0.3640037,0.92129 c 0.1258739,0.326202 0.4394427,0.558137 0.7676597,0.567811 0.3282179,0.0097 0.6531212,-0.203448 0.7954113,-0.521746 l 0.8350648,-1.808031 1.0170671,2.832965 c 0.1135996,0.32377 0.4096476,0.564118 0.7302523,0.592857 0.320605,0.02874 0.649554,-0.155585 0.811405,-0.454663 L 11.684086,40.899948 15,40.922978 l 0,-1.842579 -3.808386,-0.02303 c -0.295913,-0.0011 -0.587042,0.175808 -0.738713,0.449128 l -0.117765,0.20729 -1.0813025,-3.017223 C 9.1203211,36.321036 8.7370058,36.067681 8.3652388,36.109242 z" id="path4073" inkscape:connector-curvature="0" sodipodi:nodetypes="ccccsccccccccscccsccccccccc" />
        <path inkscape:connector-curvature="0" style="fill:none;stroke:#00ffff;stroke-width:0.99999994px;stroke-linecap:square;stroke-linejoin:round;stroke-opacity:1" id="path3477" d="m 1.5,40.000417 3.133963,4e-6 1.038275,-1.84258 1.038276,2.579611 L 8.440972,37.052294 10.171431,41.843 11.209706,40.000421 14.5,40" sodipodi:nodetypes="cccccccc" />
        <rect width="13" height="13" ry="1" x="1.5" y="33.5" id="rect4513" style="opacity:0.5;color:#000000;fill:none;stroke:url(#linearGradient3043);stroke-width:1;stroke-linecap:butt;stroke-linejoin:miter;stroke-miterlimit:4;stroke-opacity:1;stroke-dasharray:none;stroke-dashoffset:0;marker:none;visibility:visible;display:inline;overflow:visible;enable-background:accumulate" />
    </g>
</svg>
