<?xml version="1.0" encoding="UTF-8" standalone="no"?>
<!-- Created with Inkscape (http://www.inkscape.org/) -->

<svg xmlns:dc="http://purl.org/dc/elements/1.1/" xmlns:cc="http://creativecommons.org/ns#" xmlns:rdf="http://www.w3.org/1999/02/22-rdf-syntax-ns#" xmlns:svg="http://www.w3.org/2000/svg" xmlns="http://www.w3.org/2000/svg" xmlns:xlink="http://www.w3.org/1999/xlink" xmlns:sodipodi="http://sodipodi.sourceforge.net/DTD/sodipodi-0.dtd" xmlns:inkscape="http://www.inkscape.org/namespaces/inkscape" version="1.1" width="100%" height="100%" viewBox="0 0 16 16" id="svg2" inkscape:version="0.48.4 r9939" sodipodi:docname="meld.svg">
    <sodipodi:namedview pagecolor="#ffffff" bordercolor="#666666" borderopacity="1" objecttolerance="10" gridtolerance="10" guidetolerance="10" inkscape:pageopacity="0" inkscape:pageshadow="2" inkscape:window-width="1450" inkscape:window-height="876" id="namedview4191" showgrid="false" inkscape:zoom="8" inkscape:cx="11.66879" inkscape:cy="10.685779" inkscape:window-x="150" inkscape:window-y="0" inkscape:window-maximized="1" inkscape:current-layer="svg2" />
    <metadata id="metadata32">
        <rdf:RDF>
            <cc:Work rdf:about="">
                <dc:format>image/svg+xml</dc:format>
                <dc:type rdf:resource="http://purl.org/dc/dcmitype/StillImage" />
                <dc:title />
            </cc:Work>
        </rdf:RDF>
    </metadata>
    <defs id="defs4">
        <linearGradient x1="45.447727" y1="92.539597" x2="45.447727" y2="7.0165396" id="ButtonShadow" gradientUnits="userSpaceOnUse" gradientTransform="scale(1.0058652,0.994169)">
            <stop id="stop3750" style="stop-color:#000000;stop-opacity:1" offset="0" />
            <stop id="stop3752" style="stop-color:#000000;stop-opacity:0.58823532" offset="1" />
        </linearGradient>
        <filter color-interpolation-filters="sRGB" id="filter3174">
            <feGaussianBlur stdDeviation="1.71" id="feGaussianBlur3176" />
        </filter>
        <linearGradient x1="22.440199" y1="4.8942533" x2="22.440199" y2="38.21666" id="linearGradient4523" xlink:href="#linearGradient4050" gradientUnits="userSpaceOnUse" gradientTransform="matrix(0.33448294,0,0,0.34653414,-0.3114853,0.16376464)" />
        <linearGradient id="linearGradient4050">
            <stop id="stop4052" style="stop-color:#ffffff;stop-opacity:1" offset="0" />
            <stop id="stop4054" style="stop-color:#ffffff;stop-opacity:0" offset="1" />
        </linearGradient>
        <linearGradient inkscape:collect="always" xlink:href="#linearGradient4215" id="linearGradient3861" gradientUnits="userSpaceOnUse" gradientTransform="matrix(0.35714286,0,0,0.35714286,21.068741,0.15328586)" x1="-43.62677" y1="1.8443371" x2="-43.62677" y2="37.221615" />
        <linearGradient id="linearGradient4215">
            <stop style="stop-color:#fca44b;stop-opacity:1;" offset="0" id="stop4217" />
            <stop style="stop-color:#f57d04;stop-opacity:1;" offset="1" id="stop4219" />
        </linearGradient>
        <linearGradient inkscape:collect="always" xlink:href="#linearGradient4215" id="linearGradient4758" gradientUnits="userSpaceOnUse" gradientTransform="matrix(0.35714286,0,0,0.35714286,20.700824,-0.22014993)" x1="-43.62677" y1="1.8443371" x2="-43.62677" y2="37.221615" />
        <linearGradient x1="45.447727" y1="92.539597" x2="45.447727" y2="7.0165396" id="ButtonShadow-0" gradientUnits="userSpaceOnUse" gradientTransform="scale(1.0058652,0.994169)">
            <stop id="stop3750-0" style="stop-color:#000000;stop-opacity:1" offset="0" />
            <stop id="stop3752-4" style="stop-color:#000000;stop-opacity:0.58823532" offset="1" />
        </linearGradient>
        <filter color-interpolation-filters="sRGB" id="filter3174-4">
            <feGaussianBlur id="feGaussianBlur3176-5" stdDeviation="1.71" />
        </filter>
        <radialGradient cx="25.739487" cy="19.837296" r="20.999998" fx="25.739487" fy="19.837296" id="radialGradient4024" xlink:href="#linearGradient4018-5" gradientUnits="userSpaceOnUse" gradientTransform="matrix(0.57300668,0,0,0.57300662,-1.7521607,22.820847)" />
        <linearGradient id="linearGradient4018-5">
            <stop id="stop4020-1" style="stop-color:#83aad3;stop-opacity:1;" offset="0" />
            <stop id="stop4022-4" style="stop-color:#3d74af;stop-opacity:1;" offset="1" />
        </linearGradient>
        <linearGradient inkscape:collect="always" xlink:href="#linearGradient3849" id="linearGradient3855" x1="12.788898" y1="25.069807" x2="12.788898" y2="46.858284" gradientUnits="userSpaceOnUse" />
        <linearGradient id="linearGradient3849">
            <stop style="stop-color:#2658a0;stop-opacity:1;" offset="0" id="stop3851" />
            <stop style="stop-color:#193969;stop-opacity:1;" offset="1" id="stop3853" />
        </linearGradient>
    </defs>
    <g transform="translate(21.902477,-207.08632)" id="layer2" style="display:none">
        <rect width="86" height="85" rx="6" ry="6" x="5" y="7" id="rect3745" style="opacity:0.9;fill:url(#ButtonShadow);fill-opacity:1;fill-rule:nonzero;stroke:none;filter:url(#filter3174)" />
    </g>
    <g transform="translate(20.902477,-206.08632)" id="layer4" />
    <g transform="matrix(0.71428571,0,0,0.71428571,-0.57142858,-17.714286)" id="layer1">
        <g transform="translate(5.204491,-179.6879)" id="layer2-8" style="display:none">
            <rect width="86" height="85" rx="6" ry="6" x="5" y="7" id="rect3745-2" style="opacity:0.9;fill:url(#ButtonShadow-0);fill-opacity:1;fill-rule:nonzero;stroke:none;filter:url(#filter3174-4)" />
        </g>
        <g transform="translate(4.204491,-178.6879)" id="layer4-3" />
        <rect width="21" height="21" rx="2" ry="2" x="1.5" y="25.5" id="rect3117-4" style="color:#000000;fill:url(#radialGradient4024);fill-opacity:1;fill-rule:nonzero;stroke:url(#linearGradient3855);stroke-width:1.39999998;stroke-linecap:butt;stroke-linejoin:miter;stroke-miterlimit:4;stroke-opacity:1;stroke-dasharray:none;stroke-dashoffset:0;marker:none;visibility:visible;display:inline;overflow:visible;enable-background:accumulate" />
    </g>
    <rect width="13.055318" height="13.055318" rx="0.5" ry="0.4824211" x="1.4723409" y="1.4723412" id="rect4513-0" style="opacity:0.5;fill:none;stroke:url(#linearGradient4523);stroke-width:0.94468188;stroke-miterlimit:4;stroke-opacity:1;stroke-dasharray:none" />
    <path style="color:#000000;fill:url(#linearGradient4758);fill-opacity:1;stroke:#ce5c00;stroke-width:1px;stroke-linecap:butt;stroke-linejoin:miter;stroke-miterlimit:4;stroke-opacity:1;stroke-dasharray:none;stroke-dashoffset:0;marker:none;visibility:visible;display:inline;overflow:visible" d="m 1.6136534,0.50000014 c -0.71764203,0 -1.09725003,0.56299276 -1.11365303,1.11095706 l 0,9.0513218 c 0.456169,0.517607 0.96639803,0.992428 1.57124203,1.395107 1.176818,0.783428 2.582344,1.303892 3.973214,1.283464 1.390871,-0.02036 3.122899,-1.060786 3.816965,-2.354893 C 10.647031,9.5211358 10.247045,7.7156544 9.7214204,7.2612972 9.1480624,6.7656901 8.4493634,7.2742402 8.0310644,7.6823858 8.9551214,7.5817787 9.0137014,8.0219572 9.0578504,8.3408501 9.2392244,9.6508858 8.3490364,10.6851 7.1270464,10.818529 5.0633414,11.043886 3.4527814,8.9979572 3.2877604,7.0685287 3.0550244,4.3473856 5.1680954,1.2785716 7.6627614,0.50000014 z" id="path3859" inkscape:connector-curvature="0" sodipodi:nodetypes="sccccsscscscs" />
    <path style="color:#000000;fill:url(#linearGradient3861);fill-opacity:1;stroke:#ce5c00;stroke-width:1px;stroke-linecap:butt;stroke-linejoin:miter;stroke-miterlimit:4;stroke-opacity:1;stroke-dasharray:none;stroke-dashoffset:0;marker:none;visibility:visible;display:inline;overflow:visible" d="m 9.9391594,2.6428573 c -1.390871,0.020357 -3.122898,1.0607857 -3.816965,2.3549284 -0.78561,1.4647857 -0.385623,3.2702673 0.140002,3.7246244 0.573357,0.4956071 1.272056,-0.012943 1.690356,-0.4210529 -0.924058,0.1005715 -0.982637,-0.3396071 -1.026786,-0.6585 C 6.7443914,6.3328214 7.6345804,5.2986071 8.8565704,5.1651785 10.920273,4.9398214 12.530834,6.9857501 12.695856,8.9151787 12.928591,11.636322 10.81552,14.721428 8.3208564,15.5 l 6.0491056,0 C 15.087604,15.5 15.5,14.980901 15.5,14.372786 l 0,-9.0513575 C 15.043831,4.8038214 14.517217,4.329 13.912373,3.9263573 12.735555,3.142893 11.330029,2.6224287 9.9391594,2.6428573 z" id="path3431" inkscape:connector-curvature="0" sodipodi:nodetypes="ccscscscscccc" />
    <path style="font-size:medium;font-style:normal;font-variant:normal;font-weight:normal;font-stretch:normal;text-indent:0;text-align:start;text-decoration:none;line-height:normal;letter-spacing:normal;word-spacing:normal;text-transform:none;direction:ltr;block-progression:tb;writing-mode:lr-tb;text-anchor:start;baseline-shift:baseline;opacity:0.3;color:#000000;fill:#eeeeec;fill-opacity:1;fill-rule:nonzero;stroke:none;stroke-width:1;marker:none;visibility:visible;display:inline;overflow:visible;enable-background:accumulate;font-family:Sans;-inkscape-font-specification:Sans" d="M 1.625,1 C 1.543875,1 1.4611016,0.9797574 1.28125,1.09375 1.232584,1.124595 1.222741,1.174517 1.1875,1.21875 1.157622,1.256252 1.102921,1.293587 1.09375,1.3125 1.09129,1.31959 1.065276,1.337372 1.0625,1.34375 1.050704,1.370855 1.037455,1.387419 1.03125,1.40625 1.0188407,1.443913 1.0081795,1.4936575 1,1.53125 l 0,0.03125 0,0.0625 0,0.03125 0,8.5625 0,0.1875 0.125,0.15625 c 0.3541017,0.372179 0.7407919,0.744297 1.21875,1.0625 1.1099618,0.738921 2.4184971,1.237388 3.6875,1.21875 0.6179572,-0.009 1.964189,-0.482661 2.671875,-1.15625 C 10.542614,9.5283421 9.587572,7.9023846 9.34375,7.578125 9.5938324,8.422688 10.174067,10.152365 7.671875,11.21875 6.1553188,11.615858 4.9140872,10.899712 4.15625,10.09375 3.385166,9.2736997 2.8742342,8.2121728 2.78125,7.125 2.6523596,5.6180172 3.1637047,4.0698965 4.03125,2.78125 4.2361721,2.47686 4.5046306,2.1141188 4.8399587,1.7553617 L 5.6875,1 4.53125,1 z M 2,2 3.40625,2 C 3.3403854,2.0810652 3.2805871,2.1268975 3.21875,2.21875 2.6291415,3.0945508 2.2331091,4.1117592 2,5.15625 z m 0,6 c 0.2453551,1.0250585 0.679192,2.008021 1.40625,2.78125 0.1451833,0.154403 0.3650024,0.236591 0.53125,0.375 C 3.5887824,11.001177 3.2274361,11.026319 2.90625,10.8125 2.5811382,10.596055 2.2961159,10.305155 2,10 z" id="path4280" inkscape:connector-curvature="0" sodipodi:nodetypes="ssscccccccccccccccssscccsccscccscccc" />
    <path sodipodi:nodetypes="ssscccccccccccccccssccccsccscccscccc" inkscape:connector-curvature="0" id="path4294" d="m 14.371455,14.967865 c 0.08113,0 0.163899,0.02024 0.34375,-0.09375 0.04867,-0.03084 0.05851,-0.08077 0.09375,-0.125 0.02988,-0.0375 0.08458,-0.07484 0.09375,-0.09375 0.0025,-0.0071 0.02847,-0.02487 0.03125,-0.03125 0.0118,-0.02711 0.02505,-0.04367 0.03125,-0.0625 0.01241,-0.03766 0.02307,-0.08741 0.03125,-0.125 l 0,-0.03125 0,-0.0625 0,-0.03125 0,-8.5625001 0,-0.1875 -0.125,-0.15625 c -0.354101,-0.372179 -0.740792,-0.744297 -1.218749,-1.0624998 -1.109962,-0.738921 -2.418498,-1.237388 -3.6875005,-1.21875 -0.6179572,0.009 -1.964189,0.482661 -2.671875,1.15625 -1.8836832,2.0486723 -0.884447,3.7851152 -0.640625,4.1093748 -0.2500824,-0.844563 -0.830317,-2.57424 1.671875,-3.640625 1.5165562,-0.3971078 2.7577875,0.319038 3.5156255,1.125 0.771084,0.8200503 1.282015,1.8815772 1.375,2.96875 0.12889,1.5069831 -0.382452,3.0551051 -1.25,4.3437501 -0.294144,0.375833 -0.518936,0.756076 -0.808713,1.047985 l -0.847541,0.733265 1.15625,0 z m -0.375,-1 -1.406249,0 c 0.06587,-0.08107 0.125662,-0.126898 0.1875,-0.21875 0.589608,-0.875801 0.98564,-1.893009 1.218749,-2.9375 z m 0,-6.0000001 c -0.245355,-1.0250585 -0.679191,-2.008021 -1.406249,-2.78125 -0.145184,-0.154403 -0.365003,-0.236591 -0.53125,-0.375 0.348717,0.155073 0.710063,0.129931 1.03125,0.34375 0.325111,0.216445 0.610133,0.507345 0.906249,0.8125 z" style="font-size:medium;font-style:normal;font-variant:normal;font-weight:normal;font-stretch:normal;text-indent:0;text-align:start;text-decoration:none;line-height:normal;letter-spacing:normal;word-spacing:normal;text-transform:none;direction:ltr;block-progression:tb;writing-mode:lr-tb;text-anchor:start;baseline-shift:baseline;opacity:0.3;color:#000000;fill:#eeeeec;fill-opacity:1;fill-rule:nonzero;stroke:none;stroke-width:1;marker:none;visibility:visible;display:inline;overflow:visible;enable-background:accumulate;font-family:Sans;-inkscape-font-specification:Sans" />
</svg>
