<?xml version="1.0" encoding="UTF-8" standalone="no"?>
<!-- Created with Inkscape (http://www.inkscape.org/) -->

<svg xmlns:dc="http://purl.org/dc/elements/1.1/" xmlns:cc="http://creativecommons.org/ns#" xmlns:rdf="http://www.w3.org/1999/02/22-rdf-syntax-ns#" xmlns:svg="http://www.w3.org/2000/svg" xmlns="http://www.w3.org/2000/svg" xmlns:xlink="http://www.w3.org/1999/xlink" xmlns:sodipodi="http://sodipodi.sourceforge.net/DTD/sodipodi-0.dtd" xmlns:inkscape="http://www.inkscape.org/namespaces/inkscape" width="16" height="16" id="svg4700" version="1.1" inkscape:version="0.48.4 r9939" sodipodi:docname="midori.svg" sodipodi:version="0.32" inkscape:output_extension="org.inkscape.output.svg.inkscape">
    <defs id="defs4702">
        <filter id="filter3174" color-interpolation-filters="sRGB">
            <feGaussianBlur stdDeviation="1.71" id="feGaussianBlur3176" />
        </filter>
        <linearGradient gradientTransform="scale(1.0058652,0.994169)" gradientUnits="userSpaceOnUse" id="ButtonShadow" y2="7.0165396" x2="45.447727" y1="92.539597" x1="45.447727">
            <stop offset="0" style="stop-color:#000000;stop-opacity:1" id="stop3750" />
            <stop offset="1" style="stop-color:#000000;stop-opacity:0.58823532" id="stop3752" />
        </linearGradient>
        <linearGradient x1="45.447727" y1="92.539597" x2="45.447727" y2="7.0165396" id="ButtonShadow-5" gradientUnits="userSpaceOnUse" gradientTransform="scale(1.0058652,0.994169)">
            <stop id="stop3750-9" style="stop-color:#000000;stop-opacity:1" offset="0" />
            <stop id="stop3752-2" style="stop-color:#000000;stop-opacity:0.58823532" offset="1" />
        </linearGradient>
        <filter color-interpolation-filters="sRGB" id="filter3174-3">
            <feGaussianBlur id="feGaussianBlur3176-2" stdDeviation="1.71" />
        </filter>
        <linearGradient x1="45.447727" y1="92.539597" x2="45.447727" y2="7.0165396" id="ButtonShadow-2" gradientUnits="userSpaceOnUse" gradientTransform="scale(1.0058652,0.994169)">
            <stop id="stop3750-5" style="stop-color:#000000;stop-opacity:1" offset="0" />
            <stop id="stop3752-3" style="stop-color:#000000;stop-opacity:0.58823532" offset="1" />
        </linearGradient>
        <filter color-interpolation-filters="sRGB" id="filter3174-1">
            <feGaussianBlur id="feGaussianBlur3176-4" stdDeviation="1.71" />
        </filter>
        <linearGradient inkscape:collect="always" xlink:href="#ButtonShadow-2" id="linearGradient3135" gradientUnits="userSpaceOnUse" gradientTransform="scale(1.0058652,0.994169)" x1="45.447727" y1="92.539597" x2="45.447727" y2="7.0165396" />
        <linearGradient inkscape:collect="always" xlink:href="#linearGradient4050-5" id="linearGradient3144-3" gradientUnits="userSpaceOnUse" gradientTransform="matrix(0.39389985,0,0,0.44654485,16.198388,30.099843)" x1="22.440199" y1="4.8942533" x2="22.440199" y2="38.21666" />
        <linearGradient id="linearGradient4050-5">
            <stop style="stop-color:#ffffff;stop-opacity:0.66929132;" offset="0" id="stop4052-8" />
            <stop style="stop-color:#ffffff;stop-opacity:0;" offset="1" id="stop4054-2" />
        </linearGradient>
        <linearGradient id="linearGradient3412">
            <stop id="stop3414" offset="0" style="stop-color:#ffffff;stop-opacity:0.59836066;" />
            <stop id="stop3416" offset="1" style="stop-color:#4e9a06;stop-opacity:0;" />
        </linearGradient>
        <linearGradient id="linearGradient3458">
            <stop id="stop3460" offset="0" style="stop-color:#41a100;stop-opacity:1;" />
            <stop id="stop3462" offset="1" style="stop-color:#ffffff;stop-opacity:0;" />
        </linearGradient>
        <clipPath clipPathUnits="userSpaceOnUse" id="clipPath5403">
            <rect style="fill:black;fill-opacity:1;fill-rule:nonzero;stroke:none;stroke-width:1;marker:none;visibility:visible;display:inline;overflow:visible;enable-background:accumulate" id="rect5405" width="32.579819" height="32.579819" x="1.0005803" y="7.4029846" ry="2.38569" rx="2.38569" />
        </clipPath>
        <linearGradient id="linearGradient3801-25-2">
            <stop id="stop3803-6" offset="0" style="stop-color:#8cd11a;stop-opacity:1;" />
            <stop id="stop3805-6" offset="1" style="stop-color:#2d3e00;stop-opacity:1;" />
        </linearGradient>
        <linearGradient inkscape:collect="always" xlink:href="#linearGradient3801-25-2" id="linearGradient3163" gradientUnits="userSpaceOnUse" gradientTransform="matrix(0.3938479,0,0,0.39409757,-1.5322695,31.235867)" x1="24.420143" y1="2.3661644" x2="24.420143" y2="43.004219" />
        <linearGradient inkscape:collect="always" xlink:href="#linearGradient3458" id="linearGradient3191" gradientUnits="userSpaceOnUse" gradientTransform="matrix(0.9357302,0.264412,-0.264412,0.9357302,8.9824665,-7.5659592)" x1="33" y1="33" x2="4" y2="5" />
        <linearGradient inkscape:collect="always" xlink:href="#linearGradient3412" id="linearGradient3193" gradientUnits="userSpaceOnUse" gradientTransform="matrix(0.9357302,0.264412,-0.264412,0.9357302,7.2762502,-7.3766701)" x1="13" y1="11" x2="40" y2="19" />
        <linearGradient inkscape:collect="always" xlink:href="#linearGradient5630-6-1" id="linearGradient3187-8" gradientUnits="userSpaceOnUse" gradientTransform="matrix(0.39415018,0,0,0.39415018,41.409788,34.390944)" x1="-42" y1="-7" x2="-42" y2="30.019604" />
        <linearGradient id="linearGradient5630-6-1">
            <stop style="stop-color:#97f43b;stop-opacity:1" offset="0" id="stop5632-4-6" />
            <stop style="stop-color:#275e00;stop-opacity:1" offset="1" id="stop5634-67-0" />
        </linearGradient>
        <linearGradient inkscape:collect="always" xlink:href="#linearGradient3801-25-5-6" id="linearGradient3189-1" gradientUnits="userSpaceOnUse" gradientTransform="matrix(0.3938479,0,0,0.39409757,17.767935,30.445658)" x1="24.420143" y1="2.3661644" x2="24.420143" y2="43.004219" />
        <linearGradient id="linearGradient3801-25-5-6">
            <stop id="stop3803-4-5" offset="0" style="stop-color:#8cd11a;stop-opacity:1;" />
            <stop id="stop3805-5-6" offset="1" style="stop-color:#2d3e00;stop-opacity:1;" />
        </linearGradient>
    </defs>
    <sodipodi:namedview id="base" pagecolor="#ffffff" bordercolor="#666666" borderopacity="1.0" inkscape:pageopacity="0.0" inkscape:pageshadow="2" inkscape:zoom="12.5" inkscape:cx="8.0517921" inkscape:cy="15.049319" inkscape:current-layer="layer1" showgrid="true" inkscape:grid-bbox="true" inkscape:document-units="px" inkscape:window-width="1280" inkscape:window-height="976" inkscape:window-x="0" inkscape:window-y="24" inkscape:window-maximized="1" inkscape:snap-to-guides="false" inkscape:snap-grids="false">
        <inkscape:grid type="xygrid" id="grid1021" empspacing="5" visible="true" enabled="true" snapvisiblegridlinesonly="true" />
    </sodipodi:namedview>
    <metadata id="metadata4705">
        <rdf:RDF>
            <cc:Work rdf:about="">
                <dc:format>image/svg+xml</dc:format>
                <dc:type rdf:resource="http://purl.org/dc/dcmitype/StillImage" />
                <dc:title />
            </cc:Work>
        </rdf:RDF>
    </metadata>
    <g id="layer1" inkscape:label="Layer 1" inkscape:groupmode="layer" transform="translate(0,-32)">
        <g id="layer2" style="display:none" transform="translate(5.204491,-179.6879)">
            <rect width="86" height="85" rx="6" ry="6" x="5" y="7" id="rect3745" style="opacity:0.9;fill:url(#ButtonShadow);fill-opacity:1;fill-rule:nonzero;stroke:none;filter:url(#filter3174)" />
        </g>
        <g id="layer4" transform="translate(5.204491,-179.6879)" />
        <g id="layer2-0" style="display:none" transform="matrix(0.71435699,0,0,0.71541604,3.8599452,-115.022)">
            <rect width="86" height="85" rx="8.3991623" ry="8.3867283" x="5" y="7" id="rect3745-8" style="opacity:0.9;fill:url(#ButtonShadow-5);fill-opacity:1;fill-rule:nonzero;stroke:none;filter:url(#filter3174-3)" />
        </g>
        <g id="layer4-2" transform="matrix(0.71435699,0,0,0.71541604,3.8599452,-115.022)" />
        <rect style="color:black;fill:url(#linearGradient3187-8);stroke:url(#linearGradient3189-1);stroke-width:1;stroke-linecap:butt;stroke-linejoin:miter;stroke-miterlimit:4;stroke-opacity:1;stroke-dasharray:none;stroke-dashoffset:0;marker:none;visibility:visible;display:inline;overflow:visible;enable-background:accumulate;fill-opacity:1;fill-rule:nonzero" id="rect3874-8" width="15.001496" height="15.023737" x="0.4992592" y="32.488132" ry="2.0000002" rx="2" />
        <g id="layer2-9" style="display:none" transform="matrix(0.73011362,0,0,0.73011362,21.437696,-118.30206)">
            <rect width="86" height="85" rx="8.2178993" ry="8.2178993" x="5" y="7" id="rect3745-6" style="opacity:0.9;fill:url(#linearGradient3135);fill-opacity:1;fill-rule:nonzero;stroke:none;filter:url(#filter3174-1)" />
        </g>
        <g id="layer4-29" transform="matrix(0.73011362,0,0,0.73011362,21.437696,-118.30206)" />
        <g id="g5301" transform="matrix(0.45062016,0,0,0.45062016,0.24817465,29.285372)" clip-path="url(#clipPath5403)">
            <g transform="matrix(0.9357302,0.264412,-0.264412,0.9357302,9.0693527,-7.7669498)" style="stroke:none" id="g5303">
                <path inkscape:connector-curvature="0" sodipodi:nodetypes="ccsssscssccc" id="path5305" d="M 32.62692,6.6695339 C 28.943103,10.347154 11.111941,12.664469 9,33 c 0.3414198,5.11565 2.750163,11.619293 7.499797,10.597643 0.982779,-0.211397 2.038704,0.196803 2.703808,0.809838 4.351738,4.011057 8.52874,2.374752 9.651419,-0.445034 0.215237,-0.540601 0.899973,-0.596833 1.460892,-0.37289 C 36.857006,46.201039 38.613158,38.645886 39,33 39.096949,30.551387 37.800853,11.942617 35.822153,10.473066 35.232485,10.035129 33.801652,12.187441 32.644545,14.379307 23.397466,31.895713 11.762403,24.057082 32.238499,7.1548098 l 0.235001,-0.5271607 0.270917,0.030985" style="fill:#c5f199;fill-opacity:1;fill-rule:nonzero;stroke:none" />
                <g style="fill:#c5f199;fill-opacity:1;stroke:none" id="g5307">
                    <path inkscape:connector-curvature="0" style="fill:#c5f199;fill-opacity:1;fill-rule:evenodd;stroke:none" d="M 24,45 24,33" id="path5309" />
                    <path inkscape:connector-curvature="0" style="fill:#c5f199;fill-opacity:1;fill-rule:evenodd;stroke:none" d="m 15,42 0,-7" id="path5311" />
                    <path inkscape:connector-curvature="0" style="fill:#c5f199;fill-opacity:1;fill-rule:evenodd;stroke:none" d="m 33,42 0,-7" id="path5313" />
                </g>
            </g>
            <g transform="matrix(0.9357302,0.264412,-0.264412,0.9357302,9.0693527,-7.7669498)" id="g5315" style="fill:#73d216;fill-opacity:1;stroke:none">
                <path inkscape:connector-curvature="0" sodipodi:nodetypes="csccsssscc" id="path5317" d="m 35.234589,13.724224 c -3.738051,8.081569 -13.234694,16.222743 -15.739843,10.908947 -1.235532,-2.620748 0.949841,-7.293696 5.475765,-12.587054 -5.917527,3.638792 -15.9656505,12.611852 -14.356426,21.845048 -0.373989,3.839534 2.603499,10.963452 6.460619,8.636853 1.02821,-0.620212 2.757632,0.276028 3.378232,1.331675 1.318547,2.242864 6.112369,1.587546 7.154116,0.151368 0.767834,-1.058552 2.373555,-1.67156 3.638431,-1.376939 5.533355,1.288856 5.920667,-6.12533 5.897326,-9.045945 1.628814,-10.746518 -1.787127,-15.883715 -1.90822,-19.863953 z" style="fill:#73d216;fill-opacity:1;fill-rule:nonzero;stroke:none" />
                <g style="fill:#73d216;fill-opacity:1;stroke:none" id="g5319">
                    <path inkscape:connector-curvature="0" style="fill:#73d216;fill-opacity:1;fill-rule:evenodd;stroke:none" d="m 33,42 0,-7" id="path5321" />
                    <path inkscape:connector-curvature="0" style="fill:#73d216;fill-opacity:1;fill-rule:evenodd;stroke:none" d="M 24,45 24,33" id="path5323" />
                    <path inkscape:connector-curvature="0" style="fill:#73d216;fill-opacity:1;fill-rule:evenodd;stroke:none" d="m 15,42 0,-7" id="path5325" />
                </g>
            </g>
            <path inkscape:connector-curvature="0" sodipodi:nodetypes="cccsscsc" id="path5327" d="m 10.398416,25.179832 c 2.180565,-4.263259 6.217595,-4.312465 13.288648,-1.996661 4.695565,-8e-6 11.006155,-4.443896 14.574831,-8.427262 0.800366,15.456925 -6.083942,31.024026 -12.2142,24.962055 -0.819689,-0.810546 -1.436793,0.07694 -2.647059,0.753921 -1.15909,0.648363 -1.7161,0.74873 -2.966542,0.425047 -4.122008,0.261021 -4.921617,-6.381267 -6.751113,-5.041541 -3.469637,2.540786 -4.717367,-4.655003 -3.284565,-10.675559 z" style="fill:url(#linearGradient3191);fill-opacity:1;fill-rule:evenodd;stroke:none" />
            <path inkscape:connector-curvature="0" sodipodi:nodetypes="cc" id="path5329" d="m 14.444636,36.982417 c -0.266019,-2.310967 -0.558805,-6.662561 1.4648,-9.188691" style="fill:none;stroke:#c5f199;stroke-width:6.65749121;stroke-linecap:round;stroke-linejoin:miter;stroke-miterlimit:4;stroke-opacity:1;stroke-dasharray:none" />
            <path inkscape:connector-curvature="0" sodipodi:nodetypes="ccccc" id="path5331" d="m 24.689482,30.351074 c -2.332543,6.090308 -0.816067,7.119406 0.318066,10.430562 l 0,0 0,0 -0.143714,-0.503" style="fill:none;stroke:#c5f199;stroke-width:6.65749121;stroke-linecap:round;stroke-linejoin:miter;stroke-miterlimit:4;stroke-opacity:1;stroke-dasharray:none" />
            <path inkscape:connector-curvature="0" sodipodi:nodetypes="ccsssscsc" id="path5333" d="M 39.094214,6.8299035 C 34.578098,7.6675626 13.465639,10.043941 8.769832,25.732533 7.3983903,31.041558 8.1701436,38.264228 14.280648,37.9977 c 0.433019,-0.01867 0.47764,0.123956 0.631691,0.488414 2.515789,5.951914 8.707325,4.868955 10.099709,2.536207 0.198309,-0.33224 -0.300538,-0.205769 0,0 6.30472,4.316657 9.741091,-1.657623 11.727107,-6.982103 2.425763,-4.619623 3.908674,-23.853573 2.610526,-22.609597 -22.11688,21.193935 -22.074546,2.527617 -0.255467,-4.6007175" style="fill:none;stroke:#204c00;stroke-width:2.21916413;stroke-linecap:butt;stroke-linejoin:round;stroke-miterlimit:4;stroke-opacity:1;stroke-dasharray:none" />
            <g style="fill-opacity:1;stroke:#204c00;stroke-width:2.28222036;stroke-linecap:round;stroke-linejoin:bevel;stroke-miterlimit:4;stroke-opacity:1;stroke-dasharray:none" id="g5335" transform="matrix(0.9357302,0.264412,-0.264412,0.9357302,9.06935,-7.910666)">
                <path inkscape:connector-curvature="0" sodipodi:nodetypes="cc" style="fill:none;stroke:#204c00;stroke-width:2.28222036;stroke-linecap:round;stroke-linejoin:bevel;stroke-miterlimit:4;stroke-opacity:1;stroke-dasharray:none" d="M 18.645566,43.903974 C 15.051587,37.187354 16.540541,35.406359 16.713974,33.280216" id="path5337" />
                <path inkscape:connector-curvature="0" sodipodi:nodetypes="cc" style="fill:none;stroke:#204c00;stroke-width:2.28222036;stroke-linecap:round;stroke-linejoin:bevel;stroke-miterlimit:4;stroke-opacity:1;stroke-dasharray:none" d="M 29.35012,43.828988 C 26.087374,40.085035 25.418677,36.423326 26.118423,33.355781" id="path5339" />
            </g>
            <path inkscape:connector-curvature="0" sodipodi:nodetypes="ccccccc" id="path5341" d="m 28.435955,10.675791 c 0.148808,-1.854163 -18.195337,5.895296 -17.961719,14.622137 3.19351,-4.149822 6.296264,-4.491927 11.387944,-2.413675 3.712365,3.467496 -7.389738,-2.855302 6.573775,-12.208462 l 0,0 0,0 0,0 z" style="fill:url(#linearGradient3193);fill-opacity:1;fill-rule:evenodd;stroke:none" />
        </g>
        <rect width="13" height="13" ry="0.99999994" x="1.5" y="33.500004" id="rect4513-2" style="opacity:0.50000000000000000;fill:none;stroke:url(#linearGradient3144-3);stroke-width:1;stroke-miterlimit:4;stroke-opacity:1;stroke-dasharray:none;color:#000000;stroke-linecap:butt;stroke-linejoin:miter;stroke-dashoffset:0;marker:none;visibility:visible;display:inline;overflow:visible;enable-background:accumulate" rx="0.99999994" />
        <rect rx="1.4285715" ry="1.4285715" y="32.5" x="0.5" height="15.000001" width="15.000001" id="rect4899" style="color:black;fill:none;stroke:url(#linearGradient3163);stroke-width:1;stroke-linecap:butt;stroke-linejoin:miter;stroke-miterlimit:4;stroke-opacity:1;stroke-dasharray:none;stroke-dashoffset:0;marker:none;visibility:visible;display:inline;overflow:visible;enable-background:accumulate" />
    </g>
</svg>
