<?xml version="1.0" encoding="UTF-8" standalone="no"?>
<!-- Created with Inkscape (http://www.inkscape.org/) -->

<svg xmlns:dc="http://purl.org/dc/elements/1.1/" xmlns:cc="http://creativecommons.org/ns#" xmlns:rdf="http://www.w3.org/1999/02/22-rdf-syntax-ns#" xmlns:svg="http://www.w3.org/2000/svg" xmlns="http://www.w3.org/2000/svg" xmlns:xlink="http://www.w3.org/1999/xlink" xmlns:sodipodi="http://sodipodi.sourceforge.net/DTD/sodipodi-0.dtd" xmlns:inkscape="http://www.inkscape.org/namespaces/inkscape" width="16" height="16" id="svg3101" version="1.1" inkscape:version="0.48.4 r9939" sodipodi:docname="mtpaint.svg">
    <defs id="defs3103">
        <linearGradient inkscape:collect="always" xlink:href="#linearGradient3916-9-8-6" id="linearGradient3224-5" gradientUnits="userSpaceOnUse" gradientTransform="matrix(0.74910127,0,0,1.1236518,-2.9213578,1027.3626)" x1="3.899817" y1="9.7891626" x2="9.2395487" y2="9.7891626" />
        <linearGradient id="linearGradient3916-9-8-6">
            <stop id="stop3918-8-0-6" offset="0" style="stop-color:#505050;stop-opacity:1;" />
            <stop style="stop-color:white;stop-opacity:1;" offset="1" id="stop3924-8-6-3" />
        </linearGradient>
        <linearGradient inkscape:collect="always" xlink:href="#linearGradient3756" id="linearGradient3031" gradientUnits="userSpaceOnUse" y1="32.843739" x2="0" y2="47.268539" gradientTransform="matrix(1,0,0,0.84615385,0,1010.516)" />
        <linearGradient gradientUnits="userSpaceOnUse" id="linearGradient3756" x2="0" y1="32.843739" y2="47.268539">
            <stop offset="0" stop-color="#fff" stop-opacity=".669" id="stop20" />
            <stop offset="1" stop-color="#fff" stop-opacity="0" id="stop22" />
        </linearGradient>
        <linearGradient inkscape:collect="always" xlink:href="#linearGradient3866-4-5-9-8" id="linearGradient3427-0" gradientUnits="userSpaceOnUse" gradientTransform="matrix(0,-0.3057564,-0.35279583,0,10.04888,1037.8441)" x1="-5" y1="-21" x2="-43" y2="-21" />
        <linearGradient id="linearGradient3866-4-5-9-8">
            <stop id="stop3868-5-9-0-2" offset="0" style="stop-color:#966132;stop-opacity:1;" />
            <stop id="stop3870-0-3-5-5" offset="1" style="stop-color:#1e130a;stop-opacity:1;" />
        </linearGradient>
        <linearGradient id="linearGradient3872-8-5-0">
            <stop style="stop-color:#338100;stop-opacity:1" offset="0" id="stop3874-8-0-3" />
            <stop style="stop-color:#1b4e18;stop-opacity:1;" offset="1" id="stop3876-5-6-3" />
        </linearGradient>
        <linearGradient gradientUnits="userSpaceOnUse" id="linearGradient20028-0-1-4" x1="14.8565" x2="21.1047" y1="3.7228" y2="34.685299">
            <stop offset="0" stop-color="#a40" id="stop26-7-3" />
            <stop offset="1" stop-color="#fea" id="stop28-4-7" />
        </linearGradient>
        <linearGradient y2="32.013916" x2="67.697418" y1="-7.0808759" x1="67.697418" gradientTransform="matrix(0.3155934,0,0,0.35810398,-15.364859,1035.8979)" gradientUnits="userSpaceOnUse" id="linearGradient3099" xlink:href="#linearGradient20028-0-1-4" inkscape:collect="always" />
        <radialGradient inkscape:collect="always" xlink:href="#linearGradient3872-8-5-0" id="radialGradient3025" gradientUnits="userSpaceOnUse" gradientTransform="matrix(0.35871681,2.1449143e-8,-2.4012587e-8,0.41072962,-0.2545,1034.3511)" cx="17.061928" cy="22.215902" fx="17.061928" fy="22.215902" r="5.6176791" />
    </defs>
    <sodipodi:namedview id="base" pagecolor="#ffffff" bordercolor="#666666" borderopacity="1.0" inkscape:pageopacity="0.0" inkscape:pageshadow="2" inkscape:zoom="22.4" inkscape:cx="9.7650352" inkscape:cy="7.7104184" inkscape:document-units="px" inkscape:current-layer="capa1" showgrid="true" inkscape:window-width="1280" inkscape:window-height="976" inkscape:window-x="0" inkscape:window-y="24" inkscape:window-maximized="1">
        <inkscape:grid type="xygrid" id="grid3109" empspacing="5" visible="true" enabled="true" snapvisiblegridlinesonly="true" />
    </sodipodi:namedview>
    <metadata id="metadata3106">
        <rdf:RDF>
            <cc:Work rdf:about="">
                <dc:format>image/svg+xml</dc:format>
                <dc:type rdf:resource="http://purl.org/dc/dcmitype/StillImage" />
                <dc:title />
            </cc:Work>
        </rdf:RDF>
    </metadata>
    <g inkscape:label="Capa 1" inkscape:groupmode="layer" id="capa1" transform="translate(0,-1036.3622)">
        <rect style="color:black;fill:url(#linearGradient3099);fill-opacity:1;fill-rule:evenodd;stroke:none;stroke-width:1;marker:none;visibility:visible;display:inline;overflow:visible;enable-background:accumulate" id="rect3154-8" y="1037.3622" x="2" ry="1.5" height="14" width="12" rx="1.2857143" />
        <path style="color:black;fill:#da862e;fill-opacity:1;fill-rule:nonzero;stroke:none;stroke-width:1;marker:none;visibility:visible;display:inline;overflow:visible;enable-background:accumulate" d="m 14,1047.9277 c -0.05658,0.9752 0.136757,1.9825 -0.149777,2.9325 -0.291657,0.5596 -1.013111,0.5617 -1.558661,0.5021 -3.1832969,10e-4 -6.3666874,0.015 -9.549896,-0.016 -0.5820298,-0.1074 -0.768476,-0.7802 -0.7532406,-1.2938 0.026488,-0.9957 0.00422,-1.9924 0.011569,-2.9885 2.0122839,-0.9446 4.3218299,-0.7943 6.4516829,-0.4072 1.8697171,0.3331 3.6761111,0.9507 5.5483231,1.2709 z" id="path46" inkscape:connector-curvature="0" />
        <path style="fill:#ffe57d;fill-rule:evenodd" inkscape:connector-curvature="0" d="m 12,1040.863 a 1.5000002,1.5000002 0 0 1 -3,0 1.5000002,1.5000002 0 1 1 3,0 z" id="path58-6" />
        <path style="color:black;fill:#2f1d07;fill-opacity:1;fill-rule:nonzero;stroke:none;stroke-width:1;marker:none;visibility:visible;display:inline;overflow:visible;enable-background:accumulate" d="m 5.325305,1044.8283 c 0.4004178,0.2143 0.5841319,0.7797 0.4151226,1.1921 -0.208734,0.3492 -0.6345164,0.4231 -0.9868533,0.5389 0.050437,0.1799 0.7231112,-0.136 0.4740808,0.1569 0.1968882,-0.2167 0.5415008,0.031 0.6642345,0.1108 0.2500764,-0.2433 0.6171821,0.1483 0.8375967,-0.1369 0.3013258,-0.086 0.6467639,0.049 0.8850428,-0.068 -0.4556303,-0.035 -0.9387088,-0.2398 -1.2467986,-0.618 -0.2501051,-0.3452 -0.127397,-0.9582 0.3420729,-1.0219 0.4405576,-0.094 0.2242892,-0.616 -0.067065,-0.7578 -0.3102805,-0.2325 -0.7248276,-0.266 -1.0978357,-0.2224 -0.3695069,0.034 -0.4946394,0.5924 -0.1651369,0.7696 0.010655,0.015 -0.054032,0.098 -0.054461,0.057 z" id="path54-3" inkscape:connector-curvature="0" sodipodi:nodetypes="cccccccccccccc" />
        <path style="color:black;fill:url(#radialGradient3025);fill-opacity:1;fill-rule:nonzero;stroke:none;stroke-width:1;marker:none;visibility:visible;display:inline;overflow:visible;enable-background:accumulate" d="m 5.939782,1042.5959 c -0.2210452,-0.1578 -0.4634612,0.3931 -0.6196301,0.01 -0.2906609,-0.184 -0.3341414,0.4131 -0.6051651,0.264 -0.2709663,-0.014 -0.2998533,0.2822 -0.3798946,0.4495 -0.1763806,-0.073 -0.1477829,0.4105 -0.3224599,0.144 -0.187284,-0.2315 -0.5227556,0.1083 -0.4128252,0.3321 0.1195445,0.1443 0.212579,0.3291 0.057297,0.485 -0.00285,0.1518 0.1690527,0.3423 -0.051975,0.4321 -0.2221748,0.2353 0.055388,0.4646 0.167285,0.649 -0.025818,0.235 0.1815348,0.3127 0.3715846,0.2291 0.1903973,-0.034 0.3330261,0.2085 0.4906598,0.016 0.2156024,-0.08 0.588397,0.1 0.6807146,-0.209 -0.074654,-0.1442 -0.058815,-0.3498 0.1559169,-0.3243 0.195653,0.066 0.00532,-0.093 0.1133228,-0.2038 0.092078,-0.1895 0.2860994,-0.1109 0.3233537,0.059 0.112119,0.027 0.2247922,-0.3318 0.2602421,-0.206 -0.1450908,0.1881 0.1180736,0.2201 0.2284717,0.1042 0.084191,-0.046 0.2482478,-0.049 0.072624,0.028 -0.207409,0.2181 0.2740506,0.07 0.2430703,0.106 -0.1193976,0 -0.3781248,0.2904 -0.1177019,0.2235 0.2693892,-0.1399 0.5522356,0.095 0.5367835,0.3767 0.1126421,0.2547 0.541205,0.2519 0.6562606,-0 0.085986,-0.2495 0.3435111,-0.2222 0.5183431,-0.091 0.2619078,0.1572 0.5128943,-0.1792 0.248214,-0.3514 -0.2132153,-0.2519 0.2737944,-0.2487 0.2334652,-0.4854 0.01233,-0.2405 -0.2429617,-0.3062 -0.3593133,-0.4493 0.01813,-0.2296 0.060155,-0.5005 -0.2185713,-0.5929 -0.2817085,-0.1173 -0.026401,-0.4922 -0.3405123,-0.5697 -0.2012453,-0.1069 -0.3747258,0.031 -0.5354863,0.099 -0.2845673,-0.039 -0.089047,-0.4855 -0.4127469,-0.4298 -0.1664742,-0.01 -0.2803814,0.2444 -0.3985592,0.042 -0.1709079,-0.1957 -0.3959906,-0.019 -0.5827686,-0.1349 z" id="path56-5" inkscape:connector-curvature="0" />
        <path inkscape:connector-curvature="0" style="color:black;fill:none;stroke:url(#linearGradient3427-0);stroke-width:1.00000012;stroke-linecap:round;stroke-linejoin:round;stroke-miterlimit:4;stroke-opacity:1;stroke-dasharray:none;stroke-dashoffset:0;marker:none;visibility:visible;display:inline;overflow:visible;enable-background:accumulate" id="path26" d="m 3.5,1037.8622 h 9 a 2,1.7333333 0 0 1 2,1.7333 v 9.5334 a 2,1.7333333 0 0 1 -2,1.7333 h -9 a 2,1.7333333 0 0 1 -2,-1.7333 v -9.5334 a 2,1.7333333 0 0 1 2,-1.7333" />
        <path inkscape:connector-curvature="0" style="fill:none;stroke:url(#linearGradient3031);stroke-width:0.99999994" id="path28" d="m 3.5,1038.8622 h 9 a 1,0.84615385 0 0 1 1,0.8462 v 9.3076 a 1,0.84615385 0 0 1 -1,0.8462 h -9 a 1,0.84615385 0 0 1 -1,-0.8462 v -9.3076 a 1,0.84615385 0 0 1 1,-0.8462" />
        <path style="color:black;fill:#1f140a;fill-opacity:1;fill-rule:evenodd;stroke:none;stroke-width:1;marker:none;visibility:visible;display:inline;overflow:visible;enable-background:accumulate" d="m 14.8981,1040.3626 c -0.557354,-0 -0.84331,0.5579 -1.225141,0.8739 -1.872438,1.8738 -3.7448313,3.7476 -5.617272,5.6213 -0.3518957,0.8348 -0.7037913,1.6696 -1.055687,2.5044 0.8341107,-0.3522 1.6682573,-0.7043 2.502368,-1.0565 2.120713,-2.1336 4.264939,-4.2452 6.370709,-6.3928 0.315055,-0.438 -0.01892,-0.958 -0.384329,-1.2346 -0.157573,-0.1612 -0.351922,-0.3208 -0.590648,-0.3157 z" id="rect4086" inkscape:connector-curvature="0" />
        <path inkscape:connector-curvature="0" style="color:black;fill:#1f140a;fill-opacity:1;fill-rule:nonzero;stroke:none;stroke-width:1;marker:none;visibility:visible;display:inline;overflow:visible;enable-background:accumulate" d="m 4,1039.3622 c -0.5522848,0 -1,0.4477 -1,1 0,0.5523 0.4477152,1 1,1 0.5522848,0 1,-0.4477 1,-1 0,-0.5523 -0.4477152,-1 -1,-1 z" id="path3486" />
        <path inkscape:connector-curvature="0" style="color:black;fill:#1f140a;fill-opacity:1;fill-rule:nonzero;stroke:none;stroke-width:1;marker:none;visibility:visible;display:inline;overflow:visible;enable-background:accumulate" d="m 4,1043.3622 c -0.5522848,0 -1,0.4477 -1,1 0,0.5523 0.4477152,1 1,1 0.5522848,0 1,-0.4477 1,-1 0,-0.5523 -0.4477152,-1 -1,-1 z" id="path3484" />
        <path inkscape:connector-curvature="0" style="color:black;fill:#1f140a;fill-opacity:1;fill-rule:nonzero;stroke:none;stroke-width:1;marker:none;visibility:visible;display:inline;overflow:visible;enable-background:accumulate" d="m 4,1047.3622 c -0.5522848,0 -1,0.4477 -1,1 0,0.5523 0.4477152,1 1,1 0.5522848,0 1,-0.4477 1,-1 0,-0.5523 -0.4477152,-1 -1,-1 z" id="path3914" />
        <path inkscape:connector-curvature="0" style="color:black;fill:url(#linearGradient3224-5);fill-opacity:1;fill-rule:nonzero;stroke:none;stroke-width:1;marker:none;visibility:visible;display:inline;overflow:visible;enable-background:accumulate" d="m 0,1039.3622 0,1 4,0 0,-1 -4,0 z m 0,4 0,1 4,0 0,-1 -4,0 z m 0,4 0,1 4,0 0,-1 -4,0 z" id="path3475" />
    </g>
</svg>
