<?xml version="1.0" encoding="UTF-8" standalone="no"?>
<!-- Created with Inkscape (http://www.inkscape.org/) -->

<svg xmlns:dc="http://purl.org/dc/elements/1.1/" xmlns:cc="http://creativecommons.org/ns#" xmlns:rdf="http://www.w3.org/1999/02/22-rdf-syntax-ns#" xmlns:svg="http://www.w3.org/2000/svg" xmlns="http://www.w3.org/2000/svg" xmlns:xlink="http://www.w3.org/1999/xlink" xmlns:sodipodi="http://sodipodi.sourceforge.net/DTD/sodipodi-0.dtd" xmlns:inkscape="http://www.inkscape.org/namespaces/inkscape" version="1.0" width="16" height="16" id="svg3437" inkscape:version="0.48.4 r9939" sodipodi:docname="xfce-ui.svg">
    <metadata id="metadata101">
        <rdf:RDF>
            <cc:Work rdf:about="">
                <dc:format>image/svg+xml</dc:format>
                <dc:type rdf:resource="http://purl.org/dc/dcmitype/StillImage" />
                <dc:title />
            </cc:Work>
        </rdf:RDF>
    </metadata>
    <sodipodi:namedview pagecolor="#ffffff" bordercolor="#666666" borderopacity="1" objecttolerance="10" gridtolerance="10" guidetolerance="10" inkscape:pageopacity="0" inkscape:pageshadow="2" inkscape:window-width="1280" inkscape:window-height="976" id="namedview99" showgrid="true" inkscape:zoom="18.88372" inkscape:cx="12.50906" inkscape:cy="8.9862532" inkscape:window-x="0" inkscape:window-y="24" inkscape:window-maximized="1" inkscape:current-layer="svg3437" inkscape:snap-to-guides="true" inkscape:snap-grids="true" showguides="true" inkscape:guide-bbox="true" inkscape:snap-page="true" inkscape:snap-center="true" inkscape:snap-object-midpoints="true">
        <inkscape:grid type="xygrid" id="grid911" empspacing="5" visible="true" enabled="true" snapvisiblegridlinesonly="true" />
    </sodipodi:namedview>
    <defs id="defs3439">
        <filter id="filter3174-4" color-interpolation-filters="sRGB">
            <feGaussianBlur stdDeviation="1.71" id="feGaussianBlur3176-2" />
        </filter>
        <linearGradient gradientTransform="scale(1.0058652,0.994169)" gradientUnits="userSpaceOnUse" id="ButtonShadow-91" y2="7.0165396" x2="45.447727" y1="92.539597" x1="45.447727">
            <stop offset="0" style="stop-color:#000000;stop-opacity:1" id="stop3750-4" />
            <stop offset="1" style="stop-color:#000000;stop-opacity:0.58823532" id="stop3752-2" />
        </linearGradient>
        <linearGradient x1="45.447727" y1="92.539597" x2="45.447727" y2="7.0165396" id="ButtonShadow-9" gradientUnits="userSpaceOnUse" gradientTransform="scale(1.0058652,0.994169)">
            <stop id="stop3750-3" style="stop-color:#000000;stop-opacity:1" offset="0" />
            <stop id="stop3752-0" style="stop-color:#000000;stop-opacity:0.58823532" offset="1" />
        </linearGradient>
        <filter color-interpolation-filters="sRGB" id="filter3174-2">
            <feGaussianBlur id="feGaussianBlur3176-1" stdDeviation="1.71" />
        </filter>
        <linearGradient x1="45.447727" y1="92.539597" x2="45.447727" y2="7.0165396" id="ButtonShadow" gradientUnits="userSpaceOnUse" gradientTransform="scale(1.0058652,0.994169)">
            <stop id="stop3750" style="stop-color:#000000;stop-opacity:1" offset="0" />
            <stop id="stop3752" style="stop-color:#000000;stop-opacity:0.58823532" offset="1" />
        </linearGradient>
        <filter color-interpolation-filters="sRGB" id="filter3174">
            <feGaussianBlur id="feGaussianBlur3176" stdDeviation="1.71" />
        </filter>
        <linearGradient id="linearGradient965-0-6">
            <stop id="stop967-4-7" offset="0" style="stop-color:#ffffff;stop-opacity:0.31451613;" />
            <stop id="stop969-4-0" offset="1" style="stop-color:#ffffff;stop-opacity:0;" />
        </linearGradient>
        <linearGradient id="linearGradient4008-7">
            <stop id="stop4010-2" offset="0" style="stop-color:#ffffff;stop-opacity:0.61290324;" />
            <stop id="stop4012-31" offset="1" style="stop-color:#ffffff;stop-opacity:0.12096774;" />
        </linearGradient>
        <linearGradient id="linearGradient8589-4-3">
            <stop offset="0" style="stop-color:#fefefe;stop-opacity:1" id="stop8591-7-2" />
            <stop offset="1" style="stop-color:#cbcbcb;stop-opacity:1" id="stop8593-2-4" />
        </linearGradient>
        <filter id="filter3198" x="-0.086712047" width="1.1734241" y="-0.10751635" height="1.2150327">
            <feGaussianBlur inkscape:collect="always" stdDeviation="0.71710775" id="feGaussianBlur3200" />
        </filter>
        <linearGradient id="linearGradient3793-6-4">
            <stop style="stop-color:#56b1d5;stop-opacity:1" offset="0" id="stop3795-6-1" />
            <stop style="stop-color:#124275;stop-opacity:1;" offset="1" id="stop3797-1-1" />
        </linearGradient>
        <filter id="filter3174-91" color-interpolation-filters="sRGB">
            <feGaussianBlur stdDeviation="1.71" id="feGaussianBlur3176-27" />
        </filter>
        <linearGradient gradientTransform="scale(1.0058652,0.994169)" gradientUnits="userSpaceOnUse" id="ButtonShadow-6" y2="7.0165396" x2="45.447727" y1="92.539597" x1="45.447727">
            <stop offset="0" style="stop-color:#000000;stop-opacity:1" id="stop3750-9" />
            <stop offset="1" style="stop-color:#000000;stop-opacity:0.58823532" id="stop3752-3" />
        </linearGradient>
        <filter id="filter3174-2-2" color-interpolation-filters="sRGB">
            <feGaussianBlur stdDeviation="1.71" id="feGaussianBlur3176-1-0" />
        </filter>
        <linearGradient gradientTransform="scale(1.0058652,0.994169)" gradientUnits="userSpaceOnUse" id="ButtonShadow-9-8" y2="7.0165396" x2="45.447727" y1="92.539597" x1="45.447727">
            <stop offset="0" style="stop-color:#000000;stop-opacity:1" id="stop3750-3-1" />
            <stop offset="1" style="stop-color:#000000;stop-opacity:0.58823532" id="stop3752-0-0" />
        </linearGradient>
        <linearGradient x1="45.447727" y1="92.539597" x2="45.447727" y2="7.0165396" id="ButtonShadow-91-9" gradientUnits="userSpaceOnUse" gradientTransform="scale(1.0058652,0.994169)">
            <stop id="stop3750-4-5" style="stop-color:#000000;stop-opacity:1" offset="0" />
            <stop id="stop3752-2-8" style="stop-color:#000000;stop-opacity:0.58823532" offset="1" />
        </linearGradient>
        <filter color-interpolation-filters="sRGB" id="filter3174-4-8">
            <feGaussianBlur id="feGaussianBlur3176-2-0" stdDeviation="1.71" />
        </filter>
        <linearGradient inkscape:collect="always" xlink:href="#linearGradient8589-4-3" id="linearGradient3390" gradientUnits="userSpaceOnUse" gradientTransform="matrix(0.62515036,0,0,0.72653211,-10.974481,2.8754667)" x1="32.892288" y1="8.0590115" x2="36.358372" y2="5.4565363" />
        <linearGradient inkscape:collect="always" xlink:href="#linearGradient965-0-6" id="linearGradient3394" gradientUnits="userSpaceOnUse" gradientTransform="matrix(0.31018157,0,0,0.36644307,16.647475,-0.79018634)" x1="23.429665" y1="8.403966" x2="23.429665" y2="39.357925" />
        <radialGradient inkscape:collect="always" xlink:href="#linearGradient4008-7" id="radialGradient3397" gradientUnits="userSpaceOnUse" gradientTransform="matrix(0.00671925,0,0,0.00429253,-1.4457953,6.3155342)" cx="1273.4375" cy="266.42468" fx="1273.4375" fy="266.42468" r="1301.5625" />
        <radialGradient inkscape:collect="always" xlink:href="#linearGradient3793-6-4" id="radialGradient3400" gradientUnits="userSpaceOnUse" gradientTransform="matrix(0.00651041,0,0,0.00663583,-0.40439497,5.801612)" cx="1321.3318" cy="209.04965" fx="1321.3318" fy="209.04965" r="1280" />
        <radialGradient inkscape:collect="always" xlink:href="#linearGradient3894-7-6-6" id="radialGradient3412-3" gradientUnits="userSpaceOnUse" gradientTransform="matrix(0.00521565,0,0,0.00528181,33.92231,6.2681349)" cx="1591.8929" cy="553.76575" fx="1591.8929" fy="553.76575" r="1280" />
        <linearGradient id="linearGradient3894-7-6-6">
            <stop style="stop-color:#ff54ec;stop-opacity:1;" offset="0" id="stop3896-3-4-5" />
            <stop style="stop-color:#801b1b;stop-opacity:1;" offset="1" id="stop3898-9-4-3" />
        </linearGradient>
        <linearGradient inkscape:collect="always" xlink:href="#linearGradient3845-5-6" id="linearGradient3414-4" gradientUnits="userSpaceOnUse" gradientTransform="matrix(0.32209892,0,0,0.32144093,32.562111,0.19267158)" x1="17.980892" y1="42.708393" x2="18.069281" y2="4.2010093" />
        <linearGradient id="linearGradient3845-5-6">
            <stop style="stop-color:#152235;stop-opacity:1;" offset="0" id="stop3847-2-9" />
            <stop id="stop4237-5-3" offset="0.5" style="stop-color:#22305d;stop-opacity:1;" />
            <stop style="stop-color:#972f2f;stop-opacity:1;" offset="1" id="stop3849-7-8" />
        </linearGradient>
    </defs>
    <g id="layer2" style="display:none" transform="translate(-23.686565,-209.78881)">
        <rect width="86" height="85" rx="6" ry="6" x="5" y="7" id="rect3745" style="opacity:0.9;fill:url(#ButtonShadow);fill-opacity:1;fill-rule:nonzero;stroke:none;filter:url(#filter3174)" />
    </g>
    <g id="layer4" transform="translate(-23.686565,-209.78881)" />
    <g id="layer2-0" style="display:none" transform="translate(2.877816,-199.33495)">
        <rect width="86" height="85" rx="6" ry="6" x="5" y="7" id="rect3745-7" style="opacity:0.9;fill:url(#ButtonShadow-91);fill-opacity:1;fill-rule:nonzero;stroke:none;filter:url(#filter3174-4)" />
    </g>
    <g id="layer4-3" transform="translate(2.877816,-199.33495)" />
    <g id="layer2-1" style="display:none" transform="translate(59.002817,-196.39972)">
        <rect width="86" height="85" rx="6" ry="6" x="5" y="7" id="rect3745-1" style="opacity:0.9;fill:url(#ButtonShadow-9);fill-opacity:1;fill-rule:nonzero;stroke:none;filter:url(#filter3174-2)" />
    </g>
    <g id="layer4-8" transform="translate(59.002817,-196.39972)" />
    <rect ry="2" y="1.4999998" x="0.5" height="13" width="15" id="rect4095" style="color:black;fill:url(#radialGradient3412-3);stroke:url(#linearGradient3414-4);stroke-width:0.99999994000000003;stroke-linecap:butt;stroke-linejoin:miter;stroke-miterlimit:4;stroke-opacity:1;stroke-dasharray:none;stroke-dashoffset:0;marker:none;visibility:visible;display:inline;overflow:visible;enable-background:accumulate;fill-opacity:1;fill-rule:nonzero" />
    <g id="layer2-4" style="display:none" transform="matrix(0.67745184,0,0,0.67745184,0.18367796,-136.92903)">
        <rect width="86" height="85" rx="6" ry="6" x="5" y="7" id="rect3745-6" style="opacity:0.9;fill:url(#ButtonShadow-6);fill-opacity:1;fill-rule:nonzero;stroke:none;filter:url(#filter3174-91)" />
    </g>
    <g id="layer4-34" transform="matrix(0.67745184,0,0,0.67745184,0.18367796,-136.92903)" />
    <g id="layer2-0-4" style="display:none" transform="matrix(0.67745184,0,0,0.67745184,18.179767,-129.84704)">
        <rect width="86" height="85" rx="6" ry="6" x="5" y="7" id="rect3745-7-5" style="opacity:0.9;fill:url(#ButtonShadow-91-9);fill-opacity:1;fill-rule:nonzero;stroke:none;filter:url(#filter3174-4-8)" />
    </g>
    <g id="layer4-3-4" transform="matrix(0.67745184,0,0,0.67745184,18.179767,-129.84704)" />
    <g id="layer2-1-1" style="display:none" transform="matrix(0.67745184,0,0,0.67745184,56.201752,-127.85856)">
        <rect width="86" height="85" rx="6" ry="6" x="5" y="7" id="rect3745-1-4" style="opacity:0.9;fill:url(#ButtonShadow-9-8);fill-opacity:1;fill-rule:nonzero;stroke:none;filter:url(#filter3174-2-2)" />
    </g>
    <g id="layer4-8-2" transform="matrix(0.67745184,0,0,0.67745184,56.201752,-127.85856)" />
    <path inkscape:connector-curvature="0" d="m 1,4.0000004 6.2118227,0 C 7.6922408,4.161342 14.326043,9.3939634 15,10.666667 l 0,1.880803 c 0,0.999721 -0.788852,1.59121 -1.399999,1.424579 l -11.2000016,0 C 1.7568866,13.972049 1,13.589689 1,12.54747 z" id="path4322" style="color:black;fill:url(#radialGradient3400);fill-opacity:1;fill-rule:nonzero;stroke:none;stroke-width:0.99999994;marker:none;visibility:visible;display:inline;overflow:visible;enable-background:accumulate" sodipodi:nodetypes="cccccccc" />
    <path inkscape:connector-curvature="0" style="fill:url(#radialGradient3397);fill-opacity:1;stroke:none" d="M 15,4 C 14.321741,5.1088743 11.880976,8.4988753 7.7916672,7.410383 11.263147,8.7087999 14.219588,6.249753 15,5.5169932 L 15,4 z M 5.9270828,4.7071699 c 0,0 -0.4927741,1.8401846 1.8020842,2.7260246 C 5.7123333,6.3701518 5.9270828,4.7071699 5.9270828,4.7071699 z M 1,5.2204381 1,8.1517702 c 0.052728,0.028856 0.068042,0.044163 0.135416,0.079842 C 1.0883292,8.2534969 1.0458716,8.2778433 1,8.3000509 L 1,8.6878533 C 1.1477596,8.5859026 1.2951668,8.4862968 1.4583327,8.3912983 2.6561597,8.9695271 5.0386199,9.8559153 8.1041674,9.7029848 11.615158,11.900985 14.35619,10.714708 15,10.375937 L 15,9.8284498 C 14.409316,10.160085 11.961116,11.306893 8.5312495,9.6801735 9.0181318,9.6409424 9.5151072,9.5849938 10.03125,9.4862712 c 0.198,0.3153399 0.554246,0.6248058 1.1875,0.7756058 -0.541003,-0.20371 -0.874878,-0.5035298 -1.083333,-0.7984173 0.70673,-0.1404145 1.435601,-0.340508 2.187501,-0.6159222 C 11.519774,9.0792849 10.746294,9.201407 10.010417,9.246746 9.8032994,8.8533257 9.7916667,8.516765 9.7916667,8.516765 c 0,0 -0.033148,0.3417967 0.1250004,0.729981 C 9.0359094,9.2924249 8.2008724,9.2318982 7.4270834,9.0756567 7.016909,8.821867 6.5980064,8.5255912 6.1666672,8.1859924 6.4808971,8.4831385 6.7982361,8.754558 7.1041667,8.9958155 5.817626,8.6908992 4.6837478,8.1641307 3.7499992,7.5814755 4.5395014,7.4721417 5.4137474,7.51056 6.3854165,7.7753763 5.4232422,7.4525339 4.5040918,7.3979293 3.6354163,7.5016335 3.4935826,7.4107712 3.351381,7.320234 3.2187497,7.2278907 4.2991844,7.0856965 5.5530247,7.1533129 6.9479166,7.6499114 11.105736,9.1301345 14.198839,8.4195327 15,8.1859924 L 15,5.9276111 C 14.145017,6.7288708 11.255442,9.0008539 7.0416664,7.4902251 5.2096707,6.8334585 3.6486526,6.6112964 2.3958332,6.60056 2.0005184,6.2773023 1.6747488,5.9794695 1.406249,5.7108949 2.63813,5.6264445 4.2464084,5.8621317 6.239584,6.8400852 3.9878983,5.6173194 2.2567904,5.2439859 1,5.2204381 z M 15,9.280962 c -1.864046,1.315976 -3.520832,1.003724 -3.520832,1.003724 0,0 1.736263,0.558919 3.520832,-0.8440408 L 15,9.280962 z" id="path3856-9" />
    <rect ry="0.97058821" y="2.5" x="1.5000001" height="11" width="13" id="rect963" style="color:black;fill:none;stroke:url(#linearGradient3394);stroke-width:0.99999988;stroke-linecap:butt;stroke-linejoin:miter;stroke-miterlimit:4;stroke-opacity:1;stroke-dasharray:none;stroke-dashoffset:0;marker:none;visibility:visible;display:inline;overflow:visible;enable-background:accumulate" />
    <path inkscape:connector-curvature="0" d="m 25.684596,13.786158 c 3.638583,-0.350201 2.843232,14.020035 2.843232,14.020035 0,0 16.093218,-0.848461 16.524808,1.954338 3.85075,-3.268904 -16.653508,-16.761074 -19.36804,-15.974373 z" id="path4891" style="opacity:0.75;fill:#001c3c;fill-opacity:1;fill-rule:evenodd;stroke:none;display:inline;filter:url(#filter3198)" transform="matrix(0.4981184,0,0,0.46478838,-7.0020696,-2.1685388)" />
    <path inkscape:connector-curvature="0" d="m 7.0108649,4 c 1.5537402,0.310257 1.390432,5.756258 1.390432,5.756258 0,0 5.6128801,-0.5366907 6.5652921,1.243742 C 15.368217,10.056729 10.303118,5.2885365 7.8230079,4.2149109 7.504325,4.0769546 7.2279484,4 7.0108649,4 z" id="path4893" style="fill:url(#linearGradient3390);fill-opacity:1;fill-rule:evenodd;stroke:none;display:inline" sodipodi:nodetypes="cccsc" />
</svg>
