<?xml version="1.0" encoding="UTF-8" standalone="no"?>
<!-- Created with Inkscape (http://www.inkscape.org/) -->

<svg xmlns:dc="http://purl.org/dc/elements/1.1/" xmlns:cc="http://creativecommons.org/ns#" xmlns:rdf="http://www.w3.org/1999/02/22-rdf-syntax-ns#" xmlns:svg="http://www.w3.org/2000/svg" xmlns="http://www.w3.org/2000/svg" xmlns:xlink="http://www.w3.org/1999/xlink" xmlns:sodipodi="http://sodipodi.sourceforge.net/DTD/sodipodi-0.dtd" xmlns:inkscape="http://www.inkscape.org/namespaces/inkscape" version="1.0" width="16" height="16" id="svg3437" inkscape:version="0.48.3.1 r9886" sodipodi:docname="preferences-desktop-theme.svg">
  <metadata id="metadata101">
    <rdf:RDF>
      <cc:Work rdf:about="">
        <dc:format>image/svg+xml</dc:format>
        <dc:type rdf:resource="http://purl.org/dc/dcmitype/StillImage" />
        <dc:title />
      </cc:Work>
    </rdf:RDF>
  </metadata>
  <sodipodi:namedview pagecolor="#ffffff" bordercolor="#666666" borderopacity="1" objecttolerance="10" gridtolerance="10" guidetolerance="10" inkscape:pageopacity="0" inkscape:pageshadow="2" inkscape:window-width="1280" inkscape:window-height="976" id="namedview99" showgrid="true" inkscape:zoom="37.76744" inkscape:cx="12.50906" inkscape:cy="8.8273862" inkscape:window-x="0" inkscape:window-y="24" inkscape:window-maximized="1" inkscape:current-layer="svg3437" inkscape:snap-to-guides="true" inkscape:snap-grids="true" showguides="true" inkscape:guide-bbox="true">
    <inkscape:grid type="xygrid" id="grid911" empspacing="5" visible="true" enabled="true" snapvisiblegridlinesonly="true" />
  </sodipodi:namedview>
  <defs id="defs3439">
    <linearGradient id="linearGradient965">
      <stop id="stop967" offset="0" style="stop-color:white;stop-opacity:0.50196081;" />
      <stop id="stop969" offset="1" style="stop-color:white;stop-opacity:0.09411765;" />
    </linearGradient>
    <linearGradient id="linearGradient1056">
      <stop style="stop-color:#474747;stop-opacity:1;" offset="0" id="stop1058" />
      <stop style="stop-color:#121212;stop-opacity:1;" offset="1" id="stop1060" />
    </linearGradient>
    <linearGradient id="linearGradient4008">
      <stop id="stop4010" offset="0" style="stop-color:white;stop-opacity:0.78431374;" />
      <stop style="stop-color:white;stop-opacity:0.23529412;" offset="0.5" id="stop4177" />
      <stop id="stop4012" offset="1" style="stop-color:white;stop-opacity:0.78431374;" />
    </linearGradient>
    <linearGradient id="linearGradient3793-6">
      <stop id="stop3795-6" offset="0" style="stop-color:#56b1d5;stop-opacity:1" />
      <stop id="stop3797-1" offset="1" style="stop-color:#124275;stop-opacity:1;" />
    </linearGradient>
    <filter id="filter3174-4" color-interpolation-filters="sRGB">
      <feGaussianBlur stdDeviation="1.71" id="feGaussianBlur3176-2" />
    </filter>
    <linearGradient gradientTransform="scale(1.0058652,0.994169)" gradientUnits="userSpaceOnUse" id="ButtonShadow-91" y2="7.0165396" x2="45.447727" y1="92.539597" x1="45.447727">
      <stop offset="0" style="stop-color:#000000;stop-opacity:1" id="stop3750-4" />
      <stop offset="1" style="stop-color:#000000;stop-opacity:0.58823532" id="stop3752-2" />
    </linearGradient>
    <linearGradient x1="45.447727" y1="92.539597" x2="45.447727" y2="7.0165396" id="ButtonShadow-9" gradientUnits="userSpaceOnUse" gradientTransform="scale(1.0058652,0.994169)">
      <stop id="stop3750-3" style="stop-color:#000000;stop-opacity:1" offset="0" />
      <stop id="stop3752-0" style="stop-color:#000000;stop-opacity:0.58823532" offset="1" />
    </linearGradient>
    <filter color-interpolation-filters="sRGB" id="filter3174-2">
      <feGaussianBlur id="feGaussianBlur3176-1" stdDeviation="1.71" />
    </filter>
    <linearGradient x1="45.447727" y1="92.539597" x2="45.447727" y2="7.0165396" id="ButtonShadow" gradientUnits="userSpaceOnUse" gradientTransform="scale(1.0058652,0.994169)">
      <stop id="stop3750" style="stop-color:#000000;stop-opacity:1" offset="0" />
      <stop id="stop3752" style="stop-color:#000000;stop-opacity:0.58823532" offset="1" />
    </linearGradient>
    <filter color-interpolation-filters="sRGB" id="filter3174">
      <feGaussianBlur id="feGaussianBlur3176" stdDeviation="1.71" />
    </filter>
    <linearGradient id="linearGradient3877">
      <stop id="stop3879" offset="0" style="stop-color:#cdf2ff;stop-opacity:1;" />
      <stop id="stop3881" offset="1" style="stop-color:#007fc4;stop-opacity:1;" />
    </linearGradient>
    <linearGradient id="linearGradient1056-0-1">
      <stop id="stop1058-7-1" offset="0" style="stop-color:#474747;stop-opacity:1;" />
      <stop id="stop1060-3-7" offset="1" style="stop-color:#1b1b1b;stop-opacity:1;" />
    </linearGradient>
    <filter inkscape:collect="always" id="filter4540" x="-0.11652632" width="1.2330526" y="-0.10063636" height="1.2012727" color-interpolation-filters="sRGB">
      <feGaussianBlur inkscape:collect="always" stdDeviation="0.46125" id="feGaussianBlur4542" />
    </filter>
    <filter inkscape:collect="always" id="filter4552" x="-0.13064095" width="1.2612818" y="-0.061900508" height="1.123801" color-interpolation-filters="sRGB">
      <feGaussianBlur inkscape:collect="always" stdDeviation="0.4642538" id="feGaussianBlur4554" />
    </filter>
    <radialGradient inkscape:collect="always" xlink:href="#linearGradient3793-6" id="radialGradient3057" gradientUnits="userSpaceOnUse" gradientTransform="matrix(0.0091729,0,0,0.0090633,0.769254,3.995926)" cx="1608.7716" cy="152.42702" fx="1608.7716" fy="152.42702" r="1280" />
    <linearGradient inkscape:collect="always" xlink:href="#linearGradient1056" id="linearGradient3059" gradientUnits="userSpaceOnUse" gradientTransform="matrix(0.48837208,0,0,0.61290325,0.668775,-8.319071)" x1="23.429665" y1="8.403966" x2="23.429665" y2="39.357925" />
    <linearGradient inkscape:collect="always" xlink:href="#linearGradient4008" id="linearGradient3061" gradientUnits="userSpaceOnUse" gradientTransform="translate(0.389705,-4.6093935)" x1="2" y1="11" x2="22" y2="11" />
    <linearGradient inkscape:collect="always" xlink:href="#linearGradient965" id="linearGradient3063" gradientUnits="userSpaceOnUse" gradientTransform="matrix(0.44186046,0,0,0.54838706,1.785053,-6.7706842)" x1="23.429665" y1="8.403966" x2="23.429665" y2="39.357925" />
    <linearGradient inkscape:collect="always" xlink:href="#linearGradient1056-0-1" id="linearGradient3065" gradientUnits="userSpaceOnUse" gradientTransform="matrix(0.48837209,0,0,0.61440359,14.168775,-8.692291)" x1="23.429665" y1="8.403966" x2="23.429665" y2="39.357925" />
    <radialGradient inkscape:collect="always" xlink:href="#linearGradient3877" id="radialGradient3067" gradientUnits="userSpaceOnUse" gradientTransform="matrix(1.7500001,0,0,1.7500001,-7.460296,-12.409396)" cx="10.771429" cy="9.0285721" fx="10.771429" fy="9.0285721" r="4" />
    <radialGradient inkscape:collect="always" xlink:href="#linearGradient3877" id="radialGradient3838" gradientUnits="userSpaceOnUse" gradientTransform="matrix(1.2479109,0,0,1.2173914,-6.0155996,-4.8173927)" cx="10.771429" cy="9.0285721" fx="10.771429" fy="9.0285721" r="4" />
    <linearGradient inkscape:collect="always" xlink:href="#linearGradient1056-0-1" id="linearGradient3841" gradientUnits="userSpaceOnUse" gradientTransform="matrix(0.3488372,0,0,0.42038141,9.2707644,-2.3198771)" x1="23.429665" y1="8.403966" x2="23.429665" y2="39.357925" />
    <linearGradient inkscape:collect="always" xlink:href="#linearGradient965" id="linearGradient3846" gradientUnits="userSpaceOnUse" gradientTransform="matrix(0.31508712,0,0,0.38148665,0.4253737,-1.2643757)" x1="23.429665" y1="8.403966" x2="23.429665" y2="39.357925" />
    <linearGradient inkscape:collect="always" xlink:href="#linearGradient4008" id="linearGradient3849" gradientUnits="userSpaceOnUse" gradientTransform="matrix(0.69999998,0,0,0.80000006,-0.39999996,-0.75553627)" x1="2" y1="11" x2="22" y2="11" />
    <radialGradient inkscape:collect="always" xlink:href="#linearGradient3793-6" id="radialGradient3855" gradientUnits="userSpaceOnUse" gradientTransform="matrix(0.00654112,0,0,0.0063049,-0.29898436,6.2254401)" cx="1608.7716" cy="152.42702" fx="1608.7716" fy="152.42702" r="1280" />
    <linearGradient inkscape:collect="always" xlink:href="#linearGradient1056" id="linearGradient3857" gradientUnits="userSpaceOnUse" gradientTransform="matrix(0.34825418,0,0,0.42636748,-0.37063512,-2.3415143)" x1="23.429665" y1="8.403966" x2="23.429665" y2="39.357925" />
  </defs>
  <g id="layer2" style="display:none" transform="translate(-23.686565,-209.78881)">
    <rect width="86" height="85" rx="6" ry="6" x="5" y="7" id="rect3745" style="opacity:0.9;fill:url(#ButtonShadow);fill-opacity:1;fill-rule:nonzero;stroke:none;filter:url(#filter3174)" />
  </g>
  <g id="layer4" transform="translate(-23.686565,-209.78881)" />
  <g id="layer2-0" style="display:none" transform="translate(2.877816,-199.33495)">
    <rect width="86" height="85" rx="6" ry="6" x="5" y="7" id="rect3745-7" style="opacity:0.9;fill:url(#ButtonShadow-91);fill-opacity:1;fill-rule:nonzero;stroke:none;filter:url(#filter3174-4)" />
  </g>
  <g id="layer4-3" transform="translate(2.877816,-199.33495)" />
  <g id="layer2-1" style="display:none" transform="translate(59.002817,-196.39972)">
    <rect width="86" height="85" rx="6" ry="6" x="5" y="7" id="rect3745-1" style="opacity:0.9;fill:url(#ButtonShadow-9);fill-opacity:1;fill-rule:nonzero;stroke:none;filter:url(#filter3174-2)" />
  </g>
  <g id="layer4-8" transform="translate(59.002817,-196.39972)" />
  <path style="color:black;fill:#f0388d;fill-opacity:1;fill-rule:nonzero;stroke:none;stroke-width:0.99999994000000003;marker:none;visibility:visible;display:inline;overflow:visible;enable-background:accumulate" d="m 4.9313573,1.6304348 c 5.0834667,0 9.5078917,0 9.5078917,0 0.409519,0 0.679136,0.3156811 0.679136,0.6768507 l 0,11.1492365 c 0,0.281231 -0.430912,0.695652 -0.713092,0.695652 l -5.7047357,0 z" id="rect3887" inkscape:connector-curvature="0" sodipodi:nodetypes="csssscc" />
  <path style="color:black;fill:#001422;fill-opacity:1;fill-rule:nonzero;stroke:none;stroke-width:0.97368412999999998;marker:none;visibility:visible;display:inline;overflow:visible;filter:url(#filter4552);enable-background:accumulate" d="M 9.6439154,2.8857908 16,9.8258468 13.227528,20.885791 l 2.416387,0 c 0,0 2.528789,-2.908567 2.528789,-8 0,-7.1134802 -5.028789,-10.0000002 -5.028789,-10.0000002 z" id="path3988" inkscape:connector-curvature="0" sodipodi:nodetypes="ccccccc" transform="matrix(0.71307821,0,0,0.68779689,-0.56952002,-0.28370554)" />
  <path inkscape:connector-curvature="0" id="path3973" d="m 1.5696381,1.6304349 c -0.2821805,0 -0.71309194,0.4218215 -0.71309194,0.6956522 l 0,11.1304349 c 0,0.27383 0.43091144,0.695652 0.71309194,0.695652 l 7.1309192,0 C 10.126741,12.76087 10.839833,9.9782609 10.839833,7.8913044 c 0,-2.0869565 -2.1392757,-6.2608695 -4.2785515,-6.2608695 z" style="color:black;fill:#0091dd;fill-opacity:1;fill-rule:nonzero;stroke:none;stroke-width:0.99999994000000003;marker:none;visibility:visible;display:inline;overflow:visible;enable-background:accumulate" sodipodi:nodetypes="sssscsss" />
  <path style="fill:url(#linearGradient3849);fill-opacity:1;stroke:none" d="M 15,4.0444639 C 14.853144,4.3509582 12.311237,9.4944851 7.6139701,8.1234066 11.602847,9.7594371 14.92172,5.9583862 15,5.8676279 l 0,-1.823164 z M 5.7610296,5.156903 c 0,0 -0.4851477,2.0294962 1.8014702,2.9974044 C 5.552909,6.99278 5.7610296,5.156903 5.7610296,5.156903 z M 1,5.7440237 1,9.3903514 c 0.1038009,-0.074896 0.197897,-0.1454864 0.3088239,-0.216308 1.1935258,0.6317977 3.5594306,1.6194496 6.6139694,1.4523516 4.0109607,2.753516 7.0257347,0.648923 7.0257347,0.648923 l 0,-0.618023 c 0,0 -2.648985,1.986956 -6.5882341,-0.0618 0.4851322,-0.04286 0.9783572,-0.108433 1.4926471,-0.216308 0.197288,0.344556 0.552841,0.70046 1.183823,0.865231 C 10.497702,11.021836 10.163587,10.670493 9.9558823,10.348287 10.660075,10.194862 11.368446,10.000294 12.117646,9.6993634 11.317387,9.9525824 10.560439,10.08244 9.8272062,10.13198 9.6208322,9.702109 9.6213229,9.3285506 9.6213229,9.3285506 c 0,0 -0.054656,0.37928 0.1029413,0.8034294 C 8.84667,10.181883 8.0246861,10.117275 7.2536767,9.9465715 6.844976,9.669269 6.4224371,9.3287985 5.992647,8.9577379 6.3057492,9.2824137 6.6142854,9.590261 6.9191172,9.8538691 5.6371968,9.5207052 4.5296603,8.9454508 3.599265,8.3088161 4.3859321,8.1893537 5.2560839,8.2357761 6.2242649,8.5251242 5.2655451,8.1723681 4.3361439,8.1027976 3.4705883,8.2161098 3.329264,8.1168289 3.1909796,8.0079977 3.0588238,7.9070987 4.1353804,7.7517305 5.374822,7.8280106 6.7647056,8.3706153 11.548023,10.237994 14.933823,8.9221866 15,8.8959339 L 15,6.300243 C 14.565625,6.8015263 11.525431,10.04719 6.867647,8.2161098 5.0422304,7.4984977 3.4836161,7.239008 2.2352941,7.2272753 1.8413993,6.8740706 1.524888,6.5627993 1.2573529,6.2693421 2.4848098,6.1770678 4.0838352,6.43683 6.0698528,7.5053849 3.905086,6.2162804 2.2400353,5.7973951 1,5.7440237 z m 14,4.2334477 c -1.942873,1.6374726 -3.705882,1.2669446 -3.705882,1.2669446 0,0 1.85961,0.679094 3.705882,-1.081538 l 0,-0.1854066 z" id="path3856" inkscape:connector-curvature="0" />
  <path style="color:black;fill:none;stroke:#99d9ff;stroke-width:1;stroke-opacity:1;marker:none;visibility:visible;display:inline;overflow:visible;enable-background:accumulate" d="m 8.7005573,14.5 c 0,0 2.1392757,-2.434783 2.1392757,-5.9130434 0,-4.0093057 -3.3320823,-6.1652307 -4.7806888,-6.9833199" id="path4165" inkscape:connector-curvature="0" sodipodi:nodetypes="ccc" />
  <path sodipodi:nodetypes="ccccc" inkscape:connector-curvature="0" id="path3853" d="M 16.5,14 C 16.5,9.715087 7,13 7,13 7,13 12,5 7,3 l 3,0 c 2,0 6.5,4 6.5,11 z" style="color:black;fill:#000b12;fill-opacity:1;fill-rule:nonzero;stroke:none;stroke-width:0.97368412999999998;marker:none;visibility:visible;display:inline;overflow:visible;filter:url(#filter4540);enable-background:accumulate" transform="matrix(0.71309192,0,0,0.68438612,-0.41782728,0.08323973)" />
  <rect ry="2" y="1.4999998" x="0.5" height="13" width="15" id="rect4095" style="color:black;fill:none;stroke:url(#linearGradient3841);stroke-width:1;stroke-linecap:butt;stroke-linejoin:miter;stroke-miterlimit:4;stroke-opacity:1;stroke-dasharray:none;stroke-dashoffset:0;marker:none;visibility:visible;display:inline;overflow:visible;enable-background:accumulate" />
  <path style="color:black;fill:url(#radialGradient3838);fill-opacity:1;fill-rule:nonzero;stroke:none;stroke-width:0.99999994;marker:none;visibility:visible;display:inline;overflow:visible;enable-background:accumulate" d="M 11.348189,8.9565217 C 11.348189,5.8626227 6,7.5652174 6,7.5652174 6,7.5652174 8.1392758,4.0869565 6,2 l 1.4261838,0 c 0,0 3.9220052,2.0790909 3.9220052,6.9565217 z" id="rect3049" inkscape:connector-curvature="0" sodipodi:nodetypes="ccccc" />
</svg>
