<?xml version="1.0" encoding="UTF-8" standalone="no"?>
<svg xmlns:dc="http://purl.org/dc/elements/1.1/" xmlns:cc="http://creativecommons.org/ns#" xmlns:rdf="http://www.w3.org/1999/02/22-rdf-syntax-ns#" xmlns:svg="http://www.w3.org/2000/svg" xmlns="http://www.w3.org/2000/svg" xmlns:xlink="http://www.w3.org/1999/xlink" xmlns:sodipodi="http://sodipodi.sourceforge.net/DTD/sodipodi-0.dtd" xmlns:inkscape="http://www.inkscape.org/namespaces/inkscape" viewBox="0 0 16 16" id="svg2" version="1.1" inkscape:version="0.48.4 r9939" width="100%" height="100%" sodipodi:docname="preferences-desktop-locale.svg">
    <metadata id="metadata51">
        <rdf:RDF>
            <cc:Work rdf:about="">
                <dc:format>image/svg+xml</dc:format>
                <dc:type rdf:resource="http://purl.org/dc/dcmitype/StillImage" />
            </cc:Work>
        </rdf:RDF>
    </metadata>
    <sodipodi:namedview pagecolor="#ffffff" bordercolor="#666666" borderopacity="1" objecttolerance="10" gridtolerance="10" guidetolerance="10" inkscape:pageopacity="0" inkscape:pageshadow="2" inkscape:window-width="1280" inkscape:window-height="976" id="namedview49" showgrid="true" inkscape:zoom="22.627416" inkscape:cx="14.384765" inkscape:cy="9.5768304" inkscape:window-x="0" inkscape:window-y="24" inkscape:window-maximized="1" inkscape:current-layer="svg2" inkscape:snap-bbox="true">
        <inkscape:grid type="xygrid" id="grid3259" empspacing="5" visible="true" enabled="true" snapvisiblegridlinesonly="true" />
    </sodipodi:namedview>
    <defs id="defs4">
        <linearGradient id="linearGradient4416">
            <stop style="stop-color:black;stop-opacity:0.54901963;" offset="0" id="stop4420" />
            <stop id="stop4422" offset="1" style="stop-color:black;stop-opacity:0;" />
        </linearGradient>
        <linearGradient id="linearGradient4404">
            <stop style="stop-color:#dcdcdc;stop-opacity:1;" offset="0" id="stop4408" />
            <stop id="stop4410" offset="1" style="stop-color:black;stop-opacity:1;" />
        </linearGradient>
        <linearGradient id="linearGradient4338">
            <stop style="stop-color:black;stop-opacity:1;" offset="0" id="stop4340" />
            <stop id="stop4346" offset="0.5" style="stop-color:#d2d2d2;stop-opacity:1;" />
            <stop style="stop-color:black;stop-opacity:1;" offset="1" id="stop4342" />
        </linearGradient>
        <linearGradient id="linearGradient4309">
            <stop style="stop-color:white;stop-opacity:0;" offset="0" id="stop4311" />
            <stop id="stop4317" offset="0.5" style="stop-color:white;stop-opacity:0.3137255;" />
            <stop style="stop-color:white;stop-opacity:0;" offset="1" id="stop4313" />
        </linearGradient>
        <linearGradient inkscape:collect="always" xlink:href="#linearGradient4309" id="linearGradient4321" gradientUnits="userSpaceOnUse" gradientTransform="matrix(0.25000004,0,0,0.30555556,3.2500006,0.16666685)" x1="7" y1="24" x2="19" y2="24" />
        <linearGradient inkscape:collect="always" xlink:href="#linearGradient4338" id="linearGradient4344" x1="1" y1="11" x2="4" y2="11" gradientUnits="userSpaceOnUse" gradientTransform="matrix(0.99999994,0,0,0.30988372,-0.99999898,1.1255813)" />
        <radialGradient inkscape:collect="always" xlink:href="#linearGradient4404" id="radialGradient4402" cx="2.7142859" cy="-0.21428591" fx="2.7142859" fy="-0.21428591" r="2" gradientTransform="matrix(1.2,0,0,0.89999984,-0.65714282,0.39285721)" gradientUnits="userSpaceOnUse" />
        <linearGradient inkscape:collect="always" xlink:href="#linearGradient4416" id="linearGradient3081" gradientUnits="userSpaceOnUse" gradientTransform="matrix(0.25,0,0,0.30555555,0.25000155,0.16666707)" x1="1.0000001" y1="24.580645" x2="17" y2="24.580645" />
        <linearGradient id="linearGradient4050-7-6">
            <stop id="stop4052-6-6" offset="0" style="stop-color:white;stop-opacity:0.50196081;" />
            <stop id="stop4054-0-3" offset="1" style="stop-color:#ffffff;stop-opacity:0;" />
        </linearGradient>
        <linearGradient inkscape:collect="always" xlink:href="#linearGradient4050-7-6" id="linearGradient3892" gradientUnits="userSpaceOnUse" gradientTransform="matrix(2.2242233,0,0,0.26492908,-7.2596997,1.3528188)" x1="13.839919" y1="3.2931969" x2="13.839919" y2="23.579182" />
        <linearGradient inkscape:collect="always" xlink:href="#linearGradient3791-2" id="linearGradient4336-5" gradientUnits="userSpaceOnUse" gradientTransform="matrix(-0.3579003,0,0,0.29219102,17.10149,0.4874154)" x1="10" y1="45" x2="10" y2="3" />
        <linearGradient id="linearGradient3791-2">
            <stop style="stop-color:#163453;stop-opacity:1;" offset="0" id="stop3793-5" />
            <stop style="stop-color:#4b92db;stop-opacity:1;" offset="1" id="stop3795-8" />
        </linearGradient>
        <linearGradient inkscape:collect="always" xlink:href="#linearGradient4309" id="linearGradient3806" gradientUnits="userSpaceOnUse" gradientTransform="matrix(0.41666665,0,0,0.30555555,6.0833349,0.16666674)" x1="7" y1="24" x2="19" y2="24" />
    </defs>
    <path style="color:black;fill:url(#linearGradient4344);fill-opacity:1;fill-rule:nonzero;stroke:url(#linearGradient3425-9);stroke-width:0.99999994;stroke-linecap:butt;stroke-linejoin:miter;stroke-miterlimit:4;stroke-opacity:1;stroke-dasharray:none;stroke-dashoffset:0;marker:none;visibility:visible;display:inline;overflow:visible;enable-background:accumulate" d="M 1,3 0,3.6046512 0,16 3,16 3,3.6046512 2.000001,3 1,3 z" id="rect4323" inkscape:connector-curvature="0" />
    <rect y="1.5" x="0.50000334" height="12" width="15" id="rect3894" style="color:black;fill:#4b92db;fill-opacity:1;fill-rule:nonzero;stroke:url(#linearGradient4336-5);stroke-width:0.99999988;stroke-linecap:round;stroke-linejoin:round;stroke-miterlimit:4;stroke-opacity:1;stroke-dasharray:none;stroke-dashoffset:0;marker:none;visibility:visible;display:inline;overflow:visible;enable-background:accumulate" ry="1.9999994" rx="2" />
    <rect ry="1.5" style="color:black;fill:none;stroke:url(#linearGradient3892);stroke-width:0.99999976;stroke-linecap:butt;stroke-linejoin:miter;stroke-miterlimit:4;stroke-opacity:1;stroke-dasharray:none;stroke-dashoffset:0;marker:none;visibility:visible;display:inline;overflow:visible;enable-background:accumulate" id="rect3857" width="13" height="10" x="1.4999999" y="2.4999998" rx="1.5" />
    <g style="font-size:24.41373444px;font-style:normal;font-variant:normal;font-weight:bold;font-stretch:normal;text-align:start;line-height:125%;letter-spacing:0px;word-spacing:0px;writing-mode:lr-tb;text-anchor:start;fill:black;fill-opacity:1;stroke:none;font-family:Century Gothic;-inkscape-font-specification:Century Gothic Bold" id="text3835" transform="translate(-382.29915,-986.63472)" />
    <rect style="color:black;fill:url(#linearGradient3806);fill-opacity:1;stroke:url(#linearGradient3425-9);stroke-width:0.99999994;stroke-linecap:butt;stroke-linejoin:miter;stroke-miterlimit:4;stroke-opacity:1;stroke-dasharray:none;stroke-dashoffset:0;marker:none;visibility:visible;display:inline;overflow:visible;enable-background:accumulate" id="rect4307" width="5" height="11" x="9" y="2" />
    <rect y="2" x="5" height="11" width="3" id="rect4319" style="color:black;fill:url(#linearGradient4321);fill-opacity:1;stroke:url(#linearGradient3425-9);stroke-width:0.99999994;stroke-linecap:butt;stroke-linejoin:miter;stroke-miterlimit:4;stroke-opacity:1;stroke-dasharray:none;stroke-dashoffset:0;marker:none;visibility:visible;display:inline;overflow:visible;enable-background:accumulate" />
    <rect y="2" x="2" height="11" width="3" id="rect4412" style="color:black;fill:url(#linearGradient3081);fill-opacity:1;stroke:url(#linearGradient3425-9);stroke-width:0.99999994;stroke-linecap:butt;stroke-linejoin:miter;stroke-miterlimit:4;stroke-opacity:1;stroke-dasharray:none;stroke-dashoffset:0;marker:none;visibility:visible;display:inline;overflow:visible;enable-background:accumulate" ry="1.4999999" rx="1.5" />
    <path id="path247" style="fill:white" d="m 8.3056505,7.6565037 c 0.00888,-0.017297 0.029446,-0.092127 0.05302,-0.069095 0.023489,0.023025 0.038246,0 0.038246,0 0,0 0.011777,0.011536 0.00584,0.034577 -0.00584,0.022975 -0.0118,0.046055 -0.026552,0.048935 -0.014654,0.00287 -0.026485,0.01152 -0.044052,0.0144 -0.017634,0.00287 -0.026528,-0.028816 -0.026528,-0.028816 z m 0.194348,-0.02889 c 0.00584,-0.00564 0.0118,0.017288 0.023564,0.014416 0.011681,-0.00287 0.017634,0.020167 0.00584,0.020167 -0.0118,0 -0.0118,0.014409 -0.0118,0.020167 0,0.00573 0,0.020111 -0.00888,0.028775 -0.00882,0.00865 -0.017684,0.00287 -0.029489,-0.00287 -0.011739,-0.00564 -0.017575,-0.00564 -0.032356,-0.00564 -0.014673,0 -0.00305,0.02304 -0.00305,0.02304 0,0 -0.061829,-0.00287 -0.050026,-0.011536 0.011776,-0.00859 0.023564,-0.011528 0.014765,-0.017288 -0.00887,-0.00564 0,-0.011471 0,-0.022975 0,-0.011536 0.029455,-0.00564 0.020546,-0.014409 -0.00878,-0.00865 1.903e-4,-0.04203 0.014716,-0.023048 l 0.00889,-0.020183 c -0.00889,-0.00862 -0.00305,-0.01152 -0.020595,-0.017182 -0.017652,-0.00573 -0.00305,-0.040336 -0.00305,-0.040336 l 0.00305,-0.023024 c 0.00584,-0.028727 0.064723,-0.031664 0.067717,-0.00573 0.00305,0.02592 0,0.043192 0,0.043192 l 0.017685,0.00564 c 0,0 -0.00305,0.017362 -0.017685,0.017362 -0.014774,0 0,0.00852 -0.00888,0.017197 l 0.0089,0.014375 z M 10.67467,6.2439714 c -0.01572,0.015374 -0.05101,0.023048 -0.05101,0.023048 l -0.01185,0.042218 -0.01957,0.015341 c 0,0 0.0041,0.011512 0,0.038388 -0.0041,0.026845 -0.03928,0.042226 -0.03928,0.042226 l -0.01572,0.019195 c 0,0 -0.09462,0.00499 -0.105987,0 -0.03533,-0.01535 -0.01173,-0.061413 0.01185,-0.057576 0.02352,0.00385 -0.0041,-0.065267 -0.0041,-0.065267 l 0.03144,-0.00385 c 0,0 0.0041,-0.069112 0.0157,-0.069112 0.01174,0 -0.0041,-0.023011 -0.01967,-0.034536 -0.01569,-0.011475 -0.0353,-0.049853 -0.05107,-0.046028 -0.01569,0.00383 -0.07849,0 -0.07849,0 l -0.01173,0.023048 -0.0432,0.00765 c 0,0 0.0036,0.029684 -0.0037,0.038401 -0.02363,0.026849 -0.113865,0.08442 -0.07468,-0.011513 l 0.01173,-0.022989 v -0.034575 l -0.07059,-0.00383 c 0,0 -0.03534,-0.011542 -0.03534,-0.026895 0,-0.015361 -0.004,-0.034515 -0.004,-0.034515 l -0.08252,-0.088266 -0.098092,-0.01151 -0.00788,-0.019225 -0.058825,-0.00767 c -0.070705,-0.034514 -0.1335376,-0.00385 -0.1217346,0.05374 0.011762,0.057607 0.031359,0.080619 -0.00788,0.080619 -0.039305,0 -0.047147,-0.030697 -0.047147,-0.030697 0,0 -0.031359,-0.011536 -0.031359,0.00383 0,0.015374 -0.0118,0.046072 0,0.06141 0.011739,0.015353 -0.015755,0.038385 -0.027542,0.026872 -0.011681,-0.01152 -0.043128,-0.045996 -0.035267,-0.057518 0.00788,-0.01152 -0.055025,-0.084474 0.00788,-0.095979 0.062835,-0.011518 -0.00398,-0.046073 0.019672,-0.053705 l 0.031398,-0.015371 h 0.031375 l 0.019648,-0.015373 -0.051015,-0.00763 -0.031359,-0.00385 -0.058927,-0.00385 c -0.05885,0.038386 -0.070595,0.084458 -0.070595,0.084458 -0.031468,0.057555 -0.1059872,-0.023048 -0.078497,-0.05374 0.027432,-0.030716 -0.086396,-0.00385 -0.1060466,0.01151 -0.019673,0.015346 -0.078532,0.00767 -0.078532,0.00767 -0.011739,0.034571 -0.066694,-0.00385 -0.051015,-0.026848 0.015705,-0.023025 0.015705,-0.038386 0.015705,-0.038386 l -0.019598,-0.00385 -0.023531,0.042217 c -0.054975,0 -0.070705,0.030683 -0.058942,0.049889 0.011762,0.01916 -0.015687,-0.00385 -0.023565,0.023026 -0.00779,0.026872 0.00398,0.026872 0.027534,0.038387 0.023564,0.01152 -0.011799,0.01152 0.00398,0.030682 0.015696,0.019231 0.062819,0 0.035344,0.026895 -0.027475,0.026849 -0.082491,0.015374 -0.082491,0.015374 -0.00398,0.034486 -0.078497,0.026843 -0.086286,0.015345 -0.00788,-0.01152 -0.066745,-0.080618 -0.066745,-0.080618 l -0.07469,-0.00383 c -0.00779,-0.053705 0.035386,-0.026865 0.051065,-0.069077 0.015772,-0.042238 0.023626,-0.1112806 0.023626,-0.1112806 0,0 -0.062886,-0.00385 -0.066788,0.015354 -0.00398,0.019214 -0.043172,0.030716 -0.043172,0.030716 0,0 -0.031436,0.011494 -0.019638,0.026862 0.011776,0.015373 -0.023564,0.022989 -0.023564,0.022989 0,0 0.00593,0.024803 -0.00398,0.03455 -0.03135,0.030759 -0.109933,0.00385 -0.1216599,-0.00766 l -0.047147,-0.019191 -0.047113,-0.030699 -0.054923,0.022989 -0.015681,0.015373 h -0.058927 l -0.00398,0.046002 0.1059927,0.011513 0.00788,0.095001 -0.04323,-0.014349 h -0.027552 l -0.011739,-0.02304 -0.023565,-0.00383 v 0.084437 l 0.023565,0.019222 0.019673,0.019132 0.039254,0.00383 0.00788,0.046035 0.098091,0.00389 0.011777,0.019156 0.058927,0.00385 0.113832,0.1112614 -0.00788,0.034576 -0.019672,0.011512 c 0.00788,0.026861 -0.050964,0.01152 -0.050964,0.01152 v 0.022999 l 0.027399,0.00385 0.027559,0.015341 0.039212,-0.065226 c 0.043154,-0.026878 0.062768,0.01152 0.066746,0.034551 0.00398,0.023023 -0.01969,0.01917 -0.01969,0.01917 v 0.05378 l 0.023564,0.00761 c 0.039304,0.046063 -0.015672,0.07295 -0.015672,0.07295 l -0.011792,0.038353 c -0.01179,0.034552 -0.054952,0.026846 -0.054952,0.026846 l -0.015644,0.023048 -0.047172,0.01152 0.093205,0.011512 c 0.00888,-0.030715 0.032357,-0.038373 0.044144,-0.023025 0.0118,0.015373 0.0118,0.042226 0.0118,0.042226 l 0.023632,0.00385 -0.00398,0.042202 0.023565,0.00768 v 0.1227926 l 0.027475,0.030698 c 0.047113,-0.019155 0.047113,0.011536 0.023531,0.026885 -0.023531,0.015316 -0.00788,0.084456 -0.00788,0.084456 l -0.019622,0.019154 v 0.030732 l -0.023531,0.015341 v 0.042202 c -0.039279,-0.01917 -0.086394,-0.011544 -0.0982,0 -0.035267,-0.023048 -0.1098537,-0.015365 -0.1098537,0.00385 0.023522,0.030698 -0.027441,0.038372 -0.027441,0.038372 l -0.027542,0.030698 c 0.019673,0.038406 -0.019571,0.042202 -0.019571,0.042202 v 0.07295 l -0.047156,0.042225 0.00398,0.099795 c 0,0.026869 0.05885,0.030682 0.070587,0.015357 0.0118,-0.015357 0.058942,0.030748 0.058942,0.030748 h 0.035265 l 0.00787,-0.069108 -0.023574,-0.01152 V 7.3531308 l 0.039279,-0.042226 c 0.047114,-0.015342 0.031435,0.099849 0.031435,0.1113524 0.00398,0.042202 0.023481,0.038373 0.043153,0.030674 0.039245,-0.015365 0.00779,0.042275 -0.023564,0.038388 -0.031375,-0.00385 -0.0118,0.038365 -0.0118,0.038365 l 0.01969,0.00768 -0.035377,0.026885 -0.031325,0.034577 -0.039355,-0.011545 -0.047046,-0.00385 -0.015712,-0.026926 -0.027525,-0.00385 -0.00398,0.053706 -0.019598,0.023025 -0.047113,0.046137 c 0.062826,0 -0.00788,0.042129 -0.023564,0.042129 0.035318,0.01152 -0.00398,0.046105 -0.094186,0.01926 v 0.026836 l -0.031443,0.00385 0.027542,0.030658 0.031358,0.00385 -0.011788,0.06525 c 0,0.049877 -0.1295207,0.015299 -0.1413264,0.00385 l -0.00398,0.069103 -0.023574,0.00377 0.00398,0.046105 -0.00398,0.065266 0.043163,-0.00768 v 0.026885 l 0.1060488,0.00385 0.1530912,-0.1574091 0.090264,-0.019154 c 0.00788,-0.038438 0.047046,0.00768 0.047046,0.00768 0.039279,-0.00385 0.047147,0.022975 0.047147,0.022975 l 0.051065,0.00768 c 0.043128,0.011536 0.017059,0.015578 0.01959,0.030755 0.00398,0.022975 0.023531,0.015301 0.023531,0.015301 l 0.00788,-0.049877 0.023565,0.00385 -0.023652,-0.026885 -0.04323,-0.019235 -0.047072,-0.019153 c -0.031435,-0.042202 0.00786,-0.034495 0.03927,-0.030665 h 0.051015 c 0,0 0.058927,0.076712 0.058927,0.095926 0,0.019227 0.027475,0.023065 0.027475,0.023065 l 0.035251,-0.00385 0.0118,0.026828 h 0.035319 l 0.011799,0.022975 h 0.070662 L 9.1276741,7.9748089 9.06087,7.9633659 9.056888,7.924928 9.0098157,7.913408 C 8.9940604,7.848223 9.0215549,7.828989 9.0411734,7.859743 l 0.023549,0.00377 -0.00788,-0.057584 0.027458,-0.00768 -0.00788,-0.080624 -0.02354,-0.00761 V 7.683227 l 0.098089,0.00385 c -0.00779,-0.049958 0.00398,-0.072973 0.00398,-0.072973 h 0.027476 l 0.00398,0.019243 0.1201057,0.010901 0.084918,-0.093843 c -0.00422,-0.00711 0.00855,-0.011545 -7.854e-4,-0.020733 -0.0118,-0.011504 -0.027551,0 -0.047257,-0.011504 -0.01957,-0.011443 0,-0.076753 -0.00398,-0.092089 -0.00398,-0.015365 0.066804,-0.038438 0.055024,-0.00385 -0.011788,0.034568 0,0.049893 0,0.049893 0.051015,-0.046071 0.094205,0.00385 0.0903,0.015366 -0.00406,0.011504 0.027433,0.023023 0.047029,0.011504 0.019672,-0.011504 0.043214,0.034576 0.035353,0.057535 -0.00788,0.023025 -0.078489,0.019235 -0.082381,-0.00385 -0.00406,-0.023048 -0.015816,-0.015357 -0.023564,-0.00385 -0.00788,0.011512 -0.043153,0.019162 -0.062828,0.00761 -0.00398,-0.00213 -0.00584,-0.00425 -0.00694,-0.00607 l -0.084918,0.093843 0.0055,5.759e-4 c 0.047072,0.026893 0.023564,0.061413 0.00788,0.069103 -0.015764,0.00768 -0.04323,0.00768 -0.04323,0.00768 l -0.00779,0.015374 -0.1020899,0.00761 -0.00788,0.038415 c -0.051015,-0.00778 -0.070595,0.046023 -0.058825,0.072858 0.0118,0.026828 0,0.049877 0,0.049877 l 0.043171,0.019244 0.054915,-0.015301 c 0.00788,-0.038438 0.043154,-0.046128 0.074623,-0.069104 0.03135,-0.023048 0.082457,0.04213 0.066694,0.072875 -0.015696,0.030666 -0.015696,0.042202 -0.015696,0.042202 l 0.00398,0.034577 -0.039227,0.015316 -0.031384,0.015373 -0.00398,0.019219 H 9.1471537 l -0.019598,0.019162 -0.051065,0.00385 -0.015764,0.022999 -0.035267,0.00385 c 0,0 -0.058927,0.026885 -0.035344,0.057576 0.023549,0.030722 -0.09811,0.026893 -0.1256537,-0.015374 -0.00788,0.038349 -0.051015,0.00385 -0.051015,0.00385 l -0.043154,-0.011537 -0.00398,-0.05751 c -0.00788,-0.038415 -0.082457,-0.038415 -0.078489,-0.01152 0.00398,0.026885 -0.1413797,0.01152 -0.1413797,0.01152 l -0.047072,0.022042 -0.04323,0.024031 -0.00398,0.019162 -0.070705,0.00768 -0.031358,0.015373 -0.011762,-0.023048 h -0.031375 l -0.031436,0.042268 c -0.082414,0.00385 -0.1609138,0.049877 -0.1530895,0.069055 0.00787,0.019162 -0.031358,0.038438 -0.031358,0.038438 l -0.035361,0.011363 -0.023506,0.034585 -0.047113,0.015373 -0.00786,0.08064 -0.023506,0.0153 v 0.034585 l -0.027525,0.00761 v 0.019243 l -0.039245,0.00385 0.023498,0.0576 0.031511,0.015373 c 0.054949,0.00761 0.03135,0.072942 0.03135,0.072942 l 0.031375,0.00377 0.015754,0.042202 0.031358,0.061397 c 0.0118,0.046138 0.047139,0.034585 0.062828,0.030755 0.015706,-0.00377 0.03136,0.046024 0.03136,0.046024 l 0.1569935,0.00385 c 0,0 -0.00779,0.015373 0.01969,0.023048 0.027432,0.00761 0.2080219,0.015373 0.2159199,0.00385 -0.00788,-0.034585 0.098074,-0.042275 0.1413094,-0.011543 0.043128,0.030657 0.1020482,0.011543 0.1020482,0.011543 l 0.058875,0.069014 0.039337,0.084474 0.066685,0.019162 0.047072,0.011544 0.015754,0.06525 0.035258,0.00385 0.0118,0.042268 c 0.043214,0.030682 -0.0118,0.095945 -0.0118,0.095945 v 0.084402 l 0.031435,0.015373 -0.00398,0.030763 0.051099,0.049804 0.05885,0.00385 0.1492058,0.1534984 0.11772,0.034528 0.019598,0.061445 0.031468,-0.00385 0.023531,-0.019154 0.094186,-0.00385 0.047139,-0.042275 0.051015,-0.00761 0.4357381,-0.3569655 -0.03931,-0.023048 v -0.083975 c 0.07067,-0.049885 0.07459,-0.1382156 0.0078,-0.1458869 -0.05062,-0.00573 -0.02743,-0.057583 0.01969,-0.06525 l 0.02744,-0.011487 v -0.034592 l 0.09032,-0.080552 V 8.7505419 L 10.061834,8.5932993 c -0.086395,-0.030665 0,-0.2149291 0.05882,-0.2110779 0.05892,0.00377 -0.004,-0.2840074 -0.004,-0.2840074 l -0.03145,-0.015325 0.0079,-0.092162 h -0.04315 L 9.9792321,8.079053 9.9596345,8.140408 C 9.9517585,8.221105 9.7083742,8.205658 9.6965668,8.19413 9.6847792,8.18261 9.6023826,8.148099 9.6023826,8.148099 c 0,0 -0.062819,-0.049877 -0.074595,-0.034503 -0.011788,0.015373 -0.066685,-0.019236 -0.066685,-0.00768 0,0.01152 -0.051015,-0.026836 -0.051015,-0.026836 l -0.078489,-0.026895 0.058927,-0.011544 -0.0118,-0.046023 0.1019722,0.049877 c 0.0118,0.015301 0.062828,0.011545 0.062828,0.011545 l 0.015696,0.019227 c 0,0 0.031451,-0.00385 0.051132,0.019162 0.01959,0.023048 0.121622,0.00385 0.121622,0.00385 l 0.027475,0.022975 0.043163,0.015373 0.1217337,0.00385 0.00398,-0.072875 0.023565,-0.023048 -0.00398,-0.046105 0.027476,-0.022975 v -0.038358 l 0.023564,-0.00768 0.00398,-0.0844 0.01959,-0.00385 V 7.6565766 l -0.058876,-0.053746 c -0.00398,0.019235 -0.066685,0.019235 -0.066685,0.019235 0,0 -0.015696,0.026836 -0.027475,0.026836 -0.011739,0 0.015712,0.034512 0.00788,0.057576 -0.00788,0.022975 -0.039254,0.022975 -0.039254,0.022975 l -0.058927,0.015397 -0.015696,0.01922 h -0.0628 l -0.00779,-0.049877 0.070595,-0.019243 0.039254,-0.019145 0.019672,-0.038438 c 0.00398,-0.038323 0.051015,-0.034544 0.051015,-0.034544 0,0 0.090284,-0.072933 0.094186,-0.1074105 0.00398,-0.034577 0.035368,-0.130527 0.090301,-0.130527 h 0.102071 c 0.03922,-0.01539 0.02746,-0.065267 0.02746,-0.065267 l 0.05105,-0.00761 0.0078,0.026886 c 0,0 0.07069,0.00768 0.07849,-0.00385 0.0078,-0.011455 0.02356,-0.038365 0.04323,-0.026861 0.01962,0.011512 0.08243,-0.026895 0.08243,-0.026895 0.0041,-0.026878 0.102057,-0.015342 0.102057,-0.015342 l 0.01185,-0.034544 c 0,0 -0.06673,-0.088273 -0.07849,-0.088273 -0.01184,0 -0.07459,-0.053795 -0.08247,-0.034576 -0.06273,-0.015358 -0.05885,-0.099794 -0.05885,-0.099794 l -0.02356,-0.053706 c 0,-0.030755 -0.05882,-0.095978 -0.07066,-0.088272 -0.05892,-0.042225 -0.01571,-0.092124 0,-0.09596 0.0157,-0.00385 0.05501,-0.057584 0.05501,-0.057584 l 0.01959,-0.053738 0.06674,-0.019155 0.0079,-0.0499 -0.03527,-0.00385 c 0,0 0.03919,-0.069104 0.05885,-0.069104 0.01967,0 0.149205,0 0.160898,-0.00768 0.01174,-0.00761 0.03531,-0.069045 0.03531,-0.080566 0,-0.01152 0.03149,-0.015373 0.04319,-0.019227 0.01174,-0.00385 0.03926,-0.034512 0.04711,-0.049893 0.0078,-0.01544 -0.01956,-0.1114256 -0.0353,-0.096068 z m 1.087218,1.2262145 c -0.0011,-0.00736 -0.0057,-0.013123 -0.01288,-0.016135 -0.01742,-0.00736 -0.04682,0.00475 -0.06119,0.014237 l 0.01301,0.01917 c 0.01493,-0.00972 0.03447,-0.014409 0.03885,-0.012257 -3.65e-4,-1.375e-4 -9.32e-4,-9e-4 -0.001,-0.00115 l 0.02329,-0.00377 z m 0.103191,0.4579543 -0.02345,-0.00213 c -0.0019,0.018106 0.0024,0.040485 0.02121,0.044115 l 0.0046,-0.022573 c 1.67e-4,0 3.68e-4,1.366e-4 4.18e-4,1.366e-4 -0.0019,-0.00165 -0.0035,-0.01089 -0.003,-0.019424 z m 0.08571,-0.090547 c 0.0058,0.023325 0.01472,0.046333 0.01509,0.047274 l 0.02209,-0.0081 c -1.65e-4,-2.056e-4 -0.0088,-0.022738 -0.01439,-0.044821 l -0.02281,0.00564 z m 0.05244,-0.018885 c -3.05e-4,-7.61e-4 -4.55e-4,-0.00336 -7.3e-4,-0.00531 -4.58e-4,-0.0063 -0.0012,-0.014965 -0.0058,-0.02403 l -0.02103,0.010287 c 0.0024,0.00515 0.0032,0.010553 0.0034,0.015766 6.45e-4,0.00688 0.0012,0.014409 0.008,0.019277 0.0043,0.00294 0.0097,0.00385 0.0159,0.00277 l -0.0045,-0.022295 c 0.0019,2.707e-4 0.0042,0.00188 0.0046,0.00343 z m -0.19977,0.1628909 c 0.01681,-0.010234 0.03825,-0.028824 0.03533,0.014409 -0.0032,0.043142 -0.02061,0.028816 -0.03533,0.043142 -0.01472,0.014409 -0.02354,-0.043142 0,-0.057576 z m -0.948107,0.296528 0.0032,-0.034551 0.03831,0.00573 -0.0032,0.031484 z m 0.0021,0.075199 c -0.0053,-0.019546 -0.02807,-0.027597 -0.03068,-0.028407 l -0.0076,0.021887 v -1.358e-4 c 0.0019,6.921e-4 0.0046,0.00205 0.0074,0.00377 l 0.0047,0.01989 c -0.0019,0.00245 -0.0035,0.00482 -0.0053,0.00654 l 0.01728,0.015578 c 0.01259,-0.013515 0.01726,-0.026615 0.01398,-0.039248 z m -2.934086,0.7103874 -0.023684,0.01917 -0.011657,0.0096 0.012406,0.00867 0.027576,0.019178 0.013683,-0.018638 -0.015162,-0.010688 0.011846,-0.00957 z m 0.2797301,0.274946 -0.01056,0.020618 0.024616,0.011946 -0.00813,0.00794 0.016838,0.016282 0.019613,-0.01917 0.011466,-0.011228 -0.014613,-0.0072 z m -1.1010193,-4.9207911 0.016686,-0.016281 0.023524,0.023033 -0.016695,0.016289 z m 0.7152162,0.7180649 0.015054,-0.017731 0.023558,0.019108 -0.015052,0.017731 z m -0.074852,-0.00118 0.00406,0.042237 h 0.058817 c 0.023564,0 -0.01959,-0.026862 -0.01959,-0.026862 0,0 -0.047114,0.00385 -0.043231,-0.015373 z m 1.2926245,-1.0706582 -0.039227,-0.00397 -0.00245,0.022975 0.033669,0.00324 0.024429,0.037442 0.019791,-0.012296 -0.027372,-0.042141 -0.00305,-0.00471 z m 0.1071214,-0.804363 -0.012396,0.019529 0.031445,0.019137 0.00617,0.00389 0.00636,-0.00389 0.043281,-0.026892 -0.012573,-0.019411 -0.037012,0.022951 z m 0.2105373,0.1094356 -0.019985,-0.019557 -0.016635,0.016265 0.027381,0.026862 0.00761,0.00729 0.00813,-0.0064 0.039405,-0.030736 -0.014807,-0.017967 z M 8.0487313,4.1676608 c -0.00296,-0.013587 0.078489,-0.015337 0.090301,-0.00389 0.011799,0.011539 0.00398,0.030716 0.039245,0.030716 0.035286,0 0.019614,0.023048 0.015687,0.034571 -0.00398,0.01151 -0.043128,0.00766 -0.047139,-0.00385 -0.00398,-0.011539 -0.06281,-0.015433 -0.06281,-0.015433 0,0 -0.031375,-0.023049 -0.035286,-0.042186 z m 0.451281,-0.043225 c 0.060365,0.018452 0.082399,0.00479 0.086395,-0.010553 0.00398,-0.015373 0.00779,-0.019225 0.031375,-0.023025 0.02354,-0.00385 -0.00398,-0.049903 -0.027475,-0.046073 -0.023574,0.00385 -0.047139,-0.00766 -0.051015,-0.026871 -0.00406,-0.019167 -0.04323,-0.069076 -0.047132,-0.030678 -0.00398,0.038386 -0.027475,0.038386 -0.023565,0.06525 0.00398,0.026804 0.015739,0.067088 0.031425,0.071936 z m 0.3887,-0.6477002 c -0.00865,-0.033741 -0.058927,0.042201 -0.00779,0.057518 0.051015,0.015433 0.1019733,0 0.1019733,0 l 0.0118,-0.023011 0.196218,0.00385 c 0.015806,-0.015373 0.023565,-0.038386 0.023565,-0.038386 0,0 0.047139,-0.015374 0.066718,-0.00769 0.019672,0.00769 0.00398,-0.053704 -0.015696,-0.046031 -0.019589,0.00766 -0.058825,0.00385 -0.058825,0.00385 h -0.070705 c -0.00398,-0.026848 -0.066727,-0.015374 -0.070638,0 -0.00398,0.015346 -0.027441,0.019168 -0.027441,0.019168 l -0.090303,0.00769 c -0.00788,0.023048 -0.054923,0.038386 -0.058908,0.023048 z m 0.00779,0.1881411 -0.051132,-0.049903 v -0.042237 l -0.015705,-0.01539 -0.015696,-0.053705 -0.051015,-0.015346 -0.051015,0.019153 -0.054975,0.03455 -0.05885,0.00771 -0.031443,0.034514 0.1256361,0.011473 0.023522,0.038438 0.090375,0.00766 0.058816,0.057555 c 0.051133,0.015374 0.062868,-0.00766 0.031486,-0.034514 z m 0.202917,0.376989 -0.021468,-0.00935 0.015748,-0.03455 0.021459,0.00935 z m 1.1513787,-0.046885 c -0.0063,-0.030301 0.07858,-0.057576 0.09817,-0.034572 0.01967,0.023026 0.0746,0.026928 0.08246,0.1420675 0.0028,0.041221 -0.07066,-0.042217 -0.07066,-0.042217 l -0.05892,-0.019189 c -0.03138,-0.00769 -0.04711,-0.026848 -0.05101,-0.046089 z m -0.4123077,0.099644 c -0.01148,0.033595 -0.015672,0.080622 -0.035335,0.080622 -0.019589,0 -0.011774,0.049948 -0.011774,0.049948 0,0 0.051116,0 0.066804,0.00385 0.015644,0.00385 0.015644,0.042187 0.015644,0.042187 0.058927,-0.00385 0.082491,0.072952 0.074597,0.092145 -0.00788,0.019167 0.023565,0.019167 0.023565,0.019167 0,0 0,0.061427 -0.00788,0.07675 -0.00779,0.015374 0.051065,0.0269 0.066752,0.049902 0.0157,0.023049 -0.0079,0.099795 -0.01961,0.10363 -0.011762,0.00385 0.03135,0.015346 0.02747,0.034535 -0.004,0.019226 0.01178,0 0.0157,0.030736 0.004,0.030679 0.0118,0.095926 0.0118,0.095926 l 0.05491,0.00389 c 0.0078,-0.049888 0.109091,-0.051811 0.125636,-0.046073 0.06674,0.023025 0.117834,0.1228218 0.117834,0.1458303 0,0.023011 -0.04323,0.0269 -0.04323,0.0269 l 0.0078,0.1112624 c 0.06668,0.01922 0.121661,0.1113547 0.11383,0.1266945 -0.0079,0.015346 0.04704,0.011546 0.04704,0.011546 0.0079,-0.069137 0.07462,-0.046089 0.0785,-0.023048 0.0041,0.023048 0.01571,0.072937 0.01571,0.072937 l 0.01965,0.03449 0.02747,0.026885 0.04319,-0.00385 0.01185,0.023049 0.05102,0.00769 c 0,0 0.04323,0.046001 0.04711,0.057554 0.0041,0.011495 0.06282,0.00767 0.0785,0.011495 0.01572,0.00385 0.03928,0.015374 0.04316,0.03455 0.0041,0.019217 0.02752,0.049903 0.02752,0.049903 0,0 0.04707,0.011539 0.05102,0.026878 0.0041,0.015325 0.02356,0.04989 0.02356,0.04989 l 0.03917,0.030716 0.0041,0.034571 0.04317,0.00385 0.01185,0.046 0.0706,-0.00385 0.03935,-0.02687 c 0.05101,-0.026848 0.08636,-0.061414 0.0903,-0.076786 0.0041,-0.015346 0.01174,-0.072878 0.05101,-0.061374 0.03924,0.011519 0.01174,-0.084458 0.01174,-0.084458 0,0 -0.05495,-0.038386 -0.05107,-0.057605 0.0041,-0.019154 -0.05491,-0.057518 -0.05102,-0.072892 0.0041,-0.015373 -0.05101,-0.046037 -0.04711,-0.06139 0.0041,-0.015373 -0.02747,-0.057605 -0.02747,-0.057605 l -0.05893,-0.053705 -0.0078,-0.034571 -0.04708,-0.00385 -0.09418,-0.1113176 0.0041,-0.030736 -0.02747,-0.00385 v -0.042192 l -0.02743,-0.015374 -0.04323,-0.00385 -0.08632,-0.092089 -0.0078,-0.042237 h -0.04315 l 0.0078,-0.080621 c 0.0275,-0.03455 0.01173,-0.099796 0.01173,-0.099796 0,0 -0.05502,0.026862 -0.0824,0.015346 -0.02752,-0.011473 0.01174,-0.038386 0.01174,-0.038386 v -0.030679 l -0.02352,-0.023026 c 0,0 -0.06679,0.00769 -0.07066,-0.00385 -0.0041,-0.011518 -0.01571,-0.061435 -0.01571,-0.061435 l -0.0041,-0.065266 -0.02743,-0.011473 -0.0041,-0.023065 -0.04313,0.00385 v -0.046029 l -0.02359,-0.00766 -0.02352,-0.011518 -0.0041,-0.046073 -0.08636,-0.00385 -0.02747,-0.038386 -0.03138,-0.046069 -0.09814,-0.00766 -0.02356,-0.022989 -0.03925,-0.00769 -0.02747,-0.011518 -0.01173,0.019225 -0.07462,0.00385 -0.004,0.023025 c -0.039244,0.01919 -0.1962559,0.00385 -0.2002504,0.015324 z M 9.1163546,4.0716509 c -0.04103,-0.030014 0.054914,0.023048 0.054914,0.023048 0.031375,0 0.051015,0.023026 0.051015,0.034571 0,0.01151 0.043178,0.00767 0.043178,0.00767 l 0.00398,-0.0269 -0.031468,-0.038386 -0.027457,-0.01914 c 0,0 -0.043154,-0.00385 -0.043154,-0.015374 -1.78e-5,-0.011494 -0.035368,0.046052 -0.05104,0.034514 z m 1.27e-4,0.1304551 -0.031451,-0.00761 0,0.03455 0.043111,0.00385 z m 0.4355628,0.4221368 v -0.030683 c 0,0 -0.00398,-0.030699 -0.023564,-0.030699 -0.019571,0 -0.054923,-0.023011 -0.047147,-0.038386 0.00794,-0.015373 -0.066694,-0.030715 -0.066694,-0.030715 0,0 -0.066685,-0.061414 -0.043153,-0.053701 0.023565,0.00766 0.011799,-0.0269 0.011799,-0.0269 0,0 -0.047156,0.00766 -0.058927,0.00385 -0.0118,-0.00385 -0.00788,-0.038386 -0.00788,-0.038386 0,0 -0.047037,-0.011518 -0.047037,0 0,0.011518 0.015696,0.011518 0.023473,0.034514 0.00788,0.023011 0.00398,0.061427 0.039355,0.069079 0.035334,0.00769 0.043128,0.015346 0.047113,0.030714 0.00398,0.015374 0.047072,0.01919 0.047072,0.01919 l 0.031436,0.015338 0.094169,0.076768 z m 0.031383,0.1037396 c -0.00398,-0.015374 -0.0118,-0.069137 0.011788,-0.065303 0.023531,0.00389 0.00788,0 0.035335,0.011539 0.027476,0.011539 0.031375,-0.019167 0.031375,-0.019167 h 0.043214 l 0.054923,0.042187 -0.00788,0.034571 -0.039253,0.00385 c -0.019598,-0.030655 -0.058875,-0.019153 -0.051015,0.00771 0.00788,0.026848 -0.019598,0.076751 -0.035267,0.080566 -0.015706,0.00385 -0.066837,0.00385 -0.062826,-0.01916 0.00398,-0.023025 0.019589,-0.076748 0.019589,-0.076748 z m 0.6477516,0.5218813 0.02753,-0.084383 c -0.0392,-0.00769 -0.03144,-0.049889 -0.03144,-0.049889 -0.004,-0.034571 -0.05885,-0.072937 -0.07849,-0.061414 -0.01959,0.011473 -0.01185,-0.080639 -0.01185,-0.080639 0,0 0.03537,-0.022989 0.05107,-0.011485 0.01571,0.011485 -0.13344,-0.1919008 -0.164874,-0.1727088 -0.031377,0.019189 -0.1019945,-0.019189 -0.098092,-0.053763 0.00398,-0.034514 -0.1413263,-0.1496861 -0.1413263,-0.1496861 0,0 -0.047113,-0.030655 -0.054958,-0.00763 -0.00788,0.023011 -0.023549,0.038386 0,0.04985 0.023524,0.011538 0.019598,-0.019167 0.047055,0.00767 0.027476,0.026863 0.078574,0.061427 0.058927,0.084457 -0.019657,0.023065 -0.043214,0.030736 -0.043214,0.030736 l 0.027525,0.030716 h 0.043154 l 0.00788,0.065212 c 0,0 0.047071,0.023048 0.058875,0.049902 0.011776,0.026848 0.011776,0.042217 0,0.057598 -0.0118,0.015346 -0.035258,0.042201 -0.031375,0.069041 0.00398,0.026864 0.035335,0.038386 0.035335,0.038386 l 0.03135,0.00385 0.023574,0.011539 v 0.049925 c 0.031359,-0.00769 0.082381,0.034485 0.078489,0.061376 -0.004,0.02687 0.0078,0.01151 0.04705,0.038386 0.03931,0.026871 0.02753,0.030715 0.05501,0.049903 0.0275,0.019137 0.05107,0.00763 0.06274,-0.026953 z M 9.3281568,5.741258 c 0,0.011494 -0.00779,0.026841 0.015687,0.030715 0.023658,0.00385 0.066821,-0.015346 0.070705,0.00766 0.00398,0.023011 0.00398,0.038415 0.035335,0.049949 0.031359,0.011494 0.051065,0.015346 0.074595,0.015346 0.023506,0 0.074614,-0.00771 0.074614,-0.00771 0,0 0.055542,0.00837 0.066694,0.019233 0.043178,0.042201 0.070636,0.053705 0.082399,0.034535 0.011775,-0.019214 -0.00398,-0.061392 -0.00779,-0.076748 -0.00398,-0.01539 -0.058927,-0.088308 -0.078557,-0.072952 -0.019598,0.015374 -0.023522,0 -0.058875,0.011495 C 9.5676312,5.7643 9.4930336,5.756671 9.4891497,5.741286 9.4851677,5.725913 9.4302744,5.718297 9.4302744,5.7029 c 0,-0.015374 -0.039227,-0.034535 -0.035335,-0.011518 0.00398,0.023011 -0.027458,0.034535 -0.035429,0.0269 -0.00779,-0.00768 -0.03135,0.023011 -0.03135,0.023011 z m -0.1962393,0.042319 -0.00398,0.026871 0.043128,0.00385 c 0,0 0.01959,0.015373 0.01959,0.026848 0,0.011519 0.027542,0.023025 0.04323,0.023025 0.015696,0 0.05885,-0.030716 0.05885,-0.030716 0,0 0.019672,-0.05374 0.00398,-0.049903 -0.015755,0.00385 -0.047147,0.026871 -0.051015,0.00385 -0.00398,-0.023025 -0.051015,-0.011519 -0.051015,-0.011519 l -0.062828,0.00774 z m -0.1963338,0.064735 -0.00746,-0.02185 0.011762,-0.00385 0.00746,0.02185 z m 0.01649,-0.023794 -0.00787,-0.034506 0.023024,-0.00502 0.00788,0.034506 z m 0.057826,-0.029522 0.00119,0.022975 0.086211,-0.00385 -0.00119,-0.022975 z m 0.7674294,0.0033 -0.00238,-0.022879 0.039304,-0.00385 0.00238,0.022879 z m 0.1231882,0.069859 -0.021577,-0.00905 0.0118,-0.026854 0.021578,0.00906 z m 0.3238677,-0.3691202 -0.0024,-0.022931 0.03926,-0.00376 0.0024,0.022939 z m 0.06182,3.467e-4 0.02356,0 0,0.019226 -0.02356,0 z m 0.0668,-0.357836 0.0041,0.034514 -0.02341,0.00258 -0.0041,-0.034514 z m -0.01981,0.511396 0.02356,0 0,0.026871 -0.02356,0 z m 0.04108,0.036538 0.01184,-0.023033 0.02111,0.010329 -0.01184,0.023033 z M 10.270411,5.3651649 c 0.02387,0 -0.0078,0.088271 0.05492,0.080604 0.06283,-0.00769 0.004,0.02687 0.05107,0.030683 0.04711,0.00389 0.03533,-0.034535 0.05101,-0.061378 0.01576,-0.026863 0.0079,-0.042237 -0.01959,-0.049902 -0.02756,-0.00767 -0.02756,-0.00767 -0.03533,-0.038416 -0.0079,-0.030683 -0.03926,-0.038386 -0.03926,-0.038386 l -0.01185,-0.046024 -0.05101,0.030683 -0.05101,0.065249 c 0,0.049948 0.02744,0.0269 0.05101,0.0269 z m 0.153261,0.2072505 c 0.03138,-0.015346 0.09809,-0.015346 0.09418,-0.038386 -0.0041,-0.023025 0.03925,-0.030699 0.03925,-0.030699 l 0.01174,0.046031 0.03533,0.023026 0.0041,0.042217 c 0,0 0.01173,-0.00767 -0.03137,0.00385 -0.04323,0.011519 -0.01571,0.030683 -0.01571,0.030683 l -0.09432,0.00385 -0.01173,-0.038386 -0.03138,-0.042185 z M 9.9171359,5.8947801 c 0.01969,-0.00385 0.066694,-0.00769 0.074595,0.00385 0.00788,0.01151 -0.027476,0.026841 -0.027476,0.026841 l -0.047113,0.00769 c -0.015696,-0.01922 -0.019589,-0.034535 0,-0.038365 z m 0.2512601,-0.034579 c 0.02166,0.021201 -0.117738,0.015316 -0.117738,0 0,-0.015346 0.0118,-0.069041 0.04707,-0.057605 0.03534,0.011569 0.03922,-0.069041 0.03922,-0.069041 0,0 -0.03136,0.00385 -0.004,-0.011519 0.02747,-0.015338 0,-0.038386 -0.01185,-0.049889 -0.01173,-0.011539 -0.02354,-0.030716 -0.02354,-0.030716 h 0.05501 c 0.02356,-0.015373 0.03136,-0.088271 0.03136,-0.088271 0.04708,0.015346 0.07064,-0.015374 0.07064,-0.015374 0,0 0.0079,0.023026 0.02365,0.042253 0.01568,0.01916 -0.03934,0.026848 -0.01969,0.038386 0.01969,0.011518 0.02747,0.046037 0.01969,0.057518 -0.0078,0.011518 -0.05113,0.00385 -0.05113,-0.011494 0,-0.015374 -0.0157,0.01919 0,0.038377 0.0157,0.01919 -0.01959,0.046037 -0.02747,0.046037 -0.0078,0 -0.05882,0.00769 -0.01568,0.030716 0.04317,0.023011 0.09035,0.011569 0.09035,0.011569 0,0 0.0353,-0.00389 0.04708,0.015339 0.01185,0.019168 -0.004,0.023025 -0.02354,0.023025 -0.01959,0 -0.113865,-0.00769 -0.113865,-0.00769 0,0 -0.02746,0.026885 -0.01571,0.038402 z m 0.459305,-0.4336115 c -0.01185,-0.01539 -0.02357,-0.0269 -0.03928,-0.034535 -0.01564,-0.00769 -0.02743,-0.015373 -0.0432,-0.015373 -0.01572,0 -0.03136,-0.015374 -0.02356,-0.034535 0.0079,-0.019217 -0.01185,-0.026878 -0.01185,-0.042253 0,-0.015346 0.01185,-0.015346 0.03144,-0.00385 0.01967,0.011519 0.01571,0.015346 0.03146,0.034571 0.01564,0.019168 0.02349,0.038365 0.03915,0.034514 0.01578,-0.00385 0.02757,0.034535 0.04323,0.023026 0.01571,-0.01151 0.01185,0.02687 0.01185,0.02687 l -0.03925,0.011539 z m -0.0392,0.03436 c 0.01174,0.015346 0.0353,0.026839 0.0353,0.042238 0,0.015374 -0.0079,0.026848 0.01576,0.030699 0.0235,0.00385 0.03924,-0.00385 0.04707,0.015346 0.0079,0.019167 0.0079,0.049889 0.0041,0.06525 -0.0041,0.015373 0.0041,0.038386 0.0235,0.038386 0.01968,0 0.02356,0.00385 0.02356,0.015374 0,0.011495 0.02355,-0.042254 0.02355,-0.042254 -0.01969,-0.015346 -0.03538,-0.049903 -0.03538,-0.049903 0,0 -0.01958,-0.053727 -0.01958,-0.061391 0,-0.00766 -0.02745,-0.015374 -0.03924,-0.01919 -0.01185,-0.00385 -0.03146,-0.038365 -0.03146,-0.038365 l -0.04707,0.00385 z m 0.25504,0.6219797 -0.01576,-0.034575 c 0,0 0,-0.030653 0.0078,-0.046072 0.0078,-0.015339 -0.0157,-0.030657 -0.02742,-0.034513 -0.01174,-0.00385 -0.0078,-0.034535 -0.01174,-0.049903 -0.0041,-0.015346 -0.03135,-0.026841 -0.03135,-0.026841 0,0 -0.0079,-0.057576 -0.0079,-0.069077 0,-0.011518 -0.03531,-0.026871 -0.02353,-0.038402 0.01185,-0.01151 0.01967,-0.026848 0.03144,-0.03455 0.01174,-0.00767 -0.01186,-0.061414 0.0078,-0.049903 0.01968,0.011538 0.01968,0.030716 0.02752,0.046073 0.0078,0.015346 -0.0041,0.069101 0.01572,0.080621 0.01957,0.011495 -0.0041,0.04985 0.02746,0.04985 0.03138,0 0.01185,0.072952 0.01185,0.072952 0,0 -0.0078,0.053701 0.01174,0.057575 0.01967,0.00383 0.0078,0.095943 0.0078,0.095943 l -0.03139,-0.01917 z m 0.03422,0.3047235 -0.021,-0.010287 0.01174,-0.023015 0.021,0.010287 z m 0.0012,-0.1060526 0.0041,-0.03072 0.02342,0.00292 -0.0041,0.030711 z m -0.04748,-0.1565823 -0.03137,-0.00383 -0.07076,0.011505 -0.03917,0.072915 c 0,0 0.01959,0.01152 0.03527,0.038385 0.01572,0.02691 0.02355,0.1842139 -0.02354,0.2111133 -0.04707,0.026885 0.0041,0.011471 0.0041,0.011471 l -0.0079,0.084461 c 0.01185,0.038373 0.03138,0.019235 0.04316,0 0.01187,-0.019145 0.02366,-0.022975 0.03936,-0.042194 0.01572,-0.019235 0.03923,-0.053738 0.04315,-0.08064 0.0041,-0.026852 0.02353,-0.069047 0.01174,-0.080566 -0.01174,-0.01152 0.01185,-0.065225 0.01185,-0.065225 0,0 0.0157,-0.030756 0,-0.061432 -0.01571,-0.030735 0.0041,-0.065266 0.0157,-0.080639 l -0.03138,-0.015361 z M 10.659101,5.7334885 h -0.05892 c 0,0 0.01965,0.00767 -0.03527,-0.042238 -0.05504,-0.049889 -0.0903,0.011522 -0.0903,0.011522 l -0.06281,0.00766 v 0.061415 l -0.03145,0.01151 0.0041,0.038402 0.04316,-0.00385 c 0,0 0,0.046038 0.01173,0.026871 0.01184,-0.019219 0.109944,0.00385 0.102068,0.049889 -0.0031,0.018917 0.09818,0.069041 0.08639,0.1304527 0.05102,0.00768 0.03926,0.057616 0.03926,0.057616 l 0.06668,0.00767 0.01967,-0.038385 0.01959,0.00383 v -0.02301 l -0.04323,-0.011513 -0.0078,-0.1228389 -0.02747,-0.019191 0.0079,-0.030716 -0.03137,-0.011518 0.01572,-0.049889 -0.0275,-0.053705 z m -0.182819,0.9461771 0.006,0.0036 0.006,-0.00336 0.02368,-0.012845 0.0031,0.00703 0.02183,-0.00852 -0.008,-0.01917 -0.0051,-0.012134 -0.01161,0.0063 -0.02923,0.015915 -0.02552,-0.015554 -0.01241,0.01935 z m 0.141532,-0.055898 0.04311,0.00761 0.0043,-0.022607 -0.0433,-0.00761 z m -0.08032,0.49154 c -0.01713,-0.022345 0.0785,-0.061404 0.09418,-0.01535 0.01569,0.045997 0,0.038396 -0.01571,0.034551 -0.01575,-0.00385 -0.05491,0.011455 -0.0785,-0.019203 z m -0.40641,0.7389133 0.02744,0 0,0.072957 -0.02744,0 z m 0.182538,0.7041282 c -0.0075,0.029087 -0.03527,0.046055 -0.05095,0.034503 -0.0158,-0.011537 0.01953,0.019161 0.02742,0.034585 0.0078,0.015299 0.03136,0.015299 0.03926,0 0.0079,-0.015456 0.0041,-0.049877 0.01185,-0.06525 0.0079,-0.015373 -0.02357,-0.019202 -0.02754,-0.00385 z m 0.08643,0.1535604 0.03539,0.015301 0.0041,0.06525 c 0.04713,0.046063 0.20023,0.00768 0.20023,-0.00385 0,-0.011536 -0.0079,-0.1419947 -0.0079,-0.1419947 l -0.01968,-0.019219 -0.0041,-0.096013 c 0.01571,-0.049877 -0.07462,-0.1228222 -0.08244,-0.1073947 -0.0079,0.015299 -0.05887,0.00377 -0.05887,0.019153 0,0.015299 -0.03136,0.092088 -0.01569,0.1189831 0.01569,0.026886 -0.01184,0.026886 -0.01569,0.053723 -0.0041,0.026861 -0.0432,0.07299 -0.03533,0.096031 z M 9.2953901,7.892529 9.282816,7.873179 l -0.031265,0.01899 0.012405,0.019538 z m -0.5991321,0.074783 0,0.046186 m 0.1216313,0.04581 0.027577,-0.042144 -0.023498,-0.00778 -0.027381,0.01935 0.011657,0.011408 z m -0.0234,-1.1974034 c 0.015679,0.034578 0.0118,0.084475 0.070595,0.1228591 0.019886,0.012935 -0.011762,0.038396 -0.031436,0.026836 -0.019598,-0.011512 -0.074504,-0.095981 -0.074504,-0.095981 v -0.049925 c 0.011762,-0.030682 0.028515,-0.018696 0.035335,-0.00385 z M 8.5864406,7.0616469 c 0.00849,0.033463 0.00779,-0.053795 0.023506,-0.049893 0.015696,0.00385 0.00398,-0.053707 0.00398,-0.053707 l -0.070662,0.049827 c 0.035318,0.00385 0.039227,0.038445 0.043211,0.053795 z M 8.37438,7.3071189 c -0.00398,0.046024 -0.062828,0.061404 -0.062828,0.061404 l -0.043154,-0.011504 -0.023531,-0.019195 -0.00398,-0.053746 0.035301,-0.00385 0.00788,0.023049 0.090301,0.00385 z M 8.3115535,6.842794 V 6.789056 l -0.00788,-0.049893 -0.058817,-0.026836 -0.043163,0.038397 -0.00788,0.053737 V 6.83898 l -0.039236,0.00768 -0.00788,0.1036142 -0.03135,0.011544 0.00398,0.038372 -0.043154,0.011512 -0.043171,0.01152 -0.00788,0.049885 -0.031359,0.01917 -0.015816,0.046063 -0.019598,0.1112985 c 0,0 0.035386,0.06525 0.054975,0.034544 0.019648,-0.030674 0.051015,-0.034544 0.051015,-0.034544 l 0.011788,-0.026895 0.1059883,0.00385 c 0.00788,-0.042268 0.058875,-0.026836 0.058875,-0.00768 0,0.019195 0.039279,0.00385 0.039279,0.00385 L 8.30772,7.1805696 h 0.043145 l 0.00398,-0.046024 0.019672,-0.011512 v -0.069157 c 0.062828,-0.01917 0.054915,-0.076753 0.054915,-0.076753 l 0.015806,-0.019155 -0.00788,-0.026835 c -0.031443,-0.011537 -0.015781,-0.038445 0.00398,-0.030763 0.01969,0.00768 -0.027475,-0.034552 -0.027475,-0.034552 -0.023531,0.019235 -0.043128,-0.023015 -0.043128,-0.023015 h -0.058908 z m -0.1530473,-0.2649421 -0.00779,0.01917 -0.019605,0 -0.00406,0.030763 0.023674,0 0.00398,0.022967 -0.01573,0.015373 -0.00779,0.01917 -0.031451,0.00778 -0.070678,0.065317 -0.00398,0.030576 -0.019605,0.026952 -0.023506,0.057518 -0.082508,0.00385 -0.01573,0.069104 0.011657,0.057526 0.070663,0.026944 0.00794,-0.038349 0.023506,-0.011586 0.00406,-0.038349 0.015535,-0.026943 0.023684,-0.02677 0.00779,-0.030763 0.039219,-0.022966 0.047175,-0.00778 0.019613,-0.022966 0.00794,-0.045933 0.00288,-0.034551 0.016838,-0.023146 0.046994,-0.01917 0,-0.0729 -0.023506,0 -0.00398,-0.026934 z M 6.8836264,7.1489102 c 0,0.00898 -0.00746,0.016281 -0.016635,0.016281 -0.00917,0 -0.016635,-0.00729 -0.016635,-0.016281 0,-0.00899 0.00746,-0.016273 0.016635,-0.016273 0.0092,0 0.016635,0.00729 0.016635,0.016273 z m -9.307e-4,0.4384662 c 0,0.00898 -0.00746,0.016281 -0.016635,0.016281 -0.0092,0 -0.016635,-0.00729 -0.016635,-0.016281 0,-0.00898 0.00746,-0.016273 0.016635,-0.016273 0.0092,0 0.016635,0.00729 0.016635,0.016273 z m -0.043992,-0.064374 c 0.0092,0 0.016592,-0.00729 0.016592,-0.016216 0,-0.00905 -0.00736,-0.016314 -0.016592,-0.016314 -0.00917,0 -0.016635,0.00729 -0.016635,0.016314 0,0.00898 0.00746,0.016216 0.016635,0.016216 z m -0.046285,0.091135 -0.033305,0.00385 0,0.026926 0.033305,-0.00385 z m 0.035334,-0.1957191 -0.027381,0.00385 -0.00398,0.030755 0.031451,0.00385 z m -0.00779,-0.2072962 0.00389,-0.026935 -0.059018,0.038529 -0.039219,-0.022967 0,0.092071 0.062895,0.080493 0.023498,-0.053723 0.00794,-0.034551 -0.027567,-0.011408 0.00389,-0.057526 z m -0.02355,-0.3223831 -0.070672,-0.00768 0.00389,0.026845 h 0.01959 c 0.031375,0.053747 0.00389,0.1842334 0.00389,0.1842334 0,0 -0.047072,0.00385 -0.054975,-0.01917 -0.00779,-0.023023 -0.027475,0.0499 -0.011774,0.061446 0.015687,0.011443 0.070672,0 0.074595,0.042235 0.00389,0.042186 0.035334,-0.026895 0.035334,-0.026895 V 6.8887324 z M 8.3783603,6.1288962 h -0.043154 l -0.00788,-0.084422 0.02354,-0.015406 V 5.9868658 H 8.2134896 l -0.00372,-0.042185 0.01969,-0.011519 -0.031451,-0.011518 -0.023565,0.030677 -0.00779,0.03455 -0.039279,0.00769 v 0.019162 H 8.09993 v 0.049889 L 7.9899131,6.1518394 7.7701068,6.144212 c -0.015754,0.034515 -0.055034,-0.00389 -0.055034,-0.00389 -0.00779,-0.023016 -0.062725,0 -0.062725,0 0,0.042277 -0.074595,-0.019162 -0.074595,-0.019162 l -0.1374273,-0.096 c -0.078497,-0.069079 -0.1962544,0.019229 -0.2001569,0.038385 0.00398,0.053737 -0.090284,0.01152 -0.090284,0.01152 0,0 -0.078497,-0.023011 -0.090301,0.00769 -0.011739,0.030683 -0.062853,0.023048 -0.062853,0.023048 l -0.00788,0.015345 -0.039279,0.00766 -0.00779,0.023016 -0.047147,0.00769 0.1177377,-0.00383 c 0.031435,-0.00383 -0.0118,0.065266 -0.031375,0.061432 l -0.054915,0.00383 -0.019691,0.019162 h -0.051015 l -0.02354,0.030764 -0.074537,-0.00383 c 0,0 -0.04323,0.034538 -0.039252,0.046036 0.00389,0.011512 -0.00788,0.046071 -0.019672,0.046071 -0.011777,0 -0.035344,0.034535 -0.027475,0.046031 0.00788,0.01152 -0.02354,0.049908 -0.02354,0.049908 l -0.00788,0.038415 -0.023531,0.00761 v 0.1036468 l -0.047132,0.030715 v 0.046013 l -0.070705,0.072941 0.00787,0.061372 -0.058849,0.061446 0.00779,0.061397 -0.035319,0.01152 -0.00779,0.026885 -0.015687,0.080567 0.039236,0.00385 c 0.019571,-0.00768 0.015687,0.049877 0,0.057526 -0.015764,0.00768 -0.058943,0.023024 -0.035344,0.038357 0.023565,0.015407 -0.062828,0.011545 -0.062828,-0.011504 0,-0.022975 -0.047123,-0.042202 -0.05885,-0.034486 -0.0118,0.00761 -0.031451,-0.034551 -0.031451,-0.034551 -0.043171,-0.042202 -0.1766421,0.00385 -0.1766421,0.00385 l -0.019691,0.061397 c -0.04312,0.00768 -0.070595,0.076787 -0.070595,0.076787 -0.035335,0.01152 -0.06281,0.053707 -0.051022,0.065225 0.011739,0.011512 -0.019691,0.015342 -0.019691,0.015342 v 0.084474 l -0.01959,0.026885 0.00389,0.09209 c 0.023591,0 0.01969,0.042268 0.01969,0.042268 -0.03927,0.00385 -0.031468,0.053738 -0.031468,0.053738 l -0.082381,0.026845 -0.015687,0.023015 -0.102047,-0.00385 -0.027476,0.026902 -0.027542,-0.026902 H 5.4303058 l -0.00779,-0.01917 -0.039279,-0.00768 -0.00398,-0.042194 -0.05885,0.00385 -0.011777,0.023023 -0.062843,0.00385 c 0.00389,0.038406 -0.06281,0.095998 -0.070595,0.080674 -0.00794,-0.015373 -0.051099,-0.057665 -0.031436,-0.06525 0.019639,-0.00768 0.070714,-0.015414 0.070714,-0.015414 v -0.026845 l -0.1453032,-0.00385 -0.015644,0.02304 -0.058959,0.00385 v 0.061446 l -0.027441,0.00768 c -0.019672,0.011462 0.00389,0.053738 0.00389,0.053738 0.027475,0.026829 -0.00389,0.06903 -0.00389,0.06903 -0.023591,0.023048 0.019571,0.065324 0.019571,0.065324 0.031443,0.00761 -0.019571,0.030657 -0.019571,0.030657 0.00779,0.038357 0.031383,0.049885 0.031383,0.049885 -0.023591,0.038357 0.015764,0.057526 0.015764,0.057526 l 0.00389,0.065315 0.027476,0.015374 V 8.12086 l 0.015696,0.026894 h 0.06281 l -0.00389,-0.095943 c -0.054981,-0.061437 0.047072,-0.076787 0.051065,-0.053795 0.00398,0.023049 0.047123,0.034577 0.047123,0.034577 0.00788,0.0576 0.074614,0.092089 0.094188,0.034585 0.019648,-0.057665 0.035334,-0.023048 0.047123,0.00377 0.011775,0.026902 0.086285,0.092161 0.086285,0.092161 h 0.058917 l 0.00788,0.053738 c 0.066711,-0.00385 0.086286,0.00385 0.1137609,0.09209 0.027542,0.088236 0.1020866,0.1112794 0.1020866,0.1112794 l 0.054982,-0.00385 c 0,-0.045981 0.054966,0.00778 0.054966,0.030797 0,0.022942 0.1059707,0.1112287 0.1059707,0.1112287 l 0.105952,0.022999 0.098255,0.07686 0.074528,-0.00768 h 0.031445 c 0.019571,-0.065324 0.1138332,0.00377 0.1216219,0.026836 0.00794,0.02304 0.070705,0.061446 0.078497,0.042202 0.00788,-0.019161 0.051065,-0.00761 0.058942,0.049884 0.00788,0.057665 0.035258,0.046105 0.035258,0.046105 L 6.7728974,8.811748 6.8513945,8.746424 7.0516266,8.742654 C 7.1536737,8.738804 7.0908636,8.6044582 7.071299,8.6044582 7.0359629,8.5776347 7.083038,8.4663192 7.083038,8.4663192 L 6.7965022,8.2091877 c -0.066711,0 -0.00788,-0.092162 -0.00788,-0.092162 0.051015,-0.030722 -0.0118,-0.08055 -0.0118,-0.08055 0.00786,-0.046138 -0.027475,-0.099851 -0.027475,-0.099851 -0.070606,-0.046063 -0.051035,-0.1343597 -0.051035,-0.1343597 v -0.061404 c -0.05885,-0.053665 0.023574,-0.061446 0.023574,-0.061446 0.027432,-0.045974 -0.019672,-0.080534 -0.019672,-0.080534 L 6.698325,7.5489882 6.6354974,7.5412982 6.6277094,7.3609021 6.4864017,7.1652012 c -0.027551,-0.00778 -0.00788,-0.053737 -0.00788,-0.053737 0.035344,-0.01921 -0.00788,-0.065226 -0.00788,-0.065226 l -0.00389,-0.084458 0.082399,-0.00768 0.019672,-0.030665 h 0.039236 l -0.00389,-0.099814 c 0.01959,-0.049877 0.066694,-0.023049 0.066694,-0.023049 l 0.054975,0.00385 0.031426,-0.057583 0.00779,-0.046072 -0.043128,-0.00385 c -0.047123,-0.026895 -0.023574,-0.126657 -0.023574,-0.126657 0.074595,-0.1075017 0.160898,-0.046089 0.160898,-0.046089 l 0.055024,-0.00385 c 0.082399,0.053706 0.00779,0.1534991 0.00779,0.1534991 -0.015687,0.02304 -0.00779,0.095961 -0.00779,0.095961 l 0.019589,0.1227666 -0.051022,0.042284 c -0.043171,0.023048 -0.043171,0.076745 0.00389,0.088271 0.031384,0.00385 0.01959,0.076753 -0.027525,0.026836 -0.070595,0 0.039328,0.061405 0.00787,0.045997 0.070672,0.034578 0.054915,-0.030682 0.054915,-0.030682 l 0.094423,-0.072933 c 0.035335,-0.026845 0.098164,0.057609 0.098164,0.069136 0,0.011512 0.1569933,0.00385 0.1569933,0.00385 0.043154,0.026861 0.058849,0.095981 0.058849,0.095981 0.04323,-0.053795 0.1334831,-0.00385 0.066769,0.026845 0.062768,0.038396 0.062768,0.072916 0.062768,0.072916 0.051108,-0.015349 0.051108,0.023023 0.051108,0.034551 0,0.01152 0.015706,-0.057567 0.015706,-0.057567 -0.058884,-0.042226 0.078497,-0.057583 0.03927,0.019195 l -0.023574,0.034577 0.03927,0.030682 0.00398,0.088308 c 0.086398,-0.00768 0.062828,-0.1113535 0.062828,-0.1113535 l 0.039252,-0.00761 c 0,-0.034576 0.027424,-0.015373 0.027424,-0.015373 -0.027424,-0.1305279 0.062843,-0.1534992 0.062843,-0.1534992 0.051015,-0.01152 0.054923,-0.1152065 0.054923,-0.1152065 -0.035251,-0.015341 -0.015705,-0.069045 0.023565,-0.02295 0.039227,0.045982 -0.023565,-0.092181 -0.023565,-0.092181 l -0.031375,-0.026845 -0.043154,-0.00385 -0.00398,-0.042218 h -0.070603 l -0.011799,0.053746 -0.027475,0.00768 -0.00788,-0.015373 -0.011739,0.042226 h -0.070638 l -0.00398,-0.046055 0.043163,-0.011512 0.015706,-0.023015 0.011739,-0.061446 h 0.051065 l 0.066718,-0.019162 c 0.00398,-0.065267 0.039252,-0.049877 0.039252,-0.049877 l 0.02354,0.01917 0.035334,0.026878 0.00398,0.023008 -0.023608,0.011504 -0.00398,0.030755 0.011788,0.042202 h 0.031375 c 0.011762,-0.061397 0.094261,-0.061397 0.1177921,-0.023023 l 0.023565,-0.053723 c -0.054932,-0.026885 -0.00102,-0.069112 0.014655,-0.049917 0.015687,0.019227 0.052049,-0.049884 0.052049,-0.049884 0,0 0.027475,0.034551 0,-0.011512 -0.027475,-0.046071 0.01959,-0.069095 0.01959,-0.069095 -0.00779,-0.046024 0.051065,-0.038373 0.051065,-0.038373 l 0.00398,-0.061372 -0.055024,-0.00385 c -0.011681,0.053738 -0.058825,0.00768 -0.035286,-0.00385 0.023591,-0.011536 0.047061,-0.034577 0.047061,-0.034577 v -0.038396 l 0.023565,-0.00768 0.00398,-0.038388 h 0.058927 l 0.051015,-0.023008 0.011799,-0.019203 0.054915,-0.00385 0.078497,-0.069112 -0.00779,-0.030683 c -0.047113,0 0,-0.034552 0,-0.034552 l 0.00779,-0.057449 z m -2.1315483,3.4503841 -0.031445,-0.046138 0.047172,0.00778 0.050872,0.042137 0.0198,0.049934 -0.027568,0.015373 -0.01573,-0.022967 -0.039218,-0.011586 z m -0.8517661,-1.0324978 -0.031451,-0.042145 -0.015731,-0.034552 -0.027567,-0.069103 0.058833,0.026754 0.01979,0.053723 0.027381,0.01935 0.027567,0.057518 -0.015731,0.026763 z m -0.2514244,-0.3223367 -0.019613,0 0,0.038348 0.03146,0 0,0.049934 0.023684,0 -0.00406,-0.057518 -0.03146,-0.011577 z m 3.0933914,-2.31662 -0.00398,-0.023034 0.023243,-0.00376 0.00398,0.023033 z m 0.056201,-0.028357 -0.03146,-0.00769 0.00575,-0.02234 0.03146,0.00769 z m 0.024564,-0.030962 0.00331,-0.02279 -0.027381,-0.00385 -0.00331,0.02279 z m 0.040997,-0.049713 0.03135,0 0,0.023048 -0.03135,0 z m 0.2262387,0.030412 -0.027399,-0.00385 0.00331,-0.022835 0.027399,0.00385 z m 0.050804,0.011701 0.00331,-0.022791 -0.027577,-0.00385 -0.00331,0.022607 z m 0.029007,0.00413 0.031359,0 0,0.023025 -0.031359,0 z m 0.034448,0.037001 0.00119,0.027135 0.023675,-0.00111 -0.00128,-0.026953 z m 3.304041,2.5021107 -0.08472,-0.044534 c -0.179619,0.3568493 -0.41746,0.6816045 -0.70197,0.9624954 L 10.721726,8.8252118 c 0.242475,-0.2407141 0.437981,-0.5139411 0.582008,-0.8092337 l -0.08433,-0.044395 C 11.077037,8.2643924 10.88548,8.5308138 10.654459,8.7603611 L 10.20613,8.3284217 c 0.192471,-0.1927627 0.345197,-0.412704 0.455431,-0.650394 l -0.08367,-0.043994 C 10.469938,7.8682896 10.32101,8.0813171 10.139037,8.2639075 L 9.6435314,7.7865679 C 9.7813233,7.6458922 9.8877052,7.4840426 9.9601073,7.3088903 L 9.8764059,7.2648968 C 9.8072244,7.4356875 9.7049583,7.5907412 9.5768538,7.7222582 L 9.1271384,7.2890792 C 9.2552494,7.151347 9.3295494,6.9785445 9.3400602,6.7939299 H 9.9766176 C 9.9712936,6.9596305 9.9359605,7.118137 9.8764153,7.264918 l 0.083692,0.043993 C 10.027098,7.146634 10.064933,6.9730559 10.070345,6.7939231 h 0.701708 c -0.0064,0.2984545 -0.07539,0.5822574 -0.19422,0.8401279 l 0.08368,0.043993 c 0.127588,-0.2752954 0.198098,-0.5744553 0.204342,-0.8841471 h 0.63535 c -0.0066,0.4203018 -0.107327,0.8188316 -0.281839,1.177665 l 0.08434,0.044395 c 0.18448,-0.3781915 0.284746,-0.7927153 0.291359,-1.2220735 h 0.701661 c -0.0069,0.553253 -0.142285,1.0770899 -0.378118,1.5456211 l 0.08475,0.044527 c 0.253691,-0.5033848 0.388365,-1.0592763 0.388365,-1.6353232 0,-0.4898713 -0.09743,-0.9651149 -0.282524,-1.4060065 l -0.08695,0.036 c 0.174337,0.4160488 0.268829,0.8634694 0.274638,1.3248116 h -0.701772 c -0.0057,-0.3680481 -0.08076,-0.7249487 -0.218097,-1.057641 l -0.08629,0.035634 c 0.132474,0.3216365 0.204987,0.6664325 0.210584,1.0220121 h -0.635423 c -0.0054,-0.2710401 -0.06028,-0.5340272 -0.159315,-0.78009 l -0.0863,0.035721 c 0.09418,0.234824 0.146411,0.4857752 0.151895,0.744373 H 10.070376 C 10.065294,6.538269 10.032926,6.3775659 9.975292,6.2261894 l -0.086285,0.035662 c 0.052925,0.1402147 0.082678,0.2888088 0.087648,0.441665 H 9.340069 C 9.3295496,6.5188511 9.2552565,6.3460716 9.1271462,6.208345 L 9.577312,5.774733 c 0.1390095,0.1424326 0.2441508,0.3078279 0.3116874,0.4871191 l 0.086286,-0.035662 C 9.9030245,6.0365626 9.7911693,5.8615939 9.6435619,5.7108764 L 10.139776,5.2328805 c 0.211745,0.2123259 0.373371,0.4588415 0.480487,0.726264 l 0.0863,-0.035721 C 10.594729,5.6456444 10.426378,5.3895288 10.2061,5.1689907 l 0.449294,-0.4329055 c 0.278249,0.2764561 0.492033,0.5972501 0.635303,0.9454364 l 0.08629,-0.035633 C 11.228968,5.2873061 11.008492,4.9569104 10.721717,4.672288 L 11.21786,4.1942244 c 0.35089,0.3462965 0.621561,0.7481268 0.804339,1.1844903 l 0.08694,-0.036 C 11.916013,4.8822816 11.627288,4.4593864 11.251792,4.0976642 10.874927,3.7345549 10.434017,3.4557782 9.9540022,3.269686 L 9.9194292,3.35448 C 10.373371,3.5306265 10.791399,3.7916845 11.151521,4.1303612 L 10.655384,4.608402 C 10.364921,4.3372247 10.028412,4.1270156 9.6630936,3.984602 l -0.034235,0.084066 C 9.9821089,4.2067364 10.307732,4.4100516 10.5891,4.6729932 L 10.139822,5.1058306 C 9.9214202,4.9034181 9.6695675,4.7462243 9.3965585,4.6386179 l -0.034295,0.084064 C 9.6234865,4.8258106 9.8644052,4.9762282 10.073536,5.1697375 L 9.5773877,5.6477123 C 9.4378247,5.5209766 9.2782367,5.421518 9.1058031,5.3521474 l -0.034311,0.084137 c 0.1606962,0.064881 0.3093045,0.1574352 0.439587,0.2753411 L 9.0609824,6.1452354 C 8.9179189,6.021798 8.7386171,5.9502355 8.5469109,5.9401622 V 5.3269417 c 0.1829351,0.00547 0.360052,0.042869 0.5245773,0.1093567 l 0.034311,-0.084136 C 8.9304911,5.2815971 8.7417132,5.2420801 8.5469168,5.236564 V 4.5605317 c 0.2841325,0.00551 0.5594312,0.061133 0.8153666,0.1621707 l 0.034295,-0.084064 C 9.1298764,4.533505 8.8429099,4.4757392 8.5468999,4.4702407 V 3.8578163 c 0.3767958,0.00551 0.7421378,0.07793 1.0819287,0.2106414 l 0.034235,-0.084066 C 9.3124585,3.8475655 8.9356646,3.7730423 8.5468737,3.7674909 V 3.0913902 c 0.4779593,0.0056 0.9415375,0.096321 1.3725988,0.2635328 L 9.9540378,3.270131 C 9.4979506,3.0932215 9.0064826,3 8.5000432,3 7.8743735,3 7.2832069,3.143815 6.7589601,3.3975975 l 0.042756,0.078853 C 7.309008,3.2315694 7.8702558,3.0981647 8.4531596,3.0913857 v 0.676123 C 7.9777733,3.7743584 7.5285747,3.8854483 7.1279779,4.0770886 l 0.042612,0.078637 C 7.5652784,3.9675 8.0009453,3.864392 8.4531655,3.8577493 V 4.4699226 C 8.0996788,4.4766126 7.7652,4.5585276 7.4658375,4.699286 l 0.042875,0.078992 C 7.8001384,4.6420002 8.120588,4.5666803 8.4531765,4.560224 v 0.6761016 c -0.2205433,0.00628 -0.4297152,0.056612 -0.6185852,0.141987 l 0.043096,0.079296 C 8.0563438,5.3776036 8.2512637,5.3326269 8.4531696,5.3266145 v 0.6133126 c -0.098748,0.00522 -0.1929314,0.026994 -0.2797384,0.062274 l 0.043026,0.079257 c 0.08879,-0.035018 0.1847213,-0.053476 0.2835886,-0.053476 0.1999461,0 0.3878938,0.075001 0.5292988,0.211191 0.1413845,0.1362055 0.2192377,0.3173355 0.2192377,0.5099805 0,0.3976217 -0.3357277,0.7212143 -0.7485365,0.7212143 -0.1999996,0 -0.3879879,-0.075043 -0.5293684,-0.2112455 -0.1413821,-0.1362795 -0.219257,-0.3173375 -0.219257,-0.5099817 0,-0.1926418 0.077871,-0.3737807 0.2192579,-0.5099824 0.071516,-0.068866 0.1549333,-0.1218939 0.2457561,-0.1577192 L 8.1734167,6.002181 C 8.0871514,6.037281 8.0082121,6.085784 7.9393968,6.1451632 L 7.4890437,5.7113019 C 7.6053907,5.6059729 7.7364075,5.5208098 7.8776475,5.4575746 L 7.8345536,5.3782804 C 7.6826527,5.4469677 7.5439239,5.5382527 7.4231838,5.6479114 L 6.926523,5.169414 C 7.1006963,5.0082364 7.2971314,4.8772609 7.5086944,4.778255 L 7.4658197,4.6992621 C 7.242386,4.8042913 7.0384186,4.9419567 6.8610265,5.1062565 L 6.4109318,4.672689 C 6.6381047,4.4603452 6.8944633,4.2873297 7.1705666,4.1556996 L 7.1279453,4.0770628 C 6.8389284,4.2153638 6.5749629,4.3953556 6.3455959,4.6097943 L 5.8484077,4.1307982 C 6.1334363,3.8627375 6.4550427,3.6438164 6.8016832,3.4764451 l -0.042765,-0.07885 C 6.0011918,3.7644357 5.3843066,4.3622545 5.0086685,5.0951167 l 0.081535,0.042392 C 5.2653864,4.7942599 5.4970846,4.4760128 5.7821131,4.1946436 L 6.2793429,4.6736633 C 6.0480466,4.9032316 5.8547995,5.1684484 5.7092628,5.4598058 l 0.081223,0.042246 C 5.929107,5.2230698 6.1149732,4.9646781 6.3445797,4.7365657 L 6.7946983,5.1701539 C 6.6132734,5.3519739 6.4631708,5.5627685 6.3518989,5.7943161 l 0.081408,0.042311 C 6.538111,5.6165162 6.681332,5.4126847 6.8602362,5.23328 L 7.3569003,5.711776 C 7.229948,5.8415273 7.1265437,5.9928501 7.0531459,6.1593345 l 0.08207,0.042757 C 7.2026691,6.0459336 7.2993524,5.901521 7.4226744,5.7751463 L 7.8730288,6.2089619 C 7.7493896,6.3421019 7.6708936,6.5142194 7.6599936,6.703906 H 7.0232969 C 7.0289729,6.5290203 7.0672111,6.3595667 7.1352063,6.2020681 L 7.0531372,6.1593103 C 6.9789887,6.327493 6.9355015,6.5112263 6.9295556,6.7038952 H 6.2278452 c 0.00627,-0.3042328 0.077135,-0.598001 0.2054294,-0.8673143 L 6.3518663,5.7942695 C 6.2183435,6.0719987 6.1407477,6.3796677 6.134195,6.7039205 H 5.498654 C 5.505342,6.2811371 5.6059986,5.8732797 5.7904841,5.5020034 L 5.709262,5.4597578 C 5.5204935,5.8374028 5.4119319,6.2589326 5.4050366,6.70392 H 4.7031859 C 4.7100411,6.1517599 4.8440189,5.6197092 5.0901592,5.137482 L 5.0086237,5.0950898 C 4.7527595,5.5943573 4.6083091,6.1556623 4.6083091,6.7490922 c 0,0.3629963 0.053815,0.717778 0.1566078,1.0566821 l 0.091915,-0.022296 C 4.7601839,7.4659076 4.7074401,7.1339202 4.7031898,6.7942905 h 0.7017325 c 0.00431,0.2831883 0.049611,0.5598941 0.1327497,0.8240639 l 0.090996,-0.022099 C 5.5472768,7.3392464 5.5030432,7.0699114 5.498644,6.7942749 h 0.6354227 c 0.00458,0.2245117 0.043026,0.4435766 0.1122234,0.6520558 l 0.091146,-0.022149 C 6.2699634,7.2229205 6.2324278,7.0112258 6.2278634,6.7942823 h 0.7017089 c 0.00482,0.1605592 0.035725,0.3167911 0.090297,0.4643691 l 0.091201,-0.022173 C 7.0581765,7.0961391 7.0282483,6.9473061 7.0232943,6.7943142 h 0.6366271 c 0.010516,0.1846228 0.084758,0.3574204 0.2128654,0.4951491 L 7.4226692,7.7231234 C 7.2838111,7.5807468 7.1786872,7.4155687 7.111054,7.236481 l -0.0912,0.022206 c 0.072032,0.1945928 0.1855656,0.3741658 0.3365071,0.5282972 L 6.8602178,8.2649934 C 6.6188766,8.0229217 6.4422378,7.7360466 6.3376276,7.4243734 l -0.091146,0.022148 c 0.1086358,0.3272784 0.2938606,0.6283489 0.5476459,0.882464 L 6.3447658,8.761916 C 6.0087292,8.4280904 5.7660176,8.0298565 5.6288875,7.5964026 l -0.090996,0.022115 c 0.14131,0.4490129 0.3924044,0.8616948 0.7405553,1.2072631 L 5.7822789,9.3037889 C 5.3431412,8.8703152 5.0294914,8.3500514 4.8570579,7.7836722 l -0.091919,0.022296 c 0.1808725,0.5962941 0.5145643,1.1428815 0.9832677,1.5943267 0.3174031,0.3058479 0.6801951,0.5520233 1.0734962,0.7334311 l 0.046581,-0.07957 C 6.4962402,9.8832357 6.1519155,9.6529391 5.8485845,9.367612 L 6.3447269,8.8896628 C 6.6025992,9.130786 6.8966488,9.3230678 7.214597,9.4631372 l 0.046295,-0.079118 C 6.9501926,9.2481853 6.6628505,9.0609264 6.4110934,8.8258078 L 6.8604097,8.3929216 c 0.2105857,0.1951765 0.4523857,0.3481872 0.7142245,0.4553601 l 0.046252,-0.078971 C 7.3665677,8.6664807 7.131366,8.5186075 6.9268641,8.3293284 l 0.496213,-0.4780187 c 0.1594441,0.1449163 0.3450565,0.254048 0.5462787,0.3234797 l 0.046885,-0.080002 C 7.8220242,8.0299956 7.6428944,7.9263892 7.4893986,7.7874595 l 0.4501193,-0.433679 c 0.142967,0.1235259 0.322245,0.1950334 0.5139734,0.2051609 v 0.6133125 c -0.1509954,-0.0045 -0.298018,-0.031066 -0.4372502,-0.077433 l -0.046884,0.080002 c 0.1538105,0.053165 0.3166242,0.082967 0.4841465,0.087719 V 8.9385058 C 8.1631369,8.9328587 7.8817908,8.8749823 7.6211102,8.7696478 l -0.046243,0.07897 C 7.8497643,8.9611873 8.1466958,9.0231519 8.4535197,9.028862 V 9.6410371 C 8.0353997,9.6348975 7.6315889,9.5462952 7.2611224,9.3843488 L 7.21483,9.4634667 c 0.3845623,0.169281 0.8042182,0.2616434 1.2387039,0.2678988 v 0.6759425 c -0.557352,-0.0064 -1.0952471,-0.128171 -1.584801,-0.352848 l -0.046582,0.07957 c 0.5173737,0.238577 1.08769,0.364703 1.6782691,0.364703 0.6195072,0 1.2163903,-0.139452 1.7535987,-0.401307 l -0.04435,-0.08291 C 9.7086777,10.258959 9.1446891,10.400235 8.5472612,10.407309 V 9.7313459 C 9.0209492,9.7247023 9.4769239,9.6152142 9.8889043,9.4155787 L 9.8451079,9.3337852 C 9.453509,9.52378 9.0133576,9.63399 8.5472747,9.640974 V 9.0288022 C 8.9026754,9.0222608 9.2447331,8.9400548 9.5546049,8.7911578 L 9.5110622,8.7097494 C 9.2195381,8.8498214 8.8929481,8.9316528 8.5472782,8.9384527 V 8.262487 C 8.7736199,8.2561067 8.9915156,8.2036188 9.1898321,8.110108 L 9.1465936,8.0291815 C 8.9644488,8.1148228 8.7616504,8.1656175 8.5472544,8.172145 V 7.5589232 C 8.7389489,7.5488158 8.9182641,7.4772933 9.0613209,7.3537608 L 9.510967,7.7869874 C 9.40331,7.8843344 9.2805753,7.9661659 9.1465953,8.029202 l 0.043239,0.080927 C 9.3303149,8.0438639 9.4611184,7.9572683 9.5777278,7.8513047 L 10.073115,8.3285724 C 9.9077261,8.4816436 9.7182104,8.6102839 9.5110407,8.7097675 l 0.043542,0.081401 C 9.7670649,8.6891195 9.96458,8.5559582 10.140201,8.3932284 L 10.588551,8.82511 C 10.37014,9.0291727 10.119444,9.2008936 9.8451149,9.3338203 l 0.043796,0.081793 C 10.167494,9.2806672 10.426097,9.1048512 10.65582,8.8899549 l 0.49494,0.4768152 c -0.276126,0.2596419 -0.593602,0.478291 -0.941066,0.6477539 l 0.04439,0.08291 C 10.618194,9.9199237 10.955271,9.6867414 11.252273,9.4005944 11.564503,9.0998635 11.816447,8.756659 12.003808,8.3849278 z M 5.5998272,3.3621925 C 5.2092992,3.5088231 4.790678,3.6587057 4.5371686,4.0446859 4.3889148,4.2704094 4.3661,4.53651 4.2493655,4.7698364 4.4656262,4.5740359 4.7081238,4.4273255 4.8913882,4.193982 5.1117334,3.9134252 5.3129919,3.604658 5.5998272,3.3621925 z m 5.8003458,0 c 0.286836,0.2424655 0.488093,0.5512327 0.708439,0.8317895 0.183264,0.2333435 0.425761,0.3800539 0.642022,0.5758544 C 12.633899,4.53651 12.611085,4.2704094 12.462831,4.0446859 12.209322,3.6587057 11.790701,3.5088231 11.400173,3.3621925 z M 4.5371686,3.8740621 C 4.3381414,3.9231632 4.177144,4.0559844 4.0279772,4.2153101 3.7158796,4.5486652 3.7427881,5.0349284 3.784451,5.4736579 c 0.012865,0.1354541 0.015767,0.2451296 0,0.3839026 C 3.8788529,5.6711138 4.0230467,5.4994902 4.205087,5.3670183 4.6109667,5.0716596 5.0623349,4.6962214 5.0684974,4.193982 4.9339912,4.5554 4.5212033,4.6933769 4.2493655,4.9404594 4.1056275,5.0711059 4.0037209,5.2249001 3.9394225,5.3883463 l -0.022141,0 C 3.9510909,5.2437687 4.0289911,5.1016752 4.0722558,4.9617875 4.1905846,4.5792104 4.150689,4.1300833 4.5371687,3.8740621 z m 7.9256624,0 c 0.386484,0.2560212 0.346584,0.7051483 0.464914,1.0877254 0.04325,0.1398877 0.121166,0.2819812 0.154971,0.4265588 l -0.02213,0 C 12.996285,5.2249001 12.894377,5.0711059 12.750638,4.9404594 12.478801,4.6933769 12.066013,4.5554 11.931506,4.193982 c 0.0062,0.5022394 0.457533,0.8776776 0.863411,1.1730363 0.182041,0.1324719 0.326231,0.3040955 0.420638,0.4905422 -0.01581,-0.138773 -0.01287,-0.2484485 0,-0.3839026 0.04166,-0.4387295 0.06857,-0.9249927 -0.243528,-1.2583478 C 12.822858,4.0559844 12.66186,3.9231598 12.462834,3.8740621 z M 3.6958951,4.5778849 C 3.4264413,4.9088863 3.2531214,5.2638137 3.2531214,5.7082655 c 0,0.5489974 0.3133283,0.9346679 0.3542201,1.4502992 C 3.6916743,6.6205463 4.1615971,6.2456738 4.4043361,5.7722492 4.4990236,5.5875762 4.5552196,5.3782824 4.5814461,5.1750665 4.5462713,5.2616433 4.50107,5.3415468 4.4264756,5.4096742 4.111117,5.6976949 3.7451692,5.9827941 3.6737569,6.3907582 c -0.010186,0.058262 -0.026761,0.114203 -0.04428,0.1706245 -0.013776,0.00573 -0.016324,-0.01764 -0.022141,-0.021321 l 0.044281,-0.511871 C 3.6890267,5.5443681 3.4253657,5.0085723 3.6958975,4.5778871 z m 9.6082099,0 c 0.270527,0.430686 0.0068,0.9664816 0.0443,1.4502994 l 0.04426,0.5118701 c -0.0057,0.00368 -0.0085,0.027132 -0.02214,0.021321 -0.01752,-0.056422 -0.03409,-0.1123665 -0.04429,-0.1706236 -0.07142,-0.4079645 -0.437364,-0.6930641 -0.752723,-0.981085 -0.07459,-0.068128 -0.119791,-0.1480306 -0.15497,-0.234607 0.02625,0.2032158 0.08242,0.4125095 0.177111,0.5971817 0.242738,0.4734249 0.712668,0.8482977 0.796995,1.3863159 0.04089,-0.5156297 0.35422,-0.9013021 0.35422,-1.4502987 0,-0.4444524 -0.173318,-0.7993797 -0.442773,-1.1303807 z M 3.1424284,5.9215453 C 3.07968,6.0490238 3.0649312,6.2091465 3.0317381,6.348103 c -0.07014,0.3590805 -0.012758,0.7363484 0.08855,1.0663964 0.1267645,0.4129643 0.5399619,0.7093517 0.7527164,1.0877249 l 0.044282,0.021321 c -0.03099,-0.2053891 -0.060368,-0.4224733 0,-0.6185111 0.0917,-0.3137848 0.2272808,-0.6345211 0.2878025,-0.959756 0.047004,-0.252625 0.097304,-0.5230032 0.066414,-0.7678054 -0.035081,0.1318939 -0.07986,0.2505288 -0.1549711,0.3625755 -0.2857541,0.4262671 -0.5764647,0.930844 -0.3763594,1.4716271 -0.00462,0.00573 -0.014642,0.00385 -0.022141,0 C 3.6376558,7.8329996 3.615243,7.6486428 3.5630629,7.4571513 3.4245872,6.9490104 3.0236093,6.5088694 3.1424261,5.9215411 z m 10.7151436,0 c 0.118819,0.5873289 -0.282161,1.0274691 -0.420637,1.5356092 -0.05217,0.1914916 -0.07459,0.3758492 -0.154971,0.5545261 -0.0076,0.00385 -0.0175,0.00573 -0.02214,0 0.200106,-0.5407789 -0.09061,-1.0453592 -0.376358,-1.4716262 -0.07512,-0.1120466 -0.119891,-0.2306792 -0.154971,-0.3625737 -0.0309,0.244802 0.01939,0.5151809 0.06641,0.7678037 0.06052,0.3252363 0.196096,0.6459734 0.287801,0.9597586 0.06038,0.1960348 0.03099,0.4131221 0,0.6185096 l 0.0443,-0.021321 C 13.339759,8.1238537 13.752956,7.827468 13.879721,7.4145045 13.981042,7.0844548 14.038409,6.7071887 13.968271,6.3481074 13.935073,6.2091507 13.920333,6.0490278 13.857578,5.9215488 z M 4.205087,7.3931727 C 4.257887,7.7276456 4.1042115,8.0136608 4.0722558,8.3316013 4.0459933,8.5929163 4.0998581,8.8584818 4.205087,9.0780796 4.2362511,9.1431246 4.2999202,9.20374 4.3157822,9.27003 4.214025,9.1817531 4.1423269,9.0594209 4.0722558,8.9501109 3.7441729,8.4383159 3.0564383,8.1010949 3.0095951,7.4784837 c -0.023527,0.2768981 -0.00735,0.585658 0.08855,0.8317902 0.1330773,0.3415761 0.391353,0.5864899 0.686301,0.810459 C 4.0894315,9.3523267 4.4585623,9.53562 4.7364113,9.7392449 4.6816228,9.606027 4.5954607,9.4960019 4.559302,9.3553418 4.3958639,8.719517 4.4878696,7.9812107 4.2050816,7.3931727 z m 8.589828,0 c -0.282791,0.588038 -0.190786,1.3263443 -0.354222,1.9621691 -0.03617,0.1406601 -0.12232,0.2506852 -0.177112,0.3839031 0.277851,-0.2036249 0.646982,-0.3869182 0.951968,-0.618512 0.294949,-0.2239691 0.553223,-0.4688829 0.6863,-0.810459 0.0959,-0.2461322 0.112089,-0.5548921 0.08855,-0.8317902 -0.04684,0.6226112 -0.734576,0.9598322 -1.062657,1.4716272 -0.07007,0.1093096 -0.14177,0.2316421 -0.243527,0.3199191 0.01586,-0.066298 0.07954,-0.126914 0.110691,-0.1919504 C 12.900143,8.8584818 12.954001,8.5929163 12.927737,8.3316013 12.895786,8.0136608 12.74211,7.7276456 12.794915,7.3931727 z M 4.5593075,8.4595707 C 4.7978262,8.9186625 4.6927307,9.4981791 5.002082,9.931197 5.0988214,10.066611 5.2314032,10.206229 5.3563015,10.315099 5.2432442,10.26431 5.1271384,10.184255 5.0242199,10.101819 4.4829759,9.6682898 3.6656756,9.6141401 3.3416774,8.9074558 c 0.087875,0.518842 0.5348692,0.9885508 0.9962422,1.2796752 0.4389272,0.276961 0.995864,0.250311 1.4832952,0.405231 C 5.3708485,10.242373 5.2914403,9.7092821 5.090636,9.2487024 4.9658547,8.9624917 4.7760092,8.7095451 4.5593075,8.4595707 z m 7.8813855,0 c -0.216702,0.2499744 -0.406547,0.502921 -0.53133,0.7891317 -0.200803,0.4605797 -0.280211,0.9936706 -0.730576,1.3436596 0.487428,-0.15492 1.044367,-0.12827 1.483293,-0.405231 0.461373,-0.2911244 0.90836,-0.7608332 0.996243,-1.2796752 -0.323998,0.7066843 -1.1413,0.760834 -1.682543,1.1943632 -0.102927,0.08244 -0.219024,0.162481 -0.332082,0.21328 0.124898,-0.108876 0.25748,-0.248488 0.354221,-0.383902 0.309352,-0.4330179 0.204255,-1.0125345 0.442774,-1.4716263 z M 5.3341627,9.5686229 c 0.2944337,0.3817741 0.3696779,0.9351181 0.9076879,1.1303781 0.095228,0.03456 0.2053634,0.05631 0.2878033,0.106639 -0.1035958,0.01531 -0.1912883,-0.02286 -0.2878033,-0.04266 -0.6933918,-0.142264 -1.5394797,0.03643 -2.058902,-0.533198 0.1971163,0.372259 0.606153,0.665115 0.9962427,0.789134 0.6044652,0.19217 1.2251634,-0.01354 1.7932374,-0.149296 C 7.0542687,10.85007 7.1621,10.85371 7.2380926,10.82696 6.9218396,10.764972 6.619442,10.680071 6.3746824,10.464397 6.0230056,10.15451 5.7102275,9.8094807 5.3341627,9.5686229 z m 6.3316753,0 c -0.376066,0.2408578 -0.688843,0.5858871 -1.04052,0.8957731 -0.24476,0.215672 -0.54716,0.300581 -0.8634113,0.362575 0.075985,0.02674 0.1838227,0.02311 0.2656643,0.04266 0.568073,0.135765 1.188773,0.341467 1.793237,0.149297 0.390092,-0.124019 0.79913,-0.416876 0.996244,-0.789131 -0.519423,0.569613 -1.365511,0.390933 -2.058902,0.533195 -0.09651,0.01981 -0.184209,0.05798 -0.287803,0.04266 0.08244,-0.05034 0.192575,-0.07208 0.287803,-0.106638 0.538009,-0.195261 0.613253,-0.7486048 0.907688,-1.1303798 z M 7.9243938,10.805642 c -0.5322081,0 -0.9941594,0.261241 -1.4611579,0.447885 -0.4224872,0.168858 -0.9983483,0.120686 -1.3725999,-0.127967 0.1851768,0.223857 0.4305505,0.375671 0.6863012,0.469215 0.4754929,0.182811 1.0345123,0.03581 1.4390179,-0.213279 0.2914836,-0.179488 0.5386577,-0.426559 0.885547,-0.426559 0.063014,0 0.1356598,0.0081 0.1992499,0.02132 -0.4861858,0.188187 -0.9389052,0.514117 -1.2840467,0.83179 0.063605,0.07002 0.1437768,0.131613 0.2213873,0.191953 0.3760487,-0.374401 0.8146627,-0.780753 1.2397686,-0.959758 0.014166,0.0055 0.030115,-0.0061 0.044278,0 0.4251078,0.179 0.863722,0.585351 1.2397688,0.959753 0.077618,-0.06033 0.1577755,-0.12193 0.2213869,-0.191953 -0.3451387,-0.317672 -0.7978614,-0.643602 -1.2840437,-0.83179 0.063589,-0.01316 0.1362308,-0.02132 0.1992472,-0.02132 0.3468919,0 0.5940652,0.247072 0.8855475,0.426561 0.4045078,0.24908 0.9635268,0.39609 1.4390168,0.213279 0.255754,-0.09354 0.501125,-0.245359 0.686301,-0.469215 -0.374252,0.248653 -0.950109,0.296827 -1.372602,0.127968 -0.466994,-0.186644 -0.9289476,-0.447888 -1.4611539,-0.447888 -0.19613,0 -0.3872094,0.02986 -0.5756064,0.08531 -0.1883991,-0.05545 -0.3794786,-0.08531 -0.5756085,-0.08531 z" inkscape:connector-curvature="0" />
    <path transform="matrix(0.75,0,0,0.66666666,-0.75,2.6666667)" d="m 5,0.5 a 2,1.5 0 1 1 -4,0 2,1.5 0 1 1 4,0 z" sodipodi:ry="1.5" sodipodi:rx="2" sodipodi:cy="0.5" sodipodi:cx="3" id="path3077" style="color:black;fill:white;fill-opacity:1;fill-rule:nonzero;stroke:url(#linearGradient3425-9);stroke-width:0.69282031;stroke-linecap:butt;stroke-linejoin:miter;stroke-miterlimit:4;stroke-opacity:1;stroke-dasharray:none;stroke-dashoffset:0;marker:none;visibility:visible;display:inline;overflow:visible;enable-background:accumulate" sodipodi:type="arc" />
    <path sodipodi:type="arc" style="color:black;fill:url(#radialGradient4402);fill-opacity:1;fill-rule:nonzero;stroke:url(#linearGradient3425-9);stroke-width:0.69282031;stroke-linecap:butt;stroke-linejoin:miter;stroke-miterlimit:4;stroke-opacity:1;stroke-dasharray:none;stroke-dashoffset:0;marker:none;visibility:visible;display:inline;overflow:visible;enable-background:accumulate" id="path4329" sodipodi:cx="3" sodipodi:cy="0.5" sodipodi:rx="2" sodipodi:ry="1.5" d="m 5,0.5 a 2,1.5 0 1 1 -4,0 2,1.5 0 1 1 4,0 z" transform="matrix(0.75,0,0,1,-0.75,1)" />
</svg>
