<?xml version="1.0" encoding="UTF-8" standalone="no"?>
<!-- Created with Inkscape (http://www.inkscape.org/) -->

<svg xmlns:dc="http://purl.org/dc/elements/1.1/" xmlns:cc="http://creativecommons.org/ns#" xmlns:rdf="http://www.w3.org/1999/02/22-rdf-syntax-ns#" xmlns:svg="http://www.w3.org/2000/svg" xmlns="http://www.w3.org/2000/svg" xmlns:xlink="http://www.w3.org/1999/xlink" xmlns:sodipodi="http://sodipodi.sourceforge.net/DTD/sodipodi-0.dtd" xmlns:inkscape="http://www.inkscape.org/namespaces/inkscape" width="16" height="16" id="svg4700" version="1.1" inkscape:version="0.48.4 r9939" sodipodi:docname="seahorse.svg">
    <defs id="defs4702">
        <linearGradient id="linearGradient3852">
            <stop id="stop3854" offset="0" style="stop-color:white;stop-opacity:1;" />
            <stop id="stop3856" offset="1" style="stop-color:#ffffff;stop-opacity:0;" />
        </linearGradient>
        <linearGradient id="linearGradient3873">
            <stop style="stop-color:#543116;stop-opacity:1;" offset="0" id="stop3875" />
            <stop style="stop-color:#77461f;stop-opacity:1;" offset="1" id="stop3877" />
        </linearGradient>
        <linearGradient id="linearGradient3920">
            <stop style="stop-color:white;stop-opacity:1;" offset="0" id="stop3922" />
            <stop style="stop-color:white;stop-opacity:0;" offset="1" id="stop3924" />
        </linearGradient>
        <linearGradient id="linearGradient4517">
            <stop style="stop-color:white;stop-opacity:0.50196081;" offset="0" id="stop4519" />
            <stop style="stop-color:#ffffff;stop-opacity:0;" offset="1" id="stop4521" />
        </linearGradient>
        <filter id="filter3174" color-interpolation-filters="sRGB">
            <feGaussianBlur stdDeviation="1.71" id="feGaussianBlur3176" />
        </filter>
        <linearGradient gradientTransform="scale(1.0058652,0.994169)" gradientUnits="userSpaceOnUse" id="ButtonShadow" y2="7.0165396" x2="45.447727" y1="92.539597" x1="45.447727">
            <stop offset="0" style="stop-color:#000000;stop-opacity:1" id="stop3750" />
            <stop offset="1" style="stop-color:#000000;stop-opacity:0.58823532" id="stop3752" />
        </linearGradient>
        <linearGradient id="linearGradient4029-2">
            <stop id="stop4031-7" offset="0" style="stop-color:#d5af83;stop-opacity:1" />
            <stop id="stop4033-3" offset="1" style="stop-color:#8a4808;stop-opacity:1" />
        </linearGradient>
        <linearGradient inkscape:collect="always" xlink:href="#linearGradient4029-2" id="linearGradient4338" x1="22" y1="9" x2="22" y2="42" gradientUnits="userSpaceOnUse" gradientTransform="matrix(0.3333333,0,0,0.23529414,-3.7302198e-7,37.499997)" />
        <linearGradient id="linearGradient4029-2-3">
            <stop id="stop4031-7-1" offset="0" style="stop-color:#d5af83;stop-opacity:1" />
            <stop id="stop4033-3-8" offset="1" style="stop-color:#8a4808;stop-opacity:1" />
        </linearGradient>
        <linearGradient inkscape:collect="always" xlink:href="#linearGradient3852" id="linearGradient4089" gradientUnits="userSpaceOnUse" gradientTransform="matrix(0.29708747,0,0,0.12489803,0.86655408,39.824325)" x1="24.011265" y1="9.4130793" x2="24.011265" y2="25.426142" />
        <linearGradient inkscape:collect="always" xlink:href="#linearGradient4029-2-3" id="linearGradient4106" x1="22.916666" y1="38" x2="22.916666" y2="36.5" gradientUnits="userSpaceOnUse" gradientTransform="matrix(0.30769229,0,0,0.66666668,0.61538455,20.66667)" />
        <linearGradient inkscape:collect="always" xlink:href="#linearGradient3873" id="linearGradient3879" x1="36" y1="44" x2="36" y2="22" gradientUnits="userSpaceOnUse" gradientTransform="matrix(0.35135132,0,0,0.36363639,-0.43243268,31.681815)" />
        <linearGradient inkscape:collect="always" xlink:href="#linearGradient4517" id="linearGradient3858" gradientUnits="userSpaceOnUse" gradientTransform="matrix(0.29708745,0,0,0.09367349,0.86655506,-47.006756)" x1="24.011263" y1="0.072122857" x2="24.011263" y2="21.42288" />
        <linearGradient inkscape:collect="always" xlink:href="#linearGradient3920" id="linearGradient3909" gradientUnits="userSpaceOnUse" x1="23.093567" y1="4.3033333" x2="23.093567" y2="10.699231" gradientTransform="matrix(0.36826033,0,0,0.46591143,-0.83302096,31.063821)" />
        <linearGradient inkscape:collect="always" xlink:href="#linearGradient4029-2-3" id="linearGradient3048" gradientUnits="userSpaceOnUse" gradientTransform="matrix(0.30769229,0,0,0.66666668,0.61538455,17.66667)" x1="22.916666" y1="38" x2="22.916666" y2="36.5" />
        <linearGradient inkscape:collect="always" xlink:href="#linearGradient4029-2" id="linearGradient3050" gradientUnits="userSpaceOnUse" gradientTransform="matrix(0.33333331,0,0,0.14705882,-4.34573e-7,36.250002)" x1="22" y1="10.818182" x2="22" y2="28.115385" />
        <linearGradient inkscape:collect="always" xlink:href="#linearGradient4517" id="linearGradient3055" gradientUnits="userSpaceOnUse" gradientTransform="matrix(0.29708745,0,0,0.0312245,0.8665547,38.331082)" x1="22.440199" y1="4.8942533" x2="22.440199" y2="20.692619" />
    </defs>
    <sodipodi:namedview id="base" pagecolor="#ffffff" bordercolor="#666666" borderopacity="1.0" inkscape:pageopacity="0.0" inkscape:pageshadow="2" inkscape:zoom="32" inkscape:cx="14.61254" inkscape:cy="9.62943" inkscape:current-layer="layer1" showgrid="true" inkscape:grid-bbox="true" inkscape:document-units="px" inkscape:window-width="1280" inkscape:window-height="998" inkscape:window-x="0" inkscape:window-y="0" inkscape:window-maximized="1" inkscape:snap-to-guides="true" inkscape:snap-grids="true" inkscape:snap-bbox="true" inkscape:snap-global="true">
        <inkscape:grid type="xygrid" id="grid1021" empspacing="5" visible="true" enabled="true" snapvisiblegridlinesonly="true" />
    </sodipodi:namedview>
    <metadata id="metadata4705">
        <rdf:RDF>
            <cc:Work rdf:about="">
                <dc:format>image/svg+xml</dc:format>
                <dc:type rdf:resource="http://purl.org/dc/dcmitype/StillImage" />
                <dc:title />
            </cc:Work>
        </rdf:RDF>
    </metadata>
    <g id="layer1" inkscape:label="Layer 1" inkscape:groupmode="layer" transform="translate(0,-32)">
        <rect style="color:black;fill:url(#linearGradient3050);fill-opacity:1;fill-rule:nonzero;stroke:#77461f;stroke-width:1;stroke-linecap:round;stroke-linejoin:round;stroke-miterlimit:4;stroke-opacity:1;stroke-dasharray:none;stroke-dashoffset:0;marker:none;visibility:visible;display:inline;overflow:visible;enable-background:accumulate" id="rect3867" y="37.5" x="1.5" ry="1.5" height="5" width="13" />
        <rect style="color:black;fill:none;stroke:#77461f;stroke-width:1;stroke-linecap:round;stroke-linejoin:round;stroke-miterlimit:4;stroke-opacity:1;stroke-dasharray:none;stroke-dashoffset:0;marker:none;visibility:visible;display:inline;overflow:visible;enable-background:accumulate" id="rect3871" y="37.5" x="1.5" height="2" width="13" ry="1.5" rx="1.5" />
        <g id="layer2" style="display:none" transform="translate(5.204491,-179.6879)">
            <rect width="86" height="85" rx="6" ry="6" x="5" y="7" id="rect3745" style="opacity:0.9;fill:url(#ButtonShadow);fill-opacity:1;fill-rule:nonzero;stroke:none;filter:url(#filter3174)" />
        </g>
        <g id="layer4" transform="translate(5.204491,-179.6879)" />
        <rect style="opacity:0.75;fill:none;stroke:url(#linearGradient3055);stroke-width:1;stroke-miterlimit:4;stroke-opacity:1;stroke-dasharray:none" id="rect3878" y="38.5" x="2.5" height="1" width="11" ry="0.25" />
        <rect style="color:black;fill:url(#linearGradient4338);fill-opacity:1;fill-rule:nonzero;stroke:url(#linearGradient3879);stroke-width:1;stroke-linecap:round;stroke-linejoin:round;stroke-miterlimit:4;stroke-opacity:1;stroke-dasharray:none;stroke-dashoffset:0;marker:none;visibility:visible;display:inline;overflow:visible;enable-background:accumulate" id="rect3171" y="39.5" x="1.5" ry="1.5" height="8" width="13" rx="1.5" />
        <rect style="opacity:0.5;fill:none;stroke:url(#linearGradient3858);stroke-width:1;stroke-miterlimit:4;stroke-opacity:1;stroke-dasharray:none" id="rect3098" y="-46.5" x="2.5" ry="0.5" height="3" width="11" transform="scale(1,-1)" />
        <rect style="color:black;fill:url(#linearGradient4106);fill-opacity:1;fill-rule:nonzero;stroke:none;stroke-width:1;marker:none;visibility:visible;display:inline;overflow:visible;enable-background:accumulate" id="rect4091" width="8" height="2" x="4" y="44" ry="1" />
        <path style="font-size:medium;font-style:normal;font-variant:normal;font-weight:normal;font-stretch:normal;text-indent:0;text-align:start;text-decoration:none;line-height:normal;letter-spacing:normal;word-spacing:normal;text-transform:none;direction:ltr;block-progression:tb;writing-mode:lr-tb;text-anchor:start;baseline-shift:baseline;color:black;fill:#bebebe;fill-opacity:1;stroke:#424242;stroke-width:0.99999994;stroke-miterlimit:4;stroke-opacity:1;stroke-dasharray:none;marker:none;visibility:visible;display:inline;overflow:visible;enable-background:accumulate;font-family:Sans;-inkscape-font-specification:Sans" d="m 6.968192,32.5 c -2.0860659,0.01867 -3.4416945,1.599182 -3.4574074,3.749993 -0.024266,0.512547 0,0.591697 0,1.124998 -0.010675,0.555121 0.455629,1.122106 1.0372222,1.124998 0.5815932,0.0029 1.0418433,-0.569801 1.0372222,-1.124998 l 0,-1.124998 C 5.57056,35.189803 6.795583,34.749996 7.6596734,34.749996 l 0.6914816,0 c 0.9488868,-0.0037 2.074445,0.536804 2.074445,1.499997 l 0,1.124998 c -0.0082,0.555507 0.455256,1.124998 1.037222,1.124998 0.581966,0 1.045302,-0.569491 1.03707,-1.124998 l 0,-1.124998 C 12.499317,34.105126 10.852725,32.507163 9.0426364,32.5 z" id="path3073" inkscape:connector-curvature="0" sodipodi:nodetypes="cccsccccccscccc" />
        <path style="font-size:medium;font-style:normal;font-variant:normal;font-weight:normal;font-stretch:normal;text-indent:0;text-align:start;text-decoration:none;line-height:normal;letter-spacing:normal;word-spacing:normal;text-transform:none;direction:ltr;block-progression:tb;writing-mode:lr-tb;text-anchor:start;baseline-shift:baseline;color:black;fill:url(#linearGradient3909);fill-opacity:1;stroke:none;stroke-width:1.68947256;marker:none;visibility:visible;display:inline;overflow:visible;enable-background:accumulate;font-family:Sans;-inkscape-font-specification:Sans" d="m 7.6369656,33.000266 c -1.9138872,0 -2.8791698,0.896514 -3.3028339,1.834526 -0.4029983,0.892257 -0.3309444,1.734548 -0.3222283,1.819968 4.668e-4,0.0044 0,0.05823 0,0.05823 l -0.011509,0.873585 a 0.31111395,0.39361166 0 1 0 0.6214393,0 l 0.011509,-0.931824 a 0.31111395,0.39361166 0 0 0 0,-0.05823 c 0,0 -0.082694,-0.690498 0.2301622,-1.383174 0.312856,-0.692681 1.0047441,-1.426856 2.7734601,-1.426856 l 0.6789808,0 0.046033,0 a 0.31111395,0.39361166 0 0 0 0.03452,0 c 0.00876,5.6e-5 0.014293,-9.3e-5 0.023013,0 1.7199112,0.01816 2.4069812,0.74285 2.7159202,1.426856 0.312856,0.692676 0.230162,1.383174 0.230162,1.383174 a 0.31111395,0.39361166 0 0 0 0,0.05823 l -0.0115,0.931824 a 0.31111395,0.39361166 0 1 0 0.62144,0 l 0.0115,-0.873585 0,-0.05823 c 0.0087,-0.08542 0.09227,-0.927711 -0.310718,-1.819968 -0.416895,-0.923025 -1.380032,-1.792164 -3.2337862,-1.819966 -0.021619,-3.25e-4 -0.035674,-0.01449 -0.05754,-0.01456 a 0.31111395,0.39361166 0 0 0 -0.02302,0 l -0.05754,0 -0.667472,0 z" id="path3910" inkscape:connector-curvature="0" />
        <path sodipodi:nodetypes="cccccc" inkscape:connector-curvature="0" id="path4006" d="m 8,34 c 1.285715,0 3,0 3,2.580384 l 0,1.105878 c 3.6e-5,0.421269 -0.428573,0.415355 -0.428573,0 l 0,-1.474506 C 10.571427,34 8.4285716,34 8,34 z" style="font-size:medium;font-style:normal;font-variant:normal;font-weight:normal;font-stretch:normal;text-indent:0;text-align:start;text-decoration:none;line-height:normal;letter-spacing:normal;word-spacing:normal;text-transform:none;direction:ltr;block-progression:tb;writing-mode:lr-tb;text-anchor:start;baseline-shift:baseline;color:black;fill:white;fill-opacity:1;fill-rule:evenodd;stroke:none;stroke-width:1.99999988;marker:none;visibility:visible;display:inline;overflow:visible;enable-background:accumulate;font-family:Sans;-inkscape-font-specification:Sans" />
        <path style="font-size:medium;font-style:normal;font-variant:normal;font-weight:normal;font-stretch:normal;text-indent:0;text-align:start;text-decoration:none;line-height:normal;letter-spacing:normal;word-spacing:normal;text-transform:none;direction:ltr;block-progression:tb;writing-mode:lr-tb;text-anchor:start;baseline-shift:baseline;color:black;fill:white;fill-opacity:1;fill-rule:evenodd;stroke:none;stroke-width:1.99999988;marker:none;visibility:visible;display:inline;overflow:visible;enable-background:accumulate;font-family:Sans;-inkscape-font-specification:Sans" d="m 8,33 c -1.3333338,0 -4,0.335823 -4,3.358236 l 0,1.343295 c -3.1e-5,0.400767 0.4444443,0.395141 0.4444443,0 l 0,-1.343295 C 4.4444443,33.671648 7.5555552,33 8,33 z" id="path3972" inkscape:connector-curvature="0" sodipodi:nodetypes="cccccc" />
        <rect width="11" height="4.000001" ry="0.5" x="2.5" y="40.5" id="rect4087" style="opacity:0.5;fill:none;stroke:url(#linearGradient4089);stroke-width:0.99999988;stroke-miterlimit:4;stroke-opacity:1;stroke-dasharray:none" />
        <rect ry="1" y="41" x="4" height="2" width="8" id="rect3046" style="color:black;fill:url(#linearGradient3048);fill-opacity:1;fill-rule:nonzero;stroke:none;stroke-width:1;marker:none;visibility:visible;display:inline;overflow:visible;enable-background:accumulate" rx="1" />
    </g>
</svg>
