<?xml version="1.0" encoding="UTF-8" standalone="no"?>
<!-- Created with Inkscape (http://www.inkscape.org/) -->

<svg xmlns:dc="http://purl.org/dc/elements/1.1/" xmlns:cc="http://creativecommons.org/ns#" xmlns:rdf="http://www.w3.org/1999/02/22-rdf-syntax-ns#" xmlns:svg="http://www.w3.org/2000/svg" xmlns="http://www.w3.org/2000/svg" xmlns:xlink="http://www.w3.org/1999/xlink" xmlns:sodipodi="http://sodipodi.sourceforge.net/DTD/sodipodi-0.dtd" xmlns:inkscape="http://www.inkscape.org/namespaces/inkscape" width="16" height="16" id="svg4700" version="1.1" inkscape:version="0.48.4 r9939" sodipodi:docname="sylpheed.svg">
    <defs id="defs4702">
        <filter id="filter3174" color-interpolation-filters="sRGB">
            <feGaussianBlur stdDeviation="1.71" id="feGaussianBlur3176" />
        </filter>
        <linearGradient gradientTransform="scale(1.0058652,0.994169)" gradientUnits="userSpaceOnUse" id="ButtonShadow" y2="7.0165396" x2="45.447727" y1="92.539597" x1="45.447727">
            <stop offset="0" style="stop-color:#000000;stop-opacity:1" id="stop3750" />
            <stop offset="1" style="stop-color:#000000;stop-opacity:0.58823532" id="stop3752" />
        </linearGradient>
        <linearGradient id="linearGradient4050-9">
            <stop id="stop4052-6" offset="0" style="stop-color:#ffffff;stop-opacity:0.66929132;" />
            <stop id="stop4054-4" offset="1" style="stop-color:#ffffff;stop-opacity:0;" />
        </linearGradient>
        <linearGradient id="linearGradient3242-967-12-570-862-307-5-2-3">
            <stop id="stop4498-9-9-5" style="stop-color:#ffffff;stop-opacity:1" offset="0" />
            <stop id="stop4504-8-9-0" style="stop-color:#999999;stop-opacity:1" offset="1" />
        </linearGradient>
        <linearGradient id="linearGradient2490-495-150-777-3-6-38">
            <stop id="stop4108-9-0-26" style="stop-color:#5a5a5a;stop-opacity:1;" offset="0" />
            <stop id="stop4110-50-0-8" style="stop-color:#bebebe;stop-opacity:1;" offset="1" />
        </linearGradient>
        <linearGradient inkscape:collect="always" xlink:href="#linearGradient4050-9" id="linearGradient3203" gradientUnits="userSpaceOnUse" gradientTransform="matrix(0.33306569,0,0,0.29197877,-0.27626796,33.397433)" x1="22.440199" y1="4.8942533" x2="22.440199" y2="38.21666" />
        <linearGradient inkscape:collect="always" xlink:href="#linearGradient3242-967-12-570-862-307-5-2-3" id="linearGradient3228" gradientUnits="userSpaceOnUse" gradientTransform="matrix(0.36613001,0,0,0.33359806,-17.242612,30.171923)" x1="66.726517" y1="11.096905" x2="66.726517" y2="58.663464" />
        <linearGradient inkscape:collect="always" xlink:href="#linearGradient2490-495-150-777-3-6-38" id="linearGradient3230" gradientUnits="userSpaceOnUse" gradientTransform="matrix(0.36612997,0,0,0.36742883,-17.242612,28.666458)" x1="82.292419" y1="48.830688" x2="82.292419" y2="12.76959" />
    </defs>
    <sodipodi:namedview id="base" pagecolor="#ffffff" bordercolor="#666666" borderopacity="1.0" inkscape:pageopacity="0.0" inkscape:pageshadow="2" inkscape:zoom="22.627417" inkscape:cx="12.01156" inkscape:cy="8.272053" inkscape:current-layer="layer1" showgrid="true" inkscape:grid-bbox="true" inkscape:document-units="px" inkscape:window-width="1280" inkscape:window-height="971" inkscape:window-x="0" inkscape:window-y="27" inkscape:window-maximized="1" inkscape:snap-to-guides="false" inkscape:snap-grids="false" showguides="true" inkscape:guide-bbox="true">
        <inkscape:grid type="xygrid" id="grid1021" empspacing="5" visible="true" enabled="true" snapvisiblegridlinesonly="true" />
    </sodipodi:namedview>
    <metadata id="metadata4705">
        <rdf:RDF>
            <cc:Work rdf:about="">
                <dc:format>image/svg+xml</dc:format>
                <dc:type rdf:resource="http://purl.org/dc/dcmitype/StillImage" />
                <dc:title />
            </cc:Work>
        </rdf:RDF>
    </metadata>
    <g id="layer1" inkscape:label="Layer 1" inkscape:groupmode="layer" transform="translate(0,-32)">
        <g id="layer2" style="display:none" transform="translate(5.204491,-179.6879)">
            <rect width="86" height="85" rx="6" ry="6" x="5" y="7" id="rect3745" style="opacity:0.9;fill:url(#ButtonShadow);fill-opacity:1;fill-rule:nonzero;stroke:none;filter:url(#filter3174)" />
        </g>
        <g id="layer4" transform="translate(5.204491,-179.6879)" />
        <rect style="color:#000000;fill:url(#linearGradient3228);fill-opacity:1;fill-rule:evenodd;stroke:url(#linearGradient3230);stroke-width:1;stroke-linecap:square;stroke-linejoin:round;stroke-miterlimit:4;stroke-opacity:1;stroke-dasharray:none;stroke-dashoffset:0;marker:none;visibility:visible;display:inline;overflow:visible;enable-background:accumulate" id="rect3117" width="15" height="13" x="0.5" y="33.499996" ry="1.9999999" rx="2" />
        <path id="path4209" style="font-size:medium;font-style:normal;font-variant:normal;font-weight:normal;font-stretch:normal;text-indent:0;text-align:start;text-decoration:none;line-height:normal;letter-spacing:normal;word-spacing:normal;text-transform:none;direction:ltr;block-progression:tb;writing-mode:lr-tb;text-anchor:start;baseline-shift:baseline;color:#000000;fill:#315a95;fill-opacity:1;fill-rule:evenodd;stroke:none;stroke-width:2;marker:none;visibility:visible;display:inline;overflow:visible;enable-background:accumulate;font-family:Sans;-inkscape-font-specification:Sans" d="m 5.3238276,41.727997 c 1.0391869,0 1.8451125,0.521875 2.4119446,1.052913 -0.5262632,0.223619 -1.1162747,0.381826 -1.8205546,0.381826 -0.8650532,0 -1.3767178,-0.430286 -1.4842726,-0.775222 C 4.377162,42.215045 4.398126,42.07078 4.523709,41.947835 4.649287,41.824887 4.9044569,41.727997 5.3238259,41.727997 z m 2.9221628,-3.147172 c -0.3923932,0.04584 -0.7925043,0.224621 -1.1711839,0.555383 -0.0083,0.0048 -0.014814,0.0065 -0.023185,0.01157 -0.00854,0.0077 -0.01451,0.01521 -0.023197,0.02315 a 0.18756212,0.18715122 0 0 0 0.2203231,0.300832 c 0.6607634,-0.391121 1.2051702,-0.369949 1.6002315,-0.138845 0.395059,0.231102 0.6493684,0.695485 0.6493684,1.238041 0,0.696588 -0.347621,1.327288 -0.9740531,1.804994 -0.1018491,0.07768 -0.2550191,0.11706 -0.3710682,0.185131 -0.6352467,-0.767446 -1.552527,-1.562017 -2.8989706,-1.562017 -0.9792853,0.01547 -1.5985151,0.685532 -1.5074659,1.388459 0.045517,0.35146 0.2649245,0.694827 0.6493695,0.937208 0.3844438,0.24238 0.9355244,0.393396 1.6582134,0.393396 0.6507258,0 1.4106304,-0.162951 2.133642,-0.416537 0.1769761,0.239809 0.475431,0.601664 0.475431,0.601664 a 0.18930138,0.18888667 0 1 0 0.3362798,-0.173558 c 0,0 -0.3007828,-0.379113 -0.4174515,-0.566952 0.1101621,-0.04794 0.2308353,-0.07231 0.336282,-0.127273 0.8970157,-0.467438 1.6118261,-1.221018 1.6118261,-2.267814 0,-0.819124 -0.461294,-1.574309 -1.1363962,-1.955412 C 9.0564361,38.621698 8.6546659,38.533101 8.2459928,38.58084 z m 0.023197,-2.348806 c -0.7663364,0 -1.4676594,0.236582 -1.982897,0.647946 -0.5152376,0.411362 -0.8464992,1.000215 -0.8464992,1.677719 0,0.692319 0.4110525,1.277655 0.9856493,1.538875 0.5583671,0.253838 1.269647,0.165061 1.866938,-0.370257 0.013013,-0.0117 0.033533,5.14e-4 0.046382,-0.01157 0.00433,-0.0041 0.00725,-0.0075 0.011575,-0.01158 A 0.18756212,0.18715122 0 0 0 8.1068228,39.42546 c -0.00479,0.0035 -0.00666,0.008 -0.011575,0.01158 -0.5563445,0.408251 -1.0675776,0.360553 -1.4610804,0.13884 -0.3969753,-0.22367 -0.647044,-0.652195 -0.6261772,-1.006632 a 0.18756212,0.18715122 0 0 0 0,-0.01158 c 0,-0.478757 0.1457561,-0.765445 0.3826619,-0.97192 0.2369093,-0.206476 0.5806497,-0.329435 0.9740555,-0.381826 0.7868114,-0.104784 1.7466131,0.06153 2.3075805,0.138846 0.7692709,0.106035 1.3387799,-0.07628 1.7161909,-0.289263 0.331274,-0.186948 0.457419,-0.365739 0.498624,-0.416537 0.0058,-0.007 0.06957,-0.05786 0.06957,-0.05786 a 0.18756212,0.18715122 0 0 0 0.04637,-0.104129 0.18756212,0.18715122 0 0 0 -0.266705,-0.173556 c -1.108279,0.491972 -2.3017803,-0.04905 -3.4671697,-0.06943 z" inkscape:connector-curvature="0" />
        <rect width="13" height="11" ry="1.9999998" x="1.5" y="34.5" id="rect4513-3" style="fill:none;stroke:url(#linearGradient3203);stroke-width:1;stroke-miterlimit:4;stroke-opacity:1;stroke-dasharray:none" rx="2.0000005" />
        <path inkscape:connector-curvature="0" style="font-size:medium;font-style:normal;font-variant:normal;font-weight:normal;font-stretch:normal;text-indent:0;text-align:start;text-decoration:none;line-height:normal;letter-spacing:normal;word-spacing:normal;text-transform:none;direction:ltr;block-progression:tb;writing-mode:lr-tb;text-anchor:start;baseline-shift:baseline;color:#000000;fill:#4074c0;fill-opacity:1;fill-rule:evenodd;stroke:none;stroke-width:2;marker:none;visibility:visible;display:inline;overflow:visible;enable-background:accumulate;font-family:Sans;-inkscape-font-specification:Sans" d="M 6,33.000001 5,34 7,34 8.0000005,33.000001 z" id="path7689" sodipodi:nodetypes="ccccc" />
        <path sodipodi:nodetypes="ccccc" id="path3843" d="M 10,33.000001 9,34 l 2,0 1,-0.999999 z" style="font-size:medium;font-style:normal;font-variant:normal;font-weight:normal;font-stretch:normal;text-indent:0;text-align:start;text-decoration:none;line-height:normal;letter-spacing:normal;word-spacing:normal;text-transform:none;direction:ltr;block-progression:tb;writing-mode:lr-tb;text-anchor:start;baseline-shift:baseline;color:#000000;fill:#c04040;fill-opacity:1;fill-rule:evenodd;stroke:none;stroke-width:2;marker:none;visibility:visible;display:inline;overflow:visible;enable-background:accumulate;font-family:Sans;-inkscape-font-specification:Sans" inkscape:connector-curvature="0" />
        <path sodipodi:nodetypes="ccccc" id="path3874" d="M 14.969388,35.118068 15.527317,34.09411 C 15.267877,33.589197 14.456863,33.122097 14,33.1 l -1.032112,0.894791 c 1.053089,0 1.758432,0.245939 2.0015,1.123277 z" style="font-size:medium;font-style:normal;font-variant:normal;font-weight:normal;font-stretch:normal;text-indent:0;text-align:start;text-decoration:none;line-height:normal;letter-spacing:normal;word-spacing:normal;text-transform:none;direction:ltr;block-progression:tb;writing-mode:lr-tb;text-anchor:start;baseline-shift:baseline;color:#000000;fill:#4074c0;fill-opacity:1;fill-rule:evenodd;stroke:none;stroke-width:2;marker:none;visibility:visible;display:inline;overflow:visible;enable-background:accumulate;font-family:Sans;-inkscape-font-specification:Sans" inkscape:connector-curvature="0" />
        <path sodipodi:nodetypes="ccccc" id="path3082" d="M 9.9999997,47 11,46.000001 l -2,0 L 7.9999995,47 z" style="font-size:medium;font-style:normal;font-variant:normal;font-weight:normal;font-stretch:normal;text-indent:0;text-align:start;text-decoration:none;line-height:normal;letter-spacing:normal;word-spacing:normal;text-transform:none;direction:ltr;block-progression:tb;writing-mode:lr-tb;text-anchor:start;baseline-shift:baseline;color:#000000;fill:#4074c0;fill-opacity:1;fill-rule:evenodd;stroke:none;stroke-width:2;marker:none;visibility:visible;display:inline;overflow:visible;enable-background:accumulate;font-family:Sans;-inkscape-font-specification:Sans" inkscape:connector-curvature="0" />
        <path inkscape:connector-curvature="0" style="font-size:medium;font-style:normal;font-variant:normal;font-weight:normal;font-stretch:normal;text-indent:0;text-align:start;text-decoration:none;line-height:normal;letter-spacing:normal;word-spacing:normal;text-transform:none;direction:ltr;block-progression:tb;writing-mode:lr-tb;text-anchor:start;baseline-shift:baseline;color:#000000;fill:#c04040;fill-opacity:1;fill-rule:evenodd;stroke:none;stroke-width:2;marker:none;visibility:visible;display:inline;overflow:visible;enable-background:accumulate;font-family:Sans;-inkscape-font-specification:Sans" d="m 6,47 1,-0.999999 -2,0 L 4,47 z" id="path3084" sodipodi:nodetypes="ccccc" />
        <path inkscape:connector-curvature="0" style="font-size:medium;font-style:normal;font-variant:normal;font-weight:normal;font-stretch:normal;text-indent:0;text-align:start;text-decoration:none;line-height:normal;letter-spacing:normal;word-spacing:normal;text-transform:none;direction:ltr;block-progression:tb;writing-mode:lr-tb;text-anchor:start;baseline-shift:baseline;color:#000000;fill:#4074c0;fill-opacity:1;fill-rule:evenodd;stroke:none;stroke-width:2;marker:none;visibility:visible;display:inline;overflow:visible;enable-background:accumulate;font-family:Sans;-inkscape-font-specification:Sans" d="m 0,38 0.999999,-1 0,2 L 0,40 z" id="path3086" sodipodi:nodetypes="ccccc" />
        <path sodipodi:nodetypes="ccccc" id="path3088" d="M 0,41.999999 0.999999,41 l 0,1.999999 L 0,44 z" style="font-size:medium;font-style:normal;font-variant:normal;font-weight:normal;font-stretch:normal;text-indent:0;text-align:start;text-decoration:none;line-height:normal;letter-spacing:normal;word-spacing:normal;text-transform:none;direction:ltr;block-progression:tb;writing-mode:lr-tb;text-anchor:start;baseline-shift:baseline;color:#000000;fill:#c04040;fill-opacity:1;fill-rule:evenodd;stroke:none;stroke-width:2;marker:none;visibility:visible;display:inline;overflow:visible;enable-background:accumulate;font-family:Sans;-inkscape-font-specification:Sans" inkscape:connector-curvature="0" />
        <path sodipodi:nodetypes="ccccc" id="path3090" d="M 15.999999,42 15,43 l 0,-2 0.999999,-1 z" style="font-size:medium;font-style:normal;font-variant:normal;font-weight:normal;font-stretch:normal;text-indent:0;text-align:start;text-decoration:none;line-height:normal;letter-spacing:normal;word-spacing:normal;text-transform:none;direction:ltr;block-progression:tb;writing-mode:lr-tb;text-anchor:start;baseline-shift:baseline;color:#000000;fill:#4074c0;fill-opacity:1;fill-rule:evenodd;stroke:none;stroke-width:2;marker:none;visibility:visible;display:inline;overflow:visible;enable-background:accumulate;font-family:Sans;-inkscape-font-specification:Sans" inkscape:connector-curvature="0" />
        <path inkscape:connector-curvature="0" style="font-size:medium;font-style:normal;font-variant:normal;font-weight:normal;font-stretch:normal;text-indent:0;text-align:start;text-decoration:none;line-height:normal;letter-spacing:normal;word-spacing:normal;text-transform:none;direction:ltr;block-progression:tb;writing-mode:lr-tb;text-anchor:start;baseline-shift:baseline;color:#000000;fill:#c04040;fill-opacity:1;fill-rule:evenodd;stroke:none;stroke-width:2;marker:none;visibility:visible;display:inline;overflow:visible;enable-background:accumulate;font-family:Sans;-inkscape-font-specification:Sans" d="M 15.999999,38.000001 15,39 15,37.000001 15.999999,36 z" id="path3092" sodipodi:nodetypes="ccccc" />
        <path inkscape:connector-curvature="0" style="font-size:medium;font-style:normal;font-variant:normal;font-weight:normal;font-stretch:normal;text-indent:0;text-align:start;text-decoration:none;line-height:normal;letter-spacing:normal;word-spacing:normal;text-transform:none;direction:ltr;block-progression:tb;writing-mode:lr-tb;text-anchor:start;baseline-shift:baseline;color:#000000;fill:#4074c0;fill-opacity:1;fill-rule:evenodd;stroke:none;stroke-width:2;marker:none;visibility:visible;display:inline;overflow:visible;enable-background:accumulate;font-family:Sans;-inkscape-font-specification:Sans" d="m 1.0409629,44.899844 -0.55792902,1.023958 c 0.25944,0.504913 1.07045402,0.972013 1.52731702,0.99411 l 1.032112,-0.894791 c -1.053089,0 -1.758432,-0.245939 -2.0015,-1.123277 z" id="path3094" sodipodi:nodetypes="ccccc" />
        <path inkscape:connector-curvature="0" style="font-size:medium;font-style:normal;font-variant:normal;font-weight:normal;font-stretch:normal;text-indent:0;text-align:start;text-decoration:none;line-height:normal;letter-spacing:normal;word-spacing:normal;text-transform:none;direction:ltr;block-progression:tb;writing-mode:lr-tb;text-anchor:start;baseline-shift:baseline;color:#000000;fill:#c04040;fill-opacity:1;fill-rule:evenodd;stroke:none;stroke-width:2;marker:none;visibility:visible;display:inline;overflow:visible;enable-background:accumulate;font-family:Sans;-inkscape-font-specification:Sans" d="M 2.2446151,32.999996 C 1.0045912,32.999996 0,34.471517 0,35.24536 l 0,0.754637 1.076566,-1.015744 C 1.341731,34.387632 1.880887,33.999997 2.5,33.999997 l 0.5,0 1,-1.000001 z" id="path3096" sodipodi:nodetypes="sscccccs" />
        <path sodipodi:nodetypes="sscccccs" id="path3866" d="M 13.755385,46.999996 C 14.995409,46.999996 16,45.528475 16,44.754632 l 0,-0.754637 -1.076566,1.015744 C 14.658269,45.61236 14.119113,45.999995 13.5,45.999995 l -0.5,0 -1,1.000001 z" style="font-size:medium;font-style:normal;font-variant:normal;font-weight:normal;font-stretch:normal;text-indent:0;text-align:start;text-decoration:none;line-height:normal;letter-spacing:normal;word-spacing:normal;text-transform:none;direction:ltr;block-progression:tb;writing-mode:lr-tb;text-anchor:start;baseline-shift:baseline;color:#000000;fill:#c04040;fill-opacity:1;fill-rule:evenodd;stroke:none;stroke-width:2;marker:none;visibility:visible;display:inline;overflow:visible;enable-background:accumulate;font-family:Sans;-inkscape-font-specification:Sans" inkscape:connector-curvature="0" />
    </g>
</svg>
