<?xml version="1.0" encoding="UTF-8" standalone="no"?>
<!-- Created with Inkscape (http://www.inkscape.org/) -->

<svg xmlns:dc="http://purl.org/dc/elements/1.1/" xmlns:cc="http://creativecommons.org/ns#" xmlns:rdf="http://www.w3.org/1999/02/22-rdf-syntax-ns#" xmlns:svg="http://www.w3.org/2000/svg" xmlns="http://www.w3.org/2000/svg" xmlns:xlink="http://www.w3.org/1999/xlink" xmlns:sodipodi="http://sodipodi.sourceforge.net/DTD/sodipodi-0.dtd" xmlns:inkscape="http://www.inkscape.org/namespaces/inkscape" width="16" height="16" id="svg4700" version="1.1" inkscape:version="0.48.4 r9939" sodipodi:docname="synaptic.svg">
    <defs id="defs4702">
        <filter id="filter3174" color-interpolation-filters="sRGB">
            <feGaussianBlur stdDeviation="1.71" id="feGaussianBlur3176" />
        </filter>
        <linearGradient gradientTransform="scale(1.0058652,0.994169)" gradientUnits="userSpaceOnUse" id="ButtonShadow" y2="7.0165396" x2="45.447727" y1="92.539597" x1="45.447727">
            <stop offset="0" style="stop-color:#000000;stop-opacity:1" id="stop3750" />
            <stop offset="1" style="stop-color:#000000;stop-opacity:0.58823532" id="stop3752" />
        </linearGradient>
        <linearGradient inkscape:collect="always" xlink:href="#linearGradient3157-5-2-4" id="linearGradient3075-3" gradientUnits="userSpaceOnUse" x1="-42.696152" x2="-5.8431101" gradientTransform="matrix(0,-0.4086358,-0.40740512,0,-1.8787678,30.214845)" />
        <linearGradient x2="-5.8431101" x1="-42.696152" id="linearGradient3157-5-2-4" gradientUnits="userSpaceOnUse">
            <stop id="stop29-2" stop-color="#ae802b" offset="0" />
            <stop id="stop31-9" stop-color="#e1c18b" offset="1" />
        </linearGradient>
    </defs>
    <sodipodi:namedview id="base" pagecolor="#ffffff" bordercolor="#666666" borderopacity="1.0" inkscape:pageopacity="0.0" inkscape:pageshadow="2" inkscape:zoom="22.627417" inkscape:cx="19.244628" inkscape:cy="15.613975" inkscape:current-layer="layer1" showgrid="true" inkscape:grid-bbox="true" inkscape:document-units="px" inkscape:window-width="1280" inkscape:window-height="976" inkscape:window-x="0" inkscape:window-y="24" inkscape:window-maximized="1" inkscape:snap-to-guides="false" inkscape:snap-grids="true">
        <inkscape:grid type="xygrid" id="grid1021" empspacing="5" visible="true" enabled="true" snapvisiblegridlinesonly="true" />
    </sodipodi:namedview>
    <metadata id="metadata4705">
        <rdf:RDF>
            <cc:Work rdf:about="">
                <dc:format>image/svg+xml</dc:format>
                <dc:type rdf:resource="http://purl.org/dc/dcmitype/StillImage" />
                <dc:title />
            </cc:Work>
        </rdf:RDF>
    </metadata>
    <g id="layer1" inkscape:label="Layer 1" inkscape:groupmode="layer" transform="translate(0,-32)">
        <g id="layer2" style="display:none" transform="translate(5.204491,-179.6879)">
            <rect width="86" height="85" rx="6" ry="6" x="5" y="7" id="rect3745" style="opacity:0.9;fill:url(#ButtonShadow);fill-opacity:1;fill-rule:nonzero;stroke:none;filter:url(#filter3174)" />
        </g>
        <g id="layer4" transform="translate(4.204491,-178.6879)" />
        <rect style="color:#000000;fill:url(#linearGradient3075-3);fill-opacity:1;fill-rule:nonzero;stroke:#66420d;stroke-width:1;stroke-linecap:round;stroke-linejoin:round;stroke-miterlimit:4;stroke-opacity:1;stroke-dasharray:none;stroke-dashoffset:0;marker:none;visibility:visible;display:inline;overflow:visible;enable-background:accumulate" id="rect3874" width="15" height="15" x="0.5" y="32.5" ry="2" rx="2" />
        <path style="fill:#ffffff" d="m 6.25,33 c -0.1643226,2.021167 -1.5874116,3.818182 -3.5,3.818182 -0.5511841,0 -1.1666666,0 -1.75,-0.636364 l 0,1.909091 c 0.5833334,0.636364 1.2968771,0.636364 1.75,0.636364 0.4060525,0 0.8018756,-0.06177 1.1848959,-0.178977 0.085356,-0.967478 0.8225344,-1.730114 1.7317707,-1.730114 0.2355839,0 0.451108,0.06701 0.65625,0.159091 C 7.3496329,35.855698 8,34.360037 8,33 L 6.25,33 z M 5.6666666,37.454546 C 5.0223348,37.454546 4.5,38.024366 4.5,38.727273 4.5,39.43018 5.0223348,40 5.6666666,40 c 0.644332,0 1.1666668,-0.56982 1.1666668,-1.272727 0,-0.702907 -0.5223348,-1.272727 -1.1666668,-1.272727 z" id="path3891" inkscape:connector-curvature="0" />
        <path style="fill:#ffffff" inkscape:connector-curvature="0" d="m 6,41 h 8 v 5 H 6 z" id="path49" />
        <path style="fill:#6a6a6a" d="m 7,42 v 3 H 8 V 42 H 7 z" id="path3123" inkscape:connector-curvature="0" />
        <path style="fill:#6a6a6a" d="m 9,42 v 3 h 2 V 42 H 9 z" id="path3121" inkscape:connector-curvature="0" />
        <path style="fill:#6a6a6a" d="m 12,42 v 3 h 1 v -3 h -1 z" id="path3119" inkscape:connector-curvature="0" />
        <path style="fill:#66420d;fill-opacity:1" d="m 3,41 0,1 -1,0 0,1 1,0 0,2 -1,0 0,1 3,0 0,-1 -1,0 0,-2 1,0 0,-1 -1,0 0,-1 z" id="path53" inkscape:connector-curvature="0" sodipodi:nodetypes="ccccccccccccccccc" />
    </g>
</svg>
