<?xml version="1.0" encoding="UTF-8" standalone="no"?>
<!-- Created with Inkscape (http://www.inkscape.org/) -->

<svg xmlns:dc="http://purl.org/dc/elements/1.1/" xmlns:cc="http://creativecommons.org/ns#" xmlns:rdf="http://www.w3.org/1999/02/22-rdf-syntax-ns#" xmlns:svg="http://www.w3.org/2000/svg" xmlns="http://www.w3.org/2000/svg" xmlns:xlink="http://www.w3.org/1999/xlink" xmlns:sodipodi="http://sodipodi.sourceforge.net/DTD/sodipodi-0.dtd" xmlns:inkscape="http://www.inkscape.org/namespaces/inkscape" width="16" height="16" id="svg4700" version="1.1" inkscape:version="0.48.4 r9939" sodipodi:docname="xpad.svg">
    <defs id="defs4702">
        <linearGradient id="linearGradient4050">
            <stop id="stop4052" offset="0" style="stop-color:#ffffff;stop-opacity:0.66929132;" />
            <stop id="stop4054" offset="1" style="stop-color:#ffffff;stop-opacity:0;" />
        </linearGradient>
        <filter id="filter3174" color-interpolation-filters="sRGB">
            <feGaussianBlur stdDeviation="1.71" id="feGaussianBlur3176" />
        </filter>
        <linearGradient gradientTransform="scale(1.0058652,0.994169)" gradientUnits="userSpaceOnUse" id="ButtonShadow" y2="7.0165396" x2="45.447727" y1="92.539597" x1="45.447727">
            <stop offset="0" style="stop-color:#000000;stop-opacity:1" id="stop3750" />
            <stop offset="1" style="stop-color:#000000;stop-opacity:0.58823532" id="stop3752" />
        </linearGradient>
        <linearGradient x1="45.447727" y1="92.539597" x2="45.447727" y2="7.0165396" id="ButtonShadow-5" gradientUnits="userSpaceOnUse" gradientTransform="scale(1.0058652,0.994169)">
            <stop id="stop3750-0" style="stop-color:#000000;stop-opacity:1" offset="0" />
            <stop id="stop3752-8" style="stop-color:#000000;stop-opacity:0.58823532" offset="1" />
        </linearGradient>
        <filter color-interpolation-filters="sRGB" id="filter3174-3">
            <feGaussianBlur id="feGaussianBlur3176-6" stdDeviation="1.71" />
        </filter>
        <linearGradient id="linearGradient3918-7-8-3" inkscape:collect="always">
            <stop id="stop3920-3-7-2" offset="0" style="stop-color:#e8d382;stop-opacity:1;" />
            <stop id="stop3922-3-3-4" offset="1" style="stop-color:#f5eabd;stop-opacity:1" />
        </linearGradient>
        <linearGradient inkscape:collect="always" xlink:href="#linearGradient4050" id="linearGradient3818" gradientUnits="userSpaceOnUse" gradientTransform="matrix(0.36317507,0,0,0.42331226,-0.3369048,31.130028)" x1="22.955608" y1="4.4174767" x2="22.955608" y2="37.48999" />
        <linearGradient inkscape:collect="always" xlink:href="#linearGradient3918-7-8-3" id="linearGradient3821" gradientUnits="userSpaceOnUse" gradientTransform="matrix(0.35227662,0,0,-0.35339413,-1.548419,31.32933)" x1="27.181786" y1="-3.7031581" x2="27.181786" y2="-41.160442" />
    </defs>
    <sodipodi:namedview id="base" pagecolor="#ffffff" bordercolor="#666666" borderopacity="1.0" inkscape:pageopacity="0.0" inkscape:pageshadow="2" inkscape:zoom="21.507832" inkscape:cx="18.276763" inkscape:cy="7.1781694" inkscape:current-layer="layer1" showgrid="true" inkscape:grid-bbox="true" inkscape:document-units="px" inkscape:window-width="1280" inkscape:window-height="976" inkscape:window-x="0" inkscape:window-y="24" inkscape:window-maximized="1" inkscape:snap-to-guides="false" inkscape:snap-grids="true" inkscape:snap-midpoints="true">
        <inkscape:grid type="xygrid" id="grid1021" empspacing="5" visible="true" enabled="true" snapvisiblegridlinesonly="true" />
    </sodipodi:namedview>
    <metadata id="metadata4705">
        <rdf:RDF>
            <cc:Work rdf:about="">
                <dc:format>image/svg+xml</dc:format>
                <dc:type rdf:resource="http://purl.org/dc/dcmitype/StillImage" />
                <dc:title />
            </cc:Work>
        </rdf:RDF>
    </metadata>
    <g id="layer1" inkscape:label="Layer 1" inkscape:groupmode="layer" transform="translate(0,-32)">
        <g id="layer2" style="display:none" transform="translate(5.204491,-179.6879)">
            <rect width="86" height="85" rx="6" ry="6" x="5" y="7" id="rect3745" style="opacity:0.9;fill:url(#ButtonShadow);fill-opacity:1;fill-rule:nonzero;stroke:none;filter:url(#filter3174)" />
        </g>
        <g id="layer4" transform="translate(25.204491,-179.6879)" />
        <g id="layer2-4" style="display:none" transform="matrix(0.48140081,0,0,0.48140081,-22.722313,-60.847114)">
            <rect width="86" height="85" rx="12.463627" ry="12.463627" x="5" y="7" id="rect3745-4" style="opacity:0.9;fill:url(#ButtonShadow-5);fill-opacity:1;fill-rule:nonzero;stroke:none;filter:url(#filter3174-3)" />
        </g>
        <g id="layer4-1" transform="matrix(0.48140081,0,0,0.48140081,-2.722313,-60.847114)" />
        <path style="font-size:medium;font-style:normal;font-variant:normal;font-weight:normal;font-stretch:normal;text-indent:0;text-align:start;text-decoration:none;line-height:normal;letter-spacing:normal;word-spacing:normal;text-transform:none;direction:ltr;block-progression:tb;writing-mode:lr-tb;text-anchor:start;baseline-shift:baseline;color:black;fill:#8d751a;fill-opacity:1;fill-rule:nonzero;stroke:none;stroke-width:1;marker:none;visibility:visible;display:inline;overflow:visible;enable-background:accumulate;font-family:Sans;-inkscape-font-specification:Sans" d="m 2,32 c -1.00098274,0 -2,0.999017 -2,2 l 0,12 c 0,1.000983 0.99901726,2 2,2 l 9,0 5,-5 0,-9 c 0,-1.000983 -0.999017,-2 -2,-2 z" id="path4235" inkscape:connector-curvature="0" sodipodi:nodetypes="ssssccsss" />
        <path style="font-size:medium;font-style:normal;font-variant:normal;font-weight:normal;font-stretch:normal;text-indent:0;text-align:start;text-decoration:none;line-height:normal;letter-spacing:normal;word-spacing:normal;text-transform:none;direction:ltr;block-progression:tb;writing-mode:lr-tb;text-anchor:start;baseline-shift:baseline;color:black;fill:url(#linearGradient3821);fill-opacity:1;fill-rule:nonzero;stroke:none;stroke-width:1;marker:none;visibility:visible;display:inline;overflow:visible;enable-background:accumulate;font-family:Sans;-inkscape-font-specification:Sans" d="m 2,33 12,0 c 0.614286,0 0.993693,0.385746 1,1 l 0,8 -5,5 -8,0 C 1.385714,47 1,46.614286 1,46 L 1,34 c 0,-0.614286 0.385714,-1 1,-1 z" id="rect3874" inkscape:connector-curvature="0" sodipodi:nodetypes="sssccssss" />
        <path style="fill:none;stroke:url(#linearGradient3818);stroke-width:1;stroke-miterlimit:4;stroke-opacity:1" d="m 2.5,33.5 11,0 c 0.964482,0 1,0.01479 1,1 l 0,7 -5,5 -7,0 c -0.3727006,0 -1,-0.627298 -1,-1 l 0,-10.97768 C 1.5,33.633551 1.4697645,33.5 2.5,33.5 z" id="rect4513" inkscape:connector-curvature="0" sodipodi:nodetypes="sssccssss" />
        <path inkscape:connector-curvature="0" style="font-size:medium;font-style:normal;font-variant:normal;font-weight:normal;font-stretch:normal;text-indent:0;text-align:start;text-decoration:none;line-height:normal;letter-spacing:normal;word-spacing:normal;text-transform:none;direction:ltr;block-progression:tb;writing-mode:lr-tb;text-anchor:start;baseline-shift:baseline;color:black;fill:#8d751a;fill-opacity:1;stroke:none;stroke-width:1.03094733;marker:none;visibility:visible;display:inline;overflow:visible;enable-background:accumulate;font-family:Sans;-inkscape-font-specification:Sans" d="m 11,48 -2,0 0,-4 c 0,-1.500507 0.550057,-2 2,-2 l 5,0 0,1 z" id="path4102" sodipodi:nodetypes="ccccccc" />
        <path inkscape:connector-curvature="0" style="font-size:medium;font-style:normal;font-variant:normal;font-weight:normal;font-stretch:normal;text-indent:0;text-align:start;text-decoration:none;line-height:normal;letter-spacing:normal;word-spacing:normal;text-transform:none;direction:ltr;block-progression:tb;writing-mode:lr-tb;text-anchor:start;baseline-shift:baseline;color:black;fill:#f3e6b2;fill-opacity:1;stroke:none;stroke-width:1.03094733;marker:none;visibility:visible;display:inline;overflow:visible;enable-background:accumulate;font-family:Sans;-inkscape-font-specification:Sans" d="m 10,47 4,-4 -3,0 c -0.653323,0 -1,0.38684 -1,1 z" id="path4075" sodipodi:nodetypes="ccssc" />
        <path style="font-size:15.03956699px;font-style:normal;font-variant:normal;font-weight:normal;font-stretch:normal;text-indent:0;text-align:start;text-decoration:none;line-height:125%;letter-spacing:0px;word-spacing:0px;text-transform:none;direction:ltr;block-progression:tb;writing-mode:lr-tb;text-anchor:start;baseline-shift:baseline;color:black;fill:#8d751a;fill-opacity:1;fill-rule:nonzero;stroke:none;stroke-width:0.5;marker:none;visibility:visible;display:inline;overflow:visible;enable-background:accumulate;font-family:Stylograph;-inkscape-font-specification:Stylograph" d="m 9.0680628,35.009035 c -0.1466226,0.04542 -0.2255708,0.182747 -0.2513089,0.297572 -0.016506,0.09111 -0.031414,0.20655 -0.031414,0.330636 l 0,0.198381 0,0.03306 c 0.00342,0.05801 0,0.105718 0,0.165317 0,0.218595 0.00824,0.44255 0.031414,0.661272 0.018607,0.150068 0.041858,0.27564 0.062827,0.396763 -0.054222,0.0563 -0.1043003,0.110871 -0.1570681,0.165318 l 0,0.03306 c -0.1193114,0.131914 -0.2198953,0.26517 -0.2198953,0.46289 0,0.08224 0.045236,0.202036 0.1570681,0.264509 0.1118294,0.06248 0.1876252,0.0528 0.2513089,0.03306 0.084611,-0.02625 0.096814,-0.04244 0.1256544,-0.06613 0.02884,-0.02369 0.06149,-0.06706 0.094241,-0.09919 0.015491,0.04359 0.013882,0.08831 0.031414,0.132255 0.077765,0.199917 0.1469584,0.340962 0.2513089,0.46289 0.1043505,0.121927 0.2963635,0.219471 0.4712042,0.165317 0.09603,-0.02973 0.171484,-0.07133 0.251309,-0.132254 l 0,-0.03306 c 0.08007,-0.07662 0.157066,-0.188782 0.157068,-0.297573 -4e-6,-0.127194 -0.09198,-0.231113 -0.157068,-0.264508 -0.06509,-0.03339 -0.105884,-0.02788 -0.1570682,-0.03306 -0.0112,-0.0012 -0.022246,0.0028 -0.031414,0 -0.031906,-0.02129 -0.040244,-0.03767 -0.031414,-0.03306 -0.022059,-0.04127 -0.037029,-0.0977 -0.062827,-0.165318 -0.037515,-0.100249 -0.037184,-0.1763 -0.062827,-0.264509 0.048452,-0.02698 0.097357,-0.0513 0.1256545,-0.06613 0.034188,-0.01791 0.071352,-0.04548 0.031414,-0.03306 -0.036138,0.01119 4.835e-4,0.01061 0.062827,0 0.06234,-0.01061 0.167321,-0.01521 0.282723,-0.03306 0.09743,-0.01494 0.15437,-0.04582 0.219895,-0.06613 0.05844,-0.0181 0.105671,-0.03764 0.157068,-0.06613 0.119667,-0.06304 0.18848,-0.219197 0.188482,-0.330636 -3e-6,-0.08725 -0.04135,-0.183259 -0.09424,-0.231445 -0.0529,-0.04818 -0.114643,-0.05384 -0.157068,-0.06613 -0.08485,-0.02458 -0.15791,-0.03501 -0.251309,-0.03306 -0.190305,0.004 -0.3813691,0.03245 -0.5968584,0.09919 -0.045899,0.01421 -0.1052612,0.04193 -0.1570681,0.06613 -0.012133,-0.07409 -0.02112,-0.159922 -0.031414,-0.231445 -0.024859,-0.172691 -0.031414,-0.30032 -0.031414,-0.363699 0,-0.279794 -0.010263,-0.494268 -0.031414,-0.661271 -0.011922,-0.09414 -0.029453,-0.169006 -0.094241,-0.264509 -0.064787,-0.0955 -0.2323029,-0.167318 -0.3455498,-0.132254 z m 2.8586392,0.92578 c -0.07844,-0.0042 -0.169835,0.0078 -0.251309,0.03306 -0.207063,0.06413 -0.411417,0.231661 -0.565445,0.429827 -0.158296,0.203649 -0.251309,0.443234 -0.251309,0.694335 0,0.09212 0.01768,0.179354 0.03141,0.264508 0.0017,0.01059 -0.0021,0.02256 0,0.03306 -0.01858,0.01456 -0.0094,0.01589 -0.03141,0.03306 -0.03671,0.02768 -0.05798,0.04201 -0.09424,0.06613 -0.120761,0.06115 -0.157068,0.212193 -0.157068,0.297572 0,0.09142 0.02866,0.188698 0.09424,0.264508 l 0.03141,0.03306 c 0.05255,0.04234 0.144799,0.07106 0.219896,0.06613 0.06383,-0.0042 0.1167,-0.03974 0.157068,-0.06613 0.0084,-0.0056 0.02312,0.0056 0.03141,0 0.04813,-0.03256 0.08236,-0.06464 0.125655,-0.09919 l 0.03141,-0.03306 c 0.0086,0.004 0.02279,-0.0037 0.03141,0 0.05096,0.02166 0.10266,0.0564 0.157068,0.06613 0.185494,0.03573 0.3815,5.65e-4 0.596859,-0.06613 0.238666,-0.07391 0.441243,-0.12618 0.596858,-0.198381 0.09424,0.06613 1.026351,-0.628932 1.225131,-0.727398 0.04261,-0.05251 0.09423,-0.133927 0.09424,-0.231445 0,-0.06781 -0.04036,-0.172096 -0.09424,-0.231445 -0.05388,-0.05935 -0.108316,-0.08784 -0.157068,-0.09919 -0.11636,-0.0271 -0.206592,0.0299 -0.282722,0.06613 -0.0081,0.0038 -0.02342,-0.0039 -0.03141,0 -0.07222,0.03524 -0.154133,0.07504 -0.251309,0.132254 -0.06955,0.04041 -0.192329,0.120156 -0.376963,0.231445 -0.177086,0.10427 -0.31617,0.171459 -0.376964,0.198382 -0.0467,0.01861 -0.177806,0.08847 -0.314136,0.132254 0.189582,-0.214752 0.345548,-0.408706 0.34555,-0.661271 -1e-6,-0.216631 -0.12906,-0.457974 -0.314136,-0.562081 -0.07598,-0.0414 -0.141456,-0.06191 -0.219895,-0.06613 z m -0.125655,0.529017 c 0.07286,-0.02257 0.100734,-0.01358 0.125655,0 0.02126,0.01196 0.03141,0.0062 0.03141,0.09919 0,-0.02291 -0.04468,0.134837 -0.219895,0.330635 -0.06743,0.07477 -0.193338,0.180423 -0.34555,0.330636 -0.0056,-0.0442 -0.03141,-0.07874 -0.03141,-0.132254 0,-0.123227 0.05743,-0.235513 0.157068,-0.3637 0.111263,-0.143145 0.202382,-0.239626 0.282722,-0.264508 z M 7.0890052,37.65412 c -0.05295,-0.0036 -0.090615,0.0125 -0.157068,0.03306 -0.087415,0.02707 -0.1358043,0.05927 -0.2198953,0.132254 -0.013339,0.01064 -0.020517,0.02091 -0.031414,0.03306 -0.030238,-0.01133 -0.06905,-0.03104 -0.094241,-0.03306 -0.086118,-0.007 -0.1437587,0.0095 -0.2198953,0.03306 -0.038068,0.01179 -0.080952,0.01526 -0.1256544,0.03306 -0.1623566,0.05029 -0.2553379,0.153385 -0.3769634,0.297572 -0.1288199,0.15272 -0.2198952,0.329842 -0.2198952,0.529018 0,0.170596 0.049659,0.334402 0.157068,0.46289 0.1074054,0.128487 0.2440551,0.215076 0.408377,0.264508 0.3212381,0.09395 0.6740115,0.07925 1.0366492,-0.03306 0.2690674,-0.08333 0.5267746,-0.21717 0.7225131,-0.396763 0.2034114,-0.183952 0.3141311,-0.433767 0.3141361,-0.694335 -6e-6,-0.173957 -0.080248,-0.342867 -0.2198953,-0.429827 l -0.031414,0 c -0.099006,-0.05961 -0.2034335,-0.09778 -0.3455497,-0.132254 -0.00945,-0.0024 -0.021904,0.0023 -0.031414,0 -0.1170879,-0.0286 -0.2450041,-0.05909 -0.3769634,-0.06613 -0.067297,-0.0062 -0.1355319,-0.02948 -0.1884817,-0.03306 z m -0.3455497,0.760462 c 0.084611,0.04926 0.1538644,0.03388 0.2198953,0.03306 l 0.031414,0 c 0.027996,-0.0023 0.098141,9.56e-4 0.1884817,0 0.015058,-1.6e-4 0.014948,7.3e-5 0.031414,0 0.092381,0.01354 0.157247,0.0168 0.2198953,0.03306 -0.076629,0.06105 -0.1692113,0.120432 -0.3141362,0.165317 -0.2603318,0.08059 -0.4487592,0.09945 -0.5968586,0.03306 -0.050312,-0.02254 -0.075001,-0.05083 -0.094241,-0.06613 0.010786,-0.0091 0.029494,-0.03247 0.031414,-0.03306 0.074759,-0.02315 0.1553642,-0.06466 0.2198953,-0.09919 0.023422,-0.0138 0.040119,-0.04436 0.062827,-0.06613 z M 4.104712,38.9436 c -0.048092,-0.0025 -0.102534,0.01618 -0.157068,0.03306 -0.1502164,0.04652 -0.2439858,0.136726 -0.3769634,0.264509 -0.057811,0.05384 -0.1328529,0.173835 -0.3141361,0.363699 -0.1868492,0.194761 -0.290684,0.272097 -0.3141361,0.297572 -0.02112,0.01848 -0.016255,0.0228 -0.031414,0.03306 -0.012907,-0.01602 -0.038822,-0.01823 -0.062827,-0.06613 -0.064767,-0.125453 -0.089275,-0.220774 -0.094241,-0.264508 -0.00674,-0.06142 -0.012726,-0.107194 -0.031414,-0.165318 -0.01532,-0.04764 -0.054936,-0.10906 -0.1256545,-0.165318 -0.00834,-0.007 -0.021944,0.0058 -0.031414,0 -0.088993,-0.05504 -0.2022695,-0.100873 -0.2827225,-0.06613 -0.075151,0.03143 -0.1125622,0.106511 -0.157068,0.165318 -0.00895,0.01176 -0.023724,0.02102 -0.031414,0.03306 C 2.0565948,39.462258 2,39.530882 2,39.637934 c -10e-7,0.269398 0.07875,0.528429 0.2198953,0.760463 0.082912,0.136307 0.1809796,0.261694 0.3141361,0.330635 0.1331565,0.06894 0.2990868,0.07664 0.4397906,0.03306 0.1777528,-0.05505 0.3444208,-0.171841 0.5026178,-0.330636 l 0,-0.03306 c 0.095005,-0.104376 0.1840104,-0.192004 0.2827225,-0.297573 0.071603,-0.07463 0.1418468,-0.121589 0.1884817,-0.165317 0.081283,-0.0764 0.1149255,-0.08919 0.1256544,-0.09919 0.0807,0.05924 0.1309018,0.100883 0.1884817,0.132254 l 0.1256545,0.09919 c 0.1572168,0.0992 0.3583554,0.12053 0.5340314,0.06613 0.1241958,-0.03846 0.2248068,-0.07455 0.3141361,-0.132254 0.089325,-0.05771 0.2198882,-0.187936 0.2198953,-0.3637 0,-0.06894 -0.04228,-0.167702 -0.1256545,-0.231444 -0.072367,-0.05532 -0.1367442,-0.0694 -0.1884816,-0.06613 -0.00784,4.98e-4 -0.024447,-8.01e-4 -0.031414,0 -0.066245,0.0031 -0.1242069,0.01316 -0.1884816,0.03306 l -0.062827,0.03306 c -0.025754,-0.01467 -0.081927,-0.04906 -0.157068,-0.09919 l -0.031414,-0.03306 C 4.6348227,39.256757 4.55675,39.204828 4.481675,39.141981 4.3645721,39.047975 4.2489881,38.951217 4.1047116,38.9436 z m 8.544503,0.03306 c -0.09165,-0.0025 -0.169975,0.0091 -0.282723,0.03306 -0.203352,0.04734 -0.506568,0.113943 -0.879581,0.231445 l -0.659686,0.231445 c -0.204187,0.06954 -0.390497,0.133394 -0.596859,0.198381 -0.6739889,0.2123 -1.3581201,0.447315 -2.0418843,0.694335 -0.6800962,0.251054 -1.2763627,0.466916 -1.7591623,0.661271 l -0.8795812,0.396763 c -0.4941316,0.203373 -1.0058578,0.436409 -1.539267,0.694335 -0.627269,0.300765 -1.104194,0.556914 -1.4136126,0.760462 -0.1547097,0.101773 -0.2559028,0.165809 -0.3455497,0.264509 -0.044824,0.04935 -0.096563,0.122117 -0.1256544,0.198381 -0.029092,0.07626 -0.014606,0.201613 0.031414,0.297572 0.073161,0.152557 0.1782795,0.281359 0.3455497,0.330636 0.1711916,0.05885 0.3180435,0.02506 0.5026178,-0.03306 0.1679477,-0.05291 0.3050076,-0.200197 0.3769634,-0.363699 0.041838,-0.09508 0.083827,-0.15621 0.094241,-0.165318 0.024417,-0.02136 0.1354002,-0.101476 0.3141361,-0.198381 0.1787359,-0.0969 0.4160881,-0.217694 0.7225131,-0.363699 0.4970689,-0.235374 0.9286115,-0.416469 1.3507853,-0.595145 l 0,0.03306 c 0.6458539,-0.25664 2.4156998,-1.0086 2.9842932,-1.223352 0.5839404,-0.220552 1.0077367,-0.374612 1.2879589,-0.46289 0.880924,-0.277483 1.560296,-0.516014 2.041884,-0.694335 0.244168,-0.09041 0.431097,-0.151869 0.565445,-0.231445 0.06717,-0.03978 0.132479,-0.09905 0.188482,-0.165318 0.02801,-0.03314 0.04537,-0.06649 0.06283,-0.132254 0.01746,-0.06577 0.03188,-0.164971 0,-0.231445 -0.04173,-0.08697 -0.132264,-0.110615 -0.188481,-0.132254 -0.05621,-0.02164 -0.111244,-0.03177 -0.157068,-0.03306 z" id="path3114" inkscape:connector-curvature="0" />
    </g>
</svg>
