<?xml version="1.0" encoding="UTF-8" standalone="no"?>
<svg xmlns:dc="http://purl.org/dc/elements/1.1/" xmlns:cc="http://creativecommons.org/ns#" xmlns:rdf="http://www.w3.org/1999/02/22-rdf-syntax-ns#" xmlns:svg="http://www.w3.org/2000/svg" xmlns="http://www.w3.org/2000/svg" xmlns:sodipodi="http://sodipodi.sourceforge.net/DTD/sodipodi-0.dtd" xmlns:inkscape="http://www.inkscape.org/namespaces/inkscape" viewBox="0 0 16 16" id="svg3224" version="1.1" inkscape:version="0.48.4 r9939" width="100%" height="100%" sodipodi:docname="xscreensaver.svg">
    <metadata id="metadata3292">
        <rdf:RDF>
            <cc:Work rdf:about="">
                <dc:format>image/svg+xml</dc:format>
                <dc:type rdf:resource="http://purl.org/dc/dcmitype/StillImage" />
            </cc:Work>
        </rdf:RDF>
    </metadata>
    <sodipodi:namedview pagecolor="#ffffff" bordercolor="#666666" borderopacity="1" objecttolerance="10" gridtolerance="10" guidetolerance="10" inkscape:pageopacity="0" inkscape:pageshadow="2" inkscape:window-width="1280" inkscape:window-height="998" id="namedview3290" showgrid="true" inkscape:zoom="20.85965" inkscape:cx="16.077049" inkscape:cy="11.02851" inkscape:window-x="0" inkscape:window-y="0" inkscape:window-maximized="1" inkscape:current-layer="svg3224" inkscape:snap-bbox="true">
        <inkscape:grid type="xygrid" id="grid3007" />
    </sodipodi:namedview>
    <defs id="defs3226">
        <linearGradient gradientUnits="userSpaceOnUse" id="linearGradient4258" x1="9.22739" x2="7.27984" y1="11.06376" y2=".94943">
            <stop offset="0" stop-color="#5489a7" id="stop3237" />
            <stop offset="1" stop-color="#242e4f" id="stop3239" />
        </linearGradient>
        <radialGradient cx="8" cy="8.1999998" gradientUnits="userSpaceOnUse" id="radialGradient4281-3-4" r="7">
            <stop offset="0" stop-color="#2286be" id="stop3274-4" />
            <stop offset="1" stop-color="#152f49" id="stop3276-2" />
        </radialGradient>
        <linearGradient gradientUnits="userSpaceOnUse" id="linearGradient4302-3" x2="0" y1="11.88722" y2="15.45103">
            <stop offset="0" stop-color="#787878" id="stop3242-3" />
            <stop offset=".35" stop-color="#bebebe" id="stop3244-4" />
            <stop offset=".494" stop-color="#c8c8c8" id="stop3246-8" />
            <stop offset=".589" stop-color="#e6e6e6" id="stop3248-6" />
            <stop offset="1" stop-color="#8c8c8c" id="stop3250-3" />
        </linearGradient>
        <linearGradient gradientUnits="userSpaceOnUse" id="linearGradient4305-8" x2="0" y1="11.83589" y2="15.44184">
            <stop offset="0" stop-color="#464646" id="stop3253-3" />
            <stop offset=".35" stop-color="#8c8c8c" id="stop3255-0" />
            <stop offset=".51" stop-color="#969696" id="stop3257-9" />
            <stop offset=".62" stop-color="#aaa" id="stop3259-0" />
            <stop offset="1" stop-color="#646464" id="stop3261-1" />
        </linearGradient>
        <linearGradient x1="45.447727" y1="92.539597" x2="45.447727" y2="7.0165396" id="ButtonShadow" gradientUnits="userSpaceOnUse" gradientTransform="scale(1.0058652,0.994169)">
            <stop id="stop3750" style="stop-color:#000000;stop-opacity:1" offset="0" />
            <stop id="stop3752" style="stop-color:#000000;stop-opacity:0.58823532" offset="1" />
        </linearGradient>
        <filter color-interpolation-filters="sRGB" id="filter3174">
            <feGaussianBlur id="feGaussianBlur3176" stdDeviation="1.71" />
        </filter>
    </defs>
    <path id="path3278" d="m 4.74971,13.50713 c -0.33272,0.05057 -0.33548,1.99374 0,1.99374 h 6.50055 c 0.33548,0 0.3328,-1.94381 0,-1.99374 z" style="color:#000000;fill:url(#linearGradient4302-3);fill-opacity:1;fill-rule:nonzero;stroke:url(#linearGradient4305-8);stroke-width:0.99826998000000000;stroke-linecap:round;stroke-linejoin:round;stroke-miterlimit:4;stroke-opacity:1;stroke-dasharray:none;stroke-dashoffset:0.50000000000000000;marker:none;visibility:visible;display:inline;overflow:visible;enable-background:accumulate" />
    <path d="m 1.5,1 h 13 A 0.5,0.5 0 0 1 15,1.5 v 11 A 0.5,0.5 0 0 1 14.5,13 H 1.5 A 0.5,0.5 0 0 1 1,12.5 V 1.5 A 0.5,0.5 0 0 1 1.5,1" id="path3284" style="color:#000000;fill:url(#radialGradient4281-3-4);fill-opacity:1;fill-rule:nonzero;stroke-width:1;stroke-linecap:butt;stroke-linejoin:miter;stroke-miterlimit:4;stroke-opacity:1;stroke-dasharray:none;stroke-dashoffset:0;marker:none;visibility:visible;display:inline;overflow:visible;enable-background:accumulate" />
    <path d="m15,3c-.69999,1.26195-2.84217,4.40293-6.28906,3.08372 2.95514,1.51371 5.50336-.72645 6.28906-1.53488v-1.54884zm-12.61094.86512c-.61917-.00246-1.07736.09367-1.38906.19535v.92093c.96958-.5063 3.20026-1.11403 6.95625.86512-2.49295-1.56931-4.33906-1.97648-5.56719-1.9814zm.92969,1.03256c-1.52988.00999-2.30781.47442-2.30781.47442l.01094,2.17674c0,0 2.6811-3.36177 6.94531-1.26977 3.5505,1.74186 6.23208,1.24869 7.03281,1.03256v-2.34419c-.83696.85738-3.35515,2.91623-6.94531,1.14419-1.94467-.95986-3.54604-1.22172-4.73594-1.21395zm2.13281,1.0186c-2.33011-.00317-4.15958,1.66092-4.45156,1.93953v1.14419c.30154-.52742 2.54796-4.1605 6.48594-2.62326-.69922-.32584-1.38643-.45958-2.03438-.46047z" fill="url(#linearGradient4258)" opacity=".403" id="path3286" />
    <rect style="opacity:0.75;color:black;fill:white;fill-opacity:1;fill-rule:nonzero;stroke:none;stroke-width:1;marker:none;visibility:visible;display:inline;overflow:visible;enable-background:accumulate" id="rect3009" width="14" height="2" x="1" y="11" rx="0.49999997" ry="0.49999997" />
    <rect style="color:black;fill:none;stroke:#3c3c3c;stroke-width:1;stroke-linecap:round;stroke-linejoin:round;stroke-miterlimit:4;stroke-opacity:1;stroke-dasharray:none;stroke-dashoffset:0;marker:none;visibility:visible;display:inline;overflow:visible;enable-background:accumulate" id="rect3781" width="15" height="13" x="0.5" y="0.49999997" ry="0.99999982" rx="0.99999994" />
    <g id="layer2" style="display:none" transform="translate(24.204492,-207.6879)">
        <rect width="86" height="85" rx="6" ry="6" x="5" y="7" id="rect3745" style="opacity:0.9;fill:url(#ButtonShadow);fill-opacity:1;fill-rule:nonzero;stroke:none;filter:url(#filter3174)" />
    </g>
    <g id="layer4" transform="translate(24.204492,-207.6879)" />
    <path style="opacity:0.88185658;color:black;fill:white;fill-opacity:1;fill-rule:nonzero;stroke:none;stroke-width:1;marker:none;visibility:visible;display:inline;overflow:visible;enable-background:accumulate" d="m 3.7142143,4.9885691 c -0.9522857,0.9176706 -0.9522857,2.4055092 0,3.3231783 0.9522867,0.9176702 2.4962474,0.9176702 3.4485332,0 C 7.3652944,8.1165633 7.5236151,7.8947799 7.6400002,7.6589812 6.7529745,8.0196392 5.6839463,7.8510154 4.961229,7.1545699 4.2130043,6.4335426 4.0641168,5.3634563 4.4916742,4.4915756 4.2102173,4.606131 3.9435641,4.7675582 3.7142143,4.9885691 z" id="path3025" inkscape:connector-curvature="0" />
    <path sodipodi:type="star" style="opacity:0.88185658;color:black;fill:white;fill-opacity:1;fill-rule:nonzero;stroke:none;stroke-width:1;marker:none;visibility:visible;display:inline;overflow:visible;enable-background:accumulate" id="path3800" sodipodi:sides="4" sodipodi:cx="16" sodipodi:cy="18" sodipodi:r1="5" sodipodi:r2="1.5" sodipodi:arg1="1.5707963" sodipodi:arg2="2.3561945" inkscape:flatsided="false" inkscape:rounded="0" inkscape:randomized="0" d="M 16,23 14.93934,19.06066 11,18 14.93934,16.93934 16,13 17.06066,16.93934 21,18 17.06066,19.06066 z" transform="matrix(0.31706793,0,0,0.3080768,6.3415735,2.5683347)" />
    <path sodipodi:type="star" style="opacity:0.84810127;color:black;fill:white;fill-opacity:1;fill-rule:nonzero;stroke:none;stroke-width:1;marker:none;visibility:visible;display:inline;overflow:visible;enable-background:accumulate" id="path3804" sodipodi:sides="4" sodipodi:cx="16" sodipodi:cy="18" sodipodi:r1="5" sodipodi:r2="1.5" sodipodi:arg1="1.5707963" sodipodi:arg2="2.3561945" inkscape:flatsided="false" inkscape:rounded="0" inkscape:randomized="0" d="M 16,23 14.93934,19.06066 11,18 14.93934,16.93934 16,13 17.06066,16.93934 21,18 17.06066,19.06066 z" transform="matrix(0.17290304,0,0,0.16800001,3.0980666,1.8159999)" />
    <path transform="matrix(0.37533332,0,0,0.36468998,2.8713335,-1.3878695)" d="M 16,23 14.93934,19.06066 11,18 14.93934,16.93934 16,13 17.06066,16.93934 21,18 17.06066,19.06066 z" inkscape:randomized="0" inkscape:rounded="0" inkscape:flatsided="false" sodipodi:arg2="2.3561945" sodipodi:arg1="1.5707963" sodipodi:r2="1.5" sodipodi:r1="5" sodipodi:cy="18" sodipodi:cx="16" sodipodi:sides="4" id="path3802" style="opacity:0.88185658;color:black;fill:white;fill-opacity:1;fill-rule:nonzero;stroke:none;stroke-width:1;marker:none;visibility:visible;display:inline;overflow:visible;enable-background:accumulate" sodipodi:type="star" />
    <path sodipodi:type="star" style="opacity:0.88185658;color:black;fill:white;fill-opacity:1;fill-rule:nonzero;stroke:none;stroke-width:1;marker:none;visibility:visible;display:inline;overflow:visible;enable-background:accumulate" id="path3808" sodipodi:sides="4" sodipodi:cx="16" sodipodi:cy="18" sodipodi:r1="5" sodipodi:r2="1.5" sodipodi:arg1="1.5707963" sodipodi:arg2="2.3561945" inkscape:flatsided="false" inkscape:rounded="0" inkscape:randomized="0" d="M 16,23 14.93934,19.06066 11,18 14.93934,16.93934 16,13 17.06066,16.93934 21,18 17.06066,19.06066 z" transform="matrix(0.13183435,0,0,0.12809592,2.2314786,0.33475308)" />
    <path transform="matrix(0.34849436,0,0,0.33861209,6.6816183,-2.4019572)" d="M 16,23 14.93934,19.06066 11,18 14.93934,16.93934 16,13 17.06066,16.93934 21,18 17.06066,19.06066 z" inkscape:randomized="0" inkscape:rounded="0" inkscape:flatsided="false" sodipodi:arg2="2.3561945" sodipodi:arg1="1.5707963" sodipodi:r2="1.5" sodipodi:r1="5" sodipodi:cy="18" sodipodi:cx="16" sodipodi:sides="4" id="path3810" style="opacity:0.88185658;color:black;fill:white;fill-opacity:1;fill-rule:nonzero;stroke:none;stroke-width:1;marker:none;visibility:visible;display:inline;overflow:visible;enable-background:accumulate" sodipodi:type="star" />
</svg>
