<?xml version="1.0" encoding="UTF-8" standalone="no"?>
<!-- Created with Inkscape (http://www.inkscape.org/) -->

<svg
   xmlns:dc="http://purl.org/dc/elements/1.1/"
   xmlns:cc="http://creativecommons.org/ns#"
   xmlns:rdf="http://www.w3.org/1999/02/22-rdf-syntax-ns#"
   xmlns:svg="http://www.w3.org/2000/svg"
   xmlns="http://www.w3.org/2000/svg"
   xmlns:xlink="http://www.w3.org/1999/xlink"
   xmlns:sodipodi="http://sodipodi.sourceforge.net/DTD/sodipodi-0.dtd"
   xmlns:inkscape="http://www.inkscape.org/namespaces/inkscape"
   width="32"
   height="32"
   viewBox="0 0 32 32.000001"
   id="svg4454"
   version="1.1"
   inkscape:version="0.91 r13725"
   sodipodi:docname="printer.svg">
  <defs
     id="defs4456">
    <radialGradient
       inkscape:collect="always"
       xlink:href="#linearGradient5060-29"
       id="radialGradient4030"
       gradientUnits="userSpaceOnUse"
       gradientTransform="matrix(0.03825926,0,0,0.02058824,2.179541,35.451371)"
       cx="605.71429"
       cy="486.64789"
       fx="605.71429"
       fy="486.64789"
       r="117.14286" />
    <linearGradient
       id="linearGradient5060-29">
      <stop
         offset="0"
         style="stop-color:#000000;stop-opacity:1"
         id="stop5062-9" />
      <stop
         offset="1"
         style="stop-color:#000000;stop-opacity:0"
         id="stop5064-08" />
    </linearGradient>
    <linearGradient
       inkscape:collect="always"
       xlink:href="#linearGradient5048-8"
       id="linearGradient4032"
       gradientUnits="userSpaceOnUse"
       gradientTransform="matrix(0.04142012,0,0,0.02058824,1.0295858,35.451371)"
       x1="302.85715"
       y1="366.64789"
       x2="302.85715"
       y2="609.50507" />
    <linearGradient
       id="linearGradient5048-8">
      <stop
         offset="0"
         style="stop-color:#000000;stop-opacity:0"
         id="stop5050-4" />
      <stop
         offset="0.5"
         style="stop-color:#000000;stop-opacity:1"
         id="stop5056-7" />
      <stop
         offset="1"
         style="stop-color:#000000;stop-opacity:0"
         id="stop5052-0-1" />
    </linearGradient>
    <radialGradient
       inkscape:collect="always"
       xlink:href="#linearGradient5060-29"
       id="radialGradient4034"
       gradientUnits="userSpaceOnUse"
       gradientTransform="matrix(-0.03825926,0,0,0.02058824,29.820465,35.451371)"
       cx="605.71429"
       cy="486.64789"
       fx="605.71429"
       fy="486.64789"
       r="117.14286" />
    <linearGradient
       gradientTransform="matrix(0.65827906,0,0,0.81321801,0.6194747,1012.1662)"
       gradientUnits="userSpaceOnUse"
       id="linearGradient4576-2-8"
       x1="14.2364"
       x2="29.736401"
       xlink:href="#linearGradient3774-1-0"
       y1="45.981899"
       y2="40.123001" />
    <linearGradient
       id="linearGradient3774-1-0">
      <stop
         offset="0"
         stop-color="#b3b3b3"
         id="stop3520" />
      <stop
         offset="1"
         stop-color="#e7e7e7"
         id="stop3522" />
    </linearGradient>
    <linearGradient
       gradientUnits="userSpaceOnUse"
       id="linearGradient5534"
       x2="0"
       xlink:href="#linearGradient4050"
       y1="37.253502"
       y2="42.936401"
       gradientTransform="matrix(0.64080184,0,0,0.66362675,0.620724,1019.9904)" />
    <linearGradient
       id="linearGradient4050">
      <stop
         offset="0"
         stop-color="#fff"
         stop-opacity=".669"
         id="stop3495" />
      <stop
         offset="1"
         stop-color="#fff"
         stop-opacity="0"
         id="stop3497" />
    </linearGradient>
    <linearGradient
       gradientUnits="userSpaceOnUse"
       id="linearGradient4535"
       x2="0"
       y1="38.6562"
       y2="42.7812"
       gradientTransform="matrix(0.49999994,0,0,0.66666663,6.7500023,1019.5289)">
      <stop
         offset="0"
         stop-color="#808080"
         id="stop3515" />
      <stop
         offset="1"
         stop-color="#fff"
         id="stop3517" />
    </linearGradient>
    <linearGradient
       gradientUnits="userSpaceOnUse"
       id="linearGradient5621-7"
       x1="17.391701"
       x2="29.636"
       y1="43.8284"
       y2="37.287701"
       gradientTransform="matrix(0.66666667,0,0,0.62499473,0,1021.2373)">
      <stop
         offset="0"
         stop-opacity=".706"
         id="stop3545-1" />
      <stop
         offset="1"
         stop-opacity=".353"
         id="stop3547-1" />
    </linearGradient>
    <linearGradient
       gradientTransform="matrix(0.65827906,0,0,0.98664107,0.6194747,1004.3891)"
       gradientUnits="userSpaceOnUse"
       id="linearGradient4576-2"
       x1="19.757586"
       x2="28.486401"
       xlink:href="#linearGradient3774-1-0"
       y1="23.247763"
       y2="28.2652" />
    <linearGradient
       gradientUnits="userSpaceOnUse"
       id="linearGradient4523"
       x2="0"
       xlink:href="#linearGradient4050"
       y1="11.2534"
       y2="33.3442"
       gradientTransform="matrix(0.64080184,0,0,0.67968867,0.620724,1019.7293)" />
    <filter
       height="1.2874"
       id="filter5517-9"
       width="1.227"
       x="-0.1135"
       y="-0.1437"
       style="color-interpolation-filters:sRGB">
      <feGaussianBlur
         stdDeviation="1.407"
         id="feGaussianBlur3492-1" />
    </filter>
    <linearGradient
       gradientTransform="matrix(0,-1.2148867,-1.062303,0,45.476305,1008.3156)"
       gradientUnits="userSpaceOnUse"
       id="linearGradient3120"
       x1="-22.9608"
       x2="-12.1495">
      <stop
         offset="0"
         stop-color="#fff"
         id="stop3510" />
      <stop
         offset="1"
         stop-color="#cdcdcd"
         id="stop3512" />
    </linearGradient>
    <linearGradient
       gradientUnits="userSpaceOnUse"
       id="linearGradient5527"
       x2="0"
       y1="3.1575999"
       y2="23.709"
       gradientTransform="matrix(0.6551724,0,0,0.66666668,0.2758622,1020.5289)">
      <stop
         offset="0"
         stop-color="#757575"
         id="stop3525" />
      <stop
         offset="1"
         stop-color="#292929"
         id="stop3527" />
    </linearGradient>
    <linearGradient
       gradientUnits="userSpaceOnUse"
       id="linearGradient3104"
       x1="4.4031"
       x2="23.474001"
       gradientTransform="matrix(0,0.62857173,-0.62962778,0,0.8889083,1021.0622)">
      <stop
         offset="0"
         stop-color="#fff"
         stop-opacity=".502"
         id="stop3505" />
      <stop
         offset="1"
         stop-color="#fff"
         stop-opacity="0"
         id="stop3507" />
    </linearGradient>
    <linearGradient
       inkscape:collect="always"
       xlink:href="#linearGradient5582"
       id="linearGradient4254"
       gradientUnits="userSpaceOnUse"
       gradientTransform="matrix(0.63621323,0,0,0.73170658,1.0963237,1021.7037)"
       y1="4.9837999"
       x2="0"
       y2="19.625" />
    <linearGradient
       gradientUnits="userSpaceOnUse"
       id="linearGradient5582"
       x2="0"
       y1="4.9837999"
       y2="19.625">
      <stop
         offset="0"
         stop-color="#999"
         id="stop3530" />
      <stop
         offset="1"
         stop-color="#727272"
         id="stop3532" />
    </linearGradient>
    <linearGradient
       inkscape:collect="always"
       xlink:href="#linearGradient5582"
       id="linearGradient4256"
       gradientUnits="userSpaceOnUse"
       gradientTransform="matrix(0.63621323,0,0,0.54127498,1.0963237,1023.4907)"
       y1="4.9837999"
       x2="0"
       y2="19.625" />
    <linearGradient
       gradientUnits="userSpaceOnUse"
       id="linearGradient4401"
       x2="0"
       y1="4.9837999"
       y2="19.625">
      <stop
         offset="0"
         stop-color="#999"
         id="stop4403" />
      <stop
         offset="1"
         stop-color="#727272"
         id="stop4405" />
    </linearGradient>
    <linearGradient
       inkscape:collect="always"
       xlink:href="#linearGradient5582"
       id="linearGradient3948"
       gradientUnits="userSpaceOnUse"
       y1="4.9837999"
       x2="0"
       y2="19.625"
       gradientTransform="matrix(0.63612663,0,0,0.50000021,1.0984886,1024.8622)" />
    <linearGradient
       gradientUnits="userSpaceOnUse"
       id="linearGradient4408"
       x2="0"
       y1="4.9837999"
       y2="19.625">
      <stop
         offset="0"
         stop-color="#999"
         id="stop4410" />
      <stop
         offset="1"
         stop-color="#727272"
         id="stop4412" />
    </linearGradient>
    <linearGradient
       inkscape:collect="always"
       xlink:href="#linearGradient5582"
       id="linearGradient4252"
       gradientUnits="userSpaceOnUse"
       gradientTransform="matrix(0.66666667,0,0,0.50000021,0,1025.8622)"
       y1="4.9837999"
       x2="0"
       y2="19.625" />
    <linearGradient
       gradientUnits="userSpaceOnUse"
       id="linearGradient4415"
       x2="0"
       y1="4.9837999"
       y2="19.625">
      <stop
         offset="0"
         stop-color="#999"
         id="stop4417" />
      <stop
         offset="1"
         stop-color="#727272"
         id="stop4419" />
    </linearGradient>
    <linearGradient
       gradientUnits="userSpaceOnUse"
       id="linearGradient5586"
       x2="0"
       y1="19.5112"
       y2="14.0665"
       gradientTransform="matrix(0.8888889,0,0,1.1666666,-3.5555556,1009.0289)">
      <stop
         offset="0"
         stop-color="#ceeefb"
         id="stop3540" />
      <stop
         offset="1"
         stop-color="#61a2f4"
         id="stop3542" />
    </linearGradient>
    <linearGradient
       gradientUnits="userSpaceOnUse"
       id="linearGradient5584"
       x2="0"
       y1="21.7652"
       y2="19.9744"
       gradientTransform="matrix(0.8888889,0,0,0.99999974,-3.5555556,1010.3622)">
      <stop
         offset="0"
         stop-color="#d3b72c"
         id="stop3535" />
      <stop
         offset="1"
         stop-color="#f2ea73"
         id="stop3537" />
    </linearGradient>
    <linearGradient
       gradientUnits="userSpaceOnUse"
       id="linearGradient5621-9-6"
       x1="17.922001"
       x2="29.1057"
       y1="26.769501"
       y2="35.343102"
       gradientTransform="matrix(0.66666667,0,0,0.54545458,0,1024.1804)">
      <stop
         offset="0"
         stop-opacity=".731"
         id="stop3550-4" />
      <stop
         offset="1"
         stop-opacity=".415"
         id="stop3552-7" />
    </linearGradient>
  </defs>
  <sodipodi:namedview
     id="base"
     pagecolor="#ffffff"
     bordercolor="#666666"
     borderopacity="1.0"
     inkscape:pageopacity="0.0"
     inkscape:pageshadow="2"
     inkscape:zoom="11.2"
     inkscape:cx="25.994325"
     inkscape:cy="19.282635"
     inkscape:document-units="px"
     inkscape:current-layer="layer1"
     showgrid="true"
     units="px"
     borderlayer="true"
     inkscape:showpageshadow="false"
     inkscape:window-width="1366"
     inkscape:window-height="704"
     inkscape:window-x="0"
     inkscape:window-y="27"
     inkscape:window-maximized="1">
    <inkscape:grid
       type="xygrid"
       id="grid4462" />
  </sodipodi:namedview>
  <metadata
     id="metadata4459">
    <rdf:RDF>
      <cc:Work
         rdf:about="">
        <dc:format>image/svg+xml</dc:format>
        <dc:type
           rdf:resource="http://purl.org/dc/dcmitype/StillImage" />
        <dc:title />
      </cc:Work>
    </rdf:RDF>
  </metadata>
  <g
     inkscape:label="Layer 1"
     inkscape:groupmode="layer"
     id="layer1"
     transform="translate(0,-1020.3622)">
    <g
       transform="translate(0,1004.3621)"
       id="g4226">
      <path
         sodipodi:nodetypes="ccsc"
         inkscape:connector-curvature="0"
         style="display:inline;overflow:visible;visibility:visible;opacity:0.5;fill:url(#radialGradient4030);fill-opacity:1;fill-rule:nonzero;stroke:none;stroke-width:104.96237946;marker:none"
         id="path5058-0-2"
         d="m 26,43.000176 0,4.999725 c 1.970257,0.0094 4.000001,-1.120185 4,-2.500184 0,-1.379999 -1.435536,-2.49954 -4,-2.499541 z" />
      <path
         inkscape:connector-curvature="0"
         id="rect4173-6-3"
         d="m 6,43 20,0 0,5 -20,0 z"
         style="display:inline;overflow:visible;visibility:visible;opacity:0.5;fill:url(#linearGradient4032);fill-opacity:1;fill-rule:nonzero;stroke:none;stroke-width:104.96237946;marker:none" />
      <path
         inkscape:connector-curvature="0"
         style="display:inline;overflow:visible;visibility:visible;opacity:0.5;fill:url(#radialGradient4034);fill-opacity:1;fill-rule:nonzero;stroke:none;stroke-width:104.96237946;marker:none"
         id="path5018-7-4"
         d="m 6,43 0,5 C 4.0297424,48.009414 2,46.879716 2,45.499717 2,44.119718 3.4355357,43.000001 6,43 Z"
         sodipodi:nodetypes="ccsc" />
    </g>
    <path
       style="fill:url(#linearGradient4576-2-8);stroke:#484848;stroke-width:1.0309"
       inkscape:connector-curvature="0"
       d="m 4.4902872,1029.8777 23.0194258,0 a 1.9748372,1.9344217 0 0 1 1.974837,1.9344 l 0,16.1002 a 1.9748372,1.9344217 0 0 1 -1.974837,1.9345 l -23.0194258,0 A 1.9748372,1.9344217 0 0 1 2.51545,1047.9123 l 0,-16.1002 a 1.9748372,1.9344217 0 0 1 1.9748372,-1.9344"
       id="path3566" />
    <path
       style="fill:none;stroke:url(#linearGradient5534);stroke-width:1.02429998"
       inkscape:connector-curvature="0"
       d="m 4.7937537,1044.8764 22.4124933,0 c 1.197347,0 1.281603,-0.4067 1.281603,-0.4067 l 0,2.9573 c 0,0.7906 -0.571595,1.4271 -1.281603,1.4271 l -22.4124933,0 c -0.7100084,0 -1.2816037,-0.6365 -1.2816037,-1.4271 l 0,-2.9573 z"
       id="path3598"
       sodipodi:nodetypes="cccsssscc" />
    <path
       style="fill:#00ffff;stroke:url(#linearGradient4535);stroke-width:0.99999994"
       inkscape:connector-curvature="0"
       d="m 25.5,1045.8622 2,0 0,2 -2,0 z"
       id="path3596" />
    <path
       inkscape:connector-curvature="0"
       d="m 8,1044.3622 16,0 0,5 -16,0 z"
       id="path3600"
       style="color:#000000;display:inline;overflow:visible;visibility:visible;fill:url(#linearGradient5621-7);fill-opacity:1;fill-rule:nonzero;stroke-width:1;stroke-linecap:butt;stroke-linejoin:miter;stroke-miterlimit:4;stroke-dasharray:none;stroke-dashoffset:0;stroke-opacity:1;marker:none;enable-background:accumulate" />
    <path
       inkscape:connector-curvature="0"
       d="m 4.4902872,1025.8777 23.0194258,0 a 1.9748372,1.9988541 0 0 1 1.974837,1.9988 l 0,13.9714 a 1.9748372,1.9988541 0 0 1 -1.974837,1.9989 l -23.0194258,0 A 1.9748372,1.9988541 0 0 1 2.51545,1041.8479 l 0,-13.9714 a 1.9748372,1.9988541 0 0 1 1.9748372,-1.9988"
       id="path3568"
       style="fill:url(#linearGradient4576-2);stroke:#484848;stroke-width:1.0309" />
    <path
       style="fill:none;stroke:url(#linearGradient4523);stroke-width:1.02429998"
       inkscape:connector-curvature="0"
       d="m 4.7937537,1026.8744 22.4124933,0 a 1.2816036,1.3593774 0 0 1 1.281603,1.3593 l 0,14.257 a 1.2816036,1.3593774 0 0 1 -1.281603,1.3594 l -22.4124933,0 A 1.2816036,1.3593774 0 0 1 3.51215,1042.4907 l 0,-14.257 a 1.2816036,1.3593774 0 0 1 1.2816037,-1.3593"
       id="path3570" />
    <path
       inkscape:connector-curvature="0"
       d="m 40.300045,24.214182 0,-11.322895 c 0,-0.612484 -1.002767,-1.105549 -2.248253,-1.105549 l -28.1035441,0 c -1.2455959,0 -2.2482529,0.493065 -2.2482529,1.105549 l 0,11.322895 z"
       id="path3572"
       style="color:#000000;display:inline;overflow:visible;visibility:visible;fill:#2d2d2d;fill-opacity:1;fill-rule:nonzero;stroke-width:0.76127243;stroke-linecap:butt;stroke-linejoin:miter;stroke-miterlimit:4;stroke-dasharray:none;stroke-dashoffset:0;stroke-opacity:1;marker:none;filter:url(#filter5517-9);enable-background:accumulate"
       transform="matrix(0.66666667,0,0,0.65478428,0,1020.9326)" />
    <path
       style="fill:url(#linearGradient3120);stroke:url(#linearGradient5527);stroke-width:0.99999994;stroke-linecap:round;stroke-linejoin:round"
       inkscape:connector-curvature="0"
       d="m 25.5,1036.8622 0,-12.7547 c 0,-0.6899 -0.584414,-1.2453 -1.310345,-1.2453 l -16.3793102,0 C 7.0844137,1022.8622 6.5,1023.4176 6.5,1024.1075 l 0,12.7547 z"
       id="path3574" />
    <path
       inkscape:connector-curvature="0"
       d="m 5,1036.8622 c 0,0.9809 0.7593883,1.5 1.2941177,1.5 l 19.4117653,0 c 0.700505,0 1.294117,-0.5323 1.294117,-1.5 0,-0.9677 -0.717588,-1.5 -1.294117,-1.5 l 0,1.4766 -19.4117653,2e-4 0,-1.4767 C 5.7026412,1035.3623 5,1035.8814 5,1036.8623 Z"
       id="path3576"
       style="color:#000000;display:inline;overflow:visible;visibility:visible;fill:#2d2d2d;fill-opacity:1;fill-rule:nonzero;stroke-width:1;stroke-linecap:butt;stroke-linejoin:miter;stroke-miterlimit:4;stroke-dasharray:none;stroke-dashoffset:0;stroke-opacity:1;marker:none;enable-background:accumulate" />
    <path
       style="fill:none;stroke:url(#linearGradient3104);stroke-width:0.99999994;stroke-linecap:round;stroke-linejoin:round"
       inkscape:connector-curvature="0"
       d="m 24.49995,1024.4908 0,10.7428 a 0.62962778,0.62857173 0 0 1 -0.629628,0.6286 l -15.7406942,0 A 0.62962778,0.62857173 0 0 1 7.5,1035.2336 l 0,-10.7428 a 0.62962778,0.62857173 0 0 1 0.6296278,-0.6286 l 15.7406942,0 a 0.62962778,0.62857173 0 0 1 0.629628,0.6286"
       id="path3578" />
    <path
       style="fill:url(#linearGradient4254)"
       d="m 17,1025.3622 0,1.4634 7,0 0,-1.4634 -7,0 z"
       id="path4250"
       inkscape:connector-curvature="0" />
    <path
       style="fill:url(#linearGradient4256)"
       d="m 17,1028.3622 0,1.0826 7,0 0,-1.0826 -7,0 z"
       id="path4248"
       inkscape:connector-curvature="0" />
    <path
       style="fill:url(#linearGradient3948)"
       d="m 17,1031.3622 0,1 6.9792,0 0,-1 -6.9792,0 z"
       id="path4246"
       inkscape:connector-curvature="0" />
    <path
       style="fill:url(#linearGradient4252)"
       d="m 8,1034.3622 0,1 16,0 0,-1 -16,0 z"
       id="path3582"
       inkscape:connector-curvature="0" />
    <path
       d="m 8,1025.3622 7.3524,0 0,6.2739 -7.3524,0 z"
       id="path3586"
       inkscape:connector-curvature="0"
       style="fill:#ffffff" />
    <path
       d="m 8,1025.3622 8,0 0,7 -8,0 z"
       id="path3590"
       style="fill:url(#linearGradient5586)"
       inkscape:connector-curvature="0" />
    <path
       d="m 8,1030.3622 8,0 0,2 -8,0 z"
       id="path3588"
       style="fill:url(#linearGradient5584)"
       inkscape:connector-curvature="0" />
    <path
       d="m 8,1029.4281 1.0380445,0 c 1.3452445,0 0.6391999,-1.9479 2.6846225,-1.9479 1.917066,0.081 1.150577,1.9479 2.940266,1.9479 l 1.337067,0 0,0.9341 -8,0 z"
       id="path3592"
       inkscape:connector-curvature="0"
       style="fill:#a86516" />
    <path
       d="m 15,1027.3622 c 0,0.5523 -0.447718,1 -1,1 -0.552281,0 -1,-0.4477 -1,-1 0,-0.5523 0.447719,-1 1,-1 0.552282,0 1,0.4477 1,1 z"
       id="path3594"
       inkscape:connector-curvature="0"
       style="fill:#ffff00" />
    <path
       inkscape:connector-curvature="0"
       d="m 8,1038.3622 16,0 0,6 -16,0 z"
       id="path3602"
       style="color:#000000;display:inline;overflow:visible;visibility:visible;fill:url(#linearGradient5621-9-6);fill-opacity:1;fill-rule:nonzero;stroke-width:1;stroke-linecap:butt;stroke-linejoin:miter;stroke-miterlimit:4;stroke-dasharray:none;stroke-dashoffset:0;stroke-opacity:1;marker:none;enable-background:accumulate" />
  </g>
</svg>
