<?xml version="1.0" encoding="UTF-8" standalone="no"?>
<!-- Created with Inkscape (http://www.inkscape.org/) -->

<svg
   xmlns:dc="http://purl.org/dc/elements/1.1/"
   xmlns:cc="http://creativecommons.org/ns#"
   xmlns:rdf="http://www.w3.org/1999/02/22-rdf-syntax-ns#"
   xmlns:svg="http://www.w3.org/2000/svg"
   xmlns="http://www.w3.org/2000/svg"
   xmlns:xlink="http://www.w3.org/1999/xlink"
   xmlns:sodipodi="http://sodipodi.sourceforge.net/DTD/sodipodi-0.dtd"
   xmlns:inkscape="http://www.inkscape.org/namespaces/inkscape"
   width="16"
   height="16"
   id="svg3330"
   version="1.1"
   inkscape:version="0.91 r"
   sodipodi:docname="system-restart-panel.svg">
  <defs
     id="defs3332">
    <linearGradient
       id="linearGradient2867-449-88-871-390-598-476-591-434-148-6-0-0">
      <stop
         id="stop4629-4-3-9"
         style="stop-color:#49a3d2;stop-opacity:1"
         offset="0" />
      <stop
         id="stop4631-8-0-4"
         style="stop-color:#3470b4;stop-opacity:1"
         offset="0.704952" />
      <stop
         id="stop4633-9-3-9"
         style="stop-color:#1b5699;stop-opacity:1"
         offset="1" />
    </linearGradient>
    <linearGradient
       inkscape:collect="always"
       xlink:href="#linearGradient2867-449-88-871-390-598-476-591-434-148-6-0-0"
       id="linearGradient3398"
       gradientUnits="userSpaceOnUse"
       gradientTransform="matrix(0.48248289,0,0,0.69386905,-6.979985,1046.7763)"
       x1="31.047703"
       y1="-1507.1666"
       x2="31.047703"
       y2="-1486.99" />
  </defs>
  <sodipodi:namedview
     id="base"
     pagecolor="#ffffff"
     bordercolor="#666666"
     borderopacity="1.0"
     inkscape:pageopacity="0.0"
     inkscape:pageshadow="2"
     inkscape:zoom="15.839192"
     inkscape:cx="10.984714"
     inkscape:cy="8.1630532"
     inkscape:document-units="px"
     inkscape:current-layer="capa1"
     showgrid="true"
     inkscape:showpageshadow="false"
     inkscape:window-width="1215"
     inkscape:window-height="1000"
     inkscape:window-x="65"
     inkscape:window-y="24"
     inkscape:window-maximized="1">
    <inkscape:grid
       type="xygrid"
       id="grid3004" />
  </sodipodi:namedview>
  <metadata
     id="metadata3335">
    <rdf:RDF>
      <cc:Work
         rdf:about="">
        <dc:format>image/svg+xml</dc:format>
        <dc:type
           rdf:resource="http://purl.org/dc/dcmitype/StillImage" />
        <dc:title />
      </cc:Work>
    </rdf:RDF>
  </metadata>
  <g
     inkscape:label="Capa 1"
     inkscape:groupmode="layer"
     id="capa1"
     transform="translate(0,-1036.3622)">
    <path
       sodipodi:nodetypes="cccccccccccccccccccccccccccccccccccccccccccccccc"
       inkscape:connector-curvature="0"
       id="path3013"
       d="m 7,1038.3622 0,4 2,0 0,-4 z m -4,1 -1,0 0,1 3,3 1,0 0,-1 z m 10,0 -3,3 0,1 1,0 3,-3 0,-1 z m -12,5 0,2 4,0 0,-2 z m 10,0 0,2 4,0 0,-2 z m -6,3 -3,3 0,1 1,0 3,-3 0,-1 z m 6,0 -1,0 0,1 3,3 1,0 0,-1 z m -4,1 0,4 2,0 0,-4 z"
       style="opacity:1;color:#000000;fill:#000000;fill-opacity:1;fill-rule:nonzero;stroke:none;stroke-width:1;marker:none;visibility:visible;display:inline;overflow:visible;enable-background:accumulate;clip-rule:nonzero;isolation:auto;mix-blend-mode:normal;color-interpolation:sRGB;color-interpolation-filters:linearRGB;solid-color:#000000;solid-opacity:1;stroke-linecap:butt;stroke-linejoin:miter;stroke-miterlimit:4;stroke-dasharray:none;stroke-dashoffset:0;stroke-opacity:1;filter-blend-mode:normal;filter-gaussianBlur-deviation:0;color-rendering:auto;image-rendering:auto;shape-rendering:auto;text-rendering:auto" />
    <path
       style="opacity:1;color:#000000;fill:url(#linearGradient3398);fill-opacity:1;fill-rule:nonzero;stroke:none;stroke-width:1;marker:none;visibility:visible;display:inline;overflow:visible;enable-background:accumulate;clip-rule:nonzero;isolation:auto;mix-blend-mode:normal;color-interpolation:sRGB;color-interpolation-filters:linearRGB;solid-color:#000000;solid-opacity:1;stroke-linecap:butt;stroke-linejoin:miter;stroke-miterlimit:4;stroke-dasharray:none;stroke-dashoffset:0;stroke-opacity:1;filter-blend-mode:normal;filter-gaussianBlur-deviation:0;color-rendering:auto;image-rendering:auto;shape-rendering:auto;text-rendering:auto"
       d="M 7,1 7,5 9,5 9,1 z M 3,2 2,2 2,3 5,6 6,6 6,5 z m 10,0 -3,3 0,1 1,0 3,-3 0,-1 z M 1,7 1,9 5,9 5,7 z m 10,0 0,2 4,0 0,-2 z m -6,3 -3,3 0,1 1,0 3,-3 0,-1 z m 6,0 -1,0 0,1 3,3 1,0 0,-1 z m -4,1 0,4 2,0 0,-4 z"
       transform="translate(0,1036.3622)"
       id="rect3021"
       inkscape:connector-curvature="0"
       sodipodi:nodetypes="cccccccccccccccccccccccccccccccccccccccccccccccc" />
  </g>
</svg>
