<?xml version="1.0" encoding="UTF-8" standalone="no"?>
<!-- Created with Inkscape (http://www.inkscape.org/) -->

<svg
   xmlns:dc="http://purl.org/dc/elements/1.1/"
   xmlns:cc="http://creativecommons.org/ns#"
   xmlns:rdf="http://www.w3.org/1999/02/22-rdf-syntax-ns#"
   xmlns:svg="http://www.w3.org/2000/svg"
   xmlns="http://www.w3.org/2000/svg"
   xmlns:xlink="http://www.w3.org/1999/xlink"
   xmlns:sodipodi="http://sodipodi.sourceforge.net/DTD/sodipodi-0.dtd"
   xmlns:inkscape="http://www.inkscape.org/namespaces/inkscape"
   width="16"
   height="16"
   id="svg3330"
   version="1.1"
   inkscape:version="0.48.4 r9939"
   sodipodi:docname="system-devices-panel-information.svg">
  <defs
     id="defs3332">
    <linearGradient
       inkscape:collect="always"
       xlink:href="#linearGradient2985-2-8"
       id="linearGradient3019-1"
       gradientUnits="userSpaceOnUse"
       gradientTransform="matrix(1,0,0,-1,38,1055.3618)"
       x1="-30"
       y1="3.9995999"
       x2="-30"
       y2="17.999599" />
    <linearGradient
       id="linearGradient2985-2-8">
      <stop
         style="stop-color:#a60000;stop-opacity:1;"
         offset="0"
         id="stop2987-6-7" />
      <stop
         style="stop-color:#ff1313;stop-opacity:1;"
         offset="1"
         id="stop2989-5-4" />
    </linearGradient>
  </defs>
  <sodipodi:namedview
     id="base"
     pagecolor="#ffffff"
     bordercolor="#666666"
     borderopacity="1.0"
     inkscape:pageopacity="0.0"
     inkscape:pageshadow="2"
     inkscape:zoom="15.839192"
     inkscape:cx="26.710396"
     inkscape:cy="10.653037"
     inkscape:document-units="px"
     inkscape:current-layer="capa1"
     showgrid="true"
     inkscape:showpageshadow="false"
     inkscape:window-width="1280"
     inkscape:window-height="971"
     inkscape:window-x="0"
     inkscape:window-y="24"
     inkscape:window-maximized="1"
     inkscape:snap-bbox="true">
    <inkscape:grid
       type="xygrid"
       id="grid2990" />
  </sodipodi:namedview>
  <metadata
     id="metadata3335">
    <rdf:RDF>
      <cc:Work
         rdf:about="">
        <dc:format>image/svg+xml</dc:format>
        <dc:type
           rdf:resource="http://purl.org/dc/dcmitype/StillImage" />
        <dc:title />
      </cc:Work>
    </rdf:RDF>
  </metadata>
  <g
     inkscape:label="Capa 1"
     inkscape:groupmode="layer"
     id="capa1"
     transform="translate(0,-1036.3622)">
    <path
       sodipodi:nodetypes="cccccccccccccccccccccccccccccccccccccccccc"
       id="path3771"
       d="m 7,1038.3622 0,2 -2,1 -1,-1 -1,1 1,1 -1,2 -2,0 0,2 2,0 1,2 -1,1 1,1 1,-1 2,1 0,2 2,0 0,-2 2,-1 1,1 1,-1 -1,-1 1,-2 2,0 0,-2 -2,0 -1,-2 1,-1 -1,-1 -1,1 -2,-1 0,-2 z m 2,4 2,2 0,2 -2,2 -2,0 -2,-2 0,-2 2,-2 z"
       style="opacity:1;color:black;fill:#000000;fill-opacity:1;fill-rule:nonzero;stroke:none;stroke-width:1;marker:none;visibility:visible;display:inline;overflow:visible;enable-background:accumulate"
       inkscape:connector-curvature="0" />
    <path
       inkscape:connector-curvature="0"
       style="opacity:1;color:#000000;fill:url(#linearGradient3019-1);fill-opacity:1;fill-rule:evenodd;stroke:none;stroke-width:1.69999992999999994;marker:none;visibility:visible;display:inline;overflow:visible;enable-background:accumulate"
       d="m 7,1051.3622 0,-2 -2,-1 -1,1 -1,-1 1,-1 -1,-2 -2,0 0,-2 2,0 1,-2 -1,-1 1,-1 1,1 2,-1 0,-2 2,0 0,2 2,1 1,-1 1,1 -1,1 1,2 2,0 0,2 -2,0 -1,2 1,1 -1,1 -1,-1 -2,1 0,2 z m 2,-4 2,-2 0,-2 -2,-2 -2,0 -2,2 0,2 2,2 z"
       id="path5266"
       sodipodi:nodetypes="cccccccccccccccccccccccccccccccccccccccccc" />
  </g>
</svg>
