<?xml version="1.0" encoding="UTF-8" standalone="no"?>
<!-- Created with Inkscape (http://www.inkscape.org/) -->

<svg
   xmlns:dc="http://purl.org/dc/elements/1.1/"
   xmlns:cc="http://creativecommons.org/ns#"
   xmlns:rdf="http://www.w3.org/1999/02/22-rdf-syntax-ns#"
   xmlns:svg="http://www.w3.org/2000/svg"
   xmlns="http://www.w3.org/2000/svg"
   xmlns:sodipodi="http://sodipodi.sourceforge.net/DTD/sodipodi-0.dtd"
   xmlns:inkscape="http://www.inkscape.org/namespaces/inkscape"
   width="16"
   height="16"
   id="svg2"
   version="1.1"
   inkscape:version="0.48.4 r9939"
   sodipodi:docname="start-here.svg"
   inkscape:export-filename="/home/rafa/Escriptori/lubuntu_favicon.png"
   inkscape:export-xdpi="90"
   inkscape:export-ydpi="90">
  <defs
     id="defs4" />
  <sodipodi:namedview
     id="base"
     pagecolor="#ffffff"
     bordercolor="#666666"
     borderopacity="1.0"
     inkscape:pageopacity="0.0"
     inkscape:pageshadow="2"
     inkscape:zoom="8.0000002"
     inkscape:cx="12.931547"
     inkscape:cy="-16.81559"
     inkscape:document-units="px"
     inkscape:current-layer="layer1"
     showgrid="false"
     inkscape:window-width="968"
     inkscape:window-height="876"
     inkscape:window-x="33"
     inkscape:window-y="111"
     inkscape:window-maximized="0"
     inkscape:showpageshadow="false"
     borderlayer="false"
     fit-margin-top="0"
     fit-margin-left="0"
     fit-margin-right="0"
     fit-margin-bottom="0"
     width="0px"
     height="0px" />
  <metadata
     id="metadata7">
    <rdf:RDF>
      <cc:Work
         rdf:about="">
        <dc:format>image/svg+xml</dc:format>
        <dc:type
           rdf:resource="http://purl.org/dc/dcmitype/StillImage" />
        <dc:title />
      </cc:Work>
    </rdf:RDF>
  </metadata>
  <g
     inkscape:label="Capa 1"
     inkscape:groupmode="layer"
     id="layer1"
     transform="translate(-1224.4602,-584.29916)">
    <g
       transform="translate(-3.3598106e-5,-9.0154721e-6)"
       id="layer1-78"
       inkscape:label="Capa 1">
      <g
         inkscape:label="Capa 1"
         id="layer1-7"
         transform="matrix(0.33333334,0,0,0.33333334,948.07617,418.49463)">
        <g
           id="g4420"
           transform="matrix(2.0727404,0,0,2.0727404,-889.46504,-585.0873)">
          <path
             sodipodi:type="arc"
             style="color:#000000;fill:#0068c8;fill-opacity:1;fill-rule:evenodd;stroke:none;stroke-width:1.41732287;marker:none;visibility:visible;display:inline;overflow:visible;enable-background:accumulate"
             id="path3910-7"
             sodipodi:cx="484.89847"
             sodipodi:cy="260.67712"
             sodipodi:rx="10.606602"
             sodipodi:ry="10.606602"
             d="m 495.50507,260.67712 c 0,5.85787 -4.74874,10.60661 -10.6066,10.60661 -5.85787,0 -10.6066,-4.74874 -10.6066,-10.60661 0,-5.85786 4.74873,-10.6066 10.6066,-10.6066 5.85786,0 10.6066,4.74874 10.6066,10.6066 z"
             transform="matrix(1.0916667,0,0,1.0916667,311.38354,249.26224)" />
          <path
             style="color:#000000;fill:#ffffff;fill-opacity:1;fill-rule:evenodd;stroke:none;stroke-width:1.41732287;marker:none;visibility:visible;display:inline;overflow:visible;enable-background:accumulate"
             d="m 843.87949,524.89343 c -0.33431,-0.0119 -2.18148,0.53821 -2.71875,1.21875 -1.62095,0.11746 -8.16353,4.57344 -12,7.28125 l 0.008,0.91406 c 1.74832,-0.67417 3.85583,-1.42006 4.67969,-1.41406 0.16188,0.001 0.28735,3e-4 0.34375,0.0625 0.31586,0.37224 -1.04936,2.17879 -2.4375,4.21875 -0.36344,0.53409 -0.97206,1.40716 -1.32309,1.9376 l 0.32813,0.60156 c 1.90833,-2.38961 4.58005,-5.71965 5.24496,-5.82041 0.0358,-0.005 0.0684,0.0192 0.0937,0.0312 0.11808,0.14433 -2.32388,4.06279 -4.28537,7.27464 l 0.6875,0.75 c 0.95391,-1.31147 2.25226,-3.20387 3.25412,-4.58714 2.08484,-2.87854 3.91298,-5.56695 4.8125,-5.59375 0.029,0 0.0668,0.0263 0.0937,0.0312 2.77148,0.0164 5.52608,6.99076 6.95044,11.34565 l 0.54956,-0.4394 c -0.68283,-4.86918 -2.28105,-12.89026 -5.625,-15.125 0.35828,-0.2388 0.375,-1.46875 0.375,-1.46875 l 0.96875,-1.21875 10e-5,10e-5 z"
             id="path3912-0"
             sodipodi:nodetypes="ccccsssccssccssccccccc"
             inkscape:connector-curvature="0" />
        </g>
      </g>
    </g>
  </g>
</svg>
