<?xml version="1.0" encoding="UTF-8" standalone="no"?>
<!-- Created with Inkscape (http://www.inkscape.org/) -->

<svg xmlns:dc="http://purl.org/dc/elements/1.1/" xmlns:cc="http://creativecommons.org/ns#" xmlns:rdf="http://www.w3.org/1999/02/22-rdf-syntax-ns#" xmlns:svg="http://www.w3.org/2000/svg" xmlns="http://www.w3.org/2000/svg" xmlns:xlink="http://www.w3.org/1999/xlink" xmlns:sodipodi="http://sodipodi.sourceforge.net/DTD/sodipodi-0.dtd" xmlns:inkscape="http://www.inkscape.org/namespaces/inkscape" width="16" height="16" id="svg3330" version="1.1" inkscape:version="0.48.4 r9939" sodipodi:docname="gohome.svg">
  <defs id="defs3332">
    <linearGradient y2="11.02436" y1="3.0069399" x2="0" id="linearGradient1022-8-8-3-0-27-747" gradientUnits="userSpaceOnUse">
      <stop id="stop3001-0-9-4-6-36" offset="0" />
      <stop id="stop3003-5-6-6-01-86" stop-color="#363636" offset="1" />
    </linearGradient>
    <linearGradient y2="19.975889" x2="-2.5488417" y1="8.4068613" x1="-2.5488417" gradientTransform="matrix(1.119994,0,0,1.0064811,81.016638,387.76344)" gradientUnits="userSpaceOnUse" id="linearGradient4743" xlink:href="#linearGradient1022-8-8-3-0-27-747" inkscape:collect="always" />
    <linearGradient inkscape:collect="always" xlink:href="#linearGradient1022-8-8-3-0-27-747" id="linearGradient2993" gradientUnits="userSpaceOnUse" gradientTransform="matrix(1.119994,0,0,1.0064811,-53.983362,1027.7635)" x1="-2.5488417" y1="8.4068613" x2="-2.5488417" y2="19.975889" />
    <linearGradient y2="705.60046" x2="73.497444" y1="693.01538" x1="73.497444" gradientTransform="matrix(1.679991,0,0,1.5097216,-111.47504,-15.8981)" gradientUnits="userSpaceOnUse" id="linearGradient3015" xlink:href="#linearGradient1022-8-8-3-0-27-7" inkscape:collect="always" />
    <linearGradient gradientUnits="userSpaceOnUse" id="linearGradient1022-8-8-3-0-27-7" x2="0" y1="3.0069399" y2="11.02436">
      <stop offset="0" id="stop3001-0-9-4-6-6" />
      <stop offset="1" stop-color="#363636" id="stop3003-5-6-6-01-3" />
    </linearGradient>
    <linearGradient inkscape:collect="always" xlink:href="#linearGradient1022-8-8-3-0-27-7" id="linearGradient3017" gradientUnits="userSpaceOnUse" gradientTransform="matrix(1.2218116,0,0,1.0979793,-81.800029,277.62744)" x1="73.497444" y1="693.01538" x2="73.497444" y2="705.60046" />
    <linearGradient inkscape:collect="always" xlink:href="#linearGradient1022-8-8-3-0-27-7" id="linearGradient3026" gradientUnits="userSpaceOnUse" gradientTransform="matrix(1.2218116,0,0,1.0979793,-81.981847,277.62744)" x1="73.497444" y1="693.01538" x2="73.497444" y2="705.60046" />
    <linearGradient inkscape:collect="always" xlink:href="#linearGradient1022-8-8-3-0-27-7" id="linearGradient3028" gradientUnits="userSpaceOnUse" gradientTransform="matrix(1.2218116,0,0,1.0979793,-81.800029,-758.73476)" x1="73.497444" y1="693.01538" x2="73.497444" y2="705.60046" />
    <linearGradient inkscape:collect="always" xlink:href="#linearGradient1022-8-8-3-0-27-7" id="linearGradient3031" gradientUnits="userSpaceOnUse" gradientTransform="matrix(1.2218116,0,0,1.0979793,-81.800029,-758.73476)" x1="73.497444" y1="691.02832" x2="73.497444" y2="704.68976" />
  </defs>
  <sodipodi:namedview id="base" pagecolor="#ffffff" bordercolor="#666666" borderopacity="1.0" inkscape:pageopacity="0.0" inkscape:pageshadow="2" inkscape:zoom="15.839192" inkscape:cx="10.64595" inkscape:cy="8.4364387" inkscape:document-units="px" inkscape:current-layer="capa1" showgrid="true" inkscape:showpageshadow="false" inkscape:window-width="1280" inkscape:window-height="976" inkscape:window-x="0" inkscape:window-y="24" inkscape:window-maximized="1" inkscape:snap-bbox="true">
    <inkscape:grid type="xygrid" id="grid2990" />
  </sodipodi:namedview>
  <metadata id="metadata3335">
    <rdf:RDF>
      <cc:Work rdf:about="">
        <dc:format>image/svg+xml</dc:format>
        <dc:type rdf:resource="http://purl.org/dc/dcmitype/StillImage" />
        <dc:title />
      </cc:Work>
    </rdf:RDF>
  </metadata>
  <g inkscape:label="Capa 1" inkscape:groupmode="layer" id="capa1" transform="translate(0,-1036.3622)">
    <path id="path3033" d="m 7,1037.3622 -7,7 0,2 1,0 7,-7 7,7 1,0 0,-2 -2,-2 0,-4 -2,0 0,2 -3,-3 -0.34375,0 -1.65625,0 z m -3,7 -2,2 0,5 1,1 10,0 1,-1 0,-5 -2,-2 0,6 -2,0 0,-5 -4,0 0,5 -2,0 0,-6 z" style="opacity:0.59999999999999998;color:black;fill:white;fill-opacity:1;fill-rule:nonzero;stroke:none;stroke-width:1;marker:none;visibility:visible;display:inline;overflow:visible;enable-background:accumulate" inkscape:connector-curvature="0" />
    <path style="opacity:0.69999999999999996;color:black;fill:url(#linearGradient3031);fill-opacity:1;fill-rule:nonzero;stroke:none;stroke-width:1;marker:none;visibility:visible;display:inline;overflow:visible;enable-background:accumulate" d="M 7 0 L 0 7 L 0 9 L 1 9 L 8 2 L 15 9 L 16 9 L 16 7 L 14 5 L 14 1 L 12 1 L 12 3 L 9 0 L 8.65625 0 L 7 0 z M 4 7 L 2 9 L 2 14 L 3 15 L 13 15 L 14 14 L 14 9 L 12 7 L 12 13 L 10 13 L 10 8 L 6 8 L 6 13 L 4 13 L 4 7 z " transform="translate(0,1036.3622)" id="path3024" />
  </g>
</svg>
