<?xml version="1.0" encoding="UTF-8" standalone="no"?>
<svg
   xmlns:dc="http://purl.org/dc/elements/1.1/"
   xmlns:cc="http://creativecommons.org/ns#"
   xmlns:rdf="http://www.w3.org/1999/02/22-rdf-syntax-ns#"
   xmlns:svg="http://www.w3.org/2000/svg"
   xmlns="http://www.w3.org/2000/svg"
   xmlns:sodipodi="http://sodipodi.sourceforge.net/DTD/sodipodi-0.dtd"
   xmlns:inkscape="http://www.inkscape.org/namespaces/inkscape"
   viewBox="0 0 16 16"
   id="svg2"
   version="1.1"
   inkscape:version="0.48.3.1 r9886"
   width="100%"
   height="100%"
   sodipodi:docname="user-trash.svg">
  <metadata
     id="metadata47">
    <rdf:RDF>
      <cc:Work
         rdf:about="">
        <dc:format>image/svg+xml</dc:format>
        <dc:type
           rdf:resource="http://purl.org/dc/dcmitype/StillImage" />
      </cc:Work>
    </rdf:RDF>
  </metadata>
  <sodipodi:namedview
     pagecolor="#ffffff"
     bordercolor="#666666"
     borderopacity="1"
     objecttolerance="10"
     gridtolerance="10"
     guidetolerance="10"
     inkscape:pageopacity="0"
     inkscape:pageshadow="2"
     inkscape:window-width="640"
     inkscape:window-height="480"
     id="namedview45" />
  <defs
     id="defs4">
    <linearGradient
       gradientUnits="userSpaceOnUse"
       id="linearGradient1060-0-5"
       spreadMethod="reflect"
       x1="-.6909"
       x2="7.7996">
      <stop
         offset="0"
         stop-color="#ababab"
         id="stop7" />
      <stop
         offset="1"
         stop-color="#f1f1f1"
         id="stop9" />
    </linearGradient>
  </defs>
  <path
     d="m2.5,1.5h10.9999a1,1 0 0,1 1,1v12a1,1 0 0,1 -1,1h-10.9999a1,1 0 0,1 -1-1v-12a1,1 0 0,1 1-1"
     fill="url(#linearGradient1060-0-5)"
     stroke="#636363"
     stroke-dashoffset=".7"
     stroke-linecap="round"
     stroke-linejoin="round"
     id="path11" />
  <path
     d="m2.5,1.5h11a1,1 0 0,1 1,1v3a1,1 0 0,1 -1,1h-11a1,1 0 0,1 -1-1v-3a1,1 0 0,1 1-1"
     fill="#707070"
     stroke="#636363"
     stroke-dashoffset=".7"
     stroke-linecap="round"
     stroke-linejoin="round"
     id="path13" />
  <path
     d="m4,13h1v1h-1z"
     fill="#565656"
     id="path15" />
  <path
     d="m4,11h1v1h-1z"
     fill="#565656"
     id="path17" />
  <path
     d="m4,9h1v1h-1z"
     fill="#565656"
     id="path19" />
  <path
     d="m6,13h1v1h-1z"
     fill="#565656"
     id="path21" />
  <path
     d="m6,11h1v1h-1z"
     fill="#565656"
     id="path23" />
  <path
     d="m6,9h1v1h-1z"
     fill="#565656"
     id="path25" />
  <path
     d="m8,13h1v1h-1z"
     fill="#565656"
     id="path27" />
  <path
     d="m8,11h1v1h-1z"
     fill="#565656"
     id="path29" />
  <path
     d="m8,9h1v1h-1z"
     fill="#565656"
     id="path31" />
  <path
     d="m10,13h1v1h-1z"
     fill="#565656"
     id="path33" />
  <path
     d="m10,11h1v1h-1z"
     fill="#565656"
     id="path35" />
  <path
     d="m10,9h1v1h-1z"
     fill="#565656"
     id="path37" />
  <path
     d="m12,13h1v1h-1z"
     fill="#565656"
     id="path39" />
  <path
     d="m12,11h1v1h-1z"
     fill="#565656"
     id="path41" />
  <path
     d="m12,9h1v1h-1z"
     fill="#565656"
     id="path43" />
</svg>
