<?xml version="1.0" encoding="UTF-8" standalone="no"?>
<svg xmlns:dc="http://purl.org/dc/elements/1.1/" xmlns:cc="http://creativecommons.org/ns#" xmlns:rdf="http://www.w3.org/1999/02/22-rdf-syntax-ns#" xmlns:svg="http://www.w3.org/2000/svg" xmlns="http://www.w3.org/2000/svg" xmlns:xlink="http://www.w3.org/1999/xlink" xmlns:sodipodi="http://sodipodi.sourceforge.net/DTD/sodipodi-0.dtd" xmlns:inkscape="http://www.inkscape.org/namespaces/inkscape" viewBox="0 0 16 16" id="svg2" version="1.1" inkscape:version="0.48.3.1 r9886" width="100%" height="100%" sodipodi:docname="user-trash-full.svg">
  <metadata id="metadata51">
    <rdf:RDF>
      <cc:Work rdf:about="">
        <dc:format>image/svg+xml</dc:format>
        <dc:type rdf:resource="http://purl.org/dc/dcmitype/StillImage" />
        <dc:title></dc:title>
      </cc:Work>
    </rdf:RDF>
  </metadata>
  <sodipodi:namedview pagecolor="#ffffff" bordercolor="#666666" borderopacity="1" objecttolerance="10" gridtolerance="10" guidetolerance="10" inkscape:pageopacity="0" inkscape:pageshadow="2" inkscape:window-width="1280" inkscape:window-height="976" id="namedview49" showgrid="true" inkscape:zoom="20.85965" inkscape:cx="9.476144" inkscape:cy="8.2450999" inkscape:window-x="0" inkscape:window-y="24" inkscape:window-maximized="1" inkscape:current-layer="svg2">
    <inkscape:grid type="xygrid" id="grid3028" />
  </sodipodi:namedview>
  <defs id="defs4">
    <linearGradient gradientUnits="userSpaceOnUse" id="linearGradient1022-8-8-3-0-06-59-6" x2="0" y1="3.0069399" y2="11.02436">
      <stop offset="0" id="stop3001-0-9-4-9-02-1" />
      <stop offset="1" stop-color="#363636" id="stop3003-5-6-6-5-70-43" />
    </linearGradient>
    <linearGradient inkscape:collect="always" xlink:href="#linearGradient1022-8-8-3-0-06-59-6" id="linearGradient4120" gradientUnits="userSpaceOnUse" gradientTransform="matrix(1.3439926,0,0,1.2077771,-278.98001,-825.20823)" x1="213.08154" y1="7.8809905" x2="213.08154" y2="21.128468" />
    <linearGradient inkscape:collect="always" xlink:href="#linearGradient1022-8-8-3-0-06-59-6" id="linearGradient4126" gradientUnits="userSpaceOnUse" gradientTransform="matrix(1.3439926,0,0,1.2077771,-261.98001,-827.20823)" x1="213.08154" y1="7.8809905" x2="213.08154" y2="21.128468" />
    <linearGradient inkscape:collect="always" xlink:href="#linearGradient1022-8-8-3-0-06-59-6" id="linearGradient3834" gradientUnits="userSpaceOnUse" gradientTransform="matrix(1.3439926,0,0,1.2077771,-261.98001,-828.20823)" x1="213.08154" y1="7.8809905" x2="213.08154" y2="21.128468" />
    <linearGradient inkscape:collect="always" xlink:href="#linearGradient1022-8-8-3-0-06-59-6" id="linearGradient3847" gradientUnits="userSpaceOnUse" gradientTransform="matrix(-1.3439926,0,0,1.2077771,277.98001,-828.20823)" x1="213.08154" y1="7.8809905" x2="213.08154" y2="21.128468" />
    <linearGradient inkscape:collect="always" xlink:href="#linearGradient1022-8-8-3-0-06-59-6-9" id="linearGradient4126-4" gradientUnits="userSpaceOnUse" gradientTransform="matrix(1.3439926,0,0,1.2077771,-261.98001,-827.20823)" x1="213.08154" y1="7.8809905" x2="213.08154" y2="21.128468" />
    <linearGradient gradientUnits="userSpaceOnUse" id="linearGradient1022-8-8-3-0-06-59-6-9" x2="0" y1="3.0069399" y2="11.02436">
      <stop offset="0" id="stop3001-0-9-4-9-02-1-6" />
      <stop offset="1" stop-color="#363636" id="stop3003-5-6-6-5-70-43-3" />
    </linearGradient>
    <linearGradient inkscape:collect="always" xlink:href="#linearGradient1022-8-8-3-0-06-59-6-9" id="linearGradient3886" gradientUnits="userSpaceOnUse" gradientTransform="matrix(1.3439926,0,0,1.2077771,-261.98001,-827.20823)" x1="213.08154" y1="7.8809905" x2="213.08154" y2="21.128468" />
    <linearGradient inkscape:collect="always" xlink:href="#linearGradient1022-8-8-3-0-06-59-6-9" id="linearGradient3890" gradientUnits="userSpaceOnUse" gradientTransform="matrix(1.3439926,0,0,1.2077771,-261.98001,-827.20823)" x1="213.08154" y1="7.8809905" x2="213.08154" y2="21.128468" />
    <linearGradient inkscape:collect="always" xlink:href="#linearGradient1022-8-8-3-0-06-59-6-9" id="linearGradient3894" gradientUnits="userSpaceOnUse" gradientTransform="matrix(1.3439926,0,0,1.2077771,-261.98001,-827.20823)" x1="213.08154" y1="7.8809905" x2="213.08154" y2="21.128468" />
    <linearGradient inkscape:collect="always" xlink:href="#linearGradient1022-8-8-3-0-06-59-6-9" id="linearGradient3898" gradientUnits="userSpaceOnUse" gradientTransform="matrix(1.3439926,0,0,1.2077771,-261.98001,-827.20823)" x1="213.08154" y1="7.8809905" x2="213.08154" y2="21.128468" />
    <linearGradient inkscape:collect="always" xlink:href="#linearGradient1022-8-8-3-0-06-59-6-9" id="linearGradient3902" gradientUnits="userSpaceOnUse" gradientTransform="matrix(1.3439926,0,0,1.2077771,-261.98001,-827.20823)" x1="213.08154" y1="7.8809905" x2="213.08154" y2="21.128468" />
    <linearGradient inkscape:collect="always" xlink:href="#linearGradient1022-8-8-3-0-06-59-6-9" id="linearGradient3906" gradientUnits="userSpaceOnUse" gradientTransform="matrix(1.3439926,0,0,1.2077771,-261.98001,-827.20823)" x1="213.08154" y1="7.8809905" x2="213.08154" y2="21.128468" />
    <linearGradient inkscape:collect="always" xlink:href="#linearGradient1022-8-8-3-0-06-59-6-9" id="linearGradient3910" gradientUnits="userSpaceOnUse" gradientTransform="matrix(1.3439926,0,0,1.2077771,-261.98001,-827.20823)" x1="213.08154" y1="7.8809905" x2="213.08154" y2="21.128468" />
    <linearGradient inkscape:collect="always" xlink:href="#linearGradient1022-8-8-3-0-06-59-6-9" id="linearGradient3912" gradientUnits="userSpaceOnUse" gradientTransform="matrix(1.3439926,0,0,1.2077771,-261.98001,-827.20823)" x1="213.08154" y1="7.8809905" x2="213.08154" y2="21.128468" />
    <linearGradient inkscape:collect="always" xlink:href="#linearGradient1022-8-8-3-0-06-59-6-9" id="linearGradient3918" gradientUnits="userSpaceOnUse" gradientTransform="matrix(1.3439926,0,0,1.2077771,-262.98001,-827.20823)" x1="213.08154" y1="7.8809905" x2="213.08154" y2="21.128468" />
    <linearGradient inkscape:collect="always" xlink:href="#linearGradient1022-8-8-3-0-06-59-6" id="linearGradient3922" gradientUnits="userSpaceOnUse" gradientTransform="matrix(1.3439926,0,0,1.2077771,-261.98001,-827.20823)" x1="213.08154" y1="7.8809905" x2="213.08154" y2="21.128468" />
    <linearGradient inkscape:collect="always" xlink:href="#linearGradient1022-8-8-3-0-06-59-6" id="linearGradient3926" gradientUnits="userSpaceOnUse" gradientTransform="matrix(1.3439926,0,0,1.2077771,-261.98001,-827.20823)" x1="213.08154" y1="7.8809905" x2="213.08154" y2="21.128468" />
    <linearGradient inkscape:collect="always" xlink:href="#linearGradient1022-8-8-3-0-06-59-6" id="linearGradient3931" gradientUnits="userSpaceOnUse" gradientTransform="matrix(1.3439926,0,0,1.2077771,-261.98001,-827.20823)" x1="213.08154" y1="7.8809905" x2="213.08154" y2="21.128468" />
    <linearGradient inkscape:collect="always" xlink:href="#linearGradient1022-8-8-3-0-06-59-6" id="linearGradient3032" gradientUnits="userSpaceOnUse" gradientTransform="matrix(1.3439926,0,0,1.2077771,-261.98001,-827.20823)" x1="213.08154" y1="7.8809905" x2="213.08154" y2="21.128468" />
  </defs>
  <path id="path3057" style="opacity:0.7;color:black;fill:url(#linearGradient3931);fill-opacity:1;fill-rule:evenodd;stroke:none;stroke-width:1;marker:none;visibility:visible;display:inline;overflow:visible;enable-background:accumulate" d="m 12,13 1,0 0,1 -1,0 z m -3,0 1,0 0,1 -1,0 z m -3,0 1,0 0,1 -1,0 z m -3,0 1,0 0,1 -1,0 z m 9,-2 1,0 0,1 -1,0 z m -3,0 1,0 0,1 -1,0 z m -3,0 1,0 0,1 -1,0 z m -3,0 1,0 0,1 -1,0 z m 9,-2 1,0 0,1 -1,0 z m -3,0 1,0 0,1 -1,0 z M 6,9 7,9 7,10 6,10 z M 3,9 4,9 4,10 3,10 z M 2,1 1,2 l 0,4 0,9 1,1 12,0 1,-1 0,-9 0,-4 -1,-1 z M 2,2 14,2 14,7 2,7 z" />
</svg>
