<?xml version="1.0" encoding="UTF-8" standalone="no"?>
<!-- Created with Inkscape (http://www.inkscape.org/) -->

<svg
   xmlns:dc="http://purl.org/dc/elements/1.1/"
   xmlns:cc="http://creativecommons.org/ns#"
   xmlns:rdf="http://www.w3.org/1999/02/22-rdf-syntax-ns#"
   xmlns:svg="http://www.w3.org/2000/svg"
   xmlns="http://www.w3.org/2000/svg"
   xmlns:xlink="http://www.w3.org/1999/xlink"
   xmlns:sodipodi="http://sodipodi.sourceforge.net/DTD/sodipodi-0.dtd"
   xmlns:inkscape="http://www.inkscape.org/namespaces/inkscape"
   width="16px"
   height="16px"
   id="svg2593"
   sodipodi:version="0.32"
   inkscape:version="0.48.3.1 r9886"
   sodipodi:docname="user-desktop.svg"
   inkscape:output_extension="org.inkscape.output.svg.inkscape"
   version="1.1">
  <defs
     id="defs2595">
    <linearGradient
       id="linearGradient3793-6">
      <stop
         id="stop3795-6"
         offset="0"
         style="stop-color:#56b1d5;stop-opacity:1" />
      <stop
         id="stop3797-1"
         offset="1"
         style="stop-color:#124275;stop-opacity:1;" />
    </linearGradient>
    <linearGradient
       id="linearGradient1056">
      <stop
         style="stop-color:#4482a8;stop-opacity:1;"
         offset="0"
         id="stop1058" />
      <stop
         style="stop-color:#273e57;stop-opacity:1;"
         offset="1"
         id="stop1060" />
    </linearGradient>
    <linearGradient
       inkscape:collect="always"
       xlink:href="#linearGradient1072"
       id="linearGradient1070"
       x1="23.362995"
       y1="35.401203"
       x2="23.362995"
       y2="38.406406"
       gradientUnits="userSpaceOnUse"
       gradientTransform="matrix(0.34146336,0,0,0.66666669,-0.19512199,-10.666668)" />
    <linearGradient
       id="linearGradient1072">
      <stop
         style="stop-color:#ffffff;stop-opacity:1;"
         offset="0"
         id="stop1074" />
      <stop
         style="stop-color:#5a5a5a;stop-opacity:1;"
         offset="1"
         id="stop1076" />
    </linearGradient>
    <radialGradient
       r="1280"
       fy="152.42702"
       fx="1608.7716"
       cy="152.42702"
       cx="1608.7716"
       gradientTransform="matrix(0.00962495,0,0,0.01013707,-5.2438774,5.654951)"
       gradientUnits="userSpaceOnUse"
       id="radialGradient4236"
       xlink:href="#linearGradient3793-6"
       inkscape:collect="always" />
    <linearGradient
       y2="39.357925"
       x2="23.429665"
       y1="8.403966"
       x1="23.429665"
       gradientTransform="matrix(0.34883721,0,0,0.48387096,-0.37209303,-3.6129033)"
       gradientUnits="userSpaceOnUse"
       id="linearGradient4238"
       xlink:href="#linearGradient1056"
       inkscape:collect="always" />
  </defs>
  <sodipodi:namedview
     id="base"
     pagecolor="#ffffff"
     bordercolor="#666666"
     borderopacity="1.0"
     inkscape:pageopacity="0.0"
     inkscape:pageshadow="2"
     inkscape:zoom="22.627417"
     inkscape:cx="16.652456"
     inkscape:cy="10.692951"
     inkscape:current-layer="layer1"
     showgrid="true"
     inkscape:grid-bbox="true"
     inkscape:document-units="px"
     inkscape:window-width="1278"
     inkscape:window-height="993"
     inkscape:window-x="0"
     inkscape:window-y="0"
     inkscape:window-maximized="1"
     inkscape:snap-global="true"
     inkscape:snap-grids="false"
     inkscape:snap-to-guides="false">
    <inkscape:grid
       type="xygrid"
       id="grid965" />
  </sodipodi:namedview>
  <metadata
     id="metadata2598">
    <rdf:RDF>
      <cc:Work
         rdf:about="">
        <dc:format>image/svg+xml</dc:format>
        <dc:type
           rdf:resource="http://purl.org/dc/dcmitype/StillImage" />
        <dc:title />
      </cc:Work>
    </rdf:RDF>
  </metadata>
  <g
     id="layer1"
     inkscape:label="Layer 1"
     inkscape:groupmode="layer">
    <rect
       style="color:#000000;color-interpolation:sRGB;color-interpolation-filters:linearRGB;fill:url(#radialGradient4236);fill-opacity:1;fill-rule:nonzero;stroke:url(#linearGradient4238);stroke-width:0.99999994;stroke-opacity:1;marker:none;visibility:visible;display:inline;overflow:visible;enable-background:accumulate;clip-rule:nonzero"
       id="rect990"
       width="15"
       height="15"
       x="0.49999997"
       y="0.5"
       ry="1.5" />
    <path
       style="fill:#ffffff;fill-opacity:0.68224299;stroke:none;stroke-opacity:0.52156866"
       d="m 16.580806,3.0330898 c 0,0 -2.959951,5.6203302 -8.5000002,4.1875 4.6203092,1.679098 8.5000002,-2.34375 8.5000002,-2.34375 l 0,-1.84375 z m -10.6250002,1.1875 c 0,0 -0.5548395,2.0495806 2.0625,3.03125 -2.3002452,-1.1780415 -2.0625,-3.03125 -2.0625,-3.03125 z m -6.06249997,0.125 0,0.46875 c -1.64067723,0.066331 -2.43750003,0.625 -2.43750003,0.625 l -0.125,1.15625 c 0,0 0.8660133,-0.822456 2.56250003,-1.15625 l 0,1.03125 c -1.19824033,0.1973275 -1.87500003,0.53125 -1.87500003,0.53125 l -0.03125,2.2812502 c 0,0 0.763669,-0.7570291 2.06250003,-1.4062502 0.09424524,0.05553 0.25117929,0.1386566 0.46875,0.25 -1.52405643,0.68611 -2.50000003,1.5312506 -2.50000003,1.5312506 l 0,1.2499996 c 0,0 0.9758268,-1.5680256 2.84375003,-2.6250002 C 2.2272741,8.9252813 4.9659679,9.9285554 8.4870558,9.7518404 13.06277,12.516378 16.487056,10.40809 16.487056,10.40809 l 0,-0.5937496 c 0,0 -3.033855,1.9682186 -7.5312502,-0.09375 0.5529545,-0.04414 1.1328232,-0.109225 1.7187502,-0.21875 0.225815,0.349474 0.621466,0.7078776 1.34375,0.8749996 -0.622387,-0.227707 -1.012726,-0.5767536 -1.25,-0.9062496 0.806387,-0.1556144 1.642047,-0.3509024 2.5,-0.6562506 -0.925144,0.2593812 -1.809397,0.3573572 -2.65625,0.4062502 -0.222668,-0.4247294 -0.25,-0.7812502 -0.25,-0.7812502 0,0 -0.02413,0.3823221 0.15625,0.8125002 C 9.5177578,9.30155 8.553979,9.23669 7.6745558,9.06434 7.2042746,8.782026 6.7317537,8.4427767 6.2370558,8.0643398 c 0.3474209,0.3192161 0.6926988,0.6453171 1.03125,0.90625 -1.46379,-0.3413595 -2.7510394,-0.9163941 -3.8125,-1.5625 0.9093999,-0.1270237 1.9085704,-0.07855 3.03125,0.21875 -1.1043547,-0.360041 -2.1602351,-0.4303684 -3.15625,-0.3125 -0.1720007,-0.1073443 -0.3399254,-0.2033943 -0.5,-0.3125 1.241352,-0.1646665 2.672893,-0.087602 4.28125,0.46875 5.5293582,1.9126796 9.4687502,0.53125 9.4687502,0.53125 l 0.0625,-2.75 c 0,0 -3.642513,4.0701872 -9.4062502,2.0625 -2.0896117,-0.7278766 -3.8523193,-0.9881389 -5.28125,-1 -0.4715677,-0.3743442 -0.8739711,-0.6930778 -1.18749997,-1 C 2.1782515,5.2132732 4.0364838,5.501803 6.3308058,6.5955898 3.7315169,5.2240897 1.7371983,4.8000823 0.29955583,4.7830898 c -0.23422807,-0.2563781 -0.40625,-0.4375 -0.40625,-0.4375 z m 17.59375017,3.96875 c -2.547444,2.5770322 -5.1875,2.0937502 -5.1875,2.0937502 0,0 2.820797,0.879761 5.1875,-2.0937502 z"
       id="path3856"
       inkscape:connector-curvature="0" />
    <rect
       style="color:#000000;color-interpolation:sRGB;color-interpolation-filters:linearRGB;fill:#ffffff;fill-opacity:0.50196078;fill-rule:nonzero;stroke:none;stroke-width:1;marker:none;visibility:visible;display:inline;overflow:visible;enable-background:accumulate;clip-rule:nonzero"
       id="rect1090"
       width="4"
       height="4"
       x="-47.908226"
       y="1.5303302"
       rx="1.0000001"
       ry="0.99999994" />
    <rect
       ry="0.99999994"
       rx="1.0000001"
       y="7.5303297"
       x="-47.908226"
       height="4"
       width="4"
       id="rect1092"
       style="color:#000000;color-interpolation:sRGB;color-interpolation-filters:linearRGB;fill:#ffffff;fill-opacity:0.50196078;fill-rule:nonzero;stroke:none;stroke-width:1;marker:none;visibility:visible;display:inline;overflow:visible;enable-background:accumulate;clip-rule:nonzero" />
    <rect
       style="color:#000000;color-interpolation:sRGB;color-interpolation-filters:linearRGB;fill:#ffffff;fill-opacity:0.50196078;fill-rule:nonzero;stroke:none;stroke-width:1;marker:none;visibility:visible;display:inline;overflow:visible;enable-background:accumulate;clip-rule:nonzero"
       id="rect1094"
       width="4"
       height="4"
       x="-47.908226"
       y="13.53033"
       rx="1.0000001"
       ry="0.99999994" />
    <rect
       ry="0.5"
       y="1.5"
       x="1.5"
       height="13"
       width="13"
       id="rect963"
       style="color:#000000;color-interpolation:sRGB;color-interpolation-filters:linearRGB;fill:none;stroke:#ffffff;stroke-width:1;stroke-miterlimit:4;stroke-opacity:0.50196078;stroke-dasharray:none;marker:none;visibility:visible;display:inline;overflow:visible;enable-background:accumulate;clip-rule:nonzero"
       rx="0.5" />
    <rect
       style="color:#000000;color-interpolation:sRGB;color-interpolation-filters:linearRGB;fill:url(#linearGradient1070);fill-opacity:1;fill-rule:nonzero;stroke:none;stroke-width:0.99999994;marker:none;visibility:visible;display:inline;overflow:visible;enable-background:accumulate;clip-rule:nonzero"
       id="rect1066"
       width="14"
       height="2"
       x="1"
       y="13"
       ry="0.99999982" />
  </g>
</svg>
