<?xml version="1.0" encoding="UTF-8" standalone="no"?>
<!-- Created with Inkscape (http://www.inkscape.org/) -->

<svg
   xmlns:dc="http://purl.org/dc/elements/1.1/"
   xmlns:cc="http://creativecommons.org/ns#"
   xmlns:rdf="http://www.w3.org/1999/02/22-rdf-syntax-ns#"
   xmlns:svg="http://www.w3.org/2000/svg"
   xmlns="http://www.w3.org/2000/svg"
   xmlns:xlink="http://www.w3.org/1999/xlink"
   xmlns:sodipodi="http://sodipodi.sourceforge.net/DTD/sodipodi-0.dtd"
   xmlns:inkscape="http://www.inkscape.org/namespaces/inkscape"
   width="22"
   height="22"
   id="svg4525"
   version="1.1"
   inkscape:version="0.48.4 r9939"
   sodipodi:docname="software-update-urgent.svg">
  <defs
     id="defs4527">
    <linearGradient
       id="linearGradient4266">
      <stop
         style="stop-color:#a60000;stop-opacity:1;"
         offset="0"
         id="stop4268" />
      <stop
         style="stop-color:#ff1313;stop-opacity:1;"
         offset="1"
         id="stop4270" />
    </linearGradient>
    <linearGradient
       inkscape:collect="always"
       xlink:href="#linearGradient4266"
       id="linearGradient3759"
       gradientUnits="userSpaceOnUse"
       gradientTransform="matrix(-0.02970916,0.12123051,-0.12187193,-0.02955279,52.024249,1020.6672)"
       x1="155.12581"
       y1="302.0582"
       x2="309.96011"
       y2="262.68567" />
  </defs>
  <sodipodi:namedview
     id="base"
     pagecolor="#ffffff"
     bordercolor="#666666"
     borderopacity="1.0"
     inkscape:pageopacity="0.0"
     inkscape:pageshadow="2"
     inkscape:zoom="15.839192"
     inkscape:cx="22.98774"
     inkscape:cy="13.772567"
     inkscape:document-units="px"
     inkscape:current-layer="layer1"
     showgrid="true"
     inkscape:window-width="1280"
     inkscape:window-height="974"
     inkscape:window-x="0"
     inkscape:window-y="26"
     inkscape:window-maximized="1"
     inkscape:snap-bbox="true">
    <inkscape:grid
       type="xygrid"
       id="grid3762"
       empspacing="5"
       visible="true"
       enabled="true"
       snapvisiblegridlinesonly="true" />
  </sodipodi:namedview>
  <metadata
     id="metadata4530">
    <rdf:RDF>
      <cc:Work
         rdf:about="">
        <dc:format>image/svg+xml</dc:format>
        <dc:type
           rdf:resource="http://purl.org/dc/dcmitype/StillImage" />
        <dc:title />
      </cc:Work>
    </rdf:RDF>
  </metadata>
  <g
     inkscape:label="Layer 1"
     inkscape:groupmode="layer"
     id="layer1"
     transform="translate(0,-1030.3622)">
    <path
       inkscape:connector-curvature="0"
       style="fill:#000000;fill-opacity:1;stroke:none"
       d="m 11,1031.9675 c -0.45924,4e-4 -2.1453268,3.6242 -2.5694445,3.7993 -0.4241167,0.1752 -4.1894622,-1.1868 -4.5138889,-0.8634 -0.3244266,0.3233 1.0781234,4.0333 0.9027778,4.4555 -0.1753444,0.4223 -3.81987546,2.0992 -3.8194444,2.556 4.322e-4,0.4568 3.6433022,2.134 3.8194444,2.5559 0.1761422,0.4219 -1.1930922,4.1674 -0.8680556,4.4901 0.3250378,0.3228 4.0547189,-1.0724 4.4791667,-0.898 0.4244477,0.1744 2.1102045,3.7998 2.5694445,3.7993 0.45924,-4e-4 2.145327,-3.6241 2.569444,-3.7993 0.424118,-0.1752 4.189462,1.1868 4.513889,0.8635 0.324427,-0.3234 -1.078122,-4.0334 -0.902778,-4.4556 0.175345,-0.4222 3.819876,-2.0991 3.819445,-2.5559 -4.31e-4,-0.4568 -3.643302,-2.1341 -3.819445,-2.556 -0.176142,-0.4218 1.193093,-4.1673 0.868056,-4.4901 -0.325037,-0.3227 -4.054719,1.0725 -4.479167,0.898 -0.424447,-0.1744 -2.110204,-3.7997 -2.569444,-3.7993 z m -0.06944,4.4556 c 0.09382,-0.011 0.184822,-0.018 0.277778,0 0.340342,0.063 0.704086,0.4036 0.798611,0.7253 0.0496,0.1688 0.08367,1.2767 0.06944,3.2467 -0.0208,2.8817 -0.03366,2.9913 -0.173611,3.1777 -0.336265,0.4478 -0.874141,0.6153 -1.319445,0.4144 -0.283892,-0.128 -0.573928,-0.4814 -0.625,-0.7598 -0.02268,-0.1236 -0.04621,-1.5597 -0.03472,-3.1777 l 0.03472,-2.9358 0.208334,-0.2763 c 0.196422,-0.2428 0.482425,-0.3835 0.763888,-0.4145 z M 11,1045.2653 c 0.749851,0 1.01342,0.2072 1.076389,0.898 0.045,0.4937 -0.08939,0.8879 -0.347222,1.0706 -0.201998,0.1431 -0.789633,0.2047 -1.111112,0.1382 -0.499452,-0.1039 -0.755557,-0.5384 -0.694444,-1.2088 0.06297,-0.6908 0.326537,-0.898 1.076389,-0.898 z"
       id="path2999-6-4-9" />
    <path
       style="fill:url(#linearGradient3759);fill-opacity:1;stroke:none"
       d="m 11,1030.8622 c -0.45924,5e-4 -2.1453272,3.6242 -2.5694445,3.7994 -0.4241174,0.1752 -4.1894623,-1.1868 -4.5138889,-0.8635 -0.3244265,0.3233 1.0781227,4.0334 0.9027778,4.4556 -0.1753448,0.4222 -3.81987596,2.0991 -3.8194444,2.5559 4.315e-4,0.4568 3.6433021,2.134 3.8194444,2.5559 0.1761423,0.4219 -1.1930924,4.1674 -0.8680556,4.4901 0.325037,0.3228 4.054719,-1.0724 4.4791667,-0.898 0.4244476,0.1744 2.1102045,3.7998 2.5694445,3.7994 0.45924,-5e-4 2.145327,-3.6242 2.569444,-3.7994 0.424118,-0.1752 4.189462,1.1868 4.513889,0.8635 0.324427,-0.3233 -1.078122,-4.0334 -0.902778,-4.4556 0.175345,-0.4222 3.819876,-2.0991 3.819445,-2.5559 -4.31e-4,-0.4568 -3.643302,-2.134 -3.819445,-2.5559 -0.176142,-0.4219 1.193093,-4.1674 0.868056,-4.4902 -0.325037,-0.3227 -4.054719,1.0725 -4.479167,0.8981 -0.424447,-0.1745 -2.110204,-3.7998 -2.569444,-3.7994 z"
       id="path3768"
       inkscape:connector-curvature="0" />
    <path
       style="fill:#ffffff;fill-opacity:1;stroke:none"
       d="m 10.9375,1035.3309 c -0.281463,0.031 -0.584828,0.1635 -0.78125,0.4063 l -0.1875,0.2812 -0.03125,2.9375 c -0.01149,1.618 0.0086,3.0327 0.03125,3.1563 0.05107,0.2784 0.341108,0.6532 0.625,0.7812 0.445304,0.2008 0.976235,0.01 1.3125,-0.4375 0.139951,-0.1864 0.13545,-0.2746 0.15625,-3.1562 0.01423,-1.9701 -0.0129,-3.0812 -0.0625,-3.25 -0.09453,-0.3217 -0.440908,-0.6558 -0.78125,-0.7188 -0.09296,-0.017 -0.18743,-0.01 -0.28125,0 z M 11,1044.1747 c -0.749852,0 -0.99953,0.1842 -1.0625,0.875 -0.06111,0.6704 0.188048,1.1148 0.6875,1.2187 0.321479,0.067 0.891752,0.018 1.09375,-0.125 0.257832,-0.1827 0.38875,-0.6 0.34375,-1.0937 -0.06297,-0.6908 -0.312649,-0.875 -1.0625,-0.875 z"
       id="path3766"
       inkscape:connector-curvature="0" />
  </g>
</svg>
