<?xml version="1.0" encoding="UTF-8" standalone="no"?>
<!-- Created with Inkscape (http://www.inkscape.org/) -->

<svg xmlns:dc="http://purl.org/dc/elements/1.1/" xmlns:cc="http://creativecommons.org/ns#" xmlns:rdf="http://www.w3.org/1999/02/22-rdf-syntax-ns#" xmlns:svg="http://www.w3.org/2000/svg" xmlns="http://www.w3.org/2000/svg" xmlns:xlink="http://www.w3.org/1999/xlink" xmlns:sodipodi="http://sodipodi.sourceforge.net/DTD/sodipodi-0.dtd" xmlns:inkscape="http://www.inkscape.org/namespaces/inkscape" version="1.0" width="16" height="16" id="svg3437" inkscape:version="0.48.4 r9939" sodipodi:docname="user-desktop.svg">
    <metadata id="metadata101">
        <rdf:RDF>
            <cc:Work rdf:about="">
                <dc:format>image/svg+xml</dc:format>
                <dc:type rdf:resource="http://purl.org/dc/dcmitype/StillImage" />
                <dc:title />
            </cc:Work>
        </rdf:RDF>
    </metadata>
    <sodipodi:namedview pagecolor="#ffffff" bordercolor="#666666" borderopacity="1" objecttolerance="10" gridtolerance="10" guidetolerance="10" inkscape:pageopacity="0" inkscape:pageshadow="2" inkscape:window-width="1280" inkscape:window-height="976" id="namedview99" showgrid="true" inkscape:zoom="22.627417" inkscape:cx="18.183209" inkscape:cy="12.549019" inkscape:window-x="0" inkscape:window-y="24" inkscape:window-maximized="1" inkscape:current-layer="svg3437" inkscape:snap-to-guides="false" inkscape:snap-grids="true" showguides="true" inkscape:guide-bbox="true">
        <inkscape:grid type="xygrid" id="grid911" empspacing="5" visible="true" enabled="true" snapvisiblegridlinesonly="true" />
    </sodipodi:namedview>
    <defs id="defs3439">
        <linearGradient id="linearGradient1008">
            <stop id="stop1010" offset="0" style="stop-color:#b6daf1;stop-opacity:1;" />
            <stop id="stop1012" offset="1" style="stop-color:#005cc5;stop-opacity:0.61290324;" />
        </linearGradient>
        <linearGradient id="linearGradient965">
            <stop id="stop967" offset="0" style="stop-color:#ffffff;stop-opacity:0.31451613;" />
            <stop id="stop969" offset="1" style="stop-color:#ffffff;stop-opacity:0;" />
        </linearGradient>
        <linearGradient id="linearGradient1072">
            <stop style="stop-color:#ffffff;stop-opacity:1;" offset="0" id="stop1074" />
            <stop style="stop-color:#828282;stop-opacity:1;" offset="1" id="stop1076" />
        </linearGradient>
        <linearGradient id="linearGradient1056">
            <stop style="stop-color:#2a5e7f;stop-opacity:1;" offset="0" id="stop1058" />
            <stop style="stop-color:#081625;stop-opacity:1;" offset="1" id="stop1060" />
        </linearGradient>
        <linearGradient id="linearGradient4008">
            <stop id="stop4010" offset="0" style="stop-color:#ffffff;stop-opacity:0.61290324;" />
            <stop id="stop4012" offset="1" style="stop-color:#ffffff;stop-opacity:0.12096774;" />
        </linearGradient>
        <radialGradient r="1280" fy="152.42702" fx="1608.7716" cy="152.42702" cx="1608.7716" gradientTransform="matrix(0.00655207,0,0,0.0062012,-0.3003229,6.3615348)" gradientUnits="userSpaceOnUse" id="radialGradient3858-6" xlink:href="#linearGradient3793-6" inkscape:collect="always" />
        <linearGradient id="linearGradient3793-6">
            <stop id="stop3795-6" offset="0" style="stop-color:#56b1d5;stop-opacity:1" />
            <stop id="stop3797-1" offset="1" style="stop-color:#124275;stop-opacity:1;" />
        </linearGradient>
        <linearGradient inkscape:collect="always" xlink:href="#linearGradient1056" id="linearGradient1062" x1="23.429665" y1="8.403966" x2="23.429665" y2="39.357925" gradientUnits="userSpaceOnUse" gradientTransform="matrix(0.3488372,0,0,0.41935485,-0.37209289,-2.064516)" />
        <linearGradient inkscape:collect="always" xlink:href="#linearGradient1072" id="linearGradient1070" x1="23.362995" y1="35.401203" x2="23.362995" y2="38.406406" gradientUnits="userSpaceOnUse" gradientTransform="matrix(0.46829267,0,0,0.66666667,0.160975,-11.666667)" />
        <linearGradient inkscape:collect="always" xlink:href="#linearGradient965" id="linearGradient971" gradientUnits="userSpaceOnUse" gradientTransform="matrix(0.3023256,0,0,0.35483868,0.74418529,-0.51612856)" x1="23.429665" y1="8.403966" x2="23.429665" y2="39.357925" />
        <linearGradient inkscape:collect="always" xlink:href="#linearGradient1008" id="linearGradient1014" gradientUnits="userSpaceOnUse" gradientTransform="matrix(0.58536577,0,0,0.66666667,-1.048781,-11.666667)" x1="23.362995" y1="35.401203" x2="23.362995" y2="38.406406" />
        <radialGradient inkscape:collect="always" xlink:href="#linearGradient4008" id="radialGradient3810" gradientUnits="userSpaceOnUse" gradientTransform="matrix(0.00669513,0,0,0.00410393,-1.5875858,6.1895753)" cx="1273.4375" cy="266.42468" fx="1273.4375" fy="266.42468" r="1301.5625" />
        <filter id="filter3174-4" color-interpolation-filters="sRGB">
            <feGaussianBlur stdDeviation="1.71" id="feGaussianBlur3176-2" />
        </filter>
        <linearGradient gradientTransform="scale(1.0058652,0.994169)" gradientUnits="userSpaceOnUse" id="ButtonShadow-91" y2="7.0165396" x2="45.447727" y1="92.539597" x1="45.447727">
            <stop offset="0" style="stop-color:#000000;stop-opacity:1" id="stop3750-4" />
            <stop offset="1" style="stop-color:#000000;stop-opacity:0.58823532" id="stop3752-2" />
        </linearGradient>
        <linearGradient gradientUnits="userSpaceOnUse" id="linearGradient4594-3" x1="8.2114201" x2="31.74275" y1="-5.7136502" y2="25.48744">
            <stop offset="0" stop-color="#fff" id="stop37-5-1" />
            <stop offset="1" stop-color="#fff" stop-opacity="0" id="stop39-0" />
        </linearGradient>
        <linearGradient x1="45.447727" y1="92.539597" x2="45.447727" y2="7.0165396" id="ButtonShadow-9" gradientUnits="userSpaceOnUse" gradientTransform="scale(1.0058652,0.994169)">
            <stop id="stop3750-3" style="stop-color:#000000;stop-opacity:1" offset="0" />
            <stop id="stop3752-0" style="stop-color:#000000;stop-opacity:0.58823532" offset="1" />
        </linearGradient>
        <filter color-interpolation-filters="sRGB" id="filter3174-2">
            <feGaussianBlur id="feGaussianBlur3176-1" stdDeviation="1.71" />
        </filter>
        <linearGradient x1="45.447727" y1="92.539597" x2="45.447727" y2="7.0165396" id="ButtonShadow" gradientUnits="userSpaceOnUse" gradientTransform="scale(1.0058652,0.994169)">
            <stop id="stop3750" style="stop-color:#000000;stop-opacity:1" offset="0" />
            <stop id="stop3752" style="stop-color:#000000;stop-opacity:0.58823532" offset="1" />
        </linearGradient>
        <filter color-interpolation-filters="sRGB" id="filter3174">
            <feGaussianBlur id="feGaussianBlur3176" stdDeviation="1.71" />
        </filter>
        <linearGradient inkscape:collect="always" xlink:href="#linearGradient4594-3" id="linearGradient3912" gradientUnits="userSpaceOnUse" gradientTransform="matrix(0.51559279,0,0,0.52054793,30.860695,-4.123287)" x1="8.2114201" y1="-5.7136502" x2="31.74275" y2="25.48744" />
    </defs>
    <rect style="color:black;fill:url(#radialGradient3858-6);fill-opacity:1;fill-rule:nonzero;stroke:url(#linearGradient1062);stroke-width:1;stroke-opacity:1;marker:none;visibility:visible;display:inline;overflow:visible;enable-background:accumulate" id="rect990" width="15" height="13" x="0.49999997" y="1.5" ry="1.9999999" rx="1.9999999" />
    <path style="opacity:0.66489377;fill:url(#radialGradient3810);fill-opacity:1;stroke:none" d="M 15,3.6733697 C 14.853145,3.9415526 12.311238,8.4421382 7.6139705,7.2424446 11.602847,8.6739713 14.921721,5.3480514 15,5.2686377 l 0,-1.595268 z M 5.7610291,4.6467535 c 0,0 -0.4851476,1.7758091 1.8014711,2.6227293 C 5.5529086,6.2531458 5.7610291,4.6467535 5.7610291,4.6467535 z M 1,5.1604843 1,8.3510213 C 1.1038009,8.2854874 1.1978963,8.2237207 1.3088232,8.1617518 2.5023499,8.7145747 4.8682548,9.5787696 7.9227937,9.4325585 11.933755,11.841887 14.948529,10.000366 14.948529,10.000366 l 0,-0.5407686 c 0,0 -2.648985,1.7385866 -6.5882346,-0.054075 C 8.8454266,9.3680164 9.3386516,9.3106388 9.8529416,9.2162522 10.050229,9.5177387 10.405782,9.8291554 11.036765,9.9733302 10.497702,9.7785706 10.163588,9.471146 9.9558828,9.1892147 10.660075,9.0549687 11.368448,8.8847209 12.117647,8.6214069 11.317387,8.8429737 10.56044,8.9565991 9.8272068,8.9999459 9.6208328,8.6238093 9.6213234,8.2969457 9.6213234,8.2969457 c 0,0 -0.054656,0.3318699 0.1029414,0.7030002 C 8.8466706,9.0436119 8.0246865,8.9870799 7.253677,8.8377138 6.8449764,8.5950743 6.4224374,8.2971626 5.9926473,7.9724845 6.3057489,8.2565759 6.6142857,8.5259422 6.9191176,8.7565993 5.637197,8.4650807 4.5296606,7.9617331 3.5992646,7.404678 4.3859323,7.3001484 5.2560842,7.340768 6.2242647,7.5939475 5.2655446,7.285286 4.3361441,7.2244119 3.4705885,7.32356 3.3292641,7.2366892 3.1909791,7.141462 3.0588233,7.0531751 4.1353799,6.9172281 5.3748223,6.9839731 6.764706,7.4587524 11.548025,9.0927091 14.933824,7.9413772 15,7.918406 L 15,5.6471761 C 14.565625,6.0857989 11.525431,8.925755 6.8676473,7.32356 5.04223,6.6956494 3.4836155,6.468596 2.2352942,6.4583298 1.8413993,6.1492749 1.524888,5.8769133 1.2573529,5.6201379 2.4848092,5.5393985 4.0838354,5.7666899 6.0698531,6.7016757 3.9050855,5.573709 2.2400354,5.2071841 1,5.1604843 z m 14,3.7042671 c -1.942873,1.4327886 -3.705882,1.1085767 -3.705882,1.1085767 0,0 1.859611,0.5942069 3.705882,-0.9463461 l 0,-0.1622306 z" id="path3856" inkscape:connector-curvature="0" />
    <rect style="color:black;fill:white;fill-opacity:0.62745098;fill-rule:nonzero;stroke:none;stroke-width:1;marker:none;visibility:visible;display:inline;overflow:visible;enable-background:accumulate" id="rect1090" width="2" height="2" x="3" y="4" />
    <rect y="7" x="3" height="2" width="2" id="rect1092" style="color:black;fill:white;fill-opacity:0.62745098;fill-rule:nonzero;stroke:none;stroke-width:1;marker:none;visibility:visible;display:inline;overflow:visible;enable-background:accumulate" />
    <rect ry="0.99999994" y="2.5000002" x="1.5" height="11" width="13.000001" id="rect963" style="color:black;fill:none;stroke:url(#linearGradient971);stroke-width:0.99999982;stroke-opacity:1;marker:none;visibility:visible;display:inline;overflow:visible;enable-background:accumulate" rx="1.0000001" />
    <path style="color:black;fill:url(#linearGradient1014);fill-opacity:1;fill-rule:nonzero;stroke:none;stroke-width:0.99999994;marker:none;visibility:visible;display:inline;overflow:visible;enable-background:accumulate" d="m 1,12 0,0.576355 C 1,13.417911 1.551621,14 2.450123,14 L 4,14 4,12 z" id="path1006" inkscape:connector-curvature="0" sodipodi:nodetypes="cssccc" />
    <path style="color:black;fill:url(#linearGradient1070);fill-opacity:1;fill-rule:nonzero;stroke:none;stroke-width:0.99999994;marker:none;visibility:visible;display:inline;overflow:visible;enable-background:accumulate" d="m 4,12 0,2 10,0 c 0.379887,0 1.085848,-0.452692 1,-1 l 0,-1 z" id="rect1066" inkscape:connector-curvature="0" sodipodi:nodetypes="ccsscc" />
    <g id="layer2" style="display:none" transform="translate(-23.686565,-209.78881)">
        <rect width="86" height="85" rx="6" ry="6" x="5" y="7" id="rect3745" style="opacity:0.9;fill:url(#ButtonShadow);fill-opacity:1;fill-rule:nonzero;stroke:none;filter:url(#filter3174)" />
    </g>
    <g id="layer4" transform="translate(-23.686565,-209.78881)" />
    <g id="layer2-0" style="display:none" transform="translate(2.877816,-199.33495)">
        <rect width="86" height="85" rx="6" ry="6" x="5" y="7" id="rect3745-7" style="opacity:0.9;fill:url(#ButtonShadow-91);fill-opacity:1;fill-rule:nonzero;stroke:none;filter:url(#filter3174-4)" />
    </g>
    <g id="layer4-3" transform="translate(2.877816,-199.33495)" />
    <g id="layer2-1" style="display:none" transform="translate(59.002817,-196.39972)">
        <rect width="86" height="85" rx="6" ry="6" x="5" y="7" id="rect3745-1" style="opacity:0.9;fill:url(#ButtonShadow-9);fill-opacity:1;fill-rule:nonzero;stroke:none;filter:url(#filter3174-2)" />
    </g>
    <g id="layer4-8" transform="translate(59.002817,-196.39972)" />
    <path style="opacity:0.98999999;fill:url(#linearGradient3912)" inkscape:connector-curvature="0" d="m 40,-1 10,0 c 1.372297,0 2,0.5816126 2,2 l 0,17 -6.652508,0 z" id="path57-5" sodipodi:nodetypes="cssccc" />
</svg>
