<?xml version="1.0" encoding="UTF-8" standalone="no"?>
<!-- Created with Inkscape (http://www.inkscape.org/) -->

<svg
   xmlns:dc="http://purl.org/dc/elements/1.1/"
   xmlns:cc="http://creativecommons.org/ns#"
   xmlns:rdf="http://www.w3.org/1999/02/22-rdf-syntax-ns#"
   xmlns:svg="http://www.w3.org/2000/svg"
   xmlns="http://www.w3.org/2000/svg"
   xmlns:sodipodi="http://sodipodi.sourceforge.net/DTD/sodipodi-0.dtd"
   xmlns:inkscape="http://www.inkscape.org/namespaces/inkscape"
   width="48"
   height="48"
   id="svg2"
   version="1.1"
   inkscape:version="0.91 r13725"
   sodipodi:docname="mainmenu.svg"
   inkscape:export-filename="./lxqt_icon_48.png"
   inkscape:export-xdpi="90"
   inkscape:export-ydpi="90"
   style="enable-background:new">
  <sodipodi:namedview
     id="base"
     pagecolor="#ffffff"
     bordercolor="#666666"
     borderopacity="1.0"
     inkscape:pageopacity="0.0"
     inkscape:pageshadow="2"
     inkscape:zoom="8.6458335"
     inkscape:cx="50.810869"
     inkscape:cy="20.823459"
     inkscape:document-units="px"
     inkscape:current-layer="layer2"
     showgrid="true"
     borderlayer="true"
     inkscape:showpageshadow="false"
     inkscape:snap-bbox="true"
     inkscape:snap-page="true"
     inkscape:window-width="1440"
     inkscape:window-height="841"
     inkscape:window-x="0"
     inkscape:window-y="0"
     inkscape:window-maximized="1"
     showguides="true"
     inkscape:object-paths="false"
     inkscape:object-nodes="true"
     inkscape:snap-nodes="true"
     inkscape:guide-bbox="true"
     inkscape:bbox-paths="false"
     inkscape:snap-bbox-edge-midpoints="false"
     inkscape:snap-smooth-nodes="false"
     inkscape:bbox-nodes="true"
     inkscape:snap-global="true"
     fit-margin-top="0"
     fit-margin-left="0"
     fit-margin-right="0"
     fit-margin-bottom="0"
     inkscape:snap-grids="true">
    <inkscape:grid
       type="xygrid"
       id="grid3064"
       empspacing="5"
       visible="true"
       enabled="true"
       snapvisiblegridlinesonly="true"
       originx="0px"
       originy="0px" />
  </sodipodi:namedview>
  <title
     id="title4078">LXQt</title>
  <defs
     id="defs4" />
  <metadata
     id="metadata7">
    <rdf:RDF>
      <cc:Work
         rdf:about="">
        <dc:format>image/svg+xml</dc:format>
        <dc:type
           rdf:resource="http://purl.org/dc/dcmitype/StillImage" />
        <dc:title>LXQt</dc:title>
        <dc:creator>
          <cc:Agent>
            <dc:title>Giacomo Barazzetti</dc:title>
          </cc:Agent>
        </dc:creator>
        <cc:license
           rdf:resource="http://creativecommons.org/licenses/by-sa/3.0/" />
      </cc:Work>
      <cc:License
         rdf:about="http://creativecommons.org/licenses/by-sa/3.0/">
        <cc:permits
           rdf:resource="http://creativecommons.org/ns#Reproduction" />
        <cc:permits
           rdf:resource="http://creativecommons.org/ns#Distribution" />
        <cc:requires
           rdf:resource="http://creativecommons.org/ns#Notice" />
        <cc:requires
           rdf:resource="http://creativecommons.org/ns#Attribution" />
        <cc:permits
           rdf:resource="http://creativecommons.org/ns#DerivativeWorks" />
        <cc:requires
           rdf:resource="http://creativecommons.org/ns#ShareAlike" />
      </cc:License>
    </rdf:RDF>
  </metadata>
  <g
     inkscape:groupmode="layer"
     id="layer2"
     inkscape:label="Logo"
     transform="translate(-575.98291,-747.48535)"
     style="display:inline">
    <path
       style="color:#000000;font-style:normal;font-variant:normal;font-weight:normal;font-stretch:normal;font-size:medium;line-height:normal;font-family:sans-serif;text-indent:0;text-align:start;text-decoration:none;text-decoration-line:none;text-decoration-style:solid;text-decoration-color:#000000;letter-spacing:normal;word-spacing:normal;text-transform:none;direction:ltr;block-progression:tb;writing-mode:lr-tb;baseline-shift:baseline;text-anchor:start;white-space:normal;clip-rule:nonzero;display:inline;overflow:visible;visibility:visible;opacity:1;isolation:auto;mix-blend-mode:normal;color-interpolation:sRGB;color-interpolation-filters:linearRGB;solid-color:#000000;solid-opacity:1;fill:#d2d8e0;fill-opacity:1;fill-rule:nonzero;stroke:none;stroke-width:1;stroke-linecap:butt;stroke-linejoin:miter;stroke-miterlimit:4;stroke-dasharray:none;stroke-dashoffset:0;stroke-opacity:1;marker:none;color-rendering:auto;image-rendering:auto;shape-rendering:auto;text-rendering:auto;enable-background:accumulate"
       d="m 599.98423,748.48535 c -12.69079,-1e-5 -23.00132,10.30847 -23.00132,22.99999 0,12.69152 10.31053,23.00002 23.00132,23.00001 12.69077,0 22.99868,-10.30851 22.99868,-23.00001 0,-12.69151 -10.30791,-22.99999 -22.99868,-22.99999 z m 0,2.03643 c 11.59026,0 20.96237,9.37262 20.96237,20.96356 0,11.59093 -9.37211,20.96358 -20.96237,20.96358 -11.59028,10e-6 -20.96501,-9.37263 -20.96501,-20.96358 0,-11.59095 9.37473,-20.96356 20.96501,-20.96356 z m 2.85297,7.55706 c -0.94046,0.005 -1.87969,0.24179 -2.70713,0.68943 -1.01837,0.55095 -1.86064,1.41703 -2.38365,2.45007 -0.52299,1.03305 -0.72353,2.22852 -0.56476,3.37549 0.15877,1.14697 0.67434,2.24233 1.45829,3.09442 -0.40733,-0.75771 -0.60038,-1.63096 -0.5515,-2.48986 0.0489,-0.8589 0.33923,-1.70103 0.82991,-2.40764 0.49068,-0.70662 1.1797,-1.27431 1.96738,-1.62013 0.78767,-0.34583 1.67193,-0.46969 2.52417,-0.35267 1.19412,0.16394 2.31741,0.80841 3.05978,1.75801 l 11.8944,0 -10.4361,-1.43717 c -0.86833,-1.64897 -2.58634,-2.82023 -4.43854,-3.02548 -0.21578,-0.0239 -0.43523,-0.0356 -0.65225,-0.0345 z m -18.70598,2.03378 c -0.76459,1.5106 -1.06656,3.24936 -0.85641,4.92933 0.21016,1.68 0.93377,3.29303 2.04691,4.56871 0.62292,0.71388 1.36812,1.31648 2.1901,1.78718 l -2.32797,-0.65494 c -0.11227,1.31222 0.14617,2.65458 0.7371,3.83156 0.59094,1.17699 1.51343,2.18595 2.63289,2.87965 1.66175,1.02978 3.75444,1.3378 5.64228,0.82995 -1.89108,0.0136 -3.76549,-0.92703 -4.88662,-2.45008 -0.6326,-0.8594 -1.03116,-1.88967 -1.14012,-2.95124 l 11.05124,1.80839 -8.93273,-2.51371 c -0.7148,-0.34709 -1.36929,-0.82172 -1.91435,-1.40005 -0.75366,-0.79971 -1.30032,-1.79175 -1.57496,-2.85578 -0.31445,-1.21833 -0.26749,-2.52723 0.13263,-3.72019 l 13.1777,7.38737 -15.97763,-11.47615 z m 21.49265,5.76724 c -0.2608,0.54092 -0.44397,1.12251 -0.53824,1.71559 -0.29232,1.83941 0.25561,3.69727 0.80073,5.47821 0.54513,1.78094 1.10217,3.63344 0.82725,5.47556 -0.20541,1.3763 -0.87917,2.66475 -1.81889,3.69103 -0.93973,1.02627 -2.13718,1.79746 -3.42567,2.32281 -2.12324,0.8657 -4.51151,1.06949 -6.75059,0.57538 l 0,6.12256 1.84011,-4.36984 c 2.3863,0.54426 4.94068,0.32404 7.19868,-0.62047 1.61645,-0.67617 3.09359,-1.72865 4.15747,-3.12094 1.06388,-1.39227 1.69677,-3.13258 1.65186,-4.88426 -0.0539,-2.1053 -1.04692,-4.05601 -2.0098,-5.92897 -0.96289,-1.87295 -1.93812,-3.84157 -1.94882,-5.94755 -9.1e-4,-0.16985 0.005,-0.33965 0.0159,-0.50911 z"
       id="path4489"
       inkscape:connector-curvature="0" />
    <flowRoot
       xml:space="preserve"
       id="flowRoot3012"
       style="font-size:10px;font-style:normal;font-variant:normal;font-weight:normal;font-stretch:normal;text-align:start;line-height:125%;letter-spacing:0px;word-spacing:0px;writing-mode:lr-tb;text-anchor:start;fill:#000000;fill-opacity:1;stroke:none;font-family:FontAwesome;-inkscape-font-specification:FontAwesome"
       transform="translate(-249.22717,-823.47169)"><flowRegion
         id="flowRegion3014"><rect
           id="rect3016"
           width="213"
           height="137"
           x="927"
           y="1114" /></flowRegion><flowPara
         id="flowPara3018" /></flowRoot>    <flowRoot
       xml:space="preserve"
       id="flowRoot3012-8"
       style="font-size:10px;font-style:normal;font-variant:normal;font-weight:normal;font-stretch:normal;text-align:start;line-height:125%;letter-spacing:0px;word-spacing:0px;writing-mode:lr-tb;text-anchor:start;fill:#000000;fill-opacity:1;stroke:none;font-family:FontAwesome;-inkscape-font-specification:FontAwesome"
       transform="translate(-167.24424,-710.91942)"><flowRegion
         id="flowRegion3014-8"><rect
           id="rect3016-2"
           width="213"
           height="137"
           x="927"
           y="1114" /></flowRegion><flowPara
         id="flowPara3018-1" /></flowRoot>  </g>
</svg>
