<?xml version="1.0" encoding="UTF-8" standalone="no"?>
<!-- Created with Inkscape (http://www.inkscape.org/) -->

<svg
   xmlns:dc="http://purl.org/dc/elements/1.1/"
   xmlns:cc="http://creativecommons.org/ns#"
   xmlns:rdf="http://www.w3.org/1999/02/22-rdf-syntax-ns#"
   xmlns:svg="http://www.w3.org/2000/svg"
   xmlns="http://www.w3.org/2000/svg"
   xmlns:sodipodi="http://sodipodi.sourceforge.net/DTD/sodipodi-0.dtd"
   xmlns:inkscape="http://www.inkscape.org/namespaces/inkscape"
   width="100"
   height="32"
   viewBox="0 0 100 32.000001"
   id="svg2"
   version="1.1"
   inkscape:version="0.91 r13725"
   inkscape:export-filename="/home/wolf/preview.png"
   inkscape:export-xdpi="90"
   inkscape:export-ydpi="90"
   sodipodi:docname="preview.svg">
  <defs
     id="defs4" />
  <sodipodi:namedview
     id="base"
     pagecolor="#ffffff"
     bordercolor="#666666"
     borderopacity="1.0"
     inkscape:pageopacity="0.0"
     inkscape:pageshadow="2"
     inkscape:zoom="3.959798"
     inkscape:cx="42.151077"
     inkscape:cy="9.2019814"
     inkscape:document-units="px"
     inkscape:current-layer="layer1"
     showgrid="false"
     units="px"
     inkscape:window-width="1440"
     inkscape:window-height="847"
     inkscape:window-x="0"
     inkscape:window-y="0"
     inkscape:window-maximized="1" />
  <metadata
     id="metadata7">
    <rdf:RDF>
      <cc:Work
         rdf:about="">
        <dc:format>image/svg+xml</dc:format>
        <dc:type
           rdf:resource="http://purl.org/dc/dcmitype/StillImage" />
        <dc:title />
      </cc:Work>
    </rdf:RDF>
  </metadata>
  <g
     inkscape:label="Capa 1"
     inkscape:groupmode="layer"
     id="layer1"
     transform="translate(0,-1020.3622)">
    <rect
       style="opacity:1;fill:#2F343F;fill-opacity:1;stroke:none;stroke-width:0.1"
       id="rect3336"
       width="100"
       height="32"
       x="0"
       y="1020.3622" />
    <g
       style="display:inline;enable-background:new"
       id="g4189"
       transform="matrix(0.93297165,0,0,0.93297133,-561.33469,901.27969)">
      <path
         id="path4191"
         d="m 634.89034,144.78742 a 15.005817,15.005817 0 0 1 -15.00582,15.00582 15.005817,15.005817 0 0 1 -15.00581,-15.00582 15.005817,15.005817 0 0 1 15.00581,-15.00582 15.005817,15.005817 0 0 1 15.00582,15.00582 z"
         style="color:#000000;clip-rule:nonzero;display:inline;overflow:visible;visibility:visible;opacity:1;isolation:auto;mix-blend-mode:normal;color-interpolation:sRGB;color-interpolation-filters:linearRGB;solid-color:#000000;solid-opacity:1;fill:#0068c8;fill-opacity:1;fill-rule:evenodd;stroke:none;stroke-width:1.41732287;stroke-linecap:butt;stroke-linejoin:miter;stroke-miterlimit:4;stroke-dasharray:none;stroke-dashoffset:0;stroke-opacity:1;marker:none;color-rendering:auto;image-rendering:auto;shape-rendering:auto;text-rendering:auto;enable-background:accumulate"
         inkscape:connector-curvature="0" />
      <path
         style="color:#000000;font-style:normal;font-variant:normal;font-weight:normal;font-stretch:normal;font-size:medium;line-height:normal;font-family:sans-serif;text-indent:0;text-align:start;text-decoration:none;text-decoration-line:none;text-decoration-style:solid;text-decoration-color:#000000;letter-spacing:normal;word-spacing:normal;text-transform:none;direction:ltr;block-progression:tb;writing-mode:lr-tb;baseline-shift:baseline;text-anchor:start;white-space:normal;clip-rule:nonzero;display:inline;overflow:visible;visibility:visible;opacity:1;isolation:auto;mix-blend-mode:normal;color-interpolation:sRGB;color-interpolation-filters:linearRGB;solid-color:#000000;solid-opacity:1;fill:#ffffff;fill-opacity:1;fill-rule:nonzero;stroke:none;stroke-width:0.60000002;stroke-linecap:butt;stroke-linejoin:round;stroke-miterlimit:4;stroke-dasharray:none;stroke-dashoffset:0;stroke-opacity:1;color-rendering:auto;image-rendering:auto;shape-rendering:auto;text-rendering:auto;enable-background:accumulate"
         d="m 621.83203,135.33594 a 0.30003001,0.30003001 0 0 0 -0.13867,0.0352 0.30003001,0.30003001 0 0 0 -0.004,0.002 c -0.6411,0.0257 -1.28007,0.16277 -1.8457,0.46875 -0.75008,0.40576 -1.36869,1.04189 -1.75391,1.80273 -0.38522,0.76084 -0.53099,1.63577 -0.41406,2.48047 0.1108,0.80037 0.48851,1.54267 1.01563,2.1543 0.009,0.0181 0.004,0.0407 0.0137,0.0586 l 0.0117,-0.008 c 0.0169,0.0191 0.014,0.0496 0.0312,0.0684 a 0.30003001,0.30003001 0 0 0 0.48437,-0.34571 c -0.25134,-0.46753 -0.37001,-1.00901 -0.33984,-1.53906 0.0302,-0.53005 0.21088,-1.05424 0.51367,-1.49023 0.30279,-0.43601 0.73068,-0.78855 1.2168,-1.00196 0.48609,-0.21339 1.03462,-0.29095 1.56054,-0.21875 0.73523,0.10094 1.43551,0.50328 1.89258,1.08789 a 0.30003001,0.30003001 0 0 0 0.23633,0.11524 l 8.12109,0 a 0.30003001,0.30003001 0 0 0 0.041,-0.59766 l -7.03125,-0.96679 c -0.66516,-1.12693 -1.8292,-1.93563 -3.13281,-2.08008 -0.1589,-0.0176 -0.31903,-0.0262 -0.47852,-0.0254 z m -12.79687,1.38867 a 0.30003001,0.30003001 0 0 0 -0.23828,0.16406 0.30003001,0.30003001 0 0 0 -0.0273,0.0801 0.30003001,0.30003001 0 0 0 0,0.004 c -0.52028,1.06661 -0.73523,2.27722 -0.58789,3.45507 0.15103,1.20726 0.66878,2.36064 1.46875,3.27735 0.12142,0.13914 0.29225,0.22076 0.42578,0.34765 l -0.21289,-0.0605 a 0.30003001,0.30003001 0 0 0 -0.3789,0.26367 c -0.0814,0.95192 0.10453,1.92159 0.5332,2.77539 0.42872,0.85384 1.09414,1.58272 1.90625,2.08594 1.17834,0.73016 2.64147,0.93778 3.98633,0.60547 0.009,-1e-5 0.0166,0.006 0.0254,0.006 l -0.002,-0.008 c 0.0255,-0.006 0.0527,0.003 0.0781,-0.004 a 0.30003001,0.30003001 0 0 0 -0.0801,-0.58985 c -1.19024,0.008 -2.38621,-0.59033 -3.0918,-1.54883 -0.31215,-0.42402 -0.44732,-0.94428 -0.5625,-1.45898 l 7.03907,1.15234 a 0.30003001,0.30003001 0 0 0 0.13086,-0.58398 l -6.06446,-1.70703 c -0.44992,-0.22067 -0.86272,-0.51761 -1.20508,-0.88086 -0.47924,-0.50849 -0.8273,-1.14373 -1.00195,-1.82031 -0.16592,-0.64283 -0.0773,-1.31859 0.0703,-1.9668 l 8.57813,4.80859 a 0.30003001,0.30003001 0 0 0 0.32226,-0.50586 l -10.90234,-7.83203 -0.004,-0.004 a 0.30003001,0.30003001 0 0 0 -0.17578,-0.0547 0.30003001,0.30003001 0 0 0 -0.0293,0 z m 14.69922,3.9375 a 0.30003001,0.30003001 0 0 0 -0.26954,0.16992 c -0.19075,0.39564 -0.32361,0.8181 -0.39257,1.25195 -0.21358,1.3438 0.18385,2.65721 0.55664,3.875 0.37176,1.21453 0.72735,2.4355 0.55273,3.60547 -0.13016,0.87207 -0.55896,1.70052 -1.16406,2.36133 -0.6062,0.66198 -1.38765,1.16536 -2.23242,1.50977 -1.39179,0.56743 -2.96198,0.70083 -4.42969,0.37695 a 0.30003001,0.30003001 0 0 0 -0.36524,0.29297 l 0,4.18164 a 0.30003001,0.30003001 0 0 0 0.57813,0.11523 l 1.17383,-2.78906 c 1.61581,0.31421 3.31659,0.17847 4.83593,-0.45703 1.14577,-0.47923 2.19582,-1.22592 2.95899,-2.22461 0.76449,-1.0004 1.22404,-2.25023 1.19141,-3.52344 -0.0391,-1.52677 -0.75061,-2.89867 -1.40821,-4.17773 -0.65594,-1.27581 -1.29005,-2.57606 -1.29687,-3.92188 -5.9e-4,-0.1086 0.004,-0.21661 0.0117,-0.32421 a 0.30003001,0.30003001 0 0 0 -0.30078,-0.32227 z"
         id="path4193"
         inkscape:connector-curvature="0" />
    </g>
  </g>
</svg>
