<?xml version="1.0" encoding="UTF-8" standalone="no"?>
<!-- Created with Inkscape (http://www.inkscape.org/) -->

<svg xmlns:dc="http://purl.org/dc/elements/1.1/" xmlns:cc="http://creativecommons.org/ns#" xmlns:rdf="http://www.w3.org/1999/02/22-rdf-syntax-ns#" xmlns:svg="http://www.w3.org/2000/svg" xmlns="http://www.w3.org/2000/svg" xmlns:xlink="http://www.w3.org/1999/xlink" xmlns:sodipodi="http://sodipodi.sourceforge.net/DTD/sodipodi-0.dtd" xmlns:inkscape="http://www.inkscape.org/namespaces/inkscape" width="24" height="24" id="svg4700" version="1.1" inkscape:version="0.48.4 r9939" sodipodi:docname="accessories-text-editor.svg">
  <defs id="defs4702">
    <linearGradient inkscape:collect="always" id="linearGradient4158">
      <stop style="stop-color:#d1d1d1;stop-opacity:1" offset="0" id="stop4160" />
      <stop style="stop-color:#fbfbfb;stop-opacity:1" offset="1" id="stop4162" />
    </linearGradient>
    <linearGradient id="linearGradient4050">
      <stop id="stop4052" offset="0" style="stop-color:#ffffff;stop-opacity:0.66929132;" />
      <stop id="stop4054" offset="1" style="stop-color:#ffffff;stop-opacity:0;" />
    </linearGradient>
    <filter id="filter3174" color-interpolation-filters="sRGB">
      <feGaussianBlur stdDeviation="1.71" id="feGaussianBlur3176" />
    </filter>
    <linearGradient gradientTransform="scale(1.0058652,0.994169)" gradientUnits="userSpaceOnUse" id="ButtonShadow" y2="7.0165396" x2="45.447727" y1="92.539597" x1="45.447727">
      <stop offset="0" style="stop-color:#000000;stop-opacity:1" id="stop3750" />
      <stop offset="1" style="stop-color:#000000;stop-opacity:0.58823532" id="stop3752" />
    </linearGradient>
    <linearGradient inkscape:collect="always" xlink:href="#linearGradient4050" id="linearGradient3120" gradientUnits="userSpaceOnUse" gradientTransform="matrix(0.42802318,0,0,0.63267936,-0.30774598,22.444356)" x1="22.440199" y1="4.8942533" x2="22.440199" y2="38.21666" />
    <linearGradient inkscape:collect="always" xlink:href="#linearGradient4158" id="linearGradient3258-1" gradientUnits="userSpaceOnUse" gradientTransform="matrix(1.9511263,0,0,1.9568671,6.866548,-99.119142)" x1="3.3913295" y1="64.298988" x2="3.3913295" y2="74.184616" />
    <linearGradient y2="9.5" x2="10" y1="9.5" x1="4" gradientTransform="matrix(0.83333344,0,0,1.0000001,-2.3333336,-4.0000009)" gradientUnits="userSpaceOnUse" id="linearGradient3497" xlink:href="#linearGradient3916" inkscape:collect="always" />
    <linearGradient y2="9.5" x2="10" y1="9.5" x1="4" gradientTransform="matrix(0.83333344,0,0,1.0000001,-2.3333336,-4.0000009)" gradientUnits="userSpaceOnUse" id="linearGradient3489" xlink:href="#linearGradient3916" inkscape:collect="always" />
    <linearGradient y2="9.5" x2="10" y1="9.5" x1="4" gradientTransform="matrix(0.83333344,0,0,1.0000001,-2.3333336,-4.0000009)" gradientUnits="userSpaceOnUse" id="linearGradient3481" xlink:href="#linearGradient3916" inkscape:collect="always" />
    <linearGradient y2="9.5" x2="10" y1="9.5" x1="4" gradientTransform="matrix(0.83333344,0,0,1.0000001,-2.3333336,-4.0000009)" gradientUnits="userSpaceOnUse" id="linearGradient3468" xlink:href="#linearGradient3916" inkscape:collect="always" />
    <linearGradient id="linearGradient3916">
      <stop style="stop-color:#505050;stop-opacity:1;" offset="0" id="stop3918" />
      <stop id="stop3924" offset="0.5" style="stop-color:#ffffff;stop-opacity:1;" />
      <stop style="stop-color:#505050;stop-opacity:1;" offset="1" id="stop3920" />
    </linearGradient>
    <linearGradient id="linearGradient3866-7">
      <stop style="stop-color:#818181;stop-opacity:1;" offset="0" id="stop3868-9" />
      <stop style="stop-color:#1f597a;stop-opacity:1;" offset="1" id="stop3870-2" />
    </linearGradient>
    <linearGradient gradientUnits="userSpaceOnUse" id="linearGradient3157-5-1" x1="-42.696152" x2="-5.8431101">
      <stop offset="0" stop-color="#fff" id="stop19-9" />
      <stop offset="1" stop-color="#cdcdcd" id="stop21-9" />
    </linearGradient>
    <linearGradient id="linearGradient3853">
      <stop id="stop3855" offset="0" style="stop-color:#ffffff;stop-opacity:1;" />
      <stop id="stop3857" offset="1" style="stop-color:#ffffff;stop-opacity:0;" />
    </linearGradient>
    <linearGradient inkscape:collect="always" xlink:href="#linearGradient3853" id="linearGradient3250" gradientUnits="userSpaceOnUse" gradientTransform="matrix(1,0,0,0.54285714,-4.9999998,23.2)" x1="13" y1="7" x2="13" y2="42" />
    <linearGradient inkscape:collect="always" xlink:href="#linearGradient3157-5-1" id="linearGradient3269" gradientUnits="userSpaceOnUse" gradientTransform="matrix(0,-0.54285714,-0.40000114,0,25.064375,22.915656)" x1="-42.696152" x2="-5.8431101" />
    <linearGradient inkscape:collect="always" xlink:href="#linearGradient3866-7" id="linearGradient3271" gradientUnits="userSpaceOnUse" gradientTransform="matrix(0,-0.54285714,-0.40000114,0,25.064375,22.915656)" x1="-5" y1="-21" x2="-43" y2="-21" />
    <linearGradient inkscape:collect="always" xlink:href="#linearGradient3916" id="linearGradient3276" gradientUnits="userSpaceOnUse" gradientTransform="matrix(0.83333344,0,0,1.0000001,-2.3333334,33.999999)" x1="4" y1="9.5" x2="10" y2="9.5" />
    <linearGradient inkscape:collect="always" xlink:href="#linearGradient3916" id="linearGradient3280" gradientUnits="userSpaceOnUse" gradientTransform="matrix(0.83333344,0,0,1.0000001,-2.3333334,28.999999)" x1="4" y1="9.5" x2="10" y2="9.5" />
    <linearGradient inkscape:collect="always" xlink:href="#linearGradient3916" id="linearGradient3284" gradientUnits="userSpaceOnUse" gradientTransform="matrix(0.83333344,0,0,1.0000001,-2.3333334,23.999999)" x1="4" y1="9.5" x2="10" y2="9.5" />
    <linearGradient inkscape:collect="always" xlink:href="#linearGradient3916" id="linearGradient3288" gradientUnits="userSpaceOnUse" gradientTransform="matrix(0.83333344,0,0,1.0000001,-2.3333334,-5.000001)" x1="4" y1="9.5" x2="10" y2="9.5" />
    <linearGradient y2="9.5" x2="10" y1="9.5" x1="4" gradientTransform="matrix(1.3333335,0,0,2,-1.3333335,-7.0000003)" gradientUnits="userSpaceOnUse" id="linearGradient3318" xlink:href="#linearGradient3916-9" inkscape:collect="always" />
    <linearGradient y2="9.5" x2="10" y1="9.5" x1="4" gradientTransform="matrix(1.3333335,0,0,2,-1.3333333,-0.9999999)" gradientUnits="userSpaceOnUse" id="linearGradient3314" xlink:href="#linearGradient3916-9" inkscape:collect="always" />
    <linearGradient y2="9.5" x2="10" y1="9.5" x1="4" gradientTransform="matrix(1.3333335,0,0,2,-1.3333335,4.9999997)" gradientUnits="userSpaceOnUse" id="linearGradient3310" xlink:href="#linearGradient3916-9" inkscape:collect="always" />
    <linearGradient y2="9.5" x2="10" y1="9.5" x1="4" gradientTransform="matrix(1.3333335,0,0,2,-1.3333333,11)" gradientUnits="userSpaceOnUse" id="linearGradient3306" xlink:href="#linearGradient3916-9" inkscape:collect="always" />
    <linearGradient y2="9.5" x2="10" y1="9.5" x1="4" gradientTransform="matrix(1.3333335,0,0,2,-1.3333333,17)" gradientUnits="userSpaceOnUse" id="linearGradient3302" xlink:href="#linearGradient3916-9" inkscape:collect="always" />
    <linearGradient id="linearGradient3916-9">
      <stop style="stop-color:#505050;stop-opacity:1;" offset="0" id="stop3918-8" />
      <stop id="stop3924-8" offset="0.5" style="stop-color:#c7c7c7;stop-opacity:1;" />
      <stop style="stop-color:#505050;stop-opacity:1;" offset="1" id="stop3920-7" />
    </linearGradient>
    <radialGradient xlink:href="#linearGradient5060-6" r="117.14286" id="radialGradient3131-4" gradientUnits="userSpaceOnUse" gradientTransform="matrix(-0.062142,0,0,0.029001,46.53201,28.085503)" cy="486.64789" cx="605.71429" />
    <radialGradient xlink:href="#linearGradient5060-6" r="117.14286" id="radialGradient3129-9" gradientUnits="userSpaceOnUse" gradientTransform="matrix(0.062142,0,0,0.029001,1.636502,28.085503)" cy="486.64789" cx="605.71429" />
    <linearGradient x2="41.36901" x1="6.40561" id="linearGradient998-0" gradientUnits="userSpaceOnUse">
      <stop id="stop24-44" stop-color="#fff" offset="0" />
      <stop id="stop26-0" stop-opacity="0" stop-color="#fff" offset="1" />
    </linearGradient>
    <linearGradient x2="-5.84311" x1="-42.69615" id="linearGradient3157-5-0" gradientUnits="userSpaceOnUse">
      <stop id="stop19-8" stop-color="#fff" offset="0" />
      <stop id="stop21-6" stop-color="#cdcdcd" offset="1" />
    </linearGradient>
    <linearGradient y2="45.76167" y1="38.7186" x2="0" id="linearGradient3127-93" gradientUnits="userSpaceOnUse">
      <stop id="stop12-1" stop-opacity="0" offset="0" />
      <stop id="stop14-0" offset=".5" />
      <stop id="stop16-50" stop-opacity="0" offset="1" />
    </linearGradient>
    <linearGradient id="linearGradient5060-6">
      <stop id="stop7-2" offset="0" />
      <stop id="stop9-8" stop-opacity="0" offset="1" />
    </linearGradient>
    <linearGradient inkscape:collect="always" xlink:href="#linearGradient3916-9" id="linearGradient3409" gradientUnits="userSpaceOnUse" gradientTransform="matrix(1.3333335,0,0,2,24.138318,34.556157)" x1="4" y1="9.5" x2="10" y2="9.5" />
    <linearGradient inkscape:collect="always" xlink:href="#linearGradient3916-9" id="linearGradient3413" gradientUnits="userSpaceOnUse" gradientTransform="matrix(1.3333335,0,0,2,24.138318,28.556157)" x1="4" y1="9.5" x2="10" y2="9.5" />
    <linearGradient inkscape:collect="always" xlink:href="#linearGradient3916-9" id="linearGradient3417" gradientUnits="userSpaceOnUse" gradientTransform="matrix(1.3333335,0,0,2,24.138318,22.556157)" x1="4" y1="9.5" x2="10" y2="9.5" />
    <linearGradient inkscape:collect="always" xlink:href="#linearGradient3916-9" id="linearGradient3421" gradientUnits="userSpaceOnUse" gradientTransform="matrix(1.3333335,0,0,2,24.138318,16.556157)" x1="4" y1="9.5" x2="10" y2="9.5" />
    <linearGradient inkscape:collect="always" xlink:href="#linearGradient3916-9" id="linearGradient3425" gradientUnits="userSpaceOnUse" gradientTransform="matrix(0.8949773,0,0,1.3424658,-2.3822289,13.646567)" x1="4" y1="9.5" x2="10" y2="9.5" />
    <linearGradient inkscape:collect="always" xlink:href="#linearGradient998-0" id="linearGradient3436" gradientUnits="userSpaceOnUse" x1="6.40561" x2="41.36901" gradientTransform="matrix(0,1,-1,0,25.471651,17.556157)" />
    <linearGradient inkscape:collect="always" xlink:href="#linearGradient3157-5-0" id="linearGradient3445" gradientUnits="userSpaceOnUse" x1="-42.69615" x2="-5.84311" gradientTransform="matrix(0,-1,-1,0,25.471651,17.556157)" />
    <linearGradient inkscape:collect="always" xlink:href="#linearGradient3916-9-8" id="linearGradient3425-4" gradientUnits="userSpaceOnUse" gradientTransform="matrix(0.8949773,0,0,1.3424658,-2.3822289,13.646567)" x1="4" y1="9.5" x2="10" y2="9.5" />
    <linearGradient id="linearGradient3916-9-8">
      <stop style="stop-color:#505050;stop-opacity:1;" offset="0" id="stop3918-8-0" />
      <stop id="stop3924-8-6" offset="0.5" style="stop-color:#c7c7c7;stop-opacity:1;" />
      <stop style="stop-color:#505050;stop-opacity:1;" offset="1" id="stop3920-7-8" />
    </linearGradient>
  </defs>
  <sodipodi:namedview id="base" pagecolor="#ffffff" bordercolor="#666666" borderopacity="1.0" inkscape:pageopacity="0.0" inkscape:pageshadow="2" inkscape:zoom="15.208334" inkscape:cx="18.026205" inkscape:cy="15.903382" inkscape:current-layer="layer1" showgrid="true" inkscape:grid-bbox="true" inkscape:document-units="px" inkscape:window-width="1280" inkscape:window-height="976" inkscape:window-x="0" inkscape:window-y="24" inkscape:window-maximized="1" inkscape:snap-to-guides="false" inkscape:snap-grids="true">
    <inkscape:grid type="xygrid" id="grid1021" empspacing="5" visible="true" enabled="true" snapvisiblegridlinesonly="true" />
  </sodipodi:namedview>
  <metadata id="metadata4705">
    <rdf:RDF>
      <cc:Work rdf:about="">
        <dc:format>image/svg+xml</dc:format>
        <dc:type rdf:resource="http://purl.org/dc/dcmitype/StillImage" />
        <dc:title />
      </cc:Work>
    </rdf:RDF>
  </metadata>
  <g id="layer1" inkscape:label="Layer 1" inkscape:groupmode="layer" transform="translate(0,-24)">
    <g id="layer2" style="display:none" transform="translate(5.204491,-179.6879)">
      <rect width="86" height="85" rx="6" ry="6" x="5" y="7" id="rect3745" style="opacity:0.9;fill:url(#ButtonShadow);fill-opacity:1;fill-rule:nonzero;stroke:none;filter:url(#filter3174)" />
    </g>
    <g id="layer4" transform="translate(5.204491,-179.6879)" />
    <rect style="color:#000000;fill:url(#linearGradient3258-1);fill-opacity:1;fill-rule:nonzero;stroke:#818181;stroke-width:1;stroke-linecap:round;stroke-linejoin:round;stroke-miterlimit:4;stroke-opacity:1;stroke-dasharray:none;stroke-dashoffset:0;marker:none;visibility:visible;display:inline;overflow:visible;enable-background:accumulate" id="rect3874" width="19" height="21" x="2.5" y="25.5" ry="1.9999998" rx="1.9999999" />
    <rect width="17" height="19" ry="1.0000001" x="3.5" y="26.5" id="rect4513" style="fill:none;stroke:url(#linearGradient3120);stroke-width:1;stroke-miterlimit:4;stroke-opacity:1;stroke-dasharray:none" rx="1.0000001" />
    <rect style="color:black;fill:#999;fill-opacity:1;fill-rule:nonzero;stroke:none;stroke-width:1;marker:none;visibility:visible;display:inline;overflow:visible;enable-background:accumulate" id="rect974" width="10" height="1" x="8" y="30" />
    <rect y="32" x="8" height="1" width="10" id="rect4164" style="color:black;fill:#999;fill-opacity:1;fill-rule:nonzero;stroke:none;stroke-width:1;marker:none;visibility:visible;display:inline;overflow:visible;enable-background:accumulate" />
    <rect style="color:black;fill:#999;fill-opacity:1;fill-rule:nonzero;stroke:none;stroke-width:1;marker:none;visibility:visible;display:inline;overflow:visible;enable-background:accumulate" id="rect4166" width="10" height="1" x="8" y="34" />
    <rect y="36" x="8" height="1" width="10" id="rect4168" style="color:black;fill:#999;fill-opacity:1;fill-rule:nonzero;stroke:none;stroke-width:1;marker:none;visibility:visible;display:inline;overflow:visible;enable-background:accumulate" />
    <rect style="color:black;fill:#999;fill-opacity:1;fill-rule:nonzero;stroke:none;stroke-width:1;marker:none;visibility:visible;display:inline;overflow:visible;enable-background:accumulate" id="rect4170" width="9" height="1" x="8" y="38" />
    <rect y="40" x="8" height="1" width="7" id="rect4172" style="color:black;fill:#999;fill-opacity:1;fill-rule:nonzero;stroke:none;stroke-width:1;marker:none;visibility:visible;display:inline;overflow:visible;enable-background:accumulate" />
    <rect style="color:black;fill:#999;fill-opacity:1;fill-rule:nonzero;stroke:none;stroke-width:1;marker:none;visibility:visible;display:inline;overflow:visible;enable-background:accumulate" id="rect4174" width="5" height="1" x="8" y="42" />
    <g id="g4116" transform="matrix(0.37734075,0.37734075,-0.37734075,0.37734075,46.710629,-374.10756)">
      <rect style="color:#000000;fill:#ffffff;fill-opacity:1;fill-rule:evenodd;stroke:none;stroke-width:1;marker:none;visibility:visible;display:inline;overflow:visible;enable-background:accumulate" id="rect4086" width="4" height="16" x="510" y="576.36218" />
      <path sodipodi:nodetypes="ccccc" inkscape:transform-center-y="-5.8662831" inkscape:transform-center-x="-9.3983079" id="rect2383" d="m 514,591.86218 0,-13 -4,0 0,13 z" style="color:#000000;fill:#5a5a5a;fill-opacity:1;fill-rule:evenodd;stroke:none;marker:none;visibility:visible;display:inline;overflow:visible;enable-background:accumulate" inkscape:connector-curvature="0" />
      <path inkscape:connector-curvature="0" id="path3270" d="m 510,592.36218 1,2.5 1,2.5 1,-2.5 1,-2.5 -4,0 z" style="fill:#5a5a5a;fill-opacity:1;fill-rule:evenodd;stroke:none" />
      <path sodipodi:nodetypes="ssccccs" inkscape:connector-curvature="0" id="rect3819" d="m 511.5,573.36218 1,0 c 0.831,0 1.5,0.5305 1.5,1.5 l 0,2 -4,0 0,-2 c 0,-0.9695 0.669,-1.5 1.5,-1.5 z" style="color:#000000;fill:#5a5a5a;fill-opacity:1;fill-rule:evenodd;stroke:none;stroke-width:1;marker:none;visibility:visible;display:inline;overflow:visible;enable-background:accumulate" />
      <rect rx="0.93696052" ry="0.93696052" y="580.36218" x="511" height="10" width="1" id="rect4061" style="color:#000000;fill:#ffffff;fill-opacity:1;fill-rule:evenodd;stroke:none;stroke-width:1;marker:none;visibility:visible;display:inline;overflow:visible;enable-background:accumulate" />
      <rect transform="matrix(0,-1,1,0,0,0)" style="color:#000000;fill:#5a5a5a;fill-opacity:1;fill-rule:evenodd;stroke:none;stroke-width:1;marker:none;visibility:visible;display:inline;overflow:visible;enable-background:accumulate" id="rect4063" width="1" height="4" x="-578.36218" y="510" ry="0.93696052" rx="0.93696052" />
    </g>
    <path style="color:black;fill:#5a5a5a;fill-opacity:1;fill-rule:nonzero;stroke:none;stroke-width:1.33333324999999991;marker:none;visibility:visible;display:inline;overflow:visible;enable-background:accumulate" d="M 5.5 3 C 4.6715729 3 4 3.6715729 4 4.5 C 4 5.3284271 4.6715729 6 5.5 6 C 6.3284271 6 7 5.3284271 7 4.5 C 7 3.6715729 6.3284271 3 5.5 3 z M 5.5 8 C 4.6715729 8 4 8.6715729 4 9.5 C 4 10.328427 4.6715729 11 5.5 11 C 6.3284271 11 7 10.328427 7 9.5 C 7 8.6715729 6.3284271 8 5.5 8 z M 5.5 13 C 4.6715729 13 4 13.671573 4 14.5 C 4 15.328427 4.6715729 16 5.5 16 C 6.3284271 16 7 15.328427 7 14.5 C 7 13.671573 6.3284271 13 5.5 13 z M 5.5 18 C 4.6715729 18 4 18.671573 4 19.5 C 4 20.328427 4.6715729 21 5.5 21 C 6.3284271 21 7 20.328427 7 19.5 C 7 18.671573 6.3284271 18 5.5 18 z " transform="translate(0,24)" id="path3914" />
    <path style="color:black;fill:url(#linearGradient3425-4);fill-opacity:1;fill-rule:nonzero;stroke:none;stroke-width:1;marker:none;visibility:visible;display:inline;overflow:visible;enable-background:accumulate" d="M 1.5,28 C 1.223,28 1,28.223 1,28.5 1,28.777 1.223,29 1.5,29 l 4,0 C 5.777,29 6,28.777 6,28.5 6,28.223 5.777,28 5.5,28 l -4,0 z m 0,5 C 1.223,33 1,33.223 1,33.5 1,33.777 1.223,34 1.5,34 l 4,0 C 5.777,34 6,33.777 6,33.5 6,33.223 5.777,33 5.5,33 l -4,0 z m 0,5 C 1.223,38 1,38.223 1,38.5 1,38.777 1.223,39 1.5,39 l 4,0 C 5.777,39 6,38.777 6,38.5 6,38.223 5.777,38 5.5,38 l -4,0 z m 0,5 C 1.223,43 1,43.223 1,43.5 1,43.777 1.223,44 1.5,44 l 4,0 C 5.777,44 6,43.777 6,43.5 6,43.223 5.777,43 5.5,43 l -4,0 z" id="rect3908" inkscape:connector-curvature="0" />
  </g>
</svg>
