<?xml version="1.0" encoding="UTF-8" standalone="no"?>
<svg xmlns:dc="http://purl.org/dc/elements/1.1/" xmlns:cc="http://creativecommons.org/ns#" xmlns:rdf="http://www.w3.org/1999/02/22-rdf-syntax-ns#" xmlns:svg="http://www.w3.org/2000/svg" xmlns="http://www.w3.org/2000/svg" xmlns:xlink="http://www.w3.org/1999/xlink" xmlns:sodipodi="http://sodipodi.sourceforge.net/DTD/sodipodi-0.dtd" xmlns:inkscape="http://www.inkscape.org/namespaces/inkscape" viewBox="0 0 24 24" id="svg2" version="1.1" inkscape:version="0.48.4 r9939" width="100%" height="100%" sodipodi:docname="brightside.svg">
    <metadata id="metadata51">
        <rdf:RDF>
            <cc:Work rdf:about="">
                <dc:format>image/svg+xml</dc:format>
                <dc:type rdf:resource="http://purl.org/dc/dcmitype/StillImage" />
            </cc:Work>
        </rdf:RDF>
    </metadata>
    <sodipodi:namedview pagecolor="#ffffff" bordercolor="#666666" borderopacity="1" objecttolerance="10" gridtolerance="10" guidetolerance="10" inkscape:pageopacity="0" inkscape:pageshadow="2" inkscape:window-width="1280" inkscape:window-height="976" id="namedview49" showgrid="true" inkscape:zoom="11.313708" inkscape:cx="16.211695" inkscape:cy="7.6342614" inkscape:window-x="0" inkscape:window-y="24" inkscape:window-maximized="1" inkscape:current-layer="svg2" inkscape:snap-bbox="true">
        <inkscape:grid type="xygrid" id="grid3259" empspacing="5" visible="true" enabled="true" snapvisiblegridlinesonly="true" />
    </sodipodi:namedview>
    <defs id="defs4">
        <linearGradient x1="45.447727" y1="92.539597" x2="45.447727" y2="7.0165396" id="ButtonShadow" gradientUnits="userSpaceOnUse" gradientTransform="scale(1.0058652,0.994169)">
            <stop id="stop3750" style="stop-color:#000000;stop-opacity:1" offset="0" />
            <stop id="stop3752" style="stop-color:#000000;stop-opacity:0.58823532" offset="1" />
        </linearGradient>
        <filter color-interpolation-filters="sRGB" id="filter3174">
            <feGaussianBlur id="feGaussianBlur3176" stdDeviation="1.71" />
        </filter>
        <linearGradient inkscape:collect="always" xlink:href="#linearGradient4050-7-5" id="linearGradient3425-6" gradientUnits="userSpaceOnUse" gradientTransform="matrix(0.48872263,0,0,0.50633099,5.8935971,2.5880077)" x1="13.839919" y1="3.2931969" x2="13.839919" y2="23.579182" />
        <linearGradient id="linearGradient4050-7-5">
            <stop id="stop4052-6-5" offset="0" style="stop-color:white;stop-opacity:0.50196081;" />
            <stop id="stop4054-0-9" offset="1" style="stop-color:#ffffff;stop-opacity:0;" />
        </linearGradient>
        <clipPath id="clipPath4235" clipPathUnits="userSpaceOnUse">
            <rect style="color:black;fill:black;fill-opacity:1;fill-rule:nonzero;stroke:none;stroke-width:1;marker:none;visibility:visible;display:inline;overflow:visible;enable-background:accumulate" id="rect4237" width="41" height="41" x="-44.5" y="3.5" ry="3.0022664" rx="3.0022662" transform="scale(-1,1)" />
        </clipPath>
        <filter id="filter3174-9" color-interpolation-filters="sRGB">
            <feGaussianBlur stdDeviation="1.71" id="feGaussianBlur3176-8" />
        </filter>
        <linearGradient gradientTransform="scale(1.0058652,0.994169)" gradientUnits="userSpaceOnUse" id="ButtonShadow-6" y2="7.0165396" x2="45.447727" y1="92.539597" x1="45.447727">
            <stop offset="0" style="stop-color:#000000;stop-opacity:1" id="stop3750-5" />
            <stop offset="1" style="stop-color:#000000;stop-opacity:0.58823532" id="stop3752-1" />
        </linearGradient>
        <linearGradient id="linearGradient5060">
            <stop id="stop5062" style="stop-color:#000000;stop-opacity:1" offset="0" />
            <stop id="stop5064" style="stop-color:#000000;stop-opacity:0" offset="1" />
        </linearGradient>
        <linearGradient id="linearGradient4845">
            <stop style="stop-color:#ffffff;stop-opacity:1;" offset="0" id="stop4847" />
            <stop style="stop-color:#b6b6b6;stop-opacity:1;" offset="1" id="stop4849" />
        </linearGradient>
        <radialGradient inkscape:collect="always" xlink:href="#linearGradient5060" id="radialGradient3221" gradientUnits="userSpaceOnUse" gradientTransform="matrix(0.01951081,0,0,0.00974015,-5.8142638,5.0597415)" cx="605.71429" cy="486.64789" fx="605.71429" fy="486.64789" r="117.14286" />
        <radialGradient inkscape:collect="always" xlink:href="#linearGradient4845" id="radialGradient4008" gradientUnits="userSpaceOnUse" gradientTransform="matrix(-0.86550596,0,0,0.87778478,20.121283,-16.043088)" cx="17.81411" cy="24.149399" fx="17.81411" fy="24.149399" r="9.125" />
        <filter id="filter3174-2" color-interpolation-filters="sRGB">
            <feGaussianBlur stdDeviation="1.71" id="feGaussianBlur3176-9" />
        </filter>
        <linearGradient gradientTransform="scale(1.0058652,0.994169)" gradientUnits="userSpaceOnUse" id="ButtonShadow-3" y2="7.0165396" x2="45.447727" y1="92.539597" x1="45.447727">
            <stop offset="0" style="stop-color:#000000;stop-opacity:1" id="stop3750-8" />
            <stop offset="1" style="stop-color:#000000;stop-opacity:0.58823532" id="stop3752-3" />
        </linearGradient>
        <linearGradient inkscape:collect="always" xlink:href="#linearGradient3783-0-4-1-7" id="linearGradient4226-4" gradientUnits="userSpaceOnUse" gradientTransform="matrix(0.56097561,0,0,0.56097561,1.4634141,-1.4633996)" x1="-9" y1="4" x2="-9" y2="44" />
        <linearGradient id="linearGradient3783-0-4-1-7">
            <stop id="stop3858-7-0-0-8" offset="0" style="stop-color:#8bd2e4;stop-opacity:1;" />
            <stop style="stop-color:#225f9f;stop-opacity:1;" offset="1" id="stop3787-3-7-4-4" />
        </linearGradient>
        <linearGradient inkscape:collect="always" xlink:href="#linearGradient3791-6-4-9-2" id="linearGradient4228-9" gradientUnits="userSpaceOnUse" gradientTransform="matrix(0.56097561,0,0,0.56097561,-25.463414,-1.4633996)" x1="10" y1="43" x2="10" y2="3" />
        <linearGradient id="linearGradient3791-6-4-9-2">
            <stop style="stop-color:#083952;stop-opacity:1;" offset="0" id="stop3793-0-4-8-4" />
            <stop style="stop-color:#75aed0;stop-opacity:1;" offset="1" id="stop3795-8-0-0-8" />
        </linearGradient>
    </defs>
    <rect style="color:black;fill:url(#linearGradient4226-4);fill-opacity:1;fill-rule:nonzero;stroke:url(#linearGradient4228-9);stroke-width:1;stroke-linecap:round;stroke-linejoin:round;stroke-miterlimit:4;stroke-opacity:1;stroke-dasharray:none;stroke-dashoffset:0;marker:none;visibility:visible;display:inline;overflow:visible;enable-background:accumulate" id="rect3874" width="21" height="21" x="1.5" y="1.5" ry="3" rx="3" />
    <g style="font-size:24.41373444px;font-style:normal;font-variant:normal;font-weight:bold;font-stretch:normal;text-align:start;line-height:125%;letter-spacing:0px;word-spacing:0px;writing-mode:lr-tb;text-anchor:start;fill:black;fill-opacity:1;stroke:none;font-family:Century Gothic;-inkscape-font-specification:Century Gothic Bold" id="text3835" transform="translate(-382.29915,-978.63472)" />
    <g id="layer2" style="display:none" transform="translate(5.204491,-203.6879)">
        <rect width="86" height="85" rx="6" ry="6" x="5" y="7" id="rect3745" style="opacity:0.9;fill:url(#ButtonShadow);fill-opacity:1;fill-rule:nonzero;stroke:none;filter:url(#filter3174)" />
    </g>
    <g id="layer4" transform="translate(5.204491,-203.6879)" />
    <rect width="19" height="19" ry="2" x="2.5" y="2.5" id="rect4513-2" style="opacity:0.5;color:black;fill:none;stroke:url(#linearGradient3425-6);stroke-width:1;stroke-linecap:butt;stroke-linejoin:miter;stroke-miterlimit:4;stroke-opacity:1;stroke-dasharray:none;stroke-dashoffset:0;marker:none;visibility:visible;display:inline;overflow:visible;enable-background:accumulate" />
    <path style="font-size:medium;font-style:normal;font-variant:normal;font-weight:normal;font-stretch:normal;text-indent:0;text-align:start;text-decoration:none;line-height:normal;letter-spacing:normal;word-spacing:normal;text-transform:none;direction:ltr;block-progression:tb;writing-mode:lr-tb;text-anchor:start;baseline-shift:baseline;opacity:1;color:black;fill:white;fill-opacity:1;stroke:none;stroke-width:0.75691414000000001;marker:none;visibility:visible;display:inline;overflow:visible;enable-background:accumulate;font-family:Sans;-inkscape-font-specification:Sans" d="m 5,-37.21875 c -23.398386,0 -42.46875,19.070364 -42.46875,42.46875 0,23.398385 19.070364,42.46875 42.46875,42.46875 23.398386,0 42.46875,-19.070365 42.46875,-42.46875 0,-23.398386 -19.070364,-42.46875 -42.46875,-42.46875 z m 0,0.8125 c 23.048762,0 41.65625,18.607487 41.65625,41.65625 0,23.048762 -18.607488,41.65625 -41.65625,41.65625 -23.048762,0 -41.65625,-18.607488 -41.65625,-41.65625 0,-23.048763 18.607488,-41.65625 41.65625,-41.65625 z m 0,9.53125 c -17.76384,0 -32.125,14.36116 -32.125,32.125 0,17.76384 14.36116,32.125 32.125,32.125 17.76384,0 32.125,-14.36116 32.125,-32.125 0,-17.76384 -14.36116,-32.125 -32.125,-32.125 z m 0,0.90625 c 17.223399,0 31.21875,13.995351 31.21875,31.21875 0,17.2234 -13.995351,31.21875 -31.21875,31.21875 -17.223399,0 -31.21875,-13.99535 -31.21875,-31.21875 0,-17.223399 13.995351,-31.21875 31.21875,-31.21875 z M 5,-19.5 C -8.6877785,-19.5 -19.75,-8.4377785 -19.75,5.25 -19.75,18.937779 -8.6877785,30 5,30 18.687779,30 29.75,18.937779 29.75,5.25 29.75,-8.4377785 18.687779,-19.5 5,-19.5 z m 0,1.40625 c 12.877119,0 23.34375,10.4666315 23.34375,23.34375 0,12.877119 -10.466631,23.34375 -23.34375,23.34375 -12.8771185,0 -23.34375,-10.466631 -23.34375,-23.34375 0,-12.8771185 10.4666315,-23.34375 23.34375,-23.34375 z m 0,5.1875 c -10.0259312,0 -18.15625,8.1303187 -18.15625,18.15625 0,10.025931 8.1303188,18.15625 18.15625,18.15625 10.025932,0 18.15625,-8.130319 18.15625,-18.15625 0,-10.0259313 -8.130318,-18.15625 -18.15625,-18.15625 z m 0,1.96875 c 8.945051,0 16.1875,7.2424491 16.1875,16.1875 0,8.94505 -7.242449,16.1875 -16.1875,16.1875 -8.9450508,0 -16.1875,-7.24245 -16.1875,-16.1875 0,-8.9450509 7.2424492,-16.1875 16.1875,-16.1875 z m 0,3 c -7.2585848,0 -13.1875,5.9289152 -13.1875,13.1875 0,7.258585 5.9289152,13.1875 13.1875,13.1875 7.258585,0 13.1875,-5.928915 13.1875,-13.1875 C 18.1875,-2.0085848 12.258585,-7.9375 5,-7.9375 z m 0,3.03125 c 5.637265,0 10.15625,4.51898558 10.15625,10.15625 0,5.637265 -4.518985,10.15625 -10.15625,10.15625 -5.6372644,0 -10.15625,-4.518985 -10.15625,-10.15625 0,-5.63726442 4.5189856,-10.15625 10.15625,-10.15625 z m 0,2 c -4.4912386,0 -8.15625,3.6650114 -8.15625,8.15625 0,4.4912386 3.6650114,8.15625 8.15625,8.15625 4.4912386,0 8.15625,-3.6650114 8.15625,-8.15625 0,-4.4912386 -3.6650114,-8.15625 -8.15625,-8.15625 z" id="path4140" clip-path="url(#clipPath4235)" inkscape:connector-curvature="0" transform="matrix(0.48802455,0,0,0.48802455,0.28741085,0.28741084)" />
    <path d="m 5.9441294,8.6310308 c 0,0 0,2.3653352 0,2.3653352 1.004758,0.0045 2.4290172,-0.529951 2.4290162,-1.1828185 0,-0.6528691 -1.1212346,-1.1825162 -2.4290162,-1.1825167 z" id="path5058" style="opacity:0.5;fill:url(#radialGradient3221);fill-opacity:1;fill-rule:nonzero;stroke:none;stroke-width:104.96237946;marker:none;visibility:visible;display:inline;overflow:visible" inkscape:connector-curvature="0" />
    <path sodipodi:nodetypes="cccssccc" id="path3970" d="m 4.2928908,4.2870569 5.6068506,5.9060031 -2.8034254,0 1.0012242,2.109287 c 0.46458,0.978736 -0.9016701,1.601624 -1.2014698,0.843716 L 5.8948477,10.614918 4.2928908,12.724205 z" style="fill:url(#radialGradient4008);fill-opacity:1;fill-rule:evenodd;stroke:#3c3c3c;stroke-width:1.99458969;stroke-linecap:butt;stroke-linejoin:round;stroke-miterlimit:4;stroke-opacity:1;stroke-dasharray:none;stroke-dashoffset:0;marker:none;visibility:visible;display:inline;overflow:visible" inkscape:connector-curvature="0" />
    <g id="layer2-8" style="display:none" transform="translate(-6.795509,-153.6879)">
        <rect width="86" height="85" rx="6" ry="6" x="5" y="7" id="rect3745-8" style="opacity:0.9;fill:url(#ButtonShadow-6);fill-opacity:1;fill-rule:nonzero;stroke:none;filter:url(#filter3174-9)" />
    </g>
    <g id="layer4-0" transform="translate(-6.795509,-152.6879)" />
    <path inkscape:connector-curvature="0" style="fill:white;fill-opacity:1;stroke:white;stroke-width:0.5;stroke-linecap:butt;stroke-linejoin:round;stroke-miterlimit:4;stroke-opacity:1;stroke-dasharray:none;stroke-dashoffset:0;marker:none;visibility:visible;display:inline;overflow:visible" d="m 4.6933792,5.3417 4.2451882,4.4295028 -2.4429855,0 1.2014684,2.6155162 C 8.0839592,13.228994 7.3770422,13.153966 7.096316,12.51328 L 5.8948477,9.7712028 4.6933792,11.458633 z" sodipodi:nodetypes="cccssccc" id="path3180" />
    <g id="layer2-4" style="display:none" transform="translate(-0.795509,-153.6879)">
        <rect width="86" height="85" rx="6" ry="6" x="5" y="7" id="rect3745-0" style="opacity:0.9;fill:url(#ButtonShadow-3);fill-opacity:1;fill-rule:nonzero;stroke:none;filter:url(#filter3174-2)" />
    </g>
    <g id="layer4-9" transform="translate(-0.795509,-152.6879)" />
    <rect rx="3" ry="3" y="1.5" x="1.5" height="21" width="21" id="rect4285" style="color:black;fill:none;fill-opacity:1;fill-rule:nonzero;stroke:url(#linearGradient4228-9);stroke-width:1;stroke-linecap:round;stroke-linejoin:round;stroke-miterlimit:4;stroke-opacity:1;stroke-dasharray:none;stroke-dashoffset:0;marker:none;visibility:visible;display:inline;overflow:visible;enable-background:accumulate" />
</svg>
