<?xml version="1.0" encoding="UTF-8" standalone="no"?>
<!-- Created with Inkscape (http://www.inkscape.org/) -->

<svg xmlns:dc="http://purl.org/dc/elements/1.1/" xmlns:cc="http://creativecommons.org/ns#" xmlns:rdf="http://www.w3.org/1999/02/22-rdf-syntax-ns#" xmlns:svg="http://www.w3.org/2000/svg" xmlns="http://www.w3.org/2000/svg" xmlns:xlink="http://www.w3.org/1999/xlink" xmlns:sodipodi="http://sodipodi.sourceforge.net/DTD/sodipodi-0.dtd" xmlns:inkscape="http://www.inkscape.org/namespaces/inkscape" width="24" height="24" id="svg3191" version="1.1" inkscape:version="0.48.4 r9939" sodipodi:docname="evince.svg">
    <defs id="defs3193">
        <linearGradient inkscape:collect="always" xlink:href="#linearGradient4594-3" id="linearGradient5698" gradientUnits="userSpaceOnUse" gradientTransform="matrix(0.5155929,0,0,0.4931506,0.860694,1027.4033)" x1="8.2114201" y1="-5.7136502" x2="31.74275" y2="25.48744" />
        <linearGradient gradientUnits="userSpaceOnUse" id="linearGradient4594-3" x1="8.2114201" x2="31.74275" y1="-5.7136502" y2="25.48744">
            <stop offset="0" stop-color="#fff" id="stop37-5-1-3" />
            <stop offset="1" stop-color="#fff" stop-opacity="0" id="stop39-0" />
        </linearGradient>
        <linearGradient inkscape:collect="always" xlink:href="#linearGradient4050" id="linearGradient3120" gradientUnits="userSpaceOnUse" gradientTransform="matrix(0.53950487,0,0,0.61161008,-0.971527,1026.9329)" x1="22.440199" y1="4.8942533" x2="22.440199" y2="38.21666" />
        <linearGradient id="linearGradient4050">
            <stop id="stop4052" offset="0" style="stop-color:#ffffff;stop-opacity:0.66929132;" />
            <stop id="stop4054" offset="1" style="stop-color:#ffffff;stop-opacity:0;" />
        </linearGradient>
        <linearGradient gradientTransform="matrix(0,-1,-1,0,0,0)" x2="-50.520779" x1="-5.3196001" id="linearGradient4132-3-7" gradientUnits="userSpaceOnUse">
            <stop id="stop29-7-7" stop-color="#f65454" offset="0" />
            <stop id="stop31-0-6" stop-color="#740000" offset="1" />
        </linearGradient>
        <linearGradient gradientTransform="matrix(0,-1,-1,0,0,0)" x2="-1.64257" x1="-39.333229" id="linearGradient3298-8-9-5" gradientUnits="userSpaceOnUse">
            <stop style="stop-color:#5f0e0e;stop-opacity:1;" id="stop24-3-6" stop-color="#791235" offset="0" />
            <stop id="stop26-3-8" stop-color="#dd3b27" offset="1" />
        </linearGradient>
        <linearGradient x2="-50.520779" x1="-5.3196001" gradientTransform="matrix(0,-0.51669252,-0.51669252,0,-28.579229,1027.4908)" gradientUnits="userSpaceOnUse" id="linearGradient3187" xlink:href="#linearGradient4132-3-7" inkscape:collect="always" />
        <linearGradient x2="-1.64257" x1="-39.333229" gradientTransform="matrix(0,-0.51669252,-0.51669252,0,-28.579229,1027.4908)" gradientUnits="userSpaceOnUse" id="linearGradient3189" xlink:href="#linearGradient3298-8-9-5" inkscape:collect="always" />
    </defs>
    <sodipodi:namedview id="base" pagecolor="#ffffff" bordercolor="#666666" borderopacity="1.0" inkscape:pageopacity="0.0" inkscape:pageshadow="2" inkscape:zoom="11.2" inkscape:cx="37.407184" inkscape:cy="14.262355" inkscape:document-units="px" inkscape:current-layer="capa1" showgrid="true" inkscape:window-width="1280" inkscape:window-height="976" inkscape:window-x="0" inkscape:window-y="24" inkscape:window-maximized="1">
        <inkscape:grid type="xygrid" id="grid3199" empspacing="5" visible="true" enabled="true" snapvisiblegridlinesonly="true" />
    </sodipodi:namedview>
    <metadata id="metadata3196">
        <rdf:RDF>
            <cc:Work rdf:about="">
                <dc:format>image/svg+xml</dc:format>
                <dc:type rdf:resource="http://purl.org/dc/dcmitype/StillImage" />
                <dc:title />
            </cc:Work>
        </rdf:RDF>
    </metadata>
    <g inkscape:label="Capa 1" inkscape:groupmode="layer" id="capa1" transform="translate(0,-1028.3622)">
        <rect style="color:black;fill:url(#linearGradient3187);fill-opacity:1;fill-rule:nonzero;stroke:url(#linearGradient3189);stroke-width:1;stroke-linecap:round;stroke-linejoin:round;stroke-miterlimit:4;stroke-opacity:1;stroke-dasharray:none;stroke-dashoffset:0;marker:none;visibility:visible;display:inline;overflow:visible;enable-background:accumulate" id="rect3874" width="21" height="21" x="1.5" y="1029.8622" ry="2" rx="2" />
        <path inkscape:connector-curvature="0" style="fill:#480b0b;fill-opacity:0.7455491" d="m 10.541145,1041.5082 c -0.290841,0.5478 -0.575125,1.0556 -0.837579,1.522 1.451803,-0.6083 3.014379,-0.9976 4.501813,-1.2741 -0.199903,-0.138 -0.393963,-0.2842 -0.576557,-0.4387 -0.819097,-0.6935 -1.443571,-1.5586 -1.89624,-2.4691 -0.287075,0.7735 -0.628438,1.5953 -1.191426,2.6599 m -0.551859,-0.2825 c 0.421823,-0.8268 0.90122,-1.7583 1.284927,-2.6936 l 0.151716,-0.3692 c -0.501192,-1.9071 -0.801721,-3.4381 -0.533237,-4.428 0.07228,-0.258 0.371192,-0.4146 0.690761,-0.4146 l 0.194736,0 h 0.03574 c 0.437509,-0.01 0.64352,0.5498 0.666895,0.7662 0.03861,0.3603 -0.128114,0.9702 -0.128114,0.9702 0,-0.2462 0.0096,-0.6442 -0.1458,-0.9876 -0.180936,-0.3974 -0.353769,-0.6347 -0.508731,-0.6724 -0.07823,0.052 -0.154279,0.1605 -0.180336,0.3686 -0.05395,0.2919 -0.07013,0.6603 -0.07013,0.8502 0,0.671 0.132113,1.5566 0.391735,2.4695 0.04898,-0.1413 0.09207,-0.2771 0.126342,-0.4044 0.05324,-0.2005 0.391699,-1.5299 0.391699,-1.5299 0,0 -0.08528,1.7696 -0.204429,2.305 -0.02553,0.1132 -0.05369,0.2251 -0.08302,0.3396 0.428121,1.1962 1.117978,2.2639 1.940929,3.0323 0.324478,0.3032 0.734272,0.5477 1.122127,0.7706 0.847004,-0.121 1.626858,-0.1782 2.277467,-0.171 0.863182,0.011 1.496786,0.1391 1.753355,0.3918 0.125629,0.1228 0.1766,0.2712 0.192437,0.4375 0.0038,0.065 -0.02775,0.2167 -0.03699,0.2549 0.0092,-0.046 0.0092,-0.2733 -0.683672,-0.4945 -0.545715,-0.1745 -1.567061,-0.169 -2.792609,-0.039 1.41753,0.6935 2.79853,1.0381 3.236189,0.8315 0.107002,-0.052 0.23678,-0.2299 0.23678,-0.2299 0,0 -0.07714,0.3505 -0.132526,0.4381 -0.07069,0.095 -0.209369,0.1983 -0.340837,0.2331 -0.691179,0.1844 -2.490344,-0.2423 -4.0588,-1.1386 -1.752373,0.2581 -3.676862,0.7349 -5.2194938,1.2409 -1.515934,2.6566 -2.655634,3.8768 -3.582792,3.4126 l -0.340878,-0.1714 c -0.138551,-0.079 -0.159704,-0.2722 -0.127659,-0.4293 0.108097,-0.5288 0.771262,-1.3254 2.103357,-2.1208 0.143387,-0.087 0.782081,-0.4245 0.782081,-0.4245 0,0 -0.472835,0.4577 -0.583609,0.5475 -1.063234,0.8713 -1.847951,1.9674 -1.828384,2.3924 l 0.0039,0.037 c 0.903183,-0.1287 2.257636,-1.967 3.9989258,-5.3741" id="path3585" />
        <path id="path47" d="m 10.541145,1042.5082 c -0.290841,0.5478 -0.575125,1.0556 -0.837579,1.522 1.451803,-0.6083 3.014379,-0.9976 4.501813,-1.2741 -0.199903,-0.138 -0.393963,-0.2842 -0.576557,-0.4387 -0.819097,-0.6935 -1.443571,-1.5586 -1.89624,-2.4691 -0.287075,0.7734 -0.628438,1.5953 -1.191426,2.6599 m -0.551859,-0.2825 c 0.421823,-0.8268 0.90122,-1.7583 1.284927,-2.6936 l 0.151716,-0.3692 c -0.501192,-1.9072 -0.801721,-3.4381 -0.533237,-4.428 0.07228,-0.258 0.371192,-0.4146 0.690761,-0.4146 l 0.194736,0 h 0.03574 c 0.437509,-0.01 0.64352,0.5498 0.666895,0.7662 0.03861,0.3603 -0.128114,0.9702 -0.128114,0.9702 0,-0.2463 0.0096,-0.6442 -0.1458,-0.9876 -0.180936,-0.3974 -0.353769,-0.6348 -0.508731,-0.6724 -0.07823,0.052 -0.154279,0.1605 -0.180336,0.3686 -0.05395,0.2919 -0.07013,0.6603 -0.07013,0.8502 0,0.671 0.132113,1.5566 0.391735,2.4695 0.04898,-0.1413 0.09207,-0.2771 0.126342,-0.4044 0.05324,-0.2005 0.391699,-1.5299 0.391699,-1.5299 0,0 -0.08528,1.7696 -0.204429,2.305 -0.02553,0.1132 -0.05369,0.2251 -0.08302,0.3396 0.428121,1.1962 1.117978,2.2639 1.940929,3.0323 0.324478,0.3032 0.734272,0.5477 1.122127,0.7706 0.847004,-0.121 1.626858,-0.1782 2.277467,-0.171 0.863182,0.011 1.496786,0.1391 1.753355,0.3918 0.125629,0.1228 0.1766,0.2712 0.192437,0.4375 0.0038,0.065 -0.02775,0.2167 -0.03699,0.2549 0.0092,-0.046 0.0092,-0.2733 -0.683672,-0.4945 -0.545715,-0.1745 -1.567061,-0.169 -2.792609,-0.039 1.41753,0.6935 2.79853,1.0381 3.236189,0.8315 0.107002,-0.052 0.23678,-0.2299 0.23678,-0.2299 0,0 -0.07714,0.3505 -0.132526,0.4381 -0.07069,0.095 -0.209369,0.1983 -0.340837,0.2331 -0.691179,0.1844 -2.490344,-0.2424 -4.0588,-1.1386 -1.752373,0.2581 -3.676862,0.7349 -5.2194938,1.2409 -1.515934,2.6566 -2.655634,3.8768 -3.582792,3.4126 l -0.340878,-0.1714 c -0.138551,-0.079 -0.159704,-0.2722 -0.127659,-0.4293 0.108097,-0.5288 0.771262,-1.3254 2.103357,-2.1208 0.143387,-0.087 0.782081,-0.4245 0.782081,-0.4245 0,0 -0.472835,0.4577 -0.583609,0.5475 -1.063234,0.8713 -1.847951,1.9674 -1.828384,2.3924 l 0.0039,0.037 c 0.903183,-0.1287 2.257636,-1.967 3.9989258,-5.3741" style="fill:white" inkscape:connector-curvature="0" />
        <rect width="19" height="19" ry="0.99999994" x="2.5" y="1030.8622" id="rect4513" style="opacity:0.5;fill:none;stroke:url(#linearGradient3120);stroke-width:1;stroke-miterlimit:4;stroke-opacity:1;stroke-dasharray:none" rx="1" />
        <path style="opacity:0.98999999;fill:url(#linearGradient5698)" inkscape:connector-curvature="0" d="m 10,1030.3622 10.671078,0 c 0.664086,0 1.328922,0.5064 1.328922,1.2515 l 0,16.7485 -6.652508,0 -5.347492,-18 z" id="path57-5-0" sodipodi:nodetypes="cssccc" />
    </g>
</svg>
