<?xml version="1.0" encoding="UTF-8" standalone="no"?>
<!-- Created with Inkscape (http://www.inkscape.org/) -->

<svg xmlns:dc="http://purl.org/dc/elements/1.1/" xmlns:cc="http://creativecommons.org/ns#" xmlns:rdf="http://www.w3.org/1999/02/22-rdf-syntax-ns#" xmlns:svg="http://www.w3.org/2000/svg" xmlns="http://www.w3.org/2000/svg" xmlns:xlink="http://www.w3.org/1999/xlink" xmlns:sodipodi="http://sodipodi.sourceforge.net/DTD/sodipodi-0.dtd" xmlns:inkscape="http://www.inkscape.org/namespaces/inkscape" version="1.0" width="24" height="24" id="svg3395" inkscape:version="0.48.4 r9939" sodipodi:docname="galculator.svg">
    <metadata id="metadata97">
        <rdf:RDF>
            <cc:Work rdf:about="">
                <dc:format>image/svg+xml</dc:format>
                <dc:type rdf:resource="http://purl.org/dc/dcmitype/StillImage" />
                <dc:title />
            </cc:Work>
        </rdf:RDF>
    </metadata>
    <sodipodi:namedview pagecolor="#ffffff" bordercolor="#666666" borderopacity="1" objecttolerance="10" gridtolerance="10" guidetolerance="10" inkscape:pageopacity="0" inkscape:pageshadow="2" inkscape:window-width="1280" inkscape:window-height="976" id="namedview95" showgrid="true" inkscape:zoom="17.788152" inkscape:cx="21.1206" inkscape:cy="11.804011" inkscape:window-x="0" inkscape:window-y="24" inkscape:window-maximized="1" inkscape:current-layer="svg3395" showguides="true" inkscape:guide-bbox="true">
        <inkscape:grid type="xygrid" id="grid4132" empspacing="5" visible="true" enabled="true" snapvisiblegridlinesonly="true" />
    </sodipodi:namedview>
    <defs id="defs3397">
        <linearGradient id="linearGradient3864">
            <stop id="stop3866" offset="0" style="stop-color:#ffffff;stop-opacity:1;" />
            <stop id="stop3868" offset="1" style="stop-color:#ffffff;stop-opacity:0;" />
        </linearGradient>
        <linearGradient id="linearGradient3821">
            <stop id="stop3823" offset="0" style="stop-color:#ffffff;stop-opacity:1;" />
            <stop id="stop3825" offset="1" style="stop-color:#ffffff;stop-opacity:0;" />
        </linearGradient>
        <linearGradient inkscape:collect="always" xlink:href="#linearGradient3821" id="linearGradient3830" gradientUnits="userSpaceOnUse" gradientTransform="matrix(1.461534,0,0,1.4,-0.69229478,-0.2000003)" x1="12.105291" y1="1.5714288" x2="12.105291" y2="15.857143" />
        <linearGradient inkscape:collect="always" xlink:href="#linearGradient3864" id="linearGradient3862" x1="14" y1="4" x2="14" y2="8" gradientUnits="userSpaceOnUse" gradientTransform="matrix(0.99999983,0,0,1.25,1.53e-6,-1.0000001)" />
        <linearGradient id="linearGradient4350-8">
            <stop id="stop4358-7" offset="0" style="stop-color:#76bbff;stop-opacity:1;" />
            <stop style="stop-color:#182d42;stop-opacity:1;" offset="1" id="stop4354-0" />
        </linearGradient>
        <radialGradient inkscape:collect="always" xlink:href="#linearGradient4350-8" id="radialGradient3195" gradientUnits="userSpaceOnUse" gradientTransform="matrix(0.74603182,0,0,1.0442724,-0.62779838,3.0602002)" cx="18.267048" cy="3.1982079" fx="18.267048" fy="3.1982079" r="14" />
        <linearGradient inkscape:collect="always" xlink:href="#linearGradient2490-654-721-5-8" id="linearGradient3203-7" gradientUnits="userSpaceOnUse" gradientTransform="matrix(0.45496356,0,0,0.52994537,33.223727,0.37356458)" x1="31.278551" y1="56.744396" x2="31.278551" y2="4.0075235" />
        <linearGradient id="linearGradient2490-654-721-5-8">
            <stop id="stop2913-7-5" style="stop-color:#3d3d3d;stop-opacity:1;" offset="0" />
            <stop id="stop2915-2-7" style="stop-color:#858585;stop-opacity:1;" offset="1" />
        </linearGradient>
        <linearGradient inkscape:collect="always" xlink:href="#linearGradient3242-52-665-1-9" id="linearGradient3201-0" gradientUnits="userSpaceOnUse" gradientTransform="matrix(0.43751609,0,0,0.60990969,14.905472,-3.4386292)" x1="7.0557384" y1="20.406559" x2="7.0557384" y2="30.244081" />
        <linearGradient id="linearGradient3242-52-665-1-9">
            <stop id="stop2903-6-1" style="stop-color:#eaeaea;stop-opacity:1;" offset="0" />
            <stop id="stop2909-7-36" style="stop-color:#a6a6a6;stop-opacity:1;" offset="1" />
        </linearGradient>
        <linearGradient inkscape:collect="always" xlink:href="#linearGradient2490-654-721-5-7" id="linearGradient3203-2" gradientUnits="userSpaceOnUse" gradientTransform="matrix(0.42463136,0,0,0.54256311,16.30877,-0.98420874)" x1="-17.229767" y1="44.219257" x2="-17.229767" y2="3.6709795" />
        <linearGradient id="linearGradient2490-654-721-5-7">
            <stop id="stop2913-7-9" style="stop-color:#3d3d3d;stop-opacity:1;" offset="0" />
            <stop id="stop2915-2-1" style="stop-color:#858585;stop-opacity:1;" offset="1" />
        </linearGradient>
    </defs>
    <rect width="18.999941" height="21" ry="2" x="2.5" y="1.5" id="rect3968" style="color:black;fill:url(#linearGradient3201-0);fill-opacity:1;fill-rule:nonzero;stroke:url(#linearGradient3203-2);stroke-width:1;stroke-linecap:round;stroke-linejoin:miter;stroke-miterlimit:6;stroke-opacity:1;stroke-dasharray:none;stroke-dashoffset:1.4;marker:none;visibility:visible;display:inline;overflow:visible;enable-background:accumulate" />
    <rect style="color:black;fill:none;stroke:url(#linearGradient3830);stroke-width:1;stroke-miterlimit:4;stroke-opacity:1;stroke-dasharray:none;marker:none;visibility:visible;display:inline;overflow:visible;enable-background:accumulate" id="rect3826" y="2.5" x="3.5" ry="1" height="19" width="16.999949" />
    <rect style="opacity:0.50194576;color:black;fill:none;stroke:#244672;stroke-width:1;stroke-linecap:butt;stroke-linejoin:round;stroke-miterlimit:4;stroke-opacity:1;stroke-dasharray:none;stroke-dashoffset:0;marker:none;visibility:visible;display:inline;overflow:visible;enable-background:accumulate" id="rect3832" width="0" height="0" x="7.7486038e-06" y="2" />
    <rect style="color:black;fill:url(#radialGradient3195);fill-opacity:1;fill-rule:nonzero;stroke:none;stroke-width:1;marker:none;visibility:visible;display:inline;overflow:visible;enable-background:accumulate" id="rect3182" width="14" height="6" x="5" y="4" />
    <path style="fill:url(#linearGradient3862);fill-opacity:1;fill-rule:nonzero;stroke:none;stroke-width:0.99999994;marker:none;visibility:visible;display:inline;overflow:visible" d="m 9,4 8.999998,0 c 0.873181,0 1,0.082033 1,1.25 L 19,9 C 19,9 12,9 9,4 z" id="rect3853" inkscape:connector-curvature="0" sodipodi:nodetypes="ccccc" />
    <path inkscape:connector-curvature="0" id="path3274" d="m 5.0000031,18 0,2 1.9999939,0 0,-2 -1.9999939,0 z" style="color:black;fill:white;fill-opacity:1;fill-rule:nonzero;stroke:none;stroke-width:0.99999994;marker:none;visibility:visible;display:inline;overflow:visible;enable-background:accumulate" />
    <path style="color:black;fill:white;fill-opacity:1;fill-rule:nonzero;stroke:none;stroke-width:0.99999994;marker:none;visibility:visible;display:inline;overflow:visible;enable-background:accumulate" d="m 9,18 0,2 1.999994,0 0,-2 L 9,18 z" id="path3276" inkscape:connector-curvature="0" />
    <path inkscape:connector-curvature="0" id="path3278" d="m 13,18 0,2 1.999994,0 0,-2 L 13,18 z" style="color:black;fill:white;fill-opacity:1;fill-rule:nonzero;stroke:none;stroke-width:0.99999994;marker:none;visibility:visible;display:inline;overflow:visible;enable-background:accumulate" />
    <path style="color:black;fill:white;fill-opacity:1;fill-rule:nonzero;stroke:none;stroke-width:0.99999994;marker:none;visibility:visible;display:inline;overflow:visible;enable-background:accumulate" d="m 17,15.007529 0,5 1.999994,0 0,-5 -1.999994,0 z" id="path3280" inkscape:connector-curvature="0" />
    <path style="color:black;fill:white;fill-opacity:1;fill-rule:nonzero;stroke:none;stroke-width:0.99999994;marker:none;visibility:visible;display:inline;overflow:visible;enable-background:accumulate" d="m 5,15 0,2 1.9999939,0 0,-2 L 5,15 z" id="path3284" inkscape:connector-curvature="0" />
    <path inkscape:connector-curvature="0" id="path3286" d="m 9,15 0,2 1.999994,0 0,-2 L 9,15 z" style="color:black;fill:white;fill-opacity:1;fill-rule:nonzero;stroke:none;stroke-width:0.99999994;marker:none;visibility:visible;display:inline;overflow:visible;enable-background:accumulate" />
    <path style="color:black;fill:white;fill-opacity:1;fill-rule:nonzero;stroke:none;stroke-width:0.99999994;marker:none;visibility:visible;display:inline;overflow:visible;enable-background:accumulate" d="m 13,15 0,2 1.999994,0 0,-2 L 13,15 z" id="path3288" inkscape:connector-curvature="0" />
    <path inkscape:connector-curvature="0" id="path3294" d="m 5,12 0,2 1.9999939,0 0,-2 L 5,12 z" style="color:black;fill:white;fill-opacity:1;fill-rule:nonzero;stroke:none;stroke-width:1;marker:none;visibility:visible;display:inline;overflow:visible;enable-background:accumulate" />
    <path style="color:black;fill:white;fill-opacity:1;fill-rule:nonzero;stroke:none;stroke-width:0.99999994;marker:none;visibility:visible;display:inline;overflow:visible;enable-background:accumulate" d="m 9.0075092,12 0,2 1.9999938,0 0,-2 -1.9999938,0 z" id="path3296" inkscape:connector-curvature="0" />
    <path inkscape:connector-curvature="0" id="path3298" d="m 13,12 0,2 1.999994,0 0,-2 L 13,12 z" style="color:black;fill:white;fill-opacity:1;fill-rule:nonzero;stroke:none;stroke-width:0.99999994;marker:none;visibility:visible;display:inline;overflow:visible;enable-background:accumulate" />
    <path style="color:black;fill:white;fill-opacity:1;fill-rule:nonzero;stroke:none;stroke-width:0.99999994;marker:none;visibility:visible;display:inline;overflow:visible;enable-background:accumulate" d="m 17,12 0,2 1.999994,0 0,-2 L 17,12 z" id="path3300" inkscape:connector-curvature="0" />
    <path style="fill:#757575;fill-opacity:1" d="m 18.999953,16 0,4 -1.999994,0 0,-1 -1.999993,0 0,1 -1.999994,0 0,-1 -1.999994,0 0,1 -1.9999934,0 0,-1 -1.9999938,0 0,1 L 4,20 l 0,1 15.99995,0 0,-5 z" id="path3359" inkscape:connector-curvature="0" sodipodi:nodetypes="ccccccccccccccccccc" />
    <path style="fill:#757575;fill-opacity:1" d="m 7,13 0,1 -3,0 0,1 16,0 0,-2 -1,0 0,1 -2,0 0,-1 -2,0 0,1 -2,0 0,-1 -2,0 0,1 -2,0 0,-1 z" id="path3374" inkscape:connector-curvature="0" sodipodi:nodetypes="ccccccccccccccccccc" />
    <path style="fill:#757575;fill-opacity:1" d="M 7.0000314,16 7,17 l -3,0 0,1 13,0 0,-2 -1.999993,0 -7e-6,1 -2,0 1.3e-5,-1 -1.999994,0 -1.9e-5,1 -2,0 4.52e-5,-1 z" id="path3376" inkscape:connector-curvature="0" sodipodi:nodetypes="ccccccccccccccc" />
    <rect ry="1.1666666" y="3.5000005" x="4.5" height="6.9999995" width="15" id="rect3223" style="color:black;fill:none;stroke:url(#linearGradient3203-7);stroke-width:1;stroke-linecap:round;stroke-linejoin:miter;stroke-miterlimit:6;stroke-opacity:1;stroke-dasharray:none;stroke-dashoffset:1.4;marker:none;visibility:visible;display:inline;overflow:visible;enable-background:accumulate" />
</svg>
