<?xml version="1.0" encoding="UTF-8" standalone="no"?>
<!-- Created with Inkscape (http://www.inkscape.org/) -->

<svg xmlns:dc="http://purl.org/dc/elements/1.1/" xmlns:cc="http://creativecommons.org/ns#" xmlns:rdf="http://www.w3.org/1999/02/22-rdf-syntax-ns#" xmlns:svg="http://www.w3.org/2000/svg" xmlns="http://www.w3.org/2000/svg" xmlns:xlink="http://www.w3.org/1999/xlink" xmlns:sodipodi="http://sodipodi.sourceforge.net/DTD/sodipodi-0.dtd" xmlns:inkscape="http://www.inkscape.org/namespaces/inkscape" width="24" height="24" id="svg3472" version="1.1" inkscape:version="0.48.4 r9939" sodipodi:docname="gimp.svg">
    <defs id="defs3474">
        <linearGradient id="linearGradient3871">
            <stop id="stop3873" offset="0" style="stop-color:#ab9a69;stop-opacity:1" />
            <stop id="stop3875" offset="1" style="stop-color:#221f19;stop-opacity:1;" />
        </linearGradient>
        <linearGradient y2="25.48744" y1="-5.7136502" x2="31.74275" x1="8.2114201" id="linearGradient4594-3-7" gradientUnits="userSpaceOnUse">
            <stop id="stop37-5-1-3-5" stop-color="#fff" offset="0" />
            <stop id="stop39-0-2" stop-opacity="0" stop-color="#fff" offset="1" />
        </linearGradient>
        <linearGradient inkscape:collect="always" xlink:href="#linearGradient4050" id="linearGradient3120" gradientUnits="userSpaceOnUse" gradientTransform="matrix(0.53950487,0,0,0.61161008,-0.971526,1026.933)" x1="22.440199" y1="4.8942533" x2="22.440199" y2="38.21666" />
        <linearGradient id="linearGradient4050">
            <stop id="stop4052" offset="0" style="stop-color:#ffffff;stop-opacity:0.66929132;" />
            <stop id="stop4054" offset="1" style="stop-color:#ffffff;stop-opacity:0;" />
        </linearGradient>
        <linearGradient inkscape:collect="always" xlink:href="#linearGradient4282-3-1" id="linearGradient3132-3" gradientUnits="userSpaceOnUse" gradientTransform="matrix(0.49494157,0,0,0.49494157,22.752167,531.64373)" x1="30" y1="1007.3622" x2="30" y2="1052.3622" />
        <linearGradient id="linearGradient4282-3-1">
            <stop id="stop4284-3-4" offset="0" style="stop-color:#fce94f;stop-opacity:1;" />
            <stop id="stop4286-2-0" offset="1" style="stop-color:#8f5902;stop-opacity:1;" />
        </linearGradient>
        <linearGradient inkscape:collect="always" xlink:href="#linearGradient3899-9-5" id="linearGradient3134-2" gradientUnits="userSpaceOnUse" gradientTransform="matrix(0.49494157,0,0,0.49494157,22.752167,531.64373)" x1="10" y1="1007.3622" x2="10" y2="1049.3365" />
        <linearGradient id="linearGradient3899-9-5">
            <stop style="stop-color:#a88d0b;stop-opacity:1" offset="0" id="stop3901-3-0" />
            <stop style="stop-color:#2b1d03;stop-opacity:1" offset="1" id="stop3903-6-5" />
        </linearGradient>
        <linearGradient inkscape:collect="always" xlink:href="#linearGradient4594-3-7" id="linearGradient3878" gradientUnits="userSpaceOnUse" gradientTransform="matrix(0.51559287,0,0,0.54794558,0.860695,1027.0745)" x1="8.2114201" y1="-5.7136502" x2="31.74275" y2="25.48744" />
        <linearGradient id="linearGradient6482">
            <stop style="stop-color:black;stop-opacity:1;" offset="0" id="stop6484" />
            <stop style="stop-color:black;stop-opacity:1;" offset="1" id="stop6486" />
        </linearGradient>
        <linearGradient inkscape:collect="always" id="linearGradient2446">
            <stop style="stop-color:#ffffff;stop-opacity:1;" offset="0" id="stop2448" />
            <stop style="stop-color:#ffffff;stop-opacity:0;" offset="1" id="stop2450" />
        </linearGradient>
        <linearGradient inkscape:collect="always" id="linearGradient6492">
            <stop style="stop-color:black;stop-opacity:1;" offset="0" id="stop6494" />
            <stop style="stop-color:black;stop-opacity:0;" offset="1" id="stop6496" />
        </linearGradient>
        <linearGradient id="linearGradient8542-3">
            <stop style="stop-color:#5b676b;stop-opacity:1;" offset="0" id="stop8544-3" />
            <stop style="stop-color:#141718;stop-opacity:1;" offset="1" id="stop8546-1" />
        </linearGradient>
        <radialGradient inkscape:collect="always" xlink:href="#linearGradient6492" id="radialGradient4270" gradientUnits="userSpaceOnUse" gradientTransform="matrix(1,0,0,0.284247,0,24.29088)" cx="23" cy="33.9375" fx="23" fy="33.9375" r="18.25" />
        <linearGradient inkscape:collect="always" xlink:href="#linearGradient6482" id="linearGradient4274" gradientUnits="userSpaceOnUse" gradientTransform="matrix(0.678869,0,0,0.676393,-2.25363,-1.189342)" x1="32.350136" y1="28.083355" x2="21.213203" y2="30.293064" />
        <radialGradient inkscape:collect="always" xlink:href="#linearGradient8542-3" id="radialGradient4280" gradientUnits="userSpaceOnUse" gradientTransform="matrix(0.916159,0.09318684,-0.108765,1.069309,3.253668,-3.029272)" cx="6.0242186" cy="25.271027" fx="6.0242186" fy="25.271027" r="4.8310289" />
        <linearGradient inkscape:collect="always" xlink:href="#linearGradient2446" id="linearGradient4290" gradientUnits="userSpaceOnUse" gradientTransform="matrix(0.755165,0.395143,-0.395143,0.755165,-25.91245,6.532586)" x1="13.236155" y1="37.752247" x2="7.7521091" y2="42.282146" />
        <radialGradient inkscape:collect="always" xlink:href="#linearGradient3871" id="radialGradient5195" gradientUnits="userSpaceOnUse" gradientTransform="matrix(1.356817,-4.1277931e-8,3.257645e-8,1.0707969,-13.687022,-10.780432)" cx="21.126528" cy="26.418509" fx="21.126528" fy="26.418509" r="19.2292" />
    </defs>
    <sodipodi:namedview id="base" pagecolor="#ffffff" bordercolor="#666666" borderopacity="1.0" inkscape:pageopacity="0.0" inkscape:pageshadow="2" inkscape:zoom="14.81251" inkscape:cx="17.248661" inkscape:cy="14.118981" inkscape:document-units="px" inkscape:current-layer="capa1" showgrid="true" inkscape:window-width="1280" inkscape:window-height="976" inkscape:window-x="0" inkscape:window-y="24" inkscape:window-maximized="1" inkscape:snap-page="true" inkscape:snap-center="true" inkscape:snap-object-midpoints="true">
        <inkscape:grid type="xygrid" id="grid3480" empspacing="5" visible="true" enabled="true" snapvisiblegridlinesonly="true" />
    </sodipodi:namedview>
    <metadata id="metadata3477">
        <rdf:RDF>
            <cc:Work rdf:about="">
                <dc:format>image/svg+xml</dc:format>
                <dc:type rdf:resource="http://purl.org/dc/dcmitype/StillImage" />
                <dc:title />
            </cc:Work>
        </rdf:RDF>
    </metadata>
    <g inkscape:label="Capa 1" inkscape:groupmode="layer" id="capa1" transform="translate(0,-1028.3622)">
        <rect style="color:black;fill:url(#linearGradient3132-3);stroke:url(#linearGradient3134-2);stroke-width:0.99999994000000003;stroke-linecap:butt;stroke-linejoin:miter;stroke-miterlimit:4;stroke-opacity:1;stroke-dasharray:none;stroke-dashoffset:0;marker:none;visibility:visible;display:inline;overflow:visible;enable-background:accumulate;fill-opacity:1;fill-rule:nonzero" id="rect3874" width="21" height="21" x="1.5000013" y="1029.8622" ry="2" rx="2" />
        <rect width="19" height="19" ry="0.99999994" x="2.4999995" y="1030.8622" id="rect4513" style="opacity:0.5;fill:none;stroke:url(#linearGradient3120);stroke-width:1;stroke-miterlimit:4;stroke-opacity:1;stroke-dasharray:none" rx="1" />
        <rect style="fill:#eeeeec;fill-opacity:1;fill-rule:nonzero;stroke:none;stroke-width:2;marker:none;visibility:visible;display:none;overflow:visible;enable-background:accumulate" id="rect6282" width="256" height="256" x="34.410198" y="887.36218" inkscape:label="256x256" />
        <rect inkscape:label="48x48" y="907.35852" x="310.47269" height="48" width="48" id="rect6284" style="fill:#eeeeec;fill-opacity:1;fill-rule:nonzero;stroke:none;stroke-width:2;marker:none;visibility:visible;display:none;overflow:visible;enable-background:accumulate" />
        <rect style="fill:#eeeeec;fill-opacity:1;fill-rule:nonzero;stroke:none;stroke-width:2;marker:none;visibility:visible;display:none;overflow:visible;enable-background:accumulate" id="rect6592" width="32" height="32" x="317.41019" y="983.35852" inkscape:label="32x32" />
        <rect inkscape:label="22x22" y="1034.421" x="317.41019" height="22" width="22" id="rect6749" style="fill:#eeeeec;fill-opacity:1;fill-rule:nonzero;stroke:none;stroke-width:2;marker:none;visibility:visible;display:none;overflow:visible;enable-background:accumulate" />
        <rect style="fill:#eeeeec;fill-opacity:1;fill-rule:nonzero;stroke:none;stroke-width:2;marker:none;visibility:visible;display:none;overflow:visible;enable-background:accumulate" id="rect6833" width="16" height="16" x="317.41019" y="1076.3622" inkscape:label="16x16" />
        <rect style="fill:#eeeeec;fill-opacity:1;fill-rule:nonzero;stroke:none;stroke-width:2;marker:none;visibility:visible;display:none;overflow:visible;enable-background:accumulate" id="rect5028" width="24" height="24" x="316.36728" y="1033.3157" inkscape:label="24x24" />
        <text inkscape:label="context" sodipodi:linespacing="125%" id="context" y="848.36218" x="35.410198" style="font-size:20px;font-style:normal;font-variant:normal;font-weight:normal;font-stretch:normal;text-align:start;line-height:125%;writing-mode:lr-tb;text-anchor:start;fill:black;fill-opacity:1;stroke:none;display:none;enable-background:new;font-family:Trebuchet MS;-inkscape-font-specification:Trebuchet MS" xml:space="preserve"><tspan y="848.36218" x="35.410198" id="tspan16843" sodipodi:role="line">apps</tspan></text>
        <text inkscape:label="icon-name" sodipodi:linespacing="125%" id="icon-name" y="848.36218" x="173.4102" style="font-size:20px;font-style:normal;font-variant:normal;font-weight:normal;font-stretch:normal;text-align:start;line-height:125%;writing-mode:lr-tb;text-anchor:start;fill:black;fill-opacity:1;stroke:none;display:none;enable-background:new;font-family:Trebuchet MS;-inkscape-font-specification:Trebuchet MS" xml:space="preserve"><tspan y="848.36218" x="173.4102" id="tspan16847" sodipodi:role="line">gimp</tspan></text>
        <g inkscape:label="Layer 1" id="g7013" transform="matrix(0.7665624,0,0,0.7665624,-0.48142649,1028.9409)">
            <path transform="matrix(0.678869,0,0,1.034963,0.435744,-14.9451)" d="m 41.25,33.9375 c 0,2.864977 -8.170803,5.1875 -18.25,5.1875 -10.079197,0 -18.25,-2.322523 -18.25,-5.1875 0,-2.864977 8.170803,-5.1875 18.25,-5.1875 10.079197,0 18.25,2.322523 18.25,5.1875 z" sodipodi:ry="5.1875" sodipodi:rx="18.25" sodipodi:cy="33.9375" sodipodi:cx="23" id="path6490" style="fill:url(#radialGradient4270);fill-opacity:1;fill-rule:evenodd;stroke:none;stroke-width:0.9999997;marker:none;visibility:visible;display:inline;overflow:visible" sodipodi:type="arc" />
            <path inkscape:connector-curvature="0" sodipodi:nodetypes="csscccc" id="path7016" d="m 7.3937235,7.009834 c 0,0 1.9514151,4.009411 6.5166275,3.896299 9.566972,-0.23914 11.244589,-5.2115738 11.484605,-5.9289972 0.240017,-0.7174232 0.607271,-0.6087523 0.69218,0.054292 C 29.207349,33.25007 4.4332979,21.142551 3.5534603,16.336335 8.4737973,14.901489 7.2737151,12.151367 7.2737151,12.151367 L 7.3937235,7.009834 z" style="fill:url(#radialGradient5195);fill-opacity:1;fill-rule:evenodd;stroke:#1f2324;stroke-width:1.30452441999999991;stroke-linecap:butt;stroke-linejoin:miter;stroke-miterlimit:10;stroke-opacity:1;stroke-dasharray:none;stroke-dashoffset:0;marker:none;visibility:visible;display:inline;overflow:visible" />
            <path inkscape:connector-curvature="0" sodipodi:nodetypes="cccsccc" id="path7018" d="m 11.034791,18.913112 c 4.574834,0.911668 6.904572,0.06635 8.26807,-0.982647 -0.360025,-0.463336 -0.975067,-0.971511 -0.975067,-0.971511 0,0 1.597595,0.442322 2.160149,1.165813 0.560943,0.721419 0.208283,1.165903 0.06148,2.088952 -0.326815,-0.810724 -0.936827,-1.114758 -1.019413,-1.436884 -1.22622,1.688905 -4.281251,1.618744 -8.495218,0.136277 z" style="fill:url(#linearGradient4274);fill-opacity:1;fill-rule:evenodd;stroke:none;stroke-width:0.9999997;marker:none;visibility:visible;display:inline;overflow:visible" />
            <path transform="matrix(0.9165486,0,0,0.913233,-54.217988,-7.0499315)" d="m 72.655224,21.837049 c 0,1.75736 -1.424621,3.181981 -3.18198,3.181981 -1.75736,0 -3.181981,-1.424621 -3.181981,-3.181981 0,-1.757359 1.424621,-3.18198 3.181981,-3.18198 1.757359,0 3.18198,1.424621 3.18198,3.18198 z" sodipodi:ry="3.1819806" sodipodi:rx="3.1819806" sodipodi:cy="21.837049" sodipodi:cx="69.473244" id="path4357" style="fill:white;fill-opacity:1;fill-rule:evenodd;stroke:#878787;stroke-width:1.42588234000000003;stroke-linecap:butt;stroke-linejoin:miter;stroke-miterlimit:10;stroke-opacity:1;stroke-dasharray:none;stroke-dashoffset:0;marker:none;visibility:visible;display:inline;overflow:visible" sodipodi:type="arc" />
            <path transform="matrix(0.5302501,-0.3694202,0.3825386,0.5120654,-9.0959442,3.8583959)" d="m 10.429825,27.228739 c 0,3.368272 -1.9390679,6.098796 -4.3310291,6.098796 -2.3919612,0 -4.3310289,-2.730524 -4.3310289,-6.098796 0,-3.368272 1.9390677,-6.098796 4.3310289,-6.098796 2.3919612,0 4.3310291,2.730524 4.3310291,6.098796 z" sodipodi:ry="6.0987959" sodipodi:rx="4.3310289" sodipodi:cy="27.228739" sodipodi:cx="6.0987959" id="path7023" style="fill:url(#radialGradient4280);fill-opacity:1;fill-rule:evenodd;stroke:black;stroke-width:2.03030586;stroke-linecap:butt;stroke-linejoin:miter;stroke-miterlimit:10;stroke-opacity:1;stroke-dasharray:none;stroke-dashoffset:0;marker:none;visibility:visible;display:inline;overflow:visible" sodipodi:type="arc" />
            <path sodipodi:type="arc" style="fill:#2e3436;fill-opacity:1;fill-rule:evenodd;stroke:black;stroke-width:2.98942566;stroke-linecap:butt;stroke-linejoin:miter;stroke-miterlimit:10;stroke-opacity:1;stroke-dasharray:none;stroke-dashoffset:0;marker:none;visibility:visible;display:inline;overflow:visible" id="path4359" sodipodi:cx="21.743534" sodipodi:cy="21.837049" sodipodi:rx="2.2980971" sodipodi:ry="2.2980971" d="m 24.041631,21.837049 c 0,1.269204 -1.028893,2.298098 -2.298097,2.298098 -1.269204,0 -2.298097,-1.028894 -2.298097,-2.298098 0,-1.269204 1.028893,-2.298097 2.298097,-2.298097 1.269204,0 2.298097,1.028893 2.298097,2.298097 z" transform="matrix(0.4371777,0,0,0.43558335,0.64034327,4.1418469)" />
            <path transform="matrix(0.678869,0,0,0.676393,0.350886,-1.423355)" d="m 5.833631,23.251263 c 0,1.171572 -0.7914562,2.12132 -1.7677669,2.12132 -0.9763107,0 -1.767767,-0.949748 -1.767767,-2.12132 0,-1.171573 0.7914563,-2.121321 1.767767,-2.121321 0.9763107,0 1.7677669,0.949748 1.7677669,2.121321 z" sodipodi:ry="2.1213202" sodipodi:rx="1.767767" sodipodi:cy="23.251263" sodipodi:cx="4.0658641" id="path7027" style="fill:white;fill-opacity:1;fill-rule:evenodd;stroke:none;stroke-width:0.9999997;marker:none;visibility:visible;display:inline;overflow:visible" sodipodi:type="arc" />
            <path sodipodi:type="arc" style="fill:white;fill-opacity:1;fill-rule:evenodd;stroke:none;stroke-width:0.9999997;marker:none;visibility:visible;display:inline;overflow:visible" id="path4361" sodipodi:cx="21.38998" sodipodi:cy="20.953165" sodipodi:rx="1.767767" sodipodi:ry="1.767767" d="m 23.157747,20.953165 c 0,0.976311 -0.791456,1.767767 -1.767767,1.767767 -0.97631,0 -1.767767,-0.791456 -1.767767,-1.767767 0,-0.976311 0.791457,-1.767767 1.767767,-1.767767 0.976311,0 1.767767,0.791456 1.767767,1.767767 z" transform="matrix(0.39345962,0,0,0.39202478,1.3436161,4.9775311)" />
            <path sodipodi:type="arc" style="fill:white;fill-opacity:1;fill-rule:evenodd;stroke:#878787;stroke-width:1.15865134999999997;stroke-linecap:butt;stroke-linejoin:miter;stroke-miterlimit:10;stroke-opacity:1;stroke-dasharray:none;stroke-dashoffset:0;marker:none;visibility:visible;display:inline;overflow:visible" id="path7030" sodipodi:cx="69.473244" sodipodi:cy="21.837049" sodipodi:rx="3.1819806" sodipodi:ry="3.1819806" d="m 72.655224,21.837049 c 0,1.75736 -1.424621,3.181981 -3.18198,3.181981 -1.75736,0 -3.181981,-1.424621 -3.181981,-3.181981 0,-1.757359 1.424621,-3.18198 3.181981,-3.18198 1.757359,0 3.18198,1.424621 3.18198,3.18198 z" transform="matrix(1.1279315,0,0,1.123871,-62.696754,-11.917673)" />
            <path transform="matrix(0.68775682,0,0,0.6852484,1.7459949,-1.49035)" d="m 24.041631,21.837049 c 0,1.269204 -1.028893,2.298098 -2.298097,2.298098 -1.269204,0 -2.298097,-1.028894 -2.298097,-2.298098 0,-1.269204 1.028893,-2.298097 2.298097,-2.298097 1.269204,0 2.298097,1.028893 2.298097,2.298097 z" sodipodi:ry="2.2980971" sodipodi:rx="2.2980971" sodipodi:cy="21.837049" sodipodi:cx="21.743534" id="path7032" style="fill:#2e3436;fill-opacity:1;fill-rule:evenodd;stroke:black;stroke-width:1.90024996;stroke-linecap:butt;stroke-linejoin:miter;stroke-miterlimit:10;stroke-opacity:1;stroke-dasharray:none;stroke-dashoffset:0;marker:none;visibility:visible;display:inline;overflow:visible" sodipodi:type="arc" />
            <path transform="matrix(0.61898204,0,0,0.61672386,3.0423222,0.16021903)" d="m 23.157747,20.953165 c 0,0.976311 -0.791456,1.767767 -1.767767,1.767767 -0.97631,0 -1.767767,-0.791456 -1.767767,-1.767767 0,-0.976311 0.791457,-1.767767 1.767767,-1.767767 0.976311,0 1.767767,0.791456 1.767767,1.767767 z" sodipodi:ry="1.767767" sodipodi:rx="1.767767" sodipodi:cy="20.953165" sodipodi:cx="21.38998" id="path7034" style="fill:white;fill-opacity:1;fill-rule:evenodd;stroke:none;stroke-width:0.9999997;marker:none;visibility:visible;display:inline;overflow:visible" sodipodi:type="arc" />
            <g transform="matrix(-0.07796952,-0.263701,0.264667,-0.0776851,17.12919,18.65836)" id="g8463">
                <path inkscape:connector-curvature="0" style="fill:#ea8113;fill-opacity:1;fill-rule:nonzero;stroke:#4e2b05;stroke-width:1.89467454999999996;stroke-linecap:round;stroke-linejoin:miter;stroke-miterlimit:4;stroke-opacity:1;stroke-dasharray:none;stroke-dashoffset:0;marker:none;visibility:visible;display:inline;overflow:visible" d="m -21.867446,22.469825 3.167705,2.99392 C -11.529027,19.909969 -3.9927711,7.9981439 -3.9927711,7.9981439 -2.2926917,6.0493572 -4.0813021,4.7493736 -5.8400227,5.9274855 c 0,0 -11.1431803,8.8029895 -16.0274233,16.5423395 z" id="path6937" inkscape:r_cx="true" inkscape:r_cy="true" sodipodi:nodetypes="ccssc" />
                <path inkscape:connector-curvature="0" style="fill:black;fill-opacity:1;fill-rule:nonzero;stroke:gray;stroke-width:4.73668908999999960;stroke-linecap:round;stroke-linejoin:miter;stroke-miterlimit:4;stroke-opacity:1;stroke-dasharray:none;stroke-dashoffset:0;marker:none;visibility:visible;display:inline;overflow:visible" d="m -30.449715,32.813894 2.24632,1.93382 8.492766,-7.367031 0.275061,-0.705828 1.094405,-0.01782 c -0.4375,-1.5625 -2.941514,-4.383455 -4.816514,-4.383455 l 0.08202,1.090075 -0.669991,0.380027 -6.704066,9.070207 z" id="path6935" inkscape:r_cx="true" inkscape:r_cy="true" sodipodi:nodetypes="ccccccccc" />
                <path inkscape:connector-curvature="0" style="fill:none;stroke:white;stroke-width:4.73668909;stroke-linecap:round;stroke-linejoin:round;stroke-miterlimit:4;stroke-opacity:1;stroke-dasharray:none;stroke-dashoffset:0;marker:none;visibility:visible;display:inline;overflow:visible" d="m -22.822429,27.329316 -4.364933,5.266471" id="path6985" inkscape:r_cx="true" inkscape:r_cy="true" />
                <path inkscape:connector-curvature="0" style="fill:black;fill-opacity:1;fill-rule:nonzero;stroke:none;stroke-width:0.20000000000000001;marker:none;visibility:visible;display:inline;overflow:visible" d="m -45.341208,42.769835 c 10.443958,0 18.370039,1.24373 19.870605,-6.354738 1.209249,-6.123314 -7.210534,-9.057368 -11.38287,-3.590861 -4.019277,5.265971 -8.487735,9.945599 -8.487735,9.945599 z" id="path7040" inkscape:r_cx="true" inkscape:r_cy="true" sodipodi:nodetypes="cssc" />
                <path sodipodi:type="arc" style="opacity:0.52777782;fill:white;fill-opacity:1;fill-rule:nonzero;stroke:none;stroke-width:1;marker:none;visibility:visible;display:inline;overflow:visible" id="path6971" sodipodi:cx="7.624999" sodipodi:cy="37.75" sodipodi:rx="1.2499999" sodipodi:ry="1.2499999" d="m 8.8749989,37.75 c 0,0.690356 -0.559644,1.25 -1.2499999,1.25 -0.6903558,0 -1.2499998,-0.559644 -1.2499998,-1.25 0,-0.690356 0.559644,-1.25 1.2499998,-1.25 0.6903559,0 1.2499999,0.559644 1.2499999,1.25 z" inkscape:r_cx="true" inkscape:r_cy="true" transform="matrix(2.069903,0,0,2.069903,-44.75012,-41.50978)" />
                <path transform="matrix(1.396669,0,0,1.396669,-30.1058,-26.80516)" inkscape:r_cy="true" inkscape:r_cx="true" d="m 8.8749989,37.75 c 0,0.690356 -0.559644,1.25 -1.2499999,1.25 -0.6903558,0 -1.2499998,-0.559644 -1.2499998,-1.25 0,-0.690356 0.559644,-1.25 1.2499998,-1.25 0.6903559,0 1.2499999,0.559644 1.2499999,1.25 z" sodipodi:ry="1.2499999" sodipodi:rx="1.2499999" sodipodi:cy="37.75" sodipodi:cx="7.624999" id="path6983" style="fill:white;fill-opacity:1;fill-rule:nonzero;stroke:none;stroke-width:1;marker:none;visibility:visible;display:inline;overflow:visible" sodipodi:type="arc" />
                <path inkscape:connector-curvature="0" style="opacity:0.42777776;fill:url(#linearGradient4290);fill-opacity:1;fill-rule:nonzero;stroke:none;stroke-width:1;marker:none;visibility:visible;display:inline;overflow:visible" d="m -38.543723,40.909242 c 0,0 3.72152,0.0943 6.116538,-1.411995 0.847351,-0.532923 1.515774,0.649985 0.493819,1.087367 -2.207394,0.944732 -6.610357,0.324628 -6.610357,0.324628 z" id="path7044" inkscape:r_cx="true" inkscape:r_cy="true" sodipodi:nodetypes="cssc" />
            </g>
        </g>
        <path style="opacity:0.98999999;fill:url(#linearGradient3878)" inkscape:connector-curvature="0" d="m 10,1030.3622 10.671078,0 c 0.664086,0 1.328922,0.5625 1.328922,1.3905 l 0,18.6095 -6.652508,0 -5.347492,-20 z" id="path57-5-0" sodipodi:nodetypes="cssccc" />
    </g>
</svg>
