<?xml version="1.0" encoding="UTF-8" standalone="no"?>
<svg xmlns:dc="http://purl.org/dc/elements/1.1/" xmlns:cc="http://creativecommons.org/ns#" xmlns:rdf="http://www.w3.org/1999/02/22-rdf-syntax-ns#" xmlns:svg="http://www.w3.org/2000/svg" xmlns="http://www.w3.org/2000/svg" xmlns:xlink="http://www.w3.org/1999/xlink" xmlns:sodipodi="http://sodipodi.sourceforge.net/DTD/sodipodi-0.dtd" xmlns:inkscape="http://www.inkscape.org/namespaces/inkscape" viewBox="0 0 24 24" id="svg2" version="1.1" inkscape:version="0.48.4 r9939" width="100%" height="100%" sodipodi:docname="libreoffice-calc.svg">
    <metadata id="metadata68">
        <rdf:RDF>
            <cc:Work rdf:about="">
                <dc:format>image/svg+xml</dc:format>
                <dc:type rdf:resource="http://purl.org/dc/dcmitype/StillImage" />
                <dc:title />
            </cc:Work>
        </rdf:RDF>
    </metadata>
    <sodipodi:namedview pagecolor="#ffffff" bordercolor="#666666" borderopacity="1" objecttolerance="10" gridtolerance="10" guidetolerance="10" inkscape:pageopacity="0" inkscape:pageshadow="2" inkscape:window-width="1280" inkscape:window-height="976" id="namedview66" showgrid="true" inkscape:zoom="13.906433" inkscape:cx="35.998716" inkscape:cy="9.1175402" inkscape:window-x="0" inkscape:window-y="24" inkscape:window-maximized="1" inkscape:current-layer="svg2" inkscape:snap-grids="true">
        <inkscape:grid type="xygrid" id="grid3135" />
    </sodipodi:namedview>
    <defs id="defs4">
        <linearGradient inkscape:collect="always" xlink:href="#linearGradient998-9-9" id="linearGradient3300-5" gradientUnits="userSpaceOnUse" gradientTransform="matrix(0,0.57142857,-1,0,4.5,-1.7142855)" x1="6" y1="-23" x2="42" y2="-23" />
        <linearGradient gradientUnits="userSpaceOnUse" id="linearGradient998-9-9" x1="6" x2="42" y2="-23" y1="-23">
            <stop offset="0" stop-color="#fff" id="stop24-5-8" />
            <stop offset="1" stop-color="#fff" stop-opacity="0" id="stop26-5-6" style="stop-color:#ffffff;stop-opacity:0.5" />
        </linearGradient>
        <linearGradient inkscape:collect="always" xlink:href="#linearGradient3157-5-8-4" id="linearGradient3308-8" gradientUnits="userSpaceOnUse" gradientTransform="matrix(0,-0.5945946,-1,0,12.5,-2.2702705)" x1="-42.696152" x2="-5.8431101" />
        <linearGradient gradientUnits="userSpaceOnUse" id="linearGradient3157-5-8-4" x1="-42.696152" x2="-5.8431101">
            <stop offset="0" stop-color="#fff" id="stop19-8-7" />
            <stop offset="1" stop-color="#cdcdcd" id="stop21-0-3" />
        </linearGradient>
        <linearGradient inkscape:collect="always" xlink:href="#linearGradient3866-6-0" id="linearGradient3310-4" gradientUnits="userSpaceOnUse" gradientTransform="matrix(0,-0.5945946,-1,0,12.5,-2.2702705)" x1="-5" y1="-21" x2="-43" y2="-21" />
        <linearGradient id="linearGradient3866-6-0">
            <stop style="stop-color:#818181;stop-opacity:1;" offset="0" id="stop3868-3-4" />
            <stop style="stop-color:#667c03;stop-opacity:1;" offset="1" id="stop3870-8-8" />
        </linearGradient>
        <linearGradient id="linearGradient3853-1">
            <stop id="stop3855-4" offset="0" style="stop-color:#ffffff;stop-opacity:1;" />
            <stop id="stop3857-0" offset="1" style="stop-color:#ffffff;stop-opacity:0;" />
        </linearGradient>
        <linearGradient inkscape:collect="always" xlink:href="#linearGradient3853-1" id="linearGradient3703" gradientUnits="userSpaceOnUse" gradientTransform="matrix(1,0,0,0.54285714,-5,-0.8)" x1="13" y1="7" x2="13" y2="42" />
    </defs>
    <path inkscape:connector-curvature="0" style="fill:url(#linearGradient3308-8);stroke:url(#linearGradient3310-4);stroke-linecap:round;stroke-linejoin:round;color:#000000;fill-opacity:1;fill-rule:nonzero;stroke-width:1;stroke-miterlimit:4;stroke-opacity:1;stroke-dasharray:none;stroke-dashoffset:0;marker:none;visibility:visible;display:inline;overflow:visible;enable-background:accumulate" id="path36" d="m 4.5,1.5 h 15 a 2,2 0 0 1 2,2 v 17 a 2,2 0 0 1 -2,2 h -15 a 2,2 0 0 1 -2,-2 v -17 a 2,2 0 0 1 2,-2" />
    <path id="path3034" d="M 8,2 5.039808,2 C 3.935515,2 3,2.4924035 3,3 l 0,18 c 0,0.566053 0.942912,1 1.960192,1 L 8,22" style="color:#000000;fill:#a4c201;fill-opacity:1;fill-rule:nonzero;stroke:none;stroke-width:1;marker:none;visibility:visible;display:inline;overflow:visible;enable-background:accumulate" inkscape:connector-curvature="0" sodipodi:nodetypes="cssssc" />
    <path inkscape:connector-curvature="0" style="fill:none;stroke:url(#linearGradient3300-5);opacity:0.50000000000000000;color:#000000;stroke-width:1;stroke-linecap:round;stroke-linejoin:round;stroke-miterlimit:4;stroke-opacity:1;stroke-dasharray:none;stroke-dashoffset:0;marker:none;visibility:visible;display:inline;overflow:visible;enable-background:accumulate" id="path38" d="m 4.5,2.5 h 15 a 1,1 0 0 1 1,1 v 17 a 1,1 0 0 1 -1,1 h -15 a 1,1 0 0 1 -1,-1 v -17 a 1,1 0 0 1 1,-1" />
    <path style="color:#000000;fill:#667c03;fill-opacity:1;fill-rule:nonzero;stroke:none;stroke-width:1;marker:none;visibility:visible;display:inline;overflow:visible;enable-background:accumulate" d="M 7,3 8,3 8,22 7,22 z" id="rect3859-0" inkscape:connector-curvature="0" />
    <path d="m 10,5 h 4 v 2 h -4 z" id="path44" inkscape:connector-curvature="0" style="fill:#9fbc01;fill-opacity:1" />
    <path d="m 10,8 h 4 v 2 h -4 z" id="path50" inkscape:connector-curvature="0" style="fill:#bdbdbd" />
    <path style="fill:#9fbc01;fill-opacity:1" inkscape:connector-curvature="0" id="path3366" d="m 15,5 h 4 v 2 h -4 z" />
    <path style="fill:#bdbdbd" inkscape:connector-curvature="0" id="path3368" d="m 15,8 h 4 v 2 h -4 z" />
    <path style="fill:#bdbdbd" inkscape:connector-curvature="0" id="path3370" d="m 10,11 h 4 v 2 h -4 z" />
    <path d="m 15,11 h 4 v 2 h -4 z" id="path3372" inkscape:connector-curvature="0" style="fill:#bdbdbd" />
    <path d="m 10,14 h 4 v 2 h -4 z" id="path3374" inkscape:connector-curvature="0" style="fill:#bdbdbd" />
    <path style="fill:#bdbdbd" inkscape:connector-curvature="0" id="path3376" d="m 15,14 h 4 v 2 h -4 z" />
    <path style="fill:#bdbdbd" inkscape:connector-curvature="0" id="path3378" d="m 10,17 h 4 v 2 h -4 z" />
    <path d="m 15,17 h 4 v 2 h -4 z" id="path3380" inkscape:connector-curvature="0" style="fill:#bdbdbd" />
    <g id="g3464" transform="matrix(0.50000168,0,0,0.57142857,5.4999424,8.9618458)">
        <path inkscape:connector-curvature="0" id="path86" d="m 25.00001,9.31677 c -1.818246,0 -3.530875,0.25968 -4.999991,0.68323 l -4.999991,0 0,4.31677 0,0.465839 0.0625,0 c 0.457475,2.546354 4.719764,4.534161 9.937482,4.534161 5.217716,0 9.480006,-1.987807 9.937481,-4.534161 l 0.0625,0 0,-0.465839 0,-4.31677 L 30,10 C 28.530884,9.57645 26.818255,9.31677 25.00001,9.31677 z" style="fill:#667c03;fill-opacity:1" />
        <path d="m 35.000028,10.31677 c 0,2.761419 -4.477139,5 -9.999981,5 -5.522843,0 -9.999982,-2.238581 -9.999982,-5 0,-2.761419 4.477139,-5 9.999982,-5 5.522842,0 9.999981,2.238581 9.999981,5 z" id="path90" inkscape:connector-curvature="0" style="color:#000000;fill:#adcc01;fill-opacity:1;fill-rule:nonzero;stroke-width:1;stroke-linecap:butt;stroke-linejoin:miter;stroke-miterlimit:4;stroke-opacity:1;stroke-dasharray:none;stroke-dashoffset:0;marker:none;visibility:visible;display:inline;overflow:visible;enable-background:accumulate" />
    </g>
    <path style="opacity:0.5;color:#000000;fill:url(#linearGradient3703);fill-opacity:1;fill-rule:nonzero;stroke:none;stroke-width:1;marker:none;visibility:visible;display:inline;overflow:visible;enable-background:accumulate" d="M 8,3 9,3 9,22 8,22 z" id="rect3843" inkscape:connector-curvature="0" />
</svg>
