<?xml version="1.0" encoding="UTF-8" standalone="no"?>
<!-- Created with Inkscape (http://www.inkscape.org/) -->

<svg xmlns:dc="http://purl.org/dc/elements/1.1/" xmlns:cc="http://creativecommons.org/ns#" xmlns:rdf="http://www.w3.org/1999/02/22-rdf-syntax-ns#" xmlns:svg="http://www.w3.org/2000/svg" xmlns="http://www.w3.org/2000/svg" xmlns:xlink="http://www.w3.org/1999/xlink" xmlns:sodipodi="http://sodipodi.sourceforge.net/DTD/sodipodi-0.dtd" xmlns:inkscape="http://www.inkscape.org/namespaces/inkscape" width="24" height="24" id="svg4700" version="1.1" inkscape:version="0.48.4 r9939" sodipodi:docname="gpicview.svg">
    <defs id="defs4702">
        <filter id="filter3174" color-interpolation-filters="sRGB">
            <feGaussianBlur stdDeviation="1.71" id="feGaussianBlur3176" />
        </filter>
        <linearGradient gradientTransform="scale(1.0058652,0.994169)" gradientUnits="userSpaceOnUse" id="ButtonShadow" y2="7.0165396" x2="45.447727" y1="92.539597" x1="45.447727">
            <stop offset="0" style="stop-color:#000000;stop-opacity:1" id="stop3750" />
            <stop offset="1" style="stop-color:#000000;stop-opacity:0.58823532" id="stop3752" />
        </linearGradient>
        <linearGradient inkscape:collect="always" xlink:href="#linearGradient4523-2" id="linearGradient3094-8" gradientUnits="userSpaceOnUse" y1="4.6476998" x2="0" y2="41.825802" gradientTransform="matrix(0.4691356,0,0,0.47055591,-0.05476993,24.783853)" />
        <linearGradient y2="41.825802" y1="4.6476998" x2="0" id="linearGradient4523-2" gradientUnits="userSpaceOnUse">
            <stop id="stop21-8-3" stop-opacity=".669" stop-color="#fff" offset="0" />
            <stop id="stop23-7" stop-opacity="0" stop-color="#fff" offset="1" />
        </linearGradient>
        <linearGradient inkscape:collect="always" xlink:href="#linearGradient20028-0-1" id="linearGradient3100-7" gradientUnits="userSpaceOnUse" x1="60.726425" y1="4.0890627" x2="68.331146" y2="35.364891" gradientTransform="matrix(0.52598639,0,0,0.5115771,-26.941176,23.908108)" />
        <linearGradient y2="34.685299" y1="3.7228" x2="21.1047" x1="14.8565" id="linearGradient20028-0-1" gradientUnits="userSpaceOnUse">
            <stop id="stop26-7" stop-color="#a40" offset="0" />
            <stop id="stop28-4" stop-color="#fea" offset="1" />
        </linearGradient>
        <linearGradient x1="15.005555" gradientTransform="matrix(1.0006119,0,0,0.98793816,-0.0147366,0.06595422)" y2="43.458233" y1="2.9698679" x2="15.005555" id="linearGradient4523-3" gradientUnits="userSpaceOnUse">
            <stop style="stop-color:#ffffff;stop-opacity:0.50196081;" id="stop21-1" stop-opacity=".669" stop-color="#fff" offset="0" />
            <stop style="stop-color:#ffffff;stop-opacity:0;" id="stop23-4" stop-opacity="0" stop-color="#fff" offset="1" />
        </linearGradient>
        <linearGradient inkscape:collect="always" xlink:href="#linearGradient4523-3" id="linearGradient3140" gradientUnits="userSpaceOnUse" gradientTransform="matrix(0.48748321,0,0,0.48130876,0.30037808,24.826873)" x1="15.005555" y1="2.9698679" x2="15.005555" y2="29.447058" />
        <linearGradient id="linearGradient3872-8-5">
            <stop style="stop-color:#338100;stop-opacity:1" offset="0" id="stop3874-8-0" />
            <stop style="stop-color:#1b4e18;stop-opacity:1;" offset="1" id="stop3876-5-6" />
        </linearGradient>
        <linearGradient inkscape:collect="always" xlink:href="#linearGradient3875-7" id="linearGradient3155-2" gradientUnits="userSpaceOnUse" x1="22" y1="31" x2="22" y2="42" gradientTransform="matrix(0.49986918,0,0,0.49986918,-2.0526981,20.995045)" />
        <linearGradient id="linearGradient3875-7" inkscape:collect="always">
            <stop id="stop3878-3" offset="0" style="stop-color:#da862e;stop-opacity:1" />
            <stop id="stop3880-8" offset="1" style="stop-color:#39220a;stop-opacity:1" />
        </linearGradient>
        <radialGradient inkscape:collect="always" xlink:href="#linearGradient3872-8-5" id="radialGradient3041" gradientUnits="userSpaceOnUse" gradientTransform="matrix(0.35871681,2.1449143e-8,-2.4012587e-8,0.41072962,0.87044949,24.054188)" cx="17.061928" cy="22.215902" fx="17.061928" fy="22.215902" r="5.6176791" />
        <linearGradient id="linearGradient3873">
            <stop id="stop3875" offset="0" style="stop-color:#b4b4b4;stop-opacity:1;" />
            <stop id="stop3877" offset="1" style="stop-color:white;stop-opacity:1;" />
        </linearGradient>
        <linearGradient inkscape:collect="always" xlink:href="#linearGradient3873" id="linearGradient3220" gradientUnits="userSpaceOnUse" gradientTransform="matrix(-0.49082532,0,0,-0.49082532,23.763865,47.350902)" x1="32" y1="39" x2="32" y2="43" />
        <linearGradient inkscape:collect="always" xlink:href="#linearGradient3873" id="linearGradient4024" gradientUnits="userSpaceOnUse" gradientTransform="matrix(-0.49082532,0,0,0.49082532,23.763865,24.649098)" x1="30.079672" y1="43.5" x2="30.079672" y2="33.313076" />
        <linearGradient inkscape:collect="always" xlink:href="#linearGradient3829-2" id="linearGradient3217-8" gradientUnits="userSpaceOnUse" gradientTransform="matrix(0.52273809,0,0,0.52273809,-0.7607207,24.426184)" x1="24" y1="2" x2="24" y2="44" />
        <linearGradient id="linearGradient3829-2">
            <stop id="stop3831-7" offset="0" style="stop-color:gray;stop-opacity:1;" />
            <stop id="stop3833-7" offset="1" style="stop-color:#3c3c3c;stop-opacity:1;" />
        </linearGradient>
        <linearGradient inkscape:collect="always" xlink:href="#linearGradient1022-8-8-3-0-05-2-4-2" id="linearGradient3234-4" gradientUnits="userSpaceOnUse" gradientTransform="matrix(0.5833302,0,0,0.50324056,-14.817241,35.926796)" x1="35.68689" y1="12.068192" x2="35.68689" y2="18.029556" />
        <linearGradient y2="11.02436" y1="3.0069399" x2="0" id="linearGradient1022-8-8-3-0-05-2-4-2" gradientUnits="userSpaceOnUse">
            <stop id="stop3001-0-9-4-49-1-4-8" offset="0" />
            <stop id="stop3003-5-6-6-8-2-3-9" stop-color="#363636" offset="1" />
        </linearGradient>
        <linearGradient inkscape:collect="always" xlink:href="#linearGradient1022-8-8-3-0-05-2-4-2" id="linearGradient4147" gradientUnits="userSpaceOnUse" gradientTransform="matrix(-0.5833302,0,0,0.50324056,26.817241,35.926796)" x1="35.68689" y1="12.068192" x2="35.68689" y2="18.029556" />
        <linearGradient inkscape:collect="always" xlink:href="#linearGradient1022-8-8-3-0-05-2-4-2-3" id="linearGradient4147-1" gradientUnits="userSpaceOnUse" gradientTransform="matrix(-0.5833302,0,0,0.50324056,27.817241,35.926796)" x1="25.401121" y1="-35.622715" x2="25.401121" y2="-31.648474" />
        <linearGradient y2="11.02436" y1="3.0069399" x2="0" id="linearGradient1022-8-8-3-0-05-2-4-2-3" gradientUnits="userSpaceOnUse">
            <stop id="stop3001-0-9-4-49-1-4-8-2" offset="0" />
            <stop id="stop3003-5-6-6-8-2-3-9-7" stop-color="#363636" offset="1" />
        </linearGradient>
        <linearGradient inkscape:collect="always" xlink:href="#linearGradient1022-8-8-3-0-05-2-4-2-3" id="linearGradient4219" gradientUnits="userSpaceOnUse" gradientTransform="matrix(-0.5833302,0,0,0.50324056,27.817241,35.926796)" x1="30.544006" y1="-35.622715" x2="30.544006" y2="-31.648474" />
        <linearGradient inkscape:collect="always" xlink:href="#linearGradient1022-8-8-3-0-05-2-4-2-3" id="linearGradient4223" gradientUnits="userSpaceOnUse" gradientTransform="matrix(-0.5833302,0,0,0.50324056,27.817241,35.926796)" x1="35.68689" y1="-35.622715" x2="35.68689" y2="-31.648474" />
    </defs>
    <sodipodi:namedview id="base" pagecolor="#ffffff" bordercolor="#666666" borderopacity="1.0" inkscape:pageopacity="0.0" inkscape:pageshadow="2" inkscape:zoom="18.295421" inkscape:cx="16.083605" inkscape:cy="15.837605" inkscape:current-layer="layer1" showgrid="true" inkscape:grid-bbox="true" inkscape:document-units="px" inkscape:window-width="1084" inkscape:window-height="964" inkscape:window-x="0" inkscape:window-y="0" inkscape:window-maximized="0" inkscape:snap-to-guides="false" inkscape:snap-grids="true" inkscape:snap-bbox="true" inkscape:snap-nodes="true">
        <inkscape:grid type="xygrid" id="grid1021" empspacing="5" visible="true" enabled="true" snapvisiblegridlinesonly="true" />
    </sodipodi:namedview>
    <metadata id="metadata4705">
        <rdf:RDF>
            <cc:Work rdf:about="">
                <dc:format>image/svg+xml</dc:format>
                <dc:type rdf:resource="http://purl.org/dc/dcmitype/StillImage" />
                <dc:title />
            </cc:Work>
        </rdf:RDF>
    </metadata>
    <g id="layer1" inkscape:label="Layer 1" inkscape:groupmode="layer" transform="translate(0,-24)">
        <g id="layer2" style="display:none" transform="matrix(0.99999504,0,0,1,6.2044691,-180.68792)">
            <rect width="86" height="85" rx="6.0000296" ry="6" x="5" y="7" id="rect3745" style="opacity:0.9;fill:url(#ButtonShadow);fill-opacity:1;fill-rule:nonzero;stroke:none;filter:url(#filter3174)" />
        </g>
        <g id="layer4" transform="matrix(0.99999504,0,0,1,6.2044691,-180.68792)" />
        <rect width="19.01605" height="19.610952" ry="1" x="2.5116673" y="26.497705" id="rect4513" style="opacity:0.5;color:black;fill:none;stroke:url(#linearGradient3094-8);stroke-width:1.02429998;stroke-linecap:butt;stroke-linejoin:miter;stroke-miterlimit:4;stroke-opacity:1;stroke-dasharray:none;stroke-dashoffset:0;marker:none;visibility:visible;display:inline;overflow:visible;enable-background:accumulate" rx="0.99999994" />
        <rect style="color:black;fill:url(#linearGradient3100-7);fill-opacity:1;fill-rule:evenodd;stroke:none;stroke-width:1;marker:none;visibility:visible;display:inline;overflow:visible;enable-background:accumulate" id="rect3154" y="25.999979" x="2.0001118" ry="1.5" height="20" width="19.999901" rx="1.5" />
        <path style="color:black;fill:url(#linearGradient3155-2);fill-opacity:1;fill-rule:nonzero;stroke:none;stroke-width:1;marker:none;visibility:visible;display:inline;overflow:visible;enable-background:accumulate" inkscape:connector-curvature="0" d="m 21.999787,38.000023 0,2.499977 c 0,0.888936 -0.621353,1.500083 -1.499992,1.5 L 3.4998799,41.9984 C 2.5515056,41.998304 2,41.50043 2,40.5 L 2,37 c 6.4980003,-2.183567 15.756189,0.62565 19.999787,0.999977 z" id="path46" sodipodi:nodetypes="cssssccc" />
        <path style="fill:#ffe57d;fill-rule:evenodd" inkscape:connector-curvature="0" d="m 19,32 a 2,2 0 0 1 -4,0 2,2 0 1 1 4,0 z" id="path58" />
        <path style="color:black;fill:#2f1d07;fill-opacity:1;fill-rule:nonzero;stroke:none;stroke-width:1;marker:none;visibility:visible;display:inline;overflow:visible;enable-background:accumulate" d="m 6.4215893,34.527152 c 0.337211,0.148106 0.4477809,0.553627 0.4844402,0.888064 0.033643,0.362127 -0.3039738,0.617984 -0.6191323,0.696417 -0.1387042,0.156721 -0.4930555,0.0894 -0.572473,0.169548 0.2545026,0.04995 0.5174051,0.02042 0.764965,0.0032 0.4081651,-0.145952 -0.3858802,0.130675 -0.1947032,0.176762 0.2081323,-0.144059 0.6150105,-0.368543 0.6982988,0.02851 0.07388,0.08466 0.00414,-0.38403 0.2093624,-0.182203 0.1323608,0.09988 0.2005145,-0.103238 0.3755578,0.03229 0.1315438,0.07128 0.4300233,0.1869 0.1283237,0.07247 -0.2320231,-0.330711 0.6549121,-0.01391 0.3590302,-0.234185 0.2339176,0.01285 0.5000237,0.02839 0.7443607,0.06127 C 9.1278626,36.132563 8.487414,36.177653 8.3721595,36.129975 8.1298402,36.096992 7.9120156,35.975346 7.6798625,35.90225 7.359814,35.745576 7.2736017,35.308812 7.4092902,34.999219 7.4308935,34.634484 7.8299542,34.76885 7.9999229,34.572183 8.192656,34.338688 7.9640889,34.070381 7.7610214,33.941331 7.5552031,33.747211 7.2795247,33.642334 6.9962229,33.679549 c -0.2773927,-0.0099 -0.6836121,-0.02087 -0.6987525,0.355323 -0.0721,0.212801 0.0935,0.325091 0.202085,0.424111 -0.00534,0.03805 -0.044388,0.06013 -0.077966,0.06817 z" id="path54" inkscape:connector-curvature="0" />
        <path style="color:black;fill:url(#radialGradient3041);fill-opacity:1;fill-rule:nonzero;stroke:none;stroke-width:1;marker:none;visibility:visible;display:inline;overflow:visible;enable-background:accumulate" d="m 7.0360635,32.294732 c -0.2901886,0.0593 -0.5691786,0.174818 -0.7786359,-0.0013 -0.2413377,0.387443 -0.7336169,0.221096 -0.8365818,0.710439 -0.1407112,0.272896 -0.2768547,0.256388 -0.533014,0.09077 -0.4386988,0.283932 0.09449,0.816198 -0.1226318,1.215696 -0.3042197,0.410398 0.112982,1.161062 0.5837739,1.023161 0.3863491,0.03145 1.1639684,0.09367 1.0519287,-0.490197 0.2566237,0.03818 0.3767764,-0.614782 0.6278669,-0.194472 0.073135,-0.110849 0.344796,-0.374091 0.1959569,-0.05308 0.1590733,0.05234 0.5961439,-0.220871 0.2815511,0.05961 0.289959,0.06103 0.3651452,-0.04348 0.081546,0.199941 0.2836879,-0.0049 0.6558805,0.0027 0.6542814,0.434543 0.3340496,0.44386 0.6280776,-0.06345 0.8726687,-0.202252 0.3708547,0.199243 0.8623759,0.117787 0.5176546,-0.378131 0.058244,-0.237084 0.4604878,-0.37207 0.096104,-0.642494 -0.314334,-0.279845 -0.162447,-0.734668 -0.5712642,-0.977673 0.1047465,-0.784239 -0.932782,0.03861 -0.9108847,-0.578331 -0.2144188,-0.3037 -0.5844767,0.176993 -0.8025944,-0.187011 -0.1350224,-0.02529 -0.2797207,0.04026 -0.4077248,-0.02921 z" id="path56" inkscape:connector-curvature="0" />
        <path style="fill:url(#linearGradient4024);fill-opacity:1;fill-rule:evenodd;stroke:none" d="m 22,40 0,5 c 0,1.856332 -0.692323,1 -2,1 L 4,46 C 2.0546098,46 2,46.257145 2,45 l 0,-5 z" id="path4022" inkscape:connector-curvature="0" sodipodi:nodetypes="ccscccc" />
        <path sodipodi:nodetypes="cccc" inkscape:connector-curvature="0" id="path4133" d="m 5,43 -2,1 2,1 z" style="opacity:0.62999998;color:black;fill:white;fill-opacity:1;fill-rule:nonzero;stroke:none;stroke-width:0.66666669;marker:none;visibility:visible;display:inline;overflow:visible;enable-background:accumulate" />
        <path style="opacity:0.62999998;color:black;fill:url(#linearGradient3234-4);fill-opacity:1;fill-rule:nonzero;stroke:none;stroke-width:1;marker:none;visibility:visible;display:inline;overflow:visible;enable-background:accumulate" d="m 5,42 -2,1 2,1 z" id="path4071" inkscape:connector-curvature="0" sodipodi:nodetypes="cccc" />
        <path style="opacity:0.62999998;color:black;fill:white;fill-opacity:1;fill-rule:nonzero;stroke:none;stroke-width:0.66666669;marker:none;visibility:visible;display:inline;overflow:visible;enable-background:accumulate" d="m 7,43 2,1 -2,1 z" id="path4143" inkscape:connector-curvature="0" sodipodi:nodetypes="cccc" />
        <path sodipodi:nodetypes="cccc" inkscape:connector-curvature="0" id="path4145" d="m 7,42 2,1 -2,1 z" style="opacity:0.62999998;color:black;fill:url(#linearGradient4147);fill-opacity:1;fill-rule:nonzero;stroke:none;stroke-width:1;marker:none;visibility:visible;display:inline;overflow:visible;enable-background:accumulate" />
        <path transform="translate(-1,25)" d="m 14,19 c 0,0.552285 -0.447715,1 -1,1 -0.552285,0 -1,-0.447715 -1,-1 0,-0.552285 0.447715,-1 1,-1 0.552285,0 1,0.447715 1,1 z" sodipodi:ry="1" sodipodi:rx="1" sodipodi:cy="19" sodipodi:cx="13" id="path4237" style="opacity:0.62999998;color:black;fill:white;fill-opacity:1;fill-rule:nonzero;stroke:none;stroke-width:0.66666669;marker:none;visibility:visible;display:inline;overflow:visible;enable-background:accumulate" sodipodi:type="arc" />
        <path sodipodi:type="arc" style="opacity:0.62999998;color:black;fill:url(#linearGradient4147-1);fill-opacity:1;fill-rule:nonzero;stroke:none;stroke-width:1;marker:none;visibility:visible;display:inline;overflow:visible;enable-background:accumulate" id="path4149" sodipodi:cx="13" sodipodi:cy="19" sodipodi:rx="1" sodipodi:ry="1" d="m 14,19 c 0,0.552285 -0.447715,1 -1,1 -0.552285,0 -1,-0.447715 -1,-1 0,-0.552285 0.447715,-1 1,-1 0.552285,0 1,0.447715 1,1 z" transform="translate(-1,24)" />
        <path sodipodi:type="arc" style="opacity:0.62999998000000001;color:black;fill:white;fill-opacity:1;fill-rule:nonzero;stroke:none;stroke-width:0.66666669000000001;marker:none;visibility:visible;display:inline;overflow:visible;enable-background:accumulate" id="path4239" sodipodi:cx="13" sodipodi:cy="19" sodipodi:rx="1" sodipodi:ry="1" d="m 14,19 c 0,0.552285 -0.447715,1 -1,1 -0.552285,0 -1,-0.447715 -1,-1 0,-0.552285 0.447715,-1 1,-1 0.552285,0 1,0.447715 1,1 z" transform="translate(3,25)" />
        <path transform="translate(3,24)" d="m 14,19 c 0,0.552285 -0.447715,1 -1,1 -0.552285,0 -1,-0.447715 -1,-1 0,-0.552285 0.447715,-1 1,-1 0.552285,0 1,0.447715 1,1 z" sodipodi:ry="1" sodipodi:rx="1" sodipodi:cy="19" sodipodi:cx="13" id="path4217" style="opacity:0.62999998000000001;color:black;fill:url(#linearGradient4219);fill-opacity:1;fill-rule:nonzero;stroke:none;stroke-width:1;marker:none;visibility:visible;display:inline;overflow:visible;enable-background:accumulate" sodipodi:type="arc" />
        <path transform="translate(7,25)" d="m 14,19 c 0,0.552285 -0.447715,1 -1,1 -0.552285,0 -1,-0.447715 -1,-1 0,-0.552285 0.447715,-1 1,-1 0.552285,0 1,0.447715 1,1 z" sodipodi:ry="1" sodipodi:rx="1" sodipodi:cy="19" sodipodi:cx="13" id="path4241" style="opacity:0.62999998;color:black;fill:white;fill-opacity:1;fill-rule:nonzero;stroke:none;stroke-width:0.66666669;marker:none;visibility:visible;display:inline;overflow:visible;enable-background:accumulate" sodipodi:type="arc" />
        <path sodipodi:type="arc" style="opacity:0.62999998;color:black;fill:url(#linearGradient4223);fill-opacity:1;fill-rule:nonzero;stroke:none;stroke-width:1;marker:none;visibility:visible;display:inline;overflow:visible;enable-background:accumulate" id="path4221" sodipodi:cx="13" sodipodi:cy="19" sodipodi:rx="1" sodipodi:ry="1" d="m 14,19 c 0,0.552285 -0.447715,1 -1,1 -0.552285,0 -1,-0.447715 -1,-1 0,-0.552285 0.447715,-1 1,-1 0.552285,0 1,0.447715 1,1 z" transform="translate(7,24)" />
        <path sodipodi:nodetypes="csccccc" inkscape:connector-curvature="0" id="path3082" d="m 22,27 c 0,-1.419064 -0.692323,-1 -2,-1 L 4,26 C 2.4918777,26 2,25.742855 2,27 l 0,2 20,0 z" style="fill:url(#linearGradient3220);fill-opacity:1;fill-rule:evenodd;stroke:none" />
        <rect style="color:black;fill:none;fill-opacity:1;fill-rule:nonzero;stroke:url(#linearGradient3217-8);stroke-width:1;stroke-linecap:butt;stroke-linejoin:miter;stroke-miterlimit:4;stroke-opacity:1;stroke-dasharray:none;stroke-dashoffset:0;marker:none;visibility:visible;display:inline;overflow:visible;enable-background:accumulate" id="rect3874" width="20.999897" height="21.00004" x="1.5" y="25.49996" ry="2" rx="1.9999999" />
        <path d="M 3.4749664,26.5 H 20.525033 A 0.97496644,0.96261751 0 0 1 21.5,27.462617 V 44.537382 A 0.97496644,0.96261751 0 0 1 20.525033,45.5 H 3.4749664 A 0.97496644,0.96261751 0 0 1 2.5000001,44.537382 V 27.462617 A 0.97496644,0.96261751 0 0 1 3.4749664,26.5" id="path48" style="fill:none;stroke:url(#linearGradient3140);stroke-width:1;stroke-miterlimit:4;stroke-dasharray:none;opacity:1" inkscape:connector-curvature="0" />
    </g>
</svg>
