<?xml version="1.0" encoding="UTF-8" standalone="no"?>
<!-- Created with Inkscape (http://www.inkscape.org/) -->

<svg xmlns:dc="http://purl.org/dc/elements/1.1/" xmlns:cc="http://creativecommons.org/ns#" xmlns:rdf="http://www.w3.org/1999/02/22-rdf-syntax-ns#" xmlns:svg="http://www.w3.org/2000/svg" xmlns="http://www.w3.org/2000/svg" xmlns:xlink="http://www.w3.org/1999/xlink" xmlns:sodipodi="http://sodipodi.sourceforge.net/DTD/sodipodi-0.dtd" xmlns:inkscape="http://www.inkscape.org/namespaces/inkscape" width="24" height="24" id="svg4700" version="1.1" inkscape:version="0.48.4 r9939" sodipodi:docname="xfce4-keyboard-settings.svg">
    <defs id="defs4702">
        <filter id="filter3174" color-interpolation-filters="sRGB">
            <feGaussianBlur stdDeviation="1.71" id="feGaussianBlur3176" />
        </filter>
        <linearGradient gradientTransform="scale(1.0058652,0.994169)" gradientUnits="userSpaceOnUse" id="ButtonShadow" y2="7.0165396" x2="45.447727" y1="92.539597" x1="45.447727">
            <stop offset="0" style="stop-color:#000000;stop-opacity:1" id="stop3750" />
            <stop offset="1" style="stop-color:#000000;stop-opacity:0.58823532" id="stop3752" />
        </linearGradient>
        <linearGradient x1="45.447727" y1="92.539597" x2="45.447727" y2="7.0165396" id="ButtonShadow-8" gradientUnits="userSpaceOnUse" gradientTransform="scale(1.0058652,0.994169)">
            <stop id="stop3750-4" style="stop-color:#000000;stop-opacity:1" offset="0" />
            <stop id="stop3752-2" style="stop-color:#000000;stop-opacity:0.58823532" offset="1" />
        </linearGradient>
        <filter color-interpolation-filters="sRGB" id="filter3174-3">
            <feGaussianBlur id="feGaussianBlur3176-6" stdDeviation="1.71" />
        </filter>
        <linearGradient id="linearGradient4003">
            <stop id="stop4005" offset="0" style="stop-color:#485e6c;stop-opacity:1;" />
            <stop id="stop4007" offset="1" style="stop-color:#688599;stop-opacity:1;" />
        </linearGradient>
        <linearGradient id="linearGradient3828" inkscape:collect="always">
            <stop id="stop3830" offset="0" style="stop-color:#c3c5c9;stop-opacity:1" />
            <stop id="stop3832" offset="1" style="stop-color:#ececee;stop-opacity:1" />
        </linearGradient>
        <linearGradient id="linearGradient3865" inkscape:collect="always">
            <stop id="stop3867" offset="0" style="stop-color:#bcbec2;stop-opacity:1" />
            <stop id="stop3869" offset="1" style="stop-color:#fbfcfc;stop-opacity:1" />
        </linearGradient>
        <linearGradient inkscape:collect="always" xlink:href="#linearGradient3933-1" id="linearGradient3190-4" gradientUnits="userSpaceOnUse" gradientTransform="matrix(0.52439024,0,0,0.52439024,-0.33536533,23.664649)" x1="2.9999986" y1="23.999973" x2="45" y2="23.999973" />
        <linearGradient id="linearGradient3933-1" inkscape:collect="always">
            <stop id="stop3935-6" offset="0" style="stop-color:#777;stop-opacity:1" />
            <stop style="stop-color:#c2c2c2;stop-opacity:1" offset="0.50078207" id="stop3941-5" />
            <stop id="stop3937-2" offset="1" style="stop-color:#7a7a7a;stop-opacity:1" />
        </linearGradient>
        <linearGradient inkscape:collect="always" xlink:href="#linearGradient3819-6" id="linearGradient3192-1" gradientUnits="userSpaceOnUse" gradientTransform="matrix(0.52439024,0,0,0.52439024,-0.33536533,23.664649)" x1="7" y1="45" x2="7" y2="3" />
        <linearGradient id="linearGradient3819-6" inkscape:collect="always">
            <stop id="stop3822-5" offset="0" style="stop-color:#3c3c3c;stop-opacity:1" />
            <stop id="stop3824-5" offset="1" style="stop-color:#a0a0a0;stop-opacity:1" />
        </linearGradient>
        <linearGradient inkscape:collect="always" xlink:href="#linearGradient3828" id="linearGradient3248" gradientUnits="userSpaceOnUse" gradientTransform="matrix(0.48780488,0,0,0.43902439,0.292683,24.463426)" x1="45" y1="22" x2="3" y2="22" />
        <linearGradient inkscape:collect="always" xlink:href="#linearGradient4003" id="linearGradient4026" gradientUnits="userSpaceOnUse" x1="23.418428" y1="27.178308" x2="23.418428" y2="11.88786" />
        <linearGradient inkscape:collect="always" xlink:href="#linearGradient4003" id="linearGradient4028" gradientUnits="userSpaceOnUse" x1="23.418428" y1="24.120218" x2="23.418428" y2="11.88786" />
        <linearGradient inkscape:collect="always" xlink:href="#linearGradient3865" id="linearGradient4074" gradientUnits="userSpaceOnUse" gradientTransform="matrix(0.5,0,0,0.50000001,-4.5866667e-7,23.000001)" x1="7" y1="37" x2="24" y2="6" />
    </defs>
    <sodipodi:namedview id="base" pagecolor="#ffffff" bordercolor="#666666" borderopacity="1.0" inkscape:pageopacity="0.0" inkscape:pageshadow="2" inkscape:zoom="5.7673397" inkscape:cx="11.445157" inkscape:cy="15.94727" inkscape:current-layer="layer1" showgrid="true" inkscape:grid-bbox="true" inkscape:document-units="px" inkscape:window-width="953" inkscape:window-height="951" inkscape:window-x="2" inkscape:window-y="35" inkscape:window-maximized="0" inkscape:snap-to-guides="false" inkscape:snap-grids="true" inkscape:snap-page="true" inkscape:snap-object-midpoints="true" inkscape:snap-midpoints="true" inkscape:snap-bbox="false" inkscape:snap-nodes="true" inkscape:snap-global="true">
        <inkscape:grid type="xygrid" id="grid1021" empspacing="5" visible="true" enabled="true" snapvisiblegridlinesonly="true" />
    </sodipodi:namedview>
    <metadata id="metadata4705">
        <rdf:RDF>
            <cc:Work rdf:about="">
                <dc:format>image/svg+xml</dc:format>
                <dc:type rdf:resource="http://purl.org/dc/dcmitype/StillImage" />
                <dc:title />
            </cc:Work>
        </rdf:RDF>
    </metadata>
    <g id="layer1" inkscape:label="Layer 1" inkscape:groupmode="layer" transform="translate(0,-24)">
        <rect width="21" height="21" ry="3" x="1.5" y="25.5" id="rect3048" style="fill:url(#linearGradient3190-4);fill-opacity:1;fill-rule:nonzero;stroke:url(#linearGradient3192-1);stroke-width:0.99999994000000003;stroke-miterlimit:4;stroke-opacity:1;stroke-dasharray:none;color:black;stroke-linecap:round;stroke-linejoin:round;stroke-dashoffset:0;marker:none;visibility:visible;display:inline;overflow:visible;enable-background:accumulate" />
        <rect ry="2.5" style="color:black;fill:url(#linearGradient3248);fill-opacity:1;fill-rule:nonzero;stroke:none;stroke-width:1;marker:none;visibility:visible;display:inline;overflow:visible;enable-background:accumulate" id="rect3246" width="20" height="18" x="2" y="26" />
        <g id="layer2" style="display:none" transform="translate(5.204491,-179.6879)">
            <rect width="86" height="85" rx="6" ry="6" x="5" y="7" id="rect3745" style="opacity:0.9;fill:url(#ButtonShadow);fill-opacity:1;fill-rule:nonzero;stroke:none;filter:url(#filter3174)" />
        </g>
        <g id="layer4" transform="translate(5.204491,-179.6879)" />
        <g id="g4574" transform="matrix(1.6071093,0,0,1.6011113,3.146104,-12.42229)" />
        <g id="layer4-0" transform="translate(-28.795509,-176.6879)" />
        <g id="layer2-4" style="display:none" transform="translate(31.204491,-177.6879)">
            <rect width="86" height="85" rx="6" ry="6" x="5" y="7" id="rect3745-6" style="opacity:0.9;fill:url(#ButtonShadow-8);fill-opacity:1;fill-rule:nonzero;stroke:none;filter:url(#filter3174-3)" />
        </g>
        <rect style="color:black;fill:url(#linearGradient4074);fill-opacity:1;fill-rule:nonzero;stroke:none;stroke-width:0.99999994;marker:none;visibility:visible;display:inline;overflow:visible;enable-background:accumulate" id="rect3180" width="16" height="14" x="4" y="27" ry="1.4999999" />
        <g style="font-size:28.53179932px;font-style:normal;font-weight:normal;line-height:125%;letter-spacing:0px;word-spacing:0px;color:black;fill:#fefefe;fill-opacity:1;fill-rule:nonzero;stroke:none;marker:none;visibility:visible;display:inline;overflow:visible;enable-background:accumulate;font-family:Sans" id="g4047" transform="matrix(0.7042865,0,0,0.5722528,-2.2432834,21.863803)">
            <path d="m 23.689481,31.574797 c 1.065179,2e-6 1.873579,-0.05706 2.425203,-0.171191 l 0,-3.823261 c -0.190222,-0.05706 -0.466029,-0.114121 -0.827422,-0.171191 -0.361412,-0.05706 -0.760856,-0.08559 -1.198336,-0.0856 -0.380431,7e-6 -0.770365,0.02854 -1.169803,0.0856 -0.380431,0.05707 -0.732323,0.161687 -1.055677,0.31385 -0.304345,0.152176 -0.55162,0.370919 -0.741827,0.656232 -0.190216,0.266302 -0.285322,0.608683 -0.285318,1.027144 -4e-6,0.817916 0.256782,1.388551 0.770359,1.711908 0.513566,0.304342 1.207839,0.456511 2.082821,0.456509 M 23.404163,18.706956 c 1.141264,1.5e-5 2.101833,0.142674 2.881712,0.427977 0.779858,0.285332 1.398047,0.684777 1.854567,1.198335 0.475517,0.513586 0.808388,1.141285 0.998613,1.883099 0.20922,0.722817 0.313836,1.521706 0.31385,2.396671 l 0,9.04458 c -0.532607,0.114128 -1.341007,0.247276 -2.425203,0.399446 -1.065197,0.17119 -2.273042,0.256785 -3.623539,0.256786 -0.894003,-1e-6 -1.711913,-0.0856 -2.453735,-0.256786 -0.74183,-0.171191 -1.37904,-0.446998 -1.91163,-0.827423 -0.513575,-0.380422 -0.92253,-0.874973 -1.226868,-1.483653 -0.285319,-0.608676 -0.427978,-1.360012 -0.427977,-2.254012 -1e-6,-0.855949 0.161679,-1.578754 0.485041,-2.168417 0.34238,-0.58965 0.798888,-1.065179 1.369526,-1.42659 0.570633,-0.380416 1.226864,-0.646712 1.968695,-0.79889 0.760842,-0.171182 1.550221,-0.256777 2.368139,-0.256787 0.380416,10e-6 0.779861,0.02854 1.198335,0.0856 0.418458,0.03805 0.865456,0.114136 1.340995,0.228254 l 0,-0.570636 c -10e-6,-0.399435 -0.04756,-0.779859 -0.142659,-1.141272 -0.09512,-0.361392 -0.266306,-0.675241 -0.513572,-0.941549 -0.228264,-0.285306 -0.542113,-0.50405 -0.94155,-0.656232 -0.380432,-0.152157 -0.865472,-0.228242 -1.455121,-0.228254 -0.798897,1.2e-5 -1.531212,0.05708 -2.196949,0.171191 -0.665746,0.114139 -1.20785,0.247287 -1.626313,0.399445 l -0.427977,-2.796116 c 0.437485,-0.152155 1.074695,-0.304325 1.911631,-0.456509 0.836927,-0.152154 1.730923,-0.228239 2.681989,-0.228254 m 4.679215,-2.824649 -1.340994,1.512186 -2.824648,-2.311076 -2.796117,2.311076 -1.369526,-1.512186 4.165643,-3.994451 4.165642,3.994451" style="font-variant:normal;font-weight:500;font-stretch:normal;color:black;fill:#fefefe;fill-opacity:1;fill-rule:nonzero;stroke:none;marker:none;visibility:visible;display:inline;overflow:visible;enable-background:accumulate;font-family:Ubuntu;-inkscape-font-specification:Ubuntu Medium" id="path4049" inkscape:connector-curvature="0" />
        </g>
        <g transform="matrix(0.7042865,0,0,0.5722528,-2.2432834,20.697139)" id="g4022" style="font-size:28.53179932px;font-style:normal;font-weight:normal;line-height:125%;letter-spacing:0px;word-spacing:0px;fill:url(#linearGradient4028);fill-opacity:1;stroke:none;font-family:Sans">
            <path inkscape:connector-curvature="0" id="path4024" style="font-variant:normal;font-weight:500;font-stretch:normal;fill:url(#linearGradient4026);fill-opacity:1;font-family:Ubuntu;-inkscape-font-specification:Ubuntu Medium" d="m 23.689481,31.574797 c 1.065179,2e-6 1.873579,-0.05706 2.425203,-0.171191 l 0,-3.823261 c -0.190222,-0.05706 -0.466029,-0.114121 -0.827422,-0.171191 -0.361412,-0.05706 -0.760856,-0.08559 -1.198336,-0.0856 -0.380431,7e-6 -0.770365,0.02854 -1.169803,0.0856 -0.380431,0.05707 -0.732323,0.161687 -1.055677,0.31385 -0.304345,0.152176 -0.55162,0.370919 -0.741827,0.656232 -0.190216,0.266302 -0.285322,0.608683 -0.285318,1.027144 -4e-6,0.817916 0.256782,1.388551 0.770359,1.711908 0.513566,0.304342 1.207839,0.456511 2.082821,0.456509 M 23.404163,18.706956 c 1.141264,1.5e-5 2.101833,0.142674 2.881712,0.427977 0.779858,0.285332 1.398047,0.684777 1.854567,1.198335 0.475517,0.513586 0.808388,1.141285 0.998613,1.883099 0.20922,0.722817 0.313836,1.521706 0.31385,2.396671 l 0,9.04458 c -0.532607,0.114128 -1.341007,0.247276 -2.425203,0.399446 -1.065197,0.17119 -2.273042,0.256785 -3.623539,0.256786 -0.894003,-1e-6 -1.711913,-0.0856 -2.453735,-0.256786 -0.74183,-0.171191 -1.37904,-0.446998 -1.91163,-0.827423 -0.513575,-0.380422 -0.92253,-0.874973 -1.226868,-1.483653 -0.285319,-0.608676 -0.427978,-1.360012 -0.427977,-2.254012 -1e-6,-0.855949 0.161679,-1.578754 0.485041,-2.168417 0.34238,-0.58965 0.798888,-1.065179 1.369526,-1.42659 0.570633,-0.380416 1.226864,-0.646712 1.968695,-0.79889 0.760842,-0.171182 1.550221,-0.256777 2.368139,-0.256787 0.380416,10e-6 0.779861,0.02854 1.198335,0.0856 0.418458,0.03805 0.865456,0.114136 1.340995,0.228254 l 0,-0.570636 c -10e-6,-0.399435 -0.04756,-0.779859 -0.142659,-1.141272 -0.09512,-0.361392 -0.266306,-0.675241 -0.513572,-0.941549 -0.228264,-0.285306 -0.542113,-0.50405 -0.94155,-0.656232 -0.380432,-0.152157 -0.865472,-0.228242 -1.455121,-0.228254 -0.798897,1.2e-5 -1.531212,0.05708 -2.196949,0.171191 -0.665746,0.114139 -1.20785,0.247287 -1.626313,0.399445 l -0.427977,-2.796116 c 0.437485,-0.152155 1.074695,-0.304325 1.911631,-0.456509 0.836927,-0.152154 1.730923,-0.228239 2.681989,-0.228254 m 4.679215,-2.824649 -1.340994,1.512186 -2.824648,-2.311076 -2.796117,2.311076 -1.369526,-1.512186 4.165643,-3.994451 4.165642,3.994451" />
        </g>
    </g>
</svg>
