<?xml version="1.0" encoding="UTF-8" standalone="no"?>
<!-- Created with Inkscape (http://www.inkscape.org/) -->

<svg xmlns:dc="http://purl.org/dc/elements/1.1/" xmlns:cc="http://creativecommons.org/ns#" xmlns:rdf="http://www.w3.org/1999/02/22-rdf-syntax-ns#" xmlns:svg="http://www.w3.org/2000/svg" xmlns="http://www.w3.org/2000/svg" xmlns:xlink="http://www.w3.org/1999/xlink" xmlns:sodipodi="http://sodipodi.sourceforge.net/DTD/sodipodi-0.dtd" xmlns:inkscape="http://www.inkscape.org/namespaces/inkscape" width="24" height="24" id="svg3437" version="1.1" inkscape:version="0.48.4 r9939" sodipodi:docname="hardinfo.svg">
    <defs id="defs3439">
        <linearGradient id="linearGradient4695">
            <stop style="stop-color:white;stop-opacity:0.5;" offset="0" id="stop4697" />
            <stop style="stop-color:white;stop-opacity:0;" offset="1" id="stop4699" />
        </linearGradient>
        <linearGradient inkscape:collect="always" xlink:href="#linearGradient4594-3" id="linearGradient5698" gradientUnits="userSpaceOnUse" gradientTransform="matrix(0.5155929,0,0,0.4931506,0.860694,1027.4033)" x1="8.2114201" y1="-5.7136502" x2="31.74275" y2="25.48744" />
        <linearGradient gradientUnits="userSpaceOnUse" id="linearGradient4594-3" x1="8.2114201" x2="31.74275" y1="-5.7136502" y2="25.48744">
            <stop offset="0" stop-color="#fff" id="stop37-5-1-3" />
            <stop offset="1" stop-color="#fff" stop-opacity="0" id="stop39-0" />
        </linearGradient>
        <linearGradient inkscape:collect="always" xlink:href="#linearGradient4695" id="linearGradient4701" x1="12" y1="1030.3622" x2="12" y2="1046.3622" gradientUnits="userSpaceOnUse" />
    </defs>
    <sodipodi:namedview id="base" pagecolor="#ffffff" bordercolor="#666666" borderopacity="1.0" inkscape:pageopacity="0.0" inkscape:pageshadow="2" inkscape:zoom="8" inkscape:cx="26.14108" inkscape:cy="10.615803" inkscape:document-units="px" inkscape:current-layer="capa1" showgrid="true" inkscape:window-width="1280" inkscape:window-height="949" inkscape:window-x="0" inkscape:window-y="0" inkscape:window-maximized="1" inkscape:snap-bbox="true">
        <inkscape:grid type="xygrid" id="grid3445" empspacing="5" visible="true" enabled="true" snapvisiblegridlinesonly="true" />
    </sodipodi:namedview>
    <metadata id="metadata3442">
        <rdf:RDF>
            <cc:Work rdf:about="">
                <dc:format>image/svg+xml</dc:format>
                <dc:type rdf:resource="http://purl.org/dc/dcmitype/StillImage" />
                <dc:title />
            </cc:Work>
        </rdf:RDF>
    </metadata>
    <g inkscape:label="Capa 1" inkscape:groupmode="layer" id="capa1" transform="translate(0,-1028.3622)">
        <path style="color:black;fill:#85882b;fill-opacity:1;fill-rule:nonzero;stroke:#3e4508;stroke-width:1;stroke-linecap:round;stroke-linejoin:round;stroke-miterlimit:4;stroke-opacity:1;stroke-dasharray:none;stroke-dashoffset:0;marker:none;visibility:visible;display:inline;overflow:visible;enable-background:accumulate" d="m 13.5,1044.8622 -12,0 0,4.6666 c 0,0.7392 0.6931267,1.3334 1.555555,1.3334 l 8.888889,0 c 0.862428,0 1.555556,-0.5 1.555556,-1.3334 z" id="path3868" inkscape:connector-curvature="0" sodipodi:nodetypes="ccssssc" />
        <path sodipodi:nodetypes="ccssssc" inkscape:connector-curvature="0" id="path4001" d="m 22.5,1044.8622 -6,0 0,4.6666 c 0,0.7392 0.725793,1.3334 1.481818,1.3334 l 3.154545,0 c 0.756026,0 1.363637,-0.5942 1.363637,-1.3334 z" style="color:black;fill:#85882b;fill-opacity:1;fill-rule:nonzero;stroke:#3e4508;stroke-width:1;stroke-linecap:round;stroke-linejoin:round;stroke-miterlimit:4;stroke-opacity:1;stroke-dasharray:none;stroke-dashoffset:0;marker:none;visibility:visible;display:inline;overflow:visible;enable-background:accumulate" />
        <path style="color:black;fill:#dcd900;fill-opacity:1;fill-rule:nonzero;stroke:none;stroke-width:1;marker:none;visibility:visible;display:inline;overflow:visible;enable-background:accumulate" d="m 18,1046.3622 0,4 1,0 0,-4 -1,0 z m 2,0 0,4 1,0 0,-4 -1,0 z" id="path4626" inkscape:connector-curvature="0" />
        <path style="color:black;fill:#dcd900;fill-opacity:1;fill-rule:nonzero;stroke:none;stroke-width:1;marker:none;visibility:visible;display:inline;overflow:visible;enable-background:accumulate" d="m 3,1046.3622 0,4 1,0 0,-4 -1,0 z m 2,0 0,4 1,0 0,-4 -1,0 z m 2,0 0,4 1,0 0,-4 -1,0 z m 2,0 0,4 1,0 0,-4 -1,0 z m 2,0 0,4 1,0 0,-4 -1,0 z" id="path4640" inkscape:connector-curvature="0" />
        <rect ry="2.5" y="1029.8622" x="1.5000001" height="17.000017" width="21" id="rect4644" style="color:black;fill:#50ac00;fill-opacity:1;fill-rule:nonzero;stroke:#1f5200;stroke-width:1;stroke-linecap:round;stroke-linejoin:round;stroke-miterlimit:4;stroke-opacity:1;stroke-dasharray:none;stroke-dashoffset:0;marker:none;visibility:visible;display:inline;overflow:visible;enable-background:accumulate" />
        <rect style="color:black;fill:#282828;fill-opacity:1;fill-rule:nonzero;stroke:none;stroke-width:0.99999981999999998;marker:none;visibility:visible;display:inline;overflow:visible;enable-background:accumulate" id="rect4030" width="9" height="9.0000172" x="12" y="1031.3622" ry="0.99999994" rx="1" />
        <path style="color:black;fill:white;fill-opacity:1;fill-rule:nonzero;stroke:none;stroke-width:1;marker:none;visibility:visible;display:inline;overflow:visible;enable-background:accumulate" d="m 21,1032.3622 0,1 1,0 0,-1 -1,0 z m 0,2 0,1 1,0 0,-1 -1,0 z m 0,2 0,1 1,0 0,-1 -1,0 z m 0,2 0,1 1,0 0,-1 -1,0 z" id="rect4034" inkscape:connector-curvature="0" />
        <g id="g4617">
            <rect style="color:black;fill:black;fill-opacity:1;fill-rule:nonzero;stroke:none;stroke-width:1;marker:none;visibility:visible;display:inline;overflow:visible;enable-background:accumulate" id="rect4660" width="2" height="3.000037" x="13" y="1042.3622" />
            <path inkscape:connector-curvature="0" id="path4452" d="m 12,1042.3622 0,1 1,0 0,-1 -1,0 z" style="color:black;fill:white;fill-opacity:1;fill-rule:nonzero;stroke:none;stroke-width:1;marker:none;visibility:visible;display:inline;overflow:visible;enable-background:accumulate" />
            <path style="color:black;fill:white;fill-opacity:1;fill-rule:nonzero;stroke:none;stroke-width:1;marker:none;visibility:visible;display:inline;overflow:visible;enable-background:accumulate" d="m 12,1044.3622 0,1 1,0 0,-1 -1,0 z" id="path4456" inkscape:connector-curvature="0" />
            <path style="color:black;fill:white;fill-opacity:1;fill-rule:nonzero;stroke:none;stroke-width:1;marker:none;visibility:visible;display:inline;overflow:visible;enable-background:accumulate" d="m 15,1042.3622 0,1 1,0 0,-1 -1,0 z" id="path4458" inkscape:connector-curvature="0" />
            <path inkscape:connector-curvature="0" id="path4460" d="m 15,1044.3622 0,1 1,0 0,-1 -1,0 z" style="color:black;fill:white;fill-opacity:1;fill-rule:nonzero;stroke:none;stroke-width:1;marker:none;visibility:visible;display:inline;overflow:visible;enable-background:accumulate" />
        </g>
        <g transform="translate(6,-1.9572067e-5)" id="g4541">
            <rect y="1042.3622" x="12" height="3.000037" width="2" id="rect4543" style="color:black;fill:black;fill-opacity:1;fill-rule:nonzero;stroke:none;stroke-width:1;marker:none;visibility:visible;display:inline;overflow:visible;enable-background:accumulate" />
            <path style="color:black;fill:white;fill-opacity:1;fill-rule:nonzero;stroke:none;stroke-width:1;marker:none;visibility:visible;display:inline;overflow:visible;enable-background:accumulate" d="m 11,1042.3622 0,1 1,0 0,-1 -1,0 z" id="path4545" inkscape:connector-curvature="0" />
            <path inkscape:connector-curvature="0" id="path4547" d="m 11,1044.3622 0,1 1,0 0,-1 -1,0 z" style="color:black;fill:white;fill-opacity:1;fill-rule:nonzero;stroke:none;stroke-width:1;marker:none;visibility:visible;display:inline;overflow:visible;enable-background:accumulate" />
            <path inkscape:connector-curvature="0" id="path4549" d="m 14,1042.3622 0,1 1,0 0,-1 -1,0 z" style="color:black;fill:white;fill-opacity:1;fill-rule:nonzero;stroke:none;stroke-width:1;marker:none;visibility:visible;display:inline;overflow:visible;enable-background:accumulate" />
            <path style="color:black;fill:white;fill-opacity:1;fill-rule:nonzero;stroke:none;stroke-width:1;marker:none;visibility:visible;display:inline;overflow:visible;enable-background:accumulate" d="m 14,1044.3622 0,1 1,0 0,-1 -1,0 z" id="path4551" inkscape:connector-curvature="0" />
        </g>
        <path style="color:black;fill:white;fill-opacity:1;fill-rule:nonzero;stroke:none;stroke-width:1;marker:none;visibility:visible;display:inline;overflow:visible;enable-background:accumulate" d="M 11 4 L 11 5 L 12 5 L 12 4 L 11 4 z M 11 6 L 11 7 L 12 7 L 12 6 L 11 6 z M 11 8 L 11 9 L 12 9 L 12 8 L 11 8 z M 11 10 L 11 11 L 12 11 L 12 10 L 11 10 z " transform="translate(0,1028.3622)" id="rect4559" />
        <path style="color:black;fill:white;fill-opacity:1;fill-rule:nonzero;stroke:none;stroke-width:1;marker:none;visibility:visible;display:inline;overflow:visible;enable-background:accumulate" d="M 13 12 L 13 13 L 14 13 L 14 12 L 13 12 z M 15 12 L 15 13 L 16 13 L 16 12 L 15 12 z M 17 12 L 17 13 L 18 13 L 18 12 L 17 12 z M 19 12 L 19 13 L 20 13 L 20 12 L 19 12 z " transform="translate(0,1028.3622)" id="rect4567" />
        <path style="color:black;fill:white;fill-opacity:1;fill-rule:nonzero;stroke:none;stroke-width:1;marker:none;visibility:visible;display:inline;overflow:visible;enable-background:accumulate" d="M 13 2 L 13 3 L 14 3 L 14 2 L 13 2 z M 15 2 L 15 3 L 16 3 L 16 2 L 15 2 z M 17 2 L 17 3 L 18 3 L 18 2 L 17 2 z M 19 2 L 19 3 L 20 3 L 20 2 L 19 2 z " id="rect4575" transform="translate(0,1028.3622)" />
        <path sodipodi:type="arc" style="color:black;fill:white;fill-opacity:1;fill-rule:nonzero;stroke:none;stroke-width:1;marker:none;visibility:visible;display:inline;overflow:visible;enable-background:accumulate" id="path4401" sodipodi:cx="13" sodipodi:cy="2" sodipodi:rx="2" sodipodi:ry="2" d="m 15,2 c 0,1.1045695 -0.895431,2 -2,2 -1.104569,0 -2,-0.8954305 -2,-2 0,-1.1045695 0.895431,-2 2,-2 1.104569,0 2,0.8954305 2,2 z" transform="matrix(1.25,0,0,1.25,-10.75,1031.3623)" />
        <rect ry="1.5" y="1030.3622" x="4" height="4.9999828" width="3" id="rect4403" style="color:black;fill:black;fill-opacity:1;fill-rule:nonzero;stroke:none;stroke-width:1;marker:none;visibility:visible;display:inline;overflow:visible;enable-background:accumulate" rx="1.5" />
        <path transform="matrix(1.25,0,0,1.25,-7.75,1036.3622)" d="m 15,2 c 0,1.1045695 -0.895431,2 -2,2 -1.104569,0 -2,-0.8954305 -2,-2 0,-1.1045695 0.895431,-2 2,-2 1.104569,0 2,0.8954305 2,2 z" sodipodi:ry="2" sodipodi:rx="2" sodipodi:cy="2" sodipodi:cx="13" id="path4588" style="color:black;fill:white;fill-opacity:1;fill-rule:nonzero;stroke:none;stroke-width:1;marker:none;visibility:visible;display:inline;overflow:visible;enable-background:accumulate" sodipodi:type="arc" />
        <rect rx="1.5" style="color:black;fill:black;fill-opacity:1;fill-rule:nonzero;stroke:none;stroke-width:1;marker:none;visibility:visible;display:inline;overflow:visible;enable-background:accumulate" id="rect4590" width="3" height="4.9999828" x="7" y="1035.3622" ry="1.5" />
        <path sodipodi:type="arc" style="color:black;fill:white;fill-opacity:1;fill-rule:nonzero;stroke:none;stroke-width:1;marker:none;visibility:visible;display:inline;overflow:visible;enable-background:accumulate" id="path4592" sodipodi:cx="13" sodipodi:cy="2" sodipodi:rx="2" sodipodi:ry="2" d="m 15,2 c 0,1.1045695 -0.895431,2 -2,2 -1.104569,0 -2,-0.8954305 -2,-2 0,-1.1045695 0.895431,-2 2,-2 1.104569,0 2,0.8954305 2,2 z" transform="matrix(1.25,0,0,1.25,-10.75,1041.3622)" />
        <rect ry="1.5" y="1040.3622" x="4" height="4.9999828" width="3" id="rect4594" style="color:black;fill:black;fill-opacity:1;fill-rule:nonzero;stroke:none;stroke-width:1;marker:none;visibility:visible;display:inline;overflow:visible;enable-background:accumulate" rx="1.5" />
        <path inkscape:connector-curvature="0" id="path4615" d="m 9,1042.3622 0,3 2,0 0,-3 -2,0 z" style="color:black;fill:white;fill-opacity:1;fill-rule:nonzero;stroke:none;stroke-width:1;marker:none;visibility:visible;display:inline;overflow:visible;enable-background:accumulate" />
        <rect style="color:black;fill:none;stroke:url(#linearGradient4701);stroke-width:1;stroke-miterlimit:4;stroke-opacity:1;stroke-dasharray:none;marker:none;visibility:visible;display:inline;overflow:visible;enable-background:accumulate" id="rect4642" width="19" height="15.000017" x="2.5" y="1030.8622" ry="1.5" rx="1.5" />
        <path style="opacity:0.98999999;fill:url(#linearGradient5698)" inkscape:connector-curvature="0" d="m 10,1030.3622 10,0 c 1,0 2,1 2,2 l 0,14 -7,0 z" id="path57-5-0" sodipodi:nodetypes="cssccc" />
    </g>
</svg>
