<?xml version="1.0" encoding="UTF-8" standalone="no"?>
<!-- Created with Inkscape (http://www.inkscape.org/) -->

<svg xmlns:dc="http://purl.org/dc/elements/1.1/" xmlns:cc="http://creativecommons.org/ns#" xmlns:rdf="http://www.w3.org/1999/02/22-rdf-syntax-ns#" xmlns:svg="http://www.w3.org/2000/svg" xmlns="http://www.w3.org/2000/svg" xmlns:xlink="http://www.w3.org/1999/xlink" xmlns:sodipodi="http://sodipodi.sourceforge.net/DTD/sodipodi-0.dtd" xmlns:inkscape="http://www.inkscape.org/namespaces/inkscape" width="24" height="24" id="svg3437" version="1.1" inkscape:version="0.48.4 r9939" sodipodi:docname="inkscape.svg">
    <defs id="defs3439">
        <linearGradient gradientUnits="userSpaceOnUse" id="linearGradient4353">
            <stop offset="0" style="stop-color:#ffffff;stop-opacity:1" id="stop4355" />
            <stop offset="1" style="stop-color:#ffffff;stop-opacity:0" id="stop4357" />
        </linearGradient>
        <linearGradient inkscape:collect="always" xlink:href="#linearGradient4594-3" id="linearGradient5698" gradientUnits="userSpaceOnUse" gradientTransform="matrix(0.5155929,0,0,0.4931506,0.860694,1027.4033)" x1="15.786304" y1="-2.1111197" x2="37.120964" y2="32.361107" />
        <linearGradient gradientUnits="userSpaceOnUse" id="linearGradient4594-3" x1="8.2114201" x2="31.74275" y1="-5.7136502" y2="25.48744">
            <stop offset="0" stop-color="#fff" id="stop37-5-1-3" />
            <stop offset="1" stop-color="#fff" stop-opacity="0" id="stop39-0" />
        </linearGradient>
        <linearGradient inkscape:collect="always" xlink:href="#linearGradient4050" id="linearGradient3120" gradientUnits="userSpaceOnUse" gradientTransform="matrix(0.53950487,0,0,0.61161008,-0.971527,1026.9329)" x1="22.440199" y1="4.8942533" x2="22.440199" y2="38.21666" />
        <linearGradient id="linearGradient4050">
            <stop id="stop4052" offset="0" style="stop-color:white;stop-opacity:0.50196081;" />
            <stop id="stop4054" offset="1" style="stop-color:#ffffff;stop-opacity:0;" />
        </linearGradient>
        <linearGradient id="WhiteTransparent-3" gradientUnits="userSpaceOnUse">
            <stop id="stop7606-1" style="stop-color:#ffffff;stop-opacity:1" offset="0" />
            <stop id="stop7608-8" style="stop-color:#ffffff;stop-opacity:0" offset="1" />
        </linearGradient>
        <linearGradient id="linearGradient5899-9">
            <stop id="stop5901-9" style="stop-color:#ffffff;stop-opacity:1" offset="0" />
            <stop id="stop5903-3" style="stop-color:#ffffff;stop-opacity:0" offset="1" />
        </linearGradient>
        <linearGradient inkscape:collect="always" xlink:href="#linearGradient3873-2" id="linearGradient3308-6" gradientUnits="userSpaceOnUse" gradientTransform="matrix(0.5288008,0,0,0.5288008,-0.44311859,1027.9432)" x1="14" y1="44" x2="14" y2="4" />
        <linearGradient id="linearGradient3873-2">
            <stop id="stop3875-6" offset="0" style="stop-color:#7fc1dc;stop-opacity:1;" />
            <stop id="stop3877-1" offset="1" style="stop-color:#e3f6f3;stop-opacity:1;" />
        </linearGradient>
        <linearGradient inkscape:collect="always" xlink:href="#linearGradient3881-9" id="linearGradient3310-9" gradientUnits="userSpaceOnUse" gradientTransform="matrix(0.5288008,0,0,0.5288008,-0.44311859,1027.9432)" x1="23" y1="4" x2="23" y2="44" />
        <linearGradient id="linearGradient3881-9">
            <stop id="stop3883-7" offset="0" style="stop-color:#8ac3d2;stop-opacity:1;" />
            <stop id="stop3885-3" offset="1" style="stop-color:#256676;stop-opacity:1;" />
        </linearGradient>
        <linearGradient id="linearGradient3132-6" inkscape:collect="always">
            <stop id="stop3134-8" offset="0" style="stop-color:#8ac3d2;stop-opacity:1" />
            <stop id="stop3136-7" offset="1" style="stop-color:#256676;stop-opacity:1" />
        </linearGradient>
        <linearGradient inkscape:collect="always" xlink:href="#linearGradient3132-6" id="linearGradient4243" gradientUnits="userSpaceOnUse" gradientTransform="matrix(1,0,0,1.0526315,26.191955,1059.3472)" x1="-19.191956" y1="-1004.4799" x2="-19.191956" y2="-985.47992" />
        <linearGradient inkscape:collect="always" xlink:href="#WhiteTransparent-3" id="linearGradient4343" gradientUnits="userSpaceOnUse" gradientTransform="matrix(0.22027124,0,0,0.21814715,-38.827801,1029.388)" x1="30.997242" y1="37.310387" x2="46.037903" y2="52.497498" />
        <linearGradient inkscape:collect="always" xlink:href="#linearGradient4353" id="linearGradient4345" gradientUnits="userSpaceOnUse" gradientTransform="matrix(0.21826669,0,0,0.21616193,-38.742879,1029.4708)" x1="60" y1="20" x2="90" y2="50" />
        <linearGradient inkscape:collect="always" xlink:href="#linearGradient5899-9" id="linearGradient4347" gradientUnits="userSpaceOnUse" gradientTransform="matrix(0.10658109,0,0,0.10555332,-40.565132,1028.2636)" x1="95.5" y1="208.16444" x2="153.5" y2="223.5" />
        <clipPath clipPathUnits="userSpaceOnUse" id="clipPath4349">
            <rect rx="1.5559828" ry="1.5409786" y="1030.3181" x="-38.249046" height="21.044142" width="21.249046" id="rect4351" style="color:black;fill:black;fill-opacity:1;fill-rule:nonzero;stroke:none;stroke-width:1;marker:none;visibility:visible;display:inline;overflow:visible;enable-background:accumulate" />
        </clipPath>
    </defs>
    <sodipodi:namedview id="base" pagecolor="#ffffff" bordercolor="#666666" borderopacity="1.0" inkscape:pageopacity="0.0" inkscape:pageshadow="2" inkscape:zoom="15.839192" inkscape:cx="32.562619" inkscape:cy="18.001369" inkscape:document-units="px" inkscape:current-layer="capa1" showgrid="true" inkscape:window-width="1280" inkscape:window-height="976" inkscape:window-x="0" inkscape:window-y="24" inkscape:window-maximized="1" inkscape:snap-page="true" inkscape:snap-center="true" inkscape:snap-object-midpoints="true">
        <inkscape:grid type="xygrid" id="grid3445" empspacing="5" visible="true" enabled="true" snapvisiblegridlinesonly="true" />
    </sodipodi:namedview>
    <metadata id="metadata3442">
        <rdf:RDF>
            <cc:Work rdf:about="">
                <dc:format>image/svg+xml</dc:format>
                <dc:type rdf:resource="http://purl.org/dc/dcmitype/StillImage" />
                <dc:title />
            </cc:Work>
        </rdf:RDF>
    </metadata>
    <g inkscape:label="Capa 1" inkscape:groupmode="layer" id="capa1" transform="translate(0,-1028.3622)">
        <rect style="color:black;fill:url(#linearGradient3308-6);fill-opacity:1;fill-rule:nonzero;stroke:url(#linearGradient3310-9);stroke-width:1;stroke-linecap:round;stroke-linejoin:round;stroke-miterlimit:4;stroke-opacity:1;stroke-dasharray:none;stroke-dashoffset:0;marker:none;visibility:visible;display:inline;overflow:visible;enable-background:accumulate" id="rect3874" width="21" height="21" x="1.5" y="1029.8622" ry="2" rx="2" />
        <path style="color:black;fill:url(#linearGradient4243);fill-opacity:1;fill-rule:nonzero;stroke:none;stroke-width:1;marker:none;visibility:visible;display:inline;overflow:visible;enable-background:accumulate" d="m 6,2 0,4 -4,0 0,1 4,0 0,4 -4,0 0,1 4,0 0,5 -4,0 0,1 4,0 0,4 1,0 0,-4 4,0 0,4 1,0 0,-4 5,0 0,4 1,0 0,-4 4,0 0,-1 -4,0 0,-5 4,0 0,-1 -4,0 0,-4 4,0 0,-1 -4,0 0,-4 -1,0 0,4 -5,0 0,-4 -1,0 0,4 -4,0 0,-4 z m 1,5 4,0 0,4 -4,0 z m 5,0 5,0 0,4 -5,0 z m -5,5 4,0 0,5 -4,0 z m 5,0 5,0 0,5 -5,0 z" transform="translate(0,1028.3622)" id="rect4129" inkscape:connector-curvature="0" sodipodi:nodetypes="ccccccccccccccccccccccccccccccccccccccccccccccccccccccccccccccccc" />
        <g id="g4336" transform="translate(40,0)" clip-path="url(#clipPath4349)">
            <path style="fill:black;fill-opacity:1;stroke:none" id="use7631" d="m -26.934651,1032.1728 -8.992588,9.122 c -3.40496,3.3722 2.204494,3.0912 4.234373,4.3665 0.938548,0.6053 -3.01208,1.3835 -2.204492,2.1833 0.785759,0.7998 4.736385,1.5347 5.522146,2.3129 0.785761,0.7998 -1.593347,1.6428 -0.807586,2.4426 0.763933,0.7998 2.597373,0.043 2.924773,1.859 0.240094,1.3402 3.361308,0.6701 4.758215,-0.4755 0.873066,-0.735 -1.50604,-0.735 -0.720281,-1.5348 1.964401,-1.9671 3.710534,-0.8863 4.430813,-2.702 0.392882,-0.9728 -2.968427,-1.6645 -2.073533,-2.2913 2.139015,-1.4916 9.9966138,-2.2481 6.373387,-5.8364 l -9.319988,-9.4463 c -1.156812,-1.0808 -3.055732,-1.0808 -4.125239,0 z" inkscape:connector-curvature="0" sodipodi:nodetypes="cccccccccccccc" />
            <path style="fill:none" id="use7639" d="m -26.934651,1032.1728 -8.992588,9.122 c -3.40496,3.3722 2.204494,3.0912 4.234373,4.3665 0.938548,0.6053 -3.01208,1.3835 -2.204492,2.1833 0.785759,0.7998 4.736385,1.5347 5.522146,2.3129 0.785761,0.7998 -1.593347,1.6428 -0.807586,2.4426 0.763933,0.7998 2.597373,0.043 2.924773,1.859 0.240094,1.3402 3.361308,0.6701 4.758215,-0.4755 0.873066,-0.735 -1.50604,-0.735 -0.720281,-1.5348 1.964401,-1.9671 3.710534,-0.8863 4.430813,-2.702 0.392882,-0.9728 -2.968427,-1.6645 -2.073533,-2.2913 2.139015,-1.4916 9.9966138,-2.2481 6.373387,-5.8364 l -9.319988,-9.4463 c -1.156812,-1.0808 -3.055732,-1.0808 -4.125239,0 z m 10.324013,17.574 c 0,0.4539 3.557747,0.7133 3.361309,-0.1081 -0.283749,-1.3834 -2.968427,-1.2754 -3.361309,0.1081 z m -15.169534,2.3994 c 0.807587,0.6917 2.029879,-0.1513 2.422761,-1.1241 -0.785761,-1.0159 -3.688708,0.065 -2.422761,1.1241 z m 14.733001,-1.4483 c -1.004025,0.9079 0.174613,1.859 1.156815,1.2321 0.261918,-0.1729 -0.02183,-1.0159 -1.156815,-1.2321 z" inkscape:connector-curvature="0" />
            <path style="fill:url(#linearGradient4343);stroke:none" id="path7643" d="m -35.127244,1041.8005 c -2.445011,2.3996 1.850277,1.7234 5.154348,3.0105 l 6.828407,-11.8891 c -1.035274,-1.0471 -2.356903,-0.9598 -3.304068,0 l -8.678687,8.8786 z" inkscape:connector-curvature="0" />
            <path style="fill:url(#linearGradient4345);fill-rule:nonzero;stroke:none;fill-opacity:1.0" id="icecap" d="m -23.355078,1032.8213 3.557747,3.5883 c 0.3274,0.3242 0.3274,0.9943 0.130961,1.1889 l -1.76796,-1.4267 -0.349228,2.0968 -1.462387,-0.7782 -2.379106,1.4915 -0.785761,-3.1343 -1.265946,2.7236 -3.164868,-0.022 c -0.611146,0 -0.52384,-0.6269 0.109134,-1.2537 1.24412,-1.3619 3.66688,-3.6748 4.430813,-4.4746 0.785761,-0.7998 2.160842,-0.7782 2.946601,0 z" inkscape:connector-curvature="0" />
            <path sodipodi:nodetypes="cccccsccc" style="opacity:0.5;fill:url(#linearGradient4347);fill-opacity:1;fill-rule:evenodd;stroke:none" id="path5897" d="m -30.260369,1046.4818 c -0.542563,0.1586 -2.054929,0.4561 -2.177955,1.0037 -0.182867,0.8136 4.32505,1.1773 5.059519,2.5611 0.631345,1.1894 -1.110322,1.532 -0.881985,2.1755 0.17583,0.4956 2.51333,0.014 3.51333,2.0139 0.494336,0.6515 0.823578,-0.6876 0.462589,-1.3785 -0.5751,-1.1007 1.965639,-2.4488 3.117497,-3.0611 0.672019,-0.3572 -1.385554,-2.111 -1.385554,-2.111 z" inkscape:connector-curvature="0" />
        </g>
        <rect rx="2" ry="2" y="1029.8622" x="1.5" height="21" width="21" id="rect4298" style="color:black;fill:none;fill-opacity:1;fill-rule:nonzero;stroke:url(#linearGradient3310-9);stroke-width:1;stroke-linecap:round;stroke-linejoin:round;stroke-miterlimit:4;stroke-opacity:1;stroke-dasharray:none;stroke-dashoffset:0;marker:none;visibility:visible;display:inline;overflow:visible;enable-background:accumulate" />
        <rect width="19" height="19" ry="0.99999994" x="2.5" y="1030.8622" id="rect4513" style="opacity:1;fill:none;stroke:url(#linearGradient3120);stroke-width:1;stroke-miterlimit:4;stroke-opacity:1;stroke-dasharray:none" rx="1" />
        <g transform="matrix(0.19185965,-0.04171837,0.05103819,0.15043347,-43.153947,1037.4095)" id="g9018" />
        <path style="opacity:0.98999999000000005;fill:url(#linearGradient5698);stroke:none" inkscape:connector-curvature="0" d="m 10,1030.3622 10.671078,0 c 0.664086,0 1.328922,0.5064 1.328922,1.2515 l 0,18.7485 -6.652508,0 z" id="path57-5-0" sodipodi:nodetypes="cssccc" />
    </g>
    <style type="text/css" id="style26" />
</svg>
