<?xml version="1.0" encoding="UTF-8" standalone="no"?>
<svg xmlns:dc="http://purl.org/dc/elements/1.1/" xmlns:cc="http://creativecommons.org/ns#" xmlns:rdf="http://www.w3.org/1999/02/22-rdf-syntax-ns#" xmlns:svg="http://www.w3.org/2000/svg" xmlns="http://www.w3.org/2000/svg" xmlns:xlink="http://www.w3.org/1999/xlink" xmlns:sodipodi="http://sodipodi.sourceforge.net/DTD/sodipodi-0.dtd" xmlns:inkscape="http://www.inkscape.org/namespaces/inkscape" viewBox="0 0 24 24" id="svg2" version="1.1" inkscape:version="0.48.4 r9939" width="100%" height="100%" sodipodi:docname="libreoffice-impress.svg">
    <metadata id="metadata68">
        <rdf:RDF>
            <cc:Work rdf:about="">
                <dc:format>image/svg+xml</dc:format>
                <dc:type rdf:resource="http://purl.org/dc/dcmitype/StillImage" />
                <dc:title />
            </cc:Work>
        </rdf:RDF>
    </metadata>
    <sodipodi:namedview pagecolor="#ffffff" bordercolor="#666666" borderopacity="1" objecttolerance="10" gridtolerance="10" guidetolerance="10" inkscape:pageopacity="0" inkscape:pageshadow="2" inkscape:window-width="1280" inkscape:window-height="976" id="namedview66" showgrid="true" inkscape:zoom="13.906433" inkscape:cx="28.268481" inkscape:cy="11.795817" inkscape:window-x="0" inkscape:window-y="24" inkscape:window-maximized="1" inkscape:current-layer="svg2" inkscape:snap-grids="true">
        <inkscape:grid type="xygrid" id="grid3135" />
    </sodipodi:namedview>
    <defs id="defs4">
        <linearGradient id="linearGradient3853-1">
            <stop id="stop3855-4" offset="0" style="stop-color:#ffffff;stop-opacity:1;" />
            <stop id="stop3857-0" offset="1" style="stop-color:#ffffff;stop-opacity:0;" />
        </linearGradient>
        <linearGradient inkscape:collect="always" xlink:href="#linearGradient3853-1" id="linearGradient3703" gradientUnits="userSpaceOnUse" gradientTransform="matrix(1,0,0,0.54285714,-5,-0.8)" x1="13" y1="7" x2="13" y2="42" />
        <linearGradient inkscape:collect="always" xlink:href="#linearGradient3157-5-5-9" id="linearGradient3342-9" gradientUnits="userSpaceOnUse" gradientTransform="matrix(0,-0.56508953,-0.56443549,0,27.945116,-1.7932802)" x1="-42.696152" x2="-5.8431101" />
        <linearGradient gradientTransform="matrix(0,-1,-1,0,1.6172605e-8,-1.5826913e-8)" x2="-5.8431101" x1="-42.696152" id="linearGradient3157-5-5-9" gradientUnits="userSpaceOnUse">
            <stop id="stop19-7-8" stop-color="#fff" offset="0" />
            <stop id="stop21-30-9" stop-color="#cdcdcd" offset="1" />
        </linearGradient>
        <linearGradient inkscape:collect="always" xlink:href="#linearGradient3866-3-4" id="linearGradient3344-2" gradientUnits="userSpaceOnUse" gradientTransform="matrix(0,-0.56508953,-0.56443549,0,27.945116,-1.7932802)" x1="-5" y1="-21" x2="-43" y2="-21" />
        <linearGradient id="linearGradient3866-3-4">
            <stop id="stop3868-6-7" offset="0" style="stop-color:#818181;stop-opacity:1;" />
            <stop id="stop3870-27-9" offset="1" style="stop-color:#754122;stop-opacity:1;" />
        </linearGradient>
        <linearGradient inkscape:collect="always" xlink:href="#linearGradient998-9-9-6" id="linearGradient4234-5" gradientUnits="userSpaceOnUse" gradientTransform="matrix(0,0.57408411,-1.0385746,0,12.579885,-1.696904)" x1="6" y1="-23" x2="42" y2="-23" />
        <linearGradient gradientUnits="userSpaceOnUse" id="linearGradient998-9-9-6" x1="6" x2="42" y2="-23" y1="-23">
            <stop offset="0" stop-color="#fff" id="stop24-5-8-9" />
            <stop offset="1" stop-color="#fff" stop-opacity="0" id="stop26-5-6-8" style="stop-color:#ffffff;stop-opacity:0.5" />
        </linearGradient>
    </defs>
    <path inkscape:connector-curvature="0" style="fill:url(#linearGradient3342-9);stroke:url(#linearGradient3344-2);stroke-linecap:round;stroke-linejoin:round;color:black;fill-opacity:1;fill-rule:nonzero;stroke-width:1;stroke-miterlimit:4;stroke-opacity:1;stroke-dasharray:none;stroke-dashoffset:0;marker:none;visibility:visible;display:inline;overflow:visible;enable-background:accumulate" id="path36" d="m 4.5,1.5 h 15 a 2,2 0 0 1 2,2 v 17 a 2,2 0 0 1 -2,2 h -15 a 2,2 0 0 1 -2,-2 v -17 a 2,2 0 0 1 2,-2" />
    <path id="path3034" d="m 8,1.9999996 -3.568545,0 C 3.7245097,1.9999996 3,2.8159943 3,3.4674092 L 3,20.460681 C 3,21.026734 3.4501296,22 4.4674096,22 L 8,22" style="color:black;fill:#eb7532;fill-opacity:1;fill-rule:nonzero;stroke:none;stroke-width:1;marker:none;visibility:visible;display:inline;overflow:visible;enable-background:accumulate" inkscape:connector-curvature="0" sodipodi:nodetypes="cssssc" />
    <path style="color:black;fill:#7c370f;fill-opacity:1;fill-rule:nonzero;stroke:none;stroke-width:1;marker:none;visibility:visible;display:inline;overflow:visible;enable-background:accumulate" d="M 7,3 8,3 8,22 7,22 z" id="rect3859-0" inkscape:connector-curvature="0" />
    <path style="opacity:0.5;color:#000000;fill:url(#linearGradient3703);fill-opacity:1;fill-rule:nonzero;stroke:none;stroke-width:1;marker:none;visibility:visible;display:inline;overflow:visible;enable-background:accumulate" d="M 8,3 9,3 9,22 8,22 z" id="rect3843" inkscape:connector-curvature="0" />
    <g clip-path="none" clip-rule="nonzero" id="g8309" transform="matrix(0.24508821,0,0,0.24508821,70.133931,-42.728343)" />
    <path id="path4230" style="color:black;fill:#bf6633;fill-opacity:1;fill-rule:evenodd;stroke:none;stroke-width:1;marker:none;visibility:visible;display:inline;overflow:visible;enable-background:accumulate" d="m 17,10 2,0 0,2 -2,0 z M 9,7 20,7 20,17 9,17 z m 8,8 2,0 0,1 -2,0 z m 0,-2 2,0 0,1 -2,0 z M 12.999999,10 C 11.343147,10 9.9999997,11.343146 9.9999997,12.999999 9.9999997,14.656856 11.343147,16 12.999999,16 14.656854,16 16,14.656856 16,12.999999 l -3.000001,0 z M 10,8 l 9,0 0,1 -9,0 z" />
    <rect style="opacity:0.5;color:black;fill:none;stroke:url(#linearGradient4234-5);stroke-width:1;stroke-linecap:round;stroke-linejoin:round;stroke-miterlimit:4;stroke-opacity:1;stroke-dasharray:none;stroke-dashoffset:0;marker:none;visibility:visible;display:inline;overflow:visible;enable-background:accumulate" id="rect4238" width="17" height="19" x="3.4999998" y="2.5" ry="0.90418243" />
</svg>
