<?xml version="1.0" encoding="UTF-8" standalone="no"?>
<!-- Created with Inkscape (http://www.inkscape.org/) -->

<svg xmlns:dc="http://purl.org/dc/elements/1.1/" xmlns:cc="http://creativecommons.org/ns#" xmlns:rdf="http://www.w3.org/1999/02/22-rdf-syntax-ns#" xmlns:svg="http://www.w3.org/2000/svg" xmlns="http://www.w3.org/2000/svg" xmlns:xlink="http://www.w3.org/1999/xlink" xmlns:sodipodi="http://sodipodi.sourceforge.net/DTD/sodipodi-0.dtd" xmlns:inkscape="http://www.inkscape.org/namespaces/inkscape" width="24" height="24" id="svg4230" version="1.1" inkscape:version="0.48.4 r9939" sodipodi:docname="midori.svg">
    <defs id="defs4232">
        <linearGradient inkscape:collect="always" xlink:href="#linearGradient4594-3" id="linearGradient5698" gradientUnits="userSpaceOnUse" gradientTransform="matrix(0.5155929,0,0,0.4931506,0.860694,1027.4033)" x1="8.2114201" y1="-5.7136502" x2="31.74275" y2="25.48744" />
        <linearGradient gradientUnits="userSpaceOnUse" id="linearGradient4594-3" x1="8.2114201" x2="31.74275" y1="-5.7136502" y2="25.48744">
            <stop offset="0" stop-color="#fff" id="stop37-5-1-3" />
            <stop offset="1" stop-color="#fff" stop-opacity="0" id="stop39-0" />
        </linearGradient>
        <linearGradient inkscape:collect="always" xlink:href="#linearGradient4050" id="linearGradient3120" gradientUnits="userSpaceOnUse" gradientTransform="matrix(0.53950487,0,0,0.61161008,-0.971527,1026.9329)" x1="22.440199" y1="4.8942533" x2="22.440199" y2="38.21666" />
        <linearGradient id="linearGradient4050">
            <stop id="stop4052" offset="0" style="stop-color:#ffffff;stop-opacity:0.66929132;" />
            <stop id="stop4054" offset="1" style="stop-color:#ffffff;stop-opacity:0;" />
        </linearGradient>
        <linearGradient inkscape:collect="always" xlink:href="#linearGradient3801-25-2" id="linearGradient4811-5" gradientUnits="userSpaceOnUse" gradientTransform="matrix(0.55138706,0,0,0.55173659,-1.3451777,1028.0924)" x1="24.420143" y1="2.3661644" x2="24.420143" y2="43.004219" />
        <linearGradient id="linearGradient3801-25-2">
            <stop style="stop-color:#8cd11a;stop-opacity:1;" offset="0" id="stop3803-6" />
            <stop style="stop-color:#2d3e00;stop-opacity:1;" offset="1" id="stop3805-6" />
        </linearGradient>
        <clipPath id="clipPath5403" clipPathUnits="userSpaceOnUse">
            <rect rx="2.38569" ry="2.38569" y="7.4029846" x="1.0005803" height="32.579819" width="32.579819" id="rect5405" style="fill:black;fill-opacity:1;fill-rule:nonzero;stroke:none;stroke-width:1;marker:none;visibility:visible;display:inline;overflow:visible;enable-background:accumulate" />
        </clipPath>
        <linearGradient inkscape:collect="always" xlink:href="#linearGradient3458" id="linearGradient4813" gradientUnits="userSpaceOnUse" gradientTransform="matrix(0.9357302,0.264412,-0.264412,0.9357302,8.9824665,-7.5659592)" x1="33" y1="33" x2="4" y2="5" />
        <linearGradient id="linearGradient3458">
            <stop style="stop-color:#41a100;stop-opacity:1;" offset="0" id="stop3460" />
            <stop style="stop-color:#ffffff;stop-opacity:0;" offset="1" id="stop3462" />
        </linearGradient>
        <linearGradient inkscape:collect="always" xlink:href="#linearGradient3412" id="linearGradient4815" gradientUnits="userSpaceOnUse" gradientTransform="matrix(0.9357302,0.264412,-0.264412,0.9357302,7.2762502,-7.3766701)" x1="13" y1="11" x2="40" y2="19" />
        <linearGradient id="linearGradient3412">
            <stop style="stop-color:#ffffff;stop-opacity:0.59836066;" offset="0" id="stop3414" />
            <stop style="stop-color:#4e9a06;stop-opacity:0;" offset="1" id="stop3416" />
        </linearGradient>
        <linearGradient id="linearGradient5630-6">
            <stop id="stop5632-4" offset="0" style="stop-color:#97f43b;stop-opacity:1" />
            <stop id="stop5634-67" offset="1" style="stop-color:#275e00;stop-opacity:1" />
        </linearGradient>
        <linearGradient id="linearGradient3801-25-5">
            <stop style="stop-color:#8cd11a;stop-opacity:1;" offset="0" id="stop3803-4" />
            <stop style="stop-color:#2d3e00;stop-opacity:1;" offset="1" id="stop3805-5" />
        </linearGradient>
        <linearGradient y2="30.019604" x2="-42" y1="-7" x1="-42" gradientTransform="matrix(0.55181025,0,0,0.55181025,58.717701,1032.9015)" gradientUnits="userSpaceOnUse" id="linearGradient4226" xlink:href="#linearGradient5630-6" inkscape:collect="always" />
        <linearGradient y2="43.004219" x2="24.420143" y1="2.3661644" x1="24.420143" gradientTransform="matrix(0.55138706,0,0,0.55173659,25.619108,1027.3781)" gradientUnits="userSpaceOnUse" id="linearGradient4228" xlink:href="#linearGradient3801-25-5" inkscape:collect="always" />
    </defs>
    <sodipodi:namedview id="base" pagecolor="#ffffff" bordercolor="#666666" borderopacity="1.0" inkscape:pageopacity="0.0" inkscape:pageshadow="2" inkscape:zoom="11.2" inkscape:cx="12.5" inkscape:cy="12.767857" inkscape:document-units="px" inkscape:current-layer="capa1" showgrid="true" inkscape:window-width="1280" inkscape:window-height="976" inkscape:window-x="0" inkscape:window-y="24" inkscape:window-maximized="1">
        <inkscape:grid type="xygrid" id="grid4238" empspacing="5" visible="true" enabled="true" snapvisiblegridlinesonly="true" />
    </sodipodi:namedview>
    <metadata id="metadata4235">
        <rdf:RDF>
            <cc:Work rdf:about="">
                <dc:format>image/svg+xml</dc:format>
                <dc:type rdf:resource="http://purl.org/dc/dcmitype/StillImage" />
                <dc:title />
            </cc:Work>
        </rdf:RDF>
    </metadata>
    <g inkscape:label="Capa 1" inkscape:groupmode="layer" id="capa1" transform="translate(0,-1028.3622)">
        <rect style="color:black;fill:url(#linearGradient4226);fill-opacity:1;fill-rule:nonzero;stroke:url(#linearGradient4228);stroke-width:1;stroke-linecap:butt;stroke-linejoin:miter;stroke-miterlimit:4;stroke-opacity:1;stroke-dasharray:none;stroke-dashoffset:0;marker:none;visibility:visible;display:inline;overflow:visible;enable-background:accumulate" id="rect3874" width="21" height="21" x="1.5" y="1029.8622" ry="2" rx="2" />
        <g id="g5301" transform="matrix(0.63086821,0,0,0.63086821,1.2034429,1025.5297)" clip-path="url(#clipPath5403)">
            <g transform="matrix(0.9357302,0.264412,-0.264412,0.9357302,9.0693527,-7.7669498)" style="stroke:none" id="g5303">
                <path inkscape:connector-curvature="0" sodipodi:nodetypes="ccsssscssccc" id="path5305" d="M 32.62692,6.6695339 C 28.943103,10.347154 11.111941,12.664469 9,33 c 0.3414198,5.11565 2.750163,11.619293 7.499797,10.597643 0.982779,-0.211397 2.038704,0.196803 2.703808,0.809838 4.351738,4.011057 8.52874,2.374752 9.651419,-0.445034 0.215237,-0.540601 0.899973,-0.596833 1.460892,-0.37289 C 36.857006,46.201039 38.613158,38.645886 39,33 39.096949,30.551387 37.800853,11.942617 35.822153,10.473066 35.232485,10.035129 33.801652,12.187441 32.644545,14.379307 23.397466,31.895713 11.762403,24.057082 32.238499,7.1548098 l 0.235001,-0.5271607 0.270917,0.030985" style="fill:#c5f199;fill-opacity:1;fill-rule:nonzero;stroke:none" />
                <g style="fill:#c5f199;fill-opacity:1;stroke:none" id="g5307">
                    <path inkscape:connector-curvature="0" style="fill:#c5f199;fill-opacity:1;fill-rule:evenodd;stroke:none" d="M 24,45 24,33" id="path5309" />
                    <path inkscape:connector-curvature="0" style="fill:#c5f199;fill-opacity:1;fill-rule:evenodd;stroke:none" d="m 15,42 0,-7" id="path5311" />
                    <path inkscape:connector-curvature="0" style="fill:#c5f199;fill-opacity:1;fill-rule:evenodd;stroke:none" d="m 33,42 0,-7" id="path5313" />
                </g>
            </g>
            <g transform="matrix(0.9357302,0.264412,-0.264412,0.9357302,9.0693527,-7.7669498)" id="g5315" style="fill:#73d216;fill-opacity:1;stroke:none">
                <path inkscape:connector-curvature="0" sodipodi:nodetypes="csccsssscc" id="path5317" d="m 35.234589,13.724224 c -3.738051,8.081569 -13.234694,16.222743 -15.739843,10.908947 -1.235532,-2.620748 0.949841,-7.293696 5.475765,-12.587054 -5.917527,3.638792 -15.9656505,12.611852 -14.356426,21.845048 -0.373989,3.839534 2.603499,10.963452 6.460619,8.636853 1.02821,-0.620212 2.757632,0.276028 3.378232,1.331675 1.318547,2.242864 6.112369,1.587546 7.154116,0.151368 0.767834,-1.058552 2.373555,-1.67156 3.638431,-1.376939 5.533355,1.288856 5.920667,-6.12533 5.897326,-9.045945 1.628814,-10.746518 -1.787127,-15.883715 -1.90822,-19.863953 z" style="fill:#73d216;fill-opacity:1;fill-rule:nonzero;stroke:none" />
                <g style="fill:#73d216;fill-opacity:1;stroke:none" id="g5319">
                    <path inkscape:connector-curvature="0" style="fill:#73d216;fill-opacity:1;fill-rule:evenodd;stroke:none" d="m 33,42 0,-7" id="path5321" />
                    <path inkscape:connector-curvature="0" style="fill:#73d216;fill-opacity:1;fill-rule:evenodd;stroke:none" d="M 24,45 24,33" id="path5323" />
                    <path inkscape:connector-curvature="0" style="fill:#73d216;fill-opacity:1;fill-rule:evenodd;stroke:none" d="m 15,42 0,-7" id="path5325" />
                </g>
            </g>
            <path inkscape:connector-curvature="0" sodipodi:nodetypes="cccsscsc" id="path5327" d="m 10.398416,25.179832 c 2.180565,-4.263259 6.217595,-4.312465 13.288648,-1.996661 4.695565,-8e-6 11.006155,-4.443896 14.574831,-8.427262 0.800366,15.456925 -6.083942,31.024026 -12.2142,24.962055 -0.819689,-0.810546 -1.436793,0.07694 -2.647059,0.753921 -1.15909,0.648363 -1.7161,0.74873 -2.966542,0.425047 -4.122008,0.261021 -4.921617,-6.381267 -6.751113,-5.041541 -3.469637,2.540786 -4.717367,-4.655003 -3.284565,-10.675559 z" style="fill:url(#linearGradient4813);fill-opacity:1;fill-rule:evenodd;stroke:none" />
            <path inkscape:connector-curvature="0" sodipodi:nodetypes="cc" id="path5329" d="m 14.444636,36.982417 c -0.266019,-2.310967 -0.558805,-6.662561 1.4648,-9.188691" style="fill:none;stroke:#c5f199;stroke-width:4.75535107;stroke-linecap:round;stroke-linejoin:miter;stroke-miterlimit:4;stroke-opacity:1;stroke-dasharray:none" />
            <path inkscape:connector-curvature="0" sodipodi:nodetypes="ccccc" id="path5331" d="m 24.689482,30.351074 c -2.332543,6.090308 -0.816067,7.119406 0.318066,10.430562 l 0,0 0,0 -0.143714,-0.503" style="fill:none;stroke:#c5f199;stroke-width:4.75535107;stroke-linecap:round;stroke-linejoin:miter;stroke-miterlimit:4;stroke-opacity:1;stroke-dasharray:none" />
            <path inkscape:connector-curvature="0" sodipodi:nodetypes="ccsssscsc" id="path5333" d="M 39.094214,6.8299035 C 34.578098,7.6675626 13.465639,10.043941 8.769832,25.732533 7.3983903,31.041558 8.1701436,38.264228 14.280648,37.9977 c 0.433019,-0.01867 0.47764,0.123956 0.631691,0.488414 2.515789,5.951914 8.707325,4.868955 10.099709,2.536207 0.198309,-0.33224 -0.300538,-0.205769 0,0 6.30472,4.316657 9.741091,-1.657623 11.727107,-6.982103 2.425763,-4.619623 3.908674,-23.853573 2.610526,-22.609597 -22.11688,21.193935 -22.074546,2.527617 -0.255467,-4.6007175" style="fill:none;stroke:#204c00;stroke-width:1.58511722;stroke-linecap:butt;stroke-linejoin:round;stroke-miterlimit:4;stroke-opacity:1;stroke-dasharray:none" />
            <g style="fill-opacity:1;stroke:#204c00;stroke-width:1.63015735;stroke-linecap:round;stroke-linejoin:bevel;stroke-miterlimit:4;stroke-opacity:1;stroke-dasharray:none" id="g5335" transform="matrix(0.9357302,0.264412,-0.264412,0.9357302,9.06935,-7.910666)">
                <path inkscape:connector-curvature="0" sodipodi:nodetypes="cc" style="fill:none;stroke:#204c00;stroke-width:1.63015735;stroke-linecap:round;stroke-linejoin:bevel;stroke-miterlimit:4;stroke-opacity:1;stroke-dasharray:none" d="M 18.645566,43.903974 C 15.051587,37.187354 16.540541,35.406359 16.713974,33.280216" id="path5337" />
                <path inkscape:connector-curvature="0" sodipodi:nodetypes="cc" style="fill:none;stroke:#204c00;stroke-width:1.63015735;stroke-linecap:round;stroke-linejoin:bevel;stroke-miterlimit:4;stroke-opacity:1;stroke-dasharray:none" d="M 29.35012,43.828988 C 26.087374,40.085035 25.418677,36.423326 26.118423,33.355781" id="path5339" />
            </g>
            <path inkscape:connector-curvature="0" sodipodi:nodetypes="ccccccc" id="path5341" d="m 28.435955,10.675791 c 0.148808,-1.854163 -18.195337,5.895296 -17.961719,14.622137 3.19351,-4.149822 6.296264,-4.491927 11.387944,-2.413675 3.712365,3.467496 -7.389738,-2.855302 6.573775,-12.208462 l 0,0 0,0 0,0 z" style="fill:url(#linearGradient4815);fill-opacity:1;fill-rule:evenodd;stroke:none" />
        </g>
        <rect rx="2" ry="2" y="1029.8622" x="1.5" height="21" width="21" id="rect4899" style="color:black;fill:none;stroke:url(#linearGradient4811-5);stroke-width:1;stroke-linecap:butt;stroke-linejoin:miter;stroke-miterlimit:4;stroke-opacity:1;stroke-dasharray:none;stroke-dashoffset:0;marker:none;visibility:visible;display:inline;overflow:visible;enable-background:accumulate" />
        <rect width="19" height="19" ry="0.99999994" x="2.5" y="1030.8622" id="rect4513" style="opacity:0.5;fill:none;stroke:url(#linearGradient3120);stroke-width:1;stroke-miterlimit:4;stroke-opacity:1;stroke-dasharray:none" rx="1" />
        <path style="opacity:0.98999999;fill:url(#linearGradient5698)" inkscape:connector-curvature="0" d="m 10,1030.3622 10.671078,0 c 0.664086,0 1.328922,0.5064 1.328922,1.2515 l 0,16.7485 -6.652508,0 -5.347492,-18 z" id="path57-5-0" sodipodi:nodetypes="cssccc" />
    </g>
</svg>
