<?xml version="1.0" encoding="UTF-8" standalone="no"?>
<!-- Created with Inkscape (http://www.inkscape.org/) -->

<svg xmlns:dc="http://purl.org/dc/elements/1.1/" xmlns:cc="http://creativecommons.org/ns#" xmlns:rdf="http://www.w3.org/1999/02/22-rdf-syntax-ns#" xmlns:svg="http://www.w3.org/2000/svg" xmlns="http://www.w3.org/2000/svg" xmlns:xlink="http://www.w3.org/1999/xlink" xmlns:sodipodi="http://sodipodi.sourceforge.net/DTD/sodipodi-0.dtd" xmlns:inkscape="http://www.inkscape.org/namespaces/inkscape" width="24" height="24" id="svg3858" version="1.1" inkscape:version="0.48.4 r9939" sodipodi:docname="penguin-pegged.svg">
    <defs id="defs3860">
        <linearGradient gradientUnits="userSpaceOnUse" id="linearGradient3157-5-5" x1="-42.696152" x2="-5.8431101" gradientTransform="matrix(0,-1.1044442,-1.1675587,0,-1.0213499,-4.5066618)">
            <stop offset="0" stop-color="#fff" id="stop19-8" />
            <stop offset="1" stop-color="#cdcdcd" id="stop21-1" />
        </linearGradient>
        <linearGradient gradientUnits="userSpaceOnUse" id="linearGradient998-7" x1="6.4056101" x2="41.369011" gradientTransform="matrix(0,1.1044442,-1.1675587,0,-1.0213499,-4.5066618)">
            <stop offset="0" stop-color="#fff" id="stop24-5" />
            <stop offset="1" stop-color="#fff" stop-opacity="0" id="stop26-0" />
        </linearGradient>
        <linearGradient id="linearGradient3604-4">
            <stop style="stop-color:#000000;stop-opacity:1;" offset="0" id="stop3606-5" />
            <stop style="stop-color:#363636;stop-opacity:1;" offset="1" id="stop3608-7" />
        </linearGradient>
        <linearGradient inkscape:collect="always" xlink:href="#linearGradient3604-4" id="linearGradient3780" gradientUnits="userSpaceOnUse" gradientTransform="matrix(1.2151892,0,0,1.1789043,-2.0189491,1026.1418)" x1="12" y1="6" x2="12" y2="18" />
        <linearGradient inkscape:collect="always" xlink:href="#linearGradient998-7" id="linearGradient3783" gradientUnits="userSpaceOnUse" gradientTransform="matrix(0,0.54285831,-0.51515111,0,-0.3636356,1027.3336)" x1="6.4056101" x2="41.369011" />
        <linearGradient inkscape:collect="always" xlink:href="#linearGradient3157-5-5" id="linearGradient3786" gradientUnits="userSpaceOnUse" gradientTransform="matrix(0,-0.56756972,-0.54285868,0,-1.0285912,1026.7405)" x1="-42.696152" x2="-5.8431101" />
    </defs>
    <sodipodi:namedview id="base" pagecolor="#ffffff" bordercolor="#666666" borderopacity="1.0" inkscape:pageopacity="0.0" inkscape:pageshadow="2" inkscape:zoom="22.4" inkscape:cx="16.902341" inkscape:cy="13.137493" inkscape:document-units="px" inkscape:current-layer="layer1" showgrid="true" inkscape:window-width="1280" inkscape:window-height="949" inkscape:window-x="0" inkscape:window-y="0" inkscape:window-maximized="1">
        <inkscape:grid type="xygrid" id="grid2999" />
    </sodipodi:namedview>
    <metadata id="metadata3863">
        <rdf:RDF>
            <cc:Work rdf:about="">
                <dc:format>image/svg+xml</dc:format>
                <dc:type rdf:resource="http://purl.org/dc/dcmitype/StillImage" />
                <dc:title />
            </cc:Work>
        </rdf:RDF>
    </metadata>
    <g inkscape:label="Layer 1" inkscape:groupmode="layer" id="layer1" transform="translate(0,-1028.3622)">
        <path d="m 21.5,1049.7271 0,-18.7298 a 1.0857174,1.1351395 0 0 0 -1.08572,-1.1351 l -16.8285596,0 A 1.0857174,1.1351395 0 0 0 2.5,1030.9973 l 0,18.7298 a 1.0857174,1.1351395 0 0 0 1.0857204,1.1351 l 16.8285596,0 A 1.0857174,1.1351395 0 0 0 21.5,1049.7271" id="path38-8" style="fill:url(#linearGradient3786);stroke:#818181;stroke-width:0.99999994;stroke-linecap:round;stroke-linejoin:round;stroke-miterlimit:4;stroke-dasharray:none" inkscape:connector-curvature="0" />
        <path d="m 20.5,1031.405 0,17.9144 a 0.51515112,0.54285831 0 0 1 -0.515161,0.5428 l -15.969678,0 A 0.51515112,0.54285831 0 0 1 3.5,1049.3194 l 0,-17.9144 a 0.51515112,0.54285831 0 0 1 0.515161,-0.5428 l 15.969678,0 A 0.51515112,0.54285831 0 0 1 20.5,1031.405" id="path52-5" style="fill:none;stroke:url(#linearGradient3783);stroke-width:0.99999994;stroke-linecap:round;stroke-linejoin:round;stroke-miterlimit:4;stroke-dasharray:none" inkscape:connector-curvature="0" />
        <path inkscape:connector-curvature="0" sodipodi:nodetypes="cccccccc" id="path3073-1-3" d="m 8.0114898,1038.1889 c -4.7258495,4.7114 -0.12944,8.1429 3.6069492,5.8936 0.0209,1.1604 -0.91203,2.2438 -1.485529,3.2797 l 4.034249,0 c -0.59042,-1.0068 -1.57666,-2.1161 -1.61269,-3.2797 3.8405,2.2261 7.871779,-1.5909 3.63873,-5.8936 -2.20711,-2.363 -3.58687,-4.2015 -4.10675,-4.8267 -0.47428,0.6094 -1.73779,2.4013 -4.0749592,4.8267 z" style="fill:url(#linearGradient3780);fill-opacity:1;fill-rule:evenodd;stroke:none" />
    </g>
</svg>
