<?xml version="1.0" encoding="UTF-8" standalone="no"?>
<!-- Created with Inkscape (http://www.inkscape.org/) -->

<svg xmlns:dc="http://purl.org/dc/elements/1.1/" xmlns:cc="http://creativecommons.org/ns#" xmlns:rdf="http://www.w3.org/1999/02/22-rdf-syntax-ns#" xmlns:svg="http://www.w3.org/2000/svg" xmlns="http://www.w3.org/2000/svg" xmlns:xlink="http://www.w3.org/1999/xlink" xmlns:sodipodi="http://sodipodi.sourceforge.net/DTD/sodipodi-0.dtd" xmlns:inkscape="http://www.inkscape.org/namespaces/inkscape" version="1.0" width="24" height="24" id="svg3437" inkscape:version="0.48.4 r9939" sodipodi:docname="xfce-ui.svg">
    <metadata id="metadata101">
        <rdf:RDF>
            <cc:Work rdf:about="">
                <dc:format>image/svg+xml</dc:format>
                <dc:type rdf:resource="http://purl.org/dc/dcmitype/StillImage" />
                <dc:title />
            </cc:Work>
        </rdf:RDF>
    </metadata>
    <sodipodi:namedview pagecolor="#ffffff" bordercolor="#666666" borderopacity="1" objecttolerance="10" gridtolerance="10" guidetolerance="10" inkscape:pageopacity="0" inkscape:pageshadow="2" inkscape:window-width="1280" inkscape:window-height="976" id="namedview99" showgrid="true" inkscape:zoom="4.72093" inkscape:cx="25.58911" inkscape:cy="13.942127" inkscape:window-x="0" inkscape:window-y="24" inkscape:window-maximized="1" inkscape:current-layer="svg3437" inkscape:snap-to-guides="false" inkscape:snap-grids="true" showguides="true" inkscape:guide-bbox="true">
        <inkscape:grid type="xygrid" id="grid911" empspacing="5" visible="true" enabled="true" snapvisiblegridlinesonly="true" />
    </sodipodi:namedview>
    <defs id="defs3439">
        <filter id="filter3174-4" color-interpolation-filters="sRGB">
            <feGaussianBlur stdDeviation="1.71" id="feGaussianBlur3176-2" />
        </filter>
        <linearGradient gradientTransform="scale(1.0058652,0.994169)" gradientUnits="userSpaceOnUse" id="ButtonShadow-91" y2="7.0165396" x2="45.447727" y1="92.539597" x1="45.447727">
            <stop offset="0" style="stop-color:#000000;stop-opacity:1" id="stop3750-4" />
            <stop offset="1" style="stop-color:#000000;stop-opacity:0.58823532" id="stop3752-2" />
        </linearGradient>
        <linearGradient x1="45.447727" y1="92.539597" x2="45.447727" y2="7.0165396" id="ButtonShadow-9" gradientUnits="userSpaceOnUse" gradientTransform="scale(1.0058652,0.994169)">
            <stop id="stop3750-3" style="stop-color:#000000;stop-opacity:1" offset="0" />
            <stop id="stop3752-0" style="stop-color:#000000;stop-opacity:0.58823532" offset="1" />
        </linearGradient>
        <filter color-interpolation-filters="sRGB" id="filter3174-2">
            <feGaussianBlur id="feGaussianBlur3176-1" stdDeviation="1.71" />
        </filter>
        <linearGradient x1="45.447727" y1="92.539597" x2="45.447727" y2="7.0165396" id="ButtonShadow" gradientUnits="userSpaceOnUse" gradientTransform="scale(1.0058652,0.994169)">
            <stop id="stop3750" style="stop-color:#000000;stop-opacity:1" offset="0" />
            <stop id="stop3752" style="stop-color:#000000;stop-opacity:0.58823532" offset="1" />
        </linearGradient>
        <filter color-interpolation-filters="sRGB" id="filter3174">
            <feGaussianBlur id="feGaussianBlur3176" stdDeviation="1.71" />
        </filter>
        <linearGradient id="linearGradient3793-6-4">
            <stop id="stop3795-6-1" offset="0" style="stop-color:#56b1d5;stop-opacity:1" />
            <stop id="stop3797-1-1" offset="1" style="stop-color:#124275;stop-opacity:1;" />
        </linearGradient>
        <filter height="1.2150327" y="-0.10751635" width="1.1734241" x="-0.086712047" id="filter3198">
            <feGaussianBlur id="feGaussianBlur3200" stdDeviation="0.71710775" inkscape:collect="always" />
        </filter>
        <linearGradient id="linearGradient8589-4-3">
            <stop id="stop8591-7-2" style="stop-color:#fefefe;stop-opacity:1" offset="0" />
            <stop id="stop8593-2-4" style="stop-color:#cbcbcb;stop-opacity:1" offset="1" />
        </linearGradient>
        <linearGradient id="linearGradient4008-7">
            <stop style="stop-color:#ffffff;stop-opacity:0.61290324;" offset="0" id="stop4010-2" />
            <stop style="stop-color:#ffffff;stop-opacity:0.12096774;" offset="1" id="stop4012-31" />
        </linearGradient>
        <linearGradient inkscape:collect="always" xlink:href="#linearGradient8589-4-3" id="linearGradient3427" gradientUnits="userSpaceOnUse" gradientTransform="matrix(0.67249368,0,0,0.76068962,-5.93644,5.8507011)" x1="32.892288" y1="8.0590115" x2="36.358372" y2="5.4565363" />
        <radialGradient inkscape:collect="always" xlink:href="#linearGradient4008-7" id="radialGradient3437" gradientUnits="userSpaceOnUse" gradientTransform="matrix(0.00959892,0,0,0.00551896,-1.4939921,9.9771152)" cx="1273.4375" cy="266.42468" fx="1273.4375" fy="266.42468" r="1301.5625" />
        <radialGradient inkscape:collect="always" xlink:href="#linearGradient3793-6-4" id="radialGradient3440" gradientUnits="userSpaceOnUse" gradientTransform="matrix(0.00930059,0,0,0.00931621,-0.00627815,9.5293262)" cx="1321.3318" cy="209.04965" fx="1321.3318" fy="209.04965" r="1280" />
        <radialGradient inkscape:collect="always" xlink:href="#linearGradient3894-7-6" id="radialGradient3443-1" gradientUnits="userSpaceOnUse" gradientTransform="matrix(0.00769893,0,0,0.00779658,26.115694,9.5873384)" cx="1591.8929" cy="553.76575" fx="1591.8929" fy="553.76575" r="1280" />
        <linearGradient id="linearGradient3894-7-6">
            <stop id="stop3896-3-4" offset="0" style="stop-color:#ff54ec;stop-opacity:1;" />
            <stop id="stop3898-9-4" offset="1" style="stop-color:#801b1b;stop-opacity:1;" />
        </linearGradient>
        <linearGradient inkscape:collect="always" xlink:href="#linearGradient3845-5" id="linearGradient3445-5" gradientUnits="userSpaceOnUse" x1="17.980892" y1="42.708393" x2="18.069281" y2="4.2010093" gradientTransform="matrix(0.47545656,0,0,0.47448529,24.107877,0.6192273)" />
        <linearGradient id="linearGradient3845-5">
            <stop id="stop3847-2" offset="0" style="stop-color:#152235;stop-opacity:1;" />
            <stop style="stop-color:#22305d;stop-opacity:1;" offset="0.5" id="stop4237-5" />
            <stop id="stop3849-7" offset="1" style="stop-color:#972f2f;stop-opacity:1;" />
        </linearGradient>
        <linearGradient inkscape:collect="always" xlink:href="#linearGradient965-0-6" id="linearGradient3434-7" gradientUnits="userSpaceOnUse" gradientTransform="matrix(0.45334229,0,0,0.56632112,24.638619,-1.5848335)" x1="23.429665" y1="8.403966" x2="23.429665" y2="39.357925" />
        <linearGradient id="linearGradient965-0-6">
            <stop style="stop-color:#ffffff;stop-opacity:0.31451613;" offset="0" id="stop967-4-7" />
            <stop style="stop-color:#ffffff;stop-opacity:0;" offset="1" id="stop969-4-0" />
        </linearGradient>
        <linearGradient gradientUnits="userSpaceOnUse" id="linearGradient4594-3" x1="8.2114201" x2="31.74275" y1="-5.7136502" y2="25.48744">
            <stop offset="0" stop-color="#fff" id="stop37-5-1" />
            <stop offset="1" stop-color="#fff" stop-opacity="0" id="stop39-0" />
        </linearGradient>
        <linearGradient inkscape:collect="always" xlink:href="#linearGradient4594-3" id="linearGradient3797" gradientUnits="userSpaceOnUse" gradientTransform="matrix(0.51559279,0,0,0.52054793,0.86069497,-0.12328739)" x1="8.2114201" y1="-5.7136502" x2="31.74275" y2="25.48744" />
    </defs>
    <rect style="color:black;fill:url(#radialGradient3443-1);fill-opacity:1;fill-rule:nonzero;stroke:url(#linearGradient3445-5);stroke-width:1;stroke-linecap:butt;stroke-linejoin:miter;stroke-miterlimit:4;stroke-opacity:1;stroke-dasharray:none;stroke-dashoffset:0;marker:none;visibility:visible;display:inline;overflow:visible;enable-background:accumulate" id="rect990" width="21" height="19" x="1.5" y="2.5" ry="2.5" />
    <g id="layer2" style="display:none" transform="translate(-23.686565,-201.78881)">
        <rect width="86" height="85" rx="6" ry="6" x="5" y="7" id="rect3745" style="opacity:0.9;fill:url(#ButtonShadow);fill-opacity:1;fill-rule:nonzero;stroke:none;filter:url(#filter3174)" />
    </g>
    <g id="layer4" transform="translate(-23.686565,-201.78881)" />
    <g id="layer2-0" style="display:none" transform="translate(2.877816,-191.33495)">
        <rect width="86" height="85" rx="6" ry="6" x="5" y="7" id="rect3745-7" style="opacity:0.9;fill:url(#ButtonShadow-91);fill-opacity:1;fill-rule:nonzero;stroke:none;filter:url(#filter3174-4)" />
    </g>
    <g id="layer4-3" transform="translate(2.877816,-191.33495)" />
    <g id="layer2-1" style="display:none" transform="translate(59.002817,-188.39972)">
        <rect width="86" height="85" rx="6" ry="6" x="5" y="7" id="rect3745-1" style="opacity:0.9;fill:url(#ButtonShadow-9);fill-opacity:1;fill-rule:nonzero;stroke:none;filter:url(#filter3174-2)" />
    </g>
    <g id="layer4-8" transform="translate(59.002817,-188.39972)" />
    <path inkscape:connector-curvature="0" d="M 2,7 13.428571,7 C 14.114883,7.2265113 21.037203,12.4546 22,14.241379 L 22,19 c 0,1.403533 -1.126933,2.233938 -2,2 L 4,21 C 3.0812676,21 2,20.463196 2,19 z" id="path4322" style="color:black;fill:url(#radialGradient3440);fill-opacity:1;fill-rule:nonzero;stroke:none;stroke-width:0.99999994;marker:none;visibility:visible;display:inline;overflow:visible;enable-background:accumulate" sodipodi:nodetypes="cccccccc" />
    <path inkscape:connector-curvature="0" style="fill:url(#radialGradient3437);fill-opacity:1;stroke:none" d="M 22,7 C 21.031058,8.4256955 17.544251,12.784268 11.702381,11.384778 16.661638,13.054171 20.885125,9.8925395 22,8.9504199 L 22,7 z M 9.0386904,7.9092184 c 0,0 -0.703964,2.3659516 2.5744046,3.5048886 C 8.7319055,10.047338 9.0386904,7.9092184 9.0386904,7.9092184 z M 2,8.5691348 2,12.33799 c 0.075326,0.0371 0.09721,0.05678 0.1934522,0.102654 C 2.1261785,12.468782 2.065537,12.500084 2,12.528637 l 0,0.498603 c 0.2110853,-0.131079 0.4216669,-0.259144 0.6547612,-0.381285 1.7111823,0.743437 5.114696,1.883078 9.4940488,1.686454 5.015701,2.826001 8.931461,1.300787 9.85119,0.865223 l 0,-0.703911 c -0.843835,0.426388 -4.341263,1.900856 -9.241072,-0.190641 0.695546,-0.05044 1.405511,-0.122374 2.142858,-0.249303 0.282856,0.405437 0.79178,0.803323 1.696428,0.997207 -0.772862,-0.261911 -1.249826,-0.647395 -1.547619,-1.026536 1.009615,-0.180533 2.050859,-0.437796 3.125001,-0.7919 -1.147348,0.297961 -2.252319,0.454975 -3.303572,0.513268 -0.295882,-0.505826 -0.312501,-0.938547 -0.312501,-0.938547 0,0 -0.04736,0.439453 0.178573,0.938547 -1.258225,0.05873 -2.451136,-0.01909 -3.556548,-0.219972 C 10.595584,13.199543 9.9971516,12.818617 9.3809529,12.38199 9.8298528,12.764035 10.283194,13.113003 10.720238,13.423191 8.8823224,13.031156 7.2624978,12.353882 5.9285709,11.604754 7.0564312,11.464182 8.3053531,11.513577 9.6934525,11.854055 8.318917,11.438972 7.0058453,11.368766 5.7648806,11.5021 5.5622613,11.385277 5.3591162,11.268872 5.1696422,11.150145 6.7131211,10.967324 8.5043208,11.054259 10.497023,11.692743 16.436765,13.595887 20.855484,12.682256 22,12.38199 L 22,9.4783572 C 20.778595,10.508548 16.650632,13.429669 10.630952,11.487432 8.0138148,10.643018 5.7837898,10.357381 3.9940473,10.343577 3.4293129,9.9279601 2.9639277,9.5450321 2.5803565,9.1997218 4.3401858,9.0911431 6.6377269,9.3941693 9.4851194,10.651538 6.2684267,9.0794107 3.7954152,8.5994104 2,8.5691348 z m 20,5.2206732 c -2.662923,1.691969 -5.029761,1.290502 -5.029761,1.290502 0,0 2.480376,0.71861 5.029761,-1.085195 l 0,-0.205307 z" id="path3856-9" />
    <rect ry="1.5" y="3.5" x="2.5" height="17" width="19" id="rect963" style="color:black;fill:none;stroke:url(#linearGradient3434-7);stroke-width:0.99999987999999995;stroke-opacity:1;marker:none;visibility:visible;display:inline;overflow:visible;enable-background:accumulate;stroke-linecap:butt;stroke-linejoin:miter;stroke-miterlimit:4;stroke-dasharray:none;stroke-dashoffset:0" />
    <path inkscape:connector-curvature="0" d="m 25.684596,13.786158 c 3.638583,-0.350201 2.843232,14.020035 2.843232,14.020035 0,0 16.093218,-0.848461 16.524808,1.954338 3.85075,-3.268904 -16.653508,-16.761074 -19.36804,-15.974373 z" id="path4891" style="opacity:0.75;fill:#001c3c;fill-opacity:1;fill-rule:evenodd;stroke:none;display:inline;filter:url(#filter3198)" transform="matrix(0.47230381,0,0,0.4744853,0.64918116,0.59713229)" />
    <path inkscape:connector-curvature="0" d="m 13.410957,7.0281037 c 1.671407,0.3248434 1.495731,6.0268843 1.495731,6.0268843 0,0 6.037947,-0.561922 7.062487,1.302218 0.432047,-0.98762 -5.01664,-5.9799859 -7.684572,-7.1040876 C 13.941786,7.1086764 13.64448,7.0281037 13.410957,7.0281037 z" id="path4893" style="fill:url(#linearGradient3427);fill-opacity:1;fill-rule:evenodd;stroke:none;display:inline" sodipodi:nodetypes="cccsc" />
    <path style="opacity:0.98999999;fill:url(#linearGradient3797)" inkscape:connector-curvature="0" d="m 10,2.9999996 10,0 c 1.160474,0 2,1.005258 2,2 L 22,22 15.347492,22 z" id="path57-5" sodipodi:nodetypes="cssccc" />
</svg>
