<?xml version="1.0" encoding="UTF-8" standalone="no"?>
<svg xmlns:dc="http://purl.org/dc/elements/1.1/" xmlns:cc="http://creativecommons.org/ns#" xmlns:rdf="http://www.w3.org/1999/02/22-rdf-syntax-ns#" xmlns:svg="http://www.w3.org/2000/svg" xmlns="http://www.w3.org/2000/svg" xmlns:xlink="http://www.w3.org/1999/xlink" xmlns:sodipodi="http://sodipodi.sourceforge.net/DTD/sodipodi-0.dtd" xmlns:inkscape="http://www.inkscape.org/namespaces/inkscape" viewBox="0 0 24 24" id="svg2" version="1.1" inkscape:version="0.48.4 r9939" width="100%" height="100%" sodipodi:docname="preferences-desktop-locale.svg">
    <metadata id="metadata51">
        <rdf:RDF>
            <cc:Work rdf:about="">
                <dc:format>image/svg+xml</dc:format>
                <dc:type rdf:resource="http://purl.org/dc/dcmitype/StillImage" />
            </cc:Work>
        </rdf:RDF>
    </metadata>
    <sodipodi:namedview pagecolor="#ffffff" bordercolor="#666666" borderopacity="1" objecttolerance="10" gridtolerance="10" guidetolerance="10" inkscape:pageopacity="0" inkscape:pageshadow="2" inkscape:window-width="1280" inkscape:window-height="976" id="namedview49" showgrid="true" inkscape:zoom="15.999999" inkscape:cx="22.489849" inkscape:cy="13.731083" inkscape:window-x="0" inkscape:window-y="24" inkscape:window-maximized="1" inkscape:current-layer="svg2" inkscape:snap-bbox="true">
        <inkscape:grid type="xygrid" id="grid3259" empspacing="5" visible="true" enabled="true" snapvisiblegridlinesonly="true" />
    </sodipodi:namedview>
    <defs id="defs4">
        <linearGradient id="linearGradient4416">
            <stop style="stop-color:black;stop-opacity:0.54901963;" offset="0" id="stop4420" />
            <stop id="stop4422" offset="1" style="stop-color:black;stop-opacity:0;" />
        </linearGradient>
        <linearGradient id="linearGradient4404">
            <stop style="stop-color:#dcdcdc;stop-opacity:1;" offset="0" id="stop4408" />
            <stop id="stop4410" offset="1" style="stop-color:black;stop-opacity:1;" />
        </linearGradient>
        <linearGradient id="linearGradient4338">
            <stop style="stop-color:black;stop-opacity:1;" offset="0" id="stop4340" />
            <stop id="stop4346" offset="0.5" style="stop-color:#d2d2d2;stop-opacity:1;" />
            <stop style="stop-color:black;stop-opacity:1;" offset="1" id="stop4342" />
        </linearGradient>
        <linearGradient id="linearGradient4309">
            <stop style="stop-color:white;stop-opacity:0;" offset="0" id="stop4311" />
            <stop id="stop4317" offset="0.5" style="stop-color:white;stop-opacity:0.50196081;" />
            <stop style="stop-color:white;stop-opacity:0;" offset="1" id="stop4313" />
        </linearGradient>
        <linearGradient inkscape:collect="always" xlink:href="#linearGradient4309" id="linearGradient4321" gradientUnits="userSpaceOnUse" gradientTransform="matrix(0.58333342,0,0,0.47222224,9.9166664,0.16666681)" x1="7" y1="24" x2="19" y2="24" />
        <linearGradient inkscape:collect="always" xlink:href="#linearGradient4338" id="linearGradient4344" x1="1" y1="11" x2="4" y2="11" gradientUnits="userSpaceOnUse" gradientTransform="matrix(0.99999993,0,0,0.42906977,4e-7,2.404651)" />
        <radialGradient inkscape:collect="always" xlink:href="#linearGradient4404" id="radialGradient4402" cx="2.7142859" cy="-0.21428591" fx="2.7142859" fy="-0.21428591" r="2" gradientTransform="matrix(1.2,0,0,0.89999984,-0.65714282,0.39285721)" gradientUnits="userSpaceOnUse" />
        <linearGradient inkscape:collect="always" xlink:href="#linearGradient4416" id="linearGradient3081" gradientUnits="userSpaceOnUse" gradientTransform="matrix(0.33333334,0,0,0.44444445,1.6666678,1.3333336)" x1="1.0000001" y1="24.580645" x2="17" y2="24.580645" />
        <linearGradient id="linearGradient4050-7-6">
            <stop id="stop4052-6-6" offset="0" style="stop-color:white;stop-opacity:0.50196081;" />
            <stop id="stop4054-0-3" offset="1" style="stop-color:#ffffff;stop-opacity:0;" />
        </linearGradient>
        <linearGradient inkscape:collect="always" xlink:href="#linearGradient4050-7-6" id="linearGradient3892" gradientUnits="userSpaceOnUse" gradientTransform="matrix(3.2507878,0,0,0.45037936,-10.302637,1.5497927)" x1="13.839919" y1="3.2931969" x2="13.839919" y2="23.579182" />
        <linearGradient inkscape:collect="always" xlink:href="#linearGradient3791-2" id="linearGradient4336-5" gradientUnits="userSpaceOnUse" gradientTransform="matrix(-0.50106041,0,0,0.43828655,24.742081,0.98112293)" x1="10" y1="45" x2="10" y2="3" />
        <linearGradient id="linearGradient3791-2">
            <stop style="stop-color:#163453;stop-opacity:1;" offset="0" id="stop3793-5" />
            <stop style="stop-color:#4b92db;stop-opacity:1;" offset="1" id="stop3795-8" />
        </linearGradient>
        <linearGradient inkscape:collect="always" xlink:href="#linearGradient4309" id="linearGradient3806" gradientUnits="userSpaceOnUse" gradientTransform="matrix(0.33333333,0,0,0.47222224,5.6666675,0.16666681)" x1="7" y1="24" x2="19" y2="24" />
    </defs>
    <path style="color:black;fill:url(#linearGradient4344);fill-opacity:1;fill-rule:nonzero;stroke:url(#linearGradient3425-9);stroke-width:0.99999994;stroke-linecap:butt;stroke-linejoin:miter;stroke-miterlimit:4;stroke-opacity:1;stroke-dasharray:none;stroke-dashoffset:0;marker:none;visibility:visible;display:inline;overflow:visible;enable-background:accumulate" d="M 1.9999998,5 1,5.8372094 1,23 4,23 4,5.8372094 3.0000003,5 1.9999998,5 z" id="rect4323" inkscape:connector-curvature="0" />
    <rect y="2.4999998" x="1.5" height="18" width="21" id="rect3894" style="color:black;fill:#4b92db;fill-opacity:1;fill-rule:nonzero;stroke:url(#linearGradient4336-5);stroke-width:0.99999994;stroke-linecap:round;stroke-linejoin:round;stroke-miterlimit:4;stroke-opacity:1;stroke-dasharray:none;stroke-dashoffset:0;marker:none;visibility:visible;display:inline;overflow:visible;enable-background:accumulate" ry="1.9999996" rx="2" />
    <rect ry="1.5" style="color:black;fill:none;stroke:url(#linearGradient3892);stroke-width:0.9999997;stroke-linecap:butt;stroke-linejoin:miter;stroke-miterlimit:4;stroke-opacity:1;stroke-dasharray:none;stroke-dashoffset:0;marker:none;visibility:visible;display:inline;overflow:visible;enable-background:accumulate" id="rect3857" width="19" height="16.999998" x="2.5" y="3.4999998" rx="1.5" />
    <g style="font-size:24.41373444px;font-style:normal;font-variant:normal;font-weight:bold;font-stretch:normal;text-align:start;line-height:125%;letter-spacing:0px;word-spacing:0px;writing-mode:lr-tb;text-anchor:start;fill:black;fill-opacity:1;stroke:none;font-family:Century Gothic;-inkscape-font-specification:Century Gothic Bold" id="text3835" transform="translate(-382.29915,-978.63472)" />
    <rect style="color:black;fill:url(#linearGradient3806);fill-opacity:1;stroke:url(#linearGradient3425-9);stroke-width:0.99999994;stroke-linecap:butt;stroke-linejoin:miter;stroke-miterlimit:4;stroke-opacity:1;stroke-dasharray:none;stroke-dashoffset:0;marker:none;visibility:visible;display:inline;overflow:visible;enable-background:accumulate" id="rect4307" width="4" height="17" x="8" y="3" />
    <rect y="3" x="14" height="17" width="7" id="rect4319" style="color:black;fill:url(#linearGradient4321);fill-opacity:1;stroke:url(#linearGradient3425-9);stroke-width:0.99999994;stroke-linecap:butt;stroke-linejoin:miter;stroke-miterlimit:4;stroke-opacity:1;stroke-dasharray:none;stroke-dashoffset:0;marker:none;visibility:visible;display:inline;overflow:visible;enable-background:accumulate" />
    <rect y="4" x="4" height="16" width="4" id="rect4412" style="color:black;fill:url(#linearGradient3081);fill-opacity:1;stroke:url(#linearGradient3425-9);stroke-width:0.99999994;stroke-linecap:butt;stroke-linejoin:miter;stroke-miterlimit:4;stroke-opacity:1;stroke-dasharray:none;stroke-dashoffset:0;marker:none;visibility:visible;display:inline;overflow:visible;enable-background:accumulate" ry="1.5" />
    <path id="path247" style="fill:white" d="m 12.270315,11.691281 c 0.01049,-0.02114 0.0348,-0.112599 0.06266,-0.08445 0.02776,0.02814 0.0452,0 0.0452,0 0,0 0.01392,0.0141 0.0069,0.04226 -0.0069,0.02808 -0.01394,0.05629 -0.03138,0.05981 -0.01732,0.0035 -0.0313,0.01408 -0.05206,0.0176 -0.02084,0.0035 -0.03135,-0.03522 -0.03135,-0.03522 z m 0.229684,-0.03531 c 0.0069,-0.0069 0.01394,0.02113 0.02785,0.01762 0.01381,-0.0035 0.02084,0.02465 0.0069,0.02465 -0.01394,0 -0.01394,0.01761 -0.01394,0.02465 0,0.007 0,0.02458 -0.01048,0.03517 -0.01043,0.01057 -0.0209,0.0035 -0.03485,-0.0035 -0.01388,-0.0069 -0.02077,-0.0069 -0.03824,-0.0069 -0.01734,0 -0.0036,0.02816 -0.0036,0.02816 0,0 -0.07307,-0.0035 -0.05912,-0.0141 0.01392,-0.01048 0.02785,-0.01409 0.01745,-0.02113 -0.01047,-0.0069 0,-0.01402 0,-0.02808 0,-0.0141 0.03481,-0.0069 0.02428,-0.01761 -0.01036,-0.01057 2.25e-4,-0.05137 0.01739,-0.02817 l 0.0105,-0.02467 c -0.0105,-0.01053 -0.0036,-0.01408 -0.02434,-0.021 -0.02086,-0.007 -0.0036,-0.0493 -0.0036,-0.0493 l 0.0036,-0.02814 c 0.0069,-0.03511 0.07649,-0.0387 0.08003,-0.007 0.0036,0.03168 0,0.05279 0,0.05279 l 0.0209,0.0069 c 0,0 -0.0036,0.02122 -0.0209,0.02122 -0.01746,0 0,0.01042 -0.01049,0.02102 l 0.01052,0.01757 z m 2.570067,-1.6911181 c -0.01856,0.018791 -0.06029,0.028169 -0.06029,0.028169 l -0.01394,0.0516 -0.02313,0.01875 c 0,0 0.0047,0.01407 0,0.04692 -0.0047,0.03281 -0.04642,0.05161 -0.04642,0.05161 l -0.01856,0.02346 c 0,0 -0.111836,0.0061 -0.125262,0 -0.04176,-0.01876 -0.01388,-0.07506 0.01394,-0.07037 0.0278,0.0047 -0.0047,-0.07977 -0.0047,-0.07977 l 0.03716,-0.0047 c 0,0 0.0047,-0.084471 0.01856,-0.084471 0.01392,0 -0.0047,-0.028124 -0.02325,-0.042212 -0.01855,-0.014025 -0.04172,-0.060931 -0.06035,-0.056256 -0.01855,0.00467 -0.09277,0 -0.09277,0 l -0.01393,0.028169 -0.05106,0.00935 c 0,0 0.0042,0.036281 -0.0044,0.046934 -0.02793,0.032816 -0.134571,0.1031799 -0.08825,-0.014071 l 0.01388,-0.028096 v -0.042259 l -0.08342,-0.00468 c 0,0 -0.04176,-0.014108 -0.04176,-0.032871 0,-0.018774 -0.0047,-0.042185 -0.0047,-0.042185 l -0.09752,-0.1078806 -0.115927,-0.014067 -0.0093,-0.023498 -0.06952,-0.00938 c -0.08356,-0.042183 -0.157817,-0.0047 -0.143868,0.065682 0.0139,0.070409 0.03706,0.098535 -0.0093,0.098535 -0.04645,0 -0.05572,-0.037519 -0.05572,-0.037519 0,0 -0.03706,-0.014099 -0.03706,0.00467 0,0.018791 -0.01394,0.056311 0,0.075056 0.01387,0.018764 -0.01862,0.046915 -0.03255,0.032844 -0.01381,-0.01408 -0.05097,-0.056219 -0.04168,-0.070299 0.0093,-0.01408 -0.06503,-0.103246 0.0093,-0.1173072 0.07426,-0.014077 -0.0047,-0.056312 0.02325,-0.065637 l 0.03706,-0.01879 h 0.03708 l 0.02322,-0.01879 -0.06029,-0.00933 -0.03706,-0.0047 -0.06964,-0.0047 c -0.06955,0.046917 -0.08343,0.1032247 -0.08343,0.1032247 -0.03719,0.070345 -0.125258,-0.02817 -0.09277,-0.065682 0.03242,-0.037541 -0.102104,-0.0047 -0.125326,0.014067 -0.02325,0.018756 -0.09281,0.00938 -0.09281,0.00938 -0.01388,0.042253 -0.07882,-0.0047 -0.06029,-0.032814 0.01856,-0.028141 0.01856,-0.046917 0.01856,-0.046917 l -0.02316,-0.0047 -0.02781,0.051598 c -0.06497,0 -0.08356,0.037502 -0.06966,0.060975 0.0139,0.023418 -0.01854,-0.0047 -0.02785,0.028143 -0.0092,0.032844 0.0047,0.032844 0.03254,0.046918 0.02785,0.01408 -0.01394,0.01408 0.0047,0.037501 0.01855,0.023504 0.07424,0 0.04177,0.032871 -0.03247,0.032816 -0.09749,0.018791 -0.09749,0.018791 -0.0047,0.042149 -0.09277,0.032808 -0.101975,0.018755 -0.0093,-0.01408 -0.07888,-0.098533 -0.07888,-0.098533 l -0.08827,-0.00468 c -0.0092,-0.065637 0.04182,-0.032835 0.06035,-0.084428 0.01864,-0.051624 0.02792,-0.13601 0.02792,-0.13601 0,0 -0.07432,-0.0047 -0.07893,0.018765 -0.0047,0.023483 -0.05102,0.037541 -0.05102,0.037541 0,0 -0.03715,0.014049 -0.02321,0.032832 0.01392,0.01879 -0.02785,0.028097 -0.02785,0.028097 0,0 0.007,0.030314 -0.0047,0.042228 -0.03705,0.037595 -0.12992,0.0047 -0.14378,-0.00937 l -0.05572,-0.023454 -0.05568,-0.037521 -0.06491,0.028097 -0.01853,0.01879 h -0.06964 l -0.0047,0.056224 0.125264,0.014071 0.0093,0.1161113 -0.05109,-0.017536 h -0.03256 l -0.01388,-0.02816 -0.02785,-0.00468 v 0.1032022 l 0.02785,0.023494 0.02325,0.023384 0.04639,0.00467 0.0093,0.056265 0.115927,0.00476 0.01392,0.023412 0.06964,0.0047 0.134529,0.135987 -0.0093,0.04226 -0.02325,0.01407 c 0.0093,0.03283 -0.06023,0.01408 -0.06023,0.01408 v 0.02811 l 0.03238,0.0047 0.03257,0.01875 0.04634,-0.07972 c 0.051,-0.03285 0.07418,0.01408 0.07888,0.04223 0.0047,0.02814 -0.02327,0.02343 -0.02327,0.02343 v 0.06573 l 0.02785,0.0093 c 0.04645,0.0563 -0.01852,0.08916 -0.01852,0.08916 l -0.01394,0.04688 c -0.01393,0.04223 -0.06494,0.03281 -0.06494,0.03281 l -0.01849,0.02817 -0.05575,0.01408 0.110152,0.01407 c 0.01049,-0.03754 0.03824,-0.0469 0.05217,-0.02814 0.01394,0.01879 0.01394,0.05161 0.01394,0.05161 l 0.02793,0.0047 -0.0047,0.05158 0.02785,0.0094 v 0.150075 l 0.03247,0.03752 c 0.05568,-0.02341 0.05568,0.0141 0.02781,0.03286 -0.02781,0.01872 -0.0093,0.103224 -0.0093,0.103224 l -0.02319,0.02341 v 0.03756 l -0.02781,0.01875 v 0.05158 c -0.04642,-0.02343 -0.102103,-0.01411 -0.116055,0 -0.04168,-0.02817 -0.129828,-0.01878 -0.129828,0.0047 0.0278,0.03752 -0.03243,0.0469 -0.03243,0.0469 l -0.03255,0.03752 c 0.02325,0.04694 -0.02313,0.05158 -0.02313,0.05158 v 0.08916 l -0.05573,0.05161 0.0047,0.121971 c 0,0.03284 0.06955,0.0375 0.08342,0.01877 0.01394,-0.01877 0.06966,0.03758 0.06966,0.03758 h 0.04167 l 0.0093,-0.08447 -0.02786,-0.01408 v -0.136141 l 0.04642,-0.05161 c 0.05568,-0.01875 0.03715,0.122037 0.03715,0.136097 0.0047,0.05158 0.02775,0.0469 0.051,0.03749 0.04638,-0.01878 0.0092,0.05167 -0.02785,0.04692 -0.03708,-0.0047 -0.01394,0.04689 -0.01394,0.04689 l 0.02327,0.0094 -0.04181,0.03286 -0.03702,0.04226 -0.04651,-0.01411 -0.0556,-0.0047 -0.01857,-0.03291 -0.03253,-0.0047 -0.0047,0.06564 -0.02316,0.02814 -0.05568,0.05639 c 0.07425,0 -0.0093,0.05149 -0.02785,0.05149 0.04174,0.01408 -0.0047,0.05635 -0.111311,0.02354 v 0.0328 l -0.03716,0.0047 0.03255,0.03747 0.03706,0.0047 -0.01393,0.07975 c 0,0.06096 -0.15307,0.0187 -0.167022,0.0047 l -0.0047,0.08446 -0.02786,0.0046 0.0047,0.05635 -0.0047,0.07977 0.05101,-0.0094 v 0.03286 l 0.12533,0.0047 0.180926,-0.192389 0.106676,-0.02341 c 0.0093,-0.04698 0.0556,0.0094 0.0556,0.0094 0.04642,-0.0047 0.05572,0.02808 0.05572,0.02808 l 0.06035,0.0094 c 0.05097,0.0141 0.02016,0.01904 0.02315,0.03759 0.0047,0.02808 0.02781,0.0187 0.02781,0.0187 l 0.0093,-0.06096 0.02785,0.0047 -0.02785,-0.03286 -0.05109,-0.02351 -0.05563,-0.02341 c -0.03715,-0.05158 0.0093,-0.04216 0.04641,-0.03748 h 0.06029 c 0,0 0.06964,0.09376 0.06964,0.117243 0,0.0235 0.03247,0.02819 0.03247,0.02819 l 0.04166,-0.0047 0.01395,0.03279 h 0.04174 l 0.01394,0.02808 h 0.08351 l 0.0047,-0.04217 -0.07895,-0.01399 -0.0047,-0.04698 -0.05563,-0.01408 c -0.01862,-0.07967 0.01387,-0.10318 0.03706,-0.06559 l 0.02783,0.0046 -0.0093,-0.07038 0.03245,-0.0094 -0.0093,-0.09854 -0.02782,-0.0093 v -0.03274 l 0.115924,0.0047 c -0.0092,-0.06106 0.0047,-0.08919 0.0047,-0.08919 h 0.03247 l 0.0047,0.02352 0.141943,0.01333 0.100358,-0.114696 c -0.005,-0.0087 0.0101,-0.01411 -9.28e-4,-0.02534 -0.01394,-0.01406 -0.03256,0 -0.05585,-0.01406 -0.02313,-0.01399 0,-0.09381 -0.0047,-0.112553 -0.0047,-0.01878 0.07895,-0.04698 0.06503,-0.0047 -0.01393,0.04225 0,0.06098 0,0.06098 0.06029,-0.05631 0.111333,0.0047 0.106719,0.01878 -0.0048,0.01406 0.03242,0.02814 0.05558,0.01406 0.02325,-0.01406 0.05107,0.04226 0.04178,0.07032 -0.0093,0.02814 -0.09276,0.02351 -0.09736,-0.0047 -0.0048,-0.02817 -0.01869,-0.01877 -0.02785,-0.0047 -0.0093,0.01407 -0.051,0.02342 -0.07425,0.0093 -0.0047,-0.0026 -0.0069,-0.0052 -0.0082,-0.0074 l -0.100358,0.114697 0.0065,7.04e-4 c 0.05563,0.03287 0.02785,0.07506 0.0093,0.08446 -0.01863,0.0094 -0.05109,0.0094 -0.05109,0.0094 l -0.0092,0.01879 -0.12065,0.0093 -0.0093,0.04695 c -0.06029,-0.0095 -0.08343,0.05625 -0.06952,0.08905 0.01394,0.03279 0,0.06096 0,0.06096 l 0.05102,0.02352 0.0649,-0.0187 c 0.0093,-0.04698 0.051,-0.05638 0.08819,-0.08446 0.03705,-0.02817 0.09745,0.05149 0.07882,0.08907 -0.01855,0.03748 -0.01855,0.05158 -0.01855,0.05158 l 0.0047,0.04226 -0.04636,0.01872 -0.03709,0.01879 -0.0047,0.02349 H 13.26489 l -0.02316,0.02342 -0.06035,0.0047 -0.01863,0.02811 -0.04168,0.0047 c 0,0 -0.06964,0.03286 -0.04177,0.07037 0.02783,0.03755 -0.115948,0.03287 -0.1485,-0.01879 -0.0093,0.04687 -0.06029,0.0047 -0.06029,0.0047 l -0.051,-0.0141 -0.0047,-0.07029 c -0.0093,-0.04695 -0.09745,-0.04695 -0.09276,-0.01408 0.0047,0.03286 -0.167085,0.01408 -0.167085,0.01408 l -0.05563,0.02694 -0.05109,0.02937 -0.0047,0.02342 -0.08356,0.0094 -0.03706,0.01879 -0.0139,-0.02817 h -0.03708 l -0.03715,0.05166 c -0.0974,0.0047 -0.190171,0.06096 -0.180924,0.0844 0.0093,0.02342 -0.03706,0.04698 -0.03706,0.04698 l -0.04179,0.01389 -0.02778,0.04227 -0.05568,0.01879 -0.0093,0.09856 -0.02778,0.0187 v 0.04227 l -0.03253,0.0093 v 0.02352 l -0.04638,0.0047 0.02777,0.0704 0.03724,0.01879 c 0.06494,0.0093 0.03705,0.08915 0.03705,0.08915 l 0.03708,0.0046 0.01862,0.05158 0.03706,0.07504 c 0.01394,0.05639 0.05571,0.04227 0.07425,0.03759 0.01856,-0.0046 0.03706,0.05625 0.03706,0.05625 l 0.185538,0.0047 c 0,0 -0.0092,0.01879 0.02327,0.02817 0.03242,0.0093 0.245844,0.01879 0.255178,0.0047 -0.0093,-0.04227 0.115905,-0.05167 0.167002,-0.01411 0.05097,0.03747 0.120602,0.01411 0.120602,0.01411 l 0.06958,0.08435 0.04649,0.103246 0.07881,0.02342 0.05563,0.01411 0.01862,0.07975 0.04167,0.0047 0.01394,0.05166 c 0.05107,0.0375 -0.01394,0.117265 -0.01394,0.117265 v 0.103158 l 0.03715,0.01879 -0.0047,0.0376 0.06039,0.06087 0.06955,0.0047 0.176334,0.187609 0.139124,0.0422 0.02316,0.0751 0.03719,-0.0047 0.02781,-0.02341 0.111313,-0.0047 0.05571,-0.05167 0.06029,-0.0093 0.514964,-0.436291 -0.04645,-0.02817 v -0.102637 c 0.08353,-0.06097 0.08816,-0.16893 0.0093,-0.178306 -0.05982,-0.007 -0.03242,-0.07038 0.02327,-0.07975 l 0.03242,-0.01404 v -0.04228 l 0.106733,-0.09845 v -0.0751 l -0.231844,-0.192185 c -0.102104,-0.03748 0,-0.262691 0.06951,-0.257984 0.06964,0.0046 -0.0047,-0.34712 -0.0047,-0.34712 l -0.03717,-0.01873 0.0093,-0.112641 h -0.05099 l -0.08352,0.107954 -0.02316,0.07499 c -0.0093,0.09863 -0.296944,0.07975 -0.310898,0.06566 -0.01393,-0.01408 -0.111309,-0.05626 -0.111309,-0.05626 0,0 -0.07424,-0.06096 -0.08816,-0.04217 -0.01393,0.01879 -0.07881,-0.02351 -0.07881,-0.0094 0,0.01408 -0.06029,-0.0328 -0.06029,-0.0328 l -0.09276,-0.03287 0.06964,-0.01411 -0.01394,-0.05625 0.120514,0.06096 c 0.01394,0.0187 0.07425,0.01411 0.07425,0.01411 l 0.01855,0.0235 c 0,0 0.03717,-0.0047 0.06043,0.02342 0.02315,0.02817 0.143735,0.0047 0.143735,0.0047 l 0.03247,0.02808 0.05101,0.01879 0.143867,0.0047 0.0047,-0.08907 0.02785,-0.02817 -0.0047,-0.05635 0.03247,-0.02808 v -0.04687 l 0.02785,-0.0094 0.0047,-0.103156 0.02315,-0.0047 V 11.69137 l -0.06958,-0.06569 c -0.0047,0.02351 -0.07881,0.02351 -0.07881,0.02351 0,0 -0.01855,0.0328 -0.03247,0.0328 -0.01388,0 0.01857,0.04218 0.0093,0.07037 -0.0093,0.02808 -0.04639,0.02808 -0.04639,0.02808 l -0.06964,0.01882 -0.01855,0.02349 h -0.07422 l -0.0092,-0.06096 0.08343,-0.02352 0.04639,-0.0234 0.02325,-0.04698 c 0.0047,-0.04684 0.06029,-0.04222 0.06029,-0.04222 0,0 0.106699,-0.08914 0.111312,-0.13128 0.0047,-0.04226 0.0418,-0.159533 0.106721,-0.159533 h 0.120631 c 0.04636,-0.01881 0.03245,-0.07977 0.03245,-0.07977 l 0.06032,-0.0093 0.0093,0.03286 c 0,0 0.08354,0.0094 0.09277,-0.0047 0.0093,-0.014 0.02785,-0.04689 0.05109,-0.03283 0.02318,0.01407 0.09741,-0.03287 0.09741,-0.03287 0.0047,-0.03285 0.120604,-0.01875 0.120604,-0.01875 l 0.01394,-0.04222 c 0,0 -0.07886,-0.107888 -0.09277,-0.107888 -0.01394,0 -0.08816,-0.06575 -0.09747,-0.04226 -0.07414,-0.01877 -0.06955,-0.121971 -0.06955,-0.121971 l -0.02785,-0.06564 c 0,-0.03759 -0.06951,-0.117306 -0.08351,-0.107888 -0.06964,-0.05161 -0.01856,-0.112597 0,-0.117284 0.01855,-0.0047 0.06501,-0.07038 0.06501,-0.07038 l 0.02315,-0.06568 0.07888,-0.02341 0.0093,-0.06099 -0.04168,-0.0047 c 0,0 0.04631,-0.08446 0.06955,-0.08446 0.02325,0 0.176335,0 0.190154,-0.0094 0.01392,-0.0093 0.04174,-0.08439 0.04174,-0.09847 0,-0.01408 0.03722,-0.01879 0.05103,-0.0235 0.01393,-0.0047 0.04639,-0.04218 0.05568,-0.06098 0.0093,-0.01887 -0.02311,-0.1361863 -0.04172,-0.1174158 z m 1.284893,1.4987061 c -0.0014,-0.009 -0.0068,-0.01604 -0.01522,-0.01972 -0.0206,-0.009 -0.05533,0.0058 -0.07232,0.0174 l 0.01538,0.02343 c 0.01764,-0.01189 0.04076,-0.01761 0.04592,-0.01498 -4.33e-4,-1.68e-4 -0.0011,-0.0011 -0.0012,-0.0014 l 0.02751,-0.0046 z m 0.121959,0.559722 -0.02772,-0.0026 c -0.0023,0.02213 0.003,0.04948 0.02506,0.05392 l 0.0054,-0.02759 c 1.96e-4,0 4.34e-4,1.67e-4 4.93e-4,1.67e-4 -0.0023,-0.002 -0.0042,-0.01331 -0.0034,-0.02374 z m 0.101308,-0.110668 c 0.007,0.02851 0.01739,0.05663 0.01784,0.05778 l 0.02611,-0.0099 c -1.95e-4,-2.51e-4 -0.01031,-0.02779 -0.017,-0.05478 l -0.02696,0.0069 z m 0.06197,-0.02308 c -3.61e-4,-9.3e-4 -5.38e-4,-0.0041 -8.65e-4,-0.0065 -5.39e-4,-0.0077 -0.0016,-0.01829 -0.007,-0.02937 l -0.02486,0.01257 c 0.003,0.0063 0.0036,0.0129 0.0041,0.01927 7.63e-4,0.0084 0.0016,0.01761 0.0095,0.02356 0.005,0.0036 0.01128,0.0047 0.01878,0.0034 l -0.0053,-0.02725 c 0.0023,3.31e-4 0.0049,0.0023 0.0055,0.0042 z m -0.236103,0.199088 c 0.01985,-0.01251 0.0452,-0.03523 0.04176,0.01761 -0.0036,0.05273 -0.02437,0.03522 -0.04176,0.05273 -0.01739,0.01761 -0.02783,-0.05273 0,-0.07037 z m -1.120488,0.362423 0.0036,-0.04223 0.04527,0.007 -0.0036,0.03848 z m 0.0025,0.09191 c -0.0062,-0.02389 -0.03318,-0.03373 -0.03625,-0.03472 l -0.0089,0.02675 v -1.66e-4 c 0.0023,8.46e-4 0.0054,0.0025 0.0087,0.0046 l 0.0056,0.02431 c -0.0022,0.003 -0.0042,0.0059 -0.0062,0.008 l 0.02042,0.01904 c 0.0149,-0.01652 0.0204,-0.03253 0.01652,-0.04797 z m -3.467556,0.868251 -0.02799,0.02343 -0.01378,0.01173 0.01466,0.0106 0.03259,0.02344 0.01617,-0.02278 -0.01792,-0.01306 0.014,-0.0117 z m 0.33059,0.336045 -0.01247,0.0252 0.02909,0.0146 -0.0096,0.0097 0.0199,0.0199 0.02318,-0.02343 0.01355,-0.01372 -0.01727,-0.0088 z m -1.301205,-6.0142987 0.01972,-0.019899 0.0278,0.028151 -0.01973,0.019908 z m 0.845256,0.8776346 0.01779,-0.021672 0.02784,0.023355 -0.01779,0.021672 z m -0.08846,-0.00144 0.0048,0.051624 h 0.06951 c 0.02785,0 -0.02315,-0.032832 -0.02315,-0.032832 0,0 -0.05568,0.0047 -0.05109,-0.01879 z m 1.527647,-1.3085818 -0.04636,-0.00486 -0.0029,0.02808 0.03979,0.00396 0.02887,0.045763 0.02339,-0.015029 -0.03235,-0.051506 -0.0036,-0.00575 z m 0.126597,-0.98311 -0.01465,0.023868 0.03716,0.023389 0.0073,0.00476 0.0075,-0.00476 0.05115,-0.032868 -0.01486,-0.023725 -0.04374,0.028052 z m 0.248817,0.1337544 -0.02362,-0.023904 -0.01966,0.01988 0.03236,0.032832 0.009,0.00891 0.0096,-0.00783 0.04657,-0.037566 -0.0175,-0.021959 z m -1.541112,0.9759344 c -0.0035,-0.016606 0.09276,-0.018746 0.106721,-0.00476 0.01395,0.014103 0.0047,0.037541 0.04638,0.037541 0.0417,0 0.02318,0.02817 0.01854,0.042253 -0.0047,0.014067 -0.05097,0.00937 -0.05571,-0.0047 -0.0047,-0.014103 -0.07423,-0.018864 -0.07423,-0.018864 0,0 -0.03708,-0.02817 -0.0417,-0.05156 z m 0.533332,-0.052831 c 0.07134,0.022553 0.09738,0.00585 0.102104,-0.012889 0.0047,-0.01879 0.0092,-0.023498 0.03708,-0.028141 0.02782,-0.0047 -0.0047,-0.060993 -0.03247,-0.056312 -0.02786,0.0047 -0.05571,-0.00937 -0.06029,-0.032843 -0.0048,-0.023428 -0.05109,-0.084427 -0.0557,-0.037495 -0.0047,0.046917 -0.03247,0.046917 -0.02785,0.079749 0.0047,0.03276 0.0186,0.081997 0.03714,0.087921 z m 0.459377,-0.7916351 c -0.01022,-0.041238 -0.06964,0.051579 -0.0092,0.070299 0.06029,0.018864 0.120514,0 0.120514,0 l 0.01394,-0.028125 0.231894,0.0047 c 0.01868,-0.01879 0.02785,-0.046917 0.02785,-0.046917 0,0 0.05571,-0.018791 0.07885,-0.00941 0.02325,0.00941 0.0047,-0.065637 -0.01855,-0.05626 -0.02315,0.00937 -0.06952,0.0047 -0.06952,0.0047 h -0.08356 c -0.0047,-0.032814 -0.07886,-0.018791 -0.08348,0 -0.0047,0.018756 -0.03243,0.023428 -0.03243,0.023428 l -0.106722,0.00941 c -0.0093,0.02817 -0.06491,0.046917 -0.06962,0.02817 z m 0.0092,0.2299501 -0.06043,-0.060993 v -0.051624 l -0.01856,-0.01881 -0.01855,-0.065637 -0.06029,-0.018756 -0.06029,0.023409 -0.06497,0.042228 -0.06955,0.00944 -0.03716,0.042183 0.148479,0.014023 0.0278,0.04698 0.106808,0.00937 0.06951,0.070344 c 0.06043,0.018791 0.0743,-0.00937 0.03721,-0.042183 z m 0.239811,0.4607642 -0.02537,-0.01142 0.01861,-0.042228 0.02536,0.01143 z m 1.360723,-0.057303 c -0.0074,-0.037035 0.09286,-0.070369 0.116012,-0.042254 0.02325,0.028143 0.08816,0.032913 0.09745,0.173638 0.0034,0.050382 -0.08351,-0.051598 -0.08351,-0.051598 l -0.06964,-0.023454 c -0.03708,-0.00941 -0.05568,-0.032814 -0.06029,-0.056331 z m -0.487274,0.1217862 c -0.01356,0.04106 -0.01852,0.098538 -0.04176,0.098538 -0.02315,0 -0.01392,0.061047 -0.01392,0.061047 0,0 0.06041,0 0.07895,0.0047 0.01849,0.0047 0.01849,0.05156 0.01849,0.05156 0.06964,-0.0047 0.09749,0.089163 0.08816,0.1126197 -0.0093,0.023427 0.02785,0.023427 0.02785,0.023427 0,0 0,0.075077 -0.0093,0.093806 -0.0092,0.018791 0.06035,0.032877 0.07889,0.060993 0.01855,0.02817 -0.0093,0.1219708 -0.02318,0.1266579 -0.0139,0.0047 0.03705,0.018756 0.03247,0.04221 -0.0047,0.023499 0.01392,0 0.01855,0.037566 0.0047,0.037496 0.01395,0.1172412 0.01395,0.1172412 l 0.0649,0.00476 c 0.0093,-0.060975 0.128932,-0.063325 0.14848,-0.056312 0.07888,0.028141 0.139254,0.1501155 0.139254,0.178237 0,0.028125 -0.05109,0.032877 -0.05109,0.032877 l 0.0093,0.1359872 c 0.07881,0.023492 0.143781,0.1360991 0.134531,0.1548488 -0.0093,0.018756 0.0556,0.014112 0.0556,0.014112 0.0093,-0.084501 0.08819,-0.056331 0.09277,-0.02817 0.0048,0.02817 0.01856,0.089145 0.01856,0.089145 l 0.02323,0.042155 0.03247,0.032859 0.05103,-0.0047 0.01394,0.02817 0.0603,0.00941 c 0,0 0.05109,0.056223 0.05568,0.070344 0.0047,0.014049 0.07425,0.00938 0.09276,0.014049 0.01856,0.0047 0.04642,0.018791 0.05101,0.042228 0.0047,0.023488 0.03254,0.060993 0.03254,0.060993 0,0 0.05563,0.014103 0.06029,0.032849 0.0047,0.018731 0.02785,0.060975 0.02785,0.060975 l 0.04628,0.037541 0.0047,0.042253 0.05103,0.0047 0.01394,0.056223 0.08343,-0.0047 0.04649,-0.032843 c 0.06029,-0.032814 0.102064,-0.075061 0.106721,-0.093849 0.0047,-0.018756 0.01388,-0.089073 0.06029,-0.075014 0.04636,0.014078 0.01392,-0.1032247 0.01392,-0.1032247 0,0 -0.06494,-0.046917 -0.06035,-0.070408 0.0047,-0.023409 -0.0649,-0.070299 -0.06029,-0.089091 0.0047,-0.01879 -0.06029,-0.056267 -0.05568,-0.075033 0.0047,-0.01879 -0.03247,-0.070408 -0.03247,-0.070408 l -0.06964,-0.065637 -0.0093,-0.042253 -0.05563,-0.0047 -0.111311,-0.1360541 0.0047,-0.037566 -0.03247,-0.0047 v -0.051568 l -0.03242,-0.018791 -0.05109,-0.0047 -0.102018,-0.1125523 -0.0093,-0.051624 h -0.051 l 0.0093,-0.098536 c 0.03251,-0.042228 0.0139,-0.1219716 0.0139,-0.1219716 0,0 -0.06501,0.032832 -0.09738,0.018756 -0.03253,-0.014023 0.01387,-0.046917 0.01387,-0.046917 v -0.037496 l -0.0278,-0.028143 c 0,0 -0.07893,0.00941 -0.08351,-0.0047 -0.0047,-0.014077 -0.01855,-0.075087 -0.01855,-0.075087 l -0.0047,-0.079769 -0.03242,-0.014023 -0.0047,-0.02819 -0.05097,0.0047 v -0.056252 l -0.02789,-0.00937 -0.02781,-0.014077 -0.0047,-0.056312 -0.102063,-0.0047 -0.03247,-0.046917 -0.03708,-0.056306 -0.115987,-0.00937 -0.02785,-0.028096 -0.04638,-0.00941 -0.03247,-0.014077 -0.01392,0.023498 -0.08819,0.0047 -0.0047,0.028142 c -0.04638,0.023454 -0.231939,0.0047 -0.23666,0.01873 z M 13.22842,7.3097954 c -0.04849,-0.036684 0.0649,0.02817 0.0649,0.02817 0.03708,0 0.06029,0.028142 0.06029,0.042253 0,0.014067 0.05103,0.00938 0.05103,0.00938 l 0.0047,-0.032877 -0.03719,-0.046917 -0.03245,-0.023392 c 0,0 -0.051,-0.0047 -0.051,-0.018791 -2.1e-5,-0.014049 -0.0418,0.056286 -0.06032,0.042183 z m 1.5e-4,0.159445 -0.03717,-0.00929 0,0.042228 0.05095,0.0047 z m 0.514756,0.5159449 v -0.037502 c 0,0 -0.0047,-0.037521 -0.02785,-0.037521 -0.02313,0 -0.06491,-0.028125 -0.05572,-0.046917 0.0094,-0.01879 -0.07882,-0.03754 -0.07882,-0.03754 0,0 -0.07881,-0.075061 -0.051,-0.065637 0.02785,0.00937 0.01394,-0.032877 0.01394,-0.032877 0,0 -0.05573,0.00937 -0.06964,0.0047 -0.01394,-0.0047 -0.0093,-0.046917 -0.0093,-0.046917 0,0 -0.05559,-0.014077 -0.05559,0 0,0.014077 0.01855,0.014077 0.02774,0.042183 0.0093,0.028125 0.0047,0.075077 0.04651,0.084428 0.04176,0.00941 0.05097,0.018756 0.05568,0.03754 0.0047,0.018791 0.05563,0.023454 0.05563,0.023454 l 0.03715,0.018746 0.11129,0.093827 z m 0.03709,0.1267921 c -0.0047,-0.018791 -0.01394,-0.084501 0.01393,-0.079814 0.02781,0.00476 0.0093,0 0.04176,0.014103 0.03247,0.014103 0.03708,-0.023428 0.03708,-0.023428 h 0.05107 l 0.06491,0.05156 -0.0093,0.042253 -0.04639,0.0047 c -0.02316,-0.037467 -0.06958,-0.023409 -0.06029,0.00944 0.0093,0.032814 -0.02316,0.093807 -0.04168,0.09847 -0.01856,0.0047 -0.07899,0.0047 -0.07425,-0.023418 0.0047,-0.028141 0.02315,-0.093804 0.02315,-0.093804 z m 0.765524,0.6378547 0.03253,-0.1031347 c -0.04633,-0.00941 -0.03715,-0.060975 -0.03715,-0.060975 -0.0047,-0.042253 -0.06955,-0.089145 -0.09277,-0.075061 -0.02315,0.014022 -0.01394,-0.098558 -0.01394,-0.098558 0,0 0.04181,-0.028097 0.06035,-0.014038 0.01856,0.014038 -0.157705,-0.2345455 -0.194855,-0.2110888 -0.03708,0.023454 -0.120538,-0.023454 -0.115925,-0.06571 0.0047,-0.042183 -0.167022,-0.1829494 -0.167022,-0.1829494 0,0 -0.05568,-0.037467 -0.06495,-0.00933 -0.0093,0.028125 -0.02783,0.046917 0,0.06093 0.0278,0.014103 0.02316,-0.023427 0.05561,0.00938 0.03247,0.032833 0.09286,0.075077 0.06964,0.1032246 -0.02323,0.02819 -0.05107,0.037566 -0.05107,0.037566 l 0.03253,0.037541 h 0.051 l 0.0093,0.079704 c 0,0 0.05563,0.02817 0.06958,0.060993 0.01392,0.032814 0.01392,0.051598 0,0.070398 -0.01394,0.018756 -0.04167,0.051579 -0.03708,0.084383 0.0047,0.032833 0.04176,0.046917 0.04176,0.046917 l 0.03705,0.0047 0.02786,0.014103 v 0.061019 c 0.03706,-0.00941 0.09736,0.042148 0.09276,0.075015 -0.0047,0.032843 0.0092,0.014067 0.0556,0.046917 0.04645,0.032843 0.03254,0.03754 0.06501,0.060993 0.03249,0.023389 0.06035,0.00933 0.07415,-0.032942 z m -1.067208,0.6005936 c 0,0.014049 -0.0092,0.032805 0.01854,0.03754 0.02796,0.0047 0.07897,-0.018756 0.08356,0.00937 0.0047,0.028125 0.0047,0.046951 0.04176,0.061048 0.03706,0.014049 0.06035,0.018756 0.08816,0.018756 0.02778,0 0.08818,-0.00944 0.08818,-0.00944 0,0 0.06564,0.010233 0.07882,0.023508 0.05103,0.051579 0.08348,0.065637 0.09738,0.04221 0.01392,-0.023483 -0.0047,-0.075033 -0.0092,-0.093804 -0.0047,-0.01881 -0.06964,-0.1079317 -0.09284,-0.089163 -0.02316,0.018791 -0.0278,0 -0.06958,0.014049 -0.04176,0.014078 -0.12992,0.00476 -0.134511,-0.014049 -0.0047,-0.01879 -0.06958,-0.028097 -0.06958,-0.046917 0,-0.018791 -0.04636,-0.04221 -0.04176,-0.014077 0.0047,0.028125 -0.03245,0.04221 -0.04187,0.032877 -0.0092,-0.00939 -0.03705,0.028125 -0.03705,0.028125 z m -0.231919,0.051723 -0.0047,0.032843 0.05097,0.0047 c 0,0 0.02315,0.01879 0.02315,0.032814 0,0.014078 0.03255,0.028141 0.05109,0.028141 0.01855,0 0.06955,-0.037541 0.06955,-0.037541 0,0 0.02325,-0.065682 0.0047,-0.060993 -0.01862,0.0047 -0.05572,0.032843 -0.06029,0.0047 -0.0047,-0.028141 -0.06029,-0.014078 -0.06029,-0.014078 l -0.07425,0.00946 z m -0.232031,0.07912 -0.0088,-0.026705 0.0139,-0.0047 0.0088,0.026705 z m 0.01949,-0.029081 -0.0093,-0.042174 0.02721,-0.00613 0.0093,0.042174 z m 0.06834,-0.036081 0.0014,0.02808 0.101886,-0.0047 -0.0014,-0.02808 z m 0.906962,0.00405 -0.0028,-0.027963 0.04645,-0.0047 0.0028,0.027963 z m 0.145586,0.085383 -0.0255,-0.011079 0.01394,-0.032823 0.0255,0.011088 z m 0.382753,-0.4511468 -0.0028,-0.028026 0.04639,-0.00459 0.0028,0.028036 z m 0.07306,4.237e-4 0.02785,0 0,0.023499 -0.02785,0 z m 0.07895,-0.437355 0.0047,0.042183 -0.02767,0.00316 -0.0047,-0.042183 z m -0.02341,0.6250395 0.02785,0 0,0.032843 -0.02785,0 z m 0.04855,0.044658 0.01394,-0.028151 0.02495,0.012627 -0.01394,0.028151 z M 14.592305,8.8907564 c 0.02821,0 -0.0092,0.1078876 0.06491,0.098515 0.07425,-0.00941 0.0047,0.032843 0.06035,0.037502 0.05568,0.00476 0.04176,-0.04221 0.06029,-0.075017 0.01862,-0.032833 0.0093,-0.051624 -0.02315,-0.060993 -0.03256,-0.00938 -0.03256,-0.00938 -0.04176,-0.046952 -0.0093,-0.037501 -0.04639,-0.046917 -0.04639,-0.046917 l -0.01394,-0.056251 -0.06029,0.037501 -0.06029,0.079749 c 0,0.061047 0.03243,0.032877 0.06029,0.032877 z m 0.181126,0.253306 c 0.03708,-0.018756 0.115924,-0.018756 0.11131,-0.046917 -0.0047,-0.028141 0.04638,-0.037521 0.04638,-0.037521 l 0.01392,0.056261 0.04176,0.028141 0.0047,0.051599 c 0,0 0.01388,-0.00938 -0.03708,0.0047 -0.05109,0.014078 -0.01855,0.037502 -0.01855,0.037502 l -0.111464,0.0047 -0.01392,-0.046917 -0.03709,-0.051559 z m -0.598633,0.3940013 c 0.02327,-0.0047 0.07882,-0.00941 0.08816,0.0047 0.0093,0.014067 -0.03247,0.032805 -0.03247,0.032805 l -0.05568,0.00941 c -0.01855,-0.023491 -0.02315,-0.04221 0,-0.04689 z M 14.471742,9.4958 c 0.02559,0.025913 -0.139146,0.01872 -0.139146,0 0,-0.018756 0.01394,-0.084384 0.05563,-0.070408 0.04177,0.014138 0.04635,-0.084383 0.04635,-0.084383 0,0 -0.03706,0.0047 -0.0047,-0.014078 0.03247,-0.018746 0,-0.046917 -0.01394,-0.060975 -0.01388,-0.014103 -0.02782,-0.037541 -0.02782,-0.037541 h 0.06501 c 0.02785,-0.01879 0.03706,-0.1078874 0.03706,-0.1078874 0.05563,0.018756 0.08348,-0.018791 0.08348,-0.018791 0,0 0.0094,0.028141 0.02794,0.051642 0.01854,0.023418 -0.04649,0.032814 -0.02327,0.046917 0.02327,0.014077 0.03247,0.056267 0.02327,0.070299 -0.0093,0.014077 -0.06043,0.0047 -0.06043,-0.014049 0,-0.018791 -0.01855,0.023454 0,0.046906 0.01855,0.023454 -0.02316,0.056267 -0.03247,0.056267 -0.0093,0 -0.06951,0.00941 -0.01854,0.037541 0.05101,0.028125 0.106785,0.014138 0.106785,0.014138 0,0 0.04172,-0.00476 0.05563,0.018747 0.01394,0.023427 -0.0047,0.028141 -0.02782,0.028141 -0.02315,0 -0.134573,-0.00941 -0.134573,-0.00941 0,0 -0.03245,0.032859 -0.01856,0.046935 z m 0.542815,-0.529969 c -0.01394,-0.01881 -0.02786,-0.032877 -0.04642,-0.04221 -0.01849,-0.00941 -0.03242,-0.01879 -0.05105,-0.01879 -0.01856,0 -0.03706,-0.018791 -0.02785,-0.04221 0.0093,-0.023488 -0.01395,-0.032849 -0.01395,-0.051642 0,-0.018756 0.01395,-0.018756 0.03716,-0.0047 0.02325,0.014078 0.01855,0.018756 0.03719,0.042253 0.01849,0.023428 0.02776,0.04689 0.04626,0.042183 0.01864,-0.0047 0.03257,0.04221 0.05109,0.028141 0.01856,-0.014067 0.01394,0.032843 0.01394,0.032843 l -0.04639,0.014103 z m -0.04632,0.041996 c 0.01387,0.018756 0.04172,0.032804 0.04172,0.051624 0,0.018791 -0.0093,0.032814 0.01862,0.037521 0.02777,0.0047 0.04637,-0.0047 0.05563,0.018756 0.0093,0.023428 0.0093,0.060975 0.0047,0.079749 -0.0047,0.01879 0.0047,0.046917 0.02778,0.046917 0.02325,0 0.02785,0.0047 0.02785,0.018791 0,0.014049 0.02785,-0.051643 0.02785,-0.051643 -0.02327,-0.018756 -0.0418,-0.060993 -0.0418,-0.060993 0,0 -0.02315,-0.065666 -0.02315,-0.075033 0,-0.00937 -0.03244,-0.018791 -0.04636,-0.023454 -0.01394,-0.0047 -0.03719,-0.04689 -0.03719,-0.04689 l -0.05563,0.0047 z m 0.301411,0.7601972 -0.01863,-0.042259 c 0,0 0,-0.037464 0.0093,-0.056311 0.0093,-0.018747 -0.01854,-0.037468 -0.03241,-0.042182 -0.01393,-0.0047 -0.0093,-0.04221 -0.01393,-0.060993 -0.0047,-0.018756 -0.03705,-0.032805 -0.03705,-0.032805 0,0 -0.0094,-0.070369 -0.0094,-0.084428 0,-0.014077 -0.04174,-0.032843 -0.02781,-0.046935 0.01394,-0.014067 0.02325,-0.032814 0.03716,-0.042228 0.01392,-0.00938 -0.01394,-0.075061 0.0092,-0.060993 0.02325,0.014103 0.02325,0.037541 0.03254,0.056312 0.0093,0.018756 -0.0047,0.084456 0.01857,0.098536 0.02313,0.014049 -0.0047,0.06093 0.03245,0.06093 0.03708,0 0.01394,0.089163 0.01394,0.089163 0,0 -0.0093,0.065637 0.01381,0.070369 0.02325,0.00467 0.0093,0.1172637 0.0093,0.1172637 l -0.03712,-0.02343 z m 0.04045,0.3724403 -0.02482,-0.01257 0.01393,-0.02813 0.02482,0.01257 z m 0.0016,-0.129621 0.0048,-0.037546 0.02768,0.00357 -0.0048,0.037537 z m -0.05612,-0.1913788 -0.03708,-0.00467 -0.08363,0.014061 -0.04628,0.089118 c 0,0 0.02315,0.01408 0.04168,0.046915 0.01856,0.03289 0.02785,0.2251508 -0.02781,0.2580278 -0.05563,0.03286 0.0047,0.01402 0.0047,0.01402 l -0.0093,0.103224 c 0.01394,0.0469 0.03708,0.02351 0.051,0 0.01403,-0.0234 0.02796,-0.02808 0.04651,-0.05157 0.01856,-0.02351 0.04636,-0.06568 0.051,-0.09856 0.0047,-0.03282 0.02781,-0.08439 0.01388,-0.09847 -0.01388,-0.01408 0.01394,-0.07972 0.01394,-0.07972 0,0 0.01854,-0.037593 0,-0.075084 -0.01855,-0.037565 0.0047,-0.079769 0.01854,-0.098559 l -0.0371,-0.018774 z M 15.051665,9.3409294 h -0.06964 c 0,0 0.02321,0.00938 -0.04168,-0.051624 -0.06504,-0.060975 -0.106727,0.014083 -0.106727,0.014083 l -0.07422,0.00937 v 0.075062 l -0.03717,0.014067 0.0047,0.046935 0.051,-0.0047 c 0,0 0,0.056268 0.01393,0.032843 0.01394,-0.023489 0.129939,0.0047 0.120625,0.060975 -0.0037,0.023121 0.116035,0.084384 0.102104,0.1594421 0.06029,0.0094 0.04639,0.070419 0.04639,0.070419 l 0.07881,0.00938 0.02325,-0.046915 0.02315,0.00468 v -0.028124 l -0.05109,-0.014071 -0.0092,-0.1501363 -0.03247,-0.023454 0.0093,-0.037541 -0.03708,-0.014077 0.01857,-0.060975 -0.03251,-0.065637 z m -0.216058,1.1564386 0.007,0.0044 0.007,-0.0041 0.02799,-0.0157 0.0036,0.0086 0.0258,-0.01041 -0.0094,-0.02343 -0.006,-0.01483 -0.01377,0.0077 -0.03455,0.01945 -0.03017,-0.01901 -0.01466,0.02365 z m 0.167264,-0.06832 0.05095,0.0093 0.005,-0.02763 -0.05117,-0.0093 z m -0.09493,0.600771 c -0.02025,-0.02731 0.09276,-0.07505 0.111313,-0.01876 0.01855,0.05622 0,0.04693 -0.01856,0.04223 -0.01861,-0.0047 -0.06491,0.014 -0.09277,-0.02347 z m -0.480301,0.903116 0.03242,0 0,0.08917 -0.03242,0 z m 0.215726,0.860601 c -0.0088,0.03555 -0.04168,0.05629 -0.06022,0.04217 -0.01868,-0.0141 0.02309,0.02342 0.03241,0.04227 0.0093,0.0187 0.03706,0.0187 0.04639,0 0.0092,-0.01889 0.0047,-0.06096 0.01394,-0.07975 0.0092,-0.01879 -0.02786,-0.02347 -0.03255,-0.0047 z m 0.102144,0.187685 0.04182,0.0187 0.0047,0.07975 c 0.0557,0.0563 0.236635,0.0094 0.236635,-0.0047 0,-0.0141 -0.0093,-0.173549 -0.0093,-0.173549 l -0.02325,-0.02349 -0.0047,-0.117349 c 0.01855,-0.06096 -0.08819,-0.150116 -0.09743,-0.13126 -0.0093,0.0187 -0.06958,0.0046 -0.06958,0.02341 0,0.0187 -0.03706,0.112552 -0.01855,0.145424 0.01855,0.03286 -0.01394,0.03286 -0.01855,0.06566 -0.0047,0.03283 -0.05105,0.08921 -0.04176,0.117372 z m -1.305511,-1.001465 -0.01486,-0.02365 -0.03695,0.02321 0.01466,0.02388 z m -0.708065,0.0914 0,0.05645 m 0.143746,0.05599 0.03259,-0.05151 -0.02777,-0.0095 -0.03236,0.02365 0.01377,0.01394 z m -0.02765,-1.463492 c 0.01853,0.04226 0.01394,0.103248 0.08343,0.150161 0.0235,0.01581 -0.0139,0.04693 -0.03715,0.0328 -0.02316,-0.01407 -0.08805,-0.117309 -0.08805,-0.117309 v -0.06102 c 0.0139,-0.0375 0.0337,-0.02285 0.04176,-0.0047 z m -0.245872,0.24413 c 0.01004,0.0409 0.0092,-0.06575 0.02778,-0.06098 0.01855,0.0047 0.0047,-0.06564 0.0047,-0.06564 l -0.08351,0.0609 c 0.04174,0.0047 0.04636,0.04699 0.05107,0.06575 z m -0.250617,0.300021 c -0.0047,0.05625 -0.07425,0.07505 -0.07425,0.07505 l -0.051,-0.01406 -0.02781,-0.02346 -0.0047,-0.06569 0.04172,-0.0047 0.0093,0.02817 0.10672,0.0047 z m -0.07425,-0.567508 v -0.06568 l -0.0093,-0.06098 -0.06951,-0.0328 -0.05101,0.04693 -0.0093,0.06568 v 0.04219 l -0.04637,0.0094 -0.0093,0.126638 -0.03705,0.01411 0.0047,0.0469 -0.051,0.01407 -0.05102,0.01408 -0.0093,0.06097 -0.03706,0.02343 -0.01869,0.0563 -0.02316,0.136031 c 0,0 0.04182,0.07975 0.06497,0.04222 0.02322,-0.03749 0.06029,-0.04222 0.06029,-0.04222 l 0.01393,-0.03287 0.12526,0.0047 c 0.0093,-0.05166 0.06958,-0.0328 0.06958,-0.0094 0,0.02346 0.04642,0.0047 0.04642,0.0047 l 0.03242,-0.05157 h 0.05099 l 0.0047,-0.05625 0.02325,-0.01407 v -0.08453 c 0.07425,-0.02343 0.0649,-0.09381 0.0649,-0.09381 l 0.01868,-0.02341 -0.0093,-0.0328 c -0.03716,-0.0141 -0.01865,-0.04699 0.0047,-0.0376 0.02327,0.0094 -0.03247,-0.04223 -0.03247,-0.04223 -0.02781,0.02351 -0.05097,-0.02813 -0.05097,-0.02813 h -0.06966 z m -0.180874,-0.323818 -0.0092,0.02343 -0.02317,0 -0.0048,0.0376 0.02798,0 0.0047,0.02807 -0.01859,0.01879 -0.0092,0.02343 -0.03717,0.0095 -0.08353,0.07983 -0.0047,0.03737 -0.02317,0.03294 -0.02778,0.0703 -0.09751,0.0047 -0.01859,0.08446 0.01377,0.07031 0.08351,0.03293 0.0094,-0.04687 0.02778,-0.01416 0.0048,-0.04687 0.01836,-0.03293 0.02799,-0.03272 0.0092,-0.0376 0.04635,-0.02807 0.05575,-0.0095 0.02318,-0.02807 0.0094,-0.05614 0.0034,-0.04223 0.0199,-0.02829 0.05554,-0.02343 0,-0.0891 -0.02778,0 -0.0047,-0.03292 z m -1.506676,0.69796 c 0,0.01098 -0.0088,0.0199 -0.01966,0.0199 -0.01085,0 -0.01966,-0.0089 -0.01966,-0.0199 0,-0.01099 0.0088,-0.01989 0.01966,-0.01989 0.01087,0 0.01966,0.0089 0.01966,0.01989 z m -0.0011,0.535903 c 0,0.01098 -0.0088,0.0199 -0.01966,0.0199 -0.01087,0 -0.01966,-0.0089 -0.01966,-0.0199 0,-0.01098 0.0088,-0.01989 0.01966,-0.01989 0.01087,0 0.01966,0.0089 0.01966,0.01989 z m -0.05199,-0.07868 c 0.01087,0 0.01961,-0.0089 0.01961,-0.01982 0,-0.01108 -0.0087,-0.01994 -0.01961,-0.01994 -0.01085,0 -0.01966,0.0089 -0.01966,0.01994 0,0.01098 0.0088,0.01982 0.01966,0.01982 z m -0.0547,0.111387 -0.03936,0.0047 0,0.03291 0.03936,-0.0047 z m 0.04176,-0.239212 -0.03236,0.0047 -0.0047,0.03759 0.03717,0.0047 z m -0.0092,-0.253362 0.0046,-0.03292 -0.06975,0.04709 -0.04635,-0.02807 0,0.112531 0.07433,0.09838 0.02777,-0.06566 0.0094,-0.04223 -0.03258,-0.01394 0.0046,-0.07031 z m -0.02783,-0.394024 -0.08352,-0.0094 0.0046,0.03281 h 0.02315 c 0.03708,0.06569 0.0046,0.225174 0.0046,0.225174 0,0 -0.05563,0.0047 -0.06497,-0.02343 -0.0092,-0.02814 -0.03247,0.06099 -0.01392,0.0751 0.01854,0.01399 0.08352,0 0.08816,0.05162 0.0046,0.05156 0.04176,-0.03287 0.04176,-0.03287 v -0.319011 z m 1.869568,-0.9286962 h -0.051 l -0.0093,-0.103181 0.02782,-0.018829 v -0.051582 h -0.162364 l -0.0044,-0.051559 0.02327,-0.014078 -0.03717,-0.014077 -0.02785,0.037493 -0.0092,0.042228 -0.04642,0.00941 V 9.68345 h -0.03244 v 0.060976 l -0.130025,0.1078275 -0.259771,-0.00933 c -0.01862,0.042185 -0.06504,-0.00476 -0.06504,-0.00476 -0.0092,-0.028132 -0.07413,0 -0.07413,0 0,0.051673 -0.08816,-0.023421 -0.08816,-0.023421 l -0.162411,-0.117326 c -0.09277,-0.084428 -0.231937,0.023504 -0.236549,0.046915 0.0047,0.065679 -0.106698,0.01408 -0.106698,0.01408 0,0 -0.09277,-0.028124 -0.106721,0.00941 -0.01388,0.037501 -0.07428,0.028169 -0.07428,0.028169 l -0.0093,0.018755 -0.04642,0.00937 -0.0092,0.028132 -0.05572,0.00941 0.139144,-0.00468 c 0.03715,-0.00468 -0.01394,0.079769 -0.03708,0.075084 l -0.0649,0.00468 -0.02327,0.023421 h -0.06029 l -0.02782,0.037601 -0.08809,-0.00468 c 0,0 -0.05109,0.042213 -0.04639,0.056265 0.0046,0.01407 -0.0093,0.05631 -0.02325,0.05631 -0.01392,0 -0.04177,0.04221 -0.03247,0.05626 0.0093,0.01408 -0.02782,0.061 -0.02782,0.061 l -0.0093,0.04695 -0.02781,0.0093 v 0.126681 l -0.0557,0.03754 v 0.05624 l -0.08356,0.08915 0.0093,0.07501 -0.06955,0.0751 0.0092,0.07504 -0.04174,0.01408 -0.0092,0.03286 -0.01854,0.09847 0.04637,0.0047 c 0.02313,-0.0094 0.01854,0.06096 0,0.07031 -0.01863,0.0094 -0.069662,0.02814 -0.04177,0.04688 0.02785,0.01883 -0.074249,0.01411 -0.074249,-0.01406 0,-0.02808 -0.055687,-0.05158 -0.06955,-0.04215 -0.013947,0.0093 -0.037171,-0.04223 -0.037171,-0.04223 -0.051016,-0.05158 -0.2087595,0.0047 -0.2087595,0.0047 l -0.023266,0.07504 c -0.050964,0.0094 -0.083432,0.09385 -0.083432,0.09385 -0.04176,0.01408 -0.07423,0.06564 -0.060298,0.07972 0.013883,0.01407 -0.023266,0.01875 -0.023266,0.01875 v 0.103246 l -0.02315,0.03286 0.00458,0.112554 c 0.027877,0 0.02327,0.05166 0.02327,0.05166 -0.046414,0.0047 -0.037189,0.06568 -0.037189,0.06568 l -0.097364,0.03281 -0.01854,0.02813 -0.1206018,-0.0047 -0.032469,0.03288 -0.032549,-0.03288 h -0.232062 l -0.00921,-0.02343 -0.046419,-0.0094 -0.00469,-0.05157 -0.069551,0.0047 -0.013906,0.02814 -0.074272,0.0047 c 0.00458,0.04694 -0.074231,0.11733 -0.083432,0.0986 -0.0094,-0.01879 -0.060389,-0.07048 -0.037148,-0.07975 0.023212,-0.0094 0.083565,-0.01884 0.083565,-0.01884 v -0.03281 l -0.1717224,-0.0047 -0.018491,0.02816 -0.069684,0.0047 v 0.0751 l -0.032429,0.0094 c -0.023247,0.01401 0.00458,0.06568 0.00458,0.06568 0.03247,0.03279 -0.00458,0.08437 -0.00458,0.08437 -0.027877,0.02817 0.023131,0.07984 0.023131,0.07984 0.037163,0.0093 -0.023131,0.03747 -0.023131,0.03747 0.0092,0.04688 0.037086,0.06097 0.037086,0.06097 -0.027877,0.04688 0.018626,0.07031 0.018626,0.07031 l 0.00458,0.07983 0.032469,0.01879 v 0.05149 l 0.018549,0.03287 h 0.07423 l -0.00458,-0.117262 c -0.064978,-0.07509 0.055626,-0.09385 0.060349,-0.06575 0.00469,0.02817 0.055686,0.04226 0.055686,0.04226 0.00929,0.0704 0.088179,0.112553 0.111312,0.04227 0.023216,-0.07048 0.04176,-0.02817 0.055687,0.0046 0.013919,0.03288 0.101975,0.112641 0.101975,0.112641 h 0.069632 l 0.00934,0.06568 c 0.078843,-0.0047 0.1019769,0.0047 0.1344455,0.112554 0.032549,0.107843 0.1206469,0.136009 0.1206469,0.136009 l 0.064978,-0.0047 c 0,-0.0562 0.064962,0.0095 0.064962,0.03764 0,0.02804 0.1252381,0.135945 0.1252381,0.135945 l 0.125216,0.02811 0.1161204,0.09394 0.088075,-0.0094 h 0.037161 c 0.023131,-0.07984 0.1345305,0.0046 0.1437345,0.0328 0.00936,0.02816 0.083562,0.0751 0.092774,0.05158 0.0093,-0.02342 0.06035,-0.0093 0.06966,0.06097 0.0093,0.07048 0.04167,0.05635 0.04167,0.05635 l 0.264493,-0.0047 0.09277,-0.07984 0.236638,-0.0046 c 0.120601,-0.0047 0.04637,-0.168906 0.02325,-0.168906 -0.04176,-0.03279 0.01387,-0.168842 0.01387,-0.168842 l -0.338642,-0.314276 c -0.07884,0 -0.0093,-0.112642 -0.0093,-0.112642 0.06029,-0.03755 -0.01394,-0.09845 -0.01394,-0.09845 0.0093,-0.05639 -0.03247,-0.122039 -0.03247,-0.122039 -0.08345,-0.0563 -0.06032,-0.164218 -0.06032,-0.164218 v -0.07505 c -0.06955,-0.06559 0.02786,-0.0751 0.02786,-0.0751 0.03242,-0.05619 -0.02325,-0.09843 -0.02325,-0.09843 l -0.0046,-0.06098 -0.07425,-0.0094 -0.0092,-0.220484 -0.167,-0.23919 c -0.03256,-0.0095 -0.0093,-0.06568 -0.0093,-0.06568 0.04177,-0.02348 -0.0093,-0.07972 -0.0093,-0.07972 l -0.0046,-0.103225 0.09738,-0.0094 0.02325,-0.03748 h 0.04637 l -0.0046,-0.121994 c 0.02315,-0.06096 0.07882,-0.02817 0.07882,-0.02817 l 0.06497,0.0047 0.03714,-0.07038 0.0092,-0.05631 -0.05097,-0.0047 c -0.05569,-0.03287 -0.02786,-0.154803 -0.02786,-0.154803 0.08816,-0.131391 0.190152,-0.05633 0.190152,-0.05633 l 0.06503,-0.0047 c 0.09738,0.06564 0.0092,0.18761 0.0092,0.18761 -0.01854,0.02816 -0.0092,0.117287 -0.0092,0.117287 l 0.02315,0.150048 -0.0603,0.05168 c -0.05102,0.02817 -0.05102,0.0938 0.0046,0.107887 0.03709,0.0047 0.02315,0.09381 -0.03253,0.0328 -0.08343,0 0.04648,0.07505 0.0093,0.05622 0.08352,0.04226 0.0649,-0.0375 0.0649,-0.0375 l 0.11159,-0.08914 c 0.04176,-0.03281 0.116012,0.07041 0.116012,0.0845 0,0.01407 0.185538,0.0047 0.185538,0.0047 0.051,0.03283 0.06955,0.11731 0.06955,0.11731 0.05109,-0.06575 0.157753,-0.0047 0.07891,0.03281 0.07418,0.04693 0.07418,0.08912 0.07418,0.08912 0.0604,-0.01876 0.0604,0.02814 0.0604,0.04223 0,0.01408 0.01856,-0.07036 0.01856,-0.07036 -0.06959,-0.05161 0.09277,-0.07038 0.04641,0.02346 l -0.02786,0.04226 0.04641,0.0375 0.0047,0.107932 c 0.102107,-0.0094 0.07425,-0.136098 0.07425,-0.136098 l 0.04639,-0.0093 c 0,-0.04226 0.03241,-0.01879 0.03241,-0.01879 -0.03241,-0.159534 0.07427,-0.18761 0.07427,-0.18761 0.06029,-0.01408 0.06491,-0.140808 0.06491,-0.140808 -0.04166,-0.01875 -0.01856,-0.08439 0.02785,-0.02805 0.04636,0.0562 -0.02785,-0.112667 -0.02785,-0.112667 l -0.03708,-0.03281 -0.051,-0.0047 -0.0047,-0.0516 h -0.08344 l -0.01394,0.06569 -0.03247,0.0094 -0.0093,-0.01879 -0.01388,0.05161 h -0.08348 l -0.0047,-0.05629 0.05101,-0.01407 0.01856,-0.02813 0.01388,-0.0751 h 0.06035 l 0.07885,-0.02342 c 0.0047,-0.07977 0.04639,-0.06096 0.04639,-0.06096 l 0.02782,0.02343 0.04176,0.03285 0.0047,0.02812 -0.0279,0.01406 -0.0047,0.03759 0.01393,0.05158 h 0.03708 c 0.0139,-0.07504 0.111399,-0.07504 0.139209,-0.02814 l 0.02785,-0.06566 c -0.06492,-0.03286 -0.0012,-0.08447 0.01732,-0.06101 0.01854,0.0235 0.06151,-0.06097 0.06151,-0.06097 0,0 0.03247,0.04223 0,-0.01407 -0.03247,-0.05631 0.02315,-0.08445 0.02315,-0.08445 -0.0092,-0.05625 0.06035,-0.0469 0.06035,-0.0469 l 0.0047,-0.07501 -0.06503,-0.0047 c -0.01381,0.06568 -0.06952,0.0094 -0.0417,-0.0047 0.02788,-0.0141 0.05562,-0.04226 0.05562,-0.04226 v -0.04693 l 0.02785,-0.0094 0.0047,-0.04692 h 0.06964 l 0.06029,-0.02812 0.01395,-0.02347 0.0649,-0.0047 0.09277,-0.08447 -0.0092,-0.037501 c -0.05568,0 0,-0.042231 0,-0.042231 l 0.0092,-0.070216 z m -2.5191029,4.2171352 -0.037162,-0.05639 0.055752,0.0095 0.060125,0.0515 0.0234,0.06103 -0.032584,0.01879 -0.01859,-0.02807 -0.046345,-0.01416 z m -1.0066359,-1.261941 -0.037171,-0.05151 -0.018586,-0.04223 -0.032581,-0.08446 0.069526,0.0327 0.023391,0.06566 0.032356,0.02365 0.032581,0.0703 -0.018586,0.03271 z m -0.2971389,-0.393967 -0.023176,0 0,0.04687 0.037177,0 0,0.06103 0.02799,0 -0.00478,-0.0703 -0.037176,-0.01415 z m 3.6558267,-2.8314235 -0.0047,-0.028152 0.02747,-0.00459 0.0047,0.028151 z m 0.06642,-0.034659 -0.03718,-0.00941 0.0068,-0.027304 0.03718,0.00941 z m 0.02903,-0.037843 0.0039,-0.027855 -0.03236,-0.0047 -0.0039,0.027855 z m 0.04845,-0.060761 0.03705,0 0,0.02817 -0.03705,0 z m 0.267373,0.03717 -0.03238,-0.0047 0.0039,-0.027909 0.03238,0.0047 z m 0.06004,0.014301 0.0039,-0.027855 -0.03259,-0.0047 -0.0039,0.02763 z m 0.03428,0.00504 0.03706,0 0,0.028141 -0.03706,0 z m 0.04071,0.045224 0.0014,0.033165 0.02798,-0.00135 -0.0015,-0.032942 z m 3.904777,3.0581345 -0.100125,-0.05443 c -0.212277,0.436151 -0.493362,0.833074 -0.829599,1.176385 l -0.584877,-0.582868 c 0.286562,-0.294206 0.517615,-0.62815 0.687827,-0.989063 l -0.09967,-0.05426 c -0.168249,0.357877 -0.394634,0.683503 -0.667659,0.964061 l -0.529839,-0.527926 c 0.227466,-0.235599 0.407961,-0.504416 0.538238,-0.794926 l -0.09888,-0.05377 c -0.127581,0.286312 -0.303587,0.546679 -0.518647,0.769845 l -0.5856,-0.583415 c 0.162845,-0.171937 0.288569,-0.369753 0.374135,-0.583828 l -0.09892,-0.05377 c -0.08176,0.208744 -0.20262,0.398254 -0.354016,0.558997 l -0.531482,-0.529441 c 0.151404,-0.168339 0.239213,-0.379542 0.251635,-0.605182 h 0.752295 c -0.0063,0.202523 -0.04805,0.396253 -0.118421,0.575652 l 0.09891,0.05377 c 0.07917,-0.198339 0.123884,-0.41049 0.13028,-0.62943 h 0.82929 c -0.0075,0.364778 -0.08909,0.711648 -0.229531,1.026823 l 0.09889,0.05377 c 0.150791,-0.336472 0.23412,-0.702112 0.241498,-1.080624 h 0.750869 c -0.0079,0.513702 -0.126838,1.000794 -0.333082,1.439368 l 0.09966,0.05426 c 0.218022,-0.462234 0.336518,-0.968874 0.344334,-1.493645 h 0.829236 c -0.0082,0.676198 -0.168156,1.316443 -0.446866,1.889092 l 0.100169,0.05442 c 0.299816,-0.615248 0.458977,-1.294671 0.458977,-1.998728 0,-0.5987313 -0.115135,-1.1795846 -0.333893,-1.7184518 l -0.102756,0.044001 c 0.206035,0.5085039 0.317707,1.0553512 0.324573,1.619214 h -0.829368 c -0.0067,-0.449837 -0.09545,-0.8860488 -0.257751,-1.2926726 l -0.101993,0.043551 c 0.15656,0.3931111 0.242259,0.8145279 0.248873,1.2491249 h -0.750955 c -0.0063,-0.331271 -0.07125,-0.652699 -0.18828,-0.9534425 l -0.101992,0.043659 c 0.111308,0.2870072 0.173032,0.5937254 0.179513,0.9097894 H 14.3559 C 14.3499,10.32455 14.31164,10.128135 14.243528,9.9431195 l -0.101974,0.043588 c 0.06255,0.1713736 0.09771,0.3529886 0.103584,0.5398126 H 13.49281 c -0.01243,-0.225703 -0.100233,-0.436878 -0.251636,-0.6052106 l 0.532014,-0.52997 c 0.164284,0.1740843 0.288542,0.376234 0.368358,0.5953677 l 0.101975,-0.043588 C 14.158121,9.7113533 14.025928,9.4975028 13.851483,9.3132925 l 0.586435,-0.5842172 c 0.250244,0.2595096 0.441258,0.5608064 0.567848,0.887656 l 0.101993,-0.043659 C 14.975589,9.2335646 14.77663,8.9205346 14.516301,8.650988 l 0.530982,-0.5291066 c 0.328843,0.3378907 0.581495,0.7299724 0.750814,1.1555332 l 0.101994,-0.043551 C 15.725144,8.7955957 15.464582,8.3917789 15.125667,8.0439072 l 0.586349,-0.5842999 c 0.41469,0.423251 0.734573,0.9143769 0.950583,1.44771 l 0.102753,-0.044001 C 16.537108,8.3005658 16.195887,7.7836939 15.752118,7.3415893 15.306733,6.897789 14.785657,6.5570623 14.218367,6.3296162 l -0.04086,0.103636 c 0.536478,0.2152909 1.03051,0.5343616 1.45611,0.9482997 L 15.047274,7.9658242 C 14.703997,7.6343854 14.306306,7.3774632 13.874566,7.2034022 l -0.04046,0.1027468 c 0.417478,0.1687501 0.802305,0.4172465 1.134831,0.7386195 L 14.437973,8.5737923 C 14.179861,8.3263993 13.882217,8.1342737 13.55957,8.0027547 l -0.04053,0.1027468 c 0.308718,0.1260459 0.59344,0.3098899 0.840595,0.546401 L 13.773277,9.236092 C 13.608339,9.0811928 13.419735,8.9596325 13.21595,8.8748461 L 13.1754,8.9776783 c 0.189914,0.079299 0.365542,0.192421 0.519512,0.3365282 L 13.16298,9.8441756 C 12.993905,9.6933078 12.782003,9.6058427 12.555441,9.5935307 V 8.8440391 c 0.216196,0.00668 0.425516,0.052396 0.619955,0.1336573 L 13.215946,8.874865 C 13.008763,8.788618 12.785662,8.7403194 12.555448,8.7335775 V 7.9073161 c 0.335793,0.00674 0.661146,0.074719 0.963615,0.1982087 L 13.559593,8.002779 C 13.2444,7.8742833 12.905258,7.8036809 12.555428,7.7969604 V 7.048442 c 0.445304,0.00674 0.877072,0.095248 1.278643,0.2574505 l 0.04046,-0.1027477 C 13.460179,7.0359131 13.014877,6.9448294 12.555397,6.9380444 V 6.1116992 c 0.564861,0.00684 1.112726,0.1177244 1.622162,0.3220956 l 0.04085,-0.103635 C 13.679397,6.1139373 13.098571,6 12.500052,6 11.760624,6 11.061973,6.1757737 10.442408,6.4859525 l 0.05053,0.096374 c 0.599527,-0.2992972 1.26282,-0.4623475 1.951706,-0.4706328 v 0.8263723 c -0.56182,0.00837 -1.092691,0.1441484 -1.566124,0.3783754 l 0.05036,0.096111 c 0.46645,-0.2300527 0.981329,-0.3560736 1.515771,-0.3641924 v 0.7482117 c -0.417757,0.00817 -0.81305,0.1082961 -1.166842,0.2803331 l 0.05067,0.096545 c 0.344413,-0.1665613 0.723126,-0.2586187 1.116185,-0.2665098 v 0.8263461 c -0.260642,0.00767 -0.507845,0.069192 -0.731055,0.1735398 l 0.05093,0.096917 C 11.97568,8.9059601 12.20604,8.8509877 12.444656,8.8436392 v 0.7496041 c -0.116702,0.00639 -0.22801,0.032992 -0.3306,0.076112 l 0.05085,0.09687 c 0.104933,-0.042799 0.218307,-0.065359 0.33515,-0.065359 0.2363,0 0.45842,0.091668 0.625535,0.2581224 0.167091,0.1664737 0.259099,0.3878547 0.259099,0.6233097 0,0.485982 -0.396769,0.881484 -0.884634,0.881484 -0.236363,0 -0.458531,-0.09172 -0.625617,-0.258189 -0.167089,-0.166563 -0.259123,-0.387856 -0.259123,-0.62331 0,-0.235451 0.09203,-0.456843 0.259123,-0.6233121 0.08452,-0.084169 0.183103,-0.1489813 0.290439,-0.1927677 l -0.05084,-0.096872 c -0.10195,0.0429 -0.195242,0.1021817 -0.276569,0.1747561 L 11.305234,9.3138125 c 0.137501,-0.1287352 0.292339,-0.2328238 0.459259,-0.3101113 l -0.05093,-0.096915 C 11.534045,8.9907385 11.370093,9.102308 11.2274,9.2363353 L 10.640437,8.6515054 c 0.205841,-0.1969949 0.437992,-0.3570761 0.688021,-0.4780831 l -0.05067,-0.096547 C 11.01373,8.2052444 10.772677,8.3735021 10.563032,8.5743129 l -0.53193,-0.5299157 c 0.268477,-0.2595313 0.571446,-0.4709946 0.89775,-0.6318759 l -0.05037,-0.096111 C 10.536916,7.4854443 10.224957,7.7054342 9.953887,7.9675259 L 9.3663004,7.3820865 c 0.3368523,-0.3276298 0.7169326,-0.5952 1.1265986,-0.7997648 l -0.05054,-0.096372 C 9.5468641,6.9343101 8.8178173,7.6649774 8.3738816,8.5606975 L 8.4702396,8.61251 C 8.6772742,8.1929833 8.9510991,7.8040147 9.2879507,7.4601192 L 9.8755861,8.0455875 C 9.6022359,8.3261708 9.3738524,8.6503247 9.2018545,9.0064279 l 0.09599,0.051633 C 9.4616705,8.7170841 9.6813304,8.4012722 9.9526836,8.1224683 L 10.484642,8.6524091 C 10.270231,8.8746337 10.092837,9.1322714 9.9613341,9.4152739 l 0.096208,0.051713 c 0.123859,-0.2690239 0.29312,-0.5181512 0.504552,-0.7374237 l 0.586967,0.5848283 c -0.150035,0.1585849 -0.27224,0.343535 -0.358983,0.5470159 l 0.09699,0.052259 C 10.966788,9.7228063 11.08105,9.5463021 11.226794,9.391844 l 0.532237,0.5302191 C 11.612916,10.08479 11.520148,10.295156 11.507266,10.526995 h -0.75246 c 0.0067,-0.213749 0.0519,-0.420859 0.132256,-0.6133571 l -0.09699,-0.052259 c -0.08763,0.2055564 -0.139024,0.4301194 -0.146051,0.6656034 H 9.8147266 c 0.00743,-0.37184 0.091158,-0.7308902 0.2427804,-1.0600509 L 9.9612998,9.4152181 C 9.8034993,9.754664 9.7117958,10.130704 9.7040517,10.527013 H 8.9529582 C 8.9608362,10.010278 9.0798198,9.5117854 9.2978478,9.0580033 L 9.2018571,9.0063704 C 8.9787645,9.4679365 8.8504648,9.9831395 8.842316,10.527013 H 8.0128554 c 0.00812,-0.6748624 0.1664391,-1.3251462 0.457332,-1.914535 l -0.096359,-0.051813 c -0.3023843,0.6102157 -0.473099,1.296255 -0.473099,2.0215583 0,0.443662 0.063597,0.877284 0.1850824,1.2915 l 0.1086283,-0.02725 C 8.0802183,11.45833 8.0178851,11.052568 8.0128616,10.637465 h 0.8293198 c 0.0051,0.346119 0.058633,0.684315 0.156886,1.007189 l 0.1075418,-0.02701 C 9.0104231,11.303522 8.9581425,10.974335 8.9529438,10.637446 h 0.7509539 c 0.00541,0.274403 0.050846,0.542149 0.1326281,0.796957 l 0.107717,-0.02707 C 9.8645036,11.161346 9.820143,10.902608 9.8147489,10.637455 h 0.8292921 c 0.0057,0.196239 0.04222,0.387189 0.106714,0.567562 l 0.107783,-0.0271 c -0.06251,-0.171526 -0.09788,-0.353433 -0.103735,-0.540423 h 0.752378 c 0.01242,0.22565 0.100169,0.436847 0.251568,0.605182 l -0.531957,0.530029 c -0.164105,-0.174016 -0.288343,-0.3759 -0.368273,-0.594785 l -0.107782,0.02714 c 0.08513,0.237835 0.219305,0.457313 0.397691,0.645696 l -0.586352,0.584234 C 10.276855,12.139125 10.0681,11.7885 9.9444694,11.407566 l -0.107718,0.02707 c 0.1283871,0.400007 0.3472896,0.767982 0.6472176,1.078567 L 9.9529055,13.04234 C 9.5557722,12.634331 9.2689311,12.147601 9.1068681,11.617824 l -0.1075417,0.02703 c 0.167003,0.548793 0.4637517,1.053182 0.8752021,1.475543 L 9.2881488,13.704629 C 8.7691682,13.174828 8.3984906,12.53895 8.1947062,11.846709 l -0.1086312,0.02725 c 0.2137576,0.728805 0.6081204,1.396856 1.1620424,1.948622 0.3751135,0.373814 0.8038676,0.674696 1.2686776,0.896416 l 0.05505,-0.09726 C 10.131921,14.412842 9.7249913,14.131368 9.3665097,13.782635 L 9.95286,13.198475 c 0.304758,0.294706 0.652271,0.529717 1.028028,0.700913 l 0.05471,-0.0967 C 10.66841,13.636669 10.328824,13.407797 10.031293,13.12043 l 0.53101,-0.529083 c 0.248874,0.238549 0.534638,0.425562 0.844084,0.556551 l 0.05466,-0.09652 C 11.16049,12.925697 10.882524,12.744963 10.64084,12.513622 l 0.586434,-0.584245 c 0.188434,0.17712 0.407794,0.310503 0.645602,0.395364 l 0.05541,-0.09778 c -0.229529,-0.07919 -0.441228,-0.20582 -0.622632,-0.375623 l 0.531959,-0.530052 c 0.168961,0.150976 0.380835,0.238374 0.607423,0.250752 v 0.749604 c -0.178449,-0.0055 -0.352203,-0.03797 -0.51675,-0.09464 l -0.05541,0.09778 c 0.181776,0.06498 0.374192,0.101403 0.572173,0.107212 v 0.826178 c -0.343159,-0.0069 -0.675659,-0.07764 -0.983736,-0.206382 l -0.05465,0.09652 c 0.324878,0.137583 0.675797,0.213318 1.038407,0.220297 v 0.748214 c -0.494142,-0.0075 -0.971373,-0.115796 -1.409197,-0.31373 l -0.05471,0.0967 c 0.454484,0.206899 0.950441,0.319786 1.463924,0.327432 v 0.826152 c -0.658689,-0.0079 -1.294383,-0.156654 -1.872947,-0.431259 l -0.05505,0.09726 c 0.611441,0.291593 1.285451,0.445747 1.983408,0.445747 0.732145,0 1.437552,-0.17044 2.072434,-0.490485 l -0.05242,-0.101316 c -0.592074,0.29874 -1.258606,0.471412 -1.964657,0.480058 v -0.826177 c 0.559813,-0.0081 1.098692,-0.141939 1.585578,-0.385938 l -0.05176,-0.09997 c -0.462798,0.232212 -0.982977,0.366913 -1.533802,0.375449 v -0.74821 c 0.420019,-0.008 0.824269,-0.108469 1.190481,-0.290454 l -0.05146,-0.0995 c -0.344528,0.1712 -0.730498,0.271216 -1.139017,0.279527 v -0.82618 c 0.267495,-0.0078 0.525008,-0.07195 0.759382,-0.186241 l -0.0511,-0.09891 c -0.215262,0.104673 -0.454933,0.166755 -0.70831,0.174733 v -0.749493 c 0.226548,-0.01235 0.438466,-0.09977 0.607533,-0.250754 l 0.5314,0.529499 c -0.127231,0.118981 -0.272281,0.218996 -0.430621,0.29604 l 0.0511,0.09891 c 0.166023,-0.08099 0.320609,-0.186829 0.45842,-0.31634 l 0.585457,0.583327 c -0.195459,0.187087 -0.419432,0.344314 -0.664269,0.465905 l 0.05146,0.09949 c 0.251114,-0.124727 0.484541,-0.287479 0.692094,-0.486371 l 0.529867,0.527855 c -0.258122,0.24941 -0.554398,0.459291 -0.878606,0.621757 l 0.05176,0.09997 c 0.329233,-0.164935 0.634856,-0.379821 0.906346,-0.642472 l 0.58493,0.582774 c -0.326331,0.31734 -0.701529,0.584577 -1.11217,0.791699 l 0.05246,0.101315 c 0.430315,-0.216939 0.828679,-0.501941 1.17968,-0.851676 0.369001,-0.36756 0.666753,-0.787032 0.888178,-1.24137 z M 9.0725241,6.4426796 C 8.6109904,6.6218949 8.1162565,6.8050845 7.8166552,7.2768379 7.6414462,7.5527222 7.6144824,7.8779562 7.4765236,8.1631329 7.7321043,7.923821 8.0186932,7.7445086 8.2352775,7.459311 8.4956853,7.1164083 8.7335365,6.7390263 9.0725241,6.4426796 z m 6.8549529,0 c 0.338988,0.2963467 0.576839,0.6737287 0.837247,1.0166314 0.216584,0.2851976 0.503173,0.46451 0.758753,0.7038219 C 17.385518,7.8779562 17.358555,7.5527222 17.183348,7.2768379 16.883745,6.8050845 16.389012,6.6218949 15.927477,6.4426796 z M 7.8166552,7.0682978 C 7.5814409,7.1283098 7.3911711,7.2906474 7.214884,7.4853787 6.8460417,7.8928126 6.8778415,8.4871341 6.9270806,9.0233588 c 0.015206,0.1655551 0.018644,0.2996029 0,0.4692143 C 7.0386466,9.2646939 7.2090556,9.0549317 7.4241952,8.8930217 7.9038709,8.5320278 8.4373054,8.073159 8.444589,7.459311 8.2856272,7.901044 7.7977865,8.0696824 7.4765236,8.371672 7.3066518,8.531351 7.1862163,8.7193216 7.1102281,8.9190892 l -0.026164,0 C 7.1240174,8.7423832 7.2160836,8.5687136 7.2672139,8.3977397 7.4070566,7.9301455 7.3599038,7.3812127 7.816657,7.0682978 z m 9.3666928,0 c 0.456752,0.3129149 0.409598,0.8618477 0.549442,1.3294419 0.05112,0.1709739 0.143198,0.3446435 0.183148,0.5213495 l -0.02616,0 C 17.813793,8.7193216 17.693354,8.531351 17.523483,8.371672 17.20222,8.0696824 16.71438,7.901044 16.555417,7.459311 c 0.0073,0.613848 0.54072,1.0727168 1.020394,1.4337107 0.21514,0.16191 0.385548,0.3716722 0.497117,0.5995514 -0.01867,-0.1696114 -0.0152,-0.3036592 0,-0.4692143 C 18.12217,8.4871341 18.153964,7.8928126 17.785122,7.4853787 17.608833,7.2906474 17.418562,7.1283062 17.18335,7.0682978 z M 6.8224242,7.9285254 C 6.5039776,8.3330828 6.2991455,8.7668829 6.2991455,9.3101015 c 0,0.6709966 0.370297,1.1423715 0.4186229,1.7725875 C 6.8174273,10.425111 7.3727976,9.9669337 7.6596708,9.3883036 7.771574,9.1625924 7.8379877,8.9067889 7.8689831,8.658414 7.8274099,8.7642297 7.7739933,8.8618898 7.6858354,8.9451568 7.3131388,9.297182 6.8806566,9.6456362 6.7962602,10.144259 c -0.01205,0.07121 -0.031617,0.139581 -0.052328,0.208541 -0.016283,0.007 -0.019294,-0.02156 -0.026163,-0.02606 L 6.7700972,9.7011206 C 6.8143032,9.1097823 6.5027097,8.4549211 6.8224272,7.9285281 z m 11.3551528,0 c 0.319717,0.5263941 0.0081,1.181255 0.05235,1.7725878 l 0.05232,0.6256188 c -0.0068,0.0045 -0.0099,0.03316 -0.02617,0.02606 -0.0207,-0.06896 -0.04028,-0.137337 -0.05233,-0.20854 -0.0844,-0.4986232 -0.516884,-0.8470782 -0.88958,-1.1991035 -0.08816,-0.083268 -0.141573,-0.1809262 -0.183147,-0.286742 0.03101,0.2483749 0.09741,0.5041784 0.209313,0.7298886 0.286872,0.5786303 0.842243,1.0368079 0.941902,1.6943859 0.04832,-0.630214 0.418623,-1.1015913 0.418623,-1.7725869 0,-0.5432195 -0.20483,-0.9770196 -0.523278,-1.3815762 z M 6.1683256,9.5707768 c -0.074163,0.1558069 -0.091595,0.3515125 -0.1308199,0.5213482 -0.082887,0.438876 -0.01508,0.899981 0.1046563,1.303373 0.1498125,0.504734 0.6381373,0.866985 0.8895739,1.329441 l 0.052328,0.02606 c -0.036619,-0.251031 -0.07135,-0.516356 0,-0.755958 0.1083787,-0.383515 0.2686054,-0.775526 0.3401306,-1.173035 0.055551,-0.308764 0.1149961,-0.639226 0.078492,-0.9384286 -0.041461,0.1612036 -0.09438,0.3062016 -0.1831477,0.4431476 -0.3377076,0.520993 -0.6812753,1.137698 -0.4447868,1.798655 -0.00544,0.007 -0.0173,0.0047 -0.026161,0 C 6.7535969,11.906998 6.7271154,11.681673 6.6654439,11.447628 6.5017914,10.826567 6.0279077,10.288617 6.1683283,9.5707715 z m 12.6633494,0 c 0.140422,0.7178462 -0.333463,1.2557952 -0.497115,1.8768552 -0.06166,0.234045 -0.08816,0.459371 -0.183147,0.677754 -0.0089,0.0047 -0.02069,0.007 -0.02617,0 0.236487,-0.660952 -0.10708,-1.277661 -0.444787,-1.798654 -0.08877,-0.136945 -0.141691,-0.281941 -0.183148,-0.4431453 -0.03651,0.2992023 0.02292,0.6296653 0.07849,0.9384263 0.07152,0.397511 0.231751,0.789523 0.340129,1.173038 0.07136,0.239598 0.03663,0.504927 0,0.755956 l 0.05234,-0.02606 c 0.251437,-0.462461 0.739762,-0.82471 0.889575,-1.329443 0.119734,-0.403394 0.187539,-0.864497 0.104655,-1.303374 -0.03923,-0.1698359 -0.05665,-0.3655415 -0.130819,-0.5213492 z M 7.4241952,11.369432 c 0.062401,0.4088 -0.1192155,0.758374 -0.1569835,1.146968 -0.031039,0.319385 0.032621,0.643965 0.1569835,0.912362 0.03683,0.0795 0.1120743,0.153585 0.1308207,0.234606 C 7.4347574,13.555474 7.3500234,13.405957 7.2672117,13.272356 6.8794781,12.646829 6.0667005,12.23467 6.0113412,11.473701 c -0.027811,0.338431 -0.00867,0.715804 0.1046567,1.016632 0.1572726,0.417482 0.4625069,0.716821 0.8110827,0.990561 0.3604357,0.283059 0.7966824,0.507084 1.1250495,0.755959 C 7.9873771,14.074031 7.8855513,13.939556 7.8428184,13.767638 7.6496644,12.990519 7.7584027,12.088145 7.4241952,11.369432 z m 10.1516128,0 c -0.334207,0.718713 -0.225472,1.621087 -0.418625,2.398206 -0.04274,0.171918 -0.144561,0.306393 -0.209312,0.469215 0.328366,-0.248875 0.764613,-0.4729 1.125051,-0.755959 0.348574,-0.27374 0.653809,-0.573079 0.811082,-0.990561 0.113326,-0.300828 0.132466,-0.678201 0.104655,-1.016632 -0.05535,0.760969 -0.868136,1.173128 -1.255869,1.798655 -0.08281,0.133601 -0.167546,0.283118 -0.287803,0.391012 0.01874,-0.08103 0.09399,-0.155117 0.130821,-0.234606 0.124359,-0.268397 0.188021,-0.592977 0.156982,-0.912362 -0.03777,-0.388594 -0.219385,-0.738168 -0.156982,-1.146968 z m -9.7329896,1.303375 c 0.2818859,0.561112 0.1576824,1.26941 0.5232789,1.798653 0.1143299,0.165507 0.2710169,0.336151 0.4186233,0.469215 -0.1336132,-0.06207 -0.270829,-0.159921 -0.3924594,-0.260676 -0.639652,-0.529869 -1.6055529,-0.596052 -1.9884598,-1.459777 0.1038601,0.63414 0.6321187,1.208229 1.1773776,1.564047 0.5187316,0.338507 1.1769298,0.305935 1.7529848,0.495283 C 8.8019124,14.851787 8.7080668,14.200232 8.4707531,13.637301 8.3232833,13.287488 8.0989204,12.978331 7.8428184,12.672807 z m 9.3143646,0 c -0.256102,0.305524 -0.480465,0.614681 -0.627935,0.964494 -0.237313,0.562931 -0.331159,1.214486 -0.86341,1.642251 0.576055,-0.189348 1.234253,-0.156776 1.752984,-0.495283 0.545258,-0.355818 1.073517,-0.929907 1.177379,-1.564047 -0.382908,0.863725 -1.348809,0.929908 -1.988461,1.459777 -0.121631,0.100755 -0.258846,0.198589 -0.39246,0.260676 0.147606,-0.133064 0.304294,-0.303708 0.418625,-0.469215 0.365597,-0.529243 0.241392,-1.237541 0.523278,-1.798653 z m -8.3986259,1.355508 c 0.347967,0.466612 0.4368918,1.142923 1.0727213,1.381573 0.1125419,0.04224 0.2427026,0.06882 0.3401316,0.130339 -0.122432,0.01872 -0.2260687,-0.02794 -0.3401316,-0.05214 -0.819463,-0.173877 -1.8193847,0.04452 -2.4332475,-0.651685 0.2329556,0.454981 0.7163625,0.812918 1.177378,0.964496 0.7143676,0.234875 1.4479201,-0.01653 2.1192801,-0.182473 0.09672,-0.0239 0.224157,-0.01945 0.313967,-0.05214 C 10.634902,15.49052 10.277523,15.386742 9.9882618,15.12314 9.5726435,14.744398 9.202997,14.322697 8.7585571,14.028315 z m 7.4828889,0 c -0.444442,0.294382 -0.814086,0.716083 -1.229706,1.094831 -0.289261,0.263603 -0.646643,0.367379 -1.020395,0.443149 0.0898,0.03269 0.217245,0.02824 0.313967,0.05214 0.67136,0.165935 1.404915,0.417348 2.119281,0.182473 0.461017,-0.151578 0.944424,-0.509515 1.177378,-0.964496 -0.613863,0.696197 -1.613786,0.477809 -2.433247,0.651685 -0.114065,0.0242 -0.217702,0.07086 -0.340131,0.05214 0.09743,-0.06152 0.227589,-0.0881 0.340131,-0.130338 0.635829,-0.238651 0.724753,-0.914962 1.072722,-1.381575 z m -4.421707,1.511912 c -0.628973,0 -1.174916,0.319294 -1.726823,0.547415 -0.4993035,0.206382 -1.1798663,0.147505 -1.6221629,-0.156404 0.2188447,0.273603 0.5088313,0.459153 0.8110826,0.573485 0.5619459,0.223435 1.2226053,0.04376 1.7006573,-0.260673 0.344481,-0.219375 0.636596,-0.52135 1.046556,-0.52135 0.07447,0 0.160325,0.01 0.235477,0.02606 -0.574583,0.230007 -1.109615,0.628365 -1.51751,1.016632 0.07517,0.08558 0.169918,0.160861 0.26164,0.234608 0.444421,-0.4576 0.962783,-0.954253 1.465181,-1.173037 0.01674,0.0067 0.03559,-0.0074 0.05233,0 0.502399,0.218784 1.020761,0.715437 1.46518,1.173037 0.09173,-0.07373 0.186462,-0.149025 0.261639,-0.234608 -0.407891,-0.388266 -0.942927,-0.786624 -1.517506,-1.016631 0.07515,-0.01608 0.161,-0.02606 0.235474,-0.02606 0.409963,0 0.702077,0.301976 1.046556,0.521351 0.478055,0.304431 1.138713,0.484109 1.700657,0.260673 0.302253,-0.114331 0.592237,-0.299882 0.811083,-0.573485 -0.442298,0.30391 -1.12286,0.362789 -1.622166,0.156406 -0.551903,-0.228122 -1.097848,-0.547418 -1.726819,-0.547418 -0.23179,0 -0.457611,0.0365 -0.680262,0.104272 -0.222653,-0.06778 -0.448474,-0.104272 -0.680264,-0.104272 z" inkscape:connector-curvature="0" />
    <path transform="matrix(0.75,0,0,0.81481487,0.25,3.3703703)" d="m 5,0.5 a 2,1.5 0 1 1 -4,0 2,1.5 0 1 1 4,0 z" sodipodi:ry="1.5" sodipodi:rx="2" sodipodi:cy="0.5" sodipodi:cx="3" id="path3077" style="color:black;fill:white;fill-opacity:1;fill-rule:nonzero;stroke:url(#linearGradient3425-9);stroke-width:0.69282031;stroke-linecap:butt;stroke-linejoin:miter;stroke-miterlimit:4;stroke-opacity:1;stroke-dasharray:none;stroke-dashoffset:0;marker:none;visibility:visible;display:inline;overflow:visible;enable-background:accumulate" sodipodi:type="arc" />
    <path sodipodi:type="arc" style="color:black;fill:url(#radialGradient4402);fill-opacity:1;fill-rule:nonzero;stroke:url(#linearGradient3425-9);stroke-width:0.69282031;stroke-linecap:butt;stroke-linejoin:miter;stroke-miterlimit:4;stroke-opacity:1;stroke-dasharray:none;stroke-dashoffset:0;marker:none;visibility:visible;display:inline;overflow:visible;enable-background:accumulate" id="path4329" sodipodi:cx="3" sodipodi:cy="0.5" sodipodi:rx="2" sodipodi:ry="1.5" d="m 5,0.5 a 2,1.5 0 1 1 -4,0 2,1.5 0 1 1 4,0 z" transform="matrix(0.75,0,0,1,0.25,2)" />
</svg>
