<?xml version="1.0" encoding="UTF-8" standalone="no"?>
<!-- Created with Inkscape (http://www.inkscape.org/) -->

<svg xmlns:dc="http://purl.org/dc/elements/1.1/" xmlns:cc="http://creativecommons.org/ns#" xmlns:rdf="http://www.w3.org/1999/02/22-rdf-syntax-ns#" xmlns:svg="http://www.w3.org/2000/svg" xmlns="http://www.w3.org/2000/svg" xmlns:xlink="http://www.w3.org/1999/xlink" xmlns:sodipodi="http://sodipodi.sourceforge.net/DTD/sodipodi-0.dtd" xmlns:inkscape="http://www.inkscape.org/namespaces/inkscape" width="48px" height="48px" id="svg4700" version="1.1" inkscape:version="0.48.4 r9939" sodipodi:docname="audio-input-microphone.svg" inkscape:export-filename="/home/rafa/.icons/Box/_unfinished/audio-input-microphone.png" inkscape:export-xdpi="90" inkscape:export-ydpi="90">
  <defs id="defs4702">
    <linearGradient id="linearGradient3926">
      <stop id="stop3928" style="stop-color:black;stop-opacity:1" offset="0" />
      <stop offset="0.49999997" style="stop-color:white;stop-opacity:1;" id="stop3930" />
      <stop id="stop3932" style="stop-color:black;stop-opacity:1" offset="1" />
    </linearGradient>
    <linearGradient id="linearGradient4754">
      <stop style="stop-color:black;stop-opacity:0;" offset="0" id="stop4756" />
      <stop id="stop4762" offset="0.5" style="stop-color:black;stop-opacity:1;" />
      <stop style="stop-color:black;stop-opacity:0;" offset="1" id="stop4758" />
    </linearGradient>
    <linearGradient id="linearGradient4374">
      <stop style="stop-color:gray;stop-opacity:1;" offset="0" id="stop4376" />
      <stop id="stop4382" offset="0.5" style="stop-color:#eee;stop-opacity:1;" />
      <stop style="stop-color:#5a5a5a;stop-opacity:1;" offset="1" id="stop4378" />
    </linearGradient>
    <linearGradient id="linearGradient4108">
      <stop style="stop-color:white;stop-opacity:0;" offset="0" id="stop4110" />
      <stop id="stop4116" offset="0.41314927" style="stop-color:white;stop-opacity:0.659" />
      <stop style="stop-color:white;stop-opacity:0;" offset="1" id="stop4112" />
    </linearGradient>
    <linearGradient id="linearGradient4034">
      <stop id="stop4036" style="stop-color:#282828;stop-opacity:1;" offset="0" />
      <stop id="stop4038" style="stop-color:gray;stop-opacity:1;" offset="1" />
    </linearGradient>
    <linearGradient id="linearGradient4020">
      <stop id="stop4022" style="stop-color:#5a5a5a;stop-opacity:1;" offset="0" />
      <stop offset="0.8125" style="stop-color:white;stop-opacity:1;" id="stop4028" />
      <stop id="stop4024" style="stop-color:#5a5a5a;stop-opacity:1;" offset="1" />
    </linearGradient>
    <linearGradient id="linearGradient3966">
      <stop id="stop3974" style="stop-color:#3c3c3c;stop-opacity:1;" offset="0" />
      <stop offset="0.5" style="stop-color:white;stop-opacity:1;" id="stop3976" />
      <stop id="stop3970" style="stop-color:#3c3c3c;stop-opacity:1;" offset="1" />
    </linearGradient>
    <linearGradient id="linearGradient4517">
      <stop style="stop-color:white;stop-opacity:0.50196081;" offset="0" id="stop4519" />
      <stop style="stop-color:#ffffff;stop-opacity:0;" offset="1" id="stop4521" />
    </linearGradient>
    <filter id="filter3174" color-interpolation-filters="sRGB">
      <feGaussianBlur stdDeviation="1.71" id="feGaussianBlur3176" />
    </filter>
    <linearGradient gradientTransform="scale(1.0058652,0.994169)" gradientUnits="userSpaceOnUse" id="ButtonShadow" y2="7.0165396" x2="45.447727" y1="92.539597" x1="45.447727">
      <stop offset="0" style="stop-color:#000000;stop-opacity:1" id="stop3750" />
      <stop offset="1" style="stop-color:#000000;stop-opacity:0.58823532" id="stop3752" />
    </linearGradient>
    <linearGradient inkscape:collect="always" xlink:href="#linearGradient4517" id="linearGradient4523" x1="22.440199" y1="4.8942533" x2="22.440199" y2="38.21666" gradientUnits="userSpaceOnUse" gradientTransform="matrix(0.83724646,0,0,0.87428592,3.8966555,-1.2297181)" />
    <linearGradient inkscape:collect="always" xlink:href="#linearGradient5048-0" id="linearGradient3127" gradientUnits="userSpaceOnUse" gradientTransform="matrix(0.06214224,0,0,0.02900085,1.6242719,28.085503)" x1="302.85715" y1="366.64789" x2="302.85715" y2="609.50507" />
    <linearGradient id="linearGradient5048-0">
      <stop id="stop5050-0" style="stop-color:#000000;stop-opacity:0" offset="0" />
      <stop id="stop5056-5" style="stop-color:#000000;stop-opacity:1" offset="0.5" />
      <stop id="stop5052-9" style="stop-color:#000000;stop-opacity:0" offset="1" />
    </linearGradient>
    <radialGradient inkscape:collect="always" xlink:href="#linearGradient5060-9" id="radialGradient3129" gradientUnits="userSpaceOnUse" gradientTransform="matrix(0.06214224,0,0,0.02900085,1.6365015,28.085503)" cx="605.71429" cy="486.64789" fx="605.71429" fy="486.64789" r="117.14286" />
    <linearGradient id="linearGradient5060-9">
      <stop id="stop5062-2" style="stop-color:#000000;stop-opacity:1" offset="0" />
      <stop id="stop5064-0" style="stop-color:#000000;stop-opacity:0" offset="1" />
    </linearGradient>
    <radialGradient r="117.14286" fy="486.64789" fx="605.71429" cy="486.64789" cx="605.71429" gradientTransform="matrix(-0.06214224,0,0,0.02900085,46.53201,28.085503)" gradientUnits="userSpaceOnUse" id="radialGradient981" xlink:href="#linearGradient5060-9" inkscape:collect="always" />
    <linearGradient inkscape:collect="always" xlink:href="#linearGradient3966" id="linearGradient3188" gradientUnits="userSpaceOnUse" gradientTransform="matrix(0.09523807,0,0,0.06944445,38.428566,14.583331)" x1="54.994385" y1="15.032819" x2="54.994385" y2="68.967247" />
    <linearGradient inkscape:collect="always" xlink:href="#linearGradient4020" id="linearGradient4026" gradientUnits="userSpaceOnUse" gradientTransform="matrix(0.39291502,0,0,0.40284529,5.1400818,0.08049551)" x1="7.2787275" y1="40.941334" x2="88.721275" y2="40.941334" />
    <linearGradient inkscape:collect="always" xlink:href="#linearGradient4034" id="linearGradient4032" gradientUnits="userSpaceOnUse" gradientTransform="matrix(0.39291502,0,0,0.06951197,5.1400778,38.080494)" x1="7.2787294" y1="42.000046" x2="88.721275" y2="42.000046" />
    <linearGradient inkscape:collect="always" xlink:href="#linearGradient4108" id="linearGradient4114" x1="8.0585938" y1="41" x2="23.996094" y2="41" gradientUnits="userSpaceOnUse" gradientTransform="matrix(1.0039216,0,0,1,-0.09019608,3)" />
    <linearGradient inkscape:collect="always" xlink:href="#linearGradient3966-0" id="linearGradient3188-4" gradientUnits="userSpaceOnUse" gradientTransform="matrix(0.10714283,0,0,0.05555556,38.859569,15.164232)" x1="54.994385" y1="15.032819" x2="54.994385" y2="68.967247" />
    <linearGradient id="linearGradient3966-0">
      <stop id="stop3968-19" style="stop-color:#a6a6a6;stop-opacity:1;" offset="0" />
      <stop offset="0.5" style="stop-color:white;stop-opacity:1;" id="stop3972-9" />
      <stop id="stop3974-7" style="stop-color:black;stop-opacity:1;" offset="0.5" />
      <stop offset="0.75" style="stop-color:white;stop-opacity:1;" id="stop3976-1" />
      <stop id="stop3970-2" style="stop-color:#a6a6a6;stop-opacity:1;" offset="1" />
    </linearGradient>
    <linearGradient inkscape:collect="always" xlink:href="#linearGradient4374" id="linearGradient4731" gradientUnits="userSpaceOnUse" gradientTransform="translate(1,0)" x1="3" y1="16" x2="3" y2="36" />
    <linearGradient inkscape:collect="always" xlink:href="#linearGradient4754" id="linearGradient3921" gradientUnits="userSpaceOnUse" gradientTransform="matrix(1.5,0,0,1,-12,0)" x1="14" y1="34.5" x2="34" y2="34.5" />
    <linearGradient inkscape:collect="always" xlink:href="#linearGradient3926" id="linearGradient3924" gradientUnits="userSpaceOnUse" gradientTransform="matrix(0,-0.08035713,0.11111112,0,6.33333,-17.767855)" x1="-694.00006" y1="132.00002" x2="-694.00006" y2="186.00002" />
    <linearGradient inkscape:collect="always" xlink:href="#linearGradient3966" id="linearGradient3936" gradientUnits="userSpaceOnUse" gradientTransform="matrix(0.09523807,0,0,0.06944445,0.428566,14.583331)" x1="54.994385" y1="15.032819" x2="54.994385" y2="68.967247" />
    <linearGradient gradientUnits="userSpaceOnUse" y2="44" x2="-9" y1="4" x1="-9" id="linearGradient4003" xlink:href="#linearGradient3783" inkscape:collect="always" />
    <linearGradient y2="25.48744" x2="31.74275" y1="-5.7136502" x1="8.2114201" gradientTransform="matrix(0.9882196,0,0,0.9863014,3.4829975,-1.917809)" gradientUnits="userSpaceOnUse" id="linearGradient3952" xlink:href="#linearGradient4594-3" inkscape:collect="always" />
    <linearGradient gradientTransform="translate(-47.999997,0)" gradientUnits="userSpaceOnUse" y2="3" x2="10" y1="43" x1="10" id="linearGradient3797" xlink:href="#linearGradient3791" inkscape:collect="always" />
    <radialGradient r="117.14286" fy="486.64789" fx="605.71429" cy="486.64789" cx="605.71429" gradientTransform="matrix(-0.06214224,0,0,0.02900085,46.53201,28.953157)" gradientUnits="userSpaceOnUse" id="radialGradient3583" xlink:href="#linearGradient5060-29" inkscape:collect="always" />
    <linearGradient y2="609.50507" x2="302.85715" y1="366.64789" x1="302.85715" gradientTransform="matrix(0.06214224,0,0,0.02900085,1.6242719,28.953157)" gradientUnits="userSpaceOnUse" id="linearGradient3581" xlink:href="#linearGradient5048-8" inkscape:collect="always" />
    <radialGradient r="117.14286" fy="486.64789" fx="605.71429" cy="486.64789" cx="605.71429" gradientTransform="matrix(0.06214224,0,0,0.02900085,1.6365015,28.953157)" gradientUnits="userSpaceOnUse" id="radialGradient3579" xlink:href="#linearGradient5060-29" inkscape:collect="always" />
    <linearGradient y2="23.579182" x2="13.839919" y1="3.2931969" x1="13.839919" gradientTransform="matrix(0.99919706,0,0,1.0351975,-0.82880645,0.59089074)" gradientUnits="userSpaceOnUse" id="linearGradient3425" xlink:href="#linearGradient4050-7" inkscape:collect="always" />
    <linearGradient gradientUnits="userSpaceOnUse" id="linearGradient4594-3" x1="8.2114201" x2="31.74275" y1="-5.7136502" y2="25.48744">
      <stop offset="0" stop-color="#fff" id="stop37-5-1-3" />
      <stop offset="1" stop-color="#fff" stop-opacity="0" id="stop39-0" />
    </linearGradient>
    <linearGradient id="linearGradient4050-7">
      <stop style="stop-color:white;stop-opacity:0.78518516;" offset="0" id="stop4052-6" />
      <stop style="stop-color:#ffffff;stop-opacity:0;" offset="1" id="stop4054-0" />
    </linearGradient>
    <linearGradient id="linearGradient5060-29">
      <stop id="stop5062-9" style="stop-color:#000000;stop-opacity:1" offset="0" />
      <stop id="stop5064-08" style="stop-color:#000000;stop-opacity:0" offset="1" />
    </linearGradient>
    <linearGradient id="linearGradient5048-8">
      <stop id="stop5050-4" style="stop-color:#000000;stop-opacity:0" offset="0" />
      <stop id="stop5056-7" style="stop-color:#000000;stop-opacity:1" offset="0.5" />
      <stop id="stop5052-0-1" style="stop-color:#000000;stop-opacity:0" offset="1" />
    </linearGradient>
    <linearGradient id="linearGradient3783">
      <stop style="stop-color:#8bd2e4;stop-opacity:1;" offset="0" id="stop3858" />
      <stop id="stop3787" offset="1" style="stop-color:#225f9f;stop-opacity:1;" />
    </linearGradient>
    <linearGradient id="linearGradient3791">
      <stop id="stop3793" offset="0" style="stop-color:#083952;stop-opacity:1;" />
      <stop id="stop3795" offset="1" style="stop-color:#75aed0;stop-opacity:1;" />
    </linearGradient>
    <linearGradient inkscape:collect="always" xlink:href="#linearGradient4594-3" id="linearGradient4043" gradientUnits="userSpaceOnUse" gradientTransform="matrix(0.9882196,0,0,0.76712331,-0.517,-1.6027333)" x1="8.2114201" y1="-5.7136502" x2="31.74275" y2="25.48744" />
    <linearGradient inkscape:collect="always" xlink:href="#linearGradient4050-7" id="linearGradient4046" gradientUnits="userSpaceOnUse" gradientTransform="matrix(0.99919706,0,0,1.0351975,53.171194,15.590891)" x1="13.839919" y1="3.2931969" x2="13.839919" y2="23.579182" />
    <linearGradient inkscape:collect="always" xlink:href="#linearGradient3783" id="linearGradient4049" gradientUnits="userSpaceOnUse" x1="-9" y1="4" x2="-9" y2="44" gradientTransform="translate(-54,15)" />
    <linearGradient inkscape:collect="always" xlink:href="#linearGradient3791" id="linearGradient4051" gradientUnits="userSpaceOnUse" gradientTransform="translate(-102,15)" x1="10" y1="43" x2="10" y2="3" />
    <linearGradient inkscape:collect="always" xlink:href="#linearGradient4670-2" id="linearGradient1198" gradientUnits="userSpaceOnUse" gradientTransform="matrix(1,0,0,1.5,1.437207e-7,-19.250002)" x1="36.1875" y1="37.9375" x2="36.1875" y2="40.6875" />
    <linearGradient id="linearGradient4670-2">
      <stop id="stop4672-0" offset="0" style="stop-color:#3c3c3c;stop-opacity:1;" />
      <stop id="stop4674-2" offset="1" style="stop-color:#ffffff;stop-opacity:1;" />
    </linearGradient>
    <radialGradient inkscape:collect="always" xlink:href="#linearGradient5060-9-3" id="radialGradient981-3" gradientUnits="userSpaceOnUse" gradientTransform="matrix(-0.06214224,0,0,0.02900085,46.53201,28.085503)" cx="605.71429" cy="486.64789" fx="605.71429" fy="486.64789" r="117.14286" />
    <linearGradient id="linearGradient5060-9-3">
      <stop offset="0" style="stop-color:#000000;stop-opacity:1" id="stop5062-2-0" />
      <stop offset="1" style="stop-color:#000000;stop-opacity:0" id="stop5064-0-4" />
    </linearGradient>
    <radialGradient r="117.14286" fy="486.64789" fx="605.71429" cy="486.64789" cx="605.71429" gradientTransform="matrix(0.06214224,0,0,0.02900085,1.6365015,28.085503)" gradientUnits="userSpaceOnUse" id="radialGradient3129-7" xlink:href="#linearGradient5060-9-3" inkscape:collect="always" />
    <linearGradient id="linearGradient5048-0-8">
      <stop offset="0" style="stop-color:#000000;stop-opacity:0" id="stop5050-0-8" />
      <stop offset="0.5" style="stop-color:#000000;stop-opacity:1" id="stop5056-5-9" />
      <stop offset="1" style="stop-color:#000000;stop-opacity:0" id="stop5052-9-5" />
    </linearGradient>
    <linearGradient y2="609.50507" x2="302.85715" y1="366.64789" x1="302.85715" gradientTransform="matrix(0.06214224,0,0,0.02900085,1.6242719,28.085503)" gradientUnits="userSpaceOnUse" id="linearGradient3127-6" xlink:href="#linearGradient5048-0-8" inkscape:collect="always" />
    <linearGradient gradientTransform="matrix(-1.4495798,0,0,-1.4495798,59.402311,46.848214)" y2="28.118208" x2="24.209238" y1="10.304801" x1="24.209238" gradientUnits="userSpaceOnUse" id="linearGradient4615" xlink:href="#linearGradient4599" inkscape:collect="always" />
    <linearGradient gradientUnits="userSpaceOnUse" y2="32.207882" x2="24.209238" y1="5.606431" x1="24.209238" id="linearGradient4605" xlink:href="#linearGradient4599" inkscape:collect="always" />
    <radialGradient r="2.5631001" fy="95.756645" fx="127.2645" cy="95.756645" cx="127.2645" gradientTransform="matrix(0.23760038,0,0,0.25220859,7.7186336,4.6241265)" gradientUnits="userSpaceOnUse" id="radialGradient4593" xlink:href="#radialGradient4241-5" inkscape:collect="always" />
    <radialGradient r="2.5631001" fy="95.756645" fx="127.2645" cy="95.756645" cx="127.2645" gradientTransform="matrix(0.23760038,0,0,0.25220859,7.7186336,4.6241265)" gradientUnits="userSpaceOnUse" id="radialGradient4591" xlink:href="#radialGradient4241-5" inkscape:collect="always" />
    <radialGradient r="2.5631001" fy="95.756645" fx="127.2645" cy="95.756645" cx="127.2645" gradientTransform="matrix(0.23760038,0,0,0.25220859,7.7186336,4.6241265)" gradientUnits="userSpaceOnUse" id="radialGradient4581" xlink:href="#radialGradient4241-5" inkscape:collect="always" />
    <radialGradient cx="113.0654" cy="97.587898" r="2.5631001" fx="113.667" fy="98" id="radialGradient4241-5" gradientUnits="userSpaceOnUse">
      <stop id="stop4243-2" style="stop-color:#eee;stop-opacity:1" offset="0" />
      <stop id="stop4249-6" style="stop-color:#555;stop-opacity:1" offset="1" />
    </radialGradient>
    <radialGradient cx="127.2645" cy="95.756645" r="2.5631001" fx="127.2645" fy="95.756645" id="radialGradient2947-3" xlink:href="#radialGradient4241-5" gradientUnits="userSpaceOnUse" gradientTransform="matrix(0.23760038,0,0,0.25220859,7.7186336,4.6241265)" />
    <linearGradient gradientTransform="matrix(0.99929416,0,0,0.99929126,0.00568567,-1.909409)" gradientUnits="userSpaceOnUse" y2="38.21666" x2="22.440199" y1="4.8942533" x1="22.440199" id="linearGradient4523-2" xlink:href="#linearGradient4517-1" inkscape:collect="always" />
    <linearGradient y2="77.09375" x2="32" y1="77.09375" x1="6" gradientTransform="matrix(-0.46153843,0,0,0.46489104,45.769231,0.1598061)" gradientUnits="userSpaceOnUse" id="linearGradient4511" xlink:href="#linearGradient3322" inkscape:collect="always" />
    <linearGradient id="linearGradient3322">
      <stop id="stop3324" style="stop-color:#7a7a7a;stop-opacity:1" offset="0" />
      <stop id="stop3326" style="stop-color:#f9f9f9;stop-opacity:1" offset="0.2032043" />
      <stop id="stop3328" style="stop-color:#c9c9c9;stop-opacity:1" offset="0.42969123" />
      <stop id="stop3330" style="stop-color:#dedede;stop-opacity:0" offset="1" />
    </linearGradient>
    <linearGradient id="linearGradient3173">
      <stop id="stop3187" style="stop-color:#b6b6b6;stop-opacity:1;" offset="0" />
      <stop id="stop3177" style="stop-color:#e6e6e6;stop-opacity:1" offset="1" />
    </linearGradient>
    <linearGradient x1="45.447727" y1="92.539597" x2="45.447727" y2="7.0165396" id="ButtonShadow-3" gradientUnits="userSpaceOnUse" gradientTransform="scale(1.0058652,0.994169)">
      <stop id="stop3750-5" style="stop-color:#000000;stop-opacity:1" offset="0" />
      <stop id="stop3752-8" style="stop-color:#000000;stop-opacity:0.58823532" offset="1" />
    </linearGradient>
    <filter color-interpolation-filters="sRGB" id="filter3174-7">
      <feGaussianBlur id="feGaussianBlur3176-8" stdDeviation="1.71" />
    </filter>
    <linearGradient gradientTransform="matrix(0.4643436,0,0,0.47228973,1.7115069,-0.3361718)" x1="46.430859" y1="77.039726" x2="46.430859" y2="33.8722" id="linearGradient3179" xlink:href="#linearGradient3173" gradientUnits="userSpaceOnUse" />
    <linearGradient gradientTransform="matrix(0.46153843,0,0,0.46489104,2.2307693,0.1598061)" x1="6" y1="77.09375" x2="32" y2="77.09375" id="linearGradient3279" xlink:href="#linearGradient3322" gradientUnits="userSpaceOnUse" />
    <linearGradient id="linearGradient4517-1">
      <stop id="stop4519-1" offset="0" style="stop-color:#ffffff;stop-opacity:1;" />
      <stop id="stop4521-0" offset="1" style="stop-color:#ffffff;stop-opacity:0;" />
    </linearGradient>
    <linearGradient id="linearGradient4599">
      <stop id="stop4601" offset="0" style="stop-color:#808080;stop-opacity:1;" />
      <stop id="stop4603" offset="1" style="stop-color:#ffffff;stop-opacity:0.50196081;" />
    </linearGradient>
    <linearGradient inkscape:collect="always" xlink:href="#linearGradient4670-2" id="linearGradient4014" gradientUnits="userSpaceOnUse" gradientTransform="translate(-11.999972,-12.000003)" x1="36.1875" y1="37.9375" x2="36.1875" y2="40.6875" />
    <linearGradient inkscape:collect="always" xlink:href="#linearGradient4517-1" id="linearGradient4027" gradientUnits="userSpaceOnUse" gradientTransform="matrix(0.99929416,0,0,0.99929126,49.999636,20.120921)" x1="22.440199" y1="4.8942533" x2="22.440199" y2="38.21666" />
    <linearGradient inkscape:collect="always" xlink:href="#linearGradient3173" id="linearGradient4033" gradientUnits="userSpaceOnUse" gradientTransform="matrix(0.4643436,0,0,0.47228973,51.705457,21.694158)" x1="46.430859" y1="77.039726" x2="46.430859" y2="33.8722" />
    <linearGradient inkscape:collect="always" xlink:href="#linearGradient3322" id="linearGradient4036" gradientUnits="userSpaceOnUse" gradientTransform="matrix(0.46153843,0,0,0.46489104,52.224719,22.190136)" x1="6" y1="77.09375" x2="32" y2="77.09375" />
    <linearGradient inkscape:collect="always" xlink:href="#linearGradient3322" id="linearGradient4039" gradientUnits="userSpaceOnUse" gradientTransform="matrix(-0.46153843,0,0,0.46489104,95.763181,22.190136)" x1="6" y1="77.09375" x2="32" y2="77.09375" />
  </defs>
  <sodipodi:namedview id="base" pagecolor="#ffffff" bordercolor="#666666" borderopacity="1.0" inkscape:pageopacity="0.0" inkscape:pageshadow="2" inkscape:zoom="7.9999996" inkscape:cx="33.588448" inkscape:cy="25.930361" inkscape:current-layer="layer1" showgrid="true" inkscape:grid-bbox="true" inkscape:document-units="px" inkscape:window-width="1018" inkscape:window-height="908" inkscape:window-x="0" inkscape:window-y="4" inkscape:window-maximized="0" inkscape:snap-to-guides="false" inkscape:snap-grids="true" inkscape:snap-bbox="true">
    <inkscape:grid type="xygrid" id="grid1021" />
  </sodipodi:namedview>
  <metadata id="metadata4705">
    <rdf:RDF>
      <cc:Work rdf:about="">
        <dc:format>image/svg+xml</dc:format>
        <dc:type rdf:resource="http://purl.org/dc/dcmitype/StillImage" />
        <dc:title></dc:title>
      </cc:Work>
    </rdf:RDF>
  </metadata>
  <g id="layer1" inkscape:label="Layer 1" inkscape:groupmode="layer">
    <rect width="8" height="5" ry="1.5" x="1" y="15" id="rect3934" style="fill:url(#linearGradient3936);fill-opacity:1;fill-rule:nonzero;stroke:none" />
    <path style="color:black;fill:black;fill-opacity:1;fill-rule:nonzero;stroke:none;stroke-width:3;marker:none;visibility:visible;display:inline;overflow:visible;enable-background:accumulate" d="m 40,41 1,0 0,1 -1,0 z" id="rect4254" />
    <path style="color:black;fill:black;fill-opacity:1;fill-rule:nonzero;stroke:none;stroke-width:3;marker:none;visibility:visible;display:inline;overflow:visible;enable-background:accumulate" d="m 7,41 1,0 0,1 -1,0 z" id="rect4256" />
    <rect style="fill:url(#linearGradient3188);fill-opacity:1;fill-rule:nonzero;stroke:none" id="rect3186" y="15" x="39" ry="1.5" height="5" width="8" />
    <g transform="matrix(0.87953195,0,0,0.99388573,2.817132,1.5181348)" id="g914" style="stroke:none">
      <rect style="opacity:0.5;fill:url(#linearGradient3127);fill-opacity:1;fill-rule:nonzero;stroke:none;stroke-width:104.96237946;marker:none;visibility:visible;display:inline;overflow:visible" id="rect4173" y="38.718601" x="9.0813398" height="7.0430632" width="30.005821" />
      <path inkscape:connector-curvature="0" style="opacity:0.5;fill:url(#radialGradient3129);fill-opacity:1;fill-rule:nonzero;stroke:none;stroke-width:104.96237946;marker:none;visibility:visible;display:inline;overflow:visible" id="path5058" d="m 39.087163,38.718845 c 0,0 0,7.042675 0,7.042675 3.200171,0.01326 7.736457,-1.577906 7.736455,-3.52179 0,-1.943885 -3.57115,-3.520884 -7.736455,-3.520885 z" />
      <path inkscape:connector-curvature="0" style="opacity:0.5;fill:url(#radialGradient981);fill-opacity:1;fill-rule:nonzero;stroke:none;stroke-width:104.96237946;marker:none;visibility:visible;display:inline;overflow:visible" id="path5018" d="m 9.0813406,38.718845 c 0,0 0,7.042675 0,7.042675 -3.2001721,0.01326 -7.7364568,-1.577906 -7.7364568,-3.52179 0,-1.943885 3.57115,-3.520884 7.7364568,-3.520885 z" />
    </g>
    <rect width="33.004864" height="5.0048637" ry="3" x="7.4975662" y="39.49757" id="rect3122" style="color:black;fill:black;fill-opacity:1;fill-rule:nonzero;stroke:#212121;stroke-width:0.99513715999999997;stroke-linecap:butt;stroke-linejoin:miter;stroke-miterlimit:4;stroke-opacity:1;stroke-dasharray:none;stroke-dashoffset:0;marker:none;visibility:visible;display:inline;overflow:visible;enable-background:accumulate" rx="3" />
    <rect style="fill:url(#linearGradient4026);fill-opacity:1;fill-rule:nonzero;stroke:#3c3c3c;stroke-width:0.99513704;stroke-miterlimit:4;stroke-opacity:1;stroke-dasharray:none" y="2.4975686" x="7.49757" ry="2.8337386" rx="2.7860613" height="29.004864" width="33.004864" id="rect3171" />
    <g id="layer2" style="display:none" transform="translate(5.204491,-179.6879)">
      <rect width="86" height="85" rx="6" ry="6" x="5" y="7" id="rect3745" style="opacity:0.9;fill:url(#ButtonShadow);fill-opacity:1;fill-rule:nonzero;stroke:none;filter:url(#filter3174)" />
    </g>
    <g id="layer4" transform="translate(5.204491,-179.6879)" />
    <rect style="fill:url(#linearGradient4032);fill-opacity:1;fill-rule:nonzero;stroke:#212121;stroke-width:0.99513715999999997;stroke-miterlimit:4;stroke-opacity:1;stroke-dasharray:none" id="rect4030" y="38.49757" x="7.4975677" ry="3.0000002" height="5.0048614" width="33.004864" rx="3" />
    <path style="color:black;fill:url(#linearGradient3924);fill-opacity:1;fill-rule:nonzero;stroke:none;stroke-width:1;marker:none;visibility:visible;display:inline;overflow:visible;enable-background:accumulate" d="m 21,40 0,-5 6,0 0,5 c 0,0 0,2 -3,2 -3,0 -3,-2 -3,-2 z" id="rect4626" inkscape:connector-curvature="0" sodipodi:nodetypes="cccccc" />
    <path style="font-size:medium;font-style:normal;font-variant:normal;font-weight:normal;font-stretch:normal;text-indent:0;text-align:start;text-decoration:none;line-height:normal;letter-spacing:normal;word-spacing:normal;text-transform:none;direction:ltr;block-progression:tb;writing-mode:lr-tb;text-anchor:start;baseline-shift:baseline;color:black;fill:url(#linearGradient4731);fill-opacity:1;stroke:none;stroke-width:1.99999988000000006;marker:none;visibility:visible;display:inline;overflow:visible;enable-background:accumulate;font-family:Sans;-inkscape-font-specification:Sans" d="M 3.84375,12 C 3.5625,12.037782 3,12.220902 3,13 l 0,17 c 0,3 3,6 6,6 l 11,0 8,0 11,0 c 3,0 6,-3 6,-6 l 0,-17 c 0,-1.038798 -1,-1 -1,-1 l -0.5,0 c 0,0 -0.5,0 -0.5,1 l 0,2 c 0,0 1,0 1,1 l 0,3 c 0,1.105738 -1,1 -1,1 l 0,10 c 0,2.233297 -2,4 -4,4 L 28,34 20,34 9,34 C 7,34 5,32.233297 5,30 L 5,20 C 5,20 4,20.105738 4,19 L 4,16 C 4,15 5,15 5,15 L 5,13 C 5,12 4.5,12 4.5,12 L 4,12 c 0,0 -0.0625,-0.01259 -0.15625,0 z" id="rect4330" />
    <path style="font-size:medium;font-style:normal;font-variant:normal;font-weight:normal;font-stretch:normal;text-indent:0;text-align:start;text-decoration:none;line-height:normal;letter-spacing:normal;word-spacing:normal;text-transform:none;direction:ltr;block-progression:tb;writing-mode:lr-tb;text-anchor:start;baseline-shift:baseline;color:black;fill:black;fill-opacity:1;stroke:none;stroke-width:1;marker:none;visibility:visible;display:inline;overflow:visible;enable-background:accumulate;font-family:Sans;-inkscape-font-specification:Sans" d="M 4.4375 12 C 4.296875 12.031796 4 12.201747 4 13 L 4 17 C 4 14.9939 5 15 5 15 L 5 13 C 5 11.98257 4.5 12 4.5 12 C 4.5 12 4.484375 11.989401 4.4375 12 z M 43.4375 12 C 43.296875 12.04279 43 12.236928 43 13 L 43 15 C 43 15 44 14.9939 44 17 L 44 13 C 44 11.935663 43.5 12 43.5 12 C 43.5 12 43.484375 11.985737 43.4375 12 z M 4 18 L 4 29 C 4 32 6 35 10 35 L 20 35 L 28 35 L 38 35 C 42 35 44 32 44 29 L 44 18 C 44 20.165965 43 20 43 20 L 43 29 C 43 32 41 34 38 34 L 28 34 L 20 34 L 10 34 C 7 34 5 32 5 29 L 5 20 C 5 20 4 20.165965 4 18 z " id="rect4336" />
    <path style="font-size:medium;font-style:normal;font-variant:normal;font-weight:normal;font-stretch:normal;text-indent:0;text-align:start;text-decoration:none;line-height:normal;letter-spacing:normal;word-spacing:normal;text-transform:none;direction:ltr;block-progression:tb;writing-mode:lr-tb;text-anchor:start;baseline-shift:baseline;color:black;fill:url(#linearGradient4114);fill-opacity:1;stroke:none;stroke-width:0.99513721;marker:none;visibility:visible;display:inline;overflow:visible;enable-background:accumulate;font-family:Sans;-inkscape-font-specification:Sans" d="m 7,41 c 0,1.53125 1.375,3 4,3 l 15,0 0,-1 -15,0 C 9,43 8,42 8,41 z" id="rect4090" inkscape:connector-curvature="0" sodipodi:nodetypes="ccccccc" />
    <g id="g4046" transform="translate(0,-1)">
      <path style="color:black;fill:white;fill-opacity:0.50196078;fill-rule:nonzero;stroke:none;stroke-width:3;marker:none;visibility:visible;display:inline;overflow:visible;enable-background:accumulate" d="M 27.057778,10 C 26.466844,10 26,10.446 26,11 c 0,0.554 0.466844,1 1.057778,1 L 40,12 40,10 z m 0,4 C 26.466844,14 26,14.446 26,15 c 0,0.554 0.466844,1 1.057778,1 L 40,16 40,14 z m 0,4 C 26.466844,18 26,18.446 26,19 c 0,0.554 0.466844,1 1.057778,1 L 40,20 40,18 z m 0.06222,4 c -0.590934,0 -1.057778,0.446 -1.057778,1 0,0.554 0.466844,1 1.057778,1 l 12.88,0 0,-2 z" id="path4824" inkscape:connector-curvature="0" sodipodi:nodetypes="sssccssssccssssccssssccs" />
      <path sodipodi:nodetypes="sssccssssccssssccssssccs" inkscape:connector-curvature="0" id="path4802" d="M 27.057778,9 C 26.466844,9 26,9.446 26,10 c 0,0.554 0.466844,1 1.057778,1 L 40,11 40,9 z m 0,4 C 26.466844,13 26,13.446 26,14 c 0,0.554 0.466844,1 1.057778,1 L 40,15 40,13 z m 0,4 C 26.466844,17 26,17.446 26,18 c 0,0.554 0.466844,1 1.057778,1 L 40,19 40,17 z M 27.12,21 c -0.590934,0 -1.057778,0.446 -1.057778,1 0,0.554 0.466844,1 1.057778,1 L 40,23 40,21 z" style="color:black;fill:black;fill-opacity:1;fill-rule:nonzero;stroke:none;stroke-width:3;marker:none;visibility:visible;display:inline;overflow:visible;enable-background:accumulate" />
      <path sodipodi:nodetypes="sssccssssccssssccssssccs" inkscape:connector-curvature="0" id="path4832" d="M 20.942222,10 C 21.533156,10 22,10.446 22,11 c 0,0.554 -0.466844,1 -1.057778,1 L 8,12 8,10 z m 0,4 C 21.533156,14 22,14.446 22,15 c 0,0.554 -0.466844,1 -1.057778,1 L 8,16 8,14 z m 0,4 C 21.533156,18 22,18.446 22,19 c 0,0.554 -0.466844,1 -1.057778,1 L 8,20 8,18 z M 20.88,22 c 0.590934,0 1.057778,0.446 1.057778,1 0,0.554 -0.466844,1 -1.057778,1 L 8,24 8,22 z" style="color:black;fill:white;fill-opacity:0.50196078;fill-rule:nonzero;stroke:none;stroke-width:3;marker:none;visibility:visible;display:inline;overflow:visible;enable-background:accumulate" />
      <path style="color:black;fill:black;fill-opacity:1;fill-rule:nonzero;stroke:none;stroke-width:3;marker:none;visibility:visible;display:inline;overflow:visible;enable-background:accumulate" d="M 20.942222,9 C 21.533156,9 22,9.446 22,10 c 0,0.554 -0.466844,1 -1.057778,1 L 8,11 8,9 z m 0,4 C 21.533156,13 22,13.446 22,14 c 0,0.554 -0.466844,1 -1.057778,1 L 8,15 8,13 z m 0,4 C 21.533156,17 22,17.446 22,18 c 0,0.554 -0.466844,1 -1.057778,1 L 8,19 8,17 z M 20.88,21 c 0.590934,0 1.057778,0.446 1.057778,1 0,0.554 -0.466844,1 -1.057778,1 L 8,23 8,21 z" id="path4834" inkscape:connector-curvature="0" sodipodi:nodetypes="sssccssssccssssccssssccs" />
    </g>
    <rect style="color:black;fill:aqua;fill-opacity:1;stroke:url(#linearGradient4014);stroke-width:0.99999994;stroke-linecap:butt;stroke-linejoin:miter;stroke-miterlimit:4;stroke-opacity:1;stroke-dasharray:none;stroke-dashoffset:0;marker:none;visibility:visible;display:inline;overflow:visible;enable-background:accumulate" id="rect4668" width="4.9999962" height="2" x="21.500004" y="26.5" />
    <rect width="31" height="27.999998" ry="2" x="8.5" y="3.4999998" id="rect4513" style="fill:none;stroke:url(#linearGradient4523);stroke-width:0.99999994;stroke-miterlimit:4;stroke-opacity:1;stroke-dasharray:none" rx="2" />
    <path style="opacity:0.98999999;fill:url(#linearGradient4043)" inkscape:connector-curvature="0" d="m 17.000002,3 20.4529,0 C 38.725732,3 40,3.7876556 40,4.9467 L 40,31 27.249361,31 17.000002,3 z" id="path57-5-0" sodipodi:nodetypes="cssccc" />
  </g>
</svg>
