<?xml version="1.0" encoding="UTF-8" standalone="no"?>
<!-- Created with Inkscape (http://www.inkscape.org/) -->

<svg
   xmlns:dc="http://purl.org/dc/elements/1.1/"
   xmlns:cc="http://creativecommons.org/ns#"
   xmlns:rdf="http://www.w3.org/1999/02/22-rdf-syntax-ns#"
   xmlns:svg="http://www.w3.org/2000/svg"
   xmlns="http://www.w3.org/2000/svg"
   xmlns:sodipodi="http://sodipodi.sourceforge.net/DTD/sodipodi-0.dtd"
   xmlns:inkscape="http://www.inkscape.org/namespaces/inkscape"
   width="16"
   height="16"
   id="svg3437"
   version="1.1"
   inkscape:version="0.48.4 r9939"
   sodipodi:docname="yast_soundcard.svg">
  <defs
     id="defs3439">
    <filter
       id="filter3174-4-25"
       color-interpolation-filters="sRGB">
      <feGaussianBlur
         stdDeviation="1.71"
         id="feGaussianBlur3176-2-3" />
    </filter>
    <linearGradient
       gradientTransform="scale(1.0058652,0.994169)"
       gradientUnits="userSpaceOnUse"
       id="ButtonShadow-91-1"
       y2="7.0165396"
       x2="45.447727"
       y1="92.539597"
       x1="45.447727">
      <stop
         offset="0"
         style="stop-color:#000000;stop-opacity:1"
         id="stop3750-4-3" />
      <stop
         offset="1"
         style="stop-color:#000000;stop-opacity:0.58823532"
         id="stop3752-2-1" />
    </linearGradient>
    <linearGradient
       x1="45.447727"
       y1="92.539597"
       x2="45.447727"
       y2="7.0165396"
       id="ButtonShadow-9-7"
       gradientUnits="userSpaceOnUse"
       gradientTransform="scale(1.0058652,0.994169)">
      <stop
         id="stop3750-3-67"
         style="stop-color:#000000;stop-opacity:1"
         offset="0" />
      <stop
         id="stop3752-0-9"
         style="stop-color:#000000;stop-opacity:0.58823532"
         offset="1" />
    </linearGradient>
    <filter
       color-interpolation-filters="sRGB"
       id="filter3174-2-5">
      <feGaussianBlur
         id="feGaussianBlur3176-1-9"
         stdDeviation="1.71" />
    </filter>
    <linearGradient
       x1="45.447727"
       y1="92.539597"
       x2="45.447727"
       y2="7.0165396"
       id="ButtonShadow-1"
       gradientUnits="userSpaceOnUse"
       gradientTransform="scale(1.0058652,0.994169)">
      <stop
         id="stop3750-0"
         style="stop-color:#000000;stop-opacity:1"
         offset="0" />
      <stop
         id="stop3752-1"
         style="stop-color:#000000;stop-opacity:0.58823532"
         offset="1" />
    </linearGradient>
    <filter
       color-interpolation-filters="sRGB"
       id="filter3174-0">
      <feGaussianBlur
         id="feGaussianBlur3176-8"
         stdDeviation="1.71" />
    </filter>
    <filter
       id="filter3174-4"
       color-interpolation-filters="sRGB">
      <feGaussianBlur
         stdDeviation="1.71"
         id="feGaussianBlur3176-2" />
    </filter>
    <linearGradient
       gradientTransform="scale(1.0058652,0.994169)"
       gradientUnits="userSpaceOnUse"
       id="ButtonShadow-91"
       y2="7.0165396"
       x2="45.447727"
       y1="92.539597"
       x1="45.447727">
      <stop
         offset="0"
         style="stop-color:#000000;stop-opacity:1"
         id="stop3750-4" />
      <stop
         offset="1"
         style="stop-color:#000000;stop-opacity:0.58823532"
         id="stop3752-2" />
    </linearGradient>
    <linearGradient
       x1="45.447727"
       y1="92.539597"
       x2="45.447727"
       y2="7.0165396"
       id="ButtonShadow-9"
       gradientUnits="userSpaceOnUse"
       gradientTransform="scale(1.0058652,0.994169)">
      <stop
         id="stop3750-3"
         style="stop-color:#000000;stop-opacity:1"
         offset="0" />
      <stop
         id="stop3752-0"
         style="stop-color:#000000;stop-opacity:0.58823532"
         offset="1" />
    </linearGradient>
    <filter
       color-interpolation-filters="sRGB"
       id="filter3174-2">
      <feGaussianBlur
         id="feGaussianBlur3176-1"
         stdDeviation="1.71" />
    </filter>
    <linearGradient
       x1="45.447727"
       y1="92.539597"
       x2="45.447727"
       y2="7.0165396"
       id="ButtonShadow"
       gradientUnits="userSpaceOnUse"
       gradientTransform="scale(1.0058652,0.994169)">
      <stop
         id="stop3750"
         style="stop-color:#000000;stop-opacity:1"
         offset="0" />
      <stop
         id="stop3752"
         style="stop-color:#000000;stop-opacity:0.58823532"
         offset="1" />
    </linearGradient>
    <filter
       color-interpolation-filters="sRGB"
       id="filter3174">
      <feGaussianBlur
         id="feGaussianBlur3176"
         stdDeviation="1.71" />
    </filter>
  </defs>
  <sodipodi:namedview
     id="base"
     pagecolor="#ffffff"
     bordercolor="#666666"
     borderopacity="1.0"
     inkscape:pageopacity="0.0"
     inkscape:pageshadow="2"
     inkscape:zoom="32"
     inkscape:cx="16.025479"
     inkscape:cy="9.14407"
     inkscape:document-units="px"
     inkscape:current-layer="capa1"
     showgrid="true"
     inkscape:window-width="1280"
     inkscape:window-height="949"
     inkscape:window-x="0"
     inkscape:window-y="0"
     inkscape:window-maximized="1"
     inkscape:snap-bbox="true">
    <inkscape:grid
       type="xygrid"
       id="grid3445"
       empspacing="5"
       visible="true"
       enabled="true"
       snapvisiblegridlinesonly="true" />
  </sodipodi:namedview>
  <metadata
     id="metadata3442">
    <rdf:RDF>
      <cc:Work
         rdf:about="">
        <dc:format>image/svg+xml</dc:format>
        <dc:type
           rdf:resource="http://purl.org/dc/dcmitype/StillImage" />
        <dc:title />
      </cc:Work>
    </rdf:RDF>
  </metadata>
  <g
     inkscape:label="Capa 1"
     inkscape:groupmode="layer"
     id="capa1"
     transform="translate(0,-1036.3622)">
    <path
       style="color:black;fill:#85882b;fill-opacity:1;fill-rule:nonzero;stroke:#3e4508;stroke-width:1;stroke-linecap:round;stroke-linejoin:round;stroke-miterlimit:4;stroke-opacity:1;stroke-dasharray:none;stroke-dashoffset:0;marker:none;visibility:visible;display:inline;overflow:visible;enable-background:accumulate"
       d="m 8.5,1046.8622 -8,0 0,3.8888 c 0,0.616 0.46208469,1.1112 1.0370366,1.1112 l 5.925926,0 c 0.574952,0 1.0370374,-0.4167 1.0370374,-1.1112 z"
       id="path3868"
       inkscape:connector-curvature="0"
       sodipodi:nodetypes="ccssssc" />
    <path
       sodipodi:nodetypes="ccssssc"
       inkscape:connector-curvature="0"
       id="path4001"
       d="m 15.5,1046.8622 -5,0 0,3.8888 c 0,0.616 0.604827,1.1112 1.234848,1.1112 l 2.628787,0 c 0.630022,0 1.136365,-0.4952 1.136365,-1.1112 z"
       style="color:black;fill:#85882b;fill-opacity:1;fill-rule:nonzero;stroke:#3e4508;stroke-width:1;stroke-linecap:round;stroke-linejoin:round;stroke-miterlimit:4;stroke-opacity:1;stroke-dasharray:none;stroke-dashoffset:0;marker:none;visibility:visible;display:inline;overflow:visible;enable-background:accumulate" />
    <path
       style="color:black;fill:#dcd900;fill-opacity:1;fill-rule:nonzero;stroke:none;stroke-width:1;marker:none;visibility:visible;display:inline;overflow:visible;enable-background:accumulate"
       d="m 2,1048.3622 0,3 2,0 0,-3 -2,0 z"
       id="path3106"
       inkscape:connector-curvature="0" />
    <path
       style="color:black;fill:#dcd900;fill-opacity:1;fill-rule:nonzero;stroke:none;stroke-width:1;marker:none;visibility:visible;display:inline;overflow:visible;enable-background:accumulate"
       d="m 12,1048.3622 0,3 2,0 0,-3 -2,0 z"
       id="path3114"
       inkscape:connector-curvature="0" />
    <path
       inkscape:connector-curvature="0"
       id="path3162"
       d="m 5,1048.3622 0,3 2,0 0,-3 -2,0 z"
       style="color:black;fill:#dcd900;fill-opacity:1;fill-rule:nonzero;stroke:none;stroke-width:1;marker:none;visibility:visible;display:inline;overflow:visible;enable-background:accumulate" />
    <rect
       ry="2"
       y="1036.8622"
       x="0.5"
       height="12"
       width="15"
       id="rect4644"
       style="color:black;fill:#50ac00;fill-opacity:1;fill-rule:nonzero;stroke:#1f5200;stroke-width:0.99999994;stroke-linecap:round;stroke-linejoin:round;stroke-miterlimit:4;stroke-opacity:1;stroke-dasharray:none;stroke-dashoffset:0;marker:none;visibility:visible;display:inline;overflow:visible;enable-background:accumulate"
       rx="2" />
    <rect
       style="color:black;fill:#282828;fill-opacity:1;fill-rule:nonzero;stroke:none;stroke-width:0.99999982;marker:none;visibility:visible;display:inline;overflow:visible;enable-background:accumulate"
       id="rect4030"
       width="7"
       height="7.0000172"
       x="7"
       y="1039.3622"
       ry="0.99999982"
       rx="1" />
    <path
       style="color:black;fill:white;fill-opacity:1;fill-rule:nonzero;stroke:none;stroke-width:1;marker:none;visibility:visible;display:inline;overflow:visible;enable-background:accumulate"
       d="m 14,1040.3622 0,1 1,0 0,-1 -1,0 z"
       id="path3122"
       inkscape:connector-curvature="0" />
    <rect
       y="1038.3622"
       x="2"
       height="3"
       width="2"
       id="rect4660"
       style="color:black;fill:black;fill-opacity:1;fill-rule:nonzero;stroke:none;stroke-width:1;marker:none;visibility:visible;display:inline;overflow:visible;enable-background:accumulate" />
    <path
       inkscape:connector-curvature="0"
       id="path3124"
       d="m 14,1042.3622 0,1 1,0 0,-1 -1,0 z"
       style="color:black;fill:white;fill-opacity:1;fill-rule:nonzero;stroke:none;stroke-width:1;marker:none;visibility:visible;display:inline;overflow:visible;enable-background:accumulate" />
    <path
       style="color:black;fill:white;fill-opacity:1;fill-rule:nonzero;stroke:none;stroke-width:1;marker:none;visibility:visible;display:inline;overflow:visible;enable-background:accumulate"
       d="m 14,1044.3622 0,1 1,0 0,-1 -1,0 z"
       id="path3126"
       inkscape:connector-curvature="0" />
    <path
       inkscape:connector-curvature="0"
       id="path3128"
       d="m 7.9999988,1047.3622 0.999995,0 -6.7e-6,-1 -0.9999951,0 6.8e-6,1 z"
       style="color:black;fill:white;fill-opacity:1;fill-rule:nonzero;stroke:none;stroke-width:1;marker:none;visibility:visible;display:inline;overflow:visible;enable-background:accumulate" />
    <path
       style="color:black;fill:white;fill-opacity:1;fill-rule:nonzero;stroke:none;stroke-width:1;marker:none;visibility:visible;display:inline;overflow:visible;enable-background:accumulate"
       d="m 9.9999889,1047.3622 0.9999941,0 2e-5,-1 -0.999995,0 -1.91e-5,1 z"
       id="path3130"
       inkscape:connector-curvature="0" />
    <path
       inkscape:connector-curvature="0"
       id="path3132"
       d="m 12.000005,1047.3622 0.999995,0 -7e-6,-1 -0.999995,0 7e-6,1 z"
       style="color:black;fill:white;fill-opacity:1;fill-rule:nonzero;stroke:none;stroke-width:1;marker:none;visibility:visible;display:inline;overflow:visible;enable-background:accumulate" />
    <path
       style="color:black;fill:white;fill-opacity:1;fill-rule:nonzero;stroke:none;stroke-width:1;marker:none;visibility:visible;display:inline;overflow:visible;enable-background:accumulate"
       d="m 7.9999958,1039.3622 0.999995,0 -6.7e-6,-1 -0.9999951,0 6.8e-6,1 z"
       id="path3134"
       inkscape:connector-curvature="0" />
    <path
       inkscape:connector-curvature="0"
       id="path3136"
       d="m 9.9999859,1039.3622 0.9999941,0 2e-5,-1 -0.999995,0 -1.91e-5,1 z"
       style="color:black;fill:white;fill-opacity:1;fill-rule:nonzero;stroke:none;stroke-width:1;marker:none;visibility:visible;display:inline;overflow:visible;enable-background:accumulate" />
    <path
       style="color:black;fill:white;fill-opacity:1;fill-rule:nonzero;stroke:none;stroke-width:1;marker:none;visibility:visible;display:inline;overflow:visible;enable-background:accumulate"
       d="m 12.000002,1039.3622 0.999995,0 -7e-6,-1 -0.999995,0 7e-6,1 z"
       id="path3138"
       inkscape:connector-curvature="0" />
    <path
       inkscape:connector-curvature="0"
       id="path3158"
       d="m 1,1045.3622 0,2 4,0 0,-2 -4,0 z"
       style="color:black;fill:white;fill-opacity:1;fill-rule:nonzero;stroke:none;stroke-width:1;marker:none;visibility:visible;display:inline;overflow:visible;enable-background:accumulate" />
    <rect
       style="color:black;fill:black;fill-opacity:1;fill-rule:nonzero;stroke:none;stroke-width:1;marker:none;visibility:visible;display:inline;overflow:visible;enable-background:accumulate"
       id="rect3160"
       width="2"
       height="3"
       x="2"
       y="1043.3622" />
    <g
       id="layer2"
       style="display:none"
       transform="matrix(0.73945542,0,0,0.73945542,21.617054,884.68478)">
      <rect
         width="86"
         height="85"
         rx="8.1140795"
         ry="8.1140795"
         x="5"
         y="7"
         id="rect3745"
         style="opacity:0.9;fill:url(#ButtonShadow);fill-opacity:1;fill-rule:nonzero;stroke:none;filter:url(#filter3174)" />
    </g>
    <g
       id="layer4"
       transform="matrix(0.73945542,0,0,0.73945542,21.617054,884.68478)" />
    <g
       id="layer2-0"
       style="display:none"
       transform="matrix(0.73945542,0,0,0.73945542,41.26023,892.41494)">
      <rect
         width="86"
         height="85"
         rx="8.1140795"
         ry="8.1140795"
         x="5"
         y="7"
         id="rect3745-7"
         style="opacity:0.9;fill:url(#ButtonShadow-91);fill-opacity:1;fill-rule:nonzero;stroke:none;filter:url(#filter3174-4)" />
    </g>
    <g
       id="layer4-3"
       transform="matrix(0.73945542,0,0,0.73945542,41.26023,892.41494)" />
    <g
       id="layer2-1"
       style="display:none"
       transform="matrix(0.73945542,0,0,0.73945542,82.762166,894.58541)">
      <rect
         width="86"
         height="85"
         rx="8.1140795"
         ry="8.1140795"
         x="5"
         y="7"
         id="rect3745-1"
         style="opacity:0.9;fill:url(#ButtonShadow-9);fill-opacity:1;fill-rule:nonzero;stroke:none;filter:url(#filter3174-2)" />
    </g>
    <g
       id="layer4-8"
       transform="matrix(0.73945542,0,0,0.73945542,82.762166,894.58541)" />
    <g
       id="layer2-7"
       style="display:none"
       transform="translate(14,831.1743)">
      <rect
         width="86"
         height="85"
         rx="6"
         ry="6"
         x="5"
         y="7"
         id="rect3745-2"
         style="opacity:0.9;fill:url(#ButtonShadow-1);fill-opacity:1;fill-rule:nonzero;stroke:none;filter:url(#filter3174-0)" />
    </g>
    <g
       id="layer4-7"
       transform="translate(14,831.1743)" />
    <g
       id="layer2-0-8"
       style="display:none"
       transform="translate(40.564381,841.62816)">
      <rect
         width="86"
         height="85"
         rx="6"
         ry="6"
         x="5"
         y="7"
         id="rect3745-7-9"
         style="opacity:0.9;fill:url(#ButtonShadow-91-1);fill-opacity:1;fill-rule:nonzero;stroke:none;filter:url(#filter3174-4-25)" />
    </g>
    <g
       id="layer4-3-7"
       transform="translate(40.564381,841.62816)" />
    <g
       id="layer2-1-9"
       style="display:none"
       transform="translate(96.689382,844.56339)">
      <rect
         width="86"
         height="85"
         rx="6"
         ry="6"
         x="5"
         y="7"
         id="rect3745-1-8"
         style="opacity:0.9;fill:url(#ButtonShadow-9-7);fill-opacity:1;fill-rule:nonzero;stroke:none;filter:url(#filter3174-2-5)" />
    </g>
    <g
       id="layer4-8-4"
       transform="translate(96.689382,844.56339)" />
    <path
       style="font-size:medium;font-style:normal;font-variant:normal;font-weight:normal;font-stretch:normal;text-indent:0;text-align:start;text-decoration:none;line-height:normal;letter-spacing:normal;word-spacing:normal;text-transform:none;direction:ltr;block-progression:tb;writing-mode:lr-tb;text-anchor:start;baseline-shift:baseline;color:black;fill:#1f5200;fill-opacity:1;fill-rule:nonzero;stroke:none;stroke-width:2.99999976;marker:none;visibility:visible;display:inline;overflow:visible;enable-background:accumulate;font-family:Sans;-inkscape-font-specification:Sans"
       d="M 1.96875 0 C 1.9632546 0.011524589 1.9425325 0.019895307 1.9375 0.03125 C 1.7335891 0.49145 1.8135948 0.76555 1.84375 1.03125 L 1.78125 1.03125 C 1.77863 3.17525 1.78518 5.33355 1.78125 7.46875 C 1.0856336 7.6578271 0.47612086 8.036011 0 8.5625 L 0 13.25 C 0.62834932 13.798745 1.4948114 14.098746 2.40625 13.96875 L 2.40625 14 C 2.441636 14 2.465057 13.97375 2.5 13.96875 C 4.2245997 13.72455 5.3437572 12.3236 5.5 10.6875 A 1.510229 1.5033922 0 0 0 6.78125 10.09375 C 6.873335 9.97345 6.8857551 9.8141 6.96875 9.6875 L 7 9.6875 C 7.017869 9.6365 7.01322 9.5529 7.03125 9.5 C 8.0188581 7.884 8.3343388 5.87055 7.53125 4.03125 C 7.521163 4.00625 7.541539 3.99275 7.53125 3.96875 C 6.9809806 2.65535 6.1727978 2.0662 5.96875 1.6875 A 1.510229 1.5033922 0 0 0 5.9375 1.625 C 5.6985804 1.2238 5.5442583 0.83715 5.5 0.46875 A 1.510229 1.5033922 0 0 0 5.375 0 L 1.96875 0 z "
       transform="translate(0,1036.3622)"
       id="path3578" />
    <path
       inkscape:connector-curvature="0"
       d="m 3.6493248,1036.3669 c -0.3824673,-0.049 -0.4354269,0.3058 -0.395585,0.5881 -0.00365,2.81 0.0073,5.6223 -0.00547,8.4306 -0.093409,0.096 -0.2726732,-0.062 -0.391682,-0.021 -1.2965385,-0.079 -2.71312332,0.8527 -2.84273954,2.1963 -0.15276142,1.0684 0.98700984,1.9473 2.00339864,1.781 1.2807195,-0.1343 2.2812893,-1.4145 2.1143179,-2.6782 0.00365,-2.2249 -0.00717,-4.4522 0.00547,-6.6754 0.087301,-0.1 0.2175049,0.1128 0.3094654,0.122 1.0299111,0.6036 1.9409522,1.5988 2.0024511,2.8381 0.067631,0.9683 -0.2284647,1.916 -0.561595,2.8139 1.1162554,-1.3609 1.4735936,-3.346 0.6979183,-4.9532 -0.3967015,-0.9332 -1.2916132,-1.508 -1.7922429,-2.3746 -0.3697118,-0.5791 -0.6510871,-1.2256 -0.7391204,-1.9094 -0.072489,-0.1426 -0.2634038,-0.1599 -0.4045864,-0.1584 z"
       id="path61"
       style="fill:white;fill-opacity:1;stroke:none" />
  </g>
</svg>
