<?xml version="1.0" encoding="UTF-8" standalone="no"?>
<svg xmlns:dc="http://purl.org/dc/elements/1.1/" xmlns:cc="http://creativecommons.org/ns#" xmlns:rdf="http://www.w3.org/1999/02/22-rdf-syntax-ns#" xmlns:svg="http://www.w3.org/2000/svg" xmlns="http://www.w3.org/2000/svg" xmlns:xlink="http://www.w3.org/1999/xlink" xmlns:sodipodi="http://sodipodi.sourceforge.net/DTD/sodipodi-0.dtd" xmlns:inkscape="http://www.inkscape.org/namespaces/inkscape" viewBox="0 0 16 16" id="svg3076" version="1.1" inkscape:version="0.48.3.1 r9886" width="100%" height="100%" sodipodi:docname="drive-removable-media.svg">
  <metadata id="metadata3117">
    <rdf:RDF>
      <cc:Work rdf:about="">
        <dc:format>image/svg+xml</dc:format>
        <dc:type rdf:resource="http://purl.org/dc/dcmitype/StillImage" />
      </cc:Work>
    </rdf:RDF>
  </metadata>
  <sodipodi:namedview pagecolor="#ffffff" bordercolor="#666666" borderopacity="1" objecttolerance="10" gridtolerance="10" guidetolerance="10" inkscape:pageopacity="0" inkscape:pageshadow="2" inkscape:window-width="1280" inkscape:window-height="976" id="namedview3115" showgrid="true" inkscape:zoom="14.75" inkscape:cx="8" inkscape:cy="8" inkscape:window-x="0" inkscape:window-y="24" inkscape:window-maximized="1" inkscape:current-layer="svg3076">
    <inkscape:grid type="xygrid" id="grid3066" />
  </sodipodi:namedview>
  <defs id="defs3078">
    <linearGradient gradientUnits="userSpaceOnUse" id="linearGradient3179" x2="0" y1="-12.42762" y2="-1.45591">
      <stop offset="0" stop-color="#b6b6b6" id="stop3089" />
      <stop offset="1" stop-color="#f0f0f0" id="stop3091" />
    </linearGradient>
    <linearGradient y2="21.128468" x2="213.08154" y1="7.8809905" x1="213.08154" gradientTransform="matrix(1.3439926,0,0,1.2077771,-279.98,-832.20822)" gradientUnits="userSpaceOnUse" id="linearGradient3082" xlink:href="#linearGradient1022-8-8-3-0-06-59" inkscape:collect="always" />
    <linearGradient gradientUnits="userSpaceOnUse" id="linearGradient1022-8-8-3-0-06-59" x2="0" y1="3.0069399" y2="11.02436">
      <stop offset="0" id="stop3001-0-9-4-9-02" />
      <stop offset="1" stop-color="#363636" id="stop3003-5-6-6-5-70" />
    </linearGradient>
    <linearGradient inkscape:collect="always" xlink:href="#linearGradient1022-8-8-3-0-06-59" id="linearGradient3041" gradientUnits="userSpaceOnUse" gradientTransform="matrix(1.3439926,0,0,1.2077771,-261.06475,-832.00482)" x1="213.08154" y1="7.8809905" x2="213.08154" y2="21.128468" />
    <linearGradient inkscape:collect="always" xlink:href="#linearGradient1022-8-8-3-0-06-59" id="linearGradient3061" gradientUnits="userSpaceOnUse" gradientTransform="matrix(1.3439926,0,0,1.2077771,-261.06475,-832.00482)" x1="213.08154" y1="7.8809905" x2="213.08154" y2="21.128468" />
    <linearGradient inkscape:collect="always" xlink:href="#linearGradient1022-8-8-3-0-06-59" id="linearGradient3064" gradientUnits="userSpaceOnUse" gradientTransform="matrix(1.3439926,0,0,1.2077771,-279.98001,-832.20823)" x1="213.08154" y1="7.8809905" x2="213.08154" y2="21.128468" />
  </defs>
  <path id="path3002" style="opacity:0.7;color:black;fill:url(#linearGradient3064);fill-opacity:1;fill-rule:nonzero;stroke:none;stroke-width:1;marker:none;visibility:visible;display:inline;overflow:visible;enable-background:accumulate" d="m 11,14.1875 2,0 0,0.8125 -2,0 0,-0.8125 z M 12,11 l 0,1 1,0 0,-1 -1,0 z m -8.9999995,0 0,1 1,0 0,-1 -1,0 z M 12,2.9999986 l 0,1 1,0 0,-1 -1,0 z m -8.9999995,0 0,1 1,0 0,-1 -1,0 z m 0,-1 9.9999995,0 1,1 L 14,12 l -1,1 -9.9999995,0 -1,-1 0,-9.0000014 1,-1 z m -1,-2.00000004 L 5.8e-7,1.9999986 5.8e-7,14 2.0000005,16 14,16 16,14 16,1.9999986 14,-1.44e-6 l -11.9999995,0 z" inkscape:connector-curvature="0" />
</svg>
