<?xml version="1.0" encoding="UTF-8" standalone="no"?>
<!-- Created with Inkscape (http://www.inkscape.org/) -->

<svg xmlns:dc="http://purl.org/dc/elements/1.1/" xmlns:cc="http://creativecommons.org/ns#" xmlns:rdf="http://www.w3.org/1999/02/22-rdf-syntax-ns#" xmlns:svg="http://www.w3.org/2000/svg" xmlns="http://www.w3.org/2000/svg" xmlns:xlink="http://www.w3.org/1999/xlink" xmlns:sodipodi="http://sodipodi.sourceforge.net/DTD/sodipodi-0.dtd" xmlns:inkscape="http://www.inkscape.org/namespaces/inkscape" width="16" height="16" id="svg3330" version="1.1" inkscape:version="0.48.4 r9939" sodipodi:docname="system-devices-panel-alert.svg">
    <defs id="defs3332">
        <linearGradient id="linearGradient2867-449-88-871-390-598-476-591-434-148-6-0">
            <stop offset="0" style="stop-color:#49a3d2;stop-opacity:1" id="stop4629-4-3" />
            <stop offset="0.704952" style="stop-color:#3470b4;stop-opacity:1" id="stop4631-8-0" />
            <stop offset="1" style="stop-color:#1b5699;stop-opacity:1" id="stop4633-9-3" />
        </linearGradient>
        <linearGradient y2="8.4615393" x2="13.133315" y1="38.726616" x1="13.133315" gradientTransform="matrix(0.48248289,0,0,0.69386905,6.6634,1023.491)" gradientUnits="userSpaceOnUse" id="linearGradient3021-2" xlink:href="#linearGradient2867-449-88-871-390-598-476-591-434-148-6-0" inkscape:collect="always" />
        <linearGradient inkscape:collect="always" xlink:href="#linearGradient2867-449-88-871-390-598-476-591-434-148-6-0" id="linearGradient3041" gradientUnits="userSpaceOnUse" gradientTransform="matrix(0.48248289,0,0,0.69386905,21.6634,1030.491)" x1="13.133315" y1="38.726616" x2="13.133315" y2="8.4615393" />
        <linearGradient inkscape:collect="always" xlink:href="#linearGradient2867-449-88-871-390-598-476-591-434-148-6-0-0" id="linearGradient3041-8" gradientUnits="userSpaceOnUse" gradientTransform="matrix(0.48248289,0,0,0.69386905,21.6634,1030.491)" x1="-28.318932" y1="30.079451" x2="-28.318932" y2="9.9027328" />
        <linearGradient id="linearGradient2867-449-88-871-390-598-476-591-434-148-6-0-0">
            <stop offset="0" style="stop-color:#49a3d2;stop-opacity:1" id="stop4629-4-3-9" />
            <stop offset="0.704952" style="stop-color:#3470b4;stop-opacity:1" id="stop4631-8-0-4" />
            <stop offset="1" style="stop-color:#1b5699;stop-opacity:1" id="stop4633-9-3-9" />
        </linearGradient>
    </defs>
    <sodipodi:namedview id="base" pagecolor="#ffffff" bordercolor="#666666" borderopacity="1.0" inkscape:pageopacity="0.0" inkscape:pageshadow="2" inkscape:zoom="15.839192" inkscape:cx="8.9064572" inkscape:cy="7.2437722" inkscape:document-units="px" inkscape:current-layer="capa1" showgrid="true" inkscape:showpageshadow="false" inkscape:window-width="1215" inkscape:window-height="1000" inkscape:window-x="65" inkscape:window-y="24" inkscape:window-maximized="1" inkscape:snap-bbox="true">
        <inkscape:grid type="xygrid" id="grid2990" />
    </sodipodi:namedview>
    <metadata id="metadata3335">
        <rdf:RDF>
            <cc:Work rdf:about="">
                <dc:format>image/svg+xml</dc:format>
                <dc:type rdf:resource="http://purl.org/dc/dcmitype/StillImage" />
                <dc:title />
            </cc:Work>
        </rdf:RDF>
    </metadata>
    <g inkscape:label="Capa 1" inkscape:groupmode="layer" id="capa1" transform="translate(0,-1036.3622)">
        <path sodipodi:nodetypes="cccccccccccccccccccccccccccccccccccccccccc" id="path3771" d="m 7,1038.3622 0,2 -2,1 -1,-1 -1,1 1,1 -1,2 -2,0 0,2 2,0 1,2 -1,1 1,1 1,-1 2,1 0,2 2,0 0,-2 2,-1 1,1 1,-1 -1,-1 1,-2 2,0 0,-2 -2,0 -1,-2 1,-1 -1,-1 -1,1 -2,-1 0,-2 z m 2,4 2,2 0,2 -2,2 -2,0 -2,-2 0,-2 2,-2 z" style="opacity:0.75;color:black;fill:white;fill-opacity:1;fill-rule:nonzero;stroke:none;stroke-width:1;marker:none;visibility:visible;display:inline;overflow:visible;enable-background:accumulate" inkscape:connector-curvature="0" />
        <path inkscape:connector-curvature="0" style="opacity:1;color:black;fill:url(#linearGradient3041-8);fill-opacity:1;fill-rule:nonzero;stroke:none;stroke-width:1;marker:none;visibility:visible;display:inline;overflow:visible;enable-background:accumulate" d="m 7,1037.3622 0,2 -2,1 -1,-1 -1,1 1,1 -1,2 -2,0 0,2 2,0 1,2 -1,1 1,1 1,-1 2,1 0,2 2,0 0,-2 2,-1 1,1 1,-1 -1,-1 1,-2 2,0 0,-2 -2,0 -1,-2 1,-1 -1,-1 -1,1 -2,-1 0,-2 z m 2,4 2,2 0,2 -2,2 -2,0 -2,-2 0,-2 2,-2 z" id="path5266" sodipodi:nodetypes="cccccccccccccccccccccccccccccccccccccccccc" />
    </g>
</svg>
