/* XPM */
static char * maximize_prelight_xpm[] = {
"20 24 6 1",
" 	c None",
".	c #939393",
"+	c #FFFFFF",
"@	c #DEDEDE",
"#	c #008AFF",
"$	c #EAEAEA",
"....................",
"++++++++++++++++++++",
"@@@@@@@@@@@@@@@@@@@@",
"@@@@@@@@@@@@@@@@@@@@",
"@@@@@@@@@@@@@@@@@@@@",
"@@@@@@@@@@@@@@@@@@@@",
"@@@@@@@@@@@@@@@@@@@@",
"@@@@@@@@@@@@@@@@@@@@",
"@@@@@@@@@@@@@@@@@@@@",
"@@@@@@@@@##@@@@@@@@@",
"@@@@@@@@@##@@@@@@@@@",
"@@@@@@@@@##@@@@@@@@@",
"@@@@@@########@@@@@@",
"@@@@@@########@@@@@@",
"@@@@@@$$$##$$$@@@@@@",
"@@@@@@@@@##@@@@@@@@@",
"@@@@@@@@@##@@@@@@@@@",
"@@@@@@@@@$$@@@@@@@@@",
"@@@@@@@@@@@@@@@@@@@@",
"@@@@@@@@@@@@@@@@@@@@",
"@@@@@@@@@@@@@@@@@@@@",
"@@@@@@@@@@@@@@@@@@@@",
"@@@@@@@@@@@@@@@@@@@@",
"@@@@@@@@@@@@@@@@@@@@"};
