/* XPM */
static char * menu_pressed_xpm[] = {
"20 24 11 1",
" 	c None",
".	c #939393",
"+	c #FFFFFF",
"@	c #DEDEDE",
"#	c #EDEDED",
"$	c #008AFF",
"%	c #DFDFDF",
"&	c #E1E1E1",
"*	c #E0E0E0",
"=	c #E6E6E6",
"-	c #E2E2E2",
"....................",
"++++++++++++++++++++",
"@@@@@@@@@@@@@@@@@@@@",
"@@@@@@@@@@@@@@@@@@@@",
"@@@@@@@@@@@@@@@@@@@@",
"@@@@@@@@@@@@@@@@@@@@",
"@@@@@@@@@@@@@@@@@@@@",
"@@@@@@@@@@@@@@@@@@@@",
"@@@@@@@@@@@@@@@@@@@@",
"@@@@@@@@@@@@@@@@@@@@",
"@@@@@@@@@@@@@@@@@@@@",
"@@@@@@########@@@@@@",
"@@@@@@$$$$$$$$@@@@@@",
"@@@@@@%$$$$$$@@@@@@@",
"@@@@@@@&$$$$*@@@@@@@",
"@@@@@@@@=$$-@@@@@@@@",
"@@@@@@@@@#=@@@@@@@@@",
"@@@@@@@@@@@@@@@@@@@@",
"@@@@@@@@@@@@@@@@@@@@",
"@@@@@@@@@@@@@@@@@@@@",
"@@@@@@@@@@@@@@@@@@@@",
"@@@@@@@@@@@@@@@@@@@@",
"@@@@@@@@@@@@@@@@@@@@",
"@@@@@@@@@@@@@@@@@@@@"};
