/* XPM */
static char * shade_toggled_prelight_xpm[] = {
"20 24 13 1",
" 	c None",
".	c #8D8D8D",
"+	c #FFFFFF",
"@	c #DEDEDE",
"#	c #008AFF",
"$	c #EAEAEA",
"%	c #ECECEC",
"&	c #E4E4E4",
"*	c #D4D4D4",
"=	c #E3E3E3",
"-	c #DFDFDF",
";	c #BDBDBD",
">	c #D8D8D8",
"....................",
"++++++++++++++++++++",
"@@@@@@@@@@@@@@@@@@@@",
"@@@@@@@@@@@@@@@@@@@@",
"@@@@@@@@@@@@@@@@@@@@",
"@@@@@@@@@@@@@@@@@@@@",
"@@@@@@@@@@@@@@@@@@@@",
"@@@@@@@@@@@@@@@@@@@@",
"@@@@@@@@@@@@@@@@@@@@",
"@@@@@@@@@##@@@@@@@@@",
"@@@@@@@@@##@@@@@@@@@",
"@@@@@@@@@##@@@@@@@@@",
"@@@@@@@@@##@@@@@@@@@",
"@@@@@@########@@@@@@",
"@@@@@@$######%@@@@@@",
"@@@@@@@&####$@@@@@@@",
"@@@@@@@@*##=-@@@@@@@",
"@@@@@@@@@;>@@@@@@@@@",
"@@@@@@@@@@@@@@@@@@@@",
"@@@@@@@@@@@@@@@@@@@@",
"@@@@@@@@@@@@@@@@@@@@",
"@@@@@@@@@@@@@@@@@@@@",
"@@@@@@@@@@@@@@@@@@@@",
"@@@@@@@@@@@@@@@@@@@@"};
