<?xml version="1.0" encoding="UTF-8" standalone="no"?>
<svg
   xmlns:dc="http://purl.org/dc/elements/1.1/"
   xmlns:cc="http://creativecommons.org/ns#"
   xmlns:rdf="http://www.w3.org/1999/02/22-rdf-syntax-ns#"
   xmlns:svg="http://www.w3.org/2000/svg"
   xmlns="http://www.w3.org/2000/svg"
   xmlns:xlink="http://www.w3.org/1999/xlink"
   xmlns:sodipodi="http://sodipodi.sourceforge.net/DTD/sodipodi-0.dtd"
   xmlns:inkscape="http://www.inkscape.org/namespaces/inkscape"
   viewBox="0 0 48 48"
   id="svg2"
   version="1.1"
   inkscape:version="0.48.3.1 r9886"
   width="100%"
   height="100%"
   sodipodi:docname="leafpad.svg">
  <metadata
     id="metadata56">
    <rdf:RDF>
      <cc:Work
         rdf:about="">
        <dc:format>image/svg+xml</dc:format>
        <dc:type
           rdf:resource="http://purl.org/dc/dcmitype/StillImage" />
      </cc:Work>
    </rdf:RDF>
  </metadata>
  <sodipodi:namedview
     pagecolor="#ffffff"
     bordercolor="#666666"
     borderopacity="1"
     objecttolerance="10"
     gridtolerance="10"
     guidetolerance="10"
     inkscape:pageopacity="0"
     inkscape:pageshadow="2"
     inkscape:window-width="1280"
     inkscape:window-height="976"
     id="namedview54"
     showgrid="true"
     inkscape:zoom="9.8333333"
     inkscape:cx="48.118009"
     inkscape:cy="22.311194"
     inkscape:window-x="0"
     inkscape:window-y="24"
     inkscape:window-maximized="1"
     inkscape:current-layer="svg2">
    <inkscape:grid
       type="xygrid"
       id="grid3047" />
  </sodipodi:namedview>
  <defs
     id="defs4">
    <linearGradient
       id="linearGradient5060">
      <stop
         offset="0"
         id="stop7" />
      <stop
         offset="1"
         stop-opacity="0"
         id="stop9" />
    </linearGradient>
    <linearGradient
       gradientUnits="userSpaceOnUse"
       id="linearGradient3127"
       x2="0"
       y1="38.7186"
       y2="45.76167">
      <stop
         offset="0"
         stop-opacity="0"
         id="stop12" />
      <stop
         offset=".5"
         id="stop14" />
      <stop
         offset="1"
         stop-opacity="0"
         id="stop16" />
    </linearGradient>
    <linearGradient
       gradientUnits="userSpaceOnUse"
       id="linearGradient3157-5"
       x1="-42.69615"
       x2="-5.84311">
      <stop
         offset="0"
         stop-color="#fff"
         id="stop19" />
      <stop
         offset="1"
         stop-color="#cdcdcd"
         id="stop21" />
    </linearGradient>
    <linearGradient
       gradientUnits="userSpaceOnUse"
       id="linearGradient998"
       x1="6.40561"
       x2="41.36901">
      <stop
         offset="0"
         stop-color="#fff"
         id="stop24" />
      <stop
         offset="1"
         stop-color="#fff"
         stop-opacity="0"
         id="stop26" />
    </linearGradient>
    <radialGradient
       cx="605.71429"
       cy="486.64789"
       gradientTransform="matrix(.062142,0,0,.029001,1.636502,28.085503)"
       gradientUnits="userSpaceOnUse"
       id="radialGradient3129"
       r="117.14286"
       xlink:href="#linearGradient5060" />
    <radialGradient
       cx="605.71429"
       cy="486.64789"
       gradientTransform="matrix(-.062142,0,0,.029001,46.53201,28.085503)"
       gradientUnits="userSpaceOnUse"
       id="radialGradient3131"
       r="117.14286"
       xlink:href="#linearGradient5060" />
  </defs>
  <g
     transform="matrix(.833389,0,0,1,3.928449,0)"
     id="g30">
    <path
       d="m9.08134,38.7186h30.00582v7.04306h-30.00582z"
       fill="url(#linearGradient3127)"
       opacity=".5"
       id="path32" />
    <path
       d="m39.08716,38.71885v7.04268c3.20017.01326 7.73646-1.57791 7.73646-3.52179s-3.57115-3.52088-7.73646-3.52088z"
       fill="url(#radialGradient3129)"
       opacity=".5"
       id="path34" />
    <path
       d="m9.08134,38.71885v7.04268c-3.20017.01326-7.73646-1.57791-7.73646-3.52179s3.57115-3.52088 7.73646-3.52088z"
       fill="url(#radialGradient3131)"
       opacity=".5"
       id="path36" />
  </g>
  <path
     d="m-40.5-41.4999h33a2,2 0 0,1 2,2v30.9999a2,2 0 0,1 -2,2h-33a2,2 0 0,1 -2-2v-30.9999a2,2 0 0,1 2-2"
     fill="url(#linearGradient3157-5)"
     stroke="#818181"
     stroke-linecap="round"
     stroke-linejoin="round"
     transform="matrix(0,-1,-1,0,0,0)"
     id="path38" />
  <path
     d="m 13,12.99999 h 22 v 2 H 13 z"
     id="path40"
     inkscape:connector-curvature="0"
     style="fill:#999999" />
  <path
     d="m 13,16.99998 h 22 v 2 H 13 z"
     id="path42"
     inkscape:connector-curvature="0"
     style="fill:#999999" />
  <path
     d="m 13,20.99998 h 22 v 2 H 13 z"
     id="path44"
     inkscape:connector-curvature="0"
     style="fill:#999999" />
  <path
     d="m 13,24.99998 h 22 v 2 H 13 z"
     id="path46"
     inkscape:connector-curvature="0"
     style="fill:#999999" />
  <path
     d="m 13,28.99998 h 20 v 2 H 13 z"
     id="path48"
     inkscape:connector-curvature="0"
     style="fill:#999999" />
  <path
     d="m 13,33 h 12 v 2 H 13 z"
     id="path50"
     inkscape:connector-curvature="0"
     style="fill:#999999" />
  <path
     d="m7.5-40.5h33a1,1 0 0,1 1,1v31a1,1 0 0,1 -1,1h-33a1,1 0 0,1 -1-1v-31a1,1 0 0,1 1-1"
     fill="none"
     stroke="url(#linearGradient998)"
     stroke-linecap="round"
     stroke-linejoin="round"
     transform="matrix(0,1,-1,0,0,0)"
     id="path52" />
  <g
     id="g4116"
     transform="matrix(0.70710678,0.70710678,-0.70710678,0.70710678,88.874895,-744.43752)">
    <rect
       style="color:#000000;fill:#ffffff;fill-opacity:1;fill-rule:evenodd;stroke:none;stroke-width:1;marker:none;visibility:visible;display:inline;overflow:visible;enable-background:accumulate"
       id="rect4086"
       width="4"
       height="16"
       x="510"
       y="576.36218" />
    <path
       sodipodi:nodetypes="ccccc"
       inkscape:transform-center-y="-5.8662831"
       inkscape:transform-center-x="-9.3983079"
       id="rect2383"
       d="m 514,591.86218 0,-13 -4,0 0,13 z"
       style="color:#000000;fill:#5a5a5a;fill-opacity:1;fill-rule:evenodd;stroke:none;marker:none;visibility:visible;display:inline;overflow:visible;enable-background:accumulate"
       inkscape:connector-curvature="0" />
    <path
       inkscape:connector-curvature="0"
       id="path3270"
       d="m 510,592.36218 1,2.5 1,2.5 1,-2.5 1,-2.5 -4,0 z"
       style="fill:#5a5a5a;fill-opacity:1;fill-rule:evenodd;stroke:none" />
    <path
       sodipodi:nodetypes="ssccccs"
       inkscape:connector-curvature="0"
       id="rect3819"
       d="m 511.5,573.36218 1,0 c 0.831,0 1.5,0.5305 1.5,1.5 l 0,2 -4,0 0,-2 c 0,-0.9695 0.669,-1.5 1.5,-1.5 z"
       style="color:#000000;fill:#5a5a5a;fill-opacity:1;fill-rule:evenodd;stroke:none;stroke-width:1;marker:none;visibility:visible;display:inline;overflow:visible;enable-background:accumulate" />
    <rect
       rx="0.5"
       ry="0.5"
       y="580.36218"
       x="511"
       height="10"
       width="1"
       id="rect4061"
       style="color:#000000;fill:#ffffff;fill-opacity:1;fill-rule:evenodd;stroke:none;stroke-width:1;marker:none;visibility:visible;display:inline;overflow:visible;enable-background:accumulate" />
    <rect
       transform="matrix(0,-1,1,0,0,0)"
       style="color:#000000;fill:#5a5a5a;fill-opacity:1;fill-rule:evenodd;stroke:none;stroke-width:1;marker:none;visibility:visible;display:inline;overflow:visible;enable-background:accumulate"
       id="rect4063"
       width="1"
       height="4"
       x="-578.36218"
       y="510"
       ry="0.5"
       rx="0.5" />
  </g>
</svg>
