<?xml version="1.0" encoding="UTF-8" standalone="no"?>
<!-- Created with Inkscape (http://www.inkscape.org/) -->

<svg xmlns:dc="http://purl.org/dc/elements/1.1/" xmlns:cc="http://creativecommons.org/ns#" xmlns:rdf="http://www.w3.org/1999/02/22-rdf-syntax-ns#" xmlns:svg="http://www.w3.org/2000/svg" xmlns="http://www.w3.org/2000/svg" xmlns:xlink="http://www.w3.org/1999/xlink" xmlns:sodipodi="http://sodipodi.sourceforge.net/DTD/sodipodi-0.dtd" xmlns:inkscape="http://www.inkscape.org/namespaces/inkscape" width="48px" height="48px" id="svg4700" version="1.1" inkscape:version="0.48.4 r9939" sodipodi:docname="brasero.svg">
    <defs id="defs4702">
        <linearGradient inkscape:collect="always" id="linearGradient3874">
            <stop style="stop-color:red;stop-opacity:1;" offset="0" id="stop3876" />
            <stop style="stop-color:red;stop-opacity:0;" offset="1" id="stop3878" />
        </linearGradient>
        <linearGradient inkscape:collect="always" id="linearGradient3865">
            <stop style="stop-color:white;stop-opacity:1;" offset="0" id="stop3867" />
            <stop style="stop-color:white;stop-opacity:0;" offset="1" id="stop3869" />
        </linearGradient>
        <linearGradient id="linearGradient3899">
            <stop id="stop3901" offset="0" style="stop-color:white;stop-opacity:1;" />
            <stop id="stop3903" offset="1" style="stop-color:white;stop-opacity:0;" />
        </linearGradient>
        <linearGradient inkscape:collect="always" id="linearGradient3871">
            <stop style="stop-color:red;stop-opacity:1;" offset="0" id="stop3873" />
            <stop style="stop-color:red;stop-opacity:0;" offset="1" id="stop3875" />
        </linearGradient>
        <linearGradient id="linearGradient4009">
            <stop id="stop4012" offset="0" style="stop-color:#ffffff;stop-opacity:0;" />
            <stop style="stop-color:#ffffff;stop-opacity:0.54901963;" offset="0.5" id="stop4017" />
            <stop id="stop4014" offset="1" style="stop-color:#ffffff;stop-opacity:0;" />
        </linearGradient>
        <linearGradient id="linearGradient4390">
            <stop style="stop-color:#ffffff;stop-opacity:0.75384617;" offset="0" id="stop4392" />
            <stop style="stop-color:#ffffff;stop-opacity:0;" offset="1" id="stop4394" />
        </linearGradient>
        <linearGradient id="linearGradient4517">
            <stop style="stop-color:#ffffff;stop-opacity:1;" offset="0" id="stop4519" />
            <stop style="stop-color:#ffffff;stop-opacity:0;" offset="1" id="stop4521" />
        </linearGradient>
        <linearGradient gradientUnits="userSpaceOnUse" xlink:href="#linearGradient3322" id="linearGradient3279" y2="77.09375" x2="32" y1="77.09375" x1="6" gradientTransform="matrix(0.46153843,0,0,0.46489104,2.2307693,2.1601362)" />
        <linearGradient gradientUnits="userSpaceOnUse" xlink:href="#linearGradient3173" id="linearGradient3179" y2="33.8722" x2="46.430859" y1="77.039726" x1="46.430859" gradientTransform="matrix(0.4643436,0,0,0.47228973,1.7115069,-41.336502)" />
        <filter id="filter3174" color-interpolation-filters="sRGB">
            <feGaussianBlur stdDeviation="1.71" id="feGaussianBlur3176" />
        </filter>
        <linearGradient gradientTransform="scale(1.0058652,0.994169)" gradientUnits="userSpaceOnUse" id="ButtonShadow" y2="7.0165396" x2="45.447727" y1="92.539597" x1="45.447727">
            <stop offset="0" style="stop-color:#000000;stop-opacity:1" id="stop3750" />
            <stop offset="1" style="stop-color:#000000;stop-opacity:0.58823532" id="stop3752" />
        </linearGradient>
        <linearGradient id="linearGradient3173">
            <stop offset="0" style="stop-color:#d2d2d2;stop-opacity:1;" id="stop3187" />
            <stop offset="1" style="stop-color:#3b3b3b;stop-opacity:1;" id="stop3177" />
        </linearGradient>
        <linearGradient id="linearGradient3322">
            <stop offset="0" style="stop-color:#000000;stop-opacity:1;" id="stop3326" />
            <stop offset="1" style="stop-color:#000000;stop-opacity:0;" id="stop3330" />
        </linearGradient>
        <linearGradient inkscape:collect="always" xlink:href="#linearGradient3322" id="linearGradient4511" gradientUnits="userSpaceOnUse" gradientTransform="matrix(-0.46153843,0,0,0.46489104,45.769231,2.1601362)" x1="6" y1="77.09375" x2="32" y2="77.09375" />
        <linearGradient inkscape:collect="always" xlink:href="#linearGradient4517" id="linearGradient4523" x1="22.440199" y1="4.8942533" x2="22.440199" y2="38.21666" gradientUnits="userSpaceOnUse" gradientTransform="matrix(0.99929416,0,0,0.99918395,0.0056857,0.09493865)" />
        <linearGradient inkscape:collect="always" xlink:href="#linearGradient5048-0" id="linearGradient3127" gradientUnits="userSpaceOnUse" gradientTransform="matrix(0.06214224,0,0,0.02900085,1.6242719,28.085503)" x1="302.85715" y1="366.64789" x2="302.85715" y2="609.50507" />
        <linearGradient id="linearGradient5048-0">
            <stop id="stop5050-0" style="stop-color:#000000;stop-opacity:0" offset="0" />
            <stop id="stop5056-5" style="stop-color:#000000;stop-opacity:1" offset="0.5" />
            <stop id="stop5052-9" style="stop-color:#000000;stop-opacity:0" offset="1" />
        </linearGradient>
        <radialGradient inkscape:collect="always" xlink:href="#linearGradient5060-9" id="radialGradient3129" gradientUnits="userSpaceOnUse" gradientTransform="matrix(0.06214224,0,0,0.02900085,1.6365015,28.085503)" cx="605.71429" cy="486.64789" fx="605.71429" fy="486.64789" r="117.14286" />
        <linearGradient id="linearGradient5060-9">
            <stop id="stop5062-2" style="stop-color:#000000;stop-opacity:1" offset="0" />
            <stop id="stop5064-0" style="stop-color:#000000;stop-opacity:0" offset="1" />
        </linearGradient>
        <radialGradient r="117.14286" fy="486.64789" fx="605.71429" cy="486.64789" cx="605.71429" gradientTransform="matrix(-0.06214224,0,0,0.02900085,46.53201,28.085503)" gradientUnits="userSpaceOnUse" id="radialGradient981" xlink:href="#linearGradient5060-9" inkscape:collect="always" />
        <linearGradient id="linearGradient986-3">
            <stop style="stop-color:#ffffff;stop-opacity:1;" offset="0" id="stop988-9" />
            <stop style="stop-color:#ffffff;stop-opacity:0;" offset="1" id="stop990-4" />
        </linearGradient>
        <linearGradient x1="45.447727" y1="92.539597" x2="45.447727" y2="7.0165396" id="ButtonShadow-7" gradientUnits="userSpaceOnUse" gradientTransform="scale(1.0058652,0.994169)">
            <stop id="stop3750-5" style="stop-color:#000000;stop-opacity:1" offset="0" />
            <stop id="stop3752-1" style="stop-color:#000000;stop-opacity:0.58823532" offset="1" />
        </linearGradient>
        <filter color-interpolation-filters="sRGB" id="filter3174-8">
            <feGaussianBlur id="feGaussianBlur3176-3" stdDeviation="1.71" />
        </filter>
        <filter height="1.5927273" y="-0.29636365" width="1.5868" x="-0.29339999" id="filter4201-5" inkscape:collect="always" color-interpolation-filters="sRGB">
            <feGaussianBlur id="feGaussianBlur4203-6" stdDeviation="0.7640625" inkscape:collect="always" />
        </filter>
        <filter height="1.5927273" y="-0.29636364" width="1.5868" x="-0.2934" id="filter4201" inkscape:collect="always">
            <feGaussianBlur id="feGaussianBlur4203" stdDeviation="0.7640625" inkscape:collect="always" />
        </filter>
        <linearGradient id="linearGradient3772">
            <stop id="stop3774" style="stop-color:#898989;stop-opacity:1;" offset="0" />
            <stop id="stop3776" style="stop-color:#000000;stop-opacity:1;" offset="1" />
        </linearGradient>
        <linearGradient x1="12.2744" y1="32.4165" x2="35.391201" y2="14.2033" id="linearGradient3263" gradientUnits="userSpaceOnUse">
            <stop id="stop3265" style="stop-color:#c7c7c7;stop-opacity:1;" offset="0" />
            <stop id="stop3267" style="stop-color:#eaeaea;stop-opacity:1;" offset="0.5" />
            <stop id="stop3269" style="stop-color:#c7c7c7;stop-opacity:1;" offset="1" />
        </linearGradient>
        <linearGradient id="linearGradient6036">
            <stop id="stop6038" style="stop-color:#ffffff;stop-opacity:1" offset="0" />
            <stop id="stop6040" style="stop-color:#ffffff;stop-opacity:0" offset="1" />
        </linearGradient>
        <linearGradient inkscape:collect="always" xlink:href="#linearGradient6036" id="linearGradient4363" gradientUnits="userSpaceOnUse" gradientTransform="matrix(0.30340365,0,0,0.30340362,19.594999,12.432944)" x1="10.50172" y1="3.6100161" x2="48.798885" y2="54.698483" />
        <linearGradient inkscape:collect="always" xlink:href="#linearGradient6036" id="linearGradient4366" gradientUnits="userSpaceOnUse" gradientTransform="matrix(0.6286385,0,0,0.62863844,11.676504,4.3020755)" x1="10.50172" y1="3.6100161" x2="48.798885" y2="54.698483" />
        <linearGradient inkscape:collect="always" xlink:href="#linearGradient3263" id="linearGradient4369" gradientUnits="userSpaceOnUse" gradientTransform="matrix(0,0.7704049,-0.7704049,0,44.778324,1.5283122)" x1="12.2744" y1="32.4165" x2="35.391201" y2="14.2033" />
        <linearGradient inkscape:collect="always" xlink:href="#linearGradient3772" id="linearGradient4371" gradientUnits="userSpaceOnUse" gradientTransform="matrix(0.65765692,0,0,0.65765692,44.255364,4.2342671)" x1="-21.915663" y1="3" x2="-21.915663" y2="45.032898" />
        <linearGradient inkscape:collect="always" xlink:href="#linearGradient4390" id="linearGradient4396" x1="11.625" y1="3.3750012" x2="11.625" y2="35.125988" gradientUnits="userSpaceOnUse" gradientTransform="translate(0,2.0003301)" />
        <linearGradient inkscape:collect="always" xlink:href="#linearGradient4009" id="linearGradient3239" gradientUnits="userSpaceOnUse" x1="11.625" y1="3.3750012" x2="11.625" y2="35.125988" gradientTransform="matrix(1,0,0,1.0681818,-50.000333,3.545453)" />
        <linearGradient inkscape:collect="always" xlink:href="#linearGradient986-3" id="linearGradient3902" gradientUnits="userSpaceOnUse" gradientTransform="matrix(1.0336057,0,0,0.98630139,-2.4786536,-0.9174774)" x1="18.674173" y1="3.8322909" x2="34.45406" y2="25.487436" />
        <radialGradient inkscape:collect="always" xlink:href="#linearGradient3871" id="radialGradient3877" cx="21" cy="27" fx="21" fy="27" r="8" gradientUnits="userSpaceOnUse" />
        <radialGradient inkscape:collect="always" xlink:href="#linearGradient3899" id="radialGradient3905" gradientUnits="userSpaceOnUse" cx="21" cy="27" fx="21" fy="27" r="8" />
        <linearGradient inkscape:collect="always" xlink:href="#linearGradient3865" id="linearGradient3872" x1="35" y1="13" x2="48" y2="0" gradientUnits="userSpaceOnUse" gradientTransform="translate(0,2.0003301)" />
        <linearGradient inkscape:collect="always" xlink:href="#linearGradient3874" id="linearGradient3880" x1="35" y1="13" x2="48" y2="0" gradientUnits="userSpaceOnUse" gradientTransform="translate(0,2.0003301)" />
    </defs>
    <sodipodi:namedview id="base" pagecolor="#ffffff" bordercolor="#666666" borderopacity="1.0" inkscape:pageopacity="0.0" inkscape:pageshadow="2" inkscape:zoom="11.313708" inkscape:cx="36.108589" inkscape:cy="26.797663" inkscape:current-layer="layer1" showgrid="true" inkscape:grid-bbox="true" inkscape:document-units="px" inkscape:window-width="1280" inkscape:window-height="976" inkscape:window-x="0" inkscape:window-y="24" inkscape:window-maximized="1" inkscape:snap-to-guides="true" inkscape:snap-grids="true" showguides="true" inkscape:guide-bbox="true">
        <inkscape:grid type="xygrid" id="grid1021" />
    </sodipodi:namedview>
    <metadata id="metadata4705">
        <rdf:RDF>
            <cc:Work rdf:about="">
                <dc:format>image/svg+xml</dc:format>
                <dc:type rdf:resource="http://purl.org/dc/dcmitype/StillImage" />
                <dc:title />
            </cc:Work>
        </rdf:RDF>
    </metadata>
    <g id="layer1" inkscape:label="Layer 1" inkscape:groupmode="layer">
        <g transform="matrix(0.87953195,0,0,0.99388573,2.8171317,2.5181348)" id="g914">
            <rect style="opacity:0.5;fill:url(#linearGradient3127);fill-opacity:1;fill-rule:nonzero;stroke:none;stroke-width:104.96237946;marker:none;visibility:visible;display:inline;overflow:visible" id="rect4173" y="38.718601" x="9.0813398" height="7.0430632" width="30.005821" />
            <path inkscape:connector-curvature="0" style="opacity:0.5;fill:url(#radialGradient3129);fill-opacity:1;fill-rule:nonzero;stroke:none;stroke-width:104.96237946;marker:none;visibility:visible;display:inline;overflow:visible" id="path5058" d="m 39.087163,38.718845 c 0,0 0,7.042675 0,7.042675 3.200171,0.01326 7.736457,-1.577906 7.736455,-3.52179 0,-1.943885 -3.57115,-3.520884 -7.736455,-3.520885 z" />
            <path inkscape:connector-curvature="0" style="opacity:0.5;fill:url(#radialGradient981);fill-opacity:1;fill-rule:nonzero;stroke:none;stroke-width:104.96237946;marker:none;visibility:visible;display:inline;overflow:visible" id="path5018" d="m 9.0813406,38.718845 c 0,0 0,7.042675 0,7.042675 -3.2001721,0.01326 -7.7364568,-1.577906 -7.7364568,-3.52179 0,-1.943885 3.57115,-3.520884 7.7364568,-3.520885 z" />
        </g>
        <path style="fill:#515151;fill-opacity:1;fill-rule:nonzero;stroke:#303030;stroke-width:1;stroke-miterlimit:4;stroke-opacity:1;stroke-dasharray:none" id="rect3243" inkscape:connector-curvature="0" d="m 43.5,32.5 0,9.210653 C 43.5,43.255951 42.257569,44.5 40.714284,44.5 l -33.4285699,0 C 5.7424284,44.5 4.5,43.255951 4.5,41.710653 L 4.5,32.5 l 39,0 z" />
        <path sodipodi:nodetypes="cssccc" d="m 43,32.00033 0,9.530266 c 0,1.545298 -0.917769,2.469734 -2.451923,2.469734 l -9.548077,0 0,-12 z" inkscape:connector-curvature="0" id="path4509" style="opacity:0.8;fill:url(#linearGradient4511);fill-opacity:1;fill-rule:nonzero;stroke:none" />
        <path style="opacity:0.8;fill:url(#linearGradient3279);fill-opacity:1;fill-rule:nonzero;stroke:none" id="path3263" inkscape:connector-curvature="0" d="m 5,32.00033 0,9.530266 c 0,1.545298 0.9177692,2.469734 2.4519229,2.469734 l 9.5480771,0 0,-12 z" sodipodi:nodetypes="cssccc" />
        <rect style="fill:url(#linearGradient3179);fill-opacity:1;fill-rule:nonzero;stroke:#303030;stroke-width:0.9951371;stroke-miterlimit:4;stroke-opacity:1;stroke-dasharray:none" id="rect3171" y="-38.502766" x="4.4975681" ry="2.8337386" rx="2.7860613" height="34.004864" width="39.004864" transform="scale(1,-1)" />
        <g id="layer2" style="display:none" transform="translate(5.204491,-179.6879)">
            <rect width="86" height="85" rx="6" ry="6" x="5" y="7" id="rect3745" style="opacity:0.9;fill:url(#ButtonShadow);fill-opacity:1;fill-rule:nonzero;stroke:none;filter:url(#filter3174)" />
        </g>
        <g id="layer4" transform="translate(5.204491,-179.6879)" />
        <g id="layer2-6" style="display:none" transform="translate(-52.967913,-177.17602)">
            <rect width="86" height="85" rx="6" ry="6" x="5" y="7" id="rect3745-4" style="opacity:0.9;fill:url(#ButtonShadow-7);fill-opacity:1;fill-rule:nonzero;stroke:none;filter:url(#filter3174-8)" />
        </g>
        <g id="layer4-8" transform="translate(-52.967913,-177.17602)" />
        <path style="opacity:0.48611109;fill:black;fill-opacity:1;stroke:none" d="m 7,5.0003301 5,0 0,32.9999999 -5,0 c -1.108,0 -2,-0.892 -2,-2 L 5,7.0003301 c 0,-1.108 0.892,-2 2,-2 z" id="rect4308" inkscape:connector-curvature="0" sodipodi:nodetypes="sccssss" />
        <rect width="37" height="32" ry="1.9997852" x="5.5" y="5.5003309" id="rect4513" style="opacity:0.48611109;fill:none;stroke:url(#linearGradient4523);stroke-width:0.99999994;stroke-miterlimit:4;stroke-opacity:1;stroke-dasharray:none" rx="2" />
        <g id="g4377" transform="matrix(1.0013359,0,0,1.0013359,-0.01801107,1.9552253)">
            <path style="fill:url(#linearGradient4369);fill-rule:nonzero;stroke:url(#linearGradient4371);stroke-width:0.99866587;stroke-miterlimit:4;stroke-opacity:1" id="path2781" d="m 40.463934,20.018034 c 0,-7.47293 -6.00904,-13.4819676 -13.481968,-13.4819676 C 19.509035,6.5360664 13.5,12.545105 13.5,20.018034 13.499998,27.490963 19.509036,33.5 26.981966,33.5 c 7.472928,-10e-7 13.481968,-6.009036 13.481968,-13.481966 z m -8.549541,0 c 0,2.714893 -2.163211,4.932426 -4.932427,4.932426 -2.823538,0 -4.932427,-2.27241 -4.932427,-4.932426 0,-2.714351 2.000243,-4.932427 4.932427,-4.932427 2.932185,0 4.932427,2.271855 4.932427,4.932427 z" inkscape:connector-curvature="0" />
            <path style="opacity:0.5;fill:none;stroke:url(#linearGradient4366);stroke-width:0.99866581;stroke-miterlimit:4;stroke-opacity:1" id="path3272" d="m 26.981967,7.5724818 c -6.898392,0 -12.445552,5.5471612 -12.445552,12.4455522 0,6.898391 5.54716,12.445552 12.445552,12.445552 6.898392,0 12.445552,-5.547161 12.445552,-12.445552 0,-6.898391 -5.54716,-12.4455522 -12.445552,-12.4455522 l 0,0 0,0 z" inkscape:connector-curvature="0" />
            <path inkscape:connector-curvature="0" d="m 26.981967,14.011359 c -3.329413,0 -6.006673,2.677262 -6.006673,6.006675 0,3.329412 2.67726,6.006673 6.006673,6.006673 3.329413,0 6.006674,-2.677261 6.006674,-6.006673 0,-3.329413 -2.677261,-6.006675 -6.006674,-6.006675 l 0,0 0,0 z" id="path4448" style="opacity:0.5;fill:none;stroke:url(#linearGradient4363);stroke-width:0.99866581;stroke-miterlimit:4;stroke-opacity:1" />
            <path transform="matrix(1.0482578,-0.18309818,0.18309818,1.0482578,-3.5779238,-1.4675142)" inkscape:connector-curvature="0" id="path4189" d="m 28.8125,28.46875 c -0.25654,0.278787 -0.535253,0.545586 -0.84375,0.75 l 3.90625,5.4375 c 0.897215,-0.622683 1.6661,-1.396676 2.34375,-2.28125 L 28.8125,28.46875 z M 27.90625,29.25 c -0.362666,0.232712 -0.730114,0.436814 -1.125,0.5625 l 1.75,6.40625 c 1.200446,-0.329979 2.293161,-0.855069 3.28125,-1.53125 L 27.90625,29.25 z" style="opacity:0.50822365;fill:#01ff60;fill-opacity:1;fill-rule:nonzero;stroke:none;filter:url(#filter4201)" />
            <path transform="matrix(1.0482578,-0.18309818,0.18309818,1.0482578,-3.5779238,-1.4675142)" sodipodi:nodetypes="ccccc" inkscape:connector-curvature="0" id="path4488" d="m 16.157098,17.705442 c 0,0 1.795233,-2.468446 5.834507,-4.039275 l 1.122021,5.722306 C 21.879403,19.612877 20.981787,20.8471 20.981787,20.8471 z" style="opacity:0.50822365;color:black;fill:#01ff60;fill-opacity:1;fill-rule:nonzero;stroke:none;marker:none;visibility:visible;display:inline;overflow:visible;filter:url(#filter4201-5);enable-background:accumulate" />
            <path style="opacity:0.50822365;fill:#eeff01;fill-opacity:1;fill-rule:nonzero;stroke:none;filter:url(#filter4201)" d="m 28.8125,28.46875 c -0.25654,0.278787 -0.535253,0.545586 -0.84375,0.75 l 3.90625,5.4375 c 0.897215,-0.622683 1.6661,-1.396676 2.34375,-2.28125 L 28.8125,28.46875 z M 27.90625,29.25 c -0.362666,0.232712 -0.730114,0.436814 -1.125,0.5625 l 1.75,6.40625 c 1.200446,-0.329979 2.293161,-0.855069 3.28125,-1.53125 L 27.90625,29.25 z" id="path4525" inkscape:connector-curvature="0" transform="matrix(0.89401561,0.35105013,-0.35105013,0.89401561,13.330975,-10.798213)" />
            <path style="opacity:0.50822365;color:black;fill:#eeff01;fill-opacity:1;fill-rule:nonzero;stroke:none;marker:none;visibility:visible;display:inline;overflow:visible;filter:url(#filter4201-5);enable-background:accumulate" d="m 16.157098,17.705442 c 0,0 1.795233,-2.468446 5.834507,-4.039275 l 1.122021,5.722306 C 21.879403,19.612877 20.981787,20.8471 20.981787,20.8471 z" id="path4527" inkscape:connector-curvature="0" sodipodi:nodetypes="ccccc" transform="matrix(0.9014392,0.35396512,-0.35396512,0.9014392,13.796568,-11.68067)" />
            <path transform="matrix(0.5087352,0.81467085,-0.81467085,0.5087352,34.454905,-13.043998)" inkscape:connector-curvature="0" id="path4373" d="m 28.8125,28.46875 c -0.25654,0.278787 -0.535253,0.545586 -0.84375,0.75 l 3.90625,5.4375 c 0.897215,-0.622683 1.6661,-1.396676 2.34375,-2.28125 L 28.8125,28.46875 z M 27.90625,29.25 c -0.362666,0.232712 -0.730114,0.436814 -1.125,0.5625 l 1.75,6.40625 c 1.200446,-0.329979 2.293161,-0.855069 3.28125,-1.53125 L 27.90625,29.25 z" style="opacity:0.50822365;fill:gray;fill-opacity:0.63895485;fill-rule:nonzero;stroke:none;filter:url(#filter4201)" />
            <path transform="matrix(0.51295956,0.82143559,-0.82143559,0.51295956,35.35467,-13.475193)" sodipodi:nodetypes="ccccc" inkscape:connector-curvature="0" id="path4375" d="m 16.157098,17.705442 c 0,0 1.795233,-2.468446 5.834507,-4.039275 l 1.122021,5.722306 C 21.879403,19.612877 20.981787,20.8471 20.981787,20.8471 z" style="opacity:0.50822365;color:black;fill:gray;fill-opacity:0.63895485;fill-rule:nonzero;stroke:none;marker:none;visibility:visible;display:inline;overflow:visible;filter:url(#filter4201-5);enable-background:accumulate" />
        </g>
        <path style="opacity:0.55128204;color:black;fill:url(#linearGradient3902);fill-opacity:1;stroke:none;stroke-width:0.99999982;marker:none;visibility:visible;display:inline;overflow:visible;enable-background:accumulate" d="m 21,5.00033 19.555029,0 C 41.927833,5.00033 43,6.1365686 43,7.6267654 l 0,33.3735646 -10.945598,0 z" id="rect966" inkscape:connector-curvature="0" sodipodi:nodetypes="cccccc" />
        <rect style="color:black;fill:url(#linearGradient4396);fill-opacity:1;fill-rule:nonzero;stroke:none;stroke-width:2.66660357;marker:none;visibility:visible;display:inline;overflow:visible;enable-background:accumulate" id="rect4388" width="1" height="33" x="11" y="5.0003314" />
        <rect y="6.75" x="-39.000332" height="35.25" width="1" id="rect3237" style="color:black;fill:url(#linearGradient3239);fill-opacity:1;fill-rule:nonzero;stroke:none;stroke-width:2.66660357;marker:none;visibility:visible;display:inline;overflow:visible;enable-background:accumulate" transform="matrix(0,-1,1,0,0,0)" />
        <path transform="matrix(1.75,0,0,1.75,-15.75,-18.24967)" d="m 29,27 a 8,8 0 1 1 -16,0 8,8 0 1 1 16,0 z" sodipodi:ry="8" sodipodi:rx="8" sodipodi:cy="27" sodipodi:cx="21" id="path3897" style="color:black;fill:url(#radialGradient3905);fill-opacity:1;fill-rule:nonzero;stroke:none;stroke-width:1;marker:none;visibility:visible;display:inline;overflow:visible;enable-background:accumulate" sodipodi:type="arc" />
        <path style="font-size:medium;font-style:normal;font-variant:normal;font-weight:normal;font-stretch:normal;text-indent:0;text-align:start;text-decoration:none;line-height:normal;letter-spacing:normal;word-spacing:normal;text-transform:none;direction:ltr;block-progression:tb;writing-mode:lr-tb;text-anchor:start;baseline-shift:baseline;color:black;fill:url(#linearGradient3872);fill-opacity:1;fill-rule:nonzero;stroke:none;stroke-width:2;marker:none;visibility:visible;display:inline;overflow:visible;enable-background:accumulate;font-family:Sans;-inkscape-font-specification:Sans" d="M 46,2.0003301 20.28125,27.28158 20,27.59408 l 0,0.40625 0,1 0,1 1,0 1,0 0.40625,0 0.3125,-0.28125 L 48,4.0003301 l 0,-2 z" id="path3883" inkscape:connector-curvature="0" sodipodi:nodetypes="ccccccccccccc" />
        <path sodipodi:type="arc" style="color:black;fill:url(#radialGradient3877);fill-opacity:1;fill-rule:nonzero;stroke:none;stroke-width:1;marker:none;visibility:visible;display:inline;overflow:visible;enable-background:accumulate" id="path3082" sodipodi:cx="21" sodipodi:cy="27" sodipodi:rx="8" sodipodi:ry="8" d="m 29,27 a 8,8 0 1 1 -16,0 8,8 0 1 1 16,0 z" transform="matrix(1.125,0,0,1.125,-2.625,-1.3746699)" />
        <path style="color:black;fill:url(#linearGradient3880);fill-opacity:1;fill-rule:nonzero;stroke:none;stroke-width:1;marker:none;visibility:visible;display:inline;overflow:visible;enable-background:accumulate" d="m 21,28.00033 26,-26.0000001 1,0 0,0.9999996 -26,26.0000005 -1,0 z" id="rect3076" inkscape:connector-curvature="0" sodipodi:nodetypes="ccccccc" />
        <path sodipodi:type="arc" style="color:black;fill:white;fill-opacity:1;fill-rule:nonzero;stroke:none;stroke-width:1;marker:none;visibility:visible;display:inline;overflow:visible;enable-background:accumulate" id="path3881" sodipodi:cx="21" sodipodi:cy="26" sodipodi:rx="2" sodipodi:ry="2" d="m 23,26 a 2,2 0 1 1 -4,0 2,2 0 1 1 4,0 z" transform="matrix(0.75,0,0,0.75,5.75,9.0003301)" />
    </g>
</svg>
