<?xml version="1.0" encoding="UTF-8" standalone="no"?>
<!-- Created with Inkscape (http://www.inkscape.org/) -->

<svg xmlns:dc="http://purl.org/dc/elements/1.1/" xmlns:cc="http://creativecommons.org/ns#" xmlns:rdf="http://www.w3.org/1999/02/22-rdf-syntax-ns#" xmlns:svg="http://www.w3.org/2000/svg" xmlns="http://www.w3.org/2000/svg" xmlns:xlink="http://www.w3.org/1999/xlink" xmlns:sodipodi="http://sodipodi.sourceforge.net/DTD/sodipodi-0.dtd" xmlns:inkscape="http://www.inkscape.org/namespaces/inkscape" width="48px" height="48px" id="svg4700" version="1.1" inkscape:version="0.48.4 r9939" sodipodi:docname="claws-mail.svg">
  <defs id="defs4702">
    <linearGradient id="linearGradient7611">
      <stop style="stop-color:#ffffff;stop-opacity:1;" offset="0" id="stop7613" />
      <stop style="stop-color:#ffffff;stop-opacity:0;" offset="1" id="stop7615" />
    </linearGradient>
    <linearGradient id="linearGradient4050">
      <stop id="stop4052" offset="0" style="stop-color:#ffffff;stop-opacity:0.66929132;" />
      <stop id="stop4054" offset="1" style="stop-color:#ffffff;stop-opacity:0;" />
    </linearGradient>
    <filter id="filter3174" color-interpolation-filters="sRGB">
      <feGaussianBlur stdDeviation="1.71" id="feGaussianBlur3176" />
    </filter>
    <linearGradient gradientTransform="scale(1.0058652,0.994169)" gradientUnits="userSpaceOnUse" id="ButtonShadow" y2="7.0165396" x2="45.447727" y1="92.539597" x1="45.447727">
      <stop offset="0" style="stop-color:#000000;stop-opacity:1" id="stop3750" />
      <stop offset="1" style="stop-color:#000000;stop-opacity:0.58823532" id="stop3752" />
    </linearGradient>
    <linearGradient inkscape:collect="always" xlink:href="#linearGradient4050" id="linearGradient4523" x1="22.440199" y1="4.8942533" x2="22.440199" y2="38.21666" gradientUnits="userSpaceOnUse" gradientTransform="matrix(0.99857425,0,0,0.98146517,-0.81332958,1.8059619)" />
    <linearGradient gradientTransform="scale(1.0058652,0.994169)" gradientUnits="userSpaceOnUse" xlink:href="#ButtonShadow-4" id="linearGradient2875" y2="7.0165396" x2="45.447727" y1="92.539597" x1="45.447727" />
    <filter id="filter3174-2" color-interpolation-filters="sRGB">
      <feGaussianBlur stdDeviation="1.71" id="feGaussianBlur3176-2" />
    </filter>
    <linearGradient gradientTransform="scale(1.0058652,0.994169)" gradientUnits="userSpaceOnUse" id="ButtonShadow-4" y2="7.0165396" x2="45.447727" y1="92.539597" x1="45.447727">
      <stop offset="0" style="stop-color:#000000;stop-opacity:1" id="stop3750-6" />
      <stop offset="1" style="stop-color:#000000;stop-opacity:0.58823532" id="stop3752-9" />
    </linearGradient>
    <linearGradient x1="45.447727" y1="92.539597" x2="45.447727" y2="7.0165396" id="ButtonShadow-0" gradientUnits="userSpaceOnUse" gradientTransform="scale(1.0058652,0.994169)">
      <stop id="stop3750-74" style="stop-color:#000000;stop-opacity:1" offset="0" />
      <stop id="stop3752-4" style="stop-color:#000000;stop-opacity:0.58823532" offset="1" />
    </linearGradient>
    <filter color-interpolation-filters="sRGB" id="filter3174-3">
      <feGaussianBlur id="feGaussianBlur3176-21" stdDeviation="1.71" />
    </filter>
    <linearGradient id="linearGradient3242-967-12-570-862-307-5-2-3">
      <stop id="stop4498-9-9-5" style="stop-color:#ffffff;stop-opacity:1" offset="0" />
      <stop id="stop4504-8-9-0" style="stop-color:#999999;stop-opacity:1" offset="1" />
    </linearGradient>
    <linearGradient id="linearGradient2490-495-150-777-3-6-38">
      <stop id="stop4108-9-0-26" style="stop-color:#454545;stop-opacity:1;" offset="0" />
      <stop id="stop4110-50-0-8" style="stop-color:#a5a5a5;stop-opacity:1;" offset="1" />
    </linearGradient>
    <linearGradient id="linearGradient3866-21">
      <stop offset="0" style="stop-color:#828282;stop-opacity:1" id="stop3868-2" />
      <stop offset="0.5" style="stop-color:#8f8f8f;stop-opacity:0.63478261" id="stop3872-10" />
      <stop offset="1" style="stop-color:#9d9d9d;stop-opacity:0" id="stop3870-8" />
    </linearGradient>
    <linearGradient id="linearGradient3333-4-0">
      <stop offset="0" style="stop-color:#ffffff;stop-opacity:1" id="stop3335-4-28" />
      <stop offset="1" style="stop-color:#ffffff;stop-opacity:0" id="stop3337-7-5" />
    </linearGradient>
    <linearGradient id="linearGradient3495-6">
      <stop offset="0" style="stop-color:#000000;stop-opacity:1" id="stop3497-2" />
      <stop offset="0.5" style="stop-color:#000000;stop-opacity:0.49803922" id="stop3874-3" />
      <stop offset="1" style="stop-color:#000000;stop-opacity:0" id="stop3499-16" />
    </linearGradient>
    <linearGradient inkscape:collect="always" xlink:href="#linearGradient3333-4-0" id="linearGradient7568" gradientUnits="userSpaceOnUse" gradientTransform="matrix(0.97991377,0,0,1.0614898,0.3283219,-7.3461544)" spreadMethod="reflect" x1="25.525208" y1="30.188753" x2="25.525208" y2="15.737678" />
    <linearGradient inkscape:collect="always" xlink:href="#linearGradient3866-21" id="linearGradient7571" gradientUnits="userSpaceOnUse" gradientTransform="matrix(0.97991377,0,0,1.0614898,0.3283219,-8.7260911)" spreadMethod="reflect" x1="25.525208" y1="30.188753" x2="25.525208" y2="15.737678" />
    <linearGradient inkscape:collect="always" xlink:href="#linearGradient3495-6" id="linearGradient7583" gradientUnits="userSpaceOnUse" gradientTransform="matrix(0.97796482,0,0,1.1328302,0.46919038,-9.2834572)" x1="23.903786" y1="35.75" x2="23.903786" y2="20.443331" />
    <linearGradient inkscape:collect="always" xlink:href="#linearGradient7611" id="linearGradient7617" x1="23.804403" y1="24.519764" x2="23.804403" y2="13.771533" gradientUnits="userSpaceOnUse" gradientTransform="translate(0,2.6592335)" />
    <linearGradient inkscape:collect="always" xlink:href="#linearGradient3242-967-12-570-862-307-5-2-3" id="linearGradient7619" gradientUnits="userSpaceOnUse" gradientTransform="matrix(1.0007554,0,0,1.0007942,-44.996476,-5.48423)" x1="66.726517" y1="9.5999746" x2="66.726517" y2="49.670246" />
    <linearGradient inkscape:collect="always" xlink:href="#linearGradient2490-495-150-777-3-6-38" id="linearGradient7621" gradientUnits="userSpaceOnUse" gradientTransform="matrix(1.0007553,0,0,1.1022865,-44.996476,-10.000624)" x1="82.292419" y1="48.830688" x2="82.292419" y2="12.76959" />
    <linearGradient inkscape:collect="always" xlink:href="#linearGradient3866-21" id="linearGradient7625" gradientUnits="userSpaceOnUse" gradientTransform="matrix(0.97991446,0,0,1.0659661,0.32831978,-8.8088144)" spreadMethod="reflect" x1="25.525208" y1="30.188753" x2="25.525208" y2="15.737678" />
    <radialGradient inkscape:collect="always" xlink:href="#linearGradient5060" id="radialGradient3129" gradientUnits="userSpaceOnUse" gradientTransform="matrix(0.06214224,0,0,0.02900085,1.6365015,28.953157)" cx="605.71429" cy="486.64789" fx="605.71429" fy="486.64789" r="117.14286" />
    <linearGradient id="linearGradient5060">
      <stop id="stop5062" style="stop-color:#000000;stop-opacity:1" offset="0" />
      <stop id="stop5064" style="stop-color:#000000;stop-opacity:0" offset="1" />
    </linearGradient>
    <linearGradient inkscape:collect="always" xlink:href="#linearGradient5048" id="linearGradient3127" gradientUnits="userSpaceOnUse" gradientTransform="matrix(0.06214224,0,0,0.02900085,1.6242719,28.953157)" x1="302.85715" y1="366.64789" x2="302.85715" y2="609.50507" />
    <linearGradient id="linearGradient5048">
      <stop id="stop5050" style="stop-color:#000000;stop-opacity:0" offset="0" />
      <stop id="stop5056" style="stop-color:#000000;stop-opacity:1" offset="0.5" />
      <stop id="stop5052" style="stop-color:#000000;stop-opacity:0" offset="1" />
    </linearGradient>
    <radialGradient r="117.14286" fy="486.64789" fx="605.71429" cy="486.64789" cx="605.71429" gradientTransform="matrix(-0.06214224,0,0,0.02900085,46.53201,28.953157)" gradientUnits="userSpaceOnUse" id="radialGradient3144" xlink:href="#linearGradient5060" inkscape:collect="always" />
  </defs>
  <sodipodi:namedview id="base" pagecolor="#ffffff" bordercolor="#666666" borderopacity="1.0" inkscape:pageopacity="0.0" inkscape:pageshadow="2" inkscape:zoom="13.272984" inkscape:cx="30.337493" inkscape:cy="18.98726" inkscape:current-layer="layer1" showgrid="true" inkscape:grid-bbox="true" inkscape:document-units="px" inkscape:window-width="1280" inkscape:window-height="976" inkscape:window-x="0" inkscape:window-y="24" inkscape:window-maximized="1" inkscape:snap-to-guides="false" inkscape:snap-grids="false">
    <inkscape:grid type="xygrid" id="grid1021" empspacing="5" visible="true" enabled="true" snapvisiblegridlinesonly="true" />
  </sodipodi:namedview>
  <metadata id="metadata4705">
    <rdf:RDF>
      <cc:Work rdf:about="">
        <dc:format>image/svg+xml</dc:format>
        <dc:type rdf:resource="http://purl.org/dc/dcmitype/StillImage" />
        <dc:title />
      </cc:Work>
    </rdf:RDF>
  </metadata>
  <g id="layer1" inkscape:label="Layer 1" inkscape:groupmode="layer">
    <g transform="translate(-0.08425089,0.44709788)" id="g1017">
      <path d="m 39.087163,39.586499 c 0,0 0,7.042675 0,7.042675 3.200171,0.01326 7.736457,-1.577906 7.736455,-3.52179 0,-1.943885 -3.57115,-3.520884 -7.736455,-3.520885 z" id="path5058" style="opacity:0.5;fill:url(#radialGradient3129);fill-opacity:1;fill-rule:nonzero;stroke:none;stroke-width:104.96237946;marker:none;visibility:visible;display:inline;overflow:visible" inkscape:connector-curvature="0" />
      <rect width="30.005821" height="7.0430632" x="9.0813398" y="39.58625" id="rect4173" style="opacity:0.5;fill:url(#linearGradient3127);fill-opacity:1;fill-rule:nonzero;stroke:none;stroke-width:104.96237946;marker:none;visibility:visible;display:inline;overflow:visible" />
      <path d="m 9.0813406,39.586499 c 0,0 0,7.042675 0,7.042675 -3.2001721,0.01326 -7.7364568,-1.577906 -7.7364568,-3.52179 0,-1.943885 3.57115,-3.520884 7.7364568,-3.520885 z" id="path5018" style="opacity:0.5;fill:url(#radialGradient3144);fill-opacity:1;fill-rule:nonzero;stroke:none;stroke-width:104.96237946;marker:none;visibility:visible;display:inline;overflow:visible" inkscape:connector-curvature="0" />
    </g>
    <rect style="color:#000000;fill:url(#linearGradient7619);fill-opacity:1;fill-rule:evenodd;stroke:url(#linearGradient7621);stroke-width:1;stroke-linecap:square;stroke-linejoin:round;stroke-miterlimit:4;stroke-opacity:1;stroke-dasharray:none;stroke-dashoffset:0;marker:none;visibility:visible;display:inline;overflow:visible;enable-background:accumulate" id="rect3117" width="41" height="39" x="3.5" y="4.5" ry="3.0000002" rx="3" />
    <g id="layer2" style="display:none" transform="translate(5.204491,-179.6879)">
      <rect width="86" height="85" rx="6" ry="6" x="5" y="7" id="rect3745" style="opacity:0.9;fill:url(#ButtonShadow);fill-opacity:1;fill-rule:nonzero;stroke:none;filter:url(#filter3174)" />
    </g>
    <g id="layer4" transform="translate(5.204491,-179.6879)" />
    <g id="layer2-9" style="display:none" transform="translate(-65.348932,-154.8626)">
      <rect width="86" height="85" rx="6" ry="6" x="5" y="7" id="rect3745-1" style="opacity:0.9;fill:url(#ButtonShadow-0);fill-opacity:1;fill-rule:nonzero;stroke:none;filter:url(#filter3174-3)" />
    </g>
    <g id="layer4-0" transform="translate(-65.348932,-154.8626)" />
    <g id="layer2-7" style="display:none" transform="translate(63.017297,-9.203493)">
      <path d="m 11,7.0000001 c -2.8840938,0 -5.2600098,2.0142918 -5.84375,4.7187499 2.508553,0.0336 4.5312502,2.077266 4.53125,4.59375 0,2.53742 -2.0563306,4.59375 -4.59375,4.59375 -0.031404,0 -0.062496,6.28e-4 -0.09375,0 l 0,7.15625 c 0.031254,-6.28e-4 0.062346,0 0.09375,0 2.5374193,0 4.5937502,2.056331 4.59375,4.59375 0,2.53742 -2.0563306,4.593749 -4.59375,4.59375 -0.031404,0 -0.062496,6.28e-4 -0.09375,0 l 0,7.15625 c 0.031254,-6.28e-4 0.062346,0 0.09375,0 2.5374193,0 4.5937502,2.056331 4.59375,4.59375 0,2.53742 -2.0563306,4.593749 -4.59375,4.59375 -0.031404,0 -0.062496,6.28e-4 -0.09375,0 L 5,60.75 c 0.031254,-6.28e-4 0.062346,0 0.09375,0 2.5374193,0 4.5937502,2.056331 4.59375,4.59375 0,2.53742 -2.0563306,4.593753 -4.59375,4.59375 -0.031404,0 -0.062496,6.28e-4 -0.09375,0 l 0,7.15625 c 0.031254,-6.28e-4 0.062346,0 0.09375,0 2.5374193,-4e-6 4.5937502,2.056332 4.59375,4.59375 0,2.537416 -2.0563306,4.593753 -4.59375,4.59375 -0.031404,0 -0.062496,6.28e-4 -0.09375,0 C 5.1443858,89.475105 7.7692544,92 11,92 l 0.21875,0 c -6.28e-4,-0.03125 0,-0.06235 0,-0.09375 0,-2.53742 2.05633,-4.593748 4.59375,-4.59375 2.53742,0 4.59375,2.056327 4.59375,4.59375 0,0.0314 6.28e-4,0.0625 0,0.09375 l 7.15625,0 c -6.28e-4,-0.03125 0,-0.06235 0,-0.09375 0,-2.53742 2.056329,-4.593748 4.59375,-4.59375 2.53742,0 4.593752,2.056327 4.59375,4.59375 0,0.0314 6.28e-4,0.0625 0,0.09375 l 7.15625,0 c -6.28e-4,-0.03125 0,-0.06235 0,-0.09375 0,-2.53742 2.056329,-4.593748 4.59375,-4.59375 2.53742,0 4.593748,2.056327 4.59375,4.59375 0,0.0314 6.28e-4,0.0625 0,0.09375 L 60.25,92 c -6.28e-4,-0.03125 0,-0.06235 0,-0.09375 0,-2.53742 2.056333,-4.593748 4.59375,-4.59375 2.53742,0 4.593749,2.056327 4.59375,4.59375 0,0.0314 6.28e-4,0.0625 0,0.09375 l 7.15625,0 c -6.28e-4,-0.03125 0,-0.06235 0,-0.09375 -5e-6,-2.53742 2.056334,-4.593748 4.59375,-4.59375 2.537416,0 4.593749,2.056327 4.59375,4.59375 0,0.01047 7e-5,0.0208 0,0.03125 2.865173,-0.366463 5.086108,-2.72217 5.21875,-5.65625 -0.03125,6.28e-4 -0.06235,0 -0.09375,0 -2.53742,-3e-6 -4.593748,-2.05633 -4.59375,-4.59375 0,-2.537423 2.056327,-4.593752 4.59375,-4.59375 0.0314,0 0.0625,-6.28e-4 0.09375,0 l 0,-7.15625 c -0.03125,6.28e-4 -0.06235,0 -0.09375,0 -2.53742,10e-7 -4.593748,-2.056331 -4.59375,-4.59375 0,-2.537419 2.056327,-4.593749 4.59375,-4.59375 0.0314,0 0.0625,-6.28e-4 0.09375,0 l 0,-7.15625 c -0.03125,6.28e-4 -0.06235,0 -0.09375,0 -2.53742,10e-7 -4.593748,-2.056331 -4.59375,-4.59375 0,-2.537419 2.056327,-4.593749 4.59375,-4.59375 0.0314,0 0.0625,-6.28e-4 0.09375,0 L 91,37.25 c -0.03125,6.28e-4 -0.06235,0 -0.09375,0 -2.53742,10e-7 -4.593748,-2.056331 -4.59375,-4.59375 0,-2.537419 2.056327,-4.593749 4.59375,-4.59375 0.0314,0 0.0625,-6.28e-4 0.09375,0 l 0,-7.15625 c -0.03125,6.28e-4 -0.06235,0 -0.09375,0 -2.53742,1e-6 -4.593748,-2.056332 -4.59375,-4.59375 0,-2.516483 2.022694,-4.560154 4.53125,-4.59375 -0.537373,-2.4896402 -2.580279,-4.4005759 -5.15625,-4.6874999 -0.428865,2.094046 -2.279755,3.6562499 -4.5,3.6562499 -2.230714,0 -4.082641,-1.5787032 -4.5,-3.6874999 l -7.34375,0 c -0.417358,2.1087966 -2.269287,3.6874999 -4.5,3.6874999 -2.23071,0 -4.082641,-1.5787032 -4.5,-3.6874999 l -7.34375,0 C 52.582641,9.1087967 50.730709,10.6875 48.5,10.6875 c -2.23071,0 -4.082641,-1.5787032 -4.5,-3.6874999 l -7.34375,0 c -0.417359,2.1087966 -2.269291,3.6874999 -4.5,3.6874999 -2.23071,0 -4.082641,-1.5787032 -4.5,-3.6874999 l -7.34375,0 c -0.417359,2.1087966 -2.269291,3.6874999 -4.5,3.6874999 -2.23071,0 -4.082641,-1.5787032 -4.5,-3.6874999 l -0.3125,0 z" inkscape:connector-curvature="0" id="rect3745-6" style="opacity:0.9;fill:url(#linearGradient2875);fill-opacity:1;fill-rule:nonzero;stroke:none;display:inline;filter:url(#filter3174-2)" />
    </g>
    <path style="fill:none;stroke:url(#linearGradient7625);stroke-width:1.00000012;stroke-linecap:butt;stroke-linejoin:miter;stroke-miterlimit:4;stroke-opacity:1;stroke-dasharray:none;stroke-dashoffset:0;marker:none;visibility:visible;display:inline;overflow:visible;enable-background:accumulate" d="M 3.5000138,8.633591 23.846266,28.499999 44.500015,8.4999999" id="path7599" inkscape:connector-curvature="0" />
    <path style="fill:none;stroke:url(#linearGradient7571);stroke-width:1.00000012;stroke-linecap:butt;stroke-linejoin:miter;stroke-miterlimit:4;stroke-opacity:1;stroke-dasharray:none;stroke-dashoffset:0;marker:none;visibility:visible;display:inline;overflow:visible;enable-background:accumulate" d="M 18.609838,23.649348 5.4049514,38.120063 18.609838,23.649348 z" id="path7597" />
    <path style="fill:none;stroke:url(#linearGradient7571);stroke-width:1.00000012;stroke-linecap:butt;stroke-linejoin:miter;stroke-miterlimit:4;stroke-opacity:1;stroke-dasharray:none;stroke-dashoffset:0;marker:none;visibility:visible;display:inline;overflow:visible;enable-background:accumulate" d="M 29.113289,23.715688 42.410046,37.854 29.113289,23.715688 z" id="path6757" />
    <path style="opacity:0.7;fill:none;stroke:url(#linearGradient7568);stroke-width:1.00000012;stroke-linecap:butt;stroke-linejoin:miter;stroke-miterlimit:4;stroke-opacity:1;stroke-dasharray:none;stroke-dashoffset:0;marker:none;visibility:visible;display:inline;overflow:visible;enable-background:accumulate" d="M 18.609838,25.029285 5.4049514,39.5 18.609838,25.029285 z" id="path7575" />
    <path style="opacity:0.7;fill:none;stroke:url(#linearGradient7568);stroke-width:1.00000012;stroke-linecap:butt;stroke-linejoin:miter;stroke-miterlimit:4;stroke-opacity:1;stroke-dasharray:none;stroke-dashoffset:0;marker:none;visibility:visible;display:inline;overflow:visible;enable-background:accumulate" d="M 29.113289,25.095628 42.410046,39.23394 29.113289,25.095628 z" id="path6759" />
    <path style="opacity:0.2;fill:none;stroke:url(#linearGradient7583);stroke-width:1.00000012;stroke-linecap:butt;stroke-linejoin:miter;stroke-miterlimit:4;stroke-opacity:1;stroke-dasharray:none" id="path6761" d="M 8.6206541,14.972621 23.940346,29.833478 39.071851,14.972621" inkscape:connector-curvature="0" />
    <path style="fill:url(#linearGradient7617);fill-opacity:1;stroke:none;stroke-width:1.00000011999999994;marker:none;visibility:visible;display:inline;overflow:visible;enable-background:accumulate" d="M 3.5000137,7.9838354 23.846252,27.766822 44.499986,7.8508053 z" id="path7593" inkscape:connector-curvature="0" sodipodi:nodetypes="ccc" />
    <rect width="38.975693" height="36.975693" ry="1.9999999" x="4.5121527" y="5.5121546" id="rect4513" style="fill:none;stroke:url(#linearGradient4523);stroke-width:1.02430558;stroke-miterlimit:4;stroke-opacity:1;stroke-dasharray:none" rx="2.0000005" />
    <path inkscape:connector-curvature="0" style="font-size:medium;font-style:normal;font-variant:normal;font-weight:normal;font-stretch:normal;text-indent:0;text-align:start;text-decoration:none;line-height:normal;letter-spacing:normal;word-spacing:normal;text-transform:none;direction:ltr;block-progression:tb;writing-mode:lr-tb;text-anchor:start;baseline-shift:baseline;color:#000000;fill:#c04040;fill-opacity:1;fill-rule:evenodd;stroke:none;stroke-width:2;marker:none;visibility:visible;display:inline;overflow:visible;enable-background:accumulate;font-family:Sans;-inkscape-font-specification:Sans" d="M 5.625,3.999999 C 4.1889121,3.999999 3,5.1918906 3,6.631578 l 0,5.953947 2.1,-2.105263 0,-3.848684 C 5.1,6.3217917 5.3159879,6.1052622 5.625,6.1052622 l 3.8390625,0 2.1000005,-2.1052632 -5.939063,0 z" id="path7691" />
    <path inkscape:connector-curvature="0" style="font-size:medium;font-style:normal;font-variant:normal;font-weight:normal;font-stretch:normal;text-indent:0;text-align:start;text-decoration:none;line-height:normal;letter-spacing:normal;word-spacing:normal;text-transform:none;direction:ltr;block-progression:tb;writing-mode:lr-tb;text-anchor:start;baseline-shift:baseline;color:#000000;fill:#4074c0;fill-opacity:1;fill-rule:evenodd;stroke:none;stroke-width:2;marker:none;visibility:visible;display:inline;overflow:visible;enable-background:accumulate;font-family:Sans;-inkscape-font-specification:Sans" d="m 17.470313,3.999999 -2.1,2.1052632 5.873437,0 2.1,-2.1052632 -5.873437,0 z" id="path7689" />
    <path inkscape:connector-curvature="0" style="font-size:medium;font-style:normal;font-variant:normal;font-weight:normal;font-stretch:normal;text-indent:0;text-align:start;text-decoration:none;line-height:normal;letter-spacing:normal;word-spacing:normal;text-transform:none;direction:ltr;block-progression:tb;writing-mode:lr-tb;text-anchor:start;baseline-shift:baseline;color:#000000;fill:#c04040;fill-opacity:1;fill-rule:evenodd;stroke:none;stroke-width:2;marker:none;visibility:visible;display:inline;overflow:visible;enable-background:accumulate;font-family:Sans;-inkscape-font-specification:Sans" d="m 29.282813,3.999999 -2.100001,2.1052632 5.840625,0 2.100001,-2.1052632 -5.840625,0 z" id="path7687" />
    <path sodipodi:nodetypes="ccssccc" inkscape:connector-curvature="0" style="font-size:medium;font-style:normal;font-variant:normal;font-weight:normal;font-stretch:normal;text-indent:0;text-align:start;text-decoration:none;line-height:normal;letter-spacing:normal;word-spacing:normal;text-transform:none;direction:ltr;block-progression:tb;writing-mode:lr-tb;text-anchor:start;baseline-shift:baseline;color:#000000;fill:#4074c0;fill-opacity:1;fill-rule:evenodd;stroke:none;stroke-width:2;marker:none;visibility:visible;display:inline;overflow:visible;enable-background:accumulate;font-family:Sans;-inkscape-font-specification:Sans" d="m 41.0625,3.999999 -2.1,2.1052632 2.879758,0 c 0.464407,0 1.057742,0.2964411 1.057742,1.03242 l 0,0.8754748 1.759822,-2.006579 C 43.982838,4.7147664 43.231251,3.999999 41.0625,3.999999 z" id="path7685" />
    <path inkscape:connector-curvature="0" style="font-size:medium;font-style:normal;font-variant:normal;font-weight:normal;font-stretch:normal;text-indent:0;text-align:start;text-decoration:none;line-height:normal;letter-spacing:normal;word-spacing:normal;text-transform:none;direction:ltr;block-progression:tb;writing-mode:lr-tb;text-anchor:start;baseline-shift:baseline;color:#000000;fill:#c04040;fill-opacity:1;fill-rule:evenodd;stroke:none;stroke-width:2;marker:none;visibility:visible;display:inline;overflow:visible;enable-background:accumulate;font-family:Sans;-inkscape-font-specification:Sans" d="m 45,11.828947 -2.1,2.105263 0,5.855263 2.1,-2.105263 0,-5.855263 z" id="path7683" />
    <path inkscape:connector-curvature="0" style="font-size:medium;font-style:normal;font-variant:normal;font-weight:normal;font-stretch:normal;text-indent:0;text-align:start;text-decoration:none;line-height:normal;letter-spacing:normal;word-spacing:normal;text-transform:none;direction:ltr;block-progression:tb;writing-mode:lr-tb;text-anchor:start;baseline-shift:baseline;color:#000000;fill:#4074c0;fill-opacity:1;fill-rule:evenodd;stroke:none;stroke-width:2;marker:none;visibility:visible;display:inline;overflow:visible;enable-background:accumulate;font-family:Sans;-inkscape-font-specification:Sans" d="m 5.1,16.401315 -2.1,2.105263 0,5.855264 2.1,-2.105264 0,-5.855263 z" id="path7681" />
    <path inkscape:connector-curvature="0" style="font-size:medium;font-style:normal;font-variant:normal;font-weight:normal;font-stretch:normal;text-indent:0;text-align:start;text-decoration:none;line-height:normal;letter-spacing:normal;word-spacing:normal;text-transform:none;direction:ltr;block-progression:tb;writing-mode:lr-tb;text-anchor:start;baseline-shift:baseline;color:#000000;fill:#4074c0;fill-opacity:1;fill-rule:evenodd;stroke:none;stroke-width:2;marker:none;visibility:visible;display:inline;overflow:visible;enable-background:accumulate;font-family:Sans;-inkscape-font-specification:Sans" d="m 45,23.671052 -2.1,2.105263 0,5.888158 2.1,-2.105263 0,-5.888158 z" id="path7679" />
    <path inkscape:connector-curvature="0" style="font-size:medium;font-style:normal;font-variant:normal;font-weight:normal;font-stretch:normal;text-indent:0;text-align:start;text-decoration:none;line-height:normal;letter-spacing:normal;word-spacing:normal;text-transform:none;direction:ltr;block-progression:tb;writing-mode:lr-tb;text-anchor:start;baseline-shift:baseline;color:#000000;fill:#c04040;fill-opacity:1;fill-rule:evenodd;stroke:none;stroke-width:2;marker:none;visibility:visible;display:inline;overflow:visible;enable-background:accumulate;font-family:Sans;-inkscape-font-specification:Sans" d="m 5.1,28.243421 -2.1,2.105263 0,5.855263 2.1,-2.105263 0,-5.855263 z" id="path7677" />
    <path inkscape:connector-curvature="0" style="font-size:medium;font-style:normal;font-variant:normal;font-weight:normal;font-stretch:normal;text-indent:0;text-align:start;text-decoration:none;line-height:normal;letter-spacing:normal;word-spacing:normal;text-transform:none;direction:ltr;block-progression:tb;writing-mode:lr-tb;text-anchor:start;baseline-shift:baseline;color:#000000;fill:#c04040;fill-opacity:1;fill-rule:evenodd;stroke:none;stroke-width:2;marker:none;visibility:visible;display:inline;overflow:visible;enable-background:accumulate;font-family:Sans;-inkscape-font-specification:Sans" d="m 45,35.447368 -2.1,2.105263 0,3.81579 c 0,0.309786 -0.215988,0.526316 -0.525,0.526316 l -3.80625,0 L 36.46875,44 42.375,44 C 43.811088,44 45,42.808108 45,41.368421 l 0,-5.921053 z" id="path7675" />
    <path inkscape:connector-curvature="0" style="font-size:medium;font-style:normal;font-variant:normal;font-weight:normal;font-stretch:normal;text-indent:0;text-align:start;text-decoration:none;line-height:normal;letter-spacing:normal;word-spacing:normal;text-transform:none;direction:ltr;block-progression:tb;writing-mode:lr-tb;text-anchor:start;baseline-shift:baseline;color:#000000;fill:#c04040;fill-opacity:1;fill-rule:evenodd;stroke:none;stroke-width:2;marker:none;visibility:visible;display:inline;overflow:visible;enable-background:accumulate;font-family:Sans;-inkscape-font-specification:Sans" d="M 15.042188,41.894737 12.942188,44 18.75,44 l 2.1,-2.105263 -5.807812,0 z" id="path7671" />
    <path inkscape:connector-curvature="0" style="font-size:medium;font-style:normal;font-variant:normal;font-weight:normal;font-stretch:normal;text-indent:0;text-align:start;text-decoration:none;line-height:normal;letter-spacing:normal;word-spacing:normal;text-transform:none;direction:ltr;block-progression:tb;writing-mode:lr-tb;text-anchor:start;baseline-shift:baseline;color:#000000;fill:#4074c0;fill-opacity:1;fill-rule:evenodd;stroke:none;stroke-width:2;marker:none;visibility:visible;display:inline;overflow:visible;enable-background:accumulate;font-family:Sans;-inkscape-font-specification:Sans" d="m 26.789063,41.894737 -2.1,2.105263 5.90625,0 2.099999,-2.105263 -5.906249,0 z" id="rect7627" />
    <path id="path6136" d="m 6.9361351,44 2.1,-2.105263 -2.8797583,0 c -0.4644066,0 -1.0577417,-0.296441 -1.0577417,-1.03242 l 0,-0.875475 -1.759822,2.006579 C 4.0157974,43.285233 4.7673843,44 6.9361351,44 z" style="font-size:medium;font-style:normal;font-variant:normal;font-weight:normal;font-stretch:normal;text-indent:0;text-align:start;text-decoration:none;line-height:normal;letter-spacing:normal;word-spacing:normal;text-transform:none;direction:ltr;block-progression:tb;writing-mode:lr-tb;text-anchor:start;baseline-shift:baseline;color:#000000;fill:#4074c0;fill-opacity:1;fill-rule:evenodd;stroke:none;stroke-width:2;marker:none;visibility:visible;display:inline;overflow:visible;enable-background:accumulate;font-family:Sans;-inkscape-font-specification:Sans" inkscape:connector-curvature="0" sodipodi:nodetypes="ccssccc" />
  </g>
</svg>
