<?xml version="1.0" encoding="UTF-8" standalone="no"?>
<!-- Created with Inkscape (http://www.inkscape.org/) -->

<svg xmlns:dc="http://purl.org/dc/elements/1.1/" xmlns:cc="http://creativecommons.org/ns#" xmlns:rdf="http://www.w3.org/1999/02/22-rdf-syntax-ns#" xmlns:svg="http://www.w3.org/2000/svg" xmlns="http://www.w3.org/2000/svg" xmlns:xlink="http://www.w3.org/1999/xlink" xmlns:sodipodi="http://sodipodi.sourceforge.net/DTD/sodipodi-0.dtd" xmlns:inkscape="http://www.inkscape.org/namespaces/inkscape" width="48px" height="48px" id="svg4700" version="1.1" inkscape:version="0.48.4 r9939" sodipodi:docname="gnome-disks.svg">
    <defs id="defs4702">
        <linearGradient id="linearGradient4144">
            <stop style="stop-color:#646464;stop-opacity:1;" offset="0" id="stop4146" />
            <stop style="stop-color:#b4b4b4;stop-opacity:1;" offset="1" id="stop4148" />
        </linearGradient>
        <linearGradient id="linearGradient3886">
            <stop style="stop-color:white;stop-opacity:1;" offset="0" id="stop3888" />
            <stop style="stop-color:gray;stop-opacity:1;" offset="1" id="stop3890" />
        </linearGradient>
        <linearGradient id="linearGradient4599">
            <stop style="stop-color:#808080;stop-opacity:1;" offset="0" id="stop4601" />
            <stop style="stop-color:#ffffff;stop-opacity:0.50196081;" offset="1" id="stop4603" />
        </linearGradient>
        <linearGradient id="linearGradient4517">
            <stop style="stop-color:#ffffff;stop-opacity:1;" offset="0" id="stop4519" />
            <stop style="stop-color:#ffffff;stop-opacity:0;" offset="1" id="stop4521" />
        </linearGradient>
        <filter id="filter3174" color-interpolation-filters="sRGB">
            <feGaussianBlur stdDeviation="1.71" id="feGaussianBlur3176" />
        </filter>
        <linearGradient gradientTransform="scale(1.0058652,0.994169)" gradientUnits="userSpaceOnUse" id="ButtonShadow" y2="7.0165396" x2="45.447727" y1="92.539597" x1="45.447727">
            <stop offset="0" style="stop-color:#000000;stop-opacity:1" id="stop3750" />
            <stop offset="1" style="stop-color:#000000;stop-opacity:0.58823532" id="stop3752" />
        </linearGradient>
        <linearGradient id="linearGradient3173">
            <stop offset="0" style="stop-color:#b6b6b6;stop-opacity:1;" id="stop3187" />
            <stop offset="1" style="stop-color:#e6e6e6;stop-opacity:1" id="stop3177" />
        </linearGradient>
        <linearGradient id="linearGradient3322">
            <stop offset="0" style="stop-color:#7a7a7a;stop-opacity:1" id="stop3324" />
            <stop offset="0.2032043" style="stop-color:#f9f9f9;stop-opacity:1" id="stop3326" />
            <stop offset="0.42969123" style="stop-color:#c9c9c9;stop-opacity:1" id="stop3328" />
            <stop offset="1" style="stop-color:#dedede;stop-opacity:0" id="stop3330" />
        </linearGradient>
        <radialGradient gradientUnits="userSpaceOnUse" id="radialGradient4241-5" fy="98" fx="113.667" r="2.5631001" cy="97.587898" cx="113.0654">
            <stop offset="0" style="stop-color:#eee;stop-opacity:1" id="stop4243-2" />
            <stop offset="1" style="stop-color:#555;stop-opacity:1" id="stop4249-6" />
        </radialGradient>
        <linearGradient id="linearGradient5048-0">
            <stop id="stop5050-0" style="stop-color:#000000;stop-opacity:0" offset="0" />
            <stop id="stop5056-5" style="stop-color:#000000;stop-opacity:1" offset="0.5" />
            <stop id="stop5052-9" style="stop-color:#000000;stop-opacity:0" offset="1" />
        </linearGradient>
        <linearGradient id="linearGradient5060-9">
            <stop id="stop5062-2" style="stop-color:#000000;stop-opacity:1" offset="0" />
            <stop id="stop5064-0" style="stop-color:#000000;stop-opacity:0" offset="1" />
        </linearGradient>
        <linearGradient id="linearGradient4670-2">
            <stop style="stop-color:#808080;stop-opacity:1;" offset="0" id="stop4672-0" />
            <stop style="stop-color:#ffffff;stop-opacity:1;" offset="1" id="stop4674-2" />
        </linearGradient>
        <linearGradient inkscape:collect="always" xlink:href="#linearGradient5048-0" id="linearGradient4080" gradientUnits="userSpaceOnUse" gradientTransform="matrix(0.06214224,0,0,0.02900085,1.6242719,28.085503)" x1="302.85715" y1="366.64789" x2="302.85715" y2="609.50507" />
        <radialGradient inkscape:collect="always" xlink:href="#linearGradient5060-9" id="radialGradient4082" gradientUnits="userSpaceOnUse" gradientTransform="matrix(0.06214224,0,0,0.02900085,1.6365015,28.085503)" cx="605.71429" cy="486.64789" fx="605.71429" fy="486.64789" r="117.14286" />
        <radialGradient inkscape:collect="always" xlink:href="#linearGradient5060-9" id="radialGradient4084" gradientUnits="userSpaceOnUse" gradientTransform="matrix(-0.06214224,0,0,0.02900085,46.53201,28.085503)" cx="605.71429" cy="486.64789" fx="605.71429" fy="486.64789" r="117.14286" />
        <radialGradient inkscape:collect="always" xlink:href="#radialGradient4241-5" id="radialGradient4096" gradientUnits="userSpaceOnUse" gradientTransform="matrix(0.23760038,0,0,0.25220859,7.7186336,4.6241265)" cx="127.2645" cy="95.756645" fx="127.2645" fy="95.756645" r="2.5631001" />
        <radialGradient inkscape:collect="always" xlink:href="#radialGradient4241-5" id="radialGradient4098" gradientUnits="userSpaceOnUse" gradientTransform="matrix(0.23760038,0,0,0.25220859,7.7186336,4.6241265)" cx="127.2645" cy="95.756645" fx="127.2645" fy="95.756645" r="2.5631001" />
        <radialGradient inkscape:collect="always" xlink:href="#radialGradient4241-5" id="radialGradient4100" gradientUnits="userSpaceOnUse" gradientTransform="matrix(0.23760038,0,0,0.25220859,7.7186336,4.6241265)" cx="127.2645" cy="95.756645" fx="127.2645" fy="95.756645" r="2.5631001" />
        <linearGradient inkscape:collect="always" xlink:href="#linearGradient4599" id="linearGradient4102" gradientUnits="userSpaceOnUse" x1="24.209238" y1="5.606431" x2="24.209238" y2="32.207882" />
        <linearGradient inkscape:collect="always" xlink:href="#linearGradient4599" id="linearGradient4104" gradientUnits="userSpaceOnUse" gradientTransform="matrix(-1.4495798,0,0,-1.4495798,59.402311,46.848214)" x1="24.209238" y1="10.304801" x2="24.209238" y2="28.118208" />
        <linearGradient inkscape:collect="always" xlink:href="#linearGradient4517" id="linearGradient4122" gradientUnits="userSpaceOnUse" gradientTransform="matrix(0.99929416,0,0,0.99918395,0.00568603,-0.90539222)" x1="22.440199" y1="4.8942533" x2="22.440199" y2="38.21666" />
        <linearGradient inkscape:collect="always" xlink:href="#linearGradient3173" id="linearGradient4125" gradientUnits="userSpaceOnUse" gradientTransform="matrix(0.4642857,0,0,0.47222218,1.7142882,0.666665)" x1="46.430859" y1="77.039726" x2="46.430859" y2="33.8722" />
        <linearGradient inkscape:collect="always" xlink:href="#linearGradient3322" id="linearGradient4128" gradientUnits="userSpaceOnUse" gradientTransform="matrix(0.46153843,0,0,0.46489104,2.230769,1.1598063)" x1="6" y1="77.09375" x2="32" y2="77.09375" />
        <linearGradient inkscape:collect="always" xlink:href="#linearGradient3322" id="linearGradient4131" gradientUnits="userSpaceOnUse" gradientTransform="matrix(-0.46153843,0,0,0.46489104,45.769231,1.1598063)" x1="6" y1="77.09375" x2="32" y2="77.09375" />
        <linearGradient inkscape:collect="always" xlink:href="#linearGradient3173" id="linearGradient4140" gradientUnits="userSpaceOnUse" gradientTransform="matrix(0.4642857,0,0,0.47222218,1.7142882,6.6666656)" x1="46.430859" y1="77.039726" x2="46.430859" y2="33.8722" />
        <linearGradient inkscape:collect="always" xlink:href="#linearGradient4144" id="linearGradient4150" x1="34" y1="37" x2="34" y2="4" gradientUnits="userSpaceOnUse" />
        <linearGradient inkscape:collect="always" xlink:href="#linearGradient4670-2" id="linearGradient4210" gradientUnits="userSpaceOnUse" gradientTransform="matrix(1,0,0,1.5,-21,-18.250002)" x1="36.1875" y1="37.9375" x2="36.1875" y2="40.6875" />
        <radialGradient inkscape:collect="always" xlink:href="#linearGradient3886" id="radialGradient3086" gradientUnits="userSpaceOnUse" gradientTransform="matrix(0.96666667,0,0,0.96666667,40.566667,-0.4333333)" cx="30.448275" cy="24.241379" fx="30.448275" fy="24.241379" r="15" />
    </defs>
    <sodipodi:namedview id="base" pagecolor="#ffffff" bordercolor="#666666" borderopacity="1.0" inkscape:pageopacity="0.0" inkscape:pageshadow="2" inkscape:zoom="8.4583333" inkscape:cx="24.365909" inkscape:cy="25.71339" inkscape:current-layer="layer1" showgrid="true" inkscape:grid-bbox="true" inkscape:document-units="px" inkscape:window-width="918" inkscape:window-height="985" inkscape:window-x="151" inkscape:window-y="16" inkscape:window-maximized="0" inkscape:snap-to-guides="false" inkscape:snap-grids="true" inkscape:snap-page="true" inkscape:snap-center="true" inkscape:snap-object-midpoints="true" inkscape:snap-bbox="true">
        <inkscape:grid type="xygrid" id="grid1021" />
    </sodipodi:namedview>
    <metadata id="metadata4705">
        <rdf:RDF>
            <cc:Work rdf:about="">
                <dc:format>image/svg+xml</dc:format>
                <dc:type rdf:resource="http://purl.org/dc/dcmitype/StillImage" />
                <dc:title />
            </cc:Work>
        </rdf:RDF>
    </metadata>
    <g id="layer1" inkscape:label="Layer 1" inkscape:groupmode="layer">
        <g id="g4574" transform="matrix(1.6071093,0,0,1.6011113,-22.853896,-14.42229)" />
        <g id="g4152">
            <g id="g914" transform="matrix(0.87953195,0,0,0.99388573,2.8171317,1.5181348)">
                <rect width="30.005821" height="7.0430632" x="9.0813398" y="38.718601" id="rect4173" style="opacity:0.5;fill:url(#linearGradient4080);fill-opacity:1;fill-rule:nonzero;stroke:none;stroke-width:104.96237946;marker:none;visibility:visible;display:inline;overflow:visible" />
                <path d="m 39.087163,38.718845 c 0,0 0,7.042675 0,7.042675 3.200171,0.01326 7.736457,-1.577906 7.736455,-3.52179 0,-1.943885 -3.57115,-3.520884 -7.736455,-3.520885 z" id="path5058" style="opacity:0.5;fill:url(#radialGradient4082);fill-opacity:1;fill-rule:nonzero;stroke:none;stroke-width:104.96237946;marker:none;visibility:visible;display:inline;overflow:visible" inkscape:connector-curvature="0" />
                <path d="m 9.0813406,38.718845 c 0,0 0,7.042675 0,7.042675 -3.2001721,0.01326 -7.7364568,-1.577906 -7.7364568,-3.52179 0,-1.943885 3.57115,-3.520884 7.7364568,-3.520885 z" id="path5018" style="opacity:0.5;fill:url(#radialGradient4084);fill-opacity:1;fill-rule:nonzero;stroke:none;stroke-width:104.96237946;marker:none;visibility:visible;display:inline;overflow:visible" inkscape:connector-curvature="0" />
            </g>
            <rect style="opacity:0.98999999000000005;fill:url(#linearGradient4140);fill-opacity:1;fill-rule:nonzero;stroke:#646464;stroke-width:1;stroke-miterlimit:4;stroke-opacity:1;stroke-dasharray:none" id="rect4138" y="9.5" x="4.5" ry="2.8333333" rx="2.7857139" height="34" width="39" />
            <path style="opacity:0.8;fill:url(#linearGradient4131);fill-opacity:1;fill-rule:nonzero;stroke:none" id="path4509" inkscape:connector-curvature="0" d="m 43,31 0,9.530266 C 43,42.075564 42.082231,43 40.548077,43 L 31,43 31,31 z" sodipodi:nodetypes="cssccc" />
            <path sodipodi:nodetypes="cssccc" d="m 5,31 0,9.530266 C 5,42.075564 5.917769,43 7.451923,43 L 17,43 17,31 z" inkscape:connector-curvature="0" id="path3263" style="opacity:0.8;fill:url(#linearGradient4128);fill-opacity:1;fill-rule:nonzero;stroke:none" />
            <rect width="39" height="34" rx="2.7857139" ry="2.8333333" x="4.5" y="3.5" id="rect3171" style="fill:url(#linearGradient4125);fill-opacity:1;fill-rule:nonzero;stroke:url(#linearGradient4150);stroke-width:1;stroke-miterlimit:4;stroke-opacity:1;stroke-dasharray:none" />
            <rect rx="2" style="fill:none;stroke:url(#linearGradient4122);stroke-width:0.99999994;stroke-miterlimit:4;stroke-opacity:1;stroke-dasharray:none" id="rect4513" y="4.5" x="5.5" ry="1.9997852" height="32" width="37" />
            <g style="stroke:#ebebeb;stroke-width:1;stroke-opacity:1" id="g4577" transform="matrix(1.6071093,0,0,1.6011113,-52.8539,-14.42229)">
                <path transform="matrix(1.1258657,0,0,1.1299899,-4.0539962,-2.8976986)" d="m 38.669902,28.775534 c 0,0.488155 -0.395728,0.883883 -0.883884,0.883883 -0.488155,0 -0.883883,-0.395728 -0.883883,-0.883883 0,-0.488156 0.395728,-0.883884 0.883883,-0.883884 0.488156,0 0.883884,0.395728 0.883884,0.883884 z" sodipodi:ry="0.88388348" sodipodi:rx="0.88388348" sodipodi:cy="28.775534" sodipodi:cx="37.786018" id="path4579" style="color:black;fill:url(#radialGradient4096);fill-opacity:1;fill-rule:nonzero;stroke:#ebebeb;stroke-width:0.44329152;stroke-linecap:butt;stroke-linejoin:miter;stroke-miterlimit:4;stroke-opacity:1;stroke-dasharray:none;stroke-dashoffset:0;marker:none;visibility:visible;display:inline;overflow:visible;enable-background:accumulate" sodipodi:type="arc" />
            </g>
            <g transform="matrix(1.6071093,0,0,1.6011113,-22.853896,-39.42229)" id="g4587" style="stroke:#ebebeb;stroke-width:1;stroke-opacity:1">
                <path sodipodi:type="arc" style="color:black;fill:url(#radialGradient4098);fill-opacity:1;fill-rule:nonzero;stroke:#ebebeb;stroke-width:0.44329152;stroke-linecap:butt;stroke-linejoin:miter;stroke-miterlimit:4;stroke-opacity:1;stroke-dasharray:none;stroke-dashoffset:0;marker:none;visibility:visible;display:inline;overflow:visible;enable-background:accumulate" id="path4589" sodipodi:cx="37.786018" sodipodi:cy="28.775534" sodipodi:rx="0.88388348" sodipodi:ry="0.88388348" d="m 38.669902,28.775534 c 0,0.488155 -0.395728,0.883883 -0.883884,0.883883 -0.488155,0 -0.883883,-0.395728 -0.883883,-0.883883 0,-0.488156 0.395728,-0.883884 0.883883,-0.883884 0.488156,0 0.883884,0.395728 0.883884,0.883884 z" transform="matrix(1.1258657,0,0,1.1299899,-4.0539962,-2.8976986)" />
            </g>
            <g id="g4583" transform="matrix(1.6071093,0,0,1.6011113,-52.8539,-39.42229)">
                <path transform="matrix(1.1258657,0,0,1.1299899,-4.0539962,-2.8976986)" d="m 38.669902,28.775534 c 0,0.488155 -0.395728,0.883883 -0.883884,0.883883 -0.488155,0 -0.883883,-0.395728 -0.883883,-0.883883 0,-0.488156 0.395728,-0.883884 0.883883,-0.883884 0.488156,0 0.883884,0.395728 0.883884,0.883884 z" sodipodi:ry="0.88388348" sodipodi:rx="0.88388348" sodipodi:cy="28.775534" sodipodi:cx="37.786018" id="path4585" style="color:black;fill:url(#radialGradient4100);fill-opacity:1;fill-rule:nonzero;stroke:#ddd;stroke-width:0.44329152;stroke-linecap:butt;stroke-linejoin:miter;stroke-miterlimit:4;stroke-opacity:1;stroke-dasharray:none;stroke-dashoffset:0;marker:none;visibility:visible;display:inline;overflow:visible;enable-background:accumulate" sodipodi:type="arc" />
            </g>
            <path transform="matrix(0.87619048,0,0,0.87619048,2.752381,4.2428571)" d="m 37.375,19.125 a 13.125,13.125 0 1 1 -26.25,0 13.125,13.125 0 1 1 26.25,0 z" sodipodi:ry="13.125" sodipodi:rx="13.125" sodipodi:cy="19.125" sodipodi:cx="24.25" id="path4595" style="color:black;fill:none;stroke:url(#linearGradient4102);stroke-width:1.14130425;stroke-linecap:butt;stroke-linejoin:miter;stroke-miterlimit:4;stroke-opacity:1;stroke-dasharray:none;stroke-dashoffset:0;marker:none;visibility:visible;display:inline;overflow:visible;enable-background:accumulate" sodipodi:type="arc" />
            <path sodipodi:type="arc" style="color:black;fill:none;stroke:url(#linearGradient4104);stroke-width:2.91666675;stroke-linecap:butt;stroke-linejoin:miter;stroke-miterlimit:4;stroke-opacity:1;stroke-dasharray:none;stroke-dashoffset:0;marker:none;visibility:visible;display:inline;overflow:visible;enable-background:accumulate" id="path4613" sodipodi:cx="24.25" sodipodi:cy="19.125" sodipodi:rx="13.125" sodipodi:ry="13.125" d="m 37.375,19.125 a 13.125,13.125 0 1 1 -26.25,0 13.125,13.125 0 1 1 26.25,0 z" transform="matrix(-0.34285714,0,0,0.34285714,32.314286,14.442857)" />
            <rect y="39.5" x="12.5" height="3" width="5" id="rect4668" style="color:black;fill:aqua;fill-opacity:1;stroke:url(#linearGradient4210);stroke-width:1;stroke-linecap:butt;stroke-linejoin:miter;stroke-miterlimit:4;stroke-opacity:1;stroke-dasharray:none;stroke-dashoffset:0;marker:none;visibility:visible;display:inline;overflow:visible;enable-background:accumulate" />
        </g>
        <g id="layer4" transform="translate(-54.795509,-178.6879)" />
        <g id="layer2" style="display:none" transform="translate(5.204491,-179.6879)">
            <rect width="86" height="85" rx="6" ry="6" x="5" y="7" id="rect3745" style="opacity:0.9;fill:url(#ButtonShadow);fill-opacity:1;fill-rule:nonzero;stroke:none;filter:url(#filter3174)" />
        </g>
        <g id="g3080" transform="translate(-40,0)">
            <path style="color:black;fill:#5a5a5a;fill-opacity:1;fill-rule:nonzero;stroke:#5a5a5a;stroke-width:1;stroke-opacity:1;marker:none;visibility:visible;display:inline;overflow:visible;enable-background:accumulate" d="m 63.5,16.5 0,1 3,3 0,4 -2,2 -4,0 -3,-3 -1,0 0,4 4,4 6,0 15,15 3,0 2,-2 0,-3 -15,-15 0,-6 -4,-4 z" id="path3932" inkscape:connector-curvature="0" sodipodi:nodetypes="ccccccccccccccccccc" />
            <path sodipodi:nodetypes="ccccccccccccccccccc" inkscape:connector-curvature="0" id="path3100" d="m 63.5,15.5 0,1 3,3 0,4 -2,2 -4,0 -3,-3 -1,0 0,4 4,4 6,0 15,15 3,0 2,-2 0,-3 -15,-15 0,-6 -4,-4 z" style="color:black;fill:url(#radialGradient3086);fill-opacity:1;fill-rule:nonzero;stroke:#5a5a5a;stroke-width:1;stroke-opacity:1;marker:none;visibility:visible;display:inline;overflow:visible;enable-background:accumulate" />
            <path id="path3914" d="m 70,28 -1,1 0,1 10,10 1,0 1,-1 0,-1 -10,-10 -1,0 z m 12,12 -1,1 0,1 1,1 1,0 1,-1 0,-1 -1,-1 -1,0 z" style="color:black;fill:#646464;fill-opacity:1;fill-rule:nonzero;stroke:none;stroke-width:1;marker:none;visibility:visible;display:inline;overflow:visible;enable-background:accumulate" inkscape:connector-curvature="0" />
            <path id="path3101" d="m 70,29 -1,1 10,10 1,0 1,-1 -10,-10 -1,0 z m 12,12 -1,1 1,1 1,0 1,-1 -1,-1 -1,0 z" style="color:black;fill:#dcdcdc;fill-opacity:1;fill-rule:nonzero;stroke:none;stroke-width:1;marker:none;visibility:visible;display:inline;overflow:visible;enable-background:accumulate" inkscape:connector-curvature="0" />
        </g>
    </g>
</svg>
