<?xml version="1.0" encoding="UTF-8" standalone="no"?>
<!-- Created with Inkscape (http://www.inkscape.org/) -->

<svg xmlns:dc="http://purl.org/dc/elements/1.1/" xmlns:cc="http://creativecommons.org/ns#" xmlns:rdf="http://www.w3.org/1999/02/22-rdf-syntax-ns#" xmlns:svg="http://www.w3.org/2000/svg" xmlns="http://www.w3.org/2000/svg" xmlns:xlink="http://www.w3.org/1999/xlink" xmlns:sodipodi="http://sodipodi.sourceforge.net/DTD/sodipodi-0.dtd" xmlns:inkscape="http://www.inkscape.org/namespaces/inkscape" version="1.0" width="48" height="48" id="svg3437" inkscape:version="0.48.4 r9939" sodipodi:docname="xfce-ui.svg">
    <metadata id="metadata101">
        <rdf:RDF>
            <cc:Work rdf:about="">
                <dc:format>image/svg+xml</dc:format>
                <dc:type rdf:resource="http://purl.org/dc/dcmitype/StillImage" />
                <dc:title />
            </cc:Work>
        </rdf:RDF>
    </metadata>
    <sodipodi:namedview pagecolor="#ffffff" bordercolor="#666666" borderopacity="1" objecttolerance="10" gridtolerance="10" guidetolerance="10" inkscape:pageopacity="0" inkscape:pageshadow="2" inkscape:window-width="1280" inkscape:window-height="976" id="namedview99" showgrid="true" inkscape:zoom="10.526316" inkscape:cx="41.673194" inkscape:cy="21.915353" inkscape:window-x="0" inkscape:window-y="24" inkscape:window-maximized="1" inkscape:current-layer="svg3437" inkscape:snap-to-guides="false" inkscape:snap-grids="false" showguides="true" inkscape:guide-bbox="true">
        <inkscape:grid type="xygrid" id="grid911" />
    </sodipodi:namedview>
    <defs id="defs3439">
        <linearGradient id="linearGradient3845">
            <stop style="stop-color:#152235;stop-opacity:1;" offset="0" id="stop3847" />
            <stop id="stop4237" offset="0.5" style="stop-color:#22305d;stop-opacity:1;" />
            <stop style="stop-color:#972f2f;stop-opacity:1;" offset="1" id="stop3849" />
        </linearGradient>
        <linearGradient id="linearGradient965">
            <stop id="stop967" offset="0" style="stop-color:#ffffff;stop-opacity:0.31451613;" />
            <stop id="stop969" offset="1" style="stop-color:#ffffff;stop-opacity:0;" />
        </linearGradient>
        <linearGradient id="linearGradient5060">
            <stop id="stop5062" style="stop-color:#000000;stop-opacity:1" offset="0" />
            <stop id="stop5064" style="stop-color:#000000;stop-opacity:0" offset="1" />
        </linearGradient>
        <linearGradient id="linearGradient5048">
            <stop id="stop5050" style="stop-color:#000000;stop-opacity:0" offset="0" />
            <stop id="stop5056" style="stop-color:#000000;stop-opacity:1" offset="0.5" />
            <stop id="stop5052" style="stop-color:#000000;stop-opacity:0" offset="1" />
        </linearGradient>
        <linearGradient id="linearGradient4008">
            <stop id="stop4010" offset="0" style="stop-color:#ffffff;stop-opacity:0.61290324;" />
            <stop id="stop4012" offset="1" style="stop-color:#ffffff;stop-opacity:0.12096774;" />
        </linearGradient>
        <linearGradient inkscape:collect="always" xlink:href="#linearGradient965" id="linearGradient971" gradientUnits="userSpaceOnUse" gradientTransform="matrix(0.95348835,0,0,1.1935483,1.1162793,-4.6451614)" x1="23.429665" y1="8.403966" x2="23.429665" y2="39.357925" />
        <radialGradient inkscape:collect="always" xlink:href="#linearGradient4008" id="radialGradient3046" gradientUnits="userSpaceOnUse" gradientTransform="matrix(0.02015773,0,0,0.01176063,-4.3373826,19.875339)" cx="1273.4375" cy="266.42468" fx="1273.4375" fy="266.42468" r="1301.5625" />
        <radialGradient inkscape:collect="always" xlink:href="#linearGradient3894-7" id="radialGradient3892-0" gradientUnits="userSpaceOnUse" gradientTransform="matrix(0.01619272,0,0,0.01643165,4.2229239,18.900715)" cx="1591.8929" cy="553.76575" fx="1591.8929" fy="553.76575" r="1280" />
        <linearGradient id="linearGradient3894-7">
            <stop style="stop-color:#ff54ec;stop-opacity:1;" offset="0" id="stop3896-3" />
            <stop style="stop-color:#801b1b;stop-opacity:1;" offset="1" id="stop3898-9" />
        </linearGradient>
        <linearGradient inkscape:collect="always" xlink:href="#linearGradient3845" id="linearGradient3851" x1="17.980892" y1="42.708393" x2="18.069281" y2="4.2010093" gradientUnits="userSpaceOnUse" />
        <linearGradient id="linearGradient8589-4-3">
            <stop offset="0" style="stop-color:#fefefe;stop-opacity:1" id="stop8591-7-2" />
            <stop offset="1" style="stop-color:#cbcbcb;stop-opacity:1" id="stop8593-2-4" />
        </linearGradient>
        <filter id="filter3198" x="-0.086712047" width="1.1734241" y="-0.10751635" height="1.2150327">
            <feGaussianBlur inkscape:collect="always" stdDeviation="0.71710775" id="feGaussianBlur3200" />
        </filter>
        <linearGradient inkscape:collect="always" xlink:href="#linearGradient8589-4-3" id="linearGradient3973" gradientUnits="userSpaceOnUse" gradientTransform="matrix(1.4144167,0,0,1.5568543,-13.692249,11.590286)" x1="32.892288" y1="8.0590115" x2="36.358372" y2="5.4565363" />
        <linearGradient id="linearGradient986" inkscape:collect="always">
            <stop id="stop988" offset="0" style="stop-color:#ffffff;stop-opacity:1;" />
            <stop id="stop990" offset="1" style="stop-color:#ffffff;stop-opacity:0;" />
        </linearGradient>
        <linearGradient inkscape:collect="always" xlink:href="#linearGradient986" id="linearGradient4111" gradientUnits="userSpaceOnUse" gradientTransform="matrix(1.0416667,0,0,1.0410959,-0.83333213,-1.2465749)" x1="10.188892" y1="-5.7136512" x2="34.45406" y2="25.487436" />
        <radialGradient inkscape:collect="always" xlink:href="#linearGradient5060" id="radialGradient4241" gradientUnits="userSpaceOnUse" gradientTransform="matrix(-0.0628545,0,0,0.02882353,46.705047,29.43192)" cx="605.71429" cy="486.64789" fx="605.71429" fy="486.64789" r="117.14286" />
        <linearGradient inkscape:collect="always" xlink:href="#linearGradient5048" id="linearGradient4244" gradientUnits="userSpaceOnUse" gradientTransform="matrix(0.0628545,0,0,0.02882353,1.2825903,29.43192)" x1="302.85715" y1="366.64789" x2="302.85715" y2="609.50507" />
        <radialGradient inkscape:collect="always" xlink:href="#linearGradient5060" id="radialGradient4247" gradientUnits="userSpaceOnUse" gradientTransform="matrix(0.0628545,0,0,0.02882353,1.2949601,29.43192)" cx="605.71429" cy="486.64789" fx="605.71429" fy="486.64789" r="117.14286" />
        <radialGradient inkscape:collect="always" xlink:href="#linearGradient3793-6-4" id="radialGradient4395-6" gradientUnits="userSpaceOnUse" gradientTransform="matrix(0.01953125,0,0,0.01929788,-1.2131821,19.239319)" cx="1321.3318" cy="209.04965" fx="1321.3318" fy="209.04965" r="1280" />
        <linearGradient id="linearGradient3793-6-4">
            <stop style="stop-color:#56b1d5;stop-opacity:1" offset="0" id="stop3795-6-1" />
            <stop style="stop-color:#124275;stop-opacity:1;" offset="1" id="stop3797-1-1" />
        </linearGradient>
    </defs>
    <g id="g4250">
        <path sodipodi:nodetypes="ccsc" inkscape:connector-curvature="0" style="opacity:0.66000001;fill:url(#radialGradient4247);fill-opacity:1;fill-rule:evenodd;stroke:none;stroke-width:104.96237946;marker:none;visibility:visible;display:inline;overflow:visible" id="path5058" d="m 39,40.000247 0,6.999614 c 3.23685,0.01318 8,-1.568258 7.999998,-3.500257 0,-1.931999 -3.786952,-3.499356 -7.999998,-3.499357 z" />
        <path sodipodi:nodetypes="ccccc" inkscape:connector-curvature="0" id="rect4173" d="m 9,40 30,0 0,7 -30,0 z" style="opacity:0.66000001;fill:url(#linearGradient4244);fill-opacity:1;fill-rule:evenodd;stroke:none;stroke-width:104.96237946;marker:none;visibility:visible;display:inline;overflow:visible" />
        <path sodipodi:nodetypes="ccsc" inkscape:connector-curvature="0" style="opacity:0.66000001;fill:url(#radialGradient4241);fill-opacity:1;fill-rule:evenodd;stroke:none;stroke-width:104.96237946;marker:none;visibility:visible;display:inline;overflow:visible" id="path5018" d="m 9,40.000247 0,6.999614 C 5.7631485,47.013041 0.99999993,45.431603 0.99999993,43.499604 0.99999993,41.567605 4.7869517,40.000248 9,40.000247 z" />
    </g>
    <rect style="color:black;fill:url(#radialGradient3892-0);fill-opacity:1;fill-rule:nonzero;stroke:url(#linearGradient3851);stroke-width:0.99999994000000003;stroke-miterlimit:4;stroke-opacity:1;stroke-dasharray:none;marker:none;visibility:visible;display:inline;overflow:visible;enable-background:accumulate" id="rect990" width="43" height="39" x="2.5" y="4.5" ry="2" rx="2" />
    <path inkscape:connector-curvature="0" d="m 3,14 24,0 c 1.441255,0.469202 15.978126,11.298816 18,15 l 0,12 c 0,1.59099 -0.629981,2 -2,2 L 5,43 C 3.8491108,43 3,42.824278 3,41 z" id="path4322" style="color:black;fill:url(#radialGradient4395-6);fill-opacity:1;fill-rule:nonzero;stroke:none;stroke-width:0.99999994000000003;marker:none;visibility:visible;display:inline;overflow:visible;enable-background:accumulate" sodipodi:nodetypes="cccccccc" />
    <path style="fill:url(#radialGradient3046);fill-opacity:1;stroke:none;opacity:1" d="M 45 13.53125 C 42.96522 16.569338 35.642925 25.857246 23.375 22.875 C 33.78944 26.432396 42.65876 19.695111 45 17.6875 L 45 13.53125 z M 17.78125 15.46875 C 17.78125 15.46875 16.302926 20.510479 23.1875 22.9375 C 17.137002 20.02498 17.78125 15.46875 17.78125 15.46875 z M 3 16.875 L 3 24.90625 C 3.1581847 24.9853 3.2041488 25.02725 3.40625 25.125 C 3.2649813 25.184956 3.1376284 25.251669 3 25.3125 L 3 26.375 C 3.4432794 26.095674 3.8855018 25.822774 4.375 25.5625 C 7.9684809 27.146728 15.11586 29.575248 24.3125 29.15625 C 34.845474 35.178321 43.06857 31.928165 45 31 L 45 29.5 C 43.227947 30.408613 35.883347 33.550631 25.59375 29.09375 C 27.054395 28.986258 28.545324 28.832978 30.09375 28.5625 C 30.687748 29.426466 31.756488 30.274343 33.65625 30.6875 C 32.033239 30.129378 31.031615 29.307932 30.40625 28.5 C 32.526442 28.115293 34.713052 27.567078 36.96875 26.8125 C 34.559322 27.447441 32.238881 27.782031 30.03125 27.90625 C 29.409899 26.828358 29.375 25.90625 29.375 25.90625 C 29.375 25.90625 29.275527 26.842703 29.75 27.90625 C 27.107729 28.031399 24.602615 27.86556 22.28125 27.4375 C 21.050726 26.742166 19.794017 25.930432 18.5 25 C 19.44269 25.814121 20.394709 26.557755 21.3125 27.21875 C 17.452878 26.383344 14.051246 24.940106 11.25 23.34375 C 13.618506 23.044199 16.241242 23.149446 19.15625 23.875 C 16.269726 22.990476 13.512275 22.840871 10.90625 23.125 C 10.480749 22.876055 10.054145 22.628002 9.65625 22.375 C 12.897556 21.985416 16.659073 22.170681 20.84375 23.53125 C 33.317205 27.586759 42.596517 25.639854 45 25 L 45 18.8125 C 42.435047 21.007796 33.766328 27.232564 21.125 23.09375 C 15.629011 21.294345 10.94596 20.685669 7.1875 20.65625 C 6.0015563 19.770591 5.0242495 18.95459 4.21875 18.21875 C 7.9143906 17.987374 12.739226 18.633109 18.71875 21.3125 C 11.963696 17.962373 6.7703721 16.939516 3 16.875 z M 45 28 C 39.407861 31.605505 34.4375 30.75 34.4375 30.75 C 34.4375 30.75 39.646291 32.281323 45 28.4375 L 45 28 z " id="path3856" />
    <rect ry="1" y="5.5" x="3.5" height="37" width="41" id="rect963" style="color:#000000;color-interpolation:sRGB;color-interpolation-filters:linearRGB;fill:none;stroke:url(#linearGradient971);stroke-width:0.99999988;stroke-opacity:1;marker:none;visibility:visible;display:inline;overflow:visible;enable-background:accumulate;clip-rule:nonzero" rx="1" />
    <path style="opacity:0.98999999;color:black;fill:url(#linearGradient4111);fill-opacity:1;stroke:none;stroke-width:0.99999982;marker:none;visibility:visible;display:inline;overflow:visible;enable-background:accumulate" d="m 20,5 23,0 c 1.38352,0 2,0.5092064 2,2.0821928 L 45,43 31.140615,43 z" id="rect966" inkscape:connector-curvature="0" sodipodi:nodetypes="cccccc" />
    <path inkscape:connector-curvature="0" d="m 25.684596,13.786158 c 3.638583,-0.350201 2.843232,14.020035 2.843232,14.020035 0,0 16.093218,-0.848461 16.524808,1.954338 3.85075,-3.268904 -16.653508,-16.761074 -19.36804,-15.974373 z" id="path4891" style="opacity:0.75;fill:#001c3c;fill-opacity:1;fill-rule:evenodd;stroke:none;display:inline;filter:url(#filter3198)" />
    <path inkscape:connector-curvature="0" d="m 27,14 c 3.515372,0.664836 3.145884,12.334836 3.145884,12.334836 0,0 12.699259,-1.150049 14.854116,2.665164 C 45.908699,26.978703 34.448794,16.76115 28.837488,14.460523 28.11646,14.164903 27.491154,14 27,14 z" id="path4893" style="fill:url(#linearGradient3973);fill-opacity:1;fill-rule:evenodd;stroke:none;display:inline" sodipodi:nodetypes="cccsc" />
</svg>
