<?xml version="1.0" encoding="UTF-8" standalone="no"?>
<!-- Created with Inkscape (http://www.inkscape.org/) -->

<svg xmlns:dc="http://purl.org/dc/elements/1.1/" xmlns:cc="http://creativecommons.org/ns#" xmlns:rdf="http://www.w3.org/1999/02/22-rdf-syntax-ns#" xmlns:svg="http://www.w3.org/2000/svg" xmlns="http://www.w3.org/2000/svg" xmlns:xlink="http://www.w3.org/1999/xlink" xmlns:sodipodi="http://sodipodi.sourceforge.net/DTD/sodipodi-0.dtd" xmlns:inkscape="http://www.inkscape.org/namespaces/inkscape" width="48px" height="48px" id="svg4700" version="1.1" inkscape:version="0.48.3.1 r9886" sodipodi:docname="skype.svg">
  <defs id="defs4702">
    <linearGradient id="linearGradient4427">
      <stop style="stop-color:#226f8e;stop-opacity:1;" offset="0" id="stop4429" />
      <stop style="stop-color:#0f222c;stop-opacity:1;" offset="1" id="stop4431" />
    </linearGradient>
    <linearGradient id="linearGradient4024">
      <stop style="stop-color:#ffffff;stop-opacity:1;" offset="0" id="stop4026" />
      <stop style="stop-color:#ffffff;stop-opacity:0.50196081;" offset="1" id="stop4028" />
    </linearGradient>
    <linearGradient id="linearGradient4093">
      <stop style="stop-color:#11bdff;stop-opacity:1;" offset="0" id="stop4095" />
      <stop style="stop-color:#0076a3;stop-opacity:1;" offset="1" id="stop4097" />
    </linearGradient>
    <filter id="filter3174" color-interpolation-filters="sRGB">
      <feGaussianBlur stdDeviation="1.71" id="feGaussianBlur3176" />
    </filter>
    <linearGradient gradientTransform="scale(1.0058652,0.994169)" gradientUnits="userSpaceOnUse" id="ButtonShadow" y2="7.0165396" x2="45.447727" y1="92.539597" x1="45.447727">
      <stop offset="0" style="stop-color:#000000;stop-opacity:1" id="stop3750" />
      <stop offset="1" style="stop-color:#000000;stop-opacity:0.58823532" id="stop3752" />
    </linearGradient>
    <linearGradient inkscape:collect="always" xlink:href="#linearGradient4050-7" id="linearGradient4523-1" x1="13.623017" y1="3.8363869" x2="13.623017" y2="40.856548" gradientUnits="userSpaceOnUse" gradientTransform="matrix(0.99857425,0,0,1.0345522,-0.81332958,-0.39450465)" />
    <linearGradient id="linearGradient4050-7">
      <stop id="stop4052-6" offset="0" style="stop-color:#ffffff;stop-opacity:0.66929132;" />
      <stop id="stop4054-0" offset="1" style="stop-color:#ffffff;stop-opacity:0;" />
    </linearGradient>
    <filter id="filter3174-9" color-interpolation-filters="sRGB">
      <feGaussianBlur stdDeviation="1.71" id="feGaussianBlur3176-7" />
    </filter>
    <linearGradient gradientTransform="scale(1.0058652,0.994169)" gradientUnits="userSpaceOnUse" id="ButtonShadow-4" y2="7.0165396" x2="45.447727" y1="92.539597" x1="45.447727">
      <stop offset="0" style="stop-color:#000000;stop-opacity:1" id="stop3750-7" />
      <stop offset="1" style="stop-color:#000000;stop-opacity:0.58823532" id="stop3752-9" />
    </linearGradient>
    <linearGradient x1="45.447727" y1="92.539597" x2="45.447727" y2="7.0165396" id="ButtonShadow-47" gradientUnits="userSpaceOnUse" gradientTransform="scale(1.0058652,0.994169)">
      <stop id="stop3750-8" style="stop-color:#000000;stop-opacity:1" offset="0" />
      <stop id="stop3752-96" style="stop-color:#000000;stop-opacity:0.58823532" offset="1" />
    </linearGradient>
    <filter color-interpolation-filters="sRGB" id="filter3174-3">
      <feGaussianBlur id="feGaussianBlur3176-4" stdDeviation="1.71" />
    </filter>
    <linearGradient y2="25.48744" y1="-5.7136502" x2="31.74275" x1="8.2114201" id="linearGradient4594-3" gradientUnits="userSpaceOnUse">
      <stop id="stop37-5-1" stop-color="#fff" offset="0" />
      <stop id="stop39-0" stop-opacity="0" stop-color="#fff" offset="1" />
    </linearGradient>
    <linearGradient inkscape:collect="always" xlink:href="#linearGradient4594-3" id="linearGradient4797" gradientUnits="userSpaceOnUse" gradientTransform="matrix(0.9882196,0,0,0.98630136,3.4829985,-2.9178089)" x1="8.2114201" y1="-5.7136502" x2="31.74275" y2="25.48744" />
    <linearGradient id="linearGradient5048-8">
      <stop offset="0" style="stop-color:#000000;stop-opacity:0" id="stop5050-4" />
      <stop offset="0.5" style="stop-color:#000000;stop-opacity:1" id="stop5056-7" />
      <stop offset="1" style="stop-color:#000000;stop-opacity:0" id="stop5052-0" />
    </linearGradient>
    <linearGradient id="linearGradient5060-29">
      <stop offset="0" style="stop-color:#000000;stop-opacity:1" id="stop5062-9" />
      <stop offset="1" style="stop-color:#000000;stop-opacity:0" id="stop5064-08" />
    </linearGradient>
    <radialGradient inkscape:collect="always" xlink:href="#linearGradient5060-29" id="radialGradient3252" gradientUnits="userSpaceOnUse" gradientTransform="matrix(0.06214224,0,0,0.02900085,1.5522506,29.41539)" cx="605.71429" cy="486.64789" fx="605.71429" fy="486.64789" r="117.14286" />
    <linearGradient inkscape:collect="always" xlink:href="#linearGradient5048-8" id="linearGradient3254" gradientUnits="userSpaceOnUse" gradientTransform="matrix(0.06214224,0,0,0.02900085,1.540021,29.41539)" x1="302.85715" y1="366.64789" x2="302.85715" y2="609.50507" />
    <radialGradient inkscape:collect="always" xlink:href="#linearGradient5060-29" id="radialGradient3256" gradientUnits="userSpaceOnUse" gradientTransform="matrix(-0.06214224,0,0,0.02900085,46.447759,29.41539)" cx="605.71429" cy="486.64789" fx="605.71429" fy="486.64789" r="117.14286" />
    <linearGradient inkscape:collect="always" xlink:href="#linearGradient1022-8-8-3-0-3-3" id="linearGradient3178-3" gradientUnits="userSpaceOnUse" gradientTransform="matrix(1.679991,0,0,1.5097216,-17.475043,-2.89742)" x1="49.68779" y1="11.19287" x2="49.68779" y2="21.128477" />
    <linearGradient gradientUnits="userSpaceOnUse" id="linearGradient1022-8-8-3-0-3-3" x2="0" y1="3.0069399" y2="11.02436">
      <stop offset="0" id="stop3001-0-9-4-4-7" />
      <stop offset="1" stop-color="#363636" id="stop3003-5-6-6-9-9" />
    </linearGradient>
    <radialGradient inkscape:collect="always" xlink:href="#linearGradient4024" id="radialGradient4030" cx="29" cy="27" fx="29" fy="27" r="20" gradientTransform="matrix(1,0,0,0.9,0,2.7)" gradientUnits="userSpaceOnUse" />
    <radialGradient inkscape:collect="always" xlink:href="#linearGradient4093" id="radialGradient4052" gradientUnits="userSpaceOnUse" gradientTransform="matrix(1.624861,0,0,1.624861,-14.996663,-14.371804)" cx="23.23012" cy="30.236851" fx="23.23012" fy="30.236851" r="20.484526" />
    <linearGradient inkscape:collect="always" xlink:href="#linearGradient4427" id="linearGradient4433" x1="11" y1="2" x2="11" y2="44" gradientUnits="userSpaceOnUse" />
    <clipPath clipPathUnits="userSpaceOnUse" id="clipPath4459">
      <rect ry="2.5" y="3" x="4" height="40" width="40" id="rect4461" style="color:#000000;fill:#000000;fill-opacity:1;fill-rule:nonzero;stroke:none;stroke-width:1;marker:none;visibility:visible;display:inline;overflow:visible;enable-background:accumulate" />
    </clipPath>
  </defs>
  <sodipodi:namedview id="base" pagecolor="#ffffff" bordercolor="#666666" borderopacity="1.0" inkscape:pageopacity="0.0" inkscape:pageshadow="2" inkscape:zoom="11.313708" inkscape:cx="40.825411" inkscape:cy="28.472868" inkscape:current-layer="layer1" showgrid="true" inkscape:grid-bbox="true" inkscape:document-units="px" inkscape:window-width="1280" inkscape:window-height="974" inkscape:window-x="0" inkscape:window-y="28" inkscape:window-maximized="1" inkscape:snap-to-guides="true" inkscape:snap-grids="true">
    <inkscape:grid type="xygrid" id="grid1021" empspacing="5" visible="true" enabled="true" snapvisiblegridlinesonly="true" />
  </sodipodi:namedview>
  <metadata id="metadata4705">
    <rdf:RDF>
      <cc:Work rdf:about="">
        <dc:format>image/svg+xml</dc:format>
        <dc:type rdf:resource="http://purl.org/dc/dcmitype/StillImage" />
        <dc:title />
      </cc:Work>
    </rdf:RDF>
  </metadata>
  <g id="layer1" inkscape:label="Layer 1" inkscape:groupmode="layer">
    <g id="g3247" transform="matrix(0.96748515,0,0,1,0.78035637,0)">
      <path inkscape:connector-curvature="0" style="opacity:0.5;fill:url(#radialGradient3252);fill-opacity:1;fill-rule:nonzero;stroke:none;stroke-width:104.96237946;marker:none;visibility:visible;display:inline;overflow:visible" id="path5058" d="m 39.002912,40.048732 c 0,0 0,7.042675 0,7.042675 3.200171,0.01326 7.736457,-1.577906 7.736455,-3.52179 0,-1.943885 -3.57115,-3.520884 -7.736455,-3.520885 z" />
      <rect style="opacity:0.5;fill:url(#linearGradient3254);fill-opacity:1;fill-rule:nonzero;stroke:none;stroke-width:104.96237946;marker:none;visibility:visible;display:inline;overflow:visible" id="rect4173" y="40.048485" x="8.9970894" height="7.0430632" width="30.005821" />
      <path inkscape:connector-curvature="0" style="opacity:0.5;fill:url(#radialGradient3256);fill-opacity:1;fill-rule:nonzero;stroke:none;stroke-width:104.96237946;marker:none;visibility:visible;display:inline;overflow:visible" id="path5018" d="m 8.9970897,40.048732 c 0,0 0,7.042675 0,7.042675 -3.2001721,0.01326 -7.7364568,-1.577906 -7.7364568,-3.52179 0,-1.943885 3.57115,-3.520884 7.7364568,-3.520885 z" />
    </g>
    <rect style="color:#000000;fill:url(#radialGradient4052);fill-opacity:1;fill-rule:nonzero;stroke:url(#linearGradient4433);stroke-width:1;stroke-miterlimit:4;stroke-opacity:1;stroke-dasharray:none;marker:none;visibility:visible;display:inline;overflow:visible;enable-background:accumulate" id="rect3117" width="41" height="41" x="3.5" y="2.5" ry="3" />
    <g id="layer2" style="display:none" transform="translate(5.204491,-179.6879)">
      <rect width="86" height="85" rx="6" ry="6" x="5" y="7" id="rect3745" style="opacity:0.9;fill:url(#ButtonShadow);fill-opacity:1;fill-rule:nonzero;stroke:none;filter:url(#filter3174)" />
    </g>
    <g id="layer4" transform="translate(5.204491,-179.6879)" />
    <g id="layer2-1" style="display:none" transform="translate(65.63885,-180.48075)">
      <rect width="86" height="85" rx="6" ry="6" x="5" y="7" id="rect3745-3" style="opacity:0.9;fill:url(#ButtonShadow-47);fill-opacity:1;fill-rule:nonzero;stroke:none;filter:url(#filter3174-3)" />
    </g>
    <g id="layer4-0" transform="translate(65.63885,-180.48075)" />
    <g id="layer2-7" style="display:none" transform="translate(-17.802244,-151.69445)">
      <rect width="86" height="85" rx="6" ry="6" x="5" y="7" id="rect3745-9" style="opacity:0.9;fill:url(#ButtonShadow-4);fill-opacity:1;fill-rule:nonzero;stroke:none;filter:url(#filter3174-9)" />
    </g>
    <g id="layer4-6" transform="translate(-17.802244,-151.69445)" />
    <g transform="matrix(0.08436872,0,0,0.08436872,-30.776624,16.727447)" id="g5892" style="stroke:none" />
    <rect width="38.975693" height="38.975693" ry="2" x="4.5121527" y="3.5121546" id="rect4513" style="opacity:0.50000000000000000;color:#000000;fill:none;stroke:url(#linearGradient4523-1);stroke-width:1;stroke-linecap:butt;stroke-linejoin:miter;stroke-miterlimit:4;stroke-opacity:1;stroke-dasharray:none;stroke-dashoffset:0;marker:none;visibility:visible;display:inline;overflow:visible;enable-background:accumulate" rx="2.0000005" />
    <path style="opacity:0.98999999;fill:url(#linearGradient4797)" inkscape:connector-curvature="0" d="m 21,2.9999994 20.4529,0 c 1.27283,0 2.547098,1.01274 2.547098,2.502933 l 0,33.4970676 -12.750639,0 z" id="path57-5" sodipodi:nodetypes="cssccc" />
    <g id="g4439" clip-path="url(#clipPath4459)">
      <path id="path3147" d="M 17.4375 8 C 12.232234 8 8 12.32895 8 17.65625 C 8 20.232199 8.9861865 22.582432 10.59375 24.3125 C 10.52673 24.946457 10.53125 25.597813 10.53125 26.25 C 10.531253 31.43984 12.717401 36.099636 16.1875 39.34375 C 13.298575 36.17442 11.531252 31.926876 11.53125 27.25 C 11.53125 26.597813 11.52673 25.946457 11.59375 25.3125 C 9.9861865 23.582432 9 21.232199 9 18.65625 C 9 13.32895 13.232234 9 18.4375 9 C 20.231112 9 21.885248 9.5473946 23.3125 10.4375 C 25.051941 9.8376252 26.937893 9.53125 28.875 9.53125 C 33.375018 9.53125 37.450076 11.279341 40.53125 14.15625 C 37.367572 10.691348 32.874868 8.53125 27.875 8.53125 C 25.937893 8.53125 24.051941 8.837625 22.3125 9.4375 C 20.885248 8.547395 19.231112 8 17.4375 8 z M 36.96875 16.53125 C 37.400399 17.110015 37.65625 17.748209 37.65625 18.4375 C 37.65625 20.075447 36.56316 21.5 34.78125 21.5 C 32.101527 21.5 32.007523 18.28125 27.6875 18.28125 C 25.290998 18.28125 23.75 18.974341 23.75 20.46875 C 23.75 21.332905 24.181115 21.853834 24.90625 22.21875 C 24.812961 21.999212 24.75 21.759729 24.75 21.46875 C 24.75 19.974341 26.290998 19.28125 28.6875 19.28125 C 33.007523 19.28125 33.101527 22.5 35.78125 22.5 C 37.56316 22.5 38.65625 21.075447 38.65625 19.4375 C 38.65625 18.319856 38.017826 17.341711 36.96875 16.53125 z M 19.25 26.28125 C 20.525525 27.889702 22.601528 28.737056 25 29.34375 L 29.03125 30.34375 C 30.180367 30.640418 31.107538 30.849816 31.78125 31.1875 C 31.331399 30.157577 29.998582 29.851656 28.03125 29.34375 L 24 28.34375 C 22.160526 27.878455 20.49499 27.266103 19.25 26.28125 z M 37.9375 28.15625 C 38.742198 29.11454 39.25 30.173944 39.25 31.25 L 39.28125 31.96875 C 39.28125 37.203405 32.671759 39.5 28.25 39.5 C 24.399653 39.5 20.968038 38.410554 18.90625 36.75 C 20.699 38.944475 24.686976 40.5 29.25 40.5 C 33.671759 40.5 40.28125 38.203405 40.28125 32.96875 L 40.25 32.25 C 40.25 30.781075 39.28887 29.365943 37.9375 28.15625 z " style="opacity:0.69999999999999996;color:#000000;fill:url(#linearGradient3178-3);fill-opacity:1;fill-rule:nonzero;stroke:none;stroke-width:1;marker:none;visibility:visible;display:inline;overflow:visible;enable-background:accumulate" />
      <path inkscape:connector-curvature="0" d="m 40.284505,32.954341 c 0,5.234655 -6.601967,7.533624 -11.023726,7.533624 -6.194036,0 -11.359646,-2.834026 -11.359646,-6.297036 0,-1.535218 0.845584,-2.926898 2.769105,-2.926898 2.96021,0 3.243447,4.328422 8.308682,4.328422 2.437736,0 3.988653,-1.113057 3.988653,-2.545559 0,-1.782863 -1.501409,-2.071333 -3.937788,-2.700333 l -4.038162,-1.000496 c -3.988655,-1.008931 -7.09049,-2.70035 -7.09049,-7.411519 0,-5.708845 5.539572,-7.832256 10.281709,-7.832256 5.206844,0 10.474186,2.123411 10.474186,5.338762 0,1.637947 -1.08757,3.071843 -2.86948,3.071843 -2.679723,0 -2.770467,-3.216776 -7.09049,-3.216776 -2.396502,0 -3.947421,0.669811 -3.947421,2.16422 0,1.629481 1.550919,2.020676 3.665558,2.496295 l 2.859851,0.679671 c 3.294329,0.762678 8.974894,4.020062 8.974894,7.606914 M 18.424966,9 C 13.2197,9 9,13.318631 9,18.645931 c 0,2.575949 0.9730815,4.930221 2.580645,6.660289 -0.06702,0.633957 -0.05611,1.299965 -0.05611,1.952152 C 11.52454,37.057737 19.284864,45 28.859744,45 31.081517,45 33.190835,44.573648 35.143055,43.79426 36.470671,44.525342 37.961817,45 39.575034,45 44.780298,45 49,40.68137 49,35.354065 49,32.632946 47.909723,30.16038 46.138849,28.4067 c 0.02329,-0.376476 0.0561,-0.765837 0.0561,-1.148328 0,-9.799365 -7.760322,-17.7416234 -17.335205,-17.7416234 -1.937107,0 -3.814556,0.3187836 -5.553997,0.9186584 C 21.878495,9.5453016 20.218576,9 18.424964,9 z" style="color:#000000;fill:url(#radialGradient4030);fill-opacity:1;fill-rule:nonzero;stroke:none;stroke-width:0.97368412999999998;marker:none;visibility:visible;display:inline;overflow:visible;enable-background:accumulate" id="path3268" />
    </g>
  </g>
</svg>
