<?xml version="1.0" encoding="UTF-8" standalone="no"?>
<!-- Created with Inkscape (http://www.inkscape.org/) -->

<svg
   xmlns:dc="http://purl.org/dc/elements/1.1/"
   xmlns:cc="http://creativecommons.org/ns#"
   xmlns:rdf="http://www.w3.org/1999/02/22-rdf-syntax-ns#"
   xmlns:svg="http://www.w3.org/2000/svg"
   xmlns="http://www.w3.org/2000/svg"
   xmlns:xlink="http://www.w3.org/1999/xlink"
   xmlns:sodipodi="http://sodipodi.sourceforge.net/DTD/sodipodi-0.dtd"
   xmlns:inkscape="http://www.inkscape.org/namespaces/inkscape"
   width="48px"
   height="48px"
   id="svg4700"
   version="1.1"
   inkscape:version="0.48.3.1 r9886"
   sodipodi:docname="sylpheed48.svg">
  <defs
     id="defs4702">
    <linearGradient
       id="linearGradient7611">
      <stop
         style="stop-color:#ffffff;stop-opacity:1;"
         offset="0"
         id="stop7613" />
      <stop
         style="stop-color:#ffffff;stop-opacity:0;"
         offset="1"
         id="stop7615" />
    </linearGradient>
    <linearGradient
       id="linearGradient4050">
      <stop
         id="stop4052"
         offset="0"
         style="stop-color:#ffffff;stop-opacity:0.66929132;" />
      <stop
         id="stop4054"
         offset="1"
         style="stop-color:#ffffff;stop-opacity:0;" />
    </linearGradient>
    <filter
       id="filter3174"
       color-interpolation-filters="sRGB">
      <feGaussianBlur
         stdDeviation="1.71"
         id="feGaussianBlur3176" />
    </filter>
    <linearGradient
       gradientTransform="scale(1.0058652,0.994169)"
       gradientUnits="userSpaceOnUse"
       id="ButtonShadow"
       y2="7.0165396"
       x2="45.447727"
       y1="92.539597"
       x1="45.447727">
      <stop
         offset="0"
         style="stop-color:#000000;stop-opacity:1"
         id="stop3750" />
      <stop
         offset="1"
         style="stop-color:#000000;stop-opacity:0.58823532"
         id="stop3752" />
    </linearGradient>
    <linearGradient
       inkscape:collect="always"
       xlink:href="#linearGradient4050"
       id="linearGradient4523"
       x1="22.440199"
       y1="4.8942533"
       x2="22.440199"
       y2="38.21666"
       gradientUnits="userSpaceOnUse"
       gradientTransform="matrix(0.99857425,0,0,0.98146517,-0.81332958,1.8059619)" />
    <filter
       inkscape:collect="always"
       id="filter3914"
       x="-0.11821404"
       width="1.2364281"
       y="-0.63989862"
       height="2.2797972">
      <feGaussianBlur
         inkscape:collect="always"
         stdDeviation="1.8717561"
         id="feGaussianBlur3916" />
    </filter>
    <linearGradient
       gradientTransform="scale(1.0058652,0.994169)"
       gradientUnits="userSpaceOnUse"
       xlink:href="#ButtonShadow-4"
       id="linearGradient2875"
       y2="7.0165396"
       x2="45.447727"
       y1="92.539597"
       x1="45.447727" />
    <filter
       id="filter3174-2"
       color-interpolation-filters="sRGB">
      <feGaussianBlur
         stdDeviation="1.71"
         id="feGaussianBlur3176-2" />
    </filter>
    <linearGradient
       gradientTransform="scale(1.0058652,0.994169)"
       gradientUnits="userSpaceOnUse"
       id="ButtonShadow-4"
       y2="7.0165396"
       x2="45.447727"
       y1="92.539597"
       x1="45.447727">
      <stop
         offset="0"
         style="stop-color:#000000;stop-opacity:1"
         id="stop3750-6" />
      <stop
         offset="1"
         style="stop-color:#000000;stop-opacity:0.58823532"
         id="stop3752-9" />
    </linearGradient>
    <linearGradient
       x1="45.447727"
       y1="92.539597"
       x2="45.447727"
       y2="7.0165396"
       id="ButtonShadow-0"
       gradientUnits="userSpaceOnUse"
       gradientTransform="scale(1.0058652,0.994169)">
      <stop
         id="stop3750-74"
         style="stop-color:#000000;stop-opacity:1"
         offset="0" />
      <stop
         id="stop3752-4"
         style="stop-color:#000000;stop-opacity:0.58823532"
         offset="1" />
    </linearGradient>
    <filter
       color-interpolation-filters="sRGB"
       id="filter3174-3">
      <feGaussianBlur
         id="feGaussianBlur3176-21"
         stdDeviation="1.71" />
    </filter>
    <linearGradient
       id="linearGradient3242-967-12-570-862-307-5-2-3">
      <stop
         id="stop4498-9-9-5"
         style="stop-color:#ffffff;stop-opacity:1"
         offset="0" />
      <stop
         id="stop4504-8-9-0"
         style="stop-color:#999999;stop-opacity:1"
         offset="1" />
    </linearGradient>
    <linearGradient
       id="linearGradient2490-495-150-777-3-6-38">
      <stop
         id="stop4108-9-0-26"
         style="stop-color:#5a5a5a;stop-opacity:1;"
         offset="0" />
      <stop
         id="stop4110-50-0-8"
         style="stop-color:#bebebe;stop-opacity:1;"
         offset="1" />
    </linearGradient>
    <linearGradient
       id="linearGradient3866-21">
      <stop
         offset="0"
         style="stop-color:#828282;stop-opacity:1"
         id="stop3868-2" />
      <stop
         offset="0.5"
         style="stop-color:#8f8f8f;stop-opacity:0.63478261"
         id="stop3872-10" />
      <stop
         offset="1"
         style="stop-color:#9d9d9d;stop-opacity:0"
         id="stop3870-8" />
    </linearGradient>
    <linearGradient
       id="linearGradient3333-4-0">
      <stop
         offset="0"
         style="stop-color:#ffffff;stop-opacity:1"
         id="stop3335-4-28" />
      <stop
         offset="1"
         style="stop-color:#ffffff;stop-opacity:0"
         id="stop3337-7-5" />
    </linearGradient>
    <linearGradient
       id="linearGradient3495-6">
      <stop
         offset="0"
         style="stop-color:#000000;stop-opacity:1"
         id="stop3497-2" />
      <stop
         offset="0.5"
         style="stop-color:#000000;stop-opacity:0.49803922"
         id="stop3874-3" />
      <stop
         offset="1"
         style="stop-color:#000000;stop-opacity:0"
         id="stop3499-16" />
    </linearGradient>
    <linearGradient
       inkscape:collect="always"
       xlink:href="#linearGradient3333-4-0"
       id="linearGradient7568"
       gradientUnits="userSpaceOnUse"
       gradientTransform="matrix(0.97991377,0,0,1.0614898,0.3283219,-7.3461544)"
       spreadMethod="reflect"
       x1="25.525208"
       y1="30.188753"
       x2="25.525208"
       y2="15.737678" />
    <linearGradient
       inkscape:collect="always"
       xlink:href="#linearGradient3866-21"
       id="linearGradient7571"
       gradientUnits="userSpaceOnUse"
       gradientTransform="matrix(0.97991377,0,0,1.0614898,0.3283219,-8.7260911)"
       spreadMethod="reflect"
       x1="25.525208"
       y1="30.188753"
       x2="25.525208"
       y2="15.737678" />
    <linearGradient
       inkscape:collect="always"
       xlink:href="#linearGradient3495-6"
       id="linearGradient7583"
       gradientUnits="userSpaceOnUse"
       gradientTransform="matrix(0.97796482,0,0,1.1328302,0.46919038,-9.2834572)"
       x1="23.903786"
       y1="35.75"
       x2="23.903786"
       y2="20.443331" />
    <linearGradient
       inkscape:collect="always"
       xlink:href="#linearGradient7611"
       id="linearGradient7617"
       x1="23.804403"
       y1="24.519764"
       x2="23.804403"
       y2="13.771533"
       gradientUnits="userSpaceOnUse"
       gradientTransform="translate(0,2.6592335)" />
    <linearGradient
       inkscape:collect="always"
       xlink:href="#linearGradient3242-967-12-570-862-307-5-2-3"
       id="linearGradient7619"
       gradientUnits="userSpaceOnUse"
       gradientTransform="matrix(1.0007554,0,0,1.0007942,-44.996476,-5.48423)"
       x1="66.726517"
       y1="9.5999746"
       x2="66.726517"
       y2="49.670246" />
    <linearGradient
       inkscape:collect="always"
       xlink:href="#linearGradient2490-495-150-777-3-6-38"
       id="linearGradient7621"
       gradientUnits="userSpaceOnUse"
       gradientTransform="matrix(1.0007553,0,0,1.1022865,-44.996476,-10.000624)"
       x1="82.292419"
       y1="48.830688"
       x2="82.292419"
       y2="12.76959" />
    <linearGradient
       inkscape:collect="always"
       xlink:href="#linearGradient3866-21"
       id="linearGradient7625"
       gradientUnits="userSpaceOnUse"
       gradientTransform="matrix(0.97991446,0,0,1.0659661,0.32831978,-8.8088144)"
       spreadMethod="reflect"
       x1="25.525208"
       y1="30.188753"
       x2="25.525208"
       y2="15.737678" />
  </defs>
  <sodipodi:namedview
     id="base"
     pagecolor="#ffffff"
     bordercolor="#666666"
     borderopacity="1.0"
     inkscape:pageopacity="0.0"
     inkscape:pageshadow="2"
     inkscape:zoom="26.545967"
     inkscape:cx="3.0640472"
     inkscape:cy="7.535426"
     inkscape:current-layer="g10781"
     showgrid="true"
     inkscape:grid-bbox="true"
     inkscape:document-units="px"
     inkscape:window-width="1019"
     inkscape:window-height="888"
     inkscape:window-x="178"
     inkscape:window-y="60"
     inkscape:window-maximized="0"
     inkscape:snap-to-guides="false"
     inkscape:snap-grids="false">
    <inkscape:grid
       type="xygrid"
       id="grid1021"
       empspacing="5"
       visible="true"
       enabled="true"
       snapvisiblegridlinesonly="true" />
  </sodipodi:namedview>
  <metadata
     id="metadata4705">
    <rdf:RDF>
      <cc:Work
         rdf:about="">
        <dc:format>image/svg+xml</dc:format>
        <dc:type
           rdf:resource="http://purl.org/dc/dcmitype/StillImage" />
        <dc:title />
      </cc:Work>
    </rdf:RDF>
  </metadata>
  <g
     id="layer1"
     inkscape:label="Layer 1"
     inkscape:groupmode="layer">
    <rect
       style="color:#000000;fill:#000000;fill-opacity:0.4160839;fill-rule:nonzero;stroke:none;stroke-width:1;marker:none;visibility:visible;display:inline;overflow:visible;filter:url(#filter3914);enable-background:accumulate"
       id="rect3132"
       width="38.000687"
       height="7.0201974"
       x="5.9894505"
       y="60.145714"
       ry="6.2401762"
       rx="4.0000725"
       transform="matrix(0.99998193,0,0,0.64100762,-0.98934223,2.9461394)" />
    <rect
       style="color:#000000;fill:url(#linearGradient7619);fill-opacity:1;fill-rule:evenodd;stroke:url(#linearGradient7621);stroke-width:1;stroke-linecap:square;stroke-linejoin:round;stroke-miterlimit:4;stroke-opacity:1;stroke-dasharray:none;stroke-dashoffset:0;marker:none;visibility:visible;display:inline;overflow:visible;enable-background:accumulate"
       id="rect3117"
       width="41"
       height="39"
       x="3.5"
       y="4.5"
       ry="3.0000002"
       rx="3" />
    <g
       id="layer2"
       style="display:none"
       transform="translate(5.204491,-179.6879)">
      <rect
         width="86"
         height="85"
         rx="6"
         ry="6"
         x="5"
         y="7"
         id="rect3745"
         style="opacity:0.9;fill:url(#ButtonShadow);fill-opacity:1;fill-rule:nonzero;stroke:none;filter:url(#filter3174)" />
    </g>
    <g
       id="layer4"
       transform="translate(5.204491,-179.6879)" />
    <g
       id="layer2-9"
       style="display:none"
       transform="translate(-65.348932,-154.8626)">
      <rect
         width="86"
         height="85"
         rx="6"
         ry="6"
         x="5"
         y="7"
         id="rect3745-1"
         style="opacity:0.9;fill:url(#ButtonShadow-0);fill-opacity:1;fill-rule:nonzero;stroke:none;filter:url(#filter3174-3)" />
    </g>
    <g
       id="layer4-0"
       transform="translate(-65.348932,-154.8626)" />
    <g
       id="layer2-7"
       style="display:none"
       transform="translate(63.017297,-9.203493)">
      <path
         d="m 11,7.0000001 c -2.8840938,0 -5.2600098,2.0142918 -5.84375,4.7187499 2.508553,0.0336 4.5312502,2.077266 4.53125,4.59375 0,2.53742 -2.0563306,4.59375 -4.59375,4.59375 -0.031404,0 -0.062496,6.28e-4 -0.09375,0 l 0,7.15625 c 0.031254,-6.28e-4 0.062346,0 0.09375,0 2.5374193,0 4.5937502,2.056331 4.59375,4.59375 0,2.53742 -2.0563306,4.593749 -4.59375,4.59375 -0.031404,0 -0.062496,6.28e-4 -0.09375,0 l 0,7.15625 c 0.031254,-6.28e-4 0.062346,0 0.09375,0 2.5374193,0 4.5937502,2.056331 4.59375,4.59375 0,2.53742 -2.0563306,4.593749 -4.59375,4.59375 -0.031404,0 -0.062496,6.28e-4 -0.09375,0 L 5,60.75 c 0.031254,-6.28e-4 0.062346,0 0.09375,0 2.5374193,0 4.5937502,2.056331 4.59375,4.59375 0,2.53742 -2.0563306,4.593753 -4.59375,4.59375 -0.031404,0 -0.062496,6.28e-4 -0.09375,0 l 0,7.15625 c 0.031254,-6.28e-4 0.062346,0 0.09375,0 2.5374193,-4e-6 4.5937502,2.056332 4.59375,4.59375 0,2.537416 -2.0563306,4.593753 -4.59375,4.59375 -0.031404,0 -0.062496,6.28e-4 -0.09375,0 C 5.1443858,89.475105 7.7692544,92 11,92 l 0.21875,0 c -6.28e-4,-0.03125 0,-0.06235 0,-0.09375 0,-2.53742 2.05633,-4.593748 4.59375,-4.59375 2.53742,0 4.59375,2.056327 4.59375,4.59375 0,0.0314 6.28e-4,0.0625 0,0.09375 l 7.15625,0 c -6.28e-4,-0.03125 0,-0.06235 0,-0.09375 0,-2.53742 2.056329,-4.593748 4.59375,-4.59375 2.53742,0 4.593752,2.056327 4.59375,4.59375 0,0.0314 6.28e-4,0.0625 0,0.09375 l 7.15625,0 c -6.28e-4,-0.03125 0,-0.06235 0,-0.09375 0,-2.53742 2.056329,-4.593748 4.59375,-4.59375 2.53742,0 4.593748,2.056327 4.59375,4.59375 0,0.0314 6.28e-4,0.0625 0,0.09375 L 60.25,92 c -6.28e-4,-0.03125 0,-0.06235 0,-0.09375 0,-2.53742 2.056333,-4.593748 4.59375,-4.59375 2.53742,0 4.593749,2.056327 4.59375,4.59375 0,0.0314 6.28e-4,0.0625 0,0.09375 l 7.15625,0 c -6.28e-4,-0.03125 0,-0.06235 0,-0.09375 -5e-6,-2.53742 2.056334,-4.593748 4.59375,-4.59375 2.537416,0 4.593749,2.056327 4.59375,4.59375 0,0.01047 7e-5,0.0208 0,0.03125 2.865173,-0.366463 5.086108,-2.72217 5.21875,-5.65625 -0.03125,6.28e-4 -0.06235,0 -0.09375,0 -2.53742,-3e-6 -4.593748,-2.05633 -4.59375,-4.59375 0,-2.537423 2.056327,-4.593752 4.59375,-4.59375 0.0314,0 0.0625,-6.28e-4 0.09375,0 l 0,-7.15625 c -0.03125,6.28e-4 -0.06235,0 -0.09375,0 -2.53742,10e-7 -4.593748,-2.056331 -4.59375,-4.59375 0,-2.537419 2.056327,-4.593749 4.59375,-4.59375 0.0314,0 0.0625,-6.28e-4 0.09375,0 l 0,-7.15625 c -0.03125,6.28e-4 -0.06235,0 -0.09375,0 -2.53742,10e-7 -4.593748,-2.056331 -4.59375,-4.59375 0,-2.537419 2.056327,-4.593749 4.59375,-4.59375 0.0314,0 0.0625,-6.28e-4 0.09375,0 L 91,37.25 c -0.03125,6.28e-4 -0.06235,0 -0.09375,0 -2.53742,10e-7 -4.593748,-2.056331 -4.59375,-4.59375 0,-2.537419 2.056327,-4.593749 4.59375,-4.59375 0.0314,0 0.0625,-6.28e-4 0.09375,0 l 0,-7.15625 c -0.03125,6.28e-4 -0.06235,0 -0.09375,0 -2.53742,1e-6 -4.593748,-2.056332 -4.59375,-4.59375 0,-2.516483 2.022694,-4.560154 4.53125,-4.59375 -0.537373,-2.4896402 -2.580279,-4.4005759 -5.15625,-4.6874999 -0.428865,2.094046 -2.279755,3.6562499 -4.5,3.6562499 -2.230714,0 -4.082641,-1.5787032 -4.5,-3.6874999 l -7.34375,0 c -0.417358,2.1087966 -2.269287,3.6874999 -4.5,3.6874999 -2.23071,0 -4.082641,-1.5787032 -4.5,-3.6874999 l -7.34375,0 C 52.582641,9.1087967 50.730709,10.6875 48.5,10.6875 c -2.23071,0 -4.082641,-1.5787032 -4.5,-3.6874999 l -7.34375,0 c -0.417359,2.1087966 -2.269291,3.6874999 -4.5,3.6874999 -2.23071,0 -4.082641,-1.5787032 -4.5,-3.6874999 l -7.34375,0 c -0.417359,2.1087966 -2.269291,3.6874999 -4.5,3.6874999 -2.23071,0 -4.082641,-1.5787032 -4.5,-3.6874999 l -0.3125,0 z"
         inkscape:connector-curvature="0"
         id="rect3745-6"
         style="opacity:0.9;fill:url(#linearGradient2875);fill-opacity:1;fill-rule:nonzero;stroke:none;display:inline;filter:url(#filter3174-2)" />
    </g>
    <path
       style="fill:none;stroke:url(#linearGradient7625);stroke-width:1.00000012;stroke-linecap:butt;stroke-linejoin:miter;stroke-miterlimit:4;stroke-opacity:1;stroke-dasharray:none;stroke-dashoffset:0;marker:none;visibility:visible;display:inline;overflow:visible;enable-background:accumulate"
       d="M 3.5000138,8.633591 23.846266,28.499999 44.500015,8.4999999"
       id="path7599"
       inkscape:connector-curvature="0" />
    <path
       style="fill:none;stroke:url(#linearGradient7571);stroke-width:1.00000012;stroke-linecap:butt;stroke-linejoin:miter;stroke-miterlimit:4;stroke-opacity:1;stroke-dasharray:none;stroke-dashoffset:0;marker:none;visibility:visible;display:inline;overflow:visible;enable-background:accumulate"
       d="M 18.609838,23.649348 5.4049514,38.120063 18.609838,23.649348 z"
       id="path7597" />
    <path
       style="fill:none;stroke:url(#linearGradient7571);stroke-width:1.00000012;stroke-linecap:butt;stroke-linejoin:miter;stroke-miterlimit:4;stroke-opacity:1;stroke-dasharray:none;stroke-dashoffset:0;marker:none;visibility:visible;display:inline;overflow:visible;enable-background:accumulate"
       d="M 29.113289,23.715688 42.410046,37.854 29.113289,23.715688 z"
       id="path6757" />
    <path
       style="opacity:0.7;fill:none;stroke:url(#linearGradient7568);stroke-width:1.00000012;stroke-linecap:butt;stroke-linejoin:miter;stroke-miterlimit:4;stroke-opacity:1;stroke-dasharray:none;stroke-dashoffset:0;marker:none;visibility:visible;display:inline;overflow:visible;enable-background:accumulate"
       d="M 18.609838,25.029285 5.4049514,39.5 18.609838,25.029285 z"
       id="path7575" />
    <path
       style="opacity:0.7;fill:none;stroke:url(#linearGradient7568);stroke-width:1.00000012;stroke-linecap:butt;stroke-linejoin:miter;stroke-miterlimit:4;stroke-opacity:1;stroke-dasharray:none;stroke-dashoffset:0;marker:none;visibility:visible;display:inline;overflow:visible;enable-background:accumulate"
       d="M 29.113289,25.095628 42.410046,39.23394 29.113289,25.095628 z"
       id="path6759" />
    <path
       style="opacity:0.2;fill:none;stroke:url(#linearGradient7583);stroke-width:1.00000012;stroke-linecap:butt;stroke-linejoin:miter;stroke-miterlimit:4;stroke-opacity:1;stroke-dasharray:none"
       id="path6761"
       d="M 8.6206541,14.972621 23.940346,29.833478 39.071851,14.972621"
       inkscape:connector-curvature="0" />
    <path
       style="fill:url(#linearGradient7617);fill-opacity:1;stroke:none;stroke-width:1.00000011999999994;marker:none;visibility:visible;display:inline;overflow:visible;enable-background:accumulate"
       d="M 3.5000137,7.9838354 23.846252,27.766822 44.499986,7.8508053 z"
       id="path7593"
       inkscape:connector-curvature="0"
       sodipodi:nodetypes="ccc" />
    <path
       id="path4209"
       style="font-size:medium;font-style:normal;font-variant:normal;font-weight:normal;font-stretch:normal;text-indent:0;text-align:start;text-decoration:none;line-height:normal;letter-spacing:normal;word-spacing:normal;text-transform:none;direction:ltr;block-progression:tb;writing-mode:lr-tb;text-anchor:start;baseline-shift:baseline;color:#000000;fill:#4074c0;fill-opacity:1;fill-rule:evenodd;stroke:none;stroke-width:2;marker:none;visibility:visible;display:inline;overflow:visible;enable-background:accumulate;font-family:Sans;-inkscape-font-specification:Sans"
       d="m 20.773743,17.593985 c 1.542657,0 2.739041,0.812511 3.580494,1.639284 -0.781229,0.348152 -1.657092,0.594466 -2.702585,0.594466 -1.284161,0 -2.043717,-0.669913 -2.203381,-1.206945 -0.07983,-0.268517 -0.04871,-0.493124 0.137712,-0.684537 0.186414,-0.191413 0.565214,-0.342268 1.18776,-0.342268 z M 25.11165,12.69415 c -0.582503,0.07137 -1.176461,0.349712 -1.738606,0.864676 -0.01243,0.0076 -0.02199,0.01031 -0.03443,0.01801 -0.01292,0.01208 -0.02153,0.02368 -0.03443,0.03603 a 0.27843318,0.29137605 0 0 0 0.327064,0.468366 c 0.980895,-0.608938 1.78906,-0.575974 2.375522,-0.216169 0.586459,0.359805 0.963978,1.082803 0.963978,1.927509 0,1.084517 -0.516039,2.066455 -1.445968,2.810199 -0.151199,0.120927 -0.378575,0.182239 -0.550846,0.288227 -0.943015,-1.194836 -2.304702,-2.431905 -4.30348,-2.431905 -1.453731,0.02409 -2.37297,1.067305 -2.237808,2.161693 0.06757,0.547192 0.393276,1.081779 0.96398,1.459142 0.5707,0.377363 1.388771,0.612479 2.461588,0.612479 0.965995,0 2.094063,-0.253699 3.167362,-0.648507 0.262718,0.373359 0.70577,0.936732 0.70577,0.936732 a 0.28101475,0.29407761 0 0 0 0.499205,-0.270211 c 0,0 -0.446509,-0.590243 -0.619702,-0.882691 0.163541,-0.07464 0.342673,-0.112607 0.499205,-0.198154 1.331607,-0.727754 2.392733,-1.901003 2.392733,-3.530764 0,-1.275293 -0.684783,-2.451041 -1.686963,-3.044384 -0.50109,-0.296671 -1.097511,-0.434603 -1.704179,-0.360282 z m 0.03443,-3.6568593 c -1.137615,0 -2.178719,0.3683364 -2.943582,1.0087873 -0.764862,0.640451 -1.256615,1.557237 -1.256615,2.612044 0,1.077871 0.610202,1.989183 1.463182,2.395875 0.828887,0.395204 1.884771,0.256985 2.771442,-0.576451 0.01928,-0.01813 0.04976,8e-4 0.06886,-0.01801 0.0064,-0.0063 0.01076,-0.01161 0.01721,-0.01801 a 0.27843318,0.29137605 0 0 0 -0.361493,-0.432339 c -0.0073,0.0056 -0.01,0.0124 -0.01722,0.01801 -0.825884,0.635613 -1.584803,0.561355 -2.168953,0.216168 -0.589303,-0.348232 -0.960527,-1.015404 -0.929551,-1.567226 a 0.27843318,0.29137605 0 0 0 0,-0.01801 c 0,-0.745377 0.216374,-1.191722 0.568059,-1.513184 0.351686,-0.321463 0.861964,-0.512898 1.445968,-0.594466 1.168011,-0.163136 2.592822,0.0958 3.42557,0.216169 1.141974,0.165085 1.987399,-0.118758 2.54766,-0.450353 0.491773,-0.291058 0.679032,-0.5694171 0.740199,-0.6485058 0.0085,-0.01098 0.103286,-0.09007 0.103286,-0.09007 a 0.27843318,0.29137605 0 0 0 0.06885,-0.1621344 0.27843318,0.29137605 0 0 0 -0.395919,-0.2702101 c -1.645222,0.7659526 -3.416959,-0.07636 -5.146962,-0.108087 z"
       inkscape:connector-curvature="0" />
    <rect
       width="38.975693"
       height="36.975693"
       ry="1.9999999"
       x="4.5121527"
       y="5.5121546"
       id="rect4513"
       style="fill:none;stroke:url(#linearGradient4523);stroke-width:1.02430558;stroke-miterlimit:4;stroke-opacity:1;stroke-dasharray:none"
       rx="2.0000005" />
    <g
       id="g10781"
       transform="matrix(1.05,0,0,1.0526316,-1.2,40.842105)">
      <path
         id="path7691"
         d="M 6.5,-35 C 5.1322972,-35 4,-33.867703 4,-32.5 l 0,5.65625 2,-2 L 6,-32.5 C 6,-32.794297 6.2057028,-33 6.5,-33 l 3.65625,0 2,-2 L 6.5,-35 z"
         style="font-size:medium;font-style:normal;font-variant:normal;font-weight:normal;font-stretch:normal;text-indent:0;text-align:start;text-decoration:none;line-height:normal;letter-spacing:normal;word-spacing:normal;text-transform:none;direction:ltr;block-progression:tb;writing-mode:lr-tb;text-anchor:start;baseline-shift:baseline;color:#000000;fill:#c04040;fill-opacity:1;fill-rule:evenodd;stroke:none;stroke-width:2;marker:none;visibility:visible;display:inline;overflow:visible;enable-background:accumulate;font-family:Sans;-inkscape-font-specification:Sans"
         inkscape:connector-curvature="0" />
      <path
         id="path7689"
         d="m 17.78125,-35 -2,2 5.59375,0 2,-2 -5.59375,0 z"
         style="font-size:medium;font-style:normal;font-variant:normal;font-weight:normal;font-stretch:normal;text-indent:0;text-align:start;text-decoration:none;line-height:normal;letter-spacing:normal;word-spacing:normal;text-transform:none;direction:ltr;block-progression:tb;writing-mode:lr-tb;text-anchor:start;baseline-shift:baseline;color:#000000;fill:#4074c0;fill-opacity:1;fill-rule:evenodd;stroke:none;stroke-width:2;marker:none;visibility:visible;display:inline;overflow:visible;enable-background:accumulate;font-family:Sans;-inkscape-font-specification:Sans"
         inkscape:connector-curvature="0" />
      <path
         id="path7687"
         d="m 29.03125,-35 -2,2 5.5625,0 2,-2 -5.5625,0 z"
         style="font-size:medium;font-style:normal;font-variant:normal;font-weight:normal;font-stretch:normal;text-indent:0;text-align:start;text-decoration:none;line-height:normal;letter-spacing:normal;word-spacing:normal;text-transform:none;direction:ltr;block-progression:tb;writing-mode:lr-tb;text-anchor:start;baseline-shift:baseline;color:#000000;fill:#c04040;fill-opacity:1;fill-rule:evenodd;stroke:none;stroke-width:2;marker:none;visibility:visible;display:inline;overflow:visible;enable-background:accumulate;font-family:Sans;-inkscape-font-specification:Sans"
         inkscape:connector-curvature="0" />
      <path
         id="path7685"
         d="m 40.25,-35 -2,2 2.742627,0 C 41.434919,-33 42,-32.718381 42,-32.019201 l 0,0.831701 1.676021,-1.90625 C 43.031274,-34.320971 42.315477,-35 40.25,-35 z"
         style="font-size:medium;font-style:normal;font-variant:normal;font-weight:normal;font-stretch:normal;text-indent:0;text-align:start;text-decoration:none;line-height:normal;letter-spacing:normal;word-spacing:normal;text-transform:none;direction:ltr;block-progression:tb;writing-mode:lr-tb;text-anchor:start;baseline-shift:baseline;color:#000000;fill:#4074c0;fill-opacity:1;fill-rule:evenodd;stroke:none;stroke-width:2;marker:none;visibility:visible;display:inline;overflow:visible;enable-background:accumulate;font-family:Sans;-inkscape-font-specification:Sans"
         inkscape:connector-curvature="0"
         sodipodi:nodetypes="ccssccc" />
      <path
         id="path7683"
         d="m 44,-27.5625 -2,2 0,5.5625 2,-2 0,-5.5625 z"
         style="font-size:medium;font-style:normal;font-variant:normal;font-weight:normal;font-stretch:normal;text-indent:0;text-align:start;text-decoration:none;line-height:normal;letter-spacing:normal;word-spacing:normal;text-transform:none;direction:ltr;block-progression:tb;writing-mode:lr-tb;text-anchor:start;baseline-shift:baseline;color:#000000;fill:#c04040;fill-opacity:1;fill-rule:evenodd;stroke:none;stroke-width:2;marker:none;visibility:visible;display:inline;overflow:visible;enable-background:accumulate;font-family:Sans;-inkscape-font-specification:Sans"
         inkscape:connector-curvature="0" />
      <path
         id="path7681"
         d="m 6,-23.21875 -2,2 0,5.5625 2,-2 0,-5.5625 z"
         style="font-size:medium;font-style:normal;font-variant:normal;font-weight:normal;font-stretch:normal;text-indent:0;text-align:start;text-decoration:none;line-height:normal;letter-spacing:normal;word-spacing:normal;text-transform:none;direction:ltr;block-progression:tb;writing-mode:lr-tb;text-anchor:start;baseline-shift:baseline;color:#000000;fill:#4074c0;fill-opacity:1;fill-rule:evenodd;stroke:none;stroke-width:2;marker:none;visibility:visible;display:inline;overflow:visible;enable-background:accumulate;font-family:Sans;-inkscape-font-specification:Sans"
         inkscape:connector-curvature="0" />
      <path
         id="path7679"
         d="m 44,-16.3125 -2,2 0,5.59375 2,-2 0,-5.59375 z"
         style="font-size:medium;font-style:normal;font-variant:normal;font-weight:normal;font-stretch:normal;text-indent:0;text-align:start;text-decoration:none;line-height:normal;letter-spacing:normal;word-spacing:normal;text-transform:none;direction:ltr;block-progression:tb;writing-mode:lr-tb;text-anchor:start;baseline-shift:baseline;color:#000000;fill:#4074c0;fill-opacity:1;fill-rule:evenodd;stroke:none;stroke-width:2;marker:none;visibility:visible;display:inline;overflow:visible;enable-background:accumulate;font-family:Sans;-inkscape-font-specification:Sans"
         inkscape:connector-curvature="0" />
      <path
         id="path7677"
         d="m 6,-11.96875 -2,2 0,5.5625 2,-2 0,-5.5625 z"
         style="font-size:medium;font-style:normal;font-variant:normal;font-weight:normal;font-stretch:normal;text-indent:0;text-align:start;text-decoration:none;line-height:normal;letter-spacing:normal;word-spacing:normal;text-transform:none;direction:ltr;block-progression:tb;writing-mode:lr-tb;text-anchor:start;baseline-shift:baseline;color:#000000;fill:#c04040;fill-opacity:1;fill-rule:evenodd;stroke:none;stroke-width:2;marker:none;visibility:visible;display:inline;overflow:visible;enable-background:accumulate;font-family:Sans;-inkscape-font-specification:Sans"
         inkscape:connector-curvature="0" />
      <path
         id="path7675"
         d="m 44,-5.125 -2,2 0,3.625 C 42,0.794297 41.794297,1 41.5,1 l -3.625,0 -2,2 5.625,0 C 42.867703,3 44,1.867703 44,0.5 l 0,-5.625 z"
         style="font-size:medium;font-style:normal;font-variant:normal;font-weight:normal;font-stretch:normal;text-indent:0;text-align:start;text-decoration:none;line-height:normal;letter-spacing:normal;word-spacing:normal;text-transform:none;direction:ltr;block-progression:tb;writing-mode:lr-tb;text-anchor:start;baseline-shift:baseline;color:#000000;fill:#c04040;fill-opacity:1;fill-rule:evenodd;stroke:none;stroke-width:2;marker:none;visibility:visible;display:inline;overflow:visible;enable-background:accumulate;font-family:Sans;-inkscape-font-specification:Sans"
         inkscape:connector-curvature="0" />
      <path
         id="path7671"
         d="m 15.46875,1 -2,2 L 19,3 21,1 15.46875,1 z"
         style="font-size:medium;font-style:normal;font-variant:normal;font-weight:normal;font-stretch:normal;text-indent:0;text-align:start;text-decoration:none;line-height:normal;letter-spacing:normal;word-spacing:normal;text-transform:none;direction:ltr;block-progression:tb;writing-mode:lr-tb;text-anchor:start;baseline-shift:baseline;color:#000000;fill:#c04040;fill-opacity:1;fill-rule:evenodd;stroke:none;stroke-width:2;marker:none;visibility:visible;display:inline;overflow:visible;enable-background:accumulate;font-family:Sans;-inkscape-font-specification:Sans"
         inkscape:connector-curvature="0" />
      <path
         id="rect7627"
         d="m 26.65625,1 -2,2 5.625,0 2,-2 -5.625,0 z"
         style="font-size:medium;font-style:normal;font-variant:normal;font-weight:normal;font-stretch:normal;text-indent:0;text-align:start;text-decoration:none;line-height:normal;letter-spacing:normal;word-spacing:normal;text-transform:none;direction:ltr;block-progression:tb;writing-mode:lr-tb;text-anchor:start;baseline-shift:baseline;color:#000000;fill:#4074c0;fill-opacity:1;fill-rule:evenodd;stroke:none;stroke-width:2;marker:none;visibility:visible;display:inline;overflow:visible;enable-background:accumulate;font-family:Sans;-inkscape-font-specification:Sans"
         inkscape:connector-curvature="0" />
      <path
         sodipodi:nodetypes="ccssccc"
         inkscape:connector-curvature="0"
         style="font-size:medium;font-style:normal;font-variant:normal;font-weight:normal;font-stretch:normal;text-indent:0;text-align:start;text-decoration:none;line-height:normal;letter-spacing:normal;word-spacing:normal;text-transform:none;direction:ltr;block-progression:tb;writing-mode:lr-tb;text-anchor:start;baseline-shift:baseline;color:#000000;fill:#4074c0;fill-opacity:1;fill-rule:evenodd;stroke:none;stroke-width:2;marker:none;visibility:visible;display:inline;overflow:visible;enable-background:accumulate;font-family:Sans;-inkscape-font-specification:Sans"
         d="m 7.7487001,3.0000002 2,-2 -2.742627,0 c -0.442292,0 -1.007373,-0.28161901 -1.007373,-0.98079901 l 0,-0.83170097 -1.676021,1.90624998 c 0.644747,1.227221 1.360544,1.90625 3.426021,1.90625 z"
         id="path6136" />
    </g>
  </g>
</svg>
