<?xml version="1.0" encoding="UTF-8" standalone="no"?>
<svg xmlns:dc="http://purl.org/dc/elements/1.1/" xmlns:cc="http://creativecommons.org/ns#" xmlns:rdf="http://www.w3.org/1999/02/22-rdf-syntax-ns#" xmlns:svg="http://www.w3.org/2000/svg" xmlns="http://www.w3.org/2000/svg" xmlns:xlink="http://www.w3.org/1999/xlink" xmlns:sodipodi="http://sodipodi.sourceforge.net/DTD/sodipodi-0.dtd" xmlns:inkscape="http://www.inkscape.org/namespaces/inkscape" viewBox="0 0 48 48" id="svg2" version="1.1" inkscape:version="0.48.4 r9939" width="100%" height="100%" sodipodi:docname="synaptic.svg">
    <metadata id="metadata56">
        <rdf:RDF>
            <cc:Work rdf:about="">
                <dc:format>image/svg+xml</dc:format>
                <dc:type rdf:resource="http://purl.org/dc/dcmitype/StillImage" />
            </cc:Work>
        </rdf:RDF>
    </metadata>
    <sodipodi:namedview pagecolor="#ffffff" bordercolor="#666666" borderopacity="1" objecttolerance="10" gridtolerance="10" guidetolerance="10" inkscape:pageopacity="0" inkscape:pageshadow="2" inkscape:window-width="640" inkscape:window-height="480" id="namedview54" showgrid="false" inkscape:zoom="4.9166667" inkscape:cx="24" inkscape:cy="24.610169" inkscape:window-x="0" inkscape:window-y="24" inkscape:window-maximized="0" inkscape:current-layer="svg2" />
    <defs id="defs4">
        <linearGradient id="linearGradient5060">
            <stop offset="0" id="stop7" />
            <stop offset="1" stop-opacity="0" id="stop9" />
        </linearGradient>
        <linearGradient gradientUnits="userSpaceOnUse" id="linearGradient3127" x2="0" y1="38.7186" y2="45.76167">
            <stop offset="0" stop-opacity="0" id="stop12" />
            <stop offset=".5" id="stop14" />
            <stop offset="1" stop-opacity="0" id="stop16" />
        </linearGradient>
        <linearGradient gradientUnits="userSpaceOnUse" id="linearGradient3157-5" x1="-42.69615" x2="-5.84311">
            <stop offset="0" stop-color="#ae802b" id="stop19" />
            <stop offset="1" stop-color="#e1c18b" id="stop21" />
        </linearGradient>
        <linearGradient gradientUnits="userSpaceOnUse" id="linearGradient998" x1="6.40561" x2="41.36901">
            <stop offset="0" stop-color="#fff" stop-opacity=".5" id="stop24" />
            <stop offset="1" stop-color="#fff" stop-opacity="0" id="stop26" />
        </linearGradient>
        <radialGradient cx="605.71429" cy="486.64789" gradientTransform="matrix(.062142,0,0,.029001,1.636502,28.085503)" gradientUnits="userSpaceOnUse" id="radialGradient3129" r="117.14286" xlink:href="#linearGradient5060" />
        <radialGradient cx="605.71429" cy="486.64789" gradientTransform="matrix(-.062142,0,0,.029001,46.53201,28.085503)" gradientUnits="userSpaceOnUse" id="radialGradient3131" r="117.14286" xlink:href="#linearGradient5060" />
    </defs>
    <g transform="matrix(.833389,0,0,1,3.928449,0)" id="g30">
        <path d="m9.08134,38.7186h30.00582v7.04306h-30.00582z" fill="url(#linearGradient3127)" opacity=".5" id="path32" />
        <path d="m39.08716,38.71885v7.04268c3.20017.01326 7.73646-1.57791 7.73646-3.52179s-3.57115-3.52088-7.73646-3.52088z" fill="url(#radialGradient3129)" opacity=".5" id="path34" />
        <path d="m9.08134,38.71885v7.04268c-3.20017.01326-7.73646-1.57791-7.73646-3.52179s3.57115-3.52088 7.73646-3.52088z" fill="url(#radialGradient3131)" opacity=".5" id="path36" />
    </g>
    <path d="m-40.5-42.4999h33a2,2 0 0,1 2,2v32.9999a2,2 0 0,1 -2,2h-33a2,2 0 0,1 -2-2v-32.9999a2,2 0 0,1 2-2" fill="url(#linearGradient3157-5)" stroke="#66420d" stroke-linecap="round" stroke-linejoin="round" transform="matrix(0,-1,-1,0,0,0)" id="path38" />
    <path d="m7.5-41.5h33a1,1 0 0,1 1,1v33a1,1 0 0,1 -1,1h-33a1,1 0 0,1 -1-1v-33a1,1 0 0,1 1-1" fill="none" stroke="url(#linearGradient998)" stroke-linecap="round" stroke-linejoin="round" transform="matrix(0,1,-1,0,0,0)" id="path40" />
    <path d="m26,33h13v7h-13z" fill="#fff" id="path42" />
    <path d="m27,34v5h1v-5h-1zm2,0v5h2v-5h-2zm3,0v5h1v-5h-1zm2,0v5h1v-5h-1zm2,0v5h2v-5h-2z" fill="#6a6a6a" id="path44" />
    <path d="m-40,10h1v11h-1z" fill="#8c5911" transform="matrix(0,-1,1,0,0,0)" id="path46" />
    <path d="m12,33v1h-1v1h-1v1h2v3h1v-3h2v-1h-1v-1h-1v-1z" fill="#8c5911" id="path48" />
    <path d="m18,33v1h-1v1h-1v1h2v3h1v-3h2v-1h-1v-1h-1v-1z" fill="#8c5911" id="path50" />
    <path d="m 24.09305,7.06322 c -0.54799,6.23656 -5.82169,11.15098 -12.19983,11.15098 -1.8381,0 -3.57052,-0.43193 -5.13386,-1.15926 l -0.0256,6.0577 c 1.91283,0.66672 3.01525,1.00826 5.15946,1.00826 1.68062,0 3.31329,-0.23505 4.85785,-0.66244 0.273,-1.67885 1.33701,-3.16729 2.92575,-4.08501 1.58874,-0.91772 3.4345,-0.98697 5.02346,-0.38642 3.09045,-3.03876 5.06201,-7.34681 5.35468,-11.95069 z" id="path3035" style="fill:#ffffff" />
    <path d="m 22.05054,20.2567 c -0.53862,0.06685 -1.04607,0.31877 -1.54568,0.60723 -1.99912,1.15406 -2.6993,3.68766 -1.54568,5.68589 1.15362,1.99823 3.74198,2.64454 5.7411,1.49048 1.99912,-1.15406 2.58933,-3.63179 1.43527,-5.63069 -0.86538,-1.49868 -2.46915,-2.35338 -4.08501,-2.15291 z" id="path52" style="fill:#ffffff" />
</svg>
