<?xml version="1.0" encoding="UTF-8" standalone="no"?>
<svg xmlns:dc="http://purl.org/dc/elements/1.1/" xmlns:cc="http://creativecommons.org/ns#" xmlns:rdf="http://www.w3.org/1999/02/22-rdf-syntax-ns#" xmlns:svg="http://www.w3.org/2000/svg" xmlns="http://www.w3.org/2000/svg" xmlns:xlink="http://www.w3.org/1999/xlink" xmlns:sodipodi="http://sodipodi.sourceforge.net/DTD/sodipodi-0.dtd" xmlns:inkscape="http://www.inkscape.org/namespaces/inkscape" viewBox="0 0 48 48" id="svg2" version="1.1" inkscape:version="0.48.4 r9939" width="100%" height="100%" sodipodi:docname="system-software-update.svg">
    <metadata id="metadata56">
        <rdf:RDF>
            <cc:Work rdf:about="">
                <dc:format>image/svg+xml</dc:format>
                <dc:type rdf:resource="http://purl.org/dc/dcmitype/StillImage" />
            </cc:Work>
        </rdf:RDF>
    </metadata>
    <sodipodi:namedview pagecolor="#ffffff" bordercolor="#666666" borderopacity="1" objecttolerance="10" gridtolerance="10" guidetolerance="10" inkscape:pageopacity="0" inkscape:pageshadow="2" inkscape:window-width="1280" inkscape:window-height="976" id="namedview54" showgrid="true" inkscape:zoom="11.313708" inkscape:cx="36.597201" inkscape:cy="23.404042" inkscape:window-x="0" inkscape:window-y="24" inkscape:window-maximized="1" inkscape:current-layer="svg2" inkscape:snap-bbox="false" inkscape:snap-nodes="true" inkscape:snap-page="true" inkscape:snap-center="true" inkscape:snap-object-midpoints="true" inkscape:snap-to-guides="false" inkscape:bbox-nodes="false" inkscape:bbox-paths="false" inkscape:snap-global="true" inkscape:showpageshadow="false">
        <inkscape:grid type="xygrid" id="grid3009" empspacing="5" visible="true" enabled="true" snapvisiblegridlinesonly="true" />
    </sodipodi:namedview>
    <defs id="defs4">
        <linearGradient id="linearGradient5060">
            <stop offset="0" id="stop7" />
            <stop offset="1" stop-opacity="0" id="stop9" />
        </linearGradient>
        <linearGradient gradientUnits="userSpaceOnUse" id="linearGradient3127" x2="0" y1="38.7186" y2="45.76167">
            <stop offset="0" stop-opacity="0" id="stop12" />
            <stop offset=".5" id="stop14" />
            <stop offset="1" stop-opacity="0" id="stop16" />
        </linearGradient>
        <linearGradient gradientUnits="userSpaceOnUse" id="linearGradient3157-5" x1="-42.69615" x2="-5.84311" gradientTransform="matrix(0,-1,-1,0,1e-4,0)">
            <stop offset="0" stop-color="#ae802b" id="stop19" />
            <stop offset="1" stop-color="#e1c18b" id="stop21" />
        </linearGradient>
        <linearGradient gradientUnits="userSpaceOnUse" id="linearGradient998" x1="6.40561" x2="41.36901">
            <stop offset="0" stop-color="#fff" stop-opacity=".5" id="stop24" />
            <stop offset="1" stop-color="#fff" stop-opacity="0" id="stop26" />
        </linearGradient>
        <radialGradient cx="605.71429" cy="486.64789" gradientTransform="matrix(0.062142,0,0,0.029001,1.636502,28.085503)" gradientUnits="userSpaceOnUse" id="radialGradient3129" r="117.14286" xlink:href="#linearGradient5060" />
        <radialGradient cx="605.71429" cy="486.64789" gradientTransform="matrix(-0.062142,0,0,0.029001,46.53201,28.085503)" gradientUnits="userSpaceOnUse" id="radialGradient3131" r="117.14286" xlink:href="#linearGradient5060" />
        <linearGradient id="linearGradient5190">
            <stop id="stop5192" offset="0" style="stop-color:#f57900;stop-opacity:1;" />
            <stop id="stop5194" offset="1" style="stop-color:#fcaf3e;stop-opacity:1" />
        </linearGradient>
        <linearGradient inkscape:collect="always" xlink:href="#linearGradient5190" id="linearGradient3018" gradientUnits="userSpaceOnUse" gradientTransform="matrix(1.2130566,0,0,1.5333333,-23.620191,5.2333333)" x1="41" y1="12.891305" x2="41" y2="4.4130435" />
    </defs>
    <g transform="matrix(0.83555525,0,0,0.99388618,3.8762785,0.51811855)" id="g30" style="stroke:none;fill-rule:nonzero">
        <path d="m 9.08134,38.7186 h 30.00582 v 7.04306 H 9.08134 z" id="path32" style="opacity:0.50000000000000000;fill:url(#linearGradient3127);stroke:none;fill-rule:nonzero" inkscape:connector-curvature="0" />
        <path d="m 39.08716,38.71885 v 7.04268 c 3.20017,0.01326 7.73646,-1.57791 7.73646,-3.52179 0,-1.94388 -3.57115,-3.52088 -7.73646,-3.52088 z" id="path34" style="opacity:0.50000000000000000;fill:url(#radialGradient3129);stroke:none;fill-rule:nonzero" inkscape:connector-curvature="0" />
        <path d="m 9.08134,38.71885 v 7.04268 c -3.20017,0.01326 -7.73646,-1.57791 -7.73646,-3.52179 0,-1.94388 3.57115,-3.52088 7.73646,-3.52088 z" id="path36" style="opacity:0.50000000000000000;fill:url(#radialGradient3131);stroke:none;fill-rule:nonzero" inkscape:connector-curvature="0" />
    </g>
    <path d="m 42.5,40.5 0,-33 a 2,2 0 0 0 -2,-2 l -32.9999,0 a 2,2 0 0 0 -2,2 l 0,33 a 2,2 0 0 0 2,2 l 32.9999,0 a 2,2 0 0 0 2,-2" id="path38" style="fill:url(#linearGradient3157-5);stroke:#66420d;stroke-linecap:round;stroke-linejoin:round" inkscape:connector-curvature="0" />
    <path style="fill:white;stroke:none;fill-opacity:1" d="M 30 6 L 23.875 6.03125 C 23.311059 12.601983 17.876286 17.78125 11.3125 17.78125 C 9.4208991 17.78125 7.6400934 17.328802 6.03125 16.5625 L 6 22.9375 C 7.9685058 23.639945 9.1058796 24 11.3125 24 C 13.042037 24 14.722983 23.76279 16.3125 23.3125 C 16.593446 21.543692 17.677516 19.966895 19.3125 19 C 20.947481 18.033107 22.864791 17.961022 24.5 18.59375 C 27.680402 15.392164 29.698811 10.850569 30 6 z M 22.5 20 C 20.014719 20 18 22.014719 18 24.5 C 18 26.985281 20.014719 29 22.5 29 C 24.985281 29 27 26.985281 27 24.5 C 27 22.014719 24.985281 20 22.5 20 z " id="path3035" />
    <path d="m26,33h13v7h-13z" fill="#fff" id="path42" style="stroke:none" />
    <path d="m27,34v5h1v-5h-1zm2,0v5h2v-5h-2zm3,0v5h1v-5h-1zm2,0v5h1v-5h-1zm2,0v5h2v-5h-2z" fill="#6a6a6a" id="path44" style="stroke:none" />
    <path d="M 12 33 L 12 34 L 11 34 L 11 35 L 10 35 L 10 36 L 12 36 L 12 39 L 10 39 L 10 40 L 21 40 L 21 39 L 19 39 L 19 36 L 21 36 L 21 35 L 20 35 L 20 34 L 19 34 L 19 33 L 18 33 L 18 34 L 17 34 L 17 35 L 16 35 L 16 36 L 18 36 L 18 39 L 13 39 L 13 36 L 15 36 L 15 35 L 14 35 L 14 34 L 13 34 L 13 33 L 12 33 z " id="path46" style="color:black;fill:#8c5911;fill-opacity:1;fill-rule:nonzero;stroke-width:1;stroke-linecap:butt;stroke-linejoin:miter;stroke-miterlimit:4;stroke-opacity:1;stroke-dasharray:none;stroke-dashoffset:0;marker:none;visibility:visible;display:inline;overflow:visible;enable-background:accumulate;stroke:none" />
    <path style="font-size:medium;font-style:normal;font-variant:normal;font-weight:normal;font-stretch:normal;text-indent:0;text-align:start;text-decoration:none;line-height:normal;letter-spacing:normal;word-spacing:normal;text-transform:none;direction:ltr;block-progression:tb;writing-mode:lr-tb;text-anchor:start;baseline-shift:baseline;color:black;fill:#ce5c00;fill-opacity:1;fill-rule:nonzero;stroke:none;stroke-width:1.03472888000000007;marker:none;visibility:visible;display:inline;overflow:visible;enable-background:accumulate;font-family:Sans;-inkscape-font-specification:Sans" d="m 16,6 0,25 2,0 6,-5 6,5 2,0 0,-25 z" id="path3026" inkscape:connector-curvature="0" sodipodi:nodetypes="cccccccc" />
    <path sodipodi:nodetypes="cccccc" inkscape:connector-curvature="0" id="path3016" d="m 17,6 14,0 0,24 -7,-6 -7,6 z" style="color:black;fill:url(#linearGradient3018);fill-opacity:1;fill-rule:nonzero;stroke:none;stroke-width:1;marker:none;visibility:visible;display:inline;overflow:visible;enable-background:accumulate" />
    <path d="m7.5-41.5h33a1,1 0 0,1 1,1v33a1,1 0 0,1 -1,1h-33a1,1 0 0,1 -1-1v-33a1,1 0 0,1 1-1" fill="none" stroke="url(#linearGradient998)" stroke-linecap="round" stroke-linejoin="round" transform="matrix(0,1,-1,0,0,0)" id="path40" />
    <path sodipodi:nodetypes="ccccccccccc" id="path3804" d="m 20,23 0,-7 -2,0 0,-2 5,-5 2,0 5,5 0,2 -2,0 0,7 z" style="color:black;fill:#ce5c00;fill-opacity:1;fill-rule:nonzero;stroke:none;stroke-width:1.03472888000000007;marker:none;visibility:visible;display:inline;overflow:visible;enable-background:accumulate" inkscape:connector-curvature="0" />
    <path inkscape:connector-curvature="0" style="color:black;fill:white;fill-opacity:1;fill-rule:nonzero;stroke:none;stroke-width:0.90702784;marker:none;visibility:visible;display:inline;overflow:visible;enable-background:accumulate" d="m 21,22 0,-7 -2,0 5,-5 5,5 -2,0 0,7 z" id="rect4610" sodipodi:nodetypes="cccccccc" />
</svg>
