<?xml version="1.0" encoding="UTF-8" standalone="no"?>
<!-- Created with Inkscape (http://www.inkscape.org/) -->

<svg xmlns:dc="http://purl.org/dc/elements/1.1/" xmlns:cc="http://creativecommons.org/ns#" xmlns:rdf="http://www.w3.org/1999/02/22-rdf-syntax-ns#" xmlns:svg="http://www.w3.org/2000/svg" xmlns="http://www.w3.org/2000/svg" xmlns:xlink="http://www.w3.org/1999/xlink" xmlns:sodipodi="http://sodipodi.sourceforge.net/DTD/sodipodi-0.dtd" xmlns:inkscape="http://www.inkscape.org/namespaces/inkscape" version="1.0" width="48" height="48" id="svg3437" inkscape:version="0.48.4 r9939" sodipodi:docname="Thunar.svg">
    <metadata id="metadata101">
        <rdf:RDF>
            <cc:Work rdf:about="">
                <dc:format>image/svg+xml</dc:format>
                <dc:type rdf:resource="http://purl.org/dc/dcmitype/StillImage" />
                <dc:title />
            </cc:Work>
        </rdf:RDF>
    </metadata>
    <sodipodi:namedview pagecolor="#ffffff" bordercolor="#666666" borderopacity="1" objecttolerance="10" gridtolerance="10" guidetolerance="10" inkscape:pageopacity="0" inkscape:pageshadow="2" inkscape:window-width="1280" inkscape:window-height="974" id="namedview99" showgrid="true" inkscape:zoom="11.313708" inkscape:cx="45.182884" inkscape:cy="19.811567" inkscape:window-x="0" inkscape:window-y="24" inkscape:window-maximized="1" inkscape:current-layer="svg3437" inkscape:snap-to-guides="true" inkscape:snap-grids="true" inkscape:snap-bbox="true" showguides="true" inkscape:guide-bbox="true" inkscape:snap-nodes="false">
        <inkscape:grid type="xygrid" id="grid911" empspacing="5" visible="true" enabled="true" snapvisiblegridlinesonly="true" />
        <sodipodi:guide orientation="1,0" position="26,12" id="guide3150" />
        <sodipodi:guide orientation="1,0" position="41,22" id="guide3152" />
        <sodipodi:guide orientation="0,1" position="42,9" id="guide3154" />
        <sodipodi:guide orientation="0,1" position="45,24" id="guide3156" />
    </sodipodi:namedview>
    <defs id="defs3439">
        <linearGradient id="linearGradient4063">
            <stop style="stop-color:white;stop-opacity:0.15686275;" offset="0" id="stop4065" />
            <stop style="stop-color:white;stop-opacity:0;" offset="1" id="stop4067" />
        </linearGradient>
        <linearGradient id="linearGradient4343">
            <stop style="stop-color:white;stop-opacity:0.78431374;" offset="0" id="stop4345" />
            <stop style="stop-color:white;stop-opacity:0;" offset="1" id="stop4347" />
        </linearGradient>
        <linearGradient id="linearGradient5060">
            <stop id="stop5062" style="stop-color:#000000;stop-opacity:1" offset="0" />
            <stop id="stop5064" style="stop-color:#000000;stop-opacity:0" offset="1" />
        </linearGradient>
        <linearGradient id="linearGradient5048">
            <stop id="stop5050" style="stop-color:#000000;stop-opacity:0" offset="0" />
            <stop id="stop5056" style="stop-color:#000000;stop-opacity:1" offset="0.5" />
            <stop id="stop5052" style="stop-color:#000000;stop-opacity:0" offset="1" />
        </linearGradient>
        <linearGradient inkscape:collect="always" xlink:href="#linearGradient5048" id="linearGradient3127" gradientUnits="userSpaceOnUse" gradientTransform="matrix(0.06214224,0,0,0.02900085,1.6242719,28.085503)" x1="302.85715" y1="366.64789" x2="302.85715" y2="609.50507" />
        <radialGradient inkscape:collect="always" xlink:href="#linearGradient5060" id="radialGradient3129" gradientUnits="userSpaceOnUse" gradientTransform="matrix(0.06214224,0,0,0.02900085,1.6365015,28.085503)" cx="605.71429" cy="486.64789" fx="605.71429" fy="486.64789" r="117.14286" />
        <radialGradient inkscape:collect="always" xlink:href="#linearGradient5060" id="radialGradient3131" gradientUnits="userSpaceOnUse" gradientTransform="matrix(-0.06214224,0,0,0.02900085,46.53201,28.085503)" cx="605.71429" cy="486.64789" fx="605.71429" fy="486.64789" r="117.14286" />
        <linearGradient y2="7.0165396" x2="45.447727" y1="92.539597" x1="45.447727" gradientTransform="scale(1.0058652,0.994169)" gradientUnits="userSpaceOnUse" id="linearGradient4049" xlink:href="#ButtonShadow-9-2" inkscape:collect="always" />
        <linearGradient y2="7.0165396" x2="45.447727" y1="92.539597" x1="45.447727" gradientTransform="scale(1.0058652,0.994169)" gradientUnits="userSpaceOnUse" id="linearGradient4047" xlink:href="#ButtonShadow-91-6" inkscape:collect="always" />
        <linearGradient y2="7.0165396" x2="45.447727" y1="92.539597" x1="45.447727" gradientTransform="scale(1.0058652,0.994169)" gradientUnits="userSpaceOnUse" id="linearGradient4045" xlink:href="#ButtonShadow-3" inkscape:collect="always" />
        <filter id="filter3174-34" color-interpolation-filters="sRGB">
            <feGaussianBlur stdDeviation="1.71" id="feGaussianBlur3176-32" />
        </filter>
        <linearGradient gradientTransform="scale(1.0058652,0.994169)" gradientUnits="userSpaceOnUse" id="ButtonShadow-3" y2="7.0165396" x2="45.447727" y1="92.539597" x1="45.447727">
            <stop offset="0" style="stop-color:#000000;stop-opacity:1" id="stop3750-41" />
            <stop offset="1" style="stop-color:#000000;stop-opacity:0.58823532" id="stop3752-4" />
        </linearGradient>
        <filter id="filter3174-2-0" color-interpolation-filters="sRGB">
            <feGaussianBlur stdDeviation="1.71" id="feGaussianBlur3176-1-0" />
        </filter>
        <linearGradient gradientTransform="scale(1.0058652,0.994169)" gradientUnits="userSpaceOnUse" id="ButtonShadow-9-2" y2="7.0165396" x2="45.447727" y1="92.539597" x1="45.447727">
            <stop offset="0" style="stop-color:#000000;stop-opacity:1" id="stop3750-3-4" />
            <stop offset="1" style="stop-color:#000000;stop-opacity:0.58823532" id="stop3752-0-7" />
        </linearGradient>
        <linearGradient x1="45.447727" y1="92.539597" x2="45.447727" y2="7.0165396" id="ButtonShadow-91-6" gradientUnits="userSpaceOnUse" gradientTransform="scale(1.0058652,0.994169)">
            <stop id="stop3750-4-7" style="stop-color:#000000;stop-opacity:1" offset="0" />
            <stop id="stop3752-2-68" style="stop-color:#000000;stop-opacity:0.58823532" offset="1" />
        </linearGradient>
        <filter color-interpolation-filters="sRGB" id="filter3174-4-7">
            <feGaussianBlur id="feGaussianBlur3176-2-4" stdDeviation="1.71" />
        </filter>
        <filter id="filter3174-44" color-interpolation-filters="sRGB">
            <feGaussianBlur stdDeviation="1.71" id="feGaussianBlur3176-3" />
        </filter>
        <linearGradient gradientTransform="scale(1.0058652,0.994169)" gradientUnits="userSpaceOnUse" id="ButtonShadow-0" y2="7.0165396" x2="45.447727" y1="92.539597" x1="45.447727">
            <stop offset="0" style="stop-color:#000000;stop-opacity:1" id="stop3750-2" />
            <stop offset="1" style="stop-color:#000000;stop-opacity:0.58823532" id="stop3752-6" />
        </linearGradient>
        <filter id="filter3174-2-2" color-interpolation-filters="sRGB">
            <feGaussianBlur stdDeviation="1.71" id="feGaussianBlur3176-1-3" />
        </filter>
        <linearGradient gradientTransform="scale(1.0058652,0.994169)" gradientUnits="userSpaceOnUse" id="ButtonShadow-9-1" y2="7.0165396" x2="45.447727" y1="92.539597" x1="45.447727">
            <stop offset="0" style="stop-color:#000000;stop-opacity:1" id="stop3750-3-65" />
            <stop offset="1" style="stop-color:#000000;stop-opacity:0.58823532" id="stop3752-0-0" />
        </linearGradient>
        <linearGradient x1="45.447727" y1="92.539597" x2="45.447727" y2="7.0165396" id="ButtonShadow-91-7" gradientUnits="userSpaceOnUse" gradientTransform="scale(1.0058652,0.994169)">
            <stop id="stop3750-4-4" style="stop-color:#000000;stop-opacity:1" offset="0" />
            <stop id="stop3752-2-7" style="stop-color:#000000;stop-opacity:0.58823532" offset="1" />
        </linearGradient>
        <filter color-interpolation-filters="sRGB" id="filter3174-4-4">
            <feGaussianBlur id="feGaussianBlur3176-2-3" stdDeviation="1.71" />
        </filter>
        <linearGradient y2="7.0165396" x2="45.447727" y1="92.539597" x1="45.447727" gradientTransform="scale(1.0058652,0.994169)" gradientUnits="userSpaceOnUse" id="linearGradient4049-7" xlink:href="#ButtonShadow-9-2-6" inkscape:collect="always" />
        <linearGradient y2="7.0165396" x2="45.447727" y1="92.539597" x1="45.447727" gradientTransform="scale(1.0058652,0.994169)" gradientUnits="userSpaceOnUse" id="linearGradient4047-0" xlink:href="#ButtonShadow-91-6-6" inkscape:collect="always" />
        <linearGradient y2="7.0165396" x2="45.447727" y1="92.539597" x1="45.447727" gradientTransform="scale(1.0058652,0.994169)" gradientUnits="userSpaceOnUse" id="linearGradient4045-1" xlink:href="#ButtonShadow-3-7" inkscape:collect="always" />
        <filter id="filter3174-34-6" color-interpolation-filters="sRGB">
            <feGaussianBlur stdDeviation="1.71" id="feGaussianBlur3176-32-5" />
        </filter>
        <linearGradient gradientTransform="scale(1.0058652,0.994169)" gradientUnits="userSpaceOnUse" id="ButtonShadow-3-7" y2="7.0165396" x2="45.447727" y1="92.539597" x1="45.447727">
            <stop offset="0" style="stop-color:#000000;stop-opacity:1" id="stop3750-41-6" />
            <stop offset="1" style="stop-color:#000000;stop-opacity:0.58823532" id="stop3752-4-9" />
        </linearGradient>
        <filter id="filter3174-2-0-6" color-interpolation-filters="sRGB">
            <feGaussianBlur stdDeviation="1.71" id="feGaussianBlur3176-1-0-4" />
        </filter>
        <linearGradient gradientTransform="scale(1.0058652,0.994169)" gradientUnits="userSpaceOnUse" id="ButtonShadow-9-2-6" y2="7.0165396" x2="45.447727" y1="92.539597" x1="45.447727">
            <stop offset="0" style="stop-color:#000000;stop-opacity:1" id="stop3750-3-4-7" />
            <stop offset="1" style="stop-color:#000000;stop-opacity:0.58823532" id="stop3752-0-7-0" />
        </linearGradient>
        <linearGradient x1="45.447727" y1="92.539597" x2="45.447727" y2="7.0165396" id="ButtonShadow-91-6-6" gradientUnits="userSpaceOnUse" gradientTransform="scale(1.0058652,0.994169)">
            <stop id="stop3750-4-7-8" style="stop-color:#000000;stop-opacity:1" offset="0" />
            <stop id="stop3752-2-68-9" style="stop-color:#000000;stop-opacity:0.58823532" offset="1" />
        </linearGradient>
        <filter color-interpolation-filters="sRGB" id="filter3174-4-7-2">
            <feGaussianBlur id="feGaussianBlur3176-2-4-8" stdDeviation="1.71" />
        </filter>
        <filter id="filter3174-44-1" color-interpolation-filters="sRGB">
            <feGaussianBlur stdDeviation="1.71" id="feGaussianBlur3176-3-3" />
        </filter>
        <linearGradient gradientTransform="scale(1.0058652,0.994169)" gradientUnits="userSpaceOnUse" id="ButtonShadow-0-3" y2="7.0165396" x2="45.447727" y1="92.539597" x1="45.447727">
            <stop offset="0" style="stop-color:#000000;stop-opacity:1" id="stop3750-2-6" />
            <stop offset="1" style="stop-color:#000000;stop-opacity:0.58823532" id="stop3752-6-8" />
        </linearGradient>
        <filter id="filter3174-2-2-8" color-interpolation-filters="sRGB">
            <feGaussianBlur stdDeviation="1.71" id="feGaussianBlur3176-1-3-0" />
        </filter>
        <linearGradient gradientTransform="scale(1.0058652,0.994169)" gradientUnits="userSpaceOnUse" id="ButtonShadow-9-1-0" y2="7.0165396" x2="45.447727" y1="92.539597" x1="45.447727">
            <stop offset="0" style="stop-color:#000000;stop-opacity:1" id="stop3750-3-65-2" />
            <stop offset="1" style="stop-color:#000000;stop-opacity:0.58823532" id="stop3752-0-0-3" />
        </linearGradient>
        <linearGradient x1="45.447727" y1="92.539597" x2="45.447727" y2="7.0165396" id="ButtonShadow-91-7-0" gradientUnits="userSpaceOnUse" gradientTransform="scale(1.0058652,0.994169)">
            <stop id="stop3750-4-4-1" style="stop-color:#000000;stop-opacity:1" offset="0" />
            <stop id="stop3752-2-7-5" style="stop-color:#000000;stop-opacity:0.58823532" offset="1" />
        </linearGradient>
        <filter color-interpolation-filters="sRGB" id="filter3174-4-4-2">
            <feGaussianBlur id="feGaussianBlur3176-2-3-0" stdDeviation="1.71" />
        </filter>
        <linearGradient inkscape:collect="always" xlink:href="#linearGradient4494-6-4" id="linearGradient3423-0" gradientUnits="userSpaceOnUse" gradientTransform="matrix(0.54394931,0,0,0.54419279,-152.08938,-280.28689)" x1="404.57297" y1="537.98169" x2="404.57297" y2="589.04877" />
        <linearGradient id="linearGradient4494-6-4">
            <stop offset="0" style="stop-color:#b4cee1;stop-opacity:1;" id="stop4496-8-1" />
            <stop offset="1" style="stop-color:#3d8cc3;stop-opacity:1;" id="stop4498-8-5" />
        </linearGradient>
        <linearGradient inkscape:collect="always" xlink:href="#linearGradient3390-4-1-27" id="linearGradient3425-7" gradientUnits="userSpaceOnUse" gradientTransform="matrix(1.7093057,0,0,1.7952339,-50.451108,2.988222)" x1="65.869827" y1="21.104483" x2="65.869827" y2="5.6443739" />
        <linearGradient id="linearGradient3390-4-1-27">
            <stop id="stop3392-3-8-1" style="stop-color:#344960;stop-opacity:1;" offset="0" />
            <stop id="stop3394-2-0-7" style="stop-color:#5e778e;stop-opacity:1;" offset="1" />
        </linearGradient>
        <linearGradient inkscape:collect="always" xlink:href="#linearGradient4343" id="linearGradient4349" x1="20" y1="12" x2="20" y2="31.617647" gradientUnits="userSpaceOnUse" gradientTransform="matrix(1,0,0,0.65384618,0,3.3269225)" />
        <linearGradient inkscape:collect="always" xlink:href="#linearGradient933-0" id="linearGradient3433-6" gradientUnits="userSpaceOnUse" gradientTransform="matrix(1.9110635,0,0,1.9668389,113.8977,-29.0345)" x1="-28.531403" y1="18.645372" x2="-28.531403" y2="35.589085" />
        <linearGradient id="linearGradient933-0">
            <stop offset="0" style="stop-color:#ffffff;stop-opacity:1" id="stop935-7" />
            <stop offset="0.70000005" style="stop-color:#cdcdcd;stop-opacity:1" id="stop937-2" />
            <stop offset="1" style="stop-color:#a1a1a1;stop-opacity:1" id="stop939-0" />
        </linearGradient>
        <linearGradient inkscape:collect="always" xlink:href="#linearGradient5157-9-5" id="linearGradient3435-5" gradientUnits="userSpaceOnUse" gradientTransform="matrix(1.9110635,0,0,1.9668389,48.199152,-0.5127335)" x1="9.8763561" y1="2.6014566" x2="9.8763561" y2="22.113136" />
        <linearGradient id="linearGradient5157-9-5">
            <stop id="stop5159-3-4" style="stop-color:#b5b5b5;stop-opacity:1;" offset="0" />
            <stop id="stop5161-0-6" style="stop-color:#5d5d5d;stop-opacity:1;" offset="1" />
        </linearGradient>
        <linearGradient inkscape:collect="always" xlink:href="#linearGradient4063" id="linearGradient4069" x1="20" y1="42" x2="20" y2="29" gradientUnits="userSpaceOnUse" gradientTransform="translate(1.62e-4,-0.00266841)" />
        <linearGradient inkscape:collect="always" xlink:href="#linearGradient6129-963-697-142-998-580-273-44-2-2-0" id="linearGradient4192-4" gradientUnits="userSpaceOnUse" gradientTransform="matrix(1.1446925,0,0,0.99775357,40.52077,-0.88704077)" x1="-18.800482" y1="44.988102" x2="-18.800482" y2="34.965588" />
        <linearGradient id="linearGradient6129-963-697-142-998-580-273-44-2-2-0">
            <stop offset="0" style="stop-color:#0a0a0a;stop-opacity:0.498" id="stop2661-01-6-2-2" />
            <stop offset="1" style="stop-color:#0a0a0a;stop-opacity:0" id="stop2663-64-5-5-9" />
        </linearGradient>
        <filter id="filter3174-4-4-2-3" color-interpolation-filters="sRGB">
            <feGaussianBlur stdDeviation="1.71" id="feGaussianBlur3176-2-3-0-6" />
        </filter>
        <linearGradient gradientTransform="scale(1.0058652,0.994169)" gradientUnits="userSpaceOnUse" id="ButtonShadow-91-7-0-9" y2="7.0165396" x2="45.447727" y1="92.539597" x1="45.447727">
            <stop offset="0" style="stop-color:#000000;stop-opacity:1" id="stop3750-4-4-1-2" />
            <stop offset="1" style="stop-color:#000000;stop-opacity:0.58823532" id="stop3752-2-7-5-5" />
        </linearGradient>
        <linearGradient x1="45.447727" y1="92.539597" x2="45.447727" y2="7.0165396" id="ButtonShadow-9-1-0-0" gradientUnits="userSpaceOnUse" gradientTransform="scale(1.0058652,0.994169)">
            <stop id="stop3750-3-65-2-2" style="stop-color:#000000;stop-opacity:1" offset="0" />
            <stop id="stop3752-0-0-3-1" style="stop-color:#000000;stop-opacity:0.58823532" offset="1" />
        </linearGradient>
        <filter color-interpolation-filters="sRGB" id="filter3174-2-2-8-5">
            <feGaussianBlur id="feGaussianBlur3176-1-3-0-2" stdDeviation="1.71" />
        </filter>
        <linearGradient x1="45.447727" y1="92.539597" x2="45.447727" y2="7.0165396" id="ButtonShadow-0-3-1" gradientUnits="userSpaceOnUse" gradientTransform="scale(1.0058652,0.994169)">
            <stop id="stop3750-2-6-0" style="stop-color:#000000;stop-opacity:1" offset="0" />
            <stop id="stop3752-6-8-7" style="stop-color:#000000;stop-opacity:0.58823532" offset="1" />
        </linearGradient>
        <filter color-interpolation-filters="sRGB" id="filter3174-44-1-2">
            <feGaussianBlur id="feGaussianBlur3176-3-3-2" stdDeviation="1.71" />
        </filter>
        <filter id="filter3174-4-7-2-9" color-interpolation-filters="sRGB">
            <feGaussianBlur stdDeviation="1.71" id="feGaussianBlur3176-2-4-8-9" />
        </filter>
        <linearGradient gradientTransform="scale(1.0058652,0.994169)" gradientUnits="userSpaceOnUse" id="ButtonShadow-91-6-6-6" y2="7.0165396" x2="45.447727" y1="92.539597" x1="45.447727">
            <stop offset="0" style="stop-color:#000000;stop-opacity:1" id="stop3750-4-7-8-8" />
            <stop offset="1" style="stop-color:#000000;stop-opacity:0.58823532" id="stop3752-2-68-9-0" />
        </linearGradient>
        <linearGradient x1="45.447727" y1="92.539597" x2="45.447727" y2="7.0165396" id="ButtonShadow-9-2-6-0" gradientUnits="userSpaceOnUse" gradientTransform="scale(1.0058652,0.994169)">
            <stop id="stop3750-3-4-7-4" style="stop-color:#000000;stop-opacity:1" offset="0" />
            <stop id="stop3752-0-7-0-9" style="stop-color:#000000;stop-opacity:0.58823532" offset="1" />
        </linearGradient>
        <filter color-interpolation-filters="sRGB" id="filter3174-2-0-6-5">
            <feGaussianBlur id="feGaussianBlur3176-1-0-4-0" stdDeviation="1.71" />
        </filter>
        <linearGradient x1="45.447727" y1="92.539597" x2="45.447727" y2="7.0165396" id="ButtonShadow-3-7-4" gradientUnits="userSpaceOnUse" gradientTransform="scale(1.0058652,0.994169)">
            <stop id="stop3750-41-6-7" style="stop-color:#000000;stop-opacity:1" offset="0" />
            <stop id="stop3752-4-9-6" style="stop-color:#000000;stop-opacity:0.58823532" offset="1" />
        </linearGradient>
        <filter color-interpolation-filters="sRGB" id="filter3174-34-6-0">
            <feGaussianBlur id="feGaussianBlur3176-32-5-1" stdDeviation="1.71" />
        </filter>
        <linearGradient inkscape:collect="always" xlink:href="#ButtonShadow-3-7-4" id="linearGradient4045-1-8" gradientUnits="userSpaceOnUse" gradientTransform="scale(1.0058652,0.994169)" x1="45.447727" y1="92.539597" x2="45.447727" y2="7.0165396" />
        <linearGradient inkscape:collect="always" xlink:href="#ButtonShadow-91-6-6-6" id="linearGradient4047-0-2" gradientUnits="userSpaceOnUse" gradientTransform="scale(1.0058652,0.994169)" x1="45.447727" y1="92.539597" x2="45.447727" y2="7.0165396" />
        <linearGradient inkscape:collect="always" xlink:href="#ButtonShadow-9-2-6-0" id="linearGradient4049-7-4" gradientUnits="userSpaceOnUse" gradientTransform="scale(1.0058652,0.994169)" x1="45.447727" y1="92.539597" x2="45.447727" y2="7.0165396" />
        <filter id="filter3174-4-4-6" color-interpolation-filters="sRGB">
            <feGaussianBlur stdDeviation="1.71" id="feGaussianBlur3176-2-3-02" />
        </filter>
        <linearGradient gradientTransform="scale(1.0058652,0.994169)" gradientUnits="userSpaceOnUse" id="ButtonShadow-91-7-1" y2="7.0165396" x2="45.447727" y1="92.539597" x1="45.447727">
            <stop offset="0" style="stop-color:#000000;stop-opacity:1" id="stop3750-4-4-5" />
            <stop offset="1" style="stop-color:#000000;stop-opacity:0.58823532" id="stop3752-2-7-8" />
        </linearGradient>
        <linearGradient x1="45.447727" y1="92.539597" x2="45.447727" y2="7.0165396" id="ButtonShadow-9-1-5" gradientUnits="userSpaceOnUse" gradientTransform="scale(1.0058652,0.994169)">
            <stop id="stop3750-3-65-4" style="stop-color:#000000;stop-opacity:1" offset="0" />
            <stop id="stop3752-0-0-0" style="stop-color:#000000;stop-opacity:0.58823532" offset="1" />
        </linearGradient>
        <filter color-interpolation-filters="sRGB" id="filter3174-2-2-2">
            <feGaussianBlur id="feGaussianBlur3176-1-3-6" stdDeviation="1.71" />
        </filter>
        <linearGradient x1="45.447727" y1="92.539597" x2="45.447727" y2="7.0165396" id="ButtonShadow-0-9" gradientUnits="userSpaceOnUse" gradientTransform="scale(1.0058652,0.994169)">
            <stop id="stop3750-2-2" style="stop-color:#000000;stop-opacity:1" offset="0" />
            <stop id="stop3752-6-1" style="stop-color:#000000;stop-opacity:0.58823532" offset="1" />
        </linearGradient>
        <filter color-interpolation-filters="sRGB" id="filter3174-44-9">
            <feGaussianBlur id="feGaussianBlur3176-3-2" stdDeviation="1.71" />
        </filter>
        <filter id="filter3174-4-7-6" color-interpolation-filters="sRGB">
            <feGaussianBlur stdDeviation="1.71" id="feGaussianBlur3176-2-4-4" />
        </filter>
        <linearGradient gradientTransform="scale(1.0058652,0.994169)" gradientUnits="userSpaceOnUse" id="ButtonShadow-91-6-2" y2="7.0165396" x2="45.447727" y1="92.539597" x1="45.447727">
            <stop offset="0" style="stop-color:#000000;stop-opacity:1" id="stop3750-4-7-7" />
            <stop offset="1" style="stop-color:#000000;stop-opacity:0.58823532" id="stop3752-2-68-8" />
        </linearGradient>
        <linearGradient x1="45.447727" y1="92.539597" x2="45.447727" y2="7.0165396" id="ButtonShadow-9-2-4" gradientUnits="userSpaceOnUse" gradientTransform="scale(1.0058652,0.994169)">
            <stop id="stop3750-3-4-0" style="stop-color:#000000;stop-opacity:1" offset="0" />
            <stop id="stop3752-0-7-3" style="stop-color:#000000;stop-opacity:0.58823532" offset="1" />
        </linearGradient>
        <filter color-interpolation-filters="sRGB" id="filter3174-2-0-7">
            <feGaussianBlur id="feGaussianBlur3176-1-0-47" stdDeviation="1.71" />
        </filter>
        <linearGradient x1="45.447727" y1="92.539597" x2="45.447727" y2="7.0165396" id="ButtonShadow-3-70" gradientUnits="userSpaceOnUse" gradientTransform="scale(1.0058652,0.994169)">
            <stop id="stop3750-41-4" style="stop-color:#000000;stop-opacity:1" offset="0" />
            <stop id="stop3752-4-4" style="stop-color:#000000;stop-opacity:0.58823532" offset="1" />
        </linearGradient>
        <filter color-interpolation-filters="sRGB" id="filter3174-34-5">
            <feGaussianBlur id="feGaussianBlur3176-32-4" stdDeviation="1.71" />
        </filter>
        <linearGradient inkscape:collect="always" xlink:href="#ButtonShadow-3-70" id="linearGradient4045-3" gradientUnits="userSpaceOnUse" gradientTransform="scale(1.0058652,0.994169)" x1="45.447727" y1="92.539597" x2="45.447727" y2="7.0165396" />
        <linearGradient inkscape:collect="always" xlink:href="#ButtonShadow-91-6-2" id="linearGradient4047-6" gradientUnits="userSpaceOnUse" gradientTransform="scale(1.0058652,0.994169)" x1="45.447727" y1="92.539597" x2="45.447727" y2="7.0165396" />
        <linearGradient inkscape:collect="always" xlink:href="#ButtonShadow-9-2-4" id="linearGradient4049-1" gradientUnits="userSpaceOnUse" gradientTransform="scale(1.0058652,0.994169)" x1="45.447727" y1="92.539597" x2="45.447727" y2="7.0165396" />
    </defs>
    <rect width="30.005821" height="7.0430632" x="9.0813398" y="38.718601" id="rect4173" style="opacity:0.5;fill:url(#linearGradient3127);fill-opacity:1;fill-rule:nonzero;stroke:none;stroke-width:104.96237946;marker:none;visibility:visible;display:inline;overflow:visible" />
    <path d="m 39.087163,38.718845 c 0,0 0,7.042675 0,7.042675 3.200171,0.01326 7.736457,-1.577906 7.736455,-3.52179 0,-1.943885 -3.57115,-3.520884 -7.736455,-3.520885 z" id="path5058" style="opacity:0.5;fill:url(#radialGradient3129);fill-opacity:1;fill-rule:nonzero;stroke:none;stroke-width:104.96237946;marker:none;visibility:visible;display:inline;overflow:visible" inkscape:connector-curvature="0" />
    <path d="m 9.0813406,38.718845 c 0,0 0,7.042675 0,7.042675 -3.2001721,0.01326 -7.7364568,-1.577906 -7.7364568,-3.52179 0,-1.943885 3.57115,-3.520884 7.7364568,-3.520885 z" id="path5018" style="opacity:0.5;fill:url(#radialGradient3131);fill-opacity:1;fill-rule:nonzero;stroke:none;stroke-width:104.96237946;marker:none;visibility:visible;display:inline;overflow:visible" inkscape:connector-curvature="0" />
    <path d="m 7.5,4.5 c -0.8095073,0 -2,0.7701641 -2,2 l 0,1 -1,0 c -1.0013529,0 -2,1.1353372 -2,2 l 0,31 c 0.045778,1.4225 0.9108155,1.985435 2.5,2 l 35.5,0 0,-33 c 0,-1.1406972 -1.011011,-2 -2,-2 l -17,0 0,-1 c 0,-0.7942627 -0.56185,-2 -2,-2 z" id="path3496" style="color:black;fill:url(#linearGradient3433-6);fill-opacity:1;fill-rule:nonzero;stroke:url(#linearGradient3435-5);stroke-width:1;stroke-linecap:round;stroke-linejoin:round;stroke-miterlimit:4;stroke-opacity:1;stroke-dasharray:none;stroke-dashoffset:0;marker:none;visibility:visible;display:inline;overflow:visible;enable-background:accumulate" inkscape:connector-curvature="0" sodipodi:nodetypes="cccscccccccccc" />
    <path d="m 9.5,10.5 34,0 c 0.932164,0 1.923729,1.087401 2,2 l 0,27.5 c 0.01133,1.421105 -0.545177,2.5 -2.5,2.5 l -38,0 c 1.0728427,-10e-7 2.4953635,-0.408714 2.499964,-2 l 3.41e-5,-28 c 0,-1.008697 1.0364716,-2 2.0000019,-2 z" id="path3498" style="color:black;fill:url(#linearGradient3423-0);fill-opacity:1;fill-rule:nonzero;stroke:url(#linearGradient3425-7);stroke-width:1;stroke-linecap:round;stroke-linejoin:round;stroke-miterlimit:4;stroke-opacity:1;stroke-dasharray:none;stroke-dashoffset:0;marker:none;visibility:visible;display:inline;overflow:visible;enable-background:accumulate" inkscape:connector-curvature="0" sodipodi:nodetypes="ccccccccc" />
    <g style="color:black;fill:#002a3c;fill-opacity:0.74509804;fill-rule:evenodd;stroke:none;stroke-width:3pt;marker:none;visibility:visible;display:inline;overflow:visible;enable-background:accumulate" id="layer4-6" transform="translate(2.313435,-185.78881)" />
    <g style="color:black;fill:#002a3c;fill-opacity:0.74509804;fill-rule:evenodd;stroke:none;stroke-width:3pt;marker:none;visibility:visible;display:inline;overflow:visible;enable-background:accumulate" id="layer4-3-5" transform="translate(28.877816,-175.33495)" />
    <g style="color:black;fill:#002a3c;fill-opacity:0.74509804;fill-rule:evenodd;stroke:none;stroke-width:3pt;marker:none;visibility:visible;display:inline;overflow:visible;enable-background:accumulate" id="layer4-8-74" transform="translate(85.002817,-172.39972)" />
    <g style="color:black;fill:#002a3c;fill-opacity:0.74509804;fill-rule:evenodd;stroke:none;stroke-width:3.00082188pt;marker:none;visibility:visible;display:inline;overflow:visible;enable-background:accumulate" id="layer4-39-9" transform="matrix(0.99945236,0,0,1,147.98325,-175.10942)" />
    <g style="color:black;fill:#002a3c;fill-opacity:0.74509804;fill-rule:evenodd;stroke:none;stroke-width:3.00082188pt;marker:none;visibility:visible;display:inline;overflow:visible;enable-background:accumulate" id="layer4-3-6-1" transform="matrix(0.99945236,0,0,1,174.53308,-164.65556)" />
    <g style="color:black;fill:#002a3c;fill-opacity:0.74509804;fill-rule:evenodd;stroke:none;stroke-width:3.00082188pt;marker:none;visibility:visible;display:inline;overflow:visible;enable-background:accumulate" id="layer4-8-2-1" transform="matrix(0.99945236,0,0,1,230.62734,-161.72033)" />
    <g style="color:black;fill:#002a3c;fill-opacity:0.74509804;fill-rule:evenodd;stroke:none;stroke-width:3pt;marker:none;visibility:visible;display:inline;overflow:visible;enable-background:accumulate" id="layer4-7" transform="translate(124.05255,-181.39082)" />
    <g style="color:black;fill:#002a3c;fill-opacity:0.74509804;fill-rule:evenodd;stroke:none;stroke-width:3pt;marker:none;visibility:visible;display:inline;overflow:visible;enable-background:accumulate" id="layer4-3-34" transform="translate(150.61694,-170.93696)" />
    <g style="color:black;fill:#002a3c;fill-opacity:0.74509804;fill-rule:evenodd;stroke:none;stroke-width:3pt;marker:none;visibility:visible;display:inline;overflow:visible;enable-background:accumulate" id="layer4-8-7" transform="translate(206.74193,-168.00173)" />
    <g style="color:black;fill:#002a3c;fill-opacity:0.74509804;fill-rule:evenodd;stroke:none;stroke-width:3.00082188pt;marker:none;visibility:visible;display:inline;overflow:visible;enable-background:accumulate" id="layer4-39-0-8" transform="matrix(0.99945236,0,0,1,147.80736,-171.64953)" />
    <g style="color:black;fill:#002a3c;fill-opacity:0.74509804;fill-rule:evenodd;stroke:none;stroke-width:3.00082188pt;marker:none;visibility:visible;display:inline;overflow:visible;enable-background:accumulate" id="layer4-3-6-5-4" transform="matrix(0.99945236,0,0,1,174.35719,-161.19567)" />
    <g style="color:black;fill:#002a3c;fill-opacity:0.74509804;fill-rule:evenodd;stroke:none;stroke-width:3.00082188pt;marker:none;visibility:visible;display:inline;overflow:visible;enable-background:accumulate" id="layer4-8-2-3-0" transform="matrix(0.99945236,0,0,1,230.45146,-158.26044)" />
    <g style="color:black;fill:#002a3c;fill-opacity:0.74509804;fill-rule:evenodd;stroke:none;stroke-width:3pt;marker:none;visibility:visible;display:inline;overflow:visible;enable-background:accumulate" id="layer4-9-8" transform="translate(123.87667,-177.93093)" />
    <g style="color:black;fill:#002a3c;fill-opacity:0.74509804;fill-rule:evenodd;stroke:none;stroke-width:3pt;marker:none;visibility:visible;display:inline;overflow:visible;enable-background:accumulate" id="layer4-3-8-3" transform="translate(150.44105,-167.47707)" />
    <g style="color:black;fill:#002a3c;fill-opacity:0.74509804;fill-rule:evenodd;stroke:none;stroke-width:3pt;marker:none;visibility:visible;display:inline;overflow:visible;enable-background:accumulate" id="layer4-8-4-6" transform="translate(206.56605,-164.54184)" />
    <g style="color:black;fill:#002a3c;fill-opacity:0.74509804;fill-rule:evenodd;stroke:none;stroke-width:3pt;marker:none;visibility:visible;display:inline;overflow:visible;enable-background:accumulate" id="layer4-88-8" transform="translate(188.57116,-130.1446)" />
    <g style="color:black;fill:#002a3c;fill-opacity:0.74509804;fill-rule:evenodd;stroke:none;stroke-width:3pt;marker:none;visibility:visible;display:inline;overflow:visible;enable-background:accumulate" id="layer4-3-3-3" transform="translate(215.13555,-119.69074)" />
    <g style="color:black;fill:#002a3c;fill-opacity:0.74509804;fill-rule:evenodd;stroke:none;stroke-width:3pt;marker:none;visibility:visible;display:inline;overflow:visible;enable-background:accumulate" id="layer4-8-21-2" transform="translate(271.26055,-116.75551)" />
    <g id="layer2-8" style="display:none" transform="matrix(0.99945236,0,0,1,101.6187,-179.86082)">
        <rect width="86" height="85" rx="6.0032878" ry="6" x="5" y="7" id="rect3745-0" style="opacity:0.9;fill:url(#ButtonShadow-0);fill-opacity:1;fill-rule:nonzero;stroke:none;filter:url(#filter3174-44)" />
    </g>
    <g id="layer4-39" transform="matrix(0.99945236,0,0,1,101.6187,-179.86082)" />
    <g id="layer2-0-0" style="display:none" transform="matrix(0.99945236,0,0,1,128.16853,-169.40696)">
        <rect width="86" height="85" rx="6.0032878" ry="6" x="5" y="7" id="rect3745-7-1" style="opacity:0.9;fill:url(#ButtonShadow-91-7);fill-opacity:1;fill-rule:nonzero;stroke:none;filter:url(#filter3174-4-4)" />
    </g>
    <g id="layer4-3-6" transform="matrix(0.99945236,0,0,1,128.16853,-169.40696)" />
    <g id="layer2-1-5" style="display:none" transform="matrix(0.99945236,0,0,1,184.26279,-166.47173)">
        <rect width="86" height="85" rx="6.0032878" ry="6" x="5" y="7" id="rect3745-1-3" style="opacity:0.9;fill:url(#ButtonShadow-9-1);fill-opacity:1;fill-rule:nonzero;stroke:none;filter:url(#filter3174-2-2)" />
    </g>
    <g id="layer4-8-2" transform="matrix(0.99945236,0,0,1,184.26279,-166.47173)" />
    <g id="layer2" style="display:none" transform="translate(77.688004,-186.14222)">
        <rect width="86" height="85" rx="6" ry="6" x="5" y="7" id="rect3745" style="opacity:0.9;fill:url(#linearGradient4045);fill-opacity:1;fill-rule:nonzero;stroke:none;filter:url(#filter3174-34)" />
    </g>
    <g id="layer4" transform="translate(77.688004,-186.14222)" />
    <g id="layer2-0" style="display:none" transform="translate(104.25239,-175.68836)">
        <rect width="86" height="85" rx="6" ry="6" x="5" y="7" id="rect3745-7" style="opacity:0.9;fill:url(#linearGradient4047);fill-opacity:1;fill-rule:nonzero;stroke:none;filter:url(#filter3174-4-7)" />
    </g>
    <g id="layer4-3" transform="translate(104.25239,-175.68836)" />
    <g id="layer2-1" style="display:none" transform="translate(160.37738,-172.75313)">
        <rect width="86" height="85" rx="6" ry="6" x="5" y="7" id="rect3745-1" style="opacity:0.9;fill:url(#linearGradient4049);fill-opacity:1;fill-rule:nonzero;stroke:none;filter:url(#filter3174-2-0)" />
    </g>
    <g id="layer4-8" transform="translate(160.37738,-172.75313)" />
    <g id="layer2-8-6" style="display:none" transform="matrix(0.99945236,0,0,1,101.44281,-176.40093)">
        <rect width="86" height="85" rx="6.0032878" ry="6" x="5" y="7" id="rect3745-0-8" style="opacity:0.9;fill:url(#ButtonShadow-0-3);fill-opacity:1;fill-rule:nonzero;stroke:none;filter:url(#filter3174-44-1)" />
    </g>
    <g id="layer4-39-0" transform="matrix(0.99945236,0,0,1,101.44281,-176.40093)" />
    <g id="layer2-0-0-4" style="display:none" transform="matrix(0.99945236,0,0,1,127.99264,-165.94707)">
        <rect width="86" height="85" rx="6.0032878" ry="6" x="5" y="7" id="rect3745-7-1-9" style="opacity:0.9;fill:url(#ButtonShadow-91-7-0);fill-opacity:1;fill-rule:nonzero;stroke:none;filter:url(#filter3174-4-4-2)" />
    </g>
    <g id="layer4-3-6-5" transform="matrix(0.99945236,0,0,1,127.99264,-165.94707)" />
    <g id="layer2-1-5-8" style="display:none" transform="matrix(0.99945236,0,0,1,184.08691,-163.01184)">
        <rect width="86" height="85" rx="6.0032878" ry="6" x="5" y="7" id="rect3745-1-3-0" style="opacity:0.9;fill:url(#ButtonShadow-9-1-0);fill-opacity:1;fill-rule:nonzero;stroke:none;filter:url(#filter3174-2-2-8)" />
    </g>
    <g id="layer4-8-2-3" transform="matrix(0.99945236,0,0,1,184.08691,-163.01184)" />
    <g id="layer2-89" style="display:none" transform="translate(77.512115,-182.68233)">
        <rect width="86" height="85" rx="6" ry="6" x="5" y="7" id="rect3745-16" style="opacity:0.9;fill:url(#linearGradient4045-1);fill-opacity:1;fill-rule:nonzero;stroke:none;filter:url(#filter3174-34-6)" />
    </g>
    <g id="layer4-9" transform="translate(77.512115,-182.68233)" />
    <g id="layer2-0-7" style="display:none" transform="translate(104.0765,-172.22847)">
        <rect width="86" height="85" rx="6" ry="6" x="5" y="7" id="rect3745-7-0" style="opacity:0.9;fill:url(#linearGradient4047-0);fill-opacity:1;fill-rule:nonzero;stroke:none;filter:url(#filter3174-4-7-2)" />
    </g>
    <g id="layer4-3-8" transform="translate(104.0765,-172.22847)" />
    <g id="layer2-1-6" style="display:none" transform="translate(160.2015,-169.29324)">
        <rect width="86" height="85" rx="6" ry="6" x="5" y="7" id="rect3745-1-2" style="opacity:0.9;fill:url(#linearGradient4049-7);fill-opacity:1;fill-rule:nonzero;stroke:none;filter:url(#filter3174-2-0-6)" />
    </g>
    <g id="layer4-8-4" transform="translate(160.2015,-169.29324)" />
    <g style="color:black;fill:#002a3c;fill-opacity:0.74509804;fill-rule:evenodd;stroke:none;stroke-width:3pt;marker:none;visibility:visible;display:inline;overflow:visible;enable-background:accumulate" id="layer4-88" transform="translate(142.20661,-134.896)" />
    <g style="color:black;fill:#002a3c;fill-opacity:0.74509804;fill-rule:evenodd;stroke:none;stroke-width:3pt;marker:none;visibility:visible;display:inline;overflow:visible;enable-background:accumulate" id="layer4-3-3" transform="translate(168.771,-124.44214)" />
    <g style="color:black;fill:#002a3c;fill-opacity:0.74509804;fill-rule:evenodd;stroke:none;stroke-width:3pt;marker:none;visibility:visible;display:inline;overflow:visible;enable-background:accumulate" id="layer4-8-21" transform="translate(224.896,-121.50691)" />
    <rect style="color:black;fill:none;stroke:url(#linearGradient4349);stroke-width:0.99999994000000003;stroke-linecap:round;stroke-linejoin:round;stroke-miterlimit:4;stroke-opacity:1;stroke-dasharray:none;stroke-dashoffset:0;marker:none;visibility:visible;display:inline;overflow:visible;enable-background:accumulate" id="rect4341" width="36" height="17" x="8.5" y="11.5" ry="1.4999998" rx="1.5" />
    <path style="color:black;fill:white;fill-opacity:0.35294119;fill-rule:nonzero;stroke:none;stroke-width:1;marker:none;visibility:visible;display:inline;overflow:visible;enable-background:accumulate" d="m 3,14 0,2 4,0 0,-2 -4,0 z m 0,4 0,2 4,0 0,-2 -4,0 z m 0,4 0,2 4,0 0,-2 -4,0 z m 0,4 0,2 4,0 0,-2 -4,0 z m 0,4 0,2 4,0 0,-2 -4,0 z m 0,4 0,2 4,0 0,-2 -4,0 z m 0,4 0,2 4,0 0,-2 -4,0 z" id="rect4385" inkscape:connector-curvature="0" />
    <rect style="opacity:0.4;color:black;fill:url(#linearGradient4192-4);fill-opacity:1;fill-rule:nonzero;stroke:none;stroke-width:1;marker:none;visibility:visible;display:inline;overflow:visible;enable-background:accumulate" id="rect4217" width="35" height="12" x="9" y="29" />
    <path sodipodi:nodetypes="ccccccccc" inkscape:connector-curvature="0" style="color:black;fill:none;stroke:url(#linearGradient4069);stroke-width:1;stroke-linecap:round;stroke-linejoin:round;stroke-miterlimit:4;stroke-opacity:1;stroke-dasharray:none;stroke-dashoffset:0;marker:none;visibility:visible;display:inline;overflow:visible;enable-background:accumulate" id="path3283" d="m 10.500162,18.497332 32,0 c 0.897636,0 1.926392,1.11592 1.999838,2 l 0,19 c 0,1.509644 -0.603559,2 -1.999838,2 l -34.5,0 c 0,0 0.5,0.104854 0.5,-1 l 0,-20 c 0,-0.977175 1.07216,-2 2,-2 z" />
    <path style="color:black;fill:white;fill-opacity:0.33000001;fill-rule:nonzero;stroke:none;stroke-width:5;marker:none;visibility:visible;display:inline;overflow:visible;enable-background:accumulate;opacity:1" inkscape:connector-curvature="0" d="m 32.358686,32.518347 c -0.04055,0.0023 -0.08851,-0.0084 -0.124759,-0.0269 -0.03871,-0.0197 -0.07751,-0.05478 -0.102568,-0.09059 -0.02786,-0.03986 -0.04884,-0.09413 -0.05708,-0.142282 -0.0094,-0.05475 -0.0061,-0.120331 0.0065,-0.1744 0.0144,-0.06162 0.04534,-0.129142 0.08083,-0.18125 0.04022,-0.05916 0.09934,-0.118333 0.157006,-0.160053 0.06501,-0.04696 0.149249,-0.08753 0.225731,-0.110689 0.08538,-0.02587 0.188548,-0.03872 0.277645,-0.03638 0.09863,0.0028 0.211593,0.0243 0.304885,0.05692 0.102524,0.03585 0.214005,0.09588 0.301617,0.160732 0.09564,0.07075 0.193225,0.16924 0.264695,0.264949 0.07752,0.103834 0.148842,0.236784 0.194114,0.35866 0.04886,0.131479 0.08287,0.291004 0.09345,0.431105 0.01132,0.150374 -6.04e-4,0.325114 -0.03084,0.47278 -0.03235,0.15783 -0.09541,0.333738 -0.169291,0.476433 -0.07867,0.151921 -0.193743,0.313331 -0.310337,0.437689 -0.123722,0.131933 -0.287109,0.262953 -0.44148,0.355802 -0.163279,0.09822 -0.366596,0.184152 -0.549949,0.233924 -0.193372,0.05253 -0.42389,0.08114 -0.624054,0.07889 -0.210591,-0.0023 -0.452092,-0.03938 -0.654334,-0.09895 -0.212224,-0.06252 -0.446193,-0.168788 -0.634222,-0.286561 -0.196898,-0.123384 -0.40374,-0.296916 -0.561156,-0.469054 -0.164465,-0.179899 -0.325292,-0.413068 -0.436692,-0.63088 -0.116224,-0.227256 -0.214302,-0.506928 -0.266958,-0.757306 -0.05484,-0.260771 -0.07726,-0.569132 -0.06208,-0.835287 0.01582,-0.276807 0.07689,-0.592284 0.164243,-0.854969 0.09073,-0.272823 0.237159,-0.571734 0.395612,-0.81059 0.164317,-0.247663 0.391348,-0.506025 0.614185,-0.700982 0.230814,-0.201918 0.527088,-0.397213 0.802173,-0.53035 0.28455,-0.137764 0.632627,-0.250867 0.942855,-0.307832 0.320579,-0.05885 0.697862,-0.07571 1.022413,-0.04706 0.335053,0.02959 0.715378,0.116529 1.031023,0.2343 0.325516,0.121501 0.680831,0.31239 0.963522,0.516194 0.291339,0.210056 0.593812,0.497216 0.820655,0.777341 0.233599,0.288401 0.457772,0.656442 0.608767,0.99684 0.155297,0.350152 0.280206,0.776777 0.339765,1.15596 0.06123,0.38976 0.07212,0.847064 0.03073,1.239501 -0.04249,0.403052 -0.152775,0.85938 -0.29761,1.237131 -0.148694,0.387763 -0.378582,0.809829 -0.621939,1.144698 -0.249665,0.34349 -0.58869,0.698913 -0.918065,0.964315 -0.337649,0.272064 -0.766883,0.531703 -1.162831,0.704895 -0.405634,0.177448 -0.898546,0.317813 -1.33576,0.381707 -0.447676,0.06544 -0.971835,0.07061 -1.42081,0.01527 -0.459478,-0.0566 -0.978663,-0.193415 -1.407676,-0.369619 -0.438807,-0.180236 -0.915539,-0.455801 -1.292859,-0.745861 -0.385781,-0.29654 -0.783918,-0.697373 -1.080192,-1.085626 -0.302713,-0.396765 -0.590339,-0.899704 -0.780744,-1.362807 -0.194487,-0.472932 -0.34626,-1.046543 -0.41261,-1.554605 -0.06182,-0.4221 -0.195709,-0.897746 -0.364033,-1.28882 -0.164131,-0.381296 -0.409494,-0.794323 -0.6661,-1.118838 -0.25,-0.31619 -0.584386,-0.641231 -0.907154,-0.880087 -0.314271,-0.232567 -0.710034,-0.451697 -1.073327,-0.592734 -0.353422,-0.137275 -0.780059,-0.240818 -1.156561,-0.279447 -0.36604,-0.03756 -0.792267,-0.02454 -1.155226,0.03647 -0.352569,0.05928 -0.748886,0.181477 -1.073809,0.332419 -0.315348,0.146503 -0.655967,0.363258 -0.922406,0.588561 -0.258338,0.218445 -0.522696,0.509149 -0.715479,0.788745 -0.186749,0.270858 -0.360984,0.610847 -0.47104,0.921954 -0.106514,0.301059 -0.183984,0.663484 -0.208703,0.982351 -0.0239,0.308285 -0.0053,0.666267 0.05162,0.970034 0.05499,0.293302 0.162001,0.621955 0.291236,0.89018 0.124624,0.258659 0.306551,0.536786 0.494052,0.752903 0.180568,0.208097 0.419277,0.419508 0.647635,0.571806 0.219609,0.146421 0.494025,0.280873 0.743989,0.363101 0.240054,0.07892 0.527833,0.132569 0.779911,0.144055 0.241612,0.011 0.52104,-0.01371 0.756864,-0.06827 0.22562,-0.05223 0.47714,-0.147219 0.680905,-0.258551 0.194561,-0.106324 0.402217,-0.258774 0.56171,-0.414006 0.15196,-0.147893 0.304328,-0.34161 0.411609,-0.525457 0.102005,-0.174776 0.192854,-0.391645 0.24473,-0.587806 0.04917,-0.185995 0.07748,-0.407609 0.07529,-0.600188 -0.0021,-0.182084 -0.03222,-0.391156 -0.08297,-0.56582 -0.04784,-0.164609 -0.12806,-0.346462 -0.218383,-0.491533 -0.08486,-0.136292 -0.203505,-0.279628 -0.322029,-0.386933 -0.110917,-0.10041 -0.254118,-0.198272 -0.388156,-0.263522 -0.124831,-0.06077 -0.278016,-0.110654 -0.41465,-0.133434 -0.126688,-0.02117 -0.275828,-0.02498 -0.403221,-0.0087 -0.117412,0.01494 -0.250296,0.05143 -0.358468,0.100103 -0.09916,0.04458 -0.206175,0.112464 -0.288036,0.18464 -0.07448,0.06569 -0.149474,0.15407 -0.201018,0.23946 -0.04653,0.07711 -0.08717,0.174211 -0.107763,0.262165 -0.01849,0.07877 -0.02602,0.173081 -0.01837,0.253652 0.0066,0.07155 0.02772,0.153051 0.05807,0.217999 0.02676,0.05723 0.06891,0.118188 0.114332,0.161635 0.03982,0.03811 0.09418,0.07375 0.145576,0.09287 0.04524,0.01687 0.102016,0.02558 0.149993,0.02101 0.04308,-0.0042 0.09243,-0.02068 0.128619,-0.04481 0.03391,-0.02261 0.0669,-0.05948 0.08535,-0.09616 0.01841,-0.03672 0.05144,-0.07357 0.08534,-0.09619 0.03614,-0.02411 0.08549,-0.04071 0.128619,-0.0448 0.04799,-0.0046 0.104723,0.0042 0.149954,0.02101 0.05139,0.01912 0.105795,0.05477 0.145614,0.09288 0.04541,0.04343 0.08758,0.104401 0.114331,0.161636 0.03036,0.06494 0.05128,0.146463 0.05807,0.218 0.0075,0.08061 7e-5,0.174923 -0.01838,0.253653 -0.02063,0.08799 -0.06126,0.185057 -0.107807,0.262164 -0.05151,0.08539 -0.126538,0.173758 -0.201016,0.239459 -0.08186,0.07218 -0.188883,0.140059 -0.287999,0.184639 -0.108205,0.04868 -0.241058,0.08515 -0.358506,0.100104 -0.127356,0.01621 -0.276532,0.01238 -0.403184,-0.0086 -0.13667,-0.0228 -0.289816,-0.07271 -0.414688,-0.133471 -0.134035,-0.06524 -0.277201,-0.163106 -0.388117,-0.263516 -0.118561,-0.107311 -0.23716,-0.250646 -0.322029,-0.386938 -0.09035,-0.145072 -0.170588,-0.326924 -0.218419,-0.491533 -0.05075,-0.174663 -0.08089,-0.38374 -0.08297,-0.565818 -0.0022,-0.192582 0.02612,-0.414196 0.07533,-0.600189 0.05188,-0.196164 0.142684,-0.413033 0.244694,-0.587808 0.107321,-0.183847 0.259687,-0.377526 0.411646,-0.525455 0.159455,-0.155235 0.367114,-0.307685 0.56171,-0.414007 0.203728,-0.111331 0.455285,-0.20633 0.680905,-0.25855 0.235789,-0.05454 0.515214,-0.0793 0.756865,-0.06826 0.25208,0.0115 0.539819,0.06514 0.779872,0.14409 0.25,0.0822 0.524381,0.216643 0.74399,0.363104 0.228366,0.15226 0.467084,0.363668 0.647655,0.571764 0.18751,0.21612 0.369416,0.494246 0.494062,0.752906 0.129213,0.268223 0.236233,0.596878 0.29123,0.89018 0.05692,0.303767 0.07552,0.66175 0.05161,0.970033 -0.02471,0.318906 -0.102193,0.681293 -0.208699,0.98235 -0.110062,0.311147 -0.284286,0.651098 -0.471054,0.921956 -0.192778,0.279597 -0.45714,0.570298 -0.715491,0.788745 -0.266437,0.225302 -0.60702,0.442058 -0.922368,0.588561 -0.324923,0.150942 -0.72128,0.273158 -1.073847,0.332418 -0.36292,0.06104 -0.789186,0.07401 -1.155224,0.03647 -0.376493,-0.03863 -0.803093,-0.142172 -1.156551,-0.279407 -0.363267,-0.14108 -0.759036,-0.360206 -1.073301,-0.592773 -0.322785,-0.238857 -0.657152,-0.563898 -0.907165,-0.880093 -0.256618,-0.324513 -0.501957,-0.737538 -0.666089,-1.118832 -0.168349,-0.391075 -0.302212,-0.86672 -0.364053,-1.288823 -0.06339,-0.432724 -0.07039,-0.939728 -0.02027,-1.374219 0.05136,-0.445145 0.17802,-0.948424 0.342089,-1.36454 0.167986,-0.426057 0.425667,-0.889238 0.697375,-1.256072 0.278055,-0.375414 0.654435,-0.763219 1.019349,-1.052075 0.373242,-0.295483 0.846817,-0.576583 1.283064,-0.763106 0.44597,-0.190701 0.987161,-0.340139 1.466715,-0.406328 0.490017,-0.06763 1.063159,-0.06886 1.553585,-0.0046 0.500967,0.06558 1.066424,0.219052 1.533251,0.41476 0.391235,0.156703 0.864108,0.276885 1.282098,0.324513 0.407528,0.04641 0.882702,0.03736 1.288037,-0.02587 0.394872,-0.06158 0.839507,-0.192845 1.204765,-0.357045 0.355648,-0.159864 0.740576,-0.398081 1.042601,-0.646723 0.293861,-0.241946 0.595592,-0.565029 0.816797,-0.876551 0.215044,-0.302863 0.417099,-0.683889 0.546496,-1.033326 0.12565,-0.339423 0.219535,-0.748763 0.253155,-1.109758 0.03263,-0.350343 0.01792,-0.757987 -0.04115,-1.104752 -0.0573,-0.336223 -0.17326,-0.71386 -0.315533,-1.023049 -0.137786,-0.299551 -0.340881,-0.622631 -0.551396,-0.87489 -0.203725,-0.244092 -0.474322,-0.493377 -0.734156,-0.674553 -0.25115,-0.175113 -0.566016,-0.337802 -0.853755,-0.43965 -0.277832,-0.09835 -0.611883,-0.168637 -0.905448,-0.189197 -0.283101,-0.0198 -0.611438,9.76e-4 -0.88964,0.05767 -0.267924,0.05458 -0.567724,0.158625 -0.811897,0.283174 -0.234786,0.11973 -0.486752,0.2936 -0.681906,0.472179 -0.187398,0.171461 -0.377096,0.397479 -0.512951,0.613219 -0.130176,0.206815 -0.248812,0.464686 -0.320136,0.699175 -0.06825,0.224361 -0.112958,0.492887 -0.119785,0.727601 -0.0065,0.224099 0.01977,0.482797 0.07254,0.700532 0.05025,0.207494 0.139419,0.438217 0.242654,0.62444 0.09819,0.176998 0.237864,0.365251 0.379398,0.508926 0.134147,0.136222 0.309149,0.271914 0.474617,0.366267 0.15645,0.08919 0.350008,0.167285 0.524455,0.210017 0.164428,0.04025 0.359729,0.0607 0.52876,0.05383 0.15875,-0.0064 0.340395,-0.03896 0.491279,-0.08951 0.14116,-0.04725 0.296275,-0.124134 0.418993,-0.209261 0.114294,-0.07934 0.233449,-0.189008 0.321248,-0.297669 0.08138,-0.100724 0.159195,-0.229859 0.209031,-0.349888 0.04597,-0.110656 0.08127,-0.245635 0.09385,-0.365065 0.01149,-0.109412 0.007,-0.237388 -0.01363,-0.345371 -0.01884,-0.09831 -0.05678,-0.208396 -0.103873,-0.296386 -0.04256,-0.07945 -0.105132,-0.163669 -0.169881,-0.225754 -0.058,-0.05562 -0.134742,-0.109412 -0.207326,-0.142999 -0.06446,-0.02982 -0.1445,-0.05219 -0.215117,-0.05795 -0.06219,-0.0051 -0.135335,0.0014 -0.195118,0.01961 -0.05243,0.01592 -0.110062,0.04589 -0.152109,0.08148 -0.037,0.03133 -0.07281,0.07684 -0.09287,0.121311 -0.01808,0.03992 -0.02861,0.09156 -0.02608,0.135393 0.0023,0.04113 0.01729,0.08855 0.0394,0.123081 0.02211,0.03455 0.03706,0.08197 0.03945,0.123117 0.0024,0.04384 -0.008,0.09548 -0.02608,0.135392 -0.02007,0.04443 -0.05591,0.08996 -0.09292,0.121274 -0.042,0.03561 -0.09963,0.06555 -0.15207,0.08152 -0.05978,0.01816 -0.132922,0.02474 -0.195117,0.01961 -0.07062,-0.0057 -0.150661,-0.02811 -0.215117,-0.05798 -0.07262,-0.03358 -0.149364,-0.08736 -0.207327,-0.14296 -0.06479,-0.06207 -0.12732,-0.146351 -0.169882,-0.225755 -0.04713,-0.08799 -0.08506,-0.198119 -0.103873,-0.296387 -0.02071,-0.108023 -0.02512,-0.235996 -0.01363,-0.34541 0.01258,-0.119391 0.04788,-0.254368 0.0938,-0.365024 0.04987,-0.12003 0.127691,-0.249212 0.209069,-0.349926 0.0878,-0.108657 0.206956,-0.218301 0.321249,-0.297631 0.122679,-0.08515 0.277831,-0.162049 0.418992,-0.209301 0.150883,-0.05048 0.33253,-0.08306 0.491279,-0.08947 0.16903,-0.0067 0.364332,0.01356 0.52876,0.05383 0.174446,0.04273 0.368006,0.120783 0.524455,0.210016 0.165466,0.09436 0.340433,0.230048 0.474619,0.366268 0.141493,0.143676 0.281207,0.331893 0.379358,0.508925 0.103265,0.186184 0.19241,0.416947 0.24269,0.624403 0.05278,0.217735 0.07905,0.476433 0.07252,0.700569 -0.0067,0.234714 -0.05152,0.503204 -0.11975,0.727565 -0.07131,0.234489 -0.189958,0.492397 -0.320172,0.699176 -0.135819,0.215777 -0.325517,0.441794 -0.512915,0.613257 -0.195153,0.17854 -0.44712,0.35241 -0.681944,0.472179 -0.244137,0.124511 -0.543935,0.228576 -0.811859,0.28317 -0.278203,0.0567 -0.606575,0.07748 -0.889639,0.05767 -0.293565,-0.02048 -0.627617,-0.09079 -0.905449,-0.189125 -0.287777,-0.101889 -0.602604,-0.264535 -0.853791,-0.439686 -0.259795,-0.181171 -0.530353,-0.430458 -0.734114,-0.674586 -0.210518,-0.252261 -0.413576,-0.575343 -0.551397,-0.874855 -0.142236,-0.309188 -0.2582,-0.686828 -0.315497,-1.023087 -0.05907,-0.346763 -0.07378,-0.754409 -0.04116,-1.10475 0.03362,-0.360958 0.127467,-0.770335 0.253153,-1.109757 0.129398,-0.349439 0.331416,-0.730464 0.546498,-1.033328 0.221204,-0.311522 0.522897,-0.634567 0.816759,-0.876511 0.302064,-0.248685 0.686953,-0.486864 1.042601,-0.64673 0.365296,-0.164194 0.80993,-0.295482 1.204801,-0.35708 0.4053,-0.06322 0.880512,-0.07228 1.288037,-0.02588 0.417991,0.04763 0.890866,0.16781 1.282101,0.32455 0.401032,0.160656 0.837279,0.407984 1.183093,0.669281 0.354274,0.267698 0.720537,0.630653 0.993655,0.982876 0.279687,0.360657 0.546162,0.818642 0.72343,1.24082 0.181423,0.432006 0.324217,0.956632 0.38834,1.421695 0.06556,0.475718 0.06872,1.032387 0.0098,1.508971 -0.06021,0.487203 -0.203281,1.037468 -0.386559,1.491952 -0.187287,0.464347 -0.4728,0.968567 -0.772822,1.36744 -0.306478,0.407343 -0.720203,0.827488 -1.120641,1.139841 -0.329373,0.265399 -0.668435,0.620824 -0.918065,0.964314 -0.243356,0.33483 -0.473245,0.756929 -0.621938,1.144659 -0.144872,0.377789 -0.25512,0.834118 -0.29761,1.23717 -0.04138,0.392432 -0.03054,0.849741 0.03068,1.239501 0.0596,0.379146 0.184503,0.805802 0.339802,1.155957 0.150957,0.340362 0.375168,0.708437 0.608729,0.996843 0.226881,0.28012 0.529353,0.567285 0.820654,0.777302 0.282731,0.203842 0.638045,0.394733 0.96356,0.516231 0.315644,0.117774 0.695972,0.204709 1.030987,0.234302 0.324587,0.02865 0.70187,0.01177 1.02245,-0.04706 0.310228,-0.05697 0.658306,-0.170108 0.942854,-0.307834 0.275049,-0.133136 0.571323,-0.328434 0.802138,-0.530351 0.222873,-0.194957 0.449904,-0.453319 0.614221,-0.700987 0.158452,-0.238856 0.304882,-0.537766 0.395613,-0.810583 0.08736,-0.262688 0.148434,-0.578168 0.164205,-0.854975 0.01521,-0.26619 -0.0071,-0.574512 -0.06204,-0.835282 -0.05267,-0.250376 -0.150735,-0.53005 -0.266957,-0.757313 -0.111438,-0.217805 -0.272228,-0.450981 -0.436731,-0.630874 -0.157378,-0.172138 -0.36422,-0.345707 -0.561118,-0.469055 -0.188067,-0.117771 -0.422,-0.224058 -0.634222,-0.28656 -0.202242,-0.05957 -0.443781,-0.0966 -0.654335,-0.09894 -0.200163,-0.0023 -0.430682,0.02635 -0.624053,0.07888 -0.18339,0.04978 -0.386672,0.135692 -0.549949,0.233926 -0.154372,0.09284 -0.317797,0.223869 -0.44148,0.3558 -0.116595,0.124359 -0.231706,0.285731 -0.310376,0.437691 -0.07388,0.142695 -0.136931,0.318599 -0.169253,0.476431 -0.03025,0.147667 -0.0422,0.322407 -0.03084,0.472784 0.01061,0.140101 0.04456,0.299625 0.09341,0.431103 0.04532,0.121876 0.116631,0.254821 0.19415,0.358661 0.07148,0.09571 0.16903,0.1942 0.264697,0.264949 0.0876,0.06482 0.199086,0.124886 0.301618,0.160733 0.0933,0.03261 0.206248,0.05432 0.304883,0.05692 0.0891,0.0023 0.19226,-0.01056 0.277646,-0.03639 0.0765,-0.02313 0.160718,-0.06371 0.225694,-0.11069 0.05771,-0.04175 0.116781,-0.1009 0.157043,-0.160053 0.03547,-0.05212 0.06643,-0.119657 0.08083,-0.181254 0.0126,-0.05405 0.01585,-0.119652 0.0065,-0.174395 -0.0082,-0.04816 -0.0292,-0.102412 -0.05708,-0.142287 -0.02509,-0.0358 -0.06389,-0.07091 -0.102568,-0.09059 -0.0363,-0.01847 -0.0842,-0.02909 -0.124759,-0.02691 z" id="path3644" />
    <path id="path3173" d="m 32.358686,31.518347 c -0.04055,0.0023 -0.08851,-0.0084 -0.124759,-0.0269 -0.03871,-0.0197 -0.07751,-0.05478 -0.102568,-0.09059 -0.02786,-0.03986 -0.04884,-0.09413 -0.05708,-0.142282 -0.0094,-0.05475 -0.0061,-0.120331 0.0065,-0.1744 0.0144,-0.06162 0.04534,-0.129142 0.08083,-0.18125 0.04022,-0.05916 0.09934,-0.118333 0.157006,-0.160053 0.06501,-0.04696 0.149249,-0.08753 0.225731,-0.110689 0.08538,-0.02587 0.188548,-0.03872 0.277645,-0.03638 0.09863,0.0028 0.211593,0.0243 0.304885,0.05692 0.102524,0.03585 0.214005,0.09588 0.301617,0.160732 0.09564,0.07075 0.193225,0.16924 0.264695,0.264949 0.07752,0.103834 0.148842,0.236784 0.194114,0.35866 0.04886,0.131479 0.08287,0.291004 0.09345,0.431105 0.01132,0.150374 -6.04e-4,0.325114 -0.03084,0.47278 -0.03235,0.15783 -0.09541,0.333738 -0.169291,0.476433 -0.07867,0.151921 -0.193743,0.313331 -0.310337,0.437689 -0.123722,0.131933 -0.287109,0.262953 -0.44148,0.355802 -0.163279,0.09822 -0.366596,0.184152 -0.549949,0.233924 -0.193372,0.05253 -0.42389,0.08114 -0.624054,0.07889 -0.210591,-0.0023 -0.452092,-0.03938 -0.654334,-0.09895 -0.212224,-0.06252 -0.446193,-0.168788 -0.634222,-0.286561 -0.196898,-0.123384 -0.40374,-0.296916 -0.561156,-0.469054 -0.164465,-0.179899 -0.325292,-0.413068 -0.436692,-0.63088 -0.116224,-0.227256 -0.214302,-0.506928 -0.266958,-0.757306 -0.05484,-0.260771 -0.07726,-0.569132 -0.06208,-0.835287 0.01582,-0.276807 0.07689,-0.592284 0.164243,-0.854969 0.09073,-0.272823 0.237159,-0.571734 0.395612,-0.81059 0.164317,-0.247663 0.391348,-0.506025 0.614185,-0.700982 0.230814,-0.201918 0.527088,-0.397213 0.802173,-0.53035 0.28455,-0.137764 0.632627,-0.250867 0.942855,-0.307832 0.320579,-0.05885 0.697862,-0.07571 1.022413,-0.04706 0.335053,0.02959 0.715378,0.116529 1.031023,0.2343 0.325516,0.121501 0.680831,0.31239 0.963522,0.516194 0.291339,0.210056 0.593812,0.497216 0.820655,0.777341 0.233599,0.288401 0.457772,0.656442 0.608767,0.99684 0.155297,0.350152 0.280206,0.776777 0.339765,1.15596 0.06123,0.38976 0.07212,0.847064 0.03073,1.239501 -0.04249,0.403052 -0.152775,0.85938 -0.29761,1.237131 -0.148694,0.387763 -0.378582,0.809829 -0.621939,1.144698 -0.249665,0.34349 -0.58869,0.698913 -0.918065,0.964315 -0.337649,0.272064 -0.766883,0.531703 -1.162831,0.704895 -0.405634,0.177448 -0.898546,0.317813 -1.33576,0.381707 -0.447676,0.06544 -0.971835,0.07061 -1.42081,0.01527 -0.459478,-0.0566 -0.978663,-0.193415 -1.407676,-0.369619 -0.438807,-0.180236 -0.915539,-0.455801 -1.292859,-0.745861 -0.385781,-0.29654 -0.783918,-0.697373 -1.080192,-1.085626 -0.302713,-0.396765 -0.590339,-0.899704 -0.780744,-1.362807 -0.194487,-0.472932 -0.34626,-1.046543 -0.41261,-1.554605 -0.06182,-0.4221 -0.195709,-0.897746 -0.364033,-1.28882 -0.164131,-0.381296 -0.409494,-0.794323 -0.6661,-1.118838 -0.25,-0.31619 -0.584386,-0.641231 -0.907154,-0.880087 -0.314271,-0.232567 -0.710034,-0.451697 -1.073327,-0.592734 -0.353422,-0.137275 -0.780059,-0.240818 -1.156561,-0.279447 -0.36604,-0.03756 -0.792267,-0.02454 -1.155226,0.03647 -0.352569,0.05928 -0.748886,0.181477 -1.073809,0.332419 -0.315348,0.146503 -0.655967,0.363258 -0.922406,0.588561 -0.258338,0.218445 -0.522696,0.509149 -0.715479,0.788745 -0.186749,0.270858 -0.360984,0.610847 -0.47104,0.921954 -0.106514,0.301059 -0.183984,0.663484 -0.208703,0.982351 -0.0239,0.308285 -0.0053,0.666267 0.05162,0.970034 0.05499,0.293302 0.162001,0.621955 0.291236,0.89018 0.124624,0.258659 0.306551,0.536786 0.494052,0.752903 0.180568,0.208097 0.419277,0.419508 0.647635,0.571806 0.219609,0.146421 0.494025,0.280873 0.743989,0.363101 0.240054,0.07892 0.527833,0.132569 0.779911,0.144055 0.241612,0.011 0.52104,-0.01371 0.756864,-0.06827 0.22562,-0.05223 0.47714,-0.147219 0.680905,-0.258551 0.194561,-0.106324 0.402217,-0.258774 0.56171,-0.414006 0.15196,-0.147893 0.304328,-0.34161 0.411609,-0.525457 0.102005,-0.174776 0.192854,-0.391645 0.24473,-0.587806 0.04917,-0.185995 0.07748,-0.407609 0.07529,-0.600188 -0.0021,-0.182084 -0.03222,-0.391156 -0.08297,-0.56582 -0.04784,-0.164609 -0.12806,-0.346462 -0.218383,-0.491533 -0.08486,-0.136292 -0.203505,-0.279628 -0.322029,-0.386933 -0.110917,-0.10041 -0.254118,-0.198272 -0.388156,-0.263522 -0.124831,-0.06077 -0.278016,-0.110654 -0.41465,-0.133434 -0.126688,-0.02117 -0.275828,-0.02498 -0.403221,-0.0087 -0.117412,0.01494 -0.250296,0.05143 -0.358468,0.100103 -0.09916,0.04458 -0.206175,0.112464 -0.288036,0.18464 -0.07448,0.06569 -0.149474,0.15407 -0.201018,0.23946 -0.04653,0.07711 -0.08717,0.174211 -0.107763,0.262165 -0.01849,0.07877 -0.02602,0.173081 -0.01837,0.253652 0.0066,0.07155 0.02772,0.153051 0.05807,0.217999 0.02676,0.05723 0.06891,0.118188 0.114332,0.161635 0.03982,0.03811 0.09418,0.07375 0.145576,0.09287 0.04524,0.01687 0.102016,0.02558 0.149993,0.02101 0.04308,-0.0042 0.09243,-0.02068 0.128619,-0.04481 0.03391,-0.02261 0.0669,-0.05948 0.08535,-0.09616 0.01841,-0.03672 0.05144,-0.07357 0.08534,-0.09619 0.03614,-0.02411 0.08549,-0.04071 0.128619,-0.0448 0.04799,-0.0046 0.104723,0.0042 0.149954,0.02101 0.05139,0.01912 0.105795,0.05477 0.145614,0.09288 0.04541,0.04343 0.08758,0.104401 0.114331,0.161636 0.03036,0.06494 0.05128,0.146463 0.05807,0.218 0.0075,0.08061 7e-5,0.174923 -0.01838,0.253653 -0.02063,0.08799 -0.06126,0.185057 -0.107807,0.262164 -0.05151,0.08539 -0.126538,0.173758 -0.201016,0.239459 -0.08186,0.07218 -0.188883,0.140059 -0.287999,0.184639 -0.108205,0.04868 -0.241058,0.08515 -0.358506,0.100104 -0.127356,0.01621 -0.276532,0.01238 -0.403184,-0.0086 -0.13667,-0.0228 -0.289816,-0.07271 -0.414688,-0.133471 -0.134035,-0.06524 -0.277201,-0.163106 -0.388117,-0.263516 -0.118561,-0.107311 -0.23716,-0.250646 -0.322029,-0.386938 -0.09035,-0.145072 -0.170588,-0.326924 -0.218419,-0.491533 -0.05075,-0.174663 -0.08089,-0.38374 -0.08297,-0.565818 -0.0022,-0.192582 0.02612,-0.414196 0.07533,-0.600189 0.05188,-0.196164 0.142684,-0.413033 0.244694,-0.587808 0.107321,-0.183847 0.259687,-0.377526 0.411646,-0.525455 0.159455,-0.155235 0.367114,-0.307685 0.56171,-0.414007 0.203728,-0.111331 0.455285,-0.20633 0.680905,-0.25855 0.235789,-0.05454 0.515214,-0.0793 0.756865,-0.06826 0.25208,0.0115 0.539819,0.06514 0.779872,0.14409 0.25,0.0822 0.524381,0.216643 0.74399,0.363104 0.228366,0.15226 0.467084,0.363668 0.647655,0.571764 0.18751,0.21612 0.369416,0.494246 0.494062,0.752906 0.129213,0.268223 0.236233,0.596878 0.29123,0.89018 0.05692,0.303767 0.07552,0.66175 0.05161,0.970033 -0.02471,0.318906 -0.102193,0.681293 -0.208699,0.98235 -0.110062,0.311147 -0.284286,0.651098 -0.471054,0.921956 -0.192778,0.279597 -0.45714,0.570298 -0.715491,0.788745 -0.266437,0.225302 -0.60702,0.442058 -0.922368,0.588561 -0.324923,0.150942 -0.72128,0.273158 -1.073847,0.332418 -0.36292,0.06104 -0.789186,0.07401 -1.155224,0.03647 -0.376493,-0.03863 -0.803093,-0.142172 -1.156551,-0.279407 -0.363267,-0.14108 -0.759036,-0.360206 -1.073301,-0.592773 -0.322785,-0.238857 -0.657152,-0.563898 -0.907165,-0.880093 -0.256618,-0.324513 -0.501957,-0.737538 -0.666089,-1.118832 -0.168349,-0.391075 -0.302212,-0.86672 -0.364053,-1.288823 -0.06339,-0.432724 -0.07039,-0.939728 -0.02027,-1.374219 0.05136,-0.445145 0.17802,-0.948424 0.342089,-1.36454 0.167986,-0.426057 0.425667,-0.889238 0.697375,-1.256072 0.278055,-0.375414 0.654435,-0.763219 1.019349,-1.052075 0.373242,-0.295483 0.846817,-0.576583 1.283064,-0.763106 0.44597,-0.190701 0.987161,-0.340139 1.466715,-0.406328 0.490017,-0.06763 1.063159,-0.06886 1.553585,-0.0046 0.500967,0.06558 1.066424,0.219052 1.533251,0.41476 0.391235,0.156703 0.864108,0.276885 1.282098,0.324513 0.407528,0.04641 0.882702,0.03736 1.288037,-0.02587 0.394872,-0.06158 0.839507,-0.192845 1.204765,-0.357045 0.355648,-0.159864 0.740576,-0.398081 1.042601,-0.646723 0.293861,-0.241946 0.595592,-0.565029 0.816797,-0.876551 0.215044,-0.302863 0.417099,-0.683889 0.546496,-1.033326 0.12565,-0.339423 0.219535,-0.748763 0.253155,-1.109758 0.03263,-0.350343 0.01792,-0.757987 -0.04115,-1.104752 -0.0573,-0.336223 -0.17326,-0.71386 -0.315533,-1.023049 -0.137786,-0.299551 -0.340881,-0.622631 -0.551396,-0.87489 -0.203725,-0.244092 -0.474322,-0.493377 -0.734156,-0.674553 -0.25115,-0.175113 -0.566016,-0.337802 -0.853755,-0.43965 -0.277832,-0.09835 -0.611883,-0.168637 -0.905448,-0.189197 -0.283101,-0.0198 -0.611438,9.76e-4 -0.88964,0.05767 -0.267924,0.05458 -0.567724,0.158625 -0.811897,0.283174 -0.234786,0.11973 -0.486752,0.2936 -0.681906,0.472179 -0.187398,0.171461 -0.377096,0.397479 -0.512951,0.613219 -0.130176,0.206815 -0.248812,0.464686 -0.320136,0.699175 -0.06825,0.224361 -0.112958,0.492887 -0.119785,0.727601 -0.0065,0.224099 0.01977,0.482797 0.07254,0.700532 0.05025,0.207494 0.139419,0.438217 0.242654,0.62444 0.09819,0.176998 0.237864,0.365251 0.379398,0.508926 0.134147,0.136222 0.309149,0.271914 0.474617,0.366267 0.15645,0.08919 0.350008,0.167285 0.524455,0.210017 0.164428,0.04025 0.359729,0.0607 0.52876,0.05383 0.15875,-0.0064 0.340395,-0.03896 0.491279,-0.08951 0.14116,-0.04725 0.296275,-0.124134 0.418993,-0.209261 0.114294,-0.07934 0.233449,-0.189008 0.321248,-0.297669 0.08138,-0.100724 0.159195,-0.229859 0.209031,-0.349888 0.04597,-0.110656 0.08127,-0.245635 0.09385,-0.365065 0.01149,-0.109412 0.007,-0.237388 -0.01363,-0.345371 -0.01884,-0.09831 -0.05678,-0.208396 -0.103873,-0.296386 -0.04256,-0.07945 -0.105132,-0.163669 -0.169881,-0.225754 -0.058,-0.05562 -0.134742,-0.109412 -0.207326,-0.142999 -0.06446,-0.02982 -0.1445,-0.05219 -0.215117,-0.05795 -0.06219,-0.0051 -0.135335,0.0014 -0.195118,0.01961 -0.05243,0.01592 -0.110062,0.04589 -0.152109,0.08148 -0.037,0.03133 -0.07281,0.07684 -0.09287,0.121311 -0.01808,0.03992 -0.02861,0.09156 -0.02608,0.135393 0.0023,0.04113 0.01729,0.08855 0.0394,0.123081 0.02211,0.03455 0.03706,0.08197 0.03945,0.123117 0.0024,0.04384 -0.008,0.09548 -0.02608,0.135392 -0.02007,0.04443 -0.05591,0.08996 -0.09292,0.121274 -0.042,0.03561 -0.09963,0.06555 -0.15207,0.08152 -0.05978,0.01816 -0.132922,0.02474 -0.195117,0.01961 -0.07062,-0.0057 -0.150661,-0.02811 -0.215117,-0.05798 -0.07262,-0.03358 -0.149364,-0.08736 -0.207327,-0.14296 -0.06479,-0.06207 -0.12732,-0.146351 -0.169882,-0.225755 -0.04713,-0.08799 -0.08506,-0.198119 -0.103873,-0.296387 -0.02071,-0.108023 -0.02512,-0.235996 -0.01363,-0.34541 0.01258,-0.119391 0.04788,-0.254368 0.0938,-0.365024 0.04987,-0.12003 0.127691,-0.249212 0.209069,-0.349926 0.0878,-0.108657 0.206956,-0.218301 0.321249,-0.297631 0.122679,-0.08515 0.277831,-0.162049 0.418992,-0.209301 0.150883,-0.05048 0.33253,-0.08306 0.491279,-0.08947 0.16903,-0.0067 0.364332,0.01356 0.52876,0.05383 0.174446,0.04273 0.368006,0.120783 0.524455,0.210016 0.165466,0.09436 0.340433,0.230048 0.474619,0.366268 0.141493,0.143676 0.281207,0.331893 0.379358,0.508925 0.103265,0.186184 0.19241,0.416947 0.24269,0.624403 0.05278,0.217735 0.07905,0.476433 0.07252,0.700569 -0.0067,0.234714 -0.05152,0.503204 -0.11975,0.727565 -0.07131,0.234489 -0.189958,0.492397 -0.320172,0.699176 -0.135819,0.215777 -0.325517,0.441794 -0.512915,0.613257 -0.195153,0.17854 -0.44712,0.35241 -0.681944,0.472179 -0.244137,0.124511 -0.543935,0.228576 -0.811859,0.28317 -0.278203,0.0567 -0.606575,0.07748 -0.889639,0.05767 -0.293565,-0.02048 -0.627617,-0.09079 -0.905449,-0.189125 -0.287777,-0.101889 -0.602604,-0.264535 -0.853791,-0.439686 -0.259795,-0.181171 -0.530353,-0.430458 -0.734114,-0.674586 -0.210518,-0.252261 -0.413576,-0.575343 -0.551397,-0.874855 -0.142236,-0.309188 -0.2582,-0.686828 -0.315497,-1.023087 -0.05907,-0.346763 -0.07378,-0.754409 -0.04116,-1.10475 0.03362,-0.360958 0.127467,-0.770335 0.253153,-1.109757 0.129398,-0.349439 0.331416,-0.730464 0.546498,-1.033328 0.221204,-0.311522 0.522897,-0.634567 0.816759,-0.876511 0.302064,-0.248685 0.686953,-0.486864 1.042601,-0.64673 0.365296,-0.164194 0.80993,-0.295482 1.204801,-0.35708 0.4053,-0.06322 0.880512,-0.07228 1.288037,-0.02588 0.417991,0.04763 0.890866,0.16781 1.282101,0.32455 0.401032,0.160656 0.837279,0.407984 1.183093,0.669281 0.354274,0.267698 0.720537,0.630653 0.993655,0.982876 0.279687,0.360657 0.546162,0.818642 0.72343,1.24082 0.181423,0.432006 0.324217,0.956632 0.38834,1.421695 0.06556,0.475718 0.06872,1.032387 0.0098,1.508971 -0.06021,0.487203 -0.203281,1.037468 -0.386559,1.491952 -0.187287,0.464347 -0.4728,0.968567 -0.772822,1.36744 -0.306478,0.407343 -0.720203,0.827488 -1.120641,1.139841 -0.329373,0.265399 -0.668435,0.620824 -0.918065,0.964314 -0.243356,0.33483 -0.473245,0.756929 -0.621938,1.144659 -0.144872,0.377789 -0.25512,0.834118 -0.29761,1.23717 -0.04138,0.392432 -0.03054,0.849741 0.03068,1.239501 0.0596,0.379146 0.184503,0.805802 0.339802,1.155957 0.150957,0.340362 0.375168,0.708437 0.608729,0.996843 0.226881,0.28012 0.529353,0.567285 0.820654,0.777302 0.282731,0.203842 0.638045,0.394733 0.96356,0.516231 0.315644,0.117774 0.695972,0.204709 1.030987,0.234302 0.324587,0.02865 0.70187,0.01177 1.02245,-0.04706 0.310228,-0.05697 0.658306,-0.170108 0.942854,-0.307834 0.275049,-0.133136 0.571323,-0.328434 0.802138,-0.530351 0.222873,-0.194957 0.449904,-0.453319 0.614221,-0.700987 0.158452,-0.238856 0.304882,-0.537766 0.395613,-0.810583 0.08736,-0.262688 0.148434,-0.578168 0.164205,-0.854975 0.01521,-0.26619 -0.0071,-0.574512 -0.06204,-0.835282 -0.05267,-0.250376 -0.150735,-0.53005 -0.266957,-0.757313 -0.111438,-0.217805 -0.272228,-0.450981 -0.436731,-0.630874 -0.157378,-0.172138 -0.36422,-0.345707 -0.561118,-0.469055 -0.188067,-0.117771 -0.422,-0.224058 -0.634222,-0.28656 -0.202242,-0.05957 -0.443781,-0.0966 -0.654335,-0.09894 -0.200163,-0.0023 -0.430682,0.02635 -0.624053,0.07888 -0.18339,0.04978 -0.386672,0.135692 -0.549949,0.233926 -0.154372,0.09284 -0.317797,0.223869 -0.44148,0.3558 -0.116595,0.124359 -0.231706,0.285731 -0.310376,0.437691 -0.07388,0.142695 -0.136931,0.318599 -0.169253,0.476431 -0.03025,0.147667 -0.0422,0.322407 -0.03084,0.472784 0.01061,0.140101 0.04456,0.299625 0.09341,0.431103 0.04532,0.121876 0.116631,0.254821 0.19415,0.358661 0.07148,0.09571 0.16903,0.1942 0.264697,0.264949 0.0876,0.06482 0.199086,0.124886 0.301618,0.160733 0.0933,0.03261 0.206248,0.05432 0.304883,0.05692 0.0891,0.0023 0.19226,-0.01056 0.277646,-0.03639 0.0765,-0.02313 0.160718,-0.06371 0.225694,-0.11069 0.05771,-0.04175 0.116781,-0.1009 0.157043,-0.160053 0.03547,-0.05212 0.06643,-0.119657 0.08083,-0.181254 0.0126,-0.05405 0.01585,-0.119652 0.0065,-0.174395 -0.0082,-0.04816 -0.0292,-0.102412 -0.05708,-0.142287 -0.02509,-0.0358 -0.06389,-0.07091 -0.102568,-0.09059 -0.0363,-0.01847 -0.0842,-0.02909 -0.124759,-0.02691 z" inkscape:connector-curvature="0" style="color:black;fill:#0e3856;fill-opacity:0.60000002;fill-rule:nonzero;stroke:none;stroke-width:5;marker:none;visibility:visible;display:inline;overflow:visible;enable-background:accumulate" />
    <g style="color:black;fill:#002a3c;fill-opacity:0.74509804;fill-rule:evenodd;stroke:none;stroke-width:3pt;marker:none;visibility:visible;display:inline;overflow:visible;enable-background:accumulate" id="layer4-6-4" transform="translate(53.968551,-188.78881)" />
    <g style="color:black;fill:#002a3c;fill-opacity:0.74509804;fill-rule:evenodd;stroke:none;stroke-width:3pt;marker:none;visibility:visible;display:inline;overflow:visible;enable-background:accumulate" id="layer4-3-5-4" transform="translate(80.532932,-178.33495)" />
    <g style="color:black;fill:#002a3c;fill-opacity:0.74509804;fill-rule:evenodd;stroke:none;stroke-width:3pt;marker:none;visibility:visible;display:inline;overflow:visible;enable-background:accumulate" id="layer4-8-74-3" transform="translate(136.65793,-175.39972)" />
    <g style="color:black;fill:#002a3c;fill-opacity:0.74509804;fill-rule:evenodd;stroke:none;stroke-width:3.00082188pt;marker:none;visibility:visible;display:inline;overflow:visible;enable-background:accumulate" id="layer4-39-9-0" transform="matrix(0.99945236,0,0,1,199.63837,-178.10942)" />
    <g style="color:black;fill:#002a3c;fill-opacity:0.74509804;fill-rule:evenodd;stroke:none;stroke-width:3.00082188pt;marker:none;visibility:visible;display:inline;overflow:visible;enable-background:accumulate" id="layer4-3-6-1-7" transform="matrix(0.99945236,0,0,1,226.1882,-167.65556)" />
    <g style="color:black;fill:#002a3c;fill-opacity:0.74509804;fill-rule:evenodd;stroke:none;stroke-width:3.00082188pt;marker:none;visibility:visible;display:inline;overflow:visible;enable-background:accumulate" id="layer4-8-2-1-3" transform="matrix(0.99945236,0,0,1,282.28246,-164.72033)" />
    <g style="color:black;fill:#002a3c;fill-opacity:0.74509804;fill-rule:evenodd;stroke:none;stroke-width:3pt;marker:none;visibility:visible;display:inline;overflow:visible;enable-background:accumulate" id="layer4-7-3" transform="translate(175.70767,-184.39082)" />
    <g style="color:black;fill:#002a3c;fill-opacity:0.74509804;fill-rule:evenodd;stroke:none;stroke-width:3pt;marker:none;visibility:visible;display:inline;overflow:visible;enable-background:accumulate" id="layer4-3-34-1" transform="translate(202.27206,-173.93696)" />
    <g style="color:black;fill:#002a3c;fill-opacity:0.74509804;fill-rule:evenodd;stroke:none;stroke-width:3pt;marker:none;visibility:visible;display:inline;overflow:visible;enable-background:accumulate" id="layer4-8-7-1" transform="translate(258.39705,-171.00173)" />
    <g style="color:black;fill:#002a3c;fill-opacity:0.74509804;fill-rule:evenodd;stroke:none;stroke-width:3.00082188pt;marker:none;visibility:visible;display:inline;overflow:visible;enable-background:accumulate" id="layer4-39-0-8-0" transform="matrix(0.99945236,0,0,1,199.46248,-174.64953)" />
    <g style="color:black;fill:#002a3c;fill-opacity:0.74509804;fill-rule:evenodd;stroke:none;stroke-width:3.00082188pt;marker:none;visibility:visible;display:inline;overflow:visible;enable-background:accumulate" id="layer4-3-6-5-4-6" transform="matrix(0.99945236,0,0,1,226.01231,-164.19567)" />
    <g style="color:black;fill:#002a3c;fill-opacity:0.74509804;fill-rule:evenodd;stroke:none;stroke-width:3.00082188pt;marker:none;visibility:visible;display:inline;overflow:visible;enable-background:accumulate" id="layer4-8-2-3-0-7" transform="matrix(0.99945236,0,0,1,282.10658,-161.26044)" />
    <g style="color:black;fill:#002a3c;fill-opacity:0.74509804;fill-rule:evenodd;stroke:none;stroke-width:3pt;marker:none;visibility:visible;display:inline;overflow:visible;enable-background:accumulate" id="layer4-9-8-4" transform="translate(175.53179,-180.93093)" />
    <g style="color:black;fill:#002a3c;fill-opacity:0.74509804;fill-rule:evenodd;stroke:none;stroke-width:3pt;marker:none;visibility:visible;display:inline;overflow:visible;enable-background:accumulate" id="layer4-3-8-3-0" transform="translate(202.09617,-170.47707)" />
    <g style="color:black;fill:#002a3c;fill-opacity:0.74509804;fill-rule:evenodd;stroke:none;stroke-width:3pt;marker:none;visibility:visible;display:inline;overflow:visible;enable-background:accumulate" id="layer4-8-4-6-3" transform="translate(258.22117,-167.54184)" />
    <g style="color:black;fill:#002a3c;fill-opacity:0.74509804;fill-rule:evenodd;stroke:none;stroke-width:3pt;marker:none;visibility:visible;display:inline;overflow:visible;enable-background:accumulate" id="layer4-88-8-7" transform="translate(240.22628,-133.1446)" />
    <g style="color:black;fill:#002a3c;fill-opacity:0.74509804;fill-rule:evenodd;stroke:none;stroke-width:3pt;marker:none;visibility:visible;display:inline;overflow:visible;enable-background:accumulate" id="layer4-3-3-3-9" transform="translate(266.79067,-122.69074)" />
    <g style="color:black;fill:#002a3c;fill-opacity:0.74509804;fill-rule:evenodd;stroke:none;stroke-width:3pt;marker:none;visibility:visible;display:inline;overflow:visible;enable-background:accumulate" id="layer4-8-21-2-9" transform="translate(322.91567,-119.75551)" />
    <g id="layer2-8-0" style="display:none" transform="matrix(0.99945236,0,0,1,153.27382,-182.86082)">
        <rect width="86" height="85" rx="6.0032878" ry="6" x="5" y="7" id="rect3745-0-0" style="opacity:0.9;fill:url(#ButtonShadow-0-9);fill-opacity:1;fill-rule:nonzero;stroke:none;filter:url(#filter3174-44-9)" />
    </g>
    <g id="layer4-39-7" transform="matrix(0.99945236,0,0,1,153.27382,-182.86082)" />
    <g id="layer2-0-0-3" style="display:none" transform="matrix(0.99945236,0,0,1,179.82365,-172.40696)">
        <rect width="86" height="85" rx="6.0032878" ry="6" x="5" y="7" id="rect3745-7-1-1" style="opacity:0.9;fill:url(#ButtonShadow-91-7-1);fill-opacity:1;fill-rule:nonzero;stroke:none;filter:url(#filter3174-4-4-6)" />
    </g>
    <g id="layer4-3-6-4" transform="matrix(0.99945236,0,0,1,179.82365,-172.40696)" />
    <g id="layer2-1-5-4" style="display:none" transform="matrix(0.99945236,0,0,1,235.91791,-169.47173)">
        <rect width="86" height="85" rx="6.0032878" ry="6" x="5" y="7" id="rect3745-1-3-9" style="opacity:0.9;fill:url(#ButtonShadow-9-1-5);fill-opacity:1;fill-rule:nonzero;stroke:none;filter:url(#filter3174-2-2-2)" />
    </g>
    <g id="layer4-8-2-4" transform="matrix(0.99945236,0,0,1,235.91791,-169.47173)" />
    <g id="layer2-86" style="display:none" transform="translate(129.34312,-189.14222)">
        <rect width="86" height="85" rx="6" ry="6" x="5" y="7" id="rect3745-5" style="opacity:0.9;fill:url(#linearGradient4045-3);fill-opacity:1;fill-rule:nonzero;stroke:none;filter:url(#filter3174-34-5)" />
    </g>
    <g id="layer4-5" transform="translate(129.34312,-189.14222)" />
    <g id="layer2-0-3" style="display:none" transform="translate(155.90751,-178.68836)">
        <rect width="86" height="85" rx="6" ry="6" x="5" y="7" id="rect3745-7-9" style="opacity:0.9;fill:url(#linearGradient4047-6);fill-opacity:1;fill-rule:nonzero;stroke:none;filter:url(#filter3174-4-7-6)" />
    </g>
    <g id="layer4-3-0" transform="translate(155.90751,-178.68836)" />
    <g id="layer2-1-58" style="display:none" transform="translate(212.0325,-175.75313)">
        <rect width="86" height="85" rx="6" ry="6" x="5" y="7" id="rect3745-1-5" style="opacity:0.9;fill:url(#linearGradient4049-1);fill-opacity:1;fill-rule:nonzero;stroke:none;filter:url(#filter3174-2-0-7)" />
    </g>
    <g id="layer4-8-8" transform="translate(212.0325,-175.75313)" />
    <g id="layer2-8-6-0" style="display:none" transform="matrix(0.99945236,0,0,1,153.09793,-179.40093)">
        <rect width="86" height="85" rx="6.0032878" ry="6" x="5" y="7" id="rect3745-0-8-6" style="opacity:0.9;fill:url(#ButtonShadow-0-3-1);fill-opacity:1;fill-rule:nonzero;stroke:none;filter:url(#filter3174-44-1-2)" />
    </g>
    <g id="layer4-39-0-1" transform="matrix(0.99945236,0,0,1,153.09793,-179.40093)" />
    <g id="layer2-0-0-4-6" style="display:none" transform="matrix(0.99945236,0,0,1,179.64776,-168.94707)">
        <rect width="86" height="85" rx="6.0032878" ry="6" x="5" y="7" id="rect3745-7-1-9-5" style="opacity:0.9;fill:url(#ButtonShadow-91-7-0-9);fill-opacity:1;fill-rule:nonzero;stroke:none;filter:url(#filter3174-4-4-2-3)" />
    </g>
    <g id="layer4-3-6-5-7" transform="matrix(0.99945236,0,0,1,179.64776,-168.94707)" />
    <g id="layer2-1-5-8-9" style="display:none" transform="matrix(0.99945236,0,0,1,235.74203,-166.01184)">
        <rect width="86" height="85" rx="6.0032878" ry="6" x="5" y="7" id="rect3745-1-3-0-8" style="opacity:0.9;fill:url(#ButtonShadow-9-1-0-0);fill-opacity:1;fill-rule:nonzero;stroke:none;filter:url(#filter3174-2-2-8-5)" />
    </g>
    <g id="layer4-8-2-3-4" transform="matrix(0.99945236,0,0,1,235.74203,-166.01184)" />
    <g id="layer2-89-8" style="display:none" transform="translate(129.16723,-185.68233)">
        <rect width="86" height="85" rx="6" ry="6" x="5" y="7" id="rect3745-16-9" style="opacity:0.9;fill:url(#linearGradient4045-1-8);fill-opacity:1;fill-rule:nonzero;stroke:none;filter:url(#filter3174-34-6-0)" />
    </g>
    <g id="layer4-9-4" transform="translate(129.16723,-185.68233)" />
    <g id="layer2-0-7-8" style="display:none" transform="translate(155.73162,-175.22847)">
        <rect width="86" height="85" rx="6" ry="6" x="5" y="7" id="rect3745-7-0-6" style="opacity:0.9;fill:url(#linearGradient4047-0-2);fill-opacity:1;fill-rule:nonzero;stroke:none;filter:url(#filter3174-4-7-2-9)" />
    </g>
    <g id="layer4-3-8-0" transform="translate(155.73162,-175.22847)" />
    <g id="layer2-1-6-1" style="display:none" transform="translate(211.85662,-172.29324)">
        <rect width="86" height="85" rx="6" ry="6" x="5" y="7" id="rect3745-1-2-3" style="opacity:0.9;fill:url(#linearGradient4049-7-4);fill-opacity:1;fill-rule:nonzero;stroke:none;filter:url(#filter3174-2-0-6-5)" />
    </g>
    <g id="layer4-8-4-61" transform="translate(211.85662,-172.29324)" />
    <g style="color:black;fill:#002a3c;fill-opacity:0.74509804;fill-rule:evenodd;stroke:none;stroke-width:3pt;marker:none;visibility:visible;display:inline;overflow:visible;enable-background:accumulate" id="layer4-88-9" transform="translate(193.86173,-137.896)" />
    <g style="color:black;fill:#002a3c;fill-opacity:0.74509804;fill-rule:evenodd;stroke:none;stroke-width:3pt;marker:none;visibility:visible;display:inline;overflow:visible;enable-background:accumulate" id="layer4-3-3-4" transform="translate(220.42612,-127.44214)" />
    <g style="color:black;fill:#002a3c;fill-opacity:0.74509804;fill-rule:evenodd;stroke:none;stroke-width:3pt;marker:none;visibility:visible;display:inline;overflow:visible;enable-background:accumulate" id="layer4-8-21-9" transform="translate(276.55112,-124.50691)" />
</svg>
