<?xml version="1.0" encoding="UTF-8" standalone="no"?>
<!-- Created with Inkscape (http://www.inkscape.org/) -->

<svg
   xmlns:dc="http://purl.org/dc/elements/1.1/"
   xmlns:cc="http://creativecommons.org/ns#"
   xmlns:rdf="http://www.w3.org/1999/02/22-rdf-syntax-ns#"
   xmlns:svg="http://www.w3.org/2000/svg"
   xmlns="http://www.w3.org/2000/svg"
   xmlns:xlink="http://www.w3.org/1999/xlink"
   xmlns:sodipodi="http://sodipodi.sourceforge.net/DTD/sodipodi-0.dtd"
   xmlns:inkscape="http://www.inkscape.org/namespaces/inkscape"
   width="48px"
   height="48px"
   id="svg4700"
   version="1.1"
   inkscape:version="0.48.3.1 r9886"
   sodipodi:docname="earth.svg">
  <defs
     id="defs4702">
    <linearGradient
       id="linearGradient3882">
      <stop
         style="stop-color:#003264;stop-opacity:1;"
         offset="0"
         id="stop3884" />
      <stop
         style="stop-color:#000000;stop-opacity:1;"
         offset="1"
         id="stop3886" />
    </linearGradient>
    <linearGradient
       inkscape:collect="always"
       id="linearGradient4390">
      <stop
         style="stop-color:#fffc6b;stop-opacity:1;"
         offset="0"
         id="stop4392" />
      <stop
         style="stop-color:#fffc6b;stop-opacity:0;"
         offset="1"
         id="stop4394" />
    </linearGradient>
    <linearGradient
       inkscape:collect="always"
       id="linearGradient4350">
      <stop
         style="stop-color:#ffffff;stop-opacity:1;"
         offset="0"
         id="stop4352" />
      <stop
         style="stop-color:#ffffff;stop-opacity:0;"
         offset="1"
         id="stop4354" />
    </linearGradient>
    <linearGradient
       id="linearGradient4342">
      <stop
         style="stop-color:#23afff;stop-opacity:1;"
         offset="0"
         id="stop4344" />
      <stop
         style="stop-color:#1e3d61;stop-opacity:1;"
         offset="1"
         id="stop4346" />
    </linearGradient>
    <linearGradient
       id="linearGradient4050">
      <stop
         id="stop4052"
         offset="0"
         style="stop-color:#ffffff;stop-opacity:0.66929132;" />
      <stop
         id="stop4054"
         offset="1"
         style="stop-color:#ffffff;stop-opacity:0;" />
    </linearGradient>
    <filter
       id="filter3174"
       color-interpolation-filters="sRGB">
      <feGaussianBlur
         stdDeviation="1.71"
         id="feGaussianBlur3176" />
    </filter>
    <linearGradient
       gradientTransform="scale(1.0058652,0.994169)"
       gradientUnits="userSpaceOnUse"
       id="ButtonShadow"
       y2="7.0165396"
       x2="45.447727"
       y1="92.539597"
       x1="45.447727">
      <stop
         offset="0"
         style="stop-color:#000000;stop-opacity:1"
         id="stop3750" />
      <stop
         offset="1"
         style="stop-color:#000000;stop-opacity:0.58823532"
         id="stop3752" />
    </linearGradient>
    <filter
       inkscape:collect="always"
       id="filter3914"
       x="-0.11821404"
       width="1.2364281"
       y="-0.63989862"
       height="2.2797972">
      <feGaussianBlur
         inkscape:collect="always"
         stdDeviation="1.8717561"
         id="feGaussianBlur3916" />
    </filter>
    <radialGradient
       xlink:href="#linearGradient5060"
       r="117.14286"
       id="radialGradient3131"
       gradientUnits="userSpaceOnUse"
       gradientTransform="matrix(-0.062142,0,0,0.029001,46.53201,28.085503)"
       cy="486.64789"
       cx="605.71429" />
    <radialGradient
       xlink:href="#linearGradient5060"
       r="117.14286"
       id="radialGradient3129"
       gradientUnits="userSpaceOnUse"
       gradientTransform="matrix(0.062142,0,0,0.029001,1.636502,28.085503)"
       cy="486.64789"
       cx="605.71429" />
    <linearGradient
       x2="41.36901"
       x1="6.40561"
       id="linearGradient998"
       gradientUnits="userSpaceOnUse">
      <stop
         id="stop24"
         stop-color="#fff"
         offset="0" />
      <stop
         id="stop26"
         stop-opacity="0"
         stop-color="#fff"
         offset="1" />
    </linearGradient>
    <linearGradient
       x2="-5.84311"
       x1="-42.69615"
       id="linearGradient3157-5"
       gradientUnits="userSpaceOnUse">
      <stop
         id="stop19"
         stop-color="#cfdcea"
         offset="0" />
      <stop
         id="stop21"
         stop-color="#2e508a"
         offset="1" />
    </linearGradient>
    <linearGradient
       y2="45.76167"
       y1="38.7186"
       x2="0"
       id="linearGradient3127"
       gradientUnits="userSpaceOnUse">
      <stop
         id="stop12"
         stop-opacity="0"
         offset="0" />
      <stop
         id="stop14"
         offset=".5" />
      <stop
         id="stop16"
         stop-opacity="0"
         offset="1" />
    </linearGradient>
    <linearGradient
       id="linearGradient5060">
      <stop
         id="stop7"
         offset="0" />
      <stop
         id="stop9"
         stop-opacity="0"
         offset="1" />
    </linearGradient>
    <linearGradient
       x2="-5.8431101"
       x1="-42.696152"
       id="linearGradient3157-5-5"
       gradientUnits="userSpaceOnUse">
      <stop
         id="stop19-1"
         stop-color="#cfdcea"
         offset="0"
         style="stop-color:#204063;stop-opacity:1;" />
      <stop
         id="stop21-4"
         stop-color="#2e508a"
         offset="1"
         style="stop-color:#000000;stop-opacity:1;" />
    </linearGradient>
    <linearGradient
       x2="-5.8431101"
       x1="-42.696152"
       gradientTransform="matrix(0,-1,-1,0,-6,-5)"
       gradientUnits="userSpaceOnUse"
       id="linearGradient3091"
       xlink:href="#linearGradient3157-5-5"
       inkscape:collect="always" />
    <linearGradient
       inkscape:collect="always"
       xlink:href="#linearGradient998-1"
       id="linearGradient3067-8"
       gradientUnits="userSpaceOnUse"
       x1="6.4056101"
       x2="41.369011"
       gradientTransform="matrix(0,1,-1,0,48.986301,-3.0246645)" />
    <linearGradient
       x2="41.369011"
       x1="6.4056101"
       id="linearGradient998-1"
       gradientUnits="userSpaceOnUse">
      <stop
         id="stop24-6"
         stop-color="#fff"
         offset="0" />
      <stop
         id="stop26-8"
         stop-opacity="0"
         stop-color="#fff"
         offset="1" />
    </linearGradient>
    <linearGradient
       x2="41.369011"
       x1="6.4056101"
       gradientTransform="matrix(0,1,-1,0,-7,-6)"
       gradientUnits="userSpaceOnUse"
       id="linearGradient3124"
       xlink:href="#linearGradient998-1"
       inkscape:collect="always" />
    <linearGradient
       y2="38.28294"
       x2="22.440199"
       y1="5.2437949"
       x1="22.440199"
       gradientTransform="matrix(0.99929416,0,0,0.99929126,51.978034,-0.9094089)"
       gradientUnits="userSpaceOnUse"
       id="linearGradient4011"
       xlink:href="#linearGradient4050-2"
       inkscape:collect="always" />
    <linearGradient
       y2="372.04501"
       x2="372.04504"
       y1="372.04501"
       x1="372.04501"
       gradientTransform="matrix(0.02127387,0.08220738,-0.08220598,0.02127424,98.312472,-17.885317)"
       gradientUnits="userSpaceOnUse"
       id="linearGradient4009"
       xlink:href="#linearGradient5639"
       inkscape:collect="always" />
    <linearGradient
       y2="372.04501"
       x2="372.04501"
       y1="372.04501"
       x1="372.04501"
       gradientTransform="matrix(0.08220598,-0.02127424,0.02127387,0.08220738,37.143813,-2.0553714)"
       gradientUnits="userSpaceOnUse"
       id="linearGradient4007"
       xlink:href="#linearGradient5615"
       inkscape:collect="always" />
    <linearGradient
       y2="370.92868"
       x2="307.95575"
       y1="335.02875"
       x1="286.02469"
       gradientUnits="userSpaceOnUse"
       id="linearGradient4005"
       xlink:href="#linearGradient5603"
       inkscape:collect="always" />
    <linearGradient
       y2="386.54501"
       x2="386.54501"
       y1="362.6059"
       x1="363.45288"
       gradientTransform="matrix(0.08075809,0.02624035,-0.0262399,0.08075947,55.359758,-19.194243)"
       gradientUnits="userSpaceOnUse"
       id="linearGradient4003"
       xlink:href="#linearGradient5595"
       inkscape:collect="always" />
    <linearGradient
       y2="523.3988"
       x2="372.03125"
       y1="372.0625"
       x1="382.95312"
       gradientTransform="matrix(0.08075809,0.02624035,-0.0262399,0.08075947,55.359758,-19.194243)"
       gradientUnits="userSpaceOnUse"
       id="linearGradient4001"
       xlink:href="#linearGradient5565"
       inkscape:collect="always" />
    <linearGradient
       y2="231.08406"
       x2="372.04501"
       y1="365.7879"
       x1="383.95898"
       gradientTransform="matrix(0.08075809,0.02624035,-0.0262399,0.08075947,55.359758,-19.194243)"
       gradientUnits="userSpaceOnUse"
       id="linearGradient3999"
       xlink:href="#linearGradient5557"
       inkscape:collect="always" />
    <linearGradient
       y2="23.550148"
       x2="76.311745"
       y1="68.835014"
       x1="21.126322"
       gradientTransform="matrix(0.4643436,0,0,0.47228973,53.683855,0.6638283)"
       gradientUnits="userSpaceOnUse"
       id="linearGradient3997"
       xlink:href="#linearGradient4056"
       inkscape:collect="always" />
    <linearGradient
       y2="36"
       x2="43"
       y1="36"
       x1="5"
       gradientTransform="translate(51.972348,1.0000001)"
       gradientUnits="userSpaceOnUse"
       id="linearGradient3995"
       xlink:href="#linearGradient3909"
       inkscape:collect="always" />
    <radialGradient
       r="117.14286"
       fy="486.64789"
       fx="605.71429"
       cy="486.64789"
       cx="605.71429"
       gradientTransform="matrix(-0.06214224,0,0,0.02900085,46.53201,28.085503)"
       gradientUnits="userSpaceOnUse"
       id="radialGradient3993"
       xlink:href="#linearGradient5060-9"
       inkscape:collect="always" />
    <radialGradient
       r="117.14286"
       fy="486.64789"
       fx="605.71429"
       cy="486.64789"
       cx="605.71429"
       gradientTransform="matrix(0.06214224,0,0,0.02900085,1.6365015,28.085503)"
       gradientUnits="userSpaceOnUse"
       id="radialGradient3991"
       xlink:href="#linearGradient5060-9"
       inkscape:collect="always" />
    <linearGradient
       y2="609.50507"
       x2="302.85715"
       y1="366.64789"
       x1="302.85715"
       gradientTransform="matrix(0.06214224,0,0,0.02900085,1.6242719,28.085503)"
       gradientUnits="userSpaceOnUse"
       id="linearGradient3989"
       xlink:href="#linearGradient5048-0"
       inkscape:collect="always" />
    <linearGradient
       y2="38.28294"
       x2="22.440199"
       y1="19.041779"
       x1="22.440199"
       gradientTransform="matrix(0.99929416,0,0,0.28102049,0.00568567,31.979732)"
       gradientUnits="userSpaceOnUse"
       id="linearGradient3934"
       xlink:href="#linearGradient4050-2"
       inkscape:collect="always" />
    <linearGradient
       y2="38.28294"
       x2="22.440199"
       y1="5.2437949"
       x1="22.440199"
       gradientTransform="matrix(0.99929416,0,0,0.28102049,0.00568567,31.979732)"
       gradientUnits="userSpaceOnUse"
       id="linearGradient3923"
       xlink:href="#linearGradient4050-2"
       inkscape:collect="always" />
    <linearGradient
       inkscape:collect="always"
       id="linearGradient5557">
      <stop
         style="stop-color:#8b0000;stop-opacity:1"
         offset="0"
         id="stop5559" />
      <stop
         style="stop-color:#a40000;stop-opacity:0;"
         offset="1"
         id="stop5561" />
    </linearGradient>
    <linearGradient
       id="linearGradient5565">
      <stop
         style="stop-color:#000000;stop-opacity:0.7153846;"
         offset="0"
         id="stop5567" />
      <stop
         style="stop-color:#000000;stop-opacity:0;"
         offset="1"
         id="stop5569" />
    </linearGradient>
    <linearGradient
       inkscape:collect="always"
       id="linearGradient5595">
      <stop
         style="stop-color:#eeeeec;stop-opacity:1"
         offset="0"
         id="stop5597" />
      <stop
         style="stop-color:#d3d7cf;stop-opacity:0;"
         offset="1"
         id="stop5599" />
    </linearGradient>
    <linearGradient
       inkscape:collect="always"
       id="linearGradient5603">
      <stop
         style="stop-color:#888a85;stop-opacity:1"
         offset="0"
         id="stop5605" />
      <stop
         style="stop-color:#d3d7cf;stop-opacity:1"
         offset="1"
         id="stop5607" />
    </linearGradient>
    <linearGradient
       inkscape:collect="always"
       id="linearGradient5615">
      <stop
         style="stop-color:#888a85;stop-opacity:1"
         offset="0"
         id="stop5617" />
      <stop
         style="stop-color:#babdb6;stop-opacity:1"
         offset="1"
         id="stop5619" />
    </linearGradient>
    <linearGradient
       id="linearGradient5639"
       inkscape:collect="always">
      <stop
         id="stop5641"
         offset="0"
         style="stop-color:#888a85;stop-opacity:1" />
      <stop
         id="stop5643"
         offset="1"
         style="stop-color:#d3d7cf;stop-opacity:1" />
    </linearGradient>
    <linearGradient
       id="linearGradient5060-9">
      <stop
         offset="0"
         style="stop-color:#000000;stop-opacity:1"
         id="stop5062-2" />
      <stop
         offset="1"
         style="stop-color:#000000;stop-opacity:0"
         id="stop5064-0" />
    </linearGradient>
    <linearGradient
       id="linearGradient5048-0">
      <stop
         offset="0"
         style="stop-color:#000000;stop-opacity:0"
         id="stop5050-0" />
      <stop
         offset="0.5"
         style="stop-color:#000000;stop-opacity:1"
         id="stop5056-5" />
      <stop
         offset="1"
         style="stop-color:#000000;stop-opacity:0"
         id="stop5052-9" />
    </linearGradient>
    <linearGradient
       x1="45.447727"
       y1="92.539597"
       x2="45.447727"
       y2="7.0165396"
       id="ButtonShadow-4"
       gradientUnits="userSpaceOnUse"
       gradientTransform="scale(1.0058652,0.994169)">
      <stop
         id="stop3750-7"
         style="stop-color:#000000;stop-opacity:1"
         offset="0" />
      <stop
         id="stop3752-9"
         style="stop-color:#000000;stop-opacity:0.58823532"
         offset="1" />
    </linearGradient>
    <filter
       color-interpolation-filters="sRGB"
       id="filter3174-9">
      <feGaussianBlur
         id="feGaussianBlur3176-7"
         stdDeviation="1.71" />
    </filter>
    <linearGradient
       id="linearGradient4050-2">
      <stop
         style="stop-color:#ffffff;stop-opacity:0.66929132;"
         offset="0"
         id="stop4052-3" />
      <stop
         style="stop-color:#ffffff;stop-opacity:0;"
         offset="1"
         id="stop4054-9" />
    </linearGradient>
    <linearGradient
       id="linearGradient4056">
      <stop
         id="stop4058"
         style="stop-color:#196190;stop-opacity:1;"
         offset="0" />
      <stop
         id="stop4060"
         style="stop-color:#79c3ec;stop-opacity:1;"
         offset="1" />
    </linearGradient>
    <linearGradient
       id="linearGradient3909">
      <stop
         id="stop3911"
         offset="0"
         style="stop-color:#225c7e;stop-opacity:1;" />
      <stop
         style="stop-color:#3499d3;stop-opacity:1;"
         offset="0.26454216"
         id="stop3917" />
      <stop
         id="stop3936"
         offset="0.78954214"
         style="stop-color:#3499d3;stop-opacity:1;" />
      <stop
         id="stop3913"
         offset="1"
         style="stop-color:#225c7e;stop-opacity:1;" />
    </linearGradient>
    <radialGradient
       inkscape:collect="always"
       xlink:href="#linearGradient4342"
       id="radialGradient4374"
       gradientUnits="userSpaceOnUse"
       cx="19.002739"
       cy="20.052528"
       fx="19.002739"
       fy="20.052528"
       r="15.517808" />
    <radialGradient
       inkscape:collect="always"
       xlink:href="#linearGradient4350"
       id="radialGradient4376"
       gradientUnits="userSpaceOnUse"
       gradientTransform="matrix(2.1596581,0,0,1.7127499,-16.990629,-5.8524581)"
       cx="19.399872"
       cy="18.188829"
       fx="19.399872"
       fy="18.188829"
       r="15.171875" />
    <clipPath
       clipPathUnits="userSpaceOnUse"
       id="clipPath4380">
      <rect
         transform="scale(1,-1)"
         rx="3"
         ry="3.0000002"
         y="-47.624775"
         x="2.8887603"
         height="45.810024"
         width="45.839066"
         id="rect4382"
         style="color:#000000;fill:url(#linearGradient4384);fill-opacity:1;fill-rule:nonzero;stroke:#0d2337;stroke-width:1;stroke-linecap:round;stroke-linejoin:round;stroke-miterlimit:4;stroke-opacity:1;stroke-dasharray:none;stroke-dashoffset:0;marker:none;visibility:visible;display:inline;overflow:visible;enable-background:accumulate" />
    </clipPath>
    <linearGradient
       inkscape:collect="always"
       xlink:href="#linearGradient3157-5-5"
       id="linearGradient4384"
       gradientUnits="userSpaceOnUse"
       gradientTransform="matrix(0,-1.1180124,-1.1180124,0,53.74301,-53.829906)"
       x1="-42.696152"
       x2="-5.8431101" />
    <radialGradient
       inkscape:collect="always"
       xlink:href="#linearGradient4390"
       id="radialGradient4396"
       cx="14.334246"
       cy="13.939727"
       fx="14.334246"
       fy="13.939727"
       r="5.6547942"
       gradientUnits="userSpaceOnUse" />
    <filter
       inkscape:collect="always"
       id="filter4404">
      <feGaussianBlur
         inkscape:collect="always"
         stdDeviation="0.65690929"
         id="feGaussianBlur4406" />
    </filter>
    <linearGradient
       inkscape:collect="always"
       xlink:href="#linearGradient3882"
       id="linearGradient3880"
       x1="23.671232"
       y1="-2.893152"
       x2="23.671232"
       y2="-43.46637"
       gradientUnits="userSpaceOnUse" />
  </defs>
  <sodipodi:namedview
     id="base"
     pagecolor="#ffffff"
     bordercolor="#666666"
     borderopacity="1.0"
     inkscape:pageopacity="0.0"
     inkscape:pageshadow="2"
     inkscape:zoom="7.6041669"
     inkscape:cx="39.498177"
     inkscape:cy="29.580381"
     inkscape:current-layer="layer1"
     showgrid="true"
     inkscape:grid-bbox="true"
     inkscape:document-units="px"
     inkscape:window-width="1280"
     inkscape:window-height="976"
     inkscape:window-x="0"
     inkscape:window-y="24"
     inkscape:window-maximized="1"
     inkscape:snap-to-guides="false"
     inkscape:snap-grids="false">
    <inkscape:grid
       type="xygrid"
       id="grid1021"
       empspacing="5"
       visible="true"
       enabled="true"
       snapvisiblegridlinesonly="true" />
  </sodipodi:namedview>
  <metadata
     id="metadata4705">
    <rdf:RDF>
      <cc:Work
         rdf:about="">
        <dc:format>image/svg+xml</dc:format>
        <dc:type
           rdf:resource="http://purl.org/dc/dcmitype/StillImage" />
        <dc:title />
      </cc:Work>
    </rdf:RDF>
  </metadata>
  <g
     id="layer1"
     inkscape:label="Layer 1"
     inkscape:groupmode="layer">
    <rect
       style="color:#000000;fill:#000000;fill-opacity:0.4160839;fill-rule:nonzero;stroke:none;stroke-width:1;marker:none;visibility:visible;display:inline;overflow:visible;filter:url(#filter3914);enable-background:accumulate"
       id="rect3132"
       width="38.000687"
       height="7.0201974"
       x="5.9894505"
       y="60.145714"
       ry="6.2401762"
       rx="4.0000725"
       transform="matrix(0.99998193,0,0,0.64100762,-0.98934223,2.9461394)" />
    <rect
       style="color:#000000;fill:url(#linearGradient3880);fill-opacity:1;fill-rule:nonzero;stroke:#0d2337;stroke-width:1;stroke-linecap:round;stroke-linejoin:round;stroke-miterlimit:4;stroke-opacity:1;stroke-dasharray:none;stroke-dashoffset:0;marker:none;visibility:visible;display:inline;overflow:visible;enable-background:accumulate"
       id="rect3117"
       width="41.000496"
       height="40.974522"
       x="3.5"
       y="-43.5"
       ry="3.0000002"
       rx="3"
       transform="scale(1,-1)" />
    <g
       id="layer2"
       style="display:none"
       transform="translate(5.204491,-179.6879)">
      <rect
         width="86"
         height="85"
         rx="6"
         ry="6"
         x="5"
         y="7"
         id="rect3745"
         style="opacity:0.9;fill:url(#ButtonShadow);fill-opacity:1;fill-rule:nonzero;stroke:none;filter:url(#filter3174)" />
    </g>
    <g
       id="layer4"
       transform="translate(5.204491,-179.6879)" />
    <g
       id="layer2-7"
       style="display:none"
       transform="translate(-78.236603,-150.9016)">
      <rect
         width="86"
         height="85"
         rx="6"
         ry="6"
         x="5"
         y="7"
         id="rect3745-9"
         style="opacity:0.9;fill:url(#ButtonShadow-4);fill-opacity:1;fill-rule:nonzero;stroke:none;filter:url(#filter3174-9)" />
    </g>
    <g
       id="layer4-6"
       transform="translate(-78.236603,-150.9016)" />
    <g
       transform="matrix(0.08436872,0,0,0.08436872,-91.210983,17.520293)"
       id="g5892"
       style="stroke:none" />
    <g
       id="g4370"
       transform="matrix(0.89444444,0,0,0.89444444,0.91616428,0.9022832)"
       clip-path="url(#clipPath4380)">
      <path
         transform="matrix(1.5254237,0,0,1.5254237,-2.5543529,-4.4912933)"
         d="m 38.399999,24.065754 c 0,8.570249 -6.94756,15.517808 -15.517808,15.517808 -8.570249,0 -15.5178083,-6.947559 -15.5178083,-15.517808 0,-8.570249 6.9475593,-15.517808 15.5178083,-15.517808 8.570248,0 15.517808,6.947559 15.517808,15.517808 z"
         sodipodi:ry="15.517808"
         sodipodi:rx="15.517808"
         sodipodi:cy="24.065754"
         sodipodi:cx="22.882191"
         id="path4184"
         style="color:#000000;fill:url(#radialGradient4374);fill-opacity:1;fill-rule:nonzero;stroke:none;stroke-width:1.42413795;marker:none;visibility:visible;display:inline;overflow:visible;enable-background:accumulate"
         sodipodi:type="arc" />
      <path
         id="path4333"
         d="m 22.055367,11.936628 c -0.191644,0.01536 -0.493982,0.193966 -0.824353,0.193966 l -0.921336,0 c -0.141052,0 -0.269304,0.0015 -0.387931,0 -0.263581,0.163395 -0.5678,0.263098 -0.824354,0.436422 -0.228811,0.154583 -0.407368,0.371127 -0.630388,0.533405 -0.102289,0.07442 -0.189909,0.16644 -0.290948,0.242457 0.110591,-0.0121 0.214461,0.111973 0.533405,0.145474 0.3461,0.03634 0.264713,0.121019 0.484914,0.33944 0.220287,0.218442 0.230634,0.169518 0.387931,0.387931 0.157304,0.218326 0.09957,0.36346 0.193965,0.581896 0.09452,0.21842 0.145475,0.67888 0.145475,0.67888 0,0 -0.09956,0.218071 -0.193966,0.290948 -0.09442,0.07279 -0.315787,0.169728 -0.630388,0.09698 -0.31469,-0.07276 -0.03139,0.363462 0,0.581896 0.03139,0.218443 0.05107,0.581704 0.145474,0.727371 0.09439,0.145645 0.182137,0.448399 0.33944,0.630388 0.157283,0.181964 0.247713,0.108946 0.436422,0.290948 0.188785,0.181989 0.601473,-0.545377 0.727371,-0.72737 0.125798,-0.18199 0.05366,-0.193597 0.242457,-0.484914 0.188714,-0.291091 0.309134,-0.266481 0.969827,-0.484914 0.660787,-0.218442 0.359017,-0.315047 0.484914,-0.387931 0.125892,-0.07276 0.538582,-0.290948 0.727371,-0.290948 0.188716,0 0.480842,-0.08477 0.921336,-0.193966 0.440485,-0.109195 0.441677,0.085 0.630388,-0.09698 0.188786,-0.181989 0.259454,-0.218088 0.290948,-0.436422 0.03139,-0.218419 -0.108791,-0.3391 0.04849,-0.775862 0.157282,-0.436866 0.275055,-0.08468 0.872844,-0.33944 0.597788,-0.254875 0.05633,-0.484653 0.33944,-0.775862 0.283193,-0.29121 0.269884,-0.217995 0.678879,-0.436422 0.408999,-0.218443 -0.01701,3.44e-4 -0.04849,-0.290948 -0.03139,-0.291209 -0.313115,-0.02402 -0.533405,-0.242457 -0.220288,-0.218443 -0.32762,0.04849 -0.484914,0.04849 -0.157281,0 -0.432444,0.03634 -0.872845,0 -0.440401,-0.03634 -0.79803,0.07276 -1.018319,0 -0.220196,-0.07288 -0.43503,0.07276 -0.969827,0 -0.534893,-0.07276 -0.667062,-0.01195 -0.824354,-0.193965 -0.03932,-0.0455 -0.08159,-0.0536 -0.145474,-0.04849 z m 24.439655,1.697198 c -0.06294,-0.0121 -0.137607,0.04841 -0.242457,0.193966 -0.209756,0.29121 -0.502,0.460654 -0.921336,0.484914 -0.419438,0.02436 -0.42598,-0.02432 -0.824354,0.145474 -0.398559,0.169799 -0.665857,-0.09728 -0.581896,0.290948 0.08376,0.388243 0.193965,0.557608 0.193965,0.630388 0,0.07276 -0.205782,0.582157 -0.436422,0.290948 -0.230914,-0.291207 -0.576723,-1.455469 -0.387931,-0.678879 0.188714,0.776486 0.543848,1.042504 0.145474,1.163793 -0.398464,0.121298 -0.325029,2.64e-4 -0.387931,-0.04849 -0.06281,-0.04852 0.02103,-0.436216 0,-0.630388 -0.02101,-0.194063 -0.06162,-0.339389 -0.145474,-0.436423 -0.08376,-0.09715 -0.07473,-0.24243 -0.242457,-0.290948 -0.167838,-0.04852 -0.01826,-0.145474 -0.290948,-0.145474 -0.272665,0 -0.499323,-0.194414 -0.436423,0.242457 0.06281,0.436759 0.123223,0.169389 0.290949,0.581896 0.167742,0.412503 0.473095,0.145211 0.242456,0.436423 -0.230725,0.29121 -0.871457,0.169808 -1.018319,0.04849 -0.146839,-0.121391 -0.115075,0.02447 -0.387931,-0.193965 -0.272661,-0.218419 -0.170314,-0.363881 -0.484913,-0.193966 -0.3146,0.169915 -0.407509,0.509332 -0.533406,0.387931 -0.125891,-0.121391 -0.428477,0.145443 -0.533405,0 -0.104927,-0.145676 -0.546613,-0.145676 -0.630388,0 -0.08398,0.145552 -0.322349,0.09678 -0.678879,0.290948 -0.356533,0.194064 -0.189985,0.07233 -0.630388,0.484914 -0.440587,0.412501 -0.726171,0.751863 -0.872845,0.484914 -0.146839,-0.266842 -0.945077,-0.751472 -0.630388,-0.824353 0.314693,-0.07278 0.462557,-0.169799 0.630388,0 0.167836,0.169799 0.443167,0.121391 0.484914,0 0.04194,-0.121407 0.203301,-0.290873 -0.04849,-0.436423 -0.251698,-0.145676 -0.280414,-0.02425 -0.678879,-0.193965 -0.398559,-0.169916 0.01226,-0.145304 -0.533406,-0.242457 -0.545327,-0.09703 -0.774566,-0.145443 -0.921336,-0.193966 -0.146684,-0.04852 -0.323734,-0.02422 -0.533405,-0.04849 -0.209849,-0.02424 -0.393007,-0.02424 -0.581897,0 -0.188714,0.02428 -0.281614,-0.02447 -0.533405,0.193965 -0.251792,0.218443 -0.462652,0.315104 -0.630388,0.484914 -0.167719,0.169799 -0.601477,0.460499 -0.72737,0.581897 -0.125892,0.121298 -0.53996,0.533222 -0.581897,0.678879 -0.04194,0.145676 0.02236,0.290897 -0.145474,0.387931 -0.167838,0.09703 -0.359019,0.07273 -0.484914,0.09698 -0.125891,0.02424 0.02878,-0.242687 -0.09698,0 -0.125799,0.242689 -0.05634,1.188211 0.04849,1.06681 0.104834,-0.121391 0.02345,-0.558063 0.484914,-0.193965 0.461458,0.363874 0.748432,0.339155 0.72737,0.678879 -0.02103,0.339724 0.345998,0.266557 0.387931,0.33944 0.04194,0.07267 0.242457,-0.04849 0.242457,-0.04849 0,0 0.484914,-0.363601 0.484914,-0.533405 0,-0.169915 0.242457,-0.581897 0.242457,-0.581897 0,0 -0.193966,-0.09672 -0.193966,-0.339439 0,-0.242583 0.05513,-0.339204 0.09698,-0.581897 0.04194,-0.242587 -0.24136,0.07329 0.387931,-0.387931 0.629102,-0.461019 0.678879,-0.193965 0.678879,-0.193965 0,0 0.104835,0.0969 0,0.242457 -0.10485,0.145675 -0.345998,0.533485 -0.387931,0.581896 -0.04204,0.04862 0.234688,0.436423 0.33944,0.436423 0.104928,0 0.26204,-0.07276 0.387931,-0.04849 0.125892,0.02436 0.373522,-0.097 0.436423,-0.04849 0.06298,0.04852 0.250381,0.169544 0.145474,0.290948 -0.10485,0.121298 -0.414252,0.290863 -0.581897,0.242457 -0.167931,-0.04841 -0.389318,-0.339913 -0.242457,0.145474 0.14684,0.485383 0.02878,0.557662 -0.09698,0.533405 -0.125705,-0.02424 -0.429866,-0.267013 -0.387931,0.09698 0.04204,0.363875 -0.276444,0.630388 -0.339439,0.630388 -0.06298,0 -0.193966,-0.04849 -0.193966,-0.04849 l -0.290948,0 c -0.104928,0 -0.325029,0.145303 -0.387931,0.242456 -0.06298,0.09703 -0.137607,0 -0.242457,0 -0.10485,0 -0.03269,-0.145443 -0.242457,-0.193965 -0.209663,-0.04852 -0.310622,-0.09703 -0.436422,0 -0.125892,0.09703 -0.303971,0.121283 -0.387931,0.04849 -0.08385,-0.07276 0.02245,-0.194229 -0.145474,-0.09698 -0.167743,0.09703 -0.276541,0.315072 -0.33944,0.339439 -0.01288,0.0015 -0.03395,-0.0061 -0.09698,0 -0.251697,0.02436 -0.359019,0.145567 -0.484914,0.193966 -0.125891,0.04865 0.03676,0.339387 -0.193965,0.436422 -0.230727,0.09703 -0.01164,-0.121345 -0.242457,0.09698 -0.230727,0.218535 -0.255667,0.412164 -0.33944,0.436422 -0.08395,0.02436 -0.05366,0.02422 -0.242456,0.04849 -0.188786,0.02424 -0.18594,0.07274 -0.290949,0.09698 -0.10485,0.02428 0.03676,0.09711 -0.193965,0.04849 -0.230819,-0.04852 -0.429863,-4.7e-5 -0.387931,0.09698 0.04194,0.09701 0.829714,0.412189 0.242457,0.387931 -0.587266,-0.02424 -0.41675,0.09694 -0.290949,0.193965 0.125892,0.09703 0.179468,0.218092 0.242457,0.242457 0.06299,0.02424 0.193966,0.290948 0.193966,0.290948 0,0 0.153341,-0.07293 0.04849,0.09698 -0.104834,0.169915 0.05641,0.217996 -0.04849,0.436422 -0.104835,0.218421 -0.11008,0.09695 -0.193966,0.145475 -0.08385,0.04841 -0.205595,0.242629 -0.436422,0.09698 -0.230728,-0.145676 -0.357632,-0.218302 -0.630388,-0.242457 -0.272664,-0.02436 -0.150764,-0.12122 -0.33944,0.04849 -0.188786,0.17001 -0.215028,0.412065 -0.193965,0.630388 0.02103,0.218326 0.01459,0.533222 -0.04849,0.678879 -0.06291,0.145552 -0.04185,0.266479 0,0.484914 0.04204,0.218326 0.193966,0.290948 0.193966,0.290948 0,0 0.325029,0.02413 0.387931,0.04849 0.06291,0.02427 0.123222,-0.02419 0.290948,0.09698 0.167838,0.121392 0.380078,0.194166 0.484914,0.04849 0.104834,-0.145552 0.455907,-0.339363 0.581897,-0.484914 0.125798,-0.14563 0.256858,-0.145288 0.193965,-0.290948 -0.06291,-0.145645 0.137638,-0.557611 0.242457,-0.630388 0.10485,-0.07276 0.290948,-0.09698 0.290948,-0.09698 l 0.242457,-0.436423 c 0,0 0.234596,-0.266823 0.33944,-0.242456 0.104834,0.02424 0.720721,0.218468 0.678879,-0.09698 -0.04194,-0.315573 0.03408,-0.412242 0.09698,-0.290948 0.06291,0.121267 0.242457,0.04849 0.242457,0.04849 0,0 0.08257,0.02418 0.145474,0.09698 0.06289,0.07267 0.11655,0.315263 0.242457,0.387931 0.125891,0.07288 0.255482,0.145567 0.339439,0.193965 0.08386,0.04862 0.123145,0.02394 0.290949,0.193966 0.167719,0.169915 0.367058,0.315263 0.387931,0.387931 0.02126,0.07276 0.193965,0.242457 0.193965,0.242457 0,0 0.09043,-1.87e-4 0.04849,0.09698 -0.04194,0.09703 -0.18603,0.388014 -0.290949,0.436423 -0.104927,0.04852 -0.444272,-0.04863 -0.339439,0.04849 0.104741,0.09703 0.276539,0.218365 0.339439,0.145474 0.063,-0.07276 0.484914,-0.581896 0.484914,-0.581896 0,0 -0.02101,0.04871 0,-0.09698 0.02103,-0.145443 -0.0079,-0.315234 0.09698,-0.242457 0.10485,0.07288 0.152022,0.19402 0.193965,0.09698 0.04194,-0.09715 0.104928,-0.02422 0,-0.09698 -0.104927,-0.07288 -0.359021,-0.55764 -0.484913,-0.581896 -0.125892,-0.02436 -0.436423,-0.242457 -0.436423,-0.242457 0,0 -0.0956,-0.09687 -0.242457,-0.290949 -0.146839,-0.194179 -0.200344,-0.121034 -0.242457,-0.290948 -0.04185,-0.169799 -0.18233,-0.339466 0.04849,-0.290948 0.23082,0.04852 0.420629,0.193788 0.630388,0.33944 0.209755,0.14566 0.15075,0.145287 0.339439,0.290948 0.188716,0.145676 0.24125,0.363699 0.387931,0.339439 0.146778,-0.02424 0.290949,0.07251 0.290949,0.290949 0,0.218419 0.05504,0.43629 0.09698,0.484913 0.04204,0.04865 0.200438,0.145397 0.242457,0.242457 0.04194,0.09703 0.08266,0.33939 0.145474,0.436423 0.06298,0.09703 0.131074,0.169544 0.193966,0.290948 0.06289,0.121267 0.0826,-0.04861 0.145474,0 0.063,0.04852 0.145474,0.04854 0.145474,-0.04849 l 0,-0.242457 c 0,0 0.326323,-0.145319 0.242457,-0.193966 -0.08395,-0.04852 -0.360501,-0.339391 -0.33944,-0.436422 0.02103,-0.09703 -0.0079,-0.266714 0.09698,-0.242457 0.104928,0.02415 0.205686,0.291175 0.436423,0.09698 0.230725,-0.19418 0.520383,-0.291209 0.436422,0 -0.08376,0.291212 0.02126,0.266322 0,0.581896 -0.02078,0.315577 0.0956,0.266504 0.242457,0.436423 0.146777,0.169915 0.234603,0.194038 0.339439,0.242457 0.104928,0.04862 0.268498,0.02425 0.436423,0.04849 0.167837,0.02427 0.289558,-0.09714 0.436422,-0.04849 0.146685,0.04852 0.470409,-2.64e-4 0.533405,0.04849 0.06298,0.04852 0.318563,-0.121283 0.33944,0.04849 0.02103,0.169916 0.111383,-3.8e-4 0.04849,0.387931 -0.06291,0.388242 -0.145474,0.67888 -0.145474,0.67888 -0.230727,0.509642 -0.283003,0.557635 -0.387931,0.581896 -0.104741,0.02427 -0.199216,0.169728 -0.387931,0.145474 -0.188786,-0.02436 -0.406216,-0.07268 -0.678879,-0.145474 -0.272664,-0.07288 -0.80865,0.09717 -1.018319,-0.04849 -0.209756,-0.145552 -0.504394,-0.02425 -0.630388,-0.193966 -0.125798,-0.169915 -0.303969,-0.145412 -0.387931,-0.242457 -0.08385,-0.09703 -0.145474,-0.388244 -0.145474,0 0,0.38835 -0.200508,0.436213 -0.242457,0.630388 -0.04204,0.194062 0.133759,0.121252 -0.09698,0.09698 -0.230726,-0.02436 -0.343314,0.145614 -0.678879,-0.145474 -0.335658,-0.291211 -0.511143,-0.315022 -0.678879,-0.436422 -0.167931,-0.121407 -0.317176,0.194182 -0.484914,-0.193966 -0.167838,-0.388347 -0.415454,-0.07245 -0.436422,-0.387931 -0.02103,-0.315574 -0.02103,-0.290739 0,-0.484914 0.02126,-0.194179 0.298806,-0.315157 0.193965,-0.387931 -0.104928,-0.07276 -0.04722,-0.218365 -0.193965,-0.145474 -0.14684,0.07279 -0.365577,0.07271 -0.533406,0.145474 -0.04196,0.01822 -0.01505,0.04168 0,0.04849 -0.004,0.0057 -0.06792,0.01566 -0.436422,0.04849 -0.817993,0.07276 -1.018319,0.145474 -1.018319,0.145474 0,0 -0.08904,-0.04854 -0.193965,0.04849 -0.104835,0.09703 -0.241159,0.26674 -0.387931,0.193966 -0.146778,-0.07288 -0.213637,-0.02436 -0.33944,0 -0.125892,0.02428 -0.241065,-0.121267 -0.387931,0 -0.14684,0.121174 -0.276446,0.145614 -0.33944,0.09698 -0.06308,-0.04916 -0.193965,-0.242457 -0.193965,-0.242457 l -0.290949,0.484914 -0.242456,0.242456 -0.436423,0.242457 -0.04849,0.242457 c 0,0 -0.166547,0.218035 -0.145474,0.33944 0.02103,0.121391 0,0.290948 0,0.290948 0,0 -0.310527,0.339392 -0.436423,0.436423 -0.125891,0.09703 -0.242457,0.290948 -0.242457,0.290948 0,0 -0.08257,0.145443 -0.145474,0.193965 -0.06291,0.04841 -0.158496,0.193792 -0.242457,0.33944 -0.08395,0.145645 -0.200531,0.218165 -0.242457,0.290948 -0.04194,0.07279 -0.131074,0.314948 -0.193965,0.581897 -0.06289,0.267059 -0.242457,0.533405 -0.242457,0.533405 l -0.04849,0.145474 c 0.02101,0.412607 0.0065,0.484731 0.04849,0.630388 0.04194,0.145552 0.09053,0.07234 0.04849,0.387931 -0.04194,0.31536 -0.05505,0.436238 -0.09698,0.581897 -0.04194,0.145443 -0.152116,0.460385 -0.193966,0.581896 -0.04204,0.121267 0.04849,0.290948 0.04849,0.290948 0,0 0.09053,0.363645 0.04849,0.436423 -0.04194,0.07288 0,0.193965 0,0.193965 0,0 0.303969,0.193808 0.387931,0.290949 0.08386,0.09703 0.221502,0.218167 0.242457,0.290948 0.02103,0.07288 0.172995,0.412138 0.193965,0.484914 0.02103,0.07279 0.200511,0.363539 0.242457,0.436422 0.04194,0.07288 0.242457,0.290948 0.242457,0.290948 0,0 0.276446,0.290789 0.33944,0.387931 0.06291,0.09703 0.228137,0.121206 0.290948,0.193966 0.06298,0.07276 0.255566,0.02399 0.33944,0.09698 0.08395,0.07278 0.206976,-0.04862 0.290948,0 0.08389,0.04852 0.32503,2.63e-4 0.387931,-0.04849 0.06291,-0.04851 0.186033,-0.266626 0.290948,-0.193965 0.104835,0.07267 0.206982,0.02422 0.290948,0.04849 0.08376,0.02424 0.158588,-0.09698 0.242457,-0.09698 0.08395,0 0.325026,-0.04849 0.387931,-0.04849 0.06298,0 0.255476,-0.193966 0.33944,-0.193966 0.08376,0 0.186129,-0.145412 0.290948,-0.09698 0.10485,0.04841 0.05366,-0.0727 0.242457,0 0.188786,0.07268 0.276539,0.02418 0.33944,0.09698 0.06298,0.07288 0.179537,-4.6e-5 0.242457,0.09698 0.06291,0.09692 0.172995,0.145319 0.193965,0.242457 0.02078,0.09715 0.09698,0.193966 0.09698,0.193966 l 0.145474,0.04849 c 0,0 0.200624,-0.145645 0.242457,-0.04849 0.04194,0.09703 0.242457,0.04849 0.242457,0.04849 l 0.145474,0.242457 0.09698,0.145474 c 0,0 0.06958,0.339367 0.04849,0.484914 -0.02103,0.145552 0.01428,0.460628 -0.04849,0.533405 -0.06291,0.07288 -0.145474,0.436422 -0.145474,0.436422 0,0 -0.04332,0.04826 0.145474,0.242457 0.188786,0.194273 0.276539,0.387986 0.339439,0.484914 0.06298,0.09715 0.221669,0.363597 0.242457,0.533405 0.02103,0.169824 0.110018,0.266479 0.193966,0.484914 0.08389,0.218419 0.172994,0.242115 0.193965,0.484914 0.02101,0.242585 0.06949,0.218225 0.04849,0.387931 -0.02101,0.169915 -0.06291,0.218158 0,0.339439 0.06291,0.121407 0.117745,0.315156 0.09698,0.387931 -0.02103,0.07279 -0.04849,0.436423 -0.04849,0.436423 l -0.04849,0.09698 -0.193966,0.436422 -0.09698,0.242457 c -0.04194,0.169824 -0.166453,0.290712 -0.145474,0.533405 0.02078,0.242691 -0.11925,0.242331 0.04849,0.484914 0.167837,0.2428 0.283003,0.508936 0.387931,0.727371 0.104927,0.218326 0.173088,0.484836 0.193965,0.630387 0.02103,0.145661 0.05506,0.193871 0.09698,0.387931 0.04185,0.194157 0.04849,0.266532 0.04849,0.387931 0,0.121299 0.05481,0.412137 0.09698,0.484914 0.04185,0.07279 0.02753,0.339389 0.04849,0.436423 0.02103,0.09715 -0.07738,0.07253 0.04849,0.242457 0.125891,0.169799 0.207074,0.315021 0.290948,0.436422 0.08385,0.121391 0.0825,0.07256 0.145474,0.242457 0.06291,0.169799 0.172926,0.242492 0.193966,0.387931 0.02103,0.145567 0.03398,0.557458 0.09698,0.727371 0.06291,0.169915 0.145474,0.290948 0.145474,0.290948 0,0 0.207074,0.218206 0.290948,0.193965 0.08376,-0.02424 0.262038,-0.266639 0.387931,-0.193965 0.125891,0.07279 0.234605,0 0.33944,0 0.104834,0 0.186008,-0.193966 0.290948,-0.193966 0.104834,0 0.303877,-0.145613 0.387931,-0.09698 0.08385,0.04838 0.137529,-0.07265 0.242457,-0.193966 0.104927,-0.121174 0.15075,-0.242237 0.339439,-0.436422 0.188786,-0.19418 0.21365,-0.169663 0.33944,-0.290949 0.125892,-0.121391 0.289654,-0.387901 0.436423,-0.436422 0.146777,-0.04851 0.103531,-0.169548 0.145474,-0.290948 0.04204,-0.121407 0.08247,-0.242299 0.145474,-0.33944 0.06298,-0.09694 0.08902,0.02455 0.193965,-0.290948 0.104928,-0.315574 0.186105,-0.41203 0.290949,-0.484914 0.104834,-0.07276 0.179536,-0.218093 0.242456,-0.242457 0.06291,-0.02436 0.138911,0.02447 0.09698,-0.193965 -0.04185,-0.218328 -0.0068,-0.509118 -0.04849,-0.581897 -0.04204,-0.07301 -0.06955,0.17013 -0.04849,-0.193965 0.02124,-0.363877 0.242457,-0.727371 0.242457,-0.727371 0,0 0.331495,-0.460631 0.436423,-0.533405 0.104927,-0.07279 0.09551,-0.145304 0.242457,-0.242457 0.1467,-0.09692 0.484913,-0.315023 0.484913,-0.436423 0,-0.121391 0.09698,-0.46052 0.09698,-0.533405 0,-0.07276 -0.0068,-0.16928 -0.04849,-0.581896 -0.04204,-0.412391 0.07731,-0.29064 -0.04849,-0.67888 -0.125798,-0.388242 -0.15868,-0.897025 -0.242456,-1.018319 -0.08393,-0.121391 -0.09698,-0.387986 -0.09698,-0.484913 0,-0.09703 0.228029,-0.387883 0.290948,-0.484914 0.06291,-0.09715 0.290948,-0.484914 0.290948,-0.484914 0,0 0.435035,-0.50902 0.581897,-0.775862 0.14684,-0.267056 0.283098,-0.533355 0.387931,-0.630388 0.104927,-0.09703 0.386637,-0.290822 0.533405,-0.533405 0.14684,-0.242584 0.415362,-0.70287 0.436422,-0.775862 0.02078,-0.07268 0.193966,-0.33944 0.193966,-0.33944 0,0 0.24892,-0.315108 0.290948,-0.484913 0.04185,-0.169916 0.235909,-1.115329 0.193966,-1.066811 -0.04176,0.04865 -0.303967,0.07273 -0.387931,0.09698 -0.08376,0.02436 0.123517,0.0969 -0.484914,0.04849 -0.608132,-0.04861 -0.921336,0.145474 -0.921336,0.145474 -0.188878,-0.04865 -0.324939,0.145769 -0.387931,-0.193965 -0.06291,-0.33962 -0.116736,-0.533169 -0.242457,-0.775862 -0.125892,-0.242693 -0.199311,-0.314812 -0.387931,-0.630388 -0.188715,-0.31536 -0.220117,-0.193942 -0.387931,-0.436422 -0.167721,-0.242693 -0.186123,-0.169567 -0.290948,-0.484914 -0.10485,-0.31547 -0.165062,-0.145024 -0.290949,-0.581897 -0.125891,-0.436975 -0.179537,-0.484788 -0.242457,-0.72737 -0.06298,-0.242583 -0.15196,-0.363569 -0.193965,-0.581897 -0.04194,-0.218442 -0.518904,-1.284874 -0.581897,-1.357759 -0.06298,-0.07267 -0.214937,-0.509305 -0.193965,-0.436422 0.02103,0.07279 0.339439,0.33944 0.339439,0.33944 0,0 0.130981,-0.09698 0.193966,-0.09698 0.06291,0 0.387931,0.242514 0.387931,0.33944 0,0.09715 0.428665,0.581612 0.533405,0.921336 0.104835,0.339727 0.221669,0.581844 0.242457,0.678879 0.02078,0.09701 0.206978,0.533221 0.290948,0.678879 0.08376,0.145676 0.345996,0.387747 0.387931,0.533406 0.04194,0.145629 0.484914,0.654362 0.484914,0.969827 0,0.315466 0.172926,0.727318 0.193966,0.824354 0.02103,0.09703 0.387931,0.242456 0.387931,0.242456 l 0.484913,-0.193965 c 0,0 0.788885,-0.581897 0.872845,-0.581897 0.08376,0 0.727371,-0.339439 0.727371,-0.339439 0,0 0.29621,-0.266611 0.484914,-0.436423 0.188784,-0.169915 0.394394,-0.533115 0.436422,-0.678879 0.04185,-0.14566 0.123223,-0.120926 0.290948,-0.33944 0.167836,-0.21842 0.38923,-0.484726 0.242457,-0.630388 -0.146839,-0.145551 -0.226755,-0.04827 -0.436422,-0.290948 -0.209756,-0.242582 -0.192574,-0.217837 -0.33944,-0.533405 -0.146839,-0.315357 0.02362,-0.703528 -0.290948,-0.33944 -0.314505,0.363985 -0.17022,0.508905 -0.484914,0.581897 -0.314505,0.07268 -0.483619,0.291189 -0.630388,0.04849 -0.146777,-0.242692 -0.303874,-0.07234 -0.387931,-0.436422 -0.08385,-0.363982 -0.124603,-0.387964 -0.145474,-0.533405 -0.02078,-0.14563 0.02236,-0.120817 -0.145474,-0.484914 -0.167721,-0.363983 -0.05631,-0.945855 0.04849,-0.630388 0.104928,0.315467 0.309138,0.363462 0.581897,0.581897 0.272571,0.218326 0.330295,0.363671 0.581896,0.387931 0.251701,0.02414 0.539965,0.04854 0.581897,0.09698 0.04194,0.04866 0.04056,-0.04841 0.145474,0 0.104928,0.04866 0.151929,-0.09698 0.193966,0.09698 0.04194,0.19418 0.283095,0.266639 0.387931,0.387931 0.104927,0.121267 0.06668,0.04858 0.339439,0.09698 0.272756,0.04865 0.67888,0 0.67888,0 l 0.387931,0 0.484913,0.04849 c 0,0 0.304152,0.193966 0.387931,0.193966 0.08386,0 0.129678,0.290874 0.33944,0.436422 0.209756,0.145661 0.213635,0.217994 0.33944,0.387931 0.126077,0.169916 0.123222,0.218121 0.290948,0.387931 0.167931,0.170034 0.442981,-0.02431 0.484914,-0.09698 0.04173,-0.07288 0.235721,-0.19418 0.193965,0 -0.04204,0.194061 0.256865,0.120677 0.193966,0.581896 -0.06289,0.46091 -0.104928,0.314814 0,0.630388 0.10485,0.315467 0.512343,1.309006 0.533405,1.600215 0.02103,0.291208 0.172994,0.217859 0.193965,0.484914 0.02103,0.266844 0.145475,0.339229 0.145475,0.533405 0,0.19418 0.124603,0.193671 0.145474,0.33944 0.02124,0.145629 0.276537,0.02415 0.339439,0 0.06298,-0.02436 0.33944,-0.290948 0.33944,-0.290948 0,0 0.166609,-0.04817 0.145474,-0.290949 -0.02101,-0.242475 0,-0.169429 0,-0.533405 0,-0.363984 -0.159874,-0.363497 -0.09698,-0.72737 0.06291,-0.363987 0.200438,-0.606054 0.242457,-0.775862 0.04194,-0.169823 0.255659,-0.460547 0.33944,-0.484914 0.08385,-0.02424 0.525459,-0.314892 0.630388,-0.484914 0.10485,-0.169822 0.268591,-0.339337 0.436422,-0.533405 0.167743,-0.194062 0.518903,-0.412214 0.581897,-0.33944 0.06289,0.07279 -0.0079,0.04849 0.09698,0.04849 0.10485,0 0.289654,0.07273 0.436422,0.09698 0.14684,0.02424 0.470503,0.411957 0.533405,0.630388 0.06289,0.218444 0.01164,0.169334 0.242457,0.484914 0.230727,0.315363 0.436422,0.145071 0.436422,0.533405 0,0.38835 -0.0079,0.339255 0.09698,0.484914 0.104835,0.145629 0.262131,-0.291083 0.387931,-0.242457 0.125798,0.04865 0.137638,-3.79e-4 0.242457,0.387931 0.10485,0.38835 0.172808,0.387619 0.193966,0.775862 0.02078,0.388245 -0.04849,-0.02455 -0.04849,0.290948 0,0.315576 0.0064,0.387781 0.04849,0.67888 0.04185,0.291424 0.214749,0.387904 0.193965,0.436422 0,0 0.09053,-0.436058 0.04849,-0.727371 -0.04172,-0.291106 -0.0079,-0.654571 0.09698,-0.775862 0.104835,-0.121531 0.158681,-0.26696 0.242457,0.04849 0.08398,0.315363 0.199243,0.07243 0.387931,0.436422 0.15466,0.298116 0.236616,0.296308 0.290948,0.387931 0.06691,-0.725198 0.193966,-1.439449 0.193966,-2.182112 0,-7.52784 -3.590797,-14.13964 -9.067888,-18.475215 -0.03662,0.0034 -0.222668,0 -0.242457,0 -0.04199,0 -0.131058,-0.08482 -0.193965,-0.09698 z M 16.18791,14.991585 c -0.302632,0.283976 -0.585477,0.573463 -0.872844,0.872845 0.05388,0.197803 0.151308,0.470478 0.09698,0.533405 -0.0943,0.109195 -0.121732,0.181735 -0.436422,0.290948 -0.314598,0.109226 -0.414258,0.254539 -0.193966,0.436423 0.220195,0.181989 0.587156,0.375587 0.775863,0.484913 0.188784,0.109102 0.816601,0.121531 0.533405,-0.242456 -0.283196,-0.363981 0.04849,-0.436423 0.04849,-0.436423 0,0 0.0943,0.107643 0.193966,0.145474 0.09967,0.03783 0.191335,0.03059 0.09698,-0.242457 -0.188784,-0.545977 -0.319866,-0.581896 -0.193965,-0.581896 0.125891,0 0.436422,0.193965 0.436422,0.193965 l 0.145474,-0.242457 -0.145474,-0.484913 -0.436422,-0.484914 c 0,0 -0.06444,-0.133573 -0.04849,-0.242457 z m -2.376077,2.667026 c -0.372699,0.474416 -0.779071,0.903648 -1.115302,1.40625 -0.152177,0.227478 -0.24352,0.494415 -0.387931,0.72737 -1.29338,2.086413 -2.3131607,4.385519 -2.9094825,6.837285 0.1214426,-0.08998 0.2916087,-0.210855 0.3394397,-0.242457 0.1467729,-0.09703 0.4849138,-0.387931 0.4849138,-0.387931 0,0 0.124409,-0.09678 0.145474,-0.290948 0.02101,-0.194064 0.463857,-0.533354 0.484914,-0.630388 0.02103,-0.09703 0.242457,-0.33944 0.242457,-0.33944 0,0 0.311913,-0.169757 0.290948,-0.290948 -0.02103,-0.121299 0.373525,-0.33944 0.436422,-0.33944 0.06289,0 0.387931,0.121454 0.387931,-0.09698 0,-0.218326 -0.01581,-0.290846 0.193966,-0.484913 0.209663,-0.194062 0.525462,-0.484914 0.630388,-0.484914 0.104834,0 0.435125,-0.193829 0.581896,-0.242457 0.07341,-0.0243 0.208371,-0.115138 0.290949,-0.145474 -0.02138,0.02092 -0.0096,0.08479 -0.09698,0.145474 -0.419526,0.2911 -0.158589,0.09672 -0.242457,0.33944 -0.04188,0.121298 -0.07001,0.278602 -0.04849,0.339439 0.02152,0.06084 0.09168,0.03657 0.290948,-0.145474 0.398562,-0.363983 0.386542,-0.412273 0.533405,-0.436422 0.14684,-0.02428 0.07334,0.07287 0.387931,-0.04849 0.314691,-0.121267 0.290948,-0.193965 0.290948,-0.193965 0,0 0.132471,-0.169822 0.04849,-0.242457 -0.08385,-0.07288 0.07223,-0.145552 -0.242457,0 -0.314597,0.145645 -0.275152,0.218365 -0.484914,0.145474 -0.209663,-0.07279 -0.52168,-0.09675 -0.290948,-0.33944 0.230727,-0.242585 0.576728,-0.290897 0.387931,-0.387931 -0.188715,-0.09703 -0.66447,0.02435 -0.727371,0.04849 -0.06298,0.02428 -0.262035,-0.02424 -0.387931,0 -0.125798,0.02428 -0.08385,-0.193829 0,-0.242457 0.08395,-0.04862 0.391804,-0.193904 0.727371,-0.290948 0.335565,-0.09703 1.169055,-0.145475 1.357758,-0.145475 0.188715,0 0.386541,0.07287 0.533406,-0.04849 0.146777,-0.121267 0.442981,-0.339174 0.484913,-0.436422 0.04204,-0.09703 0.242457,-0.242457 0.242457,-0.242457 0,0 0.153342,-0.193901 0.04849,-0.290949 -0.10485,-0.09703 -0.207072,-0.290971 -0.290949,-0.242456 -0.08385,0.04852 -0.02612,0.315585 -0.193965,0 -0.167838,-0.31536 -0.158586,-0.363645 -0.242457,-0.436423 -0.08385,-0.07278 -0.111476,-0.0483 -0.04849,-0.387931 0.06291,-0.339725 0,-0.484914 0,-0.484914 0,0 0.06291,-0.26669 0,-0.290948 -0.06298,-0.02436 -0.08913,-0.121159 -0.193966,-0.04849 -0.104928,0.07278 -0.650062,0.412138 -0.775862,0.484913 -0.125891,0.07279 -0.305358,-0.266614 -0.242457,-0.436422 0.06298,-0.170033 0.03525,-0.145334 -0.04849,-0.387931 -0.08385,-0.242691 -0.456004,-0.242457 -0.581897,-0.242457 -0.06913,0 -0.171091,-0.01646 -0.290948,-0.04849 z M 9.8840313,33.660766 c -0.1121167,0.0037 -0.2437917,0.484913 -0.2909483,0.484913 -0.06289,0 -0.2909482,0.09698 -0.2909482,0.09698 0,0 -0.2160818,0.231516 -0.3879311,0.436423 0.5772253,5.517507 2.9381063,10.481328 6.6433193,14.207973 0.08385,-0.169915 0.0616,-0.02415 0.145474,-0.242457 0.08395,-0.218419 0.03926,-0.120925 0.290948,-0.484913 0.251601,-0.364088 0.07594,-0.121066 0.09698,-0.242457 0.02078,-0.121392 0.09698,-0.266602 0.09698,-0.436423 0,-0.169706 0.165064,-0.315001 0.290949,-0.678879 0.125891,-0.36409 0.125891,-0.339072 0,-0.630388 -0.125892,-0.29111 0.331599,-0.460764 0.436422,-0.484914 0.104835,-0.02414 0.454798,-0.145412 0.727371,-0.242457 0.272767,-0.09715 0.15721,-0.0482 0.387931,-0.193965 0.230726,-0.14566 0.08249,0.04885 0.145474,-0.193966 0.06291,-0.242799 0.150734,-0.217604 0.33944,-0.775862 0.188807,-0.557944 0.0065,-0.169491 0.04849,-0.436422 0.04194,-0.266949 -0.01428,-0.266513 0.04849,-0.630388 0.06291,-0.364093 0.08257,-0.557376 0.145474,-0.872845 0.06291,-0.315467 -0.03525,-0.02394 0.04849,-0.339439 0.08385,-0.315363 0.08913,-0.339049 0.193965,-0.67888 0.104928,-0.339736 0.110111,-0.120941 0.193966,-0.242457 0.08395,-0.121298 0.01958,-0.242289 0.145474,-0.339439 0.125736,-0.09692 0.297604,-0.484464 0.33944,-0.727371 0.04194,-0.242586 -0.04204,-0.120926 0,-0.290948 0.04204,-0.169799 -0.255565,-0.07275 -0.33944,-0.242457 -0.08395,-0.170032 -0.06171,-0.02407 -0.145474,-0.145474 -0.08376,-0.121407 -0.27653,-0.0484 -0.33944,-0.242457 -0.06291,-0.19418 -0.385342,-0.169577 -0.678879,-0.387931 -0.293712,-0.218326 -0.150657,-4.7e-5 -0.33944,-0.04849 -0.188784,-0.04862 -0.373435,0.02432 -0.436422,-0.04849 -0.06299,-0.07268 -0.18603,0.169704 -0.290948,0 -0.104742,-0.169799 -0.09417,-0.07236 -0.387931,-0.387931 -0.293639,-0.315563 -0.136226,-0.07271 -0.387931,-0.145474 -0.125845,-0.03645 -0.172994,-0.0061 -0.193966,0.04849 0,-0.169915 -0.02101,0.02444 0,-0.145474 0.02103,-0.169822 -0.01955,-0.02418 -0.145474,-0.09698 -0.125891,-0.07278 -0.158589,0.02415 -0.242457,0 -0.08385,-0.02436 -0.338139,0.169609 -0.484914,0.193966 -0.146777,0.02424 0.220188,-0.193564 0.387931,-0.581897 0.167836,-0.38835 -0.08915,-0.338806 -0.193965,-0.72737 -0.10485,-0.388352 -0.25409,-0.387832 -0.484914,-0.581897 -0.230727,-0.194273 -0.09568,-0.04849 -0.242457,-0.04849 -0.146777,0 -0.283089,2.95e-4 -0.387931,-0.145474 -0.104927,-0.145552 -0.228038,-0.09667 -0.290948,-0.242457 -0.06289,-0.145443 -0.08774,-0.145319 -0.33944,-0.436423 -0.251792,-0.291219 -0.414164,-0.242432 -0.581896,-0.290948 -0.167743,-0.04866 -0.239774,-0.120864 -0.533406,-0.387931 -0.122337,-0.111227 -0.09681,-0.144186 -0.09698,-0.145474 0.02134,-0.01319 0.03277,-0.03631 0.04849,-0.09698 0.06289,-0.242585 -0.516313,-0.02411 -0.872845,-0.09698 -0.178263,-0.03645 -0.258518,0.02118 -0.290948,0.04849 -0.007,-0.0011 -0.03276,-0.0121 -0.04849,-0.04849 -0.06281,-0.14566 -0.150766,-0.169682 -0.33944,-0.242456 -0.188784,-0.07279 -0.234614,-0.07256 -0.33944,-0.193966 -0.01303,-0.01521 -0.03985,0.007 -0.04849,0 -0.01822,0.0758 -0.0616,0.218042 -0.145474,0.436422 -0.167837,0.436963 -0.01304,0.242192 -0.09698,0.33944 -0.08389,0.09703 -0.256953,0.218505 -0.193965,-0.145474 0.06291,-0.363985 -0.0051,-0.120755 -0.1939659,-0.630388 -0.047196,-0.127412 -0.059594,-0.195109 -0.096983,-0.193965 z m 44.1271537,2.376077 -0.09698,0.09698 c 0,0 0.17956,0.193925 0.242457,0.290948 0.06291,0.09703 0.0473,0.169526 0.193965,0.33944 0.146871,0.169915 0.158589,0.339314 0.242457,0.387931 0.08385,0.04865 0.228057,0.533116 0.290948,0.678879 0.06289,0.145443 0.158591,0.242167 0.242457,0.387931 0.0062,0.01086 0.04111,0.03612 0.04849,0.04849 0.08331,-0.314716 0.220428,-0.601623 0.290949,-0.921336 -0.138073,-0.155707 -0.209921,-0.111413 -0.387931,-0.242457 -0.230633,-0.169916 -0.331678,-0.290752 -0.436423,-0.436422 -0.105113,-0.145552 -0.171693,-0.50928 -0.339439,-0.484914 -0.167815,0.02436 -0.290949,-0.145474 -0.290949,-0.145474 z m -12.31681,5.915948 c -0.06289,0.267058 -0.290948,0.67888 -0.290948,0.67888 l -0.436422,0.242456 c 0,0 -0.15838,0.169703 -0.242457,0.193966 -0.08385,0.02415 -0.290948,0.09698 -0.290948,0.09698 0,0 -0.208276,-0.02436 -0.145475,0.193965 0.06291,0.218444 0.06955,0.460738 0.04849,0.533405 -0.02078,0.07288 0,0.242262 0,0.436423 0,0.09703 -0.02525,0.200042 -0.04849,0.290948 -0.02324,0.0909 -0.04452,0.169707 -0.09698,0.193966 -0.104835,0.04865 -0.214937,0.07256 -0.193966,0.242456 0.02103,0.169916 0,0.67888 0,0.67888 l 0.290948,0.484914 c 0,0 0.07461,-0.04849 0.242457,-0.04849 0.16765,0 0.290949,-0.193965 0.290949,-0.193965 0,0 0.04585,0.01521 0.09698,0 0.02557,-0.0076 0.07979,-0.0178 0.09698,-0.04849 0.01719,-0.03069 0.0053,-0.0788 0,-0.145474 -0.02101,-0.267056 0.06966,-0.605998 0.04849,-0.678879 -0.02078,-0.07279 0.193966,-0.412244 0.193966,-0.484914 0,-0.07288 0.242457,-0.411896 0.242457,-0.533405 0,-0.121267 0.172994,-0.290976 0.193965,-0.436423 0.02101,-0.145768 0.0065,-0.484862 0.04849,-0.581896 0.04204,-0.09703 0.04849,-0.145443 0.04849,-0.242457 l 0,-0.33944 -0.09698,-0.533405 z"
         style="color:#000000;fill:url(#radialGradient4376);fill-opacity:1;fill-rule:nonzero;stroke:none;stroke-width:1.39999998;marker:none;visibility:visible;display:inline;overflow:visible;enable-background:accumulate"
         inkscape:connector-curvature="0" />
    </g>
    <path
       transform="matrix(1.5581395,0,0,1.5581395,-7.3429752,-7.9118196)"
       d="m 19.98904,13.939727 a 5.6547942,5.6547942 0 1 1 -11.3095885,0 5.6547942,5.6547942 0 1 1 11.3095885,0 z"
       sodipodi:ry="5.6547942"
       sodipodi:rx="5.6547942"
       sodipodi:cy="13.939727"
       sodipodi:cx="14.334246"
       id="path4388"
       style="color:#000000;fill:url(#radialGradient4396);fill-opacity:1;fill-rule:nonzero;stroke:none;stroke-width:1.39999998;marker:none;visibility:visible;display:inline;overflow:visible;enable-background:accumulate"
       sodipodi:type="arc" />
    <path
       sodipodi:type="star"
       style="color:#000000;fill:#ffffff;fill-opacity:1;fill-rule:nonzero;stroke:none;stroke-width:1.39999998000000003;marker:none;visibility:visible;display:inline;overflow:visible;enable-background:accumulate;filter:url(#filter4404)"
       id="path4398"
       sodipodi:sides="4"
       sodipodi:cx="-11.835616"
       sodipodi:cy="17.62192"
       sodipodi:r1="21.896976"
       sodipodi:r2="2.1896975"
       sodipodi:arg1="0"
       sodipodi:arg2="0.78539816"
       inkscape:flatsided="false"
       inkscape:rounded="0"
       inkscape:randomized="0"
       d="m 10.06136,17.62192 -20.348626,1.54835 -1.54835,20.348626 -1.54835,-20.348626 -20.348627,-1.54835 20.348627,-1.54835 1.54835,-20.3486268 1.54835,20.3486268 z"
       transform="matrix(0.41144062,0,0,0.41144062,19.861434,6.6893544)" />
    <rect
       width="39.003796"
       height="39.499611"
       ry="2"
       x="4.4981022"
       y="3.5003891"
       id="rect4513"
       style="fill:none;stroke:url(#linearGradient3067-8);stroke-width:1;stroke-miterlimit:4;stroke-opacity:1;stroke-dasharray:none;opacity:0.50000000000000000;color:#000000;stroke-linecap:round;stroke-linejoin:round;stroke-dashoffset:0;marker:none;visibility:visible;display:inline;overflow:visible;enable-background:accumulate"
       rx="2.0000005" />
  </g>
</svg>
