<?xml version="1.0" encoding="UTF-8" standalone="no"?>
<!-- Created with Inkscape (http://www.inkscape.org/) -->

<svg
   xmlns:dc="http://purl.org/dc/elements/1.1/"
   xmlns:cc="http://creativecommons.org/ns#"
   xmlns:rdf="http://www.w3.org/1999/02/22-rdf-syntax-ns#"
   xmlns:svg="http://www.w3.org/2000/svg"
   xmlns="http://www.w3.org/2000/svg"
   xmlns:xlink="http://www.w3.org/1999/xlink"
   xmlns:sodipodi="http://sodipodi.sourceforge.net/DTD/sodipodi-0.dtd"
   xmlns:inkscape="http://www.inkscape.org/namespaces/inkscape"
   version="1.0"
   width="22"
   height="22"
   id="svg3194"
   inkscape:version="0.48.4 r9939"
   sodipodi:docname="nm-signal-100-secure.svg">
  <sodipodi:namedview
     pagecolor="#ffffff"
     bordercolor="#666666"
     borderopacity="1"
     objecttolerance="10"
     gridtolerance="10"
     guidetolerance="10"
     inkscape:pageopacity="0"
     inkscape:pageshadow="2"
     inkscape:window-width="1280"
     inkscape:window-height="975"
     id="namedview11"
     showgrid="true"
     inkscape:zoom="11.313709"
     inkscape:cx="48.812476"
     inkscape:cy="5.6639435"
     inkscape:window-x="0"
     inkscape:window-y="24"
     inkscape:window-maximized="1"
     inkscape:current-layer="svg3194"
     inkscape:snap-bbox="true">
    <inkscape:grid
       type="xygrid"
       id="grid2987"
       empspacing="5"
       visible="true"
       enabled="true"
       snapvisiblegridlinesonly="true" />
  </sodipodi:namedview>
  <metadata
     id="metadata16">
    <rdf:RDF>
      <cc:Work
         rdf:about="">
        <dc:format>image/svg+xml</dc:format>
        <dc:type
           rdf:resource="http://purl.org/dc/dcmitype/StillImage" />
        <dc:title />
      </cc:Work>
    </rdf:RDF>
  </metadata>
  <defs
     id="defs3196">
    <linearGradient
       y2="20"
       x2="11"
       y1="4"
       x1="11"
       gradientUnits="userSpaceOnUse"
       id="linearGradient3394-1"
       xlink:href="#linearGradient3004-9"
       inkscape:collect="always" />
    <linearGradient
       id="linearGradient3004-9">
      <stop
         id="stop3006-72"
         offset="0"
         style="stop-color:#bebebe;stop-opacity:1;" />
      <stop
         id="stop3008-2"
         offset="1"
         style="stop-color:#ffffff;stop-opacity:1;" />
    </linearGradient>
    <linearGradient
       y2="20"
       x2="11"
       y1="4"
       x1="11"
       gradientUnits="userSpaceOnUse"
       id="linearGradient3394-1-9"
       xlink:href="#linearGradient3004-9-3"
       inkscape:collect="always" />
    <linearGradient
       id="linearGradient3004-9-3">
      <stop
         id="stop3006-72-5"
         offset="0"
         style="stop-color:#bebebe;stop-opacity:1;" />
      <stop
         id="stop3008-2-7"
         offset="1"
         style="stop-color:#ffffff;stop-opacity:1;" />
    </linearGradient>
    <linearGradient
       y2="20"
       x2="11"
       y1="4"
       x1="11"
       gradientUnits="userSpaceOnUse"
       id="linearGradient3394-1-7"
       xlink:href="#linearGradient3004-9-8"
       inkscape:collect="always" />
    <linearGradient
       id="linearGradient3004-9-8">
      <stop
         id="stop3006-72-63"
         offset="0"
         style="stop-color:#bebebe;stop-opacity:1;" />
      <stop
         id="stop3008-2-77"
         offset="1"
         style="stop-color:#ffffff;stop-opacity:1;" />
    </linearGradient>
    <linearGradient
       y2="20"
       x2="11"
       y1="4"
       x1="11"
       gradientUnits="userSpaceOnUse"
       id="linearGradient3394-1-1"
       xlink:href="#linearGradient3004-9-38"
       inkscape:collect="always" />
    <linearGradient
       id="linearGradient3004-9-38">
      <stop
         id="stop3006-72-2"
         offset="0"
         style="stop-color:#bebebe;stop-opacity:1;" />
      <stop
         id="stop3008-2-5"
         offset="1"
         style="stop-color:#ffffff;stop-opacity:1;" />
    </linearGradient>
    <linearGradient
       y2="20"
       x2="11"
       y1="4"
       x1="11"
       gradientUnits="userSpaceOnUse"
       id="linearGradient3394-1-0"
       xlink:href="#linearGradient3004-9-82"
       inkscape:collect="always" />
    <linearGradient
       id="linearGradient3004-9-82">
      <stop
         id="stop3006-72-93"
         offset="0"
         style="stop-color:#bebebe;stop-opacity:1;" />
      <stop
         id="stop3008-2-98"
         offset="1"
         style="stop-color:#ffffff;stop-opacity:1;" />
    </linearGradient>
  </defs>
  <path
     style="opacity:0.59999999999999998;color:#000000;fill:#000000;fill-opacity:1;fill-rule:nonzero;stroke:none;stroke-width:1;marker:none;visibility:visible;display:inline;overflow:visible;enable-background:accumulate"
     d="M 4,3 C 2.7812,3 2,3.761567 2,5 L 2,6 C 1.3906,6 1,6.387684 1,7 l 0,3 c 0,0.612316 0.3906,1 1,1 l 4,0 c 0.6094,0 1,-0.387684 1,-1 L 7,7 C 7,6.387684 6.6094,6 6,6 L 6,5 C 6,3.761568 5.2188,3 4,3 z M 19.5,3 C 18.669,3 18,3.669 18,4.5 l 0,14 c 0,0.831 0.669,1.5 1.5,1.5 0.831,0 1.5,-0.669 1.5,-1.5 l 0,-14 C 21,3.669 20.331,3 19.5,3 z M 4,4 C 4.6094,4 5,4.383665 5,5 L 5,6 3,6 3,5 C 3,4.383665 3.3906,4 4,4 z M 15.5,7 C 14.669,7 14,7.669 14,8.5 l 0,10 c 0,0.831 0.669,1.5 1.5,1.5 0.831,0 1.5,-0.669 1.5,-1.5 l 0,-10 C 17,7.669 16.331,7 15.5,7 z m -4,4 C 10.669,11 10,11.669 10,12.5 l 0,6 c 0,0.831 0.669,1.5 1.5,1.5 0.831,0 1.5,-0.669 1.5,-1.5 l 0,-6 C 13,11.669 12.331,11 11.5,11 z m -4,3 C 7.4372636,14 7.3731716,14.023842 7.3125,14.03125 6.5695216,14.121965 6,14.731736 6,15.5 l 0,3 C 6,19.331 6.669,20 7.5,20 8.331,20 9,19.331 9,18.5 l 0,-3 C 9,14.731736 8.4304784,14.121965 7.6875,14.03125 7.6276406,14.006016 7.56925,14 7.5,14 z"
     id="path3075"
     inkscape:connector-curvature="0" />
  <path
     d="M 4,2 C 2.7812,2 2,2.761567 2,4 L 2,5 C 1.3906,5 1,5.387684 1,6 l 0,3 c 0,0.612316 0.3906,1 1,1 l 4,0 C 6.6094,10 7,9.612316 7,9 L 7,6 C 7,5.387684 6.6094,5 6,5 L 6,4 C 6,2.761568 5.2188,2 4,2 z M 4,3 C 4.6094,3 5,3.383665 5,4 L 5,5 3,5 3,4 C 3,3.383665 3.3906,3 4,3 z"
     id="rect2822-4-4"
     style="opacity:1;fill:url(#linearGradient3394-1-0);fill-opacity:1;fill-rule:nonzero;stroke:none;stroke-width:1;marker:none;visibility:visible;display:inline;overflow:visible;enable-background:accumulate;color:#000000"
     inkscape:connector-curvature="0"
     sodipodi:nodetypes="sscsssssscssssccss" />
  <rect
     style="opacity:1;color:#000000;fill:url(#linearGradient3394-1-9);fill-opacity:1;fill-rule:nonzero;stroke:none;stroke-width:1;marker:none;visibility:visible;display:inline;overflow:visible;enable-background:accumulate"
     id="rect3082"
     width="3"
     height="17"
     x="18"
     y="2"
     ry="1.5"
     rx="1.5" />
  <rect
     ry="1.5"
     y="6"
     x="14"
     height="13"
     width="3"
     id="rect3117"
     style="opacity:1;color:#000000;fill:url(#linearGradient3394-1);fill-opacity:1;fill-rule:nonzero;stroke:none;stroke-width:1;marker:none;visibility:visible;display:inline;overflow:visible;enable-background:accumulate"
     rx="1.5" />
  <rect
     style="opacity:1;color:#000000;fill:url(#linearGradient3394-1-7);fill-opacity:1;fill-rule:nonzero;stroke:none;stroke-width:1;marker:none;visibility:visible;display:inline;overflow:visible;enable-background:accumulate"
     id="rect3122"
     width="3"
     height="9"
     x="10"
     y="10"
     ry="1.5"
     rx="1.5" />
  <rect
     ry="1.5"
     y="13"
     x="6"
     height="6"
     width="3.0000007"
     id="rect3126"
     style="opacity:1;color:#000000;fill:url(#linearGradient3394-1-1);fill-opacity:1;fill-rule:nonzero;stroke:none;stroke-width:1;marker:none;visibility:visible;display:inline;overflow:visible;enable-background:accumulate"
     rx="1.5" />
  <rect
     style="opacity:0.7;color:#000000;fill:url(#linearGradient3230-3-4);fill-opacity:1;fill-rule:nonzero;stroke:none;stroke-width:1;marker:none;visibility:visible;display:inline;overflow:visible;enable-background:accumulate"
     id="rect3258"
     width="1"
     height="1"
     x="7"
     y="13"
     ry="0.5"
     rx="0.5" />
</svg>
