<?xml version="1.0" encoding="UTF-8" standalone="no"?>
<!-- Created with Inkscape (http://www.inkscape.org/) -->

<svg
   xmlns:dc="http://purl.org/dc/elements/1.1/"
   xmlns:cc="http://creativecommons.org/ns#"
   xmlns:rdf="http://www.w3.org/1999/02/22-rdf-syntax-ns#"
   xmlns:svg="http://www.w3.org/2000/svg"
   xmlns="http://www.w3.org/2000/svg"
   xmlns:sodipodi="http://sodipodi.sourceforge.net/DTD/sodipodi-0.dtd"
   xmlns:inkscape="http://www.inkscape.org/namespaces/inkscape"
   version="1.0"
   width="22"
   height="22"
   id="svg3315"
   sodipodi:version="0.32"
   inkscape:version="0.48.4 r9939"
   sodipodi:docname="nm-stage01-connecting03.svg"
   inkscape:output_extension="org.inkscape.output.svg.inkscape">
  <metadata
     id="metadata25">
    <rdf:RDF>
      <cc:Work
         rdf:about="">
        <dc:format>image/svg+xml</dc:format>
        <dc:type
           rdf:resource="http://purl.org/dc/dcmitype/StillImage" />
        <dc:title />
      </cc:Work>
    </rdf:RDF>
  </metadata>
  <sodipodi:namedview
     inkscape:window-height="975"
     inkscape:window-width="1280"
     inkscape:pageshadow="2"
     inkscape:pageopacity="0.0"
     guidetolerance="10.0"
     gridtolerance="10.0"
     objecttolerance="10.0"
     borderopacity="1.0"
     bordercolor="#666666"
     pagecolor="#ffffff"
     id="base"
     showgrid="true"
     inkscape:zoom="16"
     inkscape:cx="15.826113"
     inkscape:cy="12.03217"
     inkscape:window-x="0"
     inkscape:window-y="24"
     inkscape:current-layer="svg3315"
     inkscape:snap-bbox="true"
     inkscape:window-maximized="1">
    <inkscape:grid
       type="xygrid"
       id="grid3001"
       empspacing="5"
       visible="true"
       enabled="true"
       snapvisiblegridlinesonly="true" />
  </sodipodi:namedview>
  <defs
     id="defs3317" />
  <path
     sodipodi:type="arc"
     style="color:#000000;fill:#ffffff;fill-opacity:1;fill-rule:nonzero;stroke:none;stroke-width:4;marker:none;visibility:visible;display:inline;overflow:visible;enable-background:accumulate"
     id="path3009"
     sodipodi:cx="12.5"
     sodipodi:cy="5.4270511"
     sodipodi:rx="1.5"
     sodipodi:ry="2.4270511"
     d="m 14,5.4270511 a 1.5,2.4270511 0 1 1 -3,0 1.5,2.4270511 0 1 1 3,0 z"
     transform="matrix(0,1.0000001,-0.61803399,0,21.854102,-1.0000014)" />
  <path
     sodipodi:type="arc"
     style="color:#000000;fill:#ffffff;fill-opacity:0.47058824;fill-rule:nonzero;stroke:none;stroke-width:4;marker:none;visibility:visible;display:inline;overflow:visible;enable-background:accumulate"
     id="path2994"
     sodipodi:cx="12.5"
     sodipodi:cy="5.4270511"
     sodipodi:rx="1.5"
     sodipodi:ry="2.4270511"
     d="m 14,5.4270511 a 1.5,2.4270511 0 1 1 -3,0 1.5,2.4270511 0 1 1 3,0 z"
     transform="matrix(0,1.0000001,-0.61803399,0,5.8541021,-1.0000011)" />
  <path
     transform="matrix(-1.0000001,0,0,-0.61803399,23.000001,22.854102)"
     d="m 14,5.4270511 a 1.5,2.4270511 0 1 1 -3,0 1.5,2.4270511 0 1 1 3,0 z"
     sodipodi:ry="2.4270511"
     sodipodi:rx="1.5"
     sodipodi:cy="5.4270511"
     sodipodi:cx="12.5"
     id="path3000"
     style="color:#000000;fill:#ffffff;fill-opacity:0.23529412;fill-rule:nonzero;stroke:none;stroke-width:4;marker:none;visibility:visible;display:inline;overflow:visible;enable-background:accumulate"
     sodipodi:type="arc" />
  <path
     transform="matrix(-1.0000001,0,0,-0.61803399,23.000001,6.8541021)"
     d="m 14,5.4270511 a 1.5,2.4270511 0 1 1 -3,0 1.5,2.4270511 0 1 1 3,0 z"
     sodipodi:ry="2.4270511"
     sodipodi:rx="1.5"
     sodipodi:cy="5.4270511"
     sodipodi:cx="12.5"
     id="path3002"
     style="color:#000000;fill:#ffffff;fill-opacity:0.70588237;fill-rule:nonzero;stroke:none;stroke-width:4;marker:none;visibility:visible;display:inline;overflow:visible;enable-background:accumulate"
     sodipodi:type="arc" />
  <path
     sodipodi:type="arc"
     style="color:#000000;fill:#ffffff;fill-opacity:0.07843138;fill-rule:nonzero;stroke:none;stroke-width:4;marker:none;visibility:visible;display:inline;overflow:visible;enable-background:accumulate"
     id="path3004"
     sodipodi:cx="12.5"
     sodipodi:cy="5.4270511"
     sodipodi:rx="1.5"
     sodipodi:ry="2.4270511"
     d="m 14,5.4270511 a 1.5,2.4270511 0 1 1 -3,0 1.5,2.4270511 0 1 1 3,0 z"
     transform="matrix(-0.50000005,0.86602549,-0.53523314,-0.309017,26.654989,6.351983)" />
  <path
     sodipodi:type="arc"
     style="color:#000000;fill:#ffffff;fill-opacity:0.54901963;fill-rule:nonzero;stroke:none;stroke-width:4;marker:none;visibility:visible;display:inline;overflow:visible;enable-background:accumulate"
     id="path3006"
     sodipodi:cx="12.5"
     sodipodi:cy="5.4270511"
     sodipodi:rx="1.5"
     sodipodi:ry="2.4270511"
     d="m 14,5.4270511 a 1.5,2.4270511 0 1 1 -3,0 1.5,2.4270511 0 1 1 3,0 z"
     transform="matrix(-0.50000005,0.86602549,-0.53523314,-0.309017,12.654989,-1.648017)" />
  <path
     transform="matrix(-0.86602549,0.50000005,-0.309017,-0.53523314,27.00262,15.154988)"
     d="m 14,5.4270511 a 1.5,2.4270511 0 1 1 -3,0 1.5,2.4270511 0 1 1 3,0 z"
     sodipodi:ry="2.4270511"
     sodipodi:rx="1.5"
     sodipodi:cy="5.4270511"
     sodipodi:cx="12.5"
     id="path3008"
     style="color:#000000;fill:#ffffff;fill-opacity:0.15686275;fill-rule:nonzero;stroke:none;stroke-width:4;marker:none;visibility:visible;display:inline;overflow:visible;enable-background:accumulate"
     sodipodi:type="arc" />
  <path
     transform="matrix(-0.86602549,0.50000005,-0.309017,-0.53523314,19.00262,1.1549875)"
     d="m 14,5.4270511 a 1.5,2.4270511 0 1 1 -3,0 1.5,2.4270511 0 1 1 3,0 z"
     sodipodi:ry="2.4270511"
     sodipodi:rx="1.5"
     sodipodi:cy="5.4270511"
     sodipodi:cx="12.5"
     id="path3010"
     style="color:#000000;fill:#ffffff;fill-opacity:0.627451;fill-rule:nonzero;stroke:none;stroke-width:4;marker:none;visibility:visible;display:inline;overflow:visible;enable-background:accumulate"
     sodipodi:type="arc" />
  <path
     sodipodi:type="arc"
     style="color:#000000;fill:#ffffff;fill-opacity:0.3137255;fill-rule:nonzero;stroke:none;stroke-width:4;marker:none;visibility:visible;display:inline;overflow:visible;enable-background:accumulate"
     id="path3012"
     sodipodi:cx="12.5"
     sodipodi:cy="5.4270511"
     sodipodi:rx="1.5"
     sodipodi:ry="2.4270511"
     d="m 14,5.4270511 a 1.5,2.4270511 0 1 1 -3,0 1.5,2.4270511 0 1 1 3,0 z"
     transform="matrix(-0.86602549,-0.50000005,0.309017,-0.53523314,15.648518,27.654989)" />
  <path
     sodipodi:type="arc"
     style="color:#000000;fill:#ffffff;fill-opacity:0.78431374;fill-rule:nonzero;stroke:none;stroke-width:4;marker:none;visibility:visible;display:inline;overflow:visible;enable-background:accumulate"
     id="path3014"
     sodipodi:cx="12.5"
     sodipodi:cy="5.4270511"
     sodipodi:rx="1.5"
     sodipodi:ry="2.4270511"
     d="m 14,5.4270511 a 1.5,2.4270511 0 1 1 -3,0 1.5,2.4270511 0 1 1 3,0 z"
     transform="matrix(-0.86602549,-0.50000005,0.309017,-0.53523314,23.648518,13.654989)" />
  <path
     transform="matrix(-0.50000005,-0.86602549,0.53523314,-0.309017,6.8455136,28.00262)"
     d="m 14,5.4270511 a 1.5,2.4270511 0 1 1 -3,0 1.5,2.4270511 0 1 1 3,0 z"
     sodipodi:ry="2.4270511"
     sodipodi:rx="1.5"
     sodipodi:cy="5.4270511"
     sodipodi:cx="12.5"
     id="path3016"
     style="color:#000000;fill:#ffffff;fill-opacity:0.39215687;fill-rule:nonzero;stroke:none;stroke-width:4;marker:none;visibility:visible;display:inline;overflow:visible;enable-background:accumulate"
     sodipodi:type="arc" />
  <path
     transform="matrix(-0.50000005,-0.86602549,0.53523314,-0.309017,20.845514,20.00262)"
     d="m 14,5.4270511 a 1.5,2.4270511 0 1 1 -3,0 1.5,2.4270511 0 1 1 3,0 z"
     sodipodi:ry="2.4270511"
     sodipodi:rx="1.5"
     sodipodi:cy="5.4270511"
     sodipodi:cx="12.5"
     id="path3018"
     style="color:#000000;fill:#ffffff;fill-opacity:0.90196079;fill-rule:nonzero;stroke:none;stroke-width:4;marker:none;visibility:visible;display:inline;overflow:visible;enable-background:accumulate"
     sodipodi:type="arc" />
</svg>
