<?xml version="1.0" encoding="UTF-8" standalone="no"?>
<!-- Created with Inkscape (http://www.inkscape.org/) -->

<svg
   xmlns:dc="http://purl.org/dc/elements/1.1/"
   xmlns:cc="http://creativecommons.org/ns#"
   xmlns:rdf="http://www.w3.org/1999/02/22-rdf-syntax-ns#"
   xmlns:svg="http://www.w3.org/2000/svg"
   xmlns="http://www.w3.org/2000/svg"
   xmlns:xlink="http://www.w3.org/1999/xlink"
   xmlns:sodipodi="http://sodipodi.sourceforge.net/DTD/sodipodi-0.dtd"
   xmlns:inkscape="http://www.inkscape.org/namespaces/inkscape"
   version="1.0"
   width="22"
   height="22"
   id="svg3194"
   inkscape:version="0.48.4 r9939"
   sodipodi:docname="nm-vpn-active-lock.svg">
  <sodipodi:namedview
     pagecolor="#ffffff"
     bordercolor="#666666"
     borderopacity="1"
     objecttolerance="10"
     gridtolerance="10"
     guidetolerance="10"
     inkscape:pageopacity="0"
     inkscape:pageshadow="2"
     inkscape:window-width="1280"
     inkscape:window-height="975"
     id="namedview11"
     showgrid="true"
     inkscape:zoom="16.000001"
     inkscape:cx="19.811785"
     inkscape:cy="8.3539993"
     inkscape:window-x="0"
     inkscape:window-y="24"
     inkscape:window-maximized="1"
     inkscape:current-layer="svg3194"
     inkscape:snap-bbox="true">
    <inkscape:grid
       type="xygrid"
       id="grid2987"
       empspacing="5"
       visible="true"
       enabled="true"
       snapvisiblegridlinesonly="true" />
  </sodipodi:namedview>
  <metadata
     id="metadata16">
    <rdf:RDF>
      <cc:Work
         rdf:about="">
        <dc:format>image/svg+xml</dc:format>
        <dc:type
           rdf:resource="http://purl.org/dc/dcmitype/StillImage" />
        <dc:title />
      </cc:Work>
    </rdf:RDF>
  </metadata>
  <defs
     id="defs3196">
    <linearGradient
       id="linearGradient3587-6-5-3-4-8-7">
      <stop
         offset="0"
         style="stop-color:#dcdcdc;stop-opacity:1;"
         id="stop3589-9-2-2-5-1-4" />
      <stop
         offset="1"
         style="stop-color:#ffffff;stop-opacity:1;"
         id="stop3591-7-4-73-2-8-4" />
    </linearGradient>
    <linearGradient
       inkscape:collect="always"
       xlink:href="#linearGradient3587-6-5-3-4-8-7"
       id="linearGradient3024"
       gradientUnits="userSpaceOnUse"
       gradientTransform="matrix(0.45112155,0,0,0.60259734,4.197116,-2.098362)"
       x1="31.261829"
       y1="23.638462"
       x2="31.261829"
       y2="38.389946" />
  </defs>
  <path
     style="opacity:1;color:#000000;fill:#000000;fill-opacity:1;fill-rule:nonzero;stroke:none;stroke-width:1;marker:none;visibility:visible;display:inline;overflow:visible;enable-background:accumulate"
     d="m 18,14 c -1.2188,0 -2,0.761567 -2,2 l 0,1 c -0.6094,0 -1,0.387684 -1,1 l 0,3 c 0,0.612316 0.3906,1 1,1 l 4,0 c 0.6094,0 1,-0.387684 1,-1 l 0,-3 c 0,-0.612316 -0.3906,-1 -1,-1 l 0,-1 c 0,-1.238432 -0.7812,-2 -2,-2 z m 0,1 c 0.6094,0 1,0.383665 1,1 l 0,1 -2,0 0,-1 c 0,-0.616335 0.3906,-1 1,-1 z"
     id="path3075"
     inkscape:connector-curvature="0"
     sodipodi:nodetypes="sscsssssscssssccss" />
  <path
     d="m 18,13 c -1.2188,0 -2,0.761567 -2,2 l 0,1 c -0.6094,0 -1,0.387684 -1,1 l 0,3 c 0,0.612316 0.3906,1 1,1 l 4,0 c 0.6094,0 1,-0.387684 1,-1 l 0,-3 c 0,-0.612316 -0.3906,-1 -1,-1 l 0,-1 c 0,-1.238432 -0.7812,-2 -2,-2 z m 0,1 c 0.6094,0 1,0.383665 1,1 l 0,1 -2,0 0,-1 c 0,-0.616335 0.3906,-1 1,-1 z"
     id="rect2822-4-4-8"
     style="opacity:1;fill:url(#linearGradient3024);fill-opacity:1;fill-rule:nonzero;stroke:none;stroke-width:1;marker:none;visibility:visible;display:inline;overflow:visible;enable-background:accumulate"
     inkscape:connector-curvature="0"
     sodipodi:nodetypes="sscsssssscssssccss" />
</svg>
