<?xml version="1.0" encoding="UTF-8" standalone="no"?>
<!-- Created with Inkscape (http://www.inkscape.org/) -->

<svg
   xmlns:dc="http://purl.org/dc/elements/1.1/"
   xmlns:cc="http://creativecommons.org/ns#"
   xmlns:rdf="http://www.w3.org/1999/02/22-rdf-syntax-ns#"
   xmlns:svg="http://www.w3.org/2000/svg"
   xmlns="http://www.w3.org/2000/svg"
   xmlns:xlink="http://www.w3.org/1999/xlink"
   xmlns:sodipodi="http://sodipodi.sourceforge.net/DTD/sodipodi-0.dtd"
   xmlns:inkscape="http://www.inkscape.org/namespaces/inkscape"
   width="22"
   height="22"
   id="svg6662"
   version="1.1"
   inkscape:version="0.48.4 r9939"
   sodipodi:docname="system-devices-panel-information.svg">
  <defs
     id="defs6664">
    <linearGradient
       inkscape:collect="always"
       xlink:href="#linearGradient2867-449-88-871-390-598-476-591-434-148-6-0"
       id="linearGradient3021-2"
       gradientUnits="userSpaceOnUse"
       gradientTransform="matrix(0.48248289,0,0,0.69386905,5.6634,1024.491)"
       x1="13.133315"
       y1="38.726616"
       x2="13.133315"
       y2="8.4615393" />
    <linearGradient
       id="linearGradient2867-449-88-871-390-598-476-591-434-148-6-0">
      <stop
         id="stop4629-4-3"
         style="stop-color:#49a3d2;stop-opacity:1"
         offset="0" />
      <stop
         id="stop4631-8-0"
         style="stop-color:#3470b4;stop-opacity:1"
         offset="0.704952" />
      <stop
         id="stop4633-9-3"
         style="stop-color:#1b5699;stop-opacity:1"
         offset="1" />
    </linearGradient>
  </defs>
  <sodipodi:namedview
     id="base"
     pagecolor="#ffffff"
     bordercolor="#666666"
     borderopacity="1.0"
     inkscape:pageopacity="0.0"
     inkscape:pageshadow="2"
     inkscape:zoom="16"
     inkscape:cx="21.336503"
     inkscape:cy="15.420519"
     inkscape:document-units="px"
     inkscape:current-layer="capa1"
     showgrid="true"
     inkscape:showpageshadow="false"
     inkscape:window-width="1280"
     inkscape:window-height="972"
     inkscape:window-x="0"
     inkscape:window-y="26"
     inkscape:window-maximized="1"
     inkscape:snap-bbox="true"
     inkscape:snap-nodes="true">
    <inkscape:grid
       type="xygrid"
       id="grid2995"
       empspacing="5"
       visible="true"
       enabled="true"
       snapvisiblegridlinesonly="true" />
  </sodipodi:namedview>
  <metadata
     id="metadata6667">
    <rdf:RDF>
      <cc:Work
         rdf:about="">
        <dc:format>image/svg+xml</dc:format>
        <dc:type
           rdf:resource="http://purl.org/dc/dcmitype/StillImage" />
        <dc:title />
      </cc:Work>
    </rdf:RDF>
  </metadata>
  <g
     inkscape:label="Capa 1"
     inkscape:groupmode="layer"
     id="capa1"
     transform="translate(0,-1030.3622)">
    <path
       sodipodi:nodetypes="ccccccccccccccccccccccccccccccccccccccssscc"
       inkscape:connector-curvature="0"
       id="path3800"
       d="m 10,1031.3622 0,5 3,0 0,-5 z m -5,2.0313 -2,1.9687 2.28125,2.2813 c -0.005,0.01 0.005,0.024 0,0.031 -0.53912,0.798 -0.92519,1.711 -1.125,2.6875 l -3.15625,0 0,3 3.15625,0 c 0.19981,0.9764 0.58588,1.8895 1.125,2.6875 0.005,0.01 -0.005,0.024 0,0.031 L 3,1048.3622 l 2,2 2.28125,-2.2812 c 0.007,0.01 0.02445,0 0.03125,0 0.79801,0.5391 1.71104,0.9251 2.6875,1.125 l 0,3.1562 3,0 0,-3.1562 c 0.97646,-0.1999 1.88949,-0.5859 2.6875,-1.125 l 0.03125,0 2.28125,2.2812 2,-2 -2.28125,-2.2812 0,-0.031 c 0.53912,-0.798 0.92519,-1.7111 1.125,-2.6875 l 3.15625,0 0,-3 -3.15625,0 c -0.19981,-0.9765 -0.58588,-1.8895 -1.125,-2.6875 l 0,-0.031 2.28125,-2.2813 -2,-1.9687 -4,3.9687 c 1,1 2,2 2,4.5 0,2.4853 -2.01472,4.5 -4.5,4.5 -2.48528,0 -4.5,-2.0147 -4.5,-4.5 0,-2.4666 1,-3.5 2,-4.5 z"
       style="color:#000000;fill:#000000;fill-opacity:1;fill-rule:nonzero;stroke:none;stroke-width:1;marker:none;visibility:visible;display:inline;overflow:visible;enable-background:accumulate" />
    <path
       style="color:#000000;fill:url(#linearGradient3021-2);fill-opacity:1;fill-rule:nonzero;stroke:none;stroke-width:1;marker:none;visibility:visible;display:inline;overflow:visible;enable-background:accumulate"
       d="m 10,1030.3622 0,5 3,0 0,-5 z m -5,2.0313 -2,1.9687 2.28125,2.2813 c -0.005,0.01 0.005,0.024 0,0.031 -0.53912,0.798 -0.92519,1.711 -1.125,2.6875 l -3.15625,0 0,3 3.15625,0 c 0.19981,0.9764 0.58588,1.8895 1.125,2.6875 0.005,0.01 -0.005,0.024 0,0.031 L 3,1047.3622 l 2,2 2.28125,-2.2812 c 0.007,0.01 0.02445,0 0.03125,0 0.79801,0.5391 1.71104,0.9251 2.6875,1.125 l 0,3.1562 3,0 0,-3.1562 c 0.97646,-0.1999 1.88949,-0.5859 2.6875,-1.125 l 0.03125,0 2.28125,2.2812 2,-2 -2.28125,-2.2812 0,-0.031 c 0.53912,-0.798 0.92519,-1.7111 1.125,-2.6875 l 3.15625,0 0,-3 -3.15625,0 c -0.19981,-0.9765 -0.58588,-1.8895 -1.125,-2.6875 l 0,-0.031 2.28125,-2.2813 -2,-1.9687 -4,3.9687 c 1,1 2,2 2,4.5 0,2.4853 -2.01472,4.5 -4.5,4.5 -2.48528,0 -4.5,-2.0147 -4.5,-4.5 0,-2.4666 1,-3.5 2,-4.5 z"
       id="path5266"
       inkscape:connector-curvature="0"
       sodipodi:nodetypes="ccccccccccccccccccccccccccccccccccccccssscc" />
  </g>
</svg>
