<?xml version="1.0" encoding="UTF-8" standalone="no"?>
<!-- Created with Inkscape (http://www.inkscape.org/) -->

<svg
   xmlns:dc="http://purl.org/dc/elements/1.1/"
   xmlns:cc="http://creativecommons.org/ns#"
   xmlns:rdf="http://www.w3.org/1999/02/22-rdf-syntax-ns#"
   xmlns:svg="http://www.w3.org/2000/svg"
   xmlns="http://www.w3.org/2000/svg"
   xmlns:xlink="http://www.w3.org/1999/xlink"
   xmlns:sodipodi="http://sodipodi.sourceforge.net/DTD/sodipodi-0.dtd"
   xmlns:inkscape="http://www.inkscape.org/namespaces/inkscape"
   width="22"
   height="22"
   id="svg5358"
   version="1.1"
   inkscape:version="0.48.4 r9939"
   sodipodi:docname="xfpm-ups-missing.svg">
  <defs
     id="defs5360">
    <linearGradient
       inkscape:collect="always"
       xlink:href="#linearGradient4493"
       id="linearGradient4491"
       x1="50"
       y1="939.36218"
       x2="50"
       y2="958.36218"
       gradientUnits="userSpaceOnUse"
       gradientTransform="translate(325,-417)" />
    <linearGradient
       id="linearGradient4493">
      <stop
         id="stop4495"
         style="stop-color:#8c0000;stop-opacity:1"
         offset="0" />
      <stop
         id="stop4497"
         style="stop-color:#ff0101;stop-opacity:1;"
         offset="1" />
    </linearGradient>
  </defs>
  <sodipodi:namedview
     id="base"
     pagecolor="#ffffff"
     bordercolor="#666666"
     borderopacity="1.0"
     inkscape:pageopacity="0.0"
     inkscape:pageshadow="2"
     inkscape:zoom="15.839192"
     inkscape:cx="11"
     inkscape:cy="11"
     inkscape:document-units="px"
     inkscape:current-layer="layer1"
     showgrid="true"
     fit-margin-top="0"
     fit-margin-left="0"
     fit-margin-right="0"
     fit-margin-bottom="0"
     inkscape:showpageshadow="false"
     inkscape:window-width="1280"
     inkscape:window-height="975"
     inkscape:window-x="0"
     inkscape:window-y="24"
     inkscape:window-maximized="1">
    <inkscape:grid
       type="xygrid"
       id="grid5385"
       empspacing="5"
       visible="true"
       enabled="true"
       snapvisiblegridlinesonly="true" />
  </sodipodi:namedview>
  <metadata
     id="metadata5363">
    <rdf:RDF>
      <cc:Work
         rdf:about="">
        <dc:format>image/svg+xml</dc:format>
        <dc:type
           rdf:resource="http://purl.org/dc/dcmitype/StillImage" />
        <dc:title />
      </cc:Work>
    </rdf:RDF>
  </metadata>
  <g
     inkscape:label="Layer 1"
     inkscape:groupmode="layer"
     id="layer1"
     transform="translate(-364,-521.36218)">
    <path
       inkscape:connector-curvature="0"
       style="font-size:medium;font-style:normal;font-variant:normal;font-weight:normal;font-stretch:normal;text-indent:0;text-align:start;text-decoration:none;line-height:normal;letter-spacing:normal;word-spacing:normal;text-transform:none;direction:ltr;block-progression:tb;writing-mode:lr-tb;text-anchor:start;baseline-shift:baseline;opacity:1;color:#000000;fill:#000000;fill-opacity:1;fill-rule:nonzero;stroke:none;stroke-width:1;marker:none;visibility:visible;display:inline;overflow:visible;enable-background:accumulate;font-family:Sans;-inkscape-font-specification:Sans"
       d="m 374,523.3622 c -0.554,0 -1,0.446 -1,1 l 0,1 -1,0 c -1.6447,0 -3,1.3553 -3,3 l 0,4 0,7 c 0,1.6447 1.3553,3 3,3 l 5,0 1,0 c 1.6447,0 3,-1.3553 3,-3 l 0,-4 0,-3 0,-4 c 0,-1.6447 -1.3553,-3 -3,-3 l -1,0 0,-1 c 0,-0.554 -0.446,-1 -1,-1 l -2,0 z m -2,4 2,0 2,0 2,0 c 0.5713,0 1,0.4287 1,1 l 0,1.875 0,7.25 0,1.875 c 0,0.5713 -0.4287,1 -1,1 l -1,0 -3,0 -2,0 c -0.5713,0 -1,-0.4287 -1,-1 l 0,-7 0,-4 c 0,-0.5713 0.4287,-1 1,-1 z m 2,2 0,6 2,0 0,-6 -2,0 z m 0,7 0,2 2,0 0,-2 -2,0 z"
       id="path3215" />
    <path
       inkscape:connector-curvature="0"
       style="font-size:medium;font-style:normal;font-variant:normal;font-weight:normal;font-stretch:normal;text-indent:0;text-align:start;text-decoration:none;line-height:normal;letter-spacing:normal;word-spacing:normal;text-transform:none;direction:ltr;block-progression:tb;writing-mode:lr-tb;text-anchor:start;baseline-shift:baseline;opacity:0.8;color:#000000;fill:url(#linearGradient4491);fill-opacity:1;fill-rule:nonzero;stroke:none;stroke-width:1;marker:none;visibility:visible;display:inline;overflow:visible;enable-background:accumulate;font-family:Sans;-inkscape-font-specification:Sans"
       d="m 374,522.3622 c -0.554,0 -1,0.446 -1,1 l 0,1 -1,0 c -1.6447,0 -3,1.3553 -3,3 l 0,4 0,7 c 0,1.6447 1.3553,3 3,3 l 5,0 1,0 c 1.6447,0 3,-1.3553 3,-3 l 0,-4 0,-3 0,-4 c 0,-1.6447 -1.3553,-3 -3,-3 l -1,0 0,-1 c 0,-0.554 -0.446,-1 -1,-1 l -2,0 z m -2,4 2,0 2,0 2,0 c 0.5713,0 1,0.4287 1,1 l 0,1.875 0,7.25 0,1.875 c 0,0.5713 -0.4287,1 -1,1 l -1,0 -3,0 -2,0 c -0.5713,0 -1,-0.4287 -1,-1 l 0,-7 0,-4 c 0,-0.5713 0.4287,-1 1,-1 z m 2,2 0,6 2,0 0,-6 -2,0 z m 0,7 0,2 2,0 0,-2 -2,0 z"
       id="path3217" />
  </g>
</svg>
