<?xml version="1.0" encoding="UTF-8" standalone="no"?>
<!-- Created with Inkscape (http://www.inkscape.org/) -->

<svg
   xmlns:dc="http://purl.org/dc/elements/1.1/"
   xmlns:cc="http://creativecommons.org/ns#"
   xmlns:rdf="http://www.w3.org/1999/02/22-rdf-syntax-ns#"
   xmlns:svg="http://www.w3.org/2000/svg"
   xmlns="http://www.w3.org/2000/svg"
   xmlns:xlink="http://www.w3.org/1999/xlink"
   xmlns:sodipodi="http://sodipodi.sourceforge.net/DTD/sodipodi-0.dtd"
   xmlns:inkscape="http://www.inkscape.org/namespaces/inkscape"
   width="22"
   height="22.000008"
   id="svg6187"
   version="1.1"
   inkscape:version="0.48.4 r9939"
   sodipodi:docname="xfpm-keyboard-060.svg">
  <defs
     id="defs6189">
    <linearGradient
       id="linearGradient3587-6-5-3-0">
      <stop
         offset="0"
         style="stop-color:#bebebe;stop-opacity:1;"
         id="stop3589-9-2-2-4" />
      <stop
         offset="1"
         style="stop-color:#ffffff;stop-opacity:1;"
         id="stop3591-7-4-73-2" />
    </linearGradient>
    <linearGradient
       inkscape:collect="always"
       xlink:href="#linearGradient3587-6-5-3-0"
       id="linearGradient4270"
       gradientUnits="userSpaceOnUse"
       gradientTransform="matrix(0.4101105,0,0,0.4193901,-29.84874,5.95631)"
       x1="87.412384"
       y1="-11.817637"
       x2="87.412384"
       y2="35.870422" />
  </defs>
  <sodipodi:namedview
     id="base"
     pagecolor="#ffffff"
     bordercolor="#666666"
     borderopacity="1.0"
     inkscape:pageopacity="0.0"
     inkscape:pageshadow="2"
     inkscape:zoom="11.2"
     inkscape:cx="11"
     inkscape:cy="11.000007"
     inkscape:document-units="px"
     inkscape:current-layer="layer1"
     showgrid="false"
     inkscape:showpageshadow="false"
     fit-margin-top="0"
     fit-margin-left="0"
     fit-margin-right="0"
     fit-margin-bottom="0"
     inkscape:window-width="1280"
     inkscape:window-height="975"
     inkscape:window-x="0"
     inkscape:window-y="24"
     inkscape:window-maximized="1" />
  <metadata
     id="metadata6192">
    <rdf:RDF>
      <cc:Work
         rdf:about="">
        <dc:format>image/svg+xml</dc:format>
        <dc:type
           rdf:resource="http://purl.org/dc/dcmitype/StillImage" />
        <dc:title />
      </cc:Work>
    </rdf:RDF>
  </metadata>
  <g
     inkscape:label="Layer 1"
     inkscape:groupmode="layer"
     id="layer1"
     transform="translate(-364,-521.36218)">
    <path
       id="path4214"
       d="m 369,523.36219 c -0.554,0 -1,0.446 -1,1 l 0,1 -1,0 c -1.6447,0 -3,1.3553 -3,3 l 0,11 c 0,1.6447 1.3553,3 3,3 l 5,0 0,-2 -5,0 c -0.5713,0 -1,-0.4287 -1,-1 l 0,-11 c 0,-0.5713 0.4287,-1 1,-1 l 2,0 2,0 2,0 c 0.5713,0 1,0.4287 1,1 l 0,7 2,0 0,-7 c 0,-1.6447 -1.3553,-3 -3,-3 l -1,0 0,-1 c 0,-0.554 -0.446,-1 -1,-1 z m -1,9 c -0.554,0 -1,0.446 -1,1 l 0,1 c 0,0.554 0.446,1 1,1 l 4,0 c 0.554,0 1,-0.446 1,-1 l 0,-1 c 0,-0.554 -0.446,-1 -1,-1 z m 0,4 c -0.554,0 -1,0.446 -1,1 l 0,1 c 0,0.554 0.446,1 1,1 l 3,0 c 0.554,0 1,-0.446 1,-1 l 0,-1 c 0,-0.554 -0.446,-1 -1,-1 z m 6,0 c -0.554,0 -1,0.446 -1,1 l 0,5 c 0,0.554 0.446,1 1,1 l 11,0 c 0.554,0 1,-0.446 1,-1 l 0,-5 c 0,-0.554 -0.446,-1 -1,-1 z m 0.5,1 1,0 c 0.277,0 0.5,0.223 0.5,0.5 l 0,1 c 0,0.277 -0.223,0.5 -0.5,0.5 l -1,0 c -0.277,0 -0.5,-0.223 -0.5,-0.5 l 0,-1 c 0,-0.277 0.223,-0.5 0.5,-0.5 z m 3,0 1,0 c 0.277,0 0.5,0.223 0.5,0.5 l 0,1 c 0,0.277 -0.223,0.5 -0.5,0.5 l -1,0 c -0.277,0 -0.5,-0.223 -0.5,-0.5 l 0,-1 c 0,-0.277 0.223,-0.5 0.5,-0.5 z m 3,0 1,0 c 0.277,0 0.5,0.223 0.5,0.5 l 0,1 c 0,0.277 -0.223,0.5 -0.5,0.5 l -1,0 c -0.277,0 -0.5,-0.223 -0.5,-0.5 l 0,-1 c 0,-0.277 0.223,-0.5 0.5,-0.5 z m 3,0 1,0 c 0.277,0 0.5,0.223 0.5,0.5 l 0,1 c 0,0.277 -0.223,0.5 -0.5,0.5 l -1,0 c -0.277,0 -0.5,-0.223 -0.5,-0.5 l 0,-1 c 0,-0.277 0.223,-0.5 0.5,-0.5 z m -9,3 1,0 c 0.277,0 0.5,0.223 0.5,0.5 l 0,1 c 0,0.277 -0.223,0.5 -0.5,0.5 l -1,0 c -0.277,0 -0.5,-0.223 -0.5,-0.5 l 0,-1 c 0,-0.277 0.223,-0.5 0.5,-0.5 z m 3,0 4,0 c 0.277,0 0.5,0.223 0.5,0.5 l 0,1 c 0,0.277 -0.223,0.5 -0.5,0.5 l -4,0 c -0.277,0 -0.5,-0.223 -0.5,-0.5 l 0,-1 c 0,-0.277 0.223,-0.5 0.5,-0.5 z m 6,0 1,0 c 0.277,0 0.5,0.223 0.5,0.5 l 0,1 c 0,0.277 -0.223,0.5 -0.5,0.5 l -1,0 c -0.277,0 -0.5,-0.223 -0.5,-0.5 l 0,-1 c 0,-0.277 0.223,-0.5 0.5,-0.5 z"
       style="font-size:medium;font-style:normal;font-variant:normal;font-weight:normal;font-stretch:normal;text-indent:0;text-align:start;text-decoration:none;line-height:normal;letter-spacing:normal;word-spacing:normal;text-transform:none;direction:ltr;block-progression:tb;writing-mode:lr-tb;text-anchor:start;baseline-shift:baseline;opacity:1;color:#000000;fill:#000000;fill-opacity:1;fill-rule:nonzero;stroke:none;stroke-width:1;marker:none;visibility:visible;display:inline;overflow:visible;enable-background:accumulate;font-family:Sans;-inkscape-font-specification:Sans"
       inkscape:connector-curvature="0"
       sodipodi:nodetypes="sscssssccssssccssccsscsssssssssssssssssssssssssssssssssssssssssssssssssssssssssssssssssssssssssssssssssssssssssssss" />
    <path
       style="font-size:medium;font-style:normal;font-variant:normal;font-weight:normal;font-stretch:normal;text-indent:0;text-align:start;text-decoration:none;line-height:normal;letter-spacing:normal;word-spacing:normal;text-transform:none;direction:ltr;block-progression:tb;writing-mode:lr-tb;text-anchor:start;baseline-shift:baseline;opacity:1;color:#000000;fill:url(#linearGradient4270);fill-opacity:1;fill-rule:nonzero;stroke:none;stroke-width:1;marker:none;visibility:visible;display:inline;overflow:visible;enable-background:accumulate;font-family:Sans;-inkscape-font-specification:Sans"
       d="M 5 1 C 4.446 1 4 1.446 4 2 L 4 3 L 3 3 C 1.3553 3 0 4.3553 0 6 L 0 17 C 0 18.6447 1.3553 20 3 20 L 8 20 L 8 18 L 3 18 C 2.4287 18 2 17.5713 2 17 L 2 6 C 2 5.4287 2.4287 5 3 5 L 5 5 L 7 5 L 9 5 C 9.5713 5 10 5.4287 10 6 L 10 13 L 12 13 L 12 6 C 12 4.3553 10.6447 3 9 3 L 8 3 L 8 2 C 8 1.446 7.554 1 7 1 L 5 1 z M 4 10 C 3.446 10 3 10.446 3 11 L 3 12 C 3 12.554 3.446 13 4 13 L 8 13 C 8.554 13 9 12.554 9 12 L 9 11 C 9 10.446 8.554 10 8 10 L 4 10 z M 4 14 C 3.446 14 3 14.446 3 15 L 3 16 C 3 16.554 3.446 17 4 17 L 7 17 C 7.554 17 8 16.554 8 16 L 8 15 C 8 14.446 7.554 14 7 14 L 4 14 z M 10 14 C 9.446 14 9 14.446 9 15 L 9 20 C 9 20.554 9.446 21 10 21 L 21 21 C 21.554 21 22 20.554 22 20 L 22 15 C 22 14.446 21.554 14 21 14 L 10 14 z M 10.5 15 L 11.5 15 C 11.777 15 12 15.223 12 15.5 L 12 16.5 C 12 16.777 11.777 17 11.5 17 L 10.5 17 C 10.223 17 10 16.777 10 16.5 L 10 15.5 C 10 15.223 10.223 15 10.5 15 z M 13.5 15 L 14.5 15 C 14.777 15 15 15.223 15 15.5 L 15 16.5 C 15 16.777 14.777 17 14.5 17 L 13.5 17 C 13.223 17 13 16.777 13 16.5 L 13 15.5 C 13 15.223 13.223 15 13.5 15 z M 16.5 15 L 17.5 15 C 17.777 15 18 15.223 18 15.5 L 18 16.5 C 18 16.777 17.777 17 17.5 17 L 16.5 17 C 16.223 17 16 16.777 16 16.5 L 16 15.5 C 16 15.223 16.223 15 16.5 15 z M 19.5 15 L 20.5 15 C 20.777 15 21 15.223 21 15.5 L 21 16.5 C 21 16.777 20.777 17 20.5 17 L 19.5 17 C 19.223 17 19 16.777 19 16.5 L 19 15.5 C 19 15.223 19.223 15 19.5 15 z M 10.5 18 L 11.5 18 C 11.777 18 12 18.223 12 18.5 L 12 19.5 C 12 19.777 11.777 20 11.5 20 L 10.5 20 C 10.223 20 10 19.777 10 19.5 L 10 18.5 C 10 18.223 10.223 18 10.5 18 z M 13.5 18 L 17.5 18 C 17.777 18 18 18.223 18 18.5 L 18 19.5 C 18 19.777 17.777 20 17.5 20 L 13.5 20 C 13.223 20 13 19.777 13 19.5 L 13 18.5 C 13 18.223 13.223 18 13.5 18 z M 19.5 18 L 20.5 18 C 20.777 18 21 18.223 21 18.5 L 21 19.5 C 21 19.777 20.777 20 20.5 20 L 19.5 20 C 19.223 20 19 19.777 19 19.5 L 19 18.5 C 19 18.223 19.223 18 19.5 18 z "
       transform="translate(364,521.36218)"
       id="path4218" />
  </g>
</svg>
