<?xml version="1.0" encoding="UTF-8" standalone="no"?>
<!-- Created with Inkscape (http://www.inkscape.org/) -->

<svg
   xmlns:dc="http://purl.org/dc/elements/1.1/"
   xmlns:cc="http://creativecommons.org/ns#"
   xmlns:rdf="http://www.w3.org/1999/02/22-rdf-syntax-ns#"
   xmlns:svg="http://www.w3.org/2000/svg"
   xmlns="http://www.w3.org/2000/svg"
   xmlns:xlink="http://www.w3.org/1999/xlink"
   xmlns:sodipodi="http://sodipodi.sourceforge.net/DTD/sodipodi-0.dtd"
   xmlns:inkscape="http://www.inkscape.org/namespaces/inkscape"
   width="22"
   height="22.000008"
   id="svg7582"
   version="1.1"
   inkscape:version="0.48.4 r9939"
   sodipodi:docname="xfpm-ups-000-charging.svg">
  <defs
     id="defs7584">
    <linearGradient
       gradientTransform="translate(325,-537.00003)"
       inkscape:collect="always"
       xlink:href="#linearGradient4493-9-8-8-0-5"
       id="linearGradient4536-5-8-0-3"
       x1="46"
       y1="1059.3622"
       x2="46"
       y2="1078.3622"
       gradientUnits="userSpaceOnUse" />
    <linearGradient
       id="linearGradient4493-9-8-8-0-5">
      <stop
         id="stop4495-7-0-1-1-9"
         style="stop-color:#8c0000;stop-opacity:1"
         offset="0" />
      <stop
         id="stop4497-9-3-8-0-3"
         style="stop-color:#ff0101;stop-opacity:1;"
         offset="1" />
    </linearGradient>
    <linearGradient
       inkscape:collect="always"
       xlink:href="#linearGradient3587-6-5-3-0"
       id="linearGradient4404"
       gradientUnits="userSpaceOnUse"
       gradientTransform="matrix(0.4101105,0,0,0.4193901,335.15126,527.31839)"
       x1="87.412384"
       y1="6.7010489"
       x2="87.412384"
       y2="35.870659" />
    <linearGradient
       id="linearGradient3587-6-5-3-0">
      <stop
         offset="0"
         style="stop-color:#bebebe;stop-opacity:1;"
         id="stop3589-9-2-2-4" />
      <stop
         offset="1"
         style="stop-color:#ffffff;stop-opacity:1;"
         id="stop3591-7-4-73-2" />
    </linearGradient>
  </defs>
  <sodipodi:namedview
     id="base"
     pagecolor="#ffffff"
     bordercolor="#666666"
     borderopacity="1.0"
     inkscape:pageopacity="0.0"
     inkscape:pageshadow="2"
     inkscape:zoom="11.2"
     inkscape:cx="11"
     inkscape:cy="11.000007"
     inkscape:document-units="px"
     inkscape:current-layer="layer1"
     showgrid="false"
     inkscape:showpageshadow="false"
     fit-margin-top="0"
     fit-margin-left="0"
     fit-margin-right="0"
     fit-margin-bottom="0"
     inkscape:window-width="1280"
     inkscape:window-height="975"
     inkscape:window-x="0"
     inkscape:window-y="24"
     inkscape:window-maximized="1" />
  <metadata
     id="metadata7587">
    <rdf:RDF>
      <cc:Work
         rdf:about="">
        <dc:format>image/svg+xml</dc:format>
        <dc:type
           rdf:resource="http://purl.org/dc/dcmitype/StillImage" />
        <dc:title />
      </cc:Work>
    </rdf:RDF>
  </metadata>
  <g
     inkscape:label="Layer 1"
     inkscape:groupmode="layer"
     id="layer1"
     transform="translate(-364,-521.36218)">
    <path
       id="path4406"
       d="m 370,523.36219 c -0.554,0 -1,0.446 -1,1 l 0,1 -1,0 c -1.6447,0 -3,1.3553 -3,3 l 0,11 c 0,1.6447 1.3553,3 3,3 l 7,0 0,-2 -7,0 c -0.5713,0 -1,-0.4287 -1,-1 l 0,-11 c 0,-0.5713 0.4287,-1 1,-1 l 2,0 2,0 2,0 c 0.5713,0 1,0.4287 1,1 l 0,4.125 2,-2.125 0,-2 c 0,-1.6447 -1.3553,-3 -3,-3 l -1,0 0,-1 c 0,-0.554 -0.446,-1 -1,-1 z m 8,8 c -1,0 -1,1 -1,1 l 0,2 -1,0 0,4 c 0,2 2,2 2,2 l 1,0 0,3 2,0 0,-3 1,0 c 2,0 2,-2 2,-2 l 0,-4 -1,0 0,-2 c 0,0 0,-1 -1,-1 -1,0 -1,1 -1,1 l 0,2 -2,0 0,-2 c 0,0 0,-1 -1,-1 z"
       style="font-size:medium;font-style:normal;font-variant:normal;font-weight:normal;font-stretch:normal;text-indent:0;text-align:start;text-decoration:none;line-height:normal;letter-spacing:normal;word-spacing:normal;text-transform:none;direction:ltr;block-progression:tb;writing-mode:lr-tb;text-anchor:start;baseline-shift:baseline;opacity:1;color:#000000;fill:#000000;fill-opacity:1;fill-rule:nonzero;stroke:none;stroke-width:1;marker:none;visibility:visible;display:inline;overflow:visible;enable-background:accumulate;font-family:Sans;-inkscape-font-specification:Sans"
       inkscape:connector-curvature="0"
       sodipodi:nodetypes="sscssssccssssccssccsscsssscccscccccsccccsccccs" />
    <path
       inkscape:connector-curvature="0"
       style="font-size:medium;font-style:normal;font-variant:normal;font-weight:normal;font-stretch:normal;text-indent:0;text-align:start;text-decoration:none;line-height:normal;letter-spacing:normal;word-spacing:normal;text-transform:none;direction:ltr;block-progression:tb;writing-mode:lr-tb;text-anchor:start;baseline-shift:baseline;opacity:1;color:#000000;fill:url(#linearGradient4404);fill-opacity:1;fill-rule:nonzero;stroke:none;stroke-width:1;marker:none;visibility:visible;display:inline;overflow:visible;enable-background:accumulate;font-family:Sans;-inkscape-font-specification:Sans"
       d="m 378,530.36219 c -1,0 -1,1 -1,1 l 0,2 -1,0 0,4 c 0,2 2,2 2,2 l 1,0 0,3 2,0 0,-3 1,0 c 2,0 2,-2 2,-2 l 0,-4 -1,0 0,-2 c 0,0 0,-1 -1,-1 -1,0 -1,1 -1,1 l 0,2 -2,0 0,-2 c 0,0 0,-1 -1,-1 z"
       id="path4718" />
    <path
       inkscape:connector-curvature="0"
       style="font-size:medium;font-style:normal;font-variant:normal;font-weight:normal;font-stretch:normal;text-indent:0;text-align:start;text-decoration:none;line-height:normal;letter-spacing:normal;word-spacing:normal;text-transform:none;direction:ltr;block-progression:tb;writing-mode:lr-tb;text-anchor:start;baseline-shift:baseline;opacity:0.8;color:#000000;fill:url(#linearGradient4536-5-8-0-3);fill-opacity:1;fill-rule:nonzero;stroke:none;stroke-width:1;marker:none;visibility:visible;display:inline;overflow:visible;enable-background:accumulate;font-family:Sans;-inkscape-font-specification:Sans"
       d="m 370,522.36219 c -0.554,0 -1,0.446 -1,1 l 0,1 -1,0 c -1.6447,0 -3,1.3553 -3,3 l 0,11 c 0,1.6447 1.3553,3 3,3 l 7,0 0,-2 -7,0 c -0.5713,0 -1,-0.4287 -1,-1 l 0,-11 c 0,-0.5713 0.4287,-1 1,-1 l 2,0 2,0 2,0 c 0.5713,0 1,0.4287 1,1 l 0,4.125 2,-2.125 0,-2 c 0,-1.6447 -1.3553,-3 -3,-3 l -1,0 0,-1 c 0,-0.554 -0.446,-1 -1,-1 l -2,0 z"
       id="path3206" />
  </g>
</svg>
