<?xml version="1.0" encoding="UTF-8" standalone="no"?>
<svg
   xmlns:dc="http://purl.org/dc/elements/1.1/"
   xmlns:cc="http://creativecommons.org/ns#"
   xmlns:rdf="http://www.w3.org/1999/02/22-rdf-syntax-ns#"
   xmlns:svg="http://www.w3.org/2000/svg"
   xmlns="http://www.w3.org/2000/svg"
   xmlns:xlink="http://www.w3.org/1999/xlink"
   xmlns:sodipodi="http://sodipodi.sourceforge.net/DTD/sodipodi-0.dtd"
   xmlns:inkscape="http://www.inkscape.org/namespaces/inkscape"
   viewBox="0 0 48 48"
   id="svg2"
   version="1.1"
   inkscape:version="0.48.4 r9939"
   width="100%"
   height="100%"
   sodipodi:docname="aptdaemon-resolve.svg">
  <metadata
     id="metadata56">
    <rdf:RDF>
      <cc:Work
         rdf:about="">
        <dc:format>image/svg+xml</dc:format>
        <dc:type
           rdf:resource="http://purl.org/dc/dcmitype/StillImage" />
        <dc:title />
      </cc:Work>
    </rdf:RDF>
  </metadata>
  <sodipodi:namedview
     pagecolor="#ffffff"
     bordercolor="#666666"
     borderopacity="1"
     objecttolerance="10"
     gridtolerance="10"
     guidetolerance="10"
     inkscape:pageopacity="0"
     inkscape:pageshadow="2"
     inkscape:window-width="1280"
     inkscape:window-height="975"
     id="namedview54"
     showgrid="true"
     inkscape:zoom="16"
     inkscape:cx="39.096958"
     inkscape:cy="16.365568"
     inkscape:window-x="0"
     inkscape:window-y="24"
     inkscape:window-maximized="1"
     inkscape:current-layer="svg2"
     inkscape:snap-bbox="true">
    <inkscape:grid
       type="xygrid"
       id="grid3009" />
  </sodipodi:namedview>
  <defs
     id="defs4">
    <linearGradient
       inkscape:collect="always"
       id="linearGradient3875">
      <stop
         style="stop-color:#222222;stop-opacity:1;"
         offset="0"
         id="stop3877" />
      <stop
         style="stop-color:#808080;stop-opacity:1"
         offset="1"
         id="stop3879" />
    </linearGradient>
    <linearGradient
       id="linearGradient5060">
      <stop
         offset="0"
         id="stop7" />
      <stop
         offset="1"
         stop-opacity="0"
         id="stop9" />
    </linearGradient>
    <linearGradient
       gradientUnits="userSpaceOnUse"
       id="linearGradient3127"
       x2="0"
       y1="38.7186"
       y2="45.76167">
      <stop
         offset="0"
         stop-opacity="0"
         id="stop12" />
      <stop
         offset=".5"
         id="stop14" />
      <stop
         offset="1"
         stop-opacity="0"
         id="stop16" />
    </linearGradient>
    <linearGradient
       gradientUnits="userSpaceOnUse"
       id="linearGradient3157-5"
       x1="-42.69615"
       x2="-5.84311"
       gradientTransform="matrix(0,-1,-1,0,0,0)">
      <stop
         offset="0"
         stop-color="#ae802b"
         id="stop19" />
      <stop
         offset="1"
         stop-color="#e1c18b"
         id="stop21" />
    </linearGradient>
    <linearGradient
       gradientUnits="userSpaceOnUse"
       id="linearGradient998"
       x1="6.40561"
       x2="41.36901">
      <stop
         offset="0"
         stop-color="#fff"
         stop-opacity=".5"
         id="stop24" />
      <stop
         offset="1"
         stop-color="#fff"
         stop-opacity="0"
         id="stop26" />
    </linearGradient>
    <radialGradient
       cx="605.71429"
       cy="486.64789"
       gradientTransform="matrix(.062142,0,0,.029001,1.636502,28.085503)"
       gradientUnits="userSpaceOnUse"
       id="radialGradient3129"
       r="117.14286"
       xlink:href="#linearGradient5060" />
    <radialGradient
       cx="605.71429"
       cy="486.64789"
       gradientTransform="matrix(-.062142,0,0,.029001,46.53201,28.085503)"
       gradientUnits="userSpaceOnUse"
       id="radialGradient3131"
       r="117.14286"
       xlink:href="#linearGradient5060" />
    <linearGradient
       inkscape:collect="always"
       xlink:href="#linearGradient3875"
       id="linearGradient3881"
       x1="42"
       y1="28"
       x2="42"
       y2="48"
       gradientUnits="userSpaceOnUse" />
    <linearGradient
       inkscape:collect="always"
       xlink:href="#linearGradient1022-8-8-3-0-2-99-24-5-6-3-2-3"
       id="linearGradient3872-08-1-9-8-5"
       gradientUnits="userSpaceOnUse"
       gradientTransform="matrix(1.679991,0,0,1.5097216,-270.22504,469.00344)"
       x1="124.09295"
       y1="-296.74573"
       x2="124.09295"
       y2="-281.84232" />
    <linearGradient
       gradientUnits="userSpaceOnUse"
       id="linearGradient1022-8-8-3-0-2-99-24-5-6-3-2-3"
       x2="0"
       y1="3.0069399"
       y2="11.02436">
      <stop
         offset="0"
         id="stop3001-0-9-4-1-0-9-5-2-7-2-3" />
      <stop
         offset="1"
         stop-color="#363636"
         id="stop3003-5-6-6-1-3-0-5-4-4-1-2" />
    </linearGradient>
  </defs>
  <g
     transform="matrix(.833389,0,0,1,3.928449,0)"
     id="g30">
    <path
       d="m9.08134,38.7186h30.00582v7.04306h-30.00582z"
       fill="url(#linearGradient3127)"
       opacity=".5"
       id="path32" />
    <path
       d="m39.08716,38.71885v7.04268c3.20017.01326 7.73646-1.57791 7.73646-3.52179s-3.57115-3.52088-7.73646-3.52088z"
       fill="url(#radialGradient3129)"
       opacity=".5"
       id="path34" />
    <path
       d="m9.08134,38.71885v7.04268c-3.20017.01326-7.73646-1.57791-7.73646-3.52179s3.57115-3.52088 7.73646-3.52088z"
       fill="url(#radialGradient3131)"
       opacity=".5"
       id="path36" />
  </g>
  <path
     d="m 42.4999,40.5 0,-33 a 2,2 0 0 0 -2,-2 L 7.5,5.5 a 2,2 0 0 0 -2,2 l 0,33 a 2,2 0 0 0 2,2 l 32.9999,0 a 2,2 0 0 0 2,-2"
     id="path38"
     style="fill:url(#linearGradient3157-5);stroke:#66420d;stroke-linecap:round;stroke-linejoin:round"
     inkscape:connector-curvature="0" />
  <path
     d="m7.5-41.5h33a1,1 0 0,1 1,1v33a1,1 0 0,1 -1,1h-33a1,1 0 0,1 -1-1v-33a1,1 0 0,1 1-1"
     fill="none"
     stroke="url(#linearGradient998)"
     stroke-linecap="round"
     stroke-linejoin="round"
     transform="matrix(0,1,-1,0,0,0)"
     id="path40" />
  <path
     d="m-40,10h1v11h-1z"
     fill="#8c5911"
     transform="matrix(0,-1,1,0,0,0)"
     id="path46" />
  <path
     d="m12,33v1h-1v1h-1v1h2v3h1v-3h2v-1h-1v-1h-1v-1z"
     fill="#8c5911"
     id="path48" />
  <path
     d="m18,33v1h-1v1h-1v1h2v3h1v-3h2v-1h-1v-1h-1v-1z"
     fill="#8c5911"
     id="path50" />
  <path
     d="M 24.120202,7.0630298 C 23.57976,13.255456 18.378694,18.135099 12.088399,18.135099 c -1.812783,0 -3.5213433,-0.428873 -5.0631516,-1.151056 L 7,22.998875 C 8.8864848,23.660877 9.9737213,24 12.088399,24 c 1.657473,0 3.267657,-0.233387 4.790944,-0.657752 0.26924,-1.66697 1.318596,-3.144877 2.885454,-4.056102 C 21.331656,18.37492 23.151994,18.30616 24.719069,18.90246 27.766955,15.885204 29.711361,11.60764 30,7.03634 z"
     id="path3035"
     style="fill:white"
     inkscape:connector-curvature="0" />
  <path
     d="m 22.069706,20.024155 c -0.453262,0.05582 -0.880294,0.266178 -1.300729,0.507047 -1.68231,0.963658 -2.27153,3.079252 -1.300729,4.747805 0.9708,1.668553 3.148972,2.208231 4.831282,1.244574 1.68231,-0.963658 2.178986,-3.032601 1.207816,-4.701714 -0.728239,-1.251419 -2.077853,-1.965107 -3.43764,-1.797712 z"
     id="path52"
     style="fill:white"
     inkscape:connector-curvature="0" />
  <rect
     style="color:#000000;fill:url(#linearGradient3881);fill-opacity:1;fill-rule:nonzero;stroke:none;stroke-width:1;marker:none;visibility:visible;display:inline;overflow:visible;enable-background:accumulate"
     id="rect3010"
     width="20"
     height="20"
     x="28"
     y="28"
     ry="2.5" />
  <path
     inkscape:connector-curvature="0"
     style="opacity:0.7;color:#000000;fill:url(#linearGradient3872-08-1-9-8-5);fill-opacity:1;fill-rule:nonzero;stroke:none;stroke-width:1;marker:none;visibility:visible;display:inline;overflow:visible;enable-background:accumulate"
     d="m 34,31 -2,2 0,7 2,2 7,0 3,3 1,0 1,-1 0,-1 -3,-3 0,-7 -2,-2 z m 1,2 5,0 1,1 0,5 -1,1 -5,0 -1,-1 0,-5 z"
     id="path2986"
     sodipodi:nodetypes="cccccccccccccccccccccc" />
  <path
     id="path3051"
     d="m 34,32 -2,2 0,7 2,2 7,0 3,3 1,0 1,-1 0,-1 -3,-3 0,-7 -2,-2 z m 1,2 5,0 1,1 0,5 -1,1 -5,0 -1,-1 0,-5 z"
     style="opacity:0.9;color:#000000;fill:#ffffff;fill-opacity:1;fill-rule:nonzero;stroke:none;stroke-width:1;marker:none;visibility:visible;display:inline;overflow:visible;enable-background:accumulate"
     inkscape:connector-curvature="0"
     sodipodi:nodetypes="cccccccccccccccccccccc" />
</svg>
