<?xml version="1.0" encoding="UTF-8" standalone="no"?>
<svg
   xmlns:dc="http://purl.org/dc/elements/1.1/"
   xmlns:cc="http://creativecommons.org/ns#"
   xmlns:rdf="http://www.w3.org/1999/02/22-rdf-syntax-ns#"
   xmlns:svg="http://www.w3.org/2000/svg"
   xmlns="http://www.w3.org/2000/svg"
   xmlns:sodipodi="http://sodipodi.sourceforge.net/DTD/sodipodi-0.dtd"
   xmlns:inkscape="http://www.inkscape.org/namespaces/inkscape"
   viewBox="0 0 16 16"
   id="svg3220"
   version="1.1"
   inkscape:version="0.48.3.1 r9886"
   width="100%"
   height="100%"
   sodipodi:docname="tab-new.svg">
  <metadata
     id="metadata3237">
    <rdf:RDF>
      <cc:Work
         rdf:about="">
        <dc:format>image/svg+xml</dc:format>
        <dc:type
           rdf:resource="http://purl.org/dc/dcmitype/StillImage" />
      </cc:Work>
    </rdf:RDF>
  </metadata>
  <sodipodi:namedview
     pagecolor="#ffffff"
     bordercolor="#666666"
     borderopacity="1"
     objecttolerance="10"
     gridtolerance="10"
     guidetolerance="10"
     inkscape:pageopacity="0"
     inkscape:pageshadow="2"
     inkscape:window-width="640"
     inkscape:window-height="480"
     id="namedview3235"
     showgrid="false"
     inkscape:zoom="14.75"
     inkscape:cx="8"
     inkscape:cy="8.2033898"
     inkscape:window-x="0"
     inkscape:window-y="24"
     inkscape:window-maximized="0"
     inkscape:current-layer="svg3220" />
  <defs
     id="defs3222">
    <linearGradient
       gradientUnits="userSpaceOnUse"
       id="linearGradient1022-2-3"
       x2="0"
       y1="-3.43033"
       y2="5.73244">
      <stop
         offset="0"
         id="stop3225" />
      <stop
         offset="1"
         stop-color="#363636"
         id="stop3227" />
    </linearGradient>
  </defs>
  <title
     id="title3229">Gnome Symbolic Icon Theme</title>
  <path
     d="m2.28571,1.51089c-1.00981,0-2.28571,1.26503-2.28571,2.28571v11.42857h2.28571v-10.0854c0-1.42131 1.16124-1.34317 1.16124-1.34317h9.29963c0,0 .9677-.07783.9677,1.14963v10.27894h2.28571v-11.42857c0-1.02073-1.27588-2.28571-2.28571-2.28571zm4.57143,4.57143v2.28571h-2.28571v2.28571h2.28571v2.28572h2.28571v-2.28572h2.28571v-2.28571h-2.28571v-2.28571z"
     fill="#fff"
     opacity=".6"
     id="path3231" />
  <path
     d="M 2.28571,0 C 1.2759,0 0,1.26503 0,2.28571 V 13.71428 H 2.28571 V 3.62888 c 0,-1.42131 1.16124,-1.34317 1.16124,-1.34317 h 9.29963 c 0,0 0.9677,-0.07782 0.9677,1.14963 v 10.27894 h 2.28571 V 2.28571 C 15.99999,1.26498 14.72411,0 13.71428,0 z M 6.85714,4.57143 V 6.85714 H 4.57143 v 2.28571 h 2.28571 v 2.28572 H 9.14285 V 9.14285 h 2.28571 V 6.85714 H 9.14285 V 4.57143 z"
     id="path3233"
     style="opacity:0.7;fill:url(#linearGradient1022-2-3)"
     inkscape:connector-curvature="0" />
</svg>
