<?xml version="1.0" encoding="UTF-8" standalone="no"?>
<!-- Created with Inkscape (http://www.inkscape.org/) -->

<svg xmlns:dc="http://purl.org/dc/elements/1.1/" xmlns:cc="http://creativecommons.org/ns#" xmlns:rdf="http://www.w3.org/1999/02/22-rdf-syntax-ns#" xmlns:svg="http://www.w3.org/2000/svg" xmlns="http://www.w3.org/2000/svg" xmlns:xlink="http://www.w3.org/1999/xlink" xmlns:sodipodi="http://sodipodi.sourceforge.net/DTD/sodipodi-0.dtd" xmlns:inkscape="http://www.inkscape.org/namespaces/inkscape" width="16" height="16" id="svg6662" version="1.1" inkscape:version="0.48.4 r9939" sodipodi:docname="application-exit.svg">
  <defs id="defs6664">
    <linearGradient gradientUnits="userSpaceOnUse" id="linearGradient1022-8-8-3-0-06-5-6" x2="0" y1="3.0069399" y2="11.02436">
      <stop offset="0" id="stop3001-0-9-4-9-35" />
      <stop offset="1" stop-color="#363636" id="stop3003-5-6-6-5-90" />
    </linearGradient>
    <linearGradient inkscape:collect="always" xlink:href="#linearGradient1022-8-8-3-0-06-5-6" id="linearGradient3714" gradientUnits="userSpaceOnUse" gradientTransform="matrix(1.119994,0,0,1.0064811,-230.98336,-6.598)" x1="213.37915" y1="7.5490737" x2="213.37915" y2="21.458923" />
    <linearGradient y2="-296.74643" x2="122.0096" y1="-286.81082" x1="122.0096" gradientTransform="matrix(1.679991,0,0,-1.5097216,-196.97503,-433.0045)" gradientUnits="userSpaceOnUse" id="linearGradient3011" xlink:href="#linearGradient1022-8-8-3-0-2-99-1" inkscape:collect="always" />
    <linearGradient y2="11.02436" y1="3.0069399" x2="0" id="linearGradient1022-8-8-3-0-2-99-1" gradientUnits="userSpaceOnUse">
      <stop id="stop3001-0-9-4-1-0-5" offset="0" />
      <stop id="stop3003-5-6-6-1-3-0" stop-color="#363636" offset="1" />
    </linearGradient>
    <linearGradient inkscape:collect="always" xlink:href="#linearGradient1022-8-8-3-0-2-99-1" id="linearGradient3018" gradientUnits="userSpaceOnUse" gradientTransform="matrix(1.679991,0,0,-1.5097216,-178.97503,604.3577)" x1="122.0096" y1="-286.81082" x2="122.0096" y2="-296.74643" />
    <linearGradient inkscape:collect="always" xlink:href="#linearGradient1022-8-8-3-0-06-5-6" id="linearGradient3025" gradientUnits="userSpaceOnUse" gradientTransform="matrix(1.119994,0,0,1.0064811,-230.98336,-1042.9602)" x1="213.37915" y1="7.5490737" x2="213.37915" y2="21.458923" />
    <linearGradient inkscape:collect="always" xlink:href="#linearGradient1022-8-8-3-0-2-99-1" id="linearGradient3033" gradientUnits="userSpaceOnUse" gradientTransform="matrix(0,-1.679991,-1.5097216,0,-427.00448,1249.3372)" x1="122.0096" y1="-286.81082" x2="122.0096" y2="-296.74643" />
    <linearGradient inkscape:collect="always" xlink:href="#linearGradient1022-8-8-3-0-2-99-1" id="linearGradient3035" gradientUnits="userSpaceOnUse" gradientTransform="matrix(0,-1.679991,-1.5097216,0,-427.00448,212.975)" x1="122.0096" y1="-286.81082" x2="122.0096" y2="-296.74643" />
    <linearGradient inkscape:collect="always" xlink:href="#linearGradient1022-8-8-3-0-2-99-1" id="linearGradient3038" gradientUnits="userSpaceOnUse" gradientTransform="matrix(0,-1.679991,-1.5097216,0,-427.00448,212.975)" x1="122.0096" y1="-286.81082" x2="122.0096" y2="-296.74643" />
    <linearGradient inkscape:collect="always" xlink:href="#linearGradient1022-8-8-3-0-06-5-6" id="linearGradient3042" gradientUnits="userSpaceOnUse" gradientTransform="matrix(1.119994,0,0,1.0064811,-230.98336,-6.598)" x1="213.37915" y1="1037.2378" x2="213.37915" y2="1051.1476" />
  </defs>
  <sodipodi:namedview id="base" pagecolor="#ffffff" bordercolor="#666666" borderopacity="1.0" inkscape:pageopacity="0.0" inkscape:pageshadow="2" inkscape:zoom="22.4" inkscape:cx="9.3529302" inkscape:cy="7.7873363" inkscape:document-units="px" inkscape:current-layer="capa1" showgrid="true" inkscape:showpageshadow="false" inkscape:window-width="1280" inkscape:window-height="976" inkscape:window-x="0" inkscape:window-y="24" inkscape:window-maximized="1" inkscape:snap-bbox="true">
    <inkscape:grid type="xygrid" id="grid3199" empspacing="5" visible="true" enabled="true" snapvisiblegridlinesonly="true" />
  </sodipodi:namedview>
  <metadata id="metadata6667">
    <rdf:RDF>
      <cc:Work rdf:about="">
        <dc:format>image/svg+xml</dc:format>
        <dc:type rdf:resource="http://purl.org/dc/dcmitype/StillImage" />
        <dc:title />
      </cc:Work>
    </rdf:RDF>
  </metadata>
  <g inkscape:label="Capa 1" inkscape:groupmode="layer" id="capa1" transform="translate(0,-1036.3622)">
    <path id="path3044" d="m 3,1038.3622 -2,2 0,10 2,2 8,0 2,-2 0,-1 -2,0 -1,1 -6,0 -1,-1 0,-8 1,-1 6,0 1,1 2,0 0,-1 -2,-2 -8,0 z m 7,4 3,3 -3,3 3,0 3,-3 -3,-3 -3,0 z m -3,2 0,2 4,0 1,-1 -1,-1 -4,0 z" style="opacity:0.59999999999999998;color:black;fill:white;fill-opacity:1;fill-rule:nonzero;stroke:none;stroke-width:1;marker:none;visibility:visible;display:inline;overflow:visible;enable-background:accumulate" inkscape:connector-curvature="0" />
    <path style="opacity:0.7;color:black;fill:url(#linearGradient3042);fill-opacity:1;fill-rule:nonzero;stroke:none;stroke-width:1;marker:none;visibility:visible;display:inline;overflow:visible;enable-background:accumulate" d="m 3,1037.3622 -2,2 0,10 2,2 8,0 2,-2 0,-1 -2,0 -1,1 -6,0 -1,-1 0,-8 1,-1 6,0 1,1 2,0 0,-1 -2,-2 -8,0 z m 7,4 3,3 -3,3 3,0 3,-3 -3,-3 -3,0 z m -3,2 0,2 4,0 1,-1 -1,-1 -4,0 z" id="path3023" inkscape:connector-curvature="0" />
  </g>
</svg>
