<?xml version="1.0" encoding="UTF-8" standalone="no"?>
<!-- Created with Inkscape (http://www.inkscape.org/) -->

<svg
   xmlns:dc="http://purl.org/dc/elements/1.1/"
   xmlns:cc="http://creativecommons.org/ns#"
   xmlns:rdf="http://www.w3.org/1999/02/22-rdf-syntax-ns#"
   xmlns:svg="http://www.w3.org/2000/svg"
   xmlns="http://www.w3.org/2000/svg"
   xmlns:xlink="http://www.w3.org/1999/xlink"
   xmlns:sodipodi="http://sodipodi.sourceforge.net/DTD/sodipodi-0.dtd"
   xmlns:inkscape="http://www.inkscape.org/namespaces/inkscape"
   width="16"
   height="16"
   id="svg3330"
   version="1.1"
   inkscape:version="0.48.3.1 r9886"
   sodipodi:docname="document-properties.svg">
  <defs
     id="defs3332">
    <linearGradient
       y2="11.02436"
       y1="3.0069399"
       x2="0"
       id="linearGradient1022-8-8-3-0-06-5"
       gradientUnits="userSpaceOnUse">
      <stop
         id="stop3001-0-9-4-9-35"
         offset="0" />
      <stop
         id="stop3003-5-6-6-5-90"
         stop-color="#363636"
         offset="1" />
    </linearGradient>
    <linearGradient
       inkscape:collect="always"
       xlink:href="#linearGradient1022-8-8-3-0-06-5"
       id="linearGradient3269"
       gradientUnits="userSpaceOnUse"
       gradientTransform="matrix(1.119994,0,0,1.0064811,-231.98336,-7.598)"
       x1="214.272"
       y1="8.542634"
       x2="214.272"
       y2="21.458923" />
  </defs>
  <sodipodi:namedview
     id="base"
     pagecolor="#ffffff"
     bordercolor="#666666"
     borderopacity="1.0"
     inkscape:pageopacity="0.0"
     inkscape:pageshadow="2"
     inkscape:zoom="15.839192"
     inkscape:cx="7.9921224"
     inkscape:cy="8.4506029"
     inkscape:document-units="px"
     inkscape:current-layer="capa1"
     showgrid="true"
     inkscape:showpageshadow="false"
     inkscape:window-width="796"
     inkscape:window-height="793"
     inkscape:window-x="173"
     inkscape:window-y="116"
     inkscape:window-maximized="0">
    <inkscape:grid
       type="xygrid"
       id="grid3210" />
  </sodipodi:namedview>
  <metadata
     id="metadata3335">
    <rdf:RDF>
      <cc:Work
         rdf:about="">
        <dc:format>image/svg+xml</dc:format>
        <dc:type
           rdf:resource="http://purl.org/dc/dcmitype/StillImage" />
        <dc:title />
      </cc:Work>
    </rdf:RDF>
  </metadata>
  <g
     inkscape:label="Capa 1"
     inkscape:groupmode="layer"
     id="capa1"
     transform="translate(0,-1036.3622)">
    <rect
       y="1036.3622"
       x="0"
       height="16"
       width="16"
       id="rect3123"
       style="opacity:0.6;color:#000000;fill:none;stroke:none;stroke-width:1;marker:none;visibility:visible;display:inline;overflow:visible;enable-background:accumulate" />
    <path
       id="path3241"
       d="m 4,1038.3622 -2,2 0,9 2,2 7,0 2,-2 0,-1 0,-8 -2,-2 -7,0 z m 1,2 5,0 1,1 0,7 -1,1 -5,0 -1,-1 0,-7 1,-1 z m 2,2 0,1 -1,0 0,1 -1,0 0,1 1,0 0,1 1,0 0,1 1,0 0,-1 1,0 0,-1 1,0 0,-1 -1,0 0,-1 -1,0 0,-1 -1,0 z m 0,2 1,0 0,1 -1,0 0,-1 z"
       style="opacity:0.6;color:#000000;fill:#ffffff;fill-opacity:1;fill-rule:nonzero;stroke:none;stroke-width:1;marker:none;visibility:visible;display:inline;overflow:visible;enable-background:accumulate"
       inkscape:connector-curvature="0" />
    <path
       style="opacity:0.69999999999999996;color:#000000;fill:url(#linearGradient3269);fill-opacity:1;fill-rule:nonzero;stroke:none;stroke-width:1;marker:none;visibility:visible;display:inline;overflow:visible;enable-background:accumulate"
       d="M 4 1 L 2 3 L 2 12 L 4 14 L 11 14 L 13 12 L 13 11 L 13 3 L 11 1 L 4 1 z M 5 3 L 10 3 L 11 4 L 11 11 L 10 12 L 5 12 L 4 11 L 4 4 L 5 3 z M 7 5 L 7 6 L 6 6 L 6 7 L 5 7 L 5 8 L 6 8 L 6 9 L 7 9 L 7 10 L 8 10 L 8 9 L 9 9 L 9 8 L 10 8 L 10 7 L 9 7 L 9 6 L 8 6 L 8 5 L 7 5 z M 7 7 L 8 7 L 8 8 L 7 8 L 7 7 z "
       transform="translate(0,1036.3622)"
       id="path3219" />
  </g>
</svg>
