<?xml version="1.0" encoding="UTF-8" standalone="no"?>
<svg
   xmlns:dc="http://purl.org/dc/elements/1.1/"
   xmlns:cc="http://creativecommons.org/ns#"
   xmlns:rdf="http://www.w3.org/1999/02/22-rdf-syntax-ns#"
   xmlns:svg="http://www.w3.org/2000/svg"
   xmlns="http://www.w3.org/2000/svg"
   xmlns:xlink="http://www.w3.org/1999/xlink"
   xmlns:sodipodi="http://sodipodi.sourceforge.net/DTD/sodipodi-0.dtd"
   xmlns:inkscape="http://www.inkscape.org/namespaces/inkscape"
   viewBox="0 0 16 16"
   id="svg3166"
   version="1.1"
   inkscape:version="0.48.3.1 r9886"
   width="100%"
   height="100%"
   sodipodi:docname="edit-find-replace.svg">
  <metadata
     id="metadata3176">
    <rdf:RDF>
      <cc:Work
         rdf:about="">
        <dc:format>image/svg+xml</dc:format>
        <dc:type
           rdf:resource="http://purl.org/dc/dcmitype/StillImage" />
      </cc:Work>
    </rdf:RDF>
  </metadata>
  <defs
     id="defs3174">
    <linearGradient
       y2="8.08321"
       x2="0"
       y1="-.06157"
       gradientTransform="matrix(0,1.052632,0.984363,0,0.107648,40.708136)"
       gradientUnits="userSpaceOnUse"
       id="linearGradient2997"
       xlink:href="#linearGradient1022-7"
       inkscape:collect="always" />
    <linearGradient
       y2="8.08321"
       y1="-.06157"
       x2="0"
       id="linearGradient1022-7"
       gradientUnits="userSpaceOnUse"
       gradientTransform="matrix(0,1.052632,0.984363,0,3.067548,39.665556)">
      <stop
         id="stop7"
         offset="0" />
      <stop
         id="stop9"
         stop-color="#363636"
         offset="1" />
    </linearGradient>
    <linearGradient
       inkscape:collect="always"
       xlink:href="#linearGradient1022-7"
       id="linearGradient4055"
       gradientUnits="userSpaceOnUse"
       gradientTransform="matrix(0,1.052632,0.984363,0,0.036298,40.739386)"
       y1="-.06157"
       x2="0"
       y2="8.08321" />
    <linearGradient
       inkscape:collect="always"
       xlink:href="#linearGradient1022-7-1"
       id="linearGradient4055-8"
       gradientUnits="userSpaceOnUse"
       gradientTransform="matrix(0,1.052632,0.984363,0,0.036298,40.739386)"
       y1="-0.06157"
       x2="0"
       y2="8.08321" />
    <linearGradient
       y2="8.08321"
       y1="-0.06157"
       x2="0"
       id="linearGradient1022-7-1"
       gradientUnits="userSpaceOnUse"
       gradientTransform="matrix(0,1.052632,0.984363,0,3.067548,39.665556)">
      <stop
         id="stop7-9"
         offset="0" />
      <stop
         id="stop9-0"
         stop-color="#363636"
         offset="1" />
    </linearGradient>
    <linearGradient
       y2="8.08321"
       x2="0"
       y1="-0.06157"
       gradientTransform="matrix(0,1.052632,0.984363,0,-0.568992,39.395149)"
       gradientUnits="userSpaceOnUse"
       id="linearGradient4073"
       xlink:href="#linearGradient1022-7-1"
       inkscape:collect="always" />
    <linearGradient
       inkscape:collect="always"
       xlink:href="#linearGradient1022-7-1-6"
       id="linearGradient4055-8-7"
       gradientUnits="userSpaceOnUse"
       gradientTransform="matrix(0,1.052632,0.984363,0,0.036298,40.739386)"
       y1="-0.06157"
       x2="0"
       y2="8.08321" />
    <linearGradient
       y2="8.08321"
       y1="-0.06157"
       x2="0"
       id="linearGradient1022-7-1-6"
       gradientUnits="userSpaceOnUse"
       gradientTransform="matrix(0,1.052632,0.984363,0,3.067548,39.665556)">
      <stop
         id="stop7-9-3"
         offset="0" />
      <stop
         id="stop9-0-2"
         stop-color="#363636"
         offset="1" />
    </linearGradient>
    <linearGradient
       y2="8.08321"
       x2="0"
       y1="-0.06157"
       gradientTransform="matrix(0,1.052632,0.984363,0,-0.963702,40.739386)"
       gradientUnits="userSpaceOnUse"
       id="linearGradient3011"
       xlink:href="#linearGradient1022-7-1-6"
       inkscape:collect="always" />
    <linearGradient
       inkscape:collect="always"
       xlink:href="#linearGradient1022-7-1-6"
       id="linearGradient3031"
       gradientUnits="userSpaceOnUse"
       gradientTransform="matrix(0,1.052632,0.984363,0,0.036298,40.739386)"
       y1="-0.06157"
       x2="0"
       y2="8.08321" />
    <linearGradient
       inkscape:collect="always"
       xlink:href="#linearGradient1022-7-1-6"
       id="linearGradient3035"
       gradientUnits="userSpaceOnUse"
       gradientTransform="matrix(0,1.052632,0.984363,0,0.036298,40.739386)"
       y1="-0.06157"
       x2="0"
       y2="8.08321" />
    <linearGradient
       inkscape:collect="always"
       xlink:href="#linearGradient1022-7-1-69"
       id="linearGradient4055-8-5"
       gradientUnits="userSpaceOnUse"
       gradientTransform="matrix(0,1.052632,0.984363,0,0.036298,40.738753)"
       y1="-0.06157"
       x2="0"
       y2="8.08321" />
    <linearGradient
       y2="8.08321"
       y1="-0.06157"
       x2="0"
       id="linearGradient1022-7-1-69"
       gradientUnits="userSpaceOnUse"
       gradientTransform="matrix(0,1.052632,0.984363,0,3.067548,39.665556)">
      <stop
         id="stop7-9-7"
         offset="0" />
      <stop
         id="stop9-0-3"
         stop-color="#363636"
         offset="1" />
    </linearGradient>
    <linearGradient
       y2="8.08321"
       x2="0"
       y1="-0.06157"
       gradientTransform="matrix(0,1.052632,0.984363,0,-0.963702,40.739386)"
       gradientUnits="userSpaceOnUse"
       id="linearGradient3011-7"
       xlink:href="#linearGradient1022-7-1-69"
       inkscape:collect="always" />
  </defs>
  <sodipodi:namedview
     pagecolor="#ffffff"
     bordercolor="#666666"
     borderopacity="1"
     objecttolerance="10"
     gridtolerance="10"
     guidetolerance="10"
     inkscape:pageopacity="0"
     inkscape:pageshadow="2"
     inkscape:window-width="800"
     inkscape:window-height="724"
     id="namedview3172"
     showgrid="true"
     inkscape:zoom="29.5"
     inkscape:cx="10.983051"
     inkscape:cy="8.8207351"
     inkscape:window-x="269"
     inkscape:window-y="96"
     inkscape:window-maximized="0"
     inkscape:current-layer="svg3166">
    <inkscape:grid
       type="xygrid"
       id="grid4026" />
  </sodipodi:namedview>
  <path
     id="path3054"
     d="m 5.9998742,0.9993674 c -2.7501749,0 -4.9998742,2.249756 -4.9998742,5 0,2.750244 2.2496994,4.9999996 4.9998742,4.9999996 0.8796843,0 1.686162,-0.253136 2.4061895,-0.65625 l 5.2186183,5.5 c 0.09497,0.10582 0.257384,0.16365 0.40624,0.15625 0.148856,-0.0074 0.271163,-0.07179 0.374991,-0.1875 l 0.968725,-1.0625 c 0.193215,-0.21977 0.194415,-0.5348 0,-0.71875 L 10.031023,8.9056174 c 0.601182,-0.8252405 0.968725,-1.8129153 0.968725,-2.90625 0,-2.750244 -2.2496989,-5 -4.9998738,-5 z m 0,1.875 c 1.7302124,0 3.1249214,1.394744 3.1249214,3.125 0,1.730256 -1.3947089,3.125 -3.1249214,3.125 -1.7302125,0 -3.1249214,-1.394744 -3.1249214,-3.125 0,-1.730256 1.394709,-3.125 3.1249214,-3.125 z M 1.9999748,12.999367 C 1.447704,12.999367 1,13.447082 1,13.999367 c 0,0.552285 0.447704,1 0.9999748,1 0.5522708,0 0.9999749,-0.447715 0.9999749,-1 0,-0.552285 -0.4477041,-1 -0.9999749,-1 z m 2.9999246,0 c -0.5522708,0 -0.9999749,0.447715 -0.9999749,1 0,0.552285 0.4477041,1 0.9999749,1 0.5522708,0 0.9999748,-0.447715 0.9999748,-1 0,-0.552285 -0.447704,-1 -0.9999748,-1 z m 2.9999245,0 c -0.5522708,0 -0.9999749,0.447715 -0.9999749,1 0,0.552285 0.4477041,1 0.9999749,1 0.5522708,0 0.9999748,-0.447715 0.9999748,-1 0,-0.552285 -0.447704,-1 -0.9999748,-1 z"
     style="opacity:0.6;color:#000000;fill:#ffffff;fill-opacity:1;fill-rule:evenodd;stroke-width:1;stroke-linecap:butt;stroke-linejoin:miter;stroke-miterlimit:4;stroke-opacity:1;stroke-dasharray:none;stroke-dashoffset:0;marker:none;visibility:visible;display:inline;overflow:visible;enable-background:accumulate"
     inkscape:connector-curvature="0" />
  <path
     style="opacity:0.7;color:#000000;fill:url(#linearGradient4055-8-5);fill-opacity:1;fill-rule:nonzero;stroke-width:1;stroke-linecap:butt;stroke-linejoin:miter;stroke-miterlimit:4;stroke-opacity:1;stroke-dasharray:none;stroke-dashoffset:0;marker:none;visibility:visible;display:inline;overflow:visible;enable-background:accumulate"
     d="m 6,-6.3280049e-4 c -2.7502441,0 -5,2.24975600049 -5,5.00000000049 0,2.750244 2.249756,5 5,5 0.8797064,0 1.6862044,-0.2531365 2.40625,-0.65625 L 13.625,14.843117 c 0.09497,0.10582 0.25739,0.16365 0.40625,0.15625 0.14886,-0.0074 0.27117,-0.07179 0.375,-0.1875 l 0.96875,-1.0625 c 0.19322,-0.21977 0.19442,-0.5348 0,-0.71875 L 10.03125,7.9056172 C 10.632447,7.0803767 11,6.0927019 11,4.9993672 11,2.2491232 8.7502441,-6.3280049e-4 6,-6.3280049e-4 z M 6,1.8743672 c 1.7302559,0 3.125,1.394744 3.125,3.125 0,1.730256 -1.394744,3.125 -3.125,3.125 -1.730256,0 -3.125,-1.394744 -3.125,-3.125 0,-1.730256 1.3947441,-3.125 3.125,-3.125 z M 2,11.999367 c -0.5522847,0 -1,0.447715 -1,1 0,0.552285 0.4477153,1 1,1 0.5522847,0 1,-0.447715 1,-1 0,-0.552285 -0.4477153,-1 -1,-1 z m 3,0 c -0.5522847,0 -1,0.447715 -1,1 0,0.552285 0.4477153,1 1,1 0.5522847,0 1,-0.447715 1,-1 0,-0.552285 -0.4477153,-1 -1,-1 z m 3,0 c -0.5522847,0 -1,0.447715 -1,1 0,0.552285 0.4477153,1 1,1 0.5522847,0 1,-0.447715 1,-1 0,-0.552285 -0.4477153,-1 -1,-1 z"
     id="path3168"
     inkscape:connector-curvature="0" />
</svg>
