<?xml version="1.0" encoding="UTF-8" standalone="no"?>
<!-- Created with Inkscape (http://www.inkscape.org/) -->

<svg xmlns:dc="http://purl.org/dc/elements/1.1/" xmlns:cc="http://creativecommons.org/ns#" xmlns:rdf="http://www.w3.org/1999/02/22-rdf-syntax-ns#" xmlns:svg="http://www.w3.org/2000/svg" xmlns="http://www.w3.org/2000/svg" xmlns:xlink="http://www.w3.org/1999/xlink" xmlns:sodipodi="http://sodipodi.sourceforge.net/DTD/sodipodi-0.dtd" xmlns:inkscape="http://www.inkscape.org/namespaces/inkscape" width="16" height="16" id="svg3330" version="1.1" inkscape:version="0.48.4 r9939" sodipodi:docname="edit-paste.svg">
  <defs id="defs3332">
    <linearGradient y2="11.02436" y1="3.0069399" x2="0" id="linearGradient1022-8-8-3-0-2-12" gradientUnits="userSpaceOnUse">
      <stop id="stop3001-0-9-4-1-4" offset="0" />
      <stop id="stop3003-5-6-6-1-51" stop-color="#363636" offset="1" />
    </linearGradient>
    <linearGradient y2="23.447037" x2="214.27202" y1="8.5436277" x1="214.27202" gradientTransform="matrix(1.119994,0,0,1.0064811,-233.98337,-8.599)" gradientUnits="userSpaceOnUse" id="linearGradient3574" xlink:href="#linearGradient1022-8-8-3-0-2-12" inkscape:collect="always" />
    <linearGradient inkscape:collect="always" xlink:href="#linearGradient1022-8-8-3-0-2-57" id="linearGradient4033" gradientUnits="userSpaceOnUse" gradientTransform="matrix(1.119994,0,0,1.0064811,66.016638,59.49574)" x1="-2.5488417" y1="8.4068613" x2="-2.5488417" y2="19.975889" />
    <linearGradient gradientUnits="userSpaceOnUse" id="linearGradient1022-8-8-3-0-2-57" x2="0" y1="3.0069399" y2="11.02436">
      <stop offset="0" id="stop3001-0-9-4-1-29" />
      <stop offset="1" stop-color="#363636" id="stop3003-5-6-6-1-6" />
    </linearGradient>
    <linearGradient inkscape:collect="always" xlink:href="#linearGradient1022-8-8-3-0-2-12" id="linearGradient3018" gradientUnits="userSpaceOnUse" gradientTransform="matrix(1.119994,0,0,1.0064811,-233.98337,-8.599)" x1="214.27202" y1="8.5436277" x2="214.27202" y2="23.447037" />
    <linearGradient inkscape:collect="always" xlink:href="#linearGradient1022-8-8-3-0-2-57" id="linearGradient3026" gradientUnits="userSpaceOnUse" gradientTransform="matrix(1.119994,0,0,1.0064811,66.016638,59.49574)" x1="-2.5488417" y1="8.4068613" x2="-2.5488417" y2="19.975889" />
    <linearGradient inkscape:collect="always" xlink:href="#linearGradient1022-8-8-3-0-2-57" id="linearGradient3029" gradientUnits="userSpaceOnUse" gradientTransform="matrix(1.119994,0,0,1.0064811,-249.98336,1031.7635)" x1="-2.5488417" y1="8.4068613" x2="-2.5488417" y2="19.975889" />
    <linearGradient inkscape:collect="always" xlink:href="#linearGradient1022-8-8-3-0-2-57" id="linearGradient3039" gradientUnits="userSpaceOnUse" gradientTransform="matrix(1.119994,0,0,1.0064811,-268.98336,1027.7642)" x1="-2.5488417" y1="8.4068613" x2="-2.5488417" y2="19.975889" />
    <linearGradient inkscape:collect="always" xlink:href="#linearGradient1022-8-8-3-0-2-12" id="linearGradient3042" gradientUnits="userSpaceOnUse" gradientTransform="matrix(1.119994,0,0,1.0064811,-233.98337,-8.599)" x1="214.27202" y1="9.5371885" x2="214.27202" y2="23.447037" />
  </defs>
  <sodipodi:namedview id="base" pagecolor="#ffffff" bordercolor="#666666" borderopacity="1.0" inkscape:pageopacity="0.0" inkscape:pageshadow="2" inkscape:zoom="25.000001" inkscape:cx="10.602153" inkscape:cy="8.6008326" inkscape:document-units="px" inkscape:current-layer="capa1" showgrid="true" inkscape:showpageshadow="false" inkscape:window-width="1280" inkscape:window-height="976" inkscape:window-x="0" inkscape:window-y="24" inkscape:window-maximized="1" inkscape:snap-page="true" inkscape:snap-center="true" inkscape:snap-object-midpoints="true">
    <inkscape:grid type="xygrid" id="grid2990" />
  </sodipodi:namedview>
  <metadata id="metadata3335">
    <rdf:RDF>
      <cc:Work rdf:about="">
        <dc:format>image/svg+xml</dc:format>
        <dc:type rdf:resource="http://purl.org/dc/dcmitype/StillImage" />
        <dc:title></dc:title>
      </cc:Work>
    </rdf:RDF>
  </metadata>
  <g inkscape:label="Capa 1" inkscape:groupmode="layer" id="capa1" transform="translate(0,-1036.3622)">
    <g id="g3065">
      <rect y="1036.3622" x="0" height="16" width="16" id="rect3278" style="opacity:0.6;color:black;fill:none;stroke:none;stroke-width:1;marker:none;visibility:visible;display:inline;overflow:visible;enable-background:accumulate" />
      <path inkscape:connector-curvature="0" style="opacity:0.59999999999999998;color:black;fill:white;fill-opacity:1;fill-rule:nonzero;stroke:none;stroke-width:1;marker:none;visibility:visible;display:inline;overflow:visible;enable-background:accumulate" d="m 3,1038.3622 -1,1 0,12 1,1 10,0 1,-1 0,-12 -1,-1 -10,0 z m 1,2 8,0 0,10 -8,0 0,-10 z m 1,2 0,1 2,2 -2,2 0,1 1,0 2,-2 2,2 1,0 0,-1 -2,-2 2,-2 0,-1 -1,0 -2,2 -2,-2 -1,0 z" id="path3044" />
      <path id="path3282" transform="translate(0,1036.3622)" d="M 3 1 L 2 2 L 2 14 L 3 15 L 13 15 L 14 14 L 14 2 L 13 1 L 3 1 z M 4 3 L 12 3 L 12 13 L 4 13 L 4 3 z M 5 5 L 5 6 L 7 8 L 5 10 L 5 11 L 6 11 L 8 9 L 10 11 L 11 11 L 11 10 L 9 8 L 11 6 L 11 5 L 10 5 L 8 7 L 6 5 L 5 5 z " style="opacity:0.69999999999999996;color:black;fill:url(#linearGradient3042);fill-opacity:1;fill-rule:nonzero;stroke:none;stroke-width:1;marker:none;visibility:visible;display:inline;overflow:visible;enable-background:accumulate" />
    </g>
  </g>
</svg>
