<?xml version="1.0" encoding="UTF-8" standalone="no"?>
<!-- Created with Inkscape (http://www.inkscape.org/) -->

<svg
   xmlns:dc="http://purl.org/dc/elements/1.1/"
   xmlns:cc="http://creativecommons.org/ns#"
   xmlns:rdf="http://www.w3.org/1999/02/22-rdf-syntax-ns#"
   xmlns:svg="http://www.w3.org/2000/svg"
   xmlns="http://www.w3.org/2000/svg"
   xmlns:xlink="http://www.w3.org/1999/xlink"
   xmlns:sodipodi="http://sodipodi.sourceforge.net/DTD/sodipodi-0.dtd"
   xmlns:inkscape="http://www.inkscape.org/namespaces/inkscape"
   id="svg7384"
   height="16"
   width="16"
   version="1.1"
   inkscape:version="0.48.3.1 r9886"
   sodipodi:docname="edit-delete.svg">
  <defs
     id="defs9">
    <linearGradient
       gradientTransform="matrix(1.066661,0,0,1.047469,-3.73327,-4.189876)"
       y2="11.02436"
       x2="0"
       y1="3.00694"
       gradientUnits="userSpaceOnUse"
       id="linearGradient4155"
       xlink:href="#linearGradient1022-8"
       inkscape:collect="always" />
    <linearGradient
       y2="11.02436"
       y1="3.00694"
       x2="0"
       id="linearGradient1022-8"
       gradientUnits="userSpaceOnUse">
      <stop
         id="stop3001"
         offset="0" />
      <stop
         id="stop3003"
         stop-color="#363636"
         offset="1" />
    </linearGradient>
    <linearGradient
       inkscape:collect="always"
       xlink:href="#linearGradient1022-8"
       id="linearGradient3014"
       gradientUnits="userSpaceOnUse"
       gradientTransform="matrix(1.066661,0,0,1.047469,-3.896257,-4.7826226)"
       y1="3.00694"
       x2="0"
       y2="11.02436" />
    <linearGradient
       inkscape:collect="always"
       xlink:href="#linearGradient1022-8-8"
       id="linearGradient3014-4"
       gradientUnits="userSpaceOnUse"
       gradientTransform="matrix(1.066661,0,0,1.047469,-3.896257,-4.7826226)"
       y1="3.0069399"
       x2="0"
       y2="11.02436" />
    <linearGradient
       y2="11.02436"
       y1="3.0069399"
       x2="0"
       id="linearGradient1022-8-8"
       gradientUnits="userSpaceOnUse">
      <stop
         id="stop3001-0"
         offset="0" />
      <stop
         id="stop3003-5"
         stop-color="#363636"
         offset="1" />
    </linearGradient>
    <linearGradient
       y2="11.02436"
       x2="0"
       y1="3.0069399"
       gradientTransform="matrix(1.066661,0,0,1.047469,-3.733271,-4.189876)"
       gradientUnits="userSpaceOnUse"
       id="linearGradient3032"
       xlink:href="#linearGradient1022-8-8"
       inkscape:collect="always" />
  </defs>
  <sodipodi:namedview
     pagecolor="#ffffff"
     bordercolor="#666666"
     borderopacity="1"
     objecttolerance="10"
     gridtolerance="10"
     guidetolerance="10"
     inkscape:pageopacity="0"
     inkscape:pageshadow="2"
     inkscape:window-width="872"
     inkscape:window-height="786"
     id="namedview7"
     showgrid="true"
     inkscape:zoom="20.85965"
     inkscape:cx="8"
     inkscape:cy="8.1438183"
     inkscape:window-x="272"
     inkscape:window-y="120"
     inkscape:window-maximized="0"
     inkscape:current-layer="svg7384">
    <inkscape:grid
       type="xygrid"
       id="grid2986" />
  </sodipodi:namedview>
  <title
     id="title9167">Gnome Symbolic Icon Theme</title>
  <metadata
     id="metadata90">
    <rdf:RDF>
      <cc:Work
         rdf:about="">
        <dc:format>image/svg+xml</dc:format>
        <dc:type
           rdf:resource="http://purl.org/dc/dcmitype/StillImage" />
        <dc:title>Gnome Symbolic Icon Theme</dc:title>
      </cc:Work>
    </rdf:RDF>
  </metadata>
  <path
     inkscape:connector-curvature="0"
     d="M 5,6 6.5,6 7.99975,7.5 9.5,6 l 1.49975,0 0,1.5 L 9.5,9 l 1.49955,1.5 0,1.5 L 9.5,12 7.9998,10.5 6.5,12 l -1.5002,0 0,-1.5 L 6.5,9 5.00025,7.5 z M 8,3 C 4.6971714,3 2,5.6971714 2,9 c 0,3.302829 2.6971714,6 6,6 3.302829,0 6,-2.697171 6,-6 C 14,5.6971714 11.302829,3 8,3 z"
     style="text-indent:0;text-transform:none;block-progression:tb;opacity:0.6;color:#000000;fill:#ffffff;fill-opacity:1;fill-rule:nonzero;stroke-width:1;stroke-linecap:butt;stroke-linejoin:miter;stroke-miterlimit:4;stroke-opacity:1;stroke-dasharray:none;stroke-dashoffset:0;marker:none;visibility:visible;display:inline;overflow:visible;enable-background:accumulate"
     id="path3050" />
  <path
     id="path10839"
     style="text-indent:0;text-transform:none;block-progression:tb;color:#000000;fill:url(#linearGradient3014-4);enable-background:accumulate;opacity:0.69999999999999996;fill-opacity:1;fill-rule:nonzero;stroke-width:1;stroke-linecap:butt;stroke-linejoin:miter;stroke-miterlimit:4;stroke-opacity:1;stroke-dasharray:none;stroke-dashoffset:0;marker:none;visibility:visible;display:inline;overflow:visible"
     d="m 5.0002,5 1.5,0 1.49975,1.5 1.50025,-1.5 1.49975,0 0,1.5 -1.49975,1.5 1.49955,1.5 0,1.5 L 9.5002,11 8,9.5 6.5002,11 5,11 5,9.5 6.5002,8 5.00045,6.5 z m 3,-3 c -3.3028286,0 -6,2.6971714 -6,6 0,3.302829 2.6971714,6 6,6 3.302829,0 6,-2.697171 6,-6 0,-3.3028286 -2.697171,-6 -6,-6 z"
     inkscape:connector-curvature="0" />
</svg>
