<?xml version="1.0" encoding="UTF-8" standalone="no"?>
<!-- Created with Inkscape (http://www.inkscape.org/) -->

<svg
   xmlns:dc="http://purl.org/dc/elements/1.1/"
   xmlns:cc="http://creativecommons.org/ns#"
   xmlns:rdf="http://www.w3.org/1999/02/22-rdf-syntax-ns#"
   xmlns:svg="http://www.w3.org/2000/svg"
   xmlns="http://www.w3.org/2000/svg"
   xmlns:xlink="http://www.w3.org/1999/xlink"
   xmlns:sodipodi="http://sodipodi.sourceforge.net/DTD/sodipodi-0.dtd"
   xmlns:inkscape="http://www.inkscape.org/namespaces/inkscape"
   width="16"
   height="16"
   id="svg3330"
   version="1.1"
   inkscape:version="0.48.4 r9939"
   sodipodi:docname="gnome-session-hibernate.svg">
  <defs
     id="defs3332">
    <linearGradient
       y2="11.02436"
       y1="3.0069399"
       x2="0"
       id="linearGradient1022-8-8-3-0-2-9-92"
       gradientUnits="userSpaceOnUse">
      <stop
         id="stop3001-0-9-4-1-28-7"
         offset="0" />
      <stop
         id="stop3003-5-6-6-1-8-8"
         stop-color="#363636"
         offset="1" />
    </linearGradient>
    <linearGradient
       inkscape:collect="always"
       xlink:href="#linearGradient1022-8-8-3-0-2-9-92"
       id="linearGradient3073"
       gradientUnits="userSpaceOnUse"
       gradientTransform="matrix(2.239988,0,0,1.0064855,-260.96672,1027.768)"
       x1="120.07507"
       y1="-1020.1518"
       x2="120.07507"
       y2="-1006.242" />
  </defs>
  <sodipodi:namedview
     id="base"
     pagecolor="#ffffff"
     bordercolor="#666666"
     borderopacity="1.0"
     inkscape:pageopacity="0.0"
     inkscape:pageshadow="2"
     inkscape:zoom="22.4"
     inkscape:cx="10.984714"
     inkscape:cy="8.2300175"
     inkscape:document-units="px"
     inkscape:current-layer="capa1"
     showgrid="true"
     inkscape:showpageshadow="false"
     inkscape:window-width="1280"
     inkscape:window-height="976"
     inkscape:window-x="0"
     inkscape:window-y="24"
     inkscape:window-maximized="1">
    <inkscape:grid
       type="xygrid"
       id="grid3004" />
  </sodipodi:namedview>
  <metadata
     id="metadata3335">
    <rdf:RDF>
      <cc:Work
         rdf:about="">
        <dc:format>image/svg+xml</dc:format>
        <dc:type
           rdf:resource="http://purl.org/dc/dcmitype/StillImage" />
        <dc:title />
      </cc:Work>
    </rdf:RDF>
  </metadata>
  <g
     inkscape:label="Capa 1"
     inkscape:groupmode="layer"
     id="capa1"
     transform="translate(0,-1036.3622)">
    <rect
       style="opacity:0.6;color:#000000;fill:none;stroke:none;stroke-width:1;marker:none;visibility:visible;display:inline;overflow:visible;enable-background:accumulate"
       id="rect2997"
       width="16"
       height="16"
       x="0"
       y="1036.3622" />
    <path
       id="path3078"
       d="m 7,1038.3622 0,4 2,0 0,-4 -2,0 z m -5,1 0,1 3,3 1,0 0,-1 -3,-3 -1,0 z m 11,0 -3,3 0,1 1,0 3,-3 0,-1 -1,0 z m -6,4 0,1 -1,0 0,2 1,0 0,1 2,0 0,-1 1,0 0,-2 -1,0 0,-1 -2,0 z m -6,1 0,2 4,0 0,-2 -4,0 z m 10,0 0,2 4,0 0,-2 -4,0 z m -6,3 -3,3 0,1 1,0 3,-3 0,-1 -1,0 z m 5,0 0,1 3,3 1,0 0,-1 -3,-3 -1,0 z m -3,1 0,4 2,0 0,-4 -2,0 z"
       style="opacity:0.6;color:#000000;fill:#ffffff;fill-opacity:1;fill-rule:nonzero;stroke:none;stroke-width:1;marker:none;visibility:visible;display:inline;overflow:visible;enable-background:accumulate"
       inkscape:connector-curvature="0" />
    <path
       style="opacity:0.69999999999999996;color:#000000;fill:url(#linearGradient3073);fill-opacity:1;fill-rule:nonzero;stroke:none;stroke-width:1;marker:none;visibility:visible;display:inline;overflow:visible;enable-background:accumulate"
       d="M 7 1 L 7 5 L 9 5 L 9 1 L 7 1 z M 2 2 L 2 3 L 5 6 L 6 6 L 6 5 L 3 2 L 2 2 z M 13 2 L 10 5 L 10 6 L 11 6 L 14 3 L 14 2 L 13 2 z M 7 6 L 7 7 L 6 7 L 6 9 L 7 9 L 7 10 L 9 10 L 9 9 L 10 9 L 10 7 L 9 7 L 9 6 L 7 6 z M 1 7 L 1 9 L 5 9 L 5 7 L 1 7 z M 11 7 L 11 9 L 15 9 L 15 7 L 11 7 z M 5 10 L 2 13 L 2 14 L 3 14 L 6 11 L 6 10 L 5 10 z M 10 10 L 10 11 L 13 14 L 14 14 L 14 13 L 11 10 L 10 10 z M 7 11 L 7 15 L 9 15 L 9 11 L 7 11 z "
       id="rect3021"
       transform="translate(0,1036.3622)" />
  </g>
</svg>
