<?xml version="1.0" encoding="UTF-8" standalone="no"?>
<svg
   xmlns:dc="http://purl.org/dc/elements/1.1/"
   xmlns:cc="http://creativecommons.org/ns#"
   xmlns:rdf="http://www.w3.org/1999/02/22-rdf-syntax-ns#"
   xmlns:svg="http://www.w3.org/2000/svg"
   xmlns="http://www.w3.org/2000/svg"
   xmlns:xlink="http://www.w3.org/1999/xlink"
   xmlns:sodipodi="http://sodipodi.sourceforge.net/DTD/sodipodi-0.dtd"
   xmlns:inkscape="http://www.inkscape.org/namespaces/inkscape"
   viewBox="0 0 16 16"
   id="svg2"
   version="1.1"
   inkscape:version="0.48.3.1 r9886"
   width="100%"
   height="100%"
   sodipodi:docname="go-first.svg">
  <metadata
     id="metadata19">
    <rdf:RDF>
      <cc:Work
         rdf:about="">
        <dc:format>image/svg+xml</dc:format>
        <dc:type
           rdf:resource="http://purl.org/dc/dcmitype/StillImage" />
      </cc:Work>
    </rdf:RDF>
  </metadata>
  <sodipodi:namedview
     pagecolor="#ffffff"
     bordercolor="#666666"
     borderopacity="1"
     objecttolerance="10"
     gridtolerance="10"
     guidetolerance="10"
     inkscape:pageopacity="0"
     inkscape:pageshadow="2"
     inkscape:window-width="640"
     inkscape:window-height="480"
     id="namedview17"
     showgrid="false"
     inkscape:zoom="14.75"
     inkscape:cx="8"
     inkscape:cy="8.2033898"
     inkscape:window-x="0"
     inkscape:window-y="24"
     inkscape:window-maximized="0"
     inkscape:current-layer="svg2" />
  <defs
     id="defs4">
    <linearGradient
       gradientUnits="userSpaceOnUse"
       id="linearGradient1020"
       x2="0"
       y1="-689.10609"
       y2="-678.41645">
      <stop
         offset="0"
         id="stop7" />
      <stop
         offset="1"
         stop-color="#363636"
         id="stop9" />
    </linearGradient>
    <linearGradient
       inkscape:collect="always"
       xlink:href="#linearGradient1020"
       id="linearGradient4159"
       gradientUnits="userSpaceOnUse"
       y1="-689.10609"
       x2="0"
       y2="-678.41645"
       gradientTransform="translate(-1.2479,-0.15973)" />
  </defs>
  <path
     style="opacity:0.6;fill:#ffffff;fill-rule:evenodd"
     inkscape:connector-curvature="0"
     id="path13"
     d="m 0,1.28125 h 2.6875 v 14.6875 H 0 V 1.28125 z M 4.15625,8.6875 11.1875,1.75 C 11.42433,1.50478 11.78507,1.32743 12.125,1.3125 H 12.15625 13.5 v 1.34375 c 0.02921,0.37432 -0.09402,0.7405 -0.375,1 l -5.09375,5.03125 5.09375,5 c 0.25086,0.25089 0.375,0.61504 0.375,0.96875 V 16 H 12.15625 C 11.80254,16 11.43837,15.87591 11.1875,15.625 L 4.15625,8.6875 z" />
  <path
     inkscape:connector-curvature="0"
     style="opacity:0.7;fill:url(#linearGradient4159);fill-rule:evenodd"
     id="path15"
     d="M 0.0625,0 H 2.75 V 14.6875 H 0.0625 V 0 z m 4.03125,7.40625 7.0625,-6.9375 c 0.23683,-0.24522 0.56632,-0.42257 0.90625,-0.4375 h 0.03125 1.34375 V 1.375 c 0.02921,0.37432 -0.09402,0.7405 -0.375,1 l -5.09375,5.03125 5.09375,5 c 0.25086,0.25089 0.375,0.61504 0.375,0.96875 v 1.34375 h -1.34375 c -0.35371,0 -0.68663,-0.12409 -0.9375,-0.375 l -7.0625,-6.9375 z" />
</svg>
