<?xml version="1.0" encoding="UTF-8" standalone="no"?>
<svg
   xmlns:dc="http://purl.org/dc/elements/1.1/"
   xmlns:cc="http://creativecommons.org/ns#"
   xmlns:rdf="http://www.w3.org/1999/02/22-rdf-syntax-ns#"
   xmlns:svg="http://www.w3.org/2000/svg"
   xmlns="http://www.w3.org/2000/svg"
   xmlns:xlink="http://www.w3.org/1999/xlink"
   xmlns:sodipodi="http://sodipodi.sourceforge.net/DTD/sodipodi-0.dtd"
   xmlns:inkscape="http://www.inkscape.org/namespaces/inkscape"
   viewBox="0 0 16 16"
   id="svg3015"
   version="1.1"
   inkscape:version="0.48.3.1 r9886"
   width="100%"
   height="100%"
   sodipodi:docname="go-jump.svg">
  <metadata
     id="metadata3032">
    <rdf:RDF>
      <cc:Work
         rdf:about="">
        <dc:format>image/svg+xml</dc:format>
        <dc:type
           rdf:resource="http://purl.org/dc/dcmitype/StillImage" />
      </cc:Work>
    </rdf:RDF>
  </metadata>
  <sodipodi:namedview
     pagecolor="#ffffff"
     bordercolor="#666666"
     borderopacity="1"
     objecttolerance="10"
     gridtolerance="10"
     guidetolerance="10"
     inkscape:pageopacity="0"
     inkscape:pageshadow="2"
     inkscape:window-width="640"
     inkscape:window-height="480"
     id="namedview3030"
     showgrid="false"
     inkscape:zoom="14.75"
     inkscape:cx="8"
     inkscape:cy="8.2033898"
     inkscape:window-x="0"
     inkscape:window-y="24"
     inkscape:window-maximized="0"
     inkscape:current-layer="svg3015" />
  <defs
     id="defs3017">
    <linearGradient
       gradientUnits="userSpaceOnUse"
       id="linearGradient1022-1"
       x2="0"
       y1="-2.99306"
       y2="5.02436">
      <stop
         offset="0"
         id="stop3020" />
      <stop
         offset="1"
         stop-color="#363636"
         id="stop3022" />
    </linearGradient>
    <linearGradient
       inkscape:collect="always"
       xlink:href="#linearGradient1022-1"
       id="linearGradient4151"
       gradientUnits="userSpaceOnUse"
       y1="-2.99306"
       x2="0"
       y2="5.02436"
       gradientTransform="matrix(1.042968,0,0,1.042968,-3.355786,1.072518)" />
  </defs>
  <path
     style="opacity:0.6;fill:#ffffff"
     inkscape:connector-curvature="0"
     id="path3026"
     d="m 5.1799058,1.3984455 c -2.2611546,0 -4.1193272,1.8581726 -4.1193272,4.1193273 V 6.1062466 H 3.4144843 V 5.5177728 c 0,-0.9889527 0.7764688,-1.7654215 1.765432,-1.7654215 0.9889631,0 1.7654319,0.7764688 1.7654319,1.7654215 V 11.512868 L 5.4373833,10.004903 C 5.2134164,9.7899053 4.8937988,9.6371105 4.5914529,9.6371105 H 3.4145052 v 1.1769475 c 0,0.364205 0.1062784,0.650051 0.3310172,0.882716 l 4.3767839,4.303223 4.3767837,-4.303223 c 0.224739,-0.232655 0.331017,-0.518511 0.331017,-0.882716 V 9.6371105 H 11.65316 c -0.302346,0 -0.621974,0.1528052 -0.845931,0.3677925 L 9.2992644,11.512868 V 5.5177728 c 0,-2.2611547 -1.8581727,-4.1193273 -4.1193273,-4.1193273 z" />
  <path
     inkscape:connector-curvature="0"
     style="opacity:0.7;fill:url(#linearGradient4151)"
     id="path3028"
     d="M 5.1799058,2.71656e-6 C 2.9187512,2.71656e-6 1.0605786,1.8581754 1.0605786,4.11933 V 4.7078038 H 3.4144843 V 4.11933 c 0,-0.9889527 0.7764688,-1.7654319 1.765432,-1.7654319 0.9889631,0 1.7654319,0.7764688 1.7654319,1.7654319 v 5.995095 L 5.4373833,8.6064599 C 5.2134164,8.3914625 4.8937988,8.2386677 4.5914529,8.2386677 H 3.4145052 v 1.1769477 c 0,0.3642044 0.1062784,0.6500506 0.3310172,0.8827156 l 4.3767839,4.303224 4.3767837,-4.303224 c 0.224739,-0.232655 0.331017,-0.5185112 0.331017,-0.8827156 V 8.2386677 H 11.65316 c -0.302346,0 -0.621974,0.1528052 -0.845931,0.3677922 L 9.2992644,10.114425 V 4.11933 C 9.2992644,1.8581754 7.4410917,2.71656e-6 5.1799371,2.71656e-6 z" />
</svg>
