<?xml version="1.0" encoding="UTF-8" standalone="no"?>
<svg
   xmlns:dc="http://purl.org/dc/elements/1.1/"
   xmlns:cc="http://creativecommons.org/ns#"
   xmlns:rdf="http://www.w3.org/1999/02/22-rdf-syntax-ns#"
   xmlns:svg="http://www.w3.org/2000/svg"
   xmlns="http://www.w3.org/2000/svg"
   xmlns:xlink="http://www.w3.org/1999/xlink"
   xmlns:sodipodi="http://sodipodi.sourceforge.net/DTD/sodipodi-0.dtd"
   xmlns:inkscape="http://www.inkscape.org/namespaces/inkscape"
   viewBox="0 0 16 16"
   id="svg3072"
   version="1.1"
   inkscape:version="0.48.3.1 r9886"
   width="100%"
   height="100%"
   sodipodi:docname="go-next.svg">
  <metadata
     id="metadata3095">
    <rdf:RDF>
      <cc:Work
         rdf:about="">
        <dc:format>image/svg+xml</dc:format>
        <dc:type
           rdf:resource="http://purl.org/dc/dcmitype/StillImage" />
      </cc:Work>
    </rdf:RDF>
  </metadata>
  <sodipodi:namedview
     pagecolor="#ffffff"
     bordercolor="#666666"
     borderopacity="1"
     objecttolerance="10"
     gridtolerance="10"
     guidetolerance="10"
     inkscape:pageopacity="0"
     inkscape:pageshadow="2"
     inkscape:window-width="640"
     inkscape:window-height="480"
     id="namedview3093"
     showgrid="false"
     inkscape:zoom="14.75"
     inkscape:cx="8"
     inkscape:cy="8"
     inkscape:window-x="0"
     inkscape:window-y="24"
     inkscape:window-maximized="0"
     inkscape:current-layer="svg3072" />
  <defs
     id="defs3074">
    <linearGradient
       gradientUnits="userSpaceOnUse"
       id="linearGradient951-5"
       x2="0"
       y1="3.00694"
       y2="11.02436">
      <stop
         offset="0"
         id="stop3077" />
      <stop
         offset="1"
         stop-color="#363636"
         id="stop3079" />
    </linearGradient>
    <linearGradient
       inkscape:collect="always"
       xlink:href="#linearGradient951-5"
       id="linearGradient4136"
       gradientUnits="userSpaceOnUse"
       y1="3.00694"
       x2="0"
       y2="11.02436" />
    <linearGradient
       inkscape:collect="always"
       xlink:href="#linearGradient951-5"
       id="linearGradient4138"
       gradientUnits="userSpaceOnUse"
       y1="3.00694"
       x2="0"
       y2="11.02436" />
    <linearGradient
       inkscape:collect="always"
       xlink:href="#linearGradient951-5"
       id="linearGradient4140"
       gradientUnits="userSpaceOnUse"
       y1="3.00694"
       x2="0"
       y2="11.02436" />
  </defs>
  <g
     style="opacity:0.6;fill:#ffffff"
     id="g3083"
     transform="matrix(-1.333302,0,0,1.333302,151.33201,-691.98332)">
    <path
       style="fill:#ffffff"
       inkscape:connector-curvature="0"
       id="path3085"
       d="m 111,520 h -1 -0.0313 c -0.25495,0.0112 -0.50987,0.12858 -0.6875,0.3125 l -5.2812,5.2188 5.2812,5.1875 c 0.18816,0.18819 0.45346,0.28125 0.71875,0.28125 h 1 v -1 c 0,-0.26529 -0.0931,-0.53058 -0.28125,-0.71875 l -3.8125,-3.75 3.8125,-3.7812 c 0.21074,-0.19463 0.30316,-0.46925 0.28125,-0.75 v -1 z" />
  </g>
  <g
     style="opacity:0.7;fill:url(#linearGradient4138)"
     id="g3089"
     transform="matrix(-1.333302,0,0,1.333302,151.33197,-693.3166)">
    <path
       inkscape:connector-curvature="0"
       style="fill:url(#linearGradient4136)"
       id="path3091"
       d="m 111,520 h -1 -0.0313 c -0.25495,0.0112 -0.50987,0.12858 -0.6875,0.3125 l -5.2812,5.2188 5.2812,5.1875 c 0.18816,0.18819 0.45346,0.28125 0.71875,0.28125 h 1 v -1 c 0,-0.26529 -0.0931,-0.53058 -0.28125,-0.71875 l -3.8125,-3.75 3.8125,-3.7812 c 0.21074,-0.19463 0.30316,-0.46925 0.28125,-0.75 v -1 z" />
  </g>
</svg>
