<?xml version="1.0" encoding="UTF-8" standalone="no"?>
<!-- Created with Inkscape (http://www.inkscape.org/) -->

<svg xmlns:dc="http://purl.org/dc/elements/1.1/" xmlns:cc="http://creativecommons.org/ns#" xmlns:rdf="http://www.w3.org/1999/02/22-rdf-syntax-ns#" xmlns:svg="http://www.w3.org/2000/svg" xmlns="http://www.w3.org/2000/svg" xmlns:xlink="http://www.w3.org/1999/xlink" xmlns:sodipodi="http://sodipodi.sourceforge.net/DTD/sodipodi-0.dtd" xmlns:inkscape="http://www.inkscape.org/namespaces/inkscape" width="16" height="16" id="svg3330" version="1.1" inkscape:version="0.48.4 r9939" sodipodi:docname="gtk-network.svg">
    <defs id="defs3332">
        <linearGradient y2="11.02436" y1="3.0069399" x2="0" id="linearGradient1022-8-8-3-0-06-59-5" gradientUnits="userSpaceOnUse">
            <stop id="stop3001-0-9-4-9-02-5" offset="0" />
            <stop id="stop3003-5-6-6-5-70-2" stop-color="#363636" offset="1" />
        </linearGradient>
        <linearGradient inkscape:collect="always" xlink:href="#linearGradient1022-8-8-3-0-06-59-5" id="linearGradient3161" gradientUnits="userSpaceOnUse" gradientTransform="matrix(0,-0.11111111,10.000035,0,-160.00048,1044.9844)" x1="70.400162" y1="16.79999" x2="-66.399841" y2="16.79999" />
        <linearGradient inkscape:collect="always" xlink:href="#linearGradient1022-8-8-3-0-06-59-5" id="linearGradient3018" gradientUnits="userSpaceOnUse" gradientTransform="matrix(0,-0.11111111,10.000035,0,-177.40048,1044.9844)" x1="70.400162" y1="16.79999" x2="-66.399841" y2="16.79999" />
        <linearGradient inkscape:collect="always" xlink:href="#linearGradient1022-8-8-3-0-06-59-5" id="linearGradient3020" gradientUnits="userSpaceOnUse" gradientTransform="matrix(0,-0.11111111,10.000035,0,-177.40048,1044.7844)" x1="70.400162" y1="16.79999" x2="-66.399841" y2="16.79999" />
        <linearGradient inkscape:collect="always" xlink:href="#linearGradient1022-8-8-3-0-06-59-5" id="linearGradient3022" gradientUnits="userSpaceOnUse" gradientTransform="matrix(0,-0.11111111,10.000035,0,-177.40048,1045.1844)" x1="70.400162" y1="16.79999" x2="-66.399841" y2="16.79999" />
        <linearGradient inkscape:collect="always" xlink:href="#linearGradient1022-8-8-3-0-06-59-5" id="linearGradient3024" gradientUnits="userSpaceOnUse" gradientTransform="matrix(0,-0.11111111,10.000035,0,-177.40048,1044.9844)" x1="70.400162" y1="16.79999" x2="-66.399841" y2="16.79999" />
        <linearGradient inkscape:collect="always" xlink:href="#linearGradient1022-8-8-3-0-06-59-5-9" id="linearGradient3024-3" gradientUnits="userSpaceOnUse" gradientTransform="matrix(0,-0.13333373,14.000049,0,-252.76068,1253.9849)" x1="70.400162" y1="16.79999" x2="-66.399841" y2="16.79999" />
        <linearGradient y2="11.02436" y1="3.0069399" x2="0" id="linearGradient1022-8-8-3-0-06-59-5-9" gradientUnits="userSpaceOnUse">
            <stop id="stop3001-0-9-4-9-02-5-4" offset="0" />
            <stop id="stop3003-5-6-6-5-70-2-9" stop-color="#363636" offset="1" />
        </linearGradient>
        <linearGradient inkscape:collect="always" xlink:href="#linearGradient1022-8-8-3-0-06-59-5-9" id="linearGradient3063" gradientUnits="userSpaceOnUse" gradientTransform="matrix(0,-0.08888929,10.000035,0,-178.40049,1873.3534)" x1="70.400162" y1="16.79999" x2="-66.399841" y2="16.79999" />
        <linearGradient inkscape:collect="always" xlink:href="#linearGradient1022-8-8-3-0-06-59-5-9" id="linearGradient3067" gradientUnits="userSpaceOnUse" gradientTransform="matrix(0,-0.13333373,14.000049,0,-252.76068,1253.9849)" x1="70.400162" y1="16.79999" x2="-66.399841" y2="16.79999" />
        <linearGradient inkscape:collect="always" xlink:href="#linearGradient1022-8-8-3-0-06-59-5-9" id="linearGradient3071" gradientUnits="userSpaceOnUse" gradientTransform="matrix(0,-0.13333373,14.000049,0,-256.76068,2298.3471)" x1="70.400162" y1="16.79999" x2="-66.399841" y2="16.79999" />
        <linearGradient inkscape:collect="always" xlink:href="#linearGradient1022-8-8-3-0-06-59-5-9" id="linearGradient3075" gradientUnits="userSpaceOnUse" gradientTransform="matrix(0,-0.13333373,14.000049,0,-247.76068,2299.3471)" x1="70.400162" y1="16.79999" x2="-66.399841" y2="16.79999" />
        <linearGradient inkscape:collect="always" xlink:href="#linearGradient1022-8-8-3-0-06-59-5-9" id="linearGradient3081" gradientUnits="userSpaceOnUse" gradientTransform="matrix(0,-0.26666978,0.87500306,0,-12.797543,3538.3537)" x1="70.400162" y1="16.79999" x2="-66.399841" y2="16.79999" />
        <linearGradient inkscape:collect="always" xlink:href="#linearGradient1022-8-8-3-0-06-59-5-9" id="linearGradient3085" gradientUnits="userSpaceOnUse" gradientTransform="matrix(0,-0.26666978,0.87500306,0,-8.797543,3535.3537)" x1="70.400162" y1="16.79999" x2="-66.399841" y2="16.79999" />
        <linearGradient inkscape:collect="always" xlink:href="#linearGradient1022-8-8-3-0-06-59-5-9" id="linearGradient3089" gradientUnits="userSpaceOnUse" gradientTransform="matrix(0,-0.26666978,0.87500306,0,-3.797543,3537.3537)" x1="70.400162" y1="16.79999" x2="-66.399841" y2="16.79999" />
        <linearGradient inkscape:collect="always" xlink:href="#linearGradient1022-8-8-3-0-06-59-5-9" id="linearGradient3093" gradientUnits="userSpaceOnUse" gradientTransform="matrix(0,-0.13333373,14.000049,0,-252.76068,1253.9849)" x1="9404.8584" y1="18.625698" x2="9292.3594" y2="18.625698" />
    </defs>
    <sodipodi:namedview id="base" pagecolor="#ffffff" bordercolor="#666666" borderopacity="1.0" inkscape:pageopacity="0.0" inkscape:pageshadow="2" inkscape:zoom="17.145833" inkscape:cx="9.2624507" inkscape:cy="8.9997891" inkscape:document-units="px" inkscape:current-layer="capa1" showgrid="true" inkscape:showpageshadow="false" inkscape:window-width="1280" inkscape:window-height="974" inkscape:window-x="0" inkscape:window-y="24" inkscape:window-maximized="1" inkscape:snap-center="false" inkscape:snap-object-midpoints="false" inkscape:snap-page="true" inkscape:snap-midpoints="false" inkscape:snap-to-guides="false" inkscape:snap-bbox="true">
        <inkscape:grid type="xygrid" id="grid3124" empspacing="5" visible="true" enabled="true" snapvisiblegridlinesonly="true" />
    </sodipodi:namedview>
    <metadata id="metadata3335">
        <rdf:RDF>
            <cc:Work rdf:about="">
                <dc:format>image/svg+xml</dc:format>
                <dc:type rdf:resource="http://purl.org/dc/dcmitype/StillImage" />
                <dc:title />
            </cc:Work>
        </rdf:RDF>
    </metadata>
    <g inkscape:label="Capa 1" inkscape:groupmode="layer" id="capa1" transform="translate(0,-1036.3622)">
        <path id="path3095" d="m 4,1037.3622 0,6 3,0 0,1 -7,0 0,1 3,0 0,1 -3,0 0,6 7,0 0,-6 -3,0 0,-1 8,0 0,1 -3,0 0,6 7,0 0,-6 -3,0 0,-1 3,0 0,-1 -8,0 0,-1 3,0 0,-6 -7,0 z m 1,1 5,0 0,3 -5,0 0,-3 z m -4,9 5,0 0,3 -5,0 0,-3 z m 9,0 5,0 0,3 -5,0 0,-3 z" style="opacity:0.59999999999999998;color:black;fill:white;fill-opacity:1;fill-rule:nonzero;stroke:none;stroke-width:1;marker:none;visibility:visible;display:inline;overflow:visible;enable-background:accumulate" inkscape:connector-curvature="0" />
        <path style="opacity:0.69999999999999996;color:black;fill:url(#linearGradient3093);fill-opacity:1;fill-rule:nonzero;stroke:none;stroke-width:1;marker:none;visibility:visible;display:inline;overflow:visible;enable-background:accumulate" d="M 4 0 L 4 6 L 7 6 L 7 7 L 0 7 L 0 8 L 3 8 L 3 9 L 0 9 L 0 15 L 7 15 L 7 9 L 4 9 L 4 8 L 12 8 L 12 9 L 9 9 L 9 15 L 16 15 L 16 9 L 13 9 L 13 8 L 16 8 L 16 7 L 8 7 L 8 6 L 11 6 L 11 0 L 4 0 z M 5 1 L 10 1 L 10 4 L 5 4 L 5 1 z M 1 10 L 6 10 L 6 13 L 1 13 L 1 10 z M 10 10 L 15 10 L 15 13 L 10 13 L 10 10 z " transform="translate(0,1036.3622)" id="rect3026" />
    </g>
</svg>
