<?xml version="1.0" encoding="UTF-8" standalone="no"?>
<!-- Created with Inkscape (http://www.inkscape.org/) -->

<svg
   xmlns:dc="http://purl.org/dc/elements/1.1/"
   xmlns:cc="http://creativecommons.org/ns#"
   xmlns:rdf="http://www.w3.org/1999/02/22-rdf-syntax-ns#"
   xmlns:svg="http://www.w3.org/2000/svg"
   xmlns="http://www.w3.org/2000/svg"
   xmlns:xlink="http://www.w3.org/1999/xlink"
   xmlns:sodipodi="http://sodipodi.sourceforge.net/DTD/sodipodi-0.dtd"
   xmlns:inkscape="http://www.inkscape.org/namespaces/inkscape"
   width="16"
   height="16"
   id="svg2"
   version="1.1"
   inkscape:version="0.48.3.1 r9886"
   sodipodi:docname="gtk-leave-fullscreen_16px.svg">
  <defs
     id="defs4">
    <linearGradient
       id="linearGradient4065">
      <stop
         style="stop-color:#000000;stop-opacity:1;"
         offset="0"
         id="stop4067" />
      <stop
         style="stop-color:#363636;stop-opacity:1;"
         offset="1"
         id="stop4069" />
    </linearGradient>
    <linearGradient
       inkscape:collect="always"
       xlink:href="#linearGradient4065"
       id="linearGradient4071"
       x1="6.375"
       y1="1036.9872"
       x2="6.375"
       y2="1050.4872"
       gradientUnits="userSpaceOnUse" />
  </defs>
  <sodipodi:namedview
     id="base"
     pagecolor="#ffffff"
     bordercolor="#666666"
     borderopacity="1.0"
     inkscape:pageopacity="0.0"
     inkscape:pageshadow="2"
     inkscape:zoom="32"
     inkscape:cx="7.8475722"
     inkscape:cy="7.8836797"
     inkscape:document-units="px"
     inkscape:current-layer="g4692"
     showgrid="true"
     showguides="true"
     inkscape:guide-bbox="true"
     inkscape:window-width="1920"
     inkscape:window-height="1056"
     inkscape:window-x="0"
     inkscape:window-y="24"
     inkscape:window-maximized="1">
    <inkscape:grid
       type="xygrid"
       id="grid2985"
       empspacing="5"
       visible="true"
       enabled="true"
       snapvisiblegridlinesonly="true" />
  </sodipodi:namedview>
  <metadata
     id="metadata7">
    <rdf:RDF>
      <cc:Work
         rdf:about="">
        <dc:format>image/svg+xml</dc:format>
        <dc:type
           rdf:resource="http://purl.org/dc/dcmitype/StillImage" />
        <dc:title />
      </cc:Work>
    </rdf:RDF>
  </metadata>
  <g
     inkscape:label="Layer 1"
     inkscape:groupmode="layer"
     id="layer1"
     transform="translate(0,-1036.3622)">
    <g
       id="g4692"
       style="opacity:0.7"
       transform="matrix(0.88888889,0,0,0.88888889,0.33333332,116.5958)">
      <path
         style="opacity:0.6;fill:#ffffff;fill-opacity:1"
         d="m 5.25,1038.1122 0,3.375 -3.375,0 0,2.25 3.256347,0 2.368653,0 0,-3.375 0,-2.25 z m 4.5,0 0,3.375 0,2.25 3.375,0 2.25,0 0,-2.25 -3.375,0 0,-3.375 z m -7.875,7.875 0,2.25 3.375,0 0,3.375 2.25,0 0,-2.25 0,-3.375 -3.375,0 z m 7.875,0 0,3.375 0,2.25 2.25,0 0,-3.375 3.375,0 0,-2.25 -3.031348,0 z"
         id="rect2987-4"
         inkscape:connector-curvature="0"
         sodipodi:nodetypes="cccccccccccccccccccccccccccccccccccc" />
      <path
         style="opacity:1;fill:url(#linearGradient4071);fill-opacity:1"
         d="m 5.25,1036.9872 0,3.375 -3.375,0 0,2.25 3.2563472,0 2.3686528,0 0,-3.375 0,-2.25 z m 4.5,0 0,3.375 0,2.25 3.375,0 2.25,0 0,-2.25 -3.375,0 0,-3.375 z m -7.875,7.875 0,2.25 3.375,0 0,3.375 2.25,0 0,-2.25 0,-3.375 -3.375,0 z m 7.875,0 0,3.375 0,2.25 2.25,0 0,-3.375 3.375,0 0,-2.25 -3.031348,0 z"
         id="rect2987"
         inkscape:connector-curvature="0"
         sodipodi:nodetypes="cccccccccccccccccccccccccccccccccccc" />
    </g>
  </g>
</svg>
