<?xml version="1.0" encoding="UTF-8" standalone="no"?>
<!-- Created with Inkscape (http://www.inkscape.org/) -->

<svg
   xmlns:dc="http://purl.org/dc/elements/1.1/"
   xmlns:cc="http://creativecommons.org/ns#"
   xmlns:rdf="http://www.w3.org/1999/02/22-rdf-syntax-ns#"
   xmlns:svg="http://www.w3.org/2000/svg"
   xmlns="http://www.w3.org/2000/svg"
   xmlns:xlink="http://www.w3.org/1999/xlink"
   xmlns:sodipodi="http://sodipodi.sourceforge.net/DTD/sodipodi-0.dtd"
   xmlns:inkscape="http://www.inkscape.org/namespaces/inkscape"
   width="16"
   height="16"
   id="svg3330"
   version="1.1"
   inkscape:version="0.48.4 r9939"
   sodipodi:docname="gtk-select-color.svg">
  <defs
     id="defs3332">
    <linearGradient
       y2="11.02436"
       y1="3.0069399"
       x2="0"
       id="linearGradient1022-8-8-3-0-2-12-3"
       gradientUnits="userSpaceOnUse">
      <stop
         id="stop3001-0-9-4-1-4-8"
         offset="0" />
      <stop
         id="stop3003-5-6-6-1-51-2"
         stop-color="#363636"
         offset="1" />
    </linearGradient>
    <linearGradient
       inkscape:collect="always"
       xlink:href="#linearGradient1022-8-8-3-0-2-12-3"
       id="linearGradient4137"
       gradientUnits="userSpaceOnUse"
       gradientTransform="matrix(1.4933255,0,0,-1.341987,-290.97791,-2400.3917)"
       x1="200.20947"
       y1="-1789.4299"
       x2="200.20947"
       y2="-1799.8622" />
  </defs>
  <sodipodi:namedview
     id="base"
     pagecolor="#ffffff"
     bordercolor="#666666"
     borderopacity="1.0"
     inkscape:pageopacity="0.0"
     inkscape:pageshadow="2"
     inkscape:zoom="25.000001"
     inkscape:cx="11.6"
     inkscape:cy="9.2497056"
     inkscape:document-units="px"
     inkscape:current-layer="capa1"
     showgrid="true"
     inkscape:showpageshadow="false"
     inkscape:window-width="1280"
     inkscape:window-height="976"
     inkscape:window-x="0"
     inkscape:window-y="24"
     inkscape:window-maximized="1"
     inkscape:snap-page="false"
     inkscape:snap-center="true"
     inkscape:snap-object-midpoints="true"
     inkscape:snap-to-guides="true">
    <inkscape:grid
       type="xygrid"
       id="grid2990"
       empspacing="5"
       visible="true"
       enabled="true"
       snapvisiblegridlinesonly="true" />
  </sodipodi:namedview>
  <metadata
     id="metadata3335">
    <rdf:RDF>
      <cc:Work
         rdf:about="">
        <dc:format>image/svg+xml</dc:format>
        <dc:type
           rdf:resource="http://purl.org/dc/dcmitype/StillImage" />
        <dc:title />
      </cc:Work>
    </rdf:RDF>
  </metadata>
  <g
     inkscape:label="Capa 1"
     inkscape:groupmode="layer"
     id="capa1"
     transform="translate(0,-1036.3622)">
    <path
       id="path4139"
       d="m 1,1038.3622 0,1 1,0 0,-1 -1,0 z m 1,1 0,1 1,0 0,-1 -1,0 z m 1,0 1,0 0,-1 -1,0 0,1 z m 1,0 0,1 1,0 0,-1 -1,0 z m 0,1 -1,0 0,1 1,0 0,-1 z m 0,1 0,1 1,0 0,-1 -1,0 z m -1,0 -1,0 0,1 1,0 0,-1 z m -1,0 0,-1 -1,0 0,1 1,0 z m 4,-3 0,4 4,0 0,-4 -4,0 z m 5,0 0,4 4,0 0,-4 -4,0 z m -10,5 0,4 4,0 0,-4 -4,0 z m 5,0 0,1 1,0 0,-1 -1,0 z m 1,1 0,1 1,0 0,-1 -1,0 z m 1,0 1,0 0,-1 -1,0 0,1 z m 1,0 0,1 1,0 0,-1 -1,0 z m 0,1 -1,0 0,1 1,0 0,-1 z m 0,1 0,1 1,0 0,-1 -1,0 z m -1,0 -1,0 0,1 1,0 0,-1 z m -1,0 0,-1 -1,0 0,1 1,0 z m 4,-3 0,4 4,0 0,-4 -4,0 z m -10,5 0,4 4,0 0,-4 -4,0 z m 5,0 0,4 4,0 0,-4 -4,0 z m 5,0 0,1 1,0 0,-1 -1,0 z m 1,1 0,1 1,0 0,-1 -1,0 z m 1,0 1,0 0,-1 -1,0 0,1 z m 1,0 0,1 1,0 0,-1 -1,0 z m 0,1 -1,0 0,1 1,0 0,-1 z m 0,1 0,1 1,0 0,-1 -1,0 z m -1,0 -1,0 0,1 1,0 0,-1 z m -1,0 0,-1 -1,0 0,1 1,0 z"
       style="opacity:0.59999999999999998;color:black;fill:white;fill-opacity:1;fill-rule:nonzero;stroke:none;stroke-width:1;marker:none;visibility:visible;display:inline;overflow:visible;enable-background:accumulate"
       inkscape:connector-curvature="0" />
    <path
       style="opacity:0.69999999999999996;color:black;fill:url(#linearGradient4137);fill-opacity:1;fill-rule:nonzero;stroke:none;stroke-width:1;marker:none;visibility:visible;display:inline;overflow:visible;enable-background:accumulate"
       d="M 1 1 L 1 2 L 2 2 L 2 1 L 1 1 z M 2 2 L 2 3 L 3 3 L 3 2 L 2 2 z M 3 2 L 4 2 L 4 1 L 3 1 L 3 2 z M 4 2 L 4 3 L 5 3 L 5 2 L 4 2 z M 4 3 L 3 3 L 3 4 L 4 4 L 4 3 z M 4 4 L 4 5 L 5 5 L 5 4 L 4 4 z M 3 4 L 2 4 L 2 5 L 3 5 L 3 4 z M 2 4 L 2 3 L 1 3 L 1 4 L 2 4 z M 6 1 L 6 5 L 10 5 L 10 1 L 6 1 z M 11 1 L 11 5 L 15 5 L 15 1 L 11 1 z M 1 6 L 1 10 L 5 10 L 5 6 L 1 6 z M 6 6 L 6 7 L 7 7 L 7 6 L 6 6 z M 7 7 L 7 8 L 8 8 L 8 7 L 7 7 z M 8 7 L 9 7 L 9 6 L 8 6 L 8 7 z M 9 7 L 9 8 L 10 8 L 10 7 L 9 7 z M 9 8 L 8 8 L 8 9 L 9 9 L 9 8 z M 9 9 L 9 10 L 10 10 L 10 9 L 9 9 z M 8 9 L 7 9 L 7 10 L 8 10 L 8 9 z M 7 9 L 7 8 L 6 8 L 6 9 L 7 9 z M 11 6 L 11 10 L 15 10 L 15 6 L 11 6 z M 1 11 L 1 15 L 5 15 L 5 11 L 1 11 z M 6 11 L 6 15 L 10 15 L 10 11 L 6 11 z M 11 11 L 11 12 L 12 12 L 12 11 L 11 11 z M 12 12 L 12 13 L 13 13 L 13 12 L 12 12 z M 13 12 L 14 12 L 14 11 L 13 11 L 13 12 z M 14 12 L 14 13 L 15 13 L 15 12 L 14 12 z M 14 13 L 13 13 L 13 14 L 14 14 L 14 13 z M 14 14 L 14 15 L 15 15 L 15 14 L 14 14 z M 13 14 L 12 14 L 12 15 L 13 15 L 13 14 z M 12 14 L 12 13 L 11 13 L 11 14 L 12 14 z "
       transform="translate(0,1036.3622)"
       id="path4120" />
  </g>
</svg>
