<?xml version="1.0" encoding="UTF-8" standalone="no"?>
<!-- Created with Inkscape (http://www.inkscape.org/) -->

<svg
   xmlns:dc="http://purl.org/dc/elements/1.1/"
   xmlns:cc="http://creativecommons.org/ns#"
   xmlns:rdf="http://www.w3.org/1999/02/22-rdf-syntax-ns#"
   xmlns:svg="http://www.w3.org/2000/svg"
   xmlns="http://www.w3.org/2000/svg"
   xmlns:xlink="http://www.w3.org/1999/xlink"
   xmlns:sodipodi="http://sodipodi.sourceforge.net/DTD/sodipodi-0.dtd"
   xmlns:inkscape="http://www.inkscape.org/namespaces/inkscape"
   width="16"
   height="16"
   id="svg3330"
   version="1.1"
   inkscape:version="0.48.4 r9939"
   sodipodi:docname="object-flip-horizontal.svg">
  <defs
     id="defs3332">
    <linearGradient
       y2="11.02436"
       y1="3.0069399"
       x2="0"
       id="linearGradient1022-8-8-3-0-1-4"
       gradientUnits="userSpaceOnUse">
      <stop
         id="stop3001-0-9-4-2-42"
         offset="0" />
      <stop
         id="stop3003-5-6-6-2-5"
         stop-color="#363636"
         offset="1" />
    </linearGradient>
    <linearGradient
       y2="19.472532"
       x2="105.05669"
       y1="9.5369329"
       x1="105.05669"
       gradientTransform="matrix(1.119994,0,0,1.0064811,85.016638,119.49574)"
       gradientUnits="userSpaceOnUse"
       id="linearGradient6105"
       xlink:href="#linearGradient1022-8-8-3-0-1-4"
       inkscape:collect="always" />
  </defs>
  <sodipodi:namedview
     id="base"
     pagecolor="#ffffff"
     bordercolor="#666666"
     borderopacity="1.0"
     inkscape:pageopacity="0.0"
     inkscape:pageshadow="2"
     inkscape:zoom="3.959798"
     inkscape:cx="12.253093"
     inkscape:cy="5.8232452"
     inkscape:document-units="px"
     inkscape:current-layer="capa1"
     showgrid="false"
     inkscape:showpageshadow="false"
     inkscape:window-width="673"
     inkscape:window-height="598"
     inkscape:window-x="534"
     inkscape:window-y="285"
     inkscape:window-maximized="0" />
  <metadata
     id="metadata3335">
    <rdf:RDF>
      <cc:Work
         rdf:about="">
        <dc:format>image/svg+xml</dc:format>
        <dc:type
           rdf:resource="http://purl.org/dc/dcmitype/StillImage" />
        <dc:title />
      </cc:Work>
    </rdf:RDF>
  </metadata>
  <g
     inkscape:label="Capa 1"
     inkscape:groupmode="layer"
     id="capa1"
     transform="translate(0,-1036.3622)">
    <g
       transform="translate(-195,599.99928)"
       id="object-flip-horizontal">
      <rect
         style="opacity:0.6;color:#000000;fill:none;stroke:none;stroke-width:1;marker:none;visibility:visible;display:inline;overflow:visible;enable-background:accumulate"
         id="rect3039"
         width="16"
         height="16"
         x="195"
         y="436.36292" />
      <path
         id="path4191"
         d="m 199,442.36218 -3,3 3,3 2,0 -3,-3 3,-3 -2,0 z m 6,0 3,3 -3,3 2,0 3,-3 -3,-3 -2,0 z m -5,2 -1,1 1,1 6,0 1,-1 -1,-1 -6,0 z"
         style="opacity:0.6;color:#000000;fill:#ffffff;fill-opacity:1;fill-rule:nonzero;stroke:none;stroke-width:1;marker:none;visibility:visible;display:inline;overflow:visible;enable-background:accumulate"
         inkscape:connector-curvature="0" />
      <path
         inkscape:connector-curvature="0"
         style="opacity:0.7;color:#000000;fill:url(#linearGradient6105);fill-opacity:1;fill-rule:nonzero;stroke:none;stroke-width:1;marker:none;visibility:visible;display:inline;overflow:visible;enable-background:accumulate"
         d="m 199,133.09375 -3,3 3,3 2,0 -3,-3 3,-3 -2,0 z m 6,0 3,3 -3,3 2,0 3,-3 -3,-3 -2,0 z m -5,2 -1,1 1,1 6,0 1,-1 -1,-1 -6,0 z"
         transform="translate(0,308.2677)"
         id="path6797" />
    </g>
  </g>
</svg>
