<?xml version="1.0" encoding="UTF-8" standalone="no"?>
<!-- Created with Inkscape (http://www.inkscape.org/) -->

<svg xmlns:dc="http://purl.org/dc/elements/1.1/" xmlns:cc="http://creativecommons.org/ns#" xmlns:rdf="http://www.w3.org/1999/02/22-rdf-syntax-ns#" xmlns:svg="http://www.w3.org/2000/svg" xmlns="http://www.w3.org/2000/svg" xmlns:xlink="http://www.w3.org/1999/xlink" xmlns:sodipodi="http://sodipodi.sourceforge.net/DTD/sodipodi-0.dtd" xmlns:inkscape="http://www.inkscape.org/namespaces/inkscape" width="16" height="16" id="svg2" version="1.1" inkscape:version="0.48.3.1 r9886" sodipodi:docname="object-crop.svg">
  <defs id="defs4">
    <linearGradient id="linearGradient3098">
      <stop style="stop-color:#000000;stop-opacity:1;" offset="0" id="stop3100" />
      <stop style="stop-color:#363636;stop-opacity:1;" offset="1" id="stop3102" />
    </linearGradient>
    <linearGradient inkscape:collect="always" xlink:href="#linearGradient3098" id="linearGradient3326" gradientUnits="userSpaceOnUse" gradientTransform="matrix(1,0,0,1.0029851,-4.8435618,2.0718732)" x1="6.6667309" y1="1032.0162" x2="6.5504146" y2="1050.5833" />
  </defs>
  <sodipodi:namedview id="base" pagecolor="#ffffff" bordercolor="#666666" borderopacity="1.0" inkscape:pageopacity="0.0" inkscape:pageshadow="2" inkscape:zoom="16" inkscape:cx="0.28298121" inkscape:cy="-1.8772376" inkscape:document-units="px" inkscape:current-layer="g3128" showgrid="true" inkscape:window-width="1680" inkscape:window-height="1026" inkscape:window-x="0" inkscape:window-y="24" inkscape:window-maximized="1" showguides="true">
    <inkscape:grid type="xygrid" id="grid3329" empspacing="5" visible="true" enabled="true" snapvisiblegridlinesonly="true" />
  </sodipodi:namedview>
  <metadata id="metadata7">
    <rdf:RDF>
      <cc:Work rdf:about="">
        <dc:format>image/svg+xml</dc:format>
        <dc:type rdf:resource="http://purl.org/dc/dcmitype/StillImage" />
        <dc:title />
      </cc:Work>
    </rdf:RDF>
  </metadata>
  <g inkscape:label="Layer 1" inkscape:groupmode="layer" id="layer1" transform="translate(0,-1036.3622)">
    <g id="g3128" transform="matrix(1.05,0,0,1.0952381,0.45,-100.22498)">
      <path inkscape:connector-curvature="0" id="rect3018-2" d="m 3.3809526,1039.7507 -1e-7,2.568 -2.85714291,0 -1e-7,1.8262 2.85714301,-10e-5 0,4.936 0,0.8276 0,-0.2854 5.7142856,0 0,2.7392 1.9047619,0 0,-2.7392 2.857143,10e-5 0,-1.8262 -2.857143,0 0,-4.1086 0,-1.3696 0,0 -5.7142856,0 0,-2.7391 -1.9047618,-10e-5 z m 1.9047618,4.3941 3.8095237,0 0,3.6521 -3.8095237,0 z" style="opacity:0.6;fill:#ffffff;fill-opacity:1;stroke:none" sodipodi:nodetypes="ccccccccccccccccccccccccccc" />
      <path inkscape:connector-curvature="0" id="rect3018" d="m 3.3809525,1038.8377 -10e-8,2.568 -2.85714291,0 -10e-8,1.8262 2.85714301,-10e-5 0,4.936 0,0.8276 0,-0.2854 5.7142857,0 0,2.7392 1.9047619,0 0,-2.7392 2.857143,10e-5 0,-1.8262 -2.857143,0 0,-4.1086 0,-1.3696 0,0 -5.7142857,0 0,-2.7391 -1.9047618,-10e-5 z m 1.9047618,4.3941 3.8095238,0 0,3.6521 -3.8095238,0 z" style="opacity:0.7;fill:url(#linearGradient3326);fill-opacity:1;stroke:none" sodipodi:nodetypes="ccccccccccccccccccccccccccc" />
    </g>
  </g>
</svg>
