<?xml version="1.0" encoding="UTF-8" standalone="no"?>
<!-- Created with Inkscape (http://www.inkscape.org/) -->

<svg
   xmlns:dc="http://purl.org/dc/elements/1.1/"
   xmlns:cc="http://creativecommons.org/ns#"
   xmlns:rdf="http://www.w3.org/1999/02/22-rdf-syntax-ns#"
   xmlns:svg="http://www.w3.org/2000/svg"
   xmlns="http://www.w3.org/2000/svg"
   xmlns:xlink="http://www.w3.org/1999/xlink"
   xmlns:sodipodi="http://sodipodi.sourceforge.net/DTD/sodipodi-0.dtd"
   xmlns:inkscape="http://www.inkscape.org/namespaces/inkscape"
   width="16"
   height="16"
   id="svg3330"
   version="1.1"
   inkscape:version="0.48.4 r9939"
   sodipodi:docname="object-flip-vertical.svg">
  <defs
     id="defs3332">
    <linearGradient
       y2="11.02436"
       y1="3.0069399"
       x2="0"
       id="linearGradient1022-8-8-3-0-1-0"
       gradientUnits="userSpaceOnUse">
      <stop
         id="stop3001-0-9-4-2-3"
         offset="0" />
      <stop
         id="stop3003-5-6-6-2-9"
         stop-color="#363636"
         offset="1" />
    </linearGradient>
    <linearGradient
       y2="19.975889"
       x2="-2.5488417"
       y1="8.4068613"
       x1="-2.5488417"
       gradientTransform="matrix(1.119994,0,0,1.0064811,85.016638,119.49574)"
       gradientUnits="userSpaceOnUse"
       id="linearGradient6043"
       xlink:href="#linearGradient1022-8-8-3-0-1-0"
       inkscape:collect="always" />
  </defs>
  <sodipodi:namedview
     id="base"
     pagecolor="#ffffff"
     bordercolor="#666666"
     borderopacity="1.0"
     inkscape:pageopacity="0.0"
     inkscape:pageshadow="2"
     inkscape:zoom="3.959798"
     inkscape:cx="12.253093"
     inkscape:cy="5.8232452"
     inkscape:document-units="px"
     inkscape:current-layer="capa1"
     showgrid="false"
     inkscape:showpageshadow="false"
     inkscape:window-width="673"
     inkscape:window-height="598"
     inkscape:window-x="534"
     inkscape:window-y="285"
     inkscape:window-maximized="0" />
  <metadata
     id="metadata3335">
    <rdf:RDF>
      <cc:Work
         rdf:about="">
        <dc:format>image/svg+xml</dc:format>
        <dc:type
           rdf:resource="http://purl.org/dc/dcmitype/StillImage" />
        <dc:title />
      </cc:Work>
    </rdf:RDF>
  </metadata>
  <g
     inkscape:label="Capa 1"
     inkscape:groupmode="layer"
     id="capa1"
     transform="translate(0,-1036.3622)">
    <g
       transform="translate(-215,600.00002)"
       id="object-flip-vertical">
      <rect
         y="436.36218"
         x="215"
         height="16"
         width="16"
         id="rect3041"
         style="opacity:0.6;color:#000000;fill:none;stroke:none;stroke-width:1;marker:none;visibility:visible;display:inline;overflow:visible;enable-background:accumulate" />
      <path
         id="path4202"
         d="m 223,438.36218 -3,3 0,2 3,-3 3,3 0,-2 -3,-3 z m 0,3 -1,1 0,6 1,1 1,-1 0,-6 -1,-1 z m -3,6 0,2 3,3 3,-3 0,-2 -3,3 -3,-3 z"
         style="opacity:0.6;color:#000000;fill:#ffffff;fill-opacity:1;fill-rule:nonzero;stroke:none;stroke-width:1;marker:none;visibility:visible;display:inline;overflow:visible;enable-background:accumulate"
         inkscape:connector-curvature="0" />
      <path
         inkscape:connector-curvature="0"
         style="opacity:0.7;color:#000000;fill:url(#linearGradient6043);fill-opacity:1;fill-rule:nonzero;stroke:none;stroke-width:1;marker:none;visibility:visible;display:inline;overflow:visible;enable-background:accumulate"
         d="m 223,129.09375 -3,3 0,2 3,-3 3,3 0,-2 -3,-3 z m 0,3 -1,1 0,6 1,1 1,-1 0,-6 -1,-1 z m -3,6 0,2 3,3 3,-3 0,-2 -3,3 -3,-3 z"
         transform="translate(0,308.2677)"
         id="path6851" />
    </g>
  </g>
</svg>
