<?xml version="1.0" encoding="UTF-8" standalone="no"?>
<!-- Created with Inkscape (http://www.inkscape.org/) -->

<svg
   xmlns:dc="http://purl.org/dc/elements/1.1/"
   xmlns:cc="http://creativecommons.org/ns#"
   xmlns:rdf="http://www.w3.org/1999/02/22-rdf-syntax-ns#"
   xmlns:svg="http://www.w3.org/2000/svg"
   xmlns="http://www.w3.org/2000/svg"
   xmlns:sodipodi="http://sodipodi.sourceforge.net/DTD/sodipodi-0.dtd"
   xmlns:inkscape="http://www.inkscape.org/namespaces/inkscape"
   width="16"
   height="16"
   id="svg3330"
   version="1.1"
   inkscape:version="0.48.4 r9939"
   sodipodi:docname="system-restart-panel.svg">
  <defs
     id="defs3332" />
  <sodipodi:namedview
     id="base"
     pagecolor="#ffffff"
     bordercolor="#666666"
     borderopacity="1.0"
     inkscape:pageopacity="0.0"
     inkscape:pageshadow="2"
     inkscape:zoom="44.8"
     inkscape:cx="10.984714"
     inkscape:cy="8.1630532"
     inkscape:document-units="px"
     inkscape:current-layer="capa1"
     showgrid="true"
     inkscape:showpageshadow="false"
     inkscape:window-width="1215"
     inkscape:window-height="1000"
     inkscape:window-x="65"
     inkscape:window-y="24"
     inkscape:window-maximized="1">
    <inkscape:grid
       type="xygrid"
       id="grid3004" />
  </sodipodi:namedview>
  <metadata
     id="metadata3335">
    <rdf:RDF>
      <cc:Work
         rdf:about="">
        <dc:format>image/svg+xml</dc:format>
        <dc:type
           rdf:resource="http://purl.org/dc/dcmitype/StillImage" />
        <dc:title />
      </cc:Work>
    </rdf:RDF>
  </metadata>
  <g
     inkscape:label="Capa 1"
     inkscape:groupmode="layer"
     id="capa1"
     transform="translate(0,-1036.3622)">
    <path
       sodipodi:nodetypes="cccccccccccccccccccccccccccccccccccccccccccccccc"
       inkscape:connector-curvature="0"
       id="path3013"
       d="m 7,1038.3622 0,4 2,0 0,-4 z m -4,1 -1,0 0,1 3,3 1,0 0,-1 z m 10,0 -3,3 0,1 1,0 3,-3 0,-1 z m -12,5 0,2 4,0 0,-2 z m 10,0 0,2 4,0 0,-2 z m -6,3 -3,3 0,1 1,0 3,-3 0,-1 z m 6,0 -1,0 0,1 3,3 1,0 0,-1 z m -4,1 0,4 2,0 0,-4 z"
       style="opacity:0.6;color:#000000;fill:#ffffff;fill-opacity:1;fill-rule:nonzero;stroke:none;stroke-width:1;marker:none;visibility:visible;display:inline;overflow:visible;enable-background:accumulate" />
    <path
       style="opacity:1;color:#000000;fill:#3b81bd;fill-opacity:1;fill-rule:nonzero;stroke:none;stroke-width:1;marker:none;visibility:visible;display:inline;overflow:visible;enable-background:accumulate"
       d="M 7,1 7,5 9,5 9,1 z M 3,2 2,2 2,3 5,6 6,6 6,5 z m 10,0 -3,3 0,1 1,0 3,-3 0,-1 z M 1,7 1,9 5,9 5,7 z m 10,0 0,2 4,0 0,-2 z m -6,3 -3,3 0,1 1,0 3,-3 0,-1 z m 6,0 -1,0 0,1 3,3 1,0 0,-1 z m -4,1 0,4 2,0 0,-4 z"
       transform="translate(0,1036.3622)"
       id="rect3021"
       inkscape:connector-curvature="0"
       sodipodi:nodetypes="cccccccccccccccccccccccccccccccccccccccccccccccc" />
  </g>
</svg>
