<?xml version="1.0" encoding="UTF-8" standalone="no"?>
<!-- Created with Inkscape (http://www.inkscape.org/) -->

<svg xmlns:dc="http://purl.org/dc/elements/1.1/" xmlns:cc="http://creativecommons.org/ns#" xmlns:rdf="http://www.w3.org/1999/02/22-rdf-syntax-ns#" xmlns:svg="http://www.w3.org/2000/svg" xmlns="http://www.w3.org/2000/svg" xmlns:xlink="http://www.w3.org/1999/xlink" xmlns:sodipodi="http://sodipodi.sourceforge.net/DTD/sodipodi-0.dtd" xmlns:inkscape="http://www.inkscape.org/namespaces/inkscape" width="16" height="16" id="svg6662" version="1.1" inkscape:version="0.48.3.1 r9886" sodipodi:docname="system-upgrade.svg">
  <defs id="defs6664">
    <linearGradient y2="11.02436" y1="3.0069399" x2="0" id="linearGradient1022-8-8-3-0-2-99" gradientUnits="userSpaceOnUse">
      <stop id="stop3001-0-9-4-1-0" offset="0" />
      <stop id="stop3003-5-6-6-1-3" stop-color="#363636" offset="1" />
    </linearGradient>
    <linearGradient inkscape:collect="always" xlink:href="#linearGradient1022-8-8-3-0-2-99" id="linearGradient3014" gradientUnits="userSpaceOnUse" gradientTransform="matrix(1.679991,0,0,1.5097216,-194.97504,449.0038)" x1="124.09295" y1="-296.74573" x2="124.09295" y2="-281.84232" />
  </defs>
  <sodipodi:namedview id="base" pagecolor="#ffffff" bordercolor="#666666" borderopacity="1.0" inkscape:pageopacity="0.0" inkscape:pageshadow="2" inkscape:zoom="11.313708" inkscape:cx="-4.6609498" inkscape:cy="2.7539854" inkscape:document-units="px" inkscape:current-layer="capa1" showgrid="false" inkscape:showpageshadow="false" inkscape:window-width="1680" inkscape:window-height="1026" inkscape:window-x="0" inkscape:window-y="24" inkscape:window-maximized="1" width="22px" />
  <metadata id="metadata6667">
    <rdf:RDF>
      <cc:Work rdf:about="">
        <dc:format>image/svg+xml</dc:format>
        <dc:type rdf:resource="http://purl.org/dc/dcmitype/StillImage" />
        <dc:title />
      </cc:Work>
    </rdf:RDF>
  </metadata>
  <g inkscape:label="Capa 1" inkscape:groupmode="layer" id="capa1" transform="translate(0,-1036.3622)">
    <g id="g3010" transform="matrix(0.72222222,0,0,0.71428571,0.05555558,300.67492)">
      <path id="rect4247-6" d="m 4,1032.3622 -2,2 0,16 2,2 14,0 2,-2 0,-16 -2,-2 -14,0 z m 1,2 12,0 1,1 0,14 -1,1 -12,0 -1,-1 0,-14 1,-1 z m 6,1.75 c -0.287025,2e-4 -1.328676,2.2649 -1.59375,2.375 -0.265073,0.1102 -2.640985,-0.7344 -2.84375,-0.5312 -0.202768,0.203 0.67209,2.5473 0.5625,2.8125 -0.109591,0.2654 -2.37527,1.3066 -2.375,1.5937 2.69e-4,0.2871 2.264911,1.3287 2.375,1.5938 0.11009,0.2651 -0.734398,2.6409 -0.53125,2.8437 0.203147,0.2028 2.54722,-0.672 2.8125,-0.5625 0.26528,0.1092 1.306725,2.3752 1.59375,2.375 0.287025,-2e-4 1.328677,-2.2649 1.59375,-2.375 0.265074,-0.1102 2.640984,0.7344 2.84375,0.5313 0.202767,-0.2031 -0.672091,-2.5473 -0.5625,-2.8125 0.109591,-0.2652 2.37527,-1.3067 2.375,-1.5938 -2.7e-4,-0.2871 -2.264912,-1.3286 -2.375,-1.5937 -0.110091,-0.2651 0.734397,-2.641 0.53125,-2.8438 -0.203148,-0.2028 -2.547219,0.672 -2.8125,0.5625 -0.265279,-0.1092 -1.306725,-2.3752 -1.59375,-2.375 z m 0,3.4688 2.59375,2.9687 -1.5,0 0,2.5938 -2.1875,0 0,-2.5938 -1.5,0 L 11,1039.581 z" style="opacity:0.6;color:#000000;fill:#ffffff;fill-opacity:1;fill-rule:nonzero;stroke:none;stroke-width:1;marker:none;visibility:visible;display:inline;overflow:visible;enable-background:accumulate" inkscape:connector-curvature="0" />
      <path id="rect4247" transform="translate(0,1030.3622)" d="M 4,1 2,3 2,19 4,21 18,21 20,19 20,3 18,1 4,1 z m 1,2 12,0 1,1 0,14 -1,1 L 5,19 4,18 4,4 5,3 z m 6,1.75 C 10.712975,4.7502 9.6713243,7.0149 9.40625,7.125 9.1411773,7.2352 6.7652658,6.39055 6.5625,6.59375 6.3597329,6.79675 7.2345908,9.14105 7.125,9.40625 7.015409,9.67165 4.7497307,10.7129 4.75,11 c 2.693e-4,0.2871 2.2649113,1.32865 2.375,1.59375 0.1100908,0.2651 -0.7343977,2.64095 -0.53125,2.84375 0.2031478,0.2028 2.5472205,-0.672 2.8125,-0.5625 0.2652806,0.1092 1.306725,2.3752 1.59375,2.375 0.287025,-2e-4 1.328677,-2.2649 1.59375,-2.375 0.265074,-0.1102 2.640984,0.73435 2.84375,0.53125 0.202767,-0.2031 -0.672091,-2.5473 -0.5625,-2.8125 C 14.984591,12.32855 17.25027,11.2871 17.25,11 17.24973,10.7129 14.985088,9.67135 14.875,9.40625 14.764909,9.14115 15.609397,6.7653 15.40625,6.5625 15.203102,6.3597 12.859031,7.2345 12.59375,7.125 12.328471,7.0158 11.287025,4.7498 11,4.75 z m 0,3.46875 2.59375,2.96875 -1.5,0 0,2.59375 -2.1875,0 0,-2.59375 -1.5,0 L 11,8.21875 z" style="opacity:0.7;color:#000000;fill:url(#linearGradient3014);fill-opacity:1;fill-rule:nonzero;stroke:none;stroke-width:1;marker:none;visibility:visible;display:inline;overflow:visible;enable-background:accumulate" inkscape:connector-curvature="0" />
    </g>
  </g>
</svg>
