<?xml version="1.0" encoding="UTF-8" standalone="no"?>
<svg
   xmlns:dc="http://purl.org/dc/elements/1.1/"
   xmlns:cc="http://creativecommons.org/ns#"
   xmlns:rdf="http://www.w3.org/1999/02/22-rdf-syntax-ns#"
   xmlns:svg="http://www.w3.org/2000/svg"
   xmlns="http://www.w3.org/2000/svg"
   xmlns:sodipodi="http://sodipodi.sourceforge.net/DTD/sodipodi-0.dtd"
   xmlns:inkscape="http://www.inkscape.org/namespaces/inkscape"
   viewBox="0 0 16 16"
   id="svg3220"
   version="1.1"
   inkscape:version="0.48.3.1 r9886"
   width="100%"
   height="100%"
   sodipodi:docname="tab-new.svg">
  <metadata
     id="metadata3237">
    <rdf:RDF>
      <cc:Work
         rdf:about="">
        <dc:format>image/svg+xml</dc:format>
        <dc:type
           rdf:resource="http://purl.org/dc/dcmitype/StillImage" />
      </cc:Work>
    </rdf:RDF>
  </metadata>
  <sodipodi:namedview
     pagecolor="#ffffff"
     bordercolor="#666666"
     borderopacity="1"
     objecttolerance="10"
     gridtolerance="10"
     guidetolerance="10"
     inkscape:pageopacity="0"
     inkscape:pageshadow="2"
     inkscape:window-width="745"
     inkscape:window-height="565"
     id="namedview3235"
     showgrid="true"
     inkscape:zoom="14.75"
     inkscape:cx="8"
     inkscape:cy="8.4067796"
     inkscape:window-x="478"
     inkscape:window-y="289"
     inkscape:window-maximized="0"
     inkscape:current-layer="svg3220">
    <inkscape:grid
       type="xygrid"
       id="grid2987" />
  </sodipodi:namedview>
  <defs
     id="defs3222">
    <linearGradient
       gradientUnits="userSpaceOnUse"
       id="linearGradient1022-2-3"
       x2="0"
       y1="-3.43033"
       y2="5.73244"
       gradientTransform="matrix(0.8750005,0,0,0.87500037,1,2)">
      <stop
         offset="0"
         id="stop3225" />
      <stop
         offset="1"
         stop-color="#363636"
         id="stop3227" />
    </linearGradient>
  </defs>
  <title
     id="title3229">Gnome Symbolic Icon Theme</title>
  <path
     inkscape:connector-curvature="0"
     style="opacity:0.6;color:#000000;fill:#ffffff;fill-opacity:1;fill-rule:nonzero;stroke-width:1;stroke-linecap:butt;stroke-linejoin:miter;stroke-miterlimit:4;stroke-opacity:1;stroke-dasharray:none;stroke-dashoffset:0;marker:none;visibility:visible;display:inline;overflow:visible;enable-background:accumulate"
     id="path2999"
     d="M 2.9999974,3 C 2.1164131,3 1,4.1069017 1,4.9999971 V 15 H 2.9999974 V 6.1752714 c 0,-1.2436469 1.0160856,-1.1752743 1.0160856,-1.1752743 h 8.137182 c 0,0 0.846737,-0.068093 0.846737,1.0059267 V 15 H 15 V 4.9999971 C 15,4.1068579 13.883604,3 13.000002,3 z M 7.0000009,7.0000029 V 9 H 5.0000035 v 1.999997 h 1.9999974 v 2.000006 H 8.9999983 V 10.999997 H 10.999996 V 9 H 8.9999983 V 7.0000029 z" />
  <path
     d="M 2.9999974,2 C 2.1164131,2 1,3.1069017 1,3.9999971 V 14 H 2.9999974 V 5.1752714 c 0,-1.2436469 1.0160856,-1.1752743 1.0160856,-1.1752743 h 8.137182 c 0,0 0.846737,-0.068093 0.846737,1.0059267 V 14 H 15 V 3.9999971 C 15,3.1068579 13.883604,2 13.000002,2 z M 7.0000009,6.0000029 V 8 H 5.0000035 V 9.9999968 H 7.0000009 V 12.000003 H 8.9999983 V 9.9999968 H 10.999996 V 8 H 8.9999983 V 6.0000029 z"
     id="path3233"
     style="opacity:0.7;fill:url(#linearGradient1022-2-3)"
     inkscape:connector-curvature="0" />
</svg>
