<?xml version="1.0" encoding="UTF-8" standalone="no"?>
<!-- Created with Inkscape (http://www.inkscape.org/) -->

<svg xmlns:dc="http://purl.org/dc/elements/1.1/" xmlns:cc="http://creativecommons.org/ns#" xmlns:rdf="http://www.w3.org/1999/02/22-rdf-syntax-ns#" xmlns:svg="http://www.w3.org/2000/svg" xmlns="http://www.w3.org/2000/svg" xmlns:xlink="http://www.w3.org/1999/xlink" xmlns:sodipodi="http://sodipodi.sourceforge.net/DTD/sodipodi-0.dtd" xmlns:inkscape="http://www.inkscape.org/namespaces/inkscape" width="16" height="16" id="svg3330" version="1.1" inkscape:version="0.48.3.1 r9886" sodipodi:docname="tab-new.svg">
  <defs id="defs3332">
    <linearGradient y2="11.02436" y1="3.0069399" x2="0" id="linearGradient1022-8-8-3-0-2-55" gradientUnits="userSpaceOnUse">
      <stop id="stop3001-0-9-4-1-5" offset="0" />
      <stop id="stop3003-5-6-6-1-5" stop-color="#363636" offset="1" />
    </linearGradient>
    <linearGradient y2="-286.81085" x2="141.9502" y1="-296.74646" x1="141.9502" gradientTransform="matrix(1.119994,0,0,1.0064811,66.016638,367.76344)" gradientUnits="userSpaceOnUse" id="linearGradient3646" xlink:href="#linearGradient1022-8-8-3-0-2-55" inkscape:collect="always" />
  </defs>
  <sodipodi:namedview id="base" pagecolor="#ffffff" bordercolor="#666666" borderopacity="1.0" inkscape:pageopacity="0.0" inkscape:pageshadow="2" inkscape:zoom="3.959798" inkscape:cx="9.9802495" inkscape:cy="8.0960884" inkscape:document-units="px" inkscape:current-layer="capa1" showgrid="false" inkscape:showpageshadow="false" inkscape:window-width="673" inkscape:window-height="598" inkscape:window-x="537" inkscape:window-y="241" inkscape:window-maximized="0" />
  <metadata id="metadata3335">
    <rdf:RDF>
      <cc:Work rdf:about="">
        <dc:format>image/svg+xml</dc:format>
        <dc:type rdf:resource="http://purl.org/dc/dcmitype/StillImage" />
        <dc:title />
      </cc:Work>
    </rdf:RDF>
  </metadata>
  <g inkscape:label="Capa 1" inkscape:groupmode="layer" id="capa1" transform="translate(0,-1036.3622)">
    <g id="tab-new" transform="translate(-215,660.00002)">
      <rect y="376.36218" x="215" height="16" width="16" id="rect3005" style="opacity:0.6;color:#000000;fill:none;stroke:none;stroke-width:1;marker:none;visibility:visible;display:inline;overflow:visible;enable-background:accumulate" />
      <path style="opacity:0.6;color:#000000;fill:#ffffff;fill-opacity:1;fill-rule:nonzero;stroke:none;stroke-width:1;marker:none;visibility:visible;display:inline;overflow:visible;enable-background:accumulate" d="m 219,378.36218 -2,2 0,8.99927 -1,0 0,2 3,0 0,-10 1.07813,-1 5.92187,0 1,1 0,10 3,0 0,-2 -1,-0.0312 0,-8.96802 -2,-2 z m 3,3.99854 0,2 -2,0 0,2 2,0 0,2 2,0 0,-2 2,0 0,-2 -2,0 0,-2 z" id="path3806" inkscape:connector-curvature="0" sodipodi:nodetypes="cccccccccccccccccccccccccccccc" />
      <path sodipodi:nodetypes="cccccccccccccccccccccccccccccc" inkscape:connector-curvature="0" id="path4281" transform="translate(0,308.2677)" d="m 219,69.095214 -2,2 0,8.999268 -1,0 0,2 3,0 0,-10 1.07813,-1 5.92187,0 1,1 0,10 3,0 0,-2 -1,-0.03125 0,-8.968016 -2,-2 z m 3,3.998536 0,2 -2,0 0,2 2,0 0,2 2,0 0,-2 2,0 0,-2 -2,0 0,-2 z" style="opacity:0.7;color:#000000;fill:url(#linearGradient3646);fill-opacity:1;fill-rule:nonzero;stroke:none;stroke-width:1;marker:none;visibility:visible;display:inline;overflow:visible;enable-background:accumulate" />
    </g>
  </g>
</svg>
