<?xml version="1.0" encoding="UTF-8" standalone="no"?>
<svg
   xmlns:dc="http://purl.org/dc/elements/1.1/"
   xmlns:cc="http://creativecommons.org/ns#"
   xmlns:rdf="http://www.w3.org/1999/02/22-rdf-syntax-ns#"
   xmlns:svg="http://www.w3.org/2000/svg"
   xmlns="http://www.w3.org/2000/svg"
   xmlns:xlink="http://www.w3.org/1999/xlink"
   xmlns:sodipodi="http://sodipodi.sourceforge.net/DTD/sodipodi-0.dtd"
   xmlns:inkscape="http://www.inkscape.org/namespaces/inkscape"
   viewBox="0 0 16 16"
   id="svg3038"
   version="1.1"
   inkscape:version="0.48.3.1 r9886"
   width="100%"
   height="100%"
   sodipodi:docname="view-refresh.svg">
  <metadata
     id="metadata3055">
    <rdf:RDF>
      <cc:Work
         rdf:about="">
        <dc:format>image/svg+xml</dc:format>
        <dc:type
           rdf:resource="http://purl.org/dc/dcmitype/StillImage" />
      </cc:Work>
    </rdf:RDF>
  </metadata>
  <sodipodi:namedview
     pagecolor="#ffffff"
     bordercolor="#666666"
     borderopacity="1"
     objecttolerance="10"
     gridtolerance="10"
     guidetolerance="10"
     inkscape:pageopacity="0"
     inkscape:pageshadow="2"
     inkscape:window-width="829"
     inkscape:window-height="722"
     id="namedview3053"
     showgrid="true"
     inkscape:zoom="11.313708"
     inkscape:cx="8"
     inkscape:cy="8.5916794"
     inkscape:window-x="383"
     inkscape:window-y="187"
     inkscape:window-maximized="0"
     inkscape:current-layer="svg3038">
    <inkscape:grid
       type="xygrid"
       id="grid2987"
       empspacing="5"
       visible="true"
       enabled="true"
       snapvisiblegridlinesonly="true" />
  </sodipodi:namedview>
  <defs
     id="defs3040">
    <linearGradient
       gradientUnits="userSpaceOnUse"
       id="linearGradient1022-8"
       x2="0"
       y1="3.0069399"
       y2="11.02436">
      <stop
         offset="0"
         id="stop3043" />
      <stop
         offset="1"
         stop-color="#363636"
         id="stop3045" />
    </linearGradient>
    <linearGradient
       inkscape:collect="always"
       xlink:href="#linearGradient1022-8"
       id="linearGradient3631"
       gradientUnits="userSpaceOnUse"
       y1="3.0069399"
       x2="0"
       y2="11.02436"
       gradientTransform="matrix(1.047469,0,0,1.047469,0.209833,0.145558)" />
    <linearGradient
       inkscape:collect="always"
       xlink:href="#linearGradient1022-8-9"
       id="linearGradient3631-2"
       gradientUnits="userSpaceOnUse"
       y1="3.0069399"
       x2="0"
       y2="11.02436"
       gradientTransform="matrix(1.047469,0,0,1.047469,0.4779,0.085124)" />
    <linearGradient
       gradientUnits="userSpaceOnUse"
       id="linearGradient1022-8-9"
       x2="0"
       y1="3.0069399"
       y2="11.02436">
      <stop
         offset="0"
         id="stop3043-0" />
      <stop
         offset="1"
         stop-color="#363636"
         id="stop3045-6" />
    </linearGradient>
    <linearGradient
       y2="11.02436"
       x2="0"
       y1="3.0069399"
       gradientTransform="matrix(1.047469,0,0,1.047469,-3.6660996,-4.189876)"
       gradientUnits="userSpaceOnUse"
       id="linearGradient3015"
       xlink:href="#linearGradient1022-8-9"
       inkscape:collect="always" />
    <linearGradient
       inkscape:collect="always"
       xlink:href="#linearGradient1022-8-9"
       id="linearGradient3058"
       gradientUnits="userSpaceOnUse"
       gradientTransform="matrix(1.047469,0,0,1.047469,-2.3928555,2.1749402)"
       y1="3.0069399"
       x2="0"
       y2="11.02436" />
    <linearGradient
       inkscape:collect="always"
       xlink:href="#linearGradient1022-8-9"
       id="linearGradient3003"
       gradientUnits="userSpaceOnUse"
       gradientTransform="matrix(1.047469,0,0,1.047469,-2.3928555,2.1749402)"
       y1="3.0069399"
       x2="0"
       y2="11.02436" />
    <linearGradient
       inkscape:collect="always"
       xlink:href="#linearGradient1022-8-9"
       id="linearGradient3005"
       gradientUnits="userSpaceOnUse"
       gradientTransform="matrix(1.047469,0,0,1.047469,0.4779,0.085124)"
       y1="3.0069399"
       x2="0"
       y2="11.02436" />
    <linearGradient
       inkscape:collect="always"
       xlink:href="#linearGradient1022-8-9"
       id="linearGradient3008"
       gradientUnits="userSpaceOnUse"
       gradientTransform="matrix(1.047469,0,0,1.047469,-2.7739008,2.4927824)"
       y1="3.0069399"
       x2="0"
       y2="11.02436" />
    <linearGradient
       inkscape:collect="always"
       xlink:href="#linearGradient1022-8-9"
       id="linearGradient3013"
       gradientUnits="userSpaceOnUse"
       gradientTransform="matrix(1.0468869,0,0,1.0441349,-240.39136,-624.87628)"
       y1="3.0069399"
       x2="0"
       y2="11.02436" />
  </defs>
  <path
     d="m 12.899909,3.0068229 a 0.99954428,0.99691664 0 0 0 -0.124932,0.0311 0.99954428,0.99691664 0 0 0 -0.780816,0.9968169 v 1.682129 C 11.612125,5.1407488 11.145363,4.6381138 10.588743,4.2216437 9.4337844,3.3576327 8.0581498,2.9733298 6.7158961,3.0379235 6.5241428,3.0468948 6.3438731,3.0731111 6.1537087,3.1002246 4.6323545,3.3169426 3.1771637,4.1199684 2.187114,5.4365642 0.20701498,8.0695565 0.76520468,11.841112 3.4052369,13.816007 6.045269,15.7909 9.8266667,15.234177 11.806766,12.601086 a 1.0057409,1.0030969 0 0 0 0.189894,-0.59809 1.0057409,1.0030969 0 0 0 0,-0.155753 v -0.841064 h -0.812049 -0.09364 a 1.0057409,1.0030969 0 0 0 -0.09365,0 1.0057409,1.0030969 0 0 0 -0.81205,0.404956 C 8.8534078,13.18218 6.3703882,13.518306 4.5945756,12.189899 2.8188629,10.861541 2.4818502,8.3850491 3.8137597,6.6139047 5.1456192,4.8428599 7.6286387,4.5067334 9.4044518,5.8351415 9.8336728,6.1562361 10.173564,6.5657585 10.435079,7.0188616 H 8.9983771 a 0.99954428,0.99691664 0 0 0 -0.9994443,0.9968171 0.99954428,0.99691664 0 0 0 0,0.2180536 v 0.7787633 h 0.8432811 0.1561632 3.9977769 0.999445 V 8.0156787 4.0284108 a 0.99954428,0.99691664 0 0 0 0,-0.1869033 V 3.0315938 H 13.18355 a 0.99954428,0.99691664 0 0 0 -0.281093,-0.0311 z"
     style="text-indent:0;text-transform:none;block-progression:tb;opacity:0.42000002;color:#000000;fill:#ffffff;fill-opacity:1;fill-rule:nonzero;stroke-width:0.84353656;stroke-linecap:butt;stroke-linejoin:miter;stroke-miterlimit:4;stroke-opacity:1;stroke-dasharray:none;stroke-dashoffset:0;marker:none;visibility:visible;display:inline;overflow:visible;enable-background:accumulate"
     id="path2999"
     inkscape:connector-curvature="0" />
  <path
     inkscape:connector-curvature="0"
     id="path4597"
     style="text-indent:0;text-transform:none;block-progression:tb;opacity:0.7;color:#000000;fill:url(#linearGradient3013);fill-opacity:1;fill-rule:nonzero;stroke-width:1;stroke-linecap:butt;stroke-linejoin:miter;stroke-miterlimit:4;stroke-opacity:1;stroke-dasharray:none;stroke-dashoffset:0;marker:none;visibility:visible;display:inline;overflow:visible;enable-background:accumulate"
     d="m 12.899909,2.0068225 a 0.99954428,0.99691664 0 0 0 -0.124932,0.0311 0.99954428,0.99691664 0 0 0 -0.780816,0.9968169 v 1.682129 C 11.612125,4.1407484 11.145363,3.6381134 10.588743,3.2216433 9.4337844,2.3576323 8.0581498,1.9733294 6.7158961,2.0379231 6.5241428,2.0468944 6.3438731,2.0731107 6.1537087,2.1002242 4.6323545,2.3169422 3.1771637,3.119968 2.187114,4.4365638 0.20701498,7.0695561 0.76520468,10.841112 3.4052369,12.816007 6.045269,14.7909 9.8266667,14.234177 11.806766,11.601086 a 1.0057409,1.0030969 0 0 0 0.189894,-0.59809 1.0057409,1.0030969 0 0 0 0,-0.155753 v -0.841064 h -0.812049 -0.09364 a 1.0057409,1.0030969 0 0 0 -0.09365,0 1.0057409,1.0030969 0 0 0 -0.81205,0.404956 C 8.8534078,12.18218 6.3703882,12.518306 4.5945756,11.189899 2.8188629,9.8615407 2.4818502,7.3850487 3.8137597,5.6139043 5.1456192,3.8428595 7.6286387,3.506733 9.4044518,4.8351411 9.8336728,5.1562357 10.173564,5.5657581 10.435079,6.0188612 H 8.9983771 a 0.99954428,0.99691664 0 0 0 -0.9994443,0.9968171 0.99954428,0.99691664 0 0 0 0,0.2180536 v 0.7787633 h 0.8432811 0.1561632 3.9977769 0.999445 V 7.0156783 3.0284104 a 0.99954428,0.99691664 0 0 0 0,-0.1869033 V 2.0315934 H 13.18355 a 0.99954428,0.99691664 0 0 0 -0.281093,-0.0311 z" />
</svg>
