<?xml version="1.0" encoding="UTF-8" standalone="no"?>
<!-- Created with Inkscape (http://www.inkscape.org/) -->

<svg
   xmlns:dc="http://purl.org/dc/elements/1.1/"
   xmlns:cc="http://creativecommons.org/ns#"
   xmlns:rdf="http://www.w3.org/1999/02/22-rdf-syntax-ns#"
   xmlns:svg="http://www.w3.org/2000/svg"
   xmlns="http://www.w3.org/2000/svg"
   xmlns:xlink="http://www.w3.org/1999/xlink"
   xmlns:sodipodi="http://sodipodi.sourceforge.net/DTD/sodipodi-0.dtd"
   xmlns:inkscape="http://www.inkscape.org/namespaces/inkscape"
   width="16"
   height="16"
   id="svg3330"
   version="1.1"
   inkscape:version="0.48.4 r9939"
   sodipodi:docname="view-fullscreen.svg">
  <defs
     id="defs3332">
    <linearGradient
       y2="11.02436"
       y1="3.0069399"
       x2="0"
       id="linearGradient1022-8-8-3-0-1-5"
       gradientUnits="userSpaceOnUse">
      <stop
         id="stop3001-0-9-4-2-41"
         offset="0" />
      <stop
         id="stop3003-5-6-6-2-82"
         stop-color="#363636"
         offset="1" />
    </linearGradient>
    <linearGradient
       inkscape:collect="always"
       xlink:href="#linearGradient1022-8-8-3-0-1-5"
       id="linearGradient3022"
       gradientUnits="userSpaceOnUse"
       gradientTransform="matrix(1.119994,0,0,1.0064811,-149.98336,-8.598)"
       x1="143.73592"
       y1="9.5361948"
       x2="143.73592"
       y2="23.446043" />
  </defs>
  <sodipodi:namedview
     id="base"
     pagecolor="#ffffff"
     bordercolor="#666666"
     borderopacity="1.0"
     inkscape:pageopacity="0.0"
     inkscape:pageshadow="2"
     inkscape:zoom="22.4"
     inkscape:cx="12.253093"
     inkscape:cy="5.9348523"
     inkscape:document-units="px"
     inkscape:current-layer="capa1"
     showgrid="true"
     inkscape:showpageshadow="false"
     inkscape:window-width="1280"
     inkscape:window-height="976"
     inkscape:window-x="0"
     inkscape:window-y="24"
     inkscape:window-maximized="1"
     inkscape:snap-bbox="true">
    <inkscape:grid
       type="xygrid"
       id="grid2990" />
  </sodipodi:namedview>
  <metadata
     id="metadata3335">
    <rdf:RDF>
      <cc:Work
         rdf:about="">
        <dc:format>image/svg+xml</dc:format>
        <dc:type
           rdf:resource="http://purl.org/dc/dcmitype/StillImage" />
        <dc:title />
      </cc:Work>
    </rdf:RDF>
  </metadata>
  <g
     inkscape:label="Capa 1"
     inkscape:groupmode="layer"
     id="capa1"
     transform="translate(0,-1036.3622)">
    <path
       id="path3024"
       d="m 3,1038.3622 -2,2 0,4 2,0 0,-3 1,-1 3,0 0,-2 -4,0 z m 6,0 0,2 3,0 1,1 0,3 2,0 0,-4 -2,-2 -4,0 z m -8,8 0,4 2,2 4,0 0,-2 -3,0 -1,-1 0,-3 -2,0 z m 12,0 0,3 -1,1 -3,0 0,2 4,0 2,-2 0,-4 -2,0 z"
       style="opacity:0.59999999999999998;color:black;fill:white;fill-opacity:1;fill-rule:nonzero;stroke:none;stroke-width:1;marker:none;visibility:visible;display:inline;overflow:visible;enable-background:accumulate"
       inkscape:connector-curvature="0" />
    <path
       style="opacity:0.69999999999999996;color:black;fill:url(#linearGradient3022);fill-opacity:1;fill-rule:nonzero;stroke:none;stroke-width:1;marker:none;visibility:visible;display:inline;overflow:visible;enable-background:accumulate"
       d="M 3 1 L 1 3 L 1 7 L 3 7 L 3 4 L 4 3 L 7 3 L 7 1 L 3 1 z M 9 1 L 9 3 L 12 3 L 13 4 L 13 7 L 15 7 L 15 3 L 13 1 L 9 1 z M 1 9 L 1 13 L 3 15 L 7 15 L 7 13 L 4 13 L 3 12 L 3 9 L 1 9 z M 13 9 L 13 12 L 12 13 L 9 13 L 9 15 L 13 15 L 15 13 L 15 9 L 13 9 z "
       transform="translate(0,1036.3622)"
       id="path3003" />
  </g>
</svg>
