<?xml version="1.0" encoding="UTF-8" standalone="no"?>
<!-- Created with Inkscape (http://www.inkscape.org/) -->

<svg
   xmlns:dc="http://purl.org/dc/elements/1.1/"
   xmlns:cc="http://creativecommons.org/ns#"
   xmlns:rdf="http://www.w3.org/1999/02/22-rdf-syntax-ns#"
   xmlns:svg="http://www.w3.org/2000/svg"
   xmlns="http://www.w3.org/2000/svg"
   xmlns:xlink="http://www.w3.org/1999/xlink"
   xmlns:sodipodi="http://sodipodi.sourceforge.net/DTD/sodipodi-0.dtd"
   xmlns:inkscape="http://www.inkscape.org/namespaces/inkscape"
   width="16"
   height="16"
   id="svg3330"
   version="1.1"
   inkscape:version="0.48.4 r9939"
   sodipodi:docname="window-new.svg">
  <defs
     id="defs3332">
    <linearGradient
       y2="11.02436"
       y1="3.0069399"
       x2="0"
       id="linearGradient1022-8-8-3-0-2-99"
       gradientUnits="userSpaceOnUse">
      <stop
         id="stop3001-0-9-4-1-0"
         offset="0" />
      <stop
         id="stop3003-5-6-6-1-3"
         stop-color="#363636"
         offset="1" />
    </linearGradient>
    <linearGradient
       y2="-282.83588"
       x2="122.30723"
       y1="-297.73929"
       x1="122.30723"
       gradientTransform="matrix(1.119994,0,0,1.0064811,66.016638,676.03114)"
       gradientUnits="userSpaceOnUse"
       id="linearGradient3584"
       xlink:href="#linearGradient1022-8-8-3-0-2-99"
       inkscape:collect="always" />
  </defs>
  <sodipodi:namedview
     id="base"
     pagecolor="#ffffff"
     bordercolor="#666666"
     borderopacity="1.0"
     inkscape:pageopacity="0.0"
     inkscape:pageshadow="2"
     inkscape:zoom="31.678384"
     inkscape:cx="10.611595"
     inkscape:cy="8.0803048"
     inkscape:document-units="px"
     inkscape:current-layer="document-new"
     showgrid="true"
     inkscape:showpageshadow="false"
     inkscape:window-width="1280"
     inkscape:window-height="976"
     inkscape:window-x="0"
     inkscape:window-y="24"
     inkscape:window-maximized="1"
     inkscape:snap-bbox="true">
    <inkscape:grid
       type="xygrid"
       id="grid2990" />
  </sodipodi:namedview>
  <metadata
     id="metadata3335">
    <rdf:RDF>
      <cc:Work
         rdf:about="">
        <dc:format>image/svg+xml</dc:format>
        <dc:type
           rdf:resource="http://purl.org/dc/dcmitype/StillImage" />
        <dc:title />
      </cc:Work>
    </rdf:RDF>
  </metadata>
  <g
     inkscape:label="Capa 1"
     inkscape:groupmode="layer"
     id="capa1"
     transform="translate(0,-1036.3622)">
    <g
       transform="translate(-195,660.00002)"
       id="document-new">
      <path
         sodipodi:nodetypes="ccccccccccccccccccccccccccccccc"
         inkscape:connector-curvature="0"
         style="opacity:0.59999999999999998;color:black;fill:white;fill-opacity:1;fill-rule:nonzero;stroke:none;stroke-width:1;marker:none;visibility:visible;display:inline;overflow:visible;enable-background:accumulate"
         d="m 198,377.36218 -2,2 0,11 2,2 10,0 2,-2 0,-10.99927 -2,-2 z m 1,1.99927 8,7.3e-4 1,1 0,9 -1,1 -8,0 -1,-1 0,-9.00073 z m 3,2.00073 0,2 -2,0 0,2 2,0 0,2 2,0 0,-2 2,0 0,-2 -2,0 0,-2 z"
         id="path3003" />
      <path
         id="rect4247"
         d="m 198,376.36218 -2,2 0,11 2,2 10,0 2,-2 0,-10.99927 -2,-2 z m 1,1.99927 8,7.3e-4 1,1 0,9 -1,1 -8,0 -1,-1 0,-9.00073 z m 3,2.00073 0,2 -2,0 0,2 2,0 0,2 2,0 0,-2 2,0 0,-2 -2,0 0,-2 z"
         style="opacity:0.7;color:black;fill:url(#linearGradient3584);fill-opacity:1;fill-rule:nonzero;stroke:none;stroke-width:1;marker:none;visibility:visible;display:inline;overflow:visible;enable-background:accumulate"
         inkscape:connector-curvature="0"
         sodipodi:nodetypes="ccccccccccccccccccccccccccccccc" />
    </g>
  </g>
</svg>
