<?xml version="1.0" encoding="UTF-8" standalone="no"?>
<svg
   xmlns:dc="http://purl.org/dc/elements/1.1/"
   xmlns:cc="http://creativecommons.org/ns#"
   xmlns:rdf="http://www.w3.org/1999/02/22-rdf-syntax-ns#"
   xmlns:svg="http://www.w3.org/2000/svg"
   xmlns="http://www.w3.org/2000/svg"
   xmlns:xlink="http://www.w3.org/1999/xlink"
   xmlns:sodipodi="http://sodipodi.sourceforge.net/DTD/sodipodi-0.dtd"
   xmlns:inkscape="http://www.inkscape.org/namespaces/inkscape"
   viewBox="0 0 16 16"
   id="svg3220"
   version="1.1"
   inkscape:version="0.48.3.1 r9886"
   width="100%"
   height="100%"
   sodipodi:docname="window-new.svg">
  <metadata
     id="metadata3237">
    <rdf:RDF>
      <cc:Work
         rdf:about="">
        <dc:format>image/svg+xml</dc:format>
        <dc:type
           rdf:resource="http://purl.org/dc/dcmitype/StillImage" />
      </cc:Work>
    </rdf:RDF>
  </metadata>
  <sodipodi:namedview
     pagecolor="#ffffff"
     bordercolor="#666666"
     borderopacity="1"
     objecttolerance="10"
     gridtolerance="10"
     guidetolerance="10"
     inkscape:pageopacity="0"
     inkscape:pageshadow="2"
     inkscape:window-width="865"
     inkscape:window-height="743"
     id="namedview3235"
     showgrid="true"
     inkscape:zoom="20.85965"
     inkscape:cx="4.212784"
     inkscape:cy="5.5783525"
     inkscape:window-x="397"
     inkscape:window-y="193"
     inkscape:window-maximized="0"
     inkscape:current-layer="svg3220">
    <inkscape:grid
       type="xygrid"
       id="grid2987" />
  </sodipodi:namedview>
  <defs
     id="defs3222">
    <linearGradient
       gradientUnits="userSpaceOnUse"
       id="linearGradient1022-2-3"
       x2="0"
       y1="-3.43033"
       y2="5.73244"
       gradientTransform="matrix(0.8750005,0,0,0.87500037,1,2)">
      <stop
         offset="0"
         id="stop3225" />
      <stop
         offset="1"
         stop-color="#363636"
         id="stop3227" />
    </linearGradient>
    <linearGradient
       inkscape:collect="always"
       xlink:href="#linearGradient1022-2-3"
       id="linearGradient2994"
       gradientUnits="userSpaceOnUse"
       gradientTransform="matrix(0.8750005,0,0,-0.87500037,1,14.999997)"
       y1="-3.43033"
       x2="0"
       y2="5.73244" />
    <linearGradient
       inkscape:collect="always"
       xlink:href="#linearGradient1022-2-3"
       id="linearGradient2996"
       gradientUnits="userSpaceOnUse"
       gradientTransform="matrix(0.8750005,0,0,0.87500037,1,1.0000029)"
       y1="-3.43033"
       x2="0"
       y2="5.73244" />
    <linearGradient
       inkscape:collect="always"
       xlink:href="#linearGradient1022-2-3"
       id="linearGradient2999"
       gradientUnits="userSpaceOnUse"
       gradientTransform="matrix(0.8750005,0,0,0.87500037,1.0000017,1.0000032)"
       y1="-3.43033"
       x2="0"
       y2="5.73244" />
    <linearGradient
       inkscape:collect="always"
       xlink:href="#linearGradient1022-2-3"
       id="linearGradient3001"
       gradientUnits="userSpaceOnUse"
       gradientTransform="matrix(0.8750005,0,0,0.87500037,1,1.0000029)"
       y1="-3.43033"
       x2="0"
       y2="5.73244" />
  </defs>
  <title
     id="title3229">Gnome Symbolic Icon Theme</title>
  <path
     id="path3004"
     d="M 3,2 C 2.1164157,2 1,3.1069046 1,4 l 0,2 0,6 0,2 c 0,0.893095 1.1164157,2 2,2 l 10,0 c 0.883602,0 2,-1.106861 2,-2 l 0,-2 0,-6 0,-2 C 15,3.1068608 13.883602,2 13,2 L 3,2 z m 0.84375,2 c 0.095258,-0.013022 0.1875,0 0.1875,0 l 8.125,0 C 12.15625,4 13,3.9259803 13,5 l 0,1 0,6 0,1 c 0,1.074017 -0.84375,1 -0.84375,1 l -8.125,0 C 4.03125,14 3,14.056147 3,12.8125 L 3,12 3,6 3,5.1875 C 3,4.2547648 3.5579759,4.0390662 3.84375,4 z M 7,6 7,8 5,8 l 0,2 2,0 0,2 2,0 0,-2 2,0 L 11,8 9,8 9,6 7,6 z"
     style="opacity:0.6;color:#000000;fill:#ffffff;fill-opacity:1;fill-rule:nonzero;stroke-width:1;stroke-linecap:butt;stroke-linejoin:miter;stroke-miterlimit:4;stroke-opacity:1;stroke-dasharray:none;stroke-dashoffset:0;marker:none;visibility:visible;display:inline;overflow:visible;enable-background:accumulate"
     inkscape:connector-curvature="0" />
  <path
     style="opacity:0.69999999999999996;fill:url(#linearGradient3001)"
     d="M 3 1 C 2.1164157 1 1 2.1069046 1 3 L 1 5 L 1 11 L 1 13 C 1 13.893095 2.1164157 15 3 15 L 13 15 C 13.883602 15 15 13.893139 15 13 L 15 11 L 15 5 L 15 3 C 15 2.1068608 13.883602 1 13 1 L 3 1 z M 3.84375 3 C 3.939008 2.9869779 4.03125 3 4.03125 3 L 12.15625 3 C 12.15625 3 13 2.9259803 13 4 L 13 5 L 13 11 L 13 12 C 13 13.074017 12.15625 13 12.15625 13 L 4.03125 13 C 4.03125 13 3 13.056147 3 11.8125 L 3 11 L 3 5 L 3 4.1875 C 3 3.2547648 3.5579759 3.0390662 3.84375 3 z M 7 5 L 7 7 L 5 7 L 5 9 L 7 9 L 7 11 L 9 11 L 9 9 L 11 9 L 11 7 L 9 7 L 9 5 L 7 5 z "
     id="path2990" />
</svg>
