<?xml version="1.0" encoding="UTF-8" standalone="no"?>
<!-- Created with Inkscape (http://www.inkscape.org/) -->

<svg
   xmlns:dc="http://purl.org/dc/elements/1.1/"
   xmlns:cc="http://creativecommons.org/ns#"
   xmlns:rdf="http://www.w3.org/1999/02/22-rdf-syntax-ns#"
   xmlns:svg="http://www.w3.org/2000/svg"
   xmlns="http://www.w3.org/2000/svg"
   xmlns:xlink="http://www.w3.org/1999/xlink"
   xmlns:sodipodi="http://sodipodi.sourceforge.net/DTD/sodipodi-0.dtd"
   xmlns:inkscape="http://www.inkscape.org/namespaces/inkscape"
   id="svg7384"
   height="16"
   width="15.982"
   version="1.1"
   inkscape:version="0.48.3.1 r9886"
   sodipodi:docname="zoom-fit-best.svg">
  <defs
     id="defs9">
    <linearGradient
       gradientTransform="matrix(0.8750005,0,0,0.87500037,1,2)"
       y2="5.73244"
       y1="-3.43033"
       x2="0"
       id="linearGradient1022-2-3-4"
       gradientUnits="userSpaceOnUse">
      <stop
         id="stop3225-4"
         offset="0" />
      <stop
         id="stop3227-4"
         stop-color="#363636"
         offset="1" />
    </linearGradient>
    <linearGradient
       inkscape:collect="always"
       xlink:href="#linearGradient1022-2-3-4-7"
       id="linearGradient3008-7-8"
       gradientUnits="userSpaceOnUse"
       gradientTransform="matrix(0.8750005,0,0,0.87500037,13.999999,3.2e-6)"
       y1="-3.43033"
       x2="0"
       y2="5.73244" />
    <linearGradient
       gradientTransform="matrix(0.8750005,0,0,0.87500037,1,2)"
       y2="5.73244"
       y1="-3.43033"
       x2="0"
       id="linearGradient1022-2-3-4-7"
       gradientUnits="userSpaceOnUse">
      <stop
         id="stop3225-4-8"
         offset="0" />
      <stop
         id="stop3227-4-8"
         stop-color="#363636"
         offset="1" />
    </linearGradient>
    <linearGradient
       inkscape:collect="always"
       xlink:href="#linearGradient1022-2-3-4-8"
       id="linearGradient3008-7-5"
       gradientUnits="userSpaceOnUse"
       gradientTransform="matrix(0.8750005,0,0,0.87500037,13.999999,3.2e-6)"
       y1="-3.43033"
       x2="0"
       y2="5.73244" />
    <linearGradient
       gradientTransform="matrix(0.8750005,0,0,0.87500037,1,2)"
       y2="5.73244"
       y1="-3.43033"
       x2="0"
       id="linearGradient1022-2-3-4-8"
       gradientUnits="userSpaceOnUse">
      <stop
         id="stop3225-4-9"
         offset="0" />
      <stop
         id="stop3227-4-2"
         stop-color="#363636"
         offset="1" />
    </linearGradient>
    <linearGradient
       inkscape:collect="always"
       xlink:href="#linearGradient1022-2-3-4-9"
       id="linearGradient3008-7-56"
       gradientUnits="userSpaceOnUse"
       gradientTransform="matrix(0.8750005,0,0,0.87500037,28.997499,2.0000032)"
       y1="-3.43033"
       x2="0"
       y2="5.73244" />
    <linearGradient
       gradientTransform="matrix(0.8750005,0,0,0.87500037,1,2)"
       y2="5.73244"
       y1="-3.43033"
       x2="0"
       id="linearGradient1022-2-3-4-9"
       gradientUnits="userSpaceOnUse">
      <stop
         id="stop3225-4-0"
         offset="0" />
      <stop
         id="stop3227-4-3"
         stop-color="#363636"
         offset="1" />
    </linearGradient>
    <linearGradient
       y2="5.73244"
       x2="0"
       y1="-3.43033"
       gradientTransform="matrix(0.8750005,0,0,0.87500037,13.999999,3.2e-6)"
       gradientUnits="userSpaceOnUse"
       id="linearGradient3051"
       xlink:href="#linearGradient1022-2-3-4-9"
       inkscape:collect="always" />
  </defs>
  <sodipodi:namedview
     pagecolor="#ffffff"
     bordercolor="#666666"
     borderopacity="1"
     objecttolerance="10"
     gridtolerance="10"
     guidetolerance="10"
     inkscape:pageopacity="0"
     inkscape:pageshadow="2"
     inkscape:window-width="640"
     inkscape:window-height="480"
     id="namedview7"
     showgrid="true"
     inkscape:zoom="14.75"
     inkscape:cx="7.9910002"
     inkscape:cy="8.2033898"
     inkscape:window-x="511"
     inkscape:window-y="142"
     inkscape:window-maximized="0"
     inkscape:current-layer="svg7384">
    <inkscape:grid
       type="xygrid"
       id="grid2986" />
  </sodipodi:namedview>
  <metadata
     id="metadata90">
    <rdf:RDF>
      <cc:Work
         rdf:about="">
        <dc:format>image/svg+xml</dc:format>
        <dc:type
           rdf:resource="http://purl.org/dc/dcmitype/StillImage" />
        <dc:title>Gnome Symbolic Icon Theme</dc:title>
      </cc:Work>
    </rdf:RDF>
  </metadata>
  <title
     id="title9167">Gnome Symbolic Icon Theme</title>
  <path
     sodipodi:nodetypes="ccccccccccccccccccccccccccccccccccccc"
     id="path3177"
     style="opacity:0.6;color:#000000;fill:#ffffff;fill-opacity:1;fill-rule:nonzero;stroke-width:1;stroke-linecap:butt;stroke-linejoin:miter;stroke-miterlimit:4;stroke-opacity:1;stroke-dasharray:none;stroke-dashoffset:0;marker:none;visibility:visible;display:inline;overflow:visible;enable-background:accumulate"
     d="M 3.1875,2.9999 2,4.2187 2,13.7812 3.1875,15 12.8125,15 14,13.7812 14,4.2187 12.8125,2.9999 z m 0.8125,2 3,0 0,2 -1,0 0,1 -2,0 z m 5,0 3,0 0,3 -2,0 0,-1 -1,0 z m -5,5 2,0 0,1 1,0 0,2 -3,0 z m 6,0 2,0 0,3 -3,0 0,-2 1,0 z"
     inkscape:connector-curvature="0" />
  <path
     inkscape:connector-curvature="0"
     d="M 3.1875,2 2,3.2188 l 0,9.5625 1.1875,1.2188 9.625,0 L 14,12.7813 14,3.2188 12.8125,2 z M 4,4 7,4 7,6 6,6 6,7 4,7 z m 5,0 3,0 0,3 -2,0 0,-1 -1,0 z m -5,5 2,0 0,1 1,0 0,2 -3,0 z m 6,0 2,0 0,3 -3,0 0,-2 1,0 z"
     style="opacity:0.7;color:#000000;fill:url(#linearGradient3008-7-56);fill-opacity:1;fill-rule:nonzero;stroke-width:1;stroke-linecap:butt;stroke-linejoin:miter;stroke-miterlimit:4;stroke-opacity:1;stroke-dasharray:none;stroke-dashoffset:0;marker:none;visibility:visible;display:inline;overflow:visible;enable-background:accumulate"
     id="rect11749-5-0-1"
     sodipodi:nodetypes="ccccccccccccccccccccccccccccccccccccc" />
</svg>
