<?xml version="1.0" encoding="UTF-8" standalone="no"?>
<!-- Created with Inkscape (http://www.inkscape.org/) -->

<svg
   xmlns:dc="http://purl.org/dc/elements/1.1/"
   xmlns:cc="http://creativecommons.org/ns#"
   xmlns:rdf="http://www.w3.org/1999/02/22-rdf-syntax-ns#"
   xmlns:svg="http://www.w3.org/2000/svg"
   xmlns="http://www.w3.org/2000/svg"
   xmlns:xlink="http://www.w3.org/1999/xlink"
   version="1.1"
   width="100%"
   height="100%"
   viewBox="0 0 24 24"
   id="svg2">
  <metadata
     id="metadata46">
    <rdf:RDF>
      <cc:Work
         rdf:about="">
        <dc:format>image/svg+xml</dc:format>
        <dc:type
           rdf:resource="http://purl.org/dc/dcmitype/StillImage" />
        <dc:title></dc:title>
      </cc:Work>
    </rdf:RDF>
  </metadata>
  <defs
     id="defs4">
    <linearGradient
       y1="25.54085"
       x2="0"
       y2="46.623249"
       id="linearGradient3120"
       gradientUnits="userSpaceOnUse">
      <stop
         id="stop15"
         style="stop-color:#ffffff;stop-opacity:0.66900003"
         offset="0" />
      <stop
         id="stop17"
         style="stop-color:#ffffff;stop-opacity:0"
         offset="1" />
    </linearGradient>
    <linearGradient
       y1="26.705429"
       x2="0"
       y2="46.050289"
       id="linearGradient3258-1"
       gradientUnits="userSpaceOnUse">
      <stop
         id="stop20"
         style="stop-color:#d1d1d1;stop-opacity:1"
         offset="0" />
      <stop
         id="stop22"
         style="stop-color:#fbfbfb;stop-opacity:1"
         offset="1" />
    </linearGradient>
    <linearGradient
       y1="25.54085"
       x2="0"
       y2="46.623249"
       id="linearGradient3116"
       xlink:href="#linearGradient3120"
       gradientUnits="userSpaceOnUse"
       gradientTransform="translate(0,-24)" />
    <linearGradient
       y1="26.705429"
       x2="0"
       y2="46.050289"
       id="linearGradient3119"
       xlink:href="#linearGradient3258-1"
       gradientUnits="userSpaceOnUse"
       gradientTransform="translate(0,-24)" />
    <linearGradient
       id="linearGradient3797">
      <stop
         id="stop3799"
         style="stop-color:#999999;stop-opacity:1"
         offset="0" />
      <stop
         id="stop3805"
         style="stop-color:#acac60;stop-opacity:1"
         offset="1" />
    </linearGradient>
    <linearGradient
       x1="17.365717"
       y1="13.705164"
       x2="17.365717"
       y2="27.410328"
       id="linearGradient3121"
       xlink:href="#linearGradient3797"
       gradientUnits="userSpaceOnUse" />
    <linearGradient
       id="linearGradient3013">
      <stop
         id="stop3015"
         style="stop-color:#e26f00;stop-opacity:1"
         offset="0" />
      <stop
         id="stop3771"
         style="stop-color:#f89738;stop-opacity:1"
         offset="0.91947532" />
      <stop
         id="stop3017"
         style="stop-color:#ea7500;stop-opacity:1"
         offset="1" />
    </linearGradient>
    <linearGradient
       x1="32.259148"
       y1="34.371506"
       x2="16.735598"
       y2="13.554108"
       id="linearGradient3030"
       xlink:href="#linearGradient3013"
       gradientUnits="userSpaceOnUse"
       gradientTransform="matrix(0.62636959,0,0,0.62636959,-3.5103858,-2.9721329)" />
  </defs>
  <path
     d="m 4.5,1.5 h 15 a 2,2 0 0 1 2,2 v 17 a 2,2 0 0 1 -2,2 h -15 a 2,2 0 0 1 -2,-2 v -17 a 2,2 0 0 1 2,-2"
     id="path26"
     style="fill:url(#linearGradient3119);stroke:#818181;stroke-linecap:round;stroke-linejoin:round" />
  <path
     d="m 4.5,2.5 h 15 a 1,1 0 0 1 1,1 v 17 a 1,1 0 0 1 -1,1 h -15 a 1,1 0 0 1 -1,-1 v -17 a 1,1 0 0 1 1,-1"
     id="path28"
     style="fill:none;stroke:url(#linearGradient3116)" />
  <g
     transform="matrix(0.62296197,0,0,0.5107563,-1.6363638,-0.99999784)"
     id="text3009"
     style="font-size:18.12018967px;font-style:normal;font-weight:normal;line-height:125%;letter-spacing:0px;word-spacing:0px;fill:url(#linearGradient3121);fill-opacity:1;stroke:none;font-family:Sans" />
  <path
     d="m 4.756932,6 c 0.029934,0.2097055 -0.043234,0.9700388 0.7656328,1 0.8088605,0.029934 0.5647449,1.5805892 0.265165,2 -0.2995801,0.4194065 -0.5970248,1.824187 -0.2075745,2.603095 0.874062,1.863719 3.2816972,1.183628 3.4253763,1.826458 0.1104854,0.594269 0.2995794,3.355284 0.2696233,3.954444 -0.029991,0.599156 -0.1198314,1.917306 -0.6291169,2.456549 0.8388223,0.02994 1.2703004,0.439918 1.3302176,-0.06937 0.059919,-0.509286 -0.029711,-2.230643 0.1799944,-2.739929 0.209705,-0.509286 0.113972,-0.754399 0.113972,-1.383516 0,-0.629117 0.392338,-1.004141 0.332424,-1.99275 -0.05991,-0.98861 1.507676,-0.211193 1.208096,0.567712 -0.29958,0.778909 -0.791657,1.640256 -0.641869,2.029711 0.149792,0.389455 -0.178846,0.447138 0.219076,0.96993 0.405387,0.532602 2.583948,1.850683 2.763696,2.210175 0.179749,0.359494 0.608263,-0.0048 0.608263,-0.543979 0,-0.539242 0.162838,-0.397388 -1.36502,-1.50583 C 11.867036,16.274261 12.300902,16.065848 12.570521,15.736311 12.840144,15.406775 13,14.407468 13,14 c 0,-1 0.798792,-1.559059 1.008498,-0.450613 0.209706,1.10844 0.509285,2.546418 -0.209706,3.564985 -0.718985,1.01857 -0.868778,1.467938 -1.288185,1.947263 -0.41941,0.479328 -0.569202,0.479328 -0.569202,0.479328 0.318499,0.221349 0.716767,0.241092 0.982804,0.212713 0.160295,-0.199984 0.352818,-0.103286 0.515646,-0.366316 0.389456,-0.629116 0.796437,-0.90033 1.24581,-1.589364 0.449367,-0.68903 0.919647,-1.699609 0.769859,-2.238847 C 15.305733,15.019908 16,14.244311 16,13.534097 16,13 16.629117,12.215951 16.988614,13.953508 c 0.359493,1.737558 0.160302,0.729107 0.160302,1.897465 0,1.16836 0.08083,1.917307 -0.27867,2.875959 -0.359493,0.958649 -0.01574,1.293355 -0.01574,1.293355 0,0 0.718986,0.419411 1.048523,0.209706 0.329537,-0.209706 0.06767,-1.681516 0.03771,-2.280676 -0.02994,-0.59916 0.142037,-1.104565 0.142037,-1.643806 0,-0.161001 -0.301593,-0.724534 -0.216732,-1.139509 0.226165,-1.105939 -0.226816,-2.181837 -0.14277,-2.665142 0.119831,-0.689031 0.196781,-2.045131 0.466404,-0.307572 0.269619,1.737556 -0.196785,1.296181 0.07284,1.715591 0.269617,0.419412 1.078484,-0.808865 0.988609,-1.677643 C 19.161252,11.36246 19.222369,10.732372 18.65197,10.044314 16.997249,8.0482628 16.587524,4.0767723 14,4 13.15619,3.974964 12.424839,4.4892438 12,5 10.913248,6.3065381 11.941404,5.8801693 10.054057,7.1983152 8.1667074,8.5164618 9.1852784,9.2654095 8.7658681,9.5649901 8.3464567,9.8645651 8.106794,9.1755348 8.3764129,8.4865057 8.6460361,7.7974709 9.1957511,4.6670624 7.7877298,4.756932 6.3797086,4.8468067 7.1843366,5.3193843 6.0159826,5.3793027 4.8476247,5.439215 4.7569301,6 4.756932,6 z"
     id="path3809"
     style="fill:url(#linearGradient3030);fill-opacity:1;stroke:none" />
</svg>
