<?xml version="1.0" encoding="UTF-8" standalone="no"?>
<!-- Created with Inkscape (http://www.inkscape.org/) -->

<svg xmlns:dc="http://purl.org/dc/elements/1.1/" xmlns:cc="http://creativecommons.org/ns#" xmlns:rdf="http://www.w3.org/1999/02/22-rdf-syntax-ns#" xmlns:svg="http://www.w3.org/2000/svg" xmlns="http://www.w3.org/2000/svg" xmlns:xlink="http://www.w3.org/1999/xlink" xmlns:sodipodi="http://sodipodi.sourceforge.net/DTD/sodipodi-0.dtd" xmlns:inkscape="http://www.inkscape.org/namespaces/inkscape" width="16" height="16" id="svg3330" version="1.1" inkscape:version="0.48.4 r9939" sodipodi:docname="system-search.svg">
    <defs id="defs3332">
        <linearGradient inkscape:collect="always" xlink:href="#linearGradient1022-8-8-3-0-27-17-7" id="linearGradient3014-0" gradientUnits="userSpaceOnUse" gradientTransform="matrix(1.119994,0,0,1.0064811,-17.983362,1337.0319)" x1="24.985279" y1="-298.73358" x2="24.985279" y2="-283.83017" />
        <linearGradient gradientUnits="userSpaceOnUse" id="linearGradient1022-8-8-3-0-27-17-7" x2="0" y1="3.0069399" y2="11.02436">
            <stop offset="0" id="stop3001-0-9-4-6-39-9" />
            <stop offset="1" stop-color="#363636" id="stop3003-5-6-6-01-0-3" />
        </linearGradient>
    </defs>
    <sodipodi:namedview id="base" pagecolor="#ffffff" bordercolor="#666666" borderopacity="1.0" inkscape:pageopacity="0.0" inkscape:pageshadow="2" inkscape:zoom="31.678384" inkscape:cx="12.126824" inkscape:cy="9.9977839" inkscape:document-units="px" inkscape:current-layer="capa1" showgrid="true" inkscape:showpageshadow="false" inkscape:window-width="1280" inkscape:window-height="998" inkscape:window-x="0" inkscape:window-y="0" inkscape:window-maximized="1" inkscape:snap-bbox="true">
        <inkscape:grid type="xygrid" id="grid3017" />
    </sodipodi:namedview>
    <metadata id="metadata3335">
        <rdf:RDF>
            <cc:Work rdf:about="">
                <dc:format>image/svg+xml</dc:format>
                <dc:type rdf:resource="http://purl.org/dc/dcmitype/StillImage" />
                <dc:title />
            </cc:Work>
        </rdf:RDF>
    </metadata>
    <g inkscape:label="Capa 1" inkscape:groupmode="layer" id="capa1" transform="translate(0,-1036.3622)">
        <path inkscape:connector-curvature="0" id="path3051" d="m 3,1037.3622 -2,2 0,7 2,2 7,0 4,4 2,-2 -4,-4 0,-7 -2,-2 -7,0 z m 1,2 5,0 1,1 0,5 -1,1 -5,0 -1,-1 0,-5 1,-1 z" style="opacity:0.59999999999999998;color:black;fill:white;fill-opacity:1;fill-rule:nonzero;stroke:none;stroke-width:1;marker:none;visibility:visible;display:inline;overflow:visible;enable-background:accumulate" />
        <path style="color:black;fill:url(#linearGradient3014-0);fill-opacity:1;fill-rule:nonzero;stroke:none;stroke-width:1;marker:none;visibility:visible;display:inline;overflow:visible;enable-background:accumulate;opacity:0.69999999999999996" d="m 3,1036.3622 -2,2 0,7 2,2 7,0 4,4 2,-2 -4,-4 0,-7 -2,-2 -7,0 z m 1,2 5,0 1,1 0,5 -1,1 -5,0 -1,-1 0,-5 1,-1 z" id="path2986" inkscape:connector-curvature="0" />
    </g>
</svg>
