<?xml version="1.0" encoding="UTF-8" standalone="no"?>
<svg xmlns:dc="http://purl.org/dc/elements/1.1/" xmlns:cc="http://creativecommons.org/ns#" xmlns:rdf="http://www.w3.org/1999/02/22-rdf-syntax-ns#" xmlns:svg="http://www.w3.org/2000/svg" xmlns="http://www.w3.org/2000/svg" xmlns:xlink="http://www.w3.org/1999/xlink" xmlns:sodipodi="http://sodipodi.sourceforge.net/DTD/sodipodi-0.dtd" xmlns:inkscape="http://www.inkscape.org/namespaces/inkscape" viewBox="0 0 16 16" id="svg2" version="1.1" inkscape:version="0.48.4 r9939" width="100%" height="100%" sodipodi:docname="lxscreenshot.svg">
    <metadata id="metadata116">
        <rdf:RDF>
            <cc:Work rdf:about="">
                <dc:format>image/svg+xml</dc:format>
                <dc:type rdf:resource="http://purl.org/dc/dcmitype/StillImage" />
            </cc:Work>
        </rdf:RDF>
    </metadata>
    <sodipodi:namedview pagecolor="#ffffff" bordercolor="#666666" borderopacity="1" objecttolerance="10" gridtolerance="10" guidetolerance="10" inkscape:pageopacity="0" inkscape:pageshadow="2" inkscape:window-width="1280" inkscape:window-height="976" id="namedview114" showgrid="true" inkscape:zoom="32" inkscape:cx="12.854664" inkscape:cy="9.718069" inkscape:window-x="0" inkscape:window-y="24" inkscape:window-maximized="1" inkscape:current-layer="svg2">
        <inkscape:grid type="xygrid" id="grid3038" empspacing="5" visible="true" enabled="true" snapvisiblegridlinesonly="true" />
    </sodipodi:namedview>
    <defs id="defs4">
        <linearGradient gradientUnits="userSpaceOnUse" id="linearGradient3651" x2="0" y1="30.5275" y2="40.9212">
            <stop offset="0" stop-color="#fff" id="stop32" />
            <stop offset="1" stop-color="#959698" id="stop34" />
        </linearGradient>
        <linearGradient gradientUnits="userSpaceOnUse" id="linearGradient3655" x2="0" y1="30.5275" y2="40.9212">
            <stop offset="0" stop-color="#8aaec7" id="stop37" />
            <stop offset="1" stop-color="#124275" id="stop39" />
        </linearGradient>
        <linearGradient gradientUnits="userSpaceOnUse" id="linearGradient3657" x2="0" y1="30.215" y2="40.005699">
            <stop offset="0" stop-color="#0f0" id="stop42" />
            <stop offset="1" stop-color="#0f0" stop-opacity="0" id="stop44" />
        </linearGradient>
        <linearGradient gradientUnits="userSpaceOnUse" id="linearGradient3659" x2="0" y1="30.4946" y2="40.888199">
            <stop offset="0" stop-color="#fff" id="stop47" />
            <stop offset="1" stop-color="#545454" id="stop49" />
        </linearGradient>
        <linearGradient gradientUnits="userSpaceOnUse" id="linearGradient3661" x2="0" y1="-41.968899" y2="-69.329102">
            <stop offset="0" stop-color="#dedede" id="stop52" />
            <stop offset="1" stop-color="#dedede" stop-opacity="0" id="stop54" />
        </linearGradient>
        <linearGradient gradientUnits="userSpaceOnUse" id="linearGradient3663" x2="0" y1="29.4592" y2="22.5408">
            <stop offset="0" stop-color="#fff" id="stop57" />
            <stop offset="1" stop-color="#dedede" stop-opacity="0" id="stop59" />
        </linearGradient>
        <linearGradient gradientUnits="userSpaceOnUse" id="linearGradient3665" x2="0" y1="30.215" y2="40.005699">
            <stop offset="0" stop-color="#f0f" id="stop62" />
            <stop offset="1" stop-color="#f0f" stop-opacity="0" id="stop64" />
        </linearGradient>
        <radialGradient cx="43.133499" cy="28.7313" gradientUnits="userSpaceOnUse" id="radialGradient3669" r="5.9219999">
            <stop offset="0" stop-color="#fff" id="stop72" />
            <stop offset="1" stop-color="#fff" stop-opacity="0" id="stop74" />
        </radialGradient>
        <radialGradient inkscape:collect="always" xlink:href="#radialGradient3669" id="radialGradient3046" gradientUnits="userSpaceOnUse" cx="43.133499" cy="28.7313" r="5.9219999" gradientTransform="matrix(0.59101654,0,0,0.50658564,-20.992612,-6.5548632)" />
        <linearGradient inkscape:collect="always" xlink:href="#linearGradient3663" id="linearGradient3056" gradientUnits="userSpaceOnUse" y1="29.4592" x2="0" y2="22.5408" gradientTransform="matrix(0.3170724,0,0,0.42857149,-5.3170572,-7.1428588)" />
        <linearGradient inkscape:collect="always" xlink:href="#linearGradient3661" id="linearGradient3059" gradientUnits="userSpaceOnUse" y1="-41.968899" x2="0" y2="-69.329102" gradientTransform="matrix(0.3170724,0,0,-0.26666755,-5.3170572,-2.3667199)" />
        <linearGradient inkscape:collect="always" xlink:href="#linearGradient3659" id="linearGradient3062" gradientUnits="userSpaceOnUse" y1="30.4946" x2="0" y2="40.888199" gradientTransform="matrix(0.47939375,0,0,-0.47939382,-5.1694545,27.078692)" />
        <linearGradient inkscape:collect="always" xlink:href="#linearGradient3651" id="linearGradient3074" gradientUnits="userSpaceOnUse" y1="30.5275" x2="0" y2="40.9212" gradientTransform="matrix(0.67115517,0,0,0.67115517,-11.237363,-13.910304)" />
        <linearGradient inkscape:collect="always" xlink:href="#linearGradient3655" id="linearGradient3094" gradientUnits="userSpaceOnUse" gradientTransform="matrix(0.4488938,0,0,0.44757003,1.37046,-0.34316853)" y1="30.5275" x2="0" y2="40.9212" />
        <linearGradient inkscape:collect="always" xlink:href="#linearGradient3657" id="linearGradient3096" gradientUnits="userSpaceOnUse" gradientTransform="matrix(0.1918139,-0.19143385,0.11326325,0.11303692,4.648748,16.813263)" y1="30.215" x2="0" y2="40.005699" />
        <linearGradient inkscape:collect="always" xlink:href="#linearGradient3665" id="linearGradient3098" gradientUnits="userSpaceOnUse" gradientTransform="matrix(-0.1918139,0.19143385,-0.11326325,-0.11303692,26.513982,14.37999)" y1="30.215" x2="0" y2="40.005699" />
        <linearGradient inkscape:collect="always" xlink:href="#linearGradient3649-3" id="linearGradient3077-0" gradientUnits="userSpaceOnUse" spreadMethod="reflect" x1="24.800001" x2="59.200001" gradientTransform="matrix(0.34956548,0,0,0.31731506,-6.7600383,-5.1735328)" y1="35" y2="35" />
        <linearGradient gradientUnits="userSpaceOnUse" id="linearGradient3649-3" spreadMethod="reflect" x1="41.789299" x2="63.373402">
            <stop offset="0" stop-color="#eef2f3" id="stop27-9" />
            <stop offset="1" stop-color="#a2a8a8" id="stop29-2" />
        </linearGradient>
    </defs>
    <rect style="color:black;fill:url(#linearGradient3077-0);fill-opacity:1;fill-rule:nonzero;stroke:#424242;stroke-width:0.99999964;stroke-linecap:butt;stroke-linejoin:miter;stroke-miterlimit:4;stroke-opacity:1;stroke-dasharray:none;stroke-dashoffset:0;marker:none;visibility:visible;display:inline;overflow:visible;enable-background:accumulate" id="rect3032" width="15" height="13" x="0.49999982" y="1.4999999" ry="2" />
    <path inkscape:connector-curvature="0" style="fill:none;stroke:url(#linearGradient3059);stroke-width:0.99999952" id="path100" d="M 1.9333435,13.5 H 14.066657 A 0.43334284,0.36362787 0 0 0 14.5,13.136372 V 5.8636272 A 0.43334284,0.36362787 0 0 0 14.066657,5.4999995 H 1.9333435 A 0.43334284,0.36362787 0 0 0 1.4999998,5.8636272 V 13.136372 A 0.43334284,0.36362787 0 0 0 1.9333435,13.5" />
    <path inkscape:connector-curvature="0" style="fill:none;stroke:url(#linearGradient3056);stroke-width:0.99999946" id="path102" d="M 1.9333435,2.4999997 H 14.066658 A 0.43334284,0.60000009 0 0 1 14.5,3.0999999 v 1.8 A 0.43334284,0.60000009 0 0 1 14.066658,5.5000002 H 1.9333435 A 0.43334284,0.60000009 0 0 1 1.4999998,4.8999999 v -1.8 A 0.43334284,0.60000009 0 0 1 1.9333435,2.4999997" />
    <path inkscape:connector-curvature="0" style="fill:url(#linearGradient3074);stroke:#616161;stroke-width:0.99998492000000005;stroke-opacity:1" id="path90" d="m 13.500008,10.000001 c 0,1.932993 -1.567014,3.500007 -3.5000089,3.500007 -1.9329928,0 -3.5000064,-1.567014 -3.5000064,-3.500007 0,-1.9329954 1.5670136,-3.5000079 3.5000064,-3.5000079 1.9329949,0 3.5000089,1.5670125 3.5000089,3.5000079 z" />
    <path inkscape:connector-curvature="0" style="fill:none;stroke:url(#linearGradient3062);stroke-width:1.000018" id="path98" d="m 12.499991,10.000001 c 0,-1.3807025 -1.11929,-2.4999916 -2.4999918,-2.4999916 -1.3807025,0 -2.4999902,1.1192891 -2.4999902,2.4999916 0,1.380702 1.1192877,2.49999 2.4999902,2.49999 1.3807018,0 2.4999918,-1.119288 2.4999918,-2.49999 z" />
    <g id="g3088" transform="matrix(0.85435875,0,0,0.85688573,-3.3064709,-3.3689448)">
        <g id="g3083">
            <path inkscape:connector-curvature="0" style="fill:url(#linearGradient3094)" id="path94" d="m 17.915742,15.601783 c 0,1.289046 -1.048078,2.334033 -2.340937,2.334033 -1.292858,0 -2.340937,-1.044987 -2.340937,-2.334033 0,-1.289047 1.048079,-2.334034 2.340937,-2.334034 1.292859,0 2.340937,1.044987 2.340937,2.334034 z" />
            <path inkscape:connector-curvature="0" style="fill:url(#linearGradient3096)" id="path96" d="m 15.753676,13.784421 c 0.32621,0.325557 0.14281,1.036436 -0.409634,1.587786 -0.552443,0.551348 -1.264737,0.734389 -1.590946,0.408831 -0.326209,-0.325557 -0.14281,-1.036436 0.409633,-1.587785 0.552443,-0.551347 1.264737,-0.734389 1.590947,-0.408832 z" />
            <path inkscape:connector-curvature="0" style="fill:url(#linearGradient3098)" id="path106" d="m 15.409053,17.408832 c -0.326209,-0.325557 -0.14281,-1.036436 0.409634,-1.587785 0.552444,-0.551349 1.264737,-0.73439 1.590947,-0.408833 C 17.735844,15.737773 17.552443,16.448651 17,17 c -0.552443,0.551348 -1.264737,0.734389 -1.590947,0.408832 z" />
        </g>
    </g>
    <rect style="color:black;fill:#424242;fill-opacity:1;fill-rule:nonzero;stroke:none;stroke-width:1;stroke-linecap:butt;stroke-linejoin:miter;stroke-miterlimit:4;stroke-opacity:1;stroke-dasharray:none;stroke-dashoffset:0;marker:none;visibility:visible;display:inline;overflow:visible;enable-background:accumulate" id="rect3048" width="3" height="1" x="3" y="3" />
    <rect y="7" x="3" height="2" width="3" id="rect3818" style="color:black;fill:#777;fill-opacity:1;fill-rule:nonzero;stroke:none;stroke-width:1;marker:none;visibility:visible;display:inline;overflow:visible;enable-background:accumulate" />
    <path inkscape:connector-curvature="0" style="fill:url(#radialGradient3046)" id="path110" d="M 8,8 C 8,9.6568394 6.4329784,11 4.5,11 2.5670216,11 1,9.6568394 1,8 1,6.3431614 2.5670216,5 4.5,5 6.4329784,5 8,6.3431614 8,8 z" />
    <path style="fill:white;fill-opacity:0.49800002" inkscape:connector-curvature="0" id="path112" d="M 8,11 4.5,8.7433806 1,11 4.005037,8.3716909 1,5.7433806 4.5,8 8,5.7433806 4.9949636,8.3716909 z" />
</svg>
