<?xml version="1.0" encoding="UTF-8" standalone="no"?>
<svg xmlns:dc="http://purl.org/dc/elements/1.1/" xmlns:cc="http://creativecommons.org/ns#" xmlns:rdf="http://www.w3.org/1999/02/22-rdf-syntax-ns#" xmlns:svg="http://www.w3.org/2000/svg" xmlns="http://www.w3.org/2000/svg" xmlns:xlink="http://www.w3.org/1999/xlink" xmlns:sodipodi="http://sodipodi.sourceforge.net/DTD/sodipodi-0.dtd" xmlns:inkscape="http://www.inkscape.org/namespaces/inkscape" viewBox="0 0 16 16" id="svg2" version="1.1" inkscape:version="0.48.4 r9939" width="100%" height="100%" sodipodi:docname="system-config-samba.svg">
    <metadata id="metadata54">
        <rdf:RDF>
            <cc:Work rdf:about="">
                <dc:format>image/svg+xml</dc:format>
                <dc:type rdf:resource="http://purl.org/dc/dcmitype/StillImage" />
            </cc:Work>
        </rdf:RDF>
    </metadata>
    <sodipodi:namedview pagecolor="#ffffff" bordercolor="#666666" borderopacity="1" objecttolerance="10" gridtolerance="10" guidetolerance="10" inkscape:pageopacity="0" inkscape:pageshadow="2" inkscape:window-width="1215" inkscape:window-height="1000" id="namedview52" showgrid="true" inkscape:zoom="29.5" inkscape:cx="13.83303" inkscape:cy="9.5034999" inkscape:window-x="65" inkscape:window-y="24" inkscape:window-maximized="1" inkscape:current-layer="svg2" inkscape:snap-bbox="true" inkscape:snap-nodes="true" inkscape:bbox-nodes="false">
        <inkscape:grid type="xygrid" id="grid2998" />
    </sodipodi:namedview>
    <defs id="defs4">
        <linearGradient gradientUnits="userSpaceOnUse" id="linearGradient3179" x2="0" y1="-12.42762" y2="-1.45591" gradientTransform="matrix(0.86670927,0,0,-0.91670089,1.0663265,0.04144631)">
            <stop offset="0" stop-color="#b6b6b6" id="stop15" />
            <stop offset="1" stop-color="#f0f0f0" id="stop17" />
        </linearGradient>
        <linearGradient id="linearGradient4599">
            <stop offset="0" stop-color="#808080" id="stop20" />
            <stop offset="1" stop-color="#fff" stop-opacity=".502" id="stop22" />
        </linearGradient>
        <linearGradient gradientUnits="userSpaceOnUse" id="linearGradient4615" x2="0" xlink:href="#linearGradient4599" y1="31.91058" y2="6.08863" gradientTransform="matrix(-0.113084,0,0,0.1142859,10.758062,3.8142819)" />
        <linearGradient gradientUnits="userSpaceOnUse" id="linearGradient4605" x2="0" xlink:href="#linearGradient4599" y1="5.60643" y2="32.20788" gradientTransform="matrix(0.26666664,0,0,0.26666663,1.5333336,0.90059252)" />
        <linearGradient id="linearGradient3935">
            <stop id="stop3937" offset="0" style="stop-color:#646464;stop-opacity:1;" />
            <stop id="stop3939" offset="1" style="stop-color:#464646;stop-opacity:0;" />
        </linearGradient>
        <linearGradient inkscape:collect="always" xlink:href="#linearGradient3935" id="linearGradient4248" gradientUnits="userSpaceOnUse" gradientTransform="matrix(0.38095236,0,0,0.25,-2.2857142,4.25)" x1="42" y1="43" x2="47" y2="43" />
        <linearGradient inkscape:collect="always" xlink:href="#linearGradient3935" id="linearGradient4251" gradientUnits="userSpaceOnUse" gradientTransform="matrix(0.38095236,0,0,0.25,-18.285714,4.25)" x1="42" y1="43" x2="47" y2="43" />
    </defs>
    <rect style="color:black;fill:url(#linearGradient4251);fill-opacity:1;fill-rule:nonzero;stroke:none;stroke-width:1;marker:none;visibility:visible;display:inline;overflow:visible;enable-background:accumulate" id="rect3119" width="8" height="1" x="-8" y="15" transform="scale(-1,1)" />
    <rect y="15" x="8" height="1" width="8" id="rect3953" style="color:black;fill:url(#linearGradient4248);fill-opacity:1;fill-rule:nonzero;stroke:none;stroke-width:1;marker:none;visibility:visible;display:inline;overflow:visible;enable-background:accumulate" />
    <rect y="7" x="13" height="2" width="3" id="rect3925" style="color:black;fill:#646464;fill-opacity:1;fill-rule:nonzero;stroke:none;stroke-width:1;marker:none;visibility:visible;display:inline;overflow:visible;enable-background:accumulate" transform="matrix(0,1,1,0,0,0)" />
    <path d="m 14.5,9.5 v 3.07022 C 14.5,13.08532 14.085855,13.5 13.571427,13.5 H 2.4285628 C 1.9141354,13.5 1.49999,13.08532 1.49999,12.57022 V 9.5 h 13.000001 z" id="path26" style="color:black;fill:#b8b8b8;fill-opacity:1;fill-rule:nonzero;stroke:gray;stroke-width:1;stroke-linecap:butt;stroke-linejoin:miter;stroke-miterlimit:4;stroke-opacity:1;stroke-dasharray:none;stroke-dashoffset:0;marker:none;visibility:visible;display:inline;overflow:visible;enable-background:accumulate" inkscape:connector-curvature="0" />
    <path d="M 2.3642843,11.502435 H 13.635726 a 0.86670927,0.91670089 0 0 0 0.866709,-0.916701 V 1.4142609 A 0.86670927,0.91670089 0 0 0 13.635726,0.49756 H 2.3642843 A 0.86670927,0.91670089 0 0 0 1.497575,1.4142609 v 9.1714731 a 0.86670927,0.91670089 0 0 0 0.8667093,0.916701" id="path28" inkscape:connector-curvature="0" style="fill:url(#linearGradient3179);stroke:gray;stroke-width:0.99513006" />
    <path style="fill:gray" inkscape:connector-curvature="0" id="path32" d="M 13,2.5 C 13,2.7761462 12.77614,3 12.5,3 12.22386,3 12,2.7761404 12,2.5 12,2.2238596 12.22386,2 12.5,2 12.77614,2 13,2.2238596 13,2.5 z" />
    <path d="m 11.5,6.0005917 a 3.4999999,3.4999998 0 0 1 -7,0 3.4999999,3.4999998 0 1 1 7,0 z" id="path34" inkscape:connector-curvature="0" style="fill:none;stroke:url(#linearGradient4605);stroke-width:1.0000006" />
    <path d="m 6.5315475,5.9999998 a 1.4842275,1.5000024 0 0 0 2.968455,0 1.4842275,1.5000024 0 1 0 -2.968455,0 z" id="path36" inkscape:connector-curvature="0" style="fill:none;stroke:url(#linearGradient4615);stroke-width:0.99999505" />
    <path d="m 10,12 h 2 v 1 h -2 z" id="path38" inkscape:connector-curvature="0" style="fill:aqua" />
    <path style="fill:gray" inkscape:connector-curvature="0" id="path42" d="M 13,9.5 C 13,9.776146 12.77614,10 12.500001,10 12.22386,10 12,9.77614 12,9.5 12,9.22386 12.22386,9 12.500001,9 12.77614,9 13,9.22386 13,9.5 z" />
    <path style="fill:gray" inkscape:connector-curvature="0" id="path46" d="M 4,2.5000001 C 4,2.7761461 3.7761404,3 3.5,3 3.2238596,3 3,2.7761405 3,2.5000001 3,2.2238595 3.2238596,2 3.5,2 3.7761404,2 4,2.2238595 4,2.5000001 z" />
    <path style="fill:gray" inkscape:connector-curvature="0" id="path50" d="M 4,9.5000002 C 4,9.776146 3.7761404,10 3.5,10 3.2238595,10 3,9.77614 3,9.5000002 c 0,-0.27614 0.2238595,-0.5 0.5,-0.5 0.2761404,0 0.5,0.22386 0.5,0.5 z" />
</svg>
