<svg viewBox="0 0 48 48" xmlns="http://www.w3.org/2000/svg" xmlns:xlink="http://www.w3.org/1999/xlink">
<defs>
<linearGradient id="linearGradient5060">
<stop offset="0"/>
<stop offset="1" stop-opacity="0"/>
</linearGradient>
<linearGradient gradientUnits="userSpaceOnUse" id="linearGradient3127" x2="0" y1="38.7186" y2="45.76167">
<stop offset="0" stop-opacity="0"/>
<stop offset=".5"/>
<stop offset="1" stop-opacity="0"/>
</linearGradient>
<linearGradient gradientUnits="userSpaceOnUse" id="linearGradient3157-5" x1="-42.69615" x2="-5.84311">
<stop offset="0" stop-color="#fff"/>
<stop offset="1" stop-color="#cdcdcd"/>
</linearGradient>
<linearGradient gradientUnits="userSpaceOnUse" id="linearGradient998" x1="6.40561" x2="41.36901">
<stop offset="0" stop-color="#fff"/>
<stop offset="1" stop-color="#fff" stop-opacity="0"/>
</linearGradient>
<radialGradient cx="605.71429" cy="486.64789" gradientTransform="matrix(.062142,0,0,.029001,1.636502,28.085503)" gradientUnits="userSpaceOnUse" id="radialGradient3129" r="117.14286" xlink:href="#linearGradient5060"/>
<radialGradient cx="605.71429" cy="486.64789" gradientTransform="matrix(-.062142,0,0,.029001,46.53201,28.085503)" gradientUnits="userSpaceOnUse" id="radialGradient3131" r="117.14286" xlink:href="#linearGradient5060"/>
</defs>
<g transform="matrix(.833389,0,0,1,3.928449,0)">
<path d="m9.08134,38.7186h30.00582v7.04306h-30.00582z" fill="url(#linearGradient3127)" opacity=".5"/>
<path d="m39.08716,38.71885v7.04268c3.20017.01326 7.73646-1.57791 7.73646-3.52179s-3.57115-3.52088-7.73646-3.52088z" fill="url(#radialGradient3129)" opacity=".5"/>
<path d="m9.08134,38.71885v7.04268c-3.20017.01326-7.73646-1.57791-7.73646-3.52179s3.57115-3.52088 7.73646-3.52088z" fill="url(#radialGradient3131)" opacity=".5"/>
</g>
<path d="m-40.5-41.4999h33a2,2 0 0,1 2,2v30.9999a2,2 0 0,1 -2,2h-33a2,2 0 0,1 -2-2v-30.9999a2,2 0 0,1 2-2" fill="url(#linearGradient3157-5)" stroke="#818181" stroke-linecap="round" stroke-linejoin="round" transform="matrix(0,-1,-1,0,0,0)"/>
<path d="m11,11h8v3h-8z" fill="#009fe9"/>
<path d="m7.5-40.5h33a1,1 0 0,1 1,1v31a1,1 0 0,1 -1,1h-33a1,1 0 0,1 -1-1v-31a1,1 0 0,1 1-1" fill="none" stroke="url(#linearGradient998)" stroke-linecap="round" stroke-linejoin="round" transform="matrix(0,1,-1,0,0,0)"/>
<path d="m20,11h8v3h-8z" fill="#009fe9"/>
<path d="m29,11h8v3h-8z" fill="#009fe9"/>
<path d="m11,15h8v3h-8z" fill="#009fe9"/>
<path d="m20,15h8v3h-8z" fill="#bdbdbd"/>
<path d="m29,15h8v3h-8z" fill="#bdbdbd"/>
<path d="m11,19h8v3h-8z" fill="#009fe9"/>
<path d="m20,19h8v3h-8z" fill="#bdbdbd"/>
<path d="m29,19h8v3h-8z" fill="#bdbdbd"/>
<path d="m11,23h8v3h-8z" fill="#009fe9"/>
<path d="m20,23h8v3h-8z" fill="#bdbdbd"/>
<path d="m29,23h8v3h-8z" fill="#bdbdbd"/>
<path d="m11,27h8v3h-8z" fill="#009fe9"/>
<path d="m20,27h8v3h-8z" fill="#bdbdbd"/>
<path d="m29,27h8v3h-8z" fill="#bdbdbd"/>
<path d="m11,31h8v3h-8z" fill="#009fe9"/>
<path d="m20,31h8v3h-8z" fill="#bdbdbd"/>
<path d="m29,31h8v3h-8z" fill="#bdbdbd"/>
<path d="m11,35h8v3h-8z" fill="#009fe9"/>
<path d="m20,35h8v3h-8z" fill="#bdbdbd"/>
<path d="m29,35h8v3h-8z" fill="#bdbdbd"/>
<g transform="matrix(2,0,0,1.97665,-81.77965,23.742702)">
<path d="m64.0678,9.66102c0,1.40411-2.39034,2.54237-5.33898,2.54237s-5.33898-1.13826-5.33898-2.54237 2.39034-2.54237 5.33898-2.54237 5.33898,1.13826 5.33898,2.54237z" fill="#006b9d" transform="matrix(.936508,0,0,1,3.389831,-6.002344)"/>
<path d="m53.38983,1.45522h10v2.44491h-10z" fill="#006b9d"/>
<path d="m64.0678,9.66102c0,1.40411-2.39034,2.54237-5.33898,2.54237s-5.33898-1.13826-5.33898-2.54237 2.39034-2.54237 5.33898-2.54237 5.33898,1.13826 5.33898,2.54237z" fill="#009fe9" transform="matrix(.936508,0,0,1,3.389831,-8.000288)"/>
</g>
</svg>
