<?xml version="1.0" encoding="UTF-8" standalone="no"?>
<svg
   xmlns:dc="http://purl.org/dc/elements/1.1/"
   xmlns:cc="http://creativecommons.org/ns#"
   xmlns:rdf="http://www.w3.org/1999/02/22-rdf-syntax-ns#"
   xmlns:svg="http://www.w3.org/2000/svg"
   xmlns="http://www.w3.org/2000/svg"
   xmlns:xlink="http://www.w3.org/1999/xlink"
   xmlns:sodipodi="http://sodipodi.sourceforge.net/DTD/sodipodi-0.dtd"
   xmlns:inkscape="http://www.inkscape.org/namespaces/inkscape"
   viewBox="0 0 48 48"
   id="svg2"
   version="1.1"
   inkscape:version="0.48.3.1 r9886"
   width="100%"
   height="100%"
   sodipodi:docname="application-pdf.svg">
  <metadata
     id="metadata51">
    <rdf:RDF>
      <cc:Work
         rdf:about="">
        <dc:format>image/svg+xml</dc:format>
        <dc:type
           rdf:resource="http://purl.org/dc/dcmitype/StillImage" />
      </cc:Work>
    </rdf:RDF>
  </metadata>
  <sodipodi:namedview
     pagecolor="#ffffff"
     bordercolor="#666666"
     borderopacity="1"
     objecttolerance="10"
     gridtolerance="10"
     guidetolerance="10"
     inkscape:pageopacity="0"
     inkscape:pageshadow="2"
     inkscape:window-width="1280"
     inkscape:window-height="976"
     id="namedview49"
     showgrid="true"
     inkscape:zoom="9.8333333"
     inkscape:cx="36.711865"
     inkscape:cy="15.864406"
     inkscape:window-x="0"
     inkscape:window-y="24"
     inkscape:window-maximized="1"
     inkscape:current-layer="svg2">
    <inkscape:grid
       type="xygrid"
       id="grid3259" />
  </sodipodi:namedview>
  <defs
     id="defs4">
    <linearGradient
       id="linearGradient5060">
      <stop
         offset="0"
         id="stop7" />
      <stop
         offset="1"
         stop-opacity="0"
         id="stop9" />
    </linearGradient>
    <linearGradient
       gradientUnits="userSpaceOnUse"
       id="linearGradient3127"
       x2="0"
       y1="38.7186"
       y2="45.76167">
      <stop
         offset="0"
         stop-opacity="0"
         id="stop12" />
      <stop
         offset=".5"
         id="stop14" />
      <stop
         offset="1"
         stop-opacity="0"
         id="stop16" />
    </linearGradient>
    <linearGradient
       gradientUnits="userSpaceOnUse"
       id="linearGradient998"
       x1="6.40561"
       x2="41.36901">
      <stop
         offset="0"
         stop-color="#fff"
         id="stop19" />
      <stop
         offset="1"
         stop-color="#fff"
         stop-opacity="0"
         id="stop21" />
    </linearGradient>
    <linearGradient
       gradientUnits="userSpaceOnUse"
       id="linearGradient3298-8"
       x1="-39.33323"
       x2="-1.64257"
       gradientTransform="matrix(0,-1,-1,0,0,0)">
      <stop
         offset="0"
         stop-color="#791235"
         id="stop24"
         style="stop-color:#5f0e0e;stop-opacity:1;" />
      <stop
         offset="1"
         stop-color="#dd3b27"
         id="stop26" />
    </linearGradient>
    <linearGradient
       gradientUnits="userSpaceOnUse"
       id="linearGradient4132"
       x1="-5.3196"
       x2="-50.52078"
       gradientTransform="matrix(0,-1,-1,0,0,0)">
      <stop
         offset="0"
         stop-color="#f65454"
         id="stop29" />
      <stop
         offset="1"
         stop-color="#740000"
         id="stop31" />
    </linearGradient>
    <radialGradient
       cx="605.71429"
       cy="486.64789"
       gradientTransform="matrix(.062142,0,0,.029001,1.636502,28.085503)"
       gradientUnits="userSpaceOnUse"
       id="radialGradient3129"
       r="117.14286"
       xlink:href="#linearGradient5060" />
    <radialGradient
       cx="605.71429"
       cy="486.64789"
       gradientTransform="matrix(-.062142,0,0,.029001,46.53201,28.085503)"
       gradientUnits="userSpaceOnUse"
       id="radialGradient3131"
       r="117.14286"
       xlink:href="#linearGradient5060" />
    <linearGradient
       y2="25.48744"
       y1="-5.71365"
       x2="31.74275"
       x1="8.21142"
       id="linearGradient4594"
       gradientUnits="userSpaceOnUse">
      <stop
         id="stop37"
         stop-color="#fff"
         offset="0" />
      <stop
         id="stop39"
         stop-opacity="0"
         stop-color="#fff"
         offset="1" />
    </linearGradient>
    <linearGradient
       inkscape:collect="always"
       xlink:href="#linearGradient4594"
       id="linearGradient3246"
       gradientUnits="userSpaceOnUse"
       gradientTransform="matrix(0.98821957,0,0,0.98630137,0.48299808,0.0821918)"
       x1="8.21142"
       y1="-5.71365"
       x2="31.74275"
       y2="25.48744" />
  </defs>
  <g
     transform="matrix(.833389,0,0,1,3.928449,0)"
     id="g35">
    <path
       d="m9.08134,38.7186h30.00582v7.04306h-30.00582z"
       fill="url(#linearGradient3127)"
       opacity=".5"
       id="path37" />
    <path
       d="m39.08716,38.71885v7.04268c3.20017.01326 7.73646-1.57791 7.73646-3.52179s-3.57115-3.52088-7.73646-3.52088z"
       fill="url(#radialGradient3129)"
       opacity=".5"
       id="path39" />
    <path
       d="m9.08134,38.71885v7.04268c-3.20017.01326-7.73646-1.57791-7.73646-3.52179s3.57115-3.52088 7.73646-3.52088z"
       fill="url(#radialGradient3131)"
       opacity=".5"
       id="path41" />
  </g>
  <path
     d="m 41.4999,40.5 0,-33 a 2,2 0 0 0 -2,-2 L 8.5,5.5 a 2,2 0 0 0 -2,2 l 0,33 a 2,2 0 0 0 2,2 l 30.9999,0 a 2,2 0 0 0 2,-2"
     id="path43"
     style="fill:url(#linearGradient4132);stroke:url(#linearGradient3298-8);stroke-linecap:round;stroke-linejoin:round"
     inkscape:connector-curvature="0" />
  <path
     style="opacity:0.98999999;fill:url(#linearGradient3246)"
     inkscape:connector-curvature="0"
     d="M 18,6 H 39.160004 C 40.432831,6 41,6.4824099 41,7.9726027 V 42 H 28.249358 z"
     id="path57" />
  <path
     d="m7.5-40.5h33a1,1 0 0,1 1,1v31a1,1 0 0,1 -1,1h-33a1,1 0 0,1 -1-1v-31a1,1 0 0,1 1-1"
     fill="none"
     opacity=".5"
     stroke="url(#linearGradient998)"
     stroke-linecap="round"
     stroke-linejoin="round"
     transform="matrix(0,1,-1,0,0,0)"
     id="path45" />
  <path
     id="path47"
     d="m 21.13512,26.70369 c -0.56289,1.06012 -1.11309,2.04303 -1.62104,2.94553 2.8098,-1.17723 5.83399,-1.93058 8.71275,-2.46575 -0.38689,-0.26715 -0.76247,-0.55005 -1.11586,-0.84908 -1.58527,-1.34214 -2.79387,-3.01659 -3.66996,-4.77861 -0.5556,1.49684 -1.21627,3.08745 -2.30587,5.14792 m -1.06806,-0.54684 c 0.81639,-1.60017 1.74421,-3.40305 2.48683,-5.21308 l 0.29363,-0.71453 c -0.97,-3.69114 -1.55164,-6.65403 -1.03202,-8.56987 0.13989,-0.49948 0.7184,-0.80253 1.33689,-0.80253 l 0.37689,0.0056 h 0.06916 c 0.84675,-0.01306 1.24546,1.06413 1.2907,1.48291 0.07473,0.69742 -0.24795,1.87779 -0.24795,1.87779 0,-0.47664 0.01867,-1.24685 -0.28218,-1.91146 -0.35018,-0.76904 -0.68468,-1.22846 -0.98459,-1.30129 -0.15141,0.10114 -0.29859,0.31056 -0.34902,0.71343 -0.10441,0.56486 -0.13573,1.27786 -0.13573,1.64541 0,1.29858 0.25569,3.01259 0.75816,4.77949 0.09479,-0.27357 0.17819,-0.53641 0.24452,-0.78268 0.10303,-0.38813 0.75809,-2.961 0.75809,-2.961 0,0 -0.16506,3.42487 -0.39565,4.46112 -0.0494,0.21898 -0.10391,0.43556 -0.16068,0.65724 0.82858,2.31514 2.16372,4.38144 3.75645,5.86858 0.62799,0.5869 1.4211,1.06011 2.17175,1.49144 1.63928,-0.23423 3.1486,-0.34486 4.40778,-0.33092 1.67059,0.02204 2.89686,0.26911 3.39342,0.75824 0.24314,0.23774 0.34179,0.52488 0.37244,0.84675 0.0073,0.12521 -0.05371,0.41943 -0.07159,0.49328 0.01788,-0.08939 0.01788,-0.52896 -1.32317,-0.95701 -1.05617,-0.33764 -3.03287,-0.32713 -5.40478,-0.07466 2.74347,1.34222 5.41624,2.0091 6.26328,1.60929 0.20709,-0.10093 0.45826,-0.44505 0.45826,-0.44505 0,0 -0.1493,0.67834 -0.25649,0.84792 -0.13681,0.18425 -0.40521,0.38383 -0.65965,0.4511 -1.3377,0.3569 -4.81978,-0.46898 -7.85535,-2.20349 -3.39152,0.49948 -7.11615,1.42219 -10.10174,2.40146 -2.93392,5.14172 -5.13968,7.50319 -6.93409,6.60485 l -0.65973,-0.33172 c -0.26815,-0.15341 -0.30909,-0.5268 -0.24707,-0.83086 0.20921,-1.02356 1.49269,-2.5652 4.07081,-4.10466 0.27751,-0.16791 1.51363,-0.8215 1.51363,-0.8215 0,0 -0.91512,0.88572 -1.12951,1.05953 -2.05777,1.68627 -3.5765,3.80775 -3.53863,4.6302 l 0.0075,0.07174 c 1.74801,-0.24912 4.3694,-3.80701 7.73947,-10.40107"
     style="fill:#ffffff" />
</svg>
