<?xml version="1.0" encoding="UTF-8" standalone="no"?>
<svg
   xmlns:dc="http://purl.org/dc/elements/1.1/"
   xmlns:cc="http://creativecommons.org/ns#"
   xmlns:rdf="http://www.w3.org/1999/02/22-rdf-syntax-ns#"
   xmlns:svg="http://www.w3.org/2000/svg"
   xmlns="http://www.w3.org/2000/svg"
   xmlns:xlink="http://www.w3.org/1999/xlink"
   xmlns:sodipodi="http://sodipodi.sourceforge.net/DTD/sodipodi-0.dtd"
   xmlns:inkscape="http://www.inkscape.org/namespaces/inkscape"
   viewBox="0 0 48 48"
   id="svg2"
   version="1.1"
   inkscape:version="0.48.3.1 r9886"
   width="100%"
   height="100%"
   sodipodi:docname="application-x-cd-image.svg">
  <metadata
     id="metadata82">
    <rdf:RDF>
      <cc:Work
         rdf:about="">
        <dc:format>image/svg+xml</dc:format>
        <dc:type
           rdf:resource="http://purl.org/dc/dcmitype/StillImage" />
      </cc:Work>
    </rdf:RDF>
  </metadata>
  <sodipodi:namedview
     pagecolor="#ffffff"
     bordercolor="#666666"
     borderopacity="1"
     objecttolerance="10"
     gridtolerance="10"
     guidetolerance="10"
     inkscape:pageopacity="0"
     inkscape:pageshadow="2"
     inkscape:window-width="640"
     inkscape:window-height="480"
     id="namedview80"
     showgrid="false"
     inkscape:zoom="4.9166667"
     inkscape:cx="24"
     inkscape:cy="24.610169"
     inkscape:window-x="0"
     inkscape:window-y="24"
     inkscape:window-maximized="0"
     inkscape:current-layer="svg2" />
  <defs
     id="defs4">
    <filter
       height="1.59273"
       id="filter4201"
       width="1.5868"
       x="-.2934"
       y="-.29636">
      <feGaussianBlur
         stdDeviation=".764"
         id="feGaussianBlur7" />
    </filter>
    <linearGradient
       id="linearGradient1000">
      <stop
         offset="0"
         stop-color="#fff"
         id="stop10" />
      <stop
         offset="1"
         stop-color="#fff"
         stop-opacity="0"
         id="stop12" />
    </linearGradient>
    <linearGradient
       id="linearGradient5060">
      <stop
         offset="0"
         id="stop15" />
      <stop
         offset="1"
         stop-opacity="0"
         id="stop17" />
    </linearGradient>
    <linearGradient
       gradientUnits="userSpaceOnUse"
       id="linearGradient3127"
       x2="0"
       y1="38.7186"
       y2="45.76167">
      <stop
         offset="0"
         stop-opacity="0"
         id="stop20" />
      <stop
         offset=".5"
         id="stop22" />
      <stop
         offset="1"
         stop-opacity="0"
         id="stop24" />
    </linearGradient>
    <linearGradient
       gradientUnits="userSpaceOnUse"
       id="linearGradient3157-5"
       x1="-42.69615"
       x2="-5.84311">
      <stop
         offset="0"
         stop-color="#fff"
         id="stop27" />
      <stop
         offset="1"
         stop-color="#cdcdcd"
         id="stop29" />
    </linearGradient>
    <linearGradient
       gradientTransform="matrix(0,0.723977,-0.723977,0,40.893371,7.521568)"
       gradientUnits="userSpaceOnUse"
       id="linearGradient4570"
       x1="12.2744"
       x2="35.3912"
       y1="32.4165"
       y2="14.2033">
      <stop
         offset="0"
         stop-color="#c7c7c7"
         id="stop32" />
      <stop
         offset=".5"
         stop-color="#eaeaea"
         id="stop34" />
      <stop
         offset="1"
         stop-color="#c7c7c7"
         id="stop36" />
    </linearGradient>
    <linearGradient
       gradientUnits="userSpaceOnUse"
       id="linearGradient4572"
       x2="0"
       y1="11.91852"
       y2="37.89586">
      <stop
         offset="0"
         stop-color="#b4b4b4"
         id="stop39" />
      <stop
         offset="1"
         stop-color="#969696"
         id="stop41" />
    </linearGradient>
    <linearGradient
       gradientUnits="userSpaceOnUse"
       id="linearGradient998"
       x1="6.40561"
       x2="41.36901"
       xlink:href="#linearGradient1000" />
    <radialGradient
       cx="605.71429"
       cy="486.64789"
       gradientTransform="matrix(.062142,0,0,.029001,1.636502,28.085503)"
       gradientUnits="userSpaceOnUse"
       id="radialGradient3129"
       r="117.14286"
       xlink:href="#linearGradient5060" />
    <radialGradient
       cx="605.71429"
       cy="486.64789"
       gradientTransform="matrix(-.062142,0,0,.029001,46.53201,28.085503)"
       gradientUnits="userSpaceOnUse"
       id="radialGradient3131"
       r="117.14286"
       xlink:href="#linearGradient5060" />
    <linearGradient
       inkscape:collect="always"
       xlink:href="#linearGradient1000"
       id="linearGradient3064"
       gradientUnits="userSpaceOnUse"
       x1="20.22193"
       y1="18.79833"
       x2="31.1412"
       y2="33.36464"
       gradientTransform="matrix(0.98713,0,0,0.98713,0.148005,-0.583038)" />
    <linearGradient
       inkscape:collect="always"
       xlink:href="#linearGradient1000"
       id="linearGradient3067"
       gradientUnits="userSpaceOnUse"
       x1="15.99033"
       y1="12.26081"
       x2="38.61455"
       y2="42.44154"
       gradientTransform="matrix(0.98713,0,0,0.98713,0.148005,-0.583038)" />
    <linearGradient
       inkscape:collect="always"
       xlink:href="#linearGradient4570"
       id="linearGradient3070"
       gradientUnits="userSpaceOnUse"
       gradientTransform="matrix(0,0.71465942,-0.71465942,0,40.515078,6.8417274)"
       x1="12.2744"
       y1="32.4165"
       x2="35.3912"
       y2="14.2033" />
    <linearGradient
       inkscape:collect="always"
       xlink:href="#linearGradient4572"
       id="linearGradient3072"
       gradientUnits="userSpaceOnUse"
       y1="11.91852"
       x2="0"
       y2="37.89586"
       gradientTransform="matrix(0.98713,0,0,0.98713,0.148005,-0.583038)" />
  </defs>
  <g
     transform="matrix(.833389,0,0,1,3.928449,0)"
     id="g48">
    <path
       d="m9.08134,38.7186h30.00582v7.04306h-30.00582z"
       fill="url(#linearGradient3127)"
       opacity=".5"
       id="path50" />
    <path
       d="m39.08716,38.71885v7.04268c3.20017.01326 7.73646-1.57791 7.73646-3.52179s-3.57115-3.52088-7.73646-3.52088z"
       fill="url(#radialGradient3129)"
       opacity=".5"
       id="path52" />
    <path
       d="m9.08134,38.71885v7.04268c-3.20017.01326-7.73646-1.57791-7.73646-3.52179s3.57115-3.52088 7.73646-3.52088z"
       fill="url(#radialGradient3131)"
       opacity=".5"
       id="path54" />
  </g>
  <path
     d="m-40.5-41.4999h33a2,2 0 0,1 2,2v30.9999a2,2 0 0,1 -2,2h-33a2,2 0 0,1 -2-2v-30.9999a2,2 0 0,1 2-2"
     fill="url(#linearGradient3157-5)"
     stroke="#818181"
     stroke-linecap="round"
     stroke-linejoin="round"
     transform="matrix(0,-1,-1,0,0,0)"
     id="path56" />
  <path
     d="m7.5-40.5h33a1,1 0 0,1 1,1v31a1,1 0 0,1 -1,1h-33a1,1 0 0,1 -1-1v-31a1,1 0 0,1 1-1"
     fill="none"
     stroke="url(#linearGradient998)"
     stroke-linecap="round"
     stroke-linejoin="round"
     transform="matrix(0,1,-1,0,0,0)"
     id="path58" />
  <path
     d="m0,0z"
     fill="#c75b18"
     opacity=".5"
     stroke="#000"
     stroke-linecap="round"
     stroke-linejoin="round"
     transform="translate(-53.08327,-84.61159)"
     id="path60" />
  <path
     d="m0,0z"
     fill="#c75b18"
     opacity=".5"
     stroke="#000"
     stroke-linecap="round"
     stroke-linejoin="round"
     transform="translate(-53.08327,-170.61159)"
     id="path62" />
  <path
     inkscape:connector-curvature="0"
     style="fill:url(#linearGradient3070);stroke:url(#linearGradient3072);stroke-width:1.00000215"
     id="path66"
     d="m 36.512867,23.993567 c 0,-6.932199 -5.574234,-12.506433 -12.506433,-12.506433 -6.9322,0 -12.506434,5.574234 -12.506434,12.506433 0,6.9322 5.574234,12.506434 12.506434,12.506434 6.932199,0 12.506433,-5.574234 12.506433,-12.506434 z m -7.930908,0 c 0,2.518445 -2.006687,4.575525 -4.575525,4.575525 -2.619231,0 -4.575526,-2.107986 -4.575526,-4.575525 0,-2.517941 1.855509,-4.575525 4.575526,-4.575525 2.720017,0 4.575525,2.107473 4.575525,4.575525 z" />
  <path
     inkscape:connector-curvature="0"
     style="opacity:0.5;fill:none;stroke:url(#linearGradient3067);stroke-width:1.00000215"
     id="path68"
     d="m 24.006434,12.448549 c -6.399238,0 -11.545019,5.14578 -11.545019,11.545008 0,6.399229 5.145781,11.545009 11.545019,11.545009 6.399238,0 11.545008,-5.14578 11.545008,-11.545009 0,-6.399228 -5.14578,-11.545008 -11.545008,-11.545008 z" />
  <path
     inkscape:connector-curvature="0"
     style="opacity:0.5;fill:none;stroke:url(#linearGradient3064);stroke-width:1.00000215"
     id="path70"
     d="m 24.006434,18.421524 c -3.088503,0 -5.572043,2.48354 -5.572043,5.572043 0,3.088503 2.48354,5.572043 5.572043,5.572043 3.088502,0 5.572043,-2.48354 5.572043,-5.572043 0,-3.088503 -2.483541,-5.572043 -5.572043,-5.572043 z" />
  <path
     style="opacity:0.50800003;fill:#01ff60;filter:url(#filter4201)"
     inkscape:connector-curvature="0"
     id="path72"
     transform="matrix(0.97240794,-0.16984954,0.16984954,0.97240794,-4.3421947,4.0626742)"
     d="m 28.8125,28.46875 c -0.25654,0.27879 -0.53525,0.54559 -0.84375,0.75 l 3.90625,5.4375 c 0.89721,-0.62268 1.6661,-1.39668 2.34375,-2.28125 L 28.8125,28.46875 z M 27.90625,29.25 c -0.36267,0.23271 -0.73011,0.43681 -1.125,0.5625 l 1.75,6.40625 C 29.7317,35.88877 30.82441,35.36368 31.8125,34.6875 L 27.90625,29.25 z" />
  <path
     style="opacity:0.50800003;fill:#01ff60;filter:url(#filter4201)"
     inkscape:connector-curvature="0"
     id="path74"
     transform="matrix(0.97240794,-0.16984954,0.16984954,0.97240794,-4.3421947,4.0626742)"
     d="m 16.1571,17.70544 c 0,0 1.79523,-2.46845 5.83451,-4.03927 l 1.12202,5.72231 c -1.23422,0.2244 -2.13184,1.45863 -2.13184,1.45863 z" />
  <path
     style="opacity:0.50800003;fill:#eeff01;filter:url(#filter4201)"
     inkscape:connector-curvature="0"
     id="path76"
     transform="matrix(0.82932641,0.32564826,-0.32564826,0.82932641,11.343205,-4.5928716)"
     d="m 28.8125,28.46875 c -0.25654,0.27879 -0.53525,0.54559 -0.84375,0.75 l 3.90625,5.4375 c 0.89721,-0.62268 1.6661,-1.39668 2.34375,-2.28125 L 28.8125,28.46875 z M 27.90625,29.25 c -0.36267,0.23271 -0.73011,0.43681 -1.125,0.5625 l 1.75,6.40625 C 29.7317,35.88877 30.82441,35.36368 31.8125,34.6875 L 27.90625,29.25 z" />
  <path
     style="opacity:0.50800003;fill:#eeff01;filter:url(#filter4201)"
     inkscape:connector-curvature="0"
     id="path78"
     transform="matrix(0.83621263,0.328353,-0.328353,0.83621263,11.775109,-5.4114758)"
     d="m 16.1571,17.70544 c 0,0 1.79523,-2.46845 5.83451,-4.03927 l 1.12202,5.72231 c -1.23422,0.2244 -2.13184,1.45863 -2.13184,1.45863 z" />
</svg>
