<?xml version="1.0" encoding="UTF-8" standalone="no"?>
<svg xmlns:dc="http://purl.org/dc/elements/1.1/" xmlns:cc="http://creativecommons.org/ns#" xmlns:rdf="http://www.w3.org/1999/02/22-rdf-syntax-ns#" xmlns:svg="http://www.w3.org/2000/svg" xmlns="http://www.w3.org/2000/svg" xmlns:xlink="http://www.w3.org/1999/xlink" xmlns:sodipodi="http://sodipodi.sourceforge.net/DTD/sodipodi-0.dtd" xmlns:inkscape="http://www.inkscape.org/namespaces/inkscape" viewBox="0 0 48 48" id="svg2" version="1.1" inkscape:version="0.48.4 r9939" width="100%" height="100%" sodipodi:docname="application-x-jar48.svg">
    <metadata id="metadata56">
        <rdf:RDF>
            <cc:Work rdf:about="">
                <dc:format>image/svg+xml</dc:format>
                <dc:type rdf:resource="http://purl.org/dc/dcmitype/StillImage" />
            </cc:Work>
        </rdf:RDF>
    </metadata>
    <sodipodi:namedview pagecolor="#ffffff" bordercolor="#666666" borderopacity="1" objecttolerance="10" gridtolerance="10" guidetolerance="10" inkscape:pageopacity="0" inkscape:pageshadow="2" inkscape:window-width="1280" inkscape:window-height="998" id="namedview54" showgrid="true" inkscape:zoom="9.8333333" inkscape:cx="59.694915" inkscape:cy="14.237288" inkscape:window-x="0" inkscape:window-y="0" inkscape:window-maximized="1" inkscape:current-layer="svg2" inkscape:snap-bbox="true">
        <inkscape:grid type="xygrid" id="grid3009" />
    </sodipodi:namedview>
    <defs id="defs4">
        <linearGradient inkscape:collect="always" id="linearGradient3134">
            <stop style="stop-color:white;stop-opacity:1;" offset="0" id="stop3136" />
            <stop style="stop-color:white;stop-opacity:0;" offset="1" id="stop3138" />
        </linearGradient>
        <linearGradient id="linearGradient5060">
            <stop offset="0" id="stop7" />
            <stop offset="1" stop-opacity="0" id="stop9" />
        </linearGradient>
        <linearGradient gradientUnits="userSpaceOnUse" id="linearGradient3127" x2="0" y1="38.7186" y2="45.76167">
            <stop offset="0" stop-opacity="0" id="stop12" />
            <stop offset=".5" id="stop14" />
            <stop offset="1" stop-opacity="0" id="stop16" />
        </linearGradient>
        <linearGradient gradientUnits="userSpaceOnUse" id="linearGradient3157-5" x1="-42.69615" x2="-5.84311">
            <stop offset="0" stop-color="#ae802b" id="stop19" />
            <stop offset="1" stop-color="#e1c18b" id="stop21" />
        </linearGradient>
        <linearGradient gradientUnits="userSpaceOnUse" id="linearGradient998" x1="6.40561" x2="41.36901">
            <stop offset="0" stop-color="#fff" stop-opacity=".5" id="stop24" />
            <stop offset="1" stop-color="#fff" stop-opacity="0" id="stop26" />
        </linearGradient>
        <radialGradient cx="605.71429" cy="486.64789" gradientTransform="matrix(0.062142,0,0,0.029001,1.636502,28.085503)" gradientUnits="userSpaceOnUse" id="radialGradient3129" r="117.14286" xlink:href="#linearGradient5060" />
        <radialGradient cx="605.71429" cy="486.64789" gradientTransform="matrix(-0.062142,0,0,0.029001,46.53201,28.085503)" gradientUnits="userSpaceOnUse" id="radialGradient3131" r="117.14286" xlink:href="#linearGradient5060" />
        <linearGradient id="linearGradient4342">
            <stop id="stop4344" offset="0" style="stop-color:#b4b4b4;stop-opacity:1;" />
            <stop style="stop-color:#dcdcdc;stop-opacity:1;" offset="0.5" id="stop4350" />
            <stop id="stop4346" offset="1" style="stop-color:#b4b4b4;stop-opacity:1;" />
        </linearGradient>
        <linearGradient inkscape:collect="always" xlink:href="#linearGradient4342" id="linearGradient3118" gradientUnits="userSpaceOnUse" x1="14" y1="28" x2="32" y2="28" gradientTransform="translate(-3.4039536e-7,-5.0000007)" />
        <linearGradient inkscape:collect="always" xlink:href="#linearGradient4342" id="linearGradient3121" gradientUnits="userSpaceOnUse" gradientTransform="matrix(0.36842106,0,0,0.29411765,23.526317,13.352942)" x1="14" y1="28" x2="32" y2="28" />
        <linearGradient inkscape:collect="always" xlink:href="#linearGradient3134" id="linearGradient3140" x1="22" y1="14" x2="22" y2="4" gradientUnits="userSpaceOnUse" gradientTransform="matrix(0.89999999,0,0,1.2,2.8000003,-1.2)" />
    </defs>
    <g transform="matrix(0.83555525,0,0,0.99388618,3.8762785,0.51811855)" id="g30">
        <path d="m 9.08134,38.7186 h 30.00582 v 7.04306 H 9.08134 z" id="path32" style="opacity:0.5;fill:url(#linearGradient3127)" inkscape:connector-curvature="0" />
        <path d="m 39.08716,38.71885 v 7.04268 c 3.20017,0.01326 7.73646,-1.57791 7.73646,-3.52179 0,-1.94388 -3.57115,-3.52088 -7.73646,-3.52088 z" id="path34" style="opacity:0.5;fill:url(#radialGradient3129)" inkscape:connector-curvature="0" />
        <path d="m 9.08134,38.71885 v 7.04268 c -3.20017,0.01326 -7.73646,-1.57791 -7.73646,-3.52179 0,-1.94388 3.57115,-3.52088 7.73646,-3.52088 z" id="path36" style="opacity:0.5;fill:url(#radialGradient3131)" inkscape:connector-curvature="0" />
    </g>
    <path d="m-40.5-42.4999h33a2,2 0 0,1 2,2v32.9999a2,2 0 0,1 -2,2h-33a2,2 0 0,1 -2-2v-32.9999a2,2 0 0,1 2-2" fill="url(#linearGradient3157-5)" stroke="#66420d" stroke-linecap="round" stroke-linejoin="round" transform="matrix(0,-1,-1,0,0,0)" id="path38" />
    <path d="m7.5-41.5h33a1,1 0 0,1 1,1v33a1,1 0 0,1 -1,1h-33a1,1 0 0,1 -1-1v-33a1,1 0 0,1 1-1" fill="none" stroke="url(#linearGradient998)" stroke-linecap="round" stroke-linejoin="round" transform="matrix(0,1,-1,0,0,0)" id="path40" />
    <path d="m26,33h13v7h-13z" fill="#fff" id="path42" />
    <path d="m27,34v5h1v-5h-1zm2,0v5h2v-5h-2zm3,0v5h1v-5h-1zm2,0v5h1v-5h-1zm2,0v5h2v-5h-2z" fill="#6a6a6a" id="path44" />
    <path d="m-40,10h1v11h-1z" fill="#8c5911" transform="matrix(0,-1,1,0,0,0)" id="path46" />
    <path d="m12,33v1h-1v1h-1v1h2v3h1v-3h2v-1h-1v-1h-1v-1z" fill="#8c5911" id="path48" />
    <path d="m18,33v1h-1v1h-1v1h2v3h1v-3h2v-1h-1v-1h-1v-1z" fill="#8c5911" id="path50" />
    <path inkscape:connector-curvature="0" id="rect4539" style="color:black;fill:url(#linearGradient3121);fill-opacity:1;fill-rule:evenodd;stroke:#464646;stroke-width:1.00000012;stroke-linecap:round;stroke-linejoin:round;stroke-miterlimit:4;stroke-opacity:1;stroke-dashoffset:0;marker:none;visibility:visible;display:inline;overflow:visible;enable-background:accumulate" d="m 29.5,18.5 5,0 c 0.554,0 1,0.446 1,1 l 0,3 c 0,0.554 -0.446,1 -1,1 l -5,0 c -0.554,0 -1,-0.446 -1,-1 l 0,-3 c 0,-0.554 0.446,-1 1,-1 z m -1,-2 7,0 c 1.108,0 2,0.892 2,2 l 0,5 c 0,1.108 -0.892,2 -2,2 l -7,0 c -1.108,0 -2,-0.892 -2,-2 l 0,-5 c 0,-1.108 0.892,-2 2,-2 z" />
    <rect y="12.499999" x="13.500001" height="17" width="19" id="rect4333" style="color:black;fill:url(#linearGradient3118);fill-opacity:1;stroke:#464646;stroke-width:1.00000012;stroke-linecap:round;stroke-linejoin:round;stroke-miterlimit:4;stroke-opacity:1;stroke-dasharray:none;stroke-dashoffset:0;marker:none;visibility:visible;display:inline;overflow:visible;enable-background:accumulate" ry="2" rx="2" />
    <rect style="color:black;fill:black;fill-opacity:1;fill-rule:nonzero;stroke:none;stroke-width:1.00000011999999994;marker:none;visibility:visible;display:inline;overflow:visible;enable-background:accumulate" id="rect4314" width="15.999998" height="5" x="15.000002" y="14" ry="1.5" rx="1.5" />
    <path id="path4524" d="m 21.444486,16.625936 c 0,0 -5.623075,-3.938612 0.187555,-5.771038 C 27.442671,9.0230566 25.568409,7.0992797 23.881271,6 c 0,0 6.21796,3.5939638 3.373989,5.679102 -2.843685,2.085724 -5.998043,1.190923 -2.24923,4.580116 0,0 1.686707,1.007781 -2.624773,1.740782 l -0.936771,-1.374064 z" inkscape:connector-curvature="0" style="font-size:21.55234146px;font-style:normal;font-weight:normal;line-height:125%;letter-spacing:0px;word-spacing:0px;opacity:0.75862068;fill:url(#linearGradient3140);fill-opacity:1;stroke:none;font-family:Sans" />
</svg>
