<?xml version="1.0" encoding="UTF-8" standalone="no"?>
<svg
   xmlns:dc="http://purl.org/dc/elements/1.1/"
   xmlns:cc="http://creativecommons.org/ns#"
   xmlns:rdf="http://www.w3.org/1999/02/22-rdf-syntax-ns#"
   xmlns:svg="http://www.w3.org/2000/svg"
   xmlns="http://www.w3.org/2000/svg"
   xmlns:xlink="http://www.w3.org/1999/xlink"
   xmlns:sodipodi="http://sodipodi.sourceforge.net/DTD/sodipodi-0.dtd"
   xmlns:inkscape="http://www.inkscape.org/namespaces/inkscape"
   viewBox="0 0 48 48"
   id="svg2"
   version="1.1"
   inkscape:version="0.48.3.1 r9886"
   width="100%"
   height="100%"
   sodipodi:docname="exec.svg">
  <metadata
     id="metadata61">
    <rdf:RDF>
      <cc:Work
         rdf:about="">
        <dc:format>image/svg+xml</dc:format>
        <dc:type
           rdf:resource="http://purl.org/dc/dcmitype/StillImage" />
      </cc:Work>
    </rdf:RDF>
  </metadata>
  <sodipodi:namedview
     pagecolor="#ffffff"
     bordercolor="#666666"
     borderopacity="1"
     objecttolerance="10"
     gridtolerance="10"
     guidetolerance="10"
     inkscape:pageopacity="0"
     inkscape:pageshadow="2"
     inkscape:window-width="640"
     inkscape:window-height="480"
     id="namedview59"
     showgrid="false"
     inkscape:zoom="4.9166667"
     inkscape:cx="24"
     inkscape:cy="24.610169"
     inkscape:window-x="0"
     inkscape:window-y="24"
     inkscape:window-maximized="0"
     inkscape:current-layer="svg2" />
  <defs
     id="defs4">
    <linearGradient
       id="linearGradient5060">
      <stop
         offset="0"
         id="stop7" />
      <stop
         offset="1"
         stop-opacity="0"
         id="stop9" />
    </linearGradient>
    <linearGradient
       gradientUnits="userSpaceOnUse"
       id="linearGradient3127"
       x2="0"
       y1="38.7186"
       y2="45.76167">
      <stop
         offset="0"
         stop-opacity="0"
         id="stop12" />
      <stop
         offset=".5"
         id="stop14" />
      <stop
         offset="1"
         stop-opacity="0"
         id="stop16" />
    </linearGradient>
    <linearGradient
       gradientUnits="userSpaceOnUse"
       id="linearGradient3157-5"
       x1="-42.69615"
       x2="-5.84311">
      <stop
         offset="0"
         stop-color="#fff"
         id="stop19" />
      <stop
         offset="1"
         stop-color="#cdcdcd"
         id="stop21" />
    </linearGradient>
    <linearGradient
       gradientUnits="userSpaceOnUse"
       id="linearGradient998"
       x1="6.40561"
       x2="41.36901">
      <stop
         offset="0"
         stop-color="#fff"
         id="stop24" />
      <stop
         offset="1"
         stop-color="#fff"
         stop-opacity="0"
         id="stop26" />
    </linearGradient>
    <linearGradient
       gradientUnits="userSpaceOnUse"
       id="linearGradient3124"
       x2="0"
       y1="46.18785"
       y2="6.23558">
      <stop
         offset="0"
         stop-color="#a0a0a0"
         id="stop29" />
      <stop
         offset="1"
         stop-color="#bebebe"
         id="stop31" />
    </linearGradient>
    <radialGradient
       cx="605.71429"
       cy="486.64789"
       gradientTransform="matrix(.062142,0,0,.029001,1.636502,28.085503)"
       gradientUnits="userSpaceOnUse"
       id="radialGradient3129"
       r="117.14286"
       xlink:href="#linearGradient5060" />
    <radialGradient
       cx="605.71429"
       cy="486.64789"
       gradientTransform="matrix(-.062142,0,0,.029001,46.53201,28.085503)"
       gradientUnits="userSpaceOnUse"
       id="radialGradient3131"
       r="117.14286"
       xlink:href="#linearGradient5060" />
    <linearGradient
       inkscape:collect="always"
       xlink:href="#linearGradient5060"
       id="linearGradient3039"
       gradientUnits="userSpaceOnUse"
       y1="38.03721"
       x2="0"
       y2="21.17285"
       gradientTransform="matrix(0.998843,0,0,1,0.426093,-1.238669)" />
    <linearGradient
       inkscape:collect="always"
       xlink:href="#linearGradient5060"
       id="linearGradient3042"
       gradientUnits="userSpaceOnUse"
       y1="14.21689"
       x2="0"
       y2="38.18826"
       gradientTransform="matrix(0.998843,0,0,1,0.426093,-1.238669)" />
    <linearGradient
       inkscape:collect="always"
       xlink:href="#linearGradient3124"
       id="linearGradient3045"
       gradientUnits="userSpaceOnUse"
       y1="46.18785"
       x2="0"
       y2="6.23558"
       gradientTransform="matrix(0.998843,0,0,1,0.426093,-1.238669)" />
  </defs>
  <g
     transform="matrix(.833389,0,0,1,3.928449,0)"
     id="g37">
    <path
       d="m9.08134,38.7186h30.00582v7.04306h-30.00582z"
       fill="url(#linearGradient3127)"
       opacity=".5"
       id="path39" />
    <path
       d="m39.08716,38.71885v7.04268c3.20017.01326 7.73646-1.57791 7.73646-3.52179s-3.57115-3.52088-7.73646-3.52088z"
       fill="url(#radialGradient3129)"
       opacity=".5"
       id="path41" />
    <path
       d="m9.08134,38.71885v7.04268c-3.20017.01326-7.73646-1.57791-7.73646-3.52179s3.57115-3.52088 7.73646-3.52088z"
       fill="url(#radialGradient3131)"
       opacity=".5"
       id="path43" />
  </g>
  <path
     d="m-40.5-41.4999h33a2,2 0 0,1 2,2v30.9999a2,2 0 0,1 -2,2h-33a2,2 0 0,1 -2-2v-30.9999a2,2 0 0,1 2-2"
     fill="url(#linearGradient3157-5)"
     stroke="#818181"
     stroke-linecap="round"
     stroke-linejoin="round"
     transform="matrix(0,-1,-1,0,0,0)"
     id="path45" />
  <path
     d="m7.5-40.5h33a1,1 0 0,1 1,1v31a1,1 0 0,1 -1,1h-33a1,1 0 0,1 -1-1v-31a1,1 0 0,1 1-1"
     fill="none"
     stroke="url(#linearGradient998)"
     stroke-linecap="round"
     stroke-linejoin="round"
     transform="matrix(0,1,-1,0,0,0)"
     id="path47" />
  <path
     style="opacity:0.4;fill:#ffffff"
     inkscape:connector-curvature="0"
     id="path51"
     d="m 23.001163,14.000001 c -0.553359,0 -0.998843,0.446 -0.998843,1 v 2.25 c -1.004246,0.22894 -1.932631,0.62162 -2.778032,1.15625 l -1.591906,-1.59375 c -0.391286,-0.39174 -1.013336,-0.39174 -1.404623,0 l -1.404623,1.40625 c -0.391286,0.39174 -0.391286,1.01451 0,1.40625 l 1.591906,1.59375 c -0.534011,0.84638 -0.926237,1.77584 -1.154912,2.78125 h -2.247397 c -0.553359,0 -0.998843,0.446 -0.998843,1 v 2 c 0,0.554 0.445484,1 0.998843,1 h 2.247397 c 0.228675,1.00541 0.620901,1.93487 1.154912,2.78125 l -1.591906,1.59375 c -0.391286,0.39174 -0.391286,1.01451 0,1.40625 l 1.404623,1.40625 c 0.391287,0.39174 1.013337,0.39174 1.404623,0 l 1.591906,-1.59375 c 0.845401,0.53463 1.773786,0.92731 2.778032,1.15625 v 2.25 c 0,0.554 0.445484,1 0.998843,1 h 1.997686 c 0.553359,0 0.998843,-0.446 0.998843,-1 v -2.25 c 1.004247,-0.22894 1.932632,-0.62162 2.778032,-1.15625 l 1.591907,1.59375 c 0.391286,0.39174 1.013336,0.39173 1.404622,0 l 1.404623,-1.40625 c 0.391287,-0.39174 0.391287,-1.01451 0,-1.40625 l -1.591906,-1.59375 c 0.534012,-0.84638 0.926238,-1.77584 1.154913,-2.78125 h 2.247396 c 0.553359,0 0.998843,-0.446 0.998843,-1 v -2 c 0,-0.554 -0.445484,-1 -0.998843,-1 h -2.247396 c -0.228675,-1.00541 -0.620901,-1.93487 -1.154913,-2.78125 l 1.591906,-1.59375 c 0.391287,-0.39174 0.391277,-1.01451 0,-1.40625 l -1.404623,-1.40625 c -0.391286,-0.39174 -1.013336,-0.39174 -1.404622,0 l -1.591907,1.59375 c -0.8454,-0.53463 -1.773785,-0.92731 -2.778032,-1.15625 v -2.25 c 0,-0.554 -0.445484,-1 -0.998843,-1 h -1.997686 z m 0.998843,8 c 2.205446,-1e-6 3.995372,1.792 3.995372,4 0,2.208 -1.789926,4 -3.995372,4 -2.205445,0 -3.995372,-1.792 -3.995372,-4 0,-2.208 1.789927,-4 3.995372,-4 z" />
  <path
     inkscape:connector-curvature="0"
     style="fill:url(#linearGradient3045)"
     id="path53"
     d="m 23.001163,13.000001 c -0.553359,0 -0.998843,0.446 -0.998843,1 v 2.25 c -1.004246,0.22894 -1.932631,0.62162 -2.778032,1.15625 l -1.591906,-1.59375 c -0.391286,-0.39174 -1.013336,-0.39174 -1.404623,0 l -1.404623,1.40625 c -0.391286,0.39174 -0.391286,1.01451 0,1.40625 l 1.591906,1.59375 c -0.534011,0.84638 -0.926237,1.77584 -1.154912,2.78125 h -2.247397 c -0.553359,0 -0.998843,0.446 -0.998843,1 v 2 c 0,0.554 0.445484,1 0.998843,1 h 2.247397 c 0.228675,1.00541 0.620901,1.93487 1.154912,2.78125 l -1.591906,1.59375 c -0.391286,0.39174 -0.391286,1.01451 0,1.40625 l 1.404623,1.40625 c 0.391287,0.39174 1.013337,0.39174 1.404623,0 l 1.591906,-1.59375 c 0.845401,0.53463 1.773786,0.92731 2.778032,1.15625 v 2.25 c 0,0.554 0.445484,1 0.998843,1 h 1.997686 c 0.553359,0 0.998843,-0.446 0.998843,-1 v -2.25 c 1.004247,-0.22894 1.932632,-0.62162 2.778032,-1.15625 l 1.591907,1.59375 c 0.391286,0.39174 1.013336,0.39173 1.404622,0 l 1.404623,-1.40625 c 0.391287,-0.39174 0.391287,-1.01451 0,-1.40625 l -1.591906,-1.59375 c 0.534012,-0.84638 0.926238,-1.77584 1.154913,-2.78125 h 2.247396 c 0.553359,0 0.998843,-0.446 0.998843,-1 v -2 c 0,-0.554 -0.445484,-1 -0.998843,-1 h -2.247396 c -0.228675,-1.00541 -0.620901,-1.93487 -1.154913,-2.78125 l 1.591906,-1.59375 c 0.391287,-0.39174 0.391277,-1.01451 0,-1.40625 l -1.404623,-1.40625 c -0.391286,-0.39174 -1.013336,-0.39174 -1.404622,0 l -1.591907,1.59375 c -0.8454,-0.53463 -1.773785,-0.92731 -2.778032,-1.15625 v -2.25 c 0,-0.554 -0.445484,-1 -0.998843,-1 h -1.997686 z m 0.998843,8 c 2.205446,-1e-6 3.995372,1.792 3.995372,4 0,2.208 -1.789926,4 -3.995372,4 -2.205445,0 -3.995372,-1.792 -3.995372,-4 0,-2.208 1.789927,-4 3.995372,-4 z" />
  <path
     inkscape:connector-curvature="0"
     style="opacity:0.1;fill:none;stroke:url(#linearGradient3042);stroke-width:1.00000095"
     id="path55"
     d="m 23.001163,13.500001 c -0.748533,0.10084 -0.43115,0.99423 -0.499421,1.51823 -0.06526,0.50575 0.140557,1.08607 -0.121619,1.54261 -0.702097,0.39447 -1.598618,0.43198 -2.292385,0.89767 -0.367824,0.2198 -0.941679,0.69724 -1.302691,0.19548 -0.562408,-0.53039 -1.064647,-1.13318 -1.666999,-1.61551 -0.618943,-0.11305 -0.925718,0.60482 -1.361992,0.93376 -0.356527,0.3706 -1.119603,0.89536 -0.493678,1.405 0.520407,0.56321 1.136383,1.0546 1.599457,1.66111 0.101492,0.68374 -0.6566,1.18546 -0.762597,1.85149 -0.339646,0.4736 -0.117703,1.37639 -0.751549,1.6001 -0.843144,0.04661 -1.697664,-0.04394 -2.536362,0.047 -0.510669,0.35808 -0.221704,1.07861 -0.298025,1.61704 0.01388,0.51252 -0.166997,1.42759 0.635034,1.346 0.764365,0.03035 1.546,-0.05969 2.300186,0.04284 0.558703,0.42785 0.377902,1.33715 0.787857,1.89519 0.09655,0.55865 0.901526,1.05374 0.559882,1.6424 -0.567123,0.61655 -1.222574,1.15821 -1.747396,1.8095 -0.112919,0.61966 0.60412,0.92679 0.932679,1.36357 0.370172,0.35694 0.894325,1.1209 1.403375,0.49425 0.562558,-0.52101 1.05338,-1.1377 1.659188,-1.60131 0.682949,-0.10161 1.184088,0.65736 1.849348,0.76348 0.473052,0.34004 1.374797,0.11784 1.598249,0.75242 0.04656,0.84412 -0.04389,1.69963 0.04695,2.5393 0.357666,0.51126 1.077362,0.22196 1.615169,0.29837 0.511927,-0.0139 1.425939,0.16719 1.344443,-0.63577 0.03032,-0.76525 -0.05962,-1.54779 0.04279,-2.30285 0.427355,-0.55935 1.335603,-0.37834 1.892998,-0.78877 0.558003,-0.09666 1.05252,-0.90257 1.640499,-0.56053 0.615837,0.56778 1.15687,1.22399 1.807407,1.74942 0.618943,0.11305 0.925717,-0.60482 1.361992,-0.93376 0.356527,-0.3706 1.119603,-0.89536 0.493678,-1.405 -0.520407,-0.56321 -1.136383,-1.0546 -1.599457,-1.66111 -0.101492,-0.68374 0.656599,-1.18546 0.762597,-1.85149 0.339646,-0.4736 0.117703,-1.37639 0.751549,-1.6001 0.843143,-0.04661 1.697664,0.04394 2.536362,-0.047 0.510669,-0.35808 0.221703,-1.07861 0.298025,-1.61704 -0.01388,-0.51252 0.166996,-1.42759 -0.635035,-1.346 -0.764364,-0.03035 -1.545999,0.05969 -2.300185,-0.04284 -0.558703,-0.42785 -0.377902,-1.33715 -0.787858,-1.89519 -0.09655,-0.55865 -0.901525,-1.05374 -0.559881,-1.6424 0.567123,-0.61655 1.222574,-1.15821 1.747396,-1.8095 0.112919,-0.61966 -0.60412,-0.92679 -0.93268,-1.36357 -0.370171,-0.35694 -0.894324,-1.1209 -1.403374,-0.49425 -0.562558,0.52101 -1.05338,1.1377 -1.659188,1.60131 -0.682949,0.10161 -1.184089,-0.65736 -1.849348,-0.76348 -0.473052,-0.34004 -1.374798,-0.11784 -1.598249,-0.75242 -0.04656,-0.84412 0.04389,-1.69963 -0.04695,-2.5393 -0.357666,-0.51126 -1.077362,-0.22196 -1.615169,-0.29837 h -0.845022 z" />
  <path
     inkscape:connector-curvature="0"
     style="opacity:0.1;fill:none;stroke:url(#linearGradient3039);stroke-width:1.00000095"
     id="path57"
     d="m 24.000006,29.512151 c 2.649481,0.07738 4.927103,-2.56905 4.442674,-5.18209 -0.329698,-2.62503 -3.267625,-4.48611 -5.774121,-3.61441 -2.460201,0.69829 -3.883502,3.70535 -2.808168,6.04223 0.678505,1.63426 2.36626,2.77358 4.139615,2.75427 z" />
</svg>
