<?xml version="1.0" encoding="UTF-8" standalone="no"?>
<svg
   xmlns:dc="http://purl.org/dc/elements/1.1/"
   xmlns:cc="http://creativecommons.org/ns#"
   xmlns:rdf="http://www.w3.org/1999/02/22-rdf-syntax-ns#"
   xmlns:svg="http://www.w3.org/2000/svg"
   xmlns="http://www.w3.org/2000/svg"
   xmlns:xlink="http://www.w3.org/1999/xlink"
   xmlns:sodipodi="http://sodipodi.sourceforge.net/DTD/sodipodi-0.dtd"
   xmlns:inkscape="http://www.inkscape.org/namespaces/inkscape"
   viewBox="0 0 48 48"
   id="svg2"
   version="1.1"
   inkscape:version="0.48.3.1 r9886"
   width="100%"
   height="100%"
   sodipodi:docname="audio-x-generic.svg">
  <metadata
     id="metadata65">
    <rdf:RDF>
      <cc:Work
         rdf:about="">
        <dc:format>image/svg+xml</dc:format>
        <dc:type
           rdf:resource="http://purl.org/dc/dcmitype/StillImage" />
      </cc:Work>
    </rdf:RDF>
  </metadata>
  <sodipodi:namedview
     pagecolor="#ffffff"
     bordercolor="#666666"
     borderopacity="1"
     objecttolerance="10"
     gridtolerance="10"
     guidetolerance="10"
     inkscape:pageopacity="0"
     inkscape:pageshadow="2"
     inkscape:window-width="640"
     inkscape:window-height="480"
     id="namedview63"
     showgrid="false"
     inkscape:zoom="4.9166667"
     inkscape:cx="24"
     inkscape:cy="24"
     inkscape:window-x="0"
     inkscape:window-y="24"
     inkscape:window-maximized="0"
     inkscape:current-layer="svg2" />
  <defs
     id="defs4">
    <linearGradient
       id="linearGradient5060">
      <stop
         offset="0"
         id="stop10" />
      <stop
         offset="1"
         stop-opacity="0"
         id="stop12" />
    </linearGradient>
    <linearGradient
       gradientUnits="userSpaceOnUse"
       id="linearGradient3127"
       x2="0"
       y1="38.7186"
       y2="45.76167">
      <stop
         offset="0"
         stop-opacity="0"
         id="stop15" />
      <stop
         offset=".5"
         id="stop17" />
      <stop
         offset="1"
         stop-opacity="0"
         id="stop19" />
    </linearGradient>
    <linearGradient
       gradientUnits="userSpaceOnUse"
       id="linearGradient3157-5"
       x1="-42.69615"
       x2="-5.84311">
      <stop
         offset="0"
         stop-color="#cf0000"
         id="stop22" />
      <stop
         offset="1"
         stop-color="#dc5600"
         id="stop24" />
    </linearGradient>
    <linearGradient
       gradientUnits="userSpaceOnUse"
       id="linearGradient998"
       x1="6.40561"
       x2="41.36901">
      <stop
         offset="0"
         stop-color="#fff"
         stop-opacity=".545"
         id="stop27" />
      <stop
         offset="1"
         stop-color="#fff"
         stop-opacity="0"
         id="stop29" />
    </linearGradient>
    <linearGradient
       gradientUnits="userSpaceOnUse"
       id="linearGradient4594"
       x1="8.21142"
       x2="31.74275"
       y1="-5.71365"
       y2="25.48744">
      <stop
         offset="0"
         stop-color="#fff"
         id="stop37" />
      <stop
         offset="1"
         stop-color="#fff"
         stop-opacity="0"
         id="stop39" />
    </linearGradient>
    <radialGradient
       cx="605.71429"
       cy="486.64789"
       gradientTransform="matrix(.062142,0,0,.029001,1.636502,28.085503)"
       gradientUnits="userSpaceOnUse"
       id="radialGradient3129"
       r="117.14286"
       xlink:href="#linearGradient5060" />
    <radialGradient
       cx="605.71429"
       cy="486.64789"
       gradientTransform="matrix(-.062142,0,0,.029001,46.53201,28.085503)"
       gradientUnits="userSpaceOnUse"
       id="radialGradient3131"
       r="117.14286"
       xlink:href="#linearGradient5060" />
  </defs>
  <g
     transform="matrix(.833389,0,0,1,3.928449,0)"
     id="g43">
    <path
       d="m9.08134,38.7186h30.00582v7.04306h-30.00582z"
       fill="url(#linearGradient3127)"
       opacity=".5"
       id="path45" />
    <path
       d="m39.08716,38.71885v7.04268c3.20017.01326 7.73646-1.57791 7.73646-3.52179s-3.57115-3.52088-7.73646-3.52088z"
       fill="url(#radialGradient3129)"
       opacity=".5"
       id="path47" />
    <path
       d="m9.08134,38.71885v7.04268c-3.20017.01326-7.73646-1.57791-7.73646-3.52179s3.57115-3.52088 7.73646-3.52088z"
       fill="url(#radialGradient3131)"
       opacity=".5"
       id="path49" />
  </g>
  <path
     d="m-40.5-41.4999h33a2,2 0 0,1 2,2v30.9999a2,2 0 0,1 -2,2h-33a2,2 0 0,1 -2-2v-30.9999a2,2 0 0,1 2-2"
     fill="url(#linearGradient3157-5)"
     stroke="#8d2020"
     stroke-linecap="round"
     stroke-linejoin="round"
     transform="matrix(0,-1,-1,0,0,0)"
     id="path51" />
  <path
     style="opacity:0.33500001000000001;color:#000000;fill:#000000;fill-opacity:1;fill-rule:nonzero;stroke-width:1;stroke-linecap:butt;stroke-linejoin:miter;stroke-miterlimit:4;stroke-opacity:1;stroke-dasharray:none;stroke-dashoffset:0;marker:none;visibility:visible;display:inline;overflow:visible;enable-background:accumulate"
     d="m 40.90591,22.13416 -0.14916,0.73334 -0.09322,-0.73334 -0.07458,-0.73334 -0.18645,0.73334 -0.18645,0.73334 -0.03729,-0.6962 c -0.02387,-0.38328 -0.16097,-0.69621 -0.29832,-0.69621 -0.13735,0 -0.29511,-0.19902 -0.35425,-0.43629 -0.05914,-0.23727 -0.14143,0.22732 -0.18645,1.03039 -0.07623,1.3596 -0.09486,1.40067 -0.27967,0.65907 -0.10916,-0.43804 -0.20783,-1.19667 -0.22374,-1.68946 -0.01591,-0.49279 -0.14233,-0.89114 -0.27968,-0.89114 -0.13735,0 -0.29511,-0.19902 -0.35425,-0.43629 -0.07809,-0.31328 -0.14255,-0.23311 -0.20509,0.29705 l -0.07458,0.73334 -0.18645,-0.73334 c -0.12756,-0.51824 -0.21306,-0.0702 -0.27967,1.53165 -0.08317,1.99982 -0.10092,2.11696 -0.24238,1.05823 l -0.1678,-1.19748 -0.13051,1.06752 -0.13051,1.05823 -0.09322,-1.39241 c -0.04415,-0.76656 -0.17109,-1.54408 -0.27968,-1.72659 -0.16894,-0.28399 -0.22859,-0.22562 -0.46612,0.39916 -0.24427,0.64251 -0.29179,0.43457 -0.3729,-1.72659 -0.08812,-2.34774 -0.10314,-2.28782 -0.24238,1.39241 l -0.14916,3.85234 -0.0559,-3.05402 c -0.0349,-1.67913 -0.13285,-3.27224 -0.22374,-3.54601 -0.18565,-0.55921 -0.63393,-0.67731 -0.63393,-0.16709 0,0.20648 -0.1427,0.3249 -0.39154,0.3249 -0.34293,0 -0.41756,0.4609 -0.46612,3.22111 -0.03114,1.77039 -0.08338,2.57638 -0.13051,1.79157 -0.04803,-0.80004 -0.20983,-1.42026 -0.35425,-1.42026 -0.14442,0 -0.26103,0.14238 -0.26103,0.3249 0,0.18252 -0.1144,0.33418 -0.26103,0.33418 -0.14663,0 -0.28798,-0.3414 -0.31696,-0.76119 -0.03265,-0.47271 -0.1239,-0.2081 -0.22374,0.69621 l -0.14916,1.45739 -0.09322,-1.45739 C 31.53207,20.74042 31.5022,20.67605 31.34114,21.40083 l -0.18645,0.79832 -0.07458,-1.05823 -0.09322,-1.06752 -0.18645,0.73334 c -0.13957,0.56705 -0.20497,0.3109 -0.27967,-1.1325 l -0.09322,-1.85655 -0.14916,1.46667 -0.1678,1.45739 -0.09322,-1.79157 c -0.08607,-1.58065 -0.13754,-1.32184 -0.41019,2.19073 l -0.31696,3.9823 -0.0559,-4.12154 C 29.20054,18.73849 29.07597,16.65232 28.95465,16.3603 l -0.22374,-0.52912 -0.0559,0.65907 c -0.03425,0.36503 -0.14909,0.8485 -0.26103,1.06752 -0.183,0.35805 -0.22859,0.32755 -0.29832,-0.2692 l -0.07464,-0.65907 -0.16781,0.8633 c -0.16149,0.7981 -0.17477,0.74366 -0.26103,-0.66836 l -0.09322,-1.52237 -0.18645,1.98651 c -0.10173,1.09509 -0.2306,3.09583 -0.27967,4.44644 l -0.09322,2.45993 -0.14916,-1.79157 C 26.69125,20.97296 26.62818,20.7651 26.51214,21.40084 l -0.13051,0.79832 -0.0559,-1.03039 c -0.02774,-0.56579 -0.16097,-1.0211 -0.29832,-1.0211 -0.13735,0 -0.29512,-0.19902 -0.35425,-0.43629 -0.05913,-0.23727 -0.14563,0.19884 -0.18645,0.96541 -0.04082,0.76657 -0.16774,1.57255 -0.27967,1.79157 l -0.20509,0.39916 -0.03729,-0.4827 c -0.01731,-0.26359 -0.11377,-0.76625 -0.22374,-1.12321 l -0.20512,-0.64979 -0.14916,0.78903 c -0.11482,0.5894 -0.17192,0.36133 -0.20509,-0.89114 -0.02715,-1.0249 -0.15551,-1.68946 -0.31696,-1.68946 -0.14664,0 -0.26103,0.11391 -0.26103,0.25992 0,0.14601 -0.11439,0.2692 -0.26103,0.2692 -0.16392,0 -0.29881,0.80323 -0.33561,2.08862 -0.04953,1.72882 -0.08364,1.48936 -0.20509,-1.36456 l -0.14916,-3.4439 -0.11187,3.18398 -0.11187,3.18398 -0.14916,-2.92407 -0.14916,-2.91478 -0.11187,2.19073 c -0.09731,1.96504 -0.1296,2.07053 -0.27968,1.05823 -0.13724,-0.92568 -0.18376,-0.67675 -0.26103,1.39241 l -0.09322,2.52491 -0.22374,-2.19073 c -0.12466,-1.2046 -0.3285,-3.23382 -0.44748,-4.51141 l -0.22374,-2.32069 -0.09322,3.119 -0.09322,3.119 -0.14916,-2.74769 C 20.0706,17.2836 19.90995,16.00662 19.8,15.95188 c -0.10995,-0.05474 -0.22854,1.1464 -0.26103,2.67343 l -0.0559,2.77554 -0.14916,-3.05402 c -0.06479,-1.33281 -0.1438,-2.21847 -0.18645,-2.28356 -0.006,0.01687 -0.01456,0.05962 -0.01868,0.12068 -0.03252,0.48848 -0.17033,0.92957 -0.31696,0.97469 -0.14663,0.04512 -0.27967,0.73159 -0.27967,1.60591 0,1.76062 -0.52283,3.70103 -0.82038,3.03546 l -0.1678,-0.39916 -0.03729,0.37131 c -0.01981,0.229 -0.17795,0.36203 -0.42883,0.36203 -0.27692,0 -0.41843,0.15658 -0.44748,0.50127 -0.04183,0.49662 -0.10436,0.23607 -0.61528,-2.25571 -0.11601,-0.5658 -0.32235,-1.03039 -0.44748,-1.03039 -0.12513,0 -0.25097,-0.13279 -0.27967,-0.29705 -0.0287,-0.16426 -0.11586,0.32881 -0.20509,1.09536 -0.05477,0.47039 -0.10125,0.74792 -0.13051,0.79832 -0.03759,-0.0664 -0.0675,-0.63438 -0.09322,-1.8287 -0.03252,-1.50916 -0.15087,-2.4228 -0.31696,-2.4228 -0.14663,0 -0.27742,0.18974 -0.27967,0.42701 -0.0029,0.32736 -0.06492,0.38316 -0.26103,0.23207 -0.19611,-0.15109 -0.26259,-0.10526 -0.29832,0.20422 -0.03133,0.27104 -0.09929,0.18254 -0.22374,-0.2692 l -0.18645,-0.65907 -0.09322,0.52912 c -0.07066,0.42174 -0.12405,0.33889 -0.26103,-0.39916 -0.11013,-0.59336 -0.19923,0.34358 -0.26103,2.58989 -0.06219,2.26089 -0.16277,3.11085 -0.26103,2.38567 l -0.14916,-1.12321 -0.20509,0.8633 c -0.10997,0.47454 -0.23337,1.12887 -0.27968,1.45739 -0.04631,0.32852 -0.12335,-0.06023 -0.1678,-0.8633 -0.07973,-1.44088 -0.07641,-1.4494 -0.33561,-0.69621 -0.14446,0.41978 -0.35364,0.76119 -0.46612,0.76119 -0.11248,0 -0.30253,-0.64473 -0.42883,-1.42954 -0.20147,-1.25175 -0.24863,-1.33663 -0.35426,-0.69621 L 9.89953,20.74179 9.73173,20.00845 C 9.58683,19.39176 9.54175,19.5084 9.4707,20.74179 9.38936,22.15343 9.37936,22.17004 9.19103,21.33589 9.0839,20.86135 8.95843,20.08384 8.91136,19.6093 8.84998,18.99058 8.7821,19.23516 8.66898,20.4726 L 8.51982,22.19919 8.46392,20.76965 C 8.43164,19.92492 8.30479,19.34939 8.14696,19.34939 c -0.14664,0 -0.27882,-0.3414 -0.29832,-0.76119 -0.03473,-0.74637 -0.04398,-0.74659 -0.26103,0.27848 -0.31396,1.48248 -0.46353,1.52334 -0.5407,0.14852 l -0.0559,-1.19747 v 10.76799 c 0.01807,0.20505 0.04701,0.54134 0.07458,0.98397 l 0.11187,1.79157 0.1678,-1.53165 c 0.077,-0.73348 0.12144,-1.10432 0.14916,-1.16034 0.02178,0.01922 0.03365,0.27292 0.0559,0.73334 0.07723,1.59021 0.57421,1.37819 0.63393,-0.2692 0.03705,-1.02163 0.08463,-1.17942 0.18645,-0.63123 l 0.14916,0.73334 0.1678,-0.73334 0.1678,-0.72405 0.0559,0.8633 c 0.03233,0.47454 0.15835,1.10039 0.27967,1.39241 0.16545,0.39823 0.25052,0.05116 0.31696,-1.39241 l 0.07458,-1.93081 0.1678,2.58989 0.14916,2.58989 0.09322,-2.06077 c 0.05185,-1.13159 0.14155,-1.9187 0.20509,-1.75444 0.25243,0.65248 0.61528,0.24386 0.61528,-0.69621 0,-0.79643 0.0716,-0.99325 0.39154,-0.99325 0.32742,0 0.40434,0.25203 0.44748,1.42026 l 0.05587,1.42954 0.14916,-1.45739 0.14916,-1.46667 0.20509,1.1325 c 0.1091,0.62055 0.22664,2.20406 0.26103,3.51816 0.04869,1.86045 0.09239,1.46422 0.20509,-1.79157 l 0.14916,-4.18652 0.09322,4.18652 c 0.05883,2.29968 0.18981,3.78848 0.27967,3.31394 0.17447,-0.92129 0.37392,-0.86209 0.72715,0.20422 0.15263,0.46072 0.26171,-0.51181 0.35425,-3.18398 0.14284,-4.12466 0.50609,-4.4257 0.55935,-0.46414 l 0.01868,2.32069 0.35425,-1.26245 c 0.19625,-0.69355 0.392,-1.31941 0.42883,-1.39241 0.03683,-0.073 0.13451,0.49589 0.22374,1.26245 l 0.1678,1.39241 0.11187,-1.79157 c 0.09271,-1.65762 0.10326,-1.71922 0.26103,-0.79832 l 0.16781,0.99325 0.07458,-0.8633 c 0.04356,-0.47454 0.17253,-1.25206 0.27967,-1.72659 l 0.20509,-0.8633 0.0559,0.73334 c 0.11892,1.29142 0.49471,1.5153 0.55935,0.33418 0.10128,-1.85044 0.44511,-0.48106 0.5407,2.12575 l 0.09322,2.38567 0.14916,-2.06077 0.16781,-2.05149 0.11187,3.119 c 0.08621,2.48388 0.12432,2.83641 0.24238,1.72659 0.08173,-0.76841 0.22701,-1.25047 0.31696,-1.06752 0.08995,0.18295 0.20253,-0.68044 0.24238,-1.92153 0.03985,-1.24109 0.14133,-2.97627 0.24238,-3.85234 0.15503,-1.34397 0.2116,-0.99221 0.29832,2.25571 0.09354,3.50291 0.12045,3.66382 0.26103,1.79157 0.11713,-1.55997 0.16346,-1.81306 0.24238,-1.05823 l 0.11187,0.99325 0.1678,-0.99325 0.16781,-0.99325 0.11187,0.72405 c 0.06427,0.45624 0.1629,0.06164 0.26103,-1.05823 0.13918,-1.58844 0.16034,-1.38532 0.26103,1.79157 l 0.11187,3.58314 0.14916,-2.91478 0.14916,-2.92407 0.13051,4.17724 0.11187,4.18652 0.14916,-5.17978 c 0.06934,-2.51485 0.11608,-3.72347 0.14916,-3.88019 0.02237,0.13261 0.04451,0.75973 0.07458,1.81942 0.09497,3.3468 0.46011,4.81088 0.59664,2.39495 l 0.07458,-1.39241 0.14916,1.39241 c 0.12007,1.1325 0.19416,1.29473 0.35425,0.8633 0.10835,-0.29202 0.20348,-0.92921 0.20509,-1.41098 0.0016,-0.48177 0.07008,-1.34595 0.16781,-1.92153 0.17567,-1.0347 0.19058,-1.04194 0.52206,-0.58481 0.18438,0.25429 0.3431,0.74859 0.35425,1.09536 0.01438,0.44761 0.12616,0.63123 0.39154,0.63123 0.50178,0 0.94521,-0.68412 0.98818,-1.51309 0.03312,-0.63856 0.05715,-0.65166 0.24238,-0.2135 0.15826,0.37434 0.19819,0.27304 0.24238,-0.52912 0.03014,-0.54754 0.16226,-1.26811 0.27967,-1.59663 0.12774,-0.35742 0.23974,1.53855 0.27967,4.71564 0.03993,3.17709 0.15193,5.06378 0.27967,4.70635 0.11742,-0.32852 0.23194,-1.19147 0.26103,-1.92153 0.02909,-0.73006 0.13703,-1.74467 0.24238,-2.25571 l 0.18645,-0.92827 0.11187,1.12321 c 0.06295,0.7073 0.14855,0.0951 0.24238,-1.65233 l 0.14916,-2.79411 0.09322,2.32997 c 0.04762,1.2776 0.1718,2.86111 0.27967,3.51816 l 0.18645,1.18819 0.07458,-1.72659 c 0.06402,-1.86084 0.63928,-3.73669 0.87631,-2.8498 0.07125,0.26661 0.15612,-0.02088 0.20509,-0.66836 0.04696,-0.62055 0.14595,-0.93348 0.20509,-0.69621 0.06522,0.26167 0.25242,0.43629 0.48477,0.43629 0.29801,0 0.39046,-0.2433 0.42883,-1.09536 0.03658,-0.81197 0.07655,-0.91587 0.14916,-0.39916 0.05382,0.38328 0.21528,0.69621 0.35425,0.69621 0.13897,0 0.271,0.19902 0.29832,0.43629 0.02732,0.23727 0.13174,-0.07566 0.22374,-0.69621 0.11649,-0.78578 0.20289,-0.04537 0.27967,2.45065 l 0.09322,3.58314 0.14916,-3.91732 0.14916,-3.91732 0.11187,4.18652 c 0.095,3.43247 0.15463,3.84623 0.27967,2.32069 l 0.14916,-1.85655 0.13051,1.85655 c 0.12945,1.79599 0.14464,1.76487 0.22374,-0.99325 0.10752,-3.74958 0.45992,-5.01291 0.57799,-2.06077 0.05059,1.26577 0.13922,1.82753 0.22374,1.39241 0.13906,-0.7159 0.14228,-0.70724 0.29832,0.39916 l 0.16781,1.1325 0.07458,-1.53165 c 0.05417,-0.97642 0.14968,-1.3554 0.26103,-1.05823 l 0.1678,0.46414 0.22374,-0.5941 c 0.60182,-1.70108 0.633,-1.71625 0.72715,-0.2692 0.07892,1.21294 0.11011,1.08607 0.24238,-0.99325 l 0.14916,-2.39495 0.11187,3.19327 c 0.09435,2.72035 0.12818,2.95583 0.26103,1.65233 l 0.14916,-1.52237 0.14916,1.52237 0.13051,1.53165 0.0559,-1.49452 c 0.03138,-0.82131 0.16097,-1.49452 0.29832,-1.49452 0.13735,0 0.29511,0.19902 0.35425,0.43629 0.05914,0.23727 0.15291,-0.37898 0.20508,-1.36456 l 0.09322,-1.79157 0.16781,1.39241 c 0.08923,0.76656 0.19503,1.25963 0.22374,1.09536 0.02871,-0.16427 0.17033,-0.29705 0.31696,-0.29705 0.14663,0 0.28097,-0.3414 0.29832,-0.76119 0.02595,-0.62815 0.05626,-0.69905 0.22374,-0.37131 0.17443,0.34127 0.227,0.30077 0.27967,-0.3249 l 0.0559,-0.73334 z"
     id="path53" />
  <path
     d="m7.5-40.5h33a1,1 0 0,1 1,1v31a1,1 0 0,1 -1,1h-33a1,1 0 0,1 -1-1v-31a1,1 0 0,1 1-1"
     fill="none"
     stroke="url(#linearGradient998)"
     stroke-linecap="round"
     stroke-linejoin="round"
     transform="matrix(0,1,-1,0,0,0)"
     id="path55" />
  <path
     d="m17.72582,6h21.41225c1.288,0 1.86193.48911 1.86193,2v34.5h-12.90264z"
     fill="url(#linearGradient4594)"
     opacity=".99"
     id="path57" />
  <path
     d="m 24.51605,9.10974 c -0.76738,-0.09969 -0.87364,0.62215 -0.7937,1.19648 -0.0073,5.71513 0.01451,11.4355 -0.01088,17.14736 -0.18742,0.19659 -0.54709,-0.12673 -0.78587,-0.04282 -2.60137,-0.1592 -5.4436,1.73453 -5.70366,4.46746 -0.3065,2.17284 1.98033,3.96061 4.01961,3.62266 2.56963,-0.2738 4.57717,-2.87726 4.24216,-5.4474 0.0073,-4.52526 -0.01451,-9.05576 0.01088,-13.57775 0.17515,-0.20139 0.4364,0.2274 0.62091,0.24843 2.06641,1.22749 3.89432,3.25167 4.01771,5.77243 0.13569,1.96971 -0.45839,3.89711 -1.12678,5.72313 2.23965,-2.76777 2.95661,-6.80539 1.4003,-10.07454 -0.79594,-1.89769 -2.59149,-3.06717 -3.59595,-4.8298 C 26.06899,12.13748 25.50444,10.8225 25.32781,9.43189 25.18238,9.14191 24.79932,9.1066 24.51605,9.10972 z"
     id="path59"
     style="opacity:0.40000000000000002;color:#000000;fill:#000000;fill-opacity:1;fill-rule:nonzero;stroke-width:1;stroke-linecap:butt;stroke-linejoin:miter;stroke-miterlimit:4;stroke-opacity:1;stroke-dasharray:none;stroke-dashoffset:0;marker:none;visibility:visible;display:inline;overflow:visible;enable-background:accumulate" />
  <path
     d="m 24.51605,10.28425 c -0.76738,-0.09969 -0.87364,0.62215 -0.7937,1.19648 -0.0073,5.71513 0.01451,11.4355 -0.01088,17.14736 -0.18742,0.19659 -0.54709,-0.12673 -0.78587,-0.04282 -2.60137,-0.1592 -5.4436,1.73453 -5.70366,4.46746 -0.3065,2.17284 1.98033,3.96061 4.01961,3.62266 2.56963,-0.2738 4.57717,-2.87726 4.24216,-5.4474 0.0073,-4.52526 -0.01451,-9.05576 0.01088,-13.57775 0.17515,-0.20139 0.4364,0.2274 0.62091,0.24843 2.06641,1.22749 3.89432,3.25167 4.01771,5.77243 0.13569,1.96971 -0.45839,3.89711 -1.12678,5.72313 2.23965,-2.76777 2.95661,-6.80539 1.4003,-10.07454 -0.79594,-1.89769 -2.59149,-3.06717 -3.59595,-4.8298 -0.74179,-1.1779 -1.30634,-2.49288 -1.48297,-3.88349 -0.14543,-0.28998 -0.52849,-0.32529 -0.81176,-0.32217 z"
     id="path61"
     style="fill:#ffffff" />
</svg>
