<?xml version="1.0" encoding="UTF-8" standalone="no"?>
<svg xmlns:dc="http://purl.org/dc/elements/1.1/" xmlns:cc="http://creativecommons.org/ns#" xmlns:rdf="http://www.w3.org/1999/02/22-rdf-syntax-ns#" xmlns:svg="http://www.w3.org/2000/svg" xmlns="http://www.w3.org/2000/svg" xmlns:xlink="http://www.w3.org/1999/xlink" xmlns:sodipodi="http://sodipodi.sourceforge.net/DTD/sodipodi-0.dtd" xmlns:inkscape="http://www.inkscape.org/namespaces/inkscape" viewBox="0 0 48 48" id="svg2" version="1.1" inkscape:version="0.48.4 r9939" width="100%" height="100%" sodipodi:docname="audio-flac.svg">
    <metadata id="metadata65">
        <rdf:RDF>
            <cc:Work rdf:about="">
                <dc:format>image/svg+xml</dc:format>
                <dc:type rdf:resource="http://purl.org/dc/dcmitype/StillImage" />
            </cc:Work>
        </rdf:RDF>
    </metadata>
    <sodipodi:namedview pagecolor="#ffffff" bordercolor="#666666" borderopacity="1" objecttolerance="10" gridtolerance="10" guidetolerance="10" inkscape:pageopacity="0" inkscape:pageshadow="2" inkscape:window-width="1280" inkscape:window-height="977" id="namedview63" showgrid="true" inkscape:zoom="9.8333333" inkscape:cx="52.945098" inkscape:cy="27.532167" inkscape:window-x="0" inkscape:window-y="24" inkscape:window-maximized="1" inkscape:current-layer="svg2" inkscape:snap-bbox="true">
        <inkscape:grid type="xygrid" id="grid3009" />
    </sodipodi:namedview>
    <defs id="defs4">
        <linearGradient id="linearGradient3790">
            <stop style="stop-color:#593200;stop-opacity:1;" offset="0" id="stop3792" />
            <stop style="stop-color:#e7b900;stop-opacity:1;" offset="1" id="stop3794" />
        </linearGradient>
        <linearGradient id="linearGradient3782">
            <stop style="stop-color:#c35c00;stop-opacity:1;" offset="0" id="stop3784" />
            <stop style="stop-color:#fff003;stop-opacity:1;" offset="1" id="stop3786" />
        </linearGradient>
        <linearGradient id="linearGradient5060">
            <stop offset="0" id="stop10" />
            <stop offset="1" stop-opacity="0" id="stop12" />
        </linearGradient>
        <linearGradient gradientUnits="userSpaceOnUse" id="linearGradient3127" x2="0" y1="38.7186" y2="45.76167">
            <stop offset="0" stop-opacity="0" id="stop15" />
            <stop offset=".5" id="stop17" />
            <stop offset="1" stop-opacity="0" id="stop19" />
        </linearGradient>
        <linearGradient gradientUnits="userSpaceOnUse" id="linearGradient998" x1="6.40561" x2="41.36901">
            <stop offset="0" stop-color="#fff" stop-opacity=".545" id="stop27" style="stop-color:white;stop-opacity:0.50196081;" />
            <stop offset="1" stop-color="#fff" stop-opacity="0" id="stop29" />
        </linearGradient>
        <linearGradient gradientUnits="userSpaceOnUse" id="linearGradient4594" x1="8.21142" x2="31.74275" y1="-5.71365" y2="25.48744">
            <stop offset="0" stop-color="#fff" id="stop37" />
            <stop offset="1" stop-color="#fff" stop-opacity="0" id="stop39" />
        </linearGradient>
        <radialGradient cx="605.71429" cy="486.64789" gradientTransform="matrix(0.062142,0,0,0.029001,1.636502,28.085503)" gradientUnits="userSpaceOnUse" id="radialGradient3129" r="117.14286" xlink:href="#linearGradient5060" />
        <radialGradient cx="605.71429" cy="486.64789" gradientTransform="matrix(-0.062142,0,0,0.029001,46.53201,28.085503)" gradientUnits="userSpaceOnUse" id="radialGradient3131" r="117.14286" xlink:href="#linearGradient5060" />
        <linearGradient inkscape:collect="always" xlink:href="#linearGradient3782" id="linearGradient3788" x1="-43" y1="-23.99995" x2="-5" y2="-23.99995" gradientUnits="userSpaceOnUse" />
        <linearGradient inkscape:collect="always" xlink:href="#linearGradient3790" id="linearGradient3796" x1="-43" y1="-23.99995" x2="-5" y2="-23.99995" gradientUnits="userSpaceOnUse" />
    </defs>
    <g transform="matrix(0.83555525,0,0,0.99388618,3.8762785,0.51811855)" id="g43">
        <path d="m 9.08134,38.7186 h 30.00582 v 7.04306 H 9.08134 z" id="path45" style="opacity:0.5;fill:url(#linearGradient3127)" inkscape:connector-curvature="0" />
        <path d="m 39.08716,38.71885 v 7.04268 c 3.20017,0.01326 7.73646,-1.57791 7.73646,-3.52179 0,-1.94388 -3.57115,-3.52088 -7.73646,-3.52088 z" id="path47" style="opacity:0.5;fill:url(#radialGradient3129)" inkscape:connector-curvature="0" />
        <path d="m 9.08134,38.71885 v 7.04268 c -3.20017,0.01326 -7.73646,-1.57791 -7.73646,-3.52179 0,-1.94388 3.57115,-3.52088 7.73646,-3.52088 z" id="path49" style="opacity:0.5;fill:url(#radialGradient3131)" inkscape:connector-curvature="0" />
    </g>
    <path d="m-40.5-41.4999h33a2,2 0 0,1 2,2v30.9999a2,2 0 0,1 -2,2h-33a2,2 0 0,1 -2-2v-30.9999a2,2 0 0,1 2-2" fill="url(#linearGradient3157-5)" stroke="#8d2020" stroke-linecap="round" stroke-linejoin="round" transform="matrix(0,-1,-1,0,0,0)" id="path51" style="stroke:url(#linearGradient3796);stroke-opacity:1;fill:url(#linearGradient3788);fill-opacity:1" />
    <path style="opacity:0.25;color:black;fill:black;fill-opacity:1;fill-rule:nonzero;stroke-width:1;stroke-linecap:butt;stroke-linejoin:miter;stroke-miterlimit:4;stroke-opacity:1;stroke-dasharray:none;stroke-dashoffset:0;marker:none;visibility:visible;display:inline;overflow:visible;enable-background:accumulate" d="m 40.906942,21.817939 -0.149125,0.731822 -0.0932,-0.731822 -0.07456,-0.731821 -0.186406,0.731821 -0.186406,0.731822 -0.03728,-0.694758 c -0.02386,-0.382487 -0.160932,-0.694768 -0.29825,-0.694768 -0.137317,0 -0.29504,-0.198608 -0.354166,-0.435387 -0.05913,-0.236779 -0.141397,0.226849 -0.186407,1.028256 -0.07621,1.356784 -0.09484,1.397769 -0.279604,0.657705 -0.109134,-0.437133 -0.207781,-1.194192 -0.223688,-1.685961 -0.01591,-0.491769 -0.142296,-0.889294 -0.279614,-0.889294 -0.137318,0 -0.295041,-0.198608 -0.354167,-0.435387 -0.07807,-0.312631 -0.142516,-0.232627 -0.205042,0.296435 l -0.07456,0.731821 -0.186406,-0.731821 c -0.12753,-0.517167 -0.21301,-0.07005 -0.279605,1.528478 -0.08315,1.995678 -0.100896,2.112575 -0.242323,1.056038 l -0.167761,-1.195 -0.130479,1.065309 -0.130479,1.056038 -0.0932,-1.389526 c -0.04414,-0.764972 -0.17105,-1.540882 -0.279615,-1.723014 -0.1689,-0.283401 -0.228536,-0.225152 -0.46601,0.398334 -0.244213,0.641179 -0.291722,0.43367 -0.372813,-1.723014 -0.0881,-2.342878 -0.103116,-2.283082 -0.242323,1.389526 l -0.149125,3.844361 -0.05589,-3.047695 c -0.03489,-1.675652 -0.132819,-3.265462 -0.223687,-3.538665 -0.185607,-0.558052 -0.633782,-0.675907 -0.633782,-0.166744 0,0.206052 -0.142666,0.324227 -0.391448,0.324227 -0.342849,0 -0.417462,0.459945 -0.46601,3.214438 -0.03113,1.766724 -0.08336,2.571044 -0.13048,1.78786 -0.04802,-0.798383 -0.209781,-1.417318 -0.354167,-1.417318 -0.144386,0 -0.260968,0.142084 -0.260968,0.324226 0,0.182142 -0.114374,0.333488 -0.260969,0.333488 -0.146596,0 -0.287913,-0.340692 -0.316886,-0.759613 -0.03264,-0.471731 -0.123871,-0.207669 -0.223687,0.694768 l -0.149125,1.454371 -0.0932,-1.454371 c -0.08873,-1.326018 -0.118593,-1.390255 -0.279615,-0.666976 l -0.186406,0.796667 -0.07456,-1.056038 -0.0932,-1.06531 -0.186406,0.731822 c -0.139537,0.565875 -0.204922,0.310256 -0.279604,-1.130154 l -0.0932,-1.852705 -0.149125,1.463632 -0.167761,1.454371 -0.0932,-1.787859 c -0.08605,-1.577376 -0.137508,-1.319102 -0.410094,2.186193 l -0.316886,3.974052 -0.05589,-4.113004 c -0.03377,-2.258492 -0.158313,-4.340342 -0.279605,-4.631757 L 28.73479,15.528014 28.6789,16.185719 c -0.03424,0.364274 -0.149055,0.846743 -0.260969,1.065309 -0.182957,0.357308 -0.228536,0.326872 -0.29825,-0.268642 l -0.07462,-0.657705 -0.167771,0.861512 c -0.161452,0.796447 -0.174729,0.742119 -0.260969,-0.666976 L 27.523121,15 27.336715,16.982396 c -0.101706,1.092821 -0.230546,3.089417 -0.279605,4.43723 l -0.0932,2.454835 -0.149125,-1.787859 c -0.119182,-1.427457 -0.182237,-1.634887 -0.29825,-1.000464 l -0.130479,0.796667 -0.05589,-1.028256 c -0.02773,-0.564618 -0.160932,-1.018985 -0.29825,-1.018985 -0.137318,0 -0.295051,-0.198608 -0.354167,-0.435387 -0.05912,-0.236778 -0.145596,0.198428 -0.186406,0.963411 -0.04081,0.764982 -0.167701,1.569293 -0.279604,1.787859 l -0.205042,0.398334 -0.03728,-0.481701 c -0.01731,-0.263044 -0.113743,-0.764663 -0.223687,-1.120883 l -0.205072,-0.648444 -0.149125,0.787395 c -0.114793,0.588179 -0.17188,0.360582 -0.205042,-0.889294 -0.02714,-1.022777 -0.155473,-1.685961 -0.316885,-1.685961 -0.146606,0 -0.260969,0.113674 -0.260969,0.259382 0,0.145708 -0.114363,0.268642 -0.260969,0.268642 -0.163881,0 -0.29874,0.801566 -0.335531,2.084294 -0.04952,1.72524 -0.08362,1.486276 -0.205042,-1.361734 l -0.149125,-3.436766 -0.111844,3.177385 -0.111844,3.177385 -0.149125,-2.918014 -0.149125,-2.908742 -0.111843,2.186192 c -0.09729,1.96097 -0.12957,2.066242 -0.279615,1.056038 -0.137207,-0.923762 -0.183717,-0.675348 -0.260968,1.389526 l -0.0932,2.519681 -0.223687,-2.186193 C 21.042104,20.615864 20.838312,18.590847 20.71936,17.315903 l -0.223688,-2.315883 -0.0932,3.11254 -0.0932,3.11254 -0.149125,-2.741999 c -0.08363,-1.505675 -0.244242,-2.78001 -0.354167,-2.834637 -0.109924,-0.05463 -0.228486,1.144026 -0.260968,2.667893 l -0.05589,2.769791 -0.149125,-3.047694 c -0.06478,-1.33005 -0.143767,-2.213875 -0.186407,-2.278831 -0.006,0.01684 -0.01456,0.0595 -0.01868,0.12043 -0.03251,0.487469 -0.17029,0.927645 -0.316886,0.972672 -0.146595,0.04503 -0.279604,0.730074 -0.279604,1.602584 0,1.756973 -0.522707,3.693364 -0.820188,3.029172 l -0.16776,-0.398333 -0.03728,0.370541 c -0.0198,0.228526 -0.177908,0.36128 -0.428729,0.36128 -0.276855,0 -0.418332,0.156256 -0.447375,0.500232 -0.04182,0.495592 -0.104335,0.235581 -0.615136,-2.251038 -0.115982,-0.564628 -0.322274,-1.028256 -0.447375,-1.028256 -0.1251,0 -0.250911,-0.132515 -0.279604,-0.296434 -0.02869,-0.16392 -0.115833,0.328128 -0.205042,1.093091 -0.05476,0.469415 -0.101226,0.746371 -0.130479,0.796666 -0.03758,-0.06626 -0.06748,-0.633066 -0.0932,-1.824912 -0.03251,-1.506034 -0.150835,-2.417782 -0.316886,-2.417782 -0.146595,0 -0.277355,0.189347 -0.279604,0.426126 -0.0029,0.326682 -0.0649,0.382366 -0.260969,0.231589 -0.196064,-0.150777 -0.262528,-0.105042 -0.29825,0.203797 -0.03132,0.270479 -0.09927,0.182162 -0.223688,-0.268642 l -0.186406,-0.657705 -0.0932,0.528024 c -0.07064,0.420866 -0.124021,0.338188 -0.260969,-0.398334 -0.110104,-0.592131 -0.199183,0.342869 -0.260968,2.584526 -0.06218,2.256208 -0.162732,3.104407 -0.260969,2.380729 l -0.149125,-1.120883 -0.205042,0.861512 c -0.109944,0.473556 -0.233315,1.126531 -0.279614,1.454371 -0.0463,0.327839 -0.123321,-0.06011 -0.167761,-0.861512 -0.07971,-1.437896 -0.07639,-1.446398 -0.335531,-0.694768 -0.144426,0.418911 -0.353557,0.759613 -0.466011,0.759613 -0.112453,0 -0.302459,-0.643394 -0.428729,-1.426579 -0.201423,-1.249157 -0.248572,-1.333861 -0.354177,-0.694768 L 9.9078375,20.428453 9.7400769,19.696632 C 9.5952109,19.081219 9.5501415,19.197618 9.4791081,20.428453 9.3977872,21.837169 9.3877896,21.853745 9.1995038,21.021323 9.0923989,20.547765 8.9669583,19.771866 8.9198994,19.298309 8.8585338,18.680871 8.7906697,18.924944 8.6775763,20.159821 l -0.149125,1.723014 -0.055887,-1.42658 c -0.032272,-0.84298 -0.1590926,-1.417318 -0.3168855,-1.417318 -0.1466056,0 -0.2787546,-0.340693 -0.29825,-0.759613 C 7.8227069,17.5345 7.8134591,17.53428 7.59646,18.557227 7.2825737,20.036637 7.1330388,20.077412 7.0558869,18.705439 L 7,17.51045 v 10.745687 c 0.018066,0.204625 0.046999,0.540218 0.074562,0.981932 l 0.1118437,1.787859 0.1677607,-1.528477 c 0.076982,-0.731961 0.1214115,-1.102033 0.149125,-1.157937 0.021775,0.01918 0.033642,0.272355 0.055887,0.731821 0.077212,1.586916 0.5740752,1.375336 0.6337812,-0.268642 0.037041,-1.019514 0.08461,-1.176978 0.1864063,-0.629923 l 0.149125,0.731821 0.1677606,-0.731821 0.1677606,-0.722551 0.055887,0.861512 c 0.032322,0.473558 0.1583128,1.098112 0.2796044,1.389526 0.1654111,0.397406 0.2504612,0.05105 0.3168856,-1.389526 l 0.074563,-1.92681 0.1677606,2.584526 0.149125,2.584525 0.093198,-2.056501 c 0.05184,-1.129247 0.141516,-1.914726 0.205042,-1.750807 0.25237,0.651129 0.615135,0.243355 0.615135,-0.694768 0,-0.79478 0.07158,-0.991193 0.391448,-0.991193 0.327343,0 0.404245,0.251508 0.447375,1.417319 l 0.05586,1.426579 0.149125,-1.454372 0.149125,-1.463632 0.205042,1.130155 c 0.109074,0.619265 0.226587,2.199495 0.260969,3.510873 0.04868,1.856596 0.09237,1.461187 0.205042,-1.78786 l 0.149125,-4.177848 0.0932,4.177848 c 0.05882,2.294918 0.189765,3.780634 0.279604,3.307077 0.174429,-0.919382 0.373832,-0.860305 0.72698,0.203797 0.152594,0.459766 0.261648,-0.51075 0.354166,-3.177386 0.142807,-4.116116 0.505972,-4.416533 0.559219,-0.463178 l 0.01868,2.315883 0.354167,-1.259835 c 0.196204,-0.692114 0.391908,-1.316677 0.428729,-1.389526 0.03682,-0.07285 0.134478,0.494863 0.223688,1.259835 l 0.16776,1.389526 0.111844,-1.787859 c 0.09269,-1.654187 0.103236,-1.715659 0.260969,-0.796667 l 0.16777,0.991193 0.07456,-0.861512 c 0.04355,-0.473557 0.172489,-1.249466 0.279604,-1.723014 l 0.205042,-0.861512 0.05589,0.731822 c 0.118892,1.288744 0.494594,1.512161 0.559219,0.333487 0.101256,-1.846607 0.445005,-0.480063 0.540573,2.121347 l 0.0932,2.380729 0.149125,-2.056501 0.167771,-2.047242 0.111843,3.11254 c 0.08619,2.478736 0.124291,2.830536 0.242323,1.723014 0.08171,-0.766818 0.226957,-1.24788 0.316886,-1.065308 0.08993,0.18257 0.202482,-0.679031 0.242323,-1.917551 0.03984,-1.238519 0.141297,-2.970105 0.242323,-3.844361 0.154994,-1.341186 0.211551,-0.990155 0.29825,2.251038 0.09352,3.495655 0.120422,3.656232 0.260969,1.78786 0.117103,-1.55674 0.163422,-1.809305 0.242323,-1.056039 l 0.111844,0.991193 0.167761,-0.991193 0.16777,-0.991193 0.111844,0.722551 c 0.06425,0.455295 0.162862,0.06151 0.260969,-1.056038 0.139147,-1.58515 0.160302,-1.382451 0.260968,1.787859 l 0.111844,3.575718 0.149125,-2.908742 0.149125,-2.918014 0.13048,4.168588 L 22.396886,35 22.546011,29.830949 c 0.06932,-2.509642 0.116053,-3.715758 0.149125,-3.872154 0.02236,0.132336 0.0445,0.758156 0.07456,1.815652 0.09495,3.339868 0.460002,4.800916 0.5965,2.389989 l 0.07456,-1.389526 0.149125,1.389526 c 0.120042,1.130155 0.194115,1.292049 0.354167,0.861512 0.108325,-0.291415 0.203432,-0.927285 0.205042,-1.408057 0.0016,-0.480772 0.07006,-1.343163 0.167771,-1.91755 0.175628,-1.032558 0.190535,-1.039782 0.521937,-0.583599 0.184337,0.253763 0.34302,0.747039 0.354167,1.093091 0.01438,0.446683 0.12613,0.629922 0.391448,0.629922 0.501662,0 0.944988,-0.682702 0.987948,-1.509956 0.03311,-0.637237 0.05714,-0.65031 0.242323,-0.213057 0.158223,0.373565 0.198144,0.272474 0.242324,-0.528025 0.03013,-0.546405 0.162221,-1.265483 0.279604,-1.593322 0.12771,-0.35668 0.239684,1.535363 0.279604,4.705872 0.03992,3.17051 0.151895,5.053292 0.279605,4.696603 0.117392,-0.32784 0.231885,-1.189003 0.260968,-1.917551 0.02908,-0.728547 0.136998,-1.741056 0.242324,-2.251038 l 0.186406,-0.926347 0.111844,1.120884 c 0.06293,0.705835 0.148515,0.0949 0.242323,-1.648908 l 0.149125,-2.788323 0.0932,2.325144 c 0.04761,1.274954 0.171759,2.855184 0.279604,3.510874 l 0.186406,1.185729 0.07456,-1.723014 c 0.064,-1.856986 0.63913,-3.728951 0.876104,-2.843898 0.07123,0.266058 0.156084,-0.02084 0.205042,-0.666975 0.04695,-0.619265 0.145916,-0.931547 0.205042,-0.694768 0.0652,0.261128 0.252361,0.435386 0.484656,0.435386 0.29794,0 0.390369,-0.242796 0.42873,-1.093091 0.03657,-0.810289 0.07653,-0.913973 0.149125,-0.398333 0.05381,0.382486 0.215229,0.694768 0.354166,0.694768 0.138938,0 0.270937,0.198607 0.29825,0.435386 0.02731,0.236778 0.13171,-0.0755 0.223688,-0.694768 0.116463,-0.784153 0.202842,-0.04527 0.279604,2.445574 l 0.0932,3.575718 0.149125,-3.909206 0.149125,-3.909206 0.111844,4.177848 c 0.09498,3.425361 0.154594,3.838264 0.279605,2.315884 l 0.149125,-1.852705 0.130479,1.852705 c 0.12942,1.79227 0.144606,1.761214 0.223687,-0.991193 0.107495,-3.741814 0.459813,-5.002527 0.577855,-2.056501 0.05058,1.263148 0.139187,1.823744 0.223687,1.389526 0.139028,-0.714418 0.142247,-0.705776 0.29825,0.398333 l 0.167771,1.130154 0.07456,-1.528477 c 0.05416,-0.974398 0.149645,-1.352593 0.260969,-1.056039 l 0.167761,0.463179 0.223687,-0.59287 c 0.601679,-1.697556 0.632852,-1.712695 0.72698,-0.268642 0.0789,1.210428 0.110084,1.08382 0.242323,-0.991193 l 0.149125,-2.389989 0.111844,3.186656 c 0.09433,2.714716 0.12815,2.949708 0.260968,1.648908 l 0.149125,-1.519218 0.149125,1.519218 0.13048,1.528477 0.05589,-1.491425 c 0.03137,-0.819608 0.160932,-1.491424 0.29825,-1.491424 0.137317,0 0.29504,0.198608 0.354166,0.435386 0.05913,0.236779 0.152875,-0.378195 0.205032,-1.361734 l 0.0932,-1.787858 0.167771,1.389526 c 0.08921,0.764972 0.194984,1.25702 0.223688,1.093091 0.0287,-0.16393 0.17029,-0.296435 0.316885,-0.296435 0.146596,0 0.280904,-0.340693 0.29825,-0.759614 0.02594,-0.626848 0.05625,-0.697602 0.223688,-0.37054 0.174389,0.340563 0.226946,0.300146 0.279604,-0.324228 L 41,25.328893 z" id="path53" inkscape:connector-curvature="0" />
    <path d="m7.5-40.5h33a1,1 0 0,1 1,1v31a1,1 0 0,1 -1,1h-33a1,1 0 0,1 -1-1v-31a1,1 0 0,1 1-1" fill="none" stroke="url(#linearGradient998)" stroke-linecap="round" stroke-linejoin="round" transform="matrix(0,1,-1,0,0,0)" id="path55" />
    <path d="m17.72582,6h21.41225c1.288,0 1.86193.48911 1.86193,2v34.5h-12.90264z" fill="url(#linearGradient4594)" opacity=".99" id="path57" />
    <path d="m 24.51605,9.10974 c -0.76738,-0.09969 -0.87364,0.62215 -0.7937,1.19648 -0.0073,5.71513 0.01451,11.4355 -0.01088,17.14736 -0.18742,0.19659 -0.54709,-0.12673 -0.78587,-0.04282 -2.60137,-0.1592 -5.4436,1.73453 -5.70366,4.46746 -0.3065,2.17284 1.98033,3.96061 4.01961,3.62266 2.56963,-0.2738 4.57717,-2.87726 4.24216,-5.4474 0.0073,-4.52526 -0.01451,-9.05576 0.01088,-13.57775 0.17515,-0.20139 0.4364,0.2274 0.62091,0.24843 2.06641,1.22749 3.89432,3.25167 4.01771,5.77243 0.13569,1.96971 -0.45839,3.89711 -1.12678,5.72313 2.23965,-2.76777 2.95661,-6.80539 1.4003,-10.07454 -0.79594,-1.89769 -2.59149,-3.06717 -3.59595,-4.8298 C 26.06899,12.13748 25.50444,10.8225 25.32781,9.43189 25.18238,9.14191 24.79932,9.1066 24.51605,9.10972 z" id="path59" style="opacity:0.40000000000000002;color:#000000;fill:#000000;fill-opacity:1;fill-rule:nonzero;stroke-width:1;stroke-linecap:butt;stroke-linejoin:miter;stroke-miterlimit:4;stroke-opacity:1;stroke-dasharray:none;stroke-dashoffset:0;marker:none;visibility:visible;display:inline;overflow:visible;enable-background:accumulate" />
    <path d="m 24.51605,10.28425 c -0.76738,-0.09969 -0.87364,0.62215 -0.7937,1.19648 -0.0073,5.71513 0.01451,11.4355 -0.01088,17.14736 -0.18742,0.19659 -0.54709,-0.12673 -0.78587,-0.04282 -2.60137,-0.1592 -5.4436,1.73453 -5.70366,4.46746 -0.3065,2.17284 1.98033,3.96061 4.01961,3.62266 2.56963,-0.2738 4.57717,-2.87726 4.24216,-5.4474 0.0073,-4.52526 -0.01451,-9.05576 0.01088,-13.57775 0.17515,-0.20139 0.4364,0.2274 0.62091,0.24843 2.06641,1.22749 3.89432,3.25167 4.01771,5.77243 0.13569,1.96971 -0.45839,3.89711 -1.12678,5.72313 2.23965,-2.76777 2.95661,-6.80539 1.4003,-10.07454 -0.79594,-1.89769 -2.59149,-3.06717 -3.59595,-4.8298 -0.74179,-1.1779 -1.30634,-2.49288 -1.48297,-3.88349 -0.14543,-0.28998 -0.52849,-0.32529 -0.81176,-0.32217 z" id="path61" style="fill:#ffffff" />
</svg>
