<?xml version="1.0" encoding="UTF-8" standalone="no"?>
<svg
   xmlns:dc="http://purl.org/dc/elements/1.1/"
   xmlns:cc="http://creativecommons.org/ns#"
   xmlns:rdf="http://www.w3.org/1999/02/22-rdf-syntax-ns#"
   xmlns:svg="http://www.w3.org/2000/svg"
   xmlns="http://www.w3.org/2000/svg"
   xmlns:xlink="http://www.w3.org/1999/xlink"
   xmlns:sodipodi="http://sodipodi.sourceforge.net/DTD/sodipodi-0.dtd"
   xmlns:inkscape="http://www.inkscape.org/namespaces/inkscape"
   viewBox="0 0 48 48"
   id="svg2"
   version="1.1"
   inkscape:version="0.48.3.1 r9886"
   width="100%"
   height="100%"
   sodipodi:docname="image-x-xcf.svg">
  <metadata
     id="metadata51">
    <rdf:RDF>
      <cc:Work
         rdf:about="">
        <dc:format>image/svg+xml</dc:format>
        <dc:type
           rdf:resource="http://purl.org/dc/dcmitype/StillImage" />
      </cc:Work>
    </rdf:RDF>
  </metadata>
  <sodipodi:namedview
     pagecolor="#ffffff"
     bordercolor="#666666"
     borderopacity="1"
     objecttolerance="10"
     gridtolerance="10"
     guidetolerance="10"
     inkscape:pageopacity="0"
     inkscape:pageshadow="2"
     inkscape:window-width="1280"
     inkscape:window-height="976"
     id="namedview49"
     showgrid="true"
     inkscape:zoom="9.8333333"
     inkscape:cx="50.033899"
     inkscape:cy="26.551187"
     inkscape:window-x="0"
     inkscape:window-y="24"
     inkscape:window-maximized="1"
     inkscape:current-layer="svg2">
    <inkscape:grid
       type="xygrid"
       id="grid3113" />
  </sodipodi:namedview>
  <defs
     id="defs4">
    <linearGradient
       inkscape:collect="always"
       id="linearGradient4118">
      <stop
         style="stop-color:#974ab5;stop-opacity:1"
         offset="0"
         id="stop4120" />
      <stop
         style="stop-color:#4b1c5b;stop-opacity:1"
         offset="1"
         id="stop4122" />
    </linearGradient>
    <linearGradient
       id="linearGradient5060">
      <stop
         offset="0"
         id="stop7" />
      <stop
         offset="1"
         stop-opacity="0"
         id="stop9" />
    </linearGradient>
    <linearGradient
       gradientUnits="userSpaceOnUse"
       id="linearGradient3127"
       x2="0"
       y1="38.7186"
       y2="45.76167">
      <stop
         offset="0"
         stop-opacity="0"
         id="stop12" />
      <stop
         offset=".5"
         id="stop14" />
      <stop
         offset="1"
         stop-opacity="0"
         id="stop16" />
    </linearGradient>
    <linearGradient
       gradientUnits="userSpaceOnUse"
       id="linearGradient998"
       x1="6.40561"
       x2="41.36901">
      <stop
         offset="0"
         stop-color="#fff"
         id="stop19" />
      <stop
         offset="1"
         stop-color="#fff"
         stop-opacity="0"
         id="stop21" />
    </linearGradient>
    <radialGradient
       cx="605.71429"
       cy="486.64789"
       gradientTransform="matrix(.062142,0,0,.029001,1.636502,28.085503)"
       gradientUnits="userSpaceOnUse"
       id="radialGradient3129"
       r="117.14286"
       xlink:href="#linearGradient5060" />
    <radialGradient
       cx="605.71429"
       cy="486.64789"
       gradientTransform="matrix(-.062142,0,0,.029001,46.53201,28.085503)"
       gradientUnits="userSpaceOnUse"
       id="radialGradient3131"
       r="117.14286"
       xlink:href="#linearGradient5060" />
    <linearGradient
       id="linearGradient3990-3">
      <stop
         id="stop3992-4"
         offset="0"
         style="stop-color:#000000;stop-opacity:0.37254903;" />
      <stop
         id="stop3994-4"
         offset="1"
         style="stop-color:#000000;stop-opacity:0;" />
    </linearGradient>
    <linearGradient
       inkscape:collect="always"
       xlink:href="#linearGradient3990-3"
       id="linearGradient3181"
       gradientUnits="userSpaceOnUse"
       x1="10.793174"
       y1="14.423345"
       x2="23.534342"
       y2="28.416178" />
    <linearGradient
       inkscape:collect="always"
       xlink:href="#linearGradient3779-30-5"
       id="linearGradient4077-6"
       gradientUnits="userSpaceOnUse"
       x1="24"
       y1="6"
       x2="24"
       y2="42" />
    <linearGradient
       id="linearGradient3779-30-5">
      <stop
         style="stop-color:#d075e7;stop-opacity:1;"
         offset="0"
         id="stop3781-8-8" />
      <stop
         style="stop-color:#722a9e;stop-opacity:1;"
         offset="1"
         id="stop3783-3-5" />
    </linearGradient>
    <linearGradient
       inkscape:collect="always"
       xlink:href="#linearGradient4118"
       id="linearGradient4124"
       x1="32"
       y1="6"
       x2="32"
       y2="42"
       gradientUnits="userSpaceOnUse" />
    <radialGradient
       inkscape:collect="always"
       xlink:href="#linearGradient3779-5"
       id="radialGradient4198-6"
       gradientUnits="userSpaceOnUse"
       gradientTransform="matrix(1.3544745,1.6517504e-8,-1.743514e-8,1.4297228,-8.9341497,-11.645595)"
       cx="21.3619"
       cy="20.035769"
       fx="21.3619"
       fy="20.035769"
       r="13.289289" />
    <linearGradient
       id="linearGradient3779-5"
       inkscape:collect="always">
      <stop
         id="stop3781-4"
         offset="0"
         style="stop-color:#ffffff;stop-opacity:1;" />
      <stop
         id="stop3783-4"
         offset="1"
         style="stop-color:#ffffff;stop-opacity:0;" />
    </linearGradient>
    <linearGradient
       y2="25.48744"
       y1="-5.71365"
       x2="31.74275"
       x1="8.21142"
       id="linearGradient4594"
       gradientUnits="userSpaceOnUse">
      <stop
         id="stop37"
         stop-color="#fff"
         offset="0" />
      <stop
         id="stop39"
         stop-opacity="0"
         stop-color="#fff"
         offset="1" />
    </linearGradient>
    <linearGradient
       inkscape:collect="always"
       xlink:href="#linearGradient4594"
       id="linearGradient3112"
       gradientUnits="userSpaceOnUse"
       x1="8.21142"
       y1="-5.71365"
       x2="31.74275"
       y2="25.48744"
       gradientTransform="matrix(0.98821957,0,0,0.98630137,0.48299791,0.08219178)" />
  </defs>
  <g
     transform="matrix(.833389,0,0,1,3.928449,0)"
     id="g35">
    <path
       d="m9.08134,38.7186h30.00582v7.04306h-30.00582z"
       fill="url(#linearGradient3127)"
       opacity=".5"
       id="path37" />
    <path
       d="m39.08716,38.71885v7.04268c3.20017.01326 7.73646-1.57791 7.73646-3.52179s-3.57115-3.52088-7.73646-3.52088z"
       fill="url(#radialGradient3129)"
       opacity=".5"
       id="path39" />
    <path
       d="m9.08134,38.71885v7.04268c-3.20017.01326-7.73646-1.57791-7.73646-3.52179s3.57115-3.52088 7.73646-3.52088z"
       fill="url(#radialGradient3131)"
       opacity=".5"
       id="path41" />
  </g>
  <path
     style="fill:url(#linearGradient4077-6);stroke:url(#linearGradient4124);stroke-linecap:butt;stroke-linejoin:miter;stroke-opacity:1;fill-opacity:1;color:#000000;fill-rule:nonzero;stroke-width:1;stroke-miterlimit:4;stroke-dasharray:none;stroke-dashoffset:0;marker:none;visibility:visible;display:inline;overflow:visible;enable-background:accumulate"
     d="m 41.4999,40.5 0,-33 a 2,2 0 0 0 -2,-2 L 8.5,5.5 a 2,2 0 0 0 -2,2 l 0,33 a 2,2 0 0 0 2,2 l 30.9999,0 a 2,2 0 0 0 2,-2"
     id="path43" />
  <text
     xml:space="preserve"
     style="font-size:11.85310936px;font-style:normal;font-weight:normal;text-align:end;line-height:125%;letter-spacing:0px;word-spacing:0px;text-anchor:end;fill:#ffffff;fill-opacity:1;stroke:none;font-family:Sans"
     x="36.269493"
     y="42.621372"
     id="text3007"
     sodipodi:linespacing="125%"
     transform="scale(1.0727064,0.93222153)"><tspan
       sodipodi:role="line"
       id="tspan3009"
       x="36.269493"
       y="42.621372"
       style="font-style:normal;font-variant:normal;font-weight:normal;font-stretch:normal;text-align:end;text-anchor:end;fill:#ffffff;font-family:Ubuntu;-inkscape-font-specification:Ubuntu">XCF</tspan></text>
  <path
     style="opacity:0.75000000000000000;color:#000000;fill:url(#radialGradient4198-6);fill-opacity:1;fill-rule:nonzero;stroke:none;stroke-width:1;marker:none;visibility:visible;display:inline;overflow:visible;enable-background:accumulate;stroke-linecap:butt;stroke-linejoin:miter;stroke-miterlimit:4;stroke-opacity:1;stroke-dasharray:none;stroke-dashoffset:0"
     d="m 31.96875,8.3436204 c -0.09408,0.046163 -0.168733,0.194098 -0.25,0.4375 -0.216714,0.649073 -1.736858,5.1273916 -10.375,5.3437496 -4.12199,0.102334 -5.875,-3.5 -5.875,-3.5 l -0.125,4.65625 c 0,0 0.445605,1.042562 -0.4375,2.125 -0.048,-0.07489 -0.07228,-0.177057 -0.125,-0.25 -0.317846,-0.439747 -0.697041,-0.818153 -1.09375,-1.09375 -0.455818,-0.316662 -0.907173,-0.525118 -1.375,-0.59375 -0.539355,-0.07913 -1.054359,0.04528 -1.46875,0.34375 -0.414518,0.298554 -0.655172,0.745097 -0.75,1.28125 -0.08221,0.464797 -0.06348,0.968411 0.09375,1.5 0.13685,0.462705 0.338546,0.935238 0.65625,1.375 0.335633,0.464577 0.750578,0.869328 1.1875,1.15625 0.492758,0.323589 1.019217,0.532965 1.53125,0.5625 0.158448,0.0091 0.323162,-0.04048 0.46875,-0.0625 3.316411,2.624803 9.917942,5.081428 14.28125,2.28125 0.02202,0.0075 0.04038,0.02322 0.0625,0.03125 l -0.125,0.125 c 0.08424,-0.0524 0.186846,0.06112 0.28125,0.09375 0.0023,0.0447 -0.01173,0.08518 0,0.125 l 0.1875,-0.0625 c 0.03666,0.01166 0.08757,0.02026 0.125,0.03125 l 0.09375,0.09375 1.96875,0.6875 c -0.04865,0.411836 0.124031,0.775319 0.4375,1.09375 0.06017,0.07331 0.112114,0.154143 0.1875,0.21875 0.01208,0.0091 0.01885,0.02237 0.03125,0.03125 0.0062,0.0051 0.02495,-0.005 0.03125,0 0.140239,0.111087 0.309564,0.208504 0.5,0.28125 0.0094,0.0037 0.02179,-0.0036 0.03125,0 0.375717,0.144128 0.719659,0.318877 1.0625,0.46875 0.0085,0.0037 0.02281,-0.0037 0.03125,0 0.340465,0.149246 0.669132,0.309841 0.9375,0.4375 0.0074,0.0035 0.0239,-0.0035 0.03125,0 0.525489,0.250922 0.875,0.4375 0.875,0.4375 5.55e-4,2.92e-4 0.03125,0 0.03125,0 -0.457251,-1.552514 -0.73447,-2.896648 -1.34375,-3.65625 -0.0094,-0.01169 -0.02172,-0.01985 -0.03125,-0.03125 -0.176366,-0.2109 -0.381438,-0.397012 -0.625,-0.5 -0.0091,-0.0038 -0.02208,0.0037 -0.03125,0 -0.02007,-0.0085 -0.04189,-0.02358 -0.0625,-0.03125 -0.05861,-0.02055 -0.12435,-0.01723 -0.1875,-0.03125 -0.08875,-0.02188 -0.182705,-0.05429 -0.28125,-0.0625 -0.01043,-8.69e-4 -0.0207,7.11e-4 -0.03125,0 -0.0097,-5.06e-4 -0.02141,3.73e-4 -0.03125,0 -0.107693,-0.0056 -0.223659,-0.011 -0.34375,0 -0.335578,0.02661 -0.557417,0.01825 -0.75,0.21875 l -1.71875,-1.125 c 2.230913,-2.33564 3.495073,-6.619271 2.6875,-13.9374996 -0.04791,-0.3749215 -0.218205,-0.5769376 -0.375,-0.5 z"
     id="path4323"
     inkscape:connector-curvature="0" />
  <g
     transform="matrix(0.59892228,0,0,0.59779121,9.8502201,5.0957148)"
     id="layer1-7-5"
     style="color:#000000;fill:none;stroke:url(#linearGradient3181);stroke-width:1.6712445;stroke-linecap:butt;stroke-linejoin:miter;stroke-miterlimit:4;stroke-opacity:1;stroke-dasharray:none;stroke-dashoffset:0;marker:none;visibility:visible;display:inline;overflow:visible;enable-background:accumulate" />
  <path
     style="opacity:0.98999999;fill:url(#linearGradient3112)"
     inkscape:connector-curvature="0"
     d="M 18,6 H 39.160004 C 40.432831,6 41,6.4824099 41,7.9726027 V 42 H 28.249358 z"
     id="path57" />
  <path
     d="m7.5-40.5h33a1,1 0 0,1 1,1v31a1,1 0 0,1 -1,1h-33a1,1 0 0,1 -1-1v-31a1,1 0 0,1 1-1"
     fill="none"
     opacity=".5"
     stroke="url(#linearGradient998)"
     stroke-linecap="round"
     stroke-linejoin="round"
     transform="matrix(0,1,-1,0,0,0)"
     id="path45" />
</svg>
