<?xml version="1.0" encoding="UTF-8" standalone="no"?>
<svg
   xmlns:dc="http://purl.org/dc/elements/1.1/"
   xmlns:cc="http://creativecommons.org/ns#"
   xmlns:rdf="http://www.w3.org/1999/02/22-rdf-syntax-ns#"
   xmlns:svg="http://www.w3.org/2000/svg"
   xmlns="http://www.w3.org/2000/svg"
   xmlns:xlink="http://www.w3.org/1999/xlink"
   xmlns:sodipodi="http://sodipodi.sourceforge.net/DTD/sodipodi-0.dtd"
   xmlns:inkscape="http://www.inkscape.org/namespaces/inkscape"
   viewBox="0 0 48 48"
   id="svg2"
   version="1.1"
   inkscape:version="0.48.3.1 r9886"
   width="100%"
   height="100%"
   sodipodi:docname="image-x-generic.svg">
  <metadata
     id="metadata64">
    <rdf:RDF>
      <cc:Work
         rdf:about="">
        <dc:format>image/svg+xml</dc:format>
        <dc:type
           rdf:resource="http://purl.org/dc/dcmitype/StillImage" />
      </cc:Work>
    </rdf:RDF>
  </metadata>
  <sodipodi:namedview
     pagecolor="#ffffff"
     bordercolor="#666666"
     borderopacity="1"
     objecttolerance="10"
     gridtolerance="10"
     guidetolerance="10"
     inkscape:pageopacity="0"
     inkscape:pageshadow="2"
     inkscape:window-width="1280"
     inkscape:window-height="976"
     id="namedview62"
     showgrid="true"
     inkscape:zoom="11.410777"
     inkscape:cx="38.513409"
     inkscape:cy="27.179071"
     inkscape:window-x="0"
     inkscape:window-y="24"
     inkscape:window-maximized="1"
     inkscape:current-layer="svg2">
    <inkscape:grid
       type="xygrid"
       id="grid3007" />
  </sodipodi:namedview>
  <defs
     id="defs4">
    <filter
       height="2.2798"
       id="filter3914"
       width="1.2364"
       x="-.1182"
       y="-.6399">
      <feGaussianBlur
         stdDeviation="1.872"
         id="feGaussianBlur10" />
    </filter>
    <filter
       height="1.5409"
       id="filter20101"
       width="1.4563"
       x="-.2281"
       y="-.2705">
      <feGaussianBlur
         stdDeviation="16.981"
         id="feGaussianBlur13" />
    </filter>
    <linearGradient
       gradientUnits="userSpaceOnUse"
       id="linearGradient4523"
       x2="15.005555"
       y1="2.9698679"
       y2="43.458233"
       gradientTransform="matrix(1.0006119,0,0,0.98793816,-0.0147366,0.06595422)"
       x1="15.005555">
      <stop
         offset="0"
         stop-color="#fff"
         stop-opacity=".669"
         id="stop21"
         style="stop-color:#ffffff;stop-opacity:0.50196081;" />
      <stop
         offset="1"
         stop-color="#fff"
         stop-opacity="0"
         id="stop23"
         style="stop-color:#ffffff;stop-opacity:0;" />
    </linearGradient>
    <linearGradient
       gradientUnits="userSpaceOnUse"
       id="linearGradient20028-0"
       x1="14.8565"
       x2="21.1047"
       y1="3.7228"
       y2="34.6853"
       gradientTransform="translate(0,0.036)">
      <stop
         offset="0"
         stop-color="#a40"
         id="stop26" />
      <stop
         offset="1"
         stop-color="#fea"
         id="stop28" />
    </linearGradient>
    <linearGradient
       gradientUnits="userSpaceOnUse"
       id="linearGradient20025-9"
       x1="17.7101"
       x2="17.7101"
       y1="33.5782"
       y2="47.214397"
       gradientTransform="matrix(1.025,0,0,1.0587236,-0.6,-1.9869963)">
      <stop
         offset="0"
         stop-color="#502d16"
         id="stop31"
         style="stop-color:#7e4d21;stop-opacity:1;" />
      <stop
         offset="1"
         id="stop33"
         style="stop-color:#000000;stop-opacity:1;" />
    </linearGradient>
    <linearGradient
       gradientUnits="userSpaceOnUse"
       id="linearGradient3179"
       x1="8.7801"
       x2="34.0563"
       y1="-8.7496"
       y2="22.4515"
       gradientTransform="matrix(1,0,0,0.98630137,0,0.07660274)">
      <stop
         offset="0"
         stop-color="#fff"
         id="stop36" />
      <stop
         offset="1"
         stop-color="#fff"
         stop-opacity="0"
         id="stop38" />
    </linearGradient>
    <linearGradient
       gradientTransform="matrix(0,-1.0007362,-1.0007362,0,19.997004,4.0219875)"
       y2="-21"
       x2="-43"
       y1="-21"
       x1="-5"
       gradientUnits="userSpaceOnUse"
       id="linearGradient3086-0"
       xlink:href="#linearGradient3866-4"
       inkscape:collect="always" />
    <linearGradient
       id="linearGradient3866-4">
      <stop
         style="stop-color:#966132;stop-opacity:1;"
         offset="0"
         id="stop3868-5" />
      <stop
         style="stop-color:#1e130a;stop-opacity:1;"
         offset="1"
         id="stop3870-0" />
    </linearGradient>
  </defs>
  <path
     d="m9.9895,60.1457h30.0005a4.0001,3.5101 0 0,1 4.0001,3.5101 4.0001,3.5101 0 0,1 -4.0001,3.5101h-30.0005a4.0001,3.5101 0 0,1 -4.0001-3.5101 4.0001,3.5101 0 0,1 4.0001-3.5101"
     fill-opacity=".416"
     filter="url(#filter3914)"
     transform="matrix(.99998,0,0,.64101,-.9347,2.0666)"
     id="path40" />
  <path
     d="m 6.5,3 h 35 C 42.885,3 44,4.115 44,5.5 v 35 C 44,41.885 42.885,43 41.5,43 H 6.5 C 5.115,43 4,41.885 4,40.5 V 5.5 C 4,4.115 5.115,3 6.5,3 z"
     id="path44"
     style="fill:url(#linearGradient20028-0);fill-rule:evenodd;stroke:none"
     inkscape:connector-curvature="0" />
  <path
     d="m 44.5,34.67893 v 6.174261 C 44.5,42.319525 43.357125,43.5 41.9375,43.5 H 6.0625 C 4.642875,43.5 3.5,42.319525 3.5,40.853191 v -9.122069 c 13.317928,-4.912899 32.302568,2.105484 41,2.9477 z"
     id="path46"
     style="fill:url(#linearGradient20025-9);stroke:none"
     inkscape:connector-curvature="0" />
  <path
     d="m 1228.851,1167.465 c 9.8774,20.4601 -118.239,114.5668 -170.341,86.8372 -25.2809,-13.455 16.5009,-93.4433 50.4535,-110.3727 31.395,-15.6541 49.112,-21.3388 76.7242,-26.1056 3.0963,-0.5345 10.5769,-13.6321 12.522,-7.5167 2.7177,8.5443 5.4661,10.3486 9.0455,14.4741 10.8909,12.5528 16.5879,37.072 21.5958,42.6837 z"
     transform="matrix(0.06408,0,0,0.04481,-58.63711,-19.003101)"
     id="path50"
     inkscape:connector-curvature="0"
     style="fill-rule:evenodd;filter:url(#filter20101);stroke:none" />
  <path
     style="fill:#4a351d;stroke:none"
     inkscape:connector-curvature="0"
     id="path54"
     d="m 15.245925,27.64016 c 0.05166,0.05507 0.137896,0.05426 0.19647,0.09816 0.02469,0.01851 0.0408,0.04693 0.06549,0.06544 0.01952,0.01463 0.04518,0.01919 0.06549,0.03272 0.03853,0.02567 0.06119,0.07039 0.09823,0.09816 0.01952,0.01463 0.04824,0.01548 0.06549,0.03272 0.0021,0.0021 0.06142,0.124785 0.06549,0.130875 0.03275,0.04908 0.06549,0.03272 0.09823,0.09816 0.0098,0.01951 -0.0053,0.04428 0,0.06544 0.0059,0.02366 0.02183,0.04362 0.03275,0.06544 l 0.09823,0.196312 c 0.01092,0.02181 0.02683,0.04178 0.03275,0.06544 0.0053,0.02116 -0.0069,0.04474 0,0.06544 0.0049,0.01463 0.02183,0.02181 0.03274,0.03272 0.01092,0.02181 0.02683,0.04178 0.03275,0.06544 0.0053,0.02116 -0.0069,0.04474 0,0.06544 0.0049,0.01463 0.02786,0.01809 0.03274,0.03272 0.0069,0.02069 -0.0069,0.04474 0,0.06544 0.0049,0.01463 0.02584,0.01892 0.03275,0.03272 0.0098,0.01951 -0.0098,0.04593 0,0.06544 0.0069,0.01379 0.02584,0.01892 0.03274,0.03272 0.0042,0.0085 0,0.173122 0,0.196313 0,0.01091 -0.0077,0.02501 0,0.03272 0.0077,0.0077 0.02503,-0.0077 0.03274,0 0.0077,0.0077 0,0.02181 0,0.03272 v 0.03272 c 0,0.02319 -0.0042,0.187849 0,0.196312 0.0069,0.0138 0.02584,0.01892 0.03275,0.03272 0.0034,0.0067 0.0046,0.09354 0,0.09816 -0.01456,0.01455 -0.06185,-0.02545 -0.03275,0.03272 0.0069,0.01379 0.03275,0.01729 0.03275,0.03272 0,0.01091 -0.02503,-0.0077 -0.03275,0 -0.0015,0.0015 0,0.148168 0,0.163594 0,0.01091 0.0077,0.02501 0,0.03272 -0.0077,0.0077 -0.02503,-0.0077 -0.03274,0 -0.0067,0.0067 0.0065,0.08518 0,0.09816 -0.1086,0.108513 0.01544,-0.03084 -0.03274,0.06544 -0.01965,0.03926 -0.07859,0.05889 -0.09824,0.09816 -0.0049,0.0098 0.0077,0.02501 0,0.03272 -0.0077,0.0077 -0.02503,-0.0077 -0.03274,0 -0.01544,0.01543 0.0098,0.04593 0,0.06544 -0.01381,0.02759 -0.05168,0.03785 -0.06549,0.06544 -0.0049,0.0098 0.0049,0.02296 0,0.03272 -0.0069,0.01379 -0.02584,0.01892 -0.03275,0.03272 -0.0049,0.0098 0.0049,0.02296 0,0.03272 -0.0069,0.01379 -0.02584,0.01892 -0.03275,0.03272 -0.0049,0.0098 0.0077,0.02501 0,0.03272 -0.0077,0.0077 -0.02503,-0.0077 -0.03275,0 -0.06775,0.0677 0.103535,-0.0026 -0.03274,0.06544 -0.01953,0.0098 -0.05005,-0.01543 -0.06549,0 -0.0077,0.0077 0.0077,0.02501 0,0.03272 -0.0077,0.0077 -0.02298,-0.0049 -0.03275,0 -0.0138,0.0069 -0.01894,0.02582 -0.03275,0.03272 -0.01952,0.0098 -0.04597,-0.0098 -0.06549,0 -0.02761,0.01379 -0.03788,0.05164 -0.06549,0.06544 -0.0098,0.0049 -0.02298,-0.0049 -0.03275,0 -0.0138,0.0069 -0.01894,0.02582 -0.03275,0.03272 -0.0098,0.0049 -0.02298,-0.0049 -0.03275,0 -0.0138,0.0069 -0.02183,0.02181 -0.03275,0.03272 l -0.03275,0.03272 c -0.1086,0.108513 0.03087,-0.01543 -0.06549,0.03272 -0.02761,0.01379 -0.03788,0.05164 -0.06549,0.06544 -0.01952,0.0098 -0.04597,-0.0098 -0.06549,0 -0.0138,0.0069 -0.01894,0.02582 -0.03275,0.03272 -0.01952,0.0098 -0.04596,-0.0098 -0.06549,0 -0.01381,0.0069 -0.01894,0.02582 -0.03275,0.03272 -0.01952,0.0098 -0.04597,-0.0098 -0.06549,0 -0.0138,0.0069 -0.01894,0.02582 -0.03275,0.03272 -0.01298,0.0065 -0.09154,-0.0067 -0.09823,0 -0.0077,0.0077 0.0077,0.02501 0,0.03272 -0.01544,0.01543 -0.04597,-0.0098 -0.06549,0 -0.0138,0.0069 -0.01894,0.02582 -0.03275,0.03272 -0.0098,0.0049 -0.02298,-0.0049 -0.03275,0 -0.0138,0.0069 -0.01894,0.02582 -0.03275,0.03272 -0.09637,0.04815 0.04311,-0.07579 -0.06549,0.03272 -0.07679,0.07673 0.02316,-0.0077 -0.09824,0.03272 -0.02929,0.0098 -0.03788,0.05164 -0.06549,0.06544 -0.0098,0.0049 -0.02298,-0.0049 -0.03275,0 -0.0138,0.0069 -0.01894,0.02582 -0.03275,0.03272 -0.0098,0.0049 -0.02183,0 -0.03274,0 h -0.06549 -0.19647 -0.163725 -0.03274 c -0.01092,0 -0.02298,-0.0049 -0.03275,0 -0.01381,0.0069 -0.01894,0.02582 -0.03275,0.03272 -0.01988,0.0099 -0.176587,-0.0099 -0.19647,0 -0.01381,0.0069 -0.01894,0.02582 -0.03275,0.03272 -0.0098,0.0049 -0.02503,-0.0077 -0.03275,0 -0.0077,0.0077 0.0077,0.02501 0,0.03272 -0.0077,0.0077 -0.03275,0.01091 -0.03275,0 0,-0.01091 0.02183,0 0.03275,0 h 0.13098 0.163725 c 0.01091,0 0.02239,-0.0034 0.03275,0 0.02316,0.0077 0.04181,0.0268 0.06549,0.03272 0.0249,0.0062 0.136307,0 0.163725,0 0.01091,0 0.02239,-0.0034 0.03274,0 0.02316,0.0077 0.04181,0.0268 0.06549,0.03272 0.02576,0.0064 0.162415,0 0.19647,0 h 0.229215 0.06549 c 0.01092,0 0.02239,0.0034 0.03275,0 0.02316,-0.0077 0.04233,-0.02501 0.06549,-0.03272 0.02252,-0.0075 0.07891,0.0096 0.09823,0 0.0138,-0.0069 0.01894,-0.02582 0.03275,-0.03272 0.01952,-0.0098 0.05005,0.01543 0.06549,0 0.0077,-0.0077 -0.0077,-0.02501 0,-0.03272 0.0077,-0.0077 0.02183,0 0.03275,0 0.01202,0 0.129661,-0.0013 0.13098,0 0.0077,0.0077 -0.0077,0.02501 0,0.03272 0.0077,0.0077 0.02183,0 0.03275,0 0.02321,0 0.188,0.0042 0.19647,0 0.0138,-0.0069 0.01894,-0.02582 0.03275,-0.03272 0.04517,-0.02256 0.02929,0.03962 0.06549,-0.03272 0.0049,-0.0098 -0.0077,-0.02501 0,-0.03272 0.0077,-0.0077 0.02298,0.0049 0.03275,0 0.0138,-0.0069 0.01894,-0.02582 0.03274,-0.03272 0.0098,-0.0049 0.02503,0.0077 0.03275,0 0.0077,-0.0077 -0.0077,-0.02501 0,-0.03272 0.0077,-0.0077 0.02503,-0.0077 0.03275,0 0.0077,0.0077 0.0077,0.02501 0,0.03272 -0.0077,0.0077 -0.02503,-0.0077 -0.03275,0 -0.0077,0.0077 0,0.02181 0,0.03272 l -0.06549,0.03272 -0.19647,0.09816 c -0.02183,0.01091 -0.04181,0.0268 -0.06549,0.03272 -0.02118,0.0053 -0.04522,-0.0081 -0.06549,0 -0.03654,0.01461 -0.06169,0.05083 -0.09824,0.06544 -0.02027,0.0081 -0.04478,-0.0069 -0.06549,0 -0.01464,0.0049 -0.02183,0.02181 -0.03275,0.03272 -0.02183,0.01091 -0.04233,0.02501 -0.06549,0.03272 -0.01036,0.0034 -0.02183,0 -0.03275,0 -0.01091,0.01091 -0.01894,0.02582 -0.03275,0.03272 -0.0098,0.0049 -0.02503,-0.0077 -0.03274,0 -0.0077,0.0077 0.0077,0.02501 0,0.03272 -0.0077,0.0077 -0.02503,-0.0077 -0.03275,0 -0.0077,0.0077 0.0077,0.02501 0,0.03272 -0.0077,0.0077 -0.02503,-0.0077 -0.03275,0 -0.01637,0.01636 0.01637,0.0818 0,0.09816 -0.0077,0.0077 -0.02183,0 -0.03275,0 0,0.01091 0.0049,0.02296 0,0.03272 -0.0069,0.01379 -0.02183,0.04362 -0.03275,0.03272 -0.01092,-0.01091 0.01894,-0.02582 0.03275,-0.03272 0.0098,-0.0049 0.02298,0.0049 0.03275,0 0.0138,-0.0069 0.0199,-0.02416 0.03275,-0.03272 0.04061,-0.02706 0.09037,-0.03838 0.13098,-0.06544 0.01285,-0.0086 0.0199,-0.02416 0.03275,-0.03272 0.04061,-0.02706 0.08732,-0.04363 0.13098,-0.06544 0.04366,-0.02181 0.08467,-0.05001 0.13098,-0.06544 0.01036,-0.0034 0.02239,0.0034 0.03275,0 0.198539,-0.06613 -0.06756,6.98e-4 0.13098,-0.06544 0.01036,-0.0034 0.02298,0.0049 0.03275,0 0.08093,-0.04043 -0.0113,-0.03272 0.06549,-0.03272 0.0079,0 0.09718,0.0011 0.09823,0 0.0077,-0.0077 -0.0077,-0.02501 0,-0.03272 0.0077,-0.0077 0.02298,0.0049 0.03275,0 0.0138,-0.0069 0.01894,-0.02582 0.03275,-0.03272 0.0098,-0.0049 0.02298,0.0049 0.03275,0 0.0138,-0.0069 0.01894,-0.02582 0.03275,-0.03272 0.0098,-0.0049 0.02298,0.0049 0.03275,0 0.0138,-0.0069 0.01894,-0.02582 0.03275,-0.03272 0.01952,-0.0098 0.04596,0.0098 0.06549,0 0.0138,-0.0069 0.01894,-0.02582 0.03275,-0.03272 0.0067,-0.0034 0.09362,-0.0046 0.09824,0 0.0077,0.0077 -0.0077,0.02501 0,0.03272 0.0077,0.0077 0.02503,-0.0077 0.03274,0 0.0077,0.0077 -0.0077,0.02501 0,0.03272 0.0077,0.0077 0.02298,-0.0049 0.03275,0 0.0138,0.0069 0.01894,0.02582 0.03274,0.03272 0.0098,0.0049 0.02298,-0.0049 0.03275,0 0.0138,0.0069 0.02183,0.02181 0.03274,0.03272 0.01092,0.01091 0.02584,0.01892 0.03274,0.03272 0.0049,0.0098 -0.0049,0.02296 0,0.03272 0.0069,0.01379 0.02584,0.01892 0.03275,0.03272 0.0049,0.0098 -0.0049,0.02296 0,0.03272 0.0069,0.01379 0.02584,0.01892 0.03274,0.03272 0.0049,0.0098 -0.0049,0.02296 0,0.03272 0.0069,0.01379 0.02584,0.01892 0.03275,0.03272 0.0049,0.0098 -0.0077,0.02501 0,0.03272 0.0077,0.0077 0.02503,-0.0077 0.03274,0 0.01544,0.01543 -0.01544,0.05001 0,0.06544 0.0077,0.0077 0.02503,-0.0077 0.03275,0 0.0077,0.0077 -0.0049,0.02296 0,0.03272 0.0069,0.01379 0.02584,0.01892 0.03274,0.03272 0.0098,0.01951 -0.0098,0.04593 0,0.06544 0.0069,0.01379 0.02584,0.01892 0.03274,0.03272 0.0049,0.0098 0,0.02181 0,0.03272 v 0.03272 c 0,0.01091 0.01092,0.03272 0,0.03272 -0.01091,0 -0.0049,-0.02296 0,-0.03272 0.0069,-0.01379 0.02584,-0.01892 0.03275,-0.03272 0.005,-0.0099 0,-0.108277 0,-0.130875 v -0.196312 c 0,-0.02181 -0.0069,-0.04474 0,-0.06544 0.0049,-0.01463 0.02786,-0.01809 0.03274,-0.03272 0.0069,-0.02069 -0.0053,-0.04428 0,-0.06544 0.0059,-0.02366 0.02503,-0.0423 0.03275,-0.06544 0.0069,-0.02069 -0.01544,-0.05001 0,-0.06544 0.0077,-0.0077 0.02503,0.0077 0.03274,0 0.0077,-0.0077 -0.01092,-0.03272 0,-0.03272 0.01092,0 -0.0077,0.02501 0,0.03272 0.0077,0.0077 0.02503,-0.0077 0.03275,0 0.0077,0.0077 -0.0077,0.02501 0,0.03272 0.0077,0.0077 0.02503,-0.0077 0.03274,0 0.06775,0.0677 -0.103535,-0.0026 0.03274,0.06544 0.0098,0.0049 0.02298,-0.0049 0.03275,0 0.0138,0.0069 0.01894,0.02582 0.03274,0.03272 0.0098,0.0049 0.02298,-0.0049 0.03275,0 0.0138,0.0069 0.01894,0.02582 0.03274,0.03272 0.0017,8.72e-4 0.09652,8.72e-4 0.09823,0 0.01381,-0.0069 0.01894,-0.02582 0.03275,-0.03272 0.0098,-0.0049 0.02183,0 0.03274,0 0.01092,0 0.02298,-0.0049 0.03275,0 0.0138,0.0069 0.01894,0.02582 0.03274,0.03272 0.0098,0.0049 0.02503,-0.0077 0.03275,0 0.0077,0.0077 -0.0049,0.02296 0,0.03272 0.0069,0.01379 0.02584,0.01892 0.03274,0.03272 0.0049,0.0098 -0.0077,0.02501 0,0.03272 0.0077,0.0077 0.02503,-0.0077 0.03274,0 0.0077,0.0077 -0.0077,0.02501 0,0.03272 0.0077,0.0077 0.03275,-0.01091 0.03275,0 0,0.01091 -0.02503,0.0077 -0.03275,0 -0.0077,-0.0077 0.0077,-0.02501 0,-0.03272 -0.0077,-0.0077 -0.02503,0.0077 -0.03274,0 -0.01544,-0.01543 0.01544,-0.05001 0,-0.06544 -0.01456,-0.01454 -0.06185,0.02545 -0.03274,-0.03272 0.0043,-0.0087 0.08954,-0.09381 0.09823,-0.09816 0.0098,-0.0049 0.02298,0.0049 0.03274,0 0.01381,-0.0069 0.01894,-0.02582 0.03275,-0.03272 0.0028,-0.0014 0.128186,-0.0014 0.13098,0 0.02761,0.01379 0.03788,0.05164 0.06549,0.06544 0.09637,0.04814 -0.04311,-0.07579 0.06549,0.03272 l 0.03275,0.03272 c 0.01091,0.01091 0.01894,0.02582 0.03274,0.03272 0.0098,0.0049 0.02298,-0.0049 0.03275,0 0.0138,0.0069 0.01894,0.02582 0.03274,0.03272 0.0098,0.0049 0.02298,-0.0049 0.03274,0 0.01381,0.0069 0.01894,0.02582 0.03275,0.03272 0.0098,0.0049 0.02183,0 0.03274,0 0.01092,0.01091 0.01894,0.02582 0.03275,0.03272 0.01184,0.0059 0.140952,0 0.163725,0 0.01092,0 0.02503,-0.0077 0.03274,0 0.0077,0.0077 -0.0077,0.02501 0,0.03272 0.01544,0.01543 0.05005,-0.01543 0.06549,0 0.0077,0.0077 -0.0077,0.02501 0,0.03272 0.0077,0.0077 0.02503,-0.0077 0.03275,0 0.0077,0.0077 -0.0077,0.02501 0,0.03272 0.0077,0.0077 0.02503,-0.0077 0.03274,0 0.0077,0.0077 -0.0077,0.02501 0,0.03272 0.0077,0.0077 0.02183,0 0.03274,0 h 0.03275 c 0.01544,0 0.162241,0.0015 0.163725,0 0.02183,-0.02181 -0.01092,-0.05453 -0.03274,-0.03272 -0.0077,0.0077 0.0077,0.02501 0,0.03272 -0.0077,0.0077 -0.02183,0 -0.03275,0 -0.01092,0 -0.02239,0.0034 -0.03274,0 -0.02316,-0.0077 -0.04233,-0.02501 -0.06549,-0.03272 -0.0319,-0.01063 -0.132534,0.01039 -0.163725,0 -0.237187,-0.079 0.05162,0.0094 -0.09824,-0.06544 -0.0098,-0.0049 -0.02503,0.0077 -0.03274,0 -0.0077,-0.0077 0.0049,-0.02296 0,-0.03272 -0.0069,-0.01379 -0.02584,-0.01893 -0.03274,-0.03272 -0.0059,-0.01183 0,-0.140839 0,-0.163594 0,-0.0079 -0.0011,-0.0971 0,-0.09816 0.0077,-0.0077 0.02183,0 0.03274,0 0.02277,0 0.151884,-0.0059 0.163725,0 0.01381,0.0069 0.01894,0.02582 0.03275,0.03272 0.0097,0.0049 0.182691,0 0.19647,0 0.01092,0 0.02298,0.0049 0.03275,0 0.0138,-0.0069 0.01894,-0.02582 0.03274,-0.03272 0.0098,-0.0049 0.02183,0 0.03274,0 h 0.03275 0.163725 0.163725 0.03275 c 0.01091,0 0.02298,-0.0049 0.03274,0 0.01381,0.0069 0.01894,0.02582 0.03274,0.03272 0.0098,0.0049 0.02503,-0.0077 0.03275,0 0.06775,0.0677 -0.103535,-0.0026 0.03274,0.06544 0.04366,0.02181 0.03275,-0.01091 0.03275,-0.03272 0,-0.01091 0.0049,-0.02296 0,-0.03272 -0.0069,-0.01379 -0.02183,-0.02181 -0.03275,-0.03272 -0.01091,-0.01091 -0.01894,-0.02582 -0.03274,-0.03272 -0.01953,-0.0098 -0.04596,0.0098 -0.06549,0 -0.02761,-0.01379 -0.03788,-0.05164 -0.06549,-0.06544 -0.0098,-0.0049 -0.02503,0.0077 -0.03274,0 -0.0077,-0.0077 0.0077,-0.02501 0,-0.03272 -0.0077,-0.0077 -0.02503,0.0077 -0.03275,0 -0.0077,-0.0077 -0.0077,-0.02501 0,-0.03272 0.0013,-0.0013 0.118956,0 0.13098,0 h 0.26196 c 0.01475,0 0.08827,-0.005 0.09824,0 0.0138,0.0069 0.01894,0.02582 0.03274,0.03272 0.0262,0.01309 0.07204,-0.01309 0.09823,0 0.01381,0.0069 0.01894,0.02582 0.03275,0.03272 0.02077,0.01037 0.142454,-0.01063 0.163725,0 0.01381,0.0069 0.01894,0.02582 0.03275,0.03272 0.01,0.005 0.08349,0 0.09823,0 0.02974,0 0.207961,0.0071 0.229215,0 0.01464,-0.0049 0.01894,-0.02582 0.03274,-0.03272 0.0098,-0.0049 0.02183,0 0.03275,0 h 0.03274 c 0.02277,0 0.151884,-0.0059 0.163725,0 0.01381,0.0069 0.01894,0.02582 0.03275,0.03272 0.0098,0.0049 0.02298,-0.0049 0.03274,0 0.01381,0.0069 0.0181,0.02784 0.03275,0.03272 0.0062,0.0021 0.220527,0.0043 0.229215,0 0.0138,-0.0069 0.01894,-0.02582 0.03274,-0.03272 0.0098,-0.0049 0.02298,0.0049 0.03274,0 0.01381,-0.0069 0.01894,-0.02582 0.03275,-0.03272 0.0098,-0.0049 0.02503,0.0077 0.03274,0 0.0077,-0.0077 -0.0077,-0.02501 0,-0.03272 0.01544,-0.01543 0.05005,0.01543 0.06549,0 0.04494,-0.04491 -0.05779,-0.03272 -0.06549,-0.03272 h -0.19647 c -0.03275,0 -0.06717,0.01035 -0.09824,0 -0.01464,-0.0049 -0.0181,-0.02784 -0.03274,-0.03272 -0.03107,-0.01035 -0.06549,0 -0.09823,0 H 19.92846 c -0.01378,0 -0.186734,0.0049 -0.19647,0 -0.01381,-0.0069 -0.01894,-0.02582 -0.03274,-0.03272 -0.0098,-0.0049 -0.02239,0.0034 -0.03275,0 -0.02316,-0.0077 -0.04233,-0.02501 -0.06549,-0.03272 -0.01897,-0.0063 -0.102601,0 -0.13098,0 -0.02838,0 -0.177312,0.0064 -0.19647,0 -0.01464,-0.0049 -0.01894,-0.02582 -0.03274,-0.03272 -0.02092,-0.01045 -0.104627,0.0088 -0.13098,0 -0.02316,-0.0077 -0.04233,-0.02501 -0.06549,-0.03272 -0.01036,-0.0034 -0.02298,0.0049 -0.03274,0 -0.01381,-0.0069 -0.01894,-0.02582 -0.03275,-0.03272 -0.01952,-0.0098 -0.04596,0.0098 -0.06549,0 -0.1086,-0.108513 0.03087,0.01543 -0.06549,-0.03272 -0.0138,-0.0069 -0.01894,-0.02582 -0.03274,-0.03272 -0.01953,-0.0098 -0.04596,0.0098 -0.06549,0 -0.0138,-0.0069 -0.01894,-0.02582 -0.03274,-0.03272 -0.0098,-0.0049 -0.02298,0.0049 -0.03275,0 -0.0138,-0.0069 -0.01894,-0.02582 -0.03274,-0.03272 -0.0098,-0.0049 -0.02298,0.0049 -0.03275,0 -0.0138,-0.0069 -0.01894,-0.02582 -0.03274,-0.03272 -0.0098,-0.0049 -0.02298,0.0049 -0.03274,0 -0.01381,-0.0069 -0.01894,-0.02582 -0.03275,-0.03272 -0.0085,-0.0042 -0.17326,0 -0.19647,0 -0.01092,0 -0.02503,0.0077 -0.03275,0 -0.0077,-0.0077 0.0077,-0.02501 0,-0.03272 -0.0077,-0.0077 -0.02298,0.0049 -0.03274,0 -0.02761,-0.01379 -0.03788,-0.05164 -0.06549,-0.06544 -0.0098,-0.0049 -0.02183,0 -0.03275,0 -0.01091,-0.01091 -0.01894,-0.02582 -0.03274,-0.03272 -0.0098,-0.0049 -0.02503,0.0077 -0.03274,0 -0.0077,-0.0077 0.0077,-0.02501 0,-0.03272 -0.0077,-0.0077 -0.02183,0 -0.03275,0 -0.02321,0 -0.188,0.0042 -0.19647,0 -0.13628,-0.06808 0.03501,0.0023 -0.03275,-0.06544 -0.0077,-0.0077 -0.02298,0.0049 -0.03274,0 -0.03929,-0.01963 -0.05894,-0.07852 -0.09824,-0.09816 -0.0098,-0.0049 -0.02503,0.0077 -0.03274,0 -0.0077,-0.0077 0.0077,-0.02501 0,-0.03272 -0.0077,-0.0077 -0.02298,0.0049 -0.03274,0 -0.01381,-0.0069 -0.02183,-0.02181 -0.03275,-0.03272 -0.01092,-0.01091 -0.02584,-0.01892 -0.03274,-0.03272 -0.0049,-0.0098 0.0077,-0.02501 0,-0.03272 -0.0077,-0.0077 -0.02503,0.0077 -0.03275,0 -0.0077,-0.0077 0.0049,-0.02296 0,-0.03272 -0.0069,-0.01379 -0.02584,-0.01893 -0.03274,-0.03272 -0.0049,-0.0098 0.0049,-0.02296 0,-0.03272 -0.0069,-0.01379 -0.02584,-0.01892 -0.03275,-0.03272 -0.0049,-0.0098 0.0077,-0.02501 0,-0.03272 -0.0077,-0.0077 -0.02503,0.0077 -0.03274,0 -0.0067,-0.0067 0.0065,-0.08518 0,-0.09816 -0.06814,-0.136171 0.0023,0.03498 -0.06549,-0.03272 -0.0077,-0.0077 0.0049,-0.02296 0,-0.03272 -0.0069,-0.01379 -0.02584,-0.01892 -0.03274,-0.03272 -0.0049,-0.0098 0.0049,-0.02296 0,-0.03272 -0.0069,-0.01379 -0.02584,-0.01892 -0.03275,-0.03272 -0.0098,-0.01951 0.01544,-0.05001 0,-0.06544 -0.0077,-0.0077 -0.02503,0.0077 -0.03274,0 -0.0067,-0.0067 0.0065,-0.08518 0,-0.09816 -0.0069,-0.01379 -0.02584,-0.01892 -0.03275,-0.03272 -0.01033,-0.02064 0.01033,-0.14295 0,-0.163593 -0.0069,-0.01379 -0.02584,-0.01892 -0.03274,-0.03272 -0.0022,-0.0045 -0.0022,-0.191845 0,-0.196313 0.0069,-0.01379 0.02584,-0.01892 0.03274,-0.03272 0.0049,-0.0098 0,-0.02181 0,-0.03272 v -0.03272 -0.196312 c 0,-0.01474 -0.005,-0.0882 0,-0.09816 0.0069,-0.01379 0.02584,-0.01892 0.03275,-0.03272 0.0098,-0.01951 -0.01544,-0.05001 0,-0.06544 0.0077,-0.0077 0.02503,0.0077 0.03274,0 0.01544,-0.01543 -0.01544,-0.05001 0,-0.06544 0.0077,-0.0077 0.02503,0.0077 0.03275,0 0.01544,-0.01543 -0.01544,-0.05001 0,-0.06544 0.0077,-0.0077 0.02503,0.0077 0.03274,0 0.01544,-0.01543 -0.0098,-0.04593 0,-0.06544 0.0069,-0.01379 0.02584,-0.01892 0.03275,-0.03272 0.0049,-0.0098 -0.0049,-0.02296 0,-0.03272 0.0069,-0.01379 0.02584,-0.01892 0.03274,-0.03272 0.0065,-0.01297 -0.0067,-0.09146 0,-0.09816 0.0077,-0.0077 0.02503,0.0077 0.03274,0 0.01637,-0.01636 -0.01637,-0.0818 0,-0.09816 0.0077,-0.0077 0.02503,0.0077 0.03275,0 0.01544,-0.01543 -0.01544,-0.05001 0,-0.06544 0.0077,-0.0077 0.02503,0.0077 0.03274,0 0.0077,-0.0077 -0.0049,-0.02296 0,-0.03272 0.0069,-0.01379 0.02584,-0.01892 0.03275,-0.03272 0.0049,-0.0098 -0.0077,-0.02501 0,-0.03272 0.0077,-0.0077 0.02503,0.0077 0.03274,0 0.0077,-0.0077 -0.0077,-0.02501 0,-0.03272 0.0077,-0.0077 0.02503,0.0077 0.03275,0 0.0077,-0.0077 -0.0077,-0.02501 0,-0.03272 0.0077,-0.0077 0.02298,0.0049 0.03274,0 0.01381,-0.0069 0.01894,-0.02582 0.03274,-0.03272 0.0098,-0.0049 0.02503,0.0077 0.03275,0 0.0077,-0.0077 -0.0077,-0.02501 0,-0.03272 0.0011,-0.0011 0.09029,0 0.09823,0 0.01092,0 0.02503,-0.0077 0.03275,0 0.0077,0.0077 -0.0077,0.02501 0,0.03272 0.0077,0.0077 0.02183,0 0.03274,0 0.02277,0 0.151884,0.0059 0.163725,0 0.01381,-0.0069 0.01894,-0.02582 0.03275,-0.03272 0.0098,-0.0049 0.02503,0.0077 0.03274,0 0.0077,-0.0077 -0.0077,-0.02501 0,-0.03272 0.0077,-0.0077 0.02183,0 0.03274,0 h 0.03275 c 0.02321,0 0.188,0.0042 0.19647,0 0.01381,-0.0069 0.01894,-0.02582 0.03275,-0.03272 0.0098,-0.0049 0.02298,0.0049 0.03274,0 0.13628,-0.06808 -0.03501,0.0023 0.03275,-0.06544 0.0077,-0.0077 0.02298,0.0049 0.03274,0 0.06144,-0.03069 0.01401,-0.04198 0.03275,-0.09816 0.0098,-0.02926 0.05168,-0.03785 0.06549,-0.06544 0.0049,-0.0098 -0.0049,-0.02296 0,-0.03272 0.0125,-0.025 0.09085,-0.076 0.09824,-0.09816 0.0069,-0.02069 -0.0069,-0.04474 0,-0.06544 0.0049,-0.01463 0.02584,-0.01892 0.03274,-0.03272 0.0131,-0.02617 -0.0131,-0.07198 0,-0.09816 0.0069,-0.01379 0.02584,-0.01892 0.03275,-0.03272 0.0049,-0.0098 0,-0.02181 0,-0.03272 0,-0.07392 0.0049,0.01463 -0.03275,-0.09816 -0.0034,-0.01035 0,-0.02181 0,-0.03272 0,-0.02181 0.0069,-0.04474 0,-0.06544 -0.0049,-0.01463 -0.02786,-0.01809 -0.03274,-0.03272 -0.0069,-0.02069 0.0069,-0.04474 0,-0.06544 -0.0049,-0.01463 -0.02418,-0.01988 -0.03275,-0.03272 -0.03464,-0.05191 -0.04293,-0.126748 -0.09823,-0.163594 -0.02031,-0.01352 -0.04824,-0.01548 -0.06549,-0.03272 -0.01725,-0.01724 -0.0181,-0.04593 -0.03274,-0.06544 -0.01852,-0.02467 -0.04366,-0.04363 -0.06549,-0.06544 -0.01092,-0.01091 -0.0204,-0.02346 -0.03275,-0.03272 -0.03149,-0.02359 -0.06751,-0.04087 -0.09823,-0.06544 -0.02411,-0.01927 -0.0408,-0.04693 -0.06549,-0.06544 -0.01952,-0.01463 -0.04596,-0.01809 -0.06549,-0.03272 -0.0494,-0.03702 -0.08276,-0.09234 -0.13098,-0.130875 -0.06147,-0.04913 -0.135005,-0.08175 -0.19647,-0.130875 -0.02411,-0.01927 -0.04138,-0.04616 -0.06549,-0.06544 -0.03073,-0.02457 -0.06549,-0.04362 -0.09823,-0.06544 -0.03274,-0.02181 -0.06304,-0.04785 -0.09823,-0.06544 -0.03087,-0.01542 -0.06549,-0.02181 -0.09824,-0.03272 -0.235537,-0.07845 0.0586,0.01673 -0.229215,-0.06544 l -0.19647,-0.06544 c -0.04322,-0.0062 -0.08732,0 -0.13098,0 h -0.32745 -0.39294 -0.13098 c -0.04366,0 -0.08776,-0.0062 -0.13098,0 -0.03417,0.0049 -0.06407,0.02784 -0.09823,0.03272 -0.07564,0.01079 -0.153849,-0.01255 -0.229215,0 -0.03405,0.0057 -0.06439,0.02596 -0.09824,0.03272 -0.02141,0.0043 -0.04409,-0.0043 -0.06549,0 -0.03384,0.0068 -0.06439,0.02596 -0.09823,0.03272 -0.10116,0.02022 -0.03575,-0.02972 -0.09824,0.03272 -0.07508,0.07502 0.0138,-0.0207 -0.06549,0.09816 -0.0086,0.01283 -0.02418,0.01988 -0.03274,0.03272 -0.0384,0.05755 -0.03887,0.09708 -0.06549,0.163593 -0.0091,0.02264 -0.02796,0.04152 -0.03275,0.06544 -0.0064,0.03208 0.0054,0.06588 0,0.09816 -0.0057,0.03402 -0.02707,0.06414 -0.03275,0.09816 -0.0054,0.03227 0.0054,0.06588 0,0.09816 -0.0057,0.03402 -0.02707,0.06414 -0.03275,0.09816 -0.0054,0.03227 0,0.06544 0,0.09816 v 0.163594 c 0,0.0085 -0.0055,0.179866 0,0.196312 0.008,0.02392 0.03552,0.08319 0.06549,0.09816 0.0098,0.0049 0.02298,-0.0049 0.03275,0 0.0138,0.0069 0.0181,0.02784 0.03275,0.03272 0.01464,0.0049 0.116406,-0.0073 0.13098,0 0.0138,0.0069 0.01894,0.02582 0.03275,0.03272 0.01952,0.0098 0.05005,-0.01543 0.06549,0 0.0077,0.0077 0,0.02181 0,0.03272 0.01091,0 0.02298,-0.0049 0.03275,0 0.04994,0.02495 0.03274,0.08599 0.03274,0.130875 0,0.01091 0.0085,0.02591 0,0.03272 -0.0497,0.03973 -0.10915,0.06544 -0.163725,0.09816 z" />
  <path
     style="fill:#183816;stroke:none"
     inkscape:connector-curvature="0"
     id="path56"
     d="m 16.555725,22.895941 c -0.153875,-0.10798 -0.131844,-0.09816 -0.26196,-0.09816 h -0.03275 c -0.01091,0 -0.02298,-0.0049 -0.03274,0 -0.01381,0.0069 -0.01894,0.02582 -0.03274,0.03272 -0.0098,0.0049 -0.02298,-0.0049 -0.03275,0 -0.02903,0.0145 -0.06842,0.0783 -0.09823,0.09816 -0.02031,0.01352 -0.04518,0.01919 -0.06549,0.03272 -0.01285,0.0086 -0.02183,0.02181 -0.03275,0.03272 -0.01092,0.01091 -0.02418,0.01988 -0.03275,0.03272 -0.07214,0.01647 -0.01731,0.06731 -0.03275,0.09816 -0.0138,0.02759 -0.05168,0.03785 -0.06549,0.06544 -0.0049,0.0098 0.0077,0.02501 0,0.03272 -0.0077,0.0077 -0.02503,-0.0077 -0.03275,0 -0.0077,0.0077 0.0077,0.02501 0,0.03272 -0.0013,0.0013 -0.118956,0 -0.13098,0 -0.01712,0 -0.12237,0.0043 -0.13098,0 -0.03929,-0.01963 -0.05894,-0.07852 -0.09824,-0.09816 -0.0098,-0.0049 -0.02503,0.0077 -0.03275,0 -0.0077,-0.0077 0.0049,-0.02296 0,-0.03272 -0.0069,-0.01379 -0.02584,-0.01892 -0.03274,-0.03272 -0.0049,-0.0098 0.0077,-0.02501 0,-0.03272 -0.0077,-0.0077 -0.02503,0.0077 -0.03275,0 -0.0077,-0.0077 0.0049,-0.02296 0,-0.03272 -0.0069,-0.01379 -0.02584,-0.01892 -0.03275,-0.03272 -0.0098,-0.01951 0.01544,-0.05001 0,-0.06544 -0.0077,-0.0077 -0.02298,0.0049 -0.03275,0 -0.0138,-0.0069 -0.01894,-0.02582 -0.03275,-0.03272 -0.0098,-0.0049 -0.02298,0.0049 -0.03275,0 -0.0138,-0.0069 -0.01894,-0.02582 -0.03275,-0.03272 -0.0262,-0.01309 -0.07204,0.01309 -0.09823,0 -0.0138,-0.0069 -0.01894,-0.02582 -0.03275,-0.03272 -0.0092,-0.0046 -0.121794,-0.0046 -0.13098,0 -0.01381,0.0069 -0.01894,0.02582 -0.03275,0.03272 -0.0098,0.0049 -0.02183,0 -0.03275,0 -0.02183,0.01091 -0.04518,0.01919 -0.06549,0.03272 -0.02569,0.01711 -0.03788,0.05164 -0.06549,0.06544 -0.0098,0.0049 -0.02503,-0.0077 -0.03274,0 -0.01725,0.01724 -0.01921,0.04514 -0.03275,0.06544 -0.01987,0.02979 -0.08372,0.06915 -0.09824,0.09816 -0.0049,0.0098 0.0049,0.02296 0,0.03272 -0.0069,0.01379 -0.02584,0.01892 -0.03275,0.03272 -0.0049,0.0098 0.0077,0.02501 0,0.03272 -0.0077,0.0077 -0.02503,-0.0077 -0.03275,0 -0.01149,0.01148 0.01131,0.140996 0,0.163593 -0.0069,0.0138 -0.02584,0.01892 -0.03275,0.03272 -0.0049,0.0098 0.0077,0.02501 0,0.03272 -0.0077,0.0077 -0.02503,-0.0077 -0.03274,0 -0.06775,0.0677 0.103535,-0.0026 -0.03275,0.06544 -0.0098,0.0049 -0.02503,-0.0077 -0.03275,0 -0.0077,0.0077 0.0077,0.02501 0,0.03272 -0.0077,0.0077 -0.02503,-0.0077 -0.03275,0 -0.0077,0.0077 0.0077,0.02501 0,0.03272 -0.0077,0.0077 -0.02183,0 -0.03275,0 h -0.03275 c -0.01475,0 -0.08827,0.005 -0.09823,0 -0.0138,-0.0069 -0.01894,-0.02582 -0.03275,-0.03272 -0.0098,-0.0049 -0.02298,0.0049 -0.03275,0 -0.02761,-0.01379 -0.03788,-0.05164 -0.06549,-0.06544 -0.0098,-0.0049 -0.02503,0.0077 -0.03275,0 -0.0077,-0.0077 0.0077,-0.02501 0,-0.03272 -0.0077,-0.0077 -0.02183,0 -0.03274,0 h -0.03275 c -0.01202,0 -0.129661,-0.0013 -0.13098,0 -0.0077,0.0077 0.0077,0.02501 0,0.03272 -0.0077,0.0077 -0.02298,-0.0049 -0.03275,0 -0.02761,0.01379 -0.03788,0.05164 -0.06549,0.06544 -0.0098,0.0049 -0.02503,-0.0077 -0.03275,0 -0.07953,0.07947 0.0097,0.04805 -0.06549,0.09816 -0.02031,0.01352 -0.04518,0.01919 -0.06549,0.03272 -0.01284,0.0086 -0.01894,0.02582 -0.03275,0.03272 -0.0098,0.0049 -0.02298,-0.0049 -0.03274,0 -0.01381,0.0069 -0.01894,0.02582 -0.03275,0.03272 -0.0098,0.0049 -0.02503,-0.0077 -0.03275,0 -0.0077,0.0077 0.0077,0.02501 0,0.03272 -0.0077,0.0077 -0.02503,-0.0077 -0.03275,0 -0.0077,0.0077 0.0077,0.02501 0,0.03272 -0.0077,0.0077 -0.02503,-0.0077 -0.03275,0 -0.0077,0.0077 0.0049,0.02296 0,0.03272 -0.0138,0.02759 -0.05168,0.03785 -0.06549,0.06544 -0.0049,0.0098 0.0049,0.02296 0,0.03272 -0.0069,0.01379 -0.02584,0.01892 -0.03274,0.03272 -0.005,0.01 0,0.08342 0,0.09816 v 0.196313 0.03272 c 0,0.01091 -0.0077,0.02501 0,0.03272 0.0077,0.0077 0.02503,-0.0077 0.03274,0 0.0077,0.0077 0,0.02181 0,0.03272 0,0.01091 0.0077,0.02501 0,0.03272 -0.0077,0.0077 -0.02503,-0.0077 -0.03274,0 -0.06775,0.0677 0.103535,-0.0026 -0.03275,0.06544 -0.0086,0.0043 -0.113857,0 -0.13098,0 -0.01712,0 -0.12237,0.0043 -0.13098,0 -0.0086,-0.0043 -0.03989,-0.0583 -0.06549,-0.03272 -0.0077,0.0077 0.0077,0.02501 0,0.03272 -0.0077,0.0077 -0.02503,-0.0077 -0.03275,0 -0.01544,0.01543 0.0098,0.04593 0,0.06544 -0.0069,0.01379 -0.02584,0.01892 -0.03275,0.03272 -0.0049,0.0098 0,0.02181 0,0.03272 v 0.03272 c 0,0.02675 0.0055,0.212445 0,0.229031 -0.0049,0.01463 -0.02584,0.01893 -0.03274,0.03272 -0.0098,0.01951 0.01544,0.05001 0,0.06544 -0.0077,0.0077 -0.02503,-0.0077 -0.03275,0 -0.0077,0.0077 0.0077,0.02501 0,0.03272 -0.0077,0.0077 -0.02183,0 -0.03275,0 -0.01092,0 -0.02298,0.0049 -0.03275,0 -0.0138,-0.0069 -0.01894,-0.02582 -0.03275,-0.03272 -0.0098,-0.0049 -0.02298,0.0049 -0.03275,0 -0.0138,-0.0069 -0.02183,-0.02181 -0.03275,-0.03272 l -0.03274,-0.03272 -0.13098,-0.130875 c -0.01724,-0.01722 -0.08949,-0.08068 -0.09824,-0.09816 -0.0049,-0.0098 0.0077,-0.02501 0,-0.03272 -0.0077,-0.0077 -0.02503,0.0077 -0.03274,0 -0.0077,-0.0077 0.0077,-0.02501 0,-0.03272 -0.0077,-0.0077 -0.02503,0.0077 -0.03275,0 -0.0077,-0.0077 0.0077,-0.02501 0,-0.03272 -0.0077,-0.0077 -0.02183,0 -0.03275,0 -0.01712,0 -0.12237,-0.0043 -0.13098,0 -0.0138,0.0069 -0.01894,0.02582 -0.03274,0.03272 -0.0098,0.0049 -0.02298,-0.0049 -0.03275,0 -0.0138,0.0069 -0.01894,0.02582 -0.03275,0.03272 -0.01952,0.0098 -0.04597,-0.0098 -0.06549,0 -0.02761,0.01379 -0.03788,0.05164 -0.06549,0.06544 -0.0098,0.0049 -0.02298,-0.0049 -0.03274,0 -0.01749,0.0087 -0.081,0.08093 -0.09824,0.09816 -0.01475,0.01474 -0.09325,0.08322 -0.09824,0.09816 -0.0069,0.0207 0.0069,0.04474 0,0.06544 -0.0098,0.02926 -0.04837,0.03977 -0.06549,0.06544 -0.06915,0.103636 -0.0056,0.0822 -0.03275,0.163594 -0.0049,0.01463 -0.02584,0.01892 -0.03275,0.03272 -0.005,0.01 0,0.08342 0,0.09816 0,0.01474 -0.005,0.0882 0,0.09816 0.0069,0.01379 0.02584,0.01892 0.03275,0.03272 0.01164,0.02327 -0.01164,0.04217 0,0.06544 0.0138,0.02759 0.05168,0.03785 0.06549,0.06544 0.0049,0.0098 -0.0049,0.02296 0,0.03272 0.0069,0.0138 0.02183,0.02181 0.03274,0.03272 0.01092,0.01091 0.01894,0.02582 0.03275,0.03272 0.0098,0.0049 0.02298,-0.0049 0.03275,0 0.13628,0.06808 -0.03501,-0.0023 0.03275,0.06544 0.0077,0.0077 0.02298,-0.0049 0.03275,0 0.0087,0.0043 0.09389,0.08947 0.09823,0.09816 0.0049,0.0098 -0.0077,0.02501 0,0.03272 0.0077,0.0077 0.02503,-0.0077 0.03275,0 0.0077,0.0077 0,0.02181 0,0.03272 0,0.01711 0.0043,0.122272 0,0.130875 -0.0069,0.01379 -0.02584,0.01893 -0.03275,0.03272 -0.0098,0.01951 0.0098,0.04593 0,0.06544 -0.0069,0.0138 -0.02584,0.01893 -0.03274,0.03272 -0.0049,0.0098 0.0049,0.02296 0,0.03272 -0.0069,0.01379 -0.02584,0.01893 -0.03275,0.03272 -0.0049,0.0098 0.0049,0.02296 0,0.03272 -0.01381,0.02759 -0.05169,0.03785 -0.06549,0.06544 -0.0049,0.0098 0.0049,0.02296 0,0.03272 -0.0069,0.01379 -0.02584,0.01892 -0.03275,0.03272 -0.0049,0.0098 0.0049,0.02296 0,0.03272 -0.0069,0.01379 -0.02584,0.01892 -0.03275,0.03272 -0.0042,0.0085 0,0.173121 0,0.196312 0,0.0079 -0.0011,0.0971 0,0.09816 0.0077,0.0077 0.02503,-0.0077 0.03275,0 0.06775,0.0677 -0.103535,-0.0026 0.03275,0.06544 0.0098,0.0049 0.02503,-0.0077 0.03275,0 0.0077,0.0077 -0.0077,0.02501 0,0.03272 0.0077,0.0077 0.02298,-0.0049 0.03275,0 0.07241,0.03617 0.01016,0.0203 0.03275,0.06544 0.0069,0.0138 0.02584,0.01892 0.03274,0.03272 0.005,0.01 0,0.08342 0,0.09816 0,0.01474 0.005,0.0882 0,0.09816 -0.0069,0.01379 -0.02584,0.01892 -0.03274,0.03272 -0.0049,0.0098 0.0077,0.02501 0,0.03272 -0.0077,0.0077 -0.02298,-0.0049 -0.03275,0 -0.02903,0.0145 -0.06842,0.0783 -0.09824,0.09816 -0.02031,0.01352 -0.04518,0.01919 -0.06549,0.03272 -0.02569,0.01711 -0.0398,0.04833 -0.06549,0.06544 -0.01719,0.01146 -0.08751,0.03329 -0.09824,0.06544 -0.0069,0.0207 0.0069,0.04474 0,0.06544 -0.0049,0.01463 -0.02584,0.01892 -0.03275,0.03272 -0.0049,0.0098 0,0.02181 0,0.03272 v 0.06544 0.229031 0.163594 c 0,0.02181 -0.0069,0.04474 0,0.06544 0.0077,0.02314 0.02503,0.0423 0.03275,0.06544 0.0034,0.01035 -0.0049,0.02296 0,0.03272 0.0069,0.01379 0.02584,0.01892 0.03275,0.03272 0.0049,0.0098 -0.0049,0.02296 0,0.03272 0.0138,0.02759 0.05168,0.03785 0.06549,0.06544 0.0049,0.0098 -0.0049,0.02296 0,0.03272 0.0069,0.01379 0.02183,0.02181 0.03275,0.03272 0.01091,0.01091 0.01894,0.02582 0.03274,0.03272 0.0098,0.0049 0.02503,-0.0077 0.03275,0 0.06775,0.0677 -0.103535,-0.0026 0.03275,0.06544 0.0098,0.0049 0.02298,-0.0049 0.03275,0 0.0138,0.0069 0.01894,0.02582 0.03275,0.03272 0.01952,0.0098 0.04596,-0.0098 0.06549,0 0.0138,0.0069 0.02183,0.02181 0.03274,0.03272 0.01092,0.01091 0.02584,0.01892 0.03275,0.03272 0.0049,0.0098 -0.0077,0.02501 0,0.03272 0.0077,0.0077 0.02503,-0.0077 0.03275,0 0.0011,0.0011 0,0.09022 0,0.09816 v 0.26175 c 0,0.01474 -0.005,0.0882 0,0.09816 0.0069,0.01379 0.02584,0.01892 0.03275,0.03272 0.0049,0.0098 -0.0049,0.02296 0,0.03272 0.0069,0.01379 0.02584,0.01892 0.03275,0.03272 0.0049,0.0098 -0.0077,0.02501 0,0.03272 0.0077,0.0077 0.02503,-0.0077 0.03275,0 0.06775,0.0677 -0.103535,-0.0026 0.03275,0.06544 0.0098,0.0049 0.02503,-0.0077 0.03274,0 0.0077,0.0077 -0.0077,0.02501 0,0.03272 0.0067,0.0067 0.08525,-0.0065 0.09824,0 0.0138,0.0069 0.01894,0.02582 0.03275,0.03272 0.01952,0.0098 0.04597,-0.0098 0.06549,0 0.0138,0.0069 0.01894,0.02582 0.03274,0.03272 0.0017,8.73e-4 0.09652,8.73e-4 0.09824,0 0.0138,-0.0069 0.01894,-0.02582 0.03275,-0.03272 0.0098,-0.0049 0.02183,0 0.03275,0 0.02183,0 0.04478,0.0069 0.06549,0 0.01464,-0.0049 0.01894,-0.02582 0.03274,-0.03272 0.0098,-0.0049 0.02298,0.0049 0.03275,0 0.0138,-0.0069 0.01894,-0.02582 0.03275,-0.03272 0.0098,-0.0049 0.02298,0.0049 0.03275,0 0.0138,-0.0069 0.01894,-0.02582 0.03275,-0.03272 0.0098,-0.0049 0.02183,0 0.03275,0 h 0.03275 c 0.03167,0 0.18676,-0.0049 0.19647,0 0.0138,0.0069 0.01894,0.02582 0.03275,0.03272 0.0098,0.0049 0.02298,-0.0049 0.03274,0 0.02761,0.01379 0.03788,0.05164 0.06549,0.06544 0.0098,0.0049 0.02503,-0.0077 0.03275,0 0.0077,0.0077 -0.0077,0.02501 0,0.03272 0.0077,0.0077 0.02503,-0.0077 0.03275,0 0.0077,0.0077 -0.0077,0.02501 0,0.03272 0.06775,0.0677 -0.0026,-0.103452 0.06549,0.03272 0.0049,0.0098 -0.0077,0.02501 0,0.03272 0.0077,0.0077 0.02503,-0.0077 0.03274,0 0.0077,0.0077 -0.0077,0.02501 0,0.03272 0.0077,0.0077 0.02503,-0.0077 0.03275,0 0.0077,0.0077 -0.0077,0.02501 0,0.03272 0.0077,0.0077 0.02183,0 0.03275,0 h 0.03275 c 0.01475,0 0.08827,0.005 0.09824,0 0.0138,-0.0069 0.01894,-0.02582 0.03274,-0.03272 0.0098,-0.0049 0.02503,0.0077 0.03275,0 0.0077,-0.0077 -0.0049,-0.02296 0,-0.03272 0.0069,-0.01379 0.02584,-0.01892 0.03275,-0.03272 0.0049,-0.0098 -0.0077,-0.02501 0,-0.03272 0.0077,-0.0077 0.02503,0.0077 0.03275,0 0.06775,-0.0677 -0.103535,0.0026 0.03275,-0.06544 0.0098,-0.0049 0.02503,0.0077 0.03275,0 0.0077,-0.0077 -0.0077,-0.02501 0,-0.03272 0.01544,-0.01543 0.04596,0.0098 0.06549,0 0.0138,-0.0069 0.01894,-0.02582 0.03274,-0.03272 0.02066,-0.01032 0.143065,0.01032 0.163725,0 0.0138,-0.0069 0.01894,-0.02582 0.03275,-0.03272 0.0028,-0.0014 0.128186,-0.0014 0.13098,0 0.0138,0.0069 0.01894,0.02582 0.03275,0.03272 0.01,0.005 0.08349,0 0.09823,0 h 0.39294 c 0.02927,0 0.15329,0.0052 0.163725,0 0.0138,-0.0069 0.01894,-0.02582 0.03275,-0.03272 0.0098,-0.0049 0.02298,0.0049 0.03275,0 0.0138,-0.0069 0.01894,-0.02582 0.03275,-0.03272 0.0098,-0.0049 0.02298,0.0049 0.03275,0 0.0138,-0.0069 0.01894,-0.02582 0.03274,-0.03272 0.01953,-0.0098 0.04597,0.0098 0.06549,0 0.0138,-0.0069 0.01894,-0.02582 0.03275,-0.03272 0.0098,-0.0049 0.02503,0.0077 0.03275,0 0.0077,-0.0077 -0.0077,-0.02501 0,-0.03272 0.01544,-0.01543 0.04596,0.0098 0.06549,0 0.0138,-0.0069 0.01894,-0.02582 0.03274,-0.03272 0.0098,-0.0049 0.02503,0.0077 0.03275,0 0.0077,-0.0077 -0.0049,-0.02296 0,-0.03272 0.0069,-0.01379 0.02584,-0.01892 0.03275,-0.03272 0.0018,-0.0037 0.0018,-0.159938 0,-0.163594 -0.0069,-0.01379 -0.02584,-0.01892 -0.03275,-0.03272 -0.0049,-0.0098 0.0049,-0.02296 0,-0.03272 -0.0138,-0.02759 -0.05168,-0.03785 -0.06549,-0.06544 -0.0049,-0.0098 0.0049,-0.02296 0,-0.03272 -0.0069,-0.01379 -0.02584,-0.01892 -0.03275,-0.03272 -0.0098,-0.01951 0.0098,-0.04593 0,-0.06544 -0.0069,-0.01379 -0.02584,-0.01892 -0.03275,-0.03272 -8.73e-4,-0.0017 -8.73e-4,-0.09645 0,-0.09816 0.0069,-0.01379 0.02584,-0.01892 0.03275,-0.03272 0.0049,-0.0098 -0.0077,-0.02501 0,-0.03272 0.0077,-0.0077 0.02503,0.0077 0.03275,0 0.0077,-0.0077 -0.0049,-0.02296 0,-0.03272 0.0043,-0.0087 0.08954,-0.09381 0.09823,-0.09816 0.08732,0 -0.01091,0.01091 0.03275,-0.03272 0.01544,-0.01543 0.04597,0.0098 0.06549,0 0.0138,-0.0069 0.0181,-0.02784 0.03275,-0.03272 0.02227,-0.0074 0.146366,0.0087 0.163725,0 0.0138,-0.0069 0.01894,-0.02582 0.03275,-0.03272 0.0027,-0.0014 0.09403,-0.0014 0.09823,0 0.02316,0.0077 0.04233,0.02501 0.06549,0.03272 0.01036,0.0034 0.02298,-0.0049 0.03275,0 0.0138,0.0069 0.01894,0.02582 0.03275,0.03272 0.01952,0.0098 0.05005,-0.01543 0.06549,0 0.0077,0.0077 0.0077,0.02501 0,0.03272 -0.0256,0.02558 -0.05697,-0.02846 -0.06549,-0.03272 -0.04517,-0.02256 -0.02929,0.03962 -0.06549,-0.03272 -0.01029,-0.02057 0.01029,-0.110311 0,-0.130876 -0.0069,-0.01379 -0.02584,-0.01892 -0.03275,-0.03272 -0.0049,-0.0098 0,-0.02181 0,-0.03272 v -0.03272 c 0,-0.01091 -0.01091,-0.03272 0,-0.03272 0.01544,0 0.01894,0.02582 0.03275,0.03272 0.05822,0.02908 0.01819,-0.01817 0.03275,-0.03272 0.0077,-0.0077 0.02503,0.0077 0.03275,0 0.0077,-0.0077 0,-0.02181 0,-0.03272 0,-0.02319 -0.0042,-0.187849 0,-0.196313 0.0069,-0.01379 0.02584,-0.01892 0.03275,-0.03272 0.0098,-0.01951 -0.01544,-0.05001 0,-0.06544 0.0077,-0.0077 0.02298,0.0049 0.03275,0 0.03929,-0.01963 0.05894,-0.07853 0.09823,-0.09816 0.01952,-0.0098 0.05005,0.01543 0.06549,0 0.0077,-0.0077 -0.0077,-0.02501 0,-0.03272 0.0011,-0.0011 0.09029,0 0.09824,0 0.02277,0 0.151884,-0.0059 0.163725,0 0.04545,0.02271 0.03274,0.05821 0.03274,0.09816 0,0.01091 -0.0077,0.02501 0,0.03272 0.0077,0.0077 0.02503,-0.0077 0.03275,0 0.01544,0.01543 -0.01544,0.05001 0,0.06544 0.0077,0.0077 0.02503,-0.0077 0.03274,0 0.01544,0.01543 -0.01544,0.05001 0,0.06544 0.0077,0.0077 0.02503,-0.0077 0.03275,0 0.02177,0.02175 -0.02177,0.04369 0,0.06544 0.0077,0.0077 0.02183,0 0.03274,0 0,0.01091 -0.0049,0.02296 0,0.03272 0.0069,0.01379 0.02584,0.01892 0.03274,0.03272 0.0049,0.0098 -0.0077,0.02501 0,0.03272 0.0077,0.0077 0.02503,-0.0077 0.03275,0 0.01544,0.01543 -0.01544,0.05001 0,0.06544 0.0077,0.0077 0.02503,0.0077 0.03274,0 0.01544,-0.01543 -0.01544,-0.05001 0,-0.06544 0.0077,-0.0077 0.02503,0.0077 0.03275,0 0.01544,-0.01543 -0.0069,-0.04474 0,-0.06544 0.0077,-0.02314 0.01549,-0.0482 0.03274,-0.06544 0.0077,-0.0077 0.02503,0.0077 0.03275,0 0.0077,-0.0077 -0.0049,-0.02296 0,-0.03272 0.1086,-0.108513 -0.01544,0.03084 0.03274,-0.06544 0.06814,-0.136171 -0.0023,0.03498 0.06549,-0.03272 0.0077,-0.0077 -0.0049,-0.02296 0,-0.03272 0.06814,-0.136171 -0.0023,0.03498 0.06549,-0.03272 0.0077,-0.0077 -0.0077,-0.02501 0,-0.03272 0.0077,-0.0077 0.02183,0 0.03274,0 0,-0.01091 -0.0049,-0.02296 0,-0.03272 0.06814,-0.136171 -0.0023,0.03498 0.06549,-0.03272 0.0077,-0.0077 -0.0077,-0.02501 0,-0.03272 0.0077,-0.0077 0.02503,0.0077 0.03274,0 0.0077,-0.0077 -0.0049,-0.02296 0,-0.03272 0.0069,-0.01379 0.02584,-0.01892 0.03275,-0.03272 0.0049,-0.0098 -0.0077,-0.02501 0,-0.03272 0.0077,-0.0077 0.02503,0.0077 0.03274,0 0.0077,-0.0077 -0.0077,-0.02501 0,-0.03272 0.0077,-0.0077 0.02503,0.0077 0.03275,0 0.0077,-0.0077 0,-0.02181 0,-0.03272 0.01092,0 0.02298,0.0049 0.03274,0 0.01381,-0.0069 0.01894,-0.02582 0.03275,-0.03272 0.0098,-0.0049 0.03274,-0.01091 0.03274,0 0,0.01543 -0.02786,0.01809 -0.03274,0.03272 -0.0069,0.0207 0.0069,0.04474 0,0.06544 -0.0049,0.01463 -0.02418,0.01988 -0.03275,0.03272 -0.01354,0.02029 -0.01921,0.04514 -0.03274,0.06544 -0.0086,0.01284 -0.02786,0.01809 -0.03275,0.03272 -0.0069,0.0207 0.0069,0.04474 0,0.06544 -0.0049,0.01463 -0.02584,0.01892 -0.03274,0.03272 -0.0049,0.0098 0.0049,0.02296 0,0.03272 -0.0069,0.01379 -0.02584,0.01892 -0.03275,0.03272 -0.0098,0.01951 0.01544,0.05001 0,0.06544 -0.0077,0.0077 -0.02503,-0.0077 -0.03274,0 -0.0033,0.0033 -0.0033,0.09488 0,0.09816 0.0077,0.0077 0.02503,-0.0077 0.03274,0 0.0077,0.0077 -0.0077,0.02501 0,0.03272 0.0046,0.0046 0.09152,0.0034 0.09824,0 0.0138,-0.0069 0.01894,-0.02582 0.03274,-0.03272 0.01953,-0.0098 0.04597,0.0098 0.06549,0 0.01381,-0.0069 0.01894,-0.02582 0.03274,-0.03272 0.01953,-0.0098 0.04597,0.0098 0.06549,0 0.01381,-0.0069 0.01894,-0.02582 0.03275,-0.03272 0.0098,-0.0049 0.02298,0.0049 0.03274,0 0.02761,-0.01379 0.03788,-0.05164 0.06549,-0.06544 0.01953,-0.0098 0.05005,0.01543 0.06549,0 0.0077,-0.0077 -0.0077,-0.02501 0,-0.03272 0.01544,-0.01543 0.04596,0.0098 0.06549,0 0.08093,-0.04043 -0.0113,-0.03272 0.06549,-0.03272 0.01475,0 0.08827,0.005 0.09823,0 0.01381,-0.0069 0.01894,-0.02582 0.03274,-0.03272 0.01298,-0.0065 0.09154,0.0067 0.09824,0 0.0077,-0.0077 -0.0077,-0.02501 0,-0.03272 0.01544,-0.01543 0.04596,0.0098 0.06549,0 0.08093,-0.04043 -0.0113,-0.03272 0.06549,-0.03272 h 0.06549 c -0.02183,0 -0.04478,-0.0069 -0.06549,0 -0.02485,0.0083 -0.100881,0.115842 -0.13098,0.130875 -0.0098,0.0049 -0.02239,-0.0034 -0.03275,0 -0.05947,0.01981 -0.06077,0.028 -0.09823,0.06544 -0.01092,0.01091 -0.02584,0.01892 -0.03274,0.03272 -0.02258,0.04513 0.03965,0.02926 -0.03275,0.06544 -0.0098,0.0049 -0.02503,-0.0077 -0.03274,0 -0.01544,0.01543 0.01544,0.05001 0,0.06544 -0.0077,0.0077 -0.02503,-0.0077 -0.03275,0 -0.0077,0.0077 0.0049,0.02296 0,0.03272 -0.0043,0.0085 -0.05835,0.03986 -0.03274,0.06544 0.0013,0.0013 0.118956,0 0.13098,0 h 0.13098 c 0.02183,0 0.04478,0.0069 0.06549,0 0.02316,-0.0077 0.04233,-0.02501 0.06549,-0.03272 0.01036,-0.0034 0.02239,0.0034 0.03274,0 0.02316,-0.0077 0.04233,-0.02501 0.06549,-0.03272 0.02635,-0.0088 0.110058,0.01045 0.13098,0 0.01381,-0.0069 0.01894,-0.02582 0.03274,-0.03272 0.0086,-0.0043 0.113857,0 0.13098,0 h 0.03275 c 0.01091,0 0.03274,-0.01091 0.03274,0 0,0.01091 -0.02298,-0.0049 -0.03274,0 -0.01381,0.0069 -0.02183,0.02181 -0.03275,0.03272 -0.02183,0 -0.04478,-0.0069 -0.06549,0 -0.01464,0.0049 -0.0199,0.02416 -0.03274,0.03272 -0.101815,0.06782 -0.02916,-0.0024 -0.13098,0.06544 -0.01284,0.0086 -0.0199,0.02416 -0.03274,0.03272 -0.03602,0.02399 -0.173907,0.07561 -0.19647,0.09816 -0.01725,0.01724 -0.01549,0.0482 -0.03274,0.06544 -0.01725,0.01724 -0.04518,0.01919 -0.06549,0.03272 -0.01388,0.0092 -0.09146,0.08461 -0.09823,0.09816 -0.0098,0.01951 0.01544,0.05001 0,0.06544 -0.0077,0.0077 -0.02503,-0.0077 -0.03275,0 -0.05351,0.05347 0.08949,0.02835 0.09823,0.03272 0.01381,0.0069 0.01894,0.02582 0.03275,0.03272 0.03839,0.01919 0.03887,-0.01941 0.06549,-0.03272 0.01952,-0.0098 0.04596,0.0098 0.06549,0 0.0138,-0.0069 0.0181,-0.02784 0.03274,-0.03272 0.02071,-0.0069 0.04596,0.0098 0.06549,0 0.0098,-0.0049 -0.0077,-0.02501 0,-0.03272 0.0077,-0.0077 0.02183,0 0.03274,0 h 0.163725 c 0.01475,0 0.08827,0.005 0.09824,0 0.0138,-0.0069 0.01894,-0.02582 0.03274,-0.03272 0.0086,-0.0043 0.113857,0 0.13098,0 0.01712,0 0.12237,-0.0043 0.13098,0 0.0138,0.0069 0.01894,0.02582 0.03274,0.03272 0.02058,0.01028 0.110399,-0.01028 0.13098,0 0.0138,0.0069 0.01894,0.02582 0.03274,0.03272 0.0098,0.0049 0.02503,-0.0077 0.03275,0 0.0077,0.0077 -0.0077,0.02501 0,0.03272 0.0077,0.0077 0.02298,-0.0049 0.03274,0 0.13628,0.06808 -0.03501,-0.0023 0.03274,0.06544 0.0077,0.0077 0.02503,-0.0077 0.03275,0 0.009,0.009 -0.0089,0.113129 0,0.130875 0.0138,0.02759 0.04837,0.03977 0.06549,0.06544 0.01353,0.02029 0.01921,0.04514 0.03274,0.06544 0.0086,0.01283 0.02584,0.01892 0.03275,0.03272 0.0049,0.0098 -0.0049,0.02296 0,0.03272 0.0069,0.01379 0.02786,0.01809 0.03274,0.03272 0.0069,0.0207 -0.0069,0.04474 0,0.06544 0.0049,0.01463 0.02584,0.01892 0.03274,0.03272 0.0049,0.0098 0,0.02181 0,0.03272 v 0.03272 0.163594 0.03272 c 0,0.01091 -0.0077,0.02501 0,0.03272 0.0077,0.0077 0.02503,-0.0077 0.03275,0 0.0077,0.0077 -0.0049,0.02296 0,0.03272 0.01381,0.02759 0.05168,0.03785 0.06549,0.06544 0.0049,0.0098 -0.0049,0.02296 0,0.03272 0.0043,0.0087 0.08954,0.09381 0.09823,0.09816 0.0098,0.0049 0.02239,-0.0034 0.03274,0 0.04631,0.01543 0.08467,0.05001 0.13098,0.06544 0.01036,0.0034 0.02239,-0.0034 0.03275,0 0.02316,0.0077 0.04181,0.0268 0.06549,0.03272 0.04236,0.01058 0.08862,-0.01058 0.13098,0 0.02368,0.0059 0.04108,0.03272 0.06549,0.03272 0.02441,0 0.04181,-0.0268 0.06549,-0.03272 0.05136,-0.01283 0.112363,0.01283 0.163725,0 0.02368,-0.0059 0.04181,-0.0268 0.06549,-0.03272 0.05136,-0.01283 0.112363,0.01283 0.163725,0 0.02368,-0.0059 0.04233,-0.02501 0.06549,-0.03272 0.01036,-0.0034 0.02298,0.0049 0.03274,0 0.01381,-0.0069 0.01894,-0.02582 0.03275,-0.03272 0.0098,-0.0049 0.02503,0.0077 0.03274,0 0.0077,-0.0077 -0.0077,-0.02501 0,-0.03272 0.0077,-0.0077 0.02503,0.0077 0.03275,0 0.0077,-0.0077 -0.0077,-0.02501 0,-0.03272 0.0077,-0.0077 0.02503,0.0077 0.03274,0 0.01544,-0.01543 -0.0098,-0.04593 0,-0.06544 0.0069,-0.01379 0.02584,-0.01892 0.03275,-0.03272 0.01029,-0.02057 -0.01029,-0.11031 0,-0.130875 0.0069,-0.01379 0.02584,-0.01892 0.03274,-0.03272 0.0049,-0.0098 -0.0049,-0.02296 0,-0.03272 0.01381,-0.02759 0.05168,-0.03785 0.06549,-0.06544 0.0049,-0.0098 -0.0049,-0.02296 0,-0.03272 0.0069,-0.01379 0.02183,-0.02181 0.03274,-0.03272 0.01092,-0.01091 0.01894,-0.02582 0.03275,-0.03272 0.0098,-0.0049 0.02298,0.0049 0.03274,0 0.03222,-0.0161 0.09876,-0.114778 0.13098,-0.130875 0.0098,-0.0049 0.02503,0.0077 0.03274,0 0.0077,-0.0077 -0.0077,-0.02501 0,-0.03272 0.0077,-0.0077 0.123104,0.0079 0.13098,0 0.0079,-0.0079 -0.0077,-0.02501 0,-0.03272 0.0077,-0.0077 0.02183,0 0.03274,0 0.01475,0 0.08827,-0.005 0.09824,0 0.0138,0.0069 0.01894,0.02582 0.03274,0.03272 0.0098,0.0049 0.02298,-0.0049 0.03275,0 0.07454,0.07448 -0.0068,0.0086 0.06549,0.03272 0.02316,0.0077 0.04233,0.02501 0.06549,0.03272 0.01036,0.0034 0.02503,-0.0077 0.03275,0 0.0077,0.0077 -0.0077,0.02501 0,0.03272 0.01544,0.01543 0.04596,-0.0098 0.06549,0 0.0138,0.0069 0.01894,0.02582 0.03274,0.03272 0.02058,0.01028 0.110399,-0.01028 0.13098,0 0.0138,0.0069 0.01894,0.02582 0.03274,0.03272 0.01953,0.0098 0.05005,-0.01543 0.06549,0 0.0077,0.0077 -0.0077,0.02501 0,0.03272 0.01544,0.01543 0.05005,-0.01543 0.06549,0 0.0077,0.0077 -0.0077,0.02501 0,0.03272 0.0077,0.0077 0.02239,-0.0034 0.03274,0 0.02316,0.0077 0.04233,0.02501 0.06549,0.03272 0.01036,0.0034 0.02183,0 0.03275,0 h 0.06549 c 0.02183,0 0.04431,-0.0053 0.06549,0 0.02368,0.0059 0.04181,0.0268 0.06549,0.03272 0.0731,0.01826 0.06475,-0.01066 0.13098,-0.03272 0.01036,-0.0034 0.02239,0.0034 0.03274,0 0.118712,-0.03954 0.02331,-0.01552 0.09824,-0.06544 0.02031,-0.01352 0.04824,-0.01548 0.06549,-0.03272 0.0077,-0.0077 -0.0034,-0.02237 0,-0.03272 0.0077,-0.02314 0.02503,-0.0423 0.03274,-0.06544 0.0069,-0.02069 0,-0.04363 0,-0.06544 0,-0.01293 0.007,-0.149616 0,-0.163594 -0.007,-0.01398 -0.02584,-0.01892 -0.03274,-0.03272 -0.01464,-0.02926 0.01464,-0.06889 0,-0.09816 -0.0049,-0.0098 -0.02503,0.0077 -0.03275,0 -0.127793,-0.12769 0.0076,-0.01757 -0.03274,-0.09816 -0.01043,-0.02084 -0.137992,-0.137881 -0.163725,-0.163594 -0.01092,-0.01091 -0.02584,-0.01892 -0.03275,-0.03272 -0.0049,-0.0098 0.0077,-0.02501 0,-0.03272 -0.06775,-0.0677 0.0026,0.103452 -0.06549,-0.03272 -0.0049,-0.0098 0.0049,-0.02296 0,-0.03272 -0.0069,-0.01379 -0.02584,-0.01892 -0.03274,-0.03272 -0.0098,-0.01951 0.0098,-0.04593 0,-0.06544 -0.0069,-0.01379 -0.03275,-0.01729 -0.03275,-0.03272 0,-0.01543 0.02584,-0.01892 0.03275,-0.03272 0.0098,-0.01951 -0.0098,-0.04593 0,-0.06544 0.0069,-0.01379 0.02183,-0.02181 0.03274,-0.03272 0.01092,-0.01091 0.0199,-0.02416 0.03275,-0.03272 0.02031,-0.01352 0.04518,-0.01919 0.06549,-0.03272 0.01284,-0.0086 0.01894,-0.02582 0.03274,-0.03272 0.0098,-0.0049 0.02298,0.0049 0.03274,0 0.01381,-0.0069 0.01894,-0.02582 0.03275,-0.03272 0.0098,-0.0049 0.02298,0.0049 0.03274,0 0.02761,-0.01379 0.03788,-0.05164 0.06549,-0.06544 0.01953,-0.0098 0.04596,0.0098 0.06549,0 0.02761,-0.01379 0.03788,-0.05164 0.06549,-0.06544 0.0098,-0.0049 0.02298,0.0049 0.03274,0 0.01381,-0.0069 0.01894,-0.02582 0.03275,-0.03272 0.0098,-0.0049 0.02503,0.0077 0.03274,0 0.06775,-0.0677 -0.103535,0.0026 0.03275,-0.06544 0.0098,-0.0049 0.02503,0.0077 0.03274,0 0.0077,-0.0077 -0.0049,-0.02296 0,-0.03272 0.0069,-0.01379 0.02584,-0.01892 0.03274,-0.03272 0.0098,-0.01951 -0.0098,-0.04593 0,-0.06544 0.0069,-0.01379 0.02584,-0.01892 0.03275,-0.03272 8.56e-4,-0.0017 8.56e-4,-0.09645 0,-0.09816 -0.0069,-0.01379 -0.02786,-0.01809 -0.03275,-0.03272 -0.0069,-0.02069 0.0069,-0.04474 0,-0.06544 -0.0049,-0.01463 -0.02584,-0.01892 -0.03274,-0.03272 -0.0049,-0.0098 0,-0.02181 0,-0.03272 -0.01092,-0.02181 -0.01921,-0.04514 -0.03274,-0.06544 -0.01712,-0.02567 -0.05169,-0.03785 -0.06549,-0.06544 -0.01306,-0.02611 0.01306,-0.03933 0,-0.06544 -0.03493,-0.0698 -0.03056,0.0044 -0.06549,-0.06544 -0.0049,-0.0098 0.0049,-0.02296 0,-0.03272 -0.0069,-0.01379 -0.02584,-0.01892 -0.03275,-0.03272 -0.02258,-0.04514 0.03965,-0.02926 -0.03274,-0.06544 -0.0098,-0.0049 -0.02298,0.0049 -0.03274,0 -0.02761,-0.01379 -0.0398,-0.04833 -0.06549,-0.06544 -0.237423,-0.118617 0.05177,0.03449 -0.09824,-0.06544 -0.04061,-0.02706 -0.09037,-0.03838 -0.13098,-0.06544 -0.01285,-0.0086 -0.0199,-0.02416 -0.03275,-0.03272 -0.02031,-0.01352 -0.04233,-0.02501 -0.06549,-0.03272 -0.02071,-0.0069 -0.05005,0.01543 -0.06549,0 -0.0077,-0.0077 0.0077,-0.02501 0,-0.03272 -0.0077,-0.0077 -0.02503,0.0077 -0.03275,0 -0.0077,-0.0077 0.0077,-0.02501 0,-0.03272 -0.0077,-0.0077 -0.02503,0.0077 -0.03274,0 -0.0077,-0.0077 0,-0.02181 0,-0.03272 v -0.03272 c 0,-0.03295 -0.006,-0.178217 0,-0.196312 0.0049,-0.01463 0.02584,-0.01892 0.03274,-0.03272 0.0049,-0.0098 0,-0.02181 0,-0.03272 0,-0.02181 -0.0069,-0.04474 0,-0.06544 0.0049,-0.01463 0.02584,-0.01892 0.03275,-0.03272 0.0049,-0.0097 0,-0.164667 0,-0.196313 0,-0.02216 0.005,-0.214128 0,-0.229031 -0.005,-0.0149 -0.02584,-0.01892 -0.03275,-0.03272 -0.0049,-0.0098 0.0049,-0.02296 0,-0.03272 -0.0069,-0.01379 -0.02584,-0.01892 -0.03274,-0.03272 -0.0049,-0.0098 0,-0.02181 0,-0.03272 -0.01092,-0.02181 -0.01921,-0.04514 -0.03275,-0.06544 -0.01712,-0.02567 -0.05168,-0.03785 -0.06549,-0.06544 -0.0049,-0.0098 0.0049,-0.02296 0,-0.03272 -0.0031,-0.0063 -0.12471,-0.127742 -0.13098,-0.130875 -0.0098,-0.0049 -0.02183,0 -0.03275,0 -0.01092,-0.01091 -0.01894,-0.02582 -0.03274,-0.03272 -0.01953,-0.0098 -0.04597,0.0098 -0.06549,0 -0.01381,-0.0069 -0.01894,-0.02582 -0.03275,-0.03272 -0.0098,-0.0049 -0.02298,0.0049 -0.03274,0 -0.01381,-0.0069 -0.01894,-0.02582 -0.03274,-0.03272 -0.01953,-0.0098 -0.04597,0.0098 -0.06549,0 -0.01381,-0.0069 -0.01894,-0.02582 -0.03275,-0.03272 -0.0098,-0.0049 -0.02298,0.0049 -0.03274,0 -0.0724,-0.03617 -0.01016,-0.0203 -0.03275,-0.06544 -0.0138,-0.02759 -0.05168,-0.03785 -0.06549,-0.06544 -0.0049,-0.0098 0.0077,-0.025 0,-0.03272 -0.0077,-0.0077 -0.02503,0.0077 -0.03275,0 -0.01544,-0.01543 0.0098,-0.04593 0,-0.06544 -0.0069,-0.01379 -0.02584,-0.01892 -0.03274,-0.03272 -0.01029,-0.02056 0.01029,-0.11031 0,-0.130875 -0.0069,-0.01379 -0.02584,-0.01892 -0.03275,-0.03272 -0.0034,-0.0067 -0.0046,-0.09354 0,-0.09816 0.0077,-0.0077 0.02503,0.0077 0.03275,0 0.009,-0.009 -0.0089,-0.113128 0,-0.130875 0.0069,-0.01379 0.02584,-0.01892 0.03274,-0.03272 0.0018,-0.0037 0.0018,-0.159938 0,-0.163594 -0.0069,-0.01379 -0.02183,-0.02181 -0.03274,-0.03272 l -0.03275,-0.03272 c -0.02183,-0.02181 -0.0398,-0.04833 -0.06549,-0.06544 -0.02031,-0.01352 -0.04366,-0.02181 -0.06549,-0.03272 l -0.13098,-0.06544 c -0.04366,-0.02181 -0.08566,-0.04732 -0.13098,-0.06544 -0.03205,-0.01281 -0.06619,-0.01991 -0.09823,-0.03272 -0.02266,-0.0091 -0.04156,-0.02794 -0.06549,-0.03272 -0.05352,-0.0107 -0.110783,0.01323 -0.163725,0 -0.02368,-0.0059 -0.04156,-0.02794 -0.06549,-0.03272 -0.03211,-0.0064 -0.06549,0 -0.09823,0 h -0.06549 c -0.01092,0 -0.02239,-0.0034 -0.03275,0 -0.02316,0.0077 -0.04181,0.0268 -0.06549,0.03272 -0.02118,0.0053 -0.04478,-0.0069 -0.06549,0 -0.01464,0.0049 -0.02183,0.02181 -0.03275,0.03272 -0.01925,0.01924 -0.115813,0.123302 -0.13098,0.130875 -0.04517,0.02256 -0.02929,-0.03962 -0.06549,0.03272 -0.0049,0.0098 0.0049,0.02296 0,0.03272 -0.0069,0.01379 -0.02584,0.01892 -0.03275,0.03272 -0.0049,0.0098 0.0049,0.02296 0,0.03272 -0.02023,0.04043 -0.03162,0.03272 -0.06549,0.03272 -0.01091,0 -0.02503,0.0077 -0.03274,0 -0.0077,-0.0077 0.0077,-0.02501 0,-0.03272 -0.0077,-0.0077 -0.02298,0.0049 -0.03274,0 -0.02761,-0.01379 -0.03788,-0.05164 -0.06549,-0.06544 -0.0098,-0.0049 -0.02298,0.0049 -0.03275,0 -0.0138,-0.0069 -0.0199,-0.02416 -0.03274,-0.03272 -0.237423,-0.118616 0.05177,0.03449 -0.09824,-0.06544 -0.02031,-0.01352 -0.04518,-0.01919 -0.06549,-0.03272 -0.01388,-0.0092 -0.09146,-0.08462 -0.09824,-0.09816 -0.0049,-0.0098 0.0077,-0.02501 0,-0.03272 -0.0077,-0.0077 -0.02503,0.0077 -0.03274,0 -0.0077,-0.0077 0,-0.02181 0,-0.03272 0,-0.01091 -0.0077,-0.02501 0,-0.03272 0.0077,-0.0077 0.02503,0.0077 0.03274,0 0.0067,-0.0067 -0.0065,-0.08518 0,-0.09816 0.0069,-0.01379 0.02584,-0.01892 0.03275,-0.03272 0.0018,-0.0037 0.0018,-0.159937 0,-0.163593 -0.01381,-0.02759 -0.05168,-0.03785 -0.06549,-0.06544 -0.01746,-0.0349 0.03241,-0.04374 -0.03275,-0.06544 -0.02071,-0.0069 -0.04478,0.0069 -0.06549,0 -0.02929,-0.0098 -0.03788,-0.05164 -0.06549,-0.06544 -0.0098,-0.0049 -0.02298,0.0049 -0.03275,0 -0.0138,-0.0069 -0.01894,-0.02582 -0.03274,-0.03272 -0.0098,-0.0049 -0.02298,0.0049 -0.03275,0 -0.0138,-0.0069 -0.0181,-0.02784 -0.03274,-0.03272 -0.02071,-0.0069 -0.04366,0 -0.06549,0 -0.01092,0 -0.02298,0.0049 -0.03274,0 -0.01381,-0.0069 -0.01894,-0.02582 -0.03275,-0.03272 -0.0073,-0.0037 -0.1232,0 -0.13098,0 h -0.03275 c -0.01092,0 -0.02298,-0.0049 -0.03274,0 -0.01381,0.0069 -0.02183,0.02181 -0.03275,0.03272 -0.02558,0.02556 -0.06998,0.07934 -0.09823,0.09816 -0.02031,0.01352 -0.04518,0.01919 -0.06549,0.03272 -0.01388,0.0092 -0.09146,0.08461 -0.09823,0.09816 -0.0049,0.0098 0.0049,0.02296 0,0.03272 -0.0069,0.01379 -0.02183,0.02181 -0.03275,0.03272 -0.01091,0.01091 -0.01894,0.02582 -0.03274,0.03272 -0.0098,0.0049 -0.02503,-0.0077 -0.03274,0 -0.0077,0.0077 0.01091,0.03272 0,0.03272 -0.01544,0 -0.01894,-0.02582 -0.03275,-0.03272 -0.0098,-0.0049 -0.02298,0.0049 -0.03274,0 -0.01381,-0.0069 -0.01894,-0.02582 -0.03275,-0.03272 -0.04517,-0.02256 -0.02929,0.03962 -0.06549,-0.03272 -0.0049,-0.0098 0.0049,-0.02296 0,-0.03272 -0.01965,-0.03926 -0.07859,-0.05889 -0.09823,-0.09816 -0.0049,-0.0098 0.0077,-0.02501 0,-0.03272 -0.0077,-0.0077 -0.02503,0.0077 -0.03274,0 -0.0077,-0.0077 0.0077,-0.02501 0,-0.03272 -0.0077,-0.0077 -0.02503,0.0077 -0.03275,0 -0.0077,-0.0077 0.0049,-0.02296 0,-0.03272 -0.0069,-0.01379 -0.02183,-0.02181 -0.03274,-0.03272 -0.01092,-0.01091 -0.01894,-0.02582 -0.03275,-0.03272 -0.0098,-0.0049 -0.02298,0.0049 -0.03274,0 -0.02761,-0.01379 -0.03788,-0.05164 -0.06549,-0.06544 -0.01952,-0.0098 -0.04596,0.0098 -0.06549,0 -0.0138,-0.0069 -0.01894,-0.02582 -0.03274,-0.03272 -0.0098,-0.0049 -0.02298,0.0049 -0.03275,0 -0.0138,-0.0069 -0.01894,-0.02582 -0.03274,-0.03272 -0.0086,-0.0043 -0.113857,0 -0.13098,0 h -0.03274 c -0.01092,0 -0.02503,-0.0077 -0.03275,0 -0.0077,0.0077 0.0077,0.02501 0,0.03272 -0.01544,0.01543 -0.05005,-0.01543 -0.06549,0 -0.0077,0.0077 0.0077,0.02501 0,0.03272 -0.0077,0.0077 -0.02503,-0.0077 -0.03274,0 -0.0077,0.0077 0.0077,0.02501 0,0.03272 -0.0077,0.0077 -0.02183,0 -0.03274,0 h -0.03275 c -0.01712,0 -0.12237,0.0043 -0.13098,0 -0.0138,-0.0069 -0.01894,-0.02582 -0.03274,-0.03272 -0.01953,-0.0098 -0.04596,0.0098 -0.06549,0 -0.0138,-0.0069 -0.01894,-0.02582 -0.03274,-0.03272 -0.01953,-0.0098 -0.05005,0.01543 -0.06549,0 -0.0077,-0.0077 0.0077,-0.02501 0,-0.03272 -0.0077,-0.0077 -0.02198,0.0018 -0.03275,0 -0.0549,-0.0091 -0.10915,-0.02181 -0.163725,-0.03272 z" />
  <path
     d="m 39,13.5 a 4.5,4.5 0 0 1 -9,0 4.5,4.5 0 1 1 9,0 z"
     id="path58"
     inkscape:connector-curvature="0"
     style="fill:#ffe57d;fill-rule:evenodd;stroke:none" />
  <path
     d="M 6.5025769,2.5003681 H 41.497423 a 3.0022087,3.0022087 0 0 1 3.002209,3.0022088 V 40.497423 a 3.0022087,3.0022087 0 0 1 -3.002209,3.002209 H 6.5025769 A 3.0022087,3.0022087 0 0 1 3.5003681,40.497423 V 5.5025769 A 3.0022087,3.0022087 0 0 1 6.5025769,2.5003681"
     id="path42"
     style="color:#000000;fill:none;fill-opacity:1;fill-rule:nonzero;stroke:url(#linearGradient3086-0);stroke-width:1;stroke-linecap:round;stroke-linejoin:round;stroke-miterlimit:4;stroke-opacity:1;stroke-dasharray:none;stroke-dashoffset:0;marker:none;visibility:visible;display:inline;overflow:visible;enable-background:accumulate"
     inkscape:connector-curvature="0" />
  <path
     d="M 19,3 H 41.536 C 42.9195,3 44,4.1362192 44,5.6264219 V 39 H 30.1406 z"
     id="path60"
     style="opacity:0.98999999000000005;fill:url(#linearGradient3179);stroke:none"
     inkscape:connector-curvature="0" />
  <path
     d="M 6.5014485,3.5002249 H 41.498552 a 2.0012239,1.9758763 0 0 1 2.001224,1.9758763 V 40.523899 a 2.0012239,1.9758763 0 0 1 -2.001224,1.975877 H 6.5014485 A 2.0012239,1.9758763 0 0 1 4.5002246,40.523899 V 5.4761012 A 2.0012239,1.9758763 0 0 1 6.5014485,3.5002249"
     id="path48"
     style="opacity:1;fill:none;stroke:url(#linearGradient4523);stroke-width:1;stroke-miterlimit:4;stroke-dasharray:none"
     inkscape:connector-curvature="0" />
</svg>
