<?xml version="1.0" encoding="UTF-8" standalone="no"?>
<svg
   xmlns:dc="http://purl.org/dc/elements/1.1/"
   xmlns:cc="http://creativecommons.org/ns#"
   xmlns:rdf="http://www.w3.org/1999/02/22-rdf-syntax-ns#"
   xmlns:svg="http://www.w3.org/2000/svg"
   xmlns="http://www.w3.org/2000/svg"
   xmlns:xlink="http://www.w3.org/1999/xlink"
   xmlns:sodipodi="http://sodipodi.sourceforge.net/DTD/sodipodi-0.dtd"
   xmlns:inkscape="http://www.inkscape.org/namespaces/inkscape"
   viewBox="0 0 48 48"
   id="svg2"
   version="1.1"
   inkscape:version="0.48.3.1 r9886"
   width="100%"
   height="100%"
   sodipodi:docname="libreoffice-oasis-spreadsheet-template.svg">
  <metadata
     id="metadata94">
    <rdf:RDF>
      <cc:Work
         rdf:about="">
        <dc:format>image/svg+xml</dc:format>
        <dc:type
           rdf:resource="http://purl.org/dc/dcmitype/StillImage" />
        <dc:title />
      </cc:Work>
    </rdf:RDF>
  </metadata>
  <sodipodi:namedview
     pagecolor="#ffffff"
     bordercolor="#666666"
     borderopacity="1"
     objecttolerance="10"
     gridtolerance="10"
     guidetolerance="10"
     inkscape:pageopacity="0"
     inkscape:pageshadow="2"
     inkscape:window-width="1280"
     inkscape:window-height="976"
     id="namedview92"
     showgrid="true"
     inkscape:zoom="11.313708"
     inkscape:cx="42.593854"
     inkscape:cy="23.262378"
     inkscape:window-x="0"
     inkscape:window-y="24"
     inkscape:window-maximized="1"
     inkscape:current-layer="svg2">
    <inkscape:grid
       type="xygrid"
       id="grid3193" />
  </sodipodi:namedview>
  <defs
     id="defs4">
    <linearGradient
       id="linearGradient5060">
      <stop
         offset="0"
         id="stop7" />
      <stop
         offset="1"
         stop-opacity="0"
         id="stop9" />
    </linearGradient>
    <linearGradient
       gradientUnits="userSpaceOnUse"
       id="linearGradient3127"
       x2="0"
       y1="38.7186"
       y2="45.76167">
      <stop
         offset="0"
         stop-opacity="0"
         id="stop12" />
      <stop
         offset=".5"
         id="stop14" />
      <stop
         offset="1"
         stop-opacity="0"
         id="stop16" />
    </linearGradient>
    <radialGradient
       cx="605.71429"
       cy="486.64789"
       gradientTransform="matrix(.062142,0,0,.029001,1.636502,28.085503)"
       gradientUnits="userSpaceOnUse"
       id="radialGradient3129"
       r="117.14286"
       xlink:href="#linearGradient5060" />
    <radialGradient
       cx="605.71429"
       cy="486.64789"
       gradientTransform="matrix(-.062142,0,0,.029001,46.53201,28.085503)"
       gradientUnits="userSpaceOnUse"
       id="radialGradient3131"
       r="117.14286"
       xlink:href="#linearGradient5060" />
    <linearGradient
       y1="-23"
       y2="-23"
       x2="42"
       x1="6"
       id="linearGradient998-9"
       gradientUnits="userSpaceOnUse">
      <stop
         id="stop24-5"
         stop-color="#fff"
         offset="0" />
      <stop
         style="stop-color:#ffffff;stop-opacity:0.5"
         id="stop26-5"
         stop-opacity="0"
         stop-color="#fff"
         offset="1" />
    </linearGradient>
    <linearGradient
       x2="-5.84311"
       x1="-42.69615"
       id="linearGradient3157-5-8"
       gradientUnits="userSpaceOnUse">
      <stop
         id="stop19-8"
         stop-color="#fff"
         offset="0" />
      <stop
         id="stop21-0"
         stop-color="#cdcdcd"
         offset="1" />
    </linearGradient>
    <linearGradient
       id="linearGradient3853">
      <stop
         style="stop-color:#ffffff;stop-opacity:1;"
         offset="0"
         id="stop3855" />
      <stop
         style="stop-color:#ffffff;stop-opacity:0;"
         offset="1"
         id="stop3857" />
    </linearGradient>
    <linearGradient
       id="linearGradient3916">
      <stop
         id="stop3918"
         offset="0"
         style="stop-color:#505050;stop-opacity:1;" />
      <stop
         style="stop-color:#ffffff;stop-opacity:1;"
         offset="0.5"
         id="stop3924" />
      <stop
         id="stop3920"
         offset="1"
         style="stop-color:#505050;stop-opacity:1;" />
    </linearGradient>
    <linearGradient
       id="linearGradient3866">
      <stop
         id="stop3868"
         offset="0"
         style="stop-color:#818181;stop-opacity:1;" />
      <stop
         id="stop3870"
         offset="1"
         style="stop-color:#667c03;stop-opacity:1;" />
    </linearGradient>
    <linearGradient
       inkscape:collect="always"
       xlink:href="#linearGradient998-9"
       id="linearGradient3499"
       gradientUnits="userSpaceOnUse"
       gradientTransform="matrix(0,1,-1,0,0,-3.5e-7)"
       x1="6"
       y1="-23"
       x2="42"
       y2="-23" />
    <linearGradient
       inkscape:collect="always"
       xlink:href="#linearGradient3853"
       id="linearGradient3502"
       gradientUnits="userSpaceOnUse"
       gradientTransform="translate(2,-3.5e-7)"
       x1="13"
       y1="7"
       x2="13"
       y2="42" />
    <linearGradient
       inkscape:collect="always"
       xlink:href="#linearGradient3157-5-8"
       id="linearGradient3507"
       gradientUnits="userSpaceOnUse"
       gradientTransform="matrix(0,-1,-1,0,0,-3.5e-7)"
       x1="-42.69615"
       x2="-5.84311" />
    <linearGradient
       inkscape:collect="always"
       xlink:href="#linearGradient3866"
       id="linearGradient3509"
       gradientUnits="userSpaceOnUse"
       gradientTransform="matrix(0,-1,-1,0,0,-3.5e-7)"
       x1="-5"
       y1="-21"
       x2="-43"
       y2="-21" />
    <linearGradient
       inkscape:collect="always"
       xlink:href="#linearGradient3916"
       id="linearGradient3514"
       gradientUnits="userSpaceOnUse"
       gradientTransform="matrix(1.3333335,0,0,2,-1.3333335,17)"
       x1="4"
       y1="9.5"
       x2="10"
       y2="9.5" />
    <linearGradient
       inkscape:collect="always"
       xlink:href="#linearGradient3916"
       id="linearGradient3520"
       gradientUnits="userSpaceOnUse"
       gradientTransform="matrix(1.3333335,0,0,2,-1.3333335,11)"
       x1="4"
       y1="9.5"
       x2="10"
       y2="9.5" />
    <linearGradient
       inkscape:collect="always"
       xlink:href="#linearGradient3916"
       id="linearGradient3526"
       gradientUnits="userSpaceOnUse"
       gradientTransform="matrix(1.3333335,0,0,2,-1.3333337,5)"
       x1="4"
       y1="9.5"
       x2="10"
       y2="9.5" />
    <linearGradient
       inkscape:collect="always"
       xlink:href="#linearGradient3916"
       id="linearGradient3532"
       gradientUnits="userSpaceOnUse"
       gradientTransform="matrix(1.3333335,0,0,2,-1.3333335,-0.9999996)"
       x1="4"
       y1="9.5"
       x2="10"
       y2="9.5" />
    <linearGradient
       inkscape:collect="always"
       xlink:href="#linearGradient3916"
       id="linearGradient3538"
       gradientUnits="userSpaceOnUse"
       gradientTransform="matrix(1.3333335,0,0,2,-1.3333337,-7)"
       x1="4"
       y1="9.5"
       x2="10"
       y2="9.5" />
  </defs>
  <g
     transform="matrix(.833389,0,0,1,3.928449,0)"
     id="g30">
    <path
       d="m9.08134,38.7186h30.00582v7.04306h-30.00582z"
       id="path32"
       fill="url(#linearGradient3127)"
       opacity=".5" />
    <path
       d="m39.08716,38.71885v7.04268c3.20017.01326 7.73646-1.57791 7.73646-3.52179s-3.57115-3.52088-7.73646-3.52088z"
       id="path34"
       fill="url(#radialGradient3129)"
       opacity=".5" />
    <path
       d="m9.08134,38.71885v7.04268c-3.20017.01326-7.73646-1.57791-7.73646-3.52179s3.57115-3.52088 7.73646-3.52088z"
       id="path36"
       fill="url(#radialGradient3131)"
       opacity=".5" />
  </g>
  <path
     inkscape:connector-curvature="0"
     d="m 41.4999,40.5 0,-33.0000004 a 2,2 0 0 0 -2,-2 l -30.9999,0 a 2,2 0 0 0 -2,2 L 6.5,40.5 a 2,2 0 0 0 2,2 l 30.9999,0 a 2,2 0 0 0 2,-2"
     id="path48-8"
     style="fill:url(#linearGradient3507);stroke:url(#linearGradient3509);stroke-linecap:round;stroke-linejoin:round" />
  <path
     id="path3034"
     d="m 15,5.9999996 -6.382138,0 C 7.513569,5.9999996 7,6.6592299 7,7.5729036 L 7,40.368756 C 7,41.387651 7.520965,42 8.538245,42 L 15,42"
     style="color:#000000;fill:#a4c201;fill-opacity:1;fill-rule:nonzero;stroke:none;stroke-width:1;marker:none;visibility:visible;display:inline;overflow:visible;enable-background:accumulate"
     inkscape:connector-curvature="0"
     sodipodi:nodetypes="cssssc" />
  <path
     style="color:#000000;fill:#667c03;fill-opacity:1;fill-rule:nonzero;stroke:none;stroke-width:1;marker:none;visibility:visible;display:inline;overflow:visible;enable-background:accumulate"
     d="m 14,6.9999996 1,0 L 15,42 14,42 z"
     id="rect3859"
     inkscape:connector-curvature="0" />
  <path
     style="opacity:0.5;color:#000000;fill:url(#linearGradient3502);fill-opacity:1;fill-rule:nonzero;stroke:none;stroke-width:1;marker:none;visibility:visible;display:inline;overflow:visible;enable-background:accumulate"
     d="m 15,6.9999996 1,0 L 16,42 15,42 z"
     id="rect3843"
     inkscape:connector-curvature="0" />
  <path
     inkscape:connector-curvature="0"
     d="M 40.5,7.4999996 40.5,40.5 a 1,1 0 0 1 -1,1 l -31,0 a 1,1 0 0 1 -1,-1 l 0,-33.0000004 a 1,1 0 0 1 1,-1 l 31,0 a 1,1 0 0 1 1,1"
     id="path62-6"
     style="opacity:0.5;fill:none;stroke:url(#linearGradient3499);stroke-linecap:round;stroke-linejoin:round" />
  <path
     sodipodi:type="arc"
     style="color:#000000;fill:#667c03;fill-opacity:1;fill-rule:nonzero;stroke:none;stroke-width:0.75000005;marker:none;visibility:visible;display:inline;overflow:visible;enable-background:accumulate"
     id="path3914"
     sodipodi:cx="10.5"
     sodipodi:cy="9.5"
     sodipodi:rx="1.5"
     sodipodi:ry="1.5"
     d="m 12,9.5 a 1.5,1.5 0 1 1 -3,0 1.5,1.5 0 1 1 3,0 z"
     transform="matrix(1.3333332,0,0,1.3333333,-2.9999988,-0.6666667)" />
  <rect
     style="color:#000000;fill:url(#linearGradient3538);fill-opacity:1;fill-rule:nonzero;stroke:none;stroke-width:1;marker:none;visibility:visible;display:inline;overflow:visible;enable-background:accumulate"
     id="rect3908"
     width="8"
     height="2"
     x="3.9999998"
     y="11"
     ry="1"
     rx="1" />
  <path
     transform="matrix(1.3333332,0,0,1.3333333,-2.9999986,5.3333337)"
     d="m 12,9.5 a 1.5,1.5 0 1 1 -3,0 1.5,1.5 0 1 1 3,0 z"
     sodipodi:ry="1.5"
     sodipodi:rx="1.5"
     sodipodi:cy="9.5"
     sodipodi:cx="10.5"
     id="path3841"
     style="color:#000000;fill:#667c03;fill-opacity:1;fill-rule:nonzero;stroke:none;stroke-width:0.75000005;marker:none;visibility:visible;display:inline;overflow:visible;enable-background:accumulate"
     sodipodi:type="arc" />
  <rect
     ry="1"
     y="17"
     x="4"
     height="2"
     width="8"
     id="rect3844"
     style="color:#000000;fill:url(#linearGradient3532);fill-opacity:1;fill-rule:nonzero;stroke:none;stroke-width:1;marker:none;visibility:visible;display:inline;overflow:visible;enable-background:accumulate"
     rx="1" />
  <path
     transform="matrix(1.3333332,0,0,1.3333333,-2.9999988,11.333333)"
     d="m 12,9.5 a 1.5,1.5 0 1 1 -3,0 1.5,1.5 0 1 1 3,0 z"
     sodipodi:ry="1.5"
     sodipodi:rx="1.5"
     sodipodi:cy="9.5"
     sodipodi:cx="10.5"
     id="path3848"
     style="color:#000000;fill:#667c03;fill-opacity:1;fill-rule:nonzero;stroke:none;stroke-width:0.75000005;marker:none;visibility:visible;display:inline;overflow:visible;enable-background:accumulate"
     sodipodi:type="arc" />
  <rect
     ry="1"
     y="23"
     x="3.9999998"
     height="2"
     width="8"
     id="rect3850"
     style="color:#000000;fill:url(#linearGradient3526);fill-opacity:1;fill-rule:nonzero;stroke:none;stroke-width:1;marker:none;visibility:visible;display:inline;overflow:visible;enable-background:accumulate"
     rx="1" />
  <path
     sodipodi:type="arc"
     style="color:#000000;fill:#667c03;fill-opacity:1;fill-rule:nonzero;stroke:none;stroke-width:0.75000005;marker:none;visibility:visible;display:inline;overflow:visible;enable-background:accumulate"
     id="path3852"
     sodipodi:cx="10.5"
     sodipodi:cy="9.5"
     sodipodi:rx="1.5"
     sodipodi:ry="1.5"
     d="m 12,9.5 a 1.5,1.5 0 1 1 -3,0 1.5,1.5 0 1 1 3,0 z"
     transform="matrix(1.3333332,0,0,1.3333333,-2.9999986,17.333334)" />
  <rect
     style="color:#000000;fill:url(#linearGradient3520);fill-opacity:1;fill-rule:nonzero;stroke:none;stroke-width:1;marker:none;visibility:visible;display:inline;overflow:visible;enable-background:accumulate"
     id="rect3854"
     width="8"
     height="2"
     x="4"
     y="29"
     ry="1"
     rx="1" />
  <path
     transform="matrix(1.3333332,0,0,1.3333333,-2.9999986,23.333334)"
     d="m 12,9.5 a 1.5,1.5 0 1 1 -3,0 1.5,1.5 0 1 1 3,0 z"
     sodipodi:ry="1.5"
     sodipodi:rx="1.5"
     sodipodi:cy="9.5"
     sodipodi:cx="10.5"
     id="path3860"
     style="color:#000000;fill:#667c03;fill-opacity:1;fill-rule:nonzero;stroke:none;stroke-width:0.75000005;marker:none;visibility:visible;display:inline;overflow:visible;enable-background:accumulate"
     sodipodi:type="arc" />
  <rect
     ry="1"
     y="35"
     x="4"
     height="2"
     width="8"
     id="rect3862"
     style="color:#000000;fill:url(#linearGradient3514);fill-opacity:1;fill-rule:nonzero;stroke:none;stroke-width:1;marker:none;visibility:visible;display:inline;overflow:visible;enable-background:accumulate"
     rx="1" />
  <path
     d="m 19,11 h 8 v 3 h -8 z"
     id="path44"
     inkscape:connector-curvature="0"
     style="fill:#9fbc01;fill-opacity:1" />
  <path
     d="m29,11h8v3h-8z"
     fill="#009fe9"
     id="path46"
     style="color:#000000;fill:#9fbc01;fill-opacity:1;fill-rule:nonzero;stroke-width:1;stroke-linecap:butt;stroke-linejoin:miter;stroke-miterlimit:4;stroke-opacity:1;stroke-dasharray:none;stroke-dashoffset:0;marker:none;visibility:visible;display:inline;overflow:visible;enable-background:accumulate" />
  <path
     d="m 19,15 h 8 v 3 h -8 z"
     id="path50"
     inkscape:connector-curvature="0"
     style="fill:#bdbdbd" />
  <path
     d="m29,15h8v3h-8z"
     fill="#bdbdbd"
     id="path52" />
  <path
     d="m 19,19 h 8 v 3 h -8 z"
     id="path56"
     inkscape:connector-curvature="0"
     style="fill:#bdbdbd" />
  <path
     d="m29,19h8v3h-8z"
     fill="#bdbdbd"
     id="path58" />
  <path
     d="m 19,23 h 8 v 3 h -8 z"
     id="path62"
     inkscape:connector-curvature="0"
     style="fill:#bdbdbd" />
  <path
     d="m29,23h8v3h-8z"
     fill="#bdbdbd"
     id="path64" />
  <path
     d="m 19,27 h 8 v 3 h -8 z"
     id="path68"
     inkscape:connector-curvature="0"
     style="fill:#bdbdbd" />
  <path
     d="m29,27h8v3h-8z"
     fill="#bdbdbd"
     id="path70" />
  <path
     d="m 19,31 h 8 v 3 h -8 z"
     id="path74"
     inkscape:connector-curvature="0"
     style="fill:#bdbdbd" />
  <path
     d="m29,31h8v3h-8z"
     fill="#bdbdbd"
     id="path76" />
  <path
     d="m 19,35 h 8 v 3 h -8 z"
     id="path80"
     inkscape:connector-curvature="0"
     style="fill:#bdbdbd" />
  <path
     d="m29,35h8v3h-8z"
     fill="#bdbdbd"
     id="path82" />
  <path
     style="fill:#667c03;fill-opacity:1"
     d="m 34.999982,28 c -1.818246,0 -3.530875,0.25968 -4.999991,0.68323 L 25,28.68323 25,33 l 0,0.465839 0.0625,0 C 25.519975,36.012193 29.782264,38 34.999982,38 c 5.217716,0 9.480006,-1.987807 9.937481,-4.534161 l 0.0625,0 0,-0.465839 0,-4.31677 -4.999991,0 C 38.530856,28.25968 36.818227,28 34.999982,28 z"
     id="path86"
     inkscape:connector-curvature="0" />
  <path
     style="color:#000000;fill:#adcc01;fill-opacity:1;fill-rule:nonzero;stroke-width:1;stroke-linecap:butt;stroke-linejoin:miter;stroke-miterlimit:4;stroke-opacity:1;stroke-dasharray:none;stroke-dashoffset:0;marker:none;visibility:visible;display:inline;overflow:visible;enable-background:accumulate"
     inkscape:connector-curvature="0"
     id="path90"
     d="m 45,29 c 0,2.761419 -4.477139,5 -9.999981,5 -5.522843,0 -9.999982,-2.238581 -9.999982,-5 0,-2.761419 4.477139,-5 9.999982,-5 C 40.522861,24 45,26.238581 45,29 z" />
</svg>
