<?xml version="1.0" encoding="UTF-8" standalone="no"?>
<svg xmlns:dc="http://purl.org/dc/elements/1.1/" xmlns:cc="http://creativecommons.org/ns#" xmlns:rdf="http://www.w3.org/1999/02/22-rdf-syntax-ns#" xmlns:svg="http://www.w3.org/2000/svg" xmlns="http://www.w3.org/2000/svg" xmlns:xlink="http://www.w3.org/1999/xlink" xmlns:sodipodi="http://sodipodi.sourceforge.net/DTD/sodipodi-0.dtd" xmlns:inkscape="http://www.inkscape.org/namespaces/inkscape" viewBox="0 0 48 48" id="svg2" version="1.1" inkscape:version="0.48.4 r9939" width="100%" height="100%" sodipodi:docname="rpm48.svg">
    <metadata id="metadata56">
        <rdf:RDF>
            <cc:Work rdf:about="">
                <dc:format>image/svg+xml</dc:format>
                <dc:type rdf:resource="http://purl.org/dc/dcmitype/StillImage" />
            </cc:Work>
        </rdf:RDF>
    </metadata>
    <sodipodi:namedview pagecolor="#ffffff" bordercolor="#666666" borderopacity="1" objecttolerance="10" gridtolerance="10" guidetolerance="10" inkscape:pageopacity="0" inkscape:pageshadow="2" inkscape:window-width="1280" inkscape:window-height="998" id="namedview54" showgrid="true" inkscape:zoom="9.8333333" inkscape:cx="46.496471" inkscape:cy="24.643826" inkscape:window-x="0" inkscape:window-y="0" inkscape:window-maximized="1" inkscape:current-layer="svg2" inkscape:snap-bbox="true">
        <inkscape:grid type="xygrid" id="grid3033" />
    </sodipodi:namedview>
    <defs id="defs4">
        <linearGradient id="linearGradient5060">
            <stop offset="0" id="stop7" />
            <stop offset="1" stop-opacity="0" id="stop9" />
        </linearGradient>
        <linearGradient gradientUnits="userSpaceOnUse" id="linearGradient3127" x2="0" y1="38.7186" y2="45.76167">
            <stop offset="0" stop-opacity="0" id="stop12" />
            <stop offset=".5" id="stop14" />
            <stop offset="1" stop-opacity="0" id="stop16" />
        </linearGradient>
        <linearGradient gradientUnits="userSpaceOnUse" id="linearGradient3157-5" x1="-42.69615" x2="-5.84311">
            <stop offset="0" stop-color="#ae802b" id="stop19" />
            <stop offset="1" stop-color="#e1c18b" id="stop21" />
        </linearGradient>
        <linearGradient gradientUnits="userSpaceOnUse" id="linearGradient998" x1="6.40561" x2="41.36901">
            <stop offset="0" stop-color="#fff" stop-opacity=".5" id="stop24" />
            <stop offset="1" stop-color="#fff" stop-opacity="0" id="stop26" />
        </linearGradient>
        <radialGradient cx="605.71429" cy="486.64789" gradientTransform="matrix(.062142,0,0,.029001,1.636502,28.085503)" gradientUnits="userSpaceOnUse" id="radialGradient3129" r="117.14286" xlink:href="#linearGradient5060" />
        <radialGradient cx="605.71429" cy="486.64789" gradientTransform="matrix(-.062142,0,0,.029001,46.53201,28.085503)" gradientUnits="userSpaceOnUse" id="radialGradient3131" r="117.14286" xlink:href="#linearGradient5060" />
    </defs>
    <g transform="matrix(.833389,0,0,1,3.928449,0)" id="g30">
        <path d="m9.08134,38.7186h30.00582v7.04306h-30.00582z" fill="url(#linearGradient3127)" opacity=".5" id="path32" />
        <path d="m39.08716,38.71885v7.04268c3.20017.01326 7.73646-1.57791 7.73646-3.52179s-3.57115-3.52088-7.73646-3.52088z" fill="url(#radialGradient3129)" opacity=".5" id="path34" />
        <path d="m9.08134,38.71885v7.04268c-3.20017.01326-7.73646-1.57791-7.73646-3.52179s3.57115-3.52088 7.73646-3.52088z" fill="url(#radialGradient3131)" opacity=".5" id="path36" />
    </g>
    <path d="m-40.5-42.4999h33a2,2 0 0,1 2,2v32.9999a2,2 0 0,1 -2,2h-33a2,2 0 0,1 -2-2v-32.9999a2,2 0 0,1 2-2" id="path38" stroke-linejoin="round" stroke-linecap="round" stroke="#66420d" fill="url(#linearGradient3157-5)" transform="matrix(0,-1,-1,0,0,0)" />
    <path d="m7.5-41.5h33a1,1 0 0,1 1,1v33a1,1 0 0,1 -1,1h-33a1,1 0 0,1 -1-1v-33a1,1 0 0,1 1-1" fill="none" stroke="url(#linearGradient998)" stroke-linecap="round" stroke-linejoin="round" transform="matrix(0,1,-1,0,0,0)" id="path40" />
    <path d="m26,33h13v7h-13z" fill="#fff" id="path42" />
    <path d="m27,34v5h1v-5h-1zm2,0v5h2v-5h-2zm3,0v5h1v-5h-1zm2,0v5h1v-5h-1zm2,0v5h2v-5h-2z" fill="#6a6a6a" id="path44" />
    <path d="m-40,10h1v11h-1z" fill="#8c5911" transform="matrix(0,-1,1,0,0,0)" id="path46" />
    <path d="m12,33v1h-1v1h-1v1h2v3h1v-3h2v-1h-1v-1h-1v-1z" fill="#8c5911" id="path48" />
    <path d="m18,33v1h-1v1h-1v1h2v3h1v-3h2v-1h-1v-1h-1v-1z" fill="#8c5911" id="path50" />
    <path style="color:black;fill:#66420d;fill-opacity:0.84477693;fill-rule:nonzero;stroke:none;stroke-width:0.40000001000000002;marker:none;visibility:visible;display:inline;overflow:visible;enable-background:accumulate" d="M 20,10 C 13.712646,10 8.575275,14.845099 8.0625,21 l 3.8125,0 c 0.493526,-4.041712 3.954563,-7.1875 8.125,-7.1875 1.89955,0 3.641492,0.658472 5.03125,1.75 L 27.75,12.84375 C 25.658783,11.071991 22.955535,10 20,10 z m 9.15625,4.25 -2.71875,2.71875 C 27.336959,18.113961 27.939794,19.485372 28.125,21 l -6.21875,0 C 21.702065,20.413945 21.154635,20 20.5,20 c -0.654635,0 -1.202065,0.413945 -1.40625,1 L 19,21 l 0,0.5 0,0.5 0.09375,0 c 0.204185,0.586055 0.751615,1 1.40625,1 0.654635,0 1.202065,-0.413945 1.40625,-1 L 32,22 l 0,-1 -0.0625,0 c -0.212773,-2.562404 -1.21204,-4.897852 -2.78125,-6.75 z" id="path3012" inkscape:connector-curvature="0" />
    <path style="color:black;fill:white;fill-opacity:1;fill-rule:nonzero;stroke:none;stroke-width:0.40000001;marker:none;visibility:visible;display:inline;overflow:visible;enable-background:accumulate" d="M 20,9 C 13.712646,9 8.575275,13.845099 8.0625,20 l 3.8125,0 c 0.493526,-4.041712 3.954563,-7.1875 8.125,-7.1875 1.89955,0 3.641492,0.658472 5.03125,1.75 L 27.75,11.84375 C 25.658783,10.071991 22.955535,9 20,9 z m 9.15625,4.25 -2.71875,2.71875 C 27.336959,17.113961 27.939794,18.485372 28.125,20 l -6.21875,0 C 21.702065,19.413945 21.154635,19 20.5,19 c -0.654635,0 -1.202065,0.413945 -1.40625,1 L 19,20 l 0,1 0.09375,0 c 0.204185,0.586055 0.751615,1 1.40625,1 0.654635,0 1.202065,-0.413945 1.40625,-1 L 32,21 l 0,-1 -0.0625,0 c -0.212773,-2.562404 -1.21204,-4.897852 -2.78125,-6.75 z" id="path3874" inkscape:connector-curvature="0" />
</svg>
