<?xml version="1.0" encoding="UTF-8" standalone="no"?>
<svg
   xmlns:dc="http://purl.org/dc/elements/1.1/"
   xmlns:cc="http://creativecommons.org/ns#"
   xmlns:rdf="http://www.w3.org/1999/02/22-rdf-syntax-ns#"
   xmlns:svg="http://www.w3.org/2000/svg"
   xmlns="http://www.w3.org/2000/svg"
   xmlns:xlink="http://www.w3.org/1999/xlink"
   xmlns:sodipodi="http://sodipodi.sourceforge.net/DTD/sodipodi-0.dtd"
   xmlns:inkscape="http://www.inkscape.org/namespaces/inkscape"
   viewBox="0 0 48 48"
   id="svg2"
   version="1.1"
   inkscape:version="0.48.3.1 r9886"
   width="100%"
   height="100%"
   sodipodi:docname="text-x-perl.svg">
  <metadata
     id="metadata58">
    <rdf:RDF>
      <cc:Work
         rdf:about="">
        <dc:format>image/svg+xml</dc:format>
        <dc:type
           rdf:resource="http://purl.org/dc/dcmitype/StillImage" />
      </cc:Work>
    </rdf:RDF>
  </metadata>
  <sodipodi:namedview
     pagecolor="#ffffff"
     bordercolor="#666666"
     borderopacity="1"
     objecttolerance="10"
     gridtolerance="10"
     guidetolerance="10"
     inkscape:pageopacity="0"
     inkscape:pageshadow="2"
     inkscape:window-width="1450"
     inkscape:window-height="876"
     id="namedview56"
     showgrid="false"
     inkscape:zoom="1"
     inkscape:cx="4.6460854"
     inkscape:cy="7.42556"
     inkscape:window-x="150"
     inkscape:window-y="0"
     inkscape:window-maximized="1"
     inkscape:current-layer="svg2">
    <inkscape:grid
       type="xygrid"
       id="grid3811"
       empspacing="5"
       visible="true"
       enabled="true"
       snapvisiblegridlinesonly="true" />
  </sodipodi:namedview>
  <defs
     id="defs4">
    <linearGradient
       id="linearGradient3840">
      <stop
         style="stop-color:#2e3436;stop-opacity:0.60305345;"
         offset="0"
         id="stop3842" />
      <stop
         style="stop-color:#2e3436;stop-opacity:0;"
         offset="1"
         id="stop3844" />
    </linearGradient>
    <linearGradient
       id="linearGradient3830">
      <stop
         style="stop-color:#e57404;stop-opacity:1;"
         offset="0"
         id="stop3832" />
      <stop
         style="stop-color:#fb8d21;stop-opacity:0"
         offset="1"
         id="stop3834" />
    </linearGradient>
    <linearGradient
       inkscape:collect="always"
       id="linearGradient3807">
      <stop
         style="stop-color:#f8820f;stop-opacity:1;"
         offset="0"
         id="stop3809" />
      <stop
         style="stop-color:#f8820f;stop-opacity:0;"
         offset="1"
         id="stop3811" />
    </linearGradient>
    <linearGradient
       id="linearGradient3797">
      <stop
         style="stop-color:#f57900;stop-opacity:0.72519082;"
         offset="0"
         id="stop3799" />
      <stop
         style="stop-color:#f57900;stop-opacity:0;"
         offset="1"
         id="stop3801" />
    </linearGradient>
    <linearGradient
       id="linearGradient3013">
      <stop
         style="stop-color:#f57900;stop-opacity:1;"
         offset="0"
         id="stop3015" />
      <stop
         style="stop-color:#ff9b38;stop-opacity:1;"
         offset="1"
         id="stop3017" />
    </linearGradient>
    <linearGradient
       id="linearGradient5060">
      <stop
         offset="0"
         id="stop7" />
      <stop
         offset="1"
         stop-opacity="0"
         id="stop9" />
    </linearGradient>
    <linearGradient
       gradientUnits="userSpaceOnUse"
       id="linearGradient3127"
       x2="0"
       y1="38.7186"
       y2="45.76167">
      <stop
         offset="0"
         stop-opacity="0"
         id="stop12" />
      <stop
         offset=".5"
         id="stop14" />
      <stop
         offset="1"
         stop-opacity="0"
         id="stop16" />
    </linearGradient>
    <linearGradient
       gradientUnits="userSpaceOnUse"
       id="linearGradient3157-5"
       x1="-42.69615"
       x2="-5.84311">
      <stop
         offset="0"
         stop-color="#fff"
         id="stop19" />
      <stop
         offset="1"
         stop-color="#cdcdcd"
         id="stop21" />
    </linearGradient>
    <linearGradient
       gradientUnits="userSpaceOnUse"
       id="linearGradient998"
       x1="6.40561"
       x2="41.36901">
      <stop
         offset="0"
         stop-color="#fff"
         id="stop24" />
      <stop
         offset="1"
         stop-color="#fff"
         stop-opacity="0"
         id="stop26" />
    </linearGradient>
    <radialGradient
       cx="605.71429"
       cy="486.64789"
       gradientTransform="matrix(.062142,0,0,.029001,1.636502,28.085503)"
       gradientUnits="userSpaceOnUse"
       id="radialGradient3129"
       r="117.14286"
       xlink:href="#linearGradient5060" />
    <radialGradient
       cx="605.71429"
       cy="486.64789"
       gradientTransform="matrix(-.062142,0,0,.029001,46.53201,28.085503)"
       gradientUnits="userSpaceOnUse"
       id="radialGradient3131"
       r="117.14286"
       xlink:href="#linearGradient5060" />
    <linearGradient
       inkscape:collect="always"
       xlink:href="#linearGradient3013"
       id="linearGradient3019"
       x1="32.259148"
       y1="34.371506"
       x2="22.45064"
       y2="17.152468"
       gradientUnits="userSpaceOnUse"
       gradientTransform="matrix(0.99903506,0,0,0.99903506,-0.31478406,-0.10014106)" />
    <radialGradient
       inkscape:collect="always"
       xlink:href="#linearGradient3797"
       id="radialGradient3803"
       cx="27.684736"
       cy="22.122107"
       fx="27.684736"
       fy="22.122107"
       r="5.4900989"
       gradientTransform="matrix(0.05629908,-1.6966763,1.498985,0.04974355,-3.8221237,67.3546)"
       gradientUnits="userSpaceOnUse" />
    <radialGradient
       inkscape:collect="always"
       xlink:href="#linearGradient3807"
       id="radialGradient3813"
       cx="17.037624"
       cy="16.955147"
       fx="17.037624"
       fy="16.955147"
       r="1.4298387"
       gradientTransform="matrix(1.0014983,-0.01810372,0.05543739,3.0668145,-0.96559622,-35.301627)"
       gradientUnits="userSpaceOnUse" />
    <radialGradient
       inkscape:collect="always"
       xlink:href="#linearGradient3830"
       id="radialGradient3836"
       cx="14.053747"
       cy="14.9331"
       fx="14.053747"
       fy="14.9331"
       r="1.1782881"
       gradientTransform="matrix(0.76798823,0.31602038,-0.34022525,0.82681053,8.3412528,-1.6906772)"
       gradientUnits="userSpaceOnUse" />
    <radialGradient
       inkscape:collect="always"
       xlink:href="#linearGradient3840"
       id="radialGradient3846"
       cx="27.842329"
       cy="37.89098"
       fx="27.842329"
       fy="37.89098"
       r="9.8553009"
       gradientTransform="matrix(0.94496752,1.2747993e-6,0,0.09074901,1.5322329,34.131571)"
       gradientUnits="userSpaceOnUse" />
  </defs>
  <g
     transform="matrix(.833389,0,0,1,3.928449,0)"
     id="g30">
    <path
       d="m9.08134,38.7186h30.00582v7.04306h-30.00582z"
       id="path32"
       fill="url(#linearGradient3127)"
       opacity=".5" />
    <path
       d="m39.08716,38.71885v7.04268c3.20017.01326 7.73646-1.57791 7.73646-3.52179s-3.57115-3.52088-7.73646-3.52088z"
       id="path34"
       fill="url(#radialGradient3129)"
       opacity=".5" />
    <path
       d="m9.08134,38.71885v7.04268c-3.20017.01326-7.73646-1.57791-7.73646-3.52179s3.57115-3.52088 7.73646-3.52088z"
       id="path36"
       fill="url(#radialGradient3131)"
       opacity=".5" />
  </g>
  <path
     d="m-40.5-41.4999h33a2,2 0 0,1 2,2v30.9999a2,2 0 0,1 -2,2h-33a2,2 0 0,1 -2-2v-30.9999a2,2 0 0,1 2-2"
     id="path38"
     transform="matrix(0,-1,-1,0,0,0)"
     stroke-linejoin="round"
     stroke-linecap="round"
     stroke="#818181"
     fill="url(#linearGradient3157-5)" />
  <path
     d="m7.5-40.5h33a1,1 0 0,1 1,1v31a1,1 0 0,1 -1,1h-33a1,1 0 0,1 -1-1v-31a1,1 0 0,1 1-1"
     id="path40"
     transform="matrix(0,1,-1,0,0,0)"
     stroke-linejoin="round"
     stroke-linecap="round"
     stroke="url(#linearGradient998)"
     fill="none" />
  <path
     sodipodi:type="arc"
     style="opacity:0.6;fill:url(#radialGradient3846);fill-opacity:1;stroke:none"
     id="path3838"
     sodipodi:cx="27.886524"
     sodipodi:cy="37.525982"
     sodipodi:rx="9.8553009"
     sodipodi:ry="1.1932427"
     d="m 37.741825,37.525982 a 9.8553009,1.1932427 0 1 1 -19.710602,0 9.8553009,1.1932427 0 1 1 19.710602,0 z"
     transform="matrix(1.1704036,0,0,1.577811,-5.2822938,-22.814336)" />
  <path
     style="fill:url(#linearGradient3019);fill-opacity:1;stroke:none"
     d="m 12.002551,14.21006 c 0.04774,0.334472 -0.09557,1.146756 1.194542,1.194542 1.290101,0.04774 0.90785,1.194544 0.430031,1.863488 -0.477818,0.668936 -0.430031,3.583619 0.191127,4.825948 0.621164,1.242321 3.105807,3.679186 3.965877,3.53584 0.860071,-0.143346 1.863487,-0.764511 1.863487,0.430031 0,1.194542 0.477818,5.351547 0.430039,6.307183 -0.04783,0.95563 -0.191126,3.058028 -1.003417,3.918098 1.337889,0.04774 1.776867,0.651811 1.872433,-0.160479 0.09557,-0.812291 -0.104512,-3.470925 0.229959,-4.283217 0.334471,-0.81229 0.238906,-1.2901 0.238906,-2.293517 0,-1.003417 1.051195,-1.481235 0.955636,-3.058029 -0.09557,-1.576794 1.911267,-0.477818 1.433449,0.764503 -0.477819,1.24233 -1.051197,1.911266 -0.812291,2.532431 0.238912,0.621165 0.368748,0.790739 1.003417,1.624574 0.646575,0.849478 3.573028,3.649562 3.859719,4.222938 0.286693,0.573377 0.970157,-0.0076 0.970157,-0.867626 0,-0.86007 -0.338392,-0.583976 -2.775265,-2.351896 -2.436864,-1.76792 -1.146754,-2.150172 -0.716724,-2.67577 0.430039,-0.525597 1.146764,-1.67236 1.337889,-2.293517 0.191127,-0.621166 0.621156,-2.96247 0.955629,-1.194543 0.334472,1.76792 0.812291,4.061437 -0.334473,5.686012 -1.146753,1.624581 -1.385666,2.341305 -2.054604,3.105808 -0.668943,0.764511 -0.907856,0.764511 -0.907856,0.764511 0.507994,0.353043 1.143215,0.384533 1.567534,0.339269 0.255665,-0.318968 0.263676,-0.463793 0.523381,-0.883315 0.621166,-1.003415 0.871545,-2.083944 1.588277,-3.182926 0.716724,-1.098977 1.8157,-1.863487 1.576794,-2.72355 -0.238912,-0.86007 -0.04783,-2.866903 0.47781,-3.870319 0.525607,-1.003417 1.003417,-2.102392 1.576802,0.668944 0.573378,2.771337 1.194544,2.102392 1.194544,3.965878 0,1.863487 0.47781,3.058029 -0.09557,4.587042 -0.573377,1.529008 -0.573377,1.86348 -0.573377,1.86348 0,0 1.146755,0.668944 1.672353,0.334472 0.525598,-0.334472 -0.191126,-2.532424 -0.238906,-3.48806 -0.04774,-0.955636 0.525598,-1.911266 0.525598,-2.771336 0,-0.256789 -0.580713,-0.906389 -0.445363,-1.568258 0.360723,-1.76393 -0.262079,-3.729157 -0.128017,-4.500012 0.191126,-1.098976 0.812284,-4.109226 1.242321,-1.337888 0.430033,2.771336 -0.812289,2.914682 -0.38225,3.583625 0.43003,0.668945 1.72014,-1.290109 1.576794,-2.675776 -0.143347,-1.385669 -0.04774,-2.389085 -0.955637,-3.48806 -0.90785,-1.098976 -1.863487,-2.819116 -2.054613,-3.631406 -0.191125,-0.812291 -1.098974,-1.146755 -1.767919,-3.344714 -0.40352,-1.325854 -1.31836,-2.487504 -3.004353,-2.500799 -1.346393,-0.01066 -3.007481,0.396054 -3.685082,1.21069 -1.733327,2.083877 -0.191125,1.624581 -3.201368,3.726972 -3.010249,2.102393 -1.385669,3.296935 -2.054611,3.774754 -0.668945,0.477811 -1.051198,-0.621166 -0.621166,-1.72014 0.430038,-1.098984 0.477819,-6.259398 -1.76792,-6.116059 -2.245739,0.143347 -1.290109,1.194543 -3.153588,1.290111 -1.863485,0.09556 -1.72014,0.860068 -1.720137,0.860068 z"
     id="path3809"
     inkscape:connector-curvature="0"
     sodipodi:nodetypes="cssssssccssssssssssssssscssssssscssssssssssssssssssc" />
  <path
     style="fill:url(#radialGradient3803);fill-opacity:1;stroke:none"
     d="m 30.265165,13.215228 c 0.125,0.9375 1.375,3.3125 1.375,3.3125 0,0 1.0625,1 1.0625,1.5625 0,0.5625 2.034772,4.539214 0.284772,4.914214 -0.228199,0.0489 -0.249152,2.251567 -0.400059,1.892951 -0.385637,-0.916426 -2.508086,-2.342103 -2.713865,-0.7854 -0.409288,3.096227 -0.685915,1.13791 -2.407938,0.247709 -0.362259,-0.18727 -1.088169,2.979537 -1.578574,2.928524 -0.861816,-0.08965 -0.524203,-2.018495 -1.118871,-2.89994 -0.137788,-0.204235 -1.75664,-0.136123 -2.30735,0.205164 -0.98644,0.611317 -1.083416,1.806298 -1.145901,1.800618 -1.375,-0.125 -1.12868,-3.488738 0.12132,-4.176238 1.25,-0.6875 2.710728,-3.156366 2.686738,-4.220432 -0.107995,-4.789975 4.392228,-7.96967 6.142228,-4.78217 z"
     id="path3795"
     inkscape:connector-curvature="0"
     sodipodi:nodetypes="ccsssssssssssc" />
  <path
     style="fill:url(#radialGradient3813);fill-opacity:1;stroke:none"
     d="m 15.733126,13.749515 c 0.751301,-0.441942 1.414214,-1.59099 1.635185,-0.839689 0.220971,0.751301 1.28163,2.077126 0.795494,4.507806 -0.486135,2.430679 0.132583,2.695844 0.30936,2.916815 0.176776,0.220971 0.265165,1.546796 -0.53033,1.237437 -0.795496,-0.309359 -2.342292,-2.342291 -1.767767,-4.065864 0.574524,-1.723573 -0.441942,-3.756505 -0.441942,-3.756505 z"
     id="path3805"
     inkscape:connector-curvature="0"
     sodipodi:nodetypes="csssssc" />
  <path
     style="fill:url(#radialGradient3836);stroke:none;stroke-width:1px;stroke-linecap:butt;stroke-linejoin:miter;stroke-opacity:1;fill-opacity:1"
     d="m 12.750019,14.743884 c 0.0221,0.198874 -0.37565,0.464039 0.464039,0.53033 0.839689,0.06629 1.259534,0.375651 1.171146,0.751301 -0.08839,0.375651 0.331456,0.574524 0.397747,0.353554 0.06629,-0.220971 0.574524,-1.436311 -0.08839,-1.590991 -0.662913,-0.154679 -1.944544,-0.04419 -1.944544,-0.04419 z"
     id="path3820"
     inkscape:connector-curvature="0" />
</svg>
