<?xml version="1.0" encoding="UTF-8" standalone="no"?>
<svg
   xmlns:dc="http://purl.org/dc/elements/1.1/"
   xmlns:cc="http://creativecommons.org/ns#"
   xmlns:rdf="http://www.w3.org/1999/02/22-rdf-syntax-ns#"
   xmlns:svg="http://www.w3.org/2000/svg"
   xmlns="http://www.w3.org/2000/svg"
   xmlns:xlink="http://www.w3.org/1999/xlink"
   xmlns:sodipodi="http://sodipodi.sourceforge.net/DTD/sodipodi-0.dtd"
   xmlns:inkscape="http://www.inkscape.org/namespaces/inkscape"
   viewBox="0 0 48 48"
   id="svg2"
   version="1.1"
   inkscape:version="0.48.3.1 r9886"
   width="100%"
   height="100%"
   sodipodi:docname="text-x-c++.svg">
  <metadata
     id="metadata58">
    <rdf:RDF>
      <cc:Work
         rdf:about="">
        <dc:format>image/svg+xml</dc:format>
        <dc:type
           rdf:resource="http://purl.org/dc/dcmitype/StillImage" />
      </cc:Work>
    </rdf:RDF>
  </metadata>
  <sodipodi:namedview
     pagecolor="#ffffff"
     bordercolor="#666666"
     borderopacity="1"
     objecttolerance="10"
     gridtolerance="10"
     guidetolerance="10"
     inkscape:pageopacity="0"
     inkscape:pageshadow="2"
     inkscape:window-width="943"
     inkscape:window-height="877"
     id="namedview56"
     showgrid="true"
     inkscape:zoom="16"
     inkscape:cx="24"
     inkscape:cy="25.09283"
     inkscape:window-x="179"
     inkscape:window-y="48"
     inkscape:window-maximized="0"
     inkscape:current-layer="svg2">
    <inkscape:grid
       type="xygrid"
       id="grid3811"
       empspacing="5"
       visible="true"
       enabled="true"
       snapvisiblegridlinesonly="true" />
  </sodipodi:namedview>
  <defs
     id="defs4">
    <linearGradient
       id="linearGradient5060">
      <stop
         offset="0"
         id="stop7" />
      <stop
         offset="1"
         stop-opacity="0"
         id="stop9" />
    </linearGradient>
    <linearGradient
       gradientUnits="userSpaceOnUse"
       id="linearGradient3127"
       x2="0"
       y1="38.7186"
       y2="45.76167">
      <stop
         offset="0"
         stop-opacity="0"
         id="stop12" />
      <stop
         offset=".5"
         id="stop14" />
      <stop
         offset="1"
         stop-opacity="0"
         id="stop16" />
    </linearGradient>
    <linearGradient
       gradientUnits="userSpaceOnUse"
       id="linearGradient3157-5"
       x1="-42.69615"
       x2="-5.84311">
      <stop
         offset="0"
         stop-color="#fff"
         id="stop19" />
      <stop
         offset="1"
         stop-color="#cdcdcd"
         id="stop21" />
    </linearGradient>
    <linearGradient
       gradientUnits="userSpaceOnUse"
       id="linearGradient998"
       x1="6.40561"
       x2="41.36901">
      <stop
         offset="0"
         stop-color="#fff"
         id="stop24" />
      <stop
         offset="1"
         stop-color="#fff"
         stop-opacity="0"
         id="stop26" />
    </linearGradient>
    <radialGradient
       cx="605.71429"
       cy="486.64789"
       gradientTransform="matrix(.062142,0,0,.029001,1.636502,28.085503)"
       gradientUnits="userSpaceOnUse"
       id="radialGradient3129"
       r="117.14286"
       xlink:href="#linearGradient5060" />
    <radialGradient
       cx="605.71429"
       cy="486.64789"
       gradientTransform="matrix(-.062142,0,0,.029001,46.53201,28.085503)"
       gradientUnits="userSpaceOnUse"
       id="radialGradient3131"
       r="117.14286"
       xlink:href="#linearGradient5060" />
  </defs>
  <g
     transform="matrix(.833389,0,0,1,3.928449,0)"
     id="g30">
    <path
       d="m9.08134,38.7186h30.00582v7.04306h-30.00582z"
       fill="url(#linearGradient3127)"
       opacity=".5"
       id="path32" />
    <path
       d="m39.08716,38.71885v7.04268c3.20017.01326 7.73646-1.57791 7.73646-3.52179s-3.57115-3.52088-7.73646-3.52088z"
       fill="url(#radialGradient3129)"
       opacity=".5"
       id="path34" />
    <path
       d="m9.08134,38.71885v7.04268c-3.20017.01326-7.73646-1.57791-7.73646-3.52179s3.57115-3.52088 7.73646-3.52088z"
       fill="url(#radialGradient3131)"
       opacity=".5"
       id="path36" />
  </g>
  <path
     d="m-40.5-41.4999h33a2,2 0 0,1 2,2v30.9999a2,2 0 0,1 -2,2h-33a2,2 0 0,1 -2-2v-30.9999a2,2 0 0,1 2-2"
     id="path38"
     stroke-linejoin="round"
     stroke-linecap="round"
     stroke="#818181"
     fill="url(#linearGradient3157-5)"
     transform="matrix(0,-1,-1,0,0,0)" />
  <path
     d="m7.5-40.5h33a1,1 0 0,1 1,1v31a1,1 0 0,1 -1,1h-33a1,1 0 0,1 -1-1v-31a1,1 0 0,1 1-1"
     fill="none"
     stroke="url(#linearGradient998)"
     stroke-linecap="round"
     stroke-linejoin="round"
     transform="matrix(0,1,-1,0,0,0)"
     id="path40" />
  <path
     d="m 25,22 v 2 H 36 V 22 H 25 z"
     id="path44"
     inkscape:connector-curvature="0"
     style="fill:#999999" />
  <path
     d="m 25,26 v 2 H 36 V 26 H 25 z"
     id="path46"
     inkscape:connector-curvature="0"
     style="fill:#999999" />
  <path
     d="m12,30v2h24v-2h-24z"
     id="path48"
     fill="#999" />
  <path
     d="m 12,34 v 2 H 36 V 34 H 12 z"
     id="path50"
     inkscape:connector-curvature="0"
     style="fill:#999999" />
  <g
     transform="scale(0.97894022,1.0215128)"
     style="font-size:18.12018967px;font-style:normal;font-weight:normal;line-height:125%;letter-spacing:0px;word-spacing:0px;fill:#0060ca;fill-opacity:1;stroke:none;font-family:Sans"
     id="text3009">
    <path
       d="m 23.494795,26.428226 c -0.625253,0.324418 -1.277036,0.569206 -1.955353,0.734364 -0.678337,0.165157 -1.386156,0.247736 -2.123459,0.247737 -2.200147,-10e-7 -3.943151,-0.613444 -5.22902,-1.840332 -1.285874,-1.232784 -1.92881,-2.902057 -1.928809,-5.007826 -10e-7,-2.111654 0.642935,-3.780928 1.928809,-5.007826 1.285869,-1.232773 3.028873,-1.849166 5.22902,-1.849179 0.737303,1.3e-5 1.445122,0.08259 2.123459,0.247737 0.678317,0.165171 1.3301,0.409958 1.955353,0.734363 l 0,2.733954 c -0.631151,-0.43058 -1.253442,-0.74615 -1.866875,-0.946709 -0.613454,-0.200538 -1.259339,-0.300813 -1.937657,-0.300823 -1.215098,10e-6 -2.170654,0.389311 -2.866671,1.167902 -0.696028,0.778611 -1.044039,1.852137 -1.044034,3.220581 -5e-6,1.362558 0.348006,2.433135 1.044034,3.211733 0.696017,0.778604 1.651573,1.167905 2.866671,1.167903 0.678318,2e-6 1.324203,-0.100273 1.937657,-0.300824 0.613433,-0.200546 1.235724,-0.516115 1.866875,-0.946709 l 0,2.733954"
       style="font-variant:normal;font-weight:bold;font-stretch:normal;fill:#0060ca;font-family:Sans;-inkscape-font-specification:Sans Bold"
       id="path3011" />
  </g>
  <path
     style="opacity:1;color:#000000;fill:#0060ca;fill-opacity:1;fill-rule:nonzero;stroke:none;stroke-width:1;marker:none;visibility:visible;display:inline;overflow:visible;enable-background:accumulate"
     d="m 27,14 0,2 -2,0 0,1 2,0 0,2 1,0 0,-2 2,0 0,-1 -2,0 0,-2 -1,0 z m 6,0 0,2 -2,0 0,1 2,0 0,2 1,0 0,-2 2,0 0,-1 -2,0 0,-2 -1,0 z"
     id="rect3026"
     inkscape:connector-curvature="0" />
</svg>
