<?xml version="1.0" encoding="UTF-8" standalone="no"?>
<svg xmlns:dc="http://purl.org/dc/elements/1.1/" xmlns:cc="http://creativecommons.org/ns#" xmlns:rdf="http://www.w3.org/1999/02/22-rdf-syntax-ns#" xmlns:svg="http://www.w3.org/2000/svg" xmlns="http://www.w3.org/2000/svg" xmlns:xlink="http://www.w3.org/1999/xlink" xmlns:sodipodi="http://sodipodi.sourceforge.net/DTD/sodipodi-0.dtd" xmlns:inkscape="http://www.inkscape.org/namespaces/inkscape" viewBox="0 0 48 48" id="svg2" version="1.1" inkscape:version="0.48.4 r9939" width="100%" height="100%" sodipodi:docname="text-x-generic.svg">
    <metadata id="metadata58">
        <rdf:RDF>
            <cc:Work rdf:about="">
                <dc:format>image/svg+xml</dc:format>
                <dc:type rdf:resource="http://purl.org/dc/dcmitype/StillImage" />
                <dc:title />
            </cc:Work>
        </rdf:RDF>
    </metadata>
    <sodipodi:namedview pagecolor="#ffffff" bordercolor="#666666" borderopacity="1" objecttolerance="10" gridtolerance="10" guidetolerance="10" inkscape:pageopacity="0" inkscape:pageshadow="2" inkscape:window-width="1280" inkscape:window-height="976" id="namedview56" showgrid="true" inkscape:zoom="13.906433" inkscape:cx="24" inkscape:cy="24.3955" inkscape:window-x="0" inkscape:window-y="24" inkscape:window-maximized="1" inkscape:current-layer="svg2" inkscape:snap-bbox="true">
        <inkscape:grid type="xygrid" id="grid3009" />
    </sodipodi:namedview>
    <defs id="defs4">
        <linearGradient id="linearGradient5060">
            <stop offset="0" id="stop7" />
            <stop offset="1" stop-opacity="0" id="stop9" />
        </linearGradient>
        <linearGradient gradientUnits="userSpaceOnUse" id="linearGradient3127" x2="0" y1="38.7186" y2="45.76167">
            <stop offset="0" stop-opacity="0" id="stop12" />
            <stop offset=".5" id="stop14" />
            <stop offset="1" stop-opacity="0" id="stop16" />
        </linearGradient>
        <linearGradient gradientUnits="userSpaceOnUse" id="linearGradient3157-5" x1="-42.69615" x2="-5.84311" gradientTransform="matrix(0,-1,-1,0,1e-4,0)">
            <stop offset="0" stop-color="#fff" id="stop19" />
            <stop offset="1" stop-color="#cdcdcd" id="stop21" />
        </linearGradient>
        <linearGradient gradientUnits="userSpaceOnUse" id="linearGradient998" x1="6.40561" x2="41.36901">
            <stop offset="0" stop-color="#fff" id="stop24" />
            <stop offset="1" stop-color="#fff" stop-opacity="0" id="stop26" />
        </linearGradient>
        <radialGradient cx="605.71429" cy="486.64789" gradientTransform="matrix(0.062142,0,0,0.029001,1.636502,28.085503)" gradientUnits="userSpaceOnUse" id="radialGradient3129" r="117.14286" xlink:href="#linearGradient5060" />
        <radialGradient cx="605.71429" cy="486.64789" gradientTransform="matrix(-0.062142,0,0,0.029001,46.53201,28.085503)" gradientUnits="userSpaceOnUse" id="radialGradient3131" r="117.14286" xlink:href="#linearGradient5060" />
    </defs>
    <g transform="matrix(0.83555525,0,0,0.99388618,3.8762785,0.51811855)" id="g30">
        <path d="m 9.08134,38.7186 h 30.00582 v 7.04306 H 9.08134 z" id="path32" style="opacity:0.5;fill:url(#linearGradient3127)" inkscape:connector-curvature="0" />
        <path d="m 39.08716,38.71885 v 7.04268 c 3.20017,0.01326 7.73646,-1.57791 7.73646,-3.52179 0,-1.94388 -3.57115,-3.52088 -7.73646,-3.52088 z" id="path34" style="opacity:0.5;fill:url(#radialGradient3129)" inkscape:connector-curvature="0" />
        <path d="m 9.08134,38.71885 v 7.04268 c -3.20017,0.01326 -7.73646,-1.57791 -7.73646,-3.52179 0,-1.94388 3.57115,-3.52088 7.73646,-3.52088 z" id="path36" style="opacity:0.5;fill:url(#radialGradient3131)" inkscape:connector-curvature="0" />
    </g>
    <path d="m 41.5,40.5 0,-33 a 2,2 0 0 0 -2,-2 l -30.9999,0 a 2,2 0 0 0 -2,2 l 0,33 a 2,2 0 0 0 2,2 l 30.9999,0 a 2,2 0 0 0 2,-2" id="path38" style="fill:url(#linearGradient3157-5);stroke:#818181;stroke-linecap:round;stroke-linejoin:round" inkscape:connector-curvature="0" />
    <path d="m7.5-40.5h33a1,1 0 0,1 1,1v31a1,1 0 0,1 -1,1h-33a1,1 0 0,1 -1-1v-31a1,1 0 0,1 1-1" fill="none" stroke="url(#linearGradient998)" stroke-linecap="round" stroke-linejoin="round" transform="matrix(0,1,-1,0,0,0)" id="path40" />
    <path d="m 12,22 v 2 H 36 V 22 H 12 z" id="path44" inkscape:connector-curvature="0" style="fill:#999" />
    <path d="m 12,26 v 2 H 36 V 26 H 12 z" id="path46" inkscape:connector-curvature="0" style="fill:#999" />
    <path d="m 12,30 v 2 H 36 V 30 H 12 z" id="path48" inkscape:connector-curvature="0" style="fill:#999" />
    <path d="m 12,34 v 2 H 29 V 34 H 12 z" id="path50" inkscape:connector-curvature="0" style="fill:#999" />
    <path d="m 12,14 v 2 H 36 V 14 H 12 z" id="path52" inkscape:connector-curvature="0" style="fill:#999" />
    <path d="m 12,18 v 2 H 36 V 18 H 12 z" id="path54" inkscape:connector-curvature="0" style="fill:#999" />
</svg>
