<svg viewBox="0 0 48 48" xmlns="http://www.w3.org/2000/svg" xmlns:xlink="http://www.w3.org/1999/xlink">
<defs>
<linearGradient id="linearGradient5060">
<stop offset="0"/>
<stop offset="1" stop-opacity="0"/>
</linearGradient>
<linearGradient gradientUnits="userSpaceOnUse" id="linearGradient3127" x2="0" y1="38.7186" y2="45.76167">
<stop offset="0" stop-opacity="0"/>
<stop offset=".5"/>
<stop offset="1" stop-opacity="0"/>
</linearGradient>
<linearGradient gradientUnits="userSpaceOnUse" id="linearGradient3157-5" x1="-42.69615" x2="-5.84311">
<stop offset="0" stop-color="#cfdcea"/>
<stop offset="1" stop-color="#2e508a"/>
</linearGradient>
<linearGradient gradientUnits="userSpaceOnUse" id="linearGradient998" x1="6.40561" x2="41.36901">
<stop offset="0" stop-color="#fff"/>
<stop offset="1" stop-color="#fff" stop-opacity="0"/>
</linearGradient>
<radialGradient cx="605.71429" cy="486.64789" gradientTransform="matrix(.062142,0,0,.029001,1.636502,28.085503)" gradientUnits="userSpaceOnUse" id="radialGradient3129" r="117.14286" xlink:href="#linearGradient5060"/>
<radialGradient cx="605.71429" cy="486.64789" gradientTransform="matrix(-.062142,0,0,.029001,46.53201,28.085503)" gradientUnits="userSpaceOnUse" id="radialGradient3131" r="117.14286" xlink:href="#linearGradient5060"/>
</defs>
<g transform="matrix(.833389,0,0,1,3.928449,0)">
<path d="m9.08134,38.7186h30.00582v7.04306h-30.00582z" fill="url(#linearGradient3127)" opacity=".5"/>
<path d="m39.08716,38.71885v7.04268c3.20017.01326 7.73646-1.57791 7.73646-3.52179s-3.57115-3.52088-7.73646-3.52088z" fill="url(#radialGradient3129)" opacity=".5"/>
<path d="m9.08134,38.71885v7.04268c-3.20017.01326-7.73646-1.57791-7.73646-3.52179s3.57115-3.52088 7.73646-3.52088z" fill="url(#radialGradient3131)" opacity=".5"/>
</g>
<path d="m-40.5-41.4999h33a2,2 0 0,1 2,2v30.9999a2,2 0 0,1 -2,2h-33a2,2 0 0,1 -2-2v-30.9999a2,2 0 0,1 2-2" fill="url(#linearGradient3157-5)" stroke="#1b4771" stroke-linecap="round" stroke-linejoin="round" transform="matrix(0,-1,-1,0,0,0)"/>
<path d="m7.5-40.5h33a1,1 0 0,1 1,1v31a1,1 0 0,1 -1,1h-33a1,1 0 0,1 -1-1v-31a1,1 0 0,1 1-1" fill="none" opacity=".5" stroke="url(#linearGradient998)" stroke-linecap="round" stroke-linejoin="round" transform="matrix(0,1,-1,0,0,0)"/>
<path d="m44,24a20,20 0 1,1 -40,0 20,20 0 1,1 40,0z" fill="none" stroke="#fff" stroke-linecap="round" stroke-width="2.95244" transform="matrix(.474922,0,0,.473447,12.601869,13.668317)"/>
<path d="m16.42692,30.55841c4.32748-1.61776 10.81869-1.61776 15.14617,0" fill="none" stroke="#fff" stroke-linecap="round" stroke-width="1.4"/>
<path d="m14.85527,25.03105h18.28946" fill="none" stroke="#fff" stroke-width="1.4"/>
<path d="m21.83626,16.16095c-2.70467,5.63457-2.70467,12.64489 0,18.03743" fill="none" stroke="#fff" stroke-linecap="round" stroke-width="1.4"/>
<path d="m16.42692,19.50369c4.32748,1.61776 10.81869,1.61776 15.14617,0" fill="none" stroke="#fff" stroke-linecap="round" stroke-width="1.4"/>
<path d="m26.16374,16.16095c2.70467,5.63457 2.70467,12.64489 0,18.03743" fill="none" stroke="#fff" stroke-linecap="round" stroke-width="1.4"/>
</svg>
