<?xml version="1.0" encoding="UTF-8" standalone="no"?>
<svg
   xmlns:dc="http://purl.org/dc/elements/1.1/"
   xmlns:cc="http://creativecommons.org/ns#"
   xmlns:rdf="http://www.w3.org/1999/02/22-rdf-syntax-ns#"
   xmlns:svg="http://www.w3.org/2000/svg"
   xmlns="http://www.w3.org/2000/svg"
   xmlns:xlink="http://www.w3.org/1999/xlink"
   xmlns:sodipodi="http://sodipodi.sourceforge.net/DTD/sodipodi-0.dtd"
   xmlns:inkscape="http://www.inkscape.org/namespaces/inkscape"
   viewBox="0 0 48 48"
   id="svg2"
   version="1.1"
   inkscape:version="0.48.3.1 r9886"
   width="100%"
   height="100%"
   sodipodi:docname="video-x-generic.svg">
  <metadata
     id="metadata63">
    <rdf:RDF>
      <cc:Work
         rdf:about="">
        <dc:format>image/svg+xml</dc:format>
        <dc:type
           rdf:resource="http://purl.org/dc/dcmitype/StillImage" />
      </cc:Work>
    </rdf:RDF>
  </metadata>
  <sodipodi:namedview
     pagecolor="#ffffff"
     bordercolor="#666666"
     borderopacity="1"
     objecttolerance="10"
     gridtolerance="10"
     guidetolerance="10"
     inkscape:pageopacity="0"
     inkscape:pageshadow="2"
     inkscape:window-width="640"
     inkscape:window-height="480"
     id="namedview61"
     showgrid="false"
     inkscape:zoom="4.9166667"
     inkscape:cx="24"
     inkscape:cy="24.610169"
     inkscape:window-x="0"
     inkscape:window-y="24"
     inkscape:window-maximized="0"
     inkscape:current-layer="svg2" />
  <defs
     id="defs4">
    <linearGradient
       id="linearGradient1000">
      <stop
         offset="0"
         stop-color="#fff"
         id="stop7" />
      <stop
         offset="1"
         stop-color="#fff"
         stop-opacity="0"
         id="stop9" />
    </linearGradient>
    <linearGradient
       id="linearGradient5060">
      <stop
         offset="0"
         id="stop12" />
      <stop
         offset="1"
         stop-opacity="0"
         id="stop14" />
    </linearGradient>
    <linearGradient
       gradientUnits="userSpaceOnUse"
       id="linearGradient3127"
       x2="0"
       y1="38.7186"
       y2="45.76167">
      <stop
         offset="0"
         stop-opacity="0"
         id="stop17" />
      <stop
         offset=".5"
         id="stop19" />
      <stop
         offset="1"
         stop-opacity="0"
         id="stop21" />
    </linearGradient>
    <linearGradient
       gradientTransform="matrix(0,-1.102564,1,0,51.762716,41.724249)"
       gradientUnits="userSpaceOnUse"
       id="linearGradient3911-3"
       x2="0"
       y1="44"
       y2="3.899">
      <stop
         offset="0"
         stop-color="#202020"
         id="stop24" />
      <stop
         offset="1"
         stop-color="#383838"
         id="stop26" />
    </linearGradient>
    <linearGradient
       gradientUnits="userSpaceOnUse"
       id="linearGradient998"
       x1="6.40561"
       x2="41.36901"
       xlink:href="#linearGradient1000" />
    <radialGradient
       cx="7.49568"
       cy="8.44977"
       gradientTransform="matrix(2.33699,-2.142113e-8,-4.3056275e-8,2.725821,39.327917,-7.769967)"
       gradientUnits="userSpaceOnUse"
       id="radialGradient3909-3"
       r="19.99999">
      <stop
         offset="0"
         stop-color="#4d4d4d"
         id="stop31" />
      <stop
         offset=".262"
         stop-color="#404040"
         id="stop33" />
      <stop
         offset=".705"
         stop-color="#303030"
         id="stop35" />
      <stop
         offset="1"
         stop-color="#232323"
         id="stop37" />
    </radialGradient>
    <radialGradient
       cx="605.71429"
       cy="486.64789"
       gradientTransform="matrix(.062142,0,0,.029001,1.636502,28.085503)"
       gradientUnits="userSpaceOnUse"
       id="radialGradient3129"
       r="117.14286"
       xlink:href="#linearGradient5060" />
    <radialGradient
       cx="605.71429"
       cy="486.64789"
       gradientTransform="matrix(-.062142,0,0,.029001,46.53201,28.085503)"
       gradientUnits="userSpaceOnUse"
       id="radialGradient3131"
       r="117.14286"
       xlink:href="#linearGradient5060" />
    <linearGradient
       gradientUnits="userSpaceOnUse"
       id="linearGradient4594"
       x1="8.2114201"
       x2="31.74275"
       y1="-5.7136502"
       y2="25.48744">
      <stop
         offset="0"
         stop-color="#fff"
         id="stop37-5" />
      <stop
         offset="1"
         stop-color="#fff"
         stop-opacity="0"
         id="stop39" />
    </linearGradient>
    <linearGradient
       gradientTransform="matrix(0.98821956,0,0,0.98630136,0.4829977,0.08219181)"
       y2="25.48744"
       x2="31.74275"
       y1="-5.7136502"
       x1="8.2114201"
       gradientUnits="userSpaceOnUse"
       id="linearGradient3028"
       xlink:href="#linearGradient4594"
       inkscape:collect="always" />
  </defs>
  <g
     transform="matrix(.833389,0,0,1,3.928449,0)"
     id="g41">
    <path
       d="m9.08134,38.7186h30.00582v7.04306h-30.00582z"
       fill="url(#linearGradient3127)"
       opacity=".5"
       id="path43" />
    <path
       d="m39.08716,38.71885v7.04268c3.20017.01326 7.73646-1.57791 7.73646-3.52179s-3.57115-3.52088-7.73646-3.52088z"
       fill="url(#radialGradient3129)"
       opacity=".5"
       id="path45" />
    <path
       d="m9.08134,38.71885v7.04268c-3.20017.01326-7.73646-1.57791-7.73646-3.52179s3.57115-3.52088 7.73646-3.52088z"
       fill="url(#radialGradient3131)"
       opacity=".5"
       id="path47" />
  </g>
  <path
     d="m7.5-41.4999h33a2,2 0 0,1 2,2v30.9999a2,2 0 0,1 -2,2h-33a2,2 0 0,1 -2-2v-30.9999a2,2 0 0,1 2-2"
     fill="url(#radialGradient3909-3)"
     stroke="url(#linearGradient3911-3)"
     stroke-linecap="round"
     stroke-linejoin="round"
     transform="matrix(0,1,-1,0,0,0)"
     id="path49" />
  <path
     d="m7.5-40.5h33a1,1 0 0,1 1,1v31a1,1 0 0,1 -1,1h-33a1,1 0 0,1 -1-1v-31a1,1 0 0,1 1-1"
     fill="none"
     opacity=".5"
     stroke="url(#linearGradient998)"
     stroke-linecap="round"
     stroke-linejoin="round"
     transform="matrix(0,1,-1,0,0,0)"
     id="path51" />
  <path
     d="m20,20v8l8-4z"
     fill="#fff"
     id="path53" />
  <path
     d="m9,8v3h4v-3h-4zm0,5.5v3h4v-3h-4zm0,6v3h4v-3h-4zm0,6v3h4v-3h-4zm0,6v3h4v-3h-4zm0,5.5v3h4v-3h-4z"
     fill="#fff"
     opacity=".75"
     id="path57" />
  <path
     d="m35,8v3h4v-3h-4zm0,5.5v3h4v-3h-4zm0,6v3h4v-3h-4zm0,6v3h4v-3h-4zm0,6v3h4v-3h-4zm0,5.5v3h4v-3h-4z"
     fill="#fff"
     opacity=".75"
     id="path59" />
  <path
     style="opacity:0.98999999;fill:url(#linearGradient3028)"
     inkscape:connector-curvature="0"
     d="M 18,6 H 39.160004 C 40.432831,6 41,6.4824099 41,7.9726027 V 42 H 28.249359 z"
     id="path57-5" />
</svg>
