<?xml version="1.0" encoding="UTF-8" standalone="no"?>
<svg xmlns:dc="http://purl.org/dc/elements/1.1/" xmlns:cc="http://creativecommons.org/ns#" xmlns:rdf="http://www.w3.org/1999/02/22-rdf-syntax-ns#" xmlns:svg="http://www.w3.org/2000/svg" xmlns="http://www.w3.org/2000/svg" xmlns:xlink="http://www.w3.org/1999/xlink" xmlns:sodipodi="http://sodipodi.sourceforge.net/DTD/sodipodi-0.dtd" xmlns:inkscape="http://www.inkscape.org/namespaces/inkscape" viewBox="0 0 48 48" id="svg2" version="1.1" inkscape:version="0.48.3.1 r9886" width="100%" height="100%" sodipodi:docname="libreoffice-oasis-impress-template.svg">
  <metadata id="metadata78">
    <rdf:RDF>
      <cc:Work rdf:about="">
        <dc:format>image/svg+xml</dc:format>
        <dc:type rdf:resource="http://purl.org/dc/dcmitype/StillImage" />
        <dc:title></dc:title>
      </cc:Work>
    </rdf:RDF>
  </metadata>
  <sodipodi:namedview pagecolor="#ffffff" bordercolor="#666666" borderopacity="1" objecttolerance="10" gridtolerance="10" guidetolerance="10" inkscape:pageopacity="0" inkscape:pageshadow="2" inkscape:window-width="1280" inkscape:window-height="976" id="namedview76" showgrid="true" inkscape:zoom="10.05663" inkscape:cx="38.862705" inkscape:cy="27.845932" inkscape:window-x="0" inkscape:window-y="24" inkscape:window-maximized="1" inkscape:current-layer="svg2" showguides="true" inkscape:guide-bbox="true">
    <inkscape:grid type="xygrid" id="grid3032" />
  </sodipodi:namedview>
  <defs id="defs4">
    <linearGradient id="linearGradient3866">
      <stop style="stop-color:#818181;stop-opacity:1;" offset="0" id="stop3868" />
      <stop style="stop-color:#754122;stop-opacity:1;" offset="1" id="stop3870" />
    </linearGradient>
    <linearGradient id="linearGradient3853">
      <stop id="stop3855" offset="0" style="stop-color:#ffffff;stop-opacity:1;" />
      <stop id="stop3857" offset="1" style="stop-color:#ffffff;stop-opacity:0;" />
    </linearGradient>
    <linearGradient id="linearGradient5060">
      <stop offset="0" id="stop7" />
      <stop offset="1" stop-opacity="0" id="stop9" />
    </linearGradient>
    <linearGradient gradientUnits="userSpaceOnUse" id="linearGradient3127" x2="0" y1="38.7186" y2="45.76167">
      <stop offset="0" stop-opacity="0" id="stop12" />
      <stop offset=".5" id="stop14" />
      <stop offset="1" stop-opacity="0" id="stop16" />
    </linearGradient>
    <linearGradient gradientUnits="userSpaceOnUse" id="linearGradient3157-5" x1="-42.69615" x2="-5.84311" gradientTransform="matrix(0,-1,-1,0,1.6172605e-8,-1.5826913e-8)">
      <stop offset="0" stop-color="#fff" id="stop19" />
      <stop offset="1" stop-color="#cdcdcd" id="stop21" />
    </linearGradient>
    <linearGradient gradientUnits="userSpaceOnUse" id="linearGradient998" x1="6" x2="42" y2="-23" y1="-23">
      <stop offset="0" stop-color="#fff" id="stop24" />
      <stop offset="1" stop-color="#fff" stop-opacity="0" id="stop26" style="stop-color:#ffffff;stop-opacity:0.5" />
    </linearGradient>
    <radialGradient cx="605.71429" cy="486.64789" gradientTransform="matrix(.062142,0,0,.029001,1.636502,28.085503)" gradientUnits="userSpaceOnUse" id="radialGradient3129" r="117.14286" xlink:href="#linearGradient5060" />
    <radialGradient cx="605.71429" cy="486.64789" gradientTransform="matrix(-.062142,0,0,.029001,46.53201,28.085503)" gradientUnits="userSpaceOnUse" id="radialGradient3131" r="117.14286" xlink:href="#linearGradient5060" />
    <linearGradient inkscape:collect="always" xlink:href="#linearGradient3866" id="linearGradient3872" x1="-5" y1="-21" x2="-43" y2="-21" gradientUnits="userSpaceOnUse" gradientTransform="matrix(0,-1,-1,0,1.6172605e-8,-1.5826913e-8)" />
    <linearGradient inkscape:collect="always" xlink:href="#linearGradient3853" id="linearGradient3838" gradientUnits="userSpaceOnUse" gradientTransform="translate(2,0)" x1="13" y1="7" x2="13" y2="42" />
    <linearGradient id="linearGradient3916">
      <stop id="stop3918" offset="0" style="stop-color:#505050;stop-opacity:1;" />
      <stop style="stop-color:#ffffff;stop-opacity:1;" offset="0.5" id="stop3924" />
      <stop id="stop3920" offset="1" style="stop-color:#505050;stop-opacity:1;" />
    </linearGradient>
    <linearGradient inkscape:collect="always" xlink:href="#linearGradient3916" id="linearGradient3904" gradientUnits="userSpaceOnUse" gradientTransform="matrix(1.3333335,0,0,2,-1.2843946,17.027699)" x1="4" y1="9.5" x2="10" y2="9.5" />
    <linearGradient inkscape:collect="always" xlink:href="#linearGradient3916" id="linearGradient3908" gradientUnits="userSpaceOnUse" gradientTransform="matrix(1.3333335,0,0,2,-1.2843946,11.027699)" x1="4" y1="9.5" x2="10" y2="9.5" />
    <linearGradient inkscape:collect="always" xlink:href="#linearGradient3916" id="linearGradient3912" gradientUnits="userSpaceOnUse" gradientTransform="matrix(1.3333335,0,0,2,-1.2843948,5.0276992)" x1="4" y1="9.5" x2="10" y2="9.5" />
    <linearGradient inkscape:collect="always" xlink:href="#linearGradient3916" id="linearGradient3917" gradientUnits="userSpaceOnUse" gradientTransform="matrix(1.3333335,0,0,2,-1.2843946,-0.97230044)" x1="4" y1="9.5" x2="10" y2="9.5" />
    <linearGradient inkscape:collect="always" xlink:href="#linearGradient3916" id="linearGradient3921" gradientUnits="userSpaceOnUse" gradientTransform="matrix(1.3333335,0,0,2,-1.2843948,-6.9723008)" x1="4" y1="9.5" x2="10" y2="9.5" />
  </defs>
  <g transform="matrix(.833389,0,0,1,3.928449,0)" id="g40">
    <path d="m9.08134,38.7186h30.00582v7.04306h-30.00582z" id="path42" fill="url(#linearGradient3127)" opacity=".5" />
    <path d="m39.08716,38.71885v7.04268c3.20017.01326 7.73646-1.57791 7.73646-3.52179s-3.57115-3.52088-7.73646-3.52088z" id="path44" fill="url(#radialGradient3129)" opacity=".5" />
    <path d="m9.08134,38.71885v7.04268c-3.20017.01326-7.73646-1.57791-7.73646-3.52179s3.57115-3.52088 7.73646-3.52088z" id="path46" fill="url(#radialGradient3131)" opacity=".5" />
  </g>
  <path d="m 41.4999,40.5 0,-33.0000001 a 2,2 0 0 0 -2,-1.9999998 l -30.9998998,-6e-7 A 2,2 0 0 0 6.5000001,7.4999998 L 6.5000005,40.5 a 2,2 0 0 0 1.9999992,2 l 30.9999003,0 a 2,2 0 0 0 2,-2" id="path48" style="fill:url(#linearGradient3157-5);stroke:url(#linearGradient3872);stroke-linecap:round;stroke-linejoin:round" inkscape:connector-curvature="0" />
  <path id="path3034" d="M 15,6 8.6178615,6 C 7.5135685,6 7,6.6592303 7,7.572904 L 7,40.368756 C 7,41.387651 7.5209649,42 8.5382454,42 L 15,42" style="color:#000000;fill:#eb7532;fill-opacity:1;fill-rule:nonzero;stroke:none;stroke-width:1;marker:none;visibility:visible;display:inline;overflow:visible;enable-background:accumulate" inkscape:connector-curvature="0" sodipodi:nodetypes="cssssc" />
  <path style="color:#000000;fill:#7c370f;fill-opacity:1;fill-rule:nonzero;stroke:none;stroke-width:1;marker:none;visibility:visible;display:inline;overflow:visible;enable-background:accumulate" d="m 14,7 1,0 0,35 -1,0 z" id="rect3859" inkscape:connector-curvature="0" />
  <path style="opacity:0.5;color:#000000;fill:url(#linearGradient3838);fill-opacity:1;fill-rule:nonzero;stroke:none;stroke-width:1;marker:none;visibility:visible;display:inline;overflow:visible;enable-background:accumulate" d="m 15,7 1,0 0,35 -1,0 z" id="rect3843" inkscape:connector-curvature="0" />
  <path d="m7.5-40.5h33a1,1 0 0,1 1,1v31a1,1 0 0,1 -1,1h-33a1,1 0 0,1 -1-1v-31a1,1 0 0,1 1-1" id="path62" style="opacity:0.5;stroke:url(#linearGradient998)" transform="matrix(0,1,-1,0,0,0)" stroke-linejoin="round" stroke-linecap="round" stroke="url(#linearGradient998)" fill="none" />
  <g clip-path="none" clip-rule="nonzero" id="g8309" transform="matrix(0.24508821,0,0,0.24508821,50.197429,-33.077959)" />
  <path id="path3876" style="color:black;fill:#bf6633;fill-opacity:1;fill-rule:evenodd;stroke:none;stroke-width:1;marker:none;visibility:visible;display:inline;overflow:visible;enable-background:accumulate" d="m 32,30 3,0 0,1 -3,0 z m 0,-9 3,0 0,1 -3,0 z m 0,3 3,0 0,1 -3,0 z m 0,3 3,0 0,1 -3,0 z m -6,-6 c -2.761424,0 -5,2.238576 -5,5 0,2.761424 2.238576,5 5,5 2.761424,0 5,-2.238576 5,-5 l -5,0 z m -4,-4 12,0 1,1 -1,1 -12,0 -1,-1 z m -3,-1 1,-1 16,0 1,1 0,16 -1,1 -16,0 -1,-1 z" inkscape:connector-curvature="0" sodipodi:nodetypes="cccccccccccccccccccccssccccccccccccccccccc" />
  <path id="path3860" transform="matrix(1.3333332,0,0,1.3333333,-2.9510597,23.361033)" style="color:black;fill:#7c370f;fill-opacity:1;fill-rule:nonzero;stroke:none;stroke-width:0.75000006;marker:none;visibility:visible;display:inline;overflow:visible;enable-background:accumulate" d="M 12,9.5 C 12,10.328427 11.328427,11 10.5,11 9.6715729,11 9,10.328427 9,9.5 9,8.6715729 9.6715729,8 10.5,8 11.328427,8 12,8.6715729 12,9.5 z m 0,-4.5000001 c 0,0.828427 -0.671573,1.5 -1.5,1.5 -0.8284271,0 -1.5,-0.671573 -1.5,-1.5 0,-0.8284271 0.6715729,-1.5 1.5,-1.5 0.828427,0 1.5,0.6715729 1.5,1.5 z M 12,0.49999902 C 12,1.328426 11.328427,1.999999 10.5,1.999999 c -0.8284273,0 -1.5000002,-0.671573 -1.5000002,-1.49999998 0,-0.8284271 0.6715729,-1.50000002 1.5000002,-1.50000002 0.828427,0 1.5,0.67157292 1.5,1.50000002 z m 0,-4.49999942 c 0,0.828427 -0.671573,1.5 -1.5,1.5 -0.8284271,0 -1.5,-0.671573 -1.5,-1.5 0,-0.8284271 0.6715729,-1.5 1.5,-1.5 0.828427,0 1.5,0.6715729 1.5,1.5 z m 0,-4.5000005 c 0,0.828427 -0.671573,1.5 -1.5,1.5 -0.8284273,0 -1.5000002,-0.671573 -1.5000002,-1.5 0,-0.8284271 0.6715729,-1.5000001 1.5000002,-1.5000001 0.828427,0 1.5,0.671573 1.5,1.5000001 z" />
  <rect style="color:black;fill:url(#linearGradient3921);fill-opacity:1;fill-rule:nonzero;stroke:none;stroke-width:1;marker:none;visibility:visible;display:inline;overflow:visible;enable-background:accumulate" id="rect3908" width="8" height="2" x="4.0489388" y="11.027699" ry="1" />
  <rect ry="1" y="17.027699" x="4.0489388" height="2" width="8" id="rect3844" style="color:black;fill:url(#linearGradient3917);fill-opacity:1;fill-rule:nonzero;stroke:none;stroke-width:1;marker:none;visibility:visible;display:inline;overflow:visible;enable-background:accumulate" />
  <rect ry="1" y="23.027699" x="4.0489388" height="2" width="8" id="rect3850" style="color:black;fill:url(#linearGradient3912);fill-opacity:1;fill-rule:nonzero;stroke:none;stroke-width:1;marker:none;visibility:visible;display:inline;overflow:visible;enable-background:accumulate" />
  <rect style="color:black;fill:url(#linearGradient3908);fill-opacity:1;fill-rule:nonzero;stroke:none;stroke-width:1;marker:none;visibility:visible;display:inline;overflow:visible;enable-background:accumulate" id="rect3854" width="8" height="2" x="4.0489388" y="29.027699" ry="1" />
  <rect ry="1" y="35.027699" x="4.0489388" height="2" width="8" id="rect3862" style="color:black;fill:url(#linearGradient3904);fill-opacity:1;fill-rule:nonzero;stroke:none;stroke-width:1;marker:none;visibility:visible;display:inline;overflow:visible;enable-background:accumulate" />
</svg>
