<?xml version="1.0" encoding="UTF-8" standalone="no"?>
<svg
   xmlns:dc="http://purl.org/dc/elements/1.1/"
   xmlns:cc="http://creativecommons.org/ns#"
   xmlns:rdf="http://www.w3.org/1999/02/22-rdf-syntax-ns#"
   xmlns:svg="http://www.w3.org/2000/svg"
   xmlns="http://www.w3.org/2000/svg"
   xmlns:xlink="http://www.w3.org/1999/xlink"
   xmlns:sodipodi="http://sodipodi.sourceforge.net/DTD/sodipodi-0.dtd"
   xmlns:inkscape="http://www.inkscape.org/namespaces/inkscape"
   viewBox="0 0 48 48"
   id="svg2"
   version="1.1"
   inkscape:version="0.48.3.1 r9886"
   width="100%"
   height="100%"
   sodipodi:docname="x-office-document.svg">
  <metadata
     id="metadata78">
    <rdf:RDF>
      <cc:Work
         rdf:about="">
        <dc:format>image/svg+xml</dc:format>
        <dc:type
           rdf:resource="http://purl.org/dc/dcmitype/StillImage" />
      </cc:Work>
    </rdf:RDF>
  </metadata>
  <sodipodi:namedview
     pagecolor="#ffffff"
     bordercolor="#666666"
     borderopacity="1"
     objecttolerance="10"
     gridtolerance="10"
     guidetolerance="10"
     inkscape:pageopacity="0"
     inkscape:pageshadow="2"
     inkscape:window-width="640"
     inkscape:window-height="480"
     id="namedview76"
     showgrid="false"
     inkscape:zoom="4.9166667"
     inkscape:cx="24"
     inkscape:cy="24"
     inkscape:window-x="0"
     inkscape:window-y="24"
     inkscape:window-maximized="0"
     inkscape:current-layer="svg2" />
  <defs
     id="defs4">
    <linearGradient
       id="linearGradient5060">
      <stop
         offset="0"
         id="stop7" />
      <stop
         offset="1"
         stop-opacity="0"
         id="stop9" />
    </linearGradient>
    <linearGradient
       gradientUnits="userSpaceOnUse"
       id="linearGradient3127"
       x2="0"
       y1="38.7186"
       y2="45.76167">
      <stop
         offset="0"
         stop-opacity="0"
         id="stop12" />
      <stop
         offset=".5"
         id="stop14" />
      <stop
         offset="1"
         stop-opacity="0"
         id="stop16" />
    </linearGradient>
    <linearGradient
       gradientUnits="userSpaceOnUse"
       id="linearGradient3157-5"
       x1="-42.69615"
       x2="-5.84311">
      <stop
         offset="0"
         stop-color="#fff"
         id="stop19" />
      <stop
         offset="1"
         stop-color="#cdcdcd"
         id="stop21" />
    </linearGradient>
    <linearGradient
       gradientUnits="userSpaceOnUse"
       id="linearGradient998"
       x1="6.40561"
       x2="41.36901">
      <stop
         offset="0"
         stop-color="#fff"
         id="stop24" />
      <stop
         offset="1"
         stop-color="#fff"
         stop-opacity="0"
         id="stop26" />
    </linearGradient>
    <linearGradient
       gradientUnits="userSpaceOnUse"
       id="linearGradient3854"
       x2="0"
       y1="21.76516"
       y2="19.97441">
      <stop
         offset="0"
         stop-color="#d3b72c"
         id="stop29" />
      <stop
         offset="1"
         stop-color="#f2ea73"
         id="stop31" />
    </linearGradient>
    <linearGradient
       gradientUnits="userSpaceOnUse"
       id="linearGradient3856"
       x2="0"
       y1="19.51121"
       y2="14.06655">
      <stop
         offset="0"
         stop-color="#ceeefb"
         id="stop34" />
      <stop
         offset="1"
         stop-color="#61a2f4"
         id="stop36" />
    </linearGradient>
    <radialGradient
       cx="605.71429"
       cy="486.64789"
       gradientTransform="matrix(.062142,0,0,.029001,1.636502,28.085503)"
       gradientUnits="userSpaceOnUse"
       id="radialGradient3129"
       r="117.14286"
       xlink:href="#linearGradient5060" />
    <radialGradient
       cx="605.71429"
       cy="486.64789"
       gradientTransform="matrix(-.062142,0,0,.029001,46.53201,28.085503)"
       gradientUnits="userSpaceOnUse"
       id="radialGradient3131"
       r="117.14286"
       xlink:href="#linearGradient5060" />
    <linearGradient
       inkscape:collect="always"
       xlink:href="#linearGradient3856"
       id="linearGradient3058"
       gradientUnits="userSpaceOnUse"
       y1="19.51121"
       x2="0"
       y2="14.06655"
       gradientTransform="matrix(1.222222,0,0,1.25,-3.888889,-4.5)" />
    <linearGradient
       inkscape:collect="always"
       xlink:href="#linearGradient3854"
       id="linearGradient3061"
       gradientUnits="userSpaceOnUse"
       y1="21.76516"
       x2="0"
       y2="19.97441"
       gradientTransform="matrix(1.222222,0,0,1.25,-3.888889,-4.5)" />
  </defs>
  <g
     transform="matrix(.833389,0,0,1,3.928449,0)"
     id="g40">
    <path
       d="m9.08134,38.7186h30.00582v7.04306h-30.00582z"
       fill="url(#linearGradient3127)"
       opacity=".5"
       id="path42" />
    <path
       d="m39.08716,38.71885v7.04268c3.20017.01326 7.73646-1.57791 7.73646-3.52179s-3.57115-3.52088-7.73646-3.52088z"
       fill="url(#radialGradient3129)"
       opacity=".5"
       id="path44" />
    <path
       d="m9.08134,38.71885v7.04268c-3.20017.01326-7.73646-1.57791-7.73646-3.52179s3.57115-3.52088 7.73646-3.52088z"
       fill="url(#radialGradient3131)"
       opacity=".5"
       id="path46" />
  </g>
  <path
     d="m-40.5-41.4999h33a2,2 0 0,1 2,2v30.9999a2,2 0 0,1 -2,2h-33a2,2 0 0,1 -2-2v-30.9999a2,2 0 0,1 2-2"
     fill="url(#linearGradient3157-5)"
     stroke="#818181"
     stroke-linecap="round"
     stroke-linejoin="round"
     transform="matrix(0,-1,-1,0,0,0)"
     id="path48" />
  <path
     d="m25,13h11v2h-11z"
     fill="#999"
     id="path50" />
  <path
     d="m25,17h11v2h-11z"
     fill="#999"
     id="path52" />
  <path
     d="m25,21h10.98444v2h-10.98444z"
     fill="#999"
     id="path54" />
  <path
     d="m12,25h24v2h-24z"
     fill="#999"
     id="path56" />
  <path
     d="m12,29h24v2h-24z"
     fill="#999"
     id="path58" />
  <path
     d="m12,33h17v2h-17z"
     fill="#999"
     id="path60" />
  <path
     d="m7.5-40.5h33a1,1 0 0,1 1,1v31a1,1 0 0,1 -1,1h-33a1,1 0 0,1 -1-1v-31a1,1 0 0,1 1-1"
     fill="none"
     stroke="url(#linearGradient998)"
     stroke-linecap="round"
     stroke-linejoin="round"
     transform="matrix(0,1,-1,0,0,0)"
     id="path62" />
  <path
     style="fill:#ffffff"
     inkscape:connector-curvature="0"
     id="path66"
     d="M 11.999997,13 H 22.999995 V 23 H 11.999997 z" />
  <path
     inkscape:connector-curvature="0"
     style="fill:url(#linearGradient3061)"
     id="path68"
     d="M 11.999997,20.5 H 22.999995 V 23 H 11.999997 z" />
  <path
     inkscape:connector-curvature="0"
     style="fill:url(#linearGradient3058)"
     id="path70"
     d="m 11.999997,13 h 10.999998 v 7.5 H 11.999997 z" />
  <path
     style="fill:#a86516"
     inkscape:connector-curvature="0"
     id="path72"
     d="m 11.999997,19.25 h 1.427299 c 1.849649,0 0.878887,-2.606713 3.691342,-2.606713 2.635966,0.107838 1.581996,2.606713 4.042891,2.606713 h 1.838478 V 20.5 H 12.000009 z" />
  <path
     style="fill:#ffff00"
     inkscape:connector-curvature="0"
     id="path74"
     d="m 22.179786,15.43245 c 0,0.794287 -0.629591,1.438187 -1.406227,1.438187 -0.776637,0 -1.406228,-0.6439 -1.406228,-1.438187 0,-0.794288 0.629591,-1.438187 1.406228,-1.438187 0.776636,0 1.406227,0.643899 1.406227,1.438187 z" />
</svg>
