/* XPM */
static char * stick_toggled_pressed_xpm[] = {
"20 24 5 1",
" 	c #8D8D8D",
".	c #FFFFFF",
"+	c #DEDEDE",
"@	c #ECECEC",
"#	c #008AFF",
"                    ",
"....................",
"++++++++++++++++++++",
"++++++++++++++++++++",
"++++++++++++++++++++",
"++++++++++++++++++++",
"++++++++++++++++++++",
"++++++++++++++++++++",
"++++++++++++@+++++++",
"++++++++@@++#@++++++",
"+++++++@##+@##@+++++",
"++++++@###+####+++++",
"++++++##++@##+++++++",
"++++++##++#+@@++++++",
"++++++##++++##++++++",
"++++++##@@@@##++++++",
"+++++++######+++++++",
"++++++++####++++++++",
"++++++++++++++++++++",
"++++++++++++++++++++",
"++++++++++++++++++++",
"++++++++++++++++++++",
"++++++++++++++++++++",
"++++++++++++++++++++"};
