<?xml version="1.0" encoding="UTF-8" standalone="no"?>
<!-- Created with Inkscape (http://www.inkscape.org/) -->

<svg
   xmlns:dc="http://purl.org/dc/elements/1.1/"
   xmlns:cc="http://creativecommons.org/ns#"
   xmlns:rdf="http://www.w3.org/1999/02/22-rdf-syntax-ns#"
   xmlns:svg="http://www.w3.org/2000/svg"
   xmlns="http://www.w3.org/2000/svg"
   xmlns:xlink="http://www.w3.org/1999/xlink"
   xmlns:sodipodi="http://sodipodi.sourceforge.net/DTD/sodipodi-0.dtd"
   xmlns:inkscape="http://www.inkscape.org/namespaces/inkscape"
   version="1.0"
   width="22"
   height="22"
   id="svg4073"
   inkscape:version="0.48.3.1 r9886"
   sodipodi:docname="nm-device-wired-secure.svg">
  <metadata
     id="metadata18">
    <rdf:RDF>
      <cc:Work
         rdf:about="">
        <dc:format>image/svg+xml</dc:format>
        <dc:type
           rdf:resource="http://purl.org/dc/dcmitype/StillImage" />
        <dc:title></dc:title>
      </cc:Work>
    </rdf:RDF>
  </metadata>
  <sodipodi:namedview
     pagecolor="#ffffff"
     bordercolor="#666666"
     borderopacity="1"
     objecttolerance="10"
     gridtolerance="10"
     guidetolerance="10"
     inkscape:pageopacity="0"
     inkscape:pageshadow="2"
     inkscape:window-width="1680"
     inkscape:window-height="1026"
     id="namedview16"
     showgrid="false"
     inkscape:zoom="11.313708"
     inkscape:cx="11.487446"
     inkscape:cy="-2.7099942"
     inkscape:window-x="0"
     inkscape:window-y="24"
     inkscape:window-maximized="1"
     inkscape:current-layer="svg4073" />
  <defs
     id="defs4075">
    <linearGradient
       inkscape:collect="always"
       xlink:href="#linearGradient3587-6-5-1"
       id="linearGradient3684"
       x1="9.1701241"
       y1="3"
       x2="9.311203"
       y2="15"
       gradientUnits="userSpaceOnUse" />
    <linearGradient
       id="linearGradient3587-6-5-1">
      <stop
         offset="0"
         style="stop-color:#000000;stop-opacity:1"
         id="stop3589-9-2-9" />
      <stop
         offset="1"
         style="stop-color:#363636;stop-opacity:1"
         id="stop3591-7-4-9" />
    </linearGradient>
    <linearGradient
       gradientTransform="matrix(0.4101105,0,0,0.5452071,7.1791955,2.1014845)"
       gradientUnits="userSpaceOnUse"
       xlink:href="#linearGradient3587-6-5-3"
       id="linearGradient2439"
       y2="38.389946"
       x2="31.261829"
       y1="23.638462"
       x1="31.261829" />
    <linearGradient
       id="linearGradient3587-6-5-3">
      <stop
         offset="0"
         style="stop-color:#000000;stop-opacity:1"
         id="stop3589-9-2-2" />
      <stop
         offset="1"
         style="stop-color:#363636;stop-opacity:1"
         id="stop3591-7-4-73" />
    </linearGradient>
    <inkscape:perspective
       id="perspective14"
       inkscape:persp3d-origin="12 : 8 : 1"
       inkscape:vp_z="24 : 12 : 1"
       inkscape:vp_y="0 : 1000 : 0"
       inkscape:vp_x="0 : 12 : 1"
       sodipodi:type="inkscape:persp3d" />
    <linearGradient
       inkscape:collect="always"
       xlink:href="#linearGradient3587-6-5-3-4"
       id="linearGradient3137-9"
       gradientUnits="userSpaceOnUse"
       gradientTransform="matrix(0.4101105,0,0,0.5452071,6.1791955,0.1014845)"
       x1="31.261829"
       y1="23.638462"
       x2="31.261829"
       y2="38.389946" />
    <linearGradient
       id="linearGradient3587-6-5-3-4">
      <stop
         offset="0"
         style="stop-color:#000000;stop-opacity:1"
         id="stop3589-9-2-2-5" />
      <stop
         offset="1"
         style="stop-color:#363636;stop-opacity:1"
         id="stop3591-7-4-73-2" />
    </linearGradient>
    <linearGradient
       y2="38.389946"
       x2="31.261829"
       y1="23.638462"
       x1="31.261829"
       gradientTransform="matrix(0.4101105,0,0,0.5452071,6.179196,0.1014837)"
       gradientUnits="userSpaceOnUse"
       id="linearGradient3155"
       xlink:href="#linearGradient3587-6-5-3-4"
       inkscape:collect="always" />
    <linearGradient
       inkscape:collect="always"
       xlink:href="#linearGradient3587-6-5-1"
       id="linearGradient3174"
       gradientUnits="userSpaceOnUse"
       x1="15"
       y1="8"
       x2="15"
       y2="20" />
    <linearGradient
       inkscape:collect="always"
       xlink:href="#linearGradient3587-6-5-1"
       id="linearGradient3266"
       gradientUnits="userSpaceOnUse"
       x1="15"
       y1="8"
       x2="15"
       y2="20" />
    <linearGradient
       inkscape:collect="always"
       xlink:href="#linearGradient3587-6-5-1"
       id="linearGradient3268"
       gradientUnits="userSpaceOnUse"
       x1="9.1701241"
       y1="3"
       x2="9.311203"
       y2="15" />
    <linearGradient
       inkscape:collect="always"
       xlink:href="#linearGradient3587-6-5-3-4"
       id="linearGradient3270"
       gradientUnits="userSpaceOnUse"
       gradientTransform="matrix(0.4101105,0,0,0.5452071,6.179196,0.1014837)"
       x1="31.261829"
       y1="23.638462"
       x2="31.261829"
       y2="38.389946" />
    <linearGradient
       inkscape:collect="always"
       xlink:href="#linearGradient3587-6-5-1-5"
       id="linearGradient3266-6"
       gradientUnits="userSpaceOnUse"
       x1="15"
       y1="8"
       x2="15"
       y2="20" />
    <linearGradient
       id="linearGradient3587-6-5-1-5">
      <stop
         offset="0"
         style="stop-color:#000000;stop-opacity:1"
         id="stop3589-9-2-9-4" />
      <stop
         offset="1"
         style="stop-color:#363636;stop-opacity:1"
         id="stop3591-7-4-9-0" />
    </linearGradient>
    <linearGradient
       inkscape:collect="always"
       xlink:href="#linearGradient3587-6-5-1-5"
       id="linearGradient3268-3"
       gradientUnits="userSpaceOnUse"
       x1="9.1701241"
       y1="3"
       x2="9.311203"
       y2="15" />
    <linearGradient
       id="linearGradient3306">
      <stop
         offset="0"
         style="stop-color:#000000;stop-opacity:1"
         id="stop3308" />
      <stop
         offset="1"
         style="stop-color:#363636;stop-opacity:1"
         id="stop3310" />
    </linearGradient>
    <linearGradient
       inkscape:collect="always"
       xlink:href="#linearGradient3587-6-5-3-4-8"
       id="linearGradient3270-0"
       gradientUnits="userSpaceOnUse"
       gradientTransform="matrix(0.4101105,0,0,0.5452071,6.179196,0.1014837)"
       x1="31.261829"
       y1="23.638462"
       x2="31.261829"
       y2="38.389946" />
    <linearGradient
       id="linearGradient3587-6-5-3-4-8">
      <stop
         offset="0"
         style="stop-color:#000000;stop-opacity:1"
         id="stop3589-9-2-2-5-1" />
      <stop
         offset="1"
         style="stop-color:#363636;stop-opacity:1"
         id="stop3591-7-4-73-2-8" />
    </linearGradient>
    <linearGradient
       y2="38.389946"
       x2="31.261829"
       y1="23.638462"
       x1="31.261829"
       gradientTransform="matrix(0.4101105,0,0,0.5452071,6.179196,0.1014837)"
       gradientUnits="userSpaceOnUse"
       id="linearGradient3320"
       xlink:href="#linearGradient3587-6-5-3-4-8"
       inkscape:collect="always" />
    <linearGradient
       inkscape:collect="always"
       xlink:href="#linearGradient3587-6-5-3-4-8"
       id="linearGradient3362"
       gradientUnits="userSpaceOnUse"
       gradientTransform="matrix(0.4101105,0,0,0.5452071,49.241696,-0.77351632)"
       x1="31.261829"
       y1="23.638462"
       x2="31.261829"
       y2="38.389946" />
    <linearGradient
       inkscape:collect="always"
       xlink:href="#linearGradient3587-6-5-1-5"
       id="linearGradient3365"
       gradientUnits="userSpaceOnUse"
       x1="9.1701241"
       y1="3"
       x2="9.311203"
       y2="15"
       gradientTransform="translate(43.0625,-0.87500002)" />
    <linearGradient
       inkscape:collect="always"
       xlink:href="#linearGradient3587-6-5-1-5"
       id="linearGradient3368"
       gradientUnits="userSpaceOnUse"
       x1="15"
       y1="8"
       x2="15"
       y2="20"
       gradientTransform="translate(43.0625,-0.87500002)" />
    <linearGradient
       inkscape:collect="always"
       xlink:href="#linearGradient3587-6-5-1-5"
       id="linearGradient3384"
       gradientUnits="userSpaceOnUse"
       gradientTransform="translate(43.0625,-0.87500002)"
       x1="15"
       y1="8"
       x2="15"
       y2="20" />
    <linearGradient
       inkscape:collect="always"
       xlink:href="#linearGradient3587-6-5-1-5"
       id="linearGradient3386"
       gradientUnits="userSpaceOnUse"
       gradientTransform="translate(43.0625,-0.87500002)"
       x1="9.1701241"
       y1="3"
       x2="9.311203"
       y2="15" />
    <linearGradient
       inkscape:collect="always"
       xlink:href="#linearGradient3587-6-5-3-4-8"
       id="linearGradient3388"
       gradientUnits="userSpaceOnUse"
       gradientTransform="matrix(0.4101105,0,0,0.5452071,49.241696,-0.77351632)"
       x1="31.261829"
       y1="23.638462"
       x2="31.261829"
       y2="38.389946" />
    <linearGradient
       inkscape:collect="always"
       xlink:href="#linearGradient3587-6-5-3-4-8"
       id="linearGradient3391"
       gradientUnits="userSpaceOnUse"
       gradientTransform="matrix(0.4101105,0,0,0.5452071,6.179196,0.10148368)"
       x1="31.261829"
       y1="23.638462"
       x2="31.261829"
       y2="38.389946" />
    <linearGradient
       inkscape:collect="always"
       xlink:href="#linearGradient3587-6-5-1-5"
       id="linearGradient3394"
       gradientUnits="userSpaceOnUse"
       x1="9.1701241"
       y1="3"
       x2="9.311203"
       y2="15" />
    <linearGradient
       inkscape:collect="always"
       xlink:href="#linearGradient3587-6-5-1-5"
       id="linearGradient3397"
       gradientUnits="userSpaceOnUse"
       x1="15"
       y1="8"
       x2="15"
       y2="20" />
  </defs>
  <g
     id="g3399">
    <path
       id="path4348-1"
       d="m 13,9 0,7 -3,0 5,5 1,-1 0,-2 c 0,-0.554 0.446,-1 1,-1 l 0,-0.96875 C 17,16.020539 16.999838,16.010672 17,16 l 0,-7 -4,0 z m 5,7 0,1 1,0 1,-1 -2,0 z"
       style="opacity:0.59999999999999998;fill:#ffffff;fill-opacity:1;fill-rule:nonzero;stroke:none;stroke-width:1;marker:none;visibility:visible;display:inline;overflow:visible;enable-background:accumulate"
       inkscape:connector-curvature="0" />
    <path
       inkscape:connector-curvature="0"
       style="opacity:0.59999999999999998;fill:#ffffff;fill-opacity:1;fill-rule:nonzero;stroke:none;stroke-width:1;marker:none;visibility:visible;display:inline;overflow:visible;enable-background:accumulate"
       id="path4348-1-3"
       d="M 12,9 7,4 2,9 l 3,0 0,7 4,0 0,-7 3,0 z" />
    <path
       d="m 19,14 c -1.108,0 -2,0.910763 -2,2.03125 L 17,17 c -0.554,0 -1,0.446 -1,1 l 0,3 c 0,0.554 0.446,1 1,1 l 4,0 c 0.554,0 1,-0.446 1,-1 l 0,-3 c 0,-0.554 -0.446,-1 -1,-1 l 0,-0.96875 C 21,14.910764 20.108,14 19,14 z m 0,1 c 0.554,0 1,0.442363 1,1 l 0,1 -2,0 0,-1 c 0,-0.557637 0.446,-1 1,-1 z"
       id="rect2822-4"
       style="opacity:0.59999999999999998;fill:#ffffff;fill-opacity:1;fill-rule:nonzero;stroke:none;stroke-width:1;marker:none;visibility:visible;display:inline;overflow:visible;enable-background:accumulate"
       inkscape:connector-curvature="0" />
    <path
       id="path4348-1-1"
       d="m 13,8 0,7 -3,0 5,5 1,-1 0,-2 c 0,-0.554 0.446,-1 1,-1 l 0,-0.96875 C 17,15.02054 16.999838,15.01067 17,15 l 0,-7 -4,0 z m 5,7 0,1 1,0 1,-1 -2,0 z"
       style="opacity:0.7;fill:url(#linearGradient3397);fill-opacity:1;fill-rule:nonzero;stroke:none;stroke-width:1;marker:none;visibility:visible;display:inline;overflow:visible;enable-background:accumulate"
       inkscape:connector-curvature="0" />
    <path
       inkscape:connector-curvature="0"
       style="opacity:0.7;fill:url(#linearGradient3394);fill-opacity:1;fill-rule:nonzero;stroke:none;stroke-width:1;marker:none;visibility:visible;display:inline;overflow:visible;enable-background:accumulate"
       id="path4348-1-3-3"
       d="M 12,8 7,3 2,8 l 3,0 0,7 4,0 0,-7 3,0 z" />
    <path
       d="m 19,13 c -1.108,0 -2,0.910763 -2,2.03125 L 17,16 c -0.554,0 -1,0.446 -1,1 l 0,3 c 0,0.554 0.446,1 1,1 l 4,0 c 0.554,0 1,-0.446 1,-1 l 0,-3 c 0,-0.554 -0.446,-1 -1,-1 l 0,-0.96875 C 21,13.910764 20.108,13 19,13 z m 0,1 c 0.554,0 1,0.442363 1,1 l 0,1 -2,0 0,-1 c 0,-0.557637 0.446,-1 1,-1 z"
       id="rect2822-4-4"
       style="opacity:0.7;fill:url(#linearGradient3391);fill-opacity:1;fill-rule:nonzero;stroke:none;stroke-width:1;marker:none;visibility:visible;display:inline;overflow:visible;enable-background:accumulate"
       inkscape:connector-curvature="0" />
  </g>
</svg>
