<?xml version="1.0" encoding="UTF-8" standalone="no"?>
<!-- Created with Inkscape (http://www.inkscape.org/) -->

<svg xmlns:dc="http://purl.org/dc/elements/1.1/" xmlns:cc="http://creativecommons.org/ns#" xmlns:rdf="http://www.w3.org/1999/02/22-rdf-syntax-ns#" xmlns:svg="http://www.w3.org/2000/svg" xmlns="http://www.w3.org/2000/svg" xmlns:xlink="http://www.w3.org/1999/xlink" xmlns:sodipodi="http://sodipodi.sourceforge.net/DTD/sodipodi-0.dtd" xmlns:inkscape="http://www.inkscape.org/namespaces/inkscape" width="22" height="22" id="svg3020" version="1.1" inkscape:version="0.48.4 r9939" sodipodi:docname="firefox.svg">
    <defs id="defs3022">
        <linearGradient inkscape:collect="always" xlink:href="#linearGradient4594-3" id="linearGradient5698" gradientUnits="userSpaceOnUse" gradientTransform="matrix(0.5155929,0,0,0.4931506,-0.139306,1028.4033)" x1="8.2114201" y1="-5.7136502" x2="31.74275" y2="25.48744" />
        <linearGradient gradientUnits="userSpaceOnUse" id="linearGradient4594-3" x1="8.2114201" x2="31.74275" y1="-5.7136502" y2="25.48744">
            <stop offset="0" stop-color="#fff" id="stop37-5-1-3" />
            <stop offset="1" stop-color="#fff" stop-opacity="0" id="stop39-0" />
        </linearGradient>
        <linearGradient inkscape:collect="always" xlink:href="#linearGradient4050" id="linearGradient3120" gradientUnits="userSpaceOnUse" gradientTransform="matrix(0.53950487,0,0,0.61161008,-1.971527,1027.9329)" x1="22.440199" y1="4.8942533" x2="22.440199" y2="38.21666" />
        <linearGradient id="linearGradient4050">
            <stop id="stop4052" offset="0" style="stop-color:white;stop-opacity:0.50196081;" />
            <stop id="stop4054" offset="1" style="stop-color:#ffffff;stop-opacity:0;" />
        </linearGradient>
        <linearGradient id="linearGradient3801-25-7">
            <stop style="stop-color:#ef7500;stop-opacity:1;" offset="0" id="stop3803-1" />
            <stop style="stop-color:#8e0000;stop-opacity:1;" offset="1" id="stop3805-3" />
        </linearGradient>
        <clipPath id="clipPath4310" clipPathUnits="userSpaceOnUse">
            <rect rx="3.0022662" ry="3.0022662" y="63.5" x="3.4999976" height="41" width="41" id="rect4312" style="fill:black;fill-opacity:1;fill-rule:nonzero;stroke:none;stroke-width:1;marker:none;visibility:visible;display:inline;overflow:visible;enable-background:accumulate" />
        </clipPath>
        <radialGradient inkscape:collect="always" xlink:href="#radialGradient3079" id="radialGradient4521" gradientUnits="userSpaceOnUse" gradientTransform="matrix(8.2063476,0,0,8.1552092,-44.270155,286.41172)" spreadMethod="pad" cx="8.3472824" cy="-25.107372" fx="8.3472824" fy="-25.107372" r="4.2149401" />
        <radialGradient id="radialGradient3079" spreadMethod="pad" gradientTransform="matrix(51.12198,0,0,-50.80341,-230.4174,-797.71722)" gradientUnits="userSpaceOnUse" r="4.2149401" cy="-25.759769" cx="8.37988" fy="-25.759769" fx="8.37988">
            <stop id="stop3081" offset="0" style="stop-opacity:1;stop-color:#51b1e7" />
            <stop id="stop3083" offset="1" style="stop-opacity:1;stop-color:#222c5d" />
        </radialGradient>
        <radialGradient inkscape:collect="always" xlink:href="#radialGradient3087" id="radialGradient4523" gradientUnits="userSpaceOnUse" gradientTransform="matrix(3.6517936,0,0,3.6372283,-3.9101392,173.04519)" spreadMethod="pad" cx="7.7059894" cy="-25.685492" fx="7.7059894" fy="-25.685492" r="5.61165" />
        <radialGradient id="radialGradient3087" spreadMethod="pad" gradientTransform="matrix(39.32283,0,0,-39.16599,-106.45613,-518.46716)" gradientUnits="userSpaceOnUse" r="5.61165" cy="-27.06152" cx="7.6660199" fy="-27.06152" fx="7.6660199">
            <stop id="stop3089" offset="0" style="stop-opacity:1;stop-color:#3a85c3" />
            <stop id="stop3091" offset="1" style="stop-opacity:1;stop-color:#151723" />
        </radialGradient>
        <linearGradient inkscape:collect="always" xlink:href="#linearGradient3097" id="linearGradient4525" gradientUnits="userSpaceOnUse" gradientTransform="matrix(1.6920647,0,0,1.7726389,17.583366,132.97173)" spreadMethod="pad" x1="1.09326" y1="-16.45801" x2="-4.8798099" y2="-25.798519" />
        <linearGradient id="linearGradient3097" spreadMethod="pad" gradientTransform="matrix(15.28743,0,0,-16.0154,136.25641,14.19536)" gradientUnits="userSpaceOnUse" y2="-25.798519" x2="-4.8798099" y1="-16.45801" x1="1.09326">
            <stop id="stop3099" offset="0" style="stop-opacity:1;stop-color:#ef571b" />
            <stop id="stop3101" offset="1" style="stop-opacity:1;stop-color:#ab2421" />
        </linearGradient>
        <linearGradient inkscape:collect="always" xlink:href="#linearGradient3107" id="linearGradient4527" gradientUnits="userSpaceOnUse" gradientTransform="matrix(0.2622975,0,0,1.1507299,35.813612,117.37456)" spreadMethod="pad" x1="23.452641" y1="-22.317381" x2="24.26726" y2="-29.336809" />
        <linearGradient id="linearGradient3107" spreadMethod="pad" gradientTransform="matrix(2.3698,0,0,-10.39659,300.96265,155.11229)" gradientUnits="userSpaceOnUse" y2="-29.336809" x2="24.26726" y1="-22.317381" x1="23.452641">
            <stop id="stop3109" offset="0" style="stop-opacity:1;stop-color:#f4702a" />
            <stop id="stop3111" offset="1" style="stop-opacity:1;stop-color:#f8ea15" />
        </linearGradient>
        <linearGradient inkscape:collect="always" xlink:href="#linearGradient3115" id="linearGradient4529" gradientUnits="userSpaceOnUse" gradientTransform="matrix(6.0626722,0,0,4.3349297,-27.232501,193.35991)" spreadMethod="pad" x1="12.64209" y1="-22.338869" x2="4.2685399" y2="-22.37674" />
        <linearGradient id="linearGradient3115" spreadMethod="pad" gradientTransform="matrix(54.7749,0,0,-39.16513,-268.64502,-531.39844)" gradientUnits="userSpaceOnUse" y2="-22.37674" x2="4.2685399" y1="-22.338869" x1="12.64209">
            <stop id="stop3117" offset="0" style="stop-opacity:1;stop-color:#f4702a" />
            <stop id="stop3119" offset="0.75" style="stop-opacity:1;stop-color:#b41d23" />
            <stop id="stop3121" offset="0.75" style="stop-opacity:1;stop-color:#b41d23" />
            <stop id="stop3123" offset="1" style="stop-opacity:1;stop-color:#b41d23" />
        </linearGradient>
        <linearGradient inkscape:collect="always" xlink:href="#linearGradient3145" id="linearGradient4533" gradientUnits="userSpaceOnUse" gradientTransform="matrix(0.3511398,0,0,1.0948105,34.580243,117.15513)" spreadMethod="pad" x1="13.89893" y1="-15.4209" x2="14.48489" y2="-22.71619" />
        <linearGradient id="linearGradient3145" spreadMethod="pad" gradientTransform="matrix(3.17247,0,0,-9.89137,289.81943,157.09485)" gradientUnits="userSpaceOnUse" y2="-22.71619" x2="14.48489" y1="-15.4209" x1="13.89893">
            <stop id="stop3147" offset="0" style="stop-opacity:1;stop-color:#f4702a" />
            <stop id="stop3149" offset="1" style="stop-opacity:1;stop-color:#f8ea15" />
        </linearGradient>
        <linearGradient inkscape:collect="always" xlink:href="#linearGradient3145" id="linearGradient4535" gradientUnits="userSpaceOnUse" gradientTransform="matrix(0.3511398,0,0,1.0948105,34.580243,117.15513)" spreadMethod="pad" x1="13.89893" y1="-15.4209" x2="14.48489" y2="-22.71619" />
        <linearGradient inkscape:collect="always" xlink:href="#linearGradient3153" id="linearGradient4537" gradientUnits="userSpaceOnUse" gradientTransform="matrix(0.9406573,0,0,0.7859019,25.572129,107.36988)" spreadMethod="pad" x1="-11.96777" y1="-38.751949" x2="-9.3002501" y2="-43.653702" />
        <linearGradient id="linearGradient3153" spreadMethod="pad" gradientTransform="matrix(8.49863,0,0,-7.10045,208.43312,245.50237)" gradientUnits="userSpaceOnUse" y2="-43.653702" x2="-9.3002501" y1="-38.751949" x1="-11.96777">
            <stop id="stop3155" offset="0" style="stop-opacity:1;stop-color:#ee531b" />
            <stop id="stop3157" offset="1" style="stop-opacity:1;stop-color:#f6d4a0" />
        </linearGradient>
        <linearGradient inkscape:collect="always" xlink:href="#linearGradient3161" id="linearGradient4539" gradientUnits="userSpaceOnUse" gradientTransform="matrix(0.6661945,0,0,0.7508087,28.769589,107.20192)" spreadMethod="pad" x1="-14.14014" y1="-32.173828" x2="-17.72328" y2="-39.770031" />
        <linearGradient id="linearGradient3161" spreadMethod="pad" gradientTransform="matrix(6.01892,0,0,-6.78339,237.32146,247.01984)" gradientUnits="userSpaceOnUse" y2="-39.770031" x2="-17.72328" y1="-32.173828" x1="-14.14014">
            <stop id="stop3163" offset="0" style="stop-opacity:1;stop-color:#de461f" />
            <stop id="stop3165" offset="1" style="stop-opacity:1;stop-color:#91191e" />
        </linearGradient>
        <linearGradient inkscape:collect="always" xlink:href="#linearGradient3169" id="linearGradient4541" gradientUnits="userSpaceOnUse" gradientTransform="matrix(0.6566049,0,0,0.4339276,28.969237,100.06541)" spreadMethod="pad" x1="-18.536619" y1="-39.275391" x2="-10.22168" y2="-39.275391" />
        <linearGradient id="linearGradient3169" spreadMethod="pad" gradientTransform="matrix(5.93228,0,0,-3.92044,239.12523,311.4967)" gradientUnits="userSpaceOnUse" y2="-39.275391" x2="-10.22168" y1="-39.275391" x1="-18.536619">
            <stop id="stop3171" offset="0" style="stop-opacity:1;stop-color:#efcb98" />
            <stop id="stop3173" offset="1" style="stop-opacity:1;stop-color:#faf9a6" />
        </linearGradient>
        <linearGradient inkscape:collect="always" xlink:href="#linearGradient3189" id="linearGradient4545" gradientUnits="userSpaceOnUse" gradientTransform="matrix(0.9458162,0,0,0.2839372,26.561984,97.876548)" spreadMethod="pad" x1="-3.8867199" y1="-13.42773" x2="1.13449" y2="-13.24753" />
        <linearGradient id="linearGradient3189" spreadMethod="pad" gradientTransform="matrix(8.54524,0,0,-2.56531,217.37624,331.27255)" gradientUnits="userSpaceOnUse" y2="-13.24753" x2="1.13449" y1="-13.42773" x1="-3.8867199">
            <stop id="stop3191" offset="0" style="stop-opacity:1;stop-color:#ee531b" />
            <stop id="stop3193" offset="1" style="stop-opacity:1;stop-color:#f6d4a0" />
        </linearGradient>
        <linearGradient inkscape:collect="always" xlink:href="#linearGradient3205" id="linearGradient4549" gradientUnits="userSpaceOnUse" gradientTransform="matrix(0.6597992,0,0,1.1490509,27.141366,115.86473)" spreadMethod="pad" x1="-34.025879" y1="-36.40723" x2="-33.829472" y2="-41.001949" />
        <linearGradient id="linearGradient3205" spreadMethod="pad" gradientTransform="matrix(5.96114,0,0,-10.38142,222.61082,168.7533)" gradientUnits="userSpaceOnUse" y2="-41.001949" x2="-33.829472" y1="-36.40723" x1="-34.025879">
            <stop id="stop3207" offset="0" style="stop-opacity:1;stop-color:#ee531b" />
            <stop id="stop3209" offset="1" style="stop-opacity:1;stop-color:#f6d4a0" />
        </linearGradient>
        <linearGradient inkscape:collect="always" xlink:href="#linearGradient3221" id="linearGradient4553" gradientUnits="userSpaceOnUse" gradientTransform="matrix(0.6279744,0,0,1.1114816,27.741135,116.28866)" spreadMethod="pad" x1="-30.213381" y1="-31.957029" x2="-37.865452" y2="-24.209431" />
        <linearGradient id="linearGradient3221" spreadMethod="pad" gradientTransform="matrix(5.67361,0,0,-10.04199,228.0296,164.92323)" gradientUnits="userSpaceOnUse" y2="-24.209431" x2="-37.865452" y1="-31.957029" x1="-30.213381">
            <stop id="stop3223" offset="0" style="stop-opacity:1;stop-color:#f4702a" />
            <stop id="stop3225" offset="1" style="stop-color:#ffef01;stop-opacity:1;" />
        </linearGradient>
        <linearGradient inkscape:collect="always" xlink:href="#linearGradient3229" id="linearGradient4555" gradientUnits="userSpaceOnUse" gradientTransform="matrix(0.5017013,0,0,0.6356005,28.865544,104.7489)" spreadMethod="pad" x1="-45.37402" y1="-39.330078" x2="-51.383011" y2="-31.54538" />
        <linearGradient id="linearGradient3229" spreadMethod="pad" gradientTransform="matrix(4.53276,0,0,-5.74251,238.18839,269.1824)" gradientUnits="userSpaceOnUse" y2="-31.54538" x2="-51.383011" y1="-39.330078" x1="-45.37402">
            <stop id="stop3231" offset="0" style="stop-opacity:1;stop-color:#f4702a" />
            <stop id="stop3233" offset="1" style="stop-opacity:1;stop-color:#f8ea15" />
        </linearGradient>
        <linearGradient inkscape:collect="always" xlink:href="#linearGradient3269" id="linearGradient4565" gradientUnits="userSpaceOnUse" gradientTransform="matrix(1.4745065,0,0,0.4653805,20.525983,102.50952)" spreadMethod="pad" x1="4.2080102" y1="-10.90137" x2="-3.8822" y2="-12.058" />
        <linearGradient id="linearGradient3269" spreadMethod="pad" gradientTransform="matrix(13.32184,0,0,-4.20461,162.8423,289.41464)" gradientUnits="userSpaceOnUse" y2="-12.058" x2="-3.8822" y1="-10.90137" x1="4.2080102">
            <stop id="stop3271" offset="0" style="stop-opacity:1;stop-color:#de461f" />
            <stop id="stop3273" offset="1" style="stop-opacity:1;stop-color:#91191e" />
        </linearGradient>
        <linearGradient inkscape:collect="always" xlink:href="#linearGradient3277" id="linearGradient4567" gradientUnits="userSpaceOnUse" gradientTransform="matrix(0.8193339,0,0,0.6066424,26.469753,106.84494)" spreadMethod="pad" x1="-12.71143" y1="-1.56836" x2="-21.30493" y2="-2.5172701" />
        <linearGradient id="linearGradient3277" spreadMethod="pad" gradientTransform="matrix(7.4025,0,0,-5.48088,216.54295,250.24515)" gradientUnits="userSpaceOnUse" y2="-2.5172701" x2="-21.30493" y1="-1.56836" x1="-12.71143">
            <stop id="stop3279" offset="0" style="stop-opacity:1;stop-color:#f4702a" />
            <stop id="stop3281" offset="0.75" style="stop-opacity:1;stop-color:#b41d23" />
            <stop id="stop3283" offset="0.75" style="stop-opacity:1;stop-color:#b41d23" />
            <stop id="stop5949" offset="1" style="stop-opacity:1;stop-color:#b41d23" />
        </linearGradient>
        <linearGradient inkscape:collect="always" xlink:href="#linearGradient3297" id="linearGradient4571" gradientUnits="userSpaceOnUse" gradientTransform="matrix(0.8992683,0,0,0.3347985,25.214855,96.900829)" spreadMethod="pad" x1="-18.515141" y1="-58.009769" x2="-16.13673" y2="-68.636703" />
        <linearGradient id="linearGradient3297" spreadMethod="pad" gradientTransform="matrix(8.12469,0,0,-3.02483,205.20522,340.08795)" gradientUnits="userSpaceOnUse" y2="-68.636703" x2="-16.13673" y1="-58.009769" x1="-18.515141">
            <stop id="stop3299" offset="0" style="stop-opacity:1;stop-color:#ee531b" />
            <stop id="stop3301" offset="1" style="stop-opacity:1;stop-color:#f6d4a0" />
        </linearGradient>
        <linearGradient inkscape:collect="always" xlink:href="#linearGradient3305" id="linearGradient4573" gradientUnits="userSpaceOnUse" gradientTransform="matrix(2.1140419,0,0,1.8955794,15.949997,133.706)" spreadMethod="pad" x1="10.87256" y1="-26.120119" x2="10.53322" y2="-32.914871" />
        <linearGradient id="linearGradient3305" spreadMethod="pad" gradientTransform="matrix(19.0999,0,0,-17.12614,121.49928,7.56142)" gradientUnits="userSpaceOnUse" y2="-32.914871" x2="10.53322" y1="-26.120119" x1="10.87256">
            <stop id="stop5935" offset="0" style="stop-opacity:1;stop-color:#f4702a" />
            <stop id="stop5937" offset="1" style="stop-opacity:1;stop-color:#f8ea15" />
        </linearGradient>
        <linearGradient inkscape:collect="always" xlink:href="#linearGradient3313" id="linearGradient4575" gradientUnits="userSpaceOnUse" gradientTransform="matrix(0.6291355,0,0,2.1277865,32.140719,140.72257)" spreadMethod="pad" x1="17.630859" y1="-19.693359" x2="18.91025" y2="-27.857929" />
        <linearGradient id="linearGradient3313" spreadMethod="pad" gradientTransform="matrix(5.6841,0,0,-19.22408,267.77887,-55.83174)" gradientUnits="userSpaceOnUse" y2="-27.857929" x2="18.91025" y1="-19.693359" x1="17.630859">
            <stop id="stop3315" offset="0" style="stop-opacity:1;stop-color:#f4702a" />
            <stop id="stop3317" offset="1" style="stop-opacity:1;stop-color:#f8ea15" />
        </linearGradient>
        <linearGradient inkscape:collect="always" xlink:href="#linearGradient3321" id="linearGradient4577" gradientUnits="userSpaceOnUse" gradientTransform="matrix(0.6009389,0,0,1.5258891,27.748735,127.32924)" spreadMethod="pad" x1="-41.377441" y1="-22.484381" x2="-35.833858" y2="-15.49803" />
        <linearGradient id="linearGradient3321" spreadMethod="pad" gradientTransform="matrix(5.42935,0,0,-13.78607,228.09827,65.174)" gradientUnits="userSpaceOnUse" y2="-15.49803" x2="-35.833858" y1="-22.484381" x1="-41.377441">
            <stop id="stop5927" offset="0" style="stop-opacity:1;stop-color:#f2521e" />
            <stop id="stop5929" offset="1" style="stop-opacity:1;stop-color:#f8ea15" />
        </linearGradient>
        <linearGradient id="linearGradient5630-7">
            <stop id="stop5632-7" offset="0" style="stop-color:#fba128;stop-opacity:1" />
            <stop id="stop5634-6" offset="1" style="stop-color:#b63702;stop-opacity:1" />
        </linearGradient>
        <linearGradient y2="0.11266359" x2="-42" y1="-7" x1="-42" gradientTransform="matrix(0.51096378,0,0,0.51096378,29.814587,1034.6561)" gradientUnits="userSpaceOnUse" id="linearGradient4055" xlink:href="#linearGradient5630-7" inkscape:collect="always" />
        <linearGradient y2="43.004219" x2="24.420143" y1="2.3661644" x1="24.420143" gradientTransform="matrix(0.51057193,0,0,0.51089558,-0.833961,1029.5416)" gradientUnits="userSpaceOnUse" id="linearGradient4057" xlink:href="#linearGradient3801-25-7" inkscape:collect="always" />
        <linearGradient y2="43.004219" x2="24.420143" y1="2.3661644" x1="24.420143" gradientTransform="matrix(0.51057193,0,0,0.51089558,-0.833961,1029.5416)" gradientUnits="userSpaceOnUse" id="linearGradient4059" xlink:href="#linearGradient3801-25-7" inkscape:collect="always" />
    </defs>
    <sodipodi:namedview id="base" pagecolor="#ffffff" bordercolor="#666666" borderopacity="1.0" inkscape:pageopacity="0.0" inkscape:pageshadow="2" inkscape:zoom="15.839192" inkscape:cx="17.922699" inkscape:cy="11.063947" inkscape:document-units="px" inkscape:current-layer="capa1" showgrid="true" inkscape:window-width="1280" inkscape:window-height="976" inkscape:window-x="0" inkscape:window-y="24" inkscape:window-maximized="1">
        <inkscape:grid type="xygrid" id="grid3028" empspacing="5" visible="true" enabled="true" snapvisiblegridlinesonly="true" />
    </sodipodi:namedview>
    <metadata id="metadata3025">
        <rdf:RDF>
            <cc:Work rdf:about="">
                <dc:format>image/svg+xml</dc:format>
                <dc:type rdf:resource="http://purl.org/dc/dcmitype/StillImage" />
                <dc:title />
            </cc:Work>
        </rdf:RDF>
    </metadata>
    <g inkscape:label="Capa 1" inkscape:groupmode="layer" id="capa1" transform="translate(0,-1030.3622)">
        <rect style="color:black;fill:url(#linearGradient4055);fill-opacity:1;fill-rule:nonzero;stroke:url(#linearGradient4057);stroke-width:1;stroke-linecap:butt;stroke-linejoin:miter;stroke-miterlimit:4;stroke-opacity:1;stroke-dasharray:none;stroke-dashoffset:0;marker:none;visibility:visible;display:inline;overflow:visible;enable-background:accumulate" id="rect3874" width="21" height="21" x="0.5" y="1030.8622" ry="2.5" />
        <g id="g4274" clip-path="url(#clipPath4310)" transform="matrix(0.49148196,0,0,0.49148196,-0.908875,1000.2298)">
            <path id="path3085" style="fill:url(#radialGradient4521);fill-opacity:1;fill-rule:nonzero;stroke:none" d="m 47.622066,89.901516 c 0,-12.912235 -10.532217,-23.37922 -23.52568,-23.37922 -12.992653,0 -23.5256819,10.466985 -23.5256819,23.37922 0,12.911264 10.5330289,23.378844 23.5256819,23.378844 12.993463,0 23.52568,-10.46758 23.52568,-23.378844 l 0,0 z" inkscape:connector-curvature="0" />
            <path id="path3093" style="fill:url(#radialGradient4523);fill-opacity:1;fill-rule:nonzero;stroke:none" d="m 22.352689,66.557803 c -1.023767,0 -0.909571,0.111008 -1.819628,0.226069 -3.070816,0.344642 -6.025112,1.266428 -8.641033,2.875228 -2.3886655,1.49428 -3.8874305,3.146316 -5.8206611,5.100246 3.314286,3.539113 10.1385021,0.529908 10.1385021,0.529908 0.796293,0.115061 0.911787,0.462405 1.935554,0.462405 1.25108,0 0.683989,-0.232392 1.935122,-0.462405 l 0.910058,-1.377435 0.341454,-0.68853 0.452624,-0.572927 -0.341563,-1.613826 c -4.42e-4,0 0.341563,0 0.341563,0 -0.113711,-0.689826 -0.910922,-1.263294 -1.593669,-1.492929 l 0,-0.231365 c 0.341616,-0.114629 0.91049,-0.457542 1.252106,-0.457542 0.34113,0 0.568442,0.231419 0.909571,0.231419 0.568928,-0.115007 0.685341,-0.693015 1.709054,-0.577954 0.682151,0.11463 0.679449,0.460245 1.020146,0.919949 0.683124,0.689392 0.683124,0.117708 1.252106,1.382354 -1.251241,0.115006 -0.229257,1.150069 -0.11598,1.839894 0.114142,0.344697 -0.11144,0.569793 0.11598,0.914975 0.114143,0.229636 0.682151,0.462893 0.910436,0.577954 -0.341563,0.45965 -0.457542,0.457866 -1.026416,0.572927 0.114142,0.344751 0.23196,0.805752 0.573414,1.035441 0.341562,0.115008 1.702297,-0.116411 1.93069,-0.231041 0.454732,-0.230013 0.798023,-0.688906 1.367113,-0.688906 l 2.497727,0.8044 c -0.340698,0.689447 -0.681395,0.690798 -0.568118,1.035495 0,0.345075 0.458407,0.690259 0.799969,0.919948 1.364411,0.804833 0.683124,0.575575 1.251133,1.035386 l 0.67945,0.457542 c 0.226554,0.230015 0.457542,0.68934 0.798238,0.804401 0.683017,0.229636 0.566171,-0.916813 0.453002,-1.261943 0.909572,-0.114628 1.594425,0.455705 2.277442,0.110576 0.568117,-0.22969 0.566279,-1.264644 1.362681,-0.920001 0.681286,0.230122 -0.0018,1.039061 0.225582,1.613826 0.114143,0.344697 0.455704,0.574386 0.683988,0.804455 l 0.456678,1.030522 c 0.341454,0.344589 0.632755,0.631403 1.087485,1.320743 0.796294,-1.838923 -1.429155,-4.76598 -2.680289,-5.915455 -0.568873,-0.459757 -2.433953,-6.082669 -2.662238,-6.312791 -0.341562,-0.459758 -2.227179,-1.389541 -2.682019,-1.619609 -1.591722,-0.8044 -3.526952,-1.379273 -5.232817,-1.72397 -0.682152,-0.114953 -2.615544,-0.457434 -3.296723,-0.457434 l -3.187714,0 m 8.314388,14.386735 c -0.108845,-0.01621 -0.230122,-0.01848 -0.372043,0.0098 -1.139693,0.228337 -0.0018,1.253348 0.226339,2.051101 0.113278,0.227798 0.116953,0.569792 -0.110467,0.683502 -0.228285,0.227906 -0.572549,-0.227852 -0.914976,-0.341562 l -0.683989,-0.111008 c -0.455705,-0.227797 -0.911408,-1.028685 -2.051102,-0.572927 -1.025443,0.456083 -0.115006,1.255186 -0.115006,1.824979 0,0.341562 -0.339725,0.571144 -0.56801,0.79905 0.228285,0.683935 0.45484,0.45257 1.025443,0.79451 0.455813,0.227853 0.57082,0.684962 0.799104,0.799104 l 1.367977,0.341941 c -0.456676,1.02555 -0.914111,1.254754 -0.79986,2.508157 0,0.22823 0.116844,0.454299 0.231744,0.568009 0.22742,0.342048 1.022848,-0.112359 1.251133,0.457542 0.113277,0.34194 -0.228285,0.565793 -0.341454,0.794077 -0.114142,0.341563 -0.114142,0.457434 0,0.79986 0.227311,-0.115006 0.797267,-0.342426 1.024578,0 0,0.113278 0,0.22742 0,0.341563 -0.113169,0.113278 -0.454731,0.228284 -0.683124,0.341562 -0.798023,0.456678 -0.454732,0.799969 -1.709431,0.799969 0.228284,0.341562 0.568008,0.9113 0.568008,1.36614 -0.228284,0.798131 -1.191792,0.08096 -1.761638,0.194236 -0.342427,0.115007 -0.746033,0.71901 -1.088459,0.947295 l -3.005206,1.526111 c -2.165569,1.025552 -3.916073,0.945565 -6.309549,0.945565 0.797699,1.024687 3.618991,3.224956 4.987023,3.339956 0,-0.68496 0.0014,-1.14326 0.457001,-1.59896 0.114143,-0.11414 0.224718,-0.22569 0.45257,-0.22569 0.114197,0 1.369275,-0.002 0.799482,-0.799863 0,-0.113278 -0.112358,-0.112412 -0.2265,-0.226554 l 0.910002,-0.909464 0.79905,-0.799104 -0.457001,2.392664 1.025119,-0.342535 1.482984,0.342535 1.025551,0.115871 c -0.228284,0.79727 0.228285,0.79727 0.683124,1.36711 0.342427,0.45571 0.344157,0.68032 0.458299,1.13613 1.556701,-0.17802 2.89236,-0.93216 3.759777,-2.16168 0.114142,-0.22828 0.112305,-1.143257 0.225581,-1.598096 0.115008,-0.456569 0.228285,-1.596155 1.026416,-1.367979 0.113278,0 0.22742,0.116844 0.341454,0.231852 1.139801,-0.342319 0.345237,-1.139693 -0.110466,-1.709432 0.342426,-0.114142 1.02555,-0.114142 1.367112,-0.341562 0.456569,-0.342427 0.228285,-0.801698 0.341563,-1.256538 0,-0.456569 0.226446,-0.683123 0.226446,-1.25297 0,-0.568874 -0.453867,-0.911408 -0.226446,-1.366248 0.228284,-0.569739 0.68215,0 1.251889,-0.341346 0.342535,-0.342535 9.96e-4,-0.573954 0.799212,-1.25751 -0.22742,-1.253404 0.341454,-0.909571 0.341454,-2.277062 -0.454732,-0.227853 -0.454732,-0.227853 -0.683124,-0.683611 -0.341563,0 -0.798996,0 -1.141423,0 -0.341562,0.11371 -0.568981,0.340211 -1.024686,0.226069 -0.569738,-0.227853 -0.571576,-0.794078 -0.79986,-1.136127 -0.113278,-0.114142 -0.455705,-0.345129 -0.341671,-0.572927 0,-0.227853 0.800077,-1.025551 0.115115,-1.367545 -0.227311,-0.11371 -0.456569,0.115925 -1.140558,0.115925 0.114142,-0.342048 0.687556,-0.910058 0.57255,-1.252052 0,-0.341508 -0.3434,-0.571144 -0.456678,-0.79905 -0.798131,-1.025496 -0.458299,-1.142827 -1.940527,-1.256429 -0.342318,0 -0.554497,-0.188345 -0.879846,-0.236391 l 0,-3e-6 z" inkscape:connector-curvature="0" sodipodi:nodetypes="cccccsccccccccsccccccccccccccccccccccccccccsccccccccsccccccccccccccccccccscccccccccccccccccsccccccccccccccccc" />
            <path inkscape:connector-curvature="0" d="m 47.622066,89.901516 c 0,-12.912235 -10.532217,-23.37922 -23.52568,-23.37922 -12.992653,0 -23.5256819,10.466985 -23.5256819,23.37922 0,12.911264 10.5330289,23.378844 23.5256819,23.378844 12.993463,0 23.52568,-10.46758 23.52568,-23.378844 l 0,0 z" style="fill:none;stroke:#fff101;stroke-width:1.01733136;stroke-miterlimit:4;stroke-opacity:1;stroke-dasharray:none" id="path4086" />
            <path id="path3095" style="fill:#f4702a;fill-opacity:1;fill-rule:nonzero;stroke:none" d="m 41.628841,73.503241 -1.673545,-0.534286 c 2.398067,1.745047 4.540829,4.599631 5.585187,6.937817 -0.521422,-4.403609 -3.626719,-8.148525 -8.445121,-9.608648 2.46811,1.210708 3.976279,2.26728 4.533479,3.205117 l 0,0 z" inkscape:connector-curvature="0" />
            <path id="path3103" style="fill:url(#linearGradient4525);fill-opacity:1;fill-rule:nonzero;stroke:none" d="m 11.132917,87.680606 c -1.7688274,0.747329 -2.827616,2.694125 -2.9107359,4.830077 0.08312,2.836586 1.4820651,5.098137 4.1169579,6.606307 2.089256,1.29329 4.382586,2.3143 6.720828,2.95516 1.139692,0.37939 2.235231,0.36675 3.23257,0.33173 -1.946903,-0.65254 -3.711623,-1.76802 -5.278268,-3.357904 -0.985125,-1.05614 -1.795795,-2.325216 -2.412877,-3.784962 -0.6053,-2.101363 -0.806616,-3.812633 -0.628269,-5.142455 l 0,-0.01033 c 0.04718,-1.16304 0.531691,-1.802982 1.457422,-1.945444 -0.664695,-0.0594 -1.124831,-0.09847 -1.362087,-0.110575 -0.21353,-0.01167 -0.429655,-0.0234 -0.643617,-0.03508 -1.26686,-0.06599 -1.042574,-0.319943 -2.291924,-0.336536 l 0,5e-6 z" inkscape:connector-curvature="0" />
            <path id="path3105" style="fill:#ff4b0a;fill-opacity:1;fill-rule:nonzero;stroke:none" d="m 35.481049,72.411269 c -1.223247,-0.225637 -2.326946,-0.142516 -3.300398,0.237256 6.979215,2.753465 10.291286,6.029598 9.911136,9.815855 -0.510505,-0.794995 -1.18736,-1.317607 -2.053803,-1.578318 1.068678,4.154247 1.175687,7.584136 0.309243,10.2908 -0.593194,-1.804335 -1.139693,-2.884686 -1.626852,-3.26435 0.67772,5.567082 -0.237256,9.685391 -2.741359,12.367518 0.474511,-1.63766 0.665073,-2.978615 0.5572,-4.035728 -2.942623,4.404208 -6.289714,6.682618 -10.041384,6.825618 -1.482985,-0.0126 -2.883822,-0.23725 -4.200943,-0.66518 -0.99734,0.036 -2.065532,-0.13025 -3.205171,-0.5105 -2.338295,-0.64087 -4.545693,-1.60156 -6.635005,-2.895933 -2.6348375,-1.507304 -3.9996269,-3.679681 -4.0827479,-6.516376 0.083121,-2.136438 1.0088515,-3.572242 2.7772459,-4.320057 0.118682,-0.04761 0.249416,-0.09523 0.379718,-0.142462 0.641347,-0.01211 1.270102,-0.01211 1.899182,0 l 0,0 c 0.213962,0.01173 0.427384,0.02383 0.640915,0.03551 0.237688,0.01173 0.700527,0.04761 1.365222,0.106955 1.044466,0.09479 2.243446,0.332104 3.596129,0.723982 0.225637,-1.293775 -0.07101,-2.646998 -0.889791,-4.035621 0,-0.01211 0,-0.02378 0,-0.02378 -0.213963,-0.474565 -0.653021,-0.90195 -1.341441,-1.269995 -0.83099,-2.112712 -1.056573,-4.178135 -0.700202,-6.195946 l 0.01162,-0.05934 -0.08312,-0.08318 -3.857165,0.130842 -6.4098005,-1.068192 c -1.5190334,0.84261 -2.8128072,1.886968 -3.8932133,3.145289 -0.1541898,0.213423 -0.3559379,0.510074 -0.5932476,0.890332 l -0.012107,0 0.012107,0.01167 C 1.9938613,81.78758 -0.9649196,88.58661 -0.13938857,92.123291 3.3739992,100.10741 8.7030153,102.80208 10.388775,103.05728 c 5.204877,6.14963 23.614585,7.37114 28.498814,-2.52735 l 2.640621,-2.752166 c 2.115739,-2.441195 2.4987,-8.227213 2.676614,-14.304532 0,-0.03551 0,-0.08312 0,-0.130302 -1.508169,-5.092193 -5.827848,-9.60238 -3.513333,-7.478047 -1.573887,-3.186201 -5.127754,-4.973079 -7.798964,-5.673226 1.317608,0.581465 2.18416,1.329281 2.588522,2.219612 l 0,0 z" inkscape:connector-curvature="0" />
            <path id="path3113" style="fill:url(#linearGradient4527);fill-opacity:1;fill-rule:nonzero;stroke:none" d="m 40.924207,91.275871 c 0.473648,0.497859 1.096566,0.510397 1.869512,0.03772 0.722684,-3.83933 0.186886,-6.917658 -1.595398,-9.223148 0.622919,2.916194 0.524126,5.969824 -0.274114,9.185425 z" inkscape:connector-curvature="0" />
            <path id="path3125" style="fill:url(#linearGradient4529);fill-opacity:1;fill-rule:nonzero;stroke:none" d="m 46.641481,83.686329 c -0.403498,-1.590425 -1.093863,-2.652834 -1.948634,-3.649687 0.178132,0.581575 0.556336,2.451573 0.425224,3.424916 1.175687,3.37098 1.270913,7.204365 0.261467,11.477782 1.317717,-2.207507 2.409634,-4.70037 3.287968,-7.465995 -0.03513,5.887675 -15.383155,23.940965 -23.311502,25.292725 l -3.014989,-4.68805 c 4.486407,-0.18959 8.617363,-1.55497 12.392272,-4.08242 0,-0.0125 0.07015,-0.0476 0.212936,-0.11858 -0.509642,-0.64172 -0.925676,-1.12802 -1.234056,-1.43628 -0.309135,-0.31995 -0.985016,-0.11869 -2.006136,0.61654 -1.423643,0.85563 -2.611868,1.42461 -3.572674,1.67365 -2.065478,1.72208 -4.54618,2.25593 -7.453781,1.62674 -1.471743,0.0117 -2.979589,-0.20212 -4.5578,-0.65253 0.220178,0.48175 0.51591,0.64994 0.987233,1.07689 -2.388503,-0.60324 -4.922223,-2.15724 -6.720234,-3.72475 -0.8912488,-0.27325 -1.3999708,-0.36848 -3.050548,-1.41197 l -0.023833,0.0117 c -0.4975351,-0.0827 -6.32624806,-8.236618 -5.9941979,-12.961254 -0.3675585,0.474999 -0.77110907,1.982303 -1.22227343,4.498081 -0.13084216,-0.533853 -0.21396318,-1.115374 -0.24947042,-1.756235 0,-0.02335 0,-0.03589 0.0121597,-0.05934 -0.35636956,-3.4541 0.90189704,-6.421041 3.77453085,-8.901744 0.2372565,-0.747816 0.6704779,-1.703703 0.9909086,-2.332405 l -0.035507,-0.08312 c -1.993977,0.759435 -3.9587689,2.759356 -5.57302763,5.43008 -0.0116738,0.284978 0.0121597,0.557686 0.0831199,0.807211 l 1.47185125,-1.198656 c -0.53395996,1.341063 -0.89033063,2.765193 -1.06824534,4.27293 -0.54601338,4.949299 0.84304226,9.839689 4.19013372,14.669872 5.0207462,6.49292 11.3353207,9.97124 18.9315637,10.43332 7.597108,0.45127 14.077491,-2.34954 19.43072,-8.37962 3.619585,-4.43912 5.838765,-9.080581 6.669972,-13.934112 0.83153,-3.335419 0.925892,-6.219672 0.273357,-8.641034 -0.225582,1.732833 -0.475485,2.62311 -0.724414,2.682398 -0.07101,-2.8842 -0.49894,-5.460238 -1.293504,-7.726978 0.462946,2.45687 0.145704,3.310774 -0.340589,5.209956 l 0,0 z" inkscape:connector-curvature="0" />
            <path id="path3143" style="fill:url(#linearGradient4533);fill-opacity:1;fill-rule:nonzero;stroke:none;stroke-width:1;marker:none;visibility:visible;display:inline;overflow:visible;enable-background:accumulate" d="m 41.499459,102.09463 c 0.5051,-1.0704 0.938323,-2.213666 1.275345,-3.429777 0.288489,-1.059707 0.517747,-2.177783 0.674152,-3.357901 -0.818884,1.034522 -1.61334,1.99803 -2.407039,2.900467 -0.698257,0.794456 -1.395757,1.527842 -2.069909,2.214641 -1.384192,1.37144 -2.719743,2.5148 -3.996061,3.39389 -0.143866,0.0718 -0.216611,0.10777 -0.216611,0.12042 -3.827116,2.56333 -8.015575,3.94741 -12.564836,4.13981 l 3.057305,4.75463 c 8.039679,-1.37327 13.455059,-4.94703 16.247654,-10.73618 z" inkscape:connector-curvature="0" />
            <path id="path3151" style="fill:url(#linearGradient4535);fill-opacity:1;fill-rule:nonzero;stroke:none" d="m 40.928747,98.345774 c 0.04767,-0.652536 0.05934,-1.294261 0.03502,-1.899237 -0.05934,-1.780446 -0.47462,-3.441454 -1.258267,-5.020638 0.107765,3.204197 -0.438626,5.970742 -1.649334,8.308497 l 0.831422,0.795534 c 0.664209,-0.676852 1.352629,-1.400402 2.041158,-2.184156 l 0,0 z" inkscape:connector-curvature="0" />
            <path id="path3159" style="fill:url(#linearGradient4537);fill-opacity:1;fill-rule:nonzero;stroke:none" d="m 13.237523,75.058267 c -0.48678,0.56936 -0.843151,1.198493 -1.056573,1.898695 -0.01167,0.142408 -0.01167,0.261036 -0.01167,0.391878 0.878117,1.234488 2.171999,1.198548 3.857165,-0.130842 0.04761,-0.02329 0.08312,-0.05923 0.118683,-0.08263 0.201748,-1.080352 0.534338,-2.006191 1.008904,-2.801619 l 0.1069,-0.09479 c 0.475053,-0.783323 1.388678,-1.625932 2.730119,-2.527884 -2.492809,0.308325 -4.747929,1.424185 -6.753524,3.347201 l 0,0 z" inkscape:connector-curvature="0" />
            <path id="path3167" style="fill:url(#linearGradient4539);fill-opacity:1;fill-rule:nonzero;stroke:none" d="m 16.109562,77.360514 -0.01162,0 c -0.356371,2.017811 -0.130788,4.083234 0.700202,6.195946 1.29372,-0.771649 2.848746,-1.460123 4.676427,-2.041698 C 21.142413,80.96875 20.453992,80.48251 19.40958,80.055125 19.041482,79.948117 18.578644,79.627741 18.008743,79.081673 l -1.460124,-1.42413 -0.439058,-0.34421 c 0,0.01167 0,0.02335 0,0.04718 l 0,0 z" inkscape:connector-curvature="0" />
            <path id="path3175" style="fill:url(#linearGradient4541);fill-opacity:1;fill-rule:nonzero;stroke:none" d="m 16.798145,83.55646 c 0.68842,0.368045 1.127478,0.79543 1.341441,1.269995 1.269995,-1.1752 2.397528,-2.029538 3.358766,-2.575497 0.427385,-0.225636 0.676422,-0.5699 0.759543,-1.032792 -0.154135,0.142462 -0.415279,0.237255 -0.783323,0.296596 -1.827681,0.581575 -3.382707,1.270049 -4.676427,2.041698 l 0,0 z" inkscape:connector-curvature="0" />
            <path id="path3177" style="fill:black;fill-opacity:1;fill-rule:nonzero;stroke:none" d="m 19.421255,80.019186 -0.01167,0.03594 c 1.044412,0.427385 1.732833,0.913625 2.064991,1.459637 0.368044,-0.05934 0.629188,-0.154134 0.783323,-0.296596 0.01211,-0.01167 0.02378,-0.02378 0.03599,-0.02378 l 0.01162,-0.01167 c 0.01167,-0.01221 0.03551,-0.03594 0.04761,-0.04772 0.248983,-0.36799 0.165808,-0.664695 -0.261144,-0.925731 -0.890169,0.04761 -1.7805,-0.01162 -2.670723,-0.190074 l 0,0 z" inkscape:connector-curvature="0" />
            <path id="path3187" style="fill:#ee531b;fill-opacity:1;fill-rule:nonzero;stroke:none" d="m 13.973123,90.120343 0,0 c -0.177914,1.329768 0.02389,3.038443 0.629188,5.138941 2.433089,1.518979 5.15148,1.994464 8.177763,1.424617 0.878604,-0.225583 1.674033,-0.545635 2.398015,-0.996799 0.652534,-0.439491 1.222273,-0.404471 1.673545,0.09534 0.41528,-0.154569 0.807103,-0.143003 1.187361,0.03491 0.782891,-0.106793 1.055168,-0.52218 0.794564,-1.222274 -0.379393,-0.522287 -0.949132,-0.996799 -1.685328,-1.41197 -1.60253,-0.831423 -3.276131,-0.701175 -5.020692,0.402633 -1.661925,0.938323 -3.263971,0.902437 -4.818889,-0.09523 -1.021065,-0.699337 -2.006137,-1.63766 -2.955755,-2.812483 l -0.379772,-0.557686 z" inkscape:connector-curvature="0" />
            <path id="path3195" style="fill:url(#linearGradient4545);fill-opacity:1;fill-rule:nonzero;stroke:none" d="m 24.952506,94.178932 c 0.01167,0 0.02324,0 0.02324,0 0.09533,0 0.178132,0 0.237364,-0.0108 0.605841,0.0108 1.08046,0.153703 1.400405,0.438626 0.404469,0.593194 0.926649,0.807103 1.579184,0.652534 0.594058,-0.130355 0.664101,-0.438626 0.213908,-0.913245 -0.843096,-0.700959 -1.73386,-1.162933 -2.682991,-1.389487 -0.996691,-0.09436 -2.622677,0.487157 -4.88985,1.745425 2.100931,-0.404362 3.46572,-0.582277 4.118741,-0.523044 l 0,-6e-6 z" inkscape:connector-curvature="0" />
            <path id="path3211" style="fill:url(#linearGradient4549);fill-opacity:1;fill-rule:nonzero;stroke:none" d="m 7.338227,75.449712 0.011674,-0.01178 C 5.9257164,74.785018 4.9644787,72.921343 4.5015863,69.871279 2.6855241,71.651347 1.8069746,74.83263 1.8662622,79.425937 l 5.4719648,-3.976225 0,0 z" inkscape:connector-curvature="0" />
            <path id="path3227" style="fill:url(#linearGradient4553);fill-opacity:1;fill-rule:nonzero;stroke:none" d="M 9.4269976,82.035645 7.6495783,80.895465 C 6.9629405,81.716997 6.3867714,82.562742 5.9085837,83.445452 5.3693807,84.425985 4.9649103,85.467749 4.6709618,86.558856 4.6463181,86.681483 4.6094595,86.80384 4.585139,86.938627 4.3518826,87.956071 4.2296881,89.022534 4.2049349,90.137908 5.5168143,86.22767 7.2573218,83.51863 9.4269976,82.035645 z" inkscape:connector-curvature="0" />
            <path id="path3235" style="fill:url(#linearGradient4555);fill-opacity:1;fill-rule:nonzero;stroke:none" d="m 4.5033694,80.362531 c -0.3393453,0.666046 -0.6282688,1.394945 -0.8794681,2.186322 -0.2763842,0.829584 -0.4651614,1.721699 -0.5654151,2.651483 1.3819221,-2.236637 2.7769214,-3.983521 4.1718676,-5.277728 -0.779324,-0.03735 -1.6713304,0.06285 -2.6641306,0.327131 -0.012538,0.01254 -0.012538,0.02518 -0.025076,0.03729 -0.012593,0.02513 -0.025239,0.05031 -0.037777,0.0755 l 0,0 z" inkscape:connector-curvature="0" />
            <path id="path3275" style="fill:url(#linearGradient4565);fill-opacity:1;fill-rule:nonzero;stroke:none" d="m 26.863308,95.793138 -0.01167,-0.0107 c -0.451272,-0.499806 -1.050735,-0.681395 -1.673545,-0.09534 -0.723982,0.451164 -1.607071,0.683016 -2.485621,0.90957 -3.02677,0.568983 -5.657068,0.181591 -8.090157,-1.337388 0.617082,1.459637 1.405323,2.759303 2.390394,3.816308 2.456869,0.213908 4.695775,-0.207531 6.665973,-1.204439 l 3.20463,-2.078016 0,3e-6 z" inkscape:connector-curvature="0" />
            <path id="path3287" style="fill:url(#linearGradient4567);fill-opacity:1;fill-rule:nonzero;stroke:none" d="m 16.359086,108.16157 c -2.171999,-1.22324 -4.011895,-2.59933 -5.519632,-4.16597 -0.4984,-0.23726 -0.9257306,-0.52305 -1.2938281,-0.87898 0.3087568,0.7604 0.6885281,1.55486 1.1752001,2.37461 1.424617,1.13969 3.299911,2.02948 5.63826,2.67034 l 0,0 z" inkscape:connector-curvature="0" />
            <path id="path3303" style="fill:url(#linearGradient4571);fill-opacity:1;fill-rule:nonzero;stroke:none" d="m 12.18095,76.956962 c 0.213422,-0.700202 0.569793,-1.329335 1.056573,-1.898695 -1.661873,-0.605895 -3.6320705,-0.475053 -5.899296,0.391445 l -0.2732497,0.201749 c -0.4507869,0.190128 -0.8781709,0.403551 -1.3055018,0.629187 1.554918,1.044359 3.6796818,1.400297 6.4098005,1.068192 0,-0.130842 0,-0.24947 0.01167,-0.391878 l 0,0 z" inkscape:connector-curvature="0" />
            <path id="path6061" style="fill:url(#linearGradient4573);fill-opacity:1;fill-rule:nonzero;stroke:none" d="m 39.955296,72.968955 1.673545,0.534286 c -0.5572,-0.937837 -2.065369,-1.994409 -4.533479,-3.205117 -2.065586,-0.616974 -4.522887,-0.972912 -7.359366,-1.056033 1.245621,0.248931 2.302626,0.557688 3.156531,0.949566 2.67121,0.700147 5.270648,2.587224 7.798964,5.673226 -2.314515,-2.124333 -4.570447,-3.157071 -6.754498,-3.086002 5.329882,1.946741 8.759662,5.690304 10.267831,10.782065 0.01178,-0.629187 0.664317,-0.811697 0.913247,-0.09939 0.131112,-0.973343 0.118574,-1.744992 -0.05934,-2.326567 0.855635,0.997232 1.472284,2.278954 1.87589,3.86938 0.486185,-1.899184 0.510397,-4.071128 0.04745,-6.527998 0,-0.01167 -0.01254,-0.03551 -0.02324,-0.05929 -0.618487,-1.768881 -1.460503,-3.3472 -2.51675,-4.74793 0.652534,2.56377 0.878117,4.379831 0.688528,5.471911 -0.01254,-0.02389 -0.02324,-0.03551 -0.02324,-0.0594 -1.045439,-2.338241 -2.754007,-4.367671 -5.152074,-6.112718 l 0,0 z" inkscape:connector-curvature="0" />
            <path id="path3319" style="fill:url(#linearGradient4575);fill-opacity:1;fill-rule:nonzero;stroke:none" d="m 44.216607,83.22922 c 0,0.04815 0,0.09625 0,0.132626 -0.180727,6.179247 -1.279129,10.572589 -3.295102,13.191699 0.02432,0.614812 0.01178,1.267347 -0.03686,1.93069 0.797267,-0.905139 1.593668,-1.870484 2.414173,-2.908574 -0.156405,1.182822 -0.386419,2.305436 -0.675882,3.366873 1.013877,-1.194494 1.943337,-2.497727 2.788054,-3.922343 1.026416,-4.344378 0.929352,-8.242887 -0.265143,-11.670505 -0.253361,-0.723982 -0.555362,-1.411971 -0.90503,-2.100066 0,0.688095 -0.01254,1.339658 -0.02421,1.9796 l 0,0 z" inkscape:connector-curvature="0" />
            <path id="path3327" style="fill:url(#linearGradient4577);fill-opacity:1;fill-rule:nonzero;stroke:none" d="m 2.0208293,93.822994 c 0.2611442,2.018675 0.8664983,3.72735 1.614313,5.151967 0.5931944,1.115369 1.3293364,2.065369 2.2191269,2.848259 0.3680444,0.32092 0.7478158,0.60498 1.1634729,0.86644 -1.1396395,-1.28161 -1.8753487,-2.52831 -2.1841056,-3.738047 l 0.035507,0.141922 C 4.8458504,99.057649 4.8336365,98.998307 4.822017,98.962314 4.3824722,97.668918 4.2759505,96.256949 4.5015863,94.71365 3.7177774,93.289033 3.207704,91.579602 2.9700158,90.001228 2.6379114,90.808439 2.0357461,92.850407 2.0208293,93.822994 l 0,0 z" inkscape:connector-curvature="0" />
        </g>
        <rect ry="2.5" y="1030.8622" x="0.5" height="21" width="21" id="rect5396" style="color:black;fill:none;stroke:url(#linearGradient4059);stroke-width:1;stroke-linecap:butt;stroke-linejoin:miter;stroke-miterlimit:4;stroke-opacity:1;stroke-dasharray:none;stroke-dashoffset:0;marker:none;visibility:visible;display:inline;overflow:visible;enable-background:accumulate" />
        <rect width="19" height="19" ry="1.5" x="1.5" y="1031.8622" id="rect4513" style="fill:none;stroke:url(#linearGradient3120);stroke-width:1;stroke-miterlimit:4;stroke-opacity:1;stroke-dasharray:none" />
        <path style="opacity:0.98999999;fill:url(#linearGradient5698);stroke:none" inkscape:connector-curvature="0" d="m 9,1031.3622 10,0 c 1.021229,0 2,0.9424 2,2 l 0,16 -7,0 z" id="path57-5-0" sodipodi:nodetypes="cssccc" />
    </g>
</svg>
