<?xml version="1.0" encoding="UTF-8" standalone="no"?>
<!-- Created with Inkscape (http://www.inkscape.org/) -->

<svg xmlns:dc="http://purl.org/dc/elements/1.1/" xmlns:cc="http://creativecommons.org/ns#" xmlns:rdf="http://www.w3.org/1999/02/22-rdf-syntax-ns#" xmlns:svg="http://www.w3.org/2000/svg" xmlns="http://www.w3.org/2000/svg" xmlns:xlink="http://www.w3.org/1999/xlink" xmlns:sodipodi="http://sodipodi.sourceforge.net/DTD/sodipodi-0.dtd" xmlns:inkscape="http://www.inkscape.org/namespaces/inkscape" width="22" height="22" id="svg3811" version="1.1" inkscape:version="0.48.4 r9939" sodipodi:docname="google-chrome.svg">
    <defs id="defs3813">
        <linearGradient inkscape:collect="always" xlink:href="#linearGradient4594-3-7" id="linearGradient4533" gradientUnits="userSpaceOnUse" gradientTransform="matrix(0.51559287,0,0,0.4931506,-0.13930596,1028.4034)" x1="8.2114201" y1="-5.7136502" x2="31.74275" y2="25.48744" />
        <linearGradient y2="25.48744" y1="-5.7136502" x2="31.74275" x1="8.2114201" id="linearGradient4594-3-7" gradientUnits="userSpaceOnUse">
            <stop id="stop37-5-1-3-5" stop-color="#fff" offset="0" />
            <stop id="stop39-0-2" stop-opacity="0" stop-color="#fff" offset="1" />
        </linearGradient>
        <linearGradient inkscape:collect="always" xlink:href="#linearGradient4050" id="linearGradient3120" gradientUnits="userSpaceOnUse" gradientTransform="matrix(0.53950487,0,0,0.61161008,-1.971526,1027.933)" x1="22.440199" y1="4.8942533" x2="22.440199" y2="38.21666" />
        <linearGradient id="linearGradient4050">
            <stop id="stop4052" offset="0" style="stop-color:#ffffff;stop-opacity:0.66929132;" />
            <stop id="stop4054" offset="1" style="stop-color:#ffffff;stop-opacity:0;" />
        </linearGradient>
        <linearGradient inkscape:collect="always" xlink:href="#linearGradient3887" id="linearGradient7203" x1="22.450642" y1="10.611728" x2="22.450642" y2="31.410263" gradientUnits="userSpaceOnUse" />
        <linearGradient id="linearGradient3887">
            <stop id="stop3889" offset="0" style="stop-color:#6edeff;stop-opacity:1;" />
            <stop id="stop3891" offset="1" style="stop-color:#0055bc;stop-opacity:0.18461539;" />
        </linearGradient>
        <radialGradient inkscape:collect="always" xlink:href="#linearGradient7226" id="radialGradient7232" cx="11.75" cy="14.108196" fx="11.75" fy="14.108196" r="10.75" gradientTransform="matrix(0.78643365,0,0,0.7238372,1.5094049,1033.4271)" gradientUnits="userSpaceOnUse" />
        <linearGradient id="linearGradient7226">
            <stop style="stop-color:#303030;stop-opacity:1;" offset="0" id="stop7228" />
            <stop style="stop-color:#4e4e4e;stop-opacity:1;" offset="1" id="stop7230" />
        </linearGradient>
        <linearGradient inkscape:collect="always" xlink:href="#linearGradient7205" id="linearGradient4043-97" x1="13.651562" y1="23.322702" x2="6.4162169" y2="30.558046" gradientUnits="userSpaceOnUse" gradientTransform="matrix(0.55805663,0,0,0.55805666,-2.0966778,1031.4942)" />
        <linearGradient id="linearGradient7205">
            <stop id="stop7207" offset="0" style="stop-color:#58bc54;stop-opacity:1" />
            <stop id="stop7209" offset="1" style="stop-color:#338540;stop-opacity:1" />
        </linearGradient>
        <linearGradient inkscape:collect="always" xlink:href="#linearGradient7211" id="linearGradient4063-6" x1="36.996616" y1="22.483704" x2="36.996616" y2="36.919563" gradientUnits="userSpaceOnUse" gradientTransform="matrix(0.53804003,0,0,0.53804006,-1.5257829,1031.8368)" />
        <linearGradient id="linearGradient7211">
            <stop id="stop7213" offset="0" style="stop-color:#fcd209;stop-opacity:1" />
            <stop id="stop7215" offset="1" style="stop-color:#d59c28;stop-opacity:1" />
        </linearGradient>
        <linearGradient id="linearGradient4029-7">
            <stop style="stop-color:#f06b59;stop-opacity:1" offset="0" id="stop4031-4" />
            <stop style="stop-color:#901f16;stop-opacity:1" offset="1" id="stop4033-2" />
        </linearGradient>
        <linearGradient y2="17.647039" x2="20.784166" y1="3.6142881" x1="20.784166" gradientTransform="matrix(0.53804003,0,0,0.53804006,-1.7804799,1029.8502)" gradientUnits="userSpaceOnUse" id="linearGradient3809" xlink:href="#linearGradient4029-7" inkscape:collect="always" />
    </defs>
    <sodipodi:namedview id="base" pagecolor="#ffffff" bordercolor="#666666" borderopacity="1.0" inkscape:pageopacity="0.0" inkscape:pageshadow="2" inkscape:zoom="5.6568542" inkscape:cx="28.643946" inkscape:cy="0.30176893" inkscape:document-units="px" inkscape:current-layer="capa1" showgrid="true" inkscape:window-width="1280" inkscape:window-height="976" inkscape:window-x="0" inkscape:window-y="24" inkscape:window-maximized="1">
        <inkscape:grid type="xygrid" id="grid3898" empspacing="5" visible="true" enabled="true" snapvisiblegridlinesonly="true" />
    </sodipodi:namedview>
    <metadata id="metadata3816">
        <rdf:RDF>
            <cc:Work rdf:about="">
                <dc:format>image/svg+xml</dc:format>
                <dc:type rdf:resource="http://purl.org/dc/dcmitype/StillImage" />
                <dc:title />
            </cc:Work>
        </rdf:RDF>
    </metadata>
    <g inkscape:label="Capa 1" inkscape:groupmode="layer" id="capa1" transform="translate(0,-1030.3622)">
        <path style="color:black;fill:url(#linearGradient3809);fill-opacity:1;fill-rule:nonzero;stroke:none;stroke-width:1;marker:none;visibility:visible;display:inline;overflow:visible;enable-background:accumulate" d="m 1.5864799,1030.9406 c -0.5961479,0 -1.0760799,0.4799 -1.0760799,1.076 l 0,5.2867 6.1561546,6.3699 c -0.135448,-0.446 -0.18256,-1.7506 -0.18256,-2.2408 0,-2.6744 1.8438399,-4.6531 4.5181844,-4.6623 l 10.491782,0 0,-4.7535 c 0,-0.5961 -0.479932,-1.076 -1.076081,-1.076 z" id="path5704" inkscape:connector-curvature="0" sodipodi:nodetypes="ssccsscsss" />
        <path style="color:black;fill:url(#linearGradient4063-6);fill-opacity:1;fill-rule:nonzero;stroke:none;stroke-width:1;marker:none;visibility:visible;display:inline;overflow:visible;enable-background:accumulate" d="m 12.484392,1036.9119 c 1.564198,0.8028 3.071993,2.6414 3.071993,4.5205 0,1.1785 -0.46268,2.254 -1.162541,3.0937 -0.193454,0.2321 -0.08169,0.4466 -0.314748,0.6389 l -0.609938,0.034 -6.8095684,6.7255 13.7582904,0 c 0.596149,0 1.076081,-0.4799 1.076081,-1.076 l 0,-13.9362 z" id="path5702" inkscape:connector-curvature="0" sodipodi:nodetypes="csscccsscc" />
        <path style="color:black;fill:url(#linearGradient4043-97);fill-opacity:1;fill-rule:nonzero;stroke:none;stroke-width:1;marker:none;visibility:visible;display:inline;overflow:visible;enable-background:accumulate" d="m 0.5104,1037.3179 0,13.5302 c 0,0.5961 0.479932,1.076 1.0760799,1.076 l 5.1665357,0 6.4923574,-6.3554 c -0.435808,0.1288 -1.765628,0.4539 -2.243194,0.4539 -1.534385,0 -2.8598715,-0.9354 -3.7470724,-2.0488 z" id="rect5686" inkscape:connector-curvature="0" sodipodi:nodetypes="cssccscc" />
        <rect style="color:black;fill:none;stroke:#4e4e4e;stroke-width:1;stroke-linecap:butt;stroke-linejoin:miter;stroke-miterlimit:4;stroke-opacity:1;stroke-dasharray:none;stroke-dashoffset:0;marker:none;visibility:visible;display:inline;overflow:visible;enable-background:accumulate" id="rect3874" width="21" height="21" x="0.50000131" y="1030.8622" ry="2" rx="2" />
        <path inkscape:connector-curvature="0" style="color:black;fill:url(#radialGradient7232);fill-opacity:1;fill-rule:nonzero;stroke:none;stroke-width:4;marker:none;visibility:visible;display:inline;overflow:visible;enable-background:accumulate" d="M 0.3125,1036.2998 0,1037.3936 l 6.9687496,6.9687 0.03125,-0.031 c 0.9118109,1.2192 2.3604044,2.0312 3.9999994,2.0312 0.313315,0 0.608902,-0.039 0.90625,-0.094 l -5.4999994,5.375 1.03125,0.2187 7.0937494,-6.9687 c 0.0102,-0.01 0.02114,-0.021 0.03125,-0.031 l 0.25,-0.25 -0.03125,-0.031 c 0.746608,-0.8738 1.21875,-1.9798 1.21875,-3.219 0,-1.6396 -0.812015,-3.0882 -2.03125,-4 l 7.53125,0 0,-1 -10.5,0 c -2.7614225,0 -4.9999993,2.2386 -4.9999993,5 0,0.2589 0.02456,0.5017 0.0625,0.75 L 0.3125,1036.3 z" id="path3993" />
        <path sodipodi:type="arc" style="color:black;fill:url(#linearGradient7203);fill-opacity:1;stroke:none;stroke-width:4;marker:none;visibility:visible;display:inline;overflow:visible;enable-background:accumulate" id="path3063" sodipodi:cx="22.450642" sodipodi:cy="19.185398" sodipodi:rx="8.5736704" sodipodi:ry="8.5736704" d="m 31.024312,19.185398 a 8.5736704,8.5736704 0 1 1 -17.147341,0 8.5736704,8.5736704 0 1 1 17.147341,0 z" transform="matrix(0.46654461,0,0,0.46654464,0.525774,1032.4115)" />
        <rect width="19" height="19" ry="0.99999994" x="1.4999995" y="1031.8622" id="rect4513" style="opacity:0.5;fill:none;stroke:url(#linearGradient3120);stroke-width:1;stroke-miterlimit:4;stroke-opacity:1;stroke-dasharray:none" rx="1" />
        <path style="opacity:0.98999999;fill:url(#linearGradient4533)" inkscape:connector-curvature="0" d="m 8.9999995,1031.3623 10.6710775,0 c 0.664086,0 1.328922,0.5064 1.328922,1.2515 l 0,16.7485 -6.652508,0 -5.3474915,-18 z" id="path57-5-0" sodipodi:nodetypes="cssccc" />
    </g>
</svg>
