<?xml version="1.0" encoding="UTF-8" standalone="no"?>
<!-- Created with Inkscape (http://www.inkscape.org/) -->

<svg xmlns:dc="http://purl.org/dc/elements/1.1/" xmlns:cc="http://creativecommons.org/ns#" xmlns:rdf="http://www.w3.org/1999/02/22-rdf-syntax-ns#" xmlns:svg="http://www.w3.org/2000/svg" xmlns="http://www.w3.org/2000/svg" xmlns:xlink="http://www.w3.org/1999/xlink" xmlns:sodipodi="http://sodipodi.sourceforge.net/DTD/sodipodi-0.dtd" xmlns:inkscape="http://www.inkscape.org/namespaces/inkscape" width="22" height="22" id="svg4700" version="1.1" inkscape:version="0.48.4 r9939" sodipodi:docname="qupzilla22.svg">
    <defs id="defs4702">
        <filter id="filter3174" color-interpolation-filters="sRGB">
            <feGaussianBlur stdDeviation="1.71" id="feGaussianBlur3176" />
        </filter>
        <linearGradient gradientTransform="scale(1.0058652,0.994169)" gradientUnits="userSpaceOnUse" id="ButtonShadow" y2="7.0165396" x2="45.447727" y1="92.539597" x1="45.447727">
            <stop offset="0" style="stop-color:#000000;stop-opacity:1" id="stop3750" />
            <stop offset="1" style="stop-color:#000000;stop-opacity:0.58823532" id="stop3752" />
        </linearGradient>
        <filter id="filter3174-8" color-interpolation-filters="sRGB">
            <feGaussianBlur stdDeviation="1.71" id="feGaussianBlur3176-4" />
        </filter>
        <linearGradient gradientTransform="scale(1.0058652,0.994169)" gradientUnits="userSpaceOnUse" id="ButtonShadow-6" y2="7.0165396" x2="45.447727" y1="92.539597" x1="45.447727">
            <stop offset="0" style="stop-color:#000000;stop-opacity:1" id="stop3750-6" />
            <stop offset="1" style="stop-color:#000000;stop-opacity:0.58823532" id="stop3752-1" />
        </linearGradient>
        <linearGradient inkscape:collect="always" xlink:href="#linearGradient4050-7-9-6" id="linearGradient3443-2" gradientUnits="userSpaceOnUse" gradientTransform="matrix(0.51772128,0,0,0.53650217,-7.986425,24.98704)" x1="13.839919" y1="3.2931969" x2="13.839919" y2="23.579182" />
        <linearGradient id="linearGradient4050-7-9-6">
            <stop style="stop-color:white;stop-opacity:0.50196081;" offset="0" id="stop4052-6-4-3" />
            <stop style="stop-color:#ffffff;stop-opacity:0;" offset="1" id="stop4054-0-3-8" />
        </linearGradient>
        <linearGradient gradientUnits="userSpaceOnUse" id="linearGradient4594-3-8" x1="8.2114201" x2="31.74275" y1="-5.7136502" y2="25.48744">
            <stop offset="0" stop-color="#fff" id="stop37-5-1" />
            <stop offset="1" stop-color="#fff" stop-opacity="0" id="stop39-0-8" />
        </linearGradient>
        <linearGradient inkscape:collect="always" xlink:href="#linearGradient4594-3-8" id="linearGradient4050" gradientUnits="userSpaceOnUse" gradientTransform="matrix(0.51559279,0,0,0.52054793,-0.13930503,23.8767)" x1="8.2114201" y1="-5.7136502" x2="31.74275" y2="25.48744" />
        <filter id="filter3174-7" color-interpolation-filters="sRGB">
            <feGaussianBlur stdDeviation="1.71" id="feGaussianBlur3176-1" />
        </filter>
        <linearGradient gradientTransform="scale(1.0058652,0.994169)" gradientUnits="userSpaceOnUse" id="ButtonShadow-1" y2="7.0165396" x2="45.447727" y1="92.539597" x1="45.447727">
            <stop offset="0" style="stop-color:#000000;stop-opacity:1" id="stop3750-8" />
            <stop offset="1" style="stop-color:#000000;stop-opacity:0.58823532" id="stop3752-9" />
        </linearGradient>
        <linearGradient id="linearGradient3876">
            <stop id="stop3878-6" offset="0" style="stop-color:#055049;stop-opacity:1;" />
            <stop style="stop-color:#19968e;stop-opacity:1;" offset="0.68686265" id="stop3884" />
            <stop id="stop3880-8" offset="1" style="stop-color:#83d6d1;stop-opacity:1;" />
        </linearGradient>
        <linearGradient id="linearGradient3910" inkscape:collect="always">
            <stop id="stop3912" offset="0" style="stop-color:#1e779e;stop-opacity:1;" />
            <stop id="stop3914" offset="1" style="stop-color:#1e779e;stop-opacity:0;" />
        </linearGradient>
        <linearGradient id="linearGradient3981">
            <stop id="stop3983" offset="0" style="stop-color:aqua;stop-opacity:1;" />
            <stop id="stop3985" offset="1" style="stop-color:aqua;stop-opacity:0;" />
        </linearGradient>
        <linearGradient id="linearGradient3993">
            <stop style="stop-color:white;stop-opacity:1;" offset="0" id="stop3995" />
            <stop style="stop-color:white;stop-opacity:0;" offset="1" id="stop3997" />
        </linearGradient>
        <linearGradient inkscape:collect="always" xlink:href="#linearGradient3793-8" id="linearGradient3714-2" gradientUnits="userSpaceOnUse" gradientTransform="matrix(0.52380952,0,0,0.52380952,-0.42857203,24.428586)" x1="-22" y1="43" x2="-22" y2="5" />
        <linearGradient id="linearGradient3793-8" inkscape:collect="always">
            <stop id="stop3795-2-1" offset="0" style="stop-color:#1c6066;stop-opacity:1" />
            <stop id="stop3797-4" offset="1" style="stop-color:#c4f6fa;stop-opacity:1" />
        </linearGradient>
        <linearGradient inkscape:collect="always" xlink:href="#linearGradient3801-2-4" id="linearGradient3716-6" gradientUnits="userSpaceOnUse" gradientTransform="matrix(1.0224947,0,0,1.0255832,-0.12607903,0.04268978)" x1="11.959566" y1="25.414072" x2="11.959566" y2="45.979877" />
        <linearGradient id="linearGradient3801-2-4">
            <stop style="stop-color:#70c3d0;stop-opacity:1;" offset="0" id="stop3803-4-1" />
            <stop style="stop-color:#14343b;stop-opacity:1;" offset="1" id="stop3805-5-6" />
        </linearGradient>
        <radialGradient inkscape:collect="always" xlink:href="#linearGradient3876" id="radialGradient3801" gradientUnits="userSpaceOnUse" gradientTransform="matrix(0.56918819,0.15251829,-0.15251352,0.56920589,0.77556873,14.158464)" cx="63.333332" cy="16.334824" fx="63.333332" fy="16.334824" r="20.000002" />
        <linearGradient inkscape:collect="always" xlink:href="#linearGradient3910" id="linearGradient3803" gradientUnits="userSpaceOnUse" x1="24" y1="7" x2="31" y2="30" />
        <radialGradient inkscape:collect="always" xlink:href="#linearGradient3981" id="radialGradient3805" gradientUnits="userSpaceOnUse" cx="28" cy="28" fx="28" fy="28" r="2" />
        <radialGradient inkscape:collect="always" xlink:href="#linearGradient3993" id="radialGradient3807" gradientUnits="userSpaceOnUse" cx="28" cy="28" fx="28" fy="28" r="2" />
        <radialGradient inkscape:collect="always" xlink:href="#linearGradient3981" id="radialGradient3809" gradientUnits="userSpaceOnUse" cx="28" cy="28" fx="28" fy="28" r="2" />
        <radialGradient inkscape:collect="always" xlink:href="#linearGradient3993" id="radialGradient3811" gradientUnits="userSpaceOnUse" cx="28" cy="28" fx="28" fy="28" r="2" />
        <radialGradient inkscape:collect="always" xlink:href="#linearGradient3981" id="radialGradient3813" gradientUnits="userSpaceOnUse" cx="28" cy="28" fx="28" fy="28" r="2" />
        <radialGradient inkscape:collect="always" xlink:href="#linearGradient3993" id="radialGradient3815" gradientUnits="userSpaceOnUse" cx="28" cy="28" fx="28" fy="28" r="2" />
        <radialGradient inkscape:collect="always" xlink:href="#linearGradient3981" id="radialGradient3817" gradientUnits="userSpaceOnUse" cx="28" cy="28" fx="28" fy="28" r="2" />
        <radialGradient inkscape:collect="always" xlink:href="#linearGradient3993" id="radialGradient3819" gradientUnits="userSpaceOnUse" cx="28" cy="28" fx="28" fy="28" r="2" />
        <radialGradient inkscape:collect="always" xlink:href="#linearGradient3981" id="radialGradient3821" gradientUnits="userSpaceOnUse" cx="28" cy="28" fx="28" fy="28" r="2" />
        <radialGradient inkscape:collect="always" xlink:href="#linearGradient3993" id="radialGradient3823" gradientUnits="userSpaceOnUse" cx="28" cy="28" fx="28" fy="28" r="2" />
        <radialGradient inkscape:collect="always" xlink:href="#linearGradient3981" id="radialGradient3825" gradientUnits="userSpaceOnUse" cx="28" cy="28" fx="28" fy="28" r="2" />
        <radialGradient inkscape:collect="always" xlink:href="#linearGradient3993" id="radialGradient3827" gradientUnits="userSpaceOnUse" cx="28" cy="28" fx="28" fy="28" r="2" />
        <radialGradient inkscape:collect="always" xlink:href="#linearGradient3981" id="radialGradient3829" gradientUnits="userSpaceOnUse" cx="28" cy="28" fx="28" fy="28" r="2" />
        <radialGradient inkscape:collect="always" xlink:href="#linearGradient3993" id="radialGradient3831" gradientUnits="userSpaceOnUse" cx="28" cy="28" fx="28" fy="28" r="2" />
    </defs>
    <sodipodi:namedview id="base" pagecolor="#ffffff" bordercolor="#666666" borderopacity="1.0" inkscape:pageopacity="0.0" inkscape:pageshadow="2" inkscape:zoom="15.208334" inkscape:cx="29.797651" inkscape:cy="16.037558" inkscape:current-layer="layer1" showgrid="true" inkscape:grid-bbox="true" inkscape:document-units="px" inkscape:window-width="1280" inkscape:window-height="998" inkscape:window-x="0" inkscape:window-y="0" inkscape:window-maximized="1" inkscape:snap-to-guides="true" inkscape:snap-grids="true" inkscape:snap-bbox="true">
        <inkscape:grid type="xygrid" id="grid1021" empspacing="5" visible="true" enabled="true" snapvisiblegridlinesonly="true" />
    </sodipodi:namedview>
    <metadata id="metadata4705">
        <rdf:RDF>
            <cc:Work rdf:about="">
                <dc:format>image/svg+xml</dc:format>
                <dc:type rdf:resource="http://purl.org/dc/dcmitype/StillImage" />
                <dc:title />
            </cc:Work>
        </rdf:RDF>
    </metadata>
    <g id="layer1" inkscape:label="Layer 1" inkscape:groupmode="layer" transform="translate(0,-26)">
        <g id="layer2" style="display:none" transform="translate(5.204491,-179.6879)">
            <rect width="86" height="85" rx="6" ry="6" x="5" y="7" id="rect3745" style="opacity:0.9;fill:url(#ButtonShadow);fill-opacity:1;fill-rule:nonzero;stroke:none;filter:url(#filter3174)" />
        </g>
        <g id="layer4" transform="translate(3.204491,-177.6879)" />
        <g id="layer2-9" style="display:none" transform="matrix(1.9515901,0,0,1.9515901,39.863949,-389.29741)">
            <rect width="86" height="85" rx="3.0744162" ry="3.0744162" x="5" y="7" id="rect3745-7" style="opacity:0.9;fill:url(#ButtonShadow-6);fill-opacity:1;fill-rule:nonzero;stroke:none;filter:url(#filter3174-8)" />
        </g>
        <g id="layer4-9" transform="matrix(1.9515901,0,0,1.9515901,38.863949,-388.29741)" />
        <rect style="color:black;fill:url(#linearGradient3714-2);fill-opacity:1;fill-rule:nonzero;stroke:url(#linearGradient3716-6);stroke-width:0.99999994;stroke-linecap:butt;stroke-linejoin:miter;stroke-miterlimit:4;stroke-opacity:1;stroke-dasharray:none;stroke-dashoffset:0;marker:none;visibility:visible;display:inline;overflow:visible;enable-background:accumulate" id="rect3874" width="21" height="21" x="0.49999997" y="26.5" ry="2.5036895" rx="2.5036895" />
        <rect width="19" height="19" ry="1.5019213" x="1.5" y="27.5" id="rect4513" style="opacity:0.5;color:black;fill:none;stroke:url(#linearGradient3443-2);stroke-width:1;stroke-linecap:butt;stroke-linejoin:miter;stroke-miterlimit:4;stroke-opacity:1;stroke-dasharray:none;stroke-dashoffset:0;marker:none;visibility:visible;display:inline;overflow:visible;enable-background:accumulate" rx="1.5019213" />
        <g id="layer4-04" transform="translate(29.204491,-181.68797)" />
        <g id="layer4-3" transform="translate(55.768872,-171.23411)" />
        <g id="layer4-8" transform="translate(111.89387,-168.29888)" />
        <g id="layer4-4" transform="translate(56.006735,-167.77952)" />
        <g id="layer4-0" transform="translate(116.44109,-168.57237)" />
        <g id="layer4-6" transform="translate(33,-139.78607)" />
        <g transform="matrix(0.08436872,0,0,0.08436872,20.02562,28.6358)" id="g5892" style="stroke:none" />
        <g id="layer2-6" style="display:none" transform="matrix(1.9515901,0,0,1.9515901,36.735186,-383.93711)">
            <rect width="86" height="85" rx="3.0744162" ry="3.0744162" x="5" y="7" id="rect3745-74" style="opacity:0.9;fill:url(#ButtonShadow-1);fill-opacity:1;fill-rule:nonzero;stroke:none;filter:url(#filter3174-7)" />
        </g>
        <g id="layer4-83" transform="matrix(1.9515901,0,0,1.9515901,35.735186,-382.93711)" />
        <path id="path4188" d="M 20.65848,39.591519 A 10.000094,10.000351 0 0 1 1.339784,34.414956 10.000094,10.000351 0 1 1 20.65848,39.591519 z" inkscape:connector-curvature="0" style="fill:#0d667e;fill-opacity:1;stroke:none" />
        <g id="g3767" transform="matrix(0.95455652,0,0,0.95451256,-23.36393,2.6370617)">
            <path id="path3827" d="M 45.106584,38.443022 A 9.428278,9.4285719 0 0 1 26.89255,33.562434 9.428278,9.4285719 0 1 1 45.106584,38.443022 z" inkscape:connector-curvature="0" style="fill:url(#radialGradient3801);fill-opacity:1;stroke:none" />
            <path transform="matrix(0.59726642,0,0,0.70868348,20.470778,20.904173)" d="m 39,17 c 0,4.970563 -5.820298,9 -13,9 -7.179702,0 -13,-4.029437 -13,-9 0,-4.970563 5.820298,-9 13,-9 7.179702,0 13,4.029437 13,9 z" sodipodi:ry="9" sodipodi:rx="13" sodipodi:cy="17" sodipodi:cx="26" id="path3894" style="opacity:0.77637132;color:black;fill:url(#linearGradient3803);fill-opacity:1;fill-rule:nonzero;stroke:none;stroke-width:1;marker:none;visibility:visible;display:inline;overflow:visible;enable-background:accumulate" sodipodi:type="arc" />
            <path style="fill:#005253;fill-opacity:1;stroke:none" inkscape:connector-curvature="0" d="m 27.619048,33.3386 c 1.064716,0.17691 1.514,-0.387937 1.94136,-0.740328 l -0.292285,-0.586454 c 0.08862,-0.317946 0.164572,-0.590472 0.473816,-0.97329 0.183894,0.339465 -0.628211,0.982199 0.623336,1.669715 -0.291165,1.044682 -0.503437,1.987982 -0.419576,2.958884 0.530328,-0.812685 1.147123,-1.481391 2.52696,-1.345012 l -0.108514,1.116074 0.392319,-0.04498 c -0.360793,1.294496 -0.380691,2.092624 0.244007,2.667345 l 0.04645,-0.620899 -0.419665,-0.765313 0.372541,-0.609921 0.506131,0.909292 c 0.315121,-0.04053 0.679182,-0.165815 0.761468,-0.461052 0.139252,-0.49963 -0.309578,-0.61525 -0.220963,-0.933196 0.215209,-0.772157 2.135307,0.696106 2.620996,-0.955673 0.145583,-0.522341 0.08953,-1.047944 -0.138222,-1.593432 1.086643,0.279922 1.076921,0.496486 0.90602,1.109669 l 0.409611,-0.01619 c 0.09495,-0.340657 0.09201,-0.511802 -0.110874,-0.783134 1.047878,-0.216884 1.306486,-0.418017 1.60398,-1.485409 l -0.618821,-0.232433 c 0.820584,-1.127371 1.203514,0.04228 1.919887,-0.89287 -0.227869,0.817577 -0.248554,0.982635 0.05006,1.54638 l 0.174294,-0.807037 -0.180955,-0.16832 c 0.151911,-0.545052 0.362364,-0.02836 0.65353,-1.073041 -1.984304,-0.511161 -2.146726,-0.382614 -3.469595,-0.723388 l -0.245041,-0.574282 c -0.826785,-0.212988 -1.038148,3.15e-4 -1.605092,-0.145731 -0.874039,-0.225154 -1.064262,-0.541907 -0.946936,-1.14455 -3.256658,0.329446 -6.175149,2.66798 -7.450229,5.698575 z m 2.901653,-2.732327 c 0.105909,-0.289151 0.75435,-1.07141 1.398492,-0.929819 l -1.185888,0.984586 z m -0.521883,5.415313 0.396952,0.02923 -0.07166,-0.651325 z m 1.856469,0.697299 c 0.562523,2.432962 0.899115,2.860443 3.875571,3.627185 -1.581023,-0.504639 -2.900501,-1.039268 -2.666302,-1.879555 z m 4.738956,-9.099823 0.713313,0.256774 1.0238,0.142028 c 1.252002,0.322519 2.816973,1.066434 2.715699,1.429801 -0.221539,0.794867 1.751802,1.254521 1.517604,2.094809 -0.08862,0.317946 -0.299977,0.531251 -0.99306,0.474415 0.727668,0.114426 0.998936,-0.132128 1.10654,-0.518206 0.126593,-0.454209 -0.616353,-0.774115 -0.500722,-1.279831 -1.079404,-1.032628 -2.255315,-1.912913 -3.838035,-2.320625 -0.566945,-0.146046 -1.146547,-0.246671 -1.745139,-0.279165 z m -2.198095,7.97746 0.09573,0.292413 0.372087,-0.244924 z m -0.72328,2.685921 c -0.126593,0.45421 -0.01357,0.775417 0.860471,1.000572 l 0.856869,-1.166707 -0.261092,-0.335009 z m -0.156788,3.196966 0.193492,1.485964 c 0.690146,-0.114309 1.265115,-0.0879 1.808437,0.05206 0.377963,0.09736 0.84872,0.315996 0.977344,0.762927 0.968528,0.249495 1.822792,-0.09029 2.331193,-1.005985 -0.850749,-1.217137 -0.175413,-0.824099 -0.621638,-1.766642 l -0.607527,0.817141 -0.585479,-0.442913 0.302915,-0.360108 c -1.464605,-0.377284 -2.10378,0.553408 -3.798737,0.457555 z m 1.413756,-1.802163 0.682119,0.0053 -0.35343,-0.821275 z m 1.229199,-4.137761 0.185589,0.242536 0.22911,-0.549505 z m -0.136314,0.670775 c -0.310154,1.112812 0.221749,1.566266 0.101486,1.997764 l 0.43493,-0.10703 c 0.265846,-0.95384 -0.390955,-1.05001 -0.201064,-1.731324 z m 0.04146,3.39408 0.648777,0.215808 -0.327326,-0.279047 0.117325,-0.602643 z m 1.747323,-5.270023 0.07674,0.360543 1.353731,-0.405847 c 0.360792,-1.294497 1.189281,-1.17844 1.404491,-1.950596 -0.143886,0.425414 -0.594869,0.771719 -1.185436,0.619588 l 0.186499,-0.48746 -0.247977,-0.745428 -0.06805,1.515953 c -0.196221,0.704025 -0.189889,0.681315 -1.519999,1.093247 z m -0.918377,5.021082 c 0.0573,0.793672 0.98876,0.449435 0.992485,1.253647 l 0.470757,0.218633 0.359428,-0.199503 0.583782,0.53984 c 0.003,-1.191921 -1.225318,-1.508354 -2.406452,-1.812617 z m -0.111364,4.669128 -0.03967,0.23319 0.591021,-0.212866 z m 2.737657,-3.554451 c 0.448831,0.11562 0.689691,0.250689 1.421539,0.804331 l -1.145638,-0.976668 z" id="path4184" sodipodi:nodetypes="ccccccccccccccssccccccccccccccscccccccccccccccccsscscsccccccccccccscccccccccccccccccccccccccccccccccccccccccccccccc" />
            <path sodipodi:nodetypes="ccccccccccccccssccccccccccccccscccccccccccccccccsscscsccccccccccccscccccccccccccccccccccccccccccccccccccccccccccccc" id="path3829" d="m 27.628489,32.8478 c 1.064716,0.17691 1.514001,-0.387937 1.94136,-0.740328 l -0.292285,-0.586454 c 0.08861,-0.317946 0.164572,-0.590472 0.473816,-0.97329 0.183894,0.339464 -0.628211,0.982199 0.623336,1.669715 -0.291165,1.044682 -0.503437,1.987982 -0.419576,2.958884 0.530329,-0.812685 1.147123,-1.481391 2.52696,-1.345012 l -0.108514,1.116074 0.392319,-0.04498 c -0.360792,1.294496 -0.38069,2.092624 0.244007,2.667344 l 0.04645,-0.620898 -0.419665,-0.765313 0.372541,-0.609921 0.506131,0.909292 c 0.315121,-0.04053 0.679182,-0.165815 0.761468,-0.461052 0.139252,-0.49963 -0.309578,-0.61525 -0.220963,-0.933196 0.215209,-0.772157 2.135307,0.696106 2.620996,-0.955673 0.145583,-0.522341 0.08953,-1.047944 -0.138221,-1.593432 1.086642,0.279922 1.07692,0.496486 0.906019,1.109669 l 0.409612,-0.01619 c 0.09495,-0.340657 0.09201,-0.511802 -0.110875,-0.783134 1.047878,-0.216884 1.306486,-0.418017 1.60398,-1.485409 l -0.618821,-0.232434 c 0.820584,-1.12737 1.203514,0.04228 1.919887,-0.892869 -0.227869,0.817577 -0.248554,0.982635 0.05006,1.546379 l 0.174294,-0.807037 -0.180955,-0.168319 c 0.151912,-0.545053 0.362365,-0.02836 0.65353,-1.073041 -1.984304,-0.511161 -2.146726,-0.382614 -3.469594,-0.723388 l -0.245042,-0.574283 c -0.826785,-0.212987 -1.038148,3.16e-4 -1.605091,-0.14573 -0.87404,-0.225154 -1.064263,-0.541907 -0.946936,-1.14455 -3.256659,0.329446 -6.175149,2.66798 -7.45023,5.698575 z m 2.901653,-2.732327 c 0.105909,-0.289151 0.75435,-1.07141 1.398492,-0.929819 l -1.185888,0.984586 z m -0.521883,5.415313 0.396952,0.02923 -0.07166,-0.651326 z m 1.856469,0.697299 c 0.562523,2.432962 0.899115,2.860443 3.875571,3.627185 -1.581023,-0.504639 -2.900501,-1.039268 -2.666302,-1.879556 z m 4.738956,-9.099823 0.713314,0.256774 1.023799,0.142028 c 1.252003,0.322519 2.816974,1.066434 2.715699,1.429801 -0.221539,0.794867 1.751802,1.254521 1.517604,2.094809 -0.08862,0.317946 -0.299977,0.531251 -0.99306,0.474415 0.727668,0.114426 0.998936,-0.132128 1.10654,-0.518206 0.126594,-0.45421 -0.616353,-0.774115 -0.500722,-1.279831 -1.079404,-1.032628 -2.255315,-1.912913 -3.838035,-2.320625 -0.566945,-0.146046 -1.146547,-0.246671 -1.745139,-0.279165 z m -2.198095,7.97746 0.09573,0.292413 0.372087,-0.244924 z m -0.72328,2.685921 c -0.126593,0.45421 -0.01357,0.775417 0.860471,1.000572 l 0.856869,-1.166707 -0.261092,-0.335009 z m -0.156788,3.196966 0.193492,1.485964 c 0.690146,-0.114309 1.265116,-0.0879 1.808437,0.05206 0.377963,0.09736 0.84872,0.315996 0.977344,0.762927 0.968528,0.249495 1.822792,-0.09029 2.331194,-1.005985 -0.850749,-1.217137 -0.175414,-0.824099 -0.621639,-1.766642 l -0.607527,0.817141 -0.585479,-0.442913 0.302915,-0.360108 c -1.464605,-0.377284 -2.10378,0.553408 -3.798737,0.457555 z m 1.413756,-1.802163 0.682119,0.0053 -0.35343,-0.821275 z m 1.229199,-4.137761 0.185589,0.242536 0.22911,-0.549506 z m -0.136314,0.670775 c -0.310153,1.112812 0.221749,1.566266 0.101486,1.997764 l 0.43493,-0.10703 c 0.265846,-0.95384 -0.390955,-1.05001 -0.201064,-1.731324 z m 0.04146,3.39408 0.648777,0.215808 -0.327326,-0.279047 0.117325,-0.602643 z m 1.747323,-5.270023 0.07674,0.360543 1.353731,-0.405847 c 0.360792,-1.294497 1.189281,-1.17844 1.404491,-1.950596 -0.143886,0.425414 -0.594869,0.771719 -1.185436,0.619588 l 0.186499,-0.48746 -0.247977,-0.745428 -0.06805,1.515953 c -0.196221,0.704025 -0.189889,0.681315 -1.519999,1.093247 z m -0.918377,5.021082 c 0.0573,0.793672 0.98876,0.449435 0.992485,1.253647 l 0.470757,0.218633 0.359428,-0.199503 0.583782,0.53984 c 0.003,-1.191921 -1.225318,-1.508354 -2.406452,-1.812617 z m -0.111364,4.669128 -0.03967,0.23319 0.591022,-0.212866 z m 2.737657,-3.554451 c 0.448831,0.11562 0.689691,0.250689 1.421539,0.804331 l -1.145638,-0.976668 z" inkscape:connector-curvature="0" style="fill:white;fill-opacity:1;stroke:none" />
            <path sodipodi:nodetypes="cc" inkscape:connector-curvature="0" id="path3918" d="m 27.126033,36.002211 c 0,0 2.773023,8.319328 13.865114,7.210084" style="color:black;fill:none;stroke:#f2f2f2;stroke-width:0.41905239;stroke-linecap:round;stroke-linejoin:round;stroke-miterlimit:4;stroke-opacity:1;stroke-dasharray:none;stroke-dashoffset:0;marker:none;visibility:visible;display:inline;overflow:visible;enable-background:accumulate" />
            <path sodipodi:nodetypes="cc" style="color:black;fill:none;stroke:#f2f2f2;stroke-width:0.41905239;stroke-linecap:round;stroke-linejoin:round;stroke-miterlimit:4;stroke-opacity:1;stroke-dasharray:none;stroke-dashoffset:0;marker:none;visibility:visible;display:inline;overflow:visible;enable-background:accumulate" d="m 28.789847,31.010615 c 0,0 3.327627,9.428571 16.083532,7.210084" id="path3920" inkscape:connector-curvature="0" />
            <path inkscape:connector-curvature="0" id="path3922" d="m 32.117474,27.682884 c 0,0 3.327627,6.10084 12.2013,5.546218" style="color:black;fill:none;stroke:#f2f2f2;stroke-width:0.41905239;stroke-linecap:round;stroke-linejoin:round;stroke-miterlimit:4;stroke-opacity:1;stroke-dasharray:none;stroke-dashoffset:0;marker:none;visibility:visible;display:inline;overflow:visible;enable-background:accumulate" sodipodi:nodetypes="cc" />
            <path inkscape:connector-curvature="0" id="path3924" d="m 38.218124,27.128262 c 0,0 -8.319068,4.991597 -8.464811,15.444666" style="color:black;fill:none;stroke:#f2f2f2;stroke-width:0.41905239;stroke-linecap:round;stroke-linejoin:round;stroke-miterlimit:4;stroke-opacity:1;stroke-dasharray:none;marker:none;visibility:visible;display:inline;overflow:visible;enable-background:accumulate" sodipodi:nodetypes="cc" />
            <path sodipodi:nodetypes="cc" style="color:black;fill:none;stroke:#f2f2f2;stroke-width:0.41905239;stroke-linecap:round;stroke-linejoin:round;stroke-miterlimit:4;stroke-opacity:1;stroke-dasharray:none;stroke-dashoffset:0;marker:none;visibility:visible;display:inline;overflow:visible;enable-background:accumulate" d="m 41.261518,28.903052 c 0,0 -0.824976,10.981512 -8.464811,15.444665" id="path3926" inkscape:connector-curvature="0" />
            <path inkscape:connector-curvature="0" id="path3928" d="m 43.76417,31.565237 c 0,0 2.218418,9.983193 -6.911919,13.337102" style="color:black;fill:none;stroke:#f2f2f2;stroke-width:0.41905239;stroke-linecap:round;stroke-linejoin:round;stroke-miterlimit:4;stroke-opacity:1;stroke-dasharray:none;stroke-dashoffset:0;marker:none;visibility:visible;display:inline;overflow:visible;enable-background:accumulate" sodipodi:nodetypes="cc" />
            <path sodipodi:nodetypes="cc" style="color:black;fill:none;stroke:#f2f2f2;stroke-width:0.41905239;stroke-linecap:round;stroke-linejoin:round;stroke-miterlimit:4;stroke-opacity:1;stroke-dasharray:none;stroke-dashoffset:0;marker:none;visibility:visible;display:inline;overflow:visible;enable-background:accumulate" d="m 33.781288,27.128262 c 0,0 -7.209859,2.773109 -6.10065,12.20168" id="path3930" inkscape:connector-curvature="0" />
            <g transform="matrix(0.77644636,0,0,0.77647056,16.366705,16.368598)" id="g3999">
                <path sodipodi:type="arc" style="color:black;fill:url(#radialGradient3805);fill-opacity:1;stroke:none;stroke-width:0.40000001;marker:none;visibility:visible;display:inline;overflow:visible;enable-background:accumulate" id="path3979" sodipodi:cx="28" sodipodi:cy="28" sodipodi:rx="2" sodipodi:ry="2" d="m 30,28 c 0,1.104569 -0.895431,2 -2,2 -1.104569,0 -2,-0.895431 -2,-2 0,-1.104569 0.895431,-2 2,-2 1.104569,0 2,0.895431 2,2 z" transform="matrix(1.25,0,0,1.25,-6.5,-6.5)" />
                <path transform="matrix(0.75,0,0,0.75,7.5,7.5)" d="m 30,28 c 0,1.104569 -0.895431,2 -2,2 -1.104569,0 -2,-0.895431 -2,-2 0,-1.104569 0.895431,-2 2,-2 1.104569,0 2,0.895431 2,2 z" sodipodi:ry="2" sodipodi:rx="2" sodipodi:cy="28" sodipodi:cx="28" id="path3989" style="color:black;fill:url(#radialGradient3807);fill-opacity:1;stroke:none;stroke-width:0.40000001;marker:none;visibility:visible;display:inline;overflow:visible;enable-background:accumulate" sodipodi:type="arc" />
            </g>
            <g transform="matrix(0.44368363,0,0,0.55462183,17.254073,24.355153)" id="g4003">
                <path transform="matrix(1.25,0,0,1.25,-6.5,-6.5)" d="m 30,28 c 0,1.104569 -0.895431,2 -2,2 -1.104569,0 -2,-0.895431 -2,-2 0,-1.104569 0.895431,-2 2,-2 1.104569,0 2,0.895431 2,2 z" sodipodi:ry="2" sodipodi:rx="2" sodipodi:cy="28" sodipodi:cx="28" id="path4005" style="color:black;fill:url(#radialGradient3809);fill-opacity:1;stroke:none;stroke-width:0.40000001;marker:none;visibility:visible;display:inline;overflow:visible;enable-background:accumulate" sodipodi:type="arc" />
                <path sodipodi:type="arc" style="color:black;fill:url(#radialGradient3811);fill-opacity:1;stroke:none;stroke-width:0.40000001;marker:none;visibility:visible;display:inline;overflow:visible;enable-background:accumulate" id="path4007" sodipodi:cx="28" sodipodi:cy="28" sodipodi:rx="2" sodipodi:ry="2" d="m 30,28 c 0,1.104569 -0.895431,2 -2,2 -1.104569,0 -2,-0.895431 -2,-2 0,-1.104569 0.895431,-2 2,-2 1.104569,0 2,0.895431 2,2 z" transform="matrix(0.75,0,0,0.75,7.5,7.5)" />
            </g>
            <g id="g4013" transform="matrix(0.66552545,0,0,0.77647056,12.595394,13.040867)">
                <path sodipodi:type="arc" style="color:black;fill:url(#radialGradient3813);fill-opacity:1;stroke:none;stroke-width:0.40000001;marker:none;visibility:visible;display:inline;overflow:visible;enable-background:accumulate" id="path4015" sodipodi:cx="28" sodipodi:cy="28" sodipodi:rx="2" sodipodi:ry="2" d="m 30,28 c 0,1.104569 -0.895431,2 -2,2 -1.104569,0 -2,-0.895431 -2,-2 0,-1.104569 0.895431,-2 2,-2 1.104569,0 2,0.895431 2,2 z" transform="matrix(1.25,0,0,1.25,-6.5,-6.5)" />
                <path transform="matrix(0.75,0,0,0.75,7.5,7.5)" d="m 30,28 c 0,1.104569 -0.895431,2 -2,2 -1.104569,0 -2,-0.895431 -2,-2 0,-1.104569 0.895431,-2 2,-2 1.104569,0 2,0.895431 2,2 z" sodipodi:ry="2" sodipodi:rx="2" sodipodi:cy="28" sodipodi:cx="28" id="path4017" style="color:black;fill:url(#radialGradient3815);fill-opacity:1;stroke:none;stroke-width:0.40000001;marker:none;visibility:visible;display:inline;overflow:visible;enable-background:accumulate" sodipodi:type="arc" />
            </g>
            <g id="g4027" transform="matrix(0.44368363,0,0,0.44369746,31.119186,20.583724)">
                <path transform="matrix(1.25,0,0,1.25,-6.5,-6.5)" d="m 30,28 c 0,1.104569 -0.895431,2 -2,2 -1.104569,0 -2,-0.895431 -2,-2 0,-1.104569 0.895431,-2 2,-2 1.104569,0 2,0.895431 2,2 z" sodipodi:ry="2" sodipodi:rx="2" sodipodi:cy="28" sodipodi:cx="28" id="path4029" style="color:black;fill:url(#radialGradient3817);fill-opacity:1;stroke:none;stroke-width:0.40000001;marker:none;visibility:visible;display:inline;overflow:visible;enable-background:accumulate" sodipodi:type="arc" />
                <path sodipodi:type="arc" style="color:black;fill:url(#radialGradient3819);fill-opacity:1;stroke:none;stroke-width:0.40000001;marker:none;visibility:visible;display:inline;overflow:visible;enable-background:accumulate" id="path4031" sodipodi:cx="28" sodipodi:cy="28" sodipodi:rx="2" sodipodi:ry="2" d="m 30,28 c 0,1.104569 -0.895431,2 -2,2 -1.104569,0 -2,-0.895431 -2,-2 0,-1.104569 0.895431,-2 2,-2 1.104569,0 2,0.895431 2,2 z" transform="matrix(0.75,0,0,0.75,7.5,7.5)" />
            </g>
            <g transform="matrix(0.33276268,0,0,0.33277309,31.784713,26.240867)" id="g4037">
                <path transform="matrix(1.25,0,0,1.25,-6.5,-6.5)" d="m 30,28 c 0,1.104569 -0.895431,2 -2,2 -1.104569,0 -2,-0.895431 -2,-2 0,-1.104569 0.895431,-2 2,-2 1.104569,0 2,0.895431 2,2 z" sodipodi:ry="2" sodipodi:rx="2" sodipodi:cy="28" sodipodi:cx="28" id="path4039" style="color:black;fill:url(#radialGradient3821);fill-opacity:1;stroke:none;stroke-width:0.40000001;marker:none;visibility:visible;display:inline;overflow:visible;enable-background:accumulate" sodipodi:type="arc" />
                <path sodipodi:type="arc" style="color:black;fill:url(#radialGradient3823);fill-opacity:1;stroke:none;stroke-width:0.40000001;marker:none;visibility:visible;display:inline;overflow:visible;enable-background:accumulate" id="path4041" sodipodi:cx="28" sodipodi:cy="28" sodipodi:rx="2" sodipodi:ry="2" d="m 30,28 c 0,1.104569 -0.895431,2 -2,2 -1.104569,0 -2,-0.895431 -2,-2 0,-1.104569 0.895431,-2 2,-2 1.104569,0 2,0.895431 2,2 z" transform="matrix(0.75,0,0,0.75,7.5,7.5)" />
            </g>
            <g id="g4047" transform="matrix(0.44368363,0,0,0.44369746,15.035654,23.911456)">
                <path transform="matrix(1.25,0,0,1.25,-6.5,-6.5)" d="m 30,28 c 0,1.104569 -0.895431,2 -2,2 -1.104569,0 -2,-0.895431 -2,-2 0,-1.104569 0.895431,-2 2,-2 1.104569,0 2,0.895431 2,2 z" sodipodi:ry="2" sodipodi:rx="2" sodipodi:cy="28" sodipodi:cx="28" id="path4049" style="color:black;fill:url(#radialGradient3825);fill-opacity:1;stroke:none;stroke-width:0.40000001;marker:none;visibility:visible;display:inline;overflow:visible;enable-background:accumulate" sodipodi:type="arc" />
                <path sodipodi:type="arc" style="color:black;fill:url(#radialGradient3827);fill-opacity:1;stroke:none;stroke-width:0.40000001;marker:none;visibility:visible;display:inline;overflow:visible;enable-background:accumulate" id="path4051" sodipodi:cx="28" sodipodi:cy="28" sodipodi:rx="2" sodipodi:ry="2" d="m 30,28 c 0,1.104569 -0.895431,2 -2,2 -1.104569,0 -2,-0.895431 -2,-2 0,-1.104569 0.895431,-2 2,-2 1.104569,0 2,0.895431 2,2 z" transform="matrix(0.75,0,0,0.75,7.5,7.5)" />
            </g>
            <g id="g4057" transform="matrix(0.44368363,0,0,0.44369746,21.690909,17.810615)">
                <path transform="matrix(1.25,0,0,1.25,-6.5,-6.5)" d="m 30,28 c 0,1.104569 -0.895431,2 -2,2 -1.104569,0 -2,-0.895431 -2,-2 0,-1.104569 0.895431,-2 2,-2 1.104569,0 2,0.895431 2,2 z" sodipodi:ry="2" sodipodi:rx="2" sodipodi:cy="28" sodipodi:cx="28" id="path4059" style="color:black;fill:url(#radialGradient3829);fill-opacity:1;stroke:none;stroke-width:0.40000001;marker:none;visibility:visible;display:inline;overflow:visible;enable-background:accumulate" sodipodi:type="arc" />
                <path sodipodi:type="arc" style="color:black;fill:url(#radialGradient3831);fill-opacity:1;stroke:none;stroke-width:0.40000001;marker:none;visibility:visible;display:inline;overflow:visible;enable-background:accumulate" id="path4061" sodipodi:cx="28" sodipodi:cy="28" sodipodi:rx="2" sodipodi:ry="2" d="m 30,28 c 0,1.104569 -0.895431,2 -2,2 -1.104569,0 -2,-0.895431 -2,-2 0,-1.104569 0.895431,-2 2,-2 1.104569,0 2,0.895431 2,2 z" transform="matrix(0.75,0,0,0.75,7.5,7.5)" />
            </g>
        </g>
        <path style="opacity:0.98999999;fill:url(#linearGradient4050)" inkscape:connector-curvature="0" d="m 9,27 10,0 c 1.160474,0 2,1.0053 2,2 l 0,17 -6.652508,0 z" id="path57-5" sodipodi:nodetypes="cssccc" />
    </g>
</svg>
