<?xml version="1.0" encoding="UTF-8" standalone="no"?>
<!-- Created with Inkscape (http://www.inkscape.org/) -->

<svg xmlns:dc="http://purl.org/dc/elements/1.1/" xmlns:cc="http://creativecommons.org/ns#" xmlns:rdf="http://www.w3.org/1999/02/22-rdf-syntax-ns#" xmlns:svg="http://www.w3.org/2000/svg" xmlns="http://www.w3.org/2000/svg" xmlns:xlink="http://www.w3.org/1999/xlink" xmlns:sodipodi="http://sodipodi.sourceforge.net/DTD/sodipodi-0.dtd" xmlns:inkscape="http://www.inkscape.org/namespaces/inkscape" width="48px" height="48px" id="svg4700" version="1.1" inkscape:version="0.48.4 r9939" sodipodi:docname="drive-harddisk-ieee1394.svg">
  <defs id="defs4702">
    <linearGradient id="linearGradient4670">
      <stop style="stop-color:#808080;stop-opacity:1;" offset="0" id="stop4672" />
      <stop style="stop-color:#ffffff;stop-opacity:1;" offset="1" id="stop4674" />
    </linearGradient>
    <linearGradient id="linearGradient4517">
      <stop style="stop-color:#ffffff;stop-opacity:1;" offset="0" id="stop4519" />
      <stop style="stop-color:#ffffff;stop-opacity:0;" offset="1" id="stop4521" />
    </linearGradient>
    <linearGradient gradientUnits="userSpaceOnUse" xlink:href="#linearGradient3322" id="linearGradient3279" y2="77.09375" x2="32" y1="77.09375" x1="6" gradientTransform="matrix(0.46153843,0,0,0.46489104,2.2307693,0.1598061)" />
    <filter id="filter3174" color-interpolation-filters="sRGB">
      <feGaussianBlur stdDeviation="1.71" id="feGaussianBlur3176" />
    </filter>
    <linearGradient gradientTransform="scale(1.0058652,0.994169)" gradientUnits="userSpaceOnUse" id="ButtonShadow" y2="7.0165396" x2="45.447727" y1="92.539597" x1="45.447727">
      <stop offset="0" style="stop-color:#000000;stop-opacity:1" id="stop3750" />
      <stop offset="1" style="stop-color:#000000;stop-opacity:0.58823532" id="stop3752" />
    </linearGradient>
    <linearGradient id="linearGradient3322">
      <stop offset="0" style="stop-color:#7a7a7a;stop-opacity:1" id="stop3324" />
      <stop offset="0.2032043" style="stop-color:#f9f9f9;stop-opacity:1" id="stop3326" />
      <stop offset="0.42969123" style="stop-color:#c9c9c9;stop-opacity:1" id="stop3328" />
      <stop offset="1" style="stop-color:#dedede;stop-opacity:0" id="stop3330" />
    </linearGradient>
    <linearGradient inkscape:collect="always" xlink:href="#linearGradient3322" id="linearGradient4511" gradientUnits="userSpaceOnUse" gradientTransform="matrix(-0.46153843,0,0,0.46489104,45.769231,0.1598061)" x1="6" y1="77.09375" x2="32" y2="77.09375" />
    <linearGradient inkscape:collect="always" xlink:href="#linearGradient4517" id="linearGradient4523" x1="22.440199" y1="4.8942533" x2="22.440199" y2="38.21666" gradientUnits="userSpaceOnUse" gradientTransform="matrix(0.99929416,0,0,0.99918395,0.00568567,-1.9053915)" />
    <radialGradient gradientTransform="matrix(0.23760038,0,0,0.25220859,7.7186336,4.6241265)" gradientUnits="userSpaceOnUse" xlink:href="#radialGradient4241-5" id="radialGradient2947-3" fy="95.756645" fx="127.2645" r="2.5631001" cy="95.756645" cx="127.2645" />
    <radialGradient gradientUnits="userSpaceOnUse" id="radialGradient4241-5" fy="98" fx="113.667" r="2.5631001" cy="97.587898" cx="113.0654">
      <stop offset="0" style="stop-color:#eee;stop-opacity:1" id="stop4243-2" />
      <stop offset="1" style="stop-color:#555;stop-opacity:1" id="stop4249-6" />
    </radialGradient>
    <radialGradient inkscape:collect="always" xlink:href="#radialGradient4241-5" id="radialGradient4581" gradientUnits="userSpaceOnUse" gradientTransform="matrix(0.23760038,0,0,0.25220859,7.7186336,4.6241265)" cx="127.2645" cy="95.756645" fx="127.2645" fy="95.756645" r="2.5631001" />
    <radialGradient inkscape:collect="always" xlink:href="#radialGradient4241-5" id="radialGradient4591" gradientUnits="userSpaceOnUse" gradientTransform="matrix(0.23760038,0,0,0.25220859,7.7186336,4.6241265)" cx="127.2645" cy="95.756645" fx="127.2645" fy="95.756645" r="2.5631001" />
    <radialGradient inkscape:collect="always" xlink:href="#radialGradient4241-5" id="radialGradient4593" gradientUnits="userSpaceOnUse" gradientTransform="matrix(0.23760038,0,0,0.25220859,7.7186336,4.6241265)" cx="127.2645" cy="95.756645" fx="127.2645" fy="95.756645" r="2.5631001" />
    <linearGradient inkscape:collect="always" xlink:href="#linearGradient5048-0" id="linearGradient3127" gradientUnits="userSpaceOnUse" gradientTransform="matrix(0.06214224,0,0,0.02900085,1.6242719,28.085503)" x1="302.85715" y1="366.64789" x2="302.85715" y2="609.50507" />
    <linearGradient id="linearGradient5048-0">
      <stop id="stop5050-0" style="stop-color:#000000;stop-opacity:0" offset="0" />
      <stop id="stop5056-5" style="stop-color:#000000;stop-opacity:1" offset="0.5" />
      <stop id="stop5052-9" style="stop-color:#000000;stop-opacity:0" offset="1" />
    </linearGradient>
    <radialGradient inkscape:collect="always" xlink:href="#linearGradient5060-9" id="radialGradient3129" gradientUnits="userSpaceOnUse" gradientTransform="matrix(0.06214224,0,0,0.02900085,1.6365015,28.085503)" cx="605.71429" cy="486.64789" fx="605.71429" fy="486.64789" r="117.14286" />
    <linearGradient id="linearGradient5060-9">
      <stop id="stop5062-2" style="stop-color:#000000;stop-opacity:1" offset="0" />
      <stop id="stop5064-0" style="stop-color:#000000;stop-opacity:0" offset="1" />
    </linearGradient>
    <radialGradient r="117.14286" fy="486.64789" fx="605.71429" cy="486.64789" cx="605.71429" gradientTransform="matrix(-0.06214224,0,0,0.02900085,46.53201,28.085503)" gradientUnits="userSpaceOnUse" id="radialGradient981" xlink:href="#linearGradient5060-9" inkscape:collect="always" />
    <linearGradient inkscape:collect="always" xlink:href="#linearGradient4670" id="linearGradient4676" x1="36.1875" y1="37.9375" x2="36.1875" y2="40.6875" gradientUnits="userSpaceOnUse" gradientTransform="matrix(1,0,0,1.5,0,-19.250001)" />
    <filter id="filter3174-6" color-interpolation-filters="sRGB">
      <feGaussianBlur stdDeviation="1.71" id="feGaussianBlur3176-0" />
    </filter>
    <linearGradient gradientTransform="scale(1.0058652,0.994169)" gradientUnits="userSpaceOnUse" id="ButtonShadow-6" y2="7.0165396" x2="45.447727" y1="92.539597" x1="45.447727">
      <stop offset="0" style="stop-color:#000000;stop-opacity:1" id="stop3750-5" />
      <stop offset="1" style="stop-color:#000000;stop-opacity:0.58823532" id="stop3752-7" />
    </linearGradient>
    <linearGradient id="linearGradient3173-9">
      <stop id="stop3187-3" style="stop-color:#b6b6b6;stop-opacity:1;" offset="0" />
      <stop id="stop3177-1" style="stop-color:#e6e6e6;stop-opacity:1" offset="1" />
    </linearGradient>
    <linearGradient gradientTransform="matrix(0.4643436,0,0,0.47228973,1.7115057,-0.33617121)" x1="46.430859" y1="77.039726" x2="46.430859" y2="33.8722" id="linearGradient3179-2" xlink:href="#linearGradient3173-9" gradientUnits="userSpaceOnUse" />
  </defs>
  <sodipodi:namedview id="base" pagecolor="#ffffff" bordercolor="#666666" borderopacity="1.0" inkscape:pageopacity="0.0" inkscape:pageshadow="2" inkscape:zoom="11.313709" inkscape:cx="34.529042" inkscape:cy="28.330612" inkscape:current-layer="layer1" showgrid="true" inkscape:grid-bbox="true" inkscape:document-units="px" inkscape:window-width="1280" inkscape:window-height="949" inkscape:window-x="0" inkscape:window-y="0" inkscape:window-maximized="1" inkscape:snap-to-guides="false" inkscape:snap-grids="true" inkscape:snap-bbox="true">
    <inkscape:grid type="xygrid" id="grid1021" />
  </sodipodi:namedview>
  <metadata id="metadata4705">
    <rdf:RDF>
      <cc:Work rdf:about="">
        <dc:format>image/svg+xml</dc:format>
        <dc:type rdf:resource="http://purl.org/dc/dcmitype/StillImage" />
        <dc:title />
      </cc:Work>
    </rdf:RDF>
  </metadata>
  <g id="layer1" inkscape:label="Layer 1" inkscape:groupmode="layer">
    <g transform="matrix(0.87953195,0,0,0.99388573,2.8171317,0.51813461)" id="g914">
      <rect style="opacity:0.5;fill:url(#linearGradient3127);fill-opacity:1;fill-rule:nonzero;stroke:none;stroke-width:104.96237946;marker:none;visibility:visible;display:inline;overflow:visible" id="rect4173" y="38.718601" x="9.0813398" height="7.0430632" width="30.005821" />
      <path inkscape:connector-curvature="0" style="opacity:0.5;fill:url(#radialGradient3129);fill-opacity:1;fill-rule:nonzero;stroke:none;stroke-width:104.96237946;marker:none;visibility:visible;display:inline;overflow:visible" id="path5058" d="m 39.087163,38.718845 c 0,0 0,7.042675 0,7.042675 3.200171,0.01326 7.736457,-1.577906 7.736455,-3.52179 0,-1.943885 -3.57115,-3.520884 -7.736455,-3.520885 z" />
      <path inkscape:connector-curvature="0" style="opacity:0.5;fill:url(#radialGradient981);fill-opacity:1;fill-rule:nonzero;stroke:none;stroke-width:104.96237946;marker:none;visibility:visible;display:inline;overflow:visible" id="path5018" d="m 9.0813406,38.718845 c 0,0 0,7.042675 0,7.042675 -3.2001721,0.01326 -7.7364568,-1.577906 -7.7364568,-3.52179 0,-1.943885 3.57115,-3.520884 7.7364568,-3.520885 z" />
    </g>
    <path style="fill:#cacaca;fill-opacity:1;fill-rule:nonzero;stroke:#808080;stroke-width:1;stroke-opacity:1;stroke-miterlimit:4;stroke-dasharray:none" id="rect3243" inkscape:connector-curvature="0" d="m 43.50605,30.493951 0,9.219939 c 0,1.546856 -1.242815,2.79216 -2.78658,2.79216 l -33.4389411,0 c -1.5437645,0 -2.7865784,-1.245304 -2.7865784,-2.79216 l 0,-9.219939 39.0120995,0 z" />
    <path sodipodi:nodetypes="cssccc" d="m 43,30 0,9.530266 C 43,41.075564 42.082231,42 40.548077,42 L 31,42 31,30 z" inkscape:connector-curvature="0" id="path4509" style="opacity:0.8;fill:url(#linearGradient4511);fill-opacity:1;fill-rule:nonzero;stroke:none" />
    <path style="opacity:0.8;fill:url(#linearGradient3279);fill-opacity:1;fill-rule:nonzero;stroke:none" id="path3263" inkscape:connector-curvature="0" d="m 5,30 0,9.530266 C 5,41.075564 5.9177692,42 7.4519229,42 L 17,42 17,30 z" sodipodi:nodetypes="cssccc" />
    <rect style="fill:url(#linearGradient3179-2);fill-opacity:1;fill-rule:nonzero;stroke:gray;stroke-width:0.9951371;stroke-miterlimit:4;stroke-opacity:1;stroke-dasharray:none" id="rect3171" y="2.4975686" x="4.4975686" ry="2.8337386" rx="2.7860613" height="34.004864" width="39.004864" />
    <g id="layer2" style="display:none" transform="translate(5.204491,-179.6879)">
      <rect width="86" height="85" rx="6" ry="6" x="5" y="7" id="rect3745" style="opacity:0.9;fill:url(#ButtonShadow);fill-opacity:1;fill-rule:nonzero;stroke:none;filter:url(#filter3174)" />
    </g>
    <g id="layer4" transform="translate(5.204491,-179.6879)" />
    <rect width="37" height="32" ry="2" x="5.5" y="3.5000007" id="rect4513" style="fill:none;stroke:url(#linearGradient4523);stroke-width:0.99999994;stroke-miterlimit:4;stroke-opacity:1;stroke-dasharray:none" rx="2" />
    <g id="g4574" transform="matrix(1.6071093,0,0,1.6011113,-22.853896,-15.42229)">
      <path transform="matrix(1.1258657,0,0,1.1299899,-4.0539962,-2.8976986)" d="m 38.669902,28.775534 c 0,0.488155 -0.395728,0.883883 -0.883884,0.883883 -0.488155,0 -0.883883,-0.395728 -0.883883,-0.883883 0,-0.488156 0.395728,-0.883884 0.883883,-0.883884 0.488156,0 0.883884,0.395728 0.883884,0.883884 z" sodipodi:ry="0.88388348" sodipodi:rx="0.88388348" sodipodi:cy="28.775534" sodipodi:cx="37.786018" id="path4533" style="color:#000000;color-interpolation:sRGB;color-interpolation-filters:linearRGB;fill:url(#radialGradient2947-3);fill-opacity:1;fill-rule:nonzero;stroke:#dddddd;stroke-width:0.44329152;stroke-linecap:butt;stroke-linejoin:miter;stroke-miterlimit:4;stroke-opacity:1;stroke-dasharray:none;stroke-dashoffset:0;marker:none;visibility:visible;display:inline;overflow:visible;enable-background:accumulate;clip-rule:nonzero" sodipodi:type="arc" />
    </g>
    <g transform="matrix(1.6071093,0,0,1.6011113,-52.853896,-15.42229)" id="g4577" style="stroke:#ebebeb;stroke-opacity:1">
      <path sodipodi:type="arc" style="color:#000000;color-interpolation:sRGB;color-interpolation-filters:linearRGB;fill:url(#radialGradient4581);fill-opacity:1;fill-rule:nonzero;stroke:#ebebeb;stroke-width:0.44329152;stroke-linecap:butt;stroke-linejoin:miter;stroke-miterlimit:4;stroke-opacity:1;stroke-dasharray:none;stroke-dashoffset:0;marker:none;visibility:visible;display:inline;overflow:visible;enable-background:accumulate;clip-rule:nonzero" id="path4579" sodipodi:cx="37.786018" sodipodi:cy="28.775534" sodipodi:rx="0.88388348" sodipodi:ry="0.88388348" d="m 38.669902,28.775534 c 0,0.488155 -0.395728,0.883883 -0.883884,0.883883 -0.488155,0 -0.883883,-0.395728 -0.883883,-0.883883 0,-0.488156 0.395728,-0.883884 0.883883,-0.883884 0.488156,0 0.883884,0.395728 0.883884,0.883884 z" transform="matrix(1.1258657,0,0,1.1299899,-4.0539962,-2.8976986)" />
    </g>
    <g style="stroke:#ebebeb;stroke-opacity:1" id="g4587" transform="matrix(1.6071093,0,0,1.6011113,-22.853896,-40.42229)">
      <path transform="matrix(1.1258657,0,0,1.1299899,-4.0539962,-2.8976986)" d="m 38.669902,28.775534 c 0,0.488155 -0.395728,0.883883 -0.883884,0.883883 -0.488155,0 -0.883883,-0.395728 -0.883883,-0.883883 0,-0.488156 0.395728,-0.883884 0.883883,-0.883884 0.488156,0 0.883884,0.395728 0.883884,0.883884 z" sodipodi:ry="0.88388348" sodipodi:rx="0.88388348" sodipodi:cy="28.775534" sodipodi:cx="37.786018" id="path4589" style="color:#000000;color-interpolation:sRGB;color-interpolation-filters:linearRGB;fill:url(#radialGradient4593);fill-opacity:1;fill-rule:nonzero;stroke:#ebebeb;stroke-width:0.44329152;stroke-linecap:butt;stroke-linejoin:miter;stroke-miterlimit:4;stroke-opacity:1;stroke-dasharray:none;stroke-dashoffset:0;marker:none;visibility:visible;display:inline;overflow:visible;enable-background:accumulate;clip-rule:nonzero" sodipodi:type="arc" />
    </g>
    <g transform="matrix(1.6071093,0,0,1.6011113,-52.853896,-40.42229)" id="g4583">
      <path sodipodi:type="arc" style="color:#000000;color-interpolation:sRGB;color-interpolation-filters:linearRGB;fill:url(#radialGradient4591);fill-opacity:1;fill-rule:nonzero;stroke:#dddddd;stroke-width:0.44329152;stroke-linecap:butt;stroke-linejoin:miter;stroke-miterlimit:4;stroke-opacity:1;stroke-dasharray:none;stroke-dashoffset:0;marker:none;visibility:visible;display:inline;overflow:visible;enable-background:accumulate;clip-rule:nonzero" id="path4585" sodipodi:cx="37.786018" sodipodi:cy="28.775534" sodipodi:rx="0.88388348" sodipodi:ry="0.88388348" d="m 38.669902,28.775534 c 0,0.488155 -0.395728,0.883883 -0.883884,0.883883 -0.488155,0 -0.883883,-0.395728 -0.883883,-0.883883 0,-0.488156 0.395728,-0.883884 0.883883,-0.883884 0.488156,0 0.883884,0.395728 0.883884,0.883884 z" transform="matrix(1.1258657,0,0,1.1299899,-4.0539962,-2.8976986)" />
    </g>
    <rect style="color:#000000;color-interpolation:sRGB;color-interpolation-filters:linearRGB;fill:#00ffff;fill-opacity:1;stroke:url(#linearGradient4676);stroke-width:1;stroke-linecap:butt;stroke-linejoin:miter;stroke-miterlimit:4;stroke-opacity:1;stroke-dasharray:none;stroke-dashoffset:0;marker:none;visibility:visible;display:inline;overflow:visible;enable-background:accumulate;clip-rule:nonzero" id="rect4668" width="5" height="3" x="33.5" y="38.5" />
    <g id="layer2-0" style="display:none" transform="translate(56.475027,-42.901899)">
      <rect width="86" height="85" rx="6" ry="6" x="5" y="7" id="rect3745-8" style="opacity:0.9;fill:url(#ButtonShadow-6);fill-opacity:1;fill-rule:nonzero;stroke:none;filter:url(#filter3174-6)" />
    </g>
    <path style="font-size:medium;font-style:normal;font-variant:normal;font-weight:normal;font-stretch:normal;text-indent:0;text-align:start;text-decoration:none;line-height:normal;letter-spacing:normal;word-spacing:normal;text-transform:none;direction:ltr;block-progression:tb;writing-mode:lr-tb;text-anchor:start;baseline-shift:baseline;color:black;fill:#929292;fill-opacity:1;stroke:none;stroke-width:17.68190193;marker:none;visibility:visible;display:inline;overflow:visible;enable-background:accumulate;font-family:Sans;-inkscape-font-specification:Sans" d="M 17 9 L 13 13 L 14.34375 14.34375 L 18.34375 10.34375 L 17 9 z M 31 9 L 27 13 L 31 17 L 35 13 L 31 9 z M 19.65625 11.65625 L 15.65625 15.65625 L 17 17 L 21 13 L 19.65625 11.65625 z M 24 15 C 21.802467 15 20 16.802466 20 19 C 20 21.197534 21.802467 23 24 23 C 26.197534 23 28 21.197534 28 19 C 28 16.802466 26.197534 15 24 15 z M 24 16.96875 C 25.1408 16.96875 26.0625 17.8592 26.0625 19 C 26.0625 20.140801 25.1408 21.03125 24 21.03125 C 22.8592 21.03125 21.96875 20.140801 21.96875 19 C 21.96875 17.8592 22.8592 16.96875 24 16.96875 z M 21 25 L 21 27 L 27 27 L 27 25 L 21 25 z M 21 29 L 21 31 L 27 31 L 27 29 L 21 29 z " id="path2989" />
  </g>
</svg>
