<?xml version="1.0" encoding="UTF-8" standalone="no"?>
<svg xmlns:dc="http://purl.org/dc/elements/1.1/" xmlns:cc="http://creativecommons.org/ns#" xmlns:rdf="http://www.w3.org/1999/02/22-rdf-syntax-ns#" xmlns:svg="http://www.w3.org/2000/svg" xmlns="http://www.w3.org/2000/svg" xmlns:xlink="http://www.w3.org/1999/xlink" xmlns:sodipodi="http://sodipodi.sourceforge.net/DTD/sodipodi-0.dtd" xmlns:inkscape="http://www.inkscape.org/namespaces/inkscape" viewBox="0 0 48 48" id="svg3481" version="1.1" inkscape:version="0.48.3.1 r9886" width="100%" height="100%" sodipodi:docname="printer.svg">
  <metadata id="metadata3608">
    <rdf:RDF>
      <cc:Work rdf:about="">
        <dc:format>image/svg+xml</dc:format>
        <dc:type rdf:resource="http://purl.org/dc/dcmitype/StillImage" />
      </cc:Work>
    </rdf:RDF>
  </metadata>
  <sodipodi:namedview pagecolor="#ffffff" bordercolor="#666666" borderopacity="1" objecttolerance="10" gridtolerance="10" guidetolerance="10" inkscape:pageopacity="0" inkscape:pageshadow="2" inkscape:window-width="640" inkscape:window-height="480" id="namedview3606" showgrid="false" inkscape:zoom="4.9166667" inkscape:cx="24" inkscape:cy="24" inkscape:window-x="0" inkscape:window-y="24" inkscape:window-maximized="0" inkscape:current-layer="svg3481" />
  <defs id="defs3483">
    <filter height="2.2798" id="filter3914" width="1.2364" x="-.1182" y="-.6399">
      <feGaussianBlur stdDeviation="1.872" id="feGaussianBlur3489" />
    </filter>
    <linearGradient id="linearGradient4050">
      <stop offset="0" stop-color="#fff" stop-opacity=".669" id="stop3495" />
      <stop offset="1" stop-color="#fff" stop-opacity="0" id="stop3497" />
    </linearGradient>
    <linearGradient gradientUnits="userSpaceOnUse" id="linearGradient3104" x1="4.4031" x2="23.474">
      <stop offset="0" stop-color="#fff" stop-opacity=".502" id="stop3505" />
      <stop offset="1" stop-color="#fff" stop-opacity="0" id="stop3507" />
    </linearGradient>
    <linearGradient gradientTransform="matrix(0,-1.82233,-1.62141,0,68.99015,-18.31992)" gradientUnits="userSpaceOnUse" id="linearGradient3120" x1="-22.9608" x2="-12.1495">
      <stop offset="0" stop-color="#fff" id="stop3510" />
      <stop offset="1" stop-color="#cdcdcd" id="stop3512" />
    </linearGradient>
    <linearGradient gradientUnits="userSpaceOnUse" id="linearGradient4535" x2="0" y1="38.6562" y2="42.7812">
      <stop offset="0" stop-color="#808080" id="stop3515" />
      <stop offset="1" stop-color="#fff" id="stop3517" />
    </linearGradient>
    <linearGradient id="linearGradient3774-1-0">
      <stop offset="0" stop-color="#b3b3b3" id="stop3520" />
      <stop offset="1" stop-color="#e7e7e7" id="stop3522" />
    </linearGradient>
    <linearGradient gradientUnits="userSpaceOnUse" id="linearGradient5527" x2="0" y1="3.1576" y2="23.709">
      <stop offset="0" stop-color="#757575" id="stop3525" />
      <stop offset="1" stop-color="#292929" id="stop3527" />
    </linearGradient>
    <linearGradient gradientUnits="userSpaceOnUse" id="linearGradient5582" x2="0" y1="4.9838" y2="19.625">
      <stop offset="0" stop-color="#999" id="stop3530" />
      <stop offset="1" stop-color="#727272" id="stop3532" />
    </linearGradient>
    <linearGradient gradientUnits="userSpaceOnUse" id="linearGradient5584" x2="0" y1="21.7652" y2="19.9744">
      <stop offset="0" stop-color="#d3b72c" id="stop3535" />
      <stop offset="1" stop-color="#f2ea73" id="stop3537" />
    </linearGradient>
    <linearGradient gradientUnits="userSpaceOnUse" id="linearGradient5586" x2="0" y1="19.5112" y2="14.0665">
      <stop offset="0" stop-color="#ceeefb" id="stop3540" />
      <stop offset="1" stop-color="#61a2f4" id="stop3542" />
    </linearGradient>
    <linearGradient gradientUnits="userSpaceOnUse" id="linearGradient6103" x1="19.0944" x2="31.227" y1="19.9025" y2="36.1441">
      <stop offset="0" stop-color="#fff" id="stop3555" />
      <stop offset="1" stop-color="#fff" stop-opacity="0" id="stop3557" />
    </linearGradient>
    <linearGradient gradientUnits="userSpaceOnUse" id="linearGradient4523" x2="0" xlink:href="#linearGradient4050" y1="11.2534" y2="33.3442" />
    <linearGradient gradientTransform="matrix(1,0,0,1.48081,.6353,-22.73585)" gradientUnits="userSpaceOnUse" id="linearGradient4576-2" x1="19.757586" x2="28.4864" xlink:href="#linearGradient3774-1-0" y1="23.247763" y2="28.2652" />
    <linearGradient gradientTransform="matrix(1,0,0,1.26118,.6353,-13.95239)" gradientUnits="userSpaceOnUse" id="linearGradient4576-2-8" x1="14.2364" x2="29.7364" xlink:href="#linearGradient3774-1-0" y1="45.9819" y2="40.123" />
    <linearGradient gradientUnits="userSpaceOnUse" id="linearGradient5534" x2="0" xlink:href="#linearGradient4050" y1="37.2535" y2="42.9364" />
    <linearGradient inkscape:collect="always" xlink:href="#linearGradient5582" id="linearGradient3948" gradientUnits="userSpaceOnUse" y1="4.9838" x2="0" y2="19.625" gradientTransform="translate(0,2)" />
    <linearGradient gradientUnits="userSpaceOnUse" id="linearGradient5621-7" x1="17.391701" x2="29.636" y1="43.8284" y2="37.287701">
      <stop offset="0" stop-opacity=".706" id="stop3545-1" />
      <stop offset="1" stop-opacity=".353" id="stop3547-1" />
    </linearGradient>
    <linearGradient gradientUnits="userSpaceOnUse" id="linearGradient5621-9-6" x1="17.922001" x2="29.1057" y1="26.769501" y2="35.343102">
      <stop offset="0" stop-opacity=".731" id="stop3550-4" />
      <stop offset="1" stop-opacity=".415" id="stop3552-7" />
    </linearGradient>
    <filter color-interpolation-filters="sRGB" height="1.2874" id="filter5517-9" width="1.227" x="-0.1135" y="-0.1437">
      <feGaussianBlur stdDeviation="1.407" id="feGaussianBlur3492-1" />
    </filter>
  </defs>
  <path d="m9.9895,60.1457h30.0005a4.0001,3.5101 0 0,1 4.0001,3.5101 4.0001,3.5101 0 0,1 -4.0001,3.5101h-30.0005a4.0001,3.5101 0 0,1 -4.0001-3.5101 4.0001,3.5101 0 0,1 4.0001-3.5101" fill-opacity=".416" filter="url(#filter3914)" transform="matrix(.99998,0,0,.64101,-.98934,2.94614)" id="path3564" />
  <path d="m6.5155,13.5155h34.9691a3,3 0 0,1 3,3v24.9691a3,3 0 0,1 -3,3h-34.9691a3,3 0 0,1 -3-3v-24.9691a3,3 0 0,1 3-3" fill="url(#linearGradient4576-2-8)" stroke="#484848" stroke-width="1.0309" id="path3566" />
  <path d="m6.5155,9.5155h34.9691a3,3 0 0,1 3,3v20.9691a3,3 0 0,1 -3,3h-34.9691a3,3 0 0,1 -3-3v-20.9691a3,3 0 0,1 3-3" fill="url(#linearGradient4576-2)" stroke="#484848" stroke-width="1.0309" id="path3568" style="fill:url(#linearGradient4576-2)" />
  <path d="m6.5122,10.5122h34.9757a2,2 0 0,1 2,2v20.9757a2,2 0 0,1 -2,2h-34.9757a2,2 0 0,1 -2-2v-20.9757a2,2 0 0,1 2-2" fill="none" stroke="url(#linearGradient4523)" stroke-width="1.0243" id="path3570" />
  <path d="M 40.300045,24.214182 V 12.891287 c 0,-0.612484 -1.002767,-1.105549 -2.248253,-1.105549 H 9.9482479 c -1.2455959,0 -2.2482529,0.493065 -2.2482529,1.105549 v 11.322895 z" id="path3572" style="color:#000000;fill:#2d2d2d;fill-opacity:1;fill-rule:nonzero;stroke-width:0.76127243000000000;stroke-linecap:butt;stroke-linejoin:miter;stroke-miterlimit:4;stroke-opacity:1;stroke-dasharray:none;stroke-dashoffset:0;marker:none;visibility:visible;display:inline;overflow:visible;filter:url(#filter5517-9);enable-background:accumulate" />
  <path d="m38.5,24.5v-19.132c0-1.0349-.892-1.868-2-1.868h-25c-1.108,0-2,.8331-2,1.868v19.132z" fill="url(#linearGradient3120)" stroke="url(#linearGradient5527)" stroke-linecap="round" stroke-linejoin="round" id="path3574" />
  <path d="m 7,24 c 0,1.3079 1.1736,2 2,2 h 30 c 1.0826,0 2,-0.7097 2,-2 0,-1.2903 -1.109,-2 -2,-2 v 1.9688 l -30,3e-4 v -1.969 c -0.9141,0 -2,0.6921 -2,2 z" id="path3576" style="color:#000000;fill:#2d2d2d;fill-opacity:1;fill-rule:nonzero;stroke-width:1;stroke-linecap:butt;stroke-linejoin:miter;stroke-miterlimit:4;stroke-opacity:1;stroke-dasharray:none;stroke-dashoffset:0;marker:none;visibility:visible;display:inline;overflow:visible;enable-background:accumulate" />
  <path d="m5.4545-37.5h17.0909a1,1 0 0,1 1,1v25a1,1 0 0,1 -1,1h-17.0909a1,1 0 0,1 -1-1v-25a1,1 0 0,1 1-1" fill="none" stroke="url(#linearGradient3104)" stroke-linecap="round" stroke-linejoin="round" transform="matrix(0,1,-1,0,0,0)" id="path3578" />
  <path inkscape:connector-curvature="0" style="fill:url(#linearGradient3948)" id="path3582" d="M 24.9974,7 V 9 H 36 V 7 H 24.9974 z m 0,4 v 2 H 36 V 11 H 24.9974 z m 0,4 v 2 H 35.9688 V 15 H 24.9974 z M 12,19 v 2 H 36 V 19 H 12 z" />
  <g id="g3584" transform="matrix(1.2254,0,0,1.25,-3.93019,-10.5)">
    <path style="fill:#ffffff" inkscape:connector-curvature="0" id="path3586" d="m 13,14 h 9 v 8 h -9 z" />
    <path inkscape:connector-curvature="0" style="fill:url(#linearGradient5584)" id="path3588" d="m 13,20 h 9 v 2 h -9 z" />
    <path inkscape:connector-curvature="0" style="fill:url(#linearGradient5586)" id="path3590" d="m 13,14 h 9 v 6 h -9 z" />
    <path style="fill:#a86516" inkscape:connector-curvature="0" id="path3592" d="m 13,19 h 1.1678 c 1.5134,0 0.7191,-2.0854 3.0202,-2.0854 C 19.3447,17.0009 18.4824,19 20.4958,19 H 22 v 1 h -9 z" />
    <path style="fill:#ffff00" inkscape:connector-curvature="0" id="path3594" transform="translate(-42.5983,-0.4859)" d="m 63.9272,16.4319 c 0,0.6354 -0.5151,1.1505 -1.1505,1.1505 -0.6354,0 -1.1505,-0.5151 -1.1505,-1.1505 0,-0.6354 0.5151,-1.1505 1.1505,-1.1505 0.6354,0 1.1505,0.5151 1.1505,1.1505 z" />
  </g>
  <path d="m37.5,39.5h4v3h-4z" fill="#0ff" stroke="url(#linearGradient4535)" id="path3596" />
  <path d="m6.5122,37.5 34.9757-.0061c1.0698,0 2-.6129 2-.6129v4.4564c0,1.1913-.892,2.1504-2,2.1504h-34.9757c-1.108,0-2-.9591-2-2.1504v-4.4564c0,0 .7484.619 2,.619z" fill="none" stroke="url(#linearGradient5534)" stroke-width="1.0243" id="path3598" />
  <path d="m 12,37 h 24 v 8 H 12 z" id="path3600" style="color:#000000;fill:url(#linearGradient5621-7);fill-opacity:1;fill-rule:nonzero;stroke-width:1;stroke-linecap:butt;stroke-linejoin:miter;stroke-miterlimit:4;stroke-opacity:1;stroke-dasharray:none;stroke-dashoffset:0;marker:none;visibility:visible;display:inline;overflow:visible;enable-background:accumulate" />
  <path d="M 12,26 H 36 V 37 H 12 z" id="path3602" style="color:#000000;fill:url(#linearGradient5621-9-6);fill-opacity:1;fill-rule:nonzero;stroke-width:1;stroke-linecap:butt;stroke-linejoin:miter;stroke-miterlimit:4;stroke-opacity:1;stroke-dasharray:none;stroke-dashoffset:0;marker:none;visibility:visible;display:inline;overflow:visible;enable-background:accumulate" />
  <path d="m24,26h12v19h-6.6525z" fill="url(#linearGradient6103)" opacity=".99" id="path3604" />
</svg>
