#define shade_width 13
#define shade_height 13
static unsigned char shade_bits[] = {
   0x00, 0x00, 0xf8, 0x01, 0xf8, 0x01, 0x00, 0x00, 0x00, 0x00, 0x00, 0x00,
   0x00, 0x00, 0x00, 0x00, 0x00, 0x00, 0x00, 0x00, 0x00, 0x00, 0x00, 0x00,
   0x00, 0x00 };
