#define bullet_width 14
#define bullet_height 14
static unsigned char bullet_bits[] = {
   0x00, 0x00, 0x00, 0x00, 0x00, 0x00, 0x38, 0x07, 0x38, 0x07, 0x18, 0x06,
   0x00, 0x00, 0x00, 0x00, 0x18, 0x06, 0x38, 0x07, 0x38, 0x07, 0x00, 0x00,
   0x00, 0x00, 0x00, 0x00 };
