<?xml version="1.0" encoding="UTF-8" standalone="no"?>
<!-- Created with Inkscape (http://www.inkscape.org/) -->

<svg
   xmlns:dc="http://purl.org/dc/elements/1.1/"
   xmlns:cc="http://creativecommons.org/ns#"
   xmlns:rdf="http://www.w3.org/1999/02/22-rdf-syntax-ns#"
   xmlns:svg="http://www.w3.org/2000/svg"
   xmlns="http://www.w3.org/2000/svg"
   xmlns:xlink="http://www.w3.org/1999/xlink"
   xmlns:sodipodi="http://sodipodi.sourceforge.net/DTD/sodipodi-0.dtd"
   xmlns:inkscape="http://www.inkscape.org/namespaces/inkscape"
   version="1.0"
   width="48"
   height="48"
   id="svg3437"
   inkscape:version="0.48.3.1 r9886"
   sodipodi:docname="user-desktop.svg">
  <metadata
     id="metadata101">
    <rdf:RDF>
      <cc:Work
         rdf:about="">
        <dc:format>image/svg+xml</dc:format>
        <dc:type
           rdf:resource="http://purl.org/dc/dcmitype/StillImage" />
        <dc:title />
      </cc:Work>
    </rdf:RDF>
  </metadata>
  <sodipodi:namedview
     pagecolor="#ffffff"
     bordercolor="#666666"
     borderopacity="1"
     objecttolerance="10"
     gridtolerance="10"
     guidetolerance="10"
     inkscape:pageopacity="0"
     inkscape:pageshadow="2"
     inkscape:window-width="568"
     inkscape:window-height="597"
     id="namedview99"
     showgrid="true"
     inkscape:zoom="5.656854"
     inkscape:cx="35.698093"
     inkscape:cy="21.790898"
     inkscape:window-x="649"
     inkscape:window-y="99"
     inkscape:window-maximized="0"
     inkscape:current-layer="svg3437"
     inkscape:snap-to-guides="false"
     inkscape:snap-grids="false"
     showguides="true"
     inkscape:guide-bbox="true">
    <inkscape:grid
       type="xygrid"
       id="grid911" />
  </sodipodi:namedview>
  <defs
     id="defs3439">
    <linearGradient
       id="linearGradient1008">
      <stop
         id="stop1010"
         offset="0"
         style="stop-color:#b6daf1;stop-opacity:1;" />
      <stop
         id="stop1012"
         offset="1"
         style="stop-color:#005cc5;stop-opacity:0.61290324;" />
    </linearGradient>
    <linearGradient
       inkscape:collect="always"
       id="linearGradient986">
      <stop
         style="stop-color:#ffffff;stop-opacity:1;"
         offset="0"
         id="stop988" />
      <stop
         style="stop-color:#ffffff;stop-opacity:0;"
         offset="1"
         id="stop990" />
    </linearGradient>
    <linearGradient
       id="linearGradient965">
      <stop
         id="stop967"
         offset="0"
         style="stop-color:#ffffff;stop-opacity:0.31451613;" />
      <stop
         id="stop969"
         offset="1"
         style="stop-color:#ffffff;stop-opacity:0;" />
    </linearGradient>
    <linearGradient
       id="linearGradient1072">
      <stop
         style="stop-color:#ffffff;stop-opacity:1;"
         offset="0"
         id="stop1074" />
      <stop
         style="stop-color:#828282;stop-opacity:1;"
         offset="1"
         id="stop1076" />
    </linearGradient>
    <linearGradient
       id="linearGradient1056">
      <stop
         style="stop-color:#2a5e7f;stop-opacity:1;"
         offset="0"
         id="stop1058" />
      <stop
         style="stop-color:#081625;stop-opacity:1;"
         offset="1"
         id="stop1060" />
    </linearGradient>
    <linearGradient
       id="linearGradient5060">
      <stop
         id="stop5062"
         style="stop-color:#000000;stop-opacity:1"
         offset="0" />
      <stop
         id="stop5064"
         style="stop-color:#000000;stop-opacity:0"
         offset="1" />
    </linearGradient>
    <linearGradient
       id="linearGradient5048">
      <stop
         id="stop5050"
         style="stop-color:#000000;stop-opacity:0"
         offset="0" />
      <stop
         id="stop5056"
         style="stop-color:#000000;stop-opacity:1"
         offset="0.5" />
      <stop
         id="stop5052"
         style="stop-color:#000000;stop-opacity:0"
         offset="1" />
    </linearGradient>
    <linearGradient
       inkscape:collect="always"
       xlink:href="#linearGradient5048"
       id="linearGradient3127"
       gradientUnits="userSpaceOnUse"
       gradientTransform="matrix(0.06214224,0,0,0.02900085,1.6242719,28.953157)"
       x1="302.85715"
       y1="366.64789"
       x2="302.85715"
       y2="609.50507" />
    <radialGradient
       inkscape:collect="always"
       xlink:href="#linearGradient5060"
       id="radialGradient3129"
       gradientUnits="userSpaceOnUse"
       gradientTransform="matrix(0.06214224,0,0,0.02900085,1.6365015,28.953157)"
       cx="605.71429"
       cy="486.64789"
       fx="605.71429"
       fy="486.64789"
       r="117.14286" />
    <radialGradient
       inkscape:collect="always"
       xlink:href="#linearGradient5060"
       id="radialGradient3131"
       gradientUnits="userSpaceOnUse"
       gradientTransform="matrix(-0.06214224,0,0,0.02900085,46.53201,28.953157)"
       cx="605.71429"
       cy="486.64789"
       fx="605.71429"
       fy="486.64789"
       r="117.14286" />
    <radialGradient
       gradientUnits="userSpaceOnUse"
       gradientTransform="matrix(0.02015773,0,0,0.01176063,-4.3373826,19.875339)"
       r="1301.5625"
       fy="266.42468"
       fx="1273.4375"
       cy="266.42468"
       cx="1273.4375"
       id="radialGradient4014"
       xlink:href="#linearGradient4008"
       inkscape:collect="always" />
    <linearGradient
       id="linearGradient4008">
      <stop
         id="stop4010"
         offset="0"
         style="stop-color:#ffffff;stop-opacity:0.61290324;" />
      <stop
         id="stop4012"
         offset="1"
         style="stop-color:#ffffff;stop-opacity:0.12096774;" />
    </linearGradient>
    <radialGradient
       r="1280"
       fy="152.42702"
       fx="1608.7716"
       cy="152.42702"
       cx="1608.7716"
       gradientTransform="matrix(0.01878261,0,0,0.01860362,0.20574255,19.084604)"
       gradientUnits="userSpaceOnUse"
       id="radialGradient3858-6"
       xlink:href="#linearGradient3793-6"
       inkscape:collect="always" />
    <linearGradient
       id="linearGradient3793-6">
      <stop
         id="stop3795-6"
         offset="0"
         style="stop-color:#56b1d5;stop-opacity:1" />
      <stop
         id="stop3797-1"
         offset="1"
         style="stop-color:#124275;stop-opacity:1;" />
    </linearGradient>
    <linearGradient
       inkscape:collect="always"
       xlink:href="#linearGradient1056"
       id="linearGradient1062"
       x1="23.429665"
       y1="8.403966"
       x2="23.429665"
       y2="39.357925"
       gradientUnits="userSpaceOnUse"
       gradientTransform="matrix(1,0,0,1.2580645,0,-6.1935481)" />
    <linearGradient
       inkscape:collect="always"
       xlink:href="#linearGradient1072"
       id="linearGradient1070"
       x1="23.362995"
       y1="35.401203"
       x2="23.362995"
       y2="38.406406"
       gradientUnits="userSpaceOnUse"
       gradientTransform="matrix(1.0243901,0,0,1,-0.58536552,4.5)" />
    <linearGradient
       inkscape:collect="always"
       xlink:href="#linearGradient965"
       id="linearGradient971"
       gradientUnits="userSpaceOnUse"
       gradientTransform="matrix(0.95348835,0,0,1.1935483,1.1162793,-4.6451614)"
       x1="23.429665"
       y1="8.403966"
       x2="23.429665"
       y2="39.357925" />
    <linearGradient
       inkscape:collect="always"
       xlink:href="#linearGradient986"
       id="linearGradient992"
       x1="10.188892"
       y1="-5.7136512"
       x2="34.45406"
       y2="25.487436"
       gradientUnits="userSpaceOnUse"
       gradientTransform="matrix(1.0416667,0,0,1,-0.8333337,-1.0000005)" />
    <linearGradient
       inkscape:collect="always"
       xlink:href="#linearGradient1008"
       id="linearGradient1014"
       gradientUnits="userSpaceOnUse"
       gradientTransform="matrix(1.0243901,0,0,1,-0.58536552,4.5)"
       x1="23.362995"
       y1="35.401203"
       x2="23.362995"
       y2="38.406406" />
  </defs>
  <path
     d="m 39.087163,39.586499 c 0,0 0,7.042675 0,7.042675 3.200171,0.01326 7.736457,-1.577906 7.736455,-3.52179 0,-1.943885 -3.57115,-3.520884 -7.736455,-3.520885 z"
     id="path5058"
     style="opacity:0.5;fill:url(#radialGradient3129);fill-opacity:1;fill-rule:nonzero;stroke:none;stroke-width:104.96237946;marker:none;visibility:visible;display:inline;overflow:visible"
     inkscape:connector-curvature="0" />
  <rect
     width="30.005821"
     height="7.0430632"
     x="9.0813398"
     y="39.58625"
     id="rect4173"
     style="opacity:0.5;fill:url(#linearGradient3127);fill-opacity:1;fill-rule:nonzero;stroke:none;stroke-width:104.96237946;marker:none;visibility:visible;display:inline;overflow:visible" />
  <path
     d="m 9.0813406,39.586499 c 0,0 0,7.042675 0,7.042675 -3.2001721,0.01326 -7.7364568,-1.577906 -7.7364568,-3.52179 0,-1.943885 3.57115,-3.520884 7.7364568,-3.520885 z"
     id="path5018"
     style="opacity:0.5;fill:url(#radialGradient3131);fill-opacity:1;fill-rule:nonzero;stroke:none;stroke-width:104.96237946;marker:none;visibility:visible;display:inline;overflow:visible"
     inkscape:connector-curvature="0" />
  <rect
     style="color:#000000;color-interpolation:sRGB;color-interpolation-filters:linearRGB;fill:url(#radialGradient3858-6);fill-opacity:1;fill-rule:nonzero;stroke:url(#linearGradient1062);stroke-width:0.99999994;stroke-opacity:1;marker:none;visibility:visible;display:inline;overflow:visible;enable-background:accumulate;clip-rule:nonzero"
     id="rect990"
     width="43"
     height="39"
     x="2.5"
     y="4.5"
     ry="2"
     rx="2" />
  <path
     style="fill:url(#radialGradient4014);fill-opacity:1;stroke:none;opacity:0.66489362"
     d="m 45.668682,12.53125 c 0,0 -7.736671,13.886194 -22.309057,10.34375 12.153128,4.151302 22.309057,-5.75 22.309057,-5.75 l 0,-4.59375 z m -27.894633,2.9375 c 0,0 -1.465236,5.041729 5.419338,7.46875 -6.050498,-2.91252 -5.419338,-7.46875 -5.419338,-7.46875 z m -15.9587892,0.3125 0,1.125 c -4.3332883,0.159248 -6.4500105,1.5625 -6.4500105,1.5625 L -4.9007305,21.375 c 0,0 2.2267495,-2.054567 6.7159903,-2.875 l 0,2.53125 c -3.207399,0.486809 -4.9538741,1.28125 -4.9538741,1.28125 l -0.066495,5.65625 c 0,0 1.9500914,-1.860238 5.3860912,-3.46875 0.2272608,0.127507 0.6301004,0.334772 1.2301567,0.625 -3.99142707,1.694008 -6.549753,3.78125 -6.549753,3.78125 l 0,3.09375 c 0,0 2.59923661,-3.824279 7.5139298,-6.4375 3.5934809,1.584228 10.7518466,4.012748 19.9484866,3.59375 12.076247,6.904414 21.112147,1.625 21.112147,1.625 l 0,-1.5 c 0,0 -7.988407,4.949738 -19.848743,-0.1875 1.460645,-0.107492 2.973231,-0.260772 4.521657,-0.53125 0.593998,0.863966 1.657718,1.711843 3.55748,2.125 -1.623011,-0.558122 -2.632888,-1.379568 -3.258253,-2.1875 2.120192,-0.384707 4.294055,-0.932922 6.549753,-1.6875 -2.409428,0.634941 -4.707844,0.969531 -6.915475,1.09375 -0.621351,-1.077892 -0.66495,-2 -0.66495,-2 0,0 -0.108751,0.936453 0.365722,2 C 27.100869,28.031399 24.61707,27.86556 22.295705,27.4375 21.065181,26.742166 19.79951,25.930432 18.505493,25 c 0.94269,0.814121 1.874997,1.557755 2.792788,2.21875 -3.859622,-0.835406 -7.239492,-2.278644 -10.040738,-3.875 2.368506,-0.299551 4.997892,-0.194304 7.9129,0.53125 -2.886524,-0.884524 -5.672597,-1.034129 -8.278622,-0.75 -0.425501,-0.248945 -0.832262,-0.496998 -1.2301567,-0.75 3.2413057,-0.389584 6.9864757,-0.204319 11.1711527,1.15625 14.544262,4.728793 24.835865,1.28125 24.835865,1.28125 l 0.199485,-6.75 c 0,0 -9.575356,9.994937 -24.736123,5.03125 C 15.636055,21.294345 10.959811,20.685669 7.201351,20.65625 6.0154073,19.770591 5.0145776,18.95459 4.2090781,18.21875 7.9047187,17.987374 12.725454,18.633109 18.704978,21.3125 11.84289,17.90929 6.5971762,16.910113 2.8126841,16.875 2.1738814,16.220008 1.8152598,15.78125 1.8152598,15.78125 z M 48.0625,25.59375 C 41.361777,31.965051 34.431035,30.75 34.431035,30.75 c 0,0 7.406157,2.195284 13.631465,-5.15625 z"
     id="path3856"
     inkscape:connector-curvature="0" />
  <rect
     style="color:#000000;color-interpolation:sRGB;color-interpolation-filters:linearRGB;fill:#ffffff;fill-opacity:0.50196078;fill-rule:nonzero;stroke:none;stroke-width:1;marker:none;visibility:visible;display:inline;overflow:visible;enable-background:accumulate;clip-rule:nonzero"
     id="rect1090"
     width="4"
     height="4"
     x="7"
     y="9"
     rx="1.0000001"
     ry="0.99999994" />
  <rect
     ry="0.99999994"
     rx="1.0000001"
     y="15"
     x="7"
     height="4"
     width="4"
     id="rect1092"
     style="color:#000000;color-interpolation:sRGB;color-interpolation-filters:linearRGB;fill:#ffffff;fill-opacity:0.50196078;fill-rule:nonzero;stroke:none;stroke-width:1;marker:none;visibility:visible;display:inline;overflow:visible;enable-background:accumulate;clip-rule:nonzero" />
  <rect
     style="color:#000000;color-interpolation:sRGB;color-interpolation-filters:linearRGB;fill:#ffffff;fill-opacity:0.50196078;fill-rule:nonzero;stroke:none;stroke-width:1;marker:none;visibility:visible;display:inline;overflow:visible;enable-background:accumulate;clip-rule:nonzero"
     id="rect1094"
     width="4"
     height="4"
     x="7"
     y="21"
     rx="1.0000001"
     ry="0.99999994" />
  <rect
     ry="1"
     y="5.5"
     x="3.5"
     height="37"
     width="41"
     id="rect963"
     style="color:#000000;color-interpolation:sRGB;color-interpolation-filters:linearRGB;fill:none;stroke:url(#linearGradient971);stroke-width:0.99999988;stroke-opacity:1;marker:none;visibility:visible;display:inline;overflow:visible;enable-background:accumulate;clip-rule:nonzero"
     rx="1" />
  <path
     style="opacity:0.98999999;color:#000000;color-interpolation:sRGB;color-interpolation-filters:linearRGB;fill:url(#linearGradient992);fill-opacity:1;stroke:none;stroke-width:0.99999982;marker:none;visibility:visible;display:inline;overflow:visible;enable-background:accumulate;clip-rule:nonzero"
     d="m 20,4.9999995 23,0 c 1.383518,0 2,0.4891061 2,2.0000005 l 0,34.5 -13.859384,0 z"
     id="rect966"
     inkscape:connector-curvature="0"
     sodipodi:nodetypes="cccccc" />
  <path
     style="color:#000000;color-interpolation:sRGB;color-interpolation-filters:linearRGB;fill:url(#linearGradient1014);fill-opacity:1;fill-rule:nonzero;stroke:none;stroke-width:0.99999994;marker:none;visibility:visible;display:inline;overflow:visible;enable-background:accumulate;clip-rule:nonzero"
     d="m 3,40 0,1.5 C 3,42.285733 3.669,43 4.5,43 l 5.5,0 0,-3 -7,0 z"
     id="path1006" />
  <path
     style="color:#000000;color-interpolation:sRGB;color-interpolation-filters:linearRGB;fill:url(#linearGradient1070);fill-opacity:1;fill-rule:nonzero;stroke:none;stroke-width:0.99999994;marker:none;visibility:visible;display:inline;overflow:visible;enable-background:accumulate;clip-rule:nonzero"
     d="m 10,40 0,3 33.5,0 C 44.331,43 45,42.331 45,41.5 L 45,40 z"
     id="rect1066"
     inkscape:connector-curvature="0"
     sodipodi:nodetypes="ccsscc" />
</svg>
