<?xml version="1.0" encoding="UTF-8" standalone="no"?>
<!-- Created with Inkscape (http://www.inkscape.org/) -->

<svg
   xmlns:dc="http://purl.org/dc/elements/1.1/"
   xmlns:cc="http://creativecommons.org/ns#"
   xmlns:rdf="http://www.w3.org/1999/02/22-rdf-syntax-ns#"
   xmlns:svg="http://www.w3.org/2000/svg"
   xmlns="http://www.w3.org/2000/svg"
   xmlns:xlink="http://www.w3.org/1999/xlink"
   xmlns:sodipodi="http://sodipodi.sourceforge.net/DTD/sodipodi-0.dtd"
   xmlns:inkscape="http://www.inkscape.org/namespaces/inkscape"
   version="1.0"
   width="48"
   height="48"
   id="svg3437"
   inkscape:version="0.48.3.1 r9886"
   sodipodi:docname="user-trash.svg">
  <metadata
     id="metadata101">
    <rdf:RDF>
      <cc:Work
         rdf:about="">
        <dc:format>image/svg+xml</dc:format>
        <dc:type
           rdf:resource="http://purl.org/dc/dcmitype/StillImage" />
        <dc:title />
      </cc:Work>
    </rdf:RDF>
  </metadata>
  <sodipodi:namedview
     pagecolor="#ffffff"
     bordercolor="#666666"
     borderopacity="1"
     objecttolerance="10"
     gridtolerance="10"
     guidetolerance="10"
     inkscape:pageopacity="0"
     inkscape:pageshadow="2"
     inkscape:window-width="1280"
     inkscape:window-height="975"
     id="namedview99"
     showgrid="true"
     inkscape:zoom="5.8999222"
     inkscape:cx="38.067983"
     inkscape:cy="27.135634"
     inkscape:window-x="0"
     inkscape:window-y="26"
     inkscape:window-maximized="1"
     inkscape:current-layer="svg3437"
     inkscape:snap-to-guides="false"
     inkscape:snap-grids="false"
     showguides="true"
     inkscape:guide-bbox="true">
    <inkscape:grid
       type="xygrid"
       id="grid911" />
  </sodipodi:namedview>
  <defs
     id="defs3439">
    <linearGradient
       id="linearGradient878">
      <stop
         id="stop880"
         offset="0"
         style="stop-color:#ffffff;stop-opacity:1;" />
      <stop
         id="stop882"
         offset="1"
         style="stop-color:#ffffff;stop-opacity:0;" />
    </linearGradient>
    <linearGradient
       id="linearGradient872">
      <stop
         id="stop874"
         offset="0"
         style="stop-color:#ffffff;stop-opacity:1;" />
      <stop
         id="stop876"
         offset="1"
         style="stop-color:#ffffff;stop-opacity:0;" />
    </linearGradient>
    <linearGradient
       id="linearGradient1153">
      <stop
         style="stop-color:#000000;stop-opacity:1;"
         offset="0"
         id="stop1155" />
      <stop
         style="stop-color:#000000;stop-opacity:0;"
         offset="1"
         id="stop1157" />
    </linearGradient>
    <linearGradient
       id="linearGradient1123">
      <stop
         style="stop-color:#757575;stop-opacity:1;"
         offset="0"
         id="stop1125" />
      <stop
         style="stop-color:#a9a9a9;stop-opacity:1;"
         offset="1"
         id="stop1127" />
    </linearGradient>
    <linearGradient
       id="linearGradient6288-0">
      <stop
         id="stop6290-8"
         offset="0"
         style="stop-color:#ababab;stop-opacity:1;" />
      <stop
         id="stop6292-0"
         offset="1"
         style="stop-color:#f1f1f1;stop-opacity:1;" />
    </linearGradient>
    <linearGradient
       inkscape:collect="always"
       xlink:href="#linearGradient6288-0"
       id="linearGradient1060"
       x1="4"
       y1="24"
       x2="24.124998"
       y2="24"
       gradientUnits="userSpaceOnUse"
       spreadMethod="reflect" />
    <linearGradient
       inkscape:collect="always"
       xlink:href="#linearGradient1123"
       id="linearGradient1129"
       x1="22.375"
       y1="14.625"
       x2="22.375"
       y2="6.3567719"
       gradientUnits="userSpaceOnUse"
       gradientTransform="matrix(1.0285714,0,0,1.2941176,-0.68571428,-3.4117647)" />
    <linearGradient
       inkscape:collect="always"
       xlink:href="#linearGradient1153"
       id="linearGradient1159"
       x1="8.5"
       y1="10.812498"
       x2="17.25"
       y2="10.812498"
       gradientUnits="userSpaceOnUse"
       gradientTransform="matrix(1.0857143,0,0,1.3538461,-3.2285716,-4.1384593)" />
    <linearGradient
       inkscape:collect="always"
       xlink:href="#linearGradient1153"
       id="linearGradient1167"
       gradientUnits="userSpaceOnUse"
       gradientTransform="matrix(1.0857143,0,0,1.3538461,-51.228573,-4.1384593)"
       x1="8.5"
       y1="10.812498"
       x2="17.25"
       y2="10.812498" />
    <linearGradient
       inkscape:collect="always"
       xlink:href="#linearGradient872"
       id="linearGradient1177"
       gradientUnits="userSpaceOnUse"
       gradientTransform="matrix(-0.74285716,0,0,-3.4461538,48.314286,65.261528)"
       x1="8.5"
       y1="10.812498"
       x2="17.25"
       y2="10.812498" />
    <radialGradient
       r="117.14286"
       fy="486.64789"
       fx="605.71429"
       cy="486.64789"
       cx="605.71429"
       gradientTransform="matrix(-0.06214224,0,0,0.02900085,113.32277,26.707456)"
       gradientUnits="userSpaceOnUse"
       id="radialGradient3131"
       xlink:href="#linearGradient5060-4"
       inkscape:collect="always" />
    <radialGradient
       r="117.14286"
       fy="486.64789"
       fx="605.71429"
       cy="486.64789"
       cx="605.71429"
       gradientTransform="matrix(0.06214224,0,0,0.02900085,68.427258,26.707456)"
       gradientUnits="userSpaceOnUse"
       id="radialGradient3129"
       xlink:href="#linearGradient5060-4"
       inkscape:collect="always" />
    <linearGradient
       y2="609.50507"
       x2="302.85715"
       y1="366.64789"
       x1="302.85715"
       gradientTransform="matrix(0.06214224,0,0,0.02900085,68.415029,26.707456)"
       gradientUnits="userSpaceOnUse"
       id="linearGradient3127"
       xlink:href="#linearGradient5048-4"
       inkscape:collect="always" />
    <linearGradient
       id="linearGradient5048-4">
      <stop
         offset="0"
         style="stop-color:#000000;stop-opacity:0"
         id="stop5050-6" />
      <stop
         offset="0.5"
         style="stop-color:#000000;stop-opacity:1"
         id="stop5056-6" />
      <stop
         offset="1"
         style="stop-color:#000000;stop-opacity:0"
         id="stop5052-8" />
    </linearGradient>
    <linearGradient
       id="linearGradient5060-4">
      <stop
         offset="0"
         style="stop-color:#000000;stop-opacity:1"
         id="stop5062-5" />
      <stop
         offset="1"
         style="stop-color:#000000;stop-opacity:0"
         id="stop5064-0" />
    </linearGradient>
    <linearGradient
       inkscape:collect="always"
       xlink:href="#linearGradient878"
       id="linearGradient1333"
       gradientUnits="userSpaceOnUse"
       gradientTransform="matrix(0.74285716,0,0,-3.4461538,-0.31428599,65.261528)"
       x1="8.5"
       y1="10.812498"
       x2="17.25"
       y2="10.812498" />
  </defs>
  <rect
     style="color:#000000;color-interpolation:sRGB;color-interpolation-filters:linearRGB;fill:#ffffff;fill-opacity:1;fill-rule:nonzero;stroke:#676767;stroke-width:0.99999994;stroke-linecap:round;stroke-linejoin:miter;stroke-miterlimit:4;stroke-opacity:1;stroke-dasharray:none;stroke-dashoffset:0.7;marker:none;visibility:visible;display:inline;overflow:visible;enable-background:accumulate;clip-rule:nonzero"
     id="rect1062"
     width="39"
     height="14"
     x="4.5"
     y="3.5"
     ry="3.0000002"
     rx="3" />
  <g
     id="g1303">
    <rect
       rx="1.5"
       style="color:#000000;color-interpolation:sRGB;color-interpolation-filters:linearRGB;fill:url(#linearGradient1129);fill-opacity:1;fill-rule:nonzero;stroke:none;stroke-width:1;marker:none;visibility:visible;display:inline;overflow:visible;enable-background:accumulate;clip-rule:nonzero"
       id="rect1119"
       width="36"
       height="11"
       x="6"
       y="5"
       ry="1.5" />
    <rect
       ry="1.5"
       rx="1.5"
       y="5"
       x="6"
       height="11"
       width="9.5"
       id="rect1151"
       style="opacity:0.33157893;color:#000000;color-interpolation:sRGB;color-interpolation-filters:linearRGB;fill:url(#linearGradient1159);fill-opacity:1;stroke:none;stroke-width:1;marker:none;visibility:visible;display:inline;overflow:visible;enable-background:accumulate;clip-rule:nonzero" />
    <rect
       transform="scale(-1,1)"
       style="opacity:0.33157893;color:#000000;color-interpolation:sRGB;color-interpolation-filters:linearRGB;fill:url(#linearGradient1167);fill-opacity:1;stroke:none;stroke-width:1;marker:none;visibility:visible;display:inline;overflow:visible;enable-background:accumulate;clip-rule:nonzero"
       id="rect1165"
       width="9.5"
       height="11"
       x="-42"
       y="5"
       rx="1.5"
       ry="1.5" />
  </g>
  <g
     id="g8378"
     transform="translate(51.334604,0.37304017)" />
  <g
     id="g1298"
     transform="translate(-66.875006,2.5000001)">
    <rect
       style="opacity:0.5;fill:url(#linearGradient3127);fill-opacity:1;fill-rule:nonzero;stroke:none;stroke-width:104.96237946;marker:none;visibility:visible;display:inline;overflow:visible"
       id="rect4173"
       y="37.340553"
       x="75.872093"
       height="7.0430632"
       width="30.005821" />
    <path
       inkscape:connector-curvature="0"
       style="opacity:0.5;fill:url(#radialGradient3129);fill-opacity:1;fill-rule:nonzero;stroke:none;stroke-width:104.96237946;marker:none;visibility:visible;display:inline;overflow:visible"
       id="path5058"
       d="m 105.87792,37.340798 c 0,0 0,7.042675 0,7.042675 3.20017,0.01326 7.73646,-1.577906 7.73645,-3.52179 0,-1.943885 -3.57115,-3.520884 -7.73645,-3.520885 z" />
    <path
       inkscape:connector-curvature="0"
       style="opacity:0.5;fill:url(#radialGradient3131);fill-opacity:1;fill-rule:nonzero;stroke:none;stroke-width:104.96237946;marker:none;visibility:visible;display:inline;overflow:visible"
       id="path5018"
       d="m 75.872098,37.340798 c 0,0 0,7.042675 0,7.042675 -3.200173,0.01326 -7.736457,-1.577906 -7.736457,-3.52179 0,-1.943885 3.57115,-3.520884 7.736457,-3.520885 z" />
  </g>
  <path
     style="color:#000000;color-interpolation:sRGB;color-interpolation-filters:linearRGB;fill:url(#linearGradient1060);fill-opacity:1;fill-rule:nonzero;stroke:#636363;stroke-width:0.99999994;stroke-linecap:round;stroke-linejoin:miter;stroke-miterlimit:4;stroke-opacity:1;stroke-dasharray:none;stroke-dashoffset:0.7;marker:none;visibility:visible;display:inline;overflow:visible;enable-background:accumulate;clip-rule:nonzero"
     d="M 4.5 14.5 L 4.5 40.5 C 4.5 42.162 5.838 43.5 7.5 43.5 L 40.5 43.5 C 42.162 43.5 43.5 42.162 43.5 40.5 L 43.5 14.5 C 43.5 16.162 42.162 17.5 40.5 17.5 L 7.5 17.5 C 5.838 17.5 4.5 16.162 4.5 14.5 z "
     id="rect1056" />
  <path
     sodipodi:type="arc"
     style="color:#000000;color-interpolation:sRGB;color-interpolation-filters:linearRGB;fill:#7a7a7a;fill-opacity:1;stroke:none;stroke-width:1;marker:none;visibility:visible;display:inline;overflow:visible;enable-background:accumulate;clip-rule:nonzero"
     id="path1205"
     sodipodi:cx="9.5"
     sodipodi:cy="22.124998"
     sodipodi:rx="1.125"
     sodipodi:ry="1.125"
     d="m 10.625,22.124998 a 1.125,1.125 0 1 1 -2.25,0 1.125,1.125 0 1 1 2.25,0 z"
     transform="matrix(0.88888889,0,0,0.88888889,2.0555555,2.833335)" />
  <path
     transform="matrix(0.88888889,0,0,0.88888889,2.0555555,18.833335)"
     d="m 10.625,22.124998 a 1.125,1.125 0 1 1 -2.25,0 1.125,1.125 0 1 1 2.25,0 z"
     sodipodi:ry="1.125"
     sodipodi:rx="1.125"
     sodipodi:cy="22.124998"
     sodipodi:cx="9.5"
     id="path1271"
     style="color:#000000;color-interpolation:sRGB;color-interpolation-filters:linearRGB;fill:#7a7a7a;fill-opacity:1;stroke:none;stroke-width:1;marker:none;visibility:visible;display:inline;overflow:visible;enable-background:accumulate;clip-rule:nonzero"
     sodipodi:type="arc" />
  <path
     sodipodi:type="arc"
     style="color:#000000;color-interpolation:sRGB;color-interpolation-filters:linearRGB;fill:#7a7a7a;fill-opacity:1;stroke:none;stroke-width:1;marker:none;visibility:visible;display:inline;overflow:visible;enable-background:accumulate;clip-rule:nonzero"
     id="path1273"
     sodipodi:cx="9.5"
     sodipodi:cy="22.124998"
     sodipodi:rx="1.125"
     sodipodi:ry="1.125"
     d="m 10.625,22.124998 a 1.125,1.125 0 1 1 -2.25,0 1.125,1.125 0 1 1 2.25,0 z"
     transform="matrix(0.88888889,0,0,0.88888889,28.555556,18.833335)" />
  <path
     style="opacity:1;color:#000000;color-interpolation:sRGB;color-interpolation-filters:linearRGB;fill:url(#linearGradient1177);fill-opacity:1;stroke:none;stroke-width:1;marker:none;visibility:visible;display:inline;overflow:visible;enable-background:accumulate;clip-rule:nonzero"
     d="M 40.5,42 37,42 c -0.831,0 -1.5,-0.669 -1.5,-1.5 l 0,-22.5 4.9,0 c 1.06296,0 1.6,-0.35 1.6,-0.35 l 0,22.85 c 0,0.831 -0.669,1.5 -1.5,1.5 z"
     id="rect1175"
     inkscape:connector-curvature="0"
     sodipodi:nodetypes="ssscccss" />
  <path
     sodipodi:type="arc"
     style="color:#000000;color-interpolation:sRGB;color-interpolation-filters:linearRGB;fill:#7a7a7a;fill-opacity:1;stroke:none;stroke-width:1;marker:none;visibility:visible;display:inline;overflow:visible;enable-background:accumulate;clip-rule:nonzero"
     id="path1275"
     sodipodi:cx="9.5"
     sodipodi:cy="22.124998"
     sodipodi:rx="1.125"
     sodipodi:ry="1.125"
     d="m 10.625,22.124998 a 1.125,1.125 0 1 1 -2.25,0 1.125,1.125 0 1 1 2.25,0 z"
     transform="matrix(0.88888889,0,0,0.88888889,15.305556,18.833335)" />
  <path
     sodipodi:type="arc"
     style="color:#000000;color-interpolation:sRGB;color-interpolation-filters:linearRGB;fill:#7a7a7a;fill-opacity:1;stroke:none;stroke-width:1;marker:none;visibility:visible;display:inline;overflow:visible;enable-background:accumulate;clip-rule:nonzero"
     id="path1277"
     sodipodi:cx="9.5"
     sodipodi:cy="22.124998"
     sodipodi:rx="1.125"
     sodipodi:ry="1.125"
     d="m 10.625,22.124998 a 1.125,1.125 0 1 1 -2.25,0 1.125,1.125 0 1 1 2.25,0 z"
     transform="matrix(0.88888889,0,0,0.88888889,8.6805555,18.833335)" />
  <path
     transform="matrix(0.88888889,0,0,0.88888889,21.930556,18.833335)"
     d="m 10.625,22.124998 a 1.125,1.125 0 1 1 -2.25,0 1.125,1.125 0 1 1 2.25,0 z"
     sodipodi:ry="1.125"
     sodipodi:rx="1.125"
     sodipodi:cy="22.124998"
     sodipodi:cx="9.5"
     id="path1279"
     style="color:#000000;color-interpolation:sRGB;color-interpolation-filters:linearRGB;fill:#7a7a7a;fill-opacity:1;stroke:none;stroke-width:1;marker:none;visibility:visible;display:inline;overflow:visible;enable-background:accumulate;clip-rule:nonzero"
     sodipodi:type="arc" />
  <path
     sodipodi:type="arc"
     style="color:#000000;color-interpolation:sRGB;color-interpolation-filters:linearRGB;fill:#7a7a7a;fill-opacity:1;stroke:none;stroke-width:1;marker:none;visibility:visible;display:inline;overflow:visible;enable-background:accumulate;clip-rule:nonzero"
     id="path1281"
     sodipodi:cx="9.5"
     sodipodi:cy="22.124998"
     sodipodi:rx="1.125"
     sodipodi:ry="1.125"
     d="m 10.625,22.124998 a 1.125,1.125 0 1 1 -2.25,0 1.125,1.125 0 1 1 2.25,0 z"
     transform="matrix(0.88888889,0,0,0.88888889,2.0555555,13.500002)" />
  <path
     transform="matrix(0.88888889,0,0,0.88888889,28.555556,13.500002)"
     d="m 10.625,22.124998 a 1.125,1.125 0 1 1 -2.25,0 1.125,1.125 0 1 1 2.25,0 z"
     sodipodi:ry="1.125"
     sodipodi:rx="1.125"
     sodipodi:cy="22.124998"
     sodipodi:cx="9.5"
     id="path1283"
     style="color:#000000;color-interpolation:sRGB;color-interpolation-filters:linearRGB;fill:#7a7a7a;fill-opacity:1;stroke:none;stroke-width:1;marker:none;visibility:visible;display:inline;overflow:visible;enable-background:accumulate;clip-rule:nonzero"
     sodipodi:type="arc" />
  <path
     transform="matrix(0.88888889,0,0,0.88888889,15.305556,13.500002)"
     d="m 10.625,22.124998 a 1.125,1.125 0 1 1 -2.25,0 1.125,1.125 0 1 1 2.25,0 z"
     sodipodi:ry="1.125"
     sodipodi:rx="1.125"
     sodipodi:cy="22.124998"
     sodipodi:cx="9.5"
     id="path1285"
     style="color:#000000;color-interpolation:sRGB;color-interpolation-filters:linearRGB;fill:#7a7a7a;fill-opacity:1;stroke:none;stroke-width:1;marker:none;visibility:visible;display:inline;overflow:visible;enable-background:accumulate;clip-rule:nonzero"
     sodipodi:type="arc" />
  <path
     transform="matrix(0.88888889,0,0,0.88888889,8.6805555,13.500002)"
     d="m 10.625,22.124998 a 1.125,1.125 0 1 1 -2.25,0 1.125,1.125 0 1 1 2.25,0 z"
     sodipodi:ry="1.125"
     sodipodi:rx="1.125"
     sodipodi:cy="22.124998"
     sodipodi:cx="9.5"
     id="path1287"
     style="color:#000000;color-interpolation:sRGB;color-interpolation-filters:linearRGB;fill:#7a7a7a;fill-opacity:1;stroke:none;stroke-width:1;marker:none;visibility:visible;display:inline;overflow:visible;enable-background:accumulate;clip-rule:nonzero"
     sodipodi:type="arc" />
  <path
     sodipodi:type="arc"
     style="color:#000000;color-interpolation:sRGB;color-interpolation-filters:linearRGB;fill:#7a7a7a;fill-opacity:1;stroke:none;stroke-width:1;marker:none;visibility:visible;display:inline;overflow:visible;enable-background:accumulate;clip-rule:nonzero"
     id="path1289"
     sodipodi:cx="9.5"
     sodipodi:cy="22.124998"
     sodipodi:rx="1.125"
     sodipodi:ry="1.125"
     d="m 10.625,22.124998 a 1.125,1.125 0 1 1 -2.25,0 1.125,1.125 0 1 1 2.25,0 z"
     transform="matrix(0.88888889,0,0,0.88888889,21.930556,13.500002)" />
  <path
     transform="matrix(0.88888889,0,0,0.88888889,2.0555555,8.166669)"
     d="m 10.625,22.124998 a 1.125,1.125 0 1 1 -2.25,0 1.125,1.125 0 1 1 2.25,0 z"
     sodipodi:ry="1.125"
     sodipodi:rx="1.125"
     sodipodi:cy="22.124998"
     sodipodi:cx="9.5"
     id="path1291"
     style="color:#000000;color-interpolation:sRGB;color-interpolation-filters:linearRGB;fill:#7a7a7a;fill-opacity:1;stroke:none;stroke-width:1;marker:none;visibility:visible;display:inline;overflow:visible;enable-background:accumulate;clip-rule:nonzero"
     sodipodi:type="arc" />
  <path
     transform="matrix(0.88888889,0,0,0.88888889,28.555556,2.833335)"
     d="m 10.625,22.124998 a 1.125,1.125 0 1 1 -2.25,0 1.125,1.125 0 1 1 2.25,0 z"
     sodipodi:ry="1.125"
     sodipodi:rx="1.125"
     sodipodi:cy="22.124998"
     sodipodi:cx="9.5"
     id="path1263"
     style="color:#000000;color-interpolation:sRGB;color-interpolation-filters:linearRGB;fill:#7a7a7a;fill-opacity:1;stroke:none;stroke-width:1;marker:none;visibility:visible;display:inline;overflow:visible;enable-background:accumulate;clip-rule:nonzero"
     sodipodi:type="arc" />
  <path
     transform="matrix(0.88888889,0,0,0.88888889,15.305556,2.833335)"
     d="m 10.625,22.124998 a 1.125,1.125 0 1 1 -2.25,0 1.125,1.125 0 1 1 2.25,0 z"
     sodipodi:ry="1.125"
     sodipodi:rx="1.125"
     sodipodi:cy="22.124998"
     sodipodi:cx="9.5"
     id="path1265"
     style="color:#000000;color-interpolation:sRGB;color-interpolation-filters:linearRGB;fill:#ababab;fill-opacity:1;stroke:none;stroke-width:1;marker:none;visibility:visible;display:inline;overflow:visible;enable-background:accumulate;clip-rule:nonzero"
     sodipodi:type="arc" />
  <path
     transform="matrix(0.88888889,0,0,0.88888889,8.6805555,2.833335)"
     d="m 10.625,22.124998 a 1.125,1.125 0 1 1 -2.25,0 1.125,1.125 0 1 1 2.25,0 z"
     sodipodi:ry="1.125"
     sodipodi:rx="1.125"
     sodipodi:cy="22.124998"
     sodipodi:cx="9.5"
     id="path1267"
     style="color:#000000;color-interpolation:sRGB;color-interpolation-filters:linearRGB;fill:#ababab;fill-opacity:1;stroke:none;stroke-width:1;marker:none;visibility:visible;display:inline;overflow:visible;enable-background:accumulate;clip-rule:nonzero"
     sodipodi:type="arc" />
  <path
     sodipodi:type="arc"
     style="color:#000000;color-interpolation:sRGB;color-interpolation-filters:linearRGB;fill:#ababab;fill-opacity:1;stroke:none;stroke-width:1;marker:none;visibility:visible;display:inline;overflow:visible;enable-background:accumulate;clip-rule:nonzero"
     id="path1269"
     sodipodi:cx="9.5"
     sodipodi:cy="22.124998"
     sodipodi:rx="1.125"
     sodipodi:ry="1.125"
     d="m 10.625,22.124998 a 1.125,1.125 0 1 1 -2.25,0 1.125,1.125 0 1 1 2.25,0 z"
     transform="matrix(0.88888889,0,0,0.88888889,21.930556,2.833335)" />
  <path
     sodipodi:type="arc"
     style="color:#000000;color-interpolation:sRGB;color-interpolation-filters:linearRGB;fill:#7a7a7a;fill-opacity:1;stroke:none;stroke-width:1;marker:none;visibility:visible;display:inline;overflow:visible;enable-background:accumulate;clip-rule:nonzero"
     id="path1293"
     sodipodi:cx="9.5"
     sodipodi:cy="22.124998"
     sodipodi:rx="1.125"
     sodipodi:ry="1.125"
     d="m 10.625,22.124998 a 1.125,1.125 0 1 1 -2.25,0 1.125,1.125 0 1 1 2.25,0 z"
     transform="matrix(0.88888889,0,0,0.88888889,28.555556,8.166669)" />
  <path
     sodipodi:type="arc"
     style="color:#000000;color-interpolation:sRGB;color-interpolation-filters:linearRGB;fill:#ababab;fill-opacity:1;stroke:none;stroke-width:1;marker:none;visibility:visible;display:inline;overflow:visible;enable-background:accumulate;clip-rule:nonzero"
     id="path1295"
     sodipodi:cx="9.5"
     sodipodi:cy="22.124998"
     sodipodi:rx="1.125"
     sodipodi:ry="1.125"
     d="m 10.625,22.124998 a 1.125,1.125 0 1 1 -2.25,0 1.125,1.125 0 1 1 2.25,0 z"
     transform="matrix(0.88888889,0,0,0.88888889,15.305556,8.166669)" />
  <path
     sodipodi:type="arc"
     style="color:#000000;color-interpolation:sRGB;color-interpolation-filters:linearRGB;fill:#ababab;fill-opacity:1;stroke:none;stroke-width:1;marker:none;visibility:visible;display:inline;overflow:visible;enable-background:accumulate;clip-rule:nonzero"
     id="path1297"
     sodipodi:cx="9.5"
     sodipodi:cy="22.124998"
     sodipodi:rx="1.125"
     sodipodi:ry="1.125"
     d="m 10.625,22.124998 a 1.125,1.125 0 1 1 -2.25,0 1.125,1.125 0 1 1 2.25,0 z"
     transform="matrix(0.88888889,0,0,0.88888889,8.6805555,8.166669)" />
  <path
     transform="matrix(0.88888889,0,0,0.88888889,21.930556,8.166669)"
     d="m 10.625,22.124998 a 1.125,1.125 0 1 1 -2.25,0 1.125,1.125 0 1 1 2.25,0 z"
     sodipodi:ry="1.125"
     sodipodi:rx="1.125"
     sodipodi:cy="22.124998"
     sodipodi:cx="9.5"
     id="path1299"
     style="color:#000000;color-interpolation:sRGB;color-interpolation-filters:linearRGB;fill:#ababab;fill-opacity:1;stroke:none;stroke-width:1;marker:none;visibility:visible;display:inline;overflow:visible;enable-background:accumulate;clip-rule:nonzero"
     sodipodi:type="arc" />
  <path
     sodipodi:nodetypes="ssscccss"
     inkscape:connector-curvature="0"
     id="path1331"
     d="m 7.5,42 3.5,0 c 0.831,0 1.5,-0.669 1.5,-1.5 L 12.5,18 7.6,18 C 6.53704,18 6,17.65 6,17.65 L 6,40.5 C 6,41.331 6.669,42 7.5,42 z"
     style="opacity:1;color:#000000;color-interpolation:sRGB;color-interpolation-filters:linearRGB;fill:url(#linearGradient1333);fill-opacity:1;stroke:none;stroke-width:1;marker:none;visibility:visible;display:inline;overflow:visible;enable-background:accumulate;clip-rule:nonzero" />
  <path
     style="font-size:xx-small;font-style:normal;font-variant:normal;font-weight:normal;font-stretch:normal;text-indent:0;text-align:start;text-decoration:none;line-height:normal;letter-spacing:normal;word-spacing:normal;text-transform:none;direction:ltr;block-progression:tb;writing-mode:lr-tb;text-anchor:start;baseline-shift:baseline;color:#000000;color-interpolation:sRGB;color-interpolation-filters:linearRGB;fill:#ffffff;fill-opacity:1;stroke:none;stroke-width:1;marker:none;visibility:visible;display:inline;overflow:visible;enable-background:accumulate;clip-rule:nonzero;font-family:Sans;-inkscape-font-specification:Sans"
     d="M 5 13.625 L 5 14.5 C 5 15.876351 6.1236486 17 7.5 17 L 40.5 17 C 41.876351 17 43 15.876351 43 14.5 L 43 14 L 42 14 L 42 14.5 C 42 15.339649 41.339649 16 40.5 16 L 7.5 16 C 6.6603514 16 6 15.339649 6 14.5 L 6 13.625 L 5 13.625 z "
     id="rect1311" />
  <g
     id="g7666"
     transform="matrix(1.0512963,0,0,0.4615385,52.470841,21.769238)"
     style="opacity:0.5" />
  <g
     id="g3425"
     transform="matrix(-0.64501498,0,0,-0.28355502,89.693215,13.061964)"
     style="opacity:0.4" />
  <g
     id="g2894"
     transform="matrix(-0.61921377,0,0,-0.6192054,90.196325,28.79698)" />
  <g
     id="g2814"
     transform="matrix(-0.61921377,0,0,-0.6192054,90.351129,28.79698)" />
  <g
     id="g2637"
     inkscape:label="base"
     style="display:inline"
     transform="matrix(-0.61921377,0,0,-0.6192054,51.474801,-2.4323839)" />
  <g
     id="g2953"
     style="opacity:0.6"
     transform="matrix(-0.61921377,0,0,-0.6192054,89.112701,28.79698)" />
</svg>
