<?xml version="1.0" encoding="UTF-8" standalone="no"?>
<!-- Created with Inkscape (http://www.inkscape.org/) -->

<svg
   xmlns:dc="http://purl.org/dc/elements/1.1/"
   xmlns:cc="http://creativecommons.org/ns#"
   xmlns:rdf="http://www.w3.org/1999/02/22-rdf-syntax-ns#"
   xmlns:svg="http://www.w3.org/2000/svg"
   xmlns="http://www.w3.org/2000/svg"
   xmlns:xlink="http://www.w3.org/1999/xlink"
   xmlns:sodipodi="http://sodipodi.sourceforge.net/DTD/sodipodi-0.dtd"
   xmlns:inkscape="http://www.inkscape.org/namespaces/inkscape"
   version="1.0"
   width="48"
   height="48"
   id="svg3437"
   inkscape:version="0.48.3.1 r9886"
   sodipodi:docname="user-trash-full.svg">
  <metadata
     id="metadata101">
    <rdf:RDF>
      <cc:Work
         rdf:about="">
        <dc:format>image/svg+xml</dc:format>
        <dc:type
           rdf:resource="http://purl.org/dc/dcmitype/StillImage" />
        <dc:title />
      </cc:Work>
    </rdf:RDF>
  </metadata>
  <sodipodi:namedview
     pagecolor="#ffffff"
     bordercolor="#666666"
     borderopacity="1"
     objecttolerance="10"
     gridtolerance="10"
     guidetolerance="10"
     inkscape:pageopacity="0"
     inkscape:pageshadow="2"
     inkscape:window-width="1280"
     inkscape:window-height="975"
     id="namedview99"
     showgrid="true"
     inkscape:zoom="5.8999222"
     inkscape:cx="24.338988"
     inkscape:cy="26.457659"
     inkscape:window-x="0"
     inkscape:window-y="26"
     inkscape:window-maximized="1"
     inkscape:current-layer="svg3437"
     inkscape:snap-to-guides="false"
     inkscape:snap-grids="false"
     showguides="true"
     inkscape:guide-bbox="true">
    <inkscape:grid
       type="xygrid"
       id="grid911" />
  </sodipodi:namedview>
  <defs
     id="defs3439">
    <linearGradient
       id="linearGradient4066">
      <stop
         id="stop4068"
         offset="0"
         style="stop-color:#ffffff;stop-opacity:1;" />
      <stop
         id="stop4070"
         offset="1"
         style="stop-color:#ffffff;stop-opacity:0;" />
    </linearGradient>
    <linearGradient
       id="linearGradient4060">
      <stop
         id="stop4062"
         offset="0"
         style="stop-color:#ffffff;stop-opacity:1;" />
      <stop
         id="stop4064"
         offset="1"
         style="stop-color:#ffffff;stop-opacity:0;" />
    </linearGradient>
    <linearGradient
       id="linearGradient1346">
      <stop
         style="stop-color:#2f65a3;stop-opacity:1;"
         offset="0"
         id="stop1348" />
      <stop
         style="stop-color:white;stop-opacity:1;"
         offset="1"
         id="stop1350" />
    </linearGradient>
    <linearGradient
       id="linearGradient1340">
      <stop
         style="stop-color:#5eb4eb;stop-opacity:1;"
         offset="0"
         id="stop1342" />
      <stop
         style="stop-color:#d0dce8;stop-opacity:1;"
         offset="1"
         id="stop1344" />
    </linearGradient>
    <linearGradient
       inkscape:collect="always"
       id="linearGradient1153">
      <stop
         style="stop-color:#000000;stop-opacity:1;"
         offset="0"
         id="stop1155" />
      <stop
         style="stop-color:#000000;stop-opacity:0;"
         offset="1"
         id="stop1157" />
    </linearGradient>
    <linearGradient
       id="linearGradient1123">
      <stop
         style="stop-color:#757575;stop-opacity:1;"
         offset="0"
         id="stop1125" />
      <stop
         style="stop-color:#a9a9a9;stop-opacity:1;"
         offset="1"
         id="stop1127" />
    </linearGradient>
    <linearGradient
       id="linearGradient6288-0">
      <stop
         id="stop6290-8"
         offset="0"
         style="stop-color:#ababab;stop-opacity:1;" />
      <stop
         id="stop6292-0"
         offset="1"
         style="stop-color:#f1f1f1;stop-opacity:1;" />
    </linearGradient>
    <linearGradient
       inkscape:collect="always"
       xlink:href="#linearGradient6288-0"
       id="linearGradient1060"
       x1="4"
       y1="24"
       x2="24.124998"
       y2="24"
       gradientUnits="userSpaceOnUse"
       spreadMethod="reflect" />
    <linearGradient
       inkscape:collect="always"
       xlink:href="#linearGradient1123"
       id="linearGradient1129"
       x1="22.375"
       y1="14.625"
       x2="22.375"
       y2="6.3567719"
       gradientUnits="userSpaceOnUse"
       gradientTransform="matrix(1.0285714,0,0,1.2941176,-0.68571428,-3.4117647)" />
    <linearGradient
       inkscape:collect="always"
       xlink:href="#linearGradient1153"
       id="linearGradient1159"
       x1="8.5"
       y1="10.812498"
       x2="17.25"
       y2="10.812498"
       gradientUnits="userSpaceOnUse"
       gradientTransform="matrix(1.0857143,0,0,1.3538461,-3.2285716,-4.1384593)" />
    <linearGradient
       inkscape:collect="always"
       xlink:href="#linearGradient1153"
       id="linearGradient1167"
       gradientUnits="userSpaceOnUse"
       gradientTransform="matrix(1.0857143,0,0,1.3538461,-51.228573,-4.1384593)"
       x1="8.5"
       y1="10.812498"
       x2="17.25"
       y2="10.812498" />
    <linearGradient
       inkscape:collect="always"
       xlink:href="#linearGradient4060"
       id="linearGradient1177"
       gradientUnits="userSpaceOnUse"
       gradientTransform="matrix(0.74285716,0,0,3.4461538,-48.314286,-65.261528)"
       x1="8.5"
       y1="10.812498"
       x2="17.25"
       y2="10.812498" />
    <radialGradient
       r="117.14286"
       fy="486.64789"
       fx="605.71429"
       cy="486.64789"
       cx="605.71429"
       gradientTransform="matrix(-0.06214224,0,0,0.02900085,113.32277,26.707456)"
       gradientUnits="userSpaceOnUse"
       id="radialGradient3131"
       xlink:href="#linearGradient5060-4"
       inkscape:collect="always" />
    <radialGradient
       r="117.14286"
       fy="486.64789"
       fx="605.71429"
       cy="486.64789"
       cx="605.71429"
       gradientTransform="matrix(0.06214224,0,0,0.02900085,68.427258,26.707456)"
       gradientUnits="userSpaceOnUse"
       id="radialGradient3129"
       xlink:href="#linearGradient5060-4"
       inkscape:collect="always" />
    <linearGradient
       y2="609.50507"
       x2="302.85715"
       y1="366.64789"
       x1="302.85715"
       gradientTransform="matrix(0.06214224,0,0,0.02900085,68.415029,26.707456)"
       gradientUnits="userSpaceOnUse"
       id="linearGradient3127"
       xlink:href="#linearGradient5048-4"
       inkscape:collect="always" />
    <linearGradient
       id="linearGradient5048-4">
      <stop
         offset="0"
         style="stop-color:#000000;stop-opacity:0"
         id="stop5050-6" />
      <stop
         offset="0.5"
         style="stop-color:#000000;stop-opacity:1"
         id="stop5056-6" />
      <stop
         offset="1"
         style="stop-color:#000000;stop-opacity:0"
         id="stop5052-8" />
    </linearGradient>
    <linearGradient
       id="linearGradient5060-4">
      <stop
         offset="0"
         style="stop-color:#000000;stop-opacity:1"
         id="stop5062-5" />
      <stop
         offset="1"
         style="stop-color:#000000;stop-opacity:0"
         id="stop5064-0" />
    </linearGradient>
    <linearGradient
       inkscape:collect="always"
       xlink:href="#linearGradient4066"
       id="linearGradient1333"
       gradientUnits="userSpaceOnUse"
       gradientTransform="matrix(0.74285716,0,0,-3.4461538,-0.31428599,65.261528)"
       x1="8.5"
       y1="10.812498"
       x2="17.25"
       y2="10.812498" />
    <linearGradient
       gradientUnits="userSpaceOnUse"
       y2="48.404987"
       x2="23.71875"
       y1="14.463861"
       x1="19.450956"
       id="linearGradient5172"
       xlink:href="#linearGradient5166"
       inkscape:collect="always" />
    <radialGradient
       r="22.597087"
       fy="14.210698"
       fx="23.688078"
       cy="14.210698"
       cx="23.688078"
       gradientTransform="matrix(0.66462213,0,0,0.65682343,46.887871,-2.5246834)"
       gradientUnits="userSpaceOnUse"
       id="radialGradient5361"
       xlink:href="#linearGradient5188"
       inkscape:collect="always" />
    <linearGradient
       gradientUnits="userSpaceOnUse"
       y2="18.389904"
       x2="38.714096"
       y1="10.611729"
       x1="25.632622"
       id="linearGradient5182"
       xlink:href="#linearGradient5176"
       inkscape:collect="always"
       gradientTransform="matrix(0.3112012,0,0,0.3112012,55.259731,2.3515718)" />
    <linearGradient
       y2="14.412428"
       x2="23.585091"
       y1="36.509514"
       x1="22.008699"
       gradientUnits="userSpaceOnUse"
       id="linearGradient5170"
       xlink:href="#linearGradient5162"
       inkscape:collect="always"
       gradientTransform="matrix(0.3112012,0,0,0.3112012,55.259731,2.3515718)" />
    <linearGradient
       gradientUnits="userSpaceOnUse"
       y2="28.554564"
       x2="32.600704"
       y1="20.246058"
       x1="24.365993"
       id="linearGradient5168"
       xlink:href="#linearGradient5162"
       inkscape:collect="always"
       gradientTransform="matrix(0.3112012,0,0,0.3112012,55.259731,2.3515718)" />
    <linearGradient
       id="linearGradient5162">
      <stop
         id="stop5164"
         offset="0"
         style="stop-color:#b6bcbd;stop-opacity:1;" />
      <stop
         id="stop5166"
         offset="1"
         style="stop-color:white;stop-opacity:1;" />
    </linearGradient>
    <linearGradient
       id="linearGradient5176"
       inkscape:collect="always">
      <stop
         id="stop5178"
         offset="0"
         style="stop-color:black;stop-opacity:1;" />
      <stop
         id="stop5180"
         offset="1"
         style="stop-color:black;stop-opacity:0;" />
    </linearGradient>
    <linearGradient
       id="linearGradient5188">
      <stop
         id="stop5190"
         offset="0"
         style="stop-color:white;stop-opacity:1;" />
      <stop
         id="stop5192"
         offset="1"
         style="stop-color:#aeaea3;stop-opacity:1;" />
    </linearGradient>
    <linearGradient
       id="linearGradient5166">
      <stop
         id="stop5168"
         offset="0"
         style="stop-color:white;stop-opacity:1;" />
      <stop
         id="stop5170"
         offset="1"
         style="stop-color:white;stop-opacity:0;" />
    </linearGradient>
    <linearGradient
       inkscape:collect="always"
       xlink:href="#linearGradient1346"
       id="linearGradient5023"
       gradientUnits="userSpaceOnUse"
       gradientTransform="matrix(0.37299745,-0.21589473,0.1924078,0.33241952,5.8916323,-12.713058)"
       x1="22.008699"
       y1="36.509514"
       x2="23.585091"
       y2="14.412428" />
    <linearGradient
       inkscape:collect="always"
       xlink:href="#linearGradient1340"
       id="linearGradient5025"
       gradientUnits="userSpaceOnUse"
       gradientTransform="matrix(0.37299745,-0.21589473,0.1924078,0.33241952,5.8916323,-12.713058)"
       x1="24.365993"
       y1="20.246058"
       x2="32.600704"
       y2="28.554564" />
    <linearGradient
       inkscape:collect="always"
       xlink:href="#linearGradient1340-2"
       id="linearGradient5025-0"
       gradientUnits="userSpaceOnUse"
       gradientTransform="matrix(0.37299745,-0.21589473,0.1924078,0.33241952,5.8916323,-12.713058)"
       x1="24.365993"
       y1="20.246058"
       x2="32.600704"
       y2="28.554564" />
    <linearGradient
       id="linearGradient1340-2">
      <stop
         style="stop-color:#5eb4eb;stop-opacity:1;"
         offset="0"
         id="stop1342-6" />
      <stop
         style="stop-color:#d0dce8;stop-opacity:1;"
         offset="1"
         id="stop1344-2" />
    </linearGradient>
    <linearGradient
       inkscape:collect="always"
       xlink:href="#aigrd1-6"
       id="linearGradient3526"
       gradientUnits="userSpaceOnUse"
       gradientTransform="matrix(0.38694135,0,0,0.39675485,-32.584685,6.0577346)"
       x1="14.9966"
       y1="11.1885"
       x2="32.511"
       y2="34.3075" />
    <linearGradient
       id="aigrd1-6"
       gradientUnits="userSpaceOnUse"
       x1="14.9966"
       y1="11.1885"
       x2="32.511"
       y2="34.3075">
      <stop
         offset="0"
         style="stop-color:#EBEBEB"
         id="stop3034-9" />
      <stop
         offset="0.5"
         style="stop-color:#FFFFFF"
         id="stop3036-6" />
      <stop
         offset="1"
         style="stop-color:#EBEBEB"
         id="stop3038-3" />
    </linearGradient>
    <linearGradient
       inkscape:collect="always"
       xlink:href="#aigrd2-6"
       id="linearGradient3523"
       gradientUnits="userSpaceOnUse"
       gradientTransform="matrix(0.38694135,0,0,0.39675485,-32.584685,6.0577341)"
       x1="12.2744"
       y1="32.4165"
       x2="35.3912"
       y2="14.2033" />
    <linearGradient
       id="aigrd2-6"
       gradientUnits="userSpaceOnUse"
       x1="12.2744"
       y1="32.4165"
       x2="35.3912"
       y2="14.2033">
      <stop
         offset="0"
         style="stop-color:#FBFBFB"
         id="stop3043-3" />
      <stop
         offset="0.5"
         style="stop-color:#B6B6B6"
         id="stop3045-1" />
      <stop
         offset="1"
         style="stop-color:#E4E4E4"
         id="stop3047-7" />
    </linearGradient>
    <linearGradient
       inkscape:collect="always"
       xlink:href="#linearGradient4409"
       id="linearGradient4415"
       x1="25.985928"
       y1="24.919628"
       x2="15.889072"
       y2="11.669628"
       gradientUnits="userSpaceOnUse"
       gradientTransform="matrix(0.32503079,0,0,0.33327412,-31.02163,7.2174519)" />
    <linearGradient
       inkscape:collect="always"
       id="linearGradient4409">
      <stop
         style="stop-color:#ffffff;stop-opacity:1;"
         offset="0"
         id="stop4411" />
      <stop
         style="stop-color:#ffffff;stop-opacity:0;"
         offset="1"
         id="stop4413" />
    </linearGradient>
    <linearGradient
       inkscape:collect="always"
       xlink:href="#linearGradient6028"
       id="linearGradient3515"
       gradientUnits="userSpaceOnUse"
       x1="28.702885"
       y1="31.494707"
       x2="17.742729"
       y2="18.366575" />
    <linearGradient
       inkscape:collect="always"
       id="linearGradient6028">
      <stop
         style="stop-color:#ffffff;stop-opacity:1;"
         offset="0"
         id="stop6030" />
      <stop
         style="stop-color:#ffffff;stop-opacity:0;"
         offset="1"
         id="stop6032" />
    </linearGradient>
  </defs>
  <rect
     style="color:#000000;color-interpolation:sRGB;color-interpolation-filters:linearRGB;fill:#ffffff;fill-opacity:1;fill-rule:nonzero;stroke:#676767;stroke-width:0.99999994;stroke-linecap:round;stroke-linejoin:miter;stroke-miterlimit:4;stroke-opacity:1;stroke-dasharray:none;stroke-dashoffset:0.7;marker:none;visibility:visible;display:inline;overflow:visible;enable-background:accumulate;clip-rule:nonzero"
     id="rect1062"
     width="39"
     height="14"
     x="4.5"
     y="3.5"
     ry="3.0000002"
     rx="3" />
  <g
     id="g1303">
    <rect
       rx="1.5"
       style="color:#000000;color-interpolation:sRGB;color-interpolation-filters:linearRGB;fill:url(#linearGradient1129);fill-opacity:1;fill-rule:nonzero;stroke:none;stroke-width:1;marker:none;visibility:visible;display:inline;overflow:visible;enable-background:accumulate;clip-rule:nonzero"
       id="rect1119"
       width="36"
       height="11"
       x="6"
       y="5"
       ry="1.5" />
    <rect
       ry="1.5"
       rx="1.5"
       y="5"
       x="6"
       height="11"
       width="9.5"
       id="rect1151"
       style="opacity:0.33157893;color:#000000;color-interpolation:sRGB;color-interpolation-filters:linearRGB;fill:url(#linearGradient1159);fill-opacity:1;stroke:none;stroke-width:1;marker:none;visibility:visible;display:inline;overflow:visible;enable-background:accumulate;clip-rule:nonzero" />
    <rect
       transform="scale(-1,1)"
       style="opacity:0.33157893;color:#000000;color-interpolation:sRGB;color-interpolation-filters:linearRGB;fill:url(#linearGradient1167);fill-opacity:1;stroke:none;stroke-width:1;marker:none;visibility:visible;display:inline;overflow:visible;enable-background:accumulate;clip-rule:nonzero"
       id="rect1165"
       width="9.5"
       height="11"
       x="-42"
       y="5"
       rx="1.5"
       ry="1.5" />
  </g>
  <g
     id="g8378"
     transform="translate(51.334604,0.37304017)" />
  <g
     id="g1298"
     transform="translate(-66.875006,2.5000001)">
    <rect
       style="opacity:0.5;fill:url(#linearGradient3127);fill-opacity:1;fill-rule:nonzero;stroke:none;stroke-width:104.96237946;marker:none;visibility:visible;display:inline;overflow:visible"
       id="rect4173"
       y="37.340553"
       x="75.872093"
       height="7.0430632"
       width="30.005821" />
    <path
       inkscape:connector-curvature="0"
       style="opacity:0.5;fill:url(#radialGradient3129);fill-opacity:1;fill-rule:nonzero;stroke:none;stroke-width:104.96237946;marker:none;visibility:visible;display:inline;overflow:visible"
       id="path5058"
       d="m 105.87792,37.340798 c 0,0 0,7.042675 0,7.042675 3.20017,0.01326 7.73646,-1.577906 7.73645,-3.52179 0,-1.943885 -3.57115,-3.520884 -7.73645,-3.520885 z" />
    <path
       inkscape:connector-curvature="0"
       style="opacity:0.5;fill:url(#radialGradient3131);fill-opacity:1;fill-rule:nonzero;stroke:none;stroke-width:104.96237946;marker:none;visibility:visible;display:inline;overflow:visible"
       id="path5018"
       d="m 75.872098,37.340798 c 0,0 0,7.042675 0,7.042675 -3.200173,0.01326 -7.736457,-1.577906 -7.736457,-3.52179 0,-1.943885 3.57115,-3.520884 7.736457,-3.520885 z" />
  </g>
  <rect
     y="-6.1278539"
     x="25.727787"
     height="15.26567"
     width="14.028234"
     id="rect1344"
     style="color:#000000;color-interpolation:sRGB;color-interpolation-filters:linearRGB;fill:#f6eca7;fill-opacity:1;fill-rule:nonzero;stroke:#5d5d5d;stroke-width:1;stroke-linecap:butt;stroke-linejoin:miter;stroke-miterlimit:4;stroke-opacity:1;stroke-dasharray:none;stroke-dashoffset:0;marker:none;visibility:visible;display:inline;overflow:visible;enable-background:accumulate;clip-rule:nonzero"
     transform="matrix(0.96592583,0.25881904,-0.25881904,0.96592583,0,0)" />
  <g
     id="g5548"
     transform="translate(-6.8135435,18.677976)">
    <path
       inkscape:connector-curvature="0"
       style="color:#000000;color-interpolation:sRGB;color-interpolation-filters:linearRGB;fill:url(#linearGradient5025-0);fill-opacity:1;fill-rule:evenodd;stroke:#545454;stroke-width:0.80000001;stroke-linecap:butt;stroke-linejoin:miter;stroke-miterlimit:4;stroke-opacity:1;stroke-dasharray:none;stroke-dashoffset:0;marker:none;visibility:visible;display:inline;overflow:visible;enable-background:accumulate;clip-rule:nonzero"
       d="m 16.483227,-2.1704213 -0.115161,1.32187594 1.690801,-0.27259184 0.580901,-1.2776453 4.587861,-2.263246 2.337054,0.8439248 0.198397,-2.5468229 2.024667,-0.152031 1.973939,-1.4563418 -1.105723,-0.6936671 0.702329,-2.1324425 -3.234517,-0.873621 2.11417,-0.909897 0.449026,-1.201315 -1.018893,0.825099 -2.241281,-1.134713 -1.918448,0.63971 1.14659,-1.212816 -0.546305,-1.095915 -3.927903,-0.550733 -2.621692,-2.248197 -3.80347,3.770512 0.239595,2.999368 -0.837795,-0.534941 -1.08692,0.707571 0.544212,0.940224 -2.10105,-0.588269 -0.7939226,2.7346162 1.3945416,2.4093247 4.493594,0.6155634 -1.399894,2.1439433 0.644158,0.9608243 1.631132,0.232653 z"
       id="path5004" />
    <path
       inkscape:connector-curvature="0"
       style="opacity:0.76966289;color:#000000;fill:url(#linearGradient5023);fill-opacity:1;fill-rule:evenodd;stroke:none;stroke-width:1;marker:none;visibility:visible;display:inline;overflow:visible"
       d="m 17.516415,-9.358343 0.928804,2.3650944 1.437497,0.6585346 -1.442263,1.4624063 0.03134,2.3353986 4.653799,-2.301411 1.8373,0.7409302 -0.333277,-2.552888 -2.192643,0.013904 -2.131471,2.0966801 0.308795,-1.7477575 -1.717961,-1.7514204 -1.379918,-1.3194718 z"
       id="path5006" />
    <path
       inkscape:connector-curvature="0"
       style="color:#000000;fill:url(#linearGradient5025);fill-opacity:1;fill-rule:evenodd;stroke:none;stroke-width:1;marker:none;visibility:visible;display:inline;overflow:visible"
       d="m 18.116118,-9.23475 2.974947,1.3376683 1.751057,-3.2101653 2.124617,-0.131432 0.74052,-1.762291 1.731082,0.253252 -2.073303,-0.996585 -2.877673,0.959565 -4.047241,0.459755 c 0,0 -3.901332,3.9056062 -3.637582,3.7529452 0.263749,-0.1526603 3.858374,-2.1548152 3.858374,-2.1548152 l 0.151264,-1.107419 1.956639,-0.269559 -2.652701,2.8690811 z"
       id="path5008" />
    <path
       inkscape:connector-curvature="0"
       style="opacity:0.61809046;color:#000000;color-interpolation:sRGB;color-interpolation-filters:linearRGB;fill:#ffffff;fill-opacity:1;fill-rule:evenodd;stroke:none;stroke-width:1;marker:none;visibility:visible;display:inline;overflow:visible;enable-background:accumulate;clip-rule:nonzero"
       d="m 17.39427,-17.541858 2.28574,1.971942 2.296772,0.318081 -3.605071,1.223688 c 0,0 -0.378911,1.474537 0.01671,1.245546 0.395623,-0.228991 4.95365,-2.239614 4.95365,-2.239614 l 0.376235,0.802098 -6.644452,2.512206 1.379001,-3.700876 -1.058588,-2.133071 z"
       id="path5012" />
    <path
       inkscape:connector-curvature="0"
       style="color:#000000;fill:#ffffff;fill-opacity:1;fill-rule:evenodd;stroke:none;stroke-width:1;marker:none;visibility:visible;display:inline;overflow:visible"
       d="m 11.400047,-9.5837858 1.370974,3.1290273 -0.431138,-2.4177941 2.218299,-0.5779127 -0.04864,-1.1486167 2.47787,-1.04196 0.289406,-0.71667 -3.430827,1.828895 0.146499,1.0135225 -1.824765,0.1932286 -0.76768,-0.2617199 z"
       id="path5014" />
    <path
       inkscape:connector-curvature="0"
       style="color:#000000;fill:#ffffff;fill-opacity:1;fill-rule:evenodd;stroke:none;stroke-width:1;marker:none;visibility:visible;display:inline;overflow:visible"
       d="m 19.521692,-8.4792855 1.801198,0.5264724 1.68721,-3.0163059 2.024665,-0.152032 3.830042,0.685829 -3.957738,-0.298111 -1.588761,0.448883 -1.751058,3.2101639 -2.045558,-1.4048994 z"
       id="path5016" />
  </g>
  <g
     id="g5541"
     transform="matrix(1.2691041,0,0,1.2691041,49.959943,-4.452527)">
    <path
       inkscape:connector-curvature="0"
       style="fill:url(#linearGradient3526);fill-rule:nonzero;stroke:none"
       d="m -23.29809,8.2795619 c -3.753332,0 -6.771476,3.0946891 -6.771476,6.9432111 0,3.848523 3.018144,6.943212 6.771476,6.943212 3.753332,0 6.771475,-3.094689 6.771475,-6.943212 0,-3.848522 -3.018143,-6.9432111 -6.771475,-6.9432111 l 0,0 z m 0,8.6095821 c -0.889965,0 -1.625154,-0.753834 -1.625154,-1.666371 0,-0.912536 0.735189,-1.666371 1.625154,-1.666371 0.889965,0 1.625154,0.753835 1.625154,1.666371 0,0.912537 -0.735189,1.666371 -1.625154,1.666371 z"
       id="path3040"
       inkscape:r_cx="true"
       inkscape:r_cy="true" />
    <path
       inkscape:connector-curvature="0"
       style="fill:url(#linearGradient3523);fill-rule:nonzero;stroke:#545454;stroke-width:0.60000002;stroke-miterlimit:4;stroke-opacity:1;stroke-dasharray:none"
       d="m -23.29809,8.2795619 c -3.753332,0 -6.771476,3.0946891 -6.771476,6.9432111 0,3.848523 3.018144,6.943212 6.771476,6.943212 3.753332,0 6.771475,-3.094689 6.771475,-6.943212 0,-3.848522 -3.018143,-6.9432111 -6.771475,-6.9432111 l 0,0 z m 0,8.6095821 c -0.889965,0 -1.625154,-0.753834 -1.625154,-1.666371 0,-0.912536 0.735189,-1.666371 1.625154,-1.666371 0.889965,0 1.625154,0.753835 1.625154,1.666371 0,0.912537 -0.735189,1.666371 -1.625154,1.666371 z"
       id="path3049"
       inkscape:r_cx="true"
       inkscape:r_cy="true" />
    <path
       inkscape:connector-curvature="0"
       sodipodi:nodetypes="csccssccsc"
       id="path3531"
       d="m -23.575,8.4880047 c -3.497881,0.1352791 -6.272967,3.0719053 -6.272967,6.6929563 0,1.641543 0.567869,3.133573 1.516864,4.29473 l 3.613482,-3.136207 c -0.234458,-0.281064 -0.341034,-0.680936 -0.341034,-1.075205 0,-1.129929 0.748965,-1.855462 1.809569,-1.855462 0.482321,0 0.965694,0.224436 1.25412,0.581996 l 3.694739,-3.094548 C -19.49477,9.421808 -21.3049,8.4880047 -23.330344,8.4880047 c -0.08476,0 -0.160706,-0.00323 -0.244656,0 z"
       style="fill:url(#linearGradient4415);fill-opacity:1;fill-rule:nonzero;stroke:none" />
    <path
       inkscape:connector-curvature="0"
       style="opacity:0.51098902;fill:#eeeeec;fill-rule:nonzero;stroke:none"
       d="m -23.29809,11.855316 c -1.834014,0 -3.284165,1.530663 -3.284165,3.367457 0,1.880529 1.492802,3.367457 3.284165,3.367457 1.834014,0 3.284165,-1.530662 3.284165,-3.367457 0,-1.880527 -1.492803,-3.367457 -3.284165,-3.367457 l 0,0 z m 0,5.204252 c -0.980984,0 -1.791363,-0.830931 -1.791363,-1.836795 0,-1.005863 0.810379,-1.836794 1.791363,-1.836794 0.980984,0 1.791362,0.830931 1.791362,1.836794 0,1.005864 -0.810378,1.836795 -1.791362,1.836795 z"
       id="path3051"
       inkscape:r_cx="true"
       inkscape:r_cy="true" />
    <path
       transform="matrix(0.32503079,0,0,0.33327412,-31.182888,6.9203775)"
       d="m 30.405591,24.930641 c 0,3.368272 -2.730524,6.098796 -6.098796,6.098796 -3.368272,0 -6.098796,-2.730524 -6.098796,-6.098796 0,-3.368272 2.730524,-6.098796 6.098796,-6.098796 3.368272,0 6.098796,2.730524 6.098796,6.098796 z"
       sodipodi:ry="6.0987959"
       sodipodi:rx="6.0987959"
       sodipodi:cy="24.930641"
       sodipodi:cx="24.306795"
       id="path6026"
       style="opacity:0.67213111;fill:none;stroke:url(#linearGradient3515);stroke-width:1.82300639;stroke-linecap:butt;stroke-linejoin:miter;stroke-miterlimit:4;stroke-opacity:1;stroke-dasharray:none;stroke-dashoffset:0;marker:none;visibility:visible;display:inline;overflow:visible"
       sodipodi:type="arc"
       inkscape:r_cx="true"
       inkscape:r_cy="true" />
  </g>
  <path
     style="color:#000000;color-interpolation:sRGB;color-interpolation-filters:linearRGB;fill:url(#linearGradient1060);fill-opacity:1;fill-rule:nonzero;stroke:#636363;stroke-width:0.99999994;stroke-linecap:round;stroke-linejoin:miter;stroke-miterlimit:4;stroke-opacity:1;stroke-dasharray:none;stroke-dashoffset:0.7;marker:none;visibility:visible;display:inline;overflow:visible;enable-background:accumulate;clip-rule:nonzero"
     d="M 4.5 14.5 L 4.5 40.5 C 4.5 42.162 5.838 43.5 7.5 43.5 L 40.5 43.5 C 42.162 43.5 43.5 42.162 43.5 40.5 L 43.5 14.5 C 43.5 16.162 42.162 17.5 40.5 17.5 L 7.5 17.5 C 5.838 17.5 4.5 16.162 4.5 14.5 z "
     id="rect1056" />
  <path
     sodipodi:type="arc"
     style="color:#000000;color-interpolation:sRGB;color-interpolation-filters:linearRGB;fill:#7a7a7a;fill-opacity:1;stroke:none;stroke-width:1;marker:none;visibility:visible;display:inline;overflow:visible;enable-background:accumulate;clip-rule:nonzero"
     id="path1205"
     sodipodi:cx="9.5"
     sodipodi:cy="22.124998"
     sodipodi:rx="1.125"
     sodipodi:ry="1.125"
     d="m 10.625,22.124998 a 1.125,1.125 0 1 1 -2.25,0 1.125,1.125 0 1 1 2.25,0 z"
     transform="matrix(0.88888889,0,0,0.88888889,2.0555555,2.833335)" />
  <path
     transform="matrix(0.88888889,0,0,0.88888889,2.0555555,18.833335)"
     d="m 10.625,22.124998 a 1.125,1.125 0 1 1 -2.25,0 1.125,1.125 0 1 1 2.25,0 z"
     sodipodi:ry="1.125"
     sodipodi:rx="1.125"
     sodipodi:cy="22.124998"
     sodipodi:cx="9.5"
     id="path1271"
     style="color:#000000;color-interpolation:sRGB;color-interpolation-filters:linearRGB;fill:#7a7a7a;fill-opacity:1;stroke:none;stroke-width:1;marker:none;visibility:visible;display:inline;overflow:visible;enable-background:accumulate;clip-rule:nonzero"
     sodipodi:type="arc" />
  <path
     sodipodi:type="arc"
     style="color:#000000;color-interpolation:sRGB;color-interpolation-filters:linearRGB;fill:#7a7a7a;fill-opacity:1;stroke:none;stroke-width:1;marker:none;visibility:visible;display:inline;overflow:visible;enable-background:accumulate;clip-rule:nonzero"
     id="path1273"
     sodipodi:cx="9.5"
     sodipodi:cy="22.124998"
     sodipodi:rx="1.125"
     sodipodi:ry="1.125"
     d="m 10.625,22.124998 a 1.125,1.125 0 1 1 -2.25,0 1.125,1.125 0 1 1 2.25,0 z"
     transform="matrix(0.88888889,0,0,0.88888889,28.555556,18.833335)" />
  <path
     transform="scale(-1,-1)"
     style="opacity:1;color:#000000;color-interpolation:sRGB;color-interpolation-filters:linearRGB;fill:url(#linearGradient1177);fill-opacity:1;stroke:none;stroke-width:1;marker:none;visibility:visible;display:inline;overflow:visible;enable-background:accumulate;clip-rule:nonzero"
     d="m -40.5,-42 3.5,0 c 0.831,0 1.5,0.669 1.5,1.5 l 0,22.5 -4.9,0 c -1.06296,0 -1.6,0.35 -1.6,0.35 l 0,-22.85 c 0,-0.831 0.669,-1.5 1.5,-1.5 z"
     id="rect1175"
     inkscape:connector-curvature="0"
     sodipodi:nodetypes="ssscccss" />
  <path
     sodipodi:type="arc"
     style="color:#000000;color-interpolation:sRGB;color-interpolation-filters:linearRGB;fill:#7a7a7a;fill-opacity:1;stroke:none;stroke-width:1;marker:none;visibility:visible;display:inline;overflow:visible;enable-background:accumulate;clip-rule:nonzero"
     id="path1275"
     sodipodi:cx="9.5"
     sodipodi:cy="22.124998"
     sodipodi:rx="1.125"
     sodipodi:ry="1.125"
     d="m 10.625,22.124998 a 1.125,1.125 0 1 1 -2.25,0 1.125,1.125 0 1 1 2.25,0 z"
     transform="matrix(0.88888889,0,0,0.88888889,15.305556,18.833335)" />
  <path
     sodipodi:type="arc"
     style="color:#000000;color-interpolation:sRGB;color-interpolation-filters:linearRGB;fill:#7a7a7a;fill-opacity:1;stroke:none;stroke-width:1;marker:none;visibility:visible;display:inline;overflow:visible;enable-background:accumulate;clip-rule:nonzero"
     id="path1277"
     sodipodi:cx="9.5"
     sodipodi:cy="22.124998"
     sodipodi:rx="1.125"
     sodipodi:ry="1.125"
     d="m 10.625,22.124998 a 1.125,1.125 0 1 1 -2.25,0 1.125,1.125 0 1 1 2.25,0 z"
     transform="matrix(0.88888889,0,0,0.88888889,8.6805555,18.833335)" />
  <path
     transform="matrix(0.88888889,0,0,0.88888889,21.930556,18.833335)"
     d="m 10.625,22.124998 a 1.125,1.125 0 1 1 -2.25,0 1.125,1.125 0 1 1 2.25,0 z"
     sodipodi:ry="1.125"
     sodipodi:rx="1.125"
     sodipodi:cy="22.124998"
     sodipodi:cx="9.5"
     id="path1279"
     style="color:#000000;color-interpolation:sRGB;color-interpolation-filters:linearRGB;fill:#7a7a7a;fill-opacity:1;stroke:none;stroke-width:1;marker:none;visibility:visible;display:inline;overflow:visible;enable-background:accumulate;clip-rule:nonzero"
     sodipodi:type="arc" />
  <path
     sodipodi:type="arc"
     style="color:#000000;color-interpolation:sRGB;color-interpolation-filters:linearRGB;fill:#7a7a7a;fill-opacity:1;stroke:none;stroke-width:1;marker:none;visibility:visible;display:inline;overflow:visible;enable-background:accumulate;clip-rule:nonzero"
     id="path1281"
     sodipodi:cx="9.5"
     sodipodi:cy="22.124998"
     sodipodi:rx="1.125"
     sodipodi:ry="1.125"
     d="m 10.625,22.124998 a 1.125,1.125 0 1 1 -2.25,0 1.125,1.125 0 1 1 2.25,0 z"
     transform="matrix(0.88888889,0,0,0.88888889,2.0555555,13.500002)" />
  <path
     transform="matrix(0.88888889,0,0,0.88888889,28.555556,13.500002)"
     d="m 10.625,22.124998 a 1.125,1.125 0 1 1 -2.25,0 1.125,1.125 0 1 1 2.25,0 z"
     sodipodi:ry="1.125"
     sodipodi:rx="1.125"
     sodipodi:cy="22.124998"
     sodipodi:cx="9.5"
     id="path1283"
     style="color:#000000;color-interpolation:sRGB;color-interpolation-filters:linearRGB;fill:#7a7a7a;fill-opacity:1;stroke:none;stroke-width:1;marker:none;visibility:visible;display:inline;overflow:visible;enable-background:accumulate;clip-rule:nonzero"
     sodipodi:type="arc" />
  <path
     transform="matrix(0.88888889,0,0,0.88888889,15.305556,13.500002)"
     d="m 10.625,22.124998 a 1.125,1.125 0 1 1 -2.25,0 1.125,1.125 0 1 1 2.25,0 z"
     sodipodi:ry="1.125"
     sodipodi:rx="1.125"
     sodipodi:cy="22.124998"
     sodipodi:cx="9.5"
     id="path1285"
     style="color:#000000;color-interpolation:sRGB;color-interpolation-filters:linearRGB;fill:#7a7a7a;fill-opacity:1;stroke:none;stroke-width:1;marker:none;visibility:visible;display:inline;overflow:visible;enable-background:accumulate;clip-rule:nonzero"
     sodipodi:type="arc" />
  <path
     transform="matrix(0.88888889,0,0,0.88888889,8.6805555,13.500002)"
     d="m 10.625,22.124998 a 1.125,1.125 0 1 1 -2.25,0 1.125,1.125 0 1 1 2.25,0 z"
     sodipodi:ry="1.125"
     sodipodi:rx="1.125"
     sodipodi:cy="22.124998"
     sodipodi:cx="9.5"
     id="path1287"
     style="color:#000000;color-interpolation:sRGB;color-interpolation-filters:linearRGB;fill:#7a7a7a;fill-opacity:1;stroke:none;stroke-width:1;marker:none;visibility:visible;display:inline;overflow:visible;enable-background:accumulate;clip-rule:nonzero"
     sodipodi:type="arc" />
  <path
     sodipodi:type="arc"
     style="color:#000000;color-interpolation:sRGB;color-interpolation-filters:linearRGB;fill:#7a7a7a;fill-opacity:1;stroke:none;stroke-width:1;marker:none;visibility:visible;display:inline;overflow:visible;enable-background:accumulate;clip-rule:nonzero"
     id="path1289"
     sodipodi:cx="9.5"
     sodipodi:cy="22.124998"
     sodipodi:rx="1.125"
     sodipodi:ry="1.125"
     d="m 10.625,22.124998 a 1.125,1.125 0 1 1 -2.25,0 1.125,1.125 0 1 1 2.25,0 z"
     transform="matrix(0.88888889,0,0,0.88888889,21.930556,13.500002)" />
  <path
     transform="matrix(0.88888889,0,0,0.88888889,2.0555555,8.166669)"
     d="m 10.625,22.124998 a 1.125,1.125 0 1 1 -2.25,0 1.125,1.125 0 1 1 2.25,0 z"
     sodipodi:ry="1.125"
     sodipodi:rx="1.125"
     sodipodi:cy="22.124998"
     sodipodi:cx="9.5"
     id="path1291"
     style="color:#000000;color-interpolation:sRGB;color-interpolation-filters:linearRGB;fill:#7a7a7a;fill-opacity:1;stroke:none;stroke-width:1;marker:none;visibility:visible;display:inline;overflow:visible;enable-background:accumulate;clip-rule:nonzero"
     sodipodi:type="arc" />
  <path
     transform="matrix(0.88888889,0,0,0.88888889,28.555556,2.833335)"
     d="m 10.625,22.124998 a 1.125,1.125 0 1 1 -2.25,0 1.125,1.125 0 1 1 2.25,0 z"
     sodipodi:ry="1.125"
     sodipodi:rx="1.125"
     sodipodi:cy="22.124998"
     sodipodi:cx="9.5"
     id="path1263"
     style="color:#000000;color-interpolation:sRGB;color-interpolation-filters:linearRGB;fill:#7a7a7a;fill-opacity:1;stroke:none;stroke-width:1;marker:none;visibility:visible;display:inline;overflow:visible;enable-background:accumulate;clip-rule:nonzero"
     sodipodi:type="arc" />
  <path
     transform="matrix(0.88888889,0,0,0.88888889,15.305556,2.833335)"
     d="m 10.625,22.124998 a 1.125,1.125 0 1 1 -2.25,0 1.125,1.125 0 1 1 2.25,0 z"
     sodipodi:ry="1.125"
     sodipodi:rx="1.125"
     sodipodi:cy="22.124998"
     sodipodi:cx="9.5"
     id="path1265"
     style="color:#000000;color-interpolation:sRGB;color-interpolation-filters:linearRGB;fill:#ababab;fill-opacity:1;stroke:none;stroke-width:1;marker:none;visibility:visible;display:inline;overflow:visible;enable-background:accumulate;clip-rule:nonzero"
     sodipodi:type="arc" />
  <path
     transform="matrix(0.88888889,0,0,0.88888889,8.6805555,2.833335)"
     d="m 10.625,22.124998 a 1.125,1.125 0 1 1 -2.25,0 1.125,1.125 0 1 1 2.25,0 z"
     sodipodi:ry="1.125"
     sodipodi:rx="1.125"
     sodipodi:cy="22.124998"
     sodipodi:cx="9.5"
     id="path1267"
     style="color:#000000;color-interpolation:sRGB;color-interpolation-filters:linearRGB;fill:#ababab;fill-opacity:1;stroke:none;stroke-width:1;marker:none;visibility:visible;display:inline;overflow:visible;enable-background:accumulate;clip-rule:nonzero"
     sodipodi:type="arc" />
  <path
     sodipodi:type="arc"
     style="color:#000000;color-interpolation:sRGB;color-interpolation-filters:linearRGB;fill:#ababab;fill-opacity:1;stroke:none;stroke-width:1;marker:none;visibility:visible;display:inline;overflow:visible;enable-background:accumulate;clip-rule:nonzero"
     id="path1269"
     sodipodi:cx="9.5"
     sodipodi:cy="22.124998"
     sodipodi:rx="1.125"
     sodipodi:ry="1.125"
     d="m 10.625,22.124998 a 1.125,1.125 0 1 1 -2.25,0 1.125,1.125 0 1 1 2.25,0 z"
     transform="matrix(0.88888889,0,0,0.88888889,21.930556,2.833335)" />
  <path
     sodipodi:type="arc"
     style="color:#000000;color-interpolation:sRGB;color-interpolation-filters:linearRGB;fill:#7a7a7a;fill-opacity:1;stroke:none;stroke-width:1;marker:none;visibility:visible;display:inline;overflow:visible;enable-background:accumulate;clip-rule:nonzero"
     id="path1293"
     sodipodi:cx="9.5"
     sodipodi:cy="22.124998"
     sodipodi:rx="1.125"
     sodipodi:ry="1.125"
     d="m 10.625,22.124998 a 1.125,1.125 0 1 1 -2.25,0 1.125,1.125 0 1 1 2.25,0 z"
     transform="matrix(0.88888889,0,0,0.88888889,28.555556,8.166669)" />
  <path
     sodipodi:type="arc"
     style="color:#000000;color-interpolation:sRGB;color-interpolation-filters:linearRGB;fill:#ababab;fill-opacity:1;stroke:none;stroke-width:1;marker:none;visibility:visible;display:inline;overflow:visible;enable-background:accumulate;clip-rule:nonzero"
     id="path1295"
     sodipodi:cx="9.5"
     sodipodi:cy="22.124998"
     sodipodi:rx="1.125"
     sodipodi:ry="1.125"
     d="m 10.625,22.124998 a 1.125,1.125 0 1 1 -2.25,0 1.125,1.125 0 1 1 2.25,0 z"
     transform="matrix(0.88888889,0,0,0.88888889,15.305556,8.166669)" />
  <path
     sodipodi:type="arc"
     style="color:#000000;color-interpolation:sRGB;color-interpolation-filters:linearRGB;fill:#ababab;fill-opacity:1;stroke:none;stroke-width:1;marker:none;visibility:visible;display:inline;overflow:visible;enable-background:accumulate;clip-rule:nonzero"
     id="path1297"
     sodipodi:cx="9.5"
     sodipodi:cy="22.124998"
     sodipodi:rx="1.125"
     sodipodi:ry="1.125"
     d="m 10.625,22.124998 a 1.125,1.125 0 1 1 -2.25,0 1.125,1.125 0 1 1 2.25,0 z"
     transform="matrix(0.88888889,0,0,0.88888889,8.6805555,8.166669)" />
  <path
     transform="matrix(0.88888889,0,0,0.88888889,21.930556,8.166669)"
     d="m 10.625,22.124998 a 1.125,1.125 0 1 1 -2.25,0 1.125,1.125 0 1 1 2.25,0 z"
     sodipodi:ry="1.125"
     sodipodi:rx="1.125"
     sodipodi:cy="22.124998"
     sodipodi:cx="9.5"
     id="path1299"
     style="color:#000000;color-interpolation:sRGB;color-interpolation-filters:linearRGB;fill:#ababab;fill-opacity:1;stroke:none;stroke-width:1;marker:none;visibility:visible;display:inline;overflow:visible;enable-background:accumulate;clip-rule:nonzero"
     sodipodi:type="arc" />
  <path
     sodipodi:nodetypes="ssscccss"
     inkscape:connector-curvature="0"
     id="path1331"
     d="m 7.5,42 3.5,0 c 0.831,0 1.5,-0.669 1.5,-1.5 L 12.5,18 7.6,18 C 6.53704,18 6,17.65 6,17.65 L 6,40.5 C 6,41.331 6.669,42 7.5,42 z"
     style="opacity:1;color:#000000;color-interpolation:sRGB;color-interpolation-filters:linearRGB;fill:url(#linearGradient1333);fill-opacity:1;stroke:none;stroke-width:1;marker:none;visibility:visible;display:inline;overflow:visible;enable-background:accumulate;clip-rule:nonzero" />
  <path
     style="font-size:xx-small;font-style:normal;font-variant:normal;font-weight:normal;font-stretch:normal;text-indent:0;text-align:start;text-decoration:none;line-height:normal;letter-spacing:normal;word-spacing:normal;text-transform:none;direction:ltr;block-progression:tb;writing-mode:lr-tb;text-anchor:start;baseline-shift:baseline;color:#000000;color-interpolation:sRGB;color-interpolation-filters:linearRGB;fill:#ffffff;fill-opacity:1;stroke:none;stroke-width:1;marker:none;visibility:visible;display:inline;overflow:visible;enable-background:accumulate;clip-rule:nonzero;font-family:Sans;-inkscape-font-specification:Sans"
     d="M 5 13.625 L 5 14.5 C 5 15.876351 6.1236486 17 7.5 17 L 40.5 17 C 41.876351 17 43 15.876351 43 14.5 L 43 14 L 42 14 L 42 14.5 C 42 15.339649 41.339649 16 40.5 16 L 7.5 16 C 6.6603514 16 6 15.339649 6 14.5 L 6 13.625 L 5 13.625 z "
     id="rect1311" />
  <g
     id="g7666"
     transform="matrix(1.0512963,0,0,0.4615385,52.470841,21.769238)"
     style="opacity:0.5" />
  <g
     id="g3425"
     transform="matrix(-0.64501498,0,0,-0.28355502,89.693215,13.061964)"
     style="opacity:0.4" />
  <g
     id="g2894"
     transform="matrix(-0.61921377,0,0,-0.6192054,90.196325,28.79698)" />
  <g
     id="g2814"
     transform="matrix(-0.61921377,0,0,-0.6192054,90.351129,28.79698)" />
  <g
     id="g2637"
     inkscape:label="base"
     style="display:inline"
     transform="matrix(-0.61921377,0,0,-0.6192054,51.474801,-2.4323839)" />
  <g
     id="g2953"
     style="opacity:0.6"
     transform="matrix(-0.61921377,0,0,-0.6192054,89.112701,28.79698)" />
  <g
     id="g4975"
     transform="matrix(0.7899128,-0.7899128,0.7899128,0.7899128,-23.213232,54.427611)">
    <path
       id="path4273"
       d="m 58.0654,14.043455 -0.550131,0.88021 1.155275,0.495118 0.825197,-0.660157 3.685879,0.275065 1.155276,1.540368 1.045249,-1.705407 1.320315,0.715171 1.76042,-0.220053 -0.440105,-0.935223 1.210289,-1.210289 -1.705407,-1.925459 1.650393,0.220053 0.715171,-0.660157 -0.935223,0.165039 -0.990236,-1.705407 -1.430341,-0.3300787 1.155275,-0.3850919 0.05501,-0.990236 -2.255538,-1.9804723 -0.825196,-2.6406298 -3.740893,1.1002624 -0.935223,2.2005248 -0.330078,-0.7151706 -0.935223,0.055013 0,0.8802099 -1.100263,-1.2653018 -1.485354,1.5953805 0,2.2555377 2.585617,2.2555388 -1.650394,0.935223 0.05501,0.935222 0.935223,0.825197 z"
       style="color:#000000;fill:url(#radialGradient5361);fill-opacity:1;fill-rule:evenodd;stroke:#5a5a5a;stroke-width:1;stroke-linecap:butt;stroke-linejoin:miter;stroke-miterlimit:4;stroke-opacity:1;stroke-dasharray:none;stroke-dashoffset:0;marker:none;visibility:visible;display:inline;overflow:visible"
       inkscape:connector-curvature="0" />
    <path
       id="path5158"
       d="m 61.311174,9.4223534 -0.275065,2.0354856 0.660157,1.045249 -1.430341,0.440105 -0.825197,1.650394 3.740892,0.275065 0.88021,1.265302 0.715171,-1.925459 -1.375328,-0.88021 -2.090499,0.605144 0.825197,-1.100262 -0.440105,-1.92546 -0.385092,-1.4853536 z"
       style="opacity:0.76966289;color:#000000;fill:url(#linearGradient5170);fill-opacity:1;fill-rule:evenodd;stroke:none;stroke-width:1;marker:none;visibility:visible;display:inline;overflow:visible"
       inkscape:connector-curvature="0" />
    <path
       id="path5160"
       d="m 61.641253,9.7524321 1.375328,2.1455119 2.255538,-1.540368 1.375328,0.770184 1.100262,-0.935223 0.990236,0.88021 L 67.802722,9.5323795 65.65721,9.0372615 62.961568,7.7169466 c 0,0 -3.850919,1.1552756 -3.630866,1.1552756 0.220052,0 3.190761,0.055013 3.190761,0.055013 l 0.495118,-0.7151705 1.320315,0.6051444 -2.695643,0.9352231 z"
       style="color:#000000;fill:url(#linearGradient5168);fill-opacity:1;fill-rule:evenodd;stroke:none;stroke-width:1;marker:none;visibility:visible;display:inline;overflow:visible"
       inkscape:connector-curvature="0" />
    <path
       id="path5172"
       d="m 64.446922,3.4259232 -3.245774,1.1002624 -0.440105,1.2102887 1.870446,1.3203149 1.76042,-1.7054068 0.05501,-1.9254592 z"
       style="color:#000000;fill:#d8d8d8;fill-opacity:1;fill-rule:evenodd;stroke:none;stroke-width:1;marker:none;visibility:visible;display:inline;overflow:visible"
       inkscape:connector-curvature="0" />
    <path
       id="path5174"
       d="m 64.501935,3.5359494 0.715171,2.310551 1.320315,1.1552756 -2.695643,-0.6051444 c 0,0 -0.770184,0.8802099 -0.440105,0.8802099 0.330078,0 3.905931,0.4401051 3.905931,0.4401051 L 67.252591,8.4321171 62.191384,7.496894 64.391909,5.4614087 64.501935,3.5359494 z"
       style="opacity:0.13483145;color:#000000;fill:url(#linearGradient5182);fill-opacity:1;fill-rule:evenodd;stroke:none;stroke-width:1;marker:none;visibility:visible;display:inline;overflow:visible"
       inkscape:connector-curvature="0" />
    <path
       id="path5184"
       d="m 57.570282,6.7817235 -0.275066,2.750656 0.605145,-1.8704461 1.59538,0.4951183 0.385092,-0.825197 1.925459,0.2750657 0.440105,-0.3850918 -2.805669,-0.1100265 -0.275066,0.7701838 -1.210288,-0.6051444 -0.385092,-0.495118 z"
       style="color:#000000;fill:#ffffff;fill-opacity:1;fill-rule:evenodd;stroke:none;stroke-width:1;marker:none;visibility:visible;display:inline;overflow:visible"
       inkscape:connector-curvature="0" />
    <path
       id="path5186"
       d="m 62.246397,10.852695 0.935223,1.100262 2.145512,-1.430341 1.320315,0.71517 2.145511,2.035486 -2.365564,-1.815433 -1.155275,-0.330079 -2.255538,1.540367 -0.770184,-1.815432 z"
       style="color:#000000;fill:#ffffff;fill-opacity:1;fill-rule:evenodd;stroke:none;stroke-width:1;marker:none;visibility:visible;display:inline;overflow:visible"
       inkscape:connector-curvature="0" />
    <path
       d="M 64.09375,4.0625 61.5625,4.78125 60.78125,6.625 a 0.83785841,0.83785841 0 0 1 -1.34375,0.3125 0.83785841,0.83785841 0 0 1 -1.34375,0.125 l -0.5,-0.5625 -0.625,0.6875 0,1.53125 2.3125,2 A 0.83785841,0.83785841 0 0 1 59.125,12.0625 l -1.1875,0.65625 0,0.09375 0.6875,0.59375 a 0.83785841,0.83785841 0 0 1 0.28125,0.75 L 59,14.09375 a 0.83785841,0.83785841 0 0 1 0.5625,-0.1875 L 63.25,14.1875 a 0.83785841,0.83785841 0 0 1 0.59375,0.34375 l 0.40625,0.5625 0.40625,-0.65625 a 0.83785841,0.83785841 0 0 1 1.125,-0.3125 l 1.09375,0.59375 0.34375,-0.0625 a 0.83785841,0.83785841 0 0 1 0.21875,-0.8125 l 0.625,-0.65625 -1.15625,-1.34375 a 0.83785841,0.83785841 0 0 1 0.75,-1.40625 l -0.21875,-0.40625 -1.09375,-0.25 a 0.83785841,0.83785841 0 0 1 -0.0625,-1.625 L 66.875,7.96875 66.875,7.9375 64.9375,6.25 a 0.83785841,0.83785841 0 0 1 -0.25,-0.375 L 64.09375,4.0625 z m -4.65625,2.875 c 0.01042,-0.010417 0.01042,-0.03125 0,-0.03125 a 0.83785841,0.83785841 0 0 1 0,0.03125 z"
       inkscape:href="#path4273"
       id="path5359"
       style="color:#000000;fill:none;stroke:url(#linearGradient5172);stroke-width:1;stroke-linecap:butt;stroke-linejoin:miter;stroke-miterlimit:4;stroke-opacity:1;stroke-dasharray:none;stroke-dashoffset:0;marker:none;visibility:visible;display:inline;overflow:visible"
       xlink:href="#path4273"
       inkscape:original="M 64.65625 3 L 60.9375 4.09375 L 60 6.28125 L 59.65625 5.5625 L 58.71875 5.625 L 58.71875 6.5 L 57.625 5.25 L 56.125 6.84375 L 56.125 9.09375 L 58.71875 11.34375 L 57.0625 12.28125 L 57.125 13.21875 L 58.0625 14.03125 L 57.5 14.9375 L 58.65625 15.40625 L 59.5 14.75 L 63.1875 15.03125 L 64.34375 16.5625 L 65.375 14.875 L 66.6875 15.59375 L 68.46875 15.375 L 68.03125 14.4375 L 69.21875 13.21875 L 67.53125 11.28125 L 69.1875 11.5 L 69.90625 10.84375 L 68.96875 11.03125 L 67.96875 9.3125 L 66.53125 8.96875 L 67.6875 8.59375 L 67.75 7.59375 L 65.5 5.625 L 64.65625 3 z "
       inkscape:radius="-0.83777463"
       sodipodi:type="inkscape:offset" />
  </g>
</svg>
