<?xml version="1.0" encoding="UTF-8" standalone="no"?>
<svg
   xmlns:dc="http://purl.org/dc/elements/1.1/"
   xmlns:cc="http://creativecommons.org/ns#"
   xmlns:rdf="http://www.w3.org/1999/02/22-rdf-syntax-ns#"
   xmlns:svg="http://www.w3.org/2000/svg"
   xmlns="http://www.w3.org/2000/svg"
   xmlns:xlink="http://www.w3.org/1999/xlink"
   xmlns:sodipodi="http://sodipodi.sourceforge.net/DTD/sodipodi-0.dtd"
   xmlns:inkscape="http://www.inkscape.org/namespaces/inkscape"
   viewBox="0 0 22 22"
   id="svg2"
   version="1.1"
   inkscape:version="0.48.3.1 r9886"
   width="100%"
   height="100%"
   sodipodi:docname="gnome-mplayer-panel.svg">
  <metadata
     id="metadata19">
    <rdf:RDF>
      <cc:Work
         rdf:about="">
        <dc:format>image/svg+xml</dc:format>
        <dc:type
           rdf:resource="http://purl.org/dc/dcmitype/StillImage" />
      </cc:Work>
    </rdf:RDF>
  </metadata>
  <sodipodi:namedview
     pagecolor="#ffffff"
     bordercolor="#666666"
     borderopacity="1"
     objecttolerance="10"
     gridtolerance="10"
     guidetolerance="10"
     inkscape:pageopacity="0"
     inkscape:pageshadow="2"
     inkscape:window-width="640"
     inkscape:window-height="480"
     id="namedview17"
     showgrid="false"
     inkscape:zoom="10.727273"
     inkscape:cx="11"
     inkscape:cy="11"
     inkscape:window-x="0"
     inkscape:window-y="24"
     inkscape:window-maximized="0"
     inkscape:current-layer="svg2" />
  <defs
     id="defs4">
    <linearGradient
       gradientUnits="userSpaceOnUse"
       id="linearGradient3030"
       x1="8.15176"
       x2="8.19565"
       y1="1033.3865"
       y2="1051.3734">
      <stop
         offset="0"
         id="stop7" />
      <stop
         offset="1"
         stop-color="#363636"
         id="stop9" />
    </linearGradient>
    <linearGradient
       inkscape:collect="always"
       xlink:href="#linearGradient3030"
       id="linearGradient3088"
       gradientUnits="userSpaceOnUse"
       x1="8.15176"
       y1="1033.3865"
       x2="8.19565"
       y2="1051.3734"
       gradientTransform="translate(0,-1030.8622)" />
  </defs>
  <path
     style="opacity:0.6;fill:#ffffff"
     inkscape:connector-curvature="0"
     id="path13"
     d="M 2.27931,3.5 C 2.11302,3.5 2,3.6138 2,3.7813 V 17.875 c 0,0.1675 0.11302,0.3125 0.27931,0.3125 h 1.17931 4.5 c 1.1,1.9814 3.20275,3.3125 5.61724,3.3125 C 17.12822,21.5 20,18.6083 20,15.0313 20,11.8969 17.78567,9.2864 14.84828,8.6875 V 3.7813 C 14.84828,3.6138 14.73526,3.5 14.56897,3.5 H 12.83104 3.89311 2.27932 z M 4.57586,5 h 7.69655 V 8.6875 C 11.17283,8.9117 10.20036,9.4416 9.3862,10.1563 H 4.57586 V 5 z m 6.2069,6.3438 7.2931,3.6875 -7.2931,3.6562 v -7.3437 z m -6.2069,0.3125 h 3.56897 c -0.61005,0.9863 -0.9931,2.1285 -0.9931,3.375 0,0.5758 0.10636,1.1244 0.24828,1.6562 H 4.57587 v -5.0312 z" />
  <path
     inkscape:connector-curvature="0"
     style="opacity:0.7;fill:url(#linearGradient3088)"
     id="path15"
     d="M 2.27931,2.5 C 2.11302,2.5 2,2.6138 2,2.7813 V 16.875 c 0,0.1675 0.11302,0.3125 0.27931,0.3125 h 1.17931 4.5 c 1.1,1.9814 3.20275,3.3125 5.61724,3.3125 C 17.12822,20.5 20,17.6083 20,14.0313 20,10.8969 17.78567,8.2864 14.84828,7.6875 V 2.7813 C 14.84828,2.6138 14.73526,2.5 14.56897,2.5 H 12.83104 3.89311 2.27932 z M 4.57586,4 h 7.69655 V 7.6875 C 11.17283,7.9117 10.20036,8.4416 9.3862,9.1563 H 4.57586 V 4 z m 6.2069,6.3438 7.2931,3.6875 -7.2931,3.6562 v -7.3437 z m -6.2069,0.3125 h 3.56897 c -0.61005,0.9863 -0.9931,2.1285 -0.9931,3.375 0,0.5758 0.10636,1.1244 0.24828,1.6562 H 4.57587 v -5.0312 z" />
</svg>
