<?xml version="1.0" encoding="UTF-8" standalone="no"?>
<!-- Created with Inkscape (http://www.inkscape.org/) -->

<svg
   xmlns:dc="http://purl.org/dc/elements/1.1/"
   xmlns:cc="http://creativecommons.org/ns#"
   xmlns:rdf="http://www.w3.org/1999/02/22-rdf-syntax-ns#"
   xmlns:svg="http://www.w3.org/2000/svg"
   xmlns="http://www.w3.org/2000/svg"
   xmlns:xlink="http://www.w3.org/1999/xlink"
   xmlns:sodipodi="http://sodipodi.sourceforge.net/DTD/sodipodi-0.dtd"
   xmlns:inkscape="http://www.inkscape.org/namespaces/inkscape"
   width="24"
   height="24"
   id="svg6662"
   version="1.1"
   inkscape:version="0.48.4 r9939"
   sodipodi:docname="gtk-preferences.svg">
  <defs
     id="defs6664">
    <linearGradient
       y2="11.02436"
       y1="3.0069399"
       x2="0"
       id="linearGradient1022-8-8-3-0-05-34"
       gradientUnits="userSpaceOnUse">
      <stop
         id="stop3001-0-9-4-49-1"
         offset="0"
         style="stop-color:#bebebe;stop-opacity:1;" />
      <stop
         id="stop3003-5-6-6-8-9"
         stop-color="#363636"
         offset="1"
         style="stop-color:#ffffff;stop-opacity:1;" />
    </linearGradient>
    <linearGradient
       inkscape:collect="always"
       xlink:href="#linearGradient1022-8-8-3-0-05-34"
       id="linearGradient2993"
       gradientUnits="userSpaceOnUse"
       gradientTransform="matrix(1.8592111,0,0,1.6707774,-412.25724,1015.2999)"
       x1="227.11636"
       y1="10.212164"
       x2="227.11636"
       y2="22.18264" />
  </defs>
  <sodipodi:namedview
     id="base"
     pagecolor="#ffffff"
     bordercolor="#666666"
     borderopacity="1.0"
     inkscape:pageopacity="0.0"
     inkscape:pageshadow="2"
     inkscape:zoom="22.4"
     inkscape:cx="18.369086"
     inkscape:cy="8.2274663"
     inkscape:document-units="px"
     inkscape:current-layer="capa1"
     showgrid="true"
     inkscape:showpageshadow="false"
     inkscape:window-width="1280"
     inkscape:window-height="974"
     inkscape:window-x="0"
     inkscape:window-y="26"
     inkscape:window-maximized="1">
    <inkscape:grid
       type="xygrid"
       id="grid2990" />
  </sodipodi:namedview>
  <metadata
     id="metadata6667">
    <rdf:RDF>
      <cc:Work
         rdf:about="">
        <dc:format>image/svg+xml</dc:format>
        <dc:type
           rdf:resource="http://purl.org/dc/dcmitype/StillImage" />
        <dc:title />
      </cc:Work>
    </rdf:RDF>
  </metadata>
  <g
     inkscape:label="Capa 1"
     inkscape:groupmode="layer"
     id="capa1"
     transform="translate(0,-1028.3622)">
    <path
       inkscape:connector-curvature="0"
       id="path6419"
       d="m 11.00003,1031.3622 0,3.1563 c -0.97646,0.1998 -1.88949,0.5858 -2.6875,1.125 l -0.0312,0 -2.28125,-2.2813 -2,2 2.28125,2.2813 c -0.005,0.01 0.005,0.024 0,0.031 -0.53912,0.798 -0.92519,1.711 -1.125,2.6875 l -2.15625,0 0,3 2.15625,0 c 0.19981,0.9764 0.58588,1.8895 1.125,2.6875 0.005,0.01 -0.005,0.024 0,0.031 l -2.2813,2.2813 2,2 2.28125,-2.2812 c 0.007,0.01 0.0244,-0 0.0312,0 0.79801,0.5391 1.71104,0.9251 2.6875,1.125 l 0,3.1562 3,0 0,-3.1562 c 0.97646,-0.1999 1.88949,-0.5859 2.6875,-1.125 l 0.0312,0 2.28125,2.2812 2,-2 -2.28125,-2.2812 0,-0.031 c 0.53912,-0.798 0.92519,-1.7111 1.125,-2.6875 l 2.15625,0 0,-3 -2.15625,0 c -0.19981,-0.9765 -0.58588,-1.8895 -1.125,-2.6875 l 0,-0.031 2.28125,-2.2813 -2,-2 -2.28125,2.2813 -0.0312,0 c -0.79801,-0.5392 -1.71104,-0.9252 -2.6875,-1.125 l 0,-3.1563 -3,0 z m 1.5,6 c 2.48528,0 4.5,2.0147 4.5,4.5 0,2.4853 -2.01472,4.5 -4.5,4.5 -2.48528,0 -4.5,-2.0147 -4.5,-4.5 0,-2.4853 2.01472,-4.5 4.5,-4.5 z"
       style="opacity:1;color:#000000;fill:#000000;fill-opacity:1;fill-rule:nonzero;stroke:none;stroke-width:1;marker:none;visibility:visible;display:inline;overflow:visible;enable-background:accumulate" />
    <path
       style="opacity:1;color:#000000;fill:url(#linearGradient2993);fill-opacity:1;fill-rule:nonzero;stroke:none;stroke-width:1;marker:none;visibility:visible;display:inline;overflow:visible;enable-background:accumulate"
       d="m 10.99998,1030.3622 0,3.1563 c -0.97646,0.1998 -1.88949,0.5858 -2.6875,1.125 l -0.0312,0 -2.28125,-2.2813 -2,2 2.28125,2.2813 c -0.005,0.01 0.005,0.024 0,0.031 -0.53912,0.798 -0.92519,1.711 -1.125,2.6875 l -2.15625,0 0,3 2.15625,0 c 0.19981,0.9764 0.58588,1.8895 1.125,2.6875 0.005,0.01 -0.005,0.024 0,0.031 l -2.2813,2.2813 2,2 2.28125,-2.2812 c 0.007,0.01 0.0244,-0 0.0312,0 0.79801,0.5391 1.71104,0.9251 2.6875,1.125 l 0,3.1562 3,0 0,-3.1562 c 0.97646,-0.1999 1.88949,-0.5859 2.6875,-1.125 l 0.0312,0 2.28125,2.2812 2,-2 -2.28125,-2.2812 0,-0.031 c 0.53912,-0.798 0.92519,-1.7111 1.125,-2.6875 l 2.15625,0 0,-3 -2.15625,0 c -0.19981,-0.9765 -0.58588,-1.8895 -1.125,-2.6875 l 0,-0.031 2.28125,-2.2813 -2,-2 -2.28125,2.2813 -0.0312,0 c -0.79801,-0.5392 -1.71104,-0.9252 -2.6875,-1.125 l 0,-3.1563 -3,0 z m 1.5,6 c 2.48528,0 4.5,2.0147 4.5,4.5 0,2.4853 -2.01472,4.5 -4.5,4.5 -2.48528,0 -4.5,-2.0147 -4.5,-4.5 0,-2.4853 2.01472,-4.5 4.5,-4.5 z"
       id="path5266"
       inkscape:connector-curvature="0" />
  </g>
</svg>
