<?xml version="1.0" encoding="UTF-8" standalone="no"?>
<!-- Created with Inkscape (http://www.inkscape.org/) -->

<svg
   xmlns:dc="http://purl.org/dc/elements/1.1/"
   xmlns:cc="http://creativecommons.org/ns#"
   xmlns:rdf="http://www.w3.org/1999/02/22-rdf-syntax-ns#"
   xmlns:svg="http://www.w3.org/2000/svg"
   xmlns="http://www.w3.org/2000/svg"
   xmlns:sodipodi="http://sodipodi.sourceforge.net/DTD/sodipodi-0.dtd"
   xmlns:inkscape="http://www.inkscape.org/namespaces/inkscape"
   version="1.0"
   width="24"
   height="24"
   id="svg3194"
   inkscape:version="0.48.4 r9939"
   sodipodi:docname="network-cellular-signal-none.svg">
  <sodipodi:namedview
     pagecolor="#ffffff"
     bordercolor="#666666"
     borderopacity="1"
     objecttolerance="10"
     gridtolerance="10"
     guidetolerance="10"
     inkscape:pageopacity="0"
     inkscape:pageshadow="2"
     inkscape:window-width="1280"
     inkscape:window-height="974"
     id="namedview11"
     showgrid="true"
     inkscape:zoom="22.627417"
     inkscape:cx="12.62047"
     inkscape:cy="8.0189991"
     inkscape:window-x="0"
     inkscape:window-y="26"
     inkscape:window-maximized="1"
     inkscape:current-layer="svg3194">
    <inkscape:grid
       type="xygrid"
       id="grid2987"
       empspacing="5"
       visible="true"
       enabled="true"
       snapvisiblegridlinesonly="true" />
  </sodipodi:namedview>
  <metadata
     id="metadata16">
    <rdf:RDF>
      <cc:Work
         rdf:about="">
        <dc:format>image/svg+xml</dc:format>
        <dc:type
           rdf:resource="http://purl.org/dc/dcmitype/StillImage" />
        <dc:title />
      </cc:Work>
    </rdf:RDF>
  </metadata>
  <defs
     id="defs3196" />
  <path
     style="opacity:1;fill:#000000;fill-opacity:1;fill-rule:nonzero;stroke:none;stroke-width:1;marker:none;visibility:visible;display:inline;overflow:visible;enable-background:accumulate"
     d="M 20 5 L 20 21 L 22 21 L 22 5 L 20 5 z M 16 10 L 16 21 L 18 21 L 18 10 L 16 10 z M 2 13 L 2 14 L 5 16.75 L 5 21 L 6 21 L 6 16.75 L 9 14 L 9 13 L 2 13 z M 3.71875 14 L 5 14 L 5 15.25 L 3.71875 14 z M 6 14 L 7.28125 14 L 6 15.28125 L 6 14 z M 12 14 C 11.999829 14 12 14.446 12 15 L 12 20 C 12 20.554 11.999829 21 12 21 L 14 21 C 14.000171 21 14 20.554 14 20 L 14 15 C 14 14.446 14.000171 14 14 14 L 12 14 z M 8 18 L 8 21 L 10 21 L 10 18 L 8 18 z "
     id="rect3165-3" />
  <path
     style="opacity:1;fill:#808080;fill-opacity:1;fill-rule:nonzero;stroke:none;stroke-width:1;marker:none;visibility:visible;display:inline;overflow:visible;enable-background:accumulate"
     d="M 20 4 L 20 20 L 22 20 L 22 4 L 20 4 z M 16 9 L 16 20 L 18 20 L 18 9 L 16 9 z M 2 12 L 2 13 L 5 15.75 L 5 20 L 6 20 L 6 15.75 L 9 13 L 9 12 L 2 12 z M 3.71875 13 L 5 13 L 5 14.25 L 3.71875 13 z M 6 13 L 7.28125 13 L 6 14.28125 L 6 13 z M 12 13 C 11.999829 13 12 13.446 12 14 L 12 19 C 12 19.554 11.999829 20 12 20 L 14 20 C 14.000171 20 14 19.554 14 19 L 14 14 C 14 13.446 14.000171 13 14 13 L 12 13 z M 8 17 L 8 20 L 10 20 L 10 17 L 8 17 z "
     id="rect3165" />
</svg>
