<?xml version="1.0" encoding="UTF-8" standalone="no"?>
<!-- Created with Inkscape (http://www.inkscape.org/) -->

<svg
   xmlns:dc="http://purl.org/dc/elements/1.1/"
   xmlns:cc="http://creativecommons.org/ns#"
   xmlns:rdf="http://www.w3.org/1999/02/22-rdf-syntax-ns#"
   xmlns:svg="http://www.w3.org/2000/svg"
   xmlns="http://www.w3.org/2000/svg"
   xmlns:xlink="http://www.w3.org/1999/xlink"
   xmlns:sodipodi="http://sodipodi.sourceforge.net/DTD/sodipodi-0.dtd"
   xmlns:inkscape="http://www.inkscape.org/namespaces/inkscape"
   version="1.0"
   width="24"
   height="24"
   id="svg3167"
   sodipodi:version="0.32"
   inkscape:version="0.48.4 r9939"
   sodipodi:docname="network-transmit.svg"
   inkscape:output_extension="org.inkscape.output.svg.inkscape">
  <metadata
     id="metadata18">
    <rdf:RDF>
      <cc:Work
         rdf:about="">
        <dc:format>image/svg+xml</dc:format>
        <dc:type
           rdf:resource="http://purl.org/dc/dcmitype/StillImage" />
      </cc:Work>
    </rdf:RDF>
  </metadata>
  <sodipodi:namedview
     inkscape:window-height="972"
     inkscape:window-width="1280"
     inkscape:pageshadow="2"
     inkscape:pageopacity="0.0"
     guidetolerance="10.0"
     gridtolerance="10.0"
     objecttolerance="10.0"
     borderopacity="1.0"
     bordercolor="#666666"
     pagecolor="#ffffff"
     id="base"
     showgrid="true"
     inkscape:zoom="20.75"
     inkscape:cx="21.349398"
     inkscape:cy="14.409639"
     inkscape:window-x="0"
     inkscape:window-y="26"
     inkscape:current-layer="svg3167"
     inkscape:snap-bbox="true"
     inkscape:window-maximized="1">
    <inkscape:grid
       type="xygrid"
       id="grid3003" />
  </sodipodi:namedview>
  <defs
     id="defs3169">
    <linearGradient
       id="linearGradient3587-6-5-3">
      <stop
         id="stop3589-9-2-0"
         style="stop-color:#bebebe;stop-opacity:1;"
         offset="0" />
      <stop
         id="stop3591-7-4-7"
         style="stop-color:#ffffff;stop-opacity:1;"
         offset="1" />
    </linearGradient>
    <linearGradient
       inkscape:collect="always"
       xlink:href="#linearGradient3587-6-5-3"
       id="linearGradient2398"
       gradientUnits="userSpaceOnUse"
       x1="14"
       y1="3"
       x2="14"
       y2="21"
       gradientTransform="translate(0.0092221,-1)" />
  </defs>
  <path
     id="path3005"
     d="M 11.96875,5.125 C 8.4843477,5.125 5.9057149,6.0225417 4.1875,6.9375 2.4692851,7.8524583 1.5625,8.84375 1.5625,8.84375 l 1.28125,1.125 c 0,0 0.6531063,-0.7308182 2.15625,-1.53125 C 6.5031437,7.6370682 8.7754835,6.84375 11.96875,6.84375 15.144635,6.84375 17.481408,7.6343344 19,8.4375 20.518592,9.2406656 21.1875,10 21.1875,10 l 1.25,-1.15625 c 0,0 -0.92595,-0.9911144 -2.65625,-1.90625 C 18.05095,6.0223644 15.437706,5.125 11.96875,5.125 z m -0.875,4.15625 C 9.0469576,9.3768087 7.4722178,9.9299645 6.375,10.5 5.1210368,11.151469 4.4375,11.875 4.4375,11.875 l 1.25,1.15625 c 0,0 0.4328543,-0.493073 1.46875,-1.03125 1.0358957,-0.538177 2.6169439,-1.071608 4.8125,-1.03125 2.229143,0.04097 3.837127,0.594338 4.875,1.125 1.037873,0.530662 1.4375,1 1.4375,1 l 1.25,-1.1875 c 0,0 -0.695238,-0.677334 -1.9375,-1.3125 C 16.351488,9.9585842 14.498441,9.327175 12,9.28125 c -0.311642,-0.00573 -0.613851,-0.013651 -0.90625,0 z m 0.8125,4 c -1.676463,0.01768 -2.8595427,0.361903 -3.625,0.75 -0.7654573,0.388097 -1.1875,0.90625 -1.1875,0.90625 l 1.34375,1.03125 c 0,0 0.1010867,-0.140619 0.625,-0.40625 0.5239133,-0.265631 1.399739,-0.578523 2.84375,-0.59375 1.414949,-0.01492 2.342888,0.284917 2.90625,0.5625 C 15.375862,15.808833 15.53125,16 15.53125,16 l 1.28125,-1.09375 c 0,0 -0.45342,-0.513754 -1.25,-0.90625 -0.79658,-0.392496 -1.989628,-0.736327 -3.65625,-0.71875 z M 12,17.1875 c -1.440233,-0.0058 -2.0180953,0.427456 -2.15625,0.53125 0.077307,0.06262 2.125,2.28125 2.125,2.28125 0,0 2.09325,-2.19996 2.1875,-2.28125 C 14.048311,17.618141 13.417157,17.1932 12,17.1875 z"
     style="opacity:1;fill:#000000;fill-opacity:1;fill-rule:evenodd;stroke:none;overflow:visible"
     inkscape:connector-curvature="0" />
  <path
     style="opacity:1;fill:url(#linearGradient2398);fill-opacity:1;fill-rule:evenodd;stroke:none;overflow:visible"
     d="M 11.96875 4.125 C 8.4843477 4.125 5.9057149 5.0225417 4.1875 5.9375 C 2.4692851 6.8524583 1.5625 7.84375 1.5625 7.84375 L 2.84375 8.96875 C 2.84375 8.96875 3.4968563 8.2379318 5 7.4375 C 6.5031437 6.6370682 8.7754835 5.84375 11.96875 5.84375 C 15.144635 5.84375 17.481408 6.6343344 19 7.4375 C 20.518592 8.2406656 21.1875 9 21.1875 9 L 22.4375 7.84375 C 22.4375 7.84375 21.51155 6.8526356 19.78125 5.9375 C 18.05095 5.0223644 15.437706 4.125 11.96875 4.125 z M 11.09375 8.28125 C 9.0469576 8.3768087 7.4722178 8.9299645 6.375 9.5 C 5.1210368 10.151469 4.4375 10.875 4.4375 10.875 L 5.6875 12.03125 C 5.6875 12.03125 6.1203543 11.538177 7.15625 11 C 8.1921457 10.461823 9.7731939 9.9283925 11.96875 9.96875 C 14.197893 10.009725 15.805877 10.563088 16.84375 11.09375 C 17.881623 11.624412 18.28125 12.09375 18.28125 12.09375 L 19.53125 10.90625 C 19.53125 10.90625 18.836012 10.228916 17.59375 9.59375 C 16.351488 8.9585842 14.498441 8.327175 12 8.28125 C 11.688358 8.2755216 11.386149 8.2675988 11.09375 8.28125 z M 11.90625 12.28125 C 10.229787 12.29893 9.0467073 12.643153 8.28125 13.03125 C 7.5157927 13.419347 7.09375 13.9375 7.09375 13.9375 L 8.4375 14.96875 C 8.4375 14.96875 8.5385867 14.828131 9.0625 14.5625 C 9.5864133 14.296869 10.462239 13.983977 11.90625 13.96875 C 13.321199 13.95383 14.249138 14.253667 14.8125 14.53125 C 15.375862 14.808833 15.53125 15 15.53125 15 L 16.8125 13.90625 C 16.8125 13.90625 16.35908 13.392496 15.5625 13 C 14.76592 12.607504 13.572872 12.263673 11.90625 12.28125 z M 12 16.1875 C 10.559767 16.181679 9.9819047 16.614956 9.84375 16.71875 C 9.9210572 16.781368 11.96875 19 11.96875 19 C 11.96875 19 14.062 16.80004 14.15625 16.71875 C 14.048311 16.618141 13.417157 16.1932 12 16.1875 z "
     id="path3375" />
</svg>
