<?xml version="1.0" encoding="UTF-8" standalone="no"?>
<!-- Created with Inkscape (http://www.inkscape.org/) -->

<svg
   xmlns:dc="http://purl.org/dc/elements/1.1/"
   xmlns:cc="http://creativecommons.org/ns#"
   xmlns:rdf="http://www.w3.org/1999/02/22-rdf-syntax-ns#"
   xmlns:svg="http://www.w3.org/2000/svg"
   xmlns="http://www.w3.org/2000/svg"
   xmlns:xlink="http://www.w3.org/1999/xlink"
   xmlns:sodipodi="http://sodipodi.sourceforge.net/DTD/sodipodi-0.dtd"
   xmlns:inkscape="http://www.inkscape.org/namespaces/inkscape"
   width="24"
   height="24"
   id="svg2902"
   version="1.1"
   inkscape:version="0.48.4 r9939"
   sodipodi:docname="sylpheed-panel-unread.svg">
  <defs
     id="defs2904">
    <linearGradient
       x1="54.585564"
       y1="32.96188"
       x2="54.585564"
       y2="12.78516"
       id="linearGradient2388-5"
       xlink:href="#linearGradient2867-449-88-871-390-598-476-591-434-148-6"
       gradientUnits="userSpaceOnUse"
       gradientTransform="matrix(0.48248289,0,0,0.69386905,-14.3366,-11.871227)" />
    <linearGradient
       id="linearGradient2867-449-88-871-390-598-476-591-434-148-6">
      <stop
         offset="0"
         style="stop-color:#49a3d2;stop-opacity:1"
         id="stop4629-4" />
      <stop
         offset="0.704952"
         style="stop-color:#3470b4;stop-opacity:1"
         id="stop4631-8" />
      <stop
         offset="1"
         style="stop-color:#1b5699;stop-opacity:1"
         id="stop4633-9" />
    </linearGradient>
  </defs>
  <sodipodi:namedview
     id="base"
     pagecolor="#ffffff"
     bordercolor="#666666"
     borderopacity="1.0"
     inkscape:pageopacity="0.0"
     inkscape:pageshadow="2"
     inkscape:zoom="22.197802"
     inkscape:cx="19.84802"
     inkscape:cy="13.743812"
     inkscape:current-layer="layer1"
     showgrid="true"
     inkscape:grid-bbox="true"
     inkscape:document-units="px"
     inkscape:window-width="1280"
     inkscape:window-height="974"
     inkscape:window-x="0"
     inkscape:window-y="26"
     inkscape:window-maximized="1">
    <inkscape:grid
       type="xygrid"
       id="grid2989" />
  </sodipodi:namedview>
  <metadata
     id="metadata2907">
    <rdf:RDF>
      <cc:Work
         rdf:about="">
        <dc:format>image/svg+xml</dc:format>
        <dc:type
           rdf:resource="http://purl.org/dc/dcmitype/StillImage" />
        <dc:title />
      </cc:Work>
    </rdf:RDF>
  </metadata>
  <g
     id="layer1"
     inkscape:label="Layer 1"
     inkscape:groupmode="layer"
     transform="translate(0,8)">
    <path
       d="M 4.9999999,-1.9999998 3,2.1e-7 3,10 5,12 19,12 21,10 21,2.1e-7 19,-1.9999998 z m 0,2.00000001 L 12,7.0000002 19,2.1e-7 l 0,1.99999999 -3,3 3,3 L 19,10 15,6.0000002 l -3,3 -3.0000003,-3 L 4.9999999,10 l 0,-1.9999998 2.9999998,-3 -2.9999998,-3 z"
       id="path3000"
       style="opacity:1;color:black;fill:#000000;fill-opacity:1;fill-rule:nonzero;stroke:none;stroke-width:1;marker:none;visibility:visible;display:inline;overflow:visible;enable-background:accumulate"
       inkscape:connector-curvature="0"
       sodipodi:nodetypes="cccccccccccccccccccccccc" />
    <rect
       style="color:#000000;fill:#ffffff;fill-opacity:1;fill-rule:evenodd;stroke:none;stroke-width:1;stroke-linecap:butt;stroke-linejoin:miter;stroke-miterlimit:4;stroke-opacity:1;stroke-dasharray:none;stroke-dashoffset:0;marker:none;visibility:visible;display:inline;overflow:visible;enable-background:accumulate"
       id="rect3763"
       width="16"
       height="11"
       x="4"
       y="7"
       transform="translate(0,-8)" />
    <path
       sodipodi:nodetypes="cccccccccccccccccccccccc"
       inkscape:connector-curvature="0"
       style="opacity:1;fill:url(#linearGradient2388-5);fill-opacity:1;fill-rule:nonzero;stroke:none;stroke-width:1;marker:none;visibility:visible;display:inline;overflow:visible;enable-background:accumulate;color:black"
       id="rect3170-8"
       d="m 5,-2.9999998 -2,2 0,10 L 5,11 l 14,0 2,-1.9999998 0,-10 -2,-2 z m 0,2 7,7 7,-7 0,2 -3,3 3,3 0,2 -4,-4 -3,3 -3,-3 -4,4 0,-2 3,-3 -3,-3 z" />
  </g>
</svg>
