<?xml version="1.0" encoding="UTF-8" standalone="no"?>
<!-- Created with Inkscape (http://www.inkscape.org/) -->

<svg
   xmlns:dc="http://purl.org/dc/elements/1.1/"
   xmlns:cc="http://creativecommons.org/ns#"
   xmlns:rdf="http://www.w3.org/1999/02/22-rdf-syntax-ns#"
   xmlns:svg="http://www.w3.org/2000/svg"
   xmlns="http://www.w3.org/2000/svg"
   xmlns:xlink="http://www.w3.org/1999/xlink"
   xmlns:sodipodi="http://sodipodi.sourceforge.net/DTD/sodipodi-0.dtd"
   xmlns:inkscape="http://www.inkscape.org/namespaces/inkscape"
   version="1.1"
   width="24"
   height="24"
   id="svg3872"
   inkscape:version="0.48.4 r9939"
   sodipodi:docname="xchat-panel.svg">
  <metadata
     id="metadata16">
    <rdf:RDF>
      <cc:Work
         rdf:about="">
        <dc:format>image/svg+xml</dc:format>
        <dc:type
           rdf:resource="http://purl.org/dc/dcmitype/StillImage" />
      </cc:Work>
    </rdf:RDF>
  </metadata>
  <sodipodi:namedview
     pagecolor="#ffffff"
     bordercolor="#666666"
     borderopacity="1"
     objecttolerance="10"
     gridtolerance="10"
     guidetolerance="10"
     inkscape:pageopacity="0"
     inkscape:pageshadow="2"
     inkscape:window-width="1280"
     inkscape:window-height="972"
     id="namedview14"
     showgrid="true"
     inkscape:zoom="18.706189"
     inkscape:cx="25.795285"
     inkscape:cy="8.4541354"
     inkscape:window-x="0"
     inkscape:window-y="26"
     inkscape:window-maximized="1"
     inkscape:current-layer="svg3872"
     inkscape:snap-bbox="true">
    <inkscape:grid
       type="xygrid"
       id="grid2995"
       empspacing="5"
       visible="true"
       enabled="true"
       snapvisiblegridlinesonly="true" />
  </sodipodi:namedview>
  <defs
     id="defs3874">
    <linearGradient
       id="linearGradient3587-6-5-0">
      <stop
         id="stop3589-9-2-8"
         style="stop-color:#bebebe;stop-opacity:1;"
         offset="0" />
      <stop
         id="stop3591-7-4-9"
         style="stop-color:#ffffff;stop-opacity:1;"
         offset="1" />
    </linearGradient>
    <linearGradient
       inkscape:collect="always"
       xlink:href="#linearGradient3587-6-5-0"
       id="linearGradient3767"
       gradientUnits="userSpaceOnUse"
       gradientTransform="matrix(1.1081081,0,0,1.1332179,-13.763513,22.758204)"
       x1="22"
       y1="-17"
       x2="22"
       y2="-2.9643312" />
  </defs>
  <path
     style="opacity:1;color:#000000;fill:#000000;fill-opacity:1;fill-rule:evenodd;stroke:none;stroke-width:1;marker:none;visibility:visible;display:inline;overflow:visible;enable-background:accumulate"
     d="M 6.625 4.625 C 6.341747 4.625 6.060793 4.7155364 5.84375 4.9375 L 4.28125 6.53125 C 3.847163 6.9751733 3.847163 7.7123266 4.28125 8.15625 L 5.25 9.15625 L 11.5625 9.15625 L 7.4375 4.9375 C 7.220456 4.7155377 6.908254 4.625 6.625 4.625 z M 16.8125 4.625 C 16.522795 4.625 16.248293 4.7155364 16.03125 4.9375 L 11.90625 9.15625 L 18.1875 9.15625 L 19.15625 8.15625 C 19.590337 7.7123266 19.590337 6.9751733 19.15625 6.53125 L 17.625 4.9375 C 17.407957 4.7155377 17.102204 4.625 16.8125 4.625 z M 7.65625 9.75 A 0.56035239 0.56035239 0 0 0 7.28125 10.28125 L 7.28125 12 A 0.56035239 0.56035239 0 0 0 7.28125 12.0625 L 7.28125 12.09375 L 7.28125 14.25 A 0.5625 0.5625 0 0 0 8.40625 14.25 L 8.40625 12.5625 L 9.5 12.5625 L 9.5 14.25 A 0.5625 0.5625 0 0 0 10.625 14.25 L 10.625 12 A 0.56035239 0.56035239 0 0 0 10.0625 11.4375 L 8.40625 11.4375 L 8.40625 10.28125 A 0.56035239 0.56035239 0 0 0 7.71875 9.75 A 0.56035239 0.56035239 0 0 0 7.65625 9.75 z M 19.84375 9.75 A 0.56035239 0.56035239 0 0 0 19.46875 10.28125 L 19.46875 11.4375 L 18.9375 11.4375 A 0.5625 0.5625 0 0 0 18.9375 12.5625 L 19.46875 12.5625 L 19.46875 14.25 A 0.56035239 0.56035239 0 0 0 20.03125 14.8125 L 21.6875 14.8125 A 0.5625 0.5625 0 0 0 21.6875 13.6875 L 20.59375 13.6875 L 20.59375 12.5625 L 21.6875 12.5625 A 0.5625 0.5625 0 0 0 21.6875 11.4375 L 20.59375 11.4375 L 20.59375 10.28125 A 0.56035239 0.56035239 0 0 0 19.90625 9.75 A 0.56035239 0.56035239 0 0 0 19.84375 9.75 z M 2.125 11.4375 A 0.56035239 0.56035239 0 0 0 1.75 12 L 1.75 14.25 A 0.56035239 0.56035239 0 0 0 2.3125 14.8125 L 4.53125 14.8125 A 0.5625 0.5625 0 0 0 4.53125 13.6875 L 2.875 13.6875 L 2.875 12.5625 L 4.53125 12.5625 A 0.5625 0.5625 0 0 0 4.53125 11.4375 L 2.3125 11.4375 A 0.56035239 0.56035239 0 0 0 2.1875 11.4375 A 0.56035239 0.56035239 0 0 0 2.125 11.4375 z M 13.21875 11.4375 A 0.56035239 0.56035239 0 0 0 12.8125 12 L 12.8125 14.25 A 0.56035239 0.56035239 0 0 0 13.375 14.8125 L 14.21875 14.8125 A 0.5625 0.5625 0 0 0 14.21875 13.6875 L 13.9375 13.6875 L 13.9375 12.5625 L 15.03125 12.5625 L 15.03125 14.25 A 0.5625 0.5625 0 0 0 16.15625 14.25 L 16.15625 12 A 0.56035239 0.56035239 0 0 0 15.59375 11.4375 L 13.375 11.4375 A 0.56035239 0.56035239 0 0 0 13.28125 11.4375 A 0.56035239 0.56035239 0 0 0 13.21875 11.4375 z M 5.25 15.96875 L 4.28125 16.9375 C 3.847163 17.381423 3.847163 18.149826 4.28125 18.59375 L 5.84375 20.1875 C 6.277837 20.631423 7.003413 20.631423 7.4375 20.1875 L 11.5625 15.96875 L 5.25 15.96875 z M 11.90625 15.96875 L 16.03125 20.1875 C 16.465337 20.631423 17.190913 20.631423 17.625 20.1875 L 19.15625 18.59375 C 19.590337 18.149826 19.590337 17.381423 19.15625 16.9375 L 18.1875 15.96875 L 11.90625 15.96875 z "
     id="rect3637-0" />
  <path
     style="opacity:1;color:#000000;fill:url(#linearGradient3767);fill-opacity:1;fill-rule:evenodd;stroke:none;stroke-width:1;marker:none;visibility:visible;display:inline;overflow:visible;enable-background:accumulate"
     d="M 6.625 3.5 C 6.3417464 3.5 6.0607936 3.5905385 5.84375 3.8125 L 4.28125 5.40625 C 3.8471628 5.8501736 3.8471628 6.5873264 4.28125 7.03125 L 5.25 8.03125 L 11.5625 8.03125 L 7.4375 3.8125 C 7.2204564 3.5905382 6.9082536 3.5 6.625 3.5 z M 16.8125 3.5 C 16.522795 3.5 16.248293 3.5905375 16.03125 3.8125 L 11.90625 8.03125 L 18.1875 8.03125 L 19.15625 7.03125 C 19.590337 6.5873264 19.590337 5.8501736 19.15625 5.40625 L 17.625 3.8125 C 17.407957 3.5905382 17.102204 3.5 16.8125 3.5 z M 7.75 8.59375 A 0.56035239 0.56035239 0 0 0 7.28125 9.15625 L 7.28125 10.875 L 7.28125 10.96875 L 7.28125 13.125 A 0.5625 0.5625 0 0 0 8.40625 13.125 L 8.40625 11.40625 L 9.5 11.40625 L 9.5 13.125 A 0.5625 0.5625 0 0 0 10.625 13.125 L 10.625 10.875 A 0.56035239 0.56035239 0 0 0 10.0625 10.3125 L 8.40625 10.3125 L 8.40625 9.15625 A 0.56035239 0.56035239 0 0 0 7.8125 8.59375 A 0.56035239 0.56035239 0 0 0 7.75 8.59375 z M 19.9375 8.59375 A 0.56035239 0.56035239 0 0 0 19.46875 9.15625 L 19.46875 10.3125 L 18.9375 10.3125 A 0.56035239 0.56035239 0 0 0 18.9375 11.40625 L 19.46875 11.40625 L 19.46875 13.125 A 0.56035239 0.56035239 0 0 0 20.03125 13.6875 L 21.6875 13.6875 A 0.5625 0.5625 0 0 0 21.6875 12.5625 L 20.59375 12.5625 L 20.59375 11.40625 L 21.6875 11.40625 A 0.56035239 0.56035239 0 1 0 21.6875 10.3125 L 20.59375 10.3125 L 20.59375 9.15625 A 0.56035239 0.56035239 0 0 0 20 8.59375 A 0.56035239 0.56035239 0 0 0 19.9375 8.59375 z M 2.125 10.3125 A 0.56035239 0.56035239 0 0 0 1.75 10.875 L 1.75 13.125 A 0.56035239 0.56035239 0 0 0 2.3125 13.6875 L 4.53125 13.6875 A 0.5625 0.5625 0 0 0 4.53125 12.5625 L 2.875 12.5625 L 2.875 11.40625 L 4.53125 11.40625 A 0.56035239 0.56035239 0 1 0 4.53125 10.3125 L 2.3125 10.3125 A 0.56035239 0.56035239 0 0 0 2.125 10.3125 z M 13.21875 10.3125 A 0.56035239 0.56035239 0 0 0 12.8125 10.875 L 12.8125 13.125 A 0.56035239 0.56035239 0 0 0 13.375 13.6875 L 14.21875 13.6875 A 0.5625 0.5625 0 0 0 14.21875 12.5625 L 13.9375 12.5625 L 13.9375 11.40625 L 15.03125 11.40625 L 15.03125 13.125 A 0.5625 0.5625 0 0 0 16.15625 13.125 L 16.15625 10.875 A 0.56035239 0.56035239 0 0 0 15.59375 10.3125 L 13.375 10.3125 A 0.56035239 0.56035239 0 0 0 13.21875 10.3125 z M 5.25 14.8125 L 4.28125 15.8125 C 3.8471628 16.256423 3.8471628 16.993577 4.28125 17.4375 L 5.84375 19.03125 C 6.2778372 19.475173 7.0034128 19.475173 7.4375 19.03125 L 11.5625 14.8125 L 5.25 14.8125 z M 11.90625 14.8125 L 16.03125 19.03125 C 16.465337 19.475173 17.190913 19.475173 17.625 19.03125 L 19.15625 17.4375 C 19.590337 16.993577 19.590337 16.256423 19.15625 15.8125 L 18.1875 14.8125 L 11.90625 14.8125 z "
     id="rect3637" />
</svg>
