<?xml version="1.0" encoding="UTF-8" standalone="no"?>
<!-- Created with Inkscape (http://www.inkscape.org/) -->

<svg
   xmlns:dc="http://purl.org/dc/elements/1.1/"
   xmlns:cc="http://creativecommons.org/ns#"
   xmlns:rdf="http://www.w3.org/1999/02/22-rdf-syntax-ns#"
   xmlns:svg="http://www.w3.org/2000/svg"
   xmlns="http://www.w3.org/2000/svg"
   xmlns:xlink="http://www.w3.org/1999/xlink"
   xmlns:sodipodi="http://sodipodi.sourceforge.net/DTD/sodipodi-0.dtd"
   xmlns:inkscape="http://www.inkscape.org/namespaces/inkscape"
   version="1.0"
   width="24"
   height="24"
   id="svg3208"
   inkscape:version="0.48.4 r9939"
   sodipodi:docname="audio-volume-muted-blocking-panel.svg">
  <metadata
     id="metadata14">
    <rdf:RDF>
      <cc:Work
         rdf:about="">
        <dc:format>image/svg+xml</dc:format>
        <dc:type
           rdf:resource="http://purl.org/dc/dcmitype/StillImage" />
      </cc:Work>
    </rdf:RDF>
  </metadata>
  <sodipodi:namedview
     pagecolor="#ffffff"
     bordercolor="#666666"
     borderopacity="1"
     objecttolerance="10"
     gridtolerance="10"
     guidetolerance="10"
     inkscape:pageopacity="0"
     inkscape:pageshadow="2"
     inkscape:window-width="1680"
     inkscape:window-height="1026"
     id="namedview12"
     showgrid="false"
     inkscape:zoom="12.272727"
     inkscape:cx="17.029629"
     inkscape:cy="3.2185188"
     inkscape:window-x="0"
     inkscape:window-y="24"
     inkscape:window-maximized="1"
     inkscape:current-layer="svg3208" />
  <defs
     id="defs3210">
    <linearGradient
       id="linearGradient2867-449-88-871-390-598-476-591-434-148-69">
      <stop
         offset="0"
         style="stop-color:#49a3d2;stop-opacity:1"
         id="stop4629-22" />
      <stop
         offset="0.704952"
         style="stop-color:#3470b4;stop-opacity:1"
         id="stop4631-4" />
      <stop
         offset="1"
         style="stop-color:#1b5699;stop-opacity:1"
         id="stop4633-7" />
    </linearGradient>
    <linearGradient
       inkscape:collect="always"
       xlink:href="#linearGradient2867-449-88-871-390-598-476-591-434-148-69"
       id="linearGradient2992"
       gradientUnits="userSpaceOnUse"
       gradientTransform="matrix(1.1111111,0,0,1.1111111,-2.444444,-1.8888889)"
       x1="12.259259"
       y1="19.052109"
       x2="12.259259"
       y2="0.86950886" />
  </defs>
  <g
     id="g2988"
     transform="translate(0,1)">
    <path
       d="m 2,10.222 0,5.555556 2.2222222,0 4.4444445,4.444444 0,-14.4444442 L 4.2222222,10.222 2,10.222 z m 8.888889,2.222222 c 0.740741,0 1.481481,0 2.222222,0 0,0.37037 0,0.740741 0,1.111111 -0.740741,0 -1.481481,0 -2.222222,0 0,-0.37037 0,-0.740741 0,-1.111111 z m 8.888889,0 c 0.740741,0 1.481481,0 2.222222,0 0,0.37037 0,0.740741 0,1.111111 -0.740741,0 -1.481481,0 -2.222222,0 0,-0.37037 0,-0.740741 0,-1.111111 z m -4.444445,0 c 0.740741,0 1.481481,0 2.222223,0 0,0.37037 0,0.740741 0,1.111111 -0.740742,0 -1.481482,0 -2.222223,0 0,-0.37037 0,-0.740741 0,-1.111111 z"
       id="path2387-4"
       style="opacity:0.7;fill:#ffffff;fill-opacity:1;fill-rule:evenodd;stroke:none"
       inkscape:connector-curvature="0" />
    <path
       d="m 2,9.2222222 0,5.5555558 2.222223,0 4.444444,4.444444 0,-14.4444442 -4.444444,4.4444444 -2.222223,0 z m 8.888889,2.2222218 c 0.740741,0 1.481481,0 2.222222,0 0,0.37037 0,0.740741 0,1.111111 -0.740741,0 -1.481481,0 -2.222222,0 0,-0.37037 0,-0.740741 0,-1.111111 z m 8.888889,0 c 0.740741,0 1.481481,0 2.222222,0 0,0.37037 0,0.740741 0,1.111111 -0.740741,0 -1.481481,0 -2.222222,0 0,-0.37037 0,-0.740741 0,-1.111111 z m -4.444445,0 c 0.740741,0 1.481481,0 2.222223,0 0,0.37037 0,0.740741 0,1.111111 -0.740742,0 -1.481482,0 -2.222223,0 0,-0.37037 0,-0.740741 0,-1.111111 z"
       id="path2387"
       style="fill:url(#linearGradient2992);fill-opacity:1;fill-rule:evenodd;stroke:none"
       inkscape:connector-curvature="0" />
  </g>
</svg>
