<?xml version="1.0" encoding="UTF-8" standalone="no"?>
<!-- Created with Inkscape (http://www.inkscape.org/) -->

<svg
   xmlns:dc="http://purl.org/dc/elements/1.1/"
   xmlns:cc="http://creativecommons.org/ns#"
   xmlns:rdf="http://www.w3.org/1999/02/22-rdf-syntax-ns#"
   xmlns:svg="http://www.w3.org/2000/svg"
   xmlns="http://www.w3.org/2000/svg"
   xmlns:xlink="http://www.w3.org/1999/xlink"
   xmlns:sodipodi="http://sodipodi.sourceforge.net/DTD/sodipodi-0.dtd"
   xmlns:inkscape="http://www.inkscape.org/namespaces/inkscape"
   version="1.0"
   width="24"
   height="24"
   id="svg4431"
   sodipodi:version="0.32"
   inkscape:version="0.48.4 r9939"
   sodipodi:docname="audio-output-none-panel.svg"
   inkscape:output_extension="org.inkscape.output.svg.inkscape">
  <metadata
     id="metadata16">
    <rdf:RDF>
      <cc:Work
         rdf:about="">
        <dc:format>image/svg+xml</dc:format>
        <dc:type
           rdf:resource="http://purl.org/dc/dcmitype/StillImage" />
      </cc:Work>
    </rdf:RDF>
  </metadata>
  <sodipodi:namedview
     inkscape:window-height="974"
     inkscape:window-width="1280"
     inkscape:pageshadow="2"
     inkscape:pageopacity="0.0"
     guidetolerance="10.0"
     gridtolerance="10.0"
     objecttolerance="10.0"
     borderopacity="1.0"
     bordercolor="#666666"
     pagecolor="#ffffff"
     id="base"
     showgrid="true"
     inkscape:zoom="14.672466"
     inkscape:cx="12.764923"
     inkscape:cy="7.4835789"
     inkscape:window-x="0"
     inkscape:window-y="26"
     inkscape:current-layer="svg4431"
     inkscape:window-maximized="1"
     inkscape:snap-bbox="true">
    <inkscape:grid
       type="xygrid"
       id="grid3798" />
  </sodipodi:namedview>
  <defs
     id="defs4433">
    <linearGradient
       id="linearGradient3587-6-5">
      <stop
         id="stop3589-9-2"
         style="stop-color:#808080;stop-opacity:1;"
         offset="0" />
      <stop
         id="stop3591-7-4"
         style="stop-color:#808080;stop-opacity:1;"
         offset="1" />
    </linearGradient>
    <linearGradient
       inkscape:collect="always"
       xlink:href="#linearGradient3587-6-5"
       id="linearGradient2994"
       gradientUnits="userSpaceOnUse"
       gradientTransform="matrix(1.1111111,0,0,1.1111111,-2.4444442,-0.8888888)"
       x1="9"
       y1="3"
       x2="9"
       y2="21" />
    <linearGradient
       inkscape:collect="always"
       xlink:href="#linearGradient3587-6-5-4"
       id="linearGradient2994-4"
       gradientUnits="userSpaceOnUse"
       gradientTransform="matrix(1.1111111,0,0,1.1111111,-2.4444442,-0.8888888)"
       x1="9"
       y1="3"
       x2="9"
       y2="21" />
    <linearGradient
       id="linearGradient3587-6-5-4">
      <stop
         id="stop3589-9-2-6"
         style="stop-color:#000000;stop-opacity:1"
         offset="0" />
      <stop
         id="stop3591-7-4-0"
         style="stop-color:#363636;stop-opacity:1"
         offset="1" />
    </linearGradient>
  </defs>
  <path
     inkscape:connector-curvature="0"
     style="opacity:0.75;fill:url(#linearGradient2994-4);fill-opacity:1;fill-rule:evenodd;stroke:none;color:#000000;marker:none;visibility:visible;display:inline;overflow:visible;enable-background:accumulate"
     id="path2387-4"
     d="m 2.0000001,11.222 0,5.555556 2.222222,0 4.4444448,4.444444 0,-14.4444442 -4.4444448,4.4444442 -2.222222,0 z m 8.8888889,2.222222 c 0.740741,0 1.481481,0 2.222222,0 0,0.37037 0,0.740741 0,1.111111 -0.740741,0 -1.481481,0 -2.222222,0 0,-0.37037 0,-0.740741 0,-1.111111 z m 8.888889,0 c 0.740741,0 1.481481,0 2.222222,0 0,0.37037 0,0.740741 0,1.111111 -0.740741,0 -1.481481,0 -2.222222,0 0,-0.37037 0,-0.740741 0,-1.111111 z m -4.444445,0 c 0.740741,0 1.481481,0 2.222223,0 0,0.37037 0,0.740741 0,1.111111 -0.740742,0 -1.481482,0 -2.222223,0 0,-0.37037 0,-0.740741 0,-1.111111 z" />
  <path
     inkscape:connector-curvature="0"
     style="opacity:1;fill:url(#linearGradient2994);fill-opacity:1;fill-rule:evenodd;stroke:none"
     id="path2387"
     d="m 1.9999999,10.222222 0,5.555556 2.2222219,0 4.4444453,4.444444 0,-14.4444438 -4.4444453,4.4444438 -2.2222219,0 z m 8.8888891,2.222222 c 0.740741,0 1.481481,0 2.222222,0 0,0.37037 0,0.740741 0,1.111111 -0.740741,0 -1.481481,0 -2.222222,0 0,-0.37037 0,-0.740741 0,-1.111111 z m 8.888889,0 c 0.740741,0 1.481481,0 2.222222,0 0,0.37037 0,0.740741 0,1.111111 -0.740741,0 -1.481481,0 -2.222222,0 0,-0.37037 0,-0.740741 0,-1.111111 z m -4.444445,0 c 0.740741,0 1.481481,0 2.222223,0 0,0.37037 0,0.740741 0,1.111111 -0.740742,0 -1.481482,0 -2.222223,0 0,-0.37037 0,-0.740741 0,-1.111111 z" />
</svg>
