<?xml version="1.0" encoding="UTF-8" standalone="no"?>
<!-- Created with Inkscape (http://www.inkscape.org/) -->

<svg
   xmlns:dc="http://purl.org/dc/elements/1.1/"
   xmlns:cc="http://creativecommons.org/ns#"
   xmlns:rdf="http://www.w3.org/1999/02/22-rdf-syntax-ns#"
   xmlns:svg="http://www.w3.org/2000/svg"
   xmlns="http://www.w3.org/2000/svg"
   xmlns:xlink="http://www.w3.org/1999/xlink"
   xmlns:sodipodi="http://sodipodi.sourceforge.net/DTD/sodipodi-0.dtd"
   xmlns:inkscape="http://www.inkscape.org/namespaces/inkscape"
   width="24"
   height="24"
   id="svg3330"
   version="1.1"
   inkscape:version="0.91 r"
   sodipodi:docname="system-restart-panel.svg">
  <defs
     id="defs3332">
    <linearGradient
       id="linearGradient3396">
      <stop
         offset="0"
         style="stop-color:#49a3d2;stop-opacity:1"
         id="stop3398" />
      <stop
         offset="1"
         style="stop-color:#1b5699;stop-opacity:1"
         id="stop3402" />
    </linearGradient>
    <linearGradient
       y2="14.296357"
       x2="-36.026806"
       y1="33.031879"
       x1="-36.026806"
       gradientTransform="matrix(0.48248289,0,0,0.69386905,-10.706968,1023.5585)"
       gradientUnits="userSpaceOnUse"
       id="linearGradient3394"
       xlink:href="#linearGradient3396"
       inkscape:collect="always" />
  </defs>
  <sodipodi:namedview
     id="base"
     pagecolor="#ffffff"
     bordercolor="#666666"
     borderopacity="1.0"
     inkscape:pageopacity="0.0"
     inkscape:pageshadow="2"
     inkscape:zoom="11.313708"
     inkscape:cx="10.071429"
     inkscape:cy="14.320053"
     inkscape:document-units="px"
     inkscape:current-layer="capa1"
     showgrid="true"
     inkscape:showpageshadow="false"
     inkscape:window-width="1215"
     inkscape:window-height="1000"
     inkscape:window-x="65"
     inkscape:window-y="24"
     inkscape:window-maximized="1">
    <inkscape:grid
       type="xygrid"
       id="grid3004"
       empspacing="5"
       visible="true"
       enabled="true"
       snapvisiblegridlinesonly="true" />
  </sodipodi:namedview>
  <metadata
     id="metadata3335">
    <rdf:RDF>
      <cc:Work
         rdf:about="">
        <dc:format>image/svg+xml</dc:format>
        <dc:type
           rdf:resource="http://purl.org/dc/dcmitype/StillImage" />
        <dc:title />
      </cc:Work>
    </rdf:RDF>
  </metadata>
  <g
     inkscape:label="Capa 1"
     inkscape:groupmode="layer"
     id="capa1"
     transform="translate(0,-1028.3622)">
    <path
       id="path3830"
       d="m 11.5,1030.3622 -1.5,1 0,5 1.5,1 1.5,-1 0,-5 -1.5,-1 z m -7.5,3 0,2 3,3 2,0 0,-2 -3,-3 -2,0 z m 13,0 -3,3 0,2 2,0 3,-3 0,-2 -2,0 z m -15,6 -1,1.5 1,1.5 5,0 1,-1.5 -1,-1.5 -5,0 z m 14,0 -1,1.5 1,1.5 5,0 1,-1.5 -1,-1.5 -5,0 z m -9,4 -3,3 0,2 2,0 3,-3 0,-2 -2,0 z m 7,0 0,2 3,3 2,0 0,-2 -3,-3 -2,0 z m -2.5,1 -1.5,1 0,5 1.5,1 1.5,-1 0,-5 -1.5,-1 z"
       style="opacity:1;color:#000000;fill:#000000;fill-opacity:1;fill-rule:nonzero;stroke:none;stroke-width:1;marker:none;visibility:visible;display:inline;overflow:visible;enable-background:accumulate;clip-rule:nonzero;isolation:auto;mix-blend-mode:normal;color-interpolation:sRGB;color-interpolation-filters:linearRGB;solid-color:#000000;solid-opacity:1;stroke-linecap:butt;stroke-linejoin:miter;stroke-miterlimit:4;stroke-dasharray:none;stroke-dashoffset:0;stroke-opacity:1;filter-blend-mode:normal;filter-gaussianBlur-deviation:0;color-rendering:auto;image-rendering:auto;shape-rendering:auto;text-rendering:auto"
       inkscape:connector-curvature="0" />
    <path
       style="opacity:1;color:#000000;fill:url(#linearGradient3394);fill-opacity:1;fill-rule:nonzero;stroke:none;stroke-width:1;marker:none;visibility:visible;display:inline;overflow:visible;enable-background:accumulate;clip-rule:nonzero;isolation:auto;mix-blend-mode:normal;color-interpolation:sRGB;color-interpolation-filters:linearRGB;solid-color:#000000;solid-opacity:1;stroke-linecap:butt;stroke-linejoin:miter;stroke-miterlimit:4;stroke-dasharray:none;stroke-dashoffset:0;stroke-opacity:1;filter-blend-mode:normal;filter-gaussianBlur-deviation:0;color-rendering:auto;image-rendering:auto;shape-rendering:auto;text-rendering:auto"
       d="m 11.5,1029.3622 -1.5,1 0,5 1.5,1 1.5,-1 0,-5 -1.5,-1 z m -7.5,3 0,2 3,3 2,0 0,-2 -3,-3 -2,0 z m 13,0 -3,3 0,2 2,0 3,-3 0,-2 -2,0 z m -15,6 -1,1.5 1,1.5 5,0 1,-1.5 -1,-1.5 -5,0 z m 14,0 -1,1.5 1,1.5 5,0 1,-1.5 -1,-1.5 -5,0 z m -9,4 -3,3 0,2 2,0 3,-3 0,-2 -2,0 z m 7,0 0,2 3,3 2,0 0,-2 -3,-3 -2,0 z m -2.5,1 -1.5,1 0,5 1.5,1 1.5,-1 0,-5 -1.5,-1 z"
       id="path3793"
       inkscape:connector-curvature="0" />
  </g>
</svg>
