<?xml version="1.0" encoding="UTF-8" standalone="no"?>
<!-- Created with Inkscape (http://www.inkscape.org/) -->

<svg
   xmlns:dc="http://purl.org/dc/elements/1.1/"
   xmlns:cc="http://creativecommons.org/ns#"
   xmlns:rdf="http://www.w3.org/1999/02/22-rdf-syntax-ns#"
   xmlns:svg="http://www.w3.org/2000/svg"
   xmlns="http://www.w3.org/2000/svg"
   xmlns:sodipodi="http://sodipodi.sourceforge.net/DTD/sodipodi-0.dtd"
   xmlns:inkscape="http://www.inkscape.org/namespaces/inkscape"
   version="1.0"
   width="22"
   height="22"
   id="svg3315"
   sodipodi:version="0.32"
   inkscape:version="0.48.4 r9939"
   sodipodi:docname="nm-vpn-connecting12.svg"
   inkscape:output_extension="org.inkscape.output.svg.inkscape">
  <metadata
     id="metadata25">
    <rdf:RDF>
      <cc:Work
         rdf:about="">
        <dc:format>image/svg+xml</dc:format>
        <dc:type
           rdf:resource="http://purl.org/dc/dcmitype/StillImage" />
        <dc:title />
      </cc:Work>
    </rdf:RDF>
  </metadata>
  <sodipodi:namedview
     inkscape:window-height="972"
     inkscape:window-width="1280"
     inkscape:pageshadow="2"
     inkscape:pageopacity="0.0"
     guidetolerance="10.0"
     gridtolerance="10.0"
     objecttolerance="10.0"
     borderopacity="1.0"
     bordercolor="#666666"
     pagecolor="#ffffff"
     id="base"
     showgrid="true"
     inkscape:zoom="16"
     inkscape:cx="15.826113"
     inkscape:cy="12.03217"
     inkscape:window-x="0"
     inkscape:window-y="26"
     inkscape:current-layer="svg3315"
     inkscape:snap-bbox="true"
     inkscape:window-maximized="1">
    <inkscape:grid
       type="xygrid"
       id="grid3001"
       empspacing="5"
       visible="true"
       enabled="true"
       snapvisiblegridlinesonly="true" />
  </sodipodi:namedview>
  <defs
     id="defs3317" />
  <path
     sodipodi:type="arc"
     style="color:#000000;fill:#000000;fill-opacity:1;fill-rule:nonzero;stroke:none;stroke-width:4;marker:none;visibility:visible;display:inline;overflow:visible;enable-background:accumulate"
     id="path3009"
     sodipodi:cx="12.5"
     sodipodi:cy="5.4270511"
     sodipodi:rx="1.5"
     sodipodi:ry="2.4270511"
     d="m 14,5.4270511 a 1.5,2.4270511 0 1 1 -3,0 1.5,2.4270511 0 1 1 3,0 z"
     transform="matrix(1.0000001,0,0,0.61803399,-2.000001,0.14589782)" />
  <path
     sodipodi:type="arc"
     style="color:#000000;fill:#000000;fill-opacity:0.47058824;fill-rule:nonzero;stroke:none;stroke-width:4;marker:none;visibility:visible;display:inline;overflow:visible;enable-background:accumulate"
     id="path2994"
     sodipodi:cx="12.5"
     sodipodi:cy="5.4270511"
     sodipodi:rx="1.5"
     sodipodi:ry="2.4270511"
     d="m 14,5.4270511 a 1.5,2.4270511 0 1 1 -3,0 1.5,2.4270511 0 1 1 3,0 z"
     transform="matrix(1.0000001,0,0,0.61803399,-2.0000013,16.145898)" />
  <path
     transform="matrix(0,1.0000001,-0.61803399,0,21.854102,-1.0000015)"
     d="m 14,5.4270511 a 1.5,2.4270511 0 1 1 -3,0 1.5,2.4270511 0 1 1 3,0 z"
     sodipodi:ry="2.4270511"
     sodipodi:rx="1.5"
     sodipodi:cy="5.4270511"
     sodipodi:cx="12.5"
     id="path3000"
     style="color:#000000;fill:#000000;fill-opacity:0.23529412;fill-rule:nonzero;stroke:none;stroke-width:4;marker:none;visibility:visible;display:inline;overflow:visible;enable-background:accumulate"
     sodipodi:type="arc" />
  <path
     transform="matrix(0,1.0000001,-0.61803399,0,5.8541021,-1.0000012)"
     d="m 14,5.4270511 a 1.5,2.4270511 0 1 1 -3,0 1.5,2.4270511 0 1 1 3,0 z"
     sodipodi:ry="2.4270511"
     sodipodi:rx="1.5"
     sodipodi:cy="5.4270511"
     sodipodi:cx="12.5"
     id="path3002"
     style="color:#000000;fill:#000000;fill-opacity:0.70588235;fill-rule:nonzero;stroke:none;stroke-width:4;marker:none;visibility:visible;display:inline;overflow:visible;enable-background:accumulate"
     sodipodi:type="arc" />
  <path
     sodipodi:type="arc"
     style="color:#000000;fill:#000000;fill-opacity:0.07843137;fill-rule:nonzero;stroke:none;stroke-width:4;marker:none;visibility:visible;display:inline;overflow:visible;enable-background:accumulate"
     id="path3004"
     sodipodi:cx="12.5"
     sodipodi:cy="5.4270511"
     sodipodi:rx="1.5"
     sodipodi:ry="2.4270511"
     d="m 14,5.4270511 a 1.5,2.4270511 0 1 1 -3,0 1.5,2.4270511 0 1 1 3,0 z"
     transform="matrix(0.86602549,0.50000005,-0.309017,0.53523314,5.3514819,-4.6544878)" />
  <path
     sodipodi:type="arc"
     style="color:#000000;fill:#000000;fill-opacity:0.54901961;fill-rule:nonzero;stroke:none;stroke-width:4;marker:none;visibility:visible;display:inline;overflow:visible;enable-background:accumulate"
     id="path3006"
     sodipodi:cx="12.5"
     sodipodi:cy="5.4270511"
     sodipodi:rx="1.5"
     sodipodi:ry="2.4270511"
     d="m 14,5.4270511 a 1.5,2.4270511 0 1 1 -3,0 1.5,2.4270511 0 1 1 3,0 z"
     transform="matrix(0.86602549,0.50000005,-0.309017,0.53523314,-2.6480169,9.3450109)" />
  <path
     transform="matrix(0.50000005,0.86602549,-0.53523314,0.309017,14.154486,-5.0021192)"
     d="m 14,5.4270511 a 1.5,2.4270511 0 1 1 -3,0 1.5,2.4270511 0 1 1 3,0 z"
     sodipodi:ry="2.4270511"
     sodipodi:rx="1.5"
     sodipodi:cy="5.4270511"
     sodipodi:cx="12.5"
     id="path3008"
     style="color:#000000;fill:#000000;fill-opacity:0.15686275;fill-rule:nonzero;stroke:none;stroke-width:4;marker:none;visibility:visible;display:inline;overflow:visible;enable-background:accumulate"
     sodipodi:type="arc" />
  <path
     transform="matrix(0.50000005,0.86602549,-0.53523314,0.309017,0.15498756,2.9978808)"
     d="m 14,5.4270511 a 1.5,2.4270511 0 1 1 -3,0 1.5,2.4270511 0 1 1 3,0 z"
     sodipodi:ry="2.4270511"
     sodipodi:rx="1.5"
     sodipodi:cy="5.4270511"
     sodipodi:cx="12.5"
     id="path3010"
     style="color:#000000;fill:#000000;fill-opacity:0.62745098;fill-rule:nonzero;stroke:none;stroke-width:4;marker:none;visibility:visible;display:inline;overflow:visible;enable-background:accumulate"
     sodipodi:type="arc" />
  <path
     sodipodi:type="arc"
     style="color:#000000;fill:#000000;fill-opacity:0.31372549;fill-rule:nonzero;stroke:none;stroke-width:4;marker:none;visibility:visible;display:inline;overflow:visible;enable-background:accumulate"
     id="path3012"
     sodipodi:cx="12.5"
     sodipodi:cy="5.4270511"
     sodipodi:rx="1.5"
     sodipodi:ry="2.4270511"
     d="m 14,5.4270511 a 1.5,2.4270511 0 1 1 -3,0 1.5,2.4270511 0 1 1 3,0 z"
     transform="matrix(-0.50000005,0.86602549,-0.53523314,-0.309017,26.654488,6.3514817)" />
  <path
     sodipodi:type="arc"
     style="color:#000000;fill:#000000;fill-opacity:0.78431373;fill-rule:nonzero;stroke:none;stroke-width:4;marker:none;visibility:visible;display:inline;overflow:visible;enable-background:accumulate"
     id="path3014"
     sodipodi:cx="12.5"
     sodipodi:cy="5.4270511"
     sodipodi:rx="1.5"
     sodipodi:ry="2.4270511"
     d="m 14,5.4270511 a 1.5,2.4270511 0 1 1 -3,0 1.5,2.4270511 0 1 1 3,0 z"
     transform="matrix(-0.50000005,0.86602549,-0.53523314,-0.309017,12.654989,-1.6485183)" />
  <path
     transform="matrix(-0.86602549,0.50000005,-0.309017,-0.53523314,27.002119,15.154988)"
     d="m 14,5.4270511 a 1.5,2.4270511 0 1 1 -3,0 1.5,2.4270511 0 1 1 3,0 z"
     sodipodi:ry="2.4270511"
     sodipodi:rx="1.5"
     sodipodi:cy="5.4270511"
     sodipodi:cx="12.5"
     id="path3016"
     style="color:#000000;fill:#000000;fill-opacity:0.39215686;fill-rule:nonzero;stroke:none;stroke-width:4;marker:none;visibility:visible;display:inline;overflow:visible;enable-background:accumulate"
     sodipodi:type="arc" />
  <path
     transform="matrix(-0.86602549,0.50000005,-0.309017,-0.53523314,19.00262,1.1544863)"
     d="m 14,5.4270511 a 1.5,2.4270511 0 1 1 -3,0 1.5,2.4270511 0 1 1 3,0 z"
     sodipodi:ry="2.4270511"
     sodipodi:rx="1.5"
     sodipodi:cy="5.4270511"
     sodipodi:cx="12.5"
     id="path3018"
     style="color:#000000;fill:#000000;fill-opacity:0.90196078;fill-rule:nonzero;stroke:none;stroke-width:4;marker:none;visibility:visible;display:inline;overflow:visible;enable-background:accumulate"
     sodipodi:type="arc" />
</svg>
