<svg viewBox="0 0 48 48" xmlns="http://www.w3.org/2000/svg" xmlns:xlink="http://www.w3.org/1999/xlink">
<defs>
<filter id="filter3174">
<feGaussianBlur stdDeviation="1.71"/>
</filter>
<linearGradient gradientUnits="userSpaceOnUse" id="ButtonShadow" x2="0" y1="92" y2="6.9756">
<stop offset="0"/>
<stop offset="1" stop-opacity=".588"/>
</linearGradient>
<linearGradient id="linearGradient5060-10">
<stop offset="0"/>
<stop offset="1" stop-opacity="0"/>
</linearGradient>
<linearGradient gradientUnits="userSpaceOnUse" id="linearGradient3645" x2="0" y1="35.5863" y2="42.6293">
<stop offset="0" stop-opacity="0"/>
<stop offset=".5"/>
<stop offset="1" stop-opacity="0"/>
</linearGradient>
<linearGradient gradientUnits="userSpaceOnUse" id="linearGradient3649" spreadMethod="reflect" x1="41.7893" x2="63.3734">
<stop offset="0" stop-color="#eef2f3"/>
<stop offset="1" stop-color="#a2a8a8"/>
</linearGradient>
<linearGradient gradientUnits="userSpaceOnUse" id="linearGradient3651" x2="0" y1="30.5275" y2="40.9212">
<stop offset="0" stop-color="#fff"/>
<stop offset="1" stop-color="#959698"/>
</linearGradient>
<linearGradient gradientUnits="userSpaceOnUse" id="linearGradient3655" x2="0" y1="30.5275" y2="40.9212">
<stop offset="0" stop-color="#8aaec7"/>
<stop offset="1" stop-color="#124275"/>
</linearGradient>
<linearGradient gradientUnits="userSpaceOnUse" id="linearGradient3657" x2="0" y1="30.215" y2="40.0057">
<stop offset="0" stop-color="#0f0"/>
<stop offset="1" stop-color="#0f0" stop-opacity="0"/>
</linearGradient>
<linearGradient gradientUnits="userSpaceOnUse" id="linearGradient3659" x2="0" y1="30.4946" y2="40.8882">
<stop offset="0" stop-color="#fff"/>
<stop offset="1" stop-color="#545454"/>
</linearGradient>
<linearGradient gradientUnits="userSpaceOnUse" id="linearGradient3661" x2="0" y1="-41.9689" y2="-69.3291">
<stop offset="0" stop-color="#dedede"/>
<stop offset="1" stop-color="#dedede" stop-opacity="0"/>
</linearGradient>
<linearGradient gradientUnits="userSpaceOnUse" id="linearGradient3663" x2="0" y1="29.4592" y2="22.5408">
<stop offset="0" stop-color="#fff"/>
<stop offset="1" stop-color="#dedede" stop-opacity="0"/>
</linearGradient>
<linearGradient gradientUnits="userSpaceOnUse" id="linearGradient3665" x2="0" y1="30.215" y2="40.0057">
<stop offset="0" stop-color="#f0f"/>
<stop offset="1" stop-color="#f0f" stop-opacity="0"/>
</linearGradient>
<linearGradient gradientUnits="userSpaceOnUse" id="linearGradient3667" x1="26.6113" x2="33.4794">
<stop offset="0" stop-color="#fff"/>
<stop offset="1" stop-color="#929292"/>
</linearGradient>
<radialGradient cx="43.1335" cy="28.7313" gradientUnits="userSpaceOnUse" id="radialGradient3669" r="5.922">
<stop offset="0" stop-color="#fff"/>
<stop offset="1" stop-color="#fff" stop-opacity="0"/>
</radialGradient>
<radialGradient cx="605.7143" cy="486.6479" gradientTransform="matrix(.06214,0,0,.029,-.3635,24.95316)" gradientUnits="userSpaceOnUse" id="radialGradient3643" r="117.1429" xlink:href="#linearGradient5060-10"/>
<radialGradient cx="605.7143" cy="486.6479" gradientTransform="matrix(-.06214,0,0,.029,44.53201,24.95316)" gradientUnits="userSpaceOnUse" id="radialGradient3647" r="117.1429" xlink:href="#linearGradient5060-10"/>
</defs>
<g transform="translate(-17.9586,-18)">
<g transform="matrix(.96474,0,0,1.13041,20.52309,15.81155)">
<path d="m37.0872,35.5865v7.0427c3.2002.0133 7.7365-1.5779 7.7365-3.5218s-3.5712-3.5209-7.7365-3.5209z" fill="url(#radialGradient3643)" opacity=".5"/>
<path d="m7.0813,35.5862h30.0058v7.0431h-30.0058z" fill="url(#linearGradient3645)" opacity=".5"/>
<path d="m7.0813,35.5865v7.0427c-3.2002.0133-7.7365-1.5779-7.7365-3.5218s3.5712-3.5209 7.7365-3.5209z" fill="url(#radialGradient3647)" opacity=".5"/>
</g>
<path d="m23.1875,21.5h37.625a2.6875,2.7026 0 0,1 2.6875,2.7026v33.5948a2.6875,2.7026 0 0,1 -2.6875,2.7026h-37.625a2.6875,2.7026 0 0,1 -2.6875-2.7026v-33.5948a2.6875,2.7026 0 0,1 2.6875-2.7026" fill="url(#linearGradient3649)" stroke="#424242"/>
<path d="m36.8579,35.6256c0,2.8801-2.3348,5.2149-5.2149,5.2149s-5.2149-2.3348-5.2149-5.2149 2.3348-5.2149 5.2149-5.2149 5.2149,2.3348 5.2149,5.2149z" fill="url(#linearGradient3651)" stroke="#424242" stroke-width=".4619" transform="matrix(2.16715,0,0,2.16273,-20.76367,-31.62522)"/>
<path d="m36.8579,35.6256c0,2.8801-2.3348,5.2149-5.2149,5.2149s-5.2149-2.3348-5.2149-5.2149 2.3348-5.2149 5.2149-5.2149 5.2149,2.3348 5.2149,5.2149z" fill="url(#linearGradient3651)" stroke="#424242" stroke-width=".5605" transform="matrix(1.78473,0,0,1.7835,-8.66252,-16.80113)"/>
<path d="m36.8579,35.6256c0,2.8801-2.3348,5.2149-5.2149,5.2149s-5.2149-2.3348-5.2149-5.2149 2.3348-5.2149 5.2149-5.2149 5.2149,2.3348 5.2149,5.2149z" fill="url(#linearGradient3655)" transform="matrix(1.05122,0,0,1.04812,14.54783,10.07876)"/>
<path d="m36.8579,35.6256c0,2.8801-2.3348,5.2149-5.2149,5.2149s-5.2149-2.3348-5.2149-5.2149 2.3348-5.2149 5.2149-5.2149 5.2149,2.3348 5.2149,5.2149z" fill="url(#linearGradient3657)" transform="matrix(.44919,-.4483,.26524,.26471,22.22493,50.25571)"/>
<path d="m36.8579,35.6256c0,2.8801-2.3348,5.2149-5.2149,5.2149s-5.2149-2.3348-5.2149-5.2149 2.3348-5.2149 5.2149-5.2149 5.2149,2.3348 5.2149,5.2149z" fill="none" stroke="url(#linearGradient3659)" stroke-width=".8724" transform="matrix(1.1473,0,0,-1.14527,11.5077,88.21305)"/>
<path d="m22.8667-59.5h38.2667a1.3667,1.3636 0 0,1 1.3667,1.3636v27.2727a1.3667,1.3636 0 0,1 -1.3667,1.3636h-38.2667a1.3667,1.3636 0 0,1 -1.3667-1.3636v-27.2727a1.3667,1.3636 0 0,1 1.3667-1.3636" fill="none" stroke="url(#linearGradient3661)" transform="scale(1,-1)"/>
<path d="m22.8667,22.5h38.2667a1.3667,1.4 0 0,1 1.3667,1.4v4.2a1.3667,1.4 0 0,1 -1.3667,1.4h-38.2667a1.3667,1.4 0 0,1 -1.3667-1.4v-4.2a1.3667,1.4 0 0,1 1.3667-1.4" fill="none" stroke="url(#linearGradient3663)"/>
<path d="m25.5048,32.5h9.9903a1.0048,1.0048 0 0,1 1.0048,1.0048v1.9903a1.0048,1.0048 0 0,1 -1.0048,1.0048h-9.9903a1.0048,1.0048 0 0,1 -1.0048-1.0048v-1.9903a1.0048,1.0048 0 0,1 1.0048-1.0048" fill="#fff" stroke="#777"/>
<path d="m36.8579,35.6256c0,2.8801-2.3348,5.2149-5.2149,5.2149s-5.2149-2.3348-5.2149-5.2149 2.3348-5.2149 5.2149-5.2149 5.2149,2.3348 5.2149,5.2149z" fill="url(#linearGradient3665)" transform="matrix(-.44919,.4483,-.26524,-.26471,73.42896,44.55747)"/>
<path d="m27.5,24.5h5a1,1 0 0,1 1,1v1a1,1 0 0,1 -1,1h-5a1,1 0 0,1 -1-1v-1a1,1 0 0,1 1-1" fill="url(#linearGradient3667)" stroke="#424242"/>
<path d="m49.0555,28.7313c0,3.2706-2.6514,5.922-5.922,5.922s-5.922-2.6514-5.922-5.922 2.6514-5.922 5.922-5.922 5.922,2.6514 5.922,5.922z" fill="url(#radialGradient3669)" transform="matrix(2.30191,0,0,2.29736,-69.25712,-31.81845)"/>
<path d="m34.6824,31.2404-11.4363-9.819-11.4363,9.819 9.819-11.4363-9.819-11.4363 11.4363,9.819 11.4363-9.819-9.819,11.4363z" fill="#fff" fill-opacity=".498" transform="matrix(1.41397,0,0,1.41117,-2.36515,6.98081)"/>
</g>
</svg>
