<?xml version="1.0" encoding="UTF-8" standalone="no"?>
<svg
   xmlns:dc="http://purl.org/dc/elements/1.1/"
   xmlns:cc="http://creativecommons.org/ns#"
   xmlns:rdf="http://www.w3.org/1999/02/22-rdf-syntax-ns#"
   xmlns:svg="http://www.w3.org/2000/svg"
   xmlns="http://www.w3.org/2000/svg"
   xmlns:xlink="http://www.w3.org/1999/xlink"
   xmlns:sodipodi="http://sodipodi.sourceforge.net/DTD/sodipodi-0.dtd"
   xmlns:inkscape="http://www.inkscape.org/namespaces/inkscape"
   viewBox="0 0 48 48"
   id="svg3610"
   version="1.1"
   inkscape:version="0.48.3.1 r9886"
   width="100%"
   height="100%"
   sodipodi:docname="video-display.svg">
  <metadata
     id="metadata3701">
    <rdf:RDF>
      <cc:Work
         rdf:about="">
        <dc:format>image/svg+xml</dc:format>
        <dc:type
           rdf:resource="http://purl.org/dc/dcmitype/StillImage" />
      </cc:Work>
    </rdf:RDF>
  </metadata>
  <sodipodi:namedview
     pagecolor="#ffffff"
     bordercolor="#666666"
     borderopacity="1"
     objecttolerance="10"
     gridtolerance="10"
     guidetolerance="10"
     inkscape:pageopacity="0"
     inkscape:pageshadow="2"
     inkscape:window-width="640"
     inkscape:window-height="480"
     id="namedview3699"
     showgrid="false"
     inkscape:zoom="4.9166667"
     inkscape:cx="24"
     inkscape:cy="24.610169"
     inkscape:window-x="0"
     inkscape:window-y="24"
     inkscape:window-maximized="0"
     inkscape:current-layer="svg3610" />
  <defs
     id="defs3612">
    <filter
       id="filter3174">
      <feGaussianBlur
         stdDeviation="1.71"
         id="feGaussianBlur3615" />
    </filter>
    <filter
       height="2.2798"
       id="filter3914"
       width="1.2364"
       x="-.1182"
       y="-.6399">
      <feGaussianBlur
         stdDeviation="1.872"
         id="feGaussianBlur3618" />
    </filter>
    <linearGradient
       gradientUnits="userSpaceOnUse"
       id="ButtonShadow"
       x2="0"
       y1="92"
       y2="6.9756">
      <stop
         offset="0"
         id="stop3621" />
      <stop
         offset="1"
         stop-opacity=".588"
         id="stop3623" />
    </linearGradient>
    <linearGradient
       gradientUnits="userSpaceOnUse"
       id="linearGradient4523"
       x2="0"
       y1="5.4018"
       y2="31.9151">
      <stop
         offset="0"
         stop-color="#fff"
         stop-opacity=".362"
         id="stop3626" />
      <stop
         offset="1"
         stop-color="#fff"
         stop-opacity=".1"
         id="stop3628" />
    </linearGradient>
    <linearGradient
       gradientUnits="userSpaceOnUse"
       id="linearGradient3780-6"
       x1="8.4864"
       x2="38.8986">
      <stop
         offset="0"
         stop-color="#b3b3b3"
         id="stop3631" />
      <stop
         offset="1"
         stop-color="#e7e7e7"
         id="stop3633" />
    </linearGradient>
    <linearGradient
       gradientUnits="userSpaceOnUse"
       id="linearGradient3780-6-9"
       x2="0"
       y1="37.6455"
       y2="45.2692">
      <stop
         offset="0"
         stop-color="#808080"
         id="stop3636" />
      <stop
         offset=".442"
         stop-color="#dadada"
         id="stop3638" />
      <stop
         offset="1"
         stop-color="#7c7c7c"
         id="stop3640" />
    </linearGradient>
    <linearGradient
       gradientTransform="matrix(1,0,0,.84932,2.4060994e-7,-1.09589)"
       gradientUnits="userSpaceOnUse"
       id="linearGradient5660"
       x1="10.1889"
       x2="32.9515"
       y1="-5.7137"
       y2="25.2793">
      <stop
         offset="0"
         stop-color="#fff"
         id="stop3643" />
      <stop
         offset="1"
         stop-color="#fff"
         stop-opacity="0"
         id="stop3645" />
    </linearGradient>
    <linearGradient
       gradientUnits="userSpaceOnUse"
       id="linearGradient5775"
       x1="27.5068"
       x2="21.9424"
       y1="32.0595"
       y2="9.4076">
      <stop
         offset="0"
         stop-color="#5489a7"
         id="stop3648" />
      <stop
         offset="1"
         stop-color="#242e4f"
         id="stop3650" />
    </linearGradient>
    <linearGradient
       gradientUnits="userSpaceOnUse"
       id="linearGradient3704"
       x2="0"
       y1="35.6562"
       y2="39.7812">
      <stop
         offset="0"
         stop-color="#808080"
         id="stop3653" />
      <stop
         offset="1"
         stop-color="#fff"
         id="stop3655" />
    </linearGradient>
    <radialGradient
       cx="34.8149"
       cy="33.7696"
       gradientUnits="userSpaceOnUse"
       id="radialGradient5782"
       r="20.2744">
      <stop
         offset="0"
         stop-color="#9132c9"
         id="stop3658" />
      <stop
         offset="1"
         stop-color="#8132c9"
         stop-opacity="0"
         id="stop3660" />
    </radialGradient>
    <radialGradient
       cx="38.8527"
       cy="16.5448"
       gradientUnits="userSpaceOnUse"
       id="radialGradient4326"
       r="9.7437">
      <stop
         offset="0"
         stop-color="#91d3ff"
         id="stop3663" />
      <stop
         offset="1"
         stop-color="#33acff"
         stop-opacity="0"
         id="stop3665" />
    </radialGradient>
    <radialGradient
       cx="6.091"
       cy="17.887"
       gradientUnits="userSpaceOnUse"
       id="radialGradient4329"
       r="5.7508">
      <stop
         offset="0"
         stop-color="#fff"
         id="stop3668" />
      <stop
         offset="1"
         stop-color="#307085"
         stop-opacity="0"
         id="stop3670" />
    </radialGradient>
    <radialGradient
       cx="24.0002"
       cy="20.5"
       gradientTransform="matrix(1,0,0,.77501,0,3.61238)"
       gradientUnits="userSpaceOnUse"
       id="radialGradient4327"
       r="19.9998">
      <stop
         offset="0"
         stop-color="#0f86c8"
         id="stop3673" />
      <stop
         offset="1"
         stop-color="#0e2731"
         id="stop3675" />
    </radialGradient>
    <radialGradient
       cx="24.0002"
       cy="20.5"
       gradientTransform="matrix(1,0,0,0.77501,0,3.61238)"
       gradientUnits="userSpaceOnUse"
       id="radialGradient4327-5"
       r="19.9998">
      <stop
         offset="0"
         stop-color="#0f86c8"
         id="stop3673-5" />
      <stop
         offset="1"
         stop-color="#0e2731"
         id="stop3675-1" />
    </radialGradient>
    <radialGradient
       r="19.9998"
       cy="20.5"
       cx="24.0002"
       gradientTransform="matrix(1,0,0,0.77501,-4.0003,-0.38762)"
       gradientUnits="userSpaceOnUse"
       id="radialGradient3717"
       xlink:href="#radialGradient4327-5"
       inkscape:collect="always" />
    <linearGradient
       gradientUnits="userSpaceOnUse"
       id="linearGradient3780-6-2"
       x1="8.4863997"
       x2="38.898602">
      <stop
         offset="0"
         stop-color="#b3b3b3"
         id="stop3631-4" />
      <stop
         offset="1"
         stop-color="#e7e7e7"
         id="stop3633-2" />
    </linearGradient>
    <linearGradient
       gradientTransform="translate(-3.00005,-3.00005)"
       x2="38.898602"
       x1="8.4863997"
       gradientUnits="userSpaceOnUse"
       id="linearGradient3749"
       xlink:href="#linearGradient3780-6-2"
       inkscape:collect="always" />
    <linearGradient
       gradientUnits="userSpaceOnUse"
       id="linearGradient5775-3"
       x1="27.5068"
       x2="21.9424"
       y1="32.059502"
       y2="9.4076004">
      <stop
         offset="0"
         stop-color="#5489a7"
         id="stop3648-3" />
      <stop
         offset="1"
         stop-color="#242e4f"
         id="stop3650-1" />
    </linearGradient>
    <linearGradient
       gradientTransform="translate(-4,-13.9999)"
       y2="9.4076004"
       x2="21.9424"
       y1="32.059502"
       x1="27.5068"
       gradientUnits="userSpaceOnUse"
       id="linearGradient3830"
       xlink:href="#linearGradient5775-3"
       inkscape:collect="always" />
    <linearGradient
       gradientUnits="userSpaceOnUse"
       id="linearGradient3780-6-9-7"
       x2="0"
       y1="37.6455"
       y2="45.269199">
      <stop
         offset="0"
         stop-color="#808080"
         id="stop3636-2" />
      <stop
         offset=".442"
         stop-color="#dadada"
         id="stop3638-6" />
      <stop
         offset="1"
         stop-color="#7c7c7c"
         id="stop3640-3" />
    </linearGradient>
    <linearGradient
       gradientTransform="translate(-11.00005,-33.00035)"
       y2="45.269199"
       x2="0"
       y1="37.6455"
       gradientUnits="userSpaceOnUse"
       id="linearGradient3921"
       xlink:href="#linearGradient3780-6-9-7"
       inkscape:collect="always" />
  </defs>
  <path
     d="m10.2197,60.1457h29.5403a4.2302,3.5101 0 0,1 4.2302,3.5101 4.2302,3.5101 0 0,1 -4.2302,3.5101h-29.5403a4.2302,3.5101 0 0,1 -4.2302-3.5101 4.2302,3.5101 0 0,1 4.2302-3.5101"
     fill-opacity=".416"
     filter="url(#filter3914)"
     transform="matrix(.94558,0,0,.47102,.36999,14.0223)"
     id="path3677" />
  <path
     d="m 19.8177,33.5158 c 0,2.7641 0.1372,7.0294 -2.0795,7.0294 H 13.513 c -1.3123,0 -1.9975,0.6286 -1.9975,1.9393 0,1.3107 0.8909,2 1.9975,2 h 20.974 c 1.1066,0 1.9975,-0.892 1.9975,-2 0,-1.0946 -0.6781,-1.9449 -1.9975,-1.9393 h -4.49 c -2.2764,0 -1.8147,-4.2653 -1.8147,-7.0294 z"
     id="path3679"
     style="color:#000000;fill:url(#linearGradient3780-6-9-7);fill-opacity:1;fill-rule:nonzero;stroke:#393939;stroke-width:1.03089999999999993;stroke-linecap:butt;stroke-linejoin:miter;stroke-miterlimit:4;stroke-opacity:1;stroke-dasharray:none;stroke-dashoffset:0;marker:none;visibility:visible;display:inline;overflow:visible;enable-background:accumulate" />
  <path
     d="m 5.5155,3.5155 h 36.9691 a 2,2 0 0 1 2,2 v 34.9691 a 2,2 0 0 1 -2,2 H 5.5155 a 2,2 0 0 1 -2,-2 V 5.5155 a 2,2 0 0 1 2,-2"
     id="path3681"
     style="color:#000000;fill:url(#linearGradient3780-6-2);fill-opacity:1;fill-rule:nonzero;stroke:#2a2a2a;stroke-width:1.03089999999999993;stroke-linecap:butt;stroke-linejoin:miter;stroke-miterlimit:4;stroke-opacity:1;stroke-dasharray:none;stroke-dashoffset:0;marker:none;visibility:visible;display:inline;overflow:visible;enable-background:accumulate" />
  <path
     d="M 5.4997,4 H 42.5006 A 1.4994,1.4994 0 0 1 44,5.4994 V 33.5006 A 1.4994,1.4994 0 0 1 42.5006,35 H 5.4997 A 1.4994,1.4994 0 0 1 4.0003,33.5006 V 5.4994 A 1.4994,1.4994 0 0 1 5.4997,4"
     id="path3683"
     style="color:#000000;fill:url(#radialGradient4327-5);fill-opacity:1;fill-rule:nonzero;stroke-width:1;stroke-linecap:butt;stroke-linejoin:miter;stroke-miterlimit:4;stroke-opacity:1;stroke-dasharray:none;stroke-dashoffset:0;marker:none;visibility:visible;display:inline;overflow:visible;enable-background:accumulate" />
  <path
     d="m6.0894,12.3178c-.7383,0-1.4409.1386-2.0894.3842v10.3738c.6486.2456 1.3511.3842 2.0894.3842 3.1761,0 5.7556-2.499 5.7556-5.5758s-2.5796-5.5665-5.7556-5.5665z"
     fill="url(#radialGradient4329)"
     opacity=".01"
     id="path3685" />
  <path
     d="m38.8531,7.1074c-5.3813,0-9.7411,4.2235-9.7411,9.4367s4.3597,9.4367 9.7411,9.4367c1.8916,0 3.6516-.5207 5.1462-1.4244v-16.0246c-1.4939-.9025-3.256-1.4244-5.1462-1.4244z"
     fill="url(#radialGradient4326)"
     opacity=".15"
     id="path3687" />
  <path
     d="m19.5728,24.0012c-5.6254.0677-10.3398,2.9481-10.3398,2.9481l-.233,8.0506h35v-8.5042c-2.1811.626-10.6959,2.6799-17.6311-.9449-2.2558-1.1791-4.5949-1.5761-6.7961-1.5497z"
     fill="url(#radialGradient5782)"
     opacity=".2"
     id="path3689" />
  <path
     id="path3691"
     d="M 16.7188,20.5312 C 10.0613,20.5241 4.8343,24.251 4,24.875 v 2.5625 C 4.8615,26.2563 11.2799,18.1197 22.5312,21.5625 20.5334,20.8328 18.57,20.5332 16.7187,20.5313 z M 10.625,18.25 c -4.3711,0.0224 -6.5938,1.0625 -6.5938,1.0625 l 0.0312,4.875 c 0,0 7.6603,-7.529 19.8438,-2.8438 10.1443,3.901 17.8059,2.7966 20.0938,2.3125 v -5.25 C 41.6087,20.3264 34.4139,24.9373 24.1562,20.9687 18.6,18.819 14.0247,18.2326 10.625,18.2499 z M 7.9688,15.9375 C 6.1997,15.932 4.8906,16.1473 4,16.375 v 2.0625 C 6.7702,17.3036 13.1436,15.9425 23.875,20.375 16.7523,16.8604 11.4777,15.9485 7.9688,15.9375 z M 44,14 C 42,16.8262 35.8795,23.8607 26.0312,20.9062 34.4745,24.2963 41.7551,19.2793 44,17.4687 v -3.4688 z"
     style="opacity:0.40300000000000002;color:#000000;fill:url(#linearGradient5775-3);fill-opacity:1;fill-rule:nonzero;stroke-width:1;stroke-linecap:butt;stroke-linejoin:miter;stroke-miterlimit:4;stroke-opacity:1;stroke-dasharray:none;stroke-dashoffset:0;marker:none;visibility:visible;display:inline;overflow:visible;enable-background:accumulate" />
  <path
     d="m5.5122,4.5122h36.9757a1,1 0 0,1 1,1v27.9757a1,1 0 0,1 -1,1h-36.9757a1,1 0 0,1 -1-1v-27.9757a1,1 0 0,1 1-1"
     fill="none"
     stroke="url(#linearGradient4523)"
     stroke-width="1.0243"
     id="path3693" />
  <path
     d="m20,4h22.08c1.3282,0 1.92.4154 1.92,1.6986v29.3014h-13.305z"
     fill="url(#linearGradient5660)"
     opacity=".99"
     id="path3695" />
  <path
     d="m37.5,36.5h3v3h-3z"
     fill="#0ff"
     stroke="url(#linearGradient3704)"
     id="path3697" />
</svg>
