<?xml version="1.0" encoding="UTF-8" standalone="no"?>
<svg xmlns:dc="http://purl.org/dc/elements/1.1/" xmlns:cc="http://creativecommons.org/ns#" xmlns:rdf="http://www.w3.org/1999/02/22-rdf-syntax-ns#" xmlns:svg="http://www.w3.org/2000/svg" xmlns="http://www.w3.org/2000/svg" xmlns:xlink="http://www.w3.org/1999/xlink" xmlns:sodipodi="http://sodipodi.sourceforge.net/DTD/sodipodi-0.dtd" xmlns:inkscape="http://www.inkscape.org/namespaces/inkscape" viewBox="0 0 22 22" id="svg2" version="1.1" inkscape:version="0.48.4 r9939" width="100%" height="100%" sodipodi:docname="folder-documents.svg">
    <metadata id="metadata52">
        <rdf:RDF>
            <cc:Work rdf:about="">
                <dc:format>image/svg+xml</dc:format>
                <dc:type rdf:resource="http://purl.org/dc/dcmitype/StillImage" />
            </cc:Work>
        </rdf:RDF>
    </metadata>
    <sodipodi:namedview pagecolor="#ffffff" bordercolor="#666666" borderopacity="1" objecttolerance="10" gridtolerance="10" guidetolerance="10" inkscape:pageopacity="0" inkscape:pageshadow="2" inkscape:window-width="1280" inkscape:window-height="976" id="namedview50" showgrid="true" inkscape:snap-page="true" inkscape:snap-center="true" inkscape:snap-object-midpoints="true" inkscape:zoom="19.666668" inkscape:cx="17.992192" inkscape:cy="12.275233" inkscape:window-x="0" inkscape:window-y="24" inkscape:window-maximized="1" inkscape:current-layer="svg2" width="22px">
        <inkscape:grid type="xygrid" id="grid3247" empspacing="5" visible="true" enabled="true" snapvisiblegridlinesonly="true" />
    </sodipodi:namedview>
    <defs id="defs4">
        <linearGradient gradientTransform="matrix(0.411536,0,0,0.492897,3.413459,-5.63602)" gradientUnits="userSpaceOnUse" id="linearGradient2580" x1="18.03083" x2="20.054541" y1="16.407909" y2="24.627609">
            <stop offset="0" stop-color="#fff" id="stop7" />
            <stop offset="1" stop-color="#fff" stop-opacity="0" id="stop9" />
        </linearGradient>
        <linearGradient gradientUnits="userSpaceOnUse" id="linearGradient3157-2" x2="0" y1="-8.4855404" y2="15.01381">
            <stop offset="0" stop-color="#fff" id="stop12" />
            <stop offset=".91" stop-color="#cdcdcd" id="stop14" />
            <stop offset="1" stop-color="#a1a1a1" id="stop16" />
        </linearGradient>
        <linearGradient gradientUnits="userSpaceOnUse" id="linearGradient3159-6" x2="0" y1="-8.0567503" y2="14.37713">
            <stop offset="0" stop-color="#b5b5b5" id="stop19" />
            <stop offset="1" stop-color="#5d5d5d" id="stop21" />
        </linearGradient>
        <linearGradient gradientUnits="userSpaceOnUse" id="linearGradient3154-4-7" x2="0" y1="21.90428" y2="-32.221939">
            <stop offset="0" stop-color="#344960" id="stop24" />
            <stop offset="1" stop-color="#5e778e" id="stop26" />
        </linearGradient>
        <radialGradient cx="8.6628304" cy="13.99398" gradientTransform="matrix(3.9008946e-4,1.201169,-1.512806,0,26.325303,-11.719058)" gradientUnits="userSpaceOnUse" id="radialGradient3149-5" r="10.27311">
            <stop offset="0" stop-color="#fff" id="stop29" />
            <stop offset=".848" stop-color="#fff" id="stop31" />
            <stop offset="1" stop-color="#fff" stop-opacity="0" id="stop33" />
        </radialGradient>
        <radialGradient cx="7.8185501" cy="8.5608797" gradientTransform="matrix(4.452617,0,0,3.425708,21.27638,-48.751986)" gradientUnits="userSpaceOnUse" id="radialGradient3152-1-2" r="11.26813">
            <stop offset="0" stop-color="#b8cee4" id="stop36" />
            <stop offset="1" stop-color="#5382b4" id="stop38" />
        </radialGradient>
        <linearGradient y2="7.0165396" x2="45.447727" y1="92.539597" x1="45.447727" gradientTransform="scale(1.0058652,0.994169)" gradientUnits="userSpaceOnUse" id="linearGradient4049" xlink:href="#ButtonShadow-9-2" inkscape:collect="always" />
        <linearGradient y2="7.0165396" x2="45.447727" y1="92.539597" x1="45.447727" gradientTransform="scale(1.0058652,0.994169)" gradientUnits="userSpaceOnUse" id="linearGradient4047" xlink:href="#ButtonShadow-91-6" inkscape:collect="always" />
        <linearGradient y2="7.0165396" x2="45.447727" y1="92.539597" x1="45.447727" gradientTransform="scale(1.0058652,0.994169)" gradientUnits="userSpaceOnUse" id="linearGradient4045" xlink:href="#ButtonShadow-3" inkscape:collect="always" />
        <filter id="filter3174-34" color-interpolation-filters="sRGB">
            <feGaussianBlur stdDeviation="1.71" id="feGaussianBlur3176-32" />
        </filter>
        <linearGradient gradientTransform="scale(1.0058652,0.994169)" gradientUnits="userSpaceOnUse" id="ButtonShadow-3" y2="7.0165396" x2="45.447727" y1="92.539597" x1="45.447727">
            <stop offset="0" style="stop-color:#000000;stop-opacity:1" id="stop3750-41" />
            <stop offset="1" style="stop-color:#000000;stop-opacity:0.58823532" id="stop3752-4" />
        </linearGradient>
        <filter id="filter3174-2-0" color-interpolation-filters="sRGB">
            <feGaussianBlur stdDeviation="1.71" id="feGaussianBlur3176-1-0" />
        </filter>
        <linearGradient gradientTransform="scale(1.0058652,0.994169)" gradientUnits="userSpaceOnUse" id="ButtonShadow-9-2" y2="7.0165396" x2="45.447727" y1="92.539597" x1="45.447727">
            <stop offset="0" style="stop-color:#000000;stop-opacity:1" id="stop3750-3-4" />
            <stop offset="1" style="stop-color:#000000;stop-opacity:0.58823532" id="stop3752-0-7" />
        </linearGradient>
        <linearGradient x1="45.447727" y1="92.539597" x2="45.447727" y2="7.0165396" id="ButtonShadow-91-6" gradientUnits="userSpaceOnUse" gradientTransform="scale(1.0058652,0.994169)">
            <stop id="stop3750-4-7" style="stop-color:#000000;stop-opacity:1" offset="0" />
            <stop id="stop3752-2-68" style="stop-color:#000000;stop-opacity:0.58823532" offset="1" />
        </linearGradient>
        <filter color-interpolation-filters="sRGB" id="filter3174-4-7">
            <feGaussianBlur id="feGaussianBlur3176-2-4" stdDeviation="1.71" />
        </filter>
        <filter id="filter3174-44" color-interpolation-filters="sRGB">
            <feGaussianBlur stdDeviation="1.71" id="feGaussianBlur3176-3" />
        </filter>
        <linearGradient gradientTransform="scale(1.0058652,0.994169)" gradientUnits="userSpaceOnUse" id="ButtonShadow-0" y2="7.0165396" x2="45.447727" y1="92.539597" x1="45.447727">
            <stop offset="0" style="stop-color:#000000;stop-opacity:1" id="stop3750-2" />
            <stop offset="1" style="stop-color:#000000;stop-opacity:0.58823532" id="stop3752-6" />
        </linearGradient>
        <filter id="filter3174-2-2" color-interpolation-filters="sRGB">
            <feGaussianBlur stdDeviation="1.71" id="feGaussianBlur3176-1-3" />
        </filter>
        <linearGradient gradientTransform="scale(1.0058652,0.994169)" gradientUnits="userSpaceOnUse" id="ButtonShadow-9-1" y2="7.0165396" x2="45.447727" y1="92.539597" x1="45.447727">
            <stop offset="0" style="stop-color:#000000;stop-opacity:1" id="stop3750-3-65" />
            <stop offset="1" style="stop-color:#000000;stop-opacity:0.58823532" id="stop3752-0-0" />
        </linearGradient>
        <linearGradient x1="45.447727" y1="92.539597" x2="45.447727" y2="7.0165396" id="ButtonShadow-91-7" gradientUnits="userSpaceOnUse" gradientTransform="scale(1.0058652,0.994169)">
            <stop id="stop3750-4-4" style="stop-color:#000000;stop-opacity:1" offset="0" />
            <stop id="stop3752-2-7" style="stop-color:#000000;stop-opacity:0.58823532" offset="1" />
        </linearGradient>
        <filter color-interpolation-filters="sRGB" id="filter3174-4-4">
            <feGaussianBlur id="feGaussianBlur3176-2-3" stdDeviation="1.71" />
        </filter>
        <radialGradient inkscape:collect="always" xlink:href="#radialGradient3149-5" id="radialGradient3273" gradientUnits="userSpaceOnUse" gradientTransform="matrix(3.8699772e-4,1.201169,-1.500816,0,25.1755,-4.716948)" cx="8.5332165" cy="13.934111" r="10.27311" fx="8.5332165" fy="13.934111" />
        <linearGradient inkscape:collect="always" xlink:href="#linearGradient2580" id="linearGradient3276" gradientUnits="userSpaceOnUse" gradientTransform="matrix(0.41135669,0,0,0.49701386,2.4219927,1.34408)" x1="18.03083" y1="16.407909" x2="20.054541" y2="24.627609" />
        <radialGradient inkscape:collect="always" xlink:href="#radialGradient3152-1-2" id="radialGradient3279" gradientUnits="userSpaceOnUse" gradientTransform="matrix(4.4340384,0,0,3.4227363,20.20638,-41.695018)" cx="7.8185501" cy="8.5608797" r="11.26813" />
        <linearGradient inkscape:collect="always" xlink:href="#linearGradient3154-4-7" id="linearGradient3281" gradientUnits="userSpaceOnUse" y1="21.90428" x2="0" y2="-32.221939" gradientTransform="matrix(0.99582748,0,0,0.99913252,-0.98122367,7.0146767)" />
        <linearGradient inkscape:collect="always" xlink:href="#linearGradient3157-2" id="linearGradient3284" gradientUnits="userSpaceOnUse" y1="-8.4855404" x2="0" y2="15.01381" gradientTransform="matrix(1,0,0,0.99989969,-1,6.9993482)" />
        <linearGradient inkscape:collect="always" xlink:href="#linearGradient3159-6" id="linearGradient3286" gradientUnits="userSpaceOnUse" y1="-8.0567503" x2="0" y2="14.37713" gradientTransform="matrix(1,0,0,0.99989969,-1,6.9993482)" />
        <linearGradient y2="7.0165396" x2="45.447727" y1="92.539597" x1="45.447727" gradientTransform="scale(1.0058652,0.994169)" gradientUnits="userSpaceOnUse" id="linearGradient4049-1" xlink:href="#ButtonShadow-9-2-5" inkscape:collect="always" />
        <linearGradient y2="7.0165396" x2="45.447727" y1="92.539597" x1="45.447727" gradientTransform="scale(1.0058652,0.994169)" gradientUnits="userSpaceOnUse" id="linearGradient4047-1" xlink:href="#ButtonShadow-91-6-4" inkscape:collect="always" />
        <linearGradient y2="7.0165396" x2="45.447727" y1="92.539597" x1="45.447727" gradientTransform="scale(1.0058652,0.994169)" gradientUnits="userSpaceOnUse" id="linearGradient4045-6" xlink:href="#ButtonShadow-3-2" inkscape:collect="always" />
        <filter id="filter3174-34-5" color-interpolation-filters="sRGB">
            <feGaussianBlur stdDeviation="1.71" id="feGaussianBlur3176-32-2" />
        </filter>
        <linearGradient gradientTransform="scale(1.0058652,0.994169)" gradientUnits="userSpaceOnUse" id="ButtonShadow-3-2" y2="7.0165396" x2="45.447727" y1="92.539597" x1="45.447727">
            <stop offset="0" style="stop-color:#000000;stop-opacity:1" id="stop3750-41-1" />
            <stop offset="1" style="stop-color:#000000;stop-opacity:0.58823532" id="stop3752-4-3" />
        </linearGradient>
        <filter id="filter3174-2-0-2" color-interpolation-filters="sRGB">
            <feGaussianBlur stdDeviation="1.71" id="feGaussianBlur3176-1-0-7" />
        </filter>
        <linearGradient gradientTransform="scale(1.0058652,0.994169)" gradientUnits="userSpaceOnUse" id="ButtonShadow-9-2-5" y2="7.0165396" x2="45.447727" y1="92.539597" x1="45.447727">
            <stop offset="0" style="stop-color:#000000;stop-opacity:1" id="stop3750-3-4-2" />
            <stop offset="1" style="stop-color:#000000;stop-opacity:0.58823532" id="stop3752-0-7-1" />
        </linearGradient>
        <linearGradient x1="45.447727" y1="92.539597" x2="45.447727" y2="7.0165396" id="ButtonShadow-91-6-4" gradientUnits="userSpaceOnUse" gradientTransform="scale(1.0058652,0.994169)">
            <stop id="stop3750-4-7-8" style="stop-color:#000000;stop-opacity:1" offset="0" />
            <stop id="stop3752-2-68-8" style="stop-color:#000000;stop-opacity:0.58823532" offset="1" />
        </linearGradient>
        <filter color-interpolation-filters="sRGB" id="filter3174-4-7-0">
            <feGaussianBlur id="feGaussianBlur3176-2-4-1" stdDeviation="1.71" />
        </filter>
        <filter id="filter3174-44-3" color-interpolation-filters="sRGB">
            <feGaussianBlur stdDeviation="1.71" id="feGaussianBlur3176-3-4" />
        </filter>
        <linearGradient gradientTransform="scale(1.0058652,0.994169)" gradientUnits="userSpaceOnUse" id="ButtonShadow-0-0" y2="7.0165396" x2="45.447727" y1="92.539597" x1="45.447727">
            <stop offset="0" style="stop-color:#000000;stop-opacity:1" id="stop3750-2-7" />
            <stop offset="1" style="stop-color:#000000;stop-opacity:0.58823532" id="stop3752-6-6" />
        </linearGradient>
        <filter id="filter3174-2-2-0" color-interpolation-filters="sRGB">
            <feGaussianBlur stdDeviation="1.71" id="feGaussianBlur3176-1-3-6" />
        </filter>
        <linearGradient gradientTransform="scale(1.0058652,0.994169)" gradientUnits="userSpaceOnUse" id="ButtonShadow-9-1-9" y2="7.0165396" x2="45.447727" y1="92.539597" x1="45.447727">
            <stop offset="0" style="stop-color:#000000;stop-opacity:1" id="stop3750-3-65-1" />
            <stop offset="1" style="stop-color:#000000;stop-opacity:0.58823532" id="stop3752-0-0-9" />
        </linearGradient>
        <linearGradient x1="45.447727" y1="92.539597" x2="45.447727" y2="7.0165396" id="ButtonShadow-91-7-7" gradientUnits="userSpaceOnUse" gradientTransform="scale(1.0058652,0.994169)">
            <stop id="stop3750-4-4-6" style="stop-color:#000000;stop-opacity:1" offset="0" />
            <stop id="stop3752-2-7-4" style="stop-color:#000000;stop-opacity:0.58823532" offset="1" />
        </linearGradient>
        <filter color-interpolation-filters="sRGB" id="filter3174-4-4-5">
            <feGaussianBlur id="feGaussianBlur3176-2-3-9" stdDeviation="1.71" />
        </filter>
    </defs>
    <path inkscape:connector-curvature="0" style="fill:url(#linearGradient3284);stroke:url(#linearGradient3286);stroke-width:1;stroke-linecap:round;stroke-linejoin:round" id="path42" d="m 5.5,0.5000002 c 0,0 -1,0.091591 -1,0.9998997 l -1.6e-4,0.9998997 -2.99984,0 c 0,0 -1,-0.09582 -1,0.9998997 l 0,16.9982947 c 0,1.09542 1,0.999899 1,0.999899 l 17,0 0,-17.9981937 c 0,-0.9410956 -1,-0.9998997 -1,-0.9998997 l -5,0 0,-0.9998997 c 0,-1.0024394 -1,-0.9998997 -1,-0.9998997 z" sodipodi:nodetypes="ccccssccsccscc" />
    <path inkscape:connector-curvature="0" style="fill:url(#radialGradient3279);stroke:url(#linearGradient3281);stroke-width:1;stroke-linejoin:round" id="path44" d="m 4.5,4.5 16,0 c 0.521276,0 1,0.5000689 1,1 l 0,15 c 0,0.523145 -0.478586,1 -1,1 l -16,0 c -0.5214139,0 -1,-0.476856 -1,-1 l 0,-15 c 0,-0.5231446 0.478586,-1 1,-1" sodipodi:nodetypes="csssssssc" />
    <path inkscape:connector-curvature="0" style="opacity:0.2;fill:url(#linearGradient3276);fill-rule:evenodd" id="path46" d="m 4.0078424,3.9999995 c -1.0155673,0 -1.0078407,0.024594 -1.0078407,1.1221349 v 8.2279436 c 0,0.739979 0.2250619,0.739666 1.0078407,0.528074 L 21.614348,10.336929 C 21.828985,10.29603 21.996991,10.071359 22,9.808855 V 5.0890503 C 22,4.0131283 21.94485,4.0000096 20.897221,4.0000096 z" />
    <path inkscape:connector-curvature="0" style="opacity:0.4;fill:none;stroke:url(#radialGradient3273);stroke-width:1" id="path48" d="M 4.5152528,18 4.5148064,6 c 0,0 -0.1492539,-0.5 0.4999868,-0.5 L 20.5,5.5" sodipodi:nodetypes="ccsc" />
    <g id="layer2-8" style="display:none" transform="matrix(0.99945236,0,0,1,76.805138,-198.94556)">
        <rect width="86" height="85" rx="6.0032878" ry="6" x="5" y="7" id="rect3745-0" style="opacity:0.9;fill:url(#ButtonShadow-0);fill-opacity:1;fill-rule:nonzero;stroke:none;filter:url(#filter3174-44)" />
    </g>
    <g id="layer4-39" transform="matrix(0.99945236,0,0,1,75.805138,-197.94556)" />
    <g id="layer2-0-0" style="display:none" transform="matrix(0.99945236,0,0,1,103.35497,-188.4917)">
        <rect width="86" height="85" rx="6.0032878" ry="6" x="5" y="7" id="rect3745-7-1" style="opacity:0.9;fill:url(#ButtonShadow-91-7);fill-opacity:1;fill-rule:nonzero;stroke:none;filter:url(#filter3174-4-4)" />
    </g>
    <g id="layer4-3-6" transform="matrix(0.99945236,0,0,1,102.35497,-187.4917)" />
    <g id="layer2-1-5" style="display:none" transform="matrix(0.99945236,0,0,1,159.44923,-185.55647)">
        <rect width="86" height="85" rx="6.0032878" ry="6" x="5" y="7" id="rect3745-1-3" style="opacity:0.9;fill:url(#ButtonShadow-9-1);fill-opacity:1;fill-rule:nonzero;stroke:none;filter:url(#filter3174-2-2)" />
    </g>
    <g id="layer4-8-2" transform="matrix(0.99945236,0,0,1,158.44923,-184.55647)" />
    <g id="layer2" style="display:none" transform="translate(52.874443,-205.22696)">
        <rect width="86" height="85" rx="6" ry="6" x="5" y="7" id="rect3745" style="opacity:0.9;fill:url(#linearGradient4045);fill-opacity:1;fill-rule:nonzero;stroke:none;filter:url(#filter3174-34)" />
    </g>
    <g id="layer4" transform="translate(51.874443,-204.22696)" />
    <g id="layer2-0" style="display:none" transform="translate(79.438824,-194.7731)">
        <rect width="86" height="85" rx="6" ry="6" x="5" y="7" id="rect3745-7" style="opacity:0.9;fill:url(#linearGradient4047);fill-opacity:1;fill-rule:nonzero;stroke:none;filter:url(#filter3174-4-7)" />
    </g>
    <g id="layer4-3" transform="translate(78.438824,-193.7731)" />
    <g id="layer2-1" style="display:none" transform="translate(135.56382,-191.83787)">
        <rect width="86" height="85" rx="6" ry="6" x="5" y="7" id="rect3745-1" style="opacity:0.9;fill:url(#linearGradient4049);fill-opacity:1;fill-rule:nonzero;stroke:none;filter:url(#filter3174-2-0)" />
    </g>
    <g id="layer4-8" transform="translate(134.56382,-190.83787)" />
    <g id="layer2-8-3" style="display:none" transform="matrix(0.99945236,0,0,1,76.546501,-194.4065)">
        <rect width="86" height="85" rx="6.0032878" ry="6" x="5" y="7" id="rect3745-0-7" style="opacity:0.9;fill:url(#ButtonShadow-0-0);fill-opacity:1;fill-rule:nonzero;stroke:none;filter:url(#filter3174-44-3)" />
    </g>
    <g id="layer4-39-8" transform="matrix(0.99945236,0,0,1,75.546501,-193.4065)" />
    <g id="layer2-0-0-3" style="display:none" transform="matrix(0.99945236,0,0,1,103.09633,-183.95264)">
        <rect width="86" height="85" rx="6.0032878" ry="6" x="5" y="7" id="rect3745-7-1-0" style="opacity:0.9;fill:url(#ButtonShadow-91-7-7);fill-opacity:1;fill-rule:nonzero;stroke:none;filter:url(#filter3174-4-4-5)" />
    </g>
    <g id="layer4-3-6-7" transform="matrix(0.99945236,0,0,1,102.09633,-182.95264)" />
    <g id="layer2-1-5-5" style="display:none" transform="matrix(0.99945236,0,0,1,159.1906,-181.01741)">
        <rect width="86" height="85" rx="6.0032878" ry="6" x="5" y="7" id="rect3745-1-3-8" style="opacity:0.9;fill:url(#ButtonShadow-9-1-9);fill-opacity:1;fill-rule:nonzero;stroke:none;filter:url(#filter3174-2-2-0)" />
    </g>
    <g id="layer4-8-2-9" transform="matrix(0.99945236,0,0,1,158.1906,-180.01741)" />
    <g id="layer2-2" style="display:none" transform="translate(52.615806,-200.6879)">
        <rect width="86" height="85" rx="6" ry="6" x="5" y="7" id="rect3745-4" style="opacity:0.9;fill:url(#linearGradient4045-6);fill-opacity:1;fill-rule:nonzero;stroke:none;filter:url(#filter3174-34-5)" />
    </g>
    <g id="layer4-5" transform="translate(51.615806,-199.6879)" />
    <g id="layer2-0-8" style="display:none" transform="translate(79.180187,-190.23404)">
        <rect width="86" height="85" rx="6" ry="6" x="5" y="7" id="rect3745-7-5" style="opacity:0.9;fill:url(#linearGradient4047-1);fill-opacity:1;fill-rule:nonzero;stroke:none;filter:url(#filter3174-4-7-0)" />
    </g>
    <g id="layer4-3-65" transform="translate(78.180187,-189.23404)" />
    <g id="layer2-1-3" style="display:none" transform="translate(135.30519,-187.29881)">
        <rect width="86" height="85" rx="6" ry="6" x="5" y="7" id="rect3745-1-6" style="opacity:0.9;fill:url(#linearGradient4049-1);fill-opacity:1;fill-rule:nonzero;stroke:none;filter:url(#filter3174-2-0-2)" />
    </g>
    <g id="layer4-8-0" transform="translate(134.30519,-186.29881)" />
    <path id="path3139" d="m 8,7 -1,1 0,12 1,1 8,0 3,-3 L 19,8 18,7 8,7 z m 1,2 8,0 0,8 -2,0 0,2 -6,0 0,-10 z m 1,1 0,2 6,0 0,-2 -6,0 z m 0,3 0,2 6,0 0,-2 -6,0 z m 0,3 0,2 4,0 0,-2 -4,0 z" style="opacity:0.7;color:black;fill:white;fill-opacity:0.50196078;fill-rule:evenodd;stroke:none;stroke-width:3pt;marker:none;visibility:visible;display:inline;overflow:visible;enable-background:accumulate" inkscape:connector-curvature="0" />
    <path style="opacity:0.98999999;color:black;fill:#002a3c;fill-opacity:0.74509804;fill-rule:evenodd;stroke:none;stroke-width:3pt;marker:none;visibility:visible;display:inline;overflow:visible;enable-background:accumulate" d="m 8,6 -1,1 0,12 1,1 8,0 3,-3 L 19,7 18,6 8,6 z m 1,2 8,0 0,8 -2,0 0,2 -6,0 0,-10 z m 1,1 0,2 6,0 0,-2 -6,0 z m 0,3 0,2 6,0 0,-2 -6,0 z m 0,3 0,2 4,0 0,-2 -4,0 z" id="rect3177" inkscape:connector-curvature="0" />
</svg>
