<?xml version="1.0" encoding="UTF-8" standalone="no"?>
<!-- Created with Inkscape (http://www.inkscape.org/) -->

<svg
   xmlns:dc="http://purl.org/dc/elements/1.1/"
   xmlns:cc="http://creativecommons.org/ns#"
   xmlns:rdf="http://www.w3.org/1999/02/22-rdf-syntax-ns#"
   xmlns:svg="http://www.w3.org/2000/svg"
   xmlns="http://www.w3.org/2000/svg"
   xmlns:xlink="http://www.w3.org/1999/xlink"
   xmlns:sodipodi="http://sodipodi.sourceforge.net/DTD/sodipodi-0.dtd"
   xmlns:inkscape="http://www.inkscape.org/namespaces/inkscape"
   width="64"
   height="64"
   id="svg4700"
   version="1.1"
   inkscape:version="0.91 r13725"
   sodipodi:docname="clementine.svg">
  <defs
     id="defs4702">
    <filter
       id="filter3174"
       color-interpolation-filters="sRGB">
      <feGaussianBlur
         stdDeviation="1.71"
         id="feGaussianBlur3176" />
    </filter>
    <linearGradient
       gradientTransform="scale(1.0058652,0.994169)"
       gradientUnits="userSpaceOnUse"
       id="ButtonShadow"
       y2="7.0165396"
       x2="45.447727"
       y1="92.539597"
       x1="45.447727">
      <stop
         offset="0"
         style="stop-color:#000000;stop-opacity:1"
         id="stop3750" />
      <stop
         offset="1"
         style="stop-color:#000000;stop-opacity:0.58823532"
         id="stop3752" />
    </linearGradient>
    <linearGradient
       x1="45.447727"
       y1="92.539597"
       x2="45.447727"
       y2="7.0165396"
       id="ButtonShadow-7"
       gradientUnits="userSpaceOnUse"
       gradientTransform="scale(1.0058652,0.994169)">
      <stop
         id="stop3750-5"
         style="stop-color:#000000;stop-opacity:1"
         offset="0" />
      <stop
         id="stop3752-1"
         style="stop-color:#000000;stop-opacity:0.58823532"
         offset="1" />
    </linearGradient>
    <filter
       color-interpolation-filters="sRGB"
       id="filter3174-8">
      <feGaussianBlur
         id="feGaussianBlur3176-3"
         stdDeviation="1.71" />
    </filter>
    <linearGradient
       x1="45.447727"
       y1="92.539597"
       x2="45.447727"
       y2="7.0165396"
       id="ButtonShadow-72"
       gradientUnits="userSpaceOnUse"
       gradientTransform="scale(1.0058652,0.994169)">
      <stop
         id="stop3750-4"
         style="stop-color:#000000;stop-opacity:1"
         offset="0" />
      <stop
         id="stop3752-5"
         style="stop-color:#000000;stop-opacity:0.58823532"
         offset="1" />
    </linearGradient>
    <filter
       color-interpolation-filters="sRGB"
       id="filter3174-4">
      <feGaussianBlur
         id="feGaussianBlur3176-4"
         stdDeviation="1.71" />
    </filter>
    <linearGradient
       inkscape:collect="always"
       xlink:href="#ButtonShadow-72"
       id="linearGradient3857"
       gradientUnits="userSpaceOnUse"
       gradientTransform="scale(1.0058652,0.994169)"
       x1="45.447727"
       y1="92.539597"
       x2="45.447727"
       y2="7.0165396" />
    <linearGradient
       inkscape:collect="always"
       xlink:href="#linearGradient4050-7-7"
       id="linearGradient3864-7"
       gradientUnits="userSpaceOnUse"
       gradientTransform="matrix(2.5194776,0,0,2.5710051,-0.38417808,-74.217474)"
       x1="13.623017"
       y1="25.213705"
       x2="13.623017"
       y2="45.592083" />
    <linearGradient
       id="linearGradient4050-7-7">
      <stop
         style="stop-color:#ffffff;stop-opacity:0.66929132;"
         offset="0"
         id="stop4052-6-7" />
      <stop
         style="stop-color:#ffffff;stop-opacity:0;"
         offset="1"
         id="stop4054-0-8" />
    </linearGradient>
    <clipPath
       id="clipPath4205"
       clipPathUnits="userSpaceOnUse">
      <rect
         width="36.87656"
         height="36.87656"
         ry="2.5"
         x="9.591959"
         y="11.591959"
         id="rect4207"
         style="color:#000000;fill:#000000;fill-opacity:1;fill-rule:nonzero;stroke:none;stroke-width:1;marker:none;visibility:visible;display:inline;overflow:visible;enable-background:accumulate"
         rx="2.5" />
    </clipPath>
    <filter
       height="1.3637307"
       y="-0.18186533"
       width="1.3637307"
       x="-0.18186533"
       id="filter4323"
       inkscape:collect="always">
      <feGaussianBlur
         id="feGaussianBlur4325"
         stdDeviation="0.22733167"
         inkscape:collect="always" />
    </filter>
    <linearGradient
       id="ButtonShadow-36"
       x1="45.448"
       gradientUnits="userSpaceOnUse"
       y1="92.54"
       gradientTransform="scale(1.0059,0.99417)"
       x2="45.448"
       y2="7.0165">
      <stop
         id="stop3750-7"
         offset="0" />
      <stop
         id="stop3752-5-2"
         stop-opacity=".58824"
         offset="1" />
    </linearGradient>
    <filter
       id="filter3174-04"
       color-interpolation-filters="sRGB">
      <feGaussianBlur
         id="feGaussianBlur3176-1"
         stdDeviation="1.71" />
    </filter>
    <linearGradient
       x1="45.447727"
       y1="92.539597"
       x2="45.447727"
       y2="7.0165396"
       id="ButtonShadow-3"
       gradientUnits="userSpaceOnUse"
       gradientTransform="scale(1.0058652,0.994169)">
      <stop
         id="stop3750-8"
         style="stop-color:#000000;stop-opacity:1"
         offset="0" />
      <stop
         id="stop3752-1-0"
         style="stop-color:#000000;stop-opacity:0.58823532"
         offset="1" />
    </linearGradient>
    <filter
       color-interpolation-filters="sRGB"
       id="filter3174-0">
      <feGaussianBlur
         id="feGaussianBlur3176-9"
         stdDeviation="1.71" />
    </filter>
    <linearGradient
       x1="45.447727"
       y1="92.539597"
       x2="45.447727"
       y2="7.0165396"
       id="ButtonShadow-2"
       gradientUnits="userSpaceOnUse"
       gradientTransform="scale(1.0058652,0.994169)">
      <stop
         id="stop3750-40"
         style="stop-color:#000000;stop-opacity:1"
         offset="0" />
      <stop
         id="stop3752-4"
         style="stop-color:#000000;stop-opacity:0.58823532"
         offset="1" />
    </linearGradient>
    <filter
       color-interpolation-filters="sRGB"
       id="filter3174-6">
      <feGaussianBlur
         id="feGaussianBlur3176-5"
         stdDeviation="1.71" />
    </filter>
    <linearGradient
       id="linearGradient4019">
      <stop
         id="stop4021"
         style="stop-color:#fff85c;stop-opacity:1;"
         offset="0" />
      <stop
         id="stop4027"
         style="stop-color:#d15e00;stop-opacity:1"
         offset="1" />
    </linearGradient>
    <linearGradient
       id="linearGradient4242">
      <stop
         id="stop4244"
         offset="0"
         style="stop-color:#ff8d06;stop-opacity:1;" />
      <stop
         id="stop4246"
         offset="1"
         style="stop-color:#e62e00;stop-opacity:1;" />
    </linearGradient>
    <linearGradient
       id="linearGradient4275">
      <stop
         style="stop-color:#ffe024;stop-opacity:1;"
         offset="0"
         id="stop4277" />
      <stop
         id="stop4281"
         offset="0.5"
         style="stop-color:#ffac58;stop-opacity:0.73109245;" />
      <stop
         style="stop-color:#df6500;stop-opacity:0.70588237;"
         offset="1"
         id="stop4279" />
    </linearGradient>
    <linearGradient
       id="linearGradient4287"
       inkscape:collect="always">
      <stop
         id="stop4289"
         offset="0"
         style="stop-color:#ffffff;stop-opacity:1;" />
      <stop
         id="stop4291"
         offset="1"
         style="stop-color:#ffffff;stop-opacity:0;" />
    </linearGradient>
    <radialGradient
       inkscape:collect="always"
       xlink:href="#linearGradient4019"
       id="radialGradient3368"
       gradientUnits="userSpaceOnUse"
       gradientTransform="matrix(0,-2.0834119,2.2330421,3.3905477e-8,25.362231,77.321627)"
       cx="37.067341"
       cy="3.6313469"
       fx="37.067341"
       fy="3.6313469"
       r="19.99999" />
    <radialGradient
       inkscape:collect="always"
       xlink:href="#linearGradient4275"
       id="radialGradient3370"
       gradientUnits="userSpaceOnUse"
       gradientTransform="matrix(0.65316463,-7.5227128e-8,5.1005971e-8,0.7873116,36.244294,8.2633501)"
       cx="104.5"
       cy="38.662945"
       fx="104.5"
       fy="38.662945"
       r="1.5" />
    <linearGradient
       inkscape:collect="always"
       xlink:href="#linearGradient4287"
       id="linearGradient3372"
       gradientUnits="userSpaceOnUse"
       x1="104.00895"
       y1="36.659534"
       x2="104.49854"
       y2="39.416653" />
    <radialGradient
       inkscape:collect="always"
       xlink:href="#linearGradient4275"
       id="radialGradient3374"
       gradientUnits="userSpaceOnUse"
       gradientTransform="matrix(0.65316463,-7.5227128e-8,5.1005971e-8,0.7873116,36.244294,8.2633501)"
       cx="104.5"
       cy="38.662945"
       fx="104.5"
       fy="38.662945"
       r="1.5" />
    <linearGradient
       inkscape:collect="always"
       xlink:href="#linearGradient4287"
       id="linearGradient3376"
       gradientUnits="userSpaceOnUse"
       x1="104.00895"
       y1="36.659534"
       x2="104.49854"
       y2="39.416653" />
    <radialGradient
       inkscape:collect="always"
       xlink:href="#linearGradient4275"
       id="radialGradient3378"
       gradientUnits="userSpaceOnUse"
       gradientTransform="matrix(0.65316463,-7.5227128e-8,5.1005971e-8,0.7873116,36.244294,8.2633501)"
       cx="104.5"
       cy="38.662945"
       fx="104.5"
       fy="38.662945"
       r="1.5" />
    <linearGradient
       inkscape:collect="always"
       xlink:href="#linearGradient4287"
       id="linearGradient3380"
       gradientUnits="userSpaceOnUse"
       x1="104.00895"
       y1="36.659534"
       x2="104.49854"
       y2="39.416653" />
    <linearGradient
       inkscape:collect="always"
       xlink:href="#linearGradient4242"
       id="linearGradient3382"
       gradientUnits="userSpaceOnUse"
       gradientTransform="matrix(0,-0.59478311,0.59478311,0,44.064284,80.225293)"
       x1="64.111649"
       y1="-17.677721"
       x2="112.01686"
       y2="-17.677721" />
    <linearGradient
       inkscape:collect="always"
       xlink:href="#linearGradient3851-4"
       id="linearGradient3362-3"
       gradientUnits="userSpaceOnUse"
       gradientTransform="matrix(1.3591615,0,0,1.3587342,119.24144,-17.973024)"
       x1="0.85715157"
       y1="5.7142859"
       x2="0.85715157"
       y2="44.858185" />
    <linearGradient
       id="linearGradient3851-4">
      <stop
         offset="0"
         style="stop-color:#d27400;stop-opacity:1;"
         id="stop3853-6" />
      <stop
         offset="1"
         style="stop-color:#923c00;stop-opacity:1;"
         id="stop3855-0" />
    </linearGradient>
    <linearGradient
       id="linearGradient3688-166-749-4-0-3-8">
      <stop
         offset="0"
         style="stop-color:#181818;stop-opacity:1"
         id="stop2883-4-0-1-8" />
      <stop
         offset="1"
         style="stop-color:#181818;stop-opacity:0"
         id="stop2885-9-2-9-6" />
    </linearGradient>
    <linearGradient
       id="linearGradient3702-501-757-8-4-1-1">
      <stop
         offset="0"
         style="stop-color:#181818;stop-opacity:0"
         id="stop2895-8-9-9-1" />
      <stop
         offset="0.5"
         style="stop-color:#181818;stop-opacity:1"
         id="stop2897-7-8-7-7" />
      <stop
         offset="1"
         style="stop-color:#181818;stop-opacity:0"
         id="stop2899-4-5-1-5" />
    </linearGradient>
    <radialGradient
       gradientTransform="matrix(1.9740984,0,0,1.4,28.210528,-17.399959)"
       gradientUnits="userSpaceOnUse"
       xlink:href="#linearGradient3688-166-749-4-0-3-8"
       id="radialGradient3337-2-2-1-4"
       fy="43.5"
       fx="4.9929786"
       r="2.5"
       cy="43.5"
       cx="4.9929786" />
    <radialGradient
       gradientTransform="matrix(1.9740984,0,0,1.4,-19.789472,-104.4)"
       gradientUnits="userSpaceOnUse"
       xlink:href="#linearGradient3688-166-749-4-0-3-8"
       id="radialGradient3339-1-4-9-6"
       fy="43.5"
       fx="4.9929786"
       r="2.5"
       cy="43.5"
       cx="4.9929786" />
    <linearGradient
       gradientUnits="userSpaceOnUse"
       xlink:href="#linearGradient3702-501-757-8-4-1-1"
       id="linearGradient6394-1"
       y2="39.999443"
       x2="25.058096"
       y1="47.027729"
       x1="25.058096"
       gradientTransform="matrix(1.005291,0,0,1,-0.12698466,4.0035664e-5)" />
  </defs>
  <sodipodi:namedview
     id="base"
     pagecolor="#ffffff"
     bordercolor="#666666"
     borderopacity="1.0"
     inkscape:pageopacity="0.0"
     inkscape:pageshadow="2"
     inkscape:zoom="6.4296876"
     inkscape:cx="57.300039"
     inkscape:cy="29.327045"
     inkscape:current-layer="layer1"
     showgrid="true"
     inkscape:grid-bbox="true"
     inkscape:document-units="px"
     inkscape:window-width="1366"
     inkscape:window-height="704"
     inkscape:window-x="0"
     inkscape:window-y="27"
     inkscape:window-maximized="1"
     inkscape:snap-to-guides="true"
     inkscape:snap-grids="true"
     inkscape:snap-bbox="true"
     inkscape:snap-nodes="false">
    <inkscape:grid
       type="xygrid"
       id="grid1021"
       empspacing="5"
       visible="true"
       enabled="true"
       snapvisiblegridlinesonly="true" />
  </sodipodi:namedview>
  <metadata
     id="metadata4705">
    <rdf:RDF>
      <cc:Work
         rdf:about="">
        <dc:format>image/svg+xml</dc:format>
        <dc:type
           rdf:resource="http://purl.org/dc/dcmitype/StillImage" />
        <dc:title />
      </cc:Work>
    </rdf:RDF>
  </metadata>
  <g
     id="layer1"
     inkscape:label="Layer 1"
     inkscape:groupmode="layer"
     transform="translate(0,16)">
    <g
       transform="matrix(1.4210526,0,0,1.1428571,-2.1052624,-7.7143317)"
       id="g3712-8-2-4-4"
       style="opacity:0.6">
      <rect
         width="4.9259262"
         height="7"
         x="38.074074"
         y="40.000042"
         id="rect2801-5-5-7-9"
         style="fill:url(#radialGradient3337-2-2-1-4);fill-opacity:1;stroke:none" />
      <rect
         width="4.9259262"
         height="7"
         x="-9.9259262"
         y="-47"
         transform="scale(-1,-1)"
         id="rect3696-3-0-3-7"
         style="fill:url(#radialGradient3339-1-4-9-6);fill-opacity:1;stroke:none" />
      <rect
         width="28.148149"
         height="7.0000005"
         x="9.9259253"
         y="40.000038"
         id="rect3700-5-6-8-4"
         style="fill:url(#linearGradient6394-1);fill-opacity:1;stroke:none" />
    </g>
    <rect
       width="54"
       height="54"
       ry="6"
       x="5"
       y="-11"
       id="rect5505-21"
       style="color:#000000;fill:url(#radialGradient3368);fill-opacity:1;fill-rule:nonzero;stroke:none;stroke-width:1;marker:none;visibility:visible;display:inline;overflow:visible;enable-background:accumulate" />
    <rect
       style="color:#000000;display:inline;overflow:visible;visibility:visible;fill:none;stroke:url(#linearGradient3362-3);stroke-width:1;stroke-linecap:round;stroke-linejoin:round;stroke-miterlimit:4;stroke-dasharray:none;stroke-dashoffset:0;stroke-opacity:1;marker:none;enable-background:accumulate"
       id="rect3171"
       y="-42.5"
       x="5.5"
       ry="4"
       height="53.000004"
       width="53"
       transform="scale(1,-1)" />
    <g
       id="layer2"
       style="display:none"
       transform="translate(5.204491,-179.6879)">
      <rect
         width="86"
         height="85"
         rx="6"
         ry="6"
         x="5"
         y="7"
         id="rect3745"
         style="opacity:0.9;fill:url(#ButtonShadow);fill-opacity:1;fill-rule:nonzero;stroke:none;filter:url(#filter3174)" />
    </g>
    <g
       id="layer2-6"
       style="display:none"
       transform="translate(-52.967913,-177.17602)">
      <rect
         width="86"
         height="85"
         rx="6"
         ry="6"
         x="5"
         y="7"
         id="rect3745-4"
         style="opacity:0.9;fill:url(#ButtonShadow-7);fill-opacity:1;fill-rule:nonzero;stroke:none;filter:url(#filter3174-8)" />
    </g>
    <g
       id="layer4"
       transform="matrix(1.3333333,0,0,1.3333333,6.9393212,-255.58386)" />
    <g
       id="layer4-8"
       transform="matrix(1.3333333,0,0,1.3333333,-70.623882,-252.23469)" />
    <g
       id="layer2-2"
       style="display:none"
       transform="matrix(2.5228235,0,0,2.5228235,14.866483,-528.13215)">
      <rect
         width="86"
         height="85"
         rx="2.3782876"
         ry="2.3782876"
         x="5"
         y="7"
         id="rect3745-3"
         style="opacity:0.9;fill:url(#linearGradient3857);fill-opacity:1;fill-rule:nonzero;stroke:none;filter:url(#filter3174-4)" />
    </g>
    <g
       id="layer4-1"
       transform="matrix(2.5228235,0,0,2.5228235,14.866483,-528.13215)" />
    <g
       id="g4574"
       transform="matrix(1.6071093,0,0,1.6011113,40.146104,-20.42229)" />
    <g
       id="layer4-0"
       transform="translate(8.204491,-184.6879)" />
    <g
       id="layer2-05"
       style="display:none"
       transform="translate(68.204491,-185.6879)">
      <rect
         width="86"
         height="85"
         rx="6"
         ry="6"
         x="5"
         y="7"
         id="rect3745-7"
         style="opacity:0.9;fill:url(#ButtonShadow-2);fill-opacity:1;fill-rule:nonzero;stroke:none;filter:url(#filter3174-6)" />
    </g>
    <g
       id="layer2-0"
       style="display:none"
       transform="matrix(1.9515901,0,0,1.9515901,25.735184,-402.93714)">
      <rect
         width="86"
         height="85"
         rx="3.0744162"
         ry="3.0744162"
         x="5"
         y="7"
         id="rect3745-9"
         style="opacity:0.9;fill:url(#ButtonShadow-3);fill-opacity:1;fill-rule:nonzero;stroke:none;filter:url(#filter3174-0)" />
    </g>
    <g
       id="layer4-7"
       transform="matrix(1.9515901,0,0,1.9515901,25.735184,-402.93714)" />
    <g
       style="display:none"
       id="layer2-4"
       transform="matrix(0.11211723,0,0,0.11211723,139.72611,-5.1417792)"
       display="none">
      <rect
         id="rect3745-5"
         rx="53.515415"
         ry="53.515415"
         height="85"
         width="86"
         y="7"
         x="5"
         style="opacity:0.9;fill:url(#ButtonShadow-36);filter:url(#filter3174-04)" />
    </g>
    <g
       id="g3180"
       transform="matrix(1.4037292,0,0,1.4037292,-7.2292183,-26.036675)"
       clip-path="url(#clipPath4205)">
      <path
         sodipodi:type="arc"
         style="color:#000000;fill:#ff6101;fill-opacity:1;fill-rule:evenodd;stroke:none;stroke-width:1;marker:none;visibility:visible;display:inline;overflow:visible;enable-background:accumulate"
         id="path4222"
         sodipodi:cx="75"
         sodipodi:cy="-18"
         sodipodi:rx="27"
         sodipodi:ry="27"
         d="M 102,-18 A 27,27 0 0 1 75,9 27,27 0 0 1 48,-18 a 27,27 0 0 1 27,-27 27,27 0 0 1 27,27 z"
         transform="matrix(0.68289922,0,0,0.68289922,-17.65572,47.853907)" />
      <path
         transform="matrix(0.61681209,0,0,0.61681209,-12.699183,46.664338)"
         d="M 102,-18 A 27,27 0 0 1 75,9 27,27 0 0 1 48,-18 a 27,27 0 0 1 27,-27 27,27 0 0 1 27,27 z"
         sodipodi:ry="27"
         sodipodi:rx="27"
         sodipodi:cy="-18"
         sodipodi:cx="75"
         id="path4220"
         style="color:#000000;fill:#ffffff;fill-opacity:0.74117647;fill-rule:evenodd;stroke:none;stroke-width:1;marker:none;visibility:visible;display:inline;overflow:visible;enable-background:accumulate"
         sodipodi:type="arc" />
      <path
         inkscape:connector-curvature="0"
         id="rect3383"
         d="m 18.023936,36.638843 c 0.02904,0.84957 0.260218,2.02598 2.118915,2.02598 L 32.893514,35.690907 20.142851,32.716992 c -2.124225,0 -2.118915,1.486958 -2.118915,2.379132 l 0,1.189567 c 0,0.102971 -0.0042,0.231785 0,0.353152 z m 1.245328,4.814026 c 0.01168,0.55128 0.297391,1.082048 0.520435,1.468371 l 0.594783,1.022283 c 0.411888,0.71341 1.190042,2.065809 3.029676,1.003697 l 9.553704,-8.958921 -12.527619,3.810329 c -0.919817,0.531057 -1.182656,1.10296 -1.170979,1.654241 z m 0,-11.319466 c 0.05721,0.48902 0.384726,1.003696 1.189566,1.468371 l 12.509032,3.791742 -9.535117,-8.940334 c -1.839633,-1.062112 -2.617789,0.290287 -3.029676,1.003697 l -0.594783,1.022283 c -0.250924,0.434614 -0.612573,1.025501 -0.539022,1.654241 z m 4.572395,17.06284 c 0.08715,0.847372 0.862828,1.291795 1.394023,1.59848 l 1.04087,0.594783 c 0.71341,0.411887 2.060498,1.189089 3.122611,-0.650544 l 3.791743,-12.527619 -8.940334,9.553703 c -0.33191,0.574886 -0.448528,1.046028 -0.408913,1.431197 z m 0,-22.750454 c 0.01656,0.33537 0.143385,0.729658 0.408913,1.189566 L 33.190906,35.189059 29.399163,22.66144 C 28.33705,20.821807 26.989962,21.599009 26.276552,22.010896 l -1.04087,0.594783 c -0.579485,0.334565 -1.443707,0.834001 -1.394023,1.84011 z m 6.672723,24.590564 c 0,2.124226 1.486957,2.118915 2.379132,2.118915 l 1.189566,0 c 0.823775,0 2.379133,0.0053 2.379133,-2.118915 L 33.488297,36.285691 30.514382,49.036353 z m 0,-26.672305 2.973915,12.732076 2.973916,-12.732076 c 0,-2.12422 -1.555358,-2.137501 -2.379133,-2.137501 l -1.189566,0 c -0.892175,0 -2.379132,0.01328 -2.379132,2.137501 z m 3.271307,13.847295 3.791742,12.527619 c 1.062113,1.839633 2.349965,1.096632 3.122611,0.650544 l 1.040871,-0.594783 c 0.71341,-0.411888 2.065809,-1.190043 1.003696,-3.029677 l -8.95892,-9.553703 z m 0,-1.022284 8.95892,-9.553704 c 1.062113,-1.839633 -0.290286,-2.617789 -1.003696,-3.029676 l -1.040871,-0.594783 c -0.772645,-0.446087 -2.060498,-1.189089 -3.122611,0.650544 l -3.791742,12.527619 z m 0.223043,0.79924 9.553704,8.958921 c 1.839633,1.062112 2.583589,-0.23105 3.029677,-1.003697 l 0.594783,-1.022283 c 0.411887,-0.713411 1.189089,-2.060499 -0.650544,-3.122612 l -12.52762,-3.810329 z m 0,-0.594783 12.509033,-3.791742 c 1.839633,-1.062114 1.062431,-2.409202 0.650544,-3.122612 l -0.594783,-1.022283 c -0.446088,-0.772646 -1.190044,-2.06581 -3.029677,-1.003697 l -9.535117,8.940334 z m 0.07435,0.297391 12.750663,2.973916 c 2.124227,0 2.118915,-1.555358 2.118915,-2.379132 l 0,-1.189567 c 0,-0.892174 0.0054,-2.379132 -2.118915,-2.379132 L 34.08308,35.690907 z"
         style="color:#000000;fill:url(#linearGradient3382);fill-opacity:1;fill-rule:evenodd;stroke:none;stroke-width:1.11111116;marker:none;visibility:visible;display:inline;overflow:visible;enable-background:accumulate" />
    </g>
    <g
       id="g3966"
       transform="matrix(1.5577784,0,0,1.5572886,0.458785,-8.503887)">
      <path
         sodipodi:type="arc"
         style="color:#000000;fill:#8d2c00;fill-opacity:1;fill-rule:evenodd;stroke:none;stroke-width:1.11111116;marker:none;visibility:visible;display:inline;overflow:visible;filter:url(#filter4323);enable-background:accumulate"
         id="path4295"
         sodipodi:cx="104.5"
         sodipodi:cy="38.5"
         sodipodi:rx="1.5"
         sodipodi:ry="1.5"
         d="M 106,38.5 A 1.5,1.5 0 0 1 104.5,40 1.5,1.5 0 0 1 103,38.5 1.5,1.5 0 0 1 104.5,37 1.5,1.5 0 0 1 106,38.5 Z"
         transform="matrix(2.3947634,0,0,2.2314592,-240.03945,-73.083996)" />
      <path
         transform="matrix(2.3947634,0,0,2.2314592,-240.11883,-74.108803)"
         d="M 106,38.5 A 1.5,1.5 0 0 1 104.5,40 1.5,1.5 0 0 1 103,38.5 1.5,1.5 0 0 1 104.5,37 1.5,1.5 0 0 1 106,38.5 Z"
         sodipodi:ry="1.5"
         sodipodi:rx="1.5"
         sodipodi:cy="38.5"
         sodipodi:cx="104.5"
         id="path4265"
         style="color:#000000;fill:url(#radialGradient3378);fill-opacity:1;fill-rule:evenodd;stroke:none;stroke-width:1.11111116;marker:none;visibility:visible;display:inline;overflow:visible;enable-background:accumulate"
         sodipodi:type="arc" />
      <path
         sodipodi:type="arc"
         style="color:#000000;fill:url(#linearGradient3380);fill-opacity:1;fill-rule:evenodd;stroke:none;stroke-width:1.11111116;marker:none;visibility:visible;display:inline;overflow:visible;enable-background:accumulate"
         id="path4283"
         sodipodi:cx="104.5"
         sodipodi:cy="38.5"
         sodipodi:rx="1.5"
         sodipodi:ry="1.5"
         d="M 106,38.5 A 1.5,1.5 0 0 1 104.5,40 1.5,1.5 0 0 1 103,38.5 1.5,1.5 0 0 1 104.5,37 1.5,1.5 0 0 1 106,38.5 Z"
         transform="matrix(1.259313,-0.46308357,0.26012694,0.91918043,-132.54233,23.459589)" />
    </g>
    <g
       id="g3987"
       transform="matrix(0.56646487,0,0,0.56628676,6.379741,-8.0704418)">
      <path
         sodipodi:type="arc"
         style="color:#000000;fill:#8d2c00;fill-opacity:1;fill-rule:evenodd;stroke:none;stroke-width:1.11111116;marker:none;visibility:visible;display:inline;overflow:visible;filter:url(#filter4323);enable-background:accumulate"
         id="path3989"
         sodipodi:cx="104.5"
         sodipodi:cy="38.5"
         sodipodi:rx="1.5"
         sodipodi:ry="1.5"
         d="M 106,38.5 A 1.5,1.5 0 0 1 104.5,40 1.5,1.5 0 0 1 103,38.5 1.5,1.5 0 0 1 104.5,37 1.5,1.5 0 0 1 106,38.5 Z"
         transform="matrix(2.3947634,0,0,2.2314592,-240.03945,-73.083996)" />
      <path
         transform="matrix(2.3947634,0,0,2.2314592,-240.11883,-74.108803)"
         d="M 106,38.5 A 1.5,1.5 0 0 1 104.5,40 1.5,1.5 0 0 1 103,38.5 1.5,1.5 0 0 1 104.5,37 1.5,1.5 0 0 1 106,38.5 Z"
         sodipodi:ry="1.5"
         sodipodi:rx="1.5"
         sodipodi:cy="38.5"
         sodipodi:cx="104.5"
         id="path3991"
         style="color:#000000;fill:url(#radialGradient3374);fill-opacity:1;fill-rule:evenodd;stroke:none;stroke-width:1.11111116;marker:none;visibility:visible;display:inline;overflow:visible;enable-background:accumulate"
         sodipodi:type="arc" />
      <path
         sodipodi:type="arc"
         style="color:#000000;fill:url(#linearGradient3376);fill-opacity:1;fill-rule:evenodd;stroke:none;stroke-width:1.11111116;marker:none;visibility:visible;display:inline;overflow:visible;enable-background:accumulate"
         id="path3993"
         sodipodi:cx="104.5"
         sodipodi:cy="38.5"
         sodipodi:rx="1.5"
         sodipodi:ry="1.5"
         d="M 106,38.5 A 1.5,1.5 0 0 1 104.5,40 1.5,1.5 0 0 1 103,38.5 1.5,1.5 0 0 1 104.5,37 1.5,1.5 0 0 1 106,38.5 Z"
         transform="matrix(1.259313,-0.46308357,0.26012694,0.91918043,-132.54233,23.459589)" />
    </g>
    <g
       id="g4193"
       transform="matrix(0.89698362,0,0,0.89670159,15.344511,-14.677864)">
      <path
         sodipodi:type="arc"
         style="color:#000000;fill:#8d2c00;fill-opacity:1;fill-rule:evenodd;stroke:none;stroke-width:1.11111116;marker:none;visibility:visible;display:inline;overflow:visible;filter:url(#filter4323);enable-background:accumulate"
         id="path4195"
         sodipodi:cx="104.5"
         sodipodi:cy="38.5"
         sodipodi:rx="1.5"
         sodipodi:ry="1.5"
         d="M 106,38.5 A 1.5,1.5 0 0 1 104.5,40 1.5,1.5 0 0 1 103,38.5 1.5,1.5 0 0 1 104.5,37 1.5,1.5 0 0 1 106,38.5 Z"
         transform="matrix(2.3947634,0,0,2.2314592,-240.03945,-73.083996)" />
      <path
         transform="matrix(2.3947634,0,0,2.2314592,-240.11883,-74.108803)"
         d="M 106,38.5 A 1.5,1.5 0 0 1 104.5,40 1.5,1.5 0 0 1 103,38.5 1.5,1.5 0 0 1 104.5,37 1.5,1.5 0 0 1 106,38.5 Z"
         sodipodi:ry="1.5"
         sodipodi:rx="1.5"
         sodipodi:cy="38.5"
         sodipodi:cx="104.5"
         id="path4197"
         style="color:#000000;fill:url(#radialGradient3370);fill-opacity:1;fill-rule:evenodd;stroke:none;stroke-width:1.11111116;marker:none;visibility:visible;display:inline;overflow:visible;enable-background:accumulate"
         sodipodi:type="arc" />
      <path
         sodipodi:type="arc"
         style="color:#000000;fill:url(#linearGradient3372);fill-opacity:1;fill-rule:evenodd;stroke:none;stroke-width:1.11111116;marker:none;visibility:visible;display:inline;overflow:visible;enable-background:accumulate"
         id="path4199"
         sodipodi:cx="104.5"
         sodipodi:cy="38.5"
         sodipodi:rx="1.5"
         sodipodi:ry="1.5"
         d="M 106,38.5 A 1.5,1.5 0 0 1 104.5,40 1.5,1.5 0 0 1 103,38.5 1.5,1.5 0 0 1 104.5,37 1.5,1.5 0 0 1 106,38.5 Z"
         transform="matrix(1.259313,-0.46308357,0.26012694,0.91918043,-132.54233,23.459589)" />
    </g>
    <rect
       width="51"
       height="51"
       ry="3"
       x="6.5"
       y="-9.5"
       id="rect4513"
       style="color:#000000;display:inline;overflow:visible;visibility:visible;opacity:0.5;fill:none;stroke:url(#linearGradient3864-7);stroke-width:1;stroke-linecap:butt;stroke-linejoin:miter;stroke-miterlimit:4;stroke-dasharray:none;stroke-dashoffset:0;stroke-opacity:1;marker:none;enable-background:accumulate" />
  </g>
</svg>
