<?xml version="1.0" encoding="UTF-8" standalone="no"?>
<!-- Created with Inkscape (http://www.inkscape.org/) -->

<svg xmlns:dc="http://purl.org/dc/elements/1.1/" xmlns:cc="http://creativecommons.org/ns#" xmlns:rdf="http://www.w3.org/1999/02/22-rdf-syntax-ns#" xmlns:svg="http://www.w3.org/2000/svg" xmlns="http://www.w3.org/2000/svg" xmlns:xlink="http://www.w3.org/1999/xlink" xmlns:sodipodi="http://sodipodi.sourceforge.net/DTD/sodipodi-0.dtd" xmlns:inkscape="http://www.inkscape.org/namespaces/inkscape" width="24" height="24" id="svg4700" version="1.1" inkscape:version="0.48.4 r9939" sodipodi:docname="audio-input-microphone24.svg" inkscape:export-filename="/home/rafa/.icons/Box/_unfinished/audio-input-microphone.png" inkscape:export-xdpi="90" inkscape:export-ydpi="90">
  <defs id="defs4702">
    <linearGradient id="linearGradient4109">
      <stop style="stop-color:white;stop-opacity:0.50196081;" offset="0" id="stop4111" />
      <stop style="stop-color:white;stop-opacity:0;" offset="1" id="stop4113" />
    </linearGradient>
    <linearGradient id="linearGradient4062">
      <stop offset="0" style="stop-color:#5a5a5a;stop-opacity:1;" id="stop4064" />
      <stop id="stop4066" style="stop-color:white;stop-opacity:1;" offset="0.77495146" />
      <stop offset="1" style="stop-color:#5a5a5a;stop-opacity:1;" id="stop4068" />
    </linearGradient>
    <linearGradient id="linearGradient3926">
      <stop id="stop3928" style="stop-color:black;stop-opacity:1" offset="0" />
      <stop offset="0.49999997" style="stop-color:white;stop-opacity:1;" id="stop3930" />
      <stop id="stop3932" style="stop-color:black;stop-opacity:1" offset="1" />
    </linearGradient>
    <linearGradient id="linearGradient3966">
      <stop id="stop3974" style="stop-color:#3c3c3c;stop-opacity:1;" offset="0" />
      <stop offset="0.5" style="stop-color:white;stop-opacity:1;" id="stop3976" />
      <stop id="stop3970" style="stop-color:#3c3c3c;stop-opacity:1;" offset="1" />
    </linearGradient>
    <filter id="filter3174" color-interpolation-filters="sRGB">
      <feGaussianBlur stdDeviation="1.71" id="feGaussianBlur3176" />
    </filter>
    <linearGradient gradientTransform="scale(1.0058652,0.994169)" gradientUnits="userSpaceOnUse" id="ButtonShadow" y2="7.0165396" x2="45.447727" y1="92.539597" x1="45.447727">
      <stop offset="0" style="stop-color:#000000;stop-opacity:1" id="stop3750" />
      <stop offset="1" style="stop-color:#000000;stop-opacity:0.58823532" id="stop3752" />
    </linearGradient>
    <linearGradient gradientUnits="userSpaceOnUse" id="linearGradient4594-3" x1="8.2114201" x2="31.74275" y1="-5.7136502" y2="25.48744">
      <stop offset="0" stop-color="#fff" id="stop37-5-1-3" />
      <stop offset="1" stop-color="#fff" stop-opacity="0" id="stop39-0" />
    </linearGradient>
    <linearGradient inkscape:collect="always" xlink:href="#linearGradient4594-3" id="linearGradient3194" gradientUnits="userSpaceOnUse" gradientTransform="matrix(0.47262677,0,0,0.35616438,-0.377697,23.863018)" x1="8.2114201" y1="-5.7136502" x2="31.74275" y2="25.48744" />
    <linearGradient inkscape:collect="always" xlink:href="#linearGradient3926" id="linearGradient3215" gradientUnits="userSpaceOnUse" gradientTransform="matrix(0,-0.04591836,0.07407406,0,0.2222234,10.846944)" x1="-694.00006" y1="132.00002" x2="-694.00006" y2="186.00002" />
    <linearGradient inkscape:collect="always" xlink:href="#linearGradient4062" id="linearGradient3221" gradientUnits="userSpaceOnUse" gradientTransform="matrix(0.17857141,0,0,0.19444442,3.4285707,24.333333)" x1="7.2787275" y1="40.941334" x2="88.721275" y2="40.941334" />
    <linearGradient inkscape:collect="always" xlink:href="#linearGradient3966" id="linearGradient3225" gradientUnits="userSpaceOnUse" gradientTransform="matrix(0.04761902,0,0,0.04166665,18.714285,31.749998)" x1="54.994385" y1="15.032819" x2="54.994385" y2="68.967247" />
    <linearGradient inkscape:collect="always" xlink:href="#linearGradient3966" id="linearGradient4002" gradientUnits="userSpaceOnUse" gradientTransform="matrix(0.04761902,0,0,0.04166665,-5.285715,31.749998)" x1="54.994385" y1="15.032819" x2="54.994385" y2="68.967247" />
    <linearGradient inkscape:collect="always" xlink:href="#linearGradient4109" id="linearGradient4115" x1="12" y1="26" x2="12" y2="39" gradientUnits="userSpaceOnUse" />
  </defs>
  <sodipodi:namedview id="base" pagecolor="#ffffff" bordercolor="#666666" borderopacity="1.0" inkscape:pageopacity="0.0" inkscape:pageshadow="2" inkscape:zoom="22.627416" inkscape:cx="11.571678" inkscape:cy="12.189244" inkscape:current-layer="layer1" showgrid="true" inkscape:grid-bbox="true" inkscape:document-units="px" inkscape:window-width="1018" inkscape:window-height="908" inkscape:window-x="0" inkscape:window-y="4" inkscape:window-maximized="0" inkscape:snap-to-guides="false" inkscape:snap-grids="true" inkscape:snap-bbox="true">
    <inkscape:grid type="xygrid" id="grid1021" empspacing="5" visible="true" enabled="true" snapvisiblegridlinesonly="true" />
  </sodipodi:namedview>
  <metadata id="metadata4705">
    <rdf:RDF>
      <cc:Work rdf:about="">
        <dc:format>image/svg+xml</dc:format>
        <dc:type rdf:resource="http://purl.org/dc/dcmitype/StillImage" />
        <dc:title />
      </cc:Work>
    </rdf:RDF>
  </metadata>
  <g id="layer1" inkscape:label="Layer 1" inkscape:groupmode="layer" transform="translate(0,-24)">
    <rect rx="1" width="3.999999" height="3" ry="1" x="-5" y="32" id="rect4000" style="fill:url(#linearGradient4002);fill-opacity:1;fill-rule:nonzero;stroke:none" transform="scale(-1,1)" />
    <g id="layer2" style="display:none" transform="translate(5.204491,-179.6879)">
      <rect width="86" height="85" rx="6" ry="6" x="5" y="7" id="rect3745" style="opacity:0.9;fill:url(#ButtonShadow);fill-opacity:1;fill-rule:nonzero;stroke:none;filter:url(#filter3174)" />
    </g>
    <g id="layer4" transform="translate(5.204491,-179.6879)" />
    <path style="color:black;fill:black;fill-opacity:1;fill-rule:nonzero;stroke:none;stroke-width:3;marker:none;visibility:visible;display:inline;overflow:visible;enable-background:accumulate" d="m 3.8695653,44.99261 0.4782608,0 0,0.499029 -0.4782608,0 z" id="rect4256" inkscape:connector-curvature="0" />
    <rect style="fill:url(#linearGradient3225);fill-opacity:1;fill-rule:nonzero;stroke:none" id="rect3186" y="32" x="19" ry="1" height="3" width="3.999999" rx="1" />
    <rect width="18" height="4" ry="2" x="3" y="43" id="rect3122" style="color:black;fill:black;fill-opacity:1;fill-rule:nonzero;stroke:none;stroke-width:1;marker:none;visibility:visible;display:inline;overflow:visible;enable-background:accumulate" />
    <rect style="fill:url(#linearGradient3221);fill-opacity:1;fill-rule:nonzero;stroke:black;stroke-width:1;stroke-miterlimit:4;stroke-opacity:1;stroke-dasharray:none" y="25.5" x="4.5" ry="3" height="14" width="15" id="rect3171" />
    <rect style="fill:#585858;fill-opacity:1;fill-rule:nonzero;stroke:none" id="rect4030" y="43" x="3" ry="2" height="3" width="18" />
    <path style="color:black;fill:url(#linearGradient3215);fill-opacity:1;fill-rule:nonzero;stroke:none;stroke-width:1;marker:none;visibility:visible;display:inline;overflow:visible;enable-background:accumulate" d="M 10,43.857143 10,41 l 4,0 0,2.857143 C 14,43.857143 14,45 12,45 10,45 10,43.857143 10,43.857143 z" id="rect4626" inkscape:connector-curvature="0" sodipodi:nodetypes="cccccc" />
    <path style="font-size:medium;font-style:normal;font-variant:normal;font-weight:normal;font-stretch:normal;text-indent:0;text-align:start;text-decoration:none;line-height:normal;letter-spacing:normal;word-spacing:normal;text-transform:none;direction:ltr;block-progression:tb;writing-mode:lr-tb;text-anchor:start;baseline-shift:baseline;color:black;fill:black;fill-opacity:1;stroke:none;stroke-width:1;marker:none;visibility:visible;display:inline;overflow:visible;enable-background:accumulate;font-family:Sans;-inkscape-font-specification:Sans" d="m 2,31 0,7 c 0,2 2.086956,4.000733 4,4 l 12,0 c 1.913044,7.33e-4 4,-2 4,-4 l 0,-7 -1,0 0,6 c 0,2 -1,4 -4,4 L 7,41 C 4,41 3,39 3,37 l 0,-6 z" id="rect4336" inkscape:connector-curvature="0" sodipodi:nodetypes="csccsccsccscc" />
    <path style="color:black;fill:white;fill-opacity:0.50196078;fill-rule:nonzero;stroke:none;stroke-width:3;marker:none;visibility:visible;display:inline;overflow:visible;enable-background:accumulate" d="M 13.528889,29 C 13.233422,29 13,29.223 13,29.5 13,29.777 13.233422,30 13.528889,30 L 19,30 19,29 z" id="path4022" inkscape:connector-curvature="0" sodipodi:nodetypes="sssccs" />
    <path style="color:black;fill:black;fill-opacity:1;fill-rule:nonzero;stroke:none;stroke-width:3;marker:none;visibility:visible;display:inline;overflow:visible;enable-background:accumulate" d="m 13.488697,28 c -0.297303,0 -0.532175,0.223 -0.532175,0.5 0,0.277 0.234872,0.5 0.532175,0.5 L 19,29 19,28 z" id="path4030" inkscape:connector-curvature="0" sodipodi:nodetypes="sssccs" />
    <rect style="color:black;fill:aqua;fill-opacity:1;stroke:none;stroke-width:0.99999994;marker:none;visibility:visible;display:inline;overflow:visible;enable-background:accumulate" id="rect4668" width="2" height="1" x="11" y="37" />
    <path sodipodi:nodetypes="sssccs" inkscape:connector-curvature="0" id="path4034" d="M 13.528889,31 C 13.233422,31 13,31.223 13,31.5 13,31.777 13.233422,32 13.528889,32 L 19,32 19,31 z" style="color:black;fill:white;fill-opacity:0.50196078;fill-rule:nonzero;stroke:none;stroke-width:3;marker:none;visibility:visible;display:inline;overflow:visible;enable-background:accumulate" />
    <path sodipodi:nodetypes="sssccs" inkscape:connector-curvature="0" id="path4036" d="m 13.488697,30 c -0.297303,0 -0.532175,0.223 -0.532175,0.5 0,0.277 0.234872,0.5 0.532175,0.5 L 19,31 19,30 z" style="color:black;fill:black;fill-opacity:1;fill-rule:nonzero;stroke:none;stroke-width:3;marker:none;visibility:visible;display:inline;overflow:visible;enable-background:accumulate" />
    <path style="color:black;fill:white;fill-opacity:0.50196078;fill-rule:nonzero;stroke:none;stroke-width:3;marker:none;visibility:visible;display:inline;overflow:visible;enable-background:accumulate" d="M 13.528889,33 C 13.233422,33 13,33.223 13,33.5 13,33.777 13.233422,34 13.528889,34 L 19,34 19,33 z" id="path4038" inkscape:connector-curvature="0" sodipodi:nodetypes="sssccs" />
    <path style="color:black;fill:black;fill-opacity:1;fill-rule:nonzero;stroke:none;stroke-width:3;marker:none;visibility:visible;display:inline;overflow:visible;enable-background:accumulate" d="m 13.488697,32 c -0.297303,0 -0.532175,0.223 -0.532175,0.5 0,0.277 0.234872,0.5 0.532175,0.5 L 19,33 19,32 z" id="path4040" inkscape:connector-curvature="0" sodipodi:nodetypes="sssccs" />
    <path sodipodi:nodetypes="sssccs" inkscape:connector-curvature="0" id="path4042" d="M 13.528889,35 C 13.233422,35 13,35.223 13,35.5 13,35.777 13.233422,36 13.528889,36 L 19,36 19,35 z" style="color:black;fill:white;fill-opacity:0.50196078;fill-rule:nonzero;stroke:none;stroke-width:3;marker:none;visibility:visible;display:inline;overflow:visible;enable-background:accumulate" />
    <path sodipodi:nodetypes="sssccs" inkscape:connector-curvature="0" id="path4044" d="m 13.488697,34 c -0.297303,0 -0.532175,0.223 -0.532175,0.5 0,0.277 0.234872,0.5 0.532175,0.5 L 19,35 19,34 z" style="color:black;fill:black;fill-opacity:1;fill-rule:nonzero;stroke:none;stroke-width:3;marker:none;visibility:visible;display:inline;overflow:visible;enable-background:accumulate" />
    <path sodipodi:nodetypes="sssccs" inkscape:connector-curvature="0" id="path4046" d="M 10.471111,29 C 10.766578,29 11,29.223 11,29.5 11,29.777 10.766578,30 10.471111,30 L 5,30 5,29 z" style="color:black;fill:white;fill-opacity:0.50196078;fill-rule:nonzero;stroke:none;stroke-width:3;marker:none;visibility:visible;display:inline;overflow:visible;enable-background:accumulate" />
    <path sodipodi:nodetypes="sssccs" inkscape:connector-curvature="0" id="path4048" d="m 10.511303,28 c 0.297303,0 0.532175,0.223 0.532175,0.5 0,0.277 -0.234872,0.5 -0.532175,0.5 L 5,29 5,28 z" style="color:black;fill:black;fill-opacity:1;fill-rule:nonzero;stroke:none;stroke-width:3;marker:none;visibility:visible;display:inline;overflow:visible;enable-background:accumulate" />
    <path style="color:black;fill:white;fill-opacity:0.50196078;fill-rule:nonzero;stroke:none;stroke-width:3;marker:none;visibility:visible;display:inline;overflow:visible;enable-background:accumulate" d="M 10.471111,31 C 10.766578,31 11,31.223 11,31.5 11,31.777 10.766578,32 10.471111,32 L 5,32 5,31 z" id="path4050" inkscape:connector-curvature="0" sodipodi:nodetypes="sssccs" />
    <path style="color:black;fill:black;fill-opacity:1;fill-rule:nonzero;stroke:none;stroke-width:3;marker:none;visibility:visible;display:inline;overflow:visible;enable-background:accumulate" d="m 10.511303,30 c 0.297303,0 0.532175,0.223 0.532175,0.5 0,0.277 -0.234872,0.5 -0.532175,0.5 L 5,31 5,30 z" id="path4052" inkscape:connector-curvature="0" sodipodi:nodetypes="sssccs" />
    <path sodipodi:nodetypes="sssccs" inkscape:connector-curvature="0" id="path4054" d="M 10.471111,33 C 10.766578,33 11,33.223 11,33.5 11,33.777 10.766578,34 10.471111,34 L 5,34 5,33 z" style="color:black;fill:white;fill-opacity:0.50196078;fill-rule:nonzero;stroke:none;stroke-width:3;marker:none;visibility:visible;display:inline;overflow:visible;enable-background:accumulate" />
    <path sodipodi:nodetypes="sssccs" inkscape:connector-curvature="0" id="path4056" d="m 10.511303,32 c 0.297303,0 0.532175,0.223 0.532175,0.5 0,0.277 -0.234872,0.5 -0.532175,0.5 L 5,33 5,32 z" style="color:black;fill:black;fill-opacity:1;fill-rule:nonzero;stroke:none;stroke-width:3;marker:none;visibility:visible;display:inline;overflow:visible;enable-background:accumulate" />
    <path style="color:black;fill:white;fill-opacity:0.50196078;fill-rule:nonzero;stroke:none;stroke-width:3;marker:none;visibility:visible;display:inline;overflow:visible;enable-background:accumulate" d="M 10.471111,35 C 10.766578,35 11,35.223 11,35.5 11,35.777 10.766578,36 10.471111,36 L 5,36 5,35 z" id="path4058" inkscape:connector-curvature="0" sodipodi:nodetypes="sssccs" />
    <path style="color:black;fill:black;fill-opacity:1;fill-rule:nonzero;stroke:none;stroke-width:3;marker:none;visibility:visible;display:inline;overflow:visible;enable-background:accumulate" d="m 10.511303,34 c 0.297303,0 0.532175,0.223 0.532175,0.5 0,0.277 -0.234872,0.5 -0.532175,0.5 L 5,35 5,34 z" id="path4060" inkscape:connector-curvature="0" sodipodi:nodetypes="sssccs" />
    <path style="opacity:0.98999999;fill:url(#linearGradient3194)" inkscape:connector-curvature="0" d="m 8,26 9,0 c 1,0 2,1 2,2 l -1e-6,11 -6.098132,0 z" id="path57-5-0" sodipodi:nodetypes="cssccc" />
    <rect id="rect4102" width="13" height="12" ry="2" x="5.5" y="26.5" style="fill:none;fill-opacity:1;fill-rule:nonzero;stroke:url(#linearGradient4115);stroke-width:1;stroke-miterlimit:4;stroke-opacity:1;stroke-dasharray:none" />
  </g>
</svg>
