<?xml version="1.0" encoding="UTF-8" standalone="no"?>
<!-- Created with Inkscape (http://www.inkscape.org/) -->

<svg xmlns:dc="http://purl.org/dc/elements/1.1/" xmlns:cc="http://creativecommons.org/ns#" xmlns:rdf="http://www.w3.org/1999/02/22-rdf-syntax-ns#" xmlns:svg="http://www.w3.org/2000/svg" xmlns="http://www.w3.org/2000/svg" xmlns:xlink="http://www.w3.org/1999/xlink" xmlns:sodipodi="http://sodipodi.sourceforge.net/DTD/sodipodi-0.dtd" xmlns:inkscape="http://www.inkscape.org/namespaces/inkscape" width="32" height="32" id="svg3330" version="1.1" inkscape:version="0.48.3.1 r9886" sodipodi:docname="applications-fonts.svg">
  <defs id="defs3332">
    <linearGradient gradientUnits="userSpaceOnUse" id="linearGradient1022-8-8-3-0-06-59-7-8-0-2" x2="0" y1="3.0069399" y2="11.02436">
      <stop offset="0" id="stop3001-0-9-4-9-02-6-2-81-9" />
      <stop offset="1" stop-color="#363636" id="stop3003-5-6-6-5-70-7-1-4-9" />
    </linearGradient>
    <linearGradient inkscape:collect="always" xlink:href="#linearGradient1022-8-8-3-0-06-59-7-8-0-2" id="linearGradient3158" gradientUnits="userSpaceOnUse" gradientTransform="matrix(2.3556973,0,0,2.3198273,-518.39273,-1229.807)" x1="227.2757" y1="530.55975" x2="227.2757" y2="543.49176" />
  </defs>
  <sodipodi:namedview id="base" pagecolor="#ffffff" bordercolor="#666666" borderopacity="1.0" inkscape:pageopacity="0.0" inkscape:pageshadow="2" inkscape:zoom="16" inkscape:cx="21.705296" inkscape:cy="14.615694" inkscape:document-units="px" inkscape:current-layer="capa1" showgrid="true" inkscape:showpageshadow="false" inkscape:window-width="1280" inkscape:window-height="977" inkscape:window-x="0" inkscape:window-y="24" inkscape:window-maximized="1" inkscape:snap-to-guides="false" inkscape:snap-grids="true" showguides="true" inkscape:guide-bbox="true">
    <inkscape:grid type="xygrid" id="grid2990" empspacing="5" visible="true" enabled="true" snapvisiblegridlinesonly="true" />
  </sodipodi:namedview>
  <metadata id="metadata3335">
    <rdf:RDF>
      <cc:Work rdf:about="">
        <dc:format>image/svg+xml</dc:format>
        <dc:type rdf:resource="http://purl.org/dc/dcmitype/StillImage" />
        <dc:title />
      </cc:Work>
    </rdf:RDF>
  </metadata>
  <g inkscape:label="Capa 1" inkscape:groupmode="layer" id="capa1" transform="translate(0,-1020.3622)">
    <path id="path3139" d="m 5,1022.3622 c -2.216,0 -4,1.784 -4,4 l 0,22 c 0,2.216 1.784,4 4,4 l 22,0 c 2.216,0 4,-1.784 4,-4 l 0,-22 c 0,-2.216 -1.784,-4 -4,-4 l -22,0 z m 9.3125,7 3.375,0 c 0.517346,1.1083 1.0291,2.2365 1.53125,3.4063 0.502127,1.1545 1.029097,2.3946 1.53125,3.6875 0.517341,1.293 1.029913,2.6627 1.5625,4.125 0.532557,1.4623 1.094045,3.0572 1.6875,4.7812 l -3.8125,0 c -0.167391,-0.5541 -0.349484,-1.1339 -0.5625,-1.7187 l -0.59375,-1.75 -6.15625,0 c -0.197818,0.5849 -0.411975,1.165 -0.625,1.75 -0.197816,0.5848 -0.395124,1.1646 -0.5625,1.7187 l -3.6875,0 c 0.5934361,-1.724 1.1549266,-3.3189 1.6875,-4.7812 0.53257,-1.4623 1.060357,-2.832 1.5625,-4.125 0.517352,-1.2929 1.013073,-2.533 1.5,-3.6875 0.502133,-1.1698 1.02992,-2.298 1.5625,-3.4063 z m 1.59375,3.625 c -0.07609,0.2309 -0.191595,0.5372 -0.34375,0.9375 -0.152173,0.4001 -0.302194,0.8828 -0.5,1.4063 -0.19782,0.5232 -0.412794,1.0876 -0.65625,1.7187 -0.228251,0.6311 -0.475296,1.3073 -0.71875,2 l 4.5,0 c -0.243471,-0.6927 -0.490515,-1.3689 -0.71875,-2 -0.228256,-0.6311 -0.443229,-1.1955 -0.65625,-1.7187 -0.19782,-0.5235 -0.379095,-1.0062 -0.53125,-1.4063 -0.152173,-0.4003 -0.28371,-0.7066 -0.375,-0.9375 z" style="opacity:0.6;color:#000000;fill:#ffffff;fill-opacity:1;fill-rule:nonzero;stroke:none;stroke-width:1;marker:none;visibility:visible;display:inline;overflow:visible;enable-background:accumulate" inkscape:connector-curvature="0" />
    <path style="opacity:0.69999999999999996;color:#000000;fill:url(#linearGradient3158);fill-opacity:1;fill-rule:nonzero;stroke:none;stroke-width:1.00139092999999990;marker:none;visibility:visible;display:inline;overflow:visible;enable-background:accumulate" d="M 5 1 C 2.784 1 1 2.784 1 5 L 1 27 C 1 29.216 2.784 31 5 31 L 27 31 C 29.216 31 31 29.216 31 27 L 31 5 C 31 2.784 29.216 1 27 1 L 5 1 z M 14.3125 8 L 17.6875 8 C 18.204846 9.1083 18.7166 10.23645 19.21875 11.40625 C 19.720877 12.56075 20.247847 13.80085 20.75 15.09375 C 21.267341 16.38675 21.779913 17.75645 22.3125 19.21875 C 22.845057 20.68105 23.406545 22.276 24 24 L 20.1875 24 C 20.020109 23.4459 19.838016 22.86605 19.625 22.28125 L 19.03125 20.53125 L 12.875 20.53125 C 12.677182 21.11615 12.463025 21.69625 12.25 22.28125 C 12.052184 22.86605 11.854876 23.4459 11.6875 24 L 8 24 C 8.5934361 22.276 9.1549266 20.68105 9.6875 19.21875 C 10.22007 17.75645 10.747857 16.38675 11.25 15.09375 C 11.767352 13.80085 12.263073 12.56075 12.75 11.40625 C 13.252133 10.23645 13.77992 9.1083 14.3125 8 z M 15.90625 11.625 C 15.83016 11.8559 15.714655 12.1622 15.5625 12.5625 C 15.410327 12.9626 15.260306 13.44525 15.0625 13.96875 C 14.86468 14.49195 14.649706 15.0564 14.40625 15.6875 C 14.177999 16.3186 13.930954 16.9948 13.6875 17.6875 L 18.1875 17.6875 C 17.944029 16.9948 17.696985 16.3186 17.46875 15.6875 C 17.240494 15.0564 17.025521 14.49195 16.8125 13.96875 C 16.61468 13.44525 16.433405 12.9626 16.28125 12.5625 C 16.129077 12.1622 15.99754 11.8559 15.90625 11.625 z " transform="translate(0,1020.3622)" id="rect3059" />
    <rect y="1020.3622" x="-2.9999999e-06" height="32" width="32" id="rect3123" style="opacity:0.6;color:#000000;fill:none;stroke:none;stroke-width:1;marker:none;visibility:visible;display:inline;overflow:visible;enable-background:accumulate" />
  </g>
</svg>
