<?xml version="1.0" encoding="UTF-8" standalone="no"?>
<!-- Created with Inkscape (http://www.inkscape.org/) -->

<svg
   xmlns:dc="http://purl.org/dc/elements/1.1/"
   xmlns:cc="http://creativecommons.org/ns#"
   xmlns:rdf="http://www.w3.org/1999/02/22-rdf-syntax-ns#"
   xmlns:svg="http://www.w3.org/2000/svg"
   xmlns="http://www.w3.org/2000/svg"
   xmlns:xlink="http://www.w3.org/1999/xlink"
   version="1.1"
   width="32"
   height="32"
   id="svg3330">
  <defs
     id="defs3332">
    <linearGradient
       y1="3.0069399"
       x2="0"
       y2="11.02436"
       id="linearGradient1022-8-8-3-0-06-59-7-8-0-2"
       gradientUnits="userSpaceOnUse">
      <stop
         id="stop3001-0-9-4-9-02-6-2-81-9"
         style="stop-color:#000000;stop-opacity:1"
         offset="0" />
      <stop
         id="stop3003-5-6-6-5-70-7-1-4-9"
         style="stop-color:#363636;stop-opacity:1"
         offset="1" />
    </linearGradient>
    <linearGradient
       x1="226.85118"
       y1="530.55975"
       x2="226.85118"
       y2="543.49176"
       id="linearGradient3930"
       xlink:href="#linearGradient1022-8-8-3-0-06-59-7-8-0-2"
       gradientUnits="userSpaceOnUse"
       gradientTransform="matrix(2.3556973,0,0,2.3198273,-518.39273,-1229.807)" />
  </defs>
  <metadata
     id="metadata3335">
    <rdf:RDF>
      <cc:Work
         rdf:about="">
        <dc:format>image/svg+xml</dc:format>
        <dc:type
           rdf:resource="http://purl.org/dc/dcmitype/StillImage" />
        <dc:title></dc:title>
      </cc:Work>
    </rdf:RDF>
  </metadata>
  <g
     transform="translate(0,-1020.3622)"
     id="capa1">
    <path
       d="m 5,1022.3622 c -2.216,0 -4,1.784 -4,4 l 0,22 c 0,2.216 1.784,4 4,4 l 22,0 c 2.216,0 4,-1.784 4,-4 l 0,-22 c 0,-2.216 -1.784,-4 -4,-4 z m 5,4 2,0 0,4 2,0 1,1 0,12 -1,1 -2,0 0,4 -2,0 0,-4 -2,0 -1,-1 0,-12 1,-1 2,0 z m 10,0 2,0 0,7 3,0 0,3 -3,0 -2,0 -3,0 0,-3 3,0 z m -11,6 0,10 4,0 0,-10 z m 8,6 8,0 0,3 -3,0 0,7 -2,0 0,-7 -3,0 z"
       id="path2990"
       style="opacity:0.6;color:#000000;fill:#ffffff;fill-opacity:1;fill-rule:evenodd;stroke:none;stroke-width:1.00139093;marker:none;visibility:visible;display:inline;overflow:visible;enable-background:accumulate" />
    <rect
       width="32"
       height="32"
       x="-2.9999999e-06"
       y="1020.3622"
       id="rect3123"
       style="opacity:0.6;color:#000000;fill:none;stroke:none;stroke-width:1;marker:none;visibility:visible;display:inline;overflow:visible;enable-background:accumulate" />
    <path
       d="M 5,1 C 2.784,1 1,2.784 1,5 l 0,22 c 0,2.216 1.784,4 4,4 l 22,0 c 2.216,0 4,-1.784 4,-4 L 31,5 C 31,2.784 29.216,1 27,1 z m 5,4 2,0 0,4 2,0 1,1 0,12 -1,1 -2,0 0,4 -2,0 0,-4 -2,0 -1,-1 0,-12 1,-1 2,0 z m 10,0 2,0 0,7 3,0 0,3 -3,0 -2,0 -3,0 0,-3 3,0 z m -11,6 0,10 4,0 0,-10 z m 8,6 8,0 0,3 -3,0 0,7 -2,0 0,-7 -3,0 z"
       transform="translate(0,1020.3622)"
       id="rect3134"
       style="opacity:0.7;color:#000000;fill:url(#linearGradient3930);fill-opacity:1;fill-rule:evenodd;stroke:none;stroke-width:1.00139093;marker:none;visibility:visible;display:inline;overflow:visible;enable-background:accumulate" />
  </g>
</svg>
