<?xml version="1.0" encoding="UTF-8" standalone="no"?>
<!-- Created with Inkscape (http://www.inkscape.org/) -->

<svg xmlns:dc="http://purl.org/dc/elements/1.1/" xmlns:cc="http://creativecommons.org/ns#" xmlns:rdf="http://www.w3.org/1999/02/22-rdf-syntax-ns#" xmlns:svg="http://www.w3.org/2000/svg" xmlns="http://www.w3.org/2000/svg" xmlns:xlink="http://www.w3.org/1999/xlink" xmlns:sodipodi="http://sodipodi.sourceforge.net/DTD/sodipodi-0.dtd" xmlns:inkscape="http://www.inkscape.org/namespaces/inkscape" width="32" height="32" id="svg3330" version="1.1" inkscape:version="0.48.3.1 r9886" sodipodi:docname="applications-accessories.svg">
  <defs id="defs3332">
    <linearGradient gradientUnits="userSpaceOnUse" id="linearGradient1022-8-8-3-0-06-59-7-8-0-2" x2="0" y1="3.0069399" y2="11.02436">
      <stop offset="0" id="stop3001-0-9-4-9-02-6-2-81-9" />
      <stop offset="1" stop-color="#363636" id="stop3003-5-6-6-5-70-7-1-4-9" />
    </linearGradient>
    <linearGradient inkscape:collect="always" xlink:href="#linearGradient1022-8-8-3-0-06-59-7-8-0-2" id="linearGradient3365" gradientUnits="userSpaceOnUse" gradientTransform="matrix(2.3556973,0,0,2.3198273,-518.39273,-2250.1692)" x1="226.85118" y1="970.40381" x2="226.85118" y2="983.33582" />
  </defs>
  <sodipodi:namedview id="base" pagecolor="#ffffff" bordercolor="#666666" borderopacity="1.0" inkscape:pageopacity="0.0" inkscape:pageshadow="2" inkscape:zoom="8" inkscape:cx="21.705296" inkscape:cy="14.990694" inkscape:document-units="px" inkscape:current-layer="capa1" showgrid="true" inkscape:showpageshadow="false" inkscape:window-width="1280" inkscape:window-height="974" inkscape:window-x="0" inkscape:window-y="24" inkscape:window-maximized="1" inkscape:snap-to-guides="false" inkscape:snap-grids="true" showguides="true" inkscape:guide-bbox="true">
    <inkscape:grid type="xygrid" id="grid2990" empspacing="5" visible="true" enabled="true" snapvisiblegridlinesonly="true" />
  </sodipodi:namedview>
  <metadata id="metadata3335">
    <rdf:RDF>
      <cc:Work rdf:about="">
        <dc:format>image/svg+xml</dc:format>
        <dc:type rdf:resource="http://purl.org/dc/dcmitype/StillImage" />
        <dc:title />
      </cc:Work>
    </rdf:RDF>
  </metadata>
  <g inkscape:label="Capa 1" inkscape:groupmode="layer" id="capa1" transform="translate(0,-1020.3622)">
    <path id="path3357" d="m 5,1022.3622 c -2.216,0 -4,1.784 -4,4 l 0,22 c 0,2.216 1.784,4 4,4 l 22,0 c 2.216,0 4,-1.784 4,-4 l 0,-22 c 0,-2.216 -1.784,-4 -4,-4 l -22,0 z m 7,6 2,4 -4,0 2,-4 z m 7,0 2,2 2,0 0,6 -1,0 0,-5 -1,0 0,2 -4,0 0,-3 2,-2 z m -9,5 4,0 0,13 -4,0 0,-13 z m 7,1 4,0 0,12 -4,0 0,-12 z" style="opacity:0.6;color:#000000;fill:#ffffff;fill-opacity:1;fill-rule:nonzero;stroke:none;stroke-width:1;marker:none;visibility:visible;display:inline;overflow:visible;enable-background:accumulate" inkscape:connector-curvature="0" />
    <path style="opacity:0.69999999999999996;color:#000000;fill:url(#linearGradient3365);fill-opacity:1;fill-rule:nonzero;stroke:none;stroke-width:1.00139092999999990;marker:none;visibility:visible;display:inline;overflow:visible;enable-background:accumulate" d="M 5 1 C 2.784 1 1 2.784 1 5 L 1 27 C 1 29.216 2.784 31 5 31 L 27 31 C 29.216 31 31 29.216 31 27 L 31 5 C 31 2.784 29.216 1 27 1 L 5 1 z M 12 7 L 14 11 L 10 11 L 12 7 z M 19 7 L 21 9 L 23 9 L 23 15 L 22 15 L 22 10 L 21 10 L 21 12 L 17 12 L 17 9 L 19 7 z M 10 12 L 14 12 L 14 25 L 10 25 L 10 12 z M 17 13 L 21 13 L 21 25 L 17 25 L 17 13 z " transform="translate(0,1020.3622)" id="path3099" />
    <rect y="1020.3622" x="-2.9999999e-06" height="32" width="32" id="rect3123" style="opacity:0.6;color:#000000;fill:none;stroke:none;stroke-width:1;marker:none;visibility:visible;display:inline;overflow:visible;enable-background:accumulate" />
  </g>
</svg>
