<?xml version="1.0" encoding="UTF-8" standalone="no"?>
<!-- Created with Inkscape (http://www.inkscape.org/) -->

<svg xmlns:dc="http://purl.org/dc/elements/1.1/" xmlns:cc="http://creativecommons.org/ns#" xmlns:rdf="http://www.w3.org/1999/02/22-rdf-syntax-ns#" xmlns:svg="http://www.w3.org/2000/svg" xmlns="http://www.w3.org/2000/svg" xmlns:xlink="http://www.w3.org/1999/xlink" xmlns:sodipodi="http://sodipodi.sourceforge.net/DTD/sodipodi-0.dtd" xmlns:inkscape="http://www.inkscape.org/namespaces/inkscape" width="32" height="32" id="svg3330" version="1.1" inkscape:version="0.48.3.1 r9886" sodipodi:docname="applications-graphics.svg">
  <defs id="defs3332">
    <linearGradient gradientUnits="userSpaceOnUse" id="linearGradient1022-8-8-3-0-06-59-7-8-0-2" x2="0" y1="3.0069399" y2="11.02436">
      <stop offset="0" id="stop3001-0-9-4-9-02-6-2-81-9" />
      <stop offset="1" stop-color="#363636" id="stop3003-5-6-6-5-70-7-1-4-9" />
    </linearGradient>
    <linearGradient inkscape:collect="always" xlink:href="#linearGradient1022-8-8-3-0-06-59-7-8-0-2" id="linearGradient3869" gradientUnits="userSpaceOnUse" gradientTransform="matrix(2.3556973,0,0,2.3198273,-518.39273,-209.44474)" x1="226.85118" y1="530.55975" x2="226.85118" y2="543.4917" />
  </defs>
  <sodipodi:namedview id="base" pagecolor="#ffffff" bordercolor="#666666" borderopacity="1.0" inkscape:pageopacity="0.0" inkscape:pageshadow="2" inkscape:zoom="16" inkscape:cx="22.62252" inkscape:cy="18.108427" inkscape:document-units="px" inkscape:current-layer="capa1" showgrid="true" inkscape:showpageshadow="false" inkscape:window-width="1280" inkscape:window-height="977" inkscape:window-x="0" inkscape:window-y="24" inkscape:window-maximized="1" inkscape:snap-to-guides="false" inkscape:snap-grids="true" showguides="true" inkscape:guide-bbox="true">
    <inkscape:grid type="xygrid" id="grid2990" empspacing="5" visible="true" enabled="true" snapvisiblegridlinesonly="true" />
  </sodipodi:namedview>
  <metadata id="metadata3335">
    <rdf:RDF>
      <cc:Work rdf:about="">
        <dc:format>image/svg+xml</dc:format>
        <dc:type rdf:resource="http://purl.org/dc/dcmitype/StillImage" />
        <dc:title />
      </cc:Work>
    </rdf:RDF>
  </metadata>
  <g inkscape:label="Capa 1" inkscape:groupmode="layer" id="capa1" transform="translate(0,-1020.3622)">
    <rect y="1020.3622" x="-2.9999999e-06" height="32" width="32" id="rect3123" style="opacity:0.6;color:#000000;fill:none;stroke:none;stroke-width:1;marker:none;visibility:visible;display:inline;overflow:visible;enable-background:accumulate" />
    <path d="m 5,1022.3622 22,0 c 2.216,0 4,1.784 4,4 l 0,22 c 0,2.216 -1.784,4 -4,4 l -22,0 c -2.216,0 -4,-1.784 -4,-4 l 0,-22 c 0,-2.216 1.784,-4 4,-4 z m 10,11 3,0 0,7 -3,0 0,-7 z m 1.5,-5 1.5,3 0,1 -3,0 0,-1 1.5,-3 z m -8.5,0 5,5 0,4 -2,-2 0,7 9,0 0,-3 6,6 -18,0 0,-17 z" style="opacity:0.6;color:#000000;fill:#ffffff;fill-opacity:1;fill-rule:nonzero;stroke:none;stroke-width:1;marker:none;visibility:visible;display:inline;overflow:visible;enable-background:accumulate" id="path3871" inkscape:connector-curvature="0" />
    <path id="rect3134" style="opacity:0.69999999999999996;color:#000000;fill:url(#linearGradient3869);fill-opacity:1;fill-rule:evenodd;stroke:none;stroke-width:1.00139092999999990;marker:none;visibility:visible;display:inline;overflow:visible;enable-background:accumulate" d="m 5,1021.3622 22,0 c 2.216,0 4,1.784 4,4 l 0,22 c 0,2.216 -1.784,4 -4,4 l -22,0 c -2.216,0 -4,-1.784 -4,-4 l 0,-22 c 0,-2.216 1.784,-4 4,-4 z m 10,11 3,0 0,7 -3,0 0,-7 z m 1.5,-5 1.5,3 0,1 -3,0 0,-1 1.5,-3 z m -8.5,0 5,5 0,4 -2,-2 0,7 9,0 0,-3 6,6 -18,0 0,-17 z" />
  </g>
</svg>
