<?xml version="1.0" encoding="UTF-8" standalone="no"?>
<!-- Created with Inkscape (http://www.inkscape.org/) -->

<svg xmlns:dc="http://purl.org/dc/elements/1.1/" xmlns:cc="http://creativecommons.org/ns#" xmlns:rdf="http://www.w3.org/1999/02/22-rdf-syntax-ns#" xmlns:svg="http://www.w3.org/2000/svg" xmlns="http://www.w3.org/2000/svg" xmlns:xlink="http://www.w3.org/1999/xlink" xmlns:sodipodi="http://sodipodi.sourceforge.net/DTD/sodipodi-0.dtd" xmlns:inkscape="http://www.inkscape.org/namespaces/inkscape" width="32" height="32" id="svg3330" version="1.1" inkscape:version="0.48.3.1 r9886" sodipodi:docname="applications-multimedia.svg">
  <defs id="defs3332">
    <linearGradient gradientUnits="userSpaceOnUse" id="linearGradient1022-8-8-3-0-06-59-7-8-0-2" x2="0" y1="3.0069399" y2="11.02436">
      <stop offset="0" id="stop3001-0-9-4-9-02-6-2-81-9" />
      <stop offset="1" stop-color="#363636" id="stop3003-5-6-6-5-70-7-1-4-9" />
    </linearGradient>
    <linearGradient inkscape:collect="always" xlink:href="#linearGradient1022-8-8-3-0-06-59-7-8-0-2" id="linearGradient4454" gradientUnits="userSpaceOnUse" gradientTransform="matrix(2.3556973,0,0,2.3198273,-518.39273,-1229.807)" x1="226.85118" y1="530.55975" x2="226.85118" y2="543.49176" />
  </defs>
  <sodipodi:namedview id="base" pagecolor="#ffffff" bordercolor="#666666" borderopacity="1.0" inkscape:pageopacity="0.0" inkscape:pageshadow="2" inkscape:zoom="15.839192" inkscape:cx="15.072772" inkscape:cy="17.341381" inkscape:document-units="px" inkscape:current-layer="capa1" showgrid="true" inkscape:showpageshadow="false" inkscape:window-width="1280" inkscape:window-height="976" inkscape:window-x="0" inkscape:window-y="24" inkscape:window-maximized="1" inkscape:snap-to-guides="false" inkscape:snap-grids="true" showguides="true" inkscape:guide-bbox="true">
    <inkscape:grid type="xygrid" id="grid2990" empspacing="5" visible="true" enabled="true" snapvisiblegridlinesonly="true" />
  </sodipodi:namedview>
  <metadata id="metadata3335">
    <rdf:RDF>
      <cc:Work rdf:about="">
        <dc:format>image/svg+xml</dc:format>
        <dc:type rdf:resource="http://purl.org/dc/dcmitype/StillImage" />
        <dc:title />
      </cc:Work>
    </rdf:RDF>
  </metadata>
  <g inkscape:label="Capa 1" inkscape:groupmode="layer" id="capa1" transform="translate(0,-1020.3622)">
    <rect y="1020.3622" x="-2.9999999e-06" height="32" width="32" id="rect3123" style="opacity:0.6;color:#000000;fill:none;stroke:none;stroke-width:1;marker:none;visibility:visible;display:inline;overflow:visible;enable-background:accumulate" />
    <path id="path4457" d="m 5,1022.3622 c -2.216,0 -4,1.784 -4,4 l 0,22 c 0,2.216 1.784,4 4,4 l 22,0 c 2.216,0 4,-1.784 4,-4 l 0,-22 c 0,-2.216 -1.784,-4 -4,-4 l -22,0 z m 2,6 1,0 0,1 2,0 0,-1 1,0 0,3 8,0 0,-2 0,-1 1,0 0,1 2,0 0,-1 1,0 0,1 0,4 0,2 0,1 -4,0 0,-1 0,-2 -8,0 0,5 5,0 0,2 -5,0 0,4 -1,0 0,-2 -2,0 0,2 -1,0 0,-16 z m 13,2 0,2 2,0 0,-2 -2,0 z m -12,1 0,3 2,0 0,-3 -2,0 z m 12,2 0,2 2,0 0,-2 -2,0 z m -12,4 0,3 2,0 0,-3 -2,0 z m 9,0 8,0 0,7 c 0,1.1046 -0.895431,2 -2,2 -1.104569,0 -2,-0.8954 -2,-2 0,-1.1046 0.895431,-2 2,-2 0.364965,0 0.705456,0.1105 1,0.2813 l 0,-3.2813 -6,0 0,5 c 0,1.1046 -0.895431,2 -2,2 -1.104569,0 -2,-0.8954 -2,-2 0,-1.1046 0.895431,-2 2,-2 0.364965,0 0.705456,0.1105 1,0.2813 l 0,-5.2813 z" style="opacity:0.59999999999999998;color:#000000;fill:#ffffff;fill-opacity:1;fill-rule:nonzero;stroke:none;stroke-width:1;marker:none;visibility:visible;display:inline;overflow:visible;enable-background:accumulate" inkscape:connector-curvature="0" />
    <path style="opacity:0.69999999999999996;color:#000000;fill:url(#linearGradient4454);fill-opacity:1;fill-rule:evenodd;stroke:none;stroke-width:1.00139092999999990;marker:none;visibility:visible;display:inline;overflow:visible;enable-background:accumulate" d="M 5 1 C 2.784 1 1 2.784 1 5 L 1 27 C 1 29.216 2.784 31 5 31 L 27 31 C 29.216 31 31 29.216 31 27 L 31 5 C 31 2.784 29.216 1 27 1 L 5 1 z M 7 7 L 8 7 L 8 8 L 10 8 L 10 7 L 11 7 L 11 10 L 19 10 L 19 8 L 19 7 L 20 7 L 20 8 L 22 8 L 22 7 L 23 7 L 23 8 L 23 12 L 23 14 L 23 15 L 19 15 L 19 14 L 19 12 L 11 12 L 11 17 L 16 17 L 16 19 L 11 19 L 11 23 L 10 23 L 10 21 L 8 21 L 8 23 L 7 23 L 7 7 z M 20 9 L 20 11 L 22 11 L 22 9 L 20 9 z M 8 10 L 8 13 L 10 13 L 10 10 L 8 10 z M 20 12 L 20 14 L 22 14 L 22 12 L 20 12 z M 8 16 L 8 19 L 10 19 L 10 16 L 8 16 z M 17 16 L 25 16 L 25 23 C 25 24.1046 24.104569 25 23 25 C 21.895431 25 21 24.1046 21 23 C 21 21.8954 21.895431 21 23 21 C 23.364965 21 23.705456 21.11045 24 21.28125 L 24 18 L 18 18 L 18 23 C 18 24.1046 17.104569 25 16 25 C 14.895431 25 14 24.1046 14 23 C 14 21.8954 14.895431 21 16 21 C 16.364965 21 16.705456 21.11045 17 21.28125 L 17 16 z " transform="translate(0,1020.3622)" id="path3313" />
  </g>
</svg>
