<?xml version="1.0" encoding="UTF-8" standalone="no"?>
<!-- Created with Inkscape (http://www.inkscape.org/) -->

<svg xmlns:dc="http://purl.org/dc/elements/1.1/" xmlns:cc="http://creativecommons.org/ns#" xmlns:rdf="http://www.w3.org/1999/02/22-rdf-syntax-ns#" xmlns:svg="http://www.w3.org/2000/svg" xmlns="http://www.w3.org/2000/svg" xmlns:xlink="http://www.w3.org/1999/xlink" xmlns:sodipodi="http://sodipodi.sourceforge.net/DTD/sodipodi-0.dtd" xmlns:inkscape="http://www.inkscape.org/namespaces/inkscape" width="32" height="32" id="svg3330" version="1.1" inkscape:version="0.48.3.1 r9886" sodipodi:docname="applications-internet.svg">
  <defs id="defs3332">
    <linearGradient gradientUnits="userSpaceOnUse" id="linearGradient1022-8-8-3-0-06-59-7-8-0-2" x2="0" y1="3.0069399" y2="11.02436">
      <stop offset="0" id="stop3001-0-9-4-9-02-6-2-81-9" />
      <stop offset="1" stop-color="#363636" id="stop3003-5-6-6-5-70-7-1-4-9" />
    </linearGradient>
    <linearGradient inkscape:collect="always" xlink:href="#linearGradient1022-8-8-3-0-06-59-7-8-0-2" id="linearGradient3225" gradientUnits="userSpaceOnUse" gradientTransform="matrix(2.3556973,0,0,2.3198273,-518.39273,-2250.1692)" x1="226.85118" y1="970.40381" x2="226.85118" y2="983.33582" />
  </defs>
  <sodipodi:namedview id="base" pagecolor="#ffffff" bordercolor="#666666" borderopacity="1.0" inkscape:pageopacity="0.0" inkscape:pageshadow="2" inkscape:zoom="11.313709" inkscape:cx="17.782515" inkscape:cy="22.178194" inkscape:document-units="px" inkscape:current-layer="capa1" showgrid="true" inkscape:showpageshadow="false" inkscape:window-width="1280" inkscape:window-height="974" inkscape:window-x="0" inkscape:window-y="24" inkscape:window-maximized="1" inkscape:snap-to-guides="false" inkscape:snap-grids="true" showguides="true" inkscape:guide-bbox="true">
    <inkscape:grid type="xygrid" id="grid2990" empspacing="5" visible="true" enabled="true" snapvisiblegridlinesonly="true" />
  </sodipodi:namedview>
  <metadata id="metadata3335">
    <rdf:RDF>
      <cc:Work rdf:about="">
        <dc:format>image/svg+xml</dc:format>
        <dc:type rdf:resource="http://purl.org/dc/dcmitype/StillImage" />
        <dc:title />
      </cc:Work>
    </rdf:RDF>
  </metadata>
  <g inkscape:label="Capa 1" inkscape:groupmode="layer" id="capa1" transform="translate(0,-1020.3622)">
    <path id="path3261" d="m 5,1022.3622 c -2.216,0 -4,1.784 -4,4 l 0,22 c 0,2.216 1.784,4 4,4 l 22,0 c 2.216,0 4,-1.784 4,-4 l 0,-22 c 0,-2.216 -1.784,-4 -4,-4 l -22,0 z m 11,5 c 2.62488,0 5.205809,1.0809 7.0625,2.9375 1.856691,1.8567 2.9375,4.4672 2.9375,7.0938 0,2.6264 -1.080813,5.206 -2.9375,7.0625 -1.287003,1.287 -2.927403,2.1594 -4.6875,2.5937 a 0.68613292,0.68824254 0 0 1 -0.0625,0.031 c -0.04094,0.01 -0.08393,0.021 -0.125,0.031 -0.719875,0.1628 -1.446772,0.25 -2.1875,0.25 -2.62488,0 -5.205809,-1.0496 -7.0625,-2.9062 C 7.080809,1042.5994 6,1039.9886 6,1037.3622 c 0,-2.6266 1.080809,-5.2058 2.9375,-7.0625 1.856691,-1.8566 4.43762,-2.9375 7.0625,-2.9375 z m 0,1.375 c -0.489526,0 -1.016826,0.07 -1.5,0.1563 a 0.68613292,0.68824254 0 0 1 -0.03125,0.062 c -0.506891,1.0591 -0.9136,2.1702 -1.21875,3.3125 1.791652,0.1935 3.675945,0.1913 5.46875,0 -0.307085,-1.1423 -0.711858,-2.2534 -1.21875,-3.3125 a 0.68613292,0.68824254 0 0 1 -0.03125,-0.062 c -0.483174,-0.085 -0.979223,-0.1563 -1.46875,-0.1563 z m -3.1875,0.6563 c -1.089015,0.4316 -2.11283,1.0503 -2.9375,1.875 -0.091971,0.092 -0.131296,0.2165 -0.21875,0.3125 0.715263,0.2191 1.446051,0.3643 2.25,0.5 0.239396,-0.9189 0.545425,-1.8111 0.90625,-2.6875 z m 6.375,0 c 0.360825,0.8764 0.666854,1.7686 0.90625,2.6875 0.793607,-0.1339 1.511301,-0.2847 2.21875,-0.5 -0.08764,-0.096 -0.12678,-0.2205 -0.21875,-0.3125 -0.817843,-0.8179 -1.827657,-1.4435 -2.90625,-1.875 z m -10.46875,3.3437 c -0.7415601,1.1818 -1.1931101,2.5513 -1.3125,3.9375 l 3.84375,0 c 0.04689,-1.0802 0.138342,-2.1547 0.34375,-3.2187 -1.010531,-0.1799 -1.9786884,-0.4102 -2.875,-0.7188 z m 14.53125,0 c -0.888712,0.3042 -1.843408,0.5406 -2.84375,0.7188 0.205408,1.0639 0.29685,2.1385 0.34375,3.2187 l 3.84375,0 c -0.122989,-1.3862 -0.594631,-2.7557 -1.34375,-3.9375 z m -10.3125,0.9375 c -0.19069,0.9869 -0.26671,1.9971 -0.3125,3 l 6.75,0 c -0.04834,-1.0029 -0.15099,-2.0131 -0.34375,-3 -1.990439,0.2336 -4.10437,0.2359 -6.09375,0 z m -5.53125,4.375 c 0.1124293,1.4103 0.5527396,2.8051 1.3125,4 0.87084,-0.3006 1.803404,-0.5387 2.78125,-0.7187 -0.189114,-1.0806 -0.25964,-2.1744 -0.28125,-3.2813 l -3.8125,0 z m 5.1875,0 c 0.02199,1.0329 0.105354,2.0568 0.28125,3.0625 1.025553,-0.1271 2.069611,-0.1875 3.125,-0.1875 1.049785,0 2.06773,0.062 3.09375,0.1875 0.173765,-1.006 0.29315,-2.0292 0.3125,-3.0625 l -6.8125,0 z m 8.1875,0 c -0.02162,1.1069 -0.09214,2.2006 -0.28125,3.2813 0.969834,0.1774 1.888147,0.3927 2.75,0.6875 0.759142,-1.1899 1.22862,-2.5672 1.34375,-3.9688 l -3.8125,0 z M 16,1042.3622 c -0.957938,0 -1.914779,0.052 -2.84375,0.1563 0.291214,1.1552 0.715408,2.2618 1.21875,3.3125 0.533292,0.1047 1.083011,0.1562 1.625,0.1562 0.55218,0 1.082031,-0.048 1.625,-0.1562 0.503141,-1.0507 0.929691,-2.1573 1.21875,-3.3125 -0.928971,-0.1035 -1.885812,-0.1563 -2.84375,-0.1563 z m -4.21875,0.3438 c -0.750914,0.1312 -1.421617,0.2952 -2.09375,0.5 0.075221,0.082 0.108985,0.171 0.1875,0.25 0.785438,0.7855 1.751975,1.413 2.78125,1.8437 -0.340908,-0.8511 -0.655046,-1.6937 -0.875,-2.5937 z m 8.4375,0 c -0.219954,0.9 -0.534092,1.7426 -0.875,2.5937 1.019473,-0.4303 1.971023,-1.0647 2.75,-1.8437 0.08894,-0.089 0.13386,-0.1893 0.21875,-0.2813 -0.669721,-0.2036 -1.345977,-0.338 -2.09375,-0.4687 z" style="opacity:0.6;color:#000000;fill:#ffffff;fill-opacity:1;fill-rule:nonzero;stroke:none;stroke-width:1;marker:none;visibility:visible;display:inline;overflow:visible;enable-background:accumulate" inkscape:connector-curvature="0" />
    <path style="opacity:0.69999999999999996;color:#000000;fill:url(#linearGradient3225);fill-opacity:1;fill-rule:evenodd;stroke:none;stroke-width:1.00139092999999990;marker:none;visibility:visible;display:inline;overflow:visible;enable-background:accumulate" d="M 5 1 C 2.784 1 1 2.784 1 5 L 1 27 C 1 29.216 2.784 31 5 31 L 27 31 C 29.216 31 31 29.216 31 27 L 31 5 C 31 2.784 29.216 1 27 1 L 5 1 z M 16 6 C 18.62488 6 21.205809 7.0809 23.0625 8.9375 C 24.919191 10.7942 26 13.40465 26 16.03125 C 26 18.65765 24.919187 21.23725 23.0625 23.09375 C 21.775497 24.38075 20.135097 25.2532 18.375 25.6875 A 0.68613292 0.68824254 0 0 1 18.3125 25.71875 C 18.271559 25.72875 18.22857 25.74 18.1875 25.75 C 17.467625 25.9128 16.740728 26 16 26 C 13.37512 26 10.794191 24.95035 8.9375 23.09375 C 7.080809 21.23715 6 18.6264 6 16 C 6 13.3734 7.080809 10.7942 8.9375 8.9375 C 10.794191 7.0809 13.37512 6 16 6 z M 16 7.375 C 15.510474 7.375 14.983174 7.44525 14.5 7.53125 A 0.68613292 0.68824254 0 0 1 14.46875 7.59375 C 13.961859 8.65285 13.55515 9.76395 13.25 10.90625 C 15.041652 11.09975 16.925945 11.09755 18.71875 10.90625 C 18.411665 9.76395 18.006892 8.65285 17.5 7.59375 A 0.68613292 0.68824254 0 0 1 17.46875 7.53125 C 16.985576 7.44655 16.489527 7.375 16 7.375 z M 12.8125 8.03125 C 11.723485 8.46285 10.69967 9.08155 9.875 9.90625 C 9.7830291 9.99825 9.743704 10.12275 9.65625 10.21875 C 10.371513 10.43785 11.102301 10.58305 11.90625 10.71875 C 12.145646 9.79985 12.451675 8.90765 12.8125 8.03125 z M 19.1875 8.03125 C 19.548325 8.90765 19.854354 9.79985 20.09375 10.71875 C 20.887357 10.58485 21.605051 10.43405 22.3125 10.21875 C 22.224859 10.12225 22.18572 9.99825 22.09375 9.90625 C 21.275907 9.08835 20.266093 8.46275 19.1875 8.03125 z M 8.71875 11.375 C 7.9771899 12.5568 7.5256399 13.9263 7.40625 15.3125 L 11.25 15.3125 C 11.296893 14.2323 11.388342 13.15775 11.59375 12.09375 C 10.583219 11.91385 9.6150616 11.6836 8.71875 11.375 z M 23.25 11.375 C 22.361288 11.6792 21.406592 11.91555 20.40625 12.09375 C 20.611658 13.15765 20.7031 14.2323 20.75 15.3125 L 24.59375 15.3125 C 24.470761 13.9263 23.999119 12.5568 23.25 11.375 z M 12.9375 12.3125 C 12.74681 13.2994 12.67079 14.3096 12.625 15.3125 L 19.375 15.3125 C 19.326662 14.3096 19.22401 13.2994 19.03125 12.3125 C 17.040811 12.5461 14.92688 12.5484 12.9375 12.3125 z M 7.40625 16.6875 C 7.5186793 18.0978 7.9589896 19.4926 8.71875 20.6875 C 9.58959 20.3869 10.522154 20.14875 11.5 19.96875 C 11.310886 18.88815 11.24036 17.7944 11.21875 16.6875 L 7.40625 16.6875 z M 12.59375 16.6875 C 12.615744 17.7204 12.699104 18.7443 12.875 19.75 C 13.900553 19.6229 14.944611 19.5625 16 19.5625 C 17.049785 19.5625 18.06773 19.624 19.09375 19.75 C 19.267515 18.744 19.3869 17.7208 19.40625 16.6875 L 12.59375 16.6875 z M 20.78125 16.6875 C 20.759635 17.7944 20.689114 18.88805 20.5 19.96875 C 21.469834 20.14615 22.388147 20.36145 23.25 20.65625 C 24.009142 19.46635 24.47862 18.0891 24.59375 16.6875 L 20.78125 16.6875 z M 16 21 C 15.042062 21 14.085221 21.05235 13.15625 21.15625 C 13.447464 22.31145 13.871658 23.41805 14.375 24.46875 C 14.908292 24.57345 15.458011 24.625 16 24.625 C 16.55218 24.625 17.082031 24.57675 17.625 24.46875 C 18.128141 23.41805 18.554691 22.31145 18.84375 21.15625 C 17.914779 21.05275 16.957938 21 16 21 z M 11.78125 21.34375 C 11.030336 21.47495 10.359633 21.63895 9.6875 21.84375 C 9.762721 21.92535 9.796485 22.01475 9.875 22.09375 C 10.660438 22.87925 11.626975 23.5068 12.65625 23.9375 C 12.315342 23.0864 12.001204 22.24375 11.78125 21.34375 z M 20.21875 21.34375 C 19.998796 22.24375 19.684658 23.0864 19.34375 23.9375 C 20.363223 23.5072 21.314773 22.87275 22.09375 22.09375 C 22.182694 22.00485 22.22761 21.9045 22.3125 21.8125 C 21.642779 21.6089 20.966523 21.47445 20.21875 21.34375 z " transform="translate(0,1020.3622)" id="path3220" />
    <rect y="1020.3622" x="-2.9999999e-06" height="32" width="32" id="rect3123" style="opacity:0.6;color:#000000;fill:none;stroke:none;stroke-width:1;marker:none;visibility:visible;display:inline;overflow:visible;enable-background:accumulate" />
  </g>
</svg>
