<?xml version="1.0" encoding="UTF-8" standalone="no"?>
<!-- Created with Inkscape (http://www.inkscape.org/) -->

<svg xmlns:dc="http://purl.org/dc/elements/1.1/" xmlns:cc="http://creativecommons.org/ns#" xmlns:rdf="http://www.w3.org/1999/02/22-rdf-syntax-ns#" xmlns:svg="http://www.w3.org/2000/svg" xmlns="http://www.w3.org/2000/svg" xmlns:xlink="http://www.w3.org/1999/xlink" xmlns:sodipodi="http://sodipodi.sourceforge.net/DTD/sodipodi-0.dtd" xmlns:inkscape="http://www.inkscape.org/namespaces/inkscape" width="32" height="32" id="svg3330" version="1.1" inkscape:version="0.48.4 r9939" sodipodi:docname="applications-education32.svg">
    <defs id="defs3332">
        <linearGradient gradientUnits="userSpaceOnUse" id="linearGradient1022-8-8-3-0-06-59-7-8-0-2" x2="0" y1="3.0069399" y2="11.02436">
            <stop offset="0" id="stop3001-0-9-4-9-02-6-2-81-9" />
            <stop offset="1" stop-color="#363636" id="stop3003-5-6-6-5-70-7-1-4-9" />
        </linearGradient>
        <linearGradient inkscape:collect="always" xlink:href="#linearGradient1022-8-8-3-0-06-59-7-8-0-2" id="linearGradient3869" gradientUnits="userSpaceOnUse" gradientTransform="matrix(2.3556973,0,0,2.3198273,-518.39273,-1229.8069)" x1="226.85118" y1="530.55975" x2="226.85118" y2="543.4917" />
        <linearGradient inkscape:collect="always" xlink:href="#linearGradient1022-8-8-3-0-06-59-7-8-0-2" id="linearGradient2999" gradientUnits="userSpaceOnUse" gradientTransform="matrix(3.9261622,0,0,1.3256155,-880.98788,-699.60396)" x1="226.85118" y1="530.55975" x2="226.85118" y2="543.4917" />
        <linearGradient inkscape:collect="always" xlink:href="#linearGradient1022-8-8-3-0-27" id="linearGradient3927" gradientUnits="userSpaceOnUse" gradientTransform="matrix(11.759936,0,0,2.6544554,-2703.3254,1800.8736)" x1="231.23639" y1="-291.77792" x2="231.2364" y2="-284.99683" />
        <linearGradient y2="11.02436" y1="3.0069399" x2="0" id="linearGradient1022-8-8-3-0-27" gradientUnits="userSpaceOnUse">
            <stop id="stop3001-0-9-4-6" offset="0" />
            <stop id="stop3003-5-6-6-01" stop-color="#363636" offset="1" />
        </linearGradient>
        <linearGradient inkscape:collect="always" xlink:href="#linearGradient1022-8-8-3-0-06-59-7-8-0-2" id="linearGradient3012" gradientUnits="userSpaceOnUse" gradientTransform="matrix(3.9261622,0,0,0.66280777,-880.98788,679.56022)" x1="226.85118" y1="530.55975" x2="226.85118" y2="543.4917" />
        <linearGradient inkscape:collect="always" xlink:href="#linearGradient1022-8-8-3-0-06-59-7-8-0-2" id="linearGradient3016" gradientUnits="userSpaceOnUse" gradientTransform="matrix(3.9261622,0,0,0.66280777,-880.98788,683.56022)" x1="226.85118" y1="530.55975" x2="226.85118" y2="543.4917" />
        <linearGradient inkscape:collect="always" xlink:href="#linearGradient1022-8-8-3-0-06-59-7-8-0-2" id="linearGradient3024" gradientUnits="userSpaceOnUse" gradientTransform="matrix(3.9261622,0,0,0.66280777,-869.98788,675.56022)" x1="226.85118" y1="530.55975" x2="226.85118" y2="543.4917" />
        <linearGradient inkscape:collect="always" xlink:href="#linearGradient1022-8-8-3-0-06-59-7-8-0-2" id="linearGradient3026" gradientUnits="userSpaceOnUse" gradientTransform="matrix(3.9261622,0,0,0.66280777,-869.98788,679.56022)" x1="226.85118" y1="530.55975" x2="226.85118" y2="543.4917" />
        <linearGradient inkscape:collect="always" xlink:href="#linearGradient1022-8-8-3-0-06-59-7-8-0-2" id="linearGradient3028" gradientUnits="userSpaceOnUse" gradientTransform="matrix(3.9261622,0,0,0.66280777,-869.98788,683.56022)" x1="226.85118" y1="530.55975" x2="226.85118" y2="543.4917" />
        <linearGradient inkscape:collect="always" xlink:href="#linearGradient1022-8-8-3-0-06-59-7-8-0-2" id="linearGradient3031" gradientUnits="userSpaceOnUse" gradientTransform="matrix(3.9261622,0,0,1.3256155,-880.98788,-699.60396)" x1="227.9549" y1="532.28406" x2="227.9549" y2="548.12573" />
    </defs>
    <sodipodi:namedview id="base" pagecolor="#ffffff" bordercolor="#666666" borderopacity="1.0" inkscape:pageopacity="0.0" inkscape:pageshadow="2" inkscape:zoom="16" inkscape:cx="13.843517" inkscape:cy="19.584314" inkscape:document-units="px" inkscape:current-layer="capa1" showgrid="true" inkscape:showpageshadow="false" inkscape:window-width="1280" inkscape:window-height="951" inkscape:window-x="0" inkscape:window-y="0" inkscape:window-maximized="1" inkscape:snap-to-guides="false" inkscape:snap-grids="true" showguides="true" inkscape:guide-bbox="true" inkscape:snap-nodes="true" inkscape:snap-bbox="true" inkscape:bbox-nodes="true" inkscape:snap-bbox-edge-midpoints="true" inkscape:bbox-paths="true">
        <inkscape:grid type="xygrid" id="grid2990" empspacing="5" visible="true" enabled="true" snapvisiblegridlinesonly="true" />
    </sodipodi:namedview>
    <metadata id="metadata3335">
        <rdf:RDF>
            <cc:Work rdf:about="">
                <dc:format>image/svg+xml</dc:format>
                <dc:type rdf:resource="http://purl.org/dc/dcmitype/StillImage" />
                <dc:title />
            </cc:Work>
        </rdf:RDF>
    </metadata>
    <g inkscape:label="Capa 1" inkscape:groupmode="layer" id="capa1" transform="translate(0,-1020.3622)">
        <path style="opacity:0.69999999999999996;color:#000000;fill:url(#linearGradient3869);fill-opacity:1;fill-rule:evenodd;stroke:none;stroke-width:1.00139092999999990;marker:none;visibility:visible;display:inline;overflow:visible;enable-background:accumulate" d="M 5 1 C 2.784 1 1 2.784 1 5 L 1 27 C 1 29.216 2.784 31 5 31 L 27 31 C 29.216 31 31 29.216 31 27 L 31 5 C 31 2.784 29.216 1 27 1 L 5 1 z M 7 6 L 14 6 L 16 8 L 18 6 L 25 6 L 28 9 L 28 24 L 26 26 L 17 26 L 16 27 L 15 26 L 6 26 L 4 24 L 4 9 L 7 6 z M 7 8 L 6 9 L 6 23 L 7 22 L 14 22 L 15 23 L 15 9 L 14 8 L 7 8 z M 18 8 L 17 9 L 17 23 L 18 22 L 25 22 L 26 23 L 26 9 L 25 8 L 18 8 z M 8 10 L 13 10 L 13 14 L 13 16 L 8 16 L 8 14 L 8 10 z M 19 10 L 24 10 L 24 12 L 19 12 L 19 10 z M 19 14 L 24 14 L 24 16 L 19 16 L 19 14 z M 8 18 L 13 18 L 13 20 L 8 20 L 8 18 z M 19 18 L 24 18 L 24 20 L 19 20 L 19 18 z " transform="translate(0,1020.3622)" id="path2995" />
    </g>
</svg>
