<?xml version="1.0" encoding="UTF-8" standalone="no"?>
<!-- Created with Inkscape (http://www.inkscape.org/) -->

<svg xmlns:dc="http://purl.org/dc/elements/1.1/" xmlns:cc="http://creativecommons.org/ns#" xmlns:rdf="http://www.w3.org/1999/02/22-rdf-syntax-ns#" xmlns:svg="http://www.w3.org/2000/svg" xmlns="http://www.w3.org/2000/svg" xmlns:xlink="http://www.w3.org/1999/xlink" xmlns:sodipodi="http://sodipodi.sourceforge.net/DTD/sodipodi-0.dtd" xmlns:inkscape="http://www.inkscape.org/namespaces/inkscape" width="32" height="32" id="svg3330" version="1.1" inkscape:version="0.48.3.1 r9886" sodipodi:docname="distributor-logo.svg">
  <defs id="defs3332">
    <linearGradient gradientUnits="userSpaceOnUse" id="linearGradient1022-8-8-3-0-06-59-7-8-0-2" x2="0" y1="3.0069399" y2="11.02436">
      <stop offset="0" id="stop3001-0-9-4-9-02-6-2-81-9" />
      <stop offset="1" stop-color="#363636" id="stop3003-5-6-6-5-70-7-1-4-9" />
    </linearGradient>
    <linearGradient inkscape:collect="always" xlink:href="#linearGradient1022-8-8-3-0-06-59-7-8-0-2" id="linearGradient3034" gradientUnits="userSpaceOnUse" gradientTransform="matrix(2.3556973,0,0,2.3198273,-518.39273,-3270.5314)" x1="226.42668" y1="1410.2478" x2="226.42668" y2="1423.1798" />
  </defs>
  <sodipodi:namedview id="base" pagecolor="#ffffff" bordercolor="#666666" borderopacity="1.0" inkscape:pageopacity="0.0" inkscape:pageshadow="2" inkscape:zoom="15.999999" inkscape:cx="24.975665" inkscape:cy="18.183398" inkscape:document-units="px" inkscape:current-layer="capa1" showgrid="true" inkscape:showpageshadow="false" inkscape:window-width="1280" inkscape:window-height="976" inkscape:window-x="0" inkscape:window-y="24" inkscape:window-maximized="1" inkscape:snap-to-guides="false" inkscape:snap-grids="true" showguides="true" inkscape:guide-bbox="true">
    <inkscape:grid type="xygrid" id="grid2990" empspacing="5" visible="true" enabled="true" snapvisiblegridlinesonly="true" />
  </sodipodi:namedview>
  <metadata id="metadata3335">
    <rdf:RDF>
      <cc:Work rdf:about="">
        <dc:format>image/svg+xml</dc:format>
        <dc:type rdf:resource="http://purl.org/dc/dcmitype/StillImage" />
        <dc:title />
      </cc:Work>
    </rdf:RDF>
  </metadata>
  <g inkscape:label="Capa 1" inkscape:groupmode="layer" id="capa1" transform="translate(0,-1020.3622)">
    <path id="path3036" d="m 5,1022.3622 c -2.216,0 -4,1.784 -4,4 l 0,22 c 0,2.216 1.784,4 4,4 l 22,0 c 2.216,0 4,-1.784 4,-4 l 0,-22 c 0,-2.216 -1.784,-4 -4,-4 l -22,0 z m 11,5 c 5.522842,0 10,4.4772 10,10 0,3.2994 -1.598393,6.2099 -4.0625,8.0313 -1.660576,1.2274 -3.714032,1.9687 -5.9375,1.9687 -2.785686,0 -5.280479,-1.1623 -7.09375,-3 0.8238337,-1.1326 1.916002,-2.7741 2.78125,-3.9687 1.800559,-2.4861 3.379383,-4.7894 4.15625,-4.8125 0.02501,0 0.07057,0.027 0.09375,0.031 2.393566,0.014 4.769862,6.0202 6,9.7813 l 0.46875,-0.375 c -0.589717,-4.2052 -1.955774,-11.1325 -4.84375,-13.0625 0.309422,-0.2062 0.3125,-1.25 0.3125,-1.25 l 0.84375,-1.0625 c -0.288725,-0.01 -1.87974,0.4747 -2.34375,1.0625 -1.39548,0.101 -7.0262109,3.9094 -10.34375,6.25 -0.00539,0.1347 -0.03125,0.2701 -0.03125,0.4062 0,0.1361 0.025862,0.2715 0.03125,0.4063 1.5046002,-0.5796 3.3239369,-1.224 4.03125,-1.2188 0.139809,9e-4 0.232543,0.01 0.28125,0.062 0.272791,0.3215 -0.8948916,1.8632 -2.09375,3.625 -0.3138841,0.4612 -0.8530858,1.2294 -1.15625,1.6875 -0.6394478,-1.2506 -1.0030887,-2.6698 -1.0625,-4.1562 -0.00893,0 -0.022339,-0 -0.03125,0 l 0,-0.4063 0,-0.375 c 0.010501,-0.01 0.020702,-0.024 0.03125,-0.031 0.2132109,-5.3344 4.582003,-9.5938 9.96875,-9.5938 z m -4.09375,10.0625 c 0.03088,0 0.07195,-0.01 0.09375,0 0.101977,0.1246 -1.993471,3.5386 -3.6875,6.3125 -0.3445751,-0.4156 -0.6629457,-0.8442 -0.9375,-1.3125 1.6481164,-2.0638 3.957008,-4.9129 4.53125,-5 z" style="opacity:0.6;color:#000000;fill:#ffffff;fill-opacity:1;fill-rule:nonzero;stroke:none;stroke-width:1;marker:none;visibility:visible;display:inline;overflow:visible;enable-background:accumulate" inkscape:connector-curvature="0" />
    <path style="opacity:0.69999999999999996;color:#000000;fill:url(#linearGradient3034);fill-opacity:1;fill-rule:nonzero;stroke:none;stroke-width:1.00139092999999990;marker:none;visibility:visible;display:inline;overflow:visible;enable-background:accumulate" d="M 5 1 C 2.784 1 1 2.784 1 5 L 1 27 C 1 29.216 2.784 31 5 31 L 27 31 C 29.216 31 31 29.216 31 27 L 31 5 C 31 2.784 29.216 1 27 1 L 5 1 z M 16 6 C 21.522842 6 26 10.4772 26 16 C 26 19.299409 24.401607 22.209905 21.9375 24.03125 C 20.276924 25.258665 18.223468 26 16 26 C 13.214314 26 10.719521 24.837734 8.90625 23 C 9.7300837 21.8674 10.822252 20.22585 11.6875 19.03125 C 13.488059 16.54515 15.066883 14.24185 15.84375 14.21875 C 15.86876 14.21875 15.91432 14.246 15.9375 14.25 C 18.331066 14.264 20.707362 20.27015 21.9375 24.03125 L 22.40625 23.65625 C 21.816533 19.45105 20.450476 12.52375 17.5625 10.59375 C 17.871922 10.38755 17.875 9.34375 17.875 9.34375 L 18.71875 8.28125 C 18.430025 8.27125 16.83901 8.75595 16.375 9.34375 C 14.97952 9.4448286 9.3487891 13.253174 6.03125 15.59375 C 6.0258625 15.72854 6 15.863888 6 16 C 6 16.136114 6.0258625 16.271457 6.03125 16.40625 C 7.5358502 15.826685 9.3551869 15.182331 10.0625 15.1875 C 10.202309 15.1884 10.295043 15.1963 10.34375 15.25 C 10.616541 15.5715 9.4488584 17.1132 8.25 18.875 C 7.9361159 19.3362 7.3969142 20.1044 7.09375 20.5625 C 6.4543022 19.311922 6.0906613 17.892704 6.03125 16.40625 C 6.0223174 16.409691 6.0089112 16.402813 6 16.40625 L 6 16 L 6 15.625 C 6.0105009 15.617589 6.0207024 15.601192 6.03125 15.59375 C 6.2444609 10.259363 10.613253 6 16 6 z M 11.90625 16.0625 C 11.93713 16.0625 11.9782 16.0525 12 16.0625 C 12.101977 16.1871 10.006529 19.6011 8.3125 22.375 C 7.9679249 21.959356 7.6495543 21.530823 7.375 21.0625 C 9.0231164 18.9987 11.332008 16.1496 11.90625 16.0625 z " transform="translate(0,1020.3622)" id="path3020" />
    <rect y="1020.3622" x="-2.9999999e-06" height="32" width="32" id="rect3123" style="opacity:0.6;color:#000000;fill:none;stroke:none;stroke-width:1;marker:none;visibility:visible;display:inline;overflow:visible;enable-background:accumulate" />
  </g>
</svg>
