<?xml version="1.0" encoding="UTF-8" standalone="no"?>
<svg xmlns:dc="http://purl.org/dc/elements/1.1/" xmlns:cc="http://creativecommons.org/ns#" xmlns:rdf="http://www.w3.org/1999/02/22-rdf-syntax-ns#" xmlns:svg="http://www.w3.org/2000/svg" xmlns="http://www.w3.org/2000/svg" xmlns:sodipodi="http://sodipodi.sourceforge.net/DTD/sodipodi-0.dtd" xmlns:inkscape="http://www.inkscape.org/namespaces/inkscape" viewBox="0 0 16 16" id="svg3224" version="1.1" inkscape:version="0.48.4 r9939" width="100%" height="100%" sodipodi:docname="video-display-symbolic.svg">
    <metadata id="metadata3292">
        <rdf:RDF>
            <cc:Work rdf:about="">
                <dc:format>image/svg+xml</dc:format>
                <dc:type rdf:resource="http://purl.org/dc/dcmitype/StillImage" />
            </cc:Work>
        </rdf:RDF>
    </metadata>
    <sodipodi:namedview pagecolor="#ffffff" bordercolor="#666666" borderopacity="1" objecttolerance="10" gridtolerance="10" guidetolerance="10" inkscape:pageopacity="0" inkscape:pageshadow="2" inkscape:window-width="1280" inkscape:window-height="998" id="namedview3290" showgrid="true" inkscape:zoom="20.85965" inkscape:cx="17.864235" inkscape:cy="9.8840927" inkscape:window-x="0" inkscape:window-y="0" inkscape:window-maximized="1" inkscape:current-layer="svg3224" inkscape:snap-bbox="true">
        <inkscape:grid type="xygrid" id="grid3056" />
    </sodipodi:namedview>
    <defs id="defs3226" />
    <path style="color:black;fill:#bebebe;fill-opacity:1;fill-rule:nonzero;stroke:none;stroke-width:2;marker:none;visibility:visible;display:inline;overflow:visible;enable-background:accumulate" d="M 2 0 L 0 2 L 0 11 L 2 13 L 14 13 L 16 11 L 16 2 L 14 0 L 2 0 z M 3 2 L 13 2 L 14 3 L 14 9 L 13 10 L 3 10 L 2 9 L 2 3 L 3 2 z M 11 11 L 13 11 L 13 12 L 11 12 L 11 11 z " id="path2989" />
    <path style="opacity:0.25;color:black;fill:#bebebe;fill-opacity:1;fill-rule:nonzero;stroke:none;stroke-width:2;marker:none;visibility:visible;display:inline;overflow:visible;enable-background:accumulate" d="M 2.9999996,2 13,2 l 1,1 0,6 -1,1 -10.0000004,0 -1,-1 0,-6 1,-1 z" id="path2987" inkscape:connector-curvature="0" />
    <path style="opacity:1;color:black;fill:#bebebe;fill-opacity:1;fill-rule:nonzero;stroke:none;stroke-width:2;marker:none;visibility:visible;display:inline;overflow:visible;enable-background:accumulate" d="m 4,14 -1,1 1,1 8,0 1,-1 -1,-1 -8,0 z" id="path3078" inkscape:connector-curvature="0" />
</svg>
