<?xml version="1.0" encoding="UTF-8" standalone="no"?>
<svg xmlns:dc="http://purl.org/dc/elements/1.1/" xmlns:cc="http://creativecommons.org/ns#" xmlns:rdf="http://www.w3.org/1999/02/22-rdf-syntax-ns#" xmlns:svg="http://www.w3.org/2000/svg" xmlns="http://www.w3.org/2000/svg" xmlns:sodipodi="http://sodipodi.sourceforge.net/DTD/sodipodi-0.dtd" xmlns:inkscape="http://www.inkscape.org/namespaces/inkscape" viewBox="0 0 16 16" id="svg3076" version="1.1" inkscape:version="0.48.4 r9939" width="100%" height="100%" sodipodi:docname="drive-removable-media-symbolic.svg">
    <metadata id="metadata3117">
        <rdf:RDF>
            <cc:Work rdf:about="">
                <dc:format>image/svg+xml</dc:format>
                <dc:type rdf:resource="http://purl.org/dc/dcmitype/StillImage" />
            </cc:Work>
        </rdf:RDF>
    </metadata>
    <sodipodi:namedview pagecolor="#ffffff" bordercolor="#666666" borderopacity="1" objecttolerance="10" gridtolerance="10" guidetolerance="10" inkscape:pageopacity="0" inkscape:pageshadow="2" inkscape:window-width="1280" inkscape:window-height="998" id="namedview3115" showgrid="true" inkscape:zoom="20.85965" inkscape:cx="15.478553" inkscape:cy="11.15096" inkscape:window-x="0" inkscape:window-y="0" inkscape:window-maximized="1" inkscape:current-layer="svg3076" inkscape:snap-bbox="true">
        <inkscape:grid type="xygrid" id="grid3066" />
    </sodipodi:namedview>
    <defs id="defs3078" />
    <path style="opacity:1;color:black;fill:#bebebe;fill-opacity:1;fill-rule:nonzero;stroke:none;stroke-width:2;marker:none;visibility:visible;display:inline;overflow:visible;enable-background:accumulate" d="M 2 0 L 0 2 L 0 14 L 2 16 L 14 16 L 16 14 L 16 2 L 14 0 L 2 0 z M 3 2 L 13 2 L 14 3 L 14 12 L 13 13 L 3 13 L 2 12 L 2 3 L 3 2 z M 11 14 L 13 14 L 13 15 L 11 15 L 11 14 z " id="path3002" />
    <path style="opacity:0.25;color:black;fill:#bebebe;fill-opacity:1;fill-rule:nonzero;stroke:none;stroke-width:2;marker:none;visibility:visible;display:inline;overflow:visible;enable-background:accumulate" d="m 3.0000005,1.9999986 9.9999995,0 1,1 L 14,12 l -1,1 -9.9999995,0 -1,-1 0,-9.0000014 1,-1 z" id="path2985" inkscape:connector-curvature="0" />
    <path style="opacity:1;color:black;fill:#bebebe;fill-opacity:1;fill-rule:nonzero;stroke:none;stroke-width:2;marker:none;visibility:visible;display:inline;overflow:visible;enable-background:accumulate" d="m 12,11 0,1 1,0 0,-1 -1,0 z" id="path2993" />
    <path style="opacity:1;color:black;fill:#bebebe;fill-opacity:1;fill-rule:nonzero;stroke:none;stroke-width:2;marker:none;visibility:visible;display:inline;overflow:visible;enable-background:accumulate" d="m 3.0000005,11 0,1 1,0 0,-1 -1,0 z" id="path2991" />
    <path style="opacity:1;color:black;fill:#bebebe;fill-opacity:1;fill-rule:nonzero;stroke:none;stroke-width:2;marker:none;visibility:visible;display:inline;overflow:visible;enable-background:accumulate" d="m 12,2.9999986 0,1 1,0 0,-1 -1,0 z" id="path2989" />
    <path style="opacity:1;color:black;fill:#bebebe;fill-opacity:1;fill-rule:nonzero;stroke:none;stroke-width:2;marker:none;visibility:visible;display:inline;overflow:visible;enable-background:accumulate" d="m 3.0000005,2.9999986 0,1 1,0 0,-1 -1,0 z" id="path2987" />
</svg>
