<?xml version="1.0" encoding="UTF-8" standalone="no"?>
<!-- Created with Inkscape (http://www.inkscape.org/) -->

<svg xmlns:dc="http://purl.org/dc/elements/1.1/" xmlns:cc="http://creativecommons.org/ns#" xmlns:rdf="http://www.w3.org/1999/02/22-rdf-syntax-ns#" xmlns:svg="http://www.w3.org/2000/svg" xmlns="http://www.w3.org/2000/svg" xmlns:sodipodi="http://sodipodi.sourceforge.net/DTD/sodipodi-0.dtd" xmlns:inkscape="http://www.inkscape.org/namespaces/inkscape" id="svg7384" height="16" width="16" version="1.1" inkscape:version="0.48.4 r9939" sodipodi:docname="emblem-system-symbolic.svg">
  <defs id="defs9" />
  <sodipodi:namedview pagecolor="#ffffff" bordercolor="#666666" borderopacity="1" objecttolerance="10" gridtolerance="10" guidetolerance="10" inkscape:pageopacity="0" inkscape:pageshadow="2" inkscape:window-width="1280" inkscape:window-height="976" id="namedview7" showgrid="true" inkscape:snap-to-guides="false" inkscape:snap-page="true" inkscape:snap-center="true" inkscape:snap-object-midpoints="true" inkscape:snap-nodes="true" inkscape:snap-bbox="false" inkscape:zoom="29.5" inkscape:cx="15.576228" inkscape:cy="8.1086372" inkscape:window-x="0" inkscape:window-y="24" inkscape:window-maximized="1" inkscape:current-layer="svg7384">
    <inkscape:grid type="xygrid" id="grid2986" />
  </sodipodi:namedview>
  <metadata id="metadata90">
    <rdf:RDF>
      <cc:Work rdf:about="">
        <dc:format>image/svg+xml</dc:format>
        <dc:type rdf:resource="http://purl.org/dc/dcmitype/StillImage" />
        <dc:title>Gnome Symbolic Icon Theme</dc:title>
      </cc:Work>
    </rdf:RDF>
  </metadata>
  <title id="title9167">Gnome Symbolic Icon Theme</title>
  <path style="color:black;fill:#bebebe;fill-opacity:1;fill-rule:nonzero;stroke:none;stroke-width:1;marker:none;visibility:visible;display:inline;overflow:visible;enable-background:accumulate;opacity:0.69999999999999996" d="M 7 1 L 7 3.09375 C 6.3585248 3.2250148 5.77633 3.4924543 5.25 3.84375 L 5.21875 3.84375 L 3.75 2.34375 L 2.34375 3.75 L 3.84375 5.21875 L 3.84375 5.25 C 3.4924543 5.77633 3.2250148 6.3585248 3.09375 7 L 1 7 L 1 9 L 3.09375 9 C 3.226959 9.6509759 3.4843355 10.249247 3.84375 10.78125 L 2.34375 12.25 L 3.75 13.65625 L 5.25 12.1875 C 5.7733594 12.534615 6.3634511 12.775993 7 12.90625 L 7 15.03125 L 9 15.03125 L 9 12.90625 C 9.6365489 12.775993 10.226641 12.534615 10.75 12.1875 L 12.25 13.65625 L 13.65625 12.25 L 12.15625 10.78125 C 12.515664 10.249247 12.773041 9.6509759 12.90625 9 L 15 9 L 15 7 L 12.90625 7 C 12.773041 6.3490241 12.515664 5.7507534 12.15625 5.21875 L 13.65625 3.75 L 12.25 2.34375 L 10.78125 3.84375 C 10.249247 3.4843355 9.6509759 3.226959 9 3.09375 L 9 1 L 7 1 z M 8 5 C 9.6568542 5 11 6.3431458 11 8 C 11 9.6568542 9.6568542 11 8 11 C 6.3431458 11 5 9.6568542 5 8 C 5 6.3431458 6.3431458 5 8 5 z " id="path3089" />
</svg>
