<?xml version="1.0" encoding="UTF-8" standalone="no"?>
<svg xmlns:dc="http://purl.org/dc/elements/1.1/" xmlns:cc="http://creativecommons.org/ns#" xmlns:rdf="http://www.w3.org/1999/02/22-rdf-syntax-ns#" xmlns:svg="http://www.w3.org/2000/svg" xmlns="http://www.w3.org/2000/svg" xmlns:sodipodi="http://sodipodi.sourceforge.net/DTD/sodipodi-0.dtd" xmlns:inkscape="http://www.inkscape.org/namespaces/inkscape" viewBox="0 0 16 16" id="svg3224" version="1.1" inkscape:version="0.48.4 r9939" width="100%" height="100%" sodipodi:docname="network-workgroup-symbolic.svg">
    <metadata id="metadata3292">
        <rdf:RDF>
            <cc:Work rdf:about="">
                <dc:format>image/svg+xml</dc:format>
                <dc:type rdf:resource="http://purl.org/dc/dcmitype/StillImage" />
            </cc:Work>
        </rdf:RDF>
    </metadata>
    <sodipodi:namedview pagecolor="#ffffff" bordercolor="#666666" borderopacity="1" objecttolerance="10" gridtolerance="10" guidetolerance="10" inkscape:pageopacity="0" inkscape:pageshadow="2" inkscape:window-width="1280" inkscape:window-height="998" id="namedview3290" showgrid="true" inkscape:zoom="29.5" inkscape:cx="15.932032" inkscape:cy="11.867143" inkscape:window-x="0" inkscape:window-y="0" inkscape:window-maximized="1" inkscape:current-layer="svg3224" inkscape:snap-bbox="true">
        <inkscape:grid type="xygrid" id="grid3056" />
    </sodipodi:namedview>
    <defs id="defs3226" />
    <path style="opacity:1;color:black;fill:#bebebe;fill-opacity:1;fill-rule:nonzero;stroke:none;stroke-width:1;marker:none;visibility:visible;display:inline;overflow:visible;enable-background:accumulate" d="m 6,1 -1,1 0,2 2,0 0,-1 7,0 0,5 -2,0 0,3 1,0 0,-1 2,0 1,-1 0,-7 -1,-1 -9,0 z" id="path3003" />
    <path style="opacity:1;color:black;fill:#bebebe;fill-opacity:1;fill-rule:nonzero;stroke:none;stroke-width:1;marker:none;visibility:visible;display:inline;overflow:visible;enable-background:accumulate" d="M 1 5 L 0 6 L 0 13 L 1 14 L 3 14 L 3 15 L 8 15 L 8 14 L 10 14 L 11 13 L 11 6 L 10 5 L 1 5 z M 2 7 L 9 7 L 9 12 L 2 12 L 2 7 z " id="path3001" />
    <path style="opacity:0.25;color:black;fill:#bebebe;fill-opacity:1;fill-rule:nonzero;stroke:none;stroke-width:1;marker:none;visibility:visible;display:inline;overflow:visible;enable-background:accumulate" d="M 2,7 9,7 9,12 2,12 2,7 z" id="path2995" />
    <path style="opacity:0.25;color:black;fill:#bebebe;fill-opacity:1;fill-rule:nonzero;stroke:none;stroke-width:1;marker:none;visibility:visible;display:inline;overflow:visible;enable-background:accumulate" d="M 7 3 L 7 4 L 11 4 L 12 5 L 12 8 L 14 8 L 14 3 L 7 3 z " id="path3776" />
</svg>
