<?xml version="1.0" encoding="UTF-8" standalone="no"?>
<svg xmlns:dc="http://purl.org/dc/elements/1.1/" xmlns:cc="http://creativecommons.org/ns#" xmlns:rdf="http://www.w3.org/1999/02/22-rdf-syntax-ns#" xmlns:svg="http://www.w3.org/2000/svg" xmlns="http://www.w3.org/2000/svg" xmlns:sodipodi="http://sodipodi.sourceforge.net/DTD/sodipodi-0.dtd" xmlns:inkscape="http://www.inkscape.org/namespaces/inkscape" viewBox="0 0 16 16" id="svg3224" version="1.1" inkscape:version="0.48.4 r9939" width="100%" height="100%" sodipodi:docname="network-server-symbolic.svg">
    <metadata id="metadata3292">
        <rdf:RDF>
            <cc:Work rdf:about="">
                <dc:format>image/svg+xml</dc:format>
                <dc:type rdf:resource="http://purl.org/dc/dcmitype/StillImage" />
            </cc:Work>
        </rdf:RDF>
    </metadata>
    <sodipodi:namedview pagecolor="#ffffff" bordercolor="#666666" borderopacity="1" objecttolerance="10" gridtolerance="10" guidetolerance="10" inkscape:pageopacity="0" inkscape:pageshadow="2" inkscape:window-width="1280" inkscape:window-height="998" id="namedview3290" showgrid="true" inkscape:zoom="29.5" inkscape:cx="15.932032" inkscape:cy="11.867143" inkscape:window-x="0" inkscape:window-y="0" inkscape:window-maximized="1" inkscape:current-layer="svg3224" inkscape:snap-bbox="true">
        <inkscape:grid type="xygrid" id="grid3056" />
    </sodipodi:namedview>
    <defs id="defs3226" />
    <path style="opacity:1;color:black;fill:#bebebe;fill-opacity:1;fill-rule:nonzero;stroke:none;stroke-width:1;marker:none;visibility:visible;display:inline;overflow:visible;enable-background:accumulate" d="M 3 0 L 1 2 L 1 10 L 3 12 L 7 12 L 7 14 L 1 14 L 0 15 L 1 16 L 15 16 L 16 15 L 15 14 L 9 14 L 9 12 L 13 12 L 15 10 L 15 2 L 13 0 L 3 0 z M 4 2 L 12 2 L 13 3 L 13 8 L 12 9 L 4 9 L 3 8 L 3 3 L 4 2 z M 10 10 L 12 10 L 12 11 L 10 11 L 10 10 z " id="path2996" />
    <path style="opacity:0.25;color:black;fill:#bebebe;fill-opacity:1;fill-rule:nonzero;stroke:none;stroke-width:1;marker:none;visibility:visible;display:inline;overflow:visible;enable-background:accumulate" d="m 4,2 8,0 1,1 0,5 L 12,9 4,9 3,8 3,3 4,2 z" id="path2994" inkscape:connector-curvature="0" />
</svg>
