<?xml version="1.0" encoding="UTF-8" standalone="no"?>
<!-- Created with Inkscape (http://www.inkscape.org/) -->

<svg xmlns:dc="http://purl.org/dc/elements/1.1/" xmlns:cc="http://creativecommons.org/ns#" xmlns:rdf="http://www.w3.org/1999/02/22-rdf-syntax-ns#" xmlns:svg="http://www.w3.org/2000/svg" xmlns="http://www.w3.org/2000/svg" xmlns:sodipodi="http://sodipodi.sourceforge.net/DTD/sodipodi-0.dtd" xmlns:inkscape="http://www.inkscape.org/namespaces/inkscape" width="16" height="16" id="svg2" version="1.1" inkscape:version="0.48.4 r9939" sodipodi:docname="start-here.svg" inkscape:export-filename="/home/rafa/Escriptori/lubuntu_favicon.png" inkscape:export-xdpi="90" inkscape:export-ydpi="90">
    <defs id="defs4" />
    <sodipodi:namedview id="base" pagecolor="#ffffff" bordercolor="#666666" borderopacity="1.0" inkscape:pageopacity="0.0" inkscape:pageshadow="2" inkscape:zoom="32.000001" inkscape:cx="9.616984" inkscape:cy="7.3586225" inkscape:document-units="px" inkscape:current-layer="layer1" showgrid="true" inkscape:window-width="1280" inkscape:window-height="998" inkscape:window-x="0" inkscape:window-y="0" inkscape:window-maximized="1" inkscape:showpageshadow="false" borderlayer="false" fit-margin-top="0" fit-margin-left="0" fit-margin-right="0" fit-margin-bottom="0" width="0px" height="0px" inkscape:snap-bbox="true">
        <inkscape:grid type="xygrid" id="grid2987" />
    </sodipodi:namedview>
    <metadata id="metadata7">
        <rdf:RDF>
            <cc:Work rdf:about="">
                <dc:format>image/svg+xml</dc:format>
                <dc:type rdf:resource="http://purl.org/dc/dcmitype/StillImage" />
                <dc:title />
            </cc:Work>
        </rdf:RDF>
    </metadata>
    <g inkscape:label="Capa 1" inkscape:groupmode="layer" id="layer1" transform="translate(-1224.4602,-584.29916)">
        <path style="opacity:1;color:black;fill:#bebebe;fill-opacity:1;fill-rule:nonzero;stroke:none;stroke-width:1;marker:none;visibility:visible;display:inline;overflow:visible;enable-background:accumulate" d="m 1232.4602,584.29916 c -4.3122,0 -7.8337,3.41601 -8,7.6875 2.6507,-1.87086 7.1925,-4.95015 8.3125,-5.03125 0.3712,-0.4702 1.644,-0.85175 1.875,-0.84375 l -0.6875,0.84375 c 0,0 -0,0.86626 -0.25,1.03125 2.3103,1.54401 3.4033,7.07332 3.875,10.4375 l -0.3125,0.25 c 1.9308,-1.4605 3.1875,-3.7674 3.1875,-6.375 0,-4.41828 -3.5817,-8 -8,-8 z m -0.094,6.5625 c -0.6215,0.0185 -1.9033,1.88618 -3.3438,3.875 -0.6922,0.95572 -1.5909,2.25013 -2.25,3.15625 1.4513,1.47539 3.4545,2.40625 5.6875,2.40625 1.7792,0 3.4214,-0.58016 4.75,-1.5625 -0.9841,-3.00885 -2.8664,-7.83245 -4.7812,-7.84375 -0.019,-0.003 -0.043,-0.0312 -0.062,-0.0312 z m -5.5938,7.03125 -0.4687,-0.5 c 1.3552,-2.21911 3.0507,-4.93155 2.9687,-5.03125 -0.018,-0.008 -0.037,-0.0343 -0.062,-0.0312 -0.4594,0.0696 -2.3065,2.38023 -3.625,4.03125 0.3321,0.56088 0.7332,1.06936 1.1875,1.53125 z m 0.9375,-6.25 c -0.5692,-0.004 -2.0107,0.50295 -3.2187,0.96875 l -0.031,-0.3125 c 0,1.31544 0.3125,2.56156 0.875,3.65625 0.2425,-0.36649 0.6864,-0.97474 0.9375,-1.34375 0.9591,-1.40944 1.9057,-2.64907 1.6875,-2.90625 -0.039,-0.043 -0.1381,-0.0618 -0.25,-0.0625 z" id="path3910-7" inkscape:connector-curvature="0" />
    </g>
</svg>
