<?xml version="1.0" encoding="UTF-8" standalone="no"?>
<!-- Created with Inkscape (http://www.inkscape.org/) -->

<svg xmlns:dc="http://purl.org/dc/elements/1.1/" xmlns:cc="http://creativecommons.org/ns#" xmlns:rdf="http://www.w3.org/1999/02/22-rdf-syntax-ns#" xmlns:svg="http://www.w3.org/2000/svg" xmlns="http://www.w3.org/2000/svg" xmlns:sodipodi="http://sodipodi.sourceforge.net/DTD/sodipodi-0.dtd" xmlns:inkscape="http://www.inkscape.org/namespaces/inkscape" id="svg7384" height="16" width="16" version="1.1" inkscape:version="0.48.4 r9939" sodipodi:docname="user-home-symbolic.svg">
    <defs id="defs9" />
    <sodipodi:namedview pagecolor="#ffffff" bordercolor="#666666" borderopacity="1" objecttolerance="10" gridtolerance="10" guidetolerance="10" inkscape:pageopacity="0" inkscape:pageshadow="2" inkscape:window-width="1280" inkscape:window-height="998" id="namedview7" showgrid="true" inkscape:snap-to-guides="false" inkscape:snap-page="true" inkscape:snap-center="true" inkscape:snap-object-midpoints="true" inkscape:snap-nodes="true" inkscape:snap-bbox="true" inkscape:zoom="29.5" inkscape:cx="15.576228" inkscape:cy="8.312027" inkscape:window-x="0" inkscape:window-y="0" inkscape:window-maximized="1" inkscape:current-layer="svg7384">
        <inkscape:grid type="xygrid" id="grid2986" empspacing="5" visible="true" enabled="true" snapvisiblegridlinesonly="true" />
    </sodipodi:namedview>
    <metadata id="metadata90">
        <rdf:RDF>
            <cc:Work rdf:about="">
                <dc:format>image/svg+xml</dc:format>
                <dc:type rdf:resource="http://purl.org/dc/dcmitype/StillImage" />
                <dc:title>Gnome Symbolic Icon Theme</dc:title>
            </cc:Work>
        </rdf:RDF>
    </metadata>
    <title id="title9167">Gnome Symbolic Icon Theme</title>
    <path style="opacity:1;color:black;fill:#bebebe;fill-opacity:1;fill-rule:nonzero;stroke:none;stroke-width:1;marker:none;visibility:visible;display:inline;overflow:visible;enable-background:accumulate" d="m 7,1 -7,7 0,2 1,0 7,-7 7,7 1,0 L 16,8 14,6 14,2 12,2 12,4 9,1 8.65625,1 7,1 z m -3,7 -2,2 0,5 1,1 10,0 1,-1 0,-5 -2,-2 0,6 -2,0 0,-5 -4,0 0,5 -2,0 0,-6 z" id="path3024" inkscape:connector-curvature="0" />
</svg>
