<?xml version="1.0" encoding="UTF-8" standalone="no"?>
<!-- Created with Inkscape (http://www.inkscape.org/) -->

<svg xmlns:dc="http://purl.org/dc/elements/1.1/" xmlns:cc="http://creativecommons.org/ns#" xmlns:rdf="http://www.w3.org/1999/02/22-rdf-syntax-ns#" xmlns:svg="http://www.w3.org/2000/svg" xmlns="http://www.w3.org/2000/svg" xmlns:xlink="http://www.w3.org/1999/xlink" xmlns:sodipodi="http://sodipodi.sourceforge.net/DTD/sodipodi-0.dtd" xmlns:inkscape="http://www.inkscape.org/namespaces/inkscape" width="24" height="24" id="svg4700" version="1.1" inkscape:version="0.48.4 r9939" sodipodi:docname="xscreensaver.svg">
    <defs id="defs4702">
        <linearGradient id="linearGradient4050">
            <stop id="stop4052" offset="0" style="stop-color:#ffffff;stop-opacity:0.66929132;" />
            <stop id="stop4054" offset="1" style="stop-color:#ffffff;stop-opacity:0;" />
        </linearGradient>
        <filter id="filter3174" color-interpolation-filters="sRGB">
            <feGaussianBlur stdDeviation="1.71" id="feGaussianBlur3176" />
        </filter>
        <linearGradient gradientTransform="scale(1.0058652,0.994169)" gradientUnits="userSpaceOnUse" id="ButtonShadow" y2="7.0165396" x2="45.447727" y1="92.539597" x1="45.447727">
            <stop offset="0" style="stop-color:#000000;stop-opacity:1" id="stop3750" />
            <stop offset="1" style="stop-color:#000000;stop-opacity:0.58823532" id="stop3752" />
        </linearGradient>
        <linearGradient inkscape:collect="always" xlink:href="#linearGradient4050" id="linearGradient3120" gradientUnits="userSpaceOnUse" gradientTransform="matrix(0.53950485,0,0,0.45066006,-0.97152637,23.60476)" x1="22.440199" y1="4.8942533" x2="22.440199" y2="38.21666" />
        <linearGradient y2="9.4076004" y1="32.059502" x2="21.9424" x1="27.5068" id="linearGradient5775-3" gradientUnits="userSpaceOnUse">
            <stop id="stop3648-3" stop-color="#5489a7" offset="0" />
            <stop id="stop3650-1" stop-color="#242e4f" offset="1" />
        </linearGradient>
        <linearGradient y2="25.2793" y1="-5.7137" x2="32.9515" x1="10.1889" id="linearGradient5660" gradientUnits="userSpaceOnUse" gradientTransform="matrix(1,0,0,0.84932,2.4060994e-7,-1.09589)">
            <stop id="stop3643" stop-color="#fff" offset="0" />
            <stop id="stop3645" stop-opacity="0" stop-color="#fff" offset="1" />
        </linearGradient>
        <linearGradient inkscape:collect="always" xlink:href="#linearGradient5775-3" id="linearGradient3153" gradientUnits="userSpaceOnUse" x1="27.5068" y1="32.059502" x2="21.9424" y2="9.4076004" gradientTransform="matrix(0.49999992,0,0,0.52250062,-2e-8,21.654824)" />
        <radialGradient inkscape:collect="always" xlink:href="#radialGradient4327-5-5" id="radialGradient3165-8" gradientUnits="userSpaceOnUse" gradientTransform="matrix(0.49669567,0,0,0.38494408,-0.27509246,25.22095)" cx="24.0002" cy="20.5" r="19.9998" />
        <radialGradient r="19.9998" id="radialGradient4327-5-5" gradientUnits="userSpaceOnUse" gradientTransform="matrix(1,0,0,0.77501,0,3.61238)" cy="20.5" cx="24.0002">
            <stop id="stop3673-5-2" stop-color="#0f86c8" offset="0" />
            <stop id="stop3675-1-1" stop-color="#0e2731" offset="1" />
        </radialGradient>
        <linearGradient inkscape:collect="always" xlink:href="#linearGradient5660" id="linearGradient4014" gradientUnits="userSpaceOnUse" gradientTransform="matrix(0.5,0,0,0.41096131,-7.0130133e-7,23.534246)" x1="10.1889" y1="-5.7137" x2="32.9515" y2="25.2793" />
        <linearGradient inkscape:collect="always" xlink:href="#linearGradient3780-6-2-1-8" id="linearGradient4187-9" gradientUnits="userSpaceOnUse" x1="16.132845" x2="27.589365" gradientTransform="matrix(0.99852857,0,0,0.99837368,-10.042656,-20.295855)" y1="57.076187" y2="57.076187" />
        <linearGradient x2="38.898602" x1="8.4863997" id="linearGradient3780-6-2-1-8" gradientUnits="userSpaceOnUse">
            <stop id="stop3631-4-7-5" stop-color="#b3b3b3" offset="0" />
            <stop id="stop3633-2-56-8" stop-color="#e7e7e7" offset="1" />
        </linearGradient>
        <linearGradient inkscape:collect="always" xlink:href="#linearGradient3780-6-2-1-8-9" id="linearGradient4187-9-9" gradientUnits="userSpaceOnUse" x1="16.132845" x2="27.589365" gradientTransform="matrix(0.86460661,0,0,0.9897,-7.0863104,-19.712455)" y1="57.076187" y2="57.076187" />
        <linearGradient x2="38.898602" x1="8.4863997" id="linearGradient3780-6-2-1-8-9" gradientUnits="userSpaceOnUse">
            <stop id="stop3631-4-7-5-9" stop-color="#b3b3b3" offset="0" />
            <stop id="stop3633-2-56-8-9" stop-color="#e7e7e7" offset="1" />
        </linearGradient>
        <radialGradient r="5.7508" id="radialGradient4329" gradientUnits="userSpaceOnUse" cy="17.887" cx="6.091">
            <stop id="stop3668" stop-color="#fff" offset="0" />
            <stop id="stop3670" stop-opacity="0" stop-color="#307085" offset="1" />
        </radialGradient>
        <radialGradient r="9.7437" id="radialGradient4326" gradientUnits="userSpaceOnUse" cy="16.5448" cx="38.8527">
            <stop id="stop3663" stop-color="#91d3ff" offset="0" />
            <stop id="stop3665" stop-opacity="0" stop-color="#33acff" offset="1" />
        </radialGradient>
        <radialGradient inkscape:collect="always" xlink:href="#radialGradient4326" id="radialGradient3146" gradientUnits="userSpaceOnUse" cx="38.8527" cy="16.5448" r="9.7437" gradientTransform="matrix(0.47500832,0,0,0.4601479,0.37352644,24.815119)" />
        <radialGradient inkscape:collect="always" xlink:href="#radialGradient4329" id="radialGradient3149" gradientUnits="userSpaceOnUse" cx="6.091" cy="17.887" r="5.7508" gradientTransform="matrix(0.47500832,0,0,0.46153847,0.37352641,23.76923)" />
    </defs>
    <sodipodi:namedview id="base" pagecolor="#ffffff" bordercolor="#666666" borderopacity="1.0" inkscape:pageopacity="0.0" inkscape:pageshadow="2" inkscape:zoom="26.140498" inkscape:cx="12.301807" inkscape:cy="9.5943066" inkscape:current-layer="layer1" showgrid="true" inkscape:grid-bbox="true" inkscape:document-units="px" inkscape:window-width="1280" inkscape:window-height="998" inkscape:window-x="0" inkscape:window-y="0" inkscape:window-maximized="1" inkscape:snap-to-guides="true" inkscape:snap-grids="true" inkscape:snap-bbox="true">
        <inkscape:grid type="xygrid" id="grid1021" empspacing="5" visible="true" enabled="true" snapvisiblegridlinesonly="true" />
    </sodipodi:namedview>
    <metadata id="metadata4705">
        <rdf:RDF>
            <cc:Work rdf:about="">
                <dc:format>image/svg+xml</dc:format>
                <dc:type rdf:resource="http://purl.org/dc/dcmitype/StillImage" />
                <dc:title />
            </cc:Work>
        </rdf:RDF>
    </metadata>
    <g id="layer1" inkscape:label="Layer 1" inkscape:groupmode="layer" transform="translate(0,-24)">
        <rect ry="1" y="43.51545" x="5.51545" height="2.9691" width="12.9691" id="rect3975" style="color:black;fill:url(#linearGradient4187-9-9);fill-opacity:1;fill-rule:nonzero;stroke:#2a2a2a;stroke-width:1.0309;stroke-linecap:butt;stroke-linejoin:miter;stroke-miterlimit:4;stroke-opacity:1;stroke-dasharray:none;stroke-dashoffset:0;marker:none;visibility:visible;display:inline;overflow:visible;enable-background:accumulate" rx="1" />
        <g id="layer2" style="display:none" transform="translate(5.204491,-179.6879)">
            <rect width="86" height="85" rx="6" ry="6" x="5" y="7" id="rect3745" style="opacity:0.9;fill:url(#ButtonShadow);fill-opacity:1;fill-rule:nonzero;stroke:none;filter:url(#filter3174)" />
        </g>
        <g id="layer4" transform="translate(5.204491,-179.6879)" />
        <rect style="color:#000000;fill:url(#linearGradient4187-9);fill-opacity:1;fill-rule:nonzero;stroke:#2a2a2a;stroke-width:1.0309;stroke-linecap:butt;stroke-linejoin:miter;stroke-miterlimit:4;stroke-opacity:1;stroke-dasharray:none;stroke-dashoffset:0;marker:none;visibility:visible;display:inline;overflow:visible;enable-background:accumulate" id="rect3874" width="20.969099" height="18.969099" x="1.51545" y="25.51545" ry="2" rx="1.9999999" />
        <rect rx="1" style="fill:url(#radialGradient3165-8);fill-opacity:1;stroke:none;color:#000000;fill-rule:nonzero;stroke-width:1;stroke-linecap:butt;stroke-linejoin:miter;stroke-miterlimit:4;stroke-opacity:1;stroke-dasharray:none;stroke-dashoffset:0;marker:none;visibility:visible;display:inline;overflow:visible;enable-background:accumulate" id="rect3979" y="26" x="2" ry="1.5" height="15" width="20" />
        <path inkscape:connector-curvature="0" id="path3691" d="M 8.3593991,32.382389 C 5.0306501,32.378677 2.4171497,34.325986 2,34.652028 v 1.338905 c 0.4307496,-0.617176 3.6399486,-4.868555 9.265598,-3.06969 -0.9989,-0.381268 -1.9806001,-0.537809 -2.9062492,-0.538802 z M 5.3124997,31.19046 c -2.1855503,0.0117 -3.2968996,0.555157 -3.2968996,0.555157 l 0.015603,2.547191 c 0,0 3.8301495,-3.933908 9.9218979,-1.485887 5.07215,2.038275 8.902949,1.461223 10.046899,1.208281 v -2.743127 c -1.195649,1.003306 -4.79305,3.412503 -9.921898,1.338907 C 9.3000021,31.487762 7.0123531,31.181368 5.3125027,31.190408 z M 3.9843999,29.982178 C 3.0998494,29.979369 2.4452998,30.091797 2,30.21077 v 1.077658 C 3.3850994,30.695966 6.5717987,29.984791 11.937498,32.300774 8.3761488,30.464392 5.7388492,29.987925 3.9843999,29.982178 z M 21.999997,28.969832 c -1.000001,1.476692 -4.06025,5.152223 -8.984398,3.608495 4.221648,1.771328 7.861948,-0.850057 8.984398,-1.796096 V 28.96978 z" style="opacity:0.403;color:black;fill:url(#linearGradient3153);fill-opacity:1;fill-rule:nonzero;stroke-width:1;stroke-linecap:butt;stroke-linejoin:miter;stroke-miterlimit:4;stroke-opacity:1;stroke-dasharray:none;stroke-dashoffset:0;marker:none;visibility:visible;display:inline;overflow:visible;enable-background:accumulate" />
        <path style="fill:#00ffff;stroke:none" inkscape:connector-curvature="0" d="m 18,42 h 2 v 1 h -2 z" id="path3697" />
        <rect width="19" height="14" ry="1.3610822" x="2.5" y="26.5" id="rect4513" style="fill:none;stroke:url(#linearGradient3120);stroke-width:1;stroke-miterlimit:4;stroke-opacity:1;stroke-dasharray:none" rx="1.3610822" />
        <path style="opacity:0.74683544;fill:url(#linearGradient4014)" inkscape:connector-curvature="0" d="m 10,26 10.5,0 c 0.664099,0 1.5,0.879097 1.5,1.5 l 0,13.5 -6.6525,0 z" id="path3695" sodipodi:nodetypes="cssccc" />
        <path style="opacity:0.01000001;fill:url(#radialGradient3149)" inkscape:connector-curvature="0" d="m 3.2660421,29.454369 c -0.3506987,0 -0.6844395,0.06398 -0.9924824,0.177324 V 34.4196 c 0.3080905,0.113353 0.6417837,0.177322 0.9924824,0.177322 C 4.7747161,34.596922 6,33.443539 6,32.023479 6,30.603415 4.7746684,29.454323 3.2660421,29.454323 z" id="path3685" />
        <path style="opacity:0.15;fill:url(#radialGradient3146)" inkscape:connector-curvature="0" d="m 18.829073,28.085574 c -2.556163,0 -4.627104,1.943437 -4.627104,4.342278 0,2.398844 2.070893,4.342278 4.627104,4.342278 0.898525,0 1.734541,-0.2396 2.444487,-0.655434 v -7.373687 c -0.709614,-0.415283 -1.546626,-0.655435 -2.444487,-0.655435 z" id="path3687" />
        <path style="opacity:0.88185658;color:black;fill:white;fill-opacity:1;fill-rule:nonzero;stroke:none;stroke-width:1;marker:none;visibility:visible;display:inline;overflow:visible;enable-background:accumulate" d="m 4.9235533,33.812806 c -1.2314044,1.186643 -1.2314044,3.110572 0,4.297213 1.2314047,1.186642 3.2279058,1.186642 4.4593097,0 C 9.6447765,37.857626 9.8495018,37.570837 10,37.265925 8.8529839,37.732293 7.4706198,37.514245 6.5360719,36.613669 5.5685399,35.681306 5.3760134,34.297574 5.9288889,33.170142 5.564936,33.318274 5.2201259,33.527016 4.9235533,33.812806 z" id="path3025" inkscape:connector-curvature="0" />
        <path sodipodi:type="star" style="opacity:0.88185658;color:black;fill:white;fill-opacity:1;fill-rule:nonzero;stroke:none;stroke-width:1;marker:none;visibility:visible;display:inline;overflow:visible;enable-background:accumulate" id="path3800" sodipodi:sides="4" sodipodi:cx="16" sodipodi:cy="18" sodipodi:r1="5" sodipodi:r2="1.5" sodipodi:arg1="1.5707963" sodipodi:arg2="2.3561945" inkscape:flatsided="false" inkscape:rounded="0" inkscape:randomized="0" d="M 16,23 14.93934,19.06066 11,18 14.93934,16.93934 16,13 17.06066,16.93934 21,18 17.06066,19.06066 z" transform="matrix(0.41167385,0,0,0.39999998,10.728709,29.8)" />
        <path sodipodi:type="star" style="opacity:0.84810127;color:black;fill:white;fill-opacity:1;fill-rule:nonzero;stroke:none;stroke-width:1;marker:none;visibility:visible;display:inline;overflow:visible;enable-background:accumulate" id="path3804" sodipodi:sides="4" sodipodi:cx="16" sodipodi:cy="18" sodipodi:r1="5" sodipodi:r2="1.5" sodipodi:arg1="1.5707963" sodipodi:arg2="2.3561945" inkscape:flatsided="false" inkscape:rounded="0" inkscape:randomized="0" d="M 16,23 14.93934,19.06066 11,18 14.93934,16.93934 16,13 17.06066,16.93934 21,18 17.06066,19.06066 z" transform="matrix(0.28500499,0,0,0.27692308,4.3635963,27.092308)" />
        <path transform="matrix(0.5,0,0,0.48582149,5.5,21.684321)" d="M 16,23 14.93934,19.06066 11,18 14.93934,16.93934 16,13 17.06066,16.93934 21,18 17.06066,19.06066 z" inkscape:randomized="0" inkscape:rounded="0" inkscape:flatsided="false" sodipodi:arg2="2.3561945" sodipodi:arg1="1.5707963" sodipodi:r2="1.5" sodipodi:r1="5" sodipodi:cy="18" sodipodi:cx="16" sodipodi:sides="4" id="path3802" style="opacity:0.88185658;color:black;fill:white;fill-opacity:1;fill-rule:nonzero;stroke:none;stroke-width:1;marker:none;visibility:visible;display:inline;overflow:visible;enable-background:accumulate" sodipodi:type="star" />
        <path transform="matrix(0.19000333,0,0,0.18461539,11.583724,31.523078)" d="M 16,23 14.93934,19.06066 11,18 14.93934,16.93934 16,13 17.06066,16.93934 21,18 17.06066,19.06066 z" inkscape:randomized="0" inkscape:rounded="0" inkscape:flatsided="false" sodipodi:arg2="2.3561945" sodipodi:arg1="1.5707963" sodipodi:r2="1.5" sodipodi:r1="5" sodipodi:cy="18" sodipodi:cx="16" sodipodi:sides="4" id="path3806" style="opacity:0.84810127;color:black;fill:white;fill-opacity:1;fill-rule:nonzero;stroke:none;stroke-width:1;marker:none;visibility:visible;display:inline;overflow:visible;enable-background:accumulate" sodipodi:type="star" />
        <path sodipodi:type="star" style="opacity:0.88185654;color:black;fill:white;fill-opacity:1;fill-rule:nonzero;stroke:none;stroke-width:1;marker:none;visibility:visible;display:inline;overflow:visible;enable-background:accumulate" id="path3808" sodipodi:sides="4" sodipodi:cx="16" sodipodi:cy="18" sodipodi:r1="5" sodipodi:r2="1.5" sodipodi:arg1="1.5707963" sodipodi:arg2="2.3561945" inkscape:flatsided="false" inkscape:rounded="0" inkscape:randomized="0" d="M 16,23 14.93934,19.06066 11,18 14.93934,16.93934 16,13 17.06066,16.93934 21,18 17.06066,19.06066 z" transform="matrix(0.19000333,0,0,0.18461539,3.0335729,25.061539)" />
        <path transform="matrix(0.19000333,0,0,0.18461539,15.00993,25.753846)" d="M 16,23 14.93934,19.06066 11,18 14.93934,16.93934 16,13 17.06066,16.93934 21,18 17.06066,19.06066 z" inkscape:randomized="0" inkscape:rounded="0" inkscape:flatsided="false" sodipodi:arg2="2.3561945" sodipodi:arg1="1.5707963" sodipodi:r2="1.5" sodipodi:r1="5" sodipodi:cy="18" sodipodi:cx="16" sodipodi:sides="4" id="path3810" style="opacity:0.88185654;color:black;fill:white;fill-opacity:1;fill-rule:nonzero;stroke:none;stroke-width:1;marker:none;visibility:visible;display:inline;overflow:visible;enable-background:accumulate" sodipodi:type="star" />
        <path sodipodi:type="star" style="opacity:0.77215187;color:black;fill:white;fill-opacity:1;fill-rule:nonzero;stroke:none;stroke-width:1;marker:none;visibility:visible;display:inline;overflow:visible;enable-background:accumulate" id="path3812" sodipodi:sides="4" sodipodi:cx="16" sodipodi:cy="18" sodipodi:r1="5" sodipodi:r2="1.5" sodipodi:arg1="1.5707963" sodipodi:arg2="2.3561945" inkscape:flatsided="false" inkscape:rounded="0" inkscape:randomized="0" d="M 16,23 14.93934,19.06066 11,18 14.93934,16.93934 16,13 17.06066,16.93934 21,18 17.06066,19.06066 z" transform="matrix(0.19000333,0,0,0.18461539,8.2586645,33.830769)" />
    </g>
</svg>
