<?xml version="1.0" encoding="UTF-8" standalone="no"?>
<svg xmlns:dc="http://purl.org/dc/elements/1.1/" xmlns:cc="http://creativecommons.org/ns#" xmlns:rdf="http://www.w3.org/1999/02/22-rdf-syntax-ns#" xmlns:svg="http://www.w3.org/2000/svg" xmlns="http://www.w3.org/2000/svg" xmlns:xlink="http://www.w3.org/1999/xlink" xmlns:sodipodi="http://sodipodi.sourceforge.net/DTD/sodipodi-0.dtd" xmlns:inkscape="http://www.inkscape.org/namespaces/inkscape" viewBox="0 0 48 48" id="svg2" version="1.1" inkscape:version="0.48.4 r9939" width="100%" height="100%" sodipodi:docname="application-postscript.svg">
    <metadata id="metadata51">
        <rdf:RDF>
            <cc:Work rdf:about="">
                <dc:format>image/svg+xml</dc:format>
                <dc:type rdf:resource="http://purl.org/dc/dcmitype/StillImage" />
            </cc:Work>
        </rdf:RDF>
    </metadata>
    <sodipodi:namedview pagecolor="#ffffff" bordercolor="#666666" borderopacity="1" objecttolerance="10" gridtolerance="10" guidetolerance="10" inkscape:pageopacity="0" inkscape:pageshadow="2" inkscape:window-width="1280" inkscape:window-height="976" id="namedview49" showgrid="true" inkscape:zoom="6.9532167" inkscape:cx="39.842726" inkscape:cy="37.487004" inkscape:window-x="0" inkscape:window-y="24" inkscape:window-maximized="1" inkscape:current-layer="svg2">
        <inkscape:grid type="xygrid" id="grid3113" />
    </sodipodi:namedview>
    <defs id="defs4">
        <linearGradient inkscape:collect="always" id="linearGradient3779">
            <stop style="stop-color:#ffffff;stop-opacity:1;" offset="0" id="stop3781" />
            <stop style="stop-color:#ffffff;stop-opacity:0;" offset="1" id="stop3783" />
        </linearGradient>
        <linearGradient id="linearGradient5060">
            <stop offset="0" id="stop7" />
            <stop offset="1" stop-opacity="0" id="stop9" />
        </linearGradient>
        <linearGradient gradientUnits="userSpaceOnUse" id="linearGradient3127" x2="0" y1="38.7186" y2="45.76167">
            <stop offset="0" stop-opacity="0" id="stop12" />
            <stop offset=".5" id="stop14" />
            <stop offset="1" stop-opacity="0" id="stop16" />
        </linearGradient>
        <linearGradient gradientUnits="userSpaceOnUse" id="linearGradient998" x1="6.40561" x2="41.36901">
            <stop offset="0" stop-color="#fff" id="stop19" />
            <stop offset="1" stop-color="#fff" stop-opacity="0" id="stop21" />
        </linearGradient>
        <linearGradient gradientUnits="userSpaceOnUse" id="linearGradient3298-8" x1="-39.33323" x2="-1.64257" gradientTransform="matrix(0,-1,-1,0,0,0)">
            <stop offset="0" stop-color="#791235" id="stop24" style="stop-color:#590d0d;stop-opacity:1;" />
            <stop offset="1" stop-color="#dd3b27" id="stop26" />
        </linearGradient>
        <linearGradient gradientUnits="userSpaceOnUse" id="linearGradient4132" x1="-5.3196" x2="-50.52078" gradientTransform="matrix(0,-1,-1,0,0,0)">
            <stop offset="0" stop-color="#f65454" id="stop29" />
            <stop offset="1" stop-color="#740000" id="stop31" />
        </linearGradient>
        <radialGradient cx="605.71429" cy="486.64789" gradientTransform="matrix(.062142,0,0,.029001,1.636502,28.085503)" gradientUnits="userSpaceOnUse" id="radialGradient3129" r="117.14286" xlink:href="#linearGradient5060" />
        <radialGradient cx="605.71429" cy="486.64789" gradientTransform="matrix(-.062142,0,0,.029001,46.53201,28.085503)" gradientUnits="userSpaceOnUse" id="radialGradient3131" r="117.14286" xlink:href="#linearGradient5060" />
        <radialGradient inkscape:collect="always" xlink:href="#linearGradient3779" id="radialGradient3785" cx="20.356808" cy="16.612774" fx="20.356808" fy="16.612774" r="13.289289" gradientTransform="matrix(1.1890929,0,0,1.1811037,-4.6195228,-5.1449558)" gradientUnits="userSpaceOnUse" />
        <linearGradient gradientUnits="userSpaceOnUse" id="linearGradient4594" x1="8.21142" x2="31.74275" y1="-5.71365" y2="25.48744">
            <stop offset="0" stop-color="#fff" id="stop37" />
            <stop offset="1" stop-color="#fff" stop-opacity="0" id="stop39" />
        </linearGradient>
        <linearGradient inkscape:collect="always" xlink:href="#linearGradient4594" id="linearGradient3198" gradientUnits="userSpaceOnUse" gradientTransform="matrix(0.98821957,0,0,0.98630137,0.482998,0.0821918)" x1="8.21142" y1="-5.71365" x2="31.74275" y2="25.48744" />
    </defs>
    <g transform="matrix(.833389,0,0,1,3.928449,0)" id="g35">
        <path d="m9.08134,38.7186h30.00582v7.04306h-30.00582z" fill="url(#linearGradient3127)" opacity=".5" id="path37" />
        <path d="m39.08716,38.71885v7.04268c3.20017.01326 7.73646-1.57791 7.73646-3.52179s-3.57115-3.52088-7.73646-3.52088z" fill="url(#radialGradient3129)" opacity=".5" id="path39" />
        <path d="m9.08134,38.71885v7.04268c-3.20017.01326-7.73646-1.57791-7.73646-3.52179s3.57115-3.52088 7.73646-3.52088z" fill="url(#radialGradient3131)" opacity=".5" id="path41" />
    </g>
    <path d="m 41.4999,40.5 0,-33 a 2,2 0 0 0 -2,-2 L 8.5,5.5 a 2,2 0 0 0 -2,2 l 0,33 a 2,2 0 0 0 2,2 l 30.9999,0 a 2,2 0 0 0 2,-2" id="path43" style="fill:url(#linearGradient4132);stroke:url(#linearGradient3298-8);stroke-linecap:round;stroke-linejoin:round" inkscape:connector-curvature="0" />
    <g transform="scale(1.0727064,0.93222153)" style="font-size:11.85310936px;font-style:normal;font-weight:normal;line-height:125%;letter-spacing:0px;word-spacing:0px;fill:white;fill-opacity:1;stroke:none;font-family:Sans" id="text3007">
        <path d="m 25.48651,34.433285 c 1.153699,8e-6 2.03873,0.221266 2.655097,0.663774 0.624257,0.434621 0.936389,1.086541 0.936396,1.955763 -7e-6,0.474129 -0.08693,0.881086 -0.260769,1.22087 -0.16595,0.331891 -0.410914,0.604512 -0.734893,0.817865 -0.316088,0.205457 -0.703289,0.355596 -1.161604,0.450418 -0.458325,0.09483 -0.97591,0.14224 -1.552758,0.142237 l -0.912689,0 0,3.046249 -1.149752,0 0,-8.095674 c 0.323984,-0.07901 0.683528,-0.130376 1.078633,-0.15409 0.403004,-0.0316 0.77045,-0.0474 1.102339,-0.04741 m 0.09483,1.007514 c -0.489931,7e-6 -0.865279,0.01186 -1.126045,0.03556 l 0,3.224046 0.865277,0 c 0.3951,4e-6 0.750693,-0.0237 1.06678,-0.07112 0.316078,-0.05531 0.580797,-0.142233 0.794158,-0.260768 0.221253,-0.126429 0.391147,-0.296323 0.509684,-0.509684 0.118525,-0.213351 0.177791,-0.485972 0.177796,-0.817864 -5e-6,-0.316077 -0.06322,-0.576845 -0.189649,-0.782306 -0.118537,-0.205447 -0.28448,-0.367439 -0.497831,-0.485977 -0.205458,-0.126426 -0.446471,-0.213349 -0.72304,-0.260768 -0.276576,-0.04741 -0.568952,-0.07111 -0.87713,-0.07112" style="font-variant:normal;font-stretch:normal;fill:white;font-family:Ubuntu;-inkscape-font-specification:Ubuntu" id="path3019" />
        <path d="m 32.413727,41.912597 c 1.201111,0 1.801668,-0.410907 1.801672,-1.232724 -4e-6,-0.252864 -0.05532,-0.46622 -0.165943,-0.640068 -0.102732,-0.181745 -0.244969,-0.335835 -0.426712,-0.462271 -0.181752,-0.134332 -0.391157,-0.248912 -0.628215,-0.34374 -0.229163,-0.09482 -0.474127,-0.189646 -0.734893,-0.284475 -0.300281,-0.102723 -0.584755,-0.217303 -0.853424,-0.34374 -0.268672,-0.134331 -0.501783,-0.288421 -0.699333,-0.462271 -0.197553,-0.181743 -0.355594,-0.395099 -0.474124,-0.640068 -0.11063,-0.244959 -0.165945,-0.541286 -0.165944,-0.888983 -1e-6,-0.719082 0.244963,-1.280129 0.734893,-1.683142 0.489926,-0.402997 1.165553,-0.6045 2.026881,-0.604508 0.497827,8e-6 0.948245,0.05532 1.351255,0.165943 0.410903,0.102735 0.711181,0.217315 0.900836,0.34374 l -0.367446,0.936396 c -0.165949,-0.10272 -0.414864,-0.201496 -0.746746,-0.296328 -0.323989,-0.102719 -0.703288,-0.154083 -1.137899,-0.15409 -0.221261,7e-6 -0.426714,0.02371 -0.616361,0.07112 -0.189652,0.04742 -0.355596,0.118539 -0.497831,0.213356 -0.142239,0.09483 -0.256819,0.217314 -0.34374,0.367447 -0.07902,0.142244 -0.118533,0.312138 -0.118531,0.509683 -2e-6,0.221265 0.04346,0.406963 0.130384,0.557097 0.08692,0.150145 0.209403,0.28448 0.367447,0.403005 0.158039,0.110635 0.339786,0.213361 0.545243,0.308181 0.213353,0.09483 0.446463,0.189655 0.699333,0.284475 0.355589,0.142242 0.679574,0.284479 0.971955,0.426712 0.300274,0.142241 0.557091,0.312136 0.770452,0.509683 0.221253,0.197556 0.391147,0.434618 0.509684,0.711187 0.118525,0.268673 0.17779,0.596609 0.177796,0.983808 -6e-6,0.71909 -0.264725,1.272235 -0.794158,1.659435 -0.521541,0.387202 -1.260384,0.580803 -2.216531,0.580803 -0.323988,0 -0.624266,-0.02371 -0.900837,-0.07112 -0.268672,-0.03951 -0.509685,-0.08692 -0.723039,-0.142237 -0.213357,-0.06322 -0.399056,-0.126433 -0.557096,-0.18965 -0.15014,-0.07112 -0.268671,-0.130384 -0.355594,-0.177797 l 0.34374,-0.948248 c 0.181747,0.102728 0.458319,0.217308 0.829718,0.34374 0.371396,0.126434 0.825764,0.18965 1.363108,0.18965" style="font-variant:normal;font-stretch:normal;fill:white;font-family:Ubuntu;-inkscape-font-specification:Ubuntu" id="path3021" />
    </g>
    <path style="opacity:0.98999999;fill:url(#linearGradient3198)" inkscape:connector-curvature="0" d="M 18,6 H 39.160004 C 40.432831,6 41,6.4824099 41,7.9726027 V 42 H 28.249358 z" id="path57" />
    <path style="color:#000000;fill:url(#radialGradient3785);fill-opacity:1;fill-rule:nonzero;stroke-width:1;stroke-linecap:butt;stroke-linejoin:miter;stroke-miterlimit:4;stroke-opacity:1;stroke-dasharray:none;stroke-dashoffset:0;marker:none;visibility:visible;display:inline;overflow:visible;enable-background:accumulate" d="m 25.889381,8 -9.804185,10.76286 c 2.544028,0.374455 6.869841,3.351586 6.215257,7.326877 1.328596,-2.931836 -1.118504,-6.530503 -3.45292,-7.975358 L 27.396119,8.6484803 C 26.954479,8.3542467 26.589837,8.1873814 25.889381,8 z m -3.526158,0.7646267 c -0.270116,0.013399 -0.449335,0.040873 -0.439459,0.038718 l -3.128547,3.3295195 c -1.756837,0.07805 -3.474017,0.197605 -5.12705,0.348438 -1.180616,0.108704 -2.133367,0.985926 -2.281024,2.139025 C 11.126643,16.663873 11,18.806223 11,21.008351 c 0,2.203057 0.126953,4.34324 0.387143,6.388029 0.167083,1.305481 1.091033,1.952569 2.281024,2.139022 3.259887,0.507945 8.025071,0.03784 8.025406,-4.132861 0,-3.902504 -6.920139,-5.571677 -9.281019,-4.500658 L 23.325866,8.8323813 C 22.99455,8.7544978 22.633358,8.7512001 22.363223,8.7646202 z m 7.418539,3.4069503 c 0,0 -6.140915,12.627622 -6.759337,13.927838 -0.910405,1.918423 -2.156545,3.318057 -3.965621,3.794101 C 20.645565,29.960742 22.232478,30 23.890879,30 c 3.573617,0 7.006695,-0.170035 10.222729,-0.464584 1.181274,-0.109029 2.134026,-0.986234 2.281007,-2.13902 0.261175,-2.044792 0.387144,-4.184974 0.387144,-6.38803 0,-2.202127 -0.125651,-4.344477 -0.387144,-6.388028 -0.146983,-1.153097 -1.099733,-2.03031 -2.281007,-2.139022 -1.404619,-0.128221 -2.850895,-0.23353 -4.331846,-0.309722 z m 8.276532,0.561373 c -0.525346,0 -0.952161,0.403956 -0.952161,0.90013 0,0.504538 0.426815,0.90013 0.952161,0.90013 C 38.583636,14.53321 39,14.137308 39,13.63308 39,13.136906 38.579947,12.73295 38.058294,12.73295 z m 0,0.154853 c 0.41686,0 0.753367,0.329623 0.753367,0.745269 0,0.416577 -0.336507,0.748989 -0.753367,0.74527 -0.420886,0 -0.75337,-0.328382 -0.75337,-0.74527 0,-0.415646 0.336508,-0.745269 0.75337,-0.745269 z m -0.05225,0.232292 c -0.138659,0 -0.22551,0.01693 -0.313892,0.02902 l 0,1.0066 0.188338,0 0,-0.42587 0.115066,0 c 0.129503,0 0.19898,0.045 0.219736,0.164533 0.02038,0.131947 0.03767,0.230047 0.06282,0.261329 l 0.198809,0 c -0.01665,-0.03129 -0.03768,-0.09522 -0.06285,-0.25165 -0.02212,-0.147428 -0.08511,-0.226175 -0.177892,-0.241972 l 0,-0.0096 c 0.113164,-0.02726 0.209273,-0.114348 0.209273,-0.241969 0,-0.09634 -0.03525,-0.158661 -0.09423,-0.203256 -0.06796,-0.04769 -0.176544,-0.0871 -0.345292,-0.0871 z m -0.125505,0.145192 c 0.02916,-0.0037 0.07133,0 0.125505,0 0.176806,0 0.240658,0.07627 0.240658,0.164532 0,0.115851 -0.112534,0.154873 -0.251125,0.154873 l -0.115065,0 0,-0.319402 z" id="path3011" inkscape:connector-curvature="0" />
    <path d="m7.5-40.5h33a1,1 0 0,1 1,1v31a1,1 0 0,1 -1,1h-33a1,1 0 0,1 -1-1v-31a1,1 0 0,1 1-1" fill="none" opacity=".5" stroke="url(#linearGradient998)" stroke-linecap="round" stroke-linejoin="round" transform="matrix(0,1,-1,0,0,0)" id="path45" />
</svg>
