<?xml version="1.0" encoding="UTF-8" standalone="no"?>
<svg
   xmlns:dc="http://purl.org/dc/elements/1.1/"
   xmlns:cc="http://creativecommons.org/ns#"
   xmlns:rdf="http://www.w3.org/1999/02/22-rdf-syntax-ns#"
   xmlns:svg="http://www.w3.org/2000/svg"
   xmlns="http://www.w3.org/2000/svg"
   xmlns:xlink="http://www.w3.org/1999/xlink"
   xmlns:sodipodi="http://sodipodi.sourceforge.net/DTD/sodipodi-0.dtd"
   xmlns:inkscape="http://www.inkscape.org/namespaces/inkscape"
   viewBox="0 0 48 48"
   id="svg2"
   version="1.1"
   inkscape:version="0.48.3.1 r9886"
   width="100%"
   height="100%"
   sodipodi:docname="image-x-psd.svg">
  <metadata
     id="metadata51">
    <rdf:RDF>
      <cc:Work
         rdf:about="">
        <dc:format>image/svg+xml</dc:format>
        <dc:type
           rdf:resource="http://purl.org/dc/dcmitype/StillImage" />
      </cc:Work>
    </rdf:RDF>
  </metadata>
  <sodipodi:namedview
     pagecolor="#ffffff"
     bordercolor="#666666"
     borderopacity="1"
     objecttolerance="10"
     gridtolerance="10"
     guidetolerance="10"
     inkscape:pageopacity="0"
     inkscape:pageshadow="2"
     inkscape:window-width="1280"
     inkscape:window-height="976"
     id="namedview49"
     showgrid="true"
     inkscape:zoom="9.8333333"
     inkscape:cx="42.000001"
     inkscape:cy="38.042713"
     inkscape:window-x="0"
     inkscape:window-y="24"
     inkscape:window-maximized="1"
     inkscape:current-layer="svg2">
    <inkscape:grid
       type="xygrid"
       id="grid3113" />
  </sodipodi:namedview>
  <defs
     id="defs4">
    <linearGradient
       inkscape:collect="always"
       id="linearGradient3779">
      <stop
         style="stop-color:#ffffff;stop-opacity:1;"
         offset="0"
         id="stop3781" />
      <stop
         style="stop-color:#ffffff;stop-opacity:0;"
         offset="1"
         id="stop3783" />
    </linearGradient>
    <linearGradient
       id="linearGradient5060">
      <stop
         offset="0"
         id="stop7" />
      <stop
         offset="1"
         stop-opacity="0"
         id="stop9" />
    </linearGradient>
    <linearGradient
       gradientUnits="userSpaceOnUse"
       id="linearGradient3127"
       x2="0"
       y1="38.7186"
       y2="45.76167">
      <stop
         offset="0"
         stop-opacity="0"
         id="stop12" />
      <stop
         offset=".5"
         id="stop14" />
      <stop
         offset="1"
         stop-opacity="0"
         id="stop16" />
    </linearGradient>
    <linearGradient
       gradientUnits="userSpaceOnUse"
       id="linearGradient998"
       x1="6.40561"
       x2="41.36901">
      <stop
         offset="0"
         stop-color="#fff"
         id="stop19" />
      <stop
         offset="1"
         stop-color="#fff"
         stop-opacity="0"
         id="stop21" />
    </linearGradient>
    <linearGradient
       gradientUnits="userSpaceOnUse"
       id="linearGradient3298-8"
       x1="-39.33323"
       x2="-1.64257"
       gradientTransform="matrix(0,-1,-1,0,0,0)">
      <stop
         offset="0"
         stop-color="#791235"
         id="stop24"
         style="stop-color:#590d0d;stop-opacity:1;" />
      <stop
         offset="1"
         stop-color="#dd3b27"
         id="stop26" />
    </linearGradient>
    <linearGradient
       gradientUnits="userSpaceOnUse"
       id="linearGradient4132"
       x1="-5.3196"
       x2="-50.52078"
       gradientTransform="matrix(0,-1,-1,0,0,0)">
      <stop
         offset="0"
         stop-color="#f65454"
         id="stop29" />
      <stop
         offset="1"
         stop-color="#740000"
         id="stop31" />
    </linearGradient>
    <radialGradient
       cx="605.71429"
       cy="486.64789"
       gradientTransform="matrix(.062142,0,0,.029001,1.636502,28.085503)"
       gradientUnits="userSpaceOnUse"
       id="radialGradient3129"
       r="117.14286"
       xlink:href="#linearGradient5060" />
    <radialGradient
       cx="605.71429"
       cy="486.64789"
       gradientTransform="matrix(-.062142,0,0,.029001,46.53201,28.085503)"
       gradientUnits="userSpaceOnUse"
       id="radialGradient3131"
       r="117.14286"
       xlink:href="#linearGradient5060" />
    <radialGradient
       inkscape:collect="always"
       xlink:href="#linearGradient3779"
       id="radialGradient3785"
       cx="20.356808"
       cy="16.612774"
       fx="20.356808"
       fy="16.612774"
       r="13.289289"
       gradientTransform="matrix(1.1890929,0,0,1.1811037,-4.6195228,-5.1449558)"
       gradientUnits="userSpaceOnUse" />
    <linearGradient
       gradientUnits="userSpaceOnUse"
       id="linearGradient4594"
       x1="8.21142"
       x2="31.74275"
       y1="-5.71365"
       y2="25.48744">
      <stop
         offset="0"
         stop-color="#fff"
         id="stop37" />
      <stop
         offset="1"
         stop-color="#fff"
         stop-opacity="0"
         id="stop39" />
    </linearGradient>
    <linearGradient
       inkscape:collect="always"
       xlink:href="#linearGradient4594"
       id="linearGradient3198"
       gradientUnits="userSpaceOnUse"
       gradientTransform="matrix(0.98821957,0,0,0.98630137,0.482998,0.0821918)"
       x1="8.21142"
       y1="-5.71365"
       x2="31.74275"
       y2="25.48744" />
  </defs>
  <g
     transform="matrix(.833389,0,0,1,3.928449,0)"
     id="g35">
    <path
       d="m9.08134,38.7186h30.00582v7.04306h-30.00582z"
       fill="url(#linearGradient3127)"
       opacity=".5"
       id="path37" />
    <path
       d="m39.08716,38.71885v7.04268c3.20017.01326 7.73646-1.57791 7.73646-3.52179s-3.57115-3.52088-7.73646-3.52088z"
       fill="url(#radialGradient3129)"
       opacity=".5"
       id="path39" />
    <path
       d="m9.08134,38.71885v7.04268c-3.20017.01326-7.73646-1.57791-7.73646-3.52179s3.57115-3.52088 7.73646-3.52088z"
       fill="url(#radialGradient3131)"
       opacity=".5"
       id="path41" />
  </g>
  <path
     d="m 41.4999,40.5 0,-33 a 2,2 0 0 0 -2,-2 L 8.5,5.5 a 2,2 0 0 0 -2,2 l 0,33 a 2,2 0 0 0 2,2 l 30.9999,0 a 2,2 0 0 0 2,-2"
     id="path43"
     style="fill:url(#linearGradient4132);stroke:url(#linearGradient3298-8);stroke-linecap:round;stroke-linejoin:round"
     inkscape:connector-curvature="0" />
  <path
     style="opacity:0.98999999;fill:url(#linearGradient3198)"
     inkscape:connector-curvature="0"
     d="M 18,6 H 39.160004 C 40.432831,6 41,6.4824099 41,7.9726027 V 42 H 28.249358 z"
     id="path57" />
  <path
     style="color:#000000;fill:url(#radialGradient3785);fill-opacity:1;fill-rule:nonzero;stroke-width:1;stroke-linecap:butt;stroke-linejoin:miter;stroke-miterlimit:4;stroke-opacity:1;stroke-dasharray:none;stroke-dashoffset:0;marker:none;visibility:visible;display:inline;overflow:visible;enable-background:accumulate"
     d="m 25.889381,8 -9.804185,10.76286 c 2.544028,0.374455 6.869841,3.351586 6.215257,7.326877 1.328596,-2.931836 -1.118504,-6.530503 -3.45292,-7.975358 L 27.396119,8.6484803 C 26.954479,8.3542467 26.589837,8.1873814 25.889381,8 z m -3.526158,0.7646267 c -0.270116,0.013399 -0.449335,0.040873 -0.439459,0.038718 l -3.128547,3.3295195 c -1.756837,0.07805 -3.474017,0.197605 -5.12705,0.348438 -1.180616,0.108704 -2.133367,0.985926 -2.281024,2.139025 C 11.126643,16.663873 11,18.806223 11,21.008351 c 0,2.203057 0.126953,4.34324 0.387143,6.388029 0.167083,1.305481 1.091033,1.952569 2.281024,2.139022 3.259887,0.507945 8.025071,0.03784 8.025406,-4.132861 0,-3.902504 -6.920139,-5.571677 -9.281019,-4.500658 L 23.325866,8.8323813 C 22.99455,8.7544978 22.633358,8.7512001 22.363223,8.7646202 z m 7.418539,3.4069503 c 0,0 -6.140915,12.627622 -6.759337,13.927838 -0.910405,1.918423 -2.156545,3.318057 -3.965621,3.794101 C 20.645565,29.960742 22.232478,30 23.890879,30 c 3.573617,0 7.006695,-0.170035 10.222729,-0.464584 1.181274,-0.109029 2.134026,-0.986234 2.281007,-2.13902 0.261175,-2.044792 0.387144,-4.184974 0.387144,-6.38803 0,-2.202127 -0.125651,-4.344477 -0.387144,-6.388028 -0.146983,-1.153097 -1.099733,-2.03031 -2.281007,-2.139022 -1.404619,-0.128221 -2.850895,-0.23353 -4.331846,-0.309722 z m 8.276532,0.561373 c -0.525346,0 -0.952161,0.403956 -0.952161,0.90013 0,0.504538 0.426815,0.90013 0.952161,0.90013 C 38.583636,14.53321 39,14.137308 39,13.63308 39,13.136906 38.579947,12.73295 38.058294,12.73295 z m 0,0.154853 c 0.41686,0 0.753367,0.329623 0.753367,0.745269 0,0.416577 -0.336507,0.748989 -0.753367,0.74527 -0.420886,0 -0.75337,-0.328382 -0.75337,-0.74527 0,-0.415646 0.336508,-0.745269 0.75337,-0.745269 z m -0.05225,0.232292 c -0.138659,0 -0.22551,0.01693 -0.313892,0.02902 l 0,1.0066 0.188338,0 0,-0.42587 0.115066,0 c 0.129503,0 0.19898,0.045 0.219736,0.164533 0.02038,0.131947 0.03767,0.230047 0.06282,0.261329 l 0.198809,0 c -0.01665,-0.03129 -0.03768,-0.09522 -0.06285,-0.25165 -0.02212,-0.147428 -0.08511,-0.226175 -0.177892,-0.241972 l 0,-0.0096 c 0.113164,-0.02726 0.209273,-0.114348 0.209273,-0.241969 0,-0.09634 -0.03525,-0.158661 -0.09423,-0.203256 -0.06796,-0.04769 -0.176544,-0.0871 -0.345292,-0.0871 z m -0.125505,0.145192 c 0.02916,-0.0037 0.07133,0 0.125505,0 0.176806,0 0.240658,0.07627 0.240658,0.164532 0,0.115851 -0.112534,0.154873 -0.251125,0.154873 l -0.115065,0 0,-0.319402 z"
     id="path3011"
     inkscape:connector-curvature="0" />
  <path
     d="m7.5-40.5h33a1,1 0 0,1 1,1v31a1,1 0 0,1 -1,1h-33a1,1 0 0,1 -1-1v-31a1,1 0 0,1 1-1"
     fill="none"
     opacity=".5"
     stroke="url(#linearGradient998)"
     stroke-linecap="round"
     stroke-linejoin="round"
     transform="matrix(0,1,-1,0,0,0)"
     id="path45" />
  <g
     transform="scale(1.0079614,0.99210152)"
     style="font-size:11.42085552px;font-style:normal;font-weight:normal;line-height:125%;letter-spacing:0px;word-spacing:0px;fill:#ffffff;fill-opacity:1;stroke:none;font-family:Sans"
     id="text3007">
    <path
       d="m 20.91388,32.114601 c 1.111626,8e-6 1.964382,0.213197 2.558272,0.639568 0.601492,0.418771 0.902241,1.046918 0.902247,1.884441 -6e-6,0.456839 -0.08376,0.848955 -0.251258,1.176348 -0.159898,0.319788 -0.395929,0.582467 -0.708093,0.788039 -0.304562,0.197965 -0.677643,0.342629 -1.119244,0.433992 -0.441611,0.09137 -0.940321,0.137054 -1.496132,0.137051 l -0.879406,0 0,2.93516 -1.107823,0 0,-7.800445 c 0.312169,-0.07613 0.658601,-0.125621 1.039298,-0.148471 0.388306,-0.03045 0.742352,-0.04567 1.062139,-0.04568 m 0.09137,0.970772 c -0.472065,7e-6 -0.833725,0.01143 -1.084981,0.03426 l 0,3.106473 0.833722,0 c 0.380692,4e-6 0.723317,-0.02284 1.027877,-0.06853 0.304552,-0.05329 0.559618,-0.137047 0.765198,-0.251259 0.213184,-0.121818 0.376883,-0.285517 0.491096,-0.491097 0.114204,-0.205571 0.171308,-0.46825 0.171313,-0.788039 -5e-6,-0.30455 -0.06092,-0.555809 -0.182734,-0.753777 -0.114213,-0.197955 -0.274105,-0.35404 -0.479675,-0.468255 -0.197966,-0.121815 -0.43019,-0.205568 -0.696673,-0.251258 -0.26649,-0.04568 -0.548204,-0.06852 -0.845143,-0.06853"
       style="font-variant:normal;font-stretch:normal;fill:#ffffff;font-family:Ubuntu;-inkscape-font-specification:Ubuntu"
       id="path3019" />
    <path
       d="m 27.392505,39.32116 c 1.157309,10e-7 1.735966,-0.395921 1.73597,-1.187768 -4e-6,-0.243643 -0.0533,-0.449218 -0.159892,-0.616727 -0.09898,-0.175117 -0.236035,-0.323588 -0.411151,-0.445413 -0.175123,-0.129433 -0.376892,-0.239835 -0.605305,-0.331205 -0.220806,-0.09136 -0.456837,-0.18273 -0.708093,-0.2741 -0.289331,-0.09898 -0.563431,-0.209379 -0.822302,-0.331205 -0.258874,-0.129432 -0.483484,-0.277903 -0.67383,-0.445414 -0.190349,-0.175115 -0.342627,-0.38069 -0.456834,-0.616726 -0.106596,-0.236026 -0.159893,-0.521547 -0.159892,-0.856564 -1e-6,-0.692859 0.23603,-1.233445 0.708093,-1.621761 0.47206,-0.388302 1.123048,-0.582456 1.952966,-0.582464 0.479672,8e-6 0.913664,0.05331 1.301977,0.159892 0.395919,0.09899 0.685247,0.20939 0.867986,0.331205 l -0.354047,0.902247 c -0.159897,-0.09897 -0.399735,-0.194147 -0.719514,-0.285521 -0.312174,-0.09897 -0.677641,-0.148464 -1.096402,-0.148471 -0.213192,7e-6 -0.411154,0.02285 -0.593885,0.06853 -0.182736,0.04569 -0.342627,0.114215 -0.479675,0.205575 -0.137053,0.09137 -0.247454,0.209389 -0.331205,0.354047 -0.07614,0.137057 -0.114211,0.300755 -0.114209,0.491097 -2e-6,0.213195 0.04187,0.392121 0.12563,0.53678 0.08375,0.144669 0.201766,0.274106 0.354046,0.388309 0.152276,0.1066 0.327395,0.20558 0.525359,0.296942 0.205573,0.09137 0.430183,0.182739 0.673831,0.274101 0.342622,0.137054 0.654792,0.274105 0.93651,0.411151 0.289324,0.137054 0.536775,0.300753 0.742356,0.491096 0.213184,0.190351 0.376882,0.418768 0.491096,0.685252 0.114203,0.258875 0.171308,0.574852 0.171313,0.947931 -5e-6,0.692866 -0.255071,1.225839 -0.765197,1.598919 -0.502522,0.373082 -1.214421,0.559622 -2.1357,0.559622 -0.312173,0 -0.601501,-0.02284 -0.867985,-0.06853 -0.258874,-0.03807 -0.491098,-0.08375 -0.696672,-0.13705 -0.205577,-0.06091 -0.384503,-0.121822 -0.53678,-0.182734 -0.144665,-0.06853 -0.258874,-0.125629 -0.342626,-0.171313 l 0.331205,-0.913668 c 0.175119,0.09898 0.441605,0.209383 0.79946,0.331205 0.357851,0.121823 0.79565,0.182734 1.313398,0.182733"
       style="font-variant:normal;font-stretch:normal;fill:#ffffff;font-family:Ubuntu;-inkscape-font-specification:Ubuntu"
       id="path3021" />
    <path
       d="m 38.119544,36.146163 c -8e-6,0.685254 -0.106602,1.282945 -0.319784,1.793074 -0.213196,0.502519 -0.513945,0.921284 -0.902248,1.256294 -0.388315,0.327399 -0.852762,0.57485 -1.393344,0.742356 -0.540591,0.159892 -1.134475,0.239838 -1.781653,0.239838 -0.319787,0 -0.673833,-0.01523 -1.06214,-0.04568 -0.380697,-0.02284 -0.727129,-0.07233 -1.039298,-0.148471 l 0,-7.674815 c 0.312169,-0.07613 0.658601,-0.125621 1.039298,-0.148471 0.388307,-0.03045 0.742353,-0.04567 1.06214,-0.04568 0.647178,8e-6 1.241062,0.08376 1.781653,0.251258 0.540582,0.1599 1.005029,0.407352 1.393344,0.742356 0.388303,0.327405 0.689052,0.746169 0.902248,1.256294 0.213182,0.502523 0.319776,1.096407 0.319784,1.781654 m -4.305663,3.060789 c 1.050715,10e-7 1.834946,-0.266486 2.352697,-0.79946 0.517739,-0.540585 0.776612,-1.294361 0.776618,-2.261329 -6e-6,-0.966961 -0.258879,-1.71693 -0.776618,-2.249909 -0.517751,-0.54058 -1.301982,-0.810874 -2.352697,-0.810881 -0.312172,7e-6 -0.555817,0.0038 -0.730934,0.01142 -0.167508,0.0076 -0.285524,0.01523 -0.354047,0.02284 l 0,6.053053 c 0.06852,0.0076 0.186539,0.01523 0.354047,0.02284 0.175117,0.0076 0.418762,0.01142 0.730934,0.01142"
       style="font-variant:normal;font-stretch:normal;fill:#ffffff;font-family:Ubuntu;-inkscape-font-specification:Ubuntu"
       id="path3023" />
  </g>
</svg>
