<?xml version="1.0" encoding="UTF-8" standalone="no"?>
<svg xmlns:dc="http://purl.org/dc/elements/1.1/" xmlns:cc="http://creativecommons.org/ns#" xmlns:rdf="http://www.w3.org/1999/02/22-rdf-syntax-ns#" xmlns:svg="http://www.w3.org/2000/svg" xmlns="http://www.w3.org/2000/svg" xmlns:xlink="http://www.w3.org/1999/xlink" xmlns:sodipodi="http://sodipodi.sourceforge.net/DTD/sodipodi-0.dtd" xmlns:inkscape="http://www.inkscape.org/namespaces/inkscape" viewBox="0 0 48 48" id="svg2" version="1.1" inkscape:version="0.48.4 r9939" width="100%" height="100%" sodipodi:docname="text-x-template.svg">
    <metadata id="metadata58">
        <rdf:RDF>
            <cc:Work rdf:about="">
                <dc:format>image/svg+xml</dc:format>
                <dc:type rdf:resource="http://purl.org/dc/dcmitype/StillImage" />
                <dc:title />
            </cc:Work>
        </rdf:RDF>
    </metadata>
    <sodipodi:namedview pagecolor="#ffffff" bordercolor="#666666" borderopacity="1" objecttolerance="10" gridtolerance="10" guidetolerance="10" inkscape:pageopacity="0" inkscape:pageshadow="2" inkscape:window-width="1280" inkscape:window-height="976" id="namedview56" showgrid="true" inkscape:zoom="10.76676" inkscape:cx="46.659338" inkscape:cy="25.53871" inkscape:window-x="0" inkscape:window-y="24" inkscape:window-maximized="1" inkscape:current-layer="svg2" inkscape:snap-bbox="true">
        <inkscape:grid type="xygrid" id="grid3009" />
    </sodipodi:namedview>
    <defs id="defs4">
        <linearGradient id="linearGradient5060">
            <stop offset="0" id="stop7" />
            <stop offset="1" stop-opacity="0" id="stop9" />
        </linearGradient>
        <linearGradient gradientUnits="userSpaceOnUse" id="linearGradient3127" x2="0" y1="38.7186" y2="45.76167">
            <stop offset="0" stop-opacity="0" id="stop12" />
            <stop offset=".5" id="stop14" />
            <stop offset="1" stop-opacity="0" id="stop16" />
        </linearGradient>
        <linearGradient gradientUnits="userSpaceOnUse" id="linearGradient3157-5" x1="-42.69615" x2="-5.84311">
            <stop offset="0" stop-color="#fff" id="stop19" />
            <stop offset="1" stop-color="#cdcdcd" id="stop21" />
        </linearGradient>
        <linearGradient gradientUnits="userSpaceOnUse" id="linearGradient998" x1="6.40561" x2="41.36901" gradientTransform="matrix(0,1,-1,0,0,0)">
            <stop offset="0" stop-color="#fff" id="stop24" style="stop-color:white;stop-opacity:0.50196081;" />
            <stop offset="1" stop-color="#fff" stop-opacity="0" id="stop26" />
        </linearGradient>
        <radialGradient cx="605.71429" cy="486.64789" gradientTransform="matrix(0.062142,0,0,0.029001,1.636502,28.085503)" gradientUnits="userSpaceOnUse" id="radialGradient3129" r="117.14286" xlink:href="#linearGradient5060" />
        <radialGradient cx="605.71429" cy="486.64789" gradientTransform="matrix(-0.062142,0,0,0.029001,46.53201,28.085503)" gradientUnits="userSpaceOnUse" id="radialGradient3131" r="117.14286" xlink:href="#linearGradient5060" />
        <linearGradient id="linearGradient3853">
            <stop style="stop-color:#ffffff;stop-opacity:1;" offset="0" id="stop3855" />
            <stop style="stop-color:#ffffff;stop-opacity:0;" offset="1" id="stop3857" />
        </linearGradient>
        <linearGradient id="linearGradient3916">
            <stop id="stop3918" offset="0" style="stop-color:#505050;stop-opacity:1;" />
            <stop style="stop-color:#ffffff;stop-opacity:1;" offset="0.5" id="stop3924" />
            <stop id="stop3920" offset="1" style="stop-color:#505050;stop-opacity:1;" />
        </linearGradient>
        <linearGradient inkscape:collect="always" xlink:href="#linearGradient3916" id="linearGradient3207" gradientUnits="userSpaceOnUse" gradientTransform="matrix(1.3333335,0,0,2,-1.333234,17.000001)" x1="4" y1="9.5" x2="10" y2="9.5" />
        <linearGradient inkscape:collect="always" xlink:href="#linearGradient3916" id="linearGradient3211" gradientUnits="userSpaceOnUse" gradientTransform="matrix(1.3333335,0,0,2,-1.333234,11.000001)" x1="4" y1="9.5" x2="10" y2="9.5" />
        <linearGradient inkscape:collect="always" xlink:href="#linearGradient3916" id="linearGradient3215" gradientUnits="userSpaceOnUse" gradientTransform="matrix(1.3333335,0,0,2,-1.333234,5.0000005)" x1="4" y1="9.5" x2="10" y2="9.5" />
        <linearGradient inkscape:collect="always" xlink:href="#linearGradient3916" id="linearGradient3219" gradientUnits="userSpaceOnUse" gradientTransform="matrix(1.3333335,0,0,2,-1.333234,-0.99999908)" x1="4" y1="9.5" x2="10" y2="9.5" />
        <linearGradient inkscape:collect="always" xlink:href="#linearGradient3916" id="linearGradient3223" gradientUnits="userSpaceOnUse" gradientTransform="matrix(1.3333335,0,0,2,-1.333234,-6.9999995)" x1="4" y1="9.5" x2="10" y2="9.5" />
        <linearGradient inkscape:collect="always" xlink:href="#linearGradient3853" id="linearGradient3230" gradientUnits="userSpaceOnUse" gradientTransform="translate(2.0001,5.2e-7)" x1="13" y1="7" x2="13" y2="42" />
    </defs>
    <g transform="matrix(0.83555525,0,0,0.99388618,3.8762785,0.51811855)" id="g30">
        <path d="m 9.08134,38.7186 h 30.00582 v 7.04306 H 9.08134 z" id="path32" style="opacity:0.5;fill:url(#linearGradient3127)" inkscape:connector-curvature="0" />
        <path d="m 39.08716,38.71885 v 7.04268 c 3.20017,0.01326 7.73646,-1.57791 7.73646,-3.52179 0,-1.94388 -3.57115,-3.52088 -7.73646,-3.52088 z" id="path34" style="opacity:0.5;fill:url(#radialGradient3129)" inkscape:connector-curvature="0" />
        <path d="m 9.08134,38.71885 v 7.04268 c -3.20017,0.01326 -7.73646,-1.57791 -7.73646,-3.52179 0,-1.94388 3.57115,-3.52088 7.73646,-3.52088 z" id="path36" style="opacity:0.5;fill:url(#radialGradient3131)" inkscape:connector-curvature="0" />
    </g>
    <path d="m-40.5-41.4999h33a2,2 0 0,1 2,2v30.9999a2,2 0 0,1 -2,2h-33a2,2 0 0,1 -2-2v-30.9999a2,2 0 0,1 2-2" id="path38" stroke-linejoin="round" stroke-linecap="round" stroke="#818181" fill="url(#linearGradient3157-5)" transform="matrix(0,-1,-1,0,0,0)" />
    <path d="m 18,21 v 2 H 38 V 21 H 18 z" id="path44" inkscape:connector-curvature="0" style="fill:#999" />
    <path d="m 18,25 v 2 H 38 V 25 H 18 z" id="path46" inkscape:connector-curvature="0" style="fill:#999" />
    <path d="m 18,29 v 2 H 38 V 29 H 18 z" id="path48" inkscape:connector-curvature="0" style="fill:#999" />
    <path d="m 18,33 v 2 H 29 V 33 H 18 z" id="path50" inkscape:connector-curvature="0" style="fill:#999" />
    <path d="m 18,13 v 2 H 38 V 13 H 18 z" id="path52" inkscape:connector-curvature="0" style="fill:#999" />
    <path d="m 18,17 v 2 H 38 V 17 H 18 z" id="path54" inkscape:connector-curvature="0" style="fill:#999" />
    <path id="path3034" d="m 15.0001,6.0000005 -6.382139,0 c -1.104293,0 -1.617861,0.6592303 -1.617861,1.572904 l 0,32.7958525 c 0,1.018895 0.520965,1.631244 1.538245,1.631244 l 6.461755,0" style="color:black;fill:#aaa;fill-opacity:1;fill-rule:nonzero;stroke:none;stroke-width:1;marker:none;visibility:visible;display:inline;overflow:visible;enable-background:accumulate" inkscape:connector-curvature="0" sodipodi:nodetypes="cssssc" />
    <path style="color:black;fill:#787878;fill-opacity:1;fill-rule:nonzero;stroke:none;stroke-width:1;marker:none;visibility:visible;display:inline;overflow:visible;enable-background:accumulate" d="m 14.0001,7.0000005 1,0 0,35.0000005 -1,0 z" id="rect3859" inkscape:connector-curvature="0" />
    <path style="opacity:0.5;color:black;fill:url(#linearGradient3230);fill-opacity:1;fill-rule:nonzero;stroke:none;stroke-width:1;marker:none;visibility:visible;display:inline;overflow:visible;enable-background:accumulate" d="m 15.0001,7.0000005 1,0 0,35.0000005 -1,0 z" id="rect3843" inkscape:connector-curvature="0" />
    <g clip-path="none" clip-rule="nonzero" id="g8309" transform="matrix(0.24508821,0,0,0.24508821,90.197529,-33.077958)" />
    <path d="m 40.5,7.5 0,33 a 1,1 0 0 1 -1,1 l -31,0 a 1,1 0 0 1 -1,-1 l 0,-33 a 1,1 0 0 1 1,-1 l 31,0 a 1,1 0 0 1 1,1" id="path40" style="fill:none;stroke:url(#linearGradient998);stroke-linecap:round;stroke-linejoin:round" inkscape:connector-curvature="0" />
    <path sodipodi:type="arc" style="color:black;fill:#505050;fill-opacity:1;fill-rule:nonzero;stroke:none;stroke-width:0.75000006;marker:none;visibility:visible;display:inline;overflow:visible;enable-background:accumulate" id="path3914" sodipodi:cx="10.5" sodipodi:cy="9.5" sodipodi:rx="1.5" sodipodi:ry="1.5" d="m 12,9.5 a 1.5,1.5 0 1 1 -3,0 1.5,1.5 0 1 1 3,0 z" transform="matrix(1.3333332,0,0,1.3333333,-2.999899,-0.66666618)" />
    <rect rx="1" style="color:black;fill:url(#linearGradient3223);fill-opacity:1;fill-rule:nonzero;stroke:none;stroke-width:1;marker:none;visibility:visible;display:inline;overflow:visible;enable-background:accumulate" id="rect3908" width="8" height="2" x="4.0000992" y="11" ry="1" />
    <path transform="matrix(1.3333332,0,0,1.3333333,-2.999899,5.3333342)" d="m 12,9.5 a 1.5,1.5 0 1 1 -3,0 1.5,1.5 0 1 1 3,0 z" sodipodi:ry="1.5" sodipodi:rx="1.5" sodipodi:cy="9.5" sodipodi:cx="10.5" id="path3841" style="color:black;fill:#505050;fill-opacity:1;fill-rule:nonzero;stroke:none;stroke-width:0.75000006;marker:none;visibility:visible;display:inline;overflow:visible;enable-background:accumulate" sodipodi:type="arc" />
    <rect rx="1" ry="1" y="17" x="4.0000992" height="2" width="8" id="rect3844" style="color:black;fill:url(#linearGradient3219);fill-opacity:1;fill-rule:nonzero;stroke:none;stroke-width:1;marker:none;visibility:visible;display:inline;overflow:visible;enable-background:accumulate" />
    <path transform="matrix(1.3333332,0,0,1.3333333,-2.999899,11.333334)" d="m 12,9.5 a 1.5,1.5 0 1 1 -3,0 1.5,1.5 0 1 1 3,0 z" sodipodi:ry="1.5" sodipodi:rx="1.5" sodipodi:cy="9.5" sodipodi:cx="10.5" id="path3848" style="color:black;fill:#505050;fill-opacity:1;fill-rule:nonzero;stroke:none;stroke-width:0.75000006;marker:none;visibility:visible;display:inline;overflow:visible;enable-background:accumulate" sodipodi:type="arc" />
    <rect rx="1" ry="1" y="23" x="4.0000992" height="2" width="8" id="rect3850" style="color:black;fill:url(#linearGradient3215);fill-opacity:1;fill-rule:nonzero;stroke:none;stroke-width:1;marker:none;visibility:visible;display:inline;overflow:visible;enable-background:accumulate" />
    <path sodipodi:type="arc" style="color:black;fill:#505050;fill-opacity:1;fill-rule:nonzero;stroke:none;stroke-width:0.75000006;marker:none;visibility:visible;display:inline;overflow:visible;enable-background:accumulate" id="path3852" sodipodi:cx="10.5" sodipodi:cy="9.5" sodipodi:rx="1.5" sodipodi:ry="1.5" d="m 12,9.5 a 1.5,1.5 0 1 1 -3,0 1.5,1.5 0 1 1 3,0 z" transform="matrix(1.3333332,0,0,1.3333333,-2.999899,17.333335)" />
    <rect rx="1" style="color:black;fill:url(#linearGradient3211);fill-opacity:1;fill-rule:nonzero;stroke:none;stroke-width:1;marker:none;visibility:visible;display:inline;overflow:visible;enable-background:accumulate" id="rect3854" width="8" height="2" x="4.0000992" y="29" ry="1" />
    <path transform="matrix(1.3333332,0,0,1.3333333,-2.999899,23.333335)" d="m 12,9.5 a 1.5,1.5 0 1 1 -3,0 1.5,1.5 0 1 1 3,0 z" sodipodi:ry="1.5" sodipodi:rx="1.5" sodipodi:cy="9.5" sodipodi:cx="10.5" id="path3860" style="color:black;fill:#505050;fill-opacity:1;fill-rule:nonzero;stroke:none;stroke-width:0.75000006;marker:none;visibility:visible;display:inline;overflow:visible;enable-background:accumulate" sodipodi:type="arc" />
    <rect rx="1" ry="1" y="35" x="4.0000992" height="2" width="8" id="rect3862" style="color:black;fill:url(#linearGradient3207);fill-opacity:1;fill-rule:nonzero;stroke:none;stroke-width:1;marker:none;visibility:visible;display:inline;overflow:visible;enable-background:accumulate" />
</svg>
