<?xml version="1.0" encoding="UTF-8" standalone="no"?>
<svg
   xmlns:dc="http://purl.org/dc/elements/1.1/"
   xmlns:cc="http://creativecommons.org/ns#"
   xmlns:rdf="http://www.w3.org/1999/02/22-rdf-syntax-ns#"
   xmlns:svg="http://www.w3.org/2000/svg"
   xmlns="http://www.w3.org/2000/svg"
   xmlns:xlink="http://www.w3.org/1999/xlink"
   xmlns:sodipodi="http://sodipodi.sourceforge.net/DTD/sodipodi-0.dtd"
   xmlns:inkscape="http://www.inkscape.org/namespaces/inkscape"
   viewBox="0 0 48 48"
   id="svg2"
   version="1.1"
   inkscape:version="0.48.3.1 r9886"
   width="100%"
   height="100%"
   sodipodi:docname="libreoffice-oasis-draw.svg">
  <metadata
     id="metadata78">
    <rdf:RDF>
      <cc:Work
         rdf:about="">
        <dc:format>image/svg+xml</dc:format>
        <dc:type
           rdf:resource="http://purl.org/dc/dcmitype/StillImage" />
        <dc:title />
      </cc:Work>
    </rdf:RDF>
  </metadata>
  <sodipodi:namedview
     pagecolor="#ffffff"
     bordercolor="#666666"
     borderopacity="1"
     objecttolerance="10"
     gridtolerance="10"
     guidetolerance="10"
     inkscape:pageopacity="0"
     inkscape:pageshadow="2"
     inkscape:window-width="1280"
     inkscape:window-height="976"
     id="namedview76"
     showgrid="true"
     inkscape:zoom="7.1111114"
     inkscape:cx="58.63705"
     inkscape:cy="29.068788"
     inkscape:window-x="0"
     inkscape:window-y="24"
     inkscape:window-maximized="1"
     inkscape:current-layer="svg2"
     showguides="true"
     inkscape:guide-bbox="true">
    <inkscape:grid
       type="xygrid"
       id="grid3032" />
  </sodipodi:namedview>
  <defs
     id="defs4">
    <linearGradient
       id="linearGradient3866">
      <stop
         style="stop-color:#818181;stop-opacity:1;"
         offset="0"
         id="stop3868" />
      <stop
         style="stop-color:#7c5c0f;stop-opacity:1"
         offset="1"
         id="stop3870" />
    </linearGradient>
    <linearGradient
       id="linearGradient3853">
      <stop
         id="stop3855"
         offset="0"
         style="stop-color:#ffffff;stop-opacity:1;" />
      <stop
         id="stop3857"
         offset="1"
         style="stop-color:#ffffff;stop-opacity:0;" />
    </linearGradient>
    <linearGradient
       id="linearGradient5060">
      <stop
         offset="0"
         id="stop7" />
      <stop
         offset="1"
         stop-opacity="0"
         id="stop9" />
    </linearGradient>
    <linearGradient
       gradientUnits="userSpaceOnUse"
       id="linearGradient3127"
       x2="0"
       y1="38.7186"
       y2="45.76167">
      <stop
         offset="0"
         stop-opacity="0"
         id="stop12" />
      <stop
         offset=".5"
         id="stop14" />
      <stop
         offset="1"
         stop-opacity="0"
         id="stop16" />
    </linearGradient>
    <linearGradient
       gradientUnits="userSpaceOnUse"
       id="linearGradient3157-5"
       x1="-42.69615"
       x2="-5.84311"
       gradientTransform="matrix(0,-1,-1,0,1.6172605e-8,-1.5826913e-8)">
      <stop
         offset="0"
         stop-color="#fff"
         id="stop19" />
      <stop
         offset="1"
         stop-color="#cdcdcd"
         id="stop21" />
    </linearGradient>
    <linearGradient
       gradientUnits="userSpaceOnUse"
       id="linearGradient998"
       x1="6"
       x2="42"
       y2="-23"
       y1="-23">
      <stop
         offset="0"
         stop-color="#fff"
         id="stop24" />
      <stop
         offset="1"
         stop-color="#fff"
         stop-opacity="0"
         id="stop26"
         style="stop-color:#ffffff;stop-opacity:0.5" />
    </linearGradient>
    <radialGradient
       cx="605.71429"
       cy="486.64789"
       gradientTransform="matrix(.062142,0,0,.029001,1.636502,28.085503)"
       gradientUnits="userSpaceOnUse"
       id="radialGradient3129"
       r="117.14286"
       xlink:href="#linearGradient5060" />
    <radialGradient
       cx="605.71429"
       cy="486.64789"
       gradientTransform="matrix(-.062142,0,0,.029001,46.53201,28.085503)"
       gradientUnits="userSpaceOnUse"
       id="radialGradient3131"
       r="117.14286"
       xlink:href="#linearGradient5060" />
    <linearGradient
       inkscape:collect="always"
       xlink:href="#linearGradient3866"
       id="linearGradient3872"
       x1="-5"
       y1="-21"
       x2="-43"
       y2="-21"
       gradientUnits="userSpaceOnUse"
       gradientTransform="matrix(0,-1,-1,0,1.6172605e-8,-1.5826913e-8)" />
    <linearGradient
       inkscape:collect="always"
       xlink:href="#linearGradient3853"
       id="linearGradient3838"
       gradientUnits="userSpaceOnUse"
       gradientTransform="translate(2,0)"
       x1="13"
       y1="7"
       x2="13"
       y2="42" />
  </defs>
  <g
     transform="matrix(.833389,0,0,1,3.928449,0)"
     id="g40">
    <path
       d="m9.08134,38.7186h30.00582v7.04306h-30.00582z"
       id="path42"
       fill="url(#linearGradient3127)"
       opacity=".5" />
    <path
       d="m39.08716,38.71885v7.04268c3.20017.01326 7.73646-1.57791 7.73646-3.52179s-3.57115-3.52088-7.73646-3.52088z"
       id="path44"
       fill="url(#radialGradient3129)"
       opacity=".5" />
    <path
       d="m9.08134,38.71885v7.04268c-3.20017.01326-7.73646-1.57791-7.73646-3.52179s3.57115-3.52088 7.73646-3.52088z"
       id="path46"
       fill="url(#radialGradient3131)"
       opacity=".5" />
  </g>
  <path
     d="m 41.4999,40.5 0,-33.0000001 a 2,2 0 0 0 -2,-1.9999998 l -30.9998998,-6e-7 A 2,2 0 0 0 6.5000001,7.4999998 L 6.5000005,40.5 a 2,2 0 0 0 1.9999992,2 l 30.9999003,0 a 2,2 0 0 0 2,-2"
     id="path48"
     style="fill:url(#linearGradient3157-5);stroke:url(#linearGradient3872);stroke-linecap:round;stroke-linejoin:round"
     inkscape:connector-curvature="0" />
  <path
     id="path3034"
     d="M 15,6 8.6178615,6 C 7.5135685,6 7,6.6592303 7,7.572904 L 7,40.368756 C 7,41.387651 7.5209649,42 8.5382454,42 L 15,42"
     style="color:#000000;fill:#e4aa1c;fill-opacity:1;fill-rule:nonzero;stroke:none;stroke-width:1;marker:none;visibility:visible;display:inline;overflow:visible;enable-background:accumulate"
     inkscape:connector-curvature="0"
     sodipodi:nodetypes="cssssc" />
  <path
     style="color:#000000;fill:#7c5c0f;fill-opacity:1;fill-rule:nonzero;stroke:none;stroke-width:1;marker:none;visibility:visible;display:inline;overflow:visible;enable-background:accumulate"
     d="m 14,7 1,0 0,35 -1,0 z"
     id="rect3859"
     inkscape:connector-curvature="0" />
  <path
     style="opacity:0.5;color:#000000;fill:url(#linearGradient3838);fill-opacity:1;fill-rule:nonzero;stroke:none;stroke-width:1;marker:none;visibility:visible;display:inline;overflow:visible;enable-background:accumulate"
     d="m 15,7 1,0 0,35 -1,0 z"
     id="rect3843"
     inkscape:connector-curvature="0" />
  <path
     d="m7.5-40.5h33a1,1 0 0,1 1,1v31a1,1 0 0,1 -1,1h-33a1,1 0 0,1 -1-1v-31a1,1 0 0,1 1-1"
     id="path62"
     style="opacity:0.5;stroke:url(#linearGradient998)"
     transform="matrix(0,1,-1,0,0,0)"
     stroke-linejoin="round"
     stroke-linecap="round"
     stroke="url(#linearGradient998)"
     fill="none" />
  <g
     clip-path="none"
     clip-rule="nonzero"
     id="g8309"
     transform="matrix(0.24508821,0,0,0.24508821,50.197429,-33.077959)" />
  <path
     inkscape:connector-curvature="0"
     id="path13561"
     d="m 33.336563,33.319053 c -0.563365,-0.827211 -0.891753,-1.63657 -0.729742,-1.798576 0.347236,-0.347237 2.358001,1.995749 2.380385,2.773672 0.02706,0.94038 -0.597316,0.571543 -1.650643,-0.975096 z M 19.601214,33.197684 c 0,-0.587694 2.539181,-2.817258 2.852106,-2.504332 0.161782,0.161785 -0.25727,0.869682 -0.93121,1.573122 -1.2104,1.263383 -1.920896,1.607819 -1.920896,0.93121 z m 5.32977,-2.595559 c -5.053724,-2.295584 -4.658584,-8.88925 0.696424,-11.621171 1.786913,-0.911616 5.070997,-1.109866 6.420577,-0.387592 1.286077,0.68829 0.565321,1.254509 -1.008464,0.792241 -4.116387,-1.209104 -8.43453,1.843595 -8.440778,5.967181 -0.0021,1.547976 0.241844,2.105663 1.451755,3.315575 1.268132,1.268134 1.730029,1.454575 3.603611,1.454575 1.702884,0 2.429952,-0.236372 3.502141,-1.138559 1.856011,-1.561732 2.27533,-2.83141 1.526758,-4.622985 -1.020781,-2.443076 -3.478171,-3.100001 -5.53732,-1.480277 -1.50889,1.18689 -1.48731,2.745845 0.04927,3.558733 1.073969,0.568156 1.105377,0.650157 0.360402,0.940936 -1.213842,0.473788 -2.97968,-1.696258 -2.604373,-3.200525 0.392475,-1.573072 1.387254,-2.543595 3.088698,-3.013385 3.257257,-0.899372 6.107283,1.346604 6.107283,4.812868 0,1.863151 -1.349543,3.59198 -3.602808,4.615361 -2.19415,0.996532 -3.431362,0.998081 -5.613163,0.007 z m 10.071606,-9.46962 c 0,-0.42721 2.475372,-2.12807 3.101666,-2.131191 0.778315,-0.0041 0.202207,0.857586 -1.120035,1.674771 -1.618514,1.000296 -1.981631,1.08393 -1.981631,0.45642 z M 18.638626,20.386611 c -1.210218,-0.75034 -1.53505,-1.386884 -0.707732,-1.386884 0.661524,0 2.953765,1.399592 2.953765,1.803503 0,0.546903 -0.987369,0.363754 -2.246033,-0.416619 z m 8.861061,-3.627608 c -0.376532,-0.981241 -0.05582,-3.534794 0.443938,-3.534794 0.586667,0 0.806278,3.215192 0.257118,3.76435 -0.305423,0.305428 -0.52311,0.234148 -0.701056,-0.229558 z"
     style="color:#000000;fill:#7c5c0f;fill-opacity:1;fill-rule:nonzero;stroke:#7c5c0f;stroke-width:0.5;stroke-linecap:butt;stroke-linejoin:round;stroke-miterlimit:4;stroke-opacity:1;stroke-dasharray:none;stroke-dashoffset:0;marker:none;visibility:visible;display:inline;overflow:visible;enable-background:accumulate" />
</svg>
