<?xml version="1.0" encoding="UTF-8" standalone="no"?>
<!-- Created with Inkscape (http://www.inkscape.org/) -->

<svg
   xmlns:dc="http://purl.org/dc/elements/1.1/"
   xmlns:cc="http://creativecommons.org/ns#"
   xmlns:rdf="http://www.w3.org/1999/02/22-rdf-syntax-ns#"
   xmlns:svg="http://www.w3.org/2000/svg"
   xmlns="http://www.w3.org/2000/svg"
   xmlns:xlink="http://www.w3.org/1999/xlink"
   xmlns:sodipodi="http://sodipodi.sourceforge.net/DTD/sodipodi-0.dtd"
   xmlns:inkscape="http://www.inkscape.org/namespaces/inkscape"
   version="1.0"
   width="22"
   height="22"
   id="svg4073"
   inkscape:version="0.48.4 r9939"
   sodipodi:docname="nm-adhoc.svg">
  <metadata
     id="metadata18">
    <rdf:RDF>
      <cc:Work
         rdf:about="">
        <dc:format>image/svg+xml</dc:format>
        <dc:type
           rdf:resource="http://purl.org/dc/dcmitype/StillImage" />
        <dc:title />
      </cc:Work>
    </rdf:RDF>
  </metadata>
  <sodipodi:namedview
     pagecolor="#ffffff"
     bordercolor="#666666"
     borderopacity="1"
     objecttolerance="10"
     gridtolerance="10"
     guidetolerance="10"
     inkscape:pageopacity="0"
     inkscape:pageshadow="2"
     inkscape:window-width="1280"
     inkscape:window-height="971"
     id="namedview16"
     showgrid="true"
     inkscape:zoom="14.688536"
     inkscape:cx="24.197632"
     inkscape:cy="10.679742"
     inkscape:window-x="0"
     inkscape:window-y="24"
     inkscape:window-maximized="1"
     inkscape:current-layer="svg4073"
     inkscape:snap-bbox="true"
     inkscape:bbox-nodes="true">
    <inkscape:grid
       type="xygrid"
       id="grid2989" />
  </sodipodi:namedview>
  <defs
     id="defs4075">
    <linearGradient
       y2="21.23077"
       x2="19.000309"
       y1="-2.1538463"
       x1="19.000309"
       gradientTransform="matrix(1,0,0,0.8125,-8.000309,-2.25)"
       gradientUnits="userSpaceOnUse"
       id="linearGradient3120-0"
       xlink:href="#linearGradient3004-8-3"
       inkscape:collect="always" />
    <linearGradient
       id="linearGradient3004-8-3">
      <stop
         id="stop3006-3-0"
         offset="0"
         style="stop-color:#000000;stop-opacity:1;" />
      <stop
         id="stop3008-7-3"
         offset="1"
         style="stop-color:#363636;stop-opacity:1;" />
    </linearGradient>
    <linearGradient
       y2="21.23077"
       x2="19.000309"
       y1="-2.1538463"
       x1="19.000309"
       gradientTransform="matrix(1,0,0,0.8125,-8.000309,-2.25)"
       gradientUnits="userSpaceOnUse"
       id="linearGradient3120-0-9"
       xlink:href="#linearGradient3004-8-3-3"
       inkscape:collect="always" />
    <linearGradient
       id="linearGradient3004-8-3-3">
      <stop
         id="stop3006-3-0-3"
         offset="0"
         style="stop-color:#000000;stop-opacity:1;" />
      <stop
         id="stop3008-7-3-6"
         offset="1"
         style="stop-color:#363636;stop-opacity:1;" />
    </linearGradient>
    <linearGradient
       inkscape:collect="always"
       xlink:href="#linearGradient3004-8-3-3"
       id="linearGradient2997"
       gradientUnits="userSpaceOnUse"
       gradientTransform="matrix(1,0,0,0.8125,-8.000309,-2.25)"
       x1="19.000309"
       y1="-2.1538463"
       x2="19.000309"
       y2="21.23077" />
    <linearGradient
       inkscape:collect="always"
       xlink:href="#linearGradient3004-8-3"
       id="linearGradient3021"
       gradientUnits="userSpaceOnUse"
       gradientTransform="matrix(1,0,0,0.8125,-8.000309,-2.25)"
       x1="20.000309"
       y1="6.4615383"
       x2="20.000309"
       y2="26.153847" />
  </defs>
  <path
     id="path3023"
     d="m 20,4 0,1 0,7 0,1 1,0 0,-1 1,0 0,-7 -1,0 0,-1 -1,0 z m -3,1 0,1 0,5 0,1 1,0 0,-1 1,0 0,-5 -1,0 0,-1 -1,0 z m -3,1 0,1 0,3 0,1 1,0 0,-1 1,0 0,-3 -1,0 0,-1 -1,0 z M 3,7 2,8 l 0,7 1,1 9,0 1,-1 0,-7 -1,-1 -9,0 z m 1,2 7,0 0,5 -7,0 0,-5 z m -1,8 -2,2 0,1 13,0 0,-1 -2,-2 -9,0 z"
     style="opacity:0.59999999999999998;color:#000000;fill:#ffffff;fill-opacity:1;fill-rule:nonzero;stroke:none;stroke-width:1;marker:none;visibility:visible;display:inline;overflow:visible;enable-background:accumulate"
     inkscape:connector-curvature="0" />
  <path
     style="opacity:0.69999999999999996;color:#000000;fill:url(#linearGradient3021);fill-opacity:1;fill-rule:nonzero;stroke:none;stroke-width:1;marker:none;visibility:visible;display:inline;overflow:visible;enable-background:accumulate"
     d="M 20 3 L 20 4 L 20 11 L 20 12 L 21 12 L 21 11 L 22 11 L 22 4 L 21 4 L 21 3 L 20 3 z M 17 4 L 17 5 L 17 10 L 17 11 L 18 11 L 18 10 L 19 10 L 19 5 L 18 5 L 18 4 L 17 4 z M 14 5 L 14 6 L 14 9 L 14 10 L 15 10 L 15 9 L 16 9 L 16 6 L 15 6 L 15 5 L 14 5 z M 3 6 L 2 7 L 2 14 L 3 15 L 12 15 L 13 14 L 13 7 L 12 6 L 3 6 z M 4 8 L 11 8 L 11 13 L 4 13 L 4 8 z M 3 16 L 1 18 L 1 19 L 14 19 L 14 18 L 12 16 L 3 16 z "
     id="path2996" />
</svg>
