<?xml version="1.0" encoding="UTF-8" standalone="no"?>
<!-- Created with Inkscape (http://www.inkscape.org/) -->

<svg
   xmlns:dc="http://purl.org/dc/elements/1.1/"
   xmlns:cc="http://creativecommons.org/ns#"
   xmlns:rdf="http://www.w3.org/1999/02/22-rdf-syntax-ns#"
   xmlns:svg="http://www.w3.org/2000/svg"
   xmlns="http://www.w3.org/2000/svg"
   xmlns:xlink="http://www.w3.org/1999/xlink"
   xmlns:sodipodi="http://sodipodi.sourceforge.net/DTD/sodipodi-0.dtd"
   xmlns:inkscape="http://www.inkscape.org/namespaces/inkscape"
   version="1.0"
   width="22"
   height="22"
   id="svg3194"
   inkscape:version="0.48.4 r9939"
   sodipodi:docname="nm-signal-75.svg">
  <sodipodi:namedview
     pagecolor="#ffffff"
     bordercolor="#666666"
     borderopacity="1"
     objecttolerance="10"
     gridtolerance="10"
     guidetolerance="10"
     inkscape:pageopacity="0"
     inkscape:pageshadow="2"
     inkscape:window-width="1280"
     inkscape:window-height="971"
     id="namedview11"
     showgrid="true"
     inkscape:zoom="22.627418"
     inkscape:cx="24.124285"
     inkscape:cy="8.8539993"
     inkscape:window-x="0"
     inkscape:window-y="24"
     inkscape:window-maximized="1"
     inkscape:current-layer="svg3194"
     inkscape:snap-bbox="true">
    <inkscape:grid
       type="xygrid"
       id="grid2987"
       empspacing="5"
       visible="true"
       enabled="true"
       snapvisiblegridlinesonly="true" />
  </sodipodi:namedview>
  <metadata
     id="metadata16">
    <rdf:RDF>
      <cc:Work
         rdf:about="">
        <dc:format>image/svg+xml</dc:format>
        <dc:type
           rdf:resource="http://purl.org/dc/dcmitype/StillImage" />
        <dc:title />
      </cc:Work>
    </rdf:RDF>
  </metadata>
  <defs
     id="defs3196">
    <linearGradient
       id="linearGradient3004-8-6">
      <stop
         id="stop3006-3-6"
         offset="0"
         style="stop-color:#000000;stop-opacity:1;" />
      <stop
         id="stop3008-7-8"
         offset="1"
         style="stop-color:#363636;stop-opacity:1;" />
    </linearGradient>
    <linearGradient
       id="linearGradient3004-8">
      <stop
         id="stop3006-3"
         offset="0"
         style="stop-color:#000000;stop-opacity:1;" />
      <stop
         id="stop3008-7"
         offset="1"
         style="stop-color:#363636;stop-opacity:1;" />
    </linearGradient>
    <linearGradient
       inkscape:collect="always"
       xlink:href="#linearGradient3004-8"
       id="linearGradient3429"
       gradientUnits="userSpaceOnUse"
       gradientTransform="matrix(1,0,0,0.8125,-6.000309,3.75)"
       x1="11"
       y1="4"
       x2="11"
       y2="20" />
    <linearGradient
       inkscape:collect="always"
       xlink:href="#linearGradient3004-8-6"
       id="linearGradient3431"
       gradientUnits="userSpaceOnUse"
       gradientTransform="matrix(1.2430679,0,0,0.39374996,-21.834015,12.125)"
       x1="11"
       y1="4"
       x2="11"
       y2="20" />
    <linearGradient
       inkscape:collect="always"
       xlink:href="#linearGradient3004-8"
       id="linearGradient3433"
       gradientUnits="userSpaceOnUse"
       gradientTransform="matrix(1.0000002,0,0,0.375,-14.000316,12.5)"
       x1="11"
       y1="4"
       x2="11"
       y2="20" />
    <linearGradient
       inkscape:collect="always"
       xlink:href="#linearGradient3004-89"
       id="linearGradient3230-5"
       gradientUnits="userSpaceOnUse"
       x1="11"
       y1="4"
       x2="11"
       y2="20"
       gradientTransform="translate(-3.0899048e-4,0)" />
    <linearGradient
       id="linearGradient3004-89">
      <stop
         style="stop-color:#000000;stop-opacity:1;"
         offset="0"
         id="stop3006-8" />
      <stop
         style="stop-color:#363636;stop-opacity:1;"
         offset="1"
         id="stop3008-73" />
    </linearGradient>
  </defs>
  <g
     id="g3418"
     transform="translate(-1,-1)">
    <path
       inkscape:connector-curvature="0"
       id="path3075"
       d="M 20.5,4 C 19.669,4 19,4.669 19,5.5 l 0,14 c 0,0.831 0.669,1.5 1.5,1.5 0.831,0 1.5,-0.669 1.5,-1.5 l 0,-14 C 22,4.669 21.331,4 20.5,4 z m -4,4 C 15.669,8 15,8.669 15,9.5 l 0,10 c 0,0.831 0.669,1.5 1.5,1.5 0.831,0 1.5,-0.669 1.5,-1.5 l 0,-10 C 18,8.669 17.331,8 16.5,8 z m -4,4 C 11.669,12 11,12.669 11,13.5 l 0,6 c 0,0.831 0.669,1.5 1.5,1.5 0.831,0 1.5,-0.669 1.5,-1.5 l 0,-6 C 14,12.669 13.331,12 12.5,12 z m -4,3 C 8.4372636,15 8.3731716,15.023842 8.3125,15.03125 7.5695216,15.121965 7,15.731736 7,16.5 l 0,3 C 7,20.331 7.669,21 8.5,21 9.331,21 10,20.331 10,19.5 l 0,-3 C 10,15.731736 9.4304784,15.121965 8.6875,15.03125 8.6276406,15.006016 8.56925,15 8.5,15 z"
       style="opacity:0.6;color:#000000;fill:#ffffff;fill-opacity:1;fill-rule:nonzero;stroke:none;stroke-width:1;marker:none;visibility:visible;display:inline;overflow:visible;enable-background:accumulate"
       sodipodi:nodetypes="sssssssssssssssssssssssssssscs" />
    <rect
       rx="1.5"
       ry="1.5"
       y="3"
       x="19"
       height="17"
       width="3"
       id="rect3082"
       style="opacity:0.32000002;color:#000000;fill:url(#linearGradient3230-5);fill-opacity:1;fill-rule:nonzero;stroke:none;stroke-width:1;marker:none;visibility:visible;display:inline;overflow:visible;enable-background:accumulate" />
    <rect
       rx="1.5"
       style="opacity:0.7;color:#000000;fill:url(#linearGradient3429);fill-opacity:1;fill-rule:nonzero;stroke:none;stroke-width:1;marker:none;visibility:visible;display:inline;overflow:visible;enable-background:accumulate"
       id="rect3117"
       width="3"
       height="13"
       x="15"
       y="7"
       ry="1.5" />
    <rect
       rx="1.5"
       ry="1.5"
       y="11"
       x="11"
       height="9"
       width="3"
       id="rect3122"
       style="opacity:0.7;color:#000000;fill:url(#linearGradient3431);fill-opacity:1;fill-rule:nonzero;stroke:none;stroke-width:1;marker:none;visibility:visible;display:inline;overflow:visible;enable-background:accumulate" />
    <rect
       rx="1.5"
       style="opacity:0.7;color:#000000;fill:url(#linearGradient3433);fill-opacity:1;fill-rule:nonzero;stroke:none;stroke-width:1;marker:none;visibility:visible;display:inline;overflow:visible;enable-background:accumulate"
       id="rect3126"
       width="3.0000007"
       height="6"
       x="7"
       y="14"
       ry="1.5" />
  </g>
</svg>
