<?xml version="1.0" encoding="UTF-8" standalone="no"?>
<!-- Created with Inkscape (http://www.inkscape.org/) -->

<svg
   xmlns:dc="http://purl.org/dc/elements/1.1/"
   xmlns:cc="http://creativecommons.org/ns#"
   xmlns:rdf="http://www.w3.org/1999/02/22-rdf-syntax-ns#"
   xmlns:svg="http://www.w3.org/2000/svg"
   xmlns="http://www.w3.org/2000/svg"
   xmlns:xlink="http://www.w3.org/1999/xlink"
   xmlns:sodipodi="http://sodipodi.sourceforge.net/DTD/sodipodi-0.dtd"
   xmlns:inkscape="http://www.inkscape.org/namespaces/inkscape"
   version="1.0"
   width="22"
   height="22"
   id="svg3194"
   inkscape:version="0.48.4 r9939"
   sodipodi:docname="nm-signal-100.svg">
  <sodipodi:namedview
     pagecolor="#ffffff"
     bordercolor="#666666"
     borderopacity="1"
     objecttolerance="10"
     gridtolerance="10"
     guidetolerance="10"
     inkscape:pageopacity="0"
     inkscape:pageshadow="2"
     inkscape:window-width="1280"
     inkscape:window-height="975"
     id="namedview11"
     showgrid="true"
     inkscape:zoom="22.627418"
     inkscape:cx="13.36875"
     inkscape:cy="12.735011"
     inkscape:window-x="0"
     inkscape:window-y="24"
     inkscape:window-maximized="1"
     inkscape:current-layer="svg3194"
     inkscape:snap-bbox="true">
    <inkscape:grid
       type="xygrid"
       id="grid2987"
       empspacing="5"
       visible="true"
       enabled="true"
       snapvisiblegridlinesonly="true" />
  </sodipodi:namedview>
  <metadata
     id="metadata16">
    <rdf:RDF>
      <cc:Work
         rdf:about="">
        <dc:format>image/svg+xml</dc:format>
        <dc:type
           rdf:resource="http://purl.org/dc/dcmitype/StillImage" />
        <dc:title />
      </cc:Work>
    </rdf:RDF>
  </metadata>
  <defs
     id="defs3196">
    <linearGradient
       inkscape:collect="always"
       xlink:href="#linearGradient3004-8"
       id="linearGradient3230-3"
       gradientUnits="userSpaceOnUse"
       x1="11"
       y1="4"
       x2="11"
       y2="20"
       gradientTransform="matrix(1,0,0,1.0625,-3.0003081,-2.25)" />
    <linearGradient
       id="linearGradient3004-8">
      <stop
         style="stop-color:#000000;stop-opacity:1;"
         offset="0"
         id="stop3006-3" />
      <stop
         style="stop-color:#363636;stop-opacity:1;"
         offset="1"
         id="stop3008-7" />
    </linearGradient>
    <linearGradient
       inkscape:collect="always"
       xlink:href="#linearGradient3004-8"
       id="linearGradient3120"
       gradientUnits="userSpaceOnUse"
       gradientTransform="matrix(1,0,0,0.8125,-7.000309,2.75)"
       x1="11"
       y1="4"
       x2="11"
       y2="20" />
    <linearGradient
       inkscape:collect="always"
       xlink:href="#linearGradient3004-8"
       id="linearGradient3129"
       gradientUnits="userSpaceOnUse"
       gradientTransform="matrix(1.0000002,0,0,0.375,-15.000316,11.5)"
       x1="11"
       y1="4"
       x2="11"
       y2="20" />
    <linearGradient
       inkscape:collect="always"
       xlink:href="#linearGradient3004-8-6"
       id="linearGradient3129-7"
       gradientUnits="userSpaceOnUse"
       gradientTransform="matrix(1.2430679,0,0,0.39374996,-22.834015,11.125)"
       x1="11"
       y1="4"
       x2="11"
       y2="20" />
    <linearGradient
       id="linearGradient3004-8-6">
      <stop
         style="stop-color:#000000;stop-opacity:1;"
         offset="0"
         id="stop3006-3-6" />
      <stop
         style="stop-color:#363636;stop-opacity:1;"
         offset="1"
         id="stop3008-7-8" />
    </linearGradient>
  </defs>
  <path
     style="opacity:0.6;color:#000000;fill:#ffffff;fill-opacity:1;fill-rule:nonzero;stroke:none;stroke-width:1;marker:none;visibility:visible;display:inline;overflow:visible;enable-background:accumulate"
     d="M 19.5,3 C 18.669,3 18,3.669 18,4.5 l 0,14 c 0,0.831 0.669,1.5 1.5,1.5 0.831,0 1.5,-0.669 1.5,-1.5 l 0,-14 C 21,3.669 20.331,3 19.5,3 z m -4,4 C 14.669,7 14,7.669 14,8.5 l 0,10 c 0,0.831 0.669,1.5 1.5,1.5 0.831,0 1.5,-0.669 1.5,-1.5 l 0,-10 C 17,7.669 16.331,7 15.5,7 z m -4,4 C 10.669,11 10,11.669 10,12.5 l 0,6 c 0,0.831 0.669,1.5 1.5,1.5 0.831,0 1.5,-0.669 1.5,-1.5 l 0,-6 C 13,11.669 12.331,11 11.5,11 z m -4,3 C 7.4372636,14 7.3731716,14.023842 7.3125,14.03125 6.5695216,14.121965 6,14.731736 6,15.5 l 0,3 C 6,19.331 6.669,20 7.5,20 8.331,20 9,19.331 9,18.5 l 0,-3 C 9,14.731736 8.4304784,14.121965 7.6875,14.03125 7.6276406,14.006016 7.56925,14 7.5,14 z"
     id="path3075"
     inkscape:connector-curvature="0"
     sodipodi:nodetypes="sssssssssssssssssssssssssssscs" />
  <rect
     style="opacity:0.7;color:#000000;fill:url(#linearGradient3230-3);fill-opacity:1;fill-rule:nonzero;stroke:none;stroke-width:1;marker:none;visibility:visible;display:inline;overflow:visible;enable-background:accumulate"
     id="rect3082"
     width="3"
     height="17"
     x="18"
     y="2"
     ry="1.5"
     rx="1.5" />
  <rect
     ry="1.5"
     y="6"
     x="14"
     height="13"
     width="3"
     id="rect3117"
     style="opacity:0.7;color:#000000;fill:url(#linearGradient3120);fill-opacity:1;fill-rule:nonzero;stroke:none;stroke-width:1;marker:none;visibility:visible;display:inline;overflow:visible;enable-background:accumulate"
     rx="1.5" />
  <rect
     style="opacity:0.7;color:#000000;fill:url(#linearGradient3129-7);fill-opacity:1;fill-rule:nonzero;stroke:none;stroke-width:1;marker:none;visibility:visible;display:inline;overflow:visible;enable-background:accumulate"
     id="rect3122"
     width="3"
     height="9"
     x="10"
     y="10"
     ry="1.5"
     rx="1.5" />
  <rect
     ry="1.5"
     y="13"
     x="6"
     height="6"
     width="3.0000007"
     id="rect3126"
     style="opacity:0.7;color:#000000;fill:url(#linearGradient3129);fill-opacity:1;fill-rule:nonzero;stroke:none;stroke-width:1;marker:none;visibility:visible;display:inline;overflow:visible;enable-background:accumulate"
     rx="1.5" />
  <rect
     style="opacity:0.7;color:#000000;fill:url(#linearGradient3230-3-4);fill-opacity:1;fill-rule:nonzero;stroke:none;stroke-width:1;marker:none;visibility:visible;display:inline;overflow:visible;enable-background:accumulate"
     id="rect3258"
     width="1"
     height="1"
     x="7"
     y="13"
     ry="0.5"
     rx="0.5" />
</svg>
