<?xml version="1.0" encoding="UTF-8" standalone="no"?>
<!-- Created with Inkscape (http://www.inkscape.org/) -->

<svg
   xmlns:dc="http://purl.org/dc/elements/1.1/"
   xmlns:cc="http://creativecommons.org/ns#"
   xmlns:rdf="http://www.w3.org/1999/02/22-rdf-syntax-ns#"
   xmlns:svg="http://www.w3.org/2000/svg"
   xmlns="http://www.w3.org/2000/svg"
   xmlns:xlink="http://www.w3.org/1999/xlink"
   xmlns:sodipodi="http://sodipodi.sourceforge.net/DTD/sodipodi-0.dtd"
   xmlns:inkscape="http://www.inkscape.org/namespaces/inkscape"
   version="1.0"
   width="22"
   height="22"
   id="svg3194"
   inkscape:version="0.48.4 r9939"
   sodipodi:docname="nm-wwan-tower.svg">
  <sodipodi:namedview
     pagecolor="#ffffff"
     bordercolor="#666666"
     borderopacity="1"
     objecttolerance="10"
     gridtolerance="10"
     guidetolerance="10"
     inkscape:pageopacity="0"
     inkscape:pageshadow="2"
     inkscape:window-width="1280"
     inkscape:window-height="971"
     id="namedview11"
     showgrid="true"
     inkscape:zoom="22.627418"
     inkscape:cx="14.252633"
     inkscape:cy="13.15373"
     inkscape:window-x="0"
     inkscape:window-y="24"
     inkscape:window-maximized="1"
     inkscape:current-layer="svg3194"
     inkscape:snap-bbox="true">
    <inkscape:grid
       type="xygrid"
       id="grid2987"
       empspacing="5"
       visible="true"
       enabled="true"
       snapvisiblegridlinesonly="true" />
  </sodipodi:namedview>
  <metadata
     id="metadata16">
    <rdf:RDF>
      <cc:Work
         rdf:about="">
        <dc:format>image/svg+xml</dc:format>
        <dc:type
           rdf:resource="http://purl.org/dc/dcmitype/StillImage" />
        <dc:title />
      </cc:Work>
    </rdf:RDF>
  </metadata>
  <defs
     id="defs3196">
    <linearGradient
       id="linearGradient3004-8">
      <stop
         style="stop-color:#000000;stop-opacity:1;"
         offset="0"
         id="stop3006-3" />
      <stop
         style="stop-color:#363636;stop-opacity:1;"
         offset="1"
         id="stop3008-7" />
    </linearGradient>
    <linearGradient
       inkscape:collect="always"
       xlink:href="#linearGradient3004-8"
       id="linearGradient3129"
       gradientUnits="userSpaceOnUse"
       gradientTransform="matrix(1.0000002,0,0,0.375,-15.000316,11.5)"
       x1="11"
       y1="4"
       x2="11"
       y2="20" />
    <linearGradient
       inkscape:collect="always"
       xlink:href="#linearGradient3004-8-6"
       id="linearGradient3129-7"
       gradientUnits="userSpaceOnUse"
       gradientTransform="matrix(1.2430679,0,0,0.39374996,-22.834015,11.125)"
       x1="11"
       y1="4"
       x2="11"
       y2="20" />
    <linearGradient
       id="linearGradient3004-8-6">
      <stop
         style="stop-color:#000000;stop-opacity:1;"
         offset="0"
         id="stop3006-3-6" />
      <stop
         style="stop-color:#363636;stop-opacity:1;"
         offset="1"
         id="stop3008-7-8" />
    </linearGradient>
    <linearGradient
       inkscape:collect="always"
       xlink:href="#linearGradient3587-6-5-3-4-8-0"
       id="linearGradient3218-1"
       gradientUnits="userSpaceOnUse"
       gradientTransform="matrix(0.51556749,0,0,1.2051947,-11.346153,-28.196724)"
       x1="31.261829"
       y1="23.638462"
       x2="31.261829"
       y2="38.389946" />
    <linearGradient
       id="linearGradient3587-6-5-3-4-8-0">
      <stop
         id="stop3589-9-2-2-5-1-4"
         style="stop-color:#000000;stop-opacity:1"
         offset="0" />
      <stop
         id="stop3591-7-4-73-2-8-8"
         style="stop-color:#363636;stop-opacity:1"
         offset="1" />
    </linearGradient>
    <linearGradient
       inkscape:collect="always"
       xlink:href="#linearGradient3004-89-2-3"
       id="linearGradient3230-5-7-6"
       gradientUnits="userSpaceOnUse"
       x1="11"
       y1="4"
       x2="11"
       y2="20"
       gradientTransform="translate(-1.000309,-1)" />
    <linearGradient
       id="linearGradient3004-89-2-3">
      <stop
         style="stop-color:#000000;stop-opacity:1;"
         offset="0"
         id="stop3006-8-8-5" />
      <stop
         style="stop-color:#363636;stop-opacity:1;"
         offset="1"
         id="stop3008-73-6-3" />
    </linearGradient>
    <linearGradient
       inkscape:collect="always"
       xlink:href="#linearGradient3004-89-2-8"
       id="linearGradient3230-5-7-8"
       gradientUnits="userSpaceOnUse"
       x1="11"
       y1="4"
       x2="11"
       y2="20"
       gradientTransform="translate(-1.000309,-1)" />
    <linearGradient
       id="linearGradient3004-89-2-8">
      <stop
         style="stop-color:#000000;stop-opacity:1;"
         offset="0"
         id="stop3006-8-8-2" />
      <stop
         style="stop-color:#363636;stop-opacity:1;"
         offset="1"
         id="stop3008-73-6-7" />
    </linearGradient>
  </defs>
  <path
     style="opacity:0.6;color:#000000;fill:#ffffff;fill-opacity:1;fill-rule:nonzero;stroke:none;stroke-width:1;marker:none;visibility:visible;display:inline;overflow:visible;enable-background:accumulate"
     d="M 2,3 C 1.446,3 1,3.446 1,4 1,4.554 1.446,5 2,5 L 4,5 4,6 3,6 C 2.446,6 2,6.446 2,7 2,7.554 2.446,8 3,8 l 1,0 0,2 c 0,0.554 0.446,1 1,1 0.554,0 1,-0.446 1,-1 L 6,8 7,8 C 7.554,8 8,7.554 8,7 8,6.446 7.554,6 7,6 L 6,6 6,5 8,5 C 8.554,5 9,4.554 9,4 9,3.446 8.554,3 8,3 z"
     id="rect3120"
     inkscape:connector-curvature="0"
     sodipodi:nodetypes="sssccssscssscsssccssss" />
  <path
     style="opacity:0.7;color:#000000;fill:url(#linearGradient3218-1);fill-opacity:1;fill-rule:nonzero;stroke:none;stroke-width:1;marker:none;visibility:visible;display:inline;overflow:visible;enable-background:accumulate"
     d="M 2,2 C 1.446,2 1,2.446 1,3 1,3.554 1.446,4 2,4 L 4,4 4,5 3,5 C 2.446,5 2,5.446 2,6 2,6.554 2.446,7 3,7 l 1,0 0,2 c 0,0.554 0.446,1 1,1 0.554,0 1,-0.446 1,-1 L 6,7 7,7 C 7.554,7 8,6.554 8,6 8,5.446 7.554,5 7,5 L 6,5 6,4 8,4 C 8.554,4 9,3.554 9,3 9,2.446 8.554,2 8,2 L 2,2 z"
     id="rect3076"
     inkscape:connector-curvature="0" />
</svg>
