<?xml version="1.0" encoding="UTF-8" standalone="no"?>
<!-- Created with Inkscape (http://www.inkscape.org/) -->

<svg
   xmlns:dc="http://purl.org/dc/elements/1.1/"
   xmlns:cc="http://creativecommons.org/ns#"
   xmlns:rdf="http://www.w3.org/1999/02/22-rdf-syntax-ns#"
   xmlns:svg="http://www.w3.org/2000/svg"
   xmlns="http://www.w3.org/2000/svg"
   xmlns:xlink="http://www.w3.org/1999/xlink"
   xmlns:sodipodi="http://sodipodi.sourceforge.net/DTD/sodipodi-0.dtd"
   xmlns:inkscape="http://www.inkscape.org/namespaces/inkscape"
   width="22"
   height="22.000008"
   id="svg7985"
   version="1.1"
   inkscape:version="0.48.4 r9939"
   sodipodi:docname="xfpm-ups-charged.svg">
  <defs
     id="defs7987">
    <linearGradient
       inkscape:collect="always"
       xlink:href="#linearGradient3587-6-5-3-0"
       id="linearGradient4367"
       gradientUnits="userSpaceOnUse"
       gradientTransform="matrix(0.4101105,0,0,0.4193901,335.15126,527.31839)"
       x1="87.412384"
       y1="-11.817637"
       x2="87.412384"
       y2="35.870659" />
    <linearGradient
       id="linearGradient3587-6-5-3-0">
      <stop
         offset="0"
         style="stop-color:#000000;stop-opacity:1"
         id="stop3589-9-2-2-4" />
      <stop
         offset="1"
         style="stop-color:#363636;stop-opacity:1"
         id="stop3591-7-4-73-2" />
    </linearGradient>
    <linearGradient
       inkscape:collect="always"
       xlink:href="#linearGradient3587-6-5-3-0"
       id="linearGradient4365"
       gradientUnits="userSpaceOnUse"
       gradientTransform="matrix(0.4101105,0,0,0.4193901,335.15126,527.31839)"
       x1="87.412384"
       y1="-11.817637"
       x2="87.412384"
       y2="35.870659" />
    <linearGradient
       inkscape:collect="always"
       xlink:href="#linearGradient3587-6-5-3-0"
       id="linearGradient4363"
       gradientUnits="userSpaceOnUse"
       gradientTransform="matrix(0.4101105,0,0,0.4193901,335.15126,527.31839)"
       x1="87.412384"
       y1="-11.817637"
       x2="87.412384"
       y2="35.870659" />
    <linearGradient
       inkscape:collect="always"
       xlink:href="#linearGradient3587-6-5-3-0"
       id="linearGradient4361"
       gradientUnits="userSpaceOnUse"
       gradientTransform="matrix(0.4101105,0,0,0.4193901,335.15126,527.31839)"
       x1="87.412384"
       y1="-11.817637"
       x2="87.412384"
       y2="35.870659" />
  </defs>
  <sodipodi:namedview
     id="base"
     pagecolor="#ffffff"
     bordercolor="#666666"
     borderopacity="1.0"
     inkscape:pageopacity="0.0"
     inkscape:pageshadow="2"
     inkscape:zoom="7.9195959"
     inkscape:cx="11"
     inkscape:cy="11.000007"
     inkscape:document-units="px"
     inkscape:current-layer="layer1"
     showgrid="false"
     inkscape:showpageshadow="false"
     fit-margin-top="0"
     fit-margin-left="0"
     fit-margin-right="0"
     fit-margin-bottom="0"
     inkscape:window-width="1215"
     inkscape:window-height="1000"
     inkscape:window-x="65"
     inkscape:window-y="24"
     inkscape:window-maximized="1" />
  <metadata
     id="metadata7990">
    <rdf:RDF>
      <cc:Work
         rdf:about="">
        <dc:format>image/svg+xml</dc:format>
        <dc:type
           rdf:resource="http://purl.org/dc/dcmitype/StillImage" />
        <dc:title />
      </cc:Work>
    </rdf:RDF>
  </metadata>
  <g
     inkscape:label="Layer 1"
     inkscape:groupmode="layer"
     id="layer1"
     transform="translate(-364,-521.36218)">
    <path
       inkscape:connector-curvature="0"
       style="font-size:medium;font-style:normal;font-variant:normal;font-weight:normal;font-stretch:normal;text-indent:0;text-align:start;text-decoration:none;line-height:normal;letter-spacing:normal;word-spacing:normal;text-transform:none;direction:ltr;block-progression:tb;writing-mode:lr-tb;text-anchor:start;baseline-shift:baseline;opacity:0.6;color:#000000;fill:#ffffff;fill-opacity:1;fill-rule:nonzero;stroke:none;stroke-width:1;marker:none;visibility:visible;display:inline;overflow:visible;enable-background:accumulate;font-family:Sans;-inkscape-font-specification:Sans"
       d="m 370,523.36219 c -0.554,0 -1,0.446 -1,1 l 0,1 -1,0 c -1.6447,0 -3,1.3553 -3,3 l 0,11 c 0,1.6447 1.3553,3 3,3 l 7,0 0,-2 -7,0 c -0.5713,0 -1,-0.4287 -1,-1 l 0,-11 c 0,-0.5713 0.4287,-1 1,-1 l 2,0 2,0 2,0 c 0.5713,0 1,0.4287 1,1 l 0,4.125 2,-2.125 0,-2 c 0,-1.6447 -1.3553,-3 -3,-3 l -1,0 0,-1 c 0,-0.554 -0.446,-1 -1,-1 l -2,0 z m -1,5 c -0.554,0 -1,0.446 -1,1 l 0,1 c 0,0.554 0.446,1 1,1 l 4,0 c 0.554,0 1,-0.446 1,-1 l 0,-1 c 0,-0.554 -0.446,-1 -1,-1 l -4,0 z m 9,3 c -1,0 -1,1 -1,1 l 0,2 -1,0 0,4 c 0,2 2,2 2,2 l 1,0 0,3 2,0 0,-3 1,0 c 2,0 2,-2 2,-2 l 0,-4 -1,0 0,-2 c 0,0 0,-1 -1,-1 -1,0 -1,1 -1,1 l 0,2 -2,0 0,-2 c 0,0 0,-1 -1,-1 z m -9,1 c -0.554,0 -1,0.446 -1,1 l 0,1 c 0,0.554 0.446,1 1,1 l 4,0 c 0.554,0 1,-0.446 1,-1 l 0,-1 c 0,-0.554 -0.446,-1 -1,-1 l -4,0 z m 0,4 c -0.554,0 -1,0.446 -1,1 l 0,1 c 0,0.554 0.446,1 1,1 l 4,0 c 0.554,0 1,-0.446 1,-1 l 0,-1 c 0,-0.554 -0.446,-1 -1,-1 l -4,0 z"
       id="path4304" />
    <path
       id="path4306"
       d="m 369,527.36219 c -0.554,0 -1,0.446 -1,1 l 0,1 c 0,0.554 0.446,1 1,1 l 4,0 c 0.554,0 1,-0.446 1,-1 l 0,-1 c 0,-0.554 -0.446,-1 -1,-1 l -4,0 z"
       style="font-size:medium;font-style:normal;font-variant:normal;font-weight:normal;font-stretch:normal;text-indent:0;text-align:start;text-decoration:none;line-height:normal;letter-spacing:normal;word-spacing:normal;text-transform:none;direction:ltr;block-progression:tb;writing-mode:lr-tb;text-anchor:start;baseline-shift:baseline;opacity:0.7;color:#000000;fill:url(#linearGradient4361);fill-opacity:1;fill-rule:nonzero;stroke:none;stroke-width:1;marker:none;visibility:visible;display:inline;overflow:visible;enable-background:accumulate;font-family:Sans;-inkscape-font-specification:Sans"
       inkscape:connector-curvature="0" />
    <path
       d="m 378,530.36219 c -1,0 -1,1 -1,1 l 0,2 -1,0 0,4 c 0,2 2,2 2,2 l 1,0 0,3 2,0 0,-3 1,0 c 2,0 2,-2 2,-2 l 0,-4 -1,0 0,-2 c 0,0 0,-1 -1,-1 -1,0 -1,1 -1,1 l 0,2 -2,0 0,-2 c 0,0 0,-1 -1,-1 z m -8,-8 c -0.554,0 -1,0.446 -1,1 l 0,1 -1,0 c -1.6447,0 -3,1.3553 -3,3 l 0,11 c 0,1.6447 1.3553,3 3,3 l 7,0 0,-2 -7,0 c -0.5713,0 -1,-0.4287 -1,-1 l 0,-11 c 0,-0.5713 0.4287,-1 1,-1 l 2,0 2,0 2,0 c 0.5713,0 1,0.4287 1,1 l 0,4.125 2,-2.125 0,-2 c 0,-1.6447 -1.3553,-3 -3,-3 l -1,0 0,-1 c 0,-0.554 -0.446,-1 -1,-1 l -2,0 z"
       style="font-size:medium;font-style:normal;font-variant:normal;font-weight:normal;font-stretch:normal;text-indent:0;text-align:start;text-decoration:none;line-height:normal;letter-spacing:normal;word-spacing:normal;text-transform:none;direction:ltr;block-progression:tb;writing-mode:lr-tb;text-anchor:start;baseline-shift:baseline;opacity:0.7;color:#000000;fill:url(#linearGradient4363);fill-opacity:1;fill-rule:nonzero;stroke:none;stroke-width:1;marker:none;visibility:visible;display:inline;overflow:visible;enable-background:accumulate;font-family:Sans;-inkscape-font-specification:Sans"
       id="path4308"
       inkscape:connector-curvature="0" />
    <path
       id="path4310"
       d="m 369,531.36219 c -0.554,0 -1,0.446 -1,1 l 0,1 c 0,0.554 0.446,1 1,1 l 4,0 c 0.554,0 1,-0.446 1,-1 l 0,-1 c 0,-0.554 -0.446,-1 -1,-1 l -4,0 z"
       style="font-size:medium;font-style:normal;font-variant:normal;font-weight:normal;font-stretch:normal;text-indent:0;text-align:start;text-decoration:none;line-height:normal;letter-spacing:normal;word-spacing:normal;text-transform:none;direction:ltr;block-progression:tb;writing-mode:lr-tb;text-anchor:start;baseline-shift:baseline;opacity:0.7;color:#000000;fill:url(#linearGradient4365);fill-opacity:1;fill-rule:nonzero;stroke:none;stroke-width:1;marker:none;visibility:visible;display:inline;overflow:visible;enable-background:accumulate;font-family:Sans;-inkscape-font-specification:Sans"
       inkscape:connector-curvature="0" />
    <path
       id="path4313"
       d="m 369,535.36219 c -0.554,0 -1,0.446 -1,1 l 0,1 c 0,0.554 0.446,1 1,1 l 4,0 c 0.554,0 1,-0.446 1,-1 l 0,-1 c 0,-0.554 -0.446,-1 -1,-1 l -4,0 z"
       style="font-size:medium;font-style:normal;font-variant:normal;font-weight:normal;font-stretch:normal;text-indent:0;text-align:start;text-decoration:none;line-height:normal;letter-spacing:normal;word-spacing:normal;text-transform:none;direction:ltr;block-progression:tb;writing-mode:lr-tb;text-anchor:start;baseline-shift:baseline;opacity:0.7;color:#000000;fill:url(#linearGradient4367);fill-opacity:1;fill-rule:nonzero;stroke:none;stroke-width:1;marker:none;visibility:visible;display:inline;overflow:visible;enable-background:accumulate;font-family:Sans;-inkscape-font-specification:Sans"
       inkscape:connector-curvature="0" />
  </g>
</svg>
