<?xml version="1.0" encoding="UTF-8" standalone="no"?>
<!-- Created with Inkscape (http://www.inkscape.org/) -->

<svg
   xmlns:dc="http://purl.org/dc/elements/1.1/"
   xmlns:cc="http://creativecommons.org/ns#"
   xmlns:rdf="http://www.w3.org/1999/02/22-rdf-syntax-ns#"
   xmlns:svg="http://www.w3.org/2000/svg"
   xmlns="http://www.w3.org/2000/svg"
   xmlns:xlink="http://www.w3.org/1999/xlink"
   xmlns:sodipodi="http://sodipodi.sourceforge.net/DTD/sodipodi-0.dtd"
   xmlns:inkscape="http://www.inkscape.org/namespaces/inkscape"
   width="22"
   height="22.000008"
   id="svg7122"
   version="1.1"
   inkscape:version="0.48.4 r9939"
   sodipodi:docname="xfpm-phone-020.svg">
  <defs
     id="defs7124">
    <radialGradient
       inkscape:collect="always"
       xlink:href="#linearGradient3587-6-5-3-0-3"
       id="radialGradient4198"
       gradientUnits="userSpaceOnUse"
       gradientTransform="matrix(4.047619e-8,1.9047619,-0.95238095,-3.5975515e-6,373.42857,505.21929)"
       cx="9"
       cy="1.5"
       fx="9"
       fy="1.5"
       r="10.5" />
    <linearGradient
       id="linearGradient3587-6-5-3-0-3">
      <stop
         offset="0"
         style="stop-color:#000000;stop-opacity:1"
         id="stop3589-9-2-2-4-8" />
      <stop
         offset="1"
         style="stop-color:#363636;stop-opacity:1"
         id="stop3591-7-4-73-2-2" />
    </linearGradient>
    <linearGradient
       gradientTransform="translate(301,515.36219)"
       inkscape:collect="always"
       xlink:href="#linearGradient4493-9-6-3-7-8-0"
       id="linearGradient5187-9"
       x1="70"
       y1="7"
       x2="70"
       y2="26"
       gradientUnits="userSpaceOnUse" />
    <linearGradient
       id="linearGradient4493-9-6-3-7-8-0">
      <stop
         id="stop4495-7-03-5-8-6-2"
         style="stop-color:#8c4900;stop-opacity:1;"
         offset="0" />
      <stop
         id="stop4497-9-2-94-5-1-1"
         style="stop-color:#ffc801;stop-opacity:1;"
         offset="1" />
    </linearGradient>
  </defs>
  <sodipodi:namedview
     id="base"
     pagecolor="#ffffff"
     bordercolor="#666666"
     borderopacity="1.0"
     inkscape:pageopacity="0.0"
     inkscape:pageshadow="2"
     inkscape:zoom="11.2"
     inkscape:cx="11"
     inkscape:cy="11.000007"
     inkscape:document-units="px"
     inkscape:current-layer="layer1"
     showgrid="false"
     inkscape:showpageshadow="false"
     fit-margin-top="0"
     fit-margin-left="0"
     fit-margin-right="0"
     fit-margin-bottom="0"
     inkscape:window-width="1215"
     inkscape:window-height="1000"
     inkscape:window-x="65"
     inkscape:window-y="24"
     inkscape:window-maximized="1" />
  <metadata
     id="metadata7127">
    <rdf:RDF>
      <cc:Work
         rdf:about="">
        <dc:format>image/svg+xml</dc:format>
        <dc:type
           rdf:resource="http://purl.org/dc/dcmitype/StillImage" />
        <dc:title />
      </cc:Work>
    </rdf:RDF>
  </metadata>
  <g
     inkscape:label="Layer 1"
     inkscape:groupmode="layer"
     id="layer1"
     transform="translate(-364,-521.36218)">
    <path
       inkscape:connector-curvature="0"
       style="opacity:0.6;color:#000000;fill:#ffffff;fill-opacity:1;fill-rule:nonzero;stroke:none;stroke-width:1;marker:none;visibility:visible;display:inline;overflow:visible;enable-background:accumulate"
       d="m 370,523.36219 c -0.554,0 -1,0.446 -1,1 l 0,1 -1,0 c -1.6447,0 -3,1.3553 -3,3 l 0,4 0,7 c 0,1.6447 1.3553,3 3,3 l 5,0 2,0 0,-2 -2,0 -3,0 -2,0 c -0.5713,0 -1,-0.4287 -1,-1 l 0,-7 0,-4 c 0,-0.5713 0.4287,-1 1,-1 l 2,0 2,0 2,0 c 0.5713,0 1,0.4287 1,1 l 0,1.875 2,-1.875 c 0,-1.6447 -1.3553,-3 -3,-3 l -1,0 0,-1 c 0,-0.554 -0.446,-1 -1,-1 z m 8,6 c -1.108,0 -2,0.892 -2,2 l 0,10 c 0,1.108 0.892,2 2,2 l 6,0 c 1.108,0 2,-0.892 2,-2 l 0,-10 c 0,-1.108 -0.892,-2 -2,-2 z m 0.59375,1 4.8125,0 c 0.8864,0 1.59375,0.669 1.59375,1.5 l 0,3 c 0,0.831 -0.70735,1.5 -1.59375,1.5 l -4.8125,0 c -0.8864,0 -1.59375,-0.669 -1.59375,-1.5 l 0,-3 c 0,-0.831 0.70735,-1.5 1.59375,-1.5 z m -9.59375,6 c -0.554,0 -1,0.446 -1,1 l 0,1 c 0,0.554 0.446,1 1,1 l 4,0 c 0.554,0 1,-0.446 1,-1 l 0,-1 c 0,-0.554 -0.446,-1 -1,-1 z m 8.5,1 1,0 c 0.277,0 0.5,0.223 0.5,0.5 l 0,1 c 0,0.277 -0.223,0.5 -0.5,0.5 l -1,0 c -0.277,0 -0.5,-0.223 -0.5,-0.5 l 0,-1 c 0,-0.277 0.223,-0.5 0.5,-0.5 z m 3,0 1,0 c 0.277,0 0.5,0.223 0.5,0.5 l 0,1 c 0,0.277 -0.223,0.5 -0.5,0.5 l -1,0 c -0.277,0 -0.5,-0.223 -0.5,-0.5 l 0,-1 c 0,-0.277 0.223,-0.5 0.5,-0.5 z m 3,0 1,0 c 0.277,0 0.5,0.223 0.5,0.5 l 0,1 c 0,0.277 -0.223,0.5 -0.5,0.5 l -1,0 c -0.277,0 -0.5,-0.223 -0.5,-0.5 l 0,-1 c 0,-0.277 0.223,-0.5 0.5,-0.5 z m -6,3 1,0 c 0.277,0 0.5,0.223 0.5,0.5 l 0,1 c 0,0.277 -0.223,0.5 -0.5,0.5 l -1,0 c -0.277,0 -0.5,-0.223 -0.5,-0.5 l 0,-1 c 0,-0.277 0.223,-0.5 0.5,-0.5 z m 3,0 1,0 c 0.277,0 0.5,0.223 0.5,0.5 l 0,1 c 0,0.277 -0.223,0.5 -0.5,0.5 l -1,0 c -0.277,0 -0.5,-0.223 -0.5,-0.5 l 0,-1 c 0,-0.277 0.223,-0.5 0.5,-0.5 z m 3,0 1,0 c 0.277,0 0.5,0.223 0.5,0.5 l 0,1 c 0,0.277 -0.223,0.5 -0.5,0.5 l -1,0 c -0.277,0 -0.5,-0.223 -0.5,-0.5 l 0,-1 c 0,-0.277 0.223,-0.5 0.5,-0.5 z"
       id="path4150"
       sodipodi:nodetypes="sscsscsscccccsscssccssccscssssssssssssssssssssssssssssssssssssssssssssssssssssssssssssssssssssssssssssssssssss" />
    <path
       inkscape:connector-curvature="0"
       style="opacity:0.8;color:#000000;fill:url(#linearGradient5187-9);fill-opacity:1;fill-rule:nonzero;stroke:none;stroke-width:1;marker:none;visibility:visible;display:inline;overflow:visible;enable-background:accumulate"
       d="m 370,522.36219 c -0.554,0 -1,0.446 -1,1 l 0,1 -1,0 c -1.6447,0 -3,1.3553 -3,3 l 0,4 0,7 c 0,1.6447 1.3553,3 3,3 l 5,0 2,0 0,-2 -2,0 -3,0 -2,0 c -0.5713,0 -1,-0.4287 -1,-1 l 0,-7 0,-4 c 0,-0.5713 0.4287,-1 1,-1 l 2,0 2,0 2,0 c 0.5713,0 1,0.4287 1,1 l 0,1.875 2,-1.875 c 0,-1.6447 -1.3553,-3 -3,-3 l -1,0 0,-1 c 0,-0.554 -0.446,-1 -1,-1 l -2,0 z m -1,13 c -0.554,0 -1,0.446 -1,1 l 0,1 c 0,0.554 0.446,1 1,1 l 4,0 c 0.554,0 1,-0.446 1,-1 l 0,-1 c 0,-0.554 -0.446,-1 -1,-1 l -4,0 z"
       id="path4156" />
    <path
       inkscape:connector-curvature="0"
       id="path4738"
       style="opacity:0.7;color:#000000;fill:url(#radialGradient4198);fill-opacity:1;fill-rule:nonzero;stroke:none;stroke-width:1;marker:none;visibility:visible;display:inline;overflow:visible;enable-background:accumulate"
       d="m 378,528.36219 c -1.108,0 -2,0.892 -2,2 l 0,10 c 0,1.108 0.892,2 2,2 l 6,0 c 1.108,0 2,-0.892 2,-2 l 0,-10 c 0,-1.108 -0.892,-2 -2,-2 l -6,0 z m 0.59375,1 4.8125,0 c 0.8864,0 1.59375,0.669 1.59375,1.5 l 0,3 c 0,0.831 -0.70735,1.5 -1.59375,1.5 l -4.8125,0 c -0.8864,0 -1.59375,-0.669 -1.59375,-1.5 l 0,-3 c 0,-0.831 0.70735,-1.5 1.59375,-1.5 z m -1.09375,7 1,0 c 0.277,0 0.5,0.223 0.5,0.5 l 0,1 c 0,0.277 -0.223,0.5 -0.5,0.5 l -1,0 c -0.277,0 -0.5,-0.223 -0.5,-0.5 l 0,-1 c 0,-0.277 0.223,-0.5 0.5,-0.5 z m 3,0 1,0 c 0.277,0 0.5,0.223 0.5,0.5 l 0,1 c 0,0.277 -0.223,0.5 -0.5,0.5 l -1,0 c -0.277,0 -0.5,-0.223 -0.5,-0.5 l 0,-1 c 0,-0.277 0.223,-0.5 0.5,-0.5 z m 3,0 1,0 c 0.277,0 0.5,0.223 0.5,0.5 l 0,1 c 0,0.277 -0.223,0.5 -0.5,0.5 l -1,0 c -0.277,0 -0.5,-0.223 -0.5,-0.5 l 0,-1 c 0,-0.277 0.223,-0.5 0.5,-0.5 z m -6,3 1,0 c 0.277,0 0.5,0.223 0.5,0.5 l 0,1 c 0,0.277 -0.223,0.5 -0.5,0.5 l -1,0 c -0.277,0 -0.5,-0.223 -0.5,-0.5 l 0,-1 c 0,-0.277 0.223,-0.5 0.5,-0.5 z m 3,0 1,0 c 0.277,0 0.5,0.223 0.5,0.5 l 0,1 c 0,0.277 -0.223,0.5 -0.5,0.5 l -1,0 c -0.277,0 -0.5,-0.223 -0.5,-0.5 l 0,-1 c 0,-0.277 0.223,-0.5 0.5,-0.5 z m 3,0 1,0 c 0.277,0 0.5,0.223 0.5,0.5 l 0,1 c 0,0.277 -0.223,0.5 -0.5,0.5 l -1,0 c -0.277,0 -0.5,-0.223 -0.5,-0.5 l 0,-1 c 0,-0.277 0.223,-0.5 0.5,-0.5 z" />
  </g>
</svg>
