<?xml version="1.0" encoding="UTF-8" standalone="no"?>
<!-- Created with Inkscape (http://www.inkscape.org/) -->

<svg
   xmlns:dc="http://purl.org/dc/elements/1.1/"
   xmlns:cc="http://creativecommons.org/ns#"
   xmlns:rdf="http://www.w3.org/1999/02/22-rdf-syntax-ns#"
   xmlns:svg="http://www.w3.org/2000/svg"
   xmlns="http://www.w3.org/2000/svg"
   xmlns:xlink="http://www.w3.org/1999/xlink"
   xmlns:sodipodi="http://sodipodi.sourceforge.net/DTD/sodipodi-0.dtd"
   xmlns:inkscape="http://www.inkscape.org/namespaces/inkscape"
   width="22"
   height="22"
   id="svg7325"
   version="1.1"
   inkscape:version="0.48.3.1 r9886"
   sodipodi:docname="xpad-panel_22px.svg">
  <defs
     id="defs7327">
    <linearGradient
       inkscape:collect="always"
       xlink:href="#linearGradient6443"
       id="linearGradient7322"
       gradientUnits="userSpaceOnUse"
       gradientTransform="matrix(0.94736842,0,0,0.94736842,48.4682,1098.6489)"
       x1="-38.396969"
       y1="-69.691612"
       x2="-38.396969"
       y2="-50.803493" />
    <linearGradient
       id="linearGradient6443">
      <stop
         style="stop-color:#000000;stop-opacity:1;"
         offset="0"
         id="stop6445" />
      <stop
         style="stop-color:#363636;stop-opacity:1;"
         offset="1"
         id="stop6447" />
    </linearGradient>
    <linearGradient
       inkscape:collect="always"
       xlink:href="#linearGradient6443"
       id="linearGradient7634"
       gradientUnits="userSpaceOnUse"
       gradientTransform="matrix(0.84210526,0,0,0.84210526,44.305066,1092.2837)"
       x1="-38.396969"
       y1="-69.691612"
       x2="-38.396969"
       y2="-50.803493" />
  </defs>
  <sodipodi:namedview
     id="base"
     pagecolor="#ffffff"
     bordercolor="#666666"
     borderopacity="1.0"
     inkscape:pageopacity="0.0"
     inkscape:pageshadow="2"
     inkscape:zoom="22.4"
     inkscape:cx="1.0279"
     inkscape:cy="12.050364"
     inkscape:document-units="px"
     inkscape:current-layer="layer1"
     showgrid="false"
     inkscape:window-width="1680"
     inkscape:window-height="1026"
     inkscape:window-x="0"
     inkscape:window-y="24"
     inkscape:window-maximized="1" />
  <metadata
     id="metadata7330">
    <rdf:RDF>
      <cc:Work
         rdf:about="">
        <dc:format>image/svg+xml</dc:format>
        <dc:type
           rdf:resource="http://purl.org/dc/dcmitype/StillImage" />
        <dc:title />
      </cc:Work>
    </rdf:RDF>
  </metadata>
  <g
     inkscape:label="Layer 1"
     inkscape:groupmode="layer"
     id="layer1"
     transform="translate(0,-1030.3622)">
    <path
       inkscape:connector-curvature="0"
       style="font-size:medium;font-style:normal;font-variant:normal;font-weight:normal;font-stretch:normal;text-indent:0;text-align:start;text-decoration:none;line-height:normal;letter-spacing:normal;word-spacing:normal;text-transform:none;direction:ltr;block-progression:tb;writing-mode:lr-tb;text-anchor:start;baseline-shift:baseline;opacity:0.6;color:#000000;fill:#ffffff;fill-opacity:1;fill-rule:nonzero;stroke:none;stroke-width:1;marker:none;visibility:visible;display:inline;overflow:visible;enable-background:accumulate;font-family:Sans;-inkscape-font-specification:Sans"
       d="M 4.8055558,1034.3622 C 3.8045685,1034.3622 3,1035.1668 3,1036.1678 l 0,12.3888 c 0,1.0011 0.8045685,1.8056 1.8055558,1.8056 l 9.4166662,0 4.777778,-4.7223 0,-9.4721 c 0,-1.001 -0.804578,-1.8056 -1.805556,-1.8056 l -12.3888882,0 z m 1.5833327,3.4168 8.8888895,0 0,1.7776 -8.8888895,0 0,-1.7776 z m 0,3.4165 8.8888895,0 0,1.7778 -8.8888895,0 0,-1.7778 z m 0,3.4168 6.3055555,0 0,1.7778 -6.3055555,0 0,-1.7778 z"
       id="path4235-2" />
    <path
       inkscape:connector-curvature="0"
       style="font-size:medium;font-style:normal;font-variant:normal;font-weight:normal;font-stretch:normal;text-indent:0;text-align:start;text-decoration:none;line-height:normal;letter-spacing:normal;word-spacing:normal;text-transform:none;direction:ltr;block-progression:tb;writing-mode:lr-tb;text-anchor:start;baseline-shift:baseline;opacity:0.7;color:#000000;fill:url(#linearGradient7634);fill-opacity:1;fill-rule:nonzero;stroke:none;stroke-width:1;marker:none;visibility:visible;display:inline;overflow:visible;enable-background:accumulate;font-family:Sans;-inkscape-font-specification:Sans"
       d="M 4.8055556,1033.3622 C 3.8045688,1033.3622 3,1034.1668 3,1035.1678 l 0,12.3888 c 0,1.0011 0.8045688,1.8056 1.8055556,1.8056 l 9.4166664,0 4.777778,-4.7223 0,-9.4721 c 0,-1.001 -0.804578,-1.8056 -1.805556,-1.8056 l -12.3888884,0 z m 1.5833332,3.4168 8.8888892,0 0,1.7776 -8.8888892,0 0,-1.7776 z m 0,3.4165 8.8888892,0 0,1.7778 -8.8888892,0 0,-1.7778 z m 0,3.4168 6.3055552,0 0,1.7778 -6.3055552,0 0,-1.7778 z"
       id="path4235" />
  </g>
</svg>
