<?xml version="1.0" encoding="UTF-8" standalone="no"?>
<!-- Created with Inkscape (http://www.inkscape.org/) -->

<svg
   xmlns:dc="http://purl.org/dc/elements/1.1/"
   xmlns:cc="http://creativecommons.org/ns#"
   xmlns:rdf="http://www.w3.org/1999/02/22-rdf-syntax-ns#"
   xmlns:svg="http://www.w3.org/2000/svg"
   xmlns="http://www.w3.org/2000/svg"
   xmlns:xlink="http://www.w3.org/1999/xlink"
   xmlns:sodipodi="http://sodipodi.sourceforge.net/DTD/sodipodi-0.dtd"
   xmlns:inkscape="http://www.inkscape.org/namespaces/inkscape"
   width="22"
   height="22"
   id="svg7325"
   version="1.1"
   inkscape:version="0.48.3.1 r9886"
   sodipodi:docname="xpad-panel_22px.svg">
  <defs
     id="defs7327">
    <linearGradient
       inkscape:collect="always"
       xlink:href="#linearGradient6443"
       id="linearGradient7322"
       gradientUnits="userSpaceOnUse"
       gradientTransform="matrix(0.94736842,0,0,0.94736842,48.4682,1098.6489)"
       x1="-38.396969"
       y1="-69.691612"
       x2="-38.396969"
       y2="-50.803493" />
    <linearGradient
       id="linearGradient6443">
      <stop
         style="stop-color:#000000;stop-opacity:1;"
         offset="0"
         id="stop6445" />
      <stop
         style="stop-color:#363636;stop-opacity:1;"
         offset="1"
         id="stop6447" />
    </linearGradient>
    <linearGradient
       inkscape:collect="always"
       xlink:href="#linearGradient6443"
       id="linearGradient7634"
       gradientUnits="userSpaceOnUse"
       gradientTransform="matrix(0.94736842,0,0,0.94736842,48.4682,1098.6489)"
       x1="-38.396969"
       y1="-69.691612"
       x2="-38.396969"
       y2="-50.803493" />
  </defs>
  <sodipodi:namedview
     id="base"
     pagecolor="#ffffff"
     bordercolor="#666666"
     borderopacity="1.0"
     inkscape:pageopacity="0.0"
     inkscape:pageshadow="2"
     inkscape:zoom="22.4"
     inkscape:cx="11.6529"
     inkscape:cy="12.050364"
     inkscape:document-units="px"
     inkscape:current-layer="layer1"
     showgrid="false"
     inkscape:window-width="1680"
     inkscape:window-height="1026"
     inkscape:window-x="0"
     inkscape:window-y="24"
     inkscape:window-maximized="1" />
  <metadata
     id="metadata7330">
    <rdf:RDF>
      <cc:Work
         rdf:about="">
        <dc:format>image/svg+xml</dc:format>
        <dc:type
           rdf:resource="http://purl.org/dc/dcmitype/StillImage" />
        <dc:title></dc:title>
      </cc:Work>
    </rdf:RDF>
  </metadata>
  <g
     inkscape:label="Layer 1"
     inkscape:groupmode="layer"
     id="layer1"
     transform="translate(0,-1030.3622)">
    <path
       inkscape:connector-curvature="0"
       style="font-size:medium;font-style:normal;font-variant:normal;font-weight:normal;font-stretch:normal;text-indent:0;text-align:start;text-decoration:none;line-height:normal;letter-spacing:normal;word-spacing:normal;text-transform:none;direction:ltr;block-progression:tb;writing-mode:lr-tb;text-anchor:start;baseline-shift:baseline;opacity:0.6;color:#000000;fill:#ffffff;fill-opacity:1;fill-rule:nonzero;stroke:none;stroke-width:1;marker:none;visibility:visible;display:inline;overflow:visible;enable-background:accumulate;font-family:Sans;-inkscape-font-specification:Sans"
       d="M 4.03125,1033.3622 C 2.90514,1033.3622 2,1034.2674 2,1035.3935 l 0,13.9375 c 0,1.1261 0.90514,2.0312 2.03125,2.0312 l 10.59375,0 5.375,-5.3125 0,-10.6562 c 0,-1.1261 -0.90515,-2.0313 -2.03125,-2.0313 l -13.9375,0 z m 1.78125,3.8438 10,0 0,2 -10,0 0,-2 z m 0,3.8437 10,0 0,2 -10,0 0,-2 z m 0,3.8438 7.09375,0 0,2 -7.09375,0 0,-2 z"
       id="path4235-2" />
    <path
       inkscape:connector-curvature="0"
       style="font-size:medium;font-style:normal;font-variant:normal;font-weight:normal;font-stretch:normal;text-indent:0;text-align:start;text-decoration:none;line-height:normal;letter-spacing:normal;word-spacing:normal;text-transform:none;direction:ltr;block-progression:tb;writing-mode:lr-tb;text-anchor:start;baseline-shift:baseline;opacity:0.7;color:#000000;fill:url(#linearGradient7634);fill-opacity:1;fill-rule:nonzero;stroke:none;stroke-width:1;marker:none;visibility:visible;display:inline;overflow:visible;enable-background:accumulate;font-family:Sans;-inkscape-font-specification:Sans"
       d="M 4.03125,1032.3622 C 2.90514,1032.3622 2,1033.2674 2,1034.3935 l 0,13.9375 c 0,1.1261 0.90514,2.0312 2.03125,2.0312 l 10.59375,0 5.375,-5.3125 0,-10.6562 c 0,-1.1261 -0.90515,-2.0313 -2.03125,-2.0313 l -13.9375,0 z m 1.78125,3.8438 10,0 0,2 -10,0 0,-2 z m 0,3.8437 10,0 0,2 -10,0 0,-2 z m 0,3.8438 7.09375,0 0,2 -7.09375,0 0,-2 z"
       id="path4235" />
  </g>
</svg>
