<?xml version="1.0" encoding="UTF-8" standalone="no"?>
<!-- Created with Inkscape (http://www.inkscape.org/) -->

<svg
   xmlns:dc="http://purl.org/dc/elements/1.1/"
   xmlns:cc="http://creativecommons.org/ns#"
   xmlns:rdf="http://www.w3.org/1999/02/22-rdf-syntax-ns#"
   xmlns:svg="http://www.w3.org/2000/svg"
   xmlns="http://www.w3.org/2000/svg"
   xmlns:xlink="http://www.w3.org/1999/xlink"
   xmlns:sodipodi="http://sodipodi.sourceforge.net/DTD/sodipodi-0.dtd"
   xmlns:inkscape="http://www.inkscape.org/namespaces/inkscape"
   width="22"
   height="22"
   id="svg7325"
   version="1.1"
   inkscape:version="0.48.4 r9939"
   sodipodi:docname="xpad-panel.svg">
  <defs
     id="defs7327">
    <linearGradient
       id="linearGradient6443">
      <stop
         style="stop-color:#000000;stop-opacity:1;"
         offset="0"
         id="stop6445" />
      <stop
         style="stop-color:#363636;stop-opacity:1;"
         offset="1"
         id="stop6447" />
    </linearGradient>
    <linearGradient
       inkscape:collect="always"
       xlink:href="#linearGradient6443"
       id="linearGradient7634"
       gradientUnits="userSpaceOnUse"
       gradientTransform="matrix(0.7368421,0,0,0.7368421,40.141933,1085.9185)"
       x1="-38.396969"
       y1="-69.691612"
       x2="-38.396969"
       y2="-50.803493" />
  </defs>
  <sodipodi:namedview
     id="base"
     pagecolor="#ffffff"
     bordercolor="#666666"
     borderopacity="1.0"
     inkscape:pageopacity="0.0"
     inkscape:pageshadow="2"
     inkscape:zoom="5.6"
     inkscape:cx="15.155499"
     inkscape:cy="-4.8678208"
     inkscape:document-units="px"
     inkscape:current-layer="layer1"
     showgrid="false"
     inkscape:window-width="1024"
     inkscape:window-height="550"
     inkscape:window-x="0"
     inkscape:window-y="0"
     inkscape:window-maximized="1" />
  <metadata
     id="metadata7330">
    <rdf:RDF>
      <cc:Work
         rdf:about="">
        <dc:format>image/svg+xml</dc:format>
        <dc:type
           rdf:resource="http://purl.org/dc/dcmitype/StillImage" />
        <dc:title />
      </cc:Work>
    </rdf:RDF>
  </metadata>
  <g
     inkscape:label="Layer 1"
     inkscape:groupmode="layer"
     id="layer1"
     transform="translate(0,-1030.3622)">
    <path
       inkscape:connector-curvature="0"
       style="font-size:medium;font-style:normal;font-variant:normal;font-weight:normal;font-stretch:normal;text-indent:0;text-align:start;text-decoration:none;line-height:normal;letter-spacing:normal;word-spacing:normal;text-transform:none;direction:ltr;block-progression:tb;writing-mode:lr-tb;text-anchor:start;baseline-shift:baseline;opacity:0.6;color:#000000;fill:#ffffff;fill-opacity:1;fill-rule:nonzero;stroke:none;stroke-width:1;marker:none;visibility:visible;display:inline;overflow:visible;enable-background:accumulate;font-family:Sans;-inkscape-font-specification:Sans"
       d="M 5.5798613,1035.3622 C 4.7039974,1035.3622 4,1036.0662 4,1036.9421 l 0,10.8402 c 0,0.876 0.7039974,1.5799 1.5798613,1.5799 l 8.2395827,0 4.180556,-4.132 0,-8.2881 c 0,-0.8759 -0.704006,-1.5799 -1.579861,-1.5799 l -10.8402777,0 z m 1.3854161,2.9897 7.7777786,0 0,1.5554 -7.7777786,0 0,-1.5554 z m 0,2.9894 7.7777786,0 0,1.5556 -7.7777786,0 0,-1.5556 z m 0,2.9897 5.5173606,0 0,1.5556 -5.5173606,0 0,-1.5556 z"
       id="path4235-2" />
    <path
       inkscape:connector-curvature="0"
       style="font-size:medium;font-style:normal;font-variant:normal;font-weight:normal;font-stretch:normal;text-indent:0;text-align:start;text-decoration:none;line-height:normal;letter-spacing:normal;word-spacing:normal;text-transform:none;direction:ltr;block-progression:tb;writing-mode:lr-tb;text-anchor:start;baseline-shift:baseline;opacity:0.7;color:#000000;fill:url(#linearGradient7634);fill-opacity:1;fill-rule:nonzero;stroke:none;stroke-width:1;marker:none;visibility:visible;display:inline;overflow:visible;enable-background:accumulate;font-family:Sans;-inkscape-font-specification:Sans"
       d="M 5.5798611,1034.3622 C 4.7039977,1034.3622 4,1035.0662 4,1035.9421 l 0,10.8402 c 0,0.876 0.7039977,1.5799 1.5798611,1.5799 l 8.2395829,0 4.180556,-4.132 0,-8.2881 c 0,-0.8759 -0.704006,-1.5799 -1.579861,-1.5799 l -10.8402779,0 z m 1.3854166,2.9897 7.7777783,0 0,1.5554 -7.7777783,0 0,-1.5554 z m 0,2.9894 7.7777783,0 0,1.5556 -7.7777783,0 0,-1.5556 z m 0,2.9897 5.5173613,0 0,1.5556 -5.5173613,0 0,-1.5556 z"
       id="path4235" />
  </g>
</svg>
