<?xml version="1.0" encoding="UTF-8" standalone="no"?>
<svg
   xmlns:dc="http://purl.org/dc/elements/1.1/"
   xmlns:cc="http://creativecommons.org/ns#"
   xmlns:rdf="http://www.w3.org/1999/02/22-rdf-syntax-ns#"
   xmlns:svg="http://www.w3.org/2000/svg"
   xmlns="http://www.w3.org/2000/svg"
   xmlns:xlink="http://www.w3.org/1999/xlink"
   xmlns:sodipodi="http://sodipodi.sourceforge.net/DTD/sodipodi-0.dtd"
   xmlns:inkscape="http://www.inkscape.org/namespaces/inkscape"
   viewBox="0 0 24 24"
   id="svg3214"
   version="1.1"
   inkscape:version="0.48.3.1 r9886"
   width="100%"
   height="100%"
   sodipodi:docname="edit-find-replace.svg">
  <metadata
     id="metadata3227">
    <rdf:RDF>
      <cc:Work
         rdf:about="">
        <dc:format>image/svg+xml</dc:format>
        <dc:type
           rdf:resource="http://purl.org/dc/dcmitype/StillImage" />
        <dc:title />
      </cc:Work>
    </rdf:RDF>
  </metadata>
  <sodipodi:namedview
     pagecolor="#ffffff"
     bordercolor="#666666"
     borderopacity="1"
     objecttolerance="10"
     gridtolerance="10"
     guidetolerance="10"
     inkscape:pageopacity="0"
     inkscape:pageshadow="2"
     inkscape:window-width="858"
     inkscape:window-height="763"
     id="namedview3225"
     showgrid="true"
     inkscape:zoom="19.666667"
     inkscape:cx="12"
     inkscape:cy="12.305084"
     inkscape:window-x="216"
     inkscape:window-y="90"
     inkscape:window-maximized="0"
     inkscape:current-layer="svg3214">
    <inkscape:grid
       type="xygrid"
       id="grid3000" />
  </sodipodi:namedview>
  <defs
     id="defs3216">
    <linearGradient
       gradientUnits="userSpaceOnUse"
       id="linearGradient3184"
       x2="0"
       y1=".95684"
       y2="10.0293">
      <stop
         offset="0"
         id="stop3219" />
      <stop
         offset="1"
         stop-color="#363636"
         id="stop3221" />
    </linearGradient>
    <linearGradient
       gradientTransform="matrix(0,1.333302,1.333302,0,-688.6496,-131.39689)"
       y2="11.02436"
       x2="0"
       y1="3.00694"
       gradientUnits="userSpaceOnUse"
       id="linearGradient3245"
       xlink:href="#linearGradient951-5"
       inkscape:collect="always" />
    <linearGradient
       y2="11.02436"
       x2="0"
       y1="3.00694"
       gradientUnits="userSpaceOnUse"
       id="linearGradient3242"
       xlink:href="#linearGradient951-5"
       inkscape:collect="always" />
    <linearGradient
       y2="11.02436"
       x2="0"
       y1="3.00694"
       gradientUnits="userSpaceOnUse"
       id="linearGradient3240"
       xlink:href="#linearGradient951-5"
       inkscape:collect="always" />
    <linearGradient
       y2="11.02436"
       x2="0"
       y1="3.00694"
       gradientUnits="userSpaceOnUse"
       id="linearGradient3233"
       xlink:href="#linearGradient951-5"
       inkscape:collect="always" />
    <linearGradient
       y2="11.02436"
       x2="0"
       y1="3.00694"
       gradientUnits="userSpaceOnUse"
       id="linearGradient3231"
       xlink:href="#linearGradient951-5"
       inkscape:collect="always" />
    <linearGradient
       y2="11.02436"
       x2="0"
       y1="3.00694"
       gradientUnits="userSpaceOnUse"
       id="linearGradient3229"
       xlink:href="#linearGradient951-5"
       inkscape:collect="always" />
    <linearGradient
       y2="11.02436"
       y1="3.00694"
       x2="0"
       id="linearGradient951-5"
       gradientUnits="userSpaceOnUse">
      <stop
         id="stop3194"
         offset="0" />
      <stop
         id="stop3196"
         stop-color="#363636"
         offset="1" />
    </linearGradient>
    <linearGradient
       inkscape:collect="always"
       xlink:href="#linearGradient951-5"
       id="linearGradient3276"
       gradientUnits="userSpaceOnUse"
       gradientTransform="matrix(0,1.333302,1.333302,0,-689.05699,-130.88002)"
       y1="3.00694"
       x2="0"
       y2="11.02436" />
    <linearGradient
       gradientUnits="userSpaceOnUse"
       id="linearGradient3184-4"
       x2="0"
       y1="0.95683998"
       y2="10.0293">
      <stop
         offset="0"
         id="stop3219-8" />
      <stop
         offset="1"
         stop-color="#363636"
         id="stop3221-4" />
    </linearGradient>
    <linearGradient
       gradientTransform="translate(-3,-3)"
       y2="10.0293"
       x2="0"
       y1="0.95683998"
       gradientUnits="userSpaceOnUse"
       id="linearGradient3367"
       xlink:href="#linearGradient3184-4"
       inkscape:collect="always" />
    <linearGradient
       inkscape:collect="always"
       xlink:href="#linearGradient3184-4"
       id="linearGradient3029"
       gradientUnits="userSpaceOnUse"
       y1="0.95683998"
       x2="0"
       y2="10.0293" />
    <linearGradient
       gradientUnits="userSpaceOnUse"
       id="linearGradient3184-4-1"
       x2="0"
       y1="0.95683998"
       y2="10.0293">
      <stop
         offset="0"
         id="stop3219-8-7" />
      <stop
         offset="1"
         stop-color="#363636"
         id="stop3221-4-3" />
    </linearGradient>
    <linearGradient
       gradientTransform="translate(-3,-3)"
       y2="10.0293"
       x2="0"
       y1="0.95683998"
       gradientUnits="userSpaceOnUse"
       id="linearGradient3027"
       xlink:href="#linearGradient3184-4-1"
       inkscape:collect="always" />
  </defs>
  <path
     style="color:#000000;fill:#ffffff;fill-opacity:1;fill-rule:nonzero;stroke:none;stroke-width:1;marker:none;visibility:visible;display:inline;overflow:visible;enable-background:accumulate;opacity:0.59999999999999998;stroke-linecap:butt;stroke-linejoin:miter;stroke-miterlimit:4;stroke-opacity:1;stroke-dasharray:none;stroke-dashoffset:0"
     d="M 9.15625 4 C 5.76758 4 3 6.66244 3 9.9375 C 3 13.21256 5.76758 15.875 9.15625 15.875 C 10.22081 15.875 11.18834 15.58743 12.0625 15.125 L 18.65625 21.78125 C 18.77459 21.90869 18.93951 22.00892 19.125 22 C 19.31049 21.9911 19.52687 21.88936 19.65625 21.75 L 20.8125 20.46875 C 21.05327 20.20408 21.05472 19.84654 20.8125 19.625 L 14.125 13.375 C 14.84273 12.40303 15.28125 11.21956 15.28125 9.9375 C 15.28125 6.66244 12.54492 4 9.15625 4 z M 9.15625 6.125 C 11.35067 6.125 13.09375 7.81666 13.09375 9.9375 C 13.09375 12.05834 11.35067 13.75 9.15625 13.75 C 6.96183 13.75 5.1875 12.05834 5.1875 9.9375 C 5.1875 7.81666 6.96183 6.125 9.15625 6.125 z M 4 20 C 3.4477153 20 3 20.447715 3 21 C 3 21.552285 3.4477153 22 4 22 C 4.5522847 22 5 21.552285 5 21 C 5 20.447715 4.5522847 20 4 20 z M 8 20 C 7.4477153 20 7 20.447715 7 21 C 7 21.552285 7.4477153 22 8 22 C 8.5522847 22 9 21.552285 9 21 C 9 20.447715 8.5522847 20 8 20 z M 12 20 C 11.447715 20 11 20.447715 11 21 C 11 21.552285 11.447715 22 12 22 C 12.552285 22 13 21.552285 13 21 C 13 20.447715 12.552285 20 12 20 z "
     id="path3005" />
  <path
     style="opacity:0.69999999999999996;color:#000000;fill:url(#linearGradient3184-4-1);fill-opacity:1;fill-rule:nonzero;stroke-width:1;stroke-linecap:butt;stroke-linejoin:miter;stroke-miterlimit:4;stroke-opacity:1;stroke-dasharray:none;stroke-dashoffset:0;marker:none;visibility:visible;display:inline;overflow:visible;enable-background:accumulate"
     d="M 9.15625 3 C 5.76758 3 3 5.66244 3 8.9375 C 3 12.21256 5.76758 14.875 9.15625 14.875 C 10.22081 14.875 11.18834 14.58743 12.0625 14.125 L 18.65625 20.78125 C 18.77459 20.90869 18.93951 21.00892 19.125 21 C 19.31049 20.9911 19.52687 20.88936 19.65625 20.75 L 20.8125 19.46875 C 21.05327 19.20408 21.05472 18.84654 20.8125 18.625 L 14.125 12.375 C 14.84273 11.40303 15.28125 10.21956 15.28125 8.9375 C 15.28125 5.66244 12.54492 3 9.15625 3 z M 9.15625 5.125 C 11.35067 5.125 13.09375 6.81666 13.09375 8.9375 C 13.09375 11.05834 11.35067 12.75 9.15625 12.75 C 6.96183 12.75 5.1875 11.05834 5.1875 8.9375 C 5.1875 6.81666 6.96183 5.125 9.15625 5.125 z M 4 19 C 3.4477153 19 3 19.447715 3 20 C 3 20.552285 3.4477153 21 4 21 C 4.5522847 21 5 20.552285 5 20 C 5 19.447715 4.5522847 19 4 19 z M 8 19 C 7.4477153 19 7 19.447715 7 20 C 7 20.552285 7.4477153 21 8 21 C 8.5522847 21 9 20.552285 9 20 C 9 19.447715 8.5522847 19 8 19 z M 12 19 C 11.447715 19 11 19.447715 11 20 C 11 20.552285 11.447715 21 12 21 C 12.552285 21 13 20.552285 13 20 C 13 19.447715 12.552285 19 12 19 z "
     id="path3223" />
</svg>
