<?xml version="1.0" encoding="UTF-8" standalone="no"?>
<!-- Created with Inkscape (http://www.inkscape.org/) -->

<svg xmlns:dc="http://purl.org/dc/elements/1.1/" xmlns:cc="http://creativecommons.org/ns#" xmlns:rdf="http://www.w3.org/1999/02/22-rdf-syntax-ns#" xmlns:svg="http://www.w3.org/2000/svg" xmlns="http://www.w3.org/2000/svg" xmlns:xlink="http://www.w3.org/1999/xlink" xmlns:sodipodi="http://sodipodi.sourceforge.net/DTD/sodipodi-0.dtd" xmlns:inkscape="http://www.inkscape.org/namespaces/inkscape" width="24" height="24" id="svg6662" version="1.1" inkscape:version="0.48.4 r9939" sodipodi:docname="edit-delete.svg">
  <defs id="defs6664">
    <linearGradient y2="11.02436" y1="3.0069399" x2="0" id="linearGradient1022-8-8-3-0-2-8" gradientUnits="userSpaceOnUse">
      <stop id="stop3001-0-9-4-1-81" offset="0" />
      <stop id="stop3003-5-6-6-1-53" stop-color="#363636" offset="1" />
    </linearGradient>
    <linearGradient inkscape:collect="always" xlink:href="#linearGradient1022-8-8-3-0-2-8" id="linearGradient3070" gradientUnits="userSpaceOnUse" gradientTransform="matrix(1.679991,0,0,1.5097216,-403.41796,-14.3984)" x1="247.27393" y1="10.199496" x2="247.27393" y2="24.109346" />
  </defs>
  <sodipodi:namedview id="base" pagecolor="#ffffff" bordercolor="#666666" borderopacity="1.0" inkscape:pageopacity="0.0" inkscape:pageshadow="2" inkscape:zoom="11.2" inkscape:cx="20.227772" inkscape:cy="12.772694" inkscape:document-units="px" inkscape:current-layer="capa1" showgrid="true" inkscape:showpageshadow="false" inkscape:window-width="1280" inkscape:window-height="949" inkscape:window-x="0" inkscape:window-y="0" inkscape:window-maximized="1" inkscape:snap-page="true" inkscape:snap-center="true" inkscape:snap-object-midpoints="true">
    <inkscape:grid type="xygrid" id="grid2990" />
  </sodipodi:namedview>
  <metadata id="metadata6667">
    <rdf:RDF>
      <cc:Work rdf:about="">
        <dc:format>image/svg+xml</dc:format>
        <dc:type rdf:resource="http://purl.org/dc/dcmitype/StillImage" />
        <dc:title />
      </cc:Work>
    </rdf:RDF>
  </metadata>
  <g inkscape:label="Capa 1" inkscape:groupmode="layer" id="capa1" transform="translate(0,-1028.3622)">
    <g id="g3093">
      <path inkscape:connector-curvature="0" style="opacity:0.59999999999999998;color:black;fill:white;fill-opacity:1;fill-rule:nonzero;stroke:none;stroke-width:1;marker:none;visibility:visible;display:inline;overflow:visible;enable-background:accumulate" d="m 5,1030.3622 -2,2 0,17 2,2 14,0 2,-2 0,-17 -2,-2 -14,0 z m 1,2 12,0 1,1 0,15 -1,1 -12,0 -1,-1 0,-15 1,-1 z m 3,3 -2,2 3,3 -3,3 2,2 3,-3 3,3 2,-2 -3,-3 3,-3 -2,-2 -3,3 -3,-3 z" id="path3072" />
      <path transform="translate(0,1028.3622)" id="path4535" d="M 5 1 L 3 3 L 3 20 L 5 22 L 19 22 L 21 20 L 21 3 L 19 1 L 5 1 z M 6 3 L 18 3 L 19 4 L 19 19 L 18 20 L 6 20 L 5 19 L 5 4 L 6 3 z M 9 6 L 7 8 L 10 11 L 7 14 L 9 16 L 12 13 L 15 16 L 17 14 L 14 11 L 17 8 L 15 6 L 12 9 L 9 6 z " style="opacity:0.69999999999999996;color:black;fill:url(#linearGradient3070);fill-opacity:1;fill-rule:nonzero;stroke:none;stroke-width:1;marker:none;visibility:visible;display:inline;overflow:visible;enable-background:accumulate" />
      <rect y="1028.3622" x="0" height="24" width="24" id="rect3167" style="opacity:0.6;color:black;fill:none;stroke:none;stroke-width:1;marker:none;visibility:visible;display:inline;overflow:visible;enable-background:accumulate" />
    </g>
  </g>
</svg>
