<?xml version="1.0" encoding="UTF-8" standalone="no"?>
<!-- Created with Inkscape (http://www.inkscape.org/) -->

<svg
   xmlns:dc="http://purl.org/dc/elements/1.1/"
   xmlns:cc="http://creativecommons.org/ns#"
   xmlns:rdf="http://www.w3.org/1999/02/22-rdf-syntax-ns#"
   xmlns:svg="http://www.w3.org/2000/svg"
   xmlns="http://www.w3.org/2000/svg"
   xmlns:xlink="http://www.w3.org/1999/xlink"
   xmlns:sodipodi="http://sodipodi.sourceforge.net/DTD/sodipodi-0.dtd"
   xmlns:inkscape="http://www.inkscape.org/namespaces/inkscape"
   width="24"
   height="24"
   id="svg6662"
   version="1.1"
   inkscape:version="0.48.4 r9939"
   sodipodi:docname="gtk-select-all.svg">
  <defs
     id="defs6664">
    <linearGradient
       y2="11.02436"
       y1="3.0069399"
       x2="0"
       id="linearGradient1022-8-8-3-0-27-9-6"
       gradientUnits="userSpaceOnUse">
      <stop
         id="stop3001-0-9-4-6-9-1"
         offset="0" />
      <stop
         id="stop3003-5-6-6-01-7-5"
         stop-color="#363636"
         offset="1" />
    </linearGradient>
    <linearGradient
       inkscape:collect="always"
       xlink:href="#linearGradient1022-8-8-3-0-27-9-6"
       id="linearGradient3078"
       gradientUnits="userSpaceOnUse"
       gradientTransform="matrix(2.0999888,0,0,2.2645372,-103.5938,2159.498)"
       x1="55.04496"
       y1="-499.05817"
       x2="55.04496"
       y2="-489.78476" />
  </defs>
  <sodipodi:namedview
     id="base"
     pagecolor="#ffffff"
     bordercolor="#666666"
     borderopacity="1.0"
     inkscape:pageopacity="0.0"
     inkscape:pageshadow="2"
     inkscape:zoom="11.2"
     inkscape:cx="14.797658"
     inkscape:cy="13.495323"
     inkscape:document-units="px"
     inkscape:current-layer="capa1"
     showgrid="true"
     inkscape:showpageshadow="false"
     inkscape:window-width="1280"
     inkscape:window-height="949"
     inkscape:window-x="0"
     inkscape:window-y="0"
     inkscape:window-maximized="1"
     inkscape:snap-page="true"
     inkscape:snap-center="true"
     inkscape:snap-object-midpoints="true">
    <inkscape:grid
       type="xygrid"
       id="grid2990" />
  </sodipodi:namedview>
  <metadata
     id="metadata6667">
    <rdf:RDF>
      <cc:Work
         rdf:about="">
        <dc:format>image/svg+xml</dc:format>
        <dc:type
           rdf:resource="http://purl.org/dc/dcmitype/StillImage" />
        <dc:title />
      </cc:Work>
    </rdf:RDF>
  </metadata>
  <g
     inkscape:label="Capa 1"
     inkscape:groupmode="layer"
     id="capa1"
     transform="translate(0,-1028.3622)">
    <rect
       style="opacity:0.6;color:black;fill:none;stroke:none;stroke-width:1;marker:none;visibility:visible;display:inline;overflow:visible;enable-background:accumulate"
       id="rect4186"
       width="24"
       height="24"
       x="0"
       y="1028.3622" />
    <path
       inkscape:connector-curvature="0"
       id="path3080"
       d="m 19,1030.3622 2,2 0,17 -2,2 -14,0 -2,-2 0,-17 2,-2 14,0 z m -1,2 -12,0 -1,1 0,15 1,1 12,0 1,-1 0,-15 -1,-1 z m -1,2 0,3 -10,0 0,-3 10,0 z m 0,5 0,3 -10,0 0,-3 10,0 z m 0,5 0,3 -10,0 0,-3 10,0 z"
       style="opacity:0.59999999999999998;color:black;fill:white;fill-opacity:1;fill-rule:nonzero;stroke:none;stroke-width:1;marker:none;visibility:visible;display:inline;overflow:visible;enable-background:accumulate" />
    <path
       style="opacity:0.69999999999999996;color:black;fill:url(#linearGradient3078);fill-opacity:1;fill-rule:evenodd;stroke:none;stroke-width:1;marker:none;visibility:visible;display:inline;overflow:visible;enable-background:accumulate"
       d="m 19,1029.3622 2,2 0,17 -2,2 -14,0 -2,-2 0,-17 2,-2 14,0 z m -1,2 -12,0 -1,1 0,15 1,1 12,0 1,-1 0,-15 -1,-1 z m -1,2 0,3 -10,0 0,-3 10,0 z m 0,5 0,3 -10,0 0,-3 10,0 z m 0,5 0,3 -10,0 0,-3 10,0 z"
       id="path3046"
       inkscape:connector-curvature="0" />
  </g>
</svg>
