<?xml version="1.0" encoding="UTF-8" standalone="no"?>
<!-- Created with Inkscape (http://www.inkscape.org/) -->

<svg
   xmlns:dc="http://purl.org/dc/elements/1.1/"
   xmlns:cc="http://creativecommons.org/ns#"
   xmlns:rdf="http://www.w3.org/1999/02/22-rdf-syntax-ns#"
   xmlns:svg="http://www.w3.org/2000/svg"
   xmlns="http://www.w3.org/2000/svg"
   xmlns:xlink="http://www.w3.org/1999/xlink"
   xmlns:sodipodi="http://sodipodi.sourceforge.net/DTD/sodipodi-0.dtd"
   xmlns:inkscape="http://www.inkscape.org/namespaces/inkscape"
   width="24"
   height="24"
   id="svg6662"
   version="1.1"
   inkscape:version="0.48.4 r9939"
   sodipodi:docname="folder-new.svg">
  <defs
     id="defs6664">
    <linearGradient
       y2="11.02436"
       y1="3.0069399"
       x2="0"
       id="linearGradient1022-8-8-3-0-06-6"
       gradientUnits="userSpaceOnUse">
      <stop
         id="stop3001-0-9-4-9-3"
         offset="0" />
      <stop
         id="stop3003-5-6-6-5-61"
         stop-color="#363636"
         offset="1" />
    </linearGradient>
    <linearGradient
       y2="21.790857"
       x2="230.93878"
       y1="8.5433788"
       x1="230.93878"
       gradientTransform="matrix(1.6799908,0,0,1.5097214,67.024963,81.19636)"
       gradientUnits="userSpaceOnUse"
       id="linearGradient10384"
       xlink:href="#linearGradient1022-8-8-3-0-06-6"
       inkscape:collect="always" />
  </defs>
  <sodipodi:namedview
     id="base"
     pagecolor="#ffffff"
     bordercolor="#666666"
     borderopacity="1.0"
     inkscape:pageopacity="0.0"
     inkscape:pageshadow="2"
     inkscape:zoom="3.959798"
     inkscape:cx="31.628015"
     inkscape:cy="12.379252"
     inkscape:document-units="px"
     inkscape:current-layer="capa1"
     showgrid="false"
     inkscape:showpageshadow="false"
     inkscape:window-width="730"
     inkscape:window-height="702"
     inkscape:window-x="484"
     inkscape:window-y="100"
     inkscape:window-maximized="0" />
  <metadata
     id="metadata6667">
    <rdf:RDF>
      <cc:Work
         rdf:about="">
        <dc:format>image/svg+xml</dc:format>
        <dc:type
           rdf:resource="http://purl.org/dc/dcmitype/StillImage" />
        <dc:title />
      </cc:Work>
    </rdf:RDF>
  </metadata>
  <g
     inkscape:label="Capa 1"
     inkscape:groupmode="layer"
     id="capa1"
     transform="translate(0,-1028.3622)">
    <g
       transform="translate(-444.99997,630.00002)"
       id="folder-new">
      <rect
         y="398.36218"
         x="444.99997"
         height="23.999996"
         width="23.999996"
         id="rect3125"
         style="opacity:0.6;color:#000000;fill:none;stroke:none;stroke-width:1;marker:none;visibility:visible;display:inline;overflow:visible;enable-background:accumulate" />
      <path
         style="opacity:0.6;color:#000000;fill:#ffffff;fill-opacity:1;fill-rule:nonzero;stroke:none;stroke-width:1;marker:none;visibility:visible;display:inline;overflow:visible;enable-background:accumulate"
         d="m 463,402.36218 0,3 -3,0 0,2 3,0 0,3 2,0 0,-3 3,0 0,-2 -3,0 0,-3 -2,0 z m -13,4 -2,2 0,11 2,2 14,0 2,-2 0,-9 -2,2 0,7 -14,0 0,-11 6,0 2,2 4,0 -2,-2 -1,0 -2,-2 -7,0 z"
         id="path6613"
         inkscape:connector-curvature="0" />
      <path
         inkscape:connector-curvature="0"
         id="path5959"
         transform="translate(0,308.2677)"
         d="m 463,93.09375 0,3 -3,0 0,2 3,0 0,3 2,0 0,-3 3,0 0,-2 -3,0 0,-3 -2,0 z m -13,4 -2,2 0,11 2,2 14,0 2,-2 0,-9 -2,2 0,7 -14,0 0,-11 6,0 2,2 4,0 -2,-2 -1,0 -2,-2 -7,0 z"
         style="opacity:0.7;color:#000000;fill:url(#linearGradient10384);fill-opacity:1;fill-rule:nonzero;stroke:none;stroke-width:1;marker:none;visibility:visible;display:inline;overflow:visible;enable-background:accumulate" />
    </g>
  </g>
</svg>
