<?xml version="1.0" encoding="UTF-8" standalone="no"?>
<!-- Created with Inkscape (http://www.inkscape.org/) -->

<svg
   xmlns:dc="http://purl.org/dc/elements/1.1/"
   xmlns:cc="http://creativecommons.org/ns#"
   xmlns:rdf="http://www.w3.org/1999/02/22-rdf-syntax-ns#"
   xmlns:svg="http://www.w3.org/2000/svg"
   xmlns="http://www.w3.org/2000/svg"
   xmlns:xlink="http://www.w3.org/1999/xlink"
   xmlns:sodipodi="http://sodipodi.sourceforge.net/DTD/sodipodi-0.dtd"
   xmlns:inkscape="http://www.inkscape.org/namespaces/inkscape"
   width="24"
   height="24"
   id="svg6662"
   version="1.1"
   inkscape:version="0.48.4 r9939"
   sodipodi:docname="gtk-italic.svg">
  <defs
     id="defs6664">
    <linearGradient
       inkscape:collect="always"
       xlink:href="#linearGradient1022-8-8-3-0-2-3-3-9"
       id="linearGradient3042-5-1"
       gradientUnits="userSpaceOnUse"
       gradientTransform="matrix(1.6347544,0,0,1.4690698,-266.28347,472.93403)"
       x1="170.68918"
       y1="381.10251"
       x2="170.68918"
       y2="391.7005" />
    <linearGradient
       gradientUnits="userSpaceOnUse"
       id="linearGradient1022-8-8-3-0-2-3-3-9"
       x2="0"
       y1="3.0069399"
       y2="11.02436">
      <stop
         offset="0"
         id="stop3001-0-9-4-1-4-7-9" />
      <stop
         offset="1"
         stop-color="#363636"
         id="stop3003-5-6-6-1-1-1-1" />
    </linearGradient>
  </defs>
  <sodipodi:namedview
     id="base"
     pagecolor="#ffffff"
     bordercolor="#666666"
     borderopacity="1.0"
     inkscape:pageopacity="0.0"
     inkscape:pageshadow="2"
     inkscape:zoom="11.313708"
     inkscape:cx="29.706976"
     inkscape:cy="16.287766"
     inkscape:document-units="px"
     inkscape:current-layer="capa1"
     showgrid="true"
     inkscape:showpageshadow="false"
     inkscape:window-width="1280"
     inkscape:window-height="976"
     inkscape:window-x="0"
     inkscape:window-y="24"
     inkscape:window-maximized="1">
    <inkscape:grid
       type="xygrid"
       id="grid3327" />
  </sodipodi:namedview>
  <metadata
     id="metadata6667">
    <rdf:RDF>
      <cc:Work
         rdf:about="">
        <dc:format>image/svg+xml</dc:format>
        <dc:type
           rdf:resource="http://purl.org/dc/dcmitype/StillImage" />
        <dc:title />
      </cc:Work>
    </rdf:RDF>
  </metadata>
  <g
     inkscape:label="Capa 1"
     inkscape:groupmode="layer"
     id="capa1"
     transform="translate(0,-1028.3622)">
    <path
       style="opacity:0.6;color:#000000;fill:none;stroke:none;stroke-width:1;marker:none;visibility:visible;display:inline;overflow:visible;enable-background:accumulate"
       d="m 0,1028.3622 24,0 0,24 -24,0 z"
       id="rect2997" />
    <g
       transform="scale(1.0000071,0.9999929)"
       style="font-size:27.11366463px;font-style:italic;font-weight:normal;line-height:125%;letter-spacing:0px;word-spacing:0px;opacity:0.6;color:#000000;fill:#ffffff;fill-opacity:1;fill-rule:nonzero;stroke:none;stroke-width:0.66666669;marker:none;visibility:visible;display:inline;overflow:visible;enable-background:accumulate;font-family:Sans;-inkscape-font-specification:Sans Italic"
       id="text3052">
      <path
         d="m 18.450884,1040.5259 -1.654887,8.4598 -2.435993,0 0.450129,-2.2506 c -0.714921,0.8826 -1.531331,1.5445 -2.449232,1.9858 -0.909092,0.4325 -1.924088,0.6488 -3.0449919,0.6488 -1.2621311,0 -2.2991924,-0.384 -3.1111871,-1.1518 -0.8031732,-0.7767 -1.2047586,-1.7697 -1.2047575,-2.9788 -1.1e-6,-1.7299 0.6884311,-3.098 2.0652986,-4.1042 1.3856873,-1.0061 3.2921149,-1.5092 5.7192889,-1.5092 l 3.389208,0 0.132391,-0.6487 c 0.01764,-0.071 0.03088,-0.1457 0.03972,-0.2251 0.0088,-0.088 0.01323,-0.2206 0.01324,-0.3972 -1.2e-5,-0.7855 -0.322163,-1.3945 -0.966454,-1.827 -0.635487,-0.4413 -1.531332,-0.6619 -2.687536,-0.6619 -0.794353,0 -1.610763,0.1015 -2.449232,0.3045 -0.8296556,0.203 -1.6857829,0.5075 -2.5683844,0.9135 l 0.423651,-2.2507 c 0.9179053,-0.3442 1.8137498,-0.6001 2.6875364,-0.7678 0.882598,-0.1765 1.734312,-0.2648 2.555145,-0.2648 1.747549,0 3.07587,0.3795 3.984967,1.1385 0.917896,0.7591 1.376851,1.8624 1.376866,3.3098 -1.5e-5,0.2913 -0.02208,0.6355 -0.0662,1.0327 -0.04415,0.3883 -0.11034,0.8031 -0.198586,1.2444 m -2.63458,1.0062 -2.435993,0 c -1.994698,0 -3.4730617,0.2692 -4.4350965,0.8076 -0.9532189,0.5296 -1.4298258,1.3548 -1.4298222,2.4757 -3.6e-6,0.7767 0.2427129,1.3857 0.7281502,1.827 0.4942547,0.4413 1.1738608,0.662 2.0388205,0.662 1.323902,0 2.480115,-0.4722 3.468643,-1.4166 0.988508,-0.9532 1.641636,-2.2242 1.959386,-3.8129 l 0.105912,-0.5428"
         style="color:#000000;fill:#ffffff;marker:none;visibility:visible;display:inline;overflow:visible;enable-background:accumulate;-inkscape-font-specification:Sans Italic"
         id="path3013" />
    </g>
    <g
       transform="scale(1.0000071,0.9999929)"
       style="font-size:27.11366463px;font-style:italic;font-weight:normal;line-height:125%;letter-spacing:0px;word-spacing:0px;opacity:0.75;color:#000000;fill:url(#linearGradient3042-5-1);fill-opacity:1;fill-rule:nonzero;stroke:none;stroke-width:1;marker:none;visibility:visible;display:inline;overflow:visible;enable-background:accumulate;font-family:Sans;-inkscape-font-specification:Sans Italic"
       id="text3004">
      <path
         d="m 18.450884,1039.5259 -1.654887,8.4598 -2.435993,0 0.450129,-2.2506 c -0.714921,0.8826 -1.531331,1.5445 -2.449232,1.9858 -0.909092,0.4325 -1.924088,0.6488 -3.0449919,0.6488 -1.2621311,0 -2.2991924,-0.384 -3.1111871,-1.1518 -0.8031732,-0.7767 -1.2047586,-1.7697 -1.2047575,-2.9788 -1.1e-6,-1.7299 0.6884311,-3.098 2.0652986,-4.1042 1.3856873,-1.0061 3.2921149,-1.5092 5.7192889,-1.5092 l 3.389208,0 0.132391,-0.6487 c 0.01764,-0.071 0.03088,-0.1457 0.03972,-0.2251 0.0088,-0.088 0.01323,-0.2206 0.01324,-0.3972 -1.2e-5,-0.7855 -0.322163,-1.3945 -0.966454,-1.827 -0.635487,-0.4413 -1.531332,-0.6619 -2.687536,-0.6619 -0.794353,0 -1.610763,0.1015 -2.449232,0.3045 -0.8296556,0.203 -1.6857829,0.5075 -2.5683844,0.9135 l 0.423651,-2.2507 c 0.9179053,-0.3442 1.8137498,-0.6001 2.6875364,-0.7678 0.882598,-0.1765 1.734312,-0.2648 2.555145,-0.2648 1.747549,0 3.07587,0.3795 3.984967,1.1385 0.917896,0.7591 1.376851,1.8624 1.376866,3.3098 -1.5e-5,0.2913 -0.02208,0.6355 -0.0662,1.0327 -0.04415,0.3883 -0.11034,0.8031 -0.198586,1.2444 m -2.63458,1.0062 -2.435993,0 c -1.994698,0 -3.4730617,0.2692 -4.4350965,0.8076 -0.9532189,0.5296 -1.4298258,1.3548 -1.4298222,2.4757 -3.6e-6,0.7767 0.2427129,1.3857 0.7281502,1.827 0.4942547,0.4413 1.1738608,0.662 2.0388205,0.662 1.323902,0 2.480115,-0.4722 3.468643,-1.4166 0.988508,-0.9532 1.641636,-2.2242 1.959386,-3.8129 l 0.105912,-0.5428"
         style="marker:none;-inkscape-font-specification:Sans Italic"
         id="path3016" />
    </g>
  </g>
</svg>
