<?xml version="1.0" encoding="UTF-8" standalone="no"?>
<!-- Created with Inkscape (http://www.inkscape.org/) -->

<svg
   xmlns:dc="http://purl.org/dc/elements/1.1/"
   xmlns:cc="http://creativecommons.org/ns#"
   xmlns:rdf="http://www.w3.org/1999/02/22-rdf-syntax-ns#"
   xmlns:svg="http://www.w3.org/2000/svg"
   xmlns="http://www.w3.org/2000/svg"
   xmlns:xlink="http://www.w3.org/1999/xlink"
   xmlns:sodipodi="http://sodipodi.sourceforge.net/DTD/sodipodi-0.dtd"
   xmlns:inkscape="http://www.inkscape.org/namespaces/inkscape"
   width="24"
   height="24"
   id="svg3330"
   version="1.1"
   inkscape:version="0.48.4 r9939"
   sodipodi:docname="gnome-session-hibernate.svg">
  <defs
     id="defs3332">
    <linearGradient
       y2="11.02436"
       y1="3.0069399"
       x2="0"
       id="linearGradient1022-8-8-3-0-2-9-92"
       gradientUnits="userSpaceOnUse">
      <stop
         id="stop3001-0-9-4-1-28-7"
         offset="0" />
      <stop
         id="stop3003-5-6-6-1-8-8"
         stop-color="#363636"
         offset="1" />
    </linearGradient>
    <linearGradient
       inkscape:collect="always"
       xlink:href="#linearGradient1022-8-8-3-0-2-9-92"
       id="linearGradient3851"
       gradientUnits="userSpaceOnUse"
       gradientTransform="matrix(3.1015218,0,0,1.3935953,-360.5693,1423.3711)"
       x1="120.07507"
       y1="-1020.6486"
       x2="120.07507"
       y2="-1005.5797" />
  </defs>
  <sodipodi:namedview
     id="base"
     pagecolor="#ffffff"
     bordercolor="#666666"
     borderopacity="1.0"
     inkscape:pageopacity="0.0"
     inkscape:pageshadow="2"
     inkscape:zoom="22.4"
     inkscape:cx="10.67605"
     inkscape:cy="12.436124"
     inkscape:document-units="px"
     inkscape:current-layer="capa1"
     showgrid="true"
     inkscape:showpageshadow="false"
     inkscape:window-width="1280"
     inkscape:window-height="976"
     inkscape:window-x="0"
     inkscape:window-y="24"
     inkscape:window-maximized="1">
    <inkscape:grid
       type="xygrid"
       id="grid3004"
       empspacing="5"
       visible="true"
       enabled="true"
       snapvisiblegridlinesonly="true" />
  </sodipodi:namedview>
  <metadata
     id="metadata3335">
    <rdf:RDF>
      <cc:Work
         rdf:about="">
        <dc:format>image/svg+xml</dc:format>
        <dc:type
           rdf:resource="http://purl.org/dc/dcmitype/StillImage" />
        <dc:title />
      </cc:Work>
    </rdf:RDF>
  </metadata>
  <g
     inkscape:label="Capa 1"
     inkscape:groupmode="layer"
     id="capa1"
     transform="translate(0,-1028.3622)">
    <rect
       style="opacity:0.6;color:#000000;fill:none;stroke:none;stroke-width:1;marker:none;visibility:visible;display:inline;overflow:visible;enable-background:accumulate"
       id="rect2997"
       width="24"
       height="24"
       x="0"
       y="1028.3622" />
    <path
       id="path3079"
       d="m 11.5,1030.3622 -1.5,1 0,5 3,0 0,-5 -1.5,-1 z m -7.5,3 0,2 3,3 2,-2 -3,-3 -2,0 z m 13,0 -3,3 2,2 3,-3 0,-2 -2,0 z m -7,5 0,1 -1,0 0,3 1,0 0,1 3,0 0,-1 1,0 0,-3 -1,0 0,-1 -3,0 z m -8,1 -1,1.5 1,1.5 5,0 0,-3 -5,0 z m 14,0 0,3 5,0 1,-1.5 -1,-1.5 -5,0 z m -9,4 -3,3 0,2 2,0 3,-3 -2,-2 z m 9,0 -2,2 3,3 2,0 0,-2 -3,-3 z m -6,2 0,5 1.5,1 1.5,-1 0,-5 -3,0 z"
       style="opacity:0.59999999999999998;color:#000000;fill:#ffffff;fill-opacity:1;fill-rule:nonzero;stroke:none;stroke-width:1;marker:none;visibility:visible;display:inline;overflow:visible;enable-background:accumulate"
       inkscape:connector-curvature="0" />
    <path
       style="opacity:0.69999999999999996;color:#000000;fill:url(#linearGradient3851);fill-opacity:1;fill-rule:nonzero;stroke:none;stroke-width:1;marker:none;visibility:visible;display:inline;overflow:visible;enable-background:accumulate"
       d="M 11.5 1 L 10 2 L 10 7 L 13 7 L 13 2 L 11.5 1 z M 4 4 L 4 6 L 7 9 L 9 7 L 6 4 L 4 4 z M 17 4 L 14 7 L 16 9 L 19 6 L 19 4 L 17 4 z M 10 9 L 10 10 L 9 10 L 9 13 L 10 13 L 10 14 L 13 14 L 13 13 L 14 13 L 14 10 L 13 10 L 13 9 L 10 9 z M 2 10 L 1 11.5 L 2 13 L 7 13 L 7 10 L 2 10 z M 16 10 L 16 13 L 21 13 L 22 11.5 L 21 10 L 16 10 z M 7 14 L 4 17 L 4 19 L 6 19 L 9 16 L 7 14 z M 16 14 L 14 16 L 17 19 L 19 19 L 19 17 L 16 14 z M 10 16 L 10 21 L 11.5 22 L 13 21 L 13 16 L 10 16 z "
       transform="translate(0,1028.3622)"
       id="path3793" />
  </g>
</svg>
