<?xml version="1.0" encoding="UTF-8" standalone="no"?>
<!-- Created with Inkscape (http://www.inkscape.org/) -->

<svg
   xmlns:dc="http://purl.org/dc/elements/1.1/"
   xmlns:cc="http://creativecommons.org/ns#"
   xmlns:rdf="http://www.w3.org/1999/02/22-rdf-syntax-ns#"
   xmlns:svg="http://www.w3.org/2000/svg"
   xmlns="http://www.w3.org/2000/svg"
   xmlns:xlink="http://www.w3.org/1999/xlink"
   xmlns:sodipodi="http://sodipodi.sourceforge.net/DTD/sodipodi-0.dtd"
   xmlns:inkscape="http://www.inkscape.org/namespaces/inkscape"
   width="24"
   height="24"
   id="svg6662"
   version="1.1"
   inkscape:version="0.48.4 r9939"
   sodipodi:docname="gtk-cdrom.svg">
  <defs
     id="defs6664">
    <linearGradient
       y2="11.02436"
       y1="3.0069399"
       x2="0"
       id="linearGradient1022-8-8-3-0-06-59"
       gradientUnits="userSpaceOnUse">
      <stop
         id="stop3001-0-9-4-9-02"
         offset="0" />
      <stop
         id="stop3003-5-6-6-5-70"
         stop-color="#363636"
         offset="1" />
    </linearGradient>
    <linearGradient
       inkscape:collect="always"
       xlink:href="#linearGradient1022-8-8-3-0-06-59"
       id="linearGradient3012"
       gradientUnits="userSpaceOnUse"
       gradientTransform="matrix(-1.5119916,0,0,1.3587493,335.9775,95.12793)"
       x1="214.27202"
       y1="689.04126"
       x2="214.27202"
       y2="702.2887" />
  </defs>
  <sodipodi:namedview
     id="base"
     pagecolor="#ffffff"
     bordercolor="#666666"
     borderopacity="1.0"
     inkscape:pageopacity="0.0"
     inkscape:pageshadow="2"
     inkscape:zoom="15.839192"
     inkscape:cx="14.797658"
     inkscape:cy="13.495323"
     inkscape:document-units="px"
     inkscape:current-layer="capa1"
     showgrid="true"
     inkscape:showpageshadow="false"
     inkscape:window-width="1280"
     inkscape:window-height="998"
     inkscape:window-x="0"
     inkscape:window-y="0"
     inkscape:window-maximized="1"
     inkscape:snap-page="true"
     inkscape:snap-center="true"
     inkscape:snap-object-midpoints="true"
     inkscape:snap-bbox="true">
    <inkscape:grid
       type="xygrid"
       id="grid2990" />
  </sodipodi:namedview>
  <metadata
     id="metadata6667">
    <rdf:RDF>
      <cc:Work
         rdf:about="">
        <dc:format>image/svg+xml</dc:format>
        <dc:type
           rdf:resource="http://purl.org/dc/dcmitype/StillImage" />
        <dc:title />
      </cc:Work>
    </rdf:RDF>
  </metadata>
  <g
     inkscape:label="Capa 1"
     inkscape:groupmode="layer"
     id="capa1"
     transform="translate(0,-1028.3622)">
    <path
       inkscape:connector-curvature="0"
       id="path3014"
       d="m 18.75,1032.3622 2.25,2.25 0,13.5 -2.25,2.25 -13.5,0 -2.25,-2.25 0,-13.5 2.25,-2.25 13.5,0 z m -6.75,2 c -3.865991,0 -7,3.1338 -7,7 0,3.8659 3.134009,7 7,7 3.865992,0 7,-3.1341 7,-7 0,-3.8662 -3.134008,-7 -7,-7 z m 0,5 c 1.104572,0 2,0.8953 2,2 0,1.1047 -0.895428,2 -2,2 -1.104572,0 -2,-0.8953 -2,-2 0,-1.1047 0.895428,-2 2,-2 z"
       style="opacity:0.59999999999999998;color:black;fill:white;fill-opacity:1;fill-rule:nonzero;stroke:none;stroke-width:1;marker:none;visibility:visible;display:inline;overflow:visible;enable-background:accumulate" />
    <rect
       style="opacity:0.6;color:black;fill:none;stroke:none;stroke-width:1;marker:none;visibility:visible;display:inline;overflow:visible;enable-background:accumulate"
       id="rect4186"
       width="24"
       height="24"
       x="0"
       y="1028.3622" />
    <path
       style="opacity:0.7;color:black;fill:url(#linearGradient3012);fill-opacity:1;fill-rule:nonzero;stroke:none;stroke-width:1;marker:none;visibility:visible;display:inline;overflow:visible;enable-background:accumulate"
       d="m 18.75,1031.3622 2.25,2.25 0,13.5 -2.25,2.25 -13.5,0 -2.25,-2.25 0,-13.5 2.25,-2.25 13.5,0 z m -6.75,2 c -3.865991,0 -7,3.1338 -7,7 0,3.8659 3.134009,7 7,7 3.865992,0 7,-3.1341 7,-7 0,-3.8662 -3.134008,-7 -7,-7 z m 0,5 c 1.104572,0 2,0.8953 2,2 0,1.1047 -0.895428,2 -2,2 -1.104572,0 -2,-0.8953 -2,-2 0,-1.1047 0.895428,-2 2,-2 z"
       id="path3001"
       inkscape:connector-curvature="0" />
  </g>
</svg>
