<?xml version="1.0" encoding="UTF-8" standalone="no"?>
<!-- Created with Inkscape (http://www.inkscape.org/) -->

<svg
   xmlns:dc="http://purl.org/dc/elements/1.1/"
   xmlns:cc="http://creativecommons.org/ns#"
   xmlns:rdf="http://www.w3.org/1999/02/22-rdf-syntax-ns#"
   xmlns:svg="http://www.w3.org/2000/svg"
   xmlns="http://www.w3.org/2000/svg"
   xmlns:xlink="http://www.w3.org/1999/xlink"
   xmlns:sodipodi="http://sodipodi.sourceforge.net/DTD/sodipodi-0.dtd"
   xmlns:inkscape="http://www.inkscape.org/namespaces/inkscape"
   width="24"
   height="24"
   id="svg6662"
   version="1.1"
   inkscape:version="0.48.4 r9939"
   sodipodi:docname="gtk-index.svg">
  <defs
     id="defs6664">
    <linearGradient
       y2="11.02436"
       y1="3.0069399"
       x2="0"
       id="linearGradient1022-8-8-3-0-2-5-0"
       gradientUnits="userSpaceOnUse">
      <stop
         id="stop3001-0-9-4-1-6-9"
         offset="0" />
      <stop
         id="stop3003-5-6-6-1-6-7"
         stop-color="#363636"
         offset="1" />
    </linearGradient>
    <linearGradient
       inkscape:collect="always"
       xlink:href="#linearGradient1022-8-8-3-0-2-5-0"
       id="linearGradient3035"
       gradientUnits="userSpaceOnUse"
       gradientTransform="matrix(4.3199768,0,0,0.23226486,-342.50724,-1026.6542)"
       x1="82.525269"
       y1="4433.1035"
       x2="82.525269"
       y2="4510.6016" />
  </defs>
  <sodipodi:namedview
     id="base"
     pagecolor="#ffffff"
     bordercolor="#666666"
     borderopacity="1.0"
     inkscape:pageopacity="0.0"
     inkscape:pageshadow="2"
     inkscape:zoom="21.868421"
     inkscape:cx="17.99639"
     inkscape:cy="9.356799"
     inkscape:document-units="px"
     inkscape:current-layer="capa1"
     showgrid="true"
     inkscape:showpageshadow="false"
     inkscape:window-width="1280"
     inkscape:window-height="998"
     inkscape:window-x="0"
     inkscape:window-y="0"
     inkscape:window-maximized="1"
     inkscape:snap-bbox="true">
    <inkscape:grid
       type="xygrid"
       id="grid3327"
       empspacing="5"
       visible="true"
       enabled="true"
       snapvisiblegridlinesonly="true" />
  </sodipodi:namedview>
  <metadata
     id="metadata6667">
    <rdf:RDF>
      <cc:Work
         rdf:about="">
        <dc:format>image/svg+xml</dc:format>
        <dc:type
           rdf:resource="http://purl.org/dc/dcmitype/StillImage" />
        <dc:title />
      </cc:Work>
    </rdf:RDF>
  </metadata>
  <g
     inkscape:label="Capa 1"
     inkscape:groupmode="layer"
     id="capa1"
     transform="translate(0,-1028.3622)">
    <path
       id="path3038"
       d="m 5,1032.3622 -1,1 0,0.9688 1,1.0312 1,0 1,-1 0,-1 -1,-1 -1,0 z m 5,0 -1,1 0,0.9688 1,1.0312 9,0 1,-1 0,-1 -1,-1 -9,0 z m -5,5 -1,1 0,0.9688 1,1.0312 1,0 1,-1 0,-1 -1,-1 -1,0 z m 5,0 -1,1 0,0.9688 1,1.0312 9,0 1,-1 0,-1 -1,-1 -9,0 z m -5,5 -1,1 0,0.9688 1,1.0312 1,0 1,-1 0,-1 -1,-1 -1,0 z m 5,0 -1,1 0,0.9688 1,1.0312 9,0 1,-1 0,-1 -1,-1 -9,0 z m -5,5 -1,1 0,0.9688 1,1.0312 1,0 1,-1 0,-1 -1,-1 -1,0 z m 5,0 -1,1 0,0.9688 1,1.0312 9,0 1,-1 0,-1 -1,-1 -9,0 z"
       style="opacity:0.59999999999999998;color:black;fill:white;fill-opacity:1;fill-rule:nonzero;stroke:none;stroke-width:0.66666669000000001;marker:none;visibility:visible;display:inline;overflow:visible;enable-background:accumulate"
       inkscape:connector-curvature="0" />
    <path
       style="opacity:0.69999999999999996;color:black;fill:url(#linearGradient3035);fill-opacity:1;fill-rule:nonzero;stroke:none;stroke-width:1;marker:none;visibility:visible;display:inline;overflow:visible;enable-background:accumulate"
       d="M 5 3 L 4 4 L 4 4.96875 L 5 6 L 6 6 L 7 5 L 7 4 L 6 3 L 5 3 z M 10 3 L 9 4 L 9 4.96875 L 10 6 L 19 6 L 20 5 L 20 4 L 19 3 L 10 3 z M 5 8 L 4 9 L 4 9.96875 L 5 11 L 6 11 L 7 10 L 7 9 L 6 8 L 5 8 z M 10 8 L 9 9 L 9 9.96875 L 10 11 L 19 11 L 20 10 L 20 9 L 19 8 L 10 8 z M 5 13 L 4 14 L 4 14.96875 L 5 16 L 6 16 L 7 15 L 7 14 L 6 13 L 5 13 z M 10 13 L 9 14 L 9 14.96875 L 10 16 L 19 16 L 20 15 L 20 14 L 19 13 L 10 13 z M 5 18 L 4 19 L 4 19.96875 L 5 21 L 6 21 L 7 20 L 7 19 L 6 18 L 5 18 z M 10 18 L 9 19 L 9 19.96875 L 10 21 L 19 21 L 20 20 L 20 19 L 19 18 L 10 18 z "
       transform="translate(0,1028.3622)"
       id="path3015" />
  </g>
</svg>
