<?xml version="1.0" encoding="UTF-8" standalone="no"?>
<!-- Created with Inkscape (http://www.inkscape.org/) -->

<svg
   xmlns:dc="http://purl.org/dc/elements/1.1/"
   xmlns:cc="http://creativecommons.org/ns#"
   xmlns:rdf="http://www.w3.org/1999/02/22-rdf-syntax-ns#"
   xmlns:svg="http://www.w3.org/2000/svg"
   xmlns="http://www.w3.org/2000/svg"
   xmlns:xlink="http://www.w3.org/1999/xlink"
   xmlns:sodipodi="http://sodipodi.sourceforge.net/DTD/sodipodi-0.dtd"
   xmlns:inkscape="http://www.inkscape.org/namespaces/inkscape"
   width="24"
   height="24"
   id="svg3330"
   version="1.1"
   inkscape:version="0.48.4 r9939"
   sodipodi:docname="gtk-undelete.svg">
  <defs
     id="defs3332">
    <linearGradient
       y2="11.02436"
       y1="3.0069399"
       x2="0"
       id="linearGradient1022-8-8-3-0-2-12-9"
       gradientUnits="userSpaceOnUse">
      <stop
         id="stop3001-0-9-4-1-4-0"
         offset="0" />
      <stop
         id="stop3003-5-6-6-1-51-7"
         stop-color="#363636"
         offset="1" />
    </linearGradient>
    <linearGradient
       inkscape:collect="always"
       xlink:href="#linearGradient1022-8-8-3-0-2-12-9"
       id="linearGradient3032"
       gradientUnits="userSpaceOnUse"
       gradientTransform="matrix(1.6290822,0,0,1.476171,-340.24854,-12.0785)"
       x1="215.61131"
       y1="9.5371742"
       x2="215.61131"
       y2="24.440598" />
    <linearGradient
       y2="719.04999"
       x2="226.04663"
       y1="708.21112"
       x1="226.04663"
       gradientTransform="matrix(1.6290822,0,0,1.476171,-355.74854,-14.0785)"
       gradientUnits="userSpaceOnUse"
       id="linearGradient3265"
       xlink:href="#linearGradient1022-8-8-3-0-2-12-9-7"
       inkscape:collect="always" />
    <linearGradient
       gradientUnits="userSpaceOnUse"
       id="linearGradient1022-8-8-3-0-2-12-9-7"
       x2="0"
       y1="3.0069399"
       y2="11.02436">
      <stop
         offset="0"
         id="stop3001-0-9-4-1-4-0-25" />
      <stop
         offset="1"
         stop-color="#363636"
         id="stop3003-5-6-6-1-51-7-3" />
    </linearGradient>
    <linearGradient
       inkscape:collect="always"
       xlink:href="#linearGradient1022-8-8-3-0-2-12-9-7"
       id="linearGradient3008"
       gradientUnits="userSpaceOnUse"
       gradientTransform="matrix(1.6290822,0,0,1.476171,-355.74854,-14.0785)"
       x1="226.04663"
       y1="708.21112"
       x2="226.04663"
       y2="719.04999" />
    <linearGradient
       inkscape:collect="always"
       xlink:href="#linearGradient1022-8-8-3-0-2-12-9-7"
       id="linearGradient3011"
       gradientUnits="userSpaceOnUse"
       gradientTransform="matrix(1.6290822,0,0,1.476171,-355.74854,-13.0785)"
       x1="226.04663"
       y1="708.21112"
       x2="226.04663"
       y2="719.04999" />
    <linearGradient
       y2="2083.8179"
       x2="215.16487"
       y1="2068.9146"
       x1="215.16487"
       gradientTransform="matrix(1.119994,0,0,1.0064811,-233.97656,-1044.4612)"
       gradientUnits="userSpaceOnUse"
       id="linearGradient3053"
       xlink:href="#linearGradient1022-8-8-3-0-2-12-9-1"
       inkscape:collect="always" />
    <linearGradient
       y2="2083.8179"
       x2="215.16487"
       y1="2068.9146"
       x1="215.16487"
       gradientTransform="matrix(-1.119994,0,0,1.0064811,249.98337,-1045.9612)"
       gradientUnits="userSpaceOnUse"
       id="linearGradient3049"
       xlink:href="#linearGradient1022-8-8-3-0-2-12-9-1"
       inkscape:collect="always" />
    <linearGradient
       y2="1054.1293"
       x2="214.27202"
       y1="1039.2258"
       x1="214.27202"
       gradientTransform="matrix(1.119994,0,0,1.0064811,-233.98337,-2082.3234)"
       gradientUnits="userSpaceOnUse"
       id="linearGradient3046"
       xlink:href="#linearGradient1022-8-8-3-0-2-12-9-1"
       inkscape:collect="always" />
    <linearGradient
       y2="698.14886"
       x2="201.62314"
       y1="684.90143"
       x1="201.62314"
       gradientTransform="matrix(1.3439926,0,0,1.2077771,-261.98001,209.15397)"
       gradientUnits="userSpaceOnUse"
       id="linearGradient3044"
       xlink:href="#linearGradient1022-8-8-3-0-06-59-6-4"
       inkscape:collect="always" />
    <linearGradient
       y2="1054.1293"
       x2="214.27202"
       y1="1039.2258"
       x1="214.27202"
       gradientTransform="matrix(1.119994,0,0,1.0064811,-247.98337,-1045.9612)"
       gradientUnits="userSpaceOnUse"
       id="linearGradient3041"
       xlink:href="#linearGradient1022-8-8-3-0-2-12-9-1"
       inkscape:collect="always" />
    <linearGradient
       y2="1054.1293"
       x2="214.27202"
       y1="1039.2258"
       x1="214.27202"
       gradientTransform="matrix(1.119994,0,0,1.0064811,-248.48337,-1045.9612)"
       gradientUnits="userSpaceOnUse"
       id="linearGradient3039"
       xlink:href="#linearGradient1022-8-8-3-0-2-12-9-1"
       inkscape:collect="always" />
    <linearGradient
       y2="1054.1293"
       x2="214.27202"
       y1="1039.2258"
       x1="214.27202"
       gradientTransform="matrix(1.119994,0,0,1.0064811,-248.48337,-1045.9612)"
       gradientUnits="userSpaceOnUse"
       id="linearGradient3037"
       xlink:href="#linearGradient1022-8-8-3-0-2-12-9-1"
       inkscape:collect="always" />
    <linearGradient
       y2="1054.1293"
       x2="214.27202"
       y1="1039.2258"
       x1="214.27202"
       gradientTransform="matrix(1.119994,0,0,1.0064811,-248.48337,-1045.9612)"
       gradientUnits="userSpaceOnUse"
       id="linearGradient3035"
       xlink:href="#linearGradient1022-8-8-3-0-2-12-9-1"
       inkscape:collect="always" />
    <linearGradient
       y2="698.14886"
       x2="201.62314"
       y1="684.90143"
       x1="201.62314"
       gradientTransform="matrix(1.3439926,0,0,1.2077771,-261.98001,209.15397)"
       gradientUnits="userSpaceOnUse"
       id="linearGradient3931"
       xlink:href="#linearGradient1022-8-8-3-0-06-59-6-4"
       inkscape:collect="always" />
    <linearGradient
       y2="11.02436"
       y1="3.0069399"
       x2="0"
       id="linearGradient1022-8-8-3-0-06-59-6-4"
       gradientUnits="userSpaceOnUse">
      <stop
         id="stop3001-0-9-4-9-02-1-5"
         offset="0" />
      <stop
         id="stop3003-5-6-6-5-70-43-3"
         stop-color="#363636"
         offset="1" />
    </linearGradient>
    <linearGradient
       y2="1054.1293"
       x2="214.27202"
       y1="1039.2258"
       x1="214.27202"
       gradientTransform="matrix(1.119994,0,0,1.0064811,-233.98337,-1045.9612)"
       gradientUnits="userSpaceOnUse"
       id="linearGradient3138"
       xlink:href="#linearGradient1022-8-8-3-0-2-12-9-1"
       inkscape:collect="always" />
    <linearGradient
       gradientUnits="userSpaceOnUse"
       id="linearGradient1022-8-8-3-0-2-12-9-1"
       x2="0"
       y1="3.0069399"
       y2="11.02436">
      <stop
         offset="0"
         id="stop3001-0-9-4-1-4-0-8" />
      <stop
         offset="1"
         stop-color="#363636"
         id="stop3003-5-6-6-1-51-7-5" />
    </linearGradient>
    <linearGradient
       inkscape:collect="always"
       xlink:href="#linearGradient1022-8-8-3-0-2-12-9"
       id="linearGradient3058"
       gradientUnits="userSpaceOnUse"
       gradientTransform="matrix(-1.6290822,0,0,1.476171,364.24854,1016.2837)"
       x1="214.99747"
       y1="9.5371742"
       x2="214.99747"
       y2="22.408312" />
  </defs>
  <sodipodi:namedview
     id="base"
     pagecolor="#ffffff"
     bordercolor="#666666"
     borderopacity="1.0"
     inkscape:pageopacity="0.0"
     inkscape:pageshadow="2"
     inkscape:zoom="22.627417"
     inkscape:cx="16.940172"
     inkscape:cy="10.725029"
     inkscape:document-units="px"
     inkscape:current-layer="capa1"
     showgrid="true"
     inkscape:showpageshadow="false"
     inkscape:window-width="1280"
     inkscape:window-height="975"
     inkscape:window-x="0"
     inkscape:window-y="24"
     inkscape:window-maximized="1"
     inkscape:snap-page="false"
     inkscape:snap-center="false"
     inkscape:snap-object-midpoints="false"
     inkscape:snap-to-guides="false"
     inkscape:snap-midpoints="false"
     inkscape:snap-bbox="true">
    <inkscape:grid
       type="xygrid"
       id="grid2990"
       empspacing="5"
       visible="true"
       enabled="true"
       snapvisiblegridlinesonly="true" />
  </sodipodi:namedview>
  <metadata
     id="metadata3335">
    <rdf:RDF>
      <cc:Work
         rdf:about="">
        <dc:format>image/svg+xml</dc:format>
        <dc:type
           rdf:resource="http://purl.org/dc/dcmitype/StillImage" />
        <dc:title></dc:title>
      </cc:Work>
    </rdf:RDF>
  </metadata>
  <g
     inkscape:label="Capa 1"
     inkscape:groupmode="layer"
     id="capa1"
     transform="translate(0,-1028.3622)">
    <path
       id="path3060"
       d="m 15,1031.3622 3,3 -3,3 -2,0 2,-2 -5,0 -2,2 0,-2 2,-2 5,0 -2,-2 2,0 z m 5,4 0,13 -2,2 -12,0 -2,-2 0,-13 2,2 0,3 12,0 0,-3 2,-2 z m -3,7 -1,0 0,1 1,0 0,-1 z m -3,0 -1,0 0,1 1,0 0,-1 z m -3,0 -1,0 0,1 1,0 0,-1 z m -3,0 -1,0 0,1 1,0 0,-1 z m 9,2 -1,0 0,1 1,0 0,-1 z m -3,0 -1,0 0,1 1,0 0,-1 z m -3,0 -1,0 0,1 1,0 0,-1 z m -3,0 -1,0 0,1 1,0 0,-1 z m 9,2 -1,0 0,1 1,0 0,-1 z m -3,0 -1,0 0,1 1,0 0,-1 z m -3,0 -1,0 0,1 1,0 0,-1 z m -3,0 -1,0 0,1 1,0 0,-1 z"
       style="opacity:0.6;color:#000000;fill:#ffffff;fill-opacity:1;fill-rule:nonzero;stroke:none;stroke-width:1;marker:none;visibility:visible;display:inline;overflow:visible;enable-background:accumulate"
       inkscape:connector-curvature="0" />
    <path
       style="opacity:0.7;color:#000000;fill:url(#linearGradient3058);fill-opacity:1;fill-rule:nonzero;stroke:none;stroke-width:1;marker:none;visibility:visible;display:inline;overflow:visible;enable-background:accumulate"
       d="m 15,1030.3622 3,3 -3,3 -2,0 2,-2 -5,0 -2,2 0,-2 2,-2 5,0 -2,-2 z m 5,5 0,12 -2,2 -12,0 -2,-2 0,-12 2,2 0,2 12,0 0,-2 z m -3,6 -1,0 0,1 1,0 z m -3,0 -1,0 0,1 1,0 z m -3,0 -1,0 0,1 1,0 z m -3,0 -1,0 0,1 1,0 z m 9,2 -1,0 0,1 1,0 z m -3,0 -1,0 0,1 1,0 z m -3,0 -1,0 0,1 1,0 z m -3,0 -1,0 0,1 1,0 z m 9,2 -1,0 0,1 1,0 z m -3,0 -1,0 0,1 1,0 z m -3,0 -1,0 0,1 1,0 z m -3,0 -1,0 0,1 1,0 z"
       id="path2998"
       inkscape:connector-curvature="0"
       sodipodi:nodetypes="ccccccccccccccccccccccccccccccccccccccccccccccccccccccccccccccccccccccccccccccccccc" />
  </g>
</svg>
