<?xml version="1.0" encoding="UTF-8" standalone="no"?>
<!-- Created with Inkscape (http://www.inkscape.org/) -->

<svg
   xmlns:dc="http://purl.org/dc/elements/1.1/"
   xmlns:cc="http://creativecommons.org/ns#"
   xmlns:rdf="http://www.w3.org/1999/02/22-rdf-syntax-ns#"
   xmlns:svg="http://www.w3.org/2000/svg"
   xmlns="http://www.w3.org/2000/svg"
   xmlns:xlink="http://www.w3.org/1999/xlink"
   xmlns:sodipodi="http://sodipodi.sourceforge.net/DTD/sodipodi-0.dtd"
   xmlns:inkscape="http://www.inkscape.org/namespaces/inkscape"
   width="24"
   height="24"
   id="svg6662"
   version="1.1"
   inkscape:version="0.48.4 r9939"
   sodipodi:docname="printer-error.svg">
  <defs
     id="defs6664">
    <linearGradient
       y2="11.02436"
       y1="3.0069399"
       x2="0"
       id="linearGradient1022-8-8-3-0-27-9-5"
       gradientUnits="userSpaceOnUse">
      <stop
         id="stop3001-0-9-4-6-9-2"
         offset="0" />
      <stop
         id="stop3003-5-6-6-01-7-3"
         stop-color="#363636"
         offset="1" />
    </linearGradient>
    <linearGradient
       inkscape:collect="always"
       xlink:href="#linearGradient1022-8-8-3-0-27-9-5"
       id="linearGradient3040"
       gradientUnits="userSpaceOnUse"
       gradientTransform="matrix(-1.679991,0,0,1.5097216,164.47504,704.7722)"
       x1="90.1642"
       y1="-465.49786"
       x2="90.1642"
       y2="-452.91278" />
  </defs>
  <sodipodi:namedview
     id="base"
     pagecolor="#ffffff"
     bordercolor="#666666"
     borderopacity="1.0"
     inkscape:pageopacity="0.0"
     inkscape:pageshadow="2"
     inkscape:zoom="22.4"
     inkscape:cx="14.908632"
     inkscape:cy="10.013181"
     inkscape:document-units="px"
     inkscape:current-layer="capa1"
     showgrid="true"
     inkscape:showpageshadow="false"
     inkscape:window-width="1121"
     inkscape:window-height="987"
     inkscape:window-x="48"
     inkscape:window-y="0"
     inkscape:window-maximized="0"
     inkscape:snap-bbox="true">
    <inkscape:grid
       type="xygrid"
       id="grid2990" />
  </sodipodi:namedview>
  <metadata
     id="metadata6667">
    <rdf:RDF>
      <cc:Work
         rdf:about="">
        <dc:format>image/svg+xml</dc:format>
        <dc:type
           rdf:resource="http://purl.org/dc/dcmitype/StillImage" />
        <dc:title />
      </cc:Work>
    </rdf:RDF>
  </metadata>
  <g
     inkscape:label="Capa 1"
     inkscape:groupmode="layer"
     id="capa1"
     transform="translate(0,-1028.3622)">
    <path
       id="path3042"
       d="m 8,1031.3622 0,10 -2,0 0,2 2,0 8,0 2,0 0,-2 -2,0 0,-10 -8,0 z m 3,2 2,0 0,5 -2,0 0,-5 z m -7,4 -2,2 0,9 2,2 16,0 2,-2 0,-9 -2,-2 -3,0 0,2 2,0 1,0 0,8 -1,1 -14,0 -1,-1 0,-7 1,-1 2,0 0,-2 -3,0 z m 7,2 2,0 0,2 -2,0 0,-2 z"
       style="opacity:0.59999999999999998;color:black;fill:white;fill-opacity:1;fill-rule:nonzero;stroke:none;stroke-width:1;marker:none;visibility:visible;display:inline;overflow:visible;enable-background:accumulate"
       inkscape:connector-curvature="0" />
    <path
       style="opacity:0.69999999999999996;color:black;fill:url(#linearGradient3040);fill-opacity:1;fill-rule:evenodd;stroke:none;stroke-width:1;marker:none;visibility:visible;display:inline;overflow:visible;enable-background:accumulate"
       d="M 8 2 L 8 12 L 6 12 L 6 14 L 8 14 L 16 14 L 18 14 L 18 12 L 16 12 L 16 2 L 8 2 z M 11 4 L 13 4 L 13 9 L 11 9 L 11 4 z M 4 8 L 2 10 L 2 19 L 4 21 L 20 21 L 22 19 L 22 10 L 20 8 L 17 8 L 17 10 L 19 10 L 20 10 L 20 18 L 19 19 L 5 19 L 4 18 L 4 11 L 5 10 L 7 10 L 7 8 L 4 8 z M 11 10 L 13 10 L 13 12 L 11 12 L 11 10 z "
       transform="translate(0,1028.3622)"
       id="path3005" />
  </g>
</svg>
