<?xml version="1.0" encoding="UTF-8" standalone="no"?>
<!-- Created with Inkscape (http://www.inkscape.org/) -->

<svg
   xmlns:dc="http://purl.org/dc/elements/1.1/"
   xmlns:cc="http://creativecommons.org/ns#"
   xmlns:rdf="http://www.w3.org/1999/02/22-rdf-syntax-ns#"
   xmlns:svg="http://www.w3.org/2000/svg"
   xmlns="http://www.w3.org/2000/svg"
   xmlns:xlink="http://www.w3.org/1999/xlink"
   xmlns:sodipodi="http://sodipodi.sourceforge.net/DTD/sodipodi-0.dtd"
   xmlns:inkscape="http://www.inkscape.org/namespaces/inkscape"
   width="24"
   height="24"
   id="svg6662"
   version="1.1"
   inkscape:version="0.48.4 r9939"
   sodipodi:docname="gtk-discard.svg">
  <defs
     id="defs6664">
    <linearGradient
       gradientUnits="userSpaceOnUse"
       id="linearGradient1022-8-8-3-0-27-9-6-3"
       x2="0"
       y1="3.0069399"
       y2="11.02436">
      <stop
         offset="0"
         id="stop3001-0-9-4-6-9-1-5" />
      <stop
         offset="1"
         stop-color="#363636"
         id="stop3003-5-6-6-01-7-5-2" />
    </linearGradient>
    <linearGradient
       inkscape:collect="always"
       xlink:href="#linearGradient1022-8-8-3-0-27-9-6-3"
       id="linearGradient3074"
       gradientUnits="userSpaceOnUse"
       gradientTransform="matrix(2.0999888,0,0,2.2645372,-103.5938,1131.1358)"
       x1="55.997345"
       y1="-498.61658"
       x2="55.997345"
       y2="-491.99271" />
  </defs>
  <sodipodi:namedview
     id="base"
     pagecolor="#ffffff"
     bordercolor="#666666"
     borderopacity="1.0"
     inkscape:pageopacity="0.0"
     inkscape:pageshadow="2"
     inkscape:zoom="15.839192"
     inkscape:cx="29.098915"
     inkscape:cy="12.870323"
     inkscape:document-units="px"
     inkscape:current-layer="capa1"
     showgrid="true"
     inkscape:showpageshadow="false"
     inkscape:window-width="1280"
     inkscape:window-height="974"
     inkscape:window-x="0"
     inkscape:window-y="24"
     inkscape:window-maximized="1"
     inkscape:snap-page="true"
     inkscape:snap-center="false"
     inkscape:snap-object-midpoints="false"
     inkscape:snap-bbox="true">
    <inkscape:grid
       type="xygrid"
       id="grid2990" />
  </sodipodi:namedview>
  <metadata
     id="metadata6667">
    <rdf:RDF>
      <cc:Work
         rdf:about="">
        <dc:format>image/svg+xml</dc:format>
        <dc:type
           rdf:resource="http://purl.org/dc/dcmitype/StillImage" />
        <dc:title />
      </cc:Work>
    </rdf:RDF>
  </metadata>
  <g
     inkscape:label="Capa 1"
     inkscape:groupmode="layer"
     id="capa1"
     transform="translate(0,-1028.3622)">
    <path
       id="path3076"
       d="m 5,1031.3622 -2,2 0,11 2,0 0,-10 1,-1 12,0 1,1 0,10 2,0 0,-11 -2,-2 -14,0 z m 14,13 -2,0 0,2 1.8125,0 0.1875,0 0,-2 z m -2,0 0,-2 -2,0 0,2 1.8125,0 0.1875,0 z m -2,0 -2,0 0,2 1.8125,0 0.1875,0 0,-2 z m -2,0 0,-2 -2,0 0,2 1.8125,0 0.1875,0 z m -2,0 -2,0 0,2 1.8125,0 0.1875,0 0,-2 z m -2,0 0,-2 -2,0 0,2 1.8125,0 0.1875,0 z m -2,0 -2,0 0,2 1.8125,0 0.1875,0 0,-2 z"
       style="opacity:0.59999999999999998;color:black;fill:white;fill-opacity:1;fill-rule:nonzero;stroke:none;stroke-width:1;marker:none;visibility:visible;display:inline;overflow:visible;enable-background:accumulate"
       inkscape:connector-curvature="0" />
    <path
       style="opacity:0.69999999999999996;color:black;fill:url(#linearGradient3074);fill-opacity:1;fill-rule:evenodd;stroke:none;stroke-width:1;marker:none;visibility:visible;display:inline;overflow:visible;enable-background:accumulate"
       d="M 5 2 L 3 4 L 3 15 L 5 15 L 5 5 L 6 4 L 18 4 L 19 5 L 19 15 L 21 15 L 21 4 L 19 2 L 5 2 z M 19 15 L 17 15 L 17 17 L 18.8125 17 L 19 17 L 19 15 z M 17 15 L 17 13 L 15 13 L 15 15 L 16.8125 15 L 17 15 z M 15 15 L 13 15 L 13 17 L 14.8125 17 L 15 17 L 15 15 z M 13 15 L 13 13 L 11 13 L 11 15 L 12.8125 15 L 13 15 z M 11 15 L 9 15 L 9 17 L 10.8125 17 L 11 17 L 11 15 z M 9 15 L 9 13 L 7 13 L 7 15 L 8.8125 15 L 9 15 z M 7 15 L 5 15 L 5 17 L 6.8125 17 L 7 17 L 7 15 z "
       transform="translate(0,1028.3622)"
       id="path3036" />
  </g>
</svg>
