<?xml version="1.0" encoding="UTF-8" standalone="no"?>
<!-- Created with Inkscape (http://www.inkscape.org/) -->

<svg
   xmlns:dc="http://purl.org/dc/elements/1.1/"
   xmlns:cc="http://creativecommons.org/ns#"
   xmlns:rdf="http://www.w3.org/1999/02/22-rdf-syntax-ns#"
   xmlns:svg="http://www.w3.org/2000/svg"
   xmlns="http://www.w3.org/2000/svg"
   xmlns:xlink="http://www.w3.org/1999/xlink"
   xmlns:sodipodi="http://sodipodi.sourceforge.net/DTD/sodipodi-0.dtd"
   xmlns:inkscape="http://www.inkscape.org/namespaces/inkscape"
   width="24"
   height="24"
   id="svg6662"
   version="1.1"
   inkscape:version="0.48.4 r9939"
   sodipodi:docname="gtk-sort-descending.svg">
  <defs
     id="defs6664">
    <linearGradient
       y2="11.02436"
       y1="3.0069399"
       x2="0"
       id="linearGradient1022-8-8-3-0-2-5-0"
       gradientUnits="userSpaceOnUse">
      <stop
         id="stop3001-0-9-4-1-6-9"
         offset="0" />
      <stop
         id="stop3003-5-6-6-1-6-7"
         stop-color="#363636"
         offset="1" />
    </linearGradient>
    <linearGradient
       inkscape:collect="always"
       xlink:href="#linearGradient1022-8-8-3-0-2-5-0"
       id="linearGradient3018"
       gradientUnits="userSpaceOnUse"
       gradientTransform="matrix(3.1979049,0,0,0.2101444,-254.32698,-926.30615)"
       x1="82.976051"
       y1="4417.4678"
       x2="82.976051"
       y2="4507.8818" />
  </defs>
  <sodipodi:namedview
     id="base"
     pagecolor="#ffffff"
     bordercolor="#666666"
     borderopacity="1.0"
     inkscape:pageopacity="0.0"
     inkscape:pageshadow="2"
     inkscape:zoom="21.868421"
     inkscape:cx="18.270758"
     inkscape:cy="9.8140794"
     inkscape:document-units="px"
     inkscape:current-layer="capa1"
     showgrid="true"
     inkscape:showpageshadow="false"
     inkscape:window-width="1280"
     inkscape:window-height="974"
     inkscape:window-x="0"
     inkscape:window-y="24"
     inkscape:window-maximized="1"
     inkscape:snap-bbox="true">
    <inkscape:grid
       type="xygrid"
       id="grid3327"
       empspacing="5"
       visible="true"
       enabled="true"
       snapvisiblegridlinesonly="true" />
  </sodipodi:namedview>
  <metadata
     id="metadata6667">
    <rdf:RDF>
      <cc:Work
         rdf:about="">
        <dc:format>image/svg+xml</dc:format>
        <dc:type
           rdf:resource="http://purl.org/dc/dcmitype/StillImage" />
        <dc:title />
      </cc:Work>
    </rdf:RDF>
  </metadata>
  <g
     inkscape:label="Capa 1"
     inkscape:groupmode="layer"
     id="capa1"
     transform="translate(0,-1028.3622)">
    <path
       id="path3021"
       d="m 6,1031.3622 c -1.9101596,0 -4,2.0898 -4,4 l 0,11 c 0,1.9102 2.08984,4 4,4 l 11,0 c 1.910155,0 4,-2.0898 4,-4 l -2,0 c 0,0.939 -1.061016,2 -2,2 l -11,0 c -0.9389763,0 -2,-1.061 -2,-2 l 0,-11 c 0,-0.939 0.988967,-2 2,-2 l 11,0 c 1.945001,0 2,2.067 2,2 l 2,2 0,-2 c 0,-2.0009 -2.08984,-4 -4,-4 l -11,0 z m 1,3 -1,1 0,1 1,1 6,0 1,-1 0,-1 -1,-1 -6,0 z m 10.46875,1 c -0.720214,0 -1.35393,0.6507 -1.34375,1.375 l 0,4.375 -0.875,-0.875 c -0.505551,-0.5085 -1.4007,-0.5085 -1.90625,0 -0.505549,0.5083 -0.505584,1.4603 0,1.9688 l 3.15625,3.1875 0.96875,0.9687 0.96875,-0.9687 3.1875,-3.1875 c 0.43297,-0.5716 0.50555,-1.4605 0,-1.9688 -0.50555,-0.5085 -1.431948,-0.5085 -1.9375,0 l -0.84375,0.875 0,-4.375 c 0.01018,-0.7243 -0.654786,-1.375 -1.375,-1.375 z m -10.46875,4 -1,1 0,1 1,1 4,0 1,-1 0,-1 -1,-1 -4,0 z m 0,5 -1,1 0,1 1,1 6,0 1,-1 0,-1 -1,-1 -6,0 z"
       style="opacity:0.59999999999999998;color:black;fill:white;fill-opacity:1;fill-rule:nonzero;stroke:none;stroke-width:0.66666669000000001;marker:none;visibility:visible;display:inline;overflow:visible;enable-background:accumulate"
       inkscape:connector-curvature="0" />
    <path
       style="opacity:0.69999999999999996;color:black;fill:url(#linearGradient3018);fill-opacity:1;fill-rule:nonzero;stroke:none;stroke-width:1;marker:none;visibility:visible;display:inline;overflow:visible;enable-background:accumulate"
       d="M 6.03125 2 C 4.1210904 2 2.03125 4.0898 2.03125 6 L 2.03125 17 C 2.03125 18.9102 4.12109 21 6.03125 21 L 17.03125 21 C 18.941405 21 21.03125 18.9102 21.03125 17 L 19.03125 17 C 19.03125 17.939 17.970234 19 17.03125 19 L 6.03125 19 C 5.0922737 19 4.03125 17.939 4.03125 17 L 4.03125 6 C 4.03125 5.061 5.020217 4 6.03125 4 L 17.03125 4 C 18.976251 4 19.03125 6.067 19.03125 6 L 21.03125 8 L 21.03125 6 C 21.03125 3.9991 18.94141 2 17.03125 2 L 6.03125 2 z M 7.03125 5 L 6.03125 6 L 6.03125 7 L 7.03125 8 L 13.03125 8 L 14.03125 7 L 14.03125 6 L 13.03125 5 L 7.03125 5 z M 17.5 6 C 16.779786 6 16.14607 6.6507 16.15625 7.375 L 16.15625 11.75 L 15.28125 10.875 C 14.775699 10.3665 13.88055 10.3665 13.375 10.875 C 12.869451 11.3833 12.869416 12.33525 13.375 12.84375 L 16.53125 16.03125 L 17.5 17 L 18.46875 16.03125 L 21.65625 12.84375 C 22.08922 12.27215 22.1618 11.3833 21.65625 10.875 C 21.1507 10.3665 20.224302 10.3665 19.71875 10.875 L 18.875 11.75 L 18.875 7.375 C 18.885183 6.6507 18.220214 6 17.5 6 z M 7.03125 10 L 6.03125 11 L 6.03125 12 L 7.03125 13 L 11.03125 13 L 12.03125 12 L 12.03125 11 L 11.03125 10 L 7.03125 10 z M 7.03125 15 L 6.03125 16 L 6.03125 17 L 7.03125 18 L 13.03125 18 L 14.03125 17 L 14.03125 16 L 13.03125 15 L 7.03125 15 z "
       transform="translate(0,1028.3622)"
       id="path3003" />
  </g>
</svg>
