<?xml version="1.0" encoding="UTF-8" standalone="no"?>
<!-- Created with Inkscape (http://www.inkscape.org/) -->

<svg xmlns:dc="http://purl.org/dc/elements/1.1/" xmlns:cc="http://creativecommons.org/ns#" xmlns:rdf="http://www.w3.org/1999/02/22-rdf-syntax-ns#" xmlns:svg="http://www.w3.org/2000/svg" xmlns="http://www.w3.org/2000/svg" xmlns:xlink="http://www.w3.org/1999/xlink" xmlns:sodipodi="http://sodipodi.sourceforge.net/DTD/sodipodi-0.dtd" xmlns:inkscape="http://www.inkscape.org/namespaces/inkscape" width="24" height="24" id="svg3330" version="1.1" inkscape:version="0.48.4 r9939" sodipodi:docname="gtk-undelete.svg">
    <defs id="defs3332">
        <linearGradient y2="11.02436" y1="3.0069399" x2="0" id="linearGradient1022-8-8-3-0-2-12-9" gradientUnits="userSpaceOnUse">
            <stop id="stop3001-0-9-4-1-4-0" offset="0" />
            <stop id="stop3003-5-6-6-1-51-7" stop-color="#363636" offset="1" />
        </linearGradient>
        <linearGradient inkscape:collect="always" xlink:href="#linearGradient1022-8-8-3-0-2-12-9" id="linearGradient3032" gradientUnits="userSpaceOnUse" gradientTransform="matrix(1.6290822,0,0,1.476171,-339.24854,-14.0785)" x1="215.61131" y1="9.5371742" x2="215.61131" y2="24.440598" />
    </defs>
    <sodipodi:namedview id="base" pagecolor="#ffffff" bordercolor="#666666" borderopacity="1.0" inkscape:pageopacity="0.0" inkscape:pageshadow="2" inkscape:zoom="22.627417" inkscape:cx="16.940172" inkscape:cy="10.725029" inkscape:document-units="px" inkscape:current-layer="capa1" showgrid="true" inkscape:showpageshadow="false" inkscape:window-width="1280" inkscape:window-height="976" inkscape:window-x="0" inkscape:window-y="24" inkscape:window-maximized="1" inkscape:snap-page="false" inkscape:snap-center="true" inkscape:snap-object-midpoints="false" inkscape:snap-to-guides="false" inkscape:snap-midpoints="true">
        <inkscape:grid type="xygrid" id="grid2990" empspacing="5" visible="true" enabled="true" snapvisiblegridlinesonly="true" />
    </sodipodi:namedview>
    <metadata id="metadata3335">
        <rdf:RDF>
            <cc:Work rdf:about="">
                <dc:format>image/svg+xml</dc:format>
                <dc:type rdf:resource="http://purl.org/dc/dcmitype/StillImage" />
                <dc:title />
            </cc:Work>
        </rdf:RDF>
    </metadata>
    <g inkscape:label="Capa 1" inkscape:groupmode="layer" id="capa1" transform="translate(0,-1028.3622)">
        <path id="path3034" d="m 10,1029.3622 -3,3 3,3 2,0 -2,-2 4,0 2,2 0,-2 -2,-2 -4,0 2,-2 -2,0 z m -5,5 0,15 2,2 10,0 2,-2 0,-15 -2,2 -10,0 -2,-2 z m 2,3 1,0 0,11 -1,-1 0,-10 z m 3,0 1,0 0,11 -1,0 0,-11 z m 3,0 1,0 0,11 -1,0 0,-11 z m 3,0 1,0 0,10 -1,1 0,-11 z" style="opacity:0.59999999999999998;color:black;fill:white;fill-opacity:1;fill-rule:nonzero;stroke:none;stroke-width:1;marker:none;visibility:visible;display:inline;overflow:visible;enable-background:accumulate" inkscape:connector-curvature="0" />
        <path style="opacity:0.69999999999999996;color:black;fill:url(#linearGradient3032);fill-opacity:1;fill-rule:nonzero;stroke:none;stroke-width:1;marker:none;visibility:visible;display:inline;overflow:visible;enable-background:accumulate" d="M 10 0 L 7 3 L 10 6 L 12 6 L 10 4 L 14 4 L 16 6 L 16 4 L 14 2 L 10 2 L 12 0 L 10 0 z M 5 5 L 5 20 L 7 22 L 17 22 L 19 20 L 19 5 L 17 7 L 7 7 L 5 5 z M 7 8 L 8 8 L 8 19 L 7 18 L 7 8 z M 10 8 L 11 8 L 11 19 L 10 19 L 10 8 z M 13 8 L 14 8 L 14 19 L 13 19 L 13 8 z M 16 8 L 17 8 L 17 18 L 16 19 L 16 8 z " id="path2998" transform="translate(0,1028.3622)" />
    </g>
</svg>
