<?xml version="1.0" encoding="UTF-8" standalone="no"?>
<!-- Created with Inkscape (http://www.inkscape.org/) -->

<svg
   xmlns:dc="http://purl.org/dc/elements/1.1/"
   xmlns:cc="http://creativecommons.org/ns#"
   xmlns:rdf="http://www.w3.org/1999/02/22-rdf-syntax-ns#"
   xmlns:svg="http://www.w3.org/2000/svg"
   xmlns="http://www.w3.org/2000/svg"
   xmlns:xlink="http://www.w3.org/1999/xlink"
   xmlns:sodipodi="http://sodipodi.sourceforge.net/DTD/sodipodi-0.dtd"
   xmlns:inkscape="http://www.inkscape.org/namespaces/inkscape"
   width="24"
   height="24"
   id="svg3330"
   version="1.1"
   inkscape:version="0.48.4 r9939"
   sodipodi:docname="gtk-dnd-multiple.svg">
  <defs
     id="defs3332">
    <linearGradient
       gradientUnits="userSpaceOnUse"
       id="linearGradient1022-8-8-3-0-06-59"
       x2="0"
       y1="3.0069399"
       y2="11.02436">
      <stop
         offset="0"
         id="stop3001-0-9-4-9-02" />
      <stop
         offset="1"
         stop-color="#363636"
         id="stop3003-5-6-6-5-70" />
    </linearGradient>
    <linearGradient
       inkscape:collect="always"
       xlink:href="#linearGradient1022-8-8-3-0-06-59"
       id="linearGradient3086"
       gradientUnits="userSpaceOnUse"
       gradientTransform="matrix(1.6799908,0,0,1.5097214,-341.97499,-10.8992)"
       x1="213.08154"
       y1="7.8817191"
       x2="213.08154"
       y2="21.791571" />
  </defs>
  <sodipodi:namedview
     id="base"
     pagecolor="#ffffff"
     bordercolor="#666666"
     borderopacity="1.0"
     inkscape:pageopacity="0.0"
     inkscape:pageshadow="2"
     inkscape:zoom="15.839192"
     inkscape:cx="14.497766"
     inkscape:cy="12.290977"
     inkscape:document-units="px"
     inkscape:current-layer="capa1"
     showgrid="true"
     inkscape:showpageshadow="false"
     inkscape:window-width="1280"
     inkscape:window-height="974"
     inkscape:window-x="0"
     inkscape:window-y="24"
     inkscape:window-maximized="1"
     inkscape:snap-bbox="true">
    <inkscape:grid
       type="xygrid"
       id="grid2990"
       empspacing="5"
       visible="true"
       enabled="true"
       snapvisiblegridlinesonly="true" />
  </sodipodi:namedview>
  <metadata
     id="metadata3335">
    <rdf:RDF>
      <cc:Work
         rdf:about="">
        <dc:format>image/svg+xml</dc:format>
        <dc:type
           rdf:resource="http://purl.org/dc/dcmitype/StillImage" />
        <dc:title />
      </cc:Work>
    </rdf:RDF>
  </metadata>
  <g
     inkscape:label="Capa 1"
     inkscape:groupmode="layer"
     id="capa1"
     transform="translate(0,-1028.3622)">
    <path
       id="path3088"
       d="m 10,1030.3622 -2,2 0,11 2,2 10,0 2,-2 0,-11 -2,-2 -10,0 z m 1,2 8,0 1,1 0,9 -1,1 -8,0 -1,-1 0,-9 1,-1 z m -4,1 -2,2 0,11 2,2 10,0 2,-2 -3,0 -8,0 -1,-1 0,-9 0,-3 z m 4,0 0,2 8,0 0,-2 -8,0 z m -7,3 -2,2 0,11 2,2 10,0 2,-2 -3,0 -8,0 -1,-1 0,-9 0,-3 z m 7,0 0,2 8,0 0,-2 -8,0 z m 0,3 0,2 5,0 0,-2 -5,0 z"
       style="opacity:0.59999999999999998;color:black;fill:white;fill-opacity:1;fill-rule:nonzero;stroke:none;stroke-width:1;marker:none;visibility:visible;display:inline;overflow:visible;enable-background:accumulate"
       inkscape:connector-curvature="0" />
    <path
       style="opacity:0.69999999999999996;color:black;fill:url(#linearGradient3086);fill-opacity:1;fill-rule:nonzero;stroke:none;stroke-width:1;marker:none;visibility:visible;display:inline;overflow:visible;enable-background:accumulate"
       d="M 10 1 L 8 3 L 8 14 L 10 16 L 20 16 L 22 14 L 22 3 L 20 1 L 10 1 z M 11 3 L 19 3 L 20 4 L 20 13 L 19 14 L 11 14 L 10 13 L 10 4 L 11 3 z M 7 4 L 5 6 L 5 17 L 7 19 L 17 19 L 19 17 L 16 17 L 8 17 L 7 16 L 7 7 L 7 4 z M 11 4 L 11 6 L 19 6 L 19 4 L 11 4 z M 4 7 L 2 9 L 2 20 L 4 22 L 14 22 L 16 20 L 13 20 L 5 20 L 4 19 L 4 10 L 4 7 z M 11 7 L 11 9 L 19 9 L 19 7 L 11 7 z M 11 10 L 11 12 L 16 12 L 16 10 L 11 10 z "
       transform="translate(0,1028.3622)"
       id="path3048" />
  </g>
</svg>
