<?xml version="1.0" encoding="UTF-8" standalone="no"?>
<!-- Created with Inkscape (http://www.inkscape.org/) -->

<svg
   xmlns:dc="http://purl.org/dc/elements/1.1/"
   xmlns:cc="http://creativecommons.org/ns#"
   xmlns:rdf="http://www.w3.org/1999/02/22-rdf-syntax-ns#"
   xmlns:svg="http://www.w3.org/2000/svg"
   xmlns="http://www.w3.org/2000/svg"
   xmlns:xlink="http://www.w3.org/1999/xlink"
   xmlns:sodipodi="http://sodipodi.sourceforge.net/DTD/sodipodi-0.dtd"
   xmlns:inkscape="http://www.inkscape.org/namespaces/inkscape"
   width="24"
   height="24"
   id="svg6662"
   version="1.1"
   inkscape:version="0.48.4 r9939"
   sodipodi:docname="system-run.svg">
  <defs
     id="defs6664">
    <linearGradient
       y2="11.02436"
       y1="3.0069399"
       x2="0"
       id="linearGradient1022-8-8-3-0-05-34"
       gradientUnits="userSpaceOnUse">
      <stop
         id="stop3001-0-9-4-49-1"
         offset="0" />
      <stop
         id="stop3003-5-6-6-8-9"
         stop-color="#363636"
         offset="1" />
    </linearGradient>
    <linearGradient
       y2="22.18264"
       x2="227.11636"
       y1="10.212164"
       x1="227.11636"
       gradientTransform="matrix(1.8592111,0,0,1.6707774,32.742728,325.29993)"
       gradientUnits="userSpaceOnUse"
       id="linearGradient10260"
       xlink:href="#linearGradient1022-8-8-3-0-05-34"
       inkscape:collect="always" />
  </defs>
  <sodipodi:namedview
     id="base"
     pagecolor="#ffffff"
     bordercolor="#666666"
     borderopacity="1.0"
     inkscape:pageopacity="0.0"
     inkscape:pageshadow="2"
     inkscape:zoom="3.959798"
     inkscape:cx="31.628015"
     inkscape:cy="12.379252"
     inkscape:document-units="px"
     inkscape:current-layer="capa1"
     showgrid="false"
     inkscape:showpageshadow="false"
     inkscape:window-width="730"
     inkscape:window-height="702"
     inkscape:window-x="484"
     inkscape:window-y="100"
     inkscape:window-maximized="0" />
  <metadata
     id="metadata6667">
    <rdf:RDF>
      <cc:Work
         rdf:about="">
        <dc:format>image/svg+xml</dc:format>
        <dc:type
           rdf:resource="http://purl.org/dc/dcmitype/StillImage" />
        <dc:title />
      </cc:Work>
    </rdf:RDF>
  </metadata>
  <g
     inkscape:label="Capa 1"
     inkscape:groupmode="layer"
     id="capa1"
     transform="translate(0,-1028.3622)">
    <g
       transform="translate(-444.99997,690.00002)"
       id="document-properties">
      <rect
         style="opacity:0.6;color:#000000;fill:none;stroke:none;stroke-width:1;marker:none;visibility:visible;display:inline;overflow:visible;enable-background:accumulate"
         id="rect3109"
         width="23.999996"
         height="23.999996"
         x="444.99997"
         y="338.36218" />
      <path
         style="opacity:0.6;color:#000000;fill:#ffffff;fill-opacity:1;fill-rule:nonzero;stroke:none;stroke-width:1;marker:none;visibility:visible;display:inline;overflow:visible;enable-background:accumulate"
         d="m 456,341.36218 0,3.15625 c -0.97646,0.19982 -1.88949,0.58588 -2.6875,1.125 l -0.0312,0 -2.28125,-2.28125 -2,2 2.28125,2.28125 c -0.005,0.007 0.005,0.0245 0,0.0312 -0.53912,0.79801 -0.92519,1.71104 -1.125,2.6875 l -2.15625,0 0,3 2.15625,0 c 0.19981,0.97647 0.58588,1.8895 1.125,2.6875 0.005,0.007 -0.005,0.0245 0,0.0312 l -2.2813,2.28135 2,2 2.28125,-2.28125 c 0.007,0.005 0.0244,-0.005 0.0312,0 0.79801,0.53912 1.71104,0.92519 2.6875,1.125 l 0,3.15625 3,0 0,-3.15625 c 0.97646,-0.19981 1.88949,-0.58588 2.6875,-1.125 l 0.0312,0 2.28125,2.28125 2,-2 -2.28125,-2.28125 0,-0.0312 c 0.53912,-0.798 0.92519,-1.71103 1.125,-2.6875 l 2.15625,0 0,-3 -2.15625,0 c -0.19981,-0.97646 -0.58588,-1.88949 -1.125,-2.6875 l 0,-0.0312 2.28125,-2.28125 -2,-2 -2.28125,2.28125 -0.0312,0 c -0.79801,-0.53912 -1.71104,-0.92518 -2.6875,-1.125 l 0,-3.15625 -3,0 z m 1.5,6 c 2.48528,0 4.5,2.01472 4.5,4.5 0,2.48528 -2.01472,4.5 -4.5,4.5 -2.48528,0 -4.5,-2.01472 -4.5,-4.5 0,-2.48528 2.01472,-4.5 4.5,-4.5 z"
         id="path6419"
         inkscape:connector-curvature="0" />
      <path
         inkscape:connector-curvature="0"
         id="path5266"
         d="m 455.99995,340.36218 0,3.15625 c -0.97646,0.19982 -1.88949,0.58588 -2.6875,1.125 l -0.0312,0 -2.28125,-2.28125 -2,2 2.28125,2.28125 c -0.005,0.007 0.005,0.0245 0,0.0312 -0.53912,0.79801 -0.92519,1.71104 -1.125,2.6875 l -2.15625,0 0,3 2.15625,0 c 0.19981,0.97647 0.58588,1.8895 1.125,2.6875 0.005,0.007 -0.005,0.0245 0,0.0312 l -2.2813,2.28135 2,2 2.28125,-2.28125 c 0.007,0.005 0.0244,-0.005 0.0312,0 0.79801,0.53912 1.71104,0.92519 2.6875,1.125 l 0,3.15625 3,0 0,-3.15625 c 0.97646,-0.19981 1.88949,-0.58588 2.6875,-1.125 l 0.0312,0 2.28125,2.28125 2,-2 -2.28125,-2.28125 0,-0.0312 c 0.53912,-0.798 0.92519,-1.71103 1.125,-2.6875 l 2.15625,0 0,-3 -2.15625,0 c -0.19981,-0.97646 -0.58588,-1.88949 -1.125,-2.6875 l 0,-0.0312 2.28125,-2.28125 -2,-2 -2.28125,2.28125 -0.0312,0 c -0.79801,-0.53912 -1.71104,-0.92518 -2.6875,-1.125 l 0,-3.15625 -3,0 z m 1.5,6 c 2.48528,0 4.5,2.01472 4.5,4.5 0,2.48528 -2.01472,4.5 -4.5,4.5 -2.48528,0 -4.5,-2.01472 -4.5,-4.5 0,-2.48528 2.01472,-4.5 4.5,-4.5 z"
         style="opacity:0.7;color:#000000;fill:url(#linearGradient10260);fill-opacity:1;fill-rule:nonzero;stroke:none;stroke-width:1;marker:none;visibility:visible;display:inline;overflow:visible;enable-background:accumulate" />
    </g>
  </g>
</svg>
