<?xml version="1.0" encoding="UTF-8" standalone="no"?>
<svg
   xmlns:dc="http://purl.org/dc/elements/1.1/"
   xmlns:cc="http://creativecommons.org/ns#"
   xmlns:rdf="http://www.w3.org/1999/02/22-rdf-syntax-ns#"
   xmlns:svg="http://www.w3.org/2000/svg"
   xmlns="http://www.w3.org/2000/svg"
   xmlns:xlink="http://www.w3.org/1999/xlink"
   xmlns:sodipodi="http://sodipodi.sourceforge.net/DTD/sodipodi-0.dtd"
   xmlns:inkscape="http://www.inkscape.org/namespaces/inkscape"
   viewBox="0 0 24 24"
   id="svg2"
   version="1.1"
   inkscape:version="0.48.3.1 r9886"
   width="100%"
   height="100%"
   sodipodi:docname="media-eject.svg">
  <metadata
     id="metadata21">
    <rdf:RDF>
      <cc:Work
         rdf:about="">
        <dc:format>image/svg+xml</dc:format>
        <dc:type
           rdf:resource="http://purl.org/dc/dcmitype/StillImage" />
      </cc:Work>
    </rdf:RDF>
  </metadata>
  <sodipodi:namedview
     pagecolor="#ffffff"
     bordercolor="#666666"
     borderopacity="1"
     objecttolerance="10"
     gridtolerance="10"
     guidetolerance="10"
     inkscape:pageopacity="0"
     inkscape:pageshadow="2"
     inkscape:window-width="640"
     inkscape:window-height="480"
     id="namedview19"
     showgrid="false"
     inkscape:zoom="9.8333333"
     inkscape:cx="12"
     inkscape:cy="12"
     inkscape:window-x="0"
     inkscape:window-y="24"
     inkscape:window-maximized="0"
     inkscape:current-layer="svg2" />
  <defs
     id="defs4">
    <linearGradient
       gradientUnits="userSpaceOnUse"
       id="linearGradient1022-2"
       x2="0"
       y1="3.00694"
       y2="11.02436">
      <stop
         offset="0"
         id="stop7" />
      <stop
         offset="1"
         stop-color="#363636"
         id="stop9" />
    </linearGradient>
    <linearGradient
       inkscape:collect="always"
       xlink:href="#linearGradient1022-2"
       id="linearGradient2999"
       gradientUnits="userSpaceOnUse"
       y1="3.00694"
       x2="0"
       y2="11.02436"
       gradientTransform="matrix(1.294925,0,0,1.294925,-1.9593,-3.111111)" />
    <linearGradient
       inkscape:collect="always"
       xlink:href="#linearGradient1022-2"
       id="linearGradient3055"
       gradientUnits="userSpaceOnUse"
       gradientTransform="matrix(1.294925,0,0,1.3113859,-1.9593,-3.3032015)"
       y1="3.00694"
       x2="0"
       y2="11.02436" />
  </defs>
  <title
     id="title11">Gnome Symbolic Icon Theme</title>
  <path
     id="path15"
     style="opacity:0.6;fill:#ffffff"
     d="m 4.2300012,17.478934 v 2.622772 H 19.769101 V 17.478934 H 4.2300012 z M 11.999551,5.676461 c -0.344424,0 -0.690415,0.1168446 -0.930727,0.3688274 L 4.5941989,12.602218 c -0.2022673,0.208628 -0.3331195,0.487704 -0.3641977,0.778636 v 0.163922 1.311386 H 19.769101 v -1.311386 -0.163922 c -0.03108,-0.290932 -0.16193,-0.570008 -0.364197,-0.778636 L 12.930279,6.0452884 C 12.684243,5.7935023 12.349181,5.676461 11.999551,5.676461 z"
     inkscape:connector-curvature="0" />
  <path
     id="path17"
     style="opacity:0.7;fill:url(#linearGradient2999)"
     d="m 4.2300012,15.654333 v 2.58985 H 19.769101 v -2.58985 H 4.2300012 z M 11.999551,3.8983136 c -0.344424,0 -0.690415,0.1168445 -0.930727,0.3688272 L 4.5941989,10.82407 c -0.2022673,0.208629 -0.3331195,0.487705 -0.3641977,0.778636 v 0.163923 1.311385 H 19.769101 v -1.311385 -0.163923 c -0.03108,-0.290931 -0.16193,-0.570007 -0.364197,-0.778636 L 12.930279,4.2671408 C 12.684243,4.0153547 12.349181,3.8983136 11.999551,3.8983136 z" />
</svg>
