<?xml version="1.0" encoding="UTF-8" standalone="no"?>
<svg
   xmlns:dc="http://purl.org/dc/elements/1.1/"
   xmlns:cc="http://creativecommons.org/ns#"
   xmlns:rdf="http://www.w3.org/1999/02/22-rdf-syntax-ns#"
   xmlns:svg="http://www.w3.org/2000/svg"
   xmlns="http://www.w3.org/2000/svg"
   xmlns:xlink="http://www.w3.org/1999/xlink"
   xmlns:sodipodi="http://sodipodi.sourceforge.net/DTD/sodipodi-0.dtd"
   xmlns:inkscape="http://www.inkscape.org/namespaces/inkscape"
   viewBox="0 0 24 24"
   id="svg2"
   version="1.1"
   inkscape:version="0.48.3.1 r9886"
   width="100%"
   height="100%"
   sodipodi:docname="media-eject.svg">
  <metadata
     id="metadata21">
    <rdf:RDF>
      <cc:Work
         rdf:about="">
        <dc:format>image/svg+xml</dc:format>
        <dc:type
           rdf:resource="http://purl.org/dc/dcmitype/StillImage" />
      </cc:Work>
    </rdf:RDF>
  </metadata>
  <sodipodi:namedview
     pagecolor="#ffffff"
     bordercolor="#666666"
     borderopacity="1"
     objecttolerance="10"
     gridtolerance="10"
     guidetolerance="10"
     inkscape:pageopacity="0"
     inkscape:pageshadow="2"
     inkscape:window-width="804"
     inkscape:window-height="661"
     id="namedview19"
     showgrid="true"
     inkscape:zoom="19.666667"
     inkscape:cx="12"
     inkscape:cy="12"
     inkscape:window-x="171"
     inkscape:window-y="152"
     inkscape:window-maximized="0"
     inkscape:current-layer="svg2">
    <inkscape:grid
       type="xygrid"
       id="grid2989" />
  </sodipodi:namedview>
  <defs
     id="defs4">
    <linearGradient
       gradientUnits="userSpaceOnUse"
       id="linearGradient1022-2"
       x2="0"
       y1="3.00694"
       y2="11.02436">
      <stop
         offset="0"
         id="stop7" />
      <stop
         offset="1"
         stop-color="#363636"
         id="stop9" />
    </linearGradient>
    <linearGradient
       inkscape:collect="always"
       xlink:href="#linearGradient1022-2"
       id="linearGradient2999"
       gradientUnits="userSpaceOnUse"
       y1="3.00694"
       x2="0"
       y2="11.02436"
       gradientTransform="matrix(1.25,0,0,1.2637052,-1.974575,-2.840432)" />
    <linearGradient
       inkscape:collect="always"
       xlink:href="#linearGradient1022-2"
       id="linearGradient3055"
       gradientUnits="userSpaceOnUse"
       gradientTransform="matrix(1.294925,0,0,1.3113859,-1.9593,-3.3032015)"
       y1="3.00694"
       x2="0"
       y2="11.02436" />
  </defs>
  <title
     id="title11">Gnome Symbolic Icon Theme</title>
  <path
     id="path15"
     style="opacity:0.6;fill:#ffffff"
     d="M 4,16.454545 V 19 H 19 V 16.454545 H 4 z M 11.5,5 C 11.167525,5 10.833538,5.1134001 10.601563,5.3579547 L 4.3515625,11.721591 C 4.1563125,11.924069 4.03,12.194918 4,12.477273 v 0.15909 1.272728 h 15 v -1.272728 -0.15909 c -0.03,-0.282355 -0.156312,-0.553204 -0.351562,-0.755682 l -6.25,-6.3636363 C 12.160938,5.113591 11.8375,5 11.5,5 z"
     inkscape:connector-curvature="0" />
  <path
     id="path17"
     style="opacity:0.7;fill:url(#linearGradient2999)"
     d="M 4,15.47259 V 18 H 19 V 15.47259 H 4 z M 11.5,4 C 11.167525,4 10.833538,4.1140275 10.601563,4.359935 L 4.3515625,10.758781 C 4.1563125,10.96238 4.03,11.234728 4,11.518645 v 0.159971 1.279768 H 19 V 11.678616 11.518645 C 18.97,11.234728 18.843688,10.96238 18.648438,10.758781 l -6.25,-6.398846 C 12.160938,4.1142193 11.8375,4 11.5,4 z"
     inkscape:connector-curvature="0" />
</svg>
