<?xml version="1.0" encoding="UTF-8" standalone="no"?>
<!-- Created with Inkscape (http://www.inkscape.org/) -->

<svg
   xmlns:dc="http://purl.org/dc/elements/1.1/"
   xmlns:cc="http://creativecommons.org/ns#"
   xmlns:rdf="http://www.w3.org/1999/02/22-rdf-syntax-ns#"
   xmlns:svg="http://www.w3.org/2000/svg"
   xmlns="http://www.w3.org/2000/svg"
   xmlns:xlink="http://www.w3.org/1999/xlink"
   xmlns:sodipodi="http://sodipodi.sourceforge.net/DTD/sodipodi-0.dtd"
   xmlns:inkscape="http://www.inkscape.org/namespaces/inkscape"
   width="24"
   height="24"
   id="svg6662"
   version="1.1"
   inkscape:version="0.48.4 r9939"
   sodipodi:docname="system-upgrade.svg">
  <defs
     id="defs6664">
    <linearGradient
       y2="11.02436"
       y1="3.0069399"
       x2="0"
       id="linearGradient1022-8-8-3-0-2-99"
       gradientUnits="userSpaceOnUse">
      <stop
         id="stop3001-0-9-4-1-0"
         offset="0" />
      <stop
         id="stop3003-5-6-6-1-3"
         stop-color="#363636"
         offset="1" />
    </linearGradient>
    <linearGradient
       inkscape:collect="always"
       xlink:href="#linearGradient1022-8-8-3-0-2-99"
       id="linearGradient3042"
       gradientUnits="userSpaceOnUse"
       gradientTransform="matrix(1.8666566,0,0,1.6535046,-216.86115,1520.0331)"
       x1="124.09295"
       y1="-296.14124"
       x2="124.09295"
       y2="-284.04572" />
  </defs>
  <sodipodi:namedview
     id="base"
     pagecolor="#ffffff"
     bordercolor="#666666"
     borderopacity="1.0"
     inkscape:pageopacity="0.0"
     inkscape:pageshadow="2"
     inkscape:zoom="15.999999"
     inkscape:cx="17.495655"
     inkscape:cy="15.116461"
     inkscape:document-units="px"
     inkscape:current-layer="capa1"
     showgrid="true"
     inkscape:showpageshadow="false"
     inkscape:window-width="1280"
     inkscape:window-height="976"
     inkscape:window-x="0"
     inkscape:window-y="24"
     inkscape:window-maximized="1"
     width="22px"
     inkscape:snap-bbox="true">
    <inkscape:grid
       type="xygrid"
       id="grid3003" />
  </sodipodi:namedview>
  <metadata
     id="metadata6667">
    <rdf:RDF>
      <cc:Work
         rdf:about="">
        <dc:format>image/svg+xml</dc:format>
        <dc:type
           rdf:resource="http://purl.org/dc/dcmitype/StillImage" />
        <dc:title />
      </cc:Work>
    </rdf:RDF>
  </metadata>
  <g
     inkscape:label="Capa 1"
     inkscape:groupmode="layer"
     id="capa1"
     transform="translate(0,-1028.3622)">
    <path
       inkscape:connector-curvature="0"
       id="path3044"
       d="m 5,1031.3622 -2,2 0,16 2,2 14,0 2,-2 0,-16 -2,-2 -14,0 z m 1,2 12,0 1,1 0,14 -1,1 -12,0 -1,-1 0,-14 1,-1 z m 6,2 -2,2 -2,0 0,2 -2,2 2,2 0,2 2,0 2,2 2,-2 2,0 0,-2 2,-2 -2,-2 0,-2 -2,0 -2,-2 z m 0,3 3,3 -2,0 0,3 -2,0 0,-3 -2,0 3,-3 z"
       style="opacity:0.59999999999999998;color:black;fill:white;fill-opacity:1;fill-rule:nonzero;stroke:none;stroke-width:1;marker:none;visibility:visible;display:inline;overflow:visible;enable-background:accumulate" />
    <path
       style="opacity:0.7;color:black;fill:url(#linearGradient3042);fill-opacity:1;fill-rule:nonzero;stroke:none;stroke-width:1;marker:none;visibility:visible;display:inline;overflow:visible;enable-background:accumulate"
       d="m 5,1030.3622 -2,2 0,16 2,2 14,0 2,-2 0,-16 -2,-2 -14,0 z m 1,2 12,0 1,1 0,14 -1,1 -12,0 -1,-1 0,-14 1,-1 z m 6,2 -2,2 -2,0 0,2 -2,2 2,2 0,2 2,0 2,2 2,-2 2,0 0,-2 2,-2 -2,-2 0,-2 -2,0 -2,-2 z m 0,3 3,3 -2,0 0,3 -2,0 0,-3 -2,0 3,-3 z"
       id="path3026"
       inkscape:connector-curvature="0" />
  </g>
</svg>
