<?xml version="1.0" encoding="UTF-8" standalone="no"?>
<!-- Created with Inkscape (http://www.inkscape.org/) -->

<svg xmlns:dc="http://purl.org/dc/elements/1.1/" xmlns:cc="http://creativecommons.org/ns#" xmlns:rdf="http://www.w3.org/1999/02/22-rdf-syntax-ns#" xmlns:svg="http://www.w3.org/2000/svg" xmlns="http://www.w3.org/2000/svg" xmlns:xlink="http://www.w3.org/1999/xlink" xmlns:sodipodi="http://sodipodi.sourceforge.net/DTD/sodipodi-0.dtd" xmlns:inkscape="http://www.inkscape.org/namespaces/inkscape" width="24" height="24" id="svg3330" version="1.1" inkscape:version="0.48.4 r9939" sodipodi:docname="system-lock-screen.svg">
  <defs id="defs3332">
    <linearGradient y2="11.02436" y1="3.0069399" x2="0" id="linearGradient1022-8-8-3-0-1" gradientUnits="userSpaceOnUse">
      <stop id="stop3001-0-9-4-2" offset="0" />
      <stop id="stop3003-5-6-6-2" stop-color="#363636" offset="1" />
    </linearGradient>
    <linearGradient inkscape:collect="always" xlink:href="#linearGradient1022-8-8-3-0-1" id="linearGradient3139" gradientUnits="userSpaceOnUse" gradientTransform="matrix(1.679991,0,0,1.5097217,-403.97505,1014.9651)" x1="231.23639" y1="9.5361948" x2="231.23639" y2="22.452484" />
    <linearGradient y2="11.02436" y1="3.0069399" x2="0" id="linearGradient1022-8-8-3-0-06-59" gradientUnits="userSpaceOnUse">
      <stop id="stop3001-0-9-4-9-02" offset="0" />
      <stop id="stop3003-5-6-6-5-70" stop-color="#363636" offset="1" />
    </linearGradient>
    <linearGradient inkscape:collect="always" xlink:href="#linearGradient1022-8-8-3-0-06-59" id="linearGradient3045" x1="8" y1="0" x2="8" y2="16.799999" gradientUnits="userSpaceOnUse" />
    <linearGradient inkscape:collect="always" xlink:href="#linearGradient1022-8-8-3-0-06-59" id="linearGradient3047" gradientUnits="userSpaceOnUse" x1="8" y1="0" x2="8" y2="16.799999" />
    <linearGradient inkscape:collect="always" xlink:href="#linearGradient1022-8-8-3-0-06-59" id="linearGradient3049" gradientUnits="userSpaceOnUse" x1="8" y1="0" x2="8" y2="16.799999" />
    <linearGradient y2="11.02436" y1="3.0069399" x2="0" id="linearGradient1022-8-8-3-0-06-59-5" gradientUnits="userSpaceOnUse">
      <stop id="stop3001-0-9-4-9-02-8" offset="0" />
      <stop id="stop3003-5-6-6-5-70-9" stop-color="#363636" offset="1" />
    </linearGradient>
    <linearGradient inkscape:collect="always" xlink:href="#linearGradient1022-8-8-3-0-06-59-5" id="linearGradient3049-9" gradientUnits="userSpaceOnUse" x1="8" y1="0" x2="8" y2="16.799999" />
    <linearGradient inkscape:collect="always" xlink:href="#linearGradient1022-8-8-3-0-06-59-5" id="linearGradient3130" gradientUnits="userSpaceOnUse" x1="8" y1="0" x2="8" y2="16.799999" />
    <linearGradient inkscape:collect="always" xlink:href="#linearGradient1022-8-8-3-0-06-59" id="linearGradient3134" gradientUnits="userSpaceOnUse" x1="8" y1="0" x2="8" y2="16.799999" gradientTransform="matrix(1.25,0,0,1.25,2,1029.3622)" />
    <linearGradient inkscape:collect="always" xlink:href="#linearGradient1022-8-8-3-0-06-59" id="linearGradient3137" gradientUnits="userSpaceOnUse" x1="8" y1="0" x2="8" y2="16.799999" gradientTransform="matrix(1.25,0,0,1.25,2,1)" />
  </defs>
  <sodipodi:namedview id="base" pagecolor="#ffffff" bordercolor="#666666" borderopacity="1.0" inkscape:pageopacity="0.0" inkscape:pageshadow="2" inkscape:zoom="17.145833" inkscape:cx="12" inkscape:cy="12.34994" inkscape:document-units="px" inkscape:current-layer="capa1" showgrid="true" inkscape:showpageshadow="false" inkscape:window-width="1280" inkscape:window-height="976" inkscape:window-x="0" inkscape:window-y="24" inkscape:window-maximized="1" inkscape:snap-center="true" inkscape:snap-object-midpoints="true" inkscape:snap-page="true" inkscape:snap-midpoints="true" inkscape:snap-to-guides="false">
    <inkscape:grid type="xygrid" id="grid3124" empspacing="5" visible="true" enabled="true" snapvisiblegridlinesonly="true" />
  </sodipodi:namedview>
  <metadata id="metadata3335">
    <rdf:RDF>
      <cc:Work rdf:about="">
        <dc:format>image/svg+xml</dc:format>
        <dc:type rdf:resource="http://purl.org/dc/dcmitype/StillImage" />
        <dc:title></dc:title>
      </cc:Work>
    </rdf:RDF>
  </metadata>
  <g inkscape:label="Capa 1" inkscape:groupmode="layer" id="capa1" transform="translate(0,-1028.3622)">
    <rect style="opacity:0.6;color:#000000;fill:none;stroke:none;stroke-width:1;marker:none;visibility:visible;display:inline;overflow:visible;enable-background:accumulate" id="rect3113" width="24" height="24" x="0" y="1028.3622" />
    <path id="path3140" d="m 4,1030.3622 -2,2 0,12 3,3 14,0 3,-3 0,-12 -2,-2 -16,0 z m 1,2 14,0 1,1 0,9 -2,2 -12,0 -2,-2 0,-9 1,-1 z m 6,1 -1,1 0,3 -1,1 0,3 1,1 4,0 1,-1 0,-3 -1,-1 0,-3 -1,-1 -2,0 z m 0,1 2,0 0,3 -2,0 0,-3 z m 5,11 2,0 0,1 -2,0 0,-1 z m -10,3 -1,1 0,1 1,1 12,0 1,-1 0,-1 -1,-1 -12,0 z" style="opacity:0.59999999999999998;color:black;fill:white;fill-opacity:1;fill-rule:nonzero;stroke:none;stroke-width:1;marker:none;visibility:visible;display:inline;overflow:visible;enable-background:accumulate" inkscape:connector-curvature="0" />
    <path style="opacity:0.69999999999999996;color:black;fill:url(#linearGradient3137);fill-opacity:1;fill-rule:nonzero;stroke:none;stroke-width:1;marker:none;visibility:visible;display:inline;overflow:visible;enable-background:accumulate" d="M 4 1 L 2 3 L 2 15 L 5 18 L 19 18 L 22 15 L 22 3 L 20 1 L 4 1 z M 5 3 L 19 3 L 20 4 L 20 13 L 18 15 L 6 15 L 4 13 L 4 4 L 5 3 z M 11 4 L 10 5 L 10 8 L 9 9 L 9 12 L 10 13 L 14 13 L 15 12 L 15 9 L 14 8 L 14 5 L 13 4 L 11 4 z M 11 5 L 13 5 L 13 8 L 11 8 L 11 5 z M 16 16 L 18 16 L 18 17 L 16 17 L 16 16 z M 6 19 L 5 20 L 5 21 L 6 22 L 18 22 L 19 21 L 19 20 L 18 19 L 6 19 z " transform="translate(0,1028.3622)" id="path3078" />
  </g>
</svg>
