<?xml version="1.0" encoding="UTF-8" standalone="no"?>
<svg
   xmlns:dc="http://purl.org/dc/elements/1.1/"
   xmlns:cc="http://creativecommons.org/ns#"
   xmlns:rdf="http://www.w3.org/1999/02/22-rdf-syntax-ns#"
   xmlns:svg="http://www.w3.org/2000/svg"
   xmlns="http://www.w3.org/2000/svg"
   xmlns:xlink="http://www.w3.org/1999/xlink"
   xmlns:sodipodi="http://sodipodi.sourceforge.net/DTD/sodipodi-0.dtd"
   xmlns:inkscape="http://www.inkscape.org/namespaces/inkscape"
   viewBox="0 0 24 24"
   id="svg2"
   version="1.1"
   inkscape:version="0.48.3.1 r9886"
   width="100%"
   height="100%"
   sodipodi:docname="window-new.svg">
  <metadata
     id="metadata21">
    <rdf:RDF>
      <cc:Work
         rdf:about="">
        <dc:format>image/svg+xml</dc:format>
        <dc:type
           rdf:resource="http://purl.org/dc/dcmitype/StillImage" />
      </cc:Work>
    </rdf:RDF>
  </metadata>
  <sodipodi:namedview
     pagecolor="#ffffff"
     bordercolor="#666666"
     borderopacity="1"
     objecttolerance="10"
     gridtolerance="10"
     guidetolerance="10"
     inkscape:pageopacity="0"
     inkscape:pageshadow="2"
     inkscape:window-width="835"
     inkscape:window-height="731"
     id="namedview19"
     showgrid="true"
     inkscape:zoom="13.906433"
     inkscape:cx="7.220339"
     inkscape:cy="12.673355"
     inkscape:window-x="168"
     inkscape:window-y="131"
     inkscape:window-maximized="0"
     inkscape:current-layer="svg2">
    <inkscape:grid
       type="xygrid"
       id="grid2998" />
  </sodipodi:namedview>
  <defs
     id="defs4">
    <linearGradient
       gradientUnits="userSpaceOnUse"
       id="linearGradient1022-2-3"
       x2="0"
       y1="-.6049"
       y2="9.02416">
      <stop
         offset="0"
         id="stop7" />
      <stop
         offset="1"
         stop-color="#363636"
         id="stop9" />
    </linearGradient>
    <linearGradient
       inkscape:collect="always"
       xlink:href="#linearGradient1022-2-3"
       id="linearGradient3001"
       gradientUnits="userSpaceOnUse"
       y1="-.6049"
       x2="0"
       y2="9.02416"
       gradientTransform="translate(1.00013,1)" />
    <linearGradient
       inkscape:collect="always"
       xlink:href="#linearGradient1022-2-3"
       id="linearGradient3006"
       gradientUnits="userSpaceOnUse"
       gradientTransform="matrix(1,0,0,-1,1.00013,23.61017)"
       y1="-.6049"
       x2="0"
       y2="9.02416" />
    <linearGradient
       inkscape:collect="always"
       xlink:href="#linearGradient1022-2-3"
       id="linearGradient3051"
       gradientUnits="userSpaceOnUse"
       gradientTransform="matrix(1,0,0,-1,1.00013,23.91)"
       y1="-.6049"
       x2="0"
       y2="9.02416" />
    <linearGradient
       inkscape:collect="always"
       xlink:href="#linearGradient1022-2-3"
       id="linearGradient3057"
       gradientUnits="userSpaceOnUse"
       gradientTransform="matrix(1,0,0,-1,0.79898,24.20611)"
       y1="-.6049"
       x2="0"
       y2="9.02416" />
    <linearGradient
       inkscape:collect="always"
       xlink:href="#linearGradient1022-2-3"
       id="linearGradient3061"
       gradientUnits="userSpaceOnUse"
       gradientTransform="translate(1.00013,1)"
       y1="-.6049"
       x2="0"
       y2="9.02416" />
    <linearGradient
       inkscape:collect="always"
       xlink:href="#linearGradient1022-2-3"
       id="linearGradient3083"
       gradientUnits="userSpaceOnUse"
       gradientTransform="matrix(1.0111524,0,0,1.0055453,0.37745487,0.98361414)"
       y1="-.6049"
       x2="0"
       y2="9.02416" />
    <linearGradient
       inkscape:collect="always"
       xlink:href="#linearGradient1022-2-3"
       id="linearGradient3091"
       gradientUnits="userSpaceOnUse"
       gradientTransform="matrix(1.1666668,0,0,1.1573715,-0.83318215,-1.2562261)"
       y1="-.6049"
       x2="0"
       y2="9.02416" />
    <linearGradient
       inkscape:collect="always"
       xlink:href="#linearGradient1022-2-3"
       id="linearGradient3112"
       gradientUnits="userSpaceOnUse"
       gradientTransform="matrix(1.0706324,0,0,1.0646953,0.22318747,-0.19383506)"
       y1="-.6049"
       x2="0"
       y2="9.02416" />
    <linearGradient
       inkscape:collect="always"
       xlink:href="#linearGradient1022-2-3"
       id="linearGradient3115"
       gradientUnits="userSpaceOnUse"
       gradientTransform="matrix(1.1666668,0,0,1.1573715,-0.83318215,-1.2562261)"
       y1="-.6049"
       x2="0"
       y2="9.02416" />
  </defs>
  <title
     id="title11">Gnome Symbolic Icon Theme</title>
  <path
     id="path3118"
     d="M 5.5625,4 C 4.4263451,4 3,5.420476 3,6.5625 l 0,12.875 C 3,20.579528 4.4263451,22 5.5625,22 l 12.875,0 C 19.573676,22 21,20.579578 21,19.4375 l 0,-2.125 0,-8.625 0,-2.125 C 21,5.4204227 19.573676,4 18.4375,4 L 5.5625,4 z m 0.65625,2 11.625,0 C 17.84375,6 19,5.9133445 19,7.40625 L 19,18.625 C 19,20.117905 17.84375,20 17.84375,20 L 6.4375,20 C 6.4375,20 5,20.103687 5,18.375 L 5,7.625 C 5,6.3284778 5.8183259,6.0543017 6.21875,6 z M 11,9 l 0,3 -3,0 0,2 3,0 0,3 2,0 0,-3 3,0 0,-2 -3,0 0,-3 -2,0 z"
     style="opacity:0.59999999999999998;fill:#ffffff;color:#000000;fill-opacity:1;fill-rule:nonzero;stroke-width:1;stroke-linecap:butt;stroke-linejoin:miter;stroke-miterlimit:4;stroke-opacity:1;stroke-dasharray:none;stroke-dashoffset:0;marker:none;visibility:visible;display:inline;overflow:visible;enable-background:accumulate"
     inkscape:connector-curvature="0" />
  <path
     style="opacity:0.69999999999999996;fill:url(#linearGradient3115)"
     d="M 5.5625 3 C 4.4263451 3 3 4.420476 3 5.5625 L 3 18.4375 C 3 19.579528 4.4263451 21 5.5625 21 L 18.4375 21 C 19.573676 21 21 19.579578 21 18.4375 L 21 16.3125 L 21 7.6875 L 21 5.5625 C 21 4.4204227 19.573676 3 18.4375 3 L 5.5625 3 z M 6.21875 5 L 17.84375 5 C 17.84375 5 19 4.9133445 19 6.40625 L 19 17.625 C 19 19.117905 17.84375 19 17.84375 19 L 6.4375 19 C 6.4375 19 5 19.103687 5 17.375 L 5 6.625 C 5 5.3284778 5.8183259 5.0543017 6.21875 5 z M 11 8 L 11 11 L 8 11 L 8 13 L 11 13 L 11 16 L 13 16 L 13 13 L 16 13 L 16 11 L 13 11 L 13 8 L 11 8 z "
     id="path3087" />
</svg>
