<?xml version="1.0" encoding="UTF-8" standalone="no"?>
<!-- Created with Inkscape (http://www.inkscape.org/) -->

<svg
   xmlns:dc="http://purl.org/dc/elements/1.1/"
   xmlns:cc="http://creativecommons.org/ns#"
   xmlns:rdf="http://www.w3.org/1999/02/22-rdf-syntax-ns#"
   xmlns:svg="http://www.w3.org/2000/svg"
   xmlns="http://www.w3.org/2000/svg"
   xmlns:xlink="http://www.w3.org/1999/xlink"
   xmlns:sodipodi="http://sodipodi.sourceforge.net/DTD/sodipodi-0.dtd"
   xmlns:inkscape="http://www.inkscape.org/namespaces/inkscape"
   width="24"
   height="24"
   id="svg6662"
   version="1.1"
   inkscape:version="0.48.4 r9939"
   sodipodi:docname="zoom-fit-best.svg">
  <defs
     id="defs6664">
    <linearGradient
       y2="11.02436"
       y1="3.0069399"
       x2="0"
       id="linearGradient1022-8-8-3-0-05-5"
       gradientUnits="userSpaceOnUse">
      <stop
         id="stop3001-0-9-4-49-6"
         offset="0" />
      <stop
         id="stop3003-5-6-6-8-2"
         stop-color="#363636"
         offset="1" />
    </linearGradient>
    <linearGradient
       y2="326.74878"
       x2="210.70058"
       y1="314.82605"
       x1="210.70058"
       gradientTransform="matrix(1.6799908,0,0,1.5097214,73.024963,-442.20512)"
       gradientUnits="userSpaceOnUse"
       id="linearGradient10078"
       xlink:href="#linearGradient1022-8-8-3-0-05-5"
       inkscape:collect="always" />
  </defs>
  <sodipodi:namedview
     id="base"
     pagecolor="#ffffff"
     bordercolor="#666666"
     borderopacity="1.0"
     inkscape:pageopacity="0.0"
     inkscape:pageshadow="2"
     inkscape:zoom="3.959798"
     inkscape:cx="31.628015"
     inkscape:cy="12.379252"
     inkscape:document-units="px"
     inkscape:current-layer="capa1"
     showgrid="false"
     inkscape:showpageshadow="false"
     inkscape:window-width="730"
     inkscape:window-height="702"
     inkscape:window-x="484"
     inkscape:window-y="100"
     inkscape:window-maximized="0" />
  <metadata
     id="metadata6667">
    <rdf:RDF>
      <cc:Work
         rdf:about="">
        <dc:format>image/svg+xml</dc:format>
        <dc:type
           rdf:resource="http://purl.org/dc/dcmitype/StillImage" />
        <dc:title />
      </cc:Work>
    </rdf:RDF>
  </metadata>
  <g
     inkscape:label="Capa 1"
     inkscape:groupmode="layer"
     id="capa1"
     transform="translate(0,-1028.3622)">
    <g
       transform="translate(-414.99997,690.00002)"
       id="zoom-fit-best">
      <rect
         y="338.36218"
         x="414.99997"
         height="23.999996"
         width="23.999996"
         id="rect3107"
         style="opacity:0.6;color:#000000;fill:none;stroke:none;stroke-width:1;marker:none;visibility:visible;display:inline;overflow:visible;enable-background:accumulate" />
      <path
         style="opacity:0.6;color:#000000;fill:#ffffff;fill-opacity:1;fill-rule:nonzero;stroke:none;stroke-width:1;marker:none;visibility:visible;display:inline;overflow:visible;enable-background:accumulate"
         d="m 421,342.36218 -3,3 0,12 3,3 12,0 3,-3 0,-12 -3,-3 -12,0 z m 1,2 10,0 2,2 0,10 -2,2 -10,0 -2,-2 0,-10 2,-2 z m 1,1 -2,2 0,3 5,-5 -3,0 z m 5,0 5,5 0,-3 -2,-2 -3,0 z m -7,7 0,3 2,2 3,0 -5,-5 z m 12,0 -5,5 3,0 2,-2 0,-3 z"
         id="path6411"
         inkscape:connector-curvature="0" />
      <path
         inkscape:connector-curvature="0"
         id="path5499"
         transform="translate(0,308.2677)"
         d="m 421,33.09375 -3,3 0,12 3,3 12,0 3,-3 0,-12 -3,-3 -12,0 z m 1,2 10,0 2,2 0,10 -2,2 -10,0 -2,-2 0,-10 2,-2 z m 1,1 -2,2 0,3 5,-5 -3,0 z m 5,0 5,5 0,-3 -2,-2 -3,0 z m -7,7 0,3 2,2 3,0 -5,-5 z m 12,0 -5,5 3,0 2,-2 0,-3 z"
         style="opacity:0.7;color:#000000;fill:url(#linearGradient10078);fill-opacity:1;fill-rule:nonzero;stroke:none;stroke-width:1;marker:none;visibility:visible;display:inline;overflow:visible;enable-background:accumulate" />
    </g>
  </g>
</svg>
