<svg viewBox="0 0 24 24" xmlns="http://www.w3.org/2000/svg">
<defs>
<linearGradient gradientUnits="userSpaceOnUse" id="linearGradient3210" spreadMethod="reflect" x1="-.70213" x2="11.70713">
<stop offset="0" stop-color="#ababab"/>
<stop offset="1" stop-color="#f1f1f1"/>
</linearGradient>
</defs>
<path d="m4,3.5h16a1.5,1.5 0 0,1 1.5,1.5v16a1.5,1.5 0 0,1 -1.5,1.5h-16a1.5,1.5 0 0,1 -1.5-1.5v-16a1.5,1.5 0 0,1 1.5-1.5" fill="url(#linearGradient3210)" stroke="#636363" stroke-dashoffset=".7" stroke-linecap="round" stroke-linejoin="round"/>
<path d="m4,3.50019h16a1.5,1.5 0 0,1 1.5,1.5v3.99993a1.5,1.5 0 0,1 -1.5,1.5h-16a1.5,1.5 0 0,1 -1.5-1.5v-3.99993a1.5,1.5 0 0,1 1.5-1.5" fill="#707070" stroke="#636363" stroke-dashoffset=".7" stroke-linecap="round" stroke-linejoin="round"/>
<path d="m5,19h1v1h-1z" fill="#565656"/>
<path d="m5,16h1v1h-1z" fill="#565656"/>
<path d="m5,13h1v1h-1z" fill="#565656"/>
<path d="m8,19h1v1h-1z" fill="#565656"/>
<path d="m8,16h1v1h-1z" fill="#565656"/>
<path d="m8,13h1v1h-1z" fill="#565656"/>
<path d="m11,19h1v1h-1z" fill="#565656"/>
<path d="m11,16h1v1h-1z" fill="#565656"/>
<path d="m11,13h1v1h-1z" fill="#565656"/>
<path d="m14,19h1v1h-1z" fill="#565656"/>
<path d="m14,16h1v1h-1z" fill="#565656"/>
<path d="m14,13h1v1h-1z" fill="#565656"/>
<path d="m17,19h1v1h-1z" fill="#565656"/>
<path d="m17,16h1v1h-1z" fill="#565656"/>
<path d="m17,13h1v1h-1z" fill="#565656"/>
</svg>
