<?xml version="1.0" encoding="UTF-8" standalone="no"?>
<svg
   xmlns:dc="http://purl.org/dc/elements/1.1/"
   xmlns:cc="http://creativecommons.org/ns#"
   xmlns:rdf="http://www.w3.org/1999/02/22-rdf-syntax-ns#"
   xmlns:svg="http://www.w3.org/2000/svg"
   xmlns="http://www.w3.org/2000/svg"
   xmlns:xlink="http://www.w3.org/1999/xlink"
   xmlns:sodipodi="http://sodipodi.sourceforge.net/DTD/sodipodi-0.dtd"
   xmlns:inkscape="http://www.inkscape.org/namespaces/inkscape"
   viewBox="0 0 24 24"
   id="svg3074"
   version="1.1"
   inkscape:version="0.48.3.1 r9886"
   width="100%"
   height="100%"
   sodipodi:docname="go-jump-rtl.svg">
  <metadata
     id="metadata3089">
    <rdf:RDF>
      <cc:Work
         rdf:about="">
        <dc:format>image/svg+xml</dc:format>
        <dc:type
           rdf:resource="http://purl.org/dc/dcmitype/StillImage" />
      </cc:Work>
    </rdf:RDF>
  </metadata>
  <sodipodi:namedview
     pagecolor="#ffffff"
     bordercolor="#666666"
     borderopacity="1"
     objecttolerance="10"
     gridtolerance="10"
     guidetolerance="10"
     inkscape:pageopacity="0"
     inkscape:pageshadow="2"
     inkscape:window-width="640"
     inkscape:window-height="480"
     id="namedview3087"
     showgrid="false"
     inkscape:zoom="9.8333333"
     inkscape:cx="12"
     inkscape:cy="12"
     inkscape:window-x="0"
     inkscape:window-y="24"
     inkscape:window-maximized="0"
     inkscape:current-layer="svg3074" />
  <defs
     id="defs3076">
    <linearGradient
       gradientUnits="userSpaceOnUse"
       id="linearGradient1022-1"
       x2="0"
       y1="4.00644"
       y2="12.02386">
      <stop
         offset="0"
         id="stop3079" />
      <stop
         offset="1"
         stop-color="#363636"
         id="stop3081" />
    </linearGradient>
    <linearGradient
       gradientUnits="userSpaceOnUse"
       id="linearGradient1022-1-6"
       x2="0"
       y1="4.0064402"
       y2="12.02386">
      <stop
         offset="0"
         id="stop3079-8" />
      <stop
         offset="1"
         stop-color="#363636"
         id="stop3081-6" />
    </linearGradient>
    <linearGradient
       gradientTransform="translate(-7.29998,-5.97117)"
       y2="12.02386"
       x2="0"
       y1="4.0064402"
       gradientUnits="userSpaceOnUse"
       id="linearGradient3542"
       xlink:href="#linearGradient1022-1-6"
       inkscape:collect="always" />
  </defs>
  <path
     d="m 14.63501,7.312 c 2.168,0 3.94962,1.78162 3.94962,3.94962 v 0.56423 H 16.3277 v -0.56423 c 0,-0.94821 -0.74448,-1.69269 -1.6927,-1.69269 -0.94822,0 -1.6927,0.74448 -1.6927,1.69269 v 5.74811 l 1.44585,-1.44584 c 0.21474,-0.20614 0.52119,-0.35264 0.81108,-0.35264 h 1.12846 v 1.12846 c 0,0.3492 -0.1019,0.62327 -0.31738,0.84635 L 11.81384,21.312 7.61736,17.18606 C 7.40188,16.96298 7.29998,16.68892 7.29998,16.33971 v -1.12846 h 1.12846 c 0.28989,0 0.59635,0.14651 0.81108,0.35264 l 1.44584,1.44584 v -5.74811 c 0,-2.168 1.78162,-3.94962 3.94962,-3.94962 z"
     id="path3083"
     style="opacity:0.59999999999999998;color:#000000;fill:#ffffff;fill-opacity:1;fill-rule:nonzero;stroke-width:1;stroke-linecap:butt;stroke-linejoin:miter;stroke-miterlimit:4;stroke-opacity:1;stroke-dasharray:none;stroke-dashoffset:0;marker:none;visibility:visible;display:inline;overflow:visible;enable-background:accumulate" />
  <path
     d="m 14.63501,5.97117 c 2.168,0 3.94962,1.78162 3.94962,3.94962 v 0.56423 H 16.3277 V 9.92079 c 0,-0.94821 -0.74448,-1.6927 -1.6927,-1.6927 -0.94822,0 -1.6927,0.74448 -1.6927,1.6927 v 5.74811 l 1.44585,-1.44584 c 0.21474,-0.20614 0.52119,-0.35264 0.81108,-0.35264 h 1.12846 v 1.12846 c 0,0.3492 -0.1019,0.62327 -0.31738,0.84635 L 11.81384,19.97117 7.61736,15.84523 C 7.40188,15.62216 7.29998,15.34809 7.29998,14.99888 v -1.12846 h 1.12846 c 0.28989,0 0.59635,0.14651 0.81108,0.35264 l 1.44584,1.44584 V 9.92079 c 0,-2.168 1.78162,-3.94962 3.94962,-3.94962 z"
     id="path3085"
     style="opacity:0.69999999999999996;color:#000000;fill:url(#linearGradient1022-1-6);fill-opacity:1;fill-rule:nonzero;stroke-width:1;stroke-linecap:butt;stroke-linejoin:miter;stroke-miterlimit:4;stroke-opacity:1;stroke-dasharray:none;stroke-dashoffset:0;marker:none;visibility:visible;display:inline;overflow:visible;enable-background:accumulate" />
</svg>
