<?xml version="1.0" encoding="UTF-8" standalone="no"?>
<svg xmlns:dc="http://purl.org/dc/elements/1.1/" xmlns:cc="http://creativecommons.org/ns#" xmlns:rdf="http://www.w3.org/1999/02/22-rdf-syntax-ns#" xmlns:svg="http://www.w3.org/2000/svg" xmlns="http://www.w3.org/2000/svg" xmlns:xlink="http://www.w3.org/1999/xlink" xmlns:sodipodi="http://sodipodi.sourceforge.net/DTD/sodipodi-0.dtd" xmlns:inkscape="http://www.inkscape.org/namespaces/inkscape" viewBox="0 0 16 16" id="svg3162" version="1.1" inkscape:version="0.48.3.1 r9886" width="100%" height="100%" sodipodi:docname="media-optical.svg">
  <metadata id="metadata3222">
    <rdf:RDF>
      <cc:Work rdf:about="">
        <dc:format>image/svg+xml</dc:format>
        <dc:type rdf:resource="http://purl.org/dc/dcmitype/StillImage" />
      </cc:Work>
    </rdf:RDF>
  </metadata>
  <sodipodi:namedview pagecolor="#ffffff" bordercolor="#666666" borderopacity="1" objecttolerance="10" gridtolerance="10" guidetolerance="10" inkscape:pageopacity="0" inkscape:pageshadow="2" inkscape:window-width="640" inkscape:window-height="480" id="namedview3220" showgrid="false" inkscape:zoom="10.429825" inkscape:cx="9.9531587" inkscape:cy="16.275662" inkscape:window-x="0" inkscape:window-y="24" inkscape:window-maximized="0" inkscape:current-layer="svg3162" />
  <defs id="defs3164">
    <linearGradient gradientUnits="userSpaceOnUse" id="linearGradient4162-7-8" x2="0" y1="9.2763796" y2="-11.1112">
      <stop offset="0" stop-color="#fff" id="stop3178-0" />
      <stop offset="1" stop-color="#626262" id="stop3180-0" />
    </linearGradient>
    <linearGradient inkscape:collect="always" xlink:href="#linearGradient4162-7-8" id="linearGradient3539" gradientUnits="userSpaceOnUse" y1="-6.1378069" x2="3.8644068" y2="11.254237" x1="3.8644068" />
    <linearGradient gradientTransform="matrix(0,0.314288,-0.314288,0,15.260066,-0.542924)" gradientUnits="userSpaceOnUse" id="linearGradient5024-5" x1="12.2744" x2="35.391201" y1="32.4165" y2="14.2033">
      <stop offset="0" stop-color="#c7c7c7" id="stop3183-1" />
      <stop offset=".5" stop-color="#eaeaea" id="stop3185-2" />
      <stop offset="1" stop-color="#c7c7c7" id="stop3187-1" />
    </linearGradient>
    <linearGradient gradientUnits="userSpaceOnUse" id="linearGradient5026-5" x2="0" y1="1.36585" y2="12.64297">
      <stop offset="0" stop-color="#898989" id="stop3190-1" />
      <stop offset="1" id="stop3192-9" />
    </linearGradient>
    <filter color-interpolation-filters="sRGB" height="1.59273" id="filter4201-5-0" width="1.5868" x="-0.29339999" y="-0.29635999">
      <feGaussianBlur stdDeviation=".764" id="feGaussianBlur3170-0" />
    </filter>
    <filter color-interpolation-filters="sRGB" height="1.59273" id="filter4201-5-4" width="1.5868" x="-0.29339999" y="-0.29635999">
      <feGaussianBlur stdDeviation=".764" id="feGaussianBlur3170-02" />
    </filter>
    <filter color-interpolation-filters="sRGB" height="1.59273" id="filter4201-5-3" width="1.5868" x="-0.29339999" y="-0.29635999">
      <feGaussianBlur stdDeviation=".764" id="feGaussianBlur3170-3" />
    </filter>
    <filter color-interpolation-filters="sRGB" height="1.59273" id="filter4201-5-9" width="1.5868" x="-0.29339999" y="-0.29635999">
      <feGaussianBlur stdDeviation=".764" id="feGaussianBlur3170-4" />
    </filter>
    <filter color-interpolation-filters="sRGB" height="1.59273" id="filter4201-5-1" width="1.5868" x="-0.29339999" y="-0.29635999">
      <feGaussianBlur stdDeviation=".764" id="feGaussianBlur3170-06" />
    </filter>
    <filter color-interpolation-filters="sRGB" height="1.59273" id="filter4201-5-39" width="1.5868" x="-0.29339999" y="-0.29635999">
      <feGaussianBlur stdDeviation=".764" id="feGaussianBlur3170-7" />
    </filter>
    <linearGradient gradientTransform="matrix(0.375857,0,0,0.30137,-1.537692,-0.808218)" gradientUnits="userSpaceOnUse" id="linearGradient5042-0" x1="18.67417" x2="34.45406" y1="3.8322899" y2="25.48744">
      <stop offset="0" stop-color="#fff" id="stop3195-6" />
      <stop offset="1" stop-color="#fff" stop-opacity="0" id="stop3197-9" />
    </linearGradient>
  </defs>
  <path d="m 15.5,11.5 v 3.07022 C 15.5,15.08532 15.02214,15.5 14.42857,15.5 H 1.57142 C 0.97785,15.5 0.49999,15.08532 0.49999,14.57022 V 11.5 h 15 z" id="path3200" style="color:#000000;fill:#747474;fill-opacity:1;fill-rule:nonzero;stroke:#303030;stroke-width:1;stroke-linecap:butt;stroke-linejoin:miter;stroke-miterlimit:4;stroke-opacity:1;stroke-dasharray:none;stroke-dashoffset:0;marker:none;visibility:visible;display:inline;overflow:visible;enable-background:accumulate" />
  <path id="path3202" d="m 1.49757,12.50243 h 13.00487 a 1,1 0 0 0 1,-1 V 1.49756 a 1,1 0 0 0 -1,-1 H 1.49757 a 1,1 0 0 0 -1,1 v 10.00487 a 1,1 0 0 0 1,1" style="color:#000000;fill:url(#linearGradient3539);fill-opacity:1;fill-rule:nonzero;stroke:#303030;stroke-width:0.99514002000000001;stroke-linecap:butt;stroke-linejoin:miter;stroke-miterlimit:4;stroke-opacity:1;stroke-dasharray:none;stroke-dashoffset:0;marker:none;visibility:visible;display:inline;overflow:visible;enable-background:accumulate" />
  <path id="path3204" d="M 10.0122,7 C 10.0122,8.10755 9.12971,9.0122 8,9.0122 6.84813,9.0122 5.9878,8.08516 5.9878,7 5.9878,5.89268 6.8038,4.98781 8,4.98781 9.1962,4.98781 10.0122,5.91462 10.0122,7 z M 13.5,7 C 13.5,3.9514 11.0486,1.5 8,1.5 4.9514,1.5 2.5,3.9514 2.5,7 c 0,3.0486 2.4514,5.5 5.5,5.5 3.0486,0 5.5,-2.4514 5.5,-5.5 z" style="color:#000000;fill:url(#linearGradient5024-5);fill-opacity:1;fill-rule:nonzero;stroke:url(#linearGradient5026-5);stroke-width:1;stroke-linecap:butt;stroke-linejoin:miter;stroke-miterlimit:4;stroke-opacity:1;stroke-dasharray:none;stroke-dashoffset:0;marker:none;visibility:visible;display:inline;overflow:visible;enable-background:accumulate" />
  <path d="m 3.8062899,4.5639079 c 0,0 0.5524209,-1.1266664 2.0771358,-2.0485492 L 6.7426073,4.7534161 C 6.2586452,4.9316001 5.9824332,5.4949356 5.9824332,5.4949356 z" id="path3206" style="opacity:0.50800003000000005;color:#000000;fill:#01ff60;fill-opacity:1;fill-rule:nonzero;stroke-width:0.41111249000000000;stroke-linecap:butt;stroke-linejoin:miter;stroke-miterlimit:4;stroke-opacity:1;stroke-dasharray:none;stroke-dashoffset:0;marker:none;visibility:visible;display:inline;overflow:visible;filter:url(#filter4201-5-0);enable-background:accumulate" />
  <path d="m 5.8973156,2.7788063 c 0,0 0.9627655,-0.6141623 2.5842908,-0.6088429 L 8.089834,4.3162456 C 7.6293191,4.2256153 7.1479339,4.5326975 7.1479339,4.5326975 z" id="path3208" style="opacity:0.50800003000000005;color:#000000;fill:#eeff01;fill-opacity:1;fill-rule:nonzero;stroke-width:0.37414554000000000;stroke-linecap:butt;stroke-linejoin:miter;stroke-miterlimit:4;stroke-opacity:1;stroke-dasharray:none;stroke-dashoffset:0;marker:none;visibility:visible;display:inline;overflow:visible;filter:url(#filter4201-5-3);enable-background:accumulate" />
  <path d="m 8.5722102,2.3774514 c 0,0 1.1391348,0.080533 2.4381208,1.0511053 L 9.4167061,4.9186496 C 9.100901,4.5714391 8.531331,4.5311721 8.531331,4.5311721 z" id="path3210" style="opacity:0.50800003000000005;color:#000000;fill:#808080;fill-opacity:0.63899996999999997;fill-rule:nonzero;stroke-width:0.37414568999999998;stroke-linecap:butt;stroke-linejoin:miter;stroke-miterlimit:4;stroke-opacity:1;stroke-dasharray:none;stroke-dashoffset:0;marker:none;visibility:visible;display:inline;overflow:visible;filter:url(#filter4201-5-1);enable-background:accumulate" />
  <path d="m 7,1 h 7.11092 C 14.61012,1 15,1.34718 15,1.80252 V 12 h -3.98022 z" id="path3212" style="color:#000000;fill:url(#linearGradient5042-0);fill-opacity:1;fill-rule:nonzero;stroke-width:1;stroke-linecap:butt;stroke-linejoin:miter;stroke-miterlimit:4;stroke-opacity:1;stroke-dasharray:none;stroke-dashoffset:0;marker:none;visibility:visible;display:inline;overflow:visible;enable-background:accumulate" />
  <path d="m 12.975677,7.7358226 c 0,0 -0.126538,1.2484117 -1.235946,2.6426264 L 10.156458,8.5783565 c 0.391899,-0.335237 0.455168,-0.9594457 0.455168,-0.9594457 z" id="path3214" style="opacity:0.50800003000000005;color:#000000;fill:#01ff60;fill-opacity:1;fill-rule:nonzero;stroke-width:0.41111218999999999;stroke-linecap:butt;stroke-linejoin:miter;stroke-miterlimit:4;stroke-opacity:1;stroke-dasharray:none;stroke-dashoffset:0;marker:none;visibility:visible;display:inline;overflow:visible;filter:url(#filter4201-5-4);enable-background:accumulate" />
  <path d="m 11.571949,10.31505 c 0,0 -0.689387,0.910417 -2.2117334,1.468839 L 8.9818385,9.635204 C 9.4451519,9.5601786 9.7898473,9.104968 9.7898473,9.104968 z" id="path3216" style="opacity:0.50800003000000005;color:#000000;fill:#eeff01;fill-opacity:1;fill-rule:nonzero;stroke-width:0.37414577999999998;stroke-linecap:butt;stroke-linejoin:miter;stroke-miterlimit:4;stroke-opacity:1;stroke-dasharray:none;stroke-dashoffset:0;marker:none;visibility:visible;display:inline;overflow:visible;filter:url(#filter4201-5-9);enable-background:accumulate" />
  <path d="m 9.2472384,11.598469 c 0,0 -1.0961438,0.320282 -2.6514274,-0.138481 L 7.5724069,9.5090211 c 0.4167691,0.21585 0.9648436,0.055709 0.9648436,0.055709 z" id="path3218" style="opacity:0.50800003000000005;color:#000000;fill:#808080;fill-opacity:0.63899996999999997;fill-rule:nonzero;stroke-width:0.37414544999999999;stroke-linecap:butt;stroke-linejoin:miter;stroke-miterlimit:4;stroke-opacity:1;stroke-dasharray:none;stroke-dashoffset:0;marker:none;visibility:visible;display:inline;overflow:visible;filter:url(#filter4201-5-39);enable-background:accumulate" />
</svg>
