<svg viewBox="0 0 16 16" xmlns="http://www.w3.org/2000/svg">
<defs>
<filter id="filter3174">
<feGaussianBlur stdDeviation="1.71"/>
</filter>
<linearGradient gradientUnits="userSpaceOnUse" id="ButtonShadow" x2="0" y1="92" y2="6.97563">
<stop offset="0"/>
<stop offset="1" stop-opacity=".588"/>
</linearGradient>
<linearGradient gradientUnits="userSpaceOnUse" id="linearGradient3258-1" x2="0" y1="33.36102" y2="47.17878">
<stop offset="0" stop-color="#d1d1d1"/>
<stop offset="1" stop-color="#fbfbfb"/>
</linearGradient>
<linearGradient gradientUnits="userSpaceOnUse" id="linearGradient3756" x2="0" y1="32.84374" y2="47.26854">
<stop offset="0" stop-color="#fff" stop-opacity=".669"/>
<stop offset="1" stop-color="#fff" stop-opacity="0"/>
</linearGradient>
</defs>
<g transform="translate(0,-32)">
<path d="m3.5,32.5h9a2,2 0 0,1 2,2v11a2,2 0 0,1 -2,2h-9a2,2 0 0,1 -2-2v-11a2,2 0 0,1 2-2" fill="url(#linearGradient3258-1)" stroke="#818181" stroke-linecap="round" stroke-linejoin="round"/>
<path d="m3.5,33.5h9a1,1 0 0,1 1,1v11a1,1 0 0,1 -1,1h-9a1,1 0 0,1 -1-1v-11a1,1 0 0,1 1-1" fill="none" stroke="url(#linearGradient3756)"/>
</g>
</svg>
