<?xml version="1.0" encoding="UTF-8" standalone="no"?>
<!-- Created with Inkscape (http://www.inkscape.org/) -->

<svg
   xmlns:dc="http://purl.org/dc/elements/1.1/"
   xmlns:cc="http://creativecommons.org/ns#"
   xmlns:rdf="http://www.w3.org/1999/02/22-rdf-syntax-ns#"
   xmlns:svg="http://www.w3.org/2000/svg"
   xmlns="http://www.w3.org/2000/svg"
   xmlns:xlink="http://www.w3.org/1999/xlink"
   version="1.1"
   width="100%"
   height="100%"
   viewBox="0 0 22 22"
   id="svg2">
  <metadata
     id="metadata46">
    <rdf:RDF>
      <cc:Work
         rdf:about="">
        <dc:format>image/svg+xml</dc:format>
        <dc:type
           rdf:resource="http://purl.org/dc/dcmitype/StillImage" />
        <dc:title></dc:title>
      </cc:Work>
    </rdf:RDF>
  </metadata>
  <defs
     id="defs4">
    <linearGradient
       y1="25.54085"
       x2="0"
       y2="46.623249"
       id="linearGradient3120"
       gradientUnits="userSpaceOnUse">
      <stop
         id="stop15"
         style="stop-color:#ffffff;stop-opacity:0.66900003"
         offset="0" />
      <stop
         id="stop17"
         style="stop-color:#ffffff;stop-opacity:0"
         offset="1" />
    </linearGradient>
    <linearGradient
       y1="26.705429"
       x2="0"
       y2="46.050289"
       id="linearGradient3258-1"
       gradientUnits="userSpaceOnUse">
      <stop
         id="stop20"
         style="stop-color:#d1d1d1;stop-opacity:1"
         offset="0" />
      <stop
         id="stop22"
         style="stop-color:#fbfbfb;stop-opacity:1"
         offset="1" />
    </linearGradient>
    <linearGradient
       y1="25.54085"
       x2="0"
       y2="46.623249"
       id="linearGradient3116"
       xlink:href="#linearGradient3120"
       gradientUnits="userSpaceOnUse"
       gradientTransform="translate(-1,-25)" />
    <linearGradient
       y1="26.705429"
       x2="0"
       y2="46.050289"
       id="linearGradient3119"
       xlink:href="#linearGradient3258-1"
       gradientUnits="userSpaceOnUse"
       gradientTransform="translate(-1,-25)" />
    <linearGradient
       id="linearGradient3797">
      <stop
         id="stop3799"
         style="stop-color:#999999;stop-opacity:1"
         offset="0" />
      <stop
         id="stop3805"
         style="stop-color:#acac60;stop-opacity:1"
         offset="1" />
    </linearGradient>
    <linearGradient
       x1="17.365717"
       y1="13.705164"
       x2="17.365717"
       y2="27.410328"
       id="linearGradient3121"
       xlink:href="#linearGradient3797"
       gradientUnits="userSpaceOnUse" />
    <linearGradient
       id="linearGradient3013">
      <stop
         id="stop3015"
         style="stop-color:#e26f00;stop-opacity:1"
         offset="0" />
      <stop
         id="stop3771"
         style="stop-color:#f89738;stop-opacity:1"
         offset="0.91947532" />
      <stop
         id="stop3017"
         style="stop-color:#ea7500;stop-opacity:1"
         offset="1" />
    </linearGradient>
    <linearGradient
       x1="32.259148"
       y1="34.371506"
       x2="16.735598"
       y2="13.554108"
       id="linearGradient3030"
       xlink:href="#linearGradient3013"
       gradientUnits="userSpaceOnUse"
       gradientTransform="matrix(0.62636959,0,0,0.62636959,-4.5103858,-3.9721329)" />
  </defs>
  <path
     d="m 3.5,0.5 h 15 a 2,2 0 0 1 2,2 v 17 a 2,2 0 0 1 -2,2 h -15 a 2,2 0 0 1 -2,-2 v -17 a 2,2 0 0 1 2,-2"
     id="path26"
     style="fill:url(#linearGradient3119);stroke:#818181;stroke-linecap:round;stroke-linejoin:round" />
  <path
     d="m 3.5,1.5 h 15 a 1,1 0 0 1 1,1 v 17 a 1,1 0 0 1 -1,1 h -15 a 1,1 0 0 1 -1,-1 v -17 a 1,1 0 0 1 1,-1"
     id="path28"
     style="fill:none;stroke:url(#linearGradient3116)" />
  <g
     transform="matrix(0.62296197,0,0,0.5107563,-1.6363638,-2.9999978)"
     id="text3009"
     style="font-size:18.12018967px;font-style:normal;font-weight:normal;line-height:125%;letter-spacing:0px;word-spacing:0px;fill:url(#linearGradient3121);fill-opacity:1;stroke:none;font-family:Sans" />
  <path
     d="M 3.756932,5 C 3.786866,5.2097055 3.713698,5.9700388 4.5225648,6 5.3314253,6.029934 5.0873097,7.5805892 4.7877298,8 4.4881497,8.4194065 4.190705,9.824187 4.5801553,10.603095 c 0.874062,1.863719 3.2816972,1.183628 3.4253763,1.826458 0.1104854,0.594269 0.2995794,3.355284 0.2696233,3.954444 -0.029991,0.599156 -0.1198314,1.917306 -0.6291169,2.456549 0.8388223,0.02994 1.2703004,0.439918 1.3302176,-0.06937 0.059919,-0.509286 -0.029711,-2.230643 0.1799944,-2.739929 0.209705,-0.509286 0.113972,-0.754399 0.113972,-1.383516 0,-0.629117 0.392338,-1.004141 0.332424,-1.99275 -0.05991,-0.98861 1.507676,-0.211193 1.208096,0.567712 -0.29958,0.778909 -0.791657,1.640256 -0.641869,2.029711 0.149792,0.389455 -0.178846,0.447138 0.219076,0.96993 0.405387,0.532602 2.583948,1.850683 2.763696,2.210175 0.179749,0.359494 0.608263,-0.0048 0.608263,-0.543979 0,-0.539242 0.162838,-0.397388 -1.36502,-1.50583 C 10.867036,15.274261 11.300902,15.065848 11.570521,14.736311 11.840144,14.406775 12,13.407468 12,13 c 0,-1 0.798792,-1.559059 1.008498,-0.450613 0.209706,1.10844 0.509285,2.546418 -0.209706,3.564985 -0.718985,1.01857 -0.868778,1.467938 -1.288185,1.947263 -0.41941,0.479328 -0.569202,0.479328 -0.569202,0.479328 0.318499,0.221349 0.716767,0.241092 0.982804,0.212713 0.160295,-0.199984 0.352818,-0.103286 0.515646,-0.366316 0.389456,-0.629116 0.796437,-0.90033 1.24581,-1.589364 0.449367,-0.68903 0.919647,-1.699609 0.769859,-2.238847 C 14.305733,14.019908 15,13.244311 15,12.534097 15,12 15.629117,11.215951 15.988614,12.953508 c 0.359493,1.737558 0.160302,0.729107 0.160302,1.897465 0,1.16836 0.08083,1.917307 -0.27867,2.875959 -0.359493,0.958649 -0.01574,1.293355 -0.01574,1.293355 0,0 0.718986,0.419411 1.048523,0.209706 0.329537,-0.209706 0.06767,-1.681516 0.03771,-2.280676 -0.02994,-0.59916 0.142037,-1.104565 0.142037,-1.643806 0,-0.161001 -0.301593,-0.724534 -0.216732,-1.139509 0.226165,-1.105939 -0.226816,-2.181837 -0.14277,-2.665142 0.119831,-0.689031 0.196781,-2.045131 0.466404,-0.307572 0.269619,1.737556 -0.196785,1.296181 0.07284,1.715591 0.269617,0.419412 1.078484,-0.808865 0.988609,-1.677643 C 18.161252,10.36246 18.222369,9.732372 17.65197,9.044314 15.997249,7.0482628 15.587524,3.0767723 13,3 12.15619,2.974964 11.424839,3.4892438 11,4 9.913248,5.3065381 10.941404,4.8801693 9.054057,6.1983152 7.1667074,7.5164618 8.1852784,8.2654095 7.7658681,8.5649901 7.3464567,8.8645651 7.106794,8.1755348 7.3764129,7.4865057 7.6460361,6.7974709 8.1957511,3.6670624 6.7877298,3.756932 5.3797086,3.8468067 6.1843366,4.3193843 5.0159826,4.3793027 3.8476247,4.439215 3.7569301,5 3.756932,5 z"
     id="path3809"
     style="fill:url(#linearGradient3030);fill-opacity:1;stroke:none" />
</svg>
