<?xml version="1.0" encoding="UTF-8" standalone="no"?>
<svg xmlns:dc="http://purl.org/dc/elements/1.1/" xmlns:cc="http://creativecommons.org/ns#" xmlns:rdf="http://www.w3.org/1999/02/22-rdf-syntax-ns#" xmlns:svg="http://www.w3.org/2000/svg" xmlns="http://www.w3.org/2000/svg" xmlns:xlink="http://www.w3.org/1999/xlink" xmlns:sodipodi="http://sodipodi.sourceforge.net/DTD/sodipodi-0.dtd" xmlns:inkscape="http://www.inkscape.org/namespaces/inkscape" viewBox="0 0 22 22" id="svg2" version="1.1" inkscape:version="0.48.4 r9939" width="100%" height="100%" sodipodi:docname="text-x-java.svg">
    <metadata id="metadata46">
        <rdf:RDF>
            <cc:Work rdf:about="">
                <dc:format>image/svg+xml</dc:format>
                <dc:type rdf:resource="http://purl.org/dc/dcmitype/StillImage" />
                <dc:title />
            </cc:Work>
        </rdf:RDF>
    </metadata>
    <sodipodi:namedview pagecolor="#ffffff" bordercolor="#666666" borderopacity="1" objecttolerance="10" gridtolerance="10" guidetolerance="10" inkscape:pageopacity="0" inkscape:pageshadow="2" inkscape:window-width="911" inkscape:window-height="713" id="namedview44" showgrid="true" inkscape:zoom="13.906433" inkscape:cx="20.879254" inkscape:cy="13.40752" inkscape:window-x="-19" inkscape:window-y="146" inkscape:window-maximized="0" inkscape:current-layer="svg2" inkscape:snap-bbox="true">
        <inkscape:grid type="xygrid" id="grid3106" empspacing="5" visible="true" enabled="true" snapvisiblegridlinesonly="true" />
    </sodipodi:namedview>
    <defs id="defs4">
        <linearGradient gradientUnits="userSpaceOnUse" id="linearGradient3120" x2="0" y1="25.54085" y2="46.623249">
            <stop offset="0" stop-color="#fff" stop-opacity=".669" id="stop15" />
            <stop offset="1" stop-color="#fff" stop-opacity="0" id="stop17" />
        </linearGradient>
        <linearGradient gradientUnits="userSpaceOnUse" id="linearGradient3258-1" x2="0" y1="26.705429" y2="46.050289">
            <stop offset="0" stop-color="#d1d1d1" id="stop20" />
            <stop offset="1" stop-color="#fbfbfb" id="stop22" />
        </linearGradient>
        <linearGradient inkscape:collect="always" xlink:href="#linearGradient3120" id="linearGradient3116" gradientUnits="userSpaceOnUse" y1="25.54085" x2="0" y2="46.623249" gradientTransform="translate(-1,-25)" />
        <linearGradient inkscape:collect="always" xlink:href="#linearGradient3258-1" id="linearGradient3119" gradientUnits="userSpaceOnUse" y1="26.705429" x2="0" y2="46.050289" gradientTransform="translate(-1,-25)" />
        <linearGradient id="linearGradient4342">
            <stop id="stop4344" offset="0" style="stop-color:#b4b4b4;stop-opacity:1;" />
            <stop style="stop-color:#dcdcdc;stop-opacity:1;" offset="0.5" id="stop4350" />
            <stop id="stop4346" offset="1" style="stop-color:#b4b4b4;stop-opacity:1;" />
        </linearGradient>
        <linearGradient inkscape:collect="always" xlink:href="#linearGradient4342" id="linearGradient3108" gradientUnits="userSpaceOnUse" x1="14" y1="28" x2="32" y2="28" gradientTransform="matrix(0.57894735,0,0,0.64705881,-2.3157891,-4.823529)" />
        <linearGradient inkscape:collect="always" id="linearGradient3134">
            <stop style="stop-color:white;stop-opacity:1;" offset="0" id="stop3136" />
            <stop style="stop-color:white;stop-opacity:0;" offset="1" id="stop3138" />
        </linearGradient>
        <linearGradient inkscape:collect="always" xlink:href="#linearGradient3134" id="linearGradient3171" gradientUnits="userSpaceOnUse" gradientTransform="matrix(0.49999995,0,0,0.89999996,6e-7,-4.3999999)" x1="22" y1="14" x2="22" y2="4" />
    </defs>
    <path inkscape:connector-curvature="0" style="fill:url(#linearGradient3119);stroke:#818181;stroke-linecap:round;stroke-linejoin:round" id="path26" d="m 3.5,0.5 h 15 a 2,2 0 0 1 2,2 v 17 a 2,2 0 0 1 -2,2 h -15 a 2,2 0 0 1 -2,-2 v -17 a 2,2 0 0 1 2,-2" />
    <path inkscape:connector-curvature="0" style="fill:none;stroke:url(#linearGradient3116)" id="path28" d="m 3.5,1.5 h 15 a 1,1 0 0 1 1,1 v 17 a 1,1 0 0 1 -1,1 h -15 a 1,1 0 0 1 -1,-1 v -17 a 1,1 0 0 1 1,-1" />
    <path style="color:black;fill:none;stroke:#464646;stroke-width:1.00000012;stroke-linecap:round;stroke-linejoin:round;stroke-miterlimit:4;stroke-opacity:1;stroke-dashoffset:0;marker:none;visibility:visible;display:inline;overflow:visible;enable-background:accumulate" d="m 14.409091,9.5 3.181818,0 C 18.094545,9.5 18.5,9.896444 18.5,10.388889 l 0,2.222221 C 18.5,13.103556 18.094545,13.5 17.590909,13.5 l -3.181818,0 C 13.905454,13.5 13.5,13.103556 13.5,12.61111 l 0,-2.222221 C 13.5,9.896444 13.905454,9.5 14.409091,9.5 z" id="rect4539" inkscape:connector-curvature="0" />
    <rect y="6.5" x="5.5" height="11" width="11" id="rect4333" style="color:black;fill:url(#linearGradient3108);fill-opacity:1;stroke:#464646;stroke-width:1.00000012;stroke-linecap:round;stroke-linejoin:round;stroke-miterlimit:4;stroke-opacity:1;stroke-dasharray:none;stroke-dashoffset:0;marker:none;visibility:visible;display:inline;overflow:visible;enable-background:accumulate" ry="1.5" rx="1.5" />
    <rect style="color:black;fill:black;fill-opacity:1;fill-rule:nonzero;stroke:none;stroke-width:1.00000012;marker:none;visibility:visible;display:inline;overflow:visible;enable-background:accumulate" id="rect4314" width="8" height="3" x="7" y="8" ry="1" rx="0.99999994" />
    <path id="path4524-5" d="m 10.358048,8.969452 c 0,0 -3.1239307,-2.9539588 0.104197,-4.3282784 C 13.690372,3.2672929 12.649116,1.82446 11.711817,1 c 0,0 3.454422,2.6954731 1.874438,4.2593266 -1.579824,1.564293 -3.332245,0.8931923 -1.249571,3.4350874 0,0 0.937058,0.755835 -1.458207,1.305586 L 10.358048,8.969452 z" inkscape:connector-curvature="0" style="font-size:21.55234146px;font-style:normal;font-weight:normal;line-height:125%;letter-spacing:0px;word-spacing:0px;opacity:0.75862068;fill:url(#linearGradient3171);fill-opacity:1;stroke:none;font-family:Sans" />
</svg>
