<?xml version="1.0" encoding="UTF-8" standalone="no"?>
<!-- Created with Inkscape (http://www.inkscape.org/) -->

<svg
   xmlns:dc="http://purl.org/dc/elements/1.1/"
   xmlns:cc="http://creativecommons.org/ns#"
   xmlns:rdf="http://www.w3.org/1999/02/22-rdf-syntax-ns#"
   xmlns:svg="http://www.w3.org/2000/svg"
   xmlns="http://www.w3.org/2000/svg"
   xmlns:xlink="http://www.w3.org/1999/xlink"
   xmlns:sodipodi="http://sodipodi.sourceforge.net/DTD/sodipodi-0.dtd"
   xmlns:inkscape="http://www.inkscape.org/namespaces/inkscape"
   width="24"
   height="24"
   id="svg4525"
   version="1.1"
   inkscape:version="0.48.3.1 r9886"
   sodipodi:docname="software-update-urgent_22px.svg">
  <defs
     id="defs4527">
    <linearGradient
       inkscape:collect="always"
       xlink:href="#linearGradient4266"
       id="linearGradient4342"
       gradientUnits="userSpaceOnUse"
       gradientTransform="matrix(-0.02673824,0.10968474,-0.10968474,-0.02673824,47.921825,-7.224094)"
       x1="155.12581"
       y1="302.0582"
       x2="309.96011"
       y2="262.68567" />
    <linearGradient
       id="linearGradient4266">
      <stop
         style="stop-color:#a60000;stop-opacity:1;"
         offset="0"
         id="stop4268" />
      <stop
         style="stop-color:#ff1313;stop-opacity:1;"
         offset="1"
         id="stop4270" />
    </linearGradient>
    <linearGradient
       y2="262.68567"
       x2="309.96011"
       y1="302.0582"
       x1="155.12581"
       gradientTransform="matrix(-0.02673824,0.10968474,-0.10968474,-0.02673824,47.921825,-7.224094)"
       gradientUnits="userSpaceOnUse"
       id="linearGradient4550"
       xlink:href="#linearGradient4266"
       inkscape:collect="always" />
  </defs>
  <sodipodi:namedview
     id="base"
     pagecolor="#ffffff"
     bordercolor="#666666"
     borderopacity="1.0"
     inkscape:pageopacity="0.0"
     inkscape:pageshadow="2"
     inkscape:zoom="7.9195959"
     inkscape:cx="13.075618"
     inkscape:cy="12.509876"
     inkscape:document-units="px"
     inkscape:current-layer="layer1"
     showgrid="false"
     inkscape:window-width="1680"
     inkscape:window-height="1026"
     inkscape:window-x="0"
     inkscape:window-y="24"
     inkscape:window-maximized="1" />
  <metadata
     id="metadata4530">
    <rdf:RDF>
      <cc:Work
         rdf:about="">
        <dc:format>image/svg+xml</dc:format>
        <dc:type
           rdf:resource="http://purl.org/dc/dcmitype/StillImage" />
        <dc:title></dc:title>
      </cc:Work>
    </rdf:RDF>
  </metadata>
  <g
     inkscape:label="Layer 1"
     inkscape:groupmode="layer"
     id="layer1"
     transform="translate(0,-1028.3622)">
    <g
       id="g4338"
       transform="matrix(1.1111111,0,0,1.1052632,-0.22222221,-111.16971)">
      <path
         id="path2999-6-4-9"
         d="m 11,1033.3622 c -0.413316,4e-4 -1.930794,3.279 -2.3125,3.4375 -0.381705,0.1585 -3.770516,-1.0738 -4.0625,-0.7812 -0.291984,0.2925 0.970311,3.6492 0.8125,4.0312 -0.15781,0.382 -3.437888,1.8992 -3.4375,2.3125 3.89e-4,0.4133 3.278972,1.9308 3.4375,2.3125 0.158528,0.3817 -1.073783,3.7705 -0.78125,4.0625 0.292534,0.292 3.649247,-0.9703 4.03125,-0.8125 0.382003,0.1578 1.899184,3.4379 2.3125,3.4375 0.413316,-4e-4 1.930794,-3.279 2.3125,-3.4375 0.381706,-0.1585 3.770516,1.0738 4.0625,0.7813 0.291984,-0.2926 -0.97031,-3.6493 -0.8125,-4.0313 0.15781,-0.382 3.437888,-1.8992 3.4375,-2.3125 -3.88e-4,-0.4133 -3.278972,-1.9308 -3.4375,-2.3125 -0.158528,-0.3817 1.073783,-3.7705 0.78125,-4.0625 -0.292533,-0.292 -3.649247,0.9703 -4.03125,0.8125 -0.382003,-0.1578 -1.899184,-3.4379 -2.3125,-3.4375 z m -0.0625,4.0313 c 0.08444,-0.01 0.166339,-0.016 0.25,0 0.306308,0.057 0.633677,0.3651 0.71875,0.6562 0.04464,0.1527 0.0753,1.1551 0.0625,2.9375 -0.01872,2.6072 -0.03029,2.7064 -0.15625,2.875 -0.302638,0.4052 -0.786727,0.5567 -1.1875,0.375 -0.255503,-0.1158 -0.516535,-0.4356 -0.5625,-0.6875 -0.02041,-0.1118 -0.04159,-1.4111 -0.03125,-2.875 l 0.03125,-2.6562 0.1875,-0.25 c 0.17678,-0.2197 0.434183,-0.347 0.6875,-0.375 z m 0.0625,8 c 0.674866,0 0.912078,0.1875 0.96875,0.8125 0.0405,0.4467 -0.08045,0.8034 -0.3125,0.9687 -0.181798,0.1294 -0.710669,0.1852 -1,0.125 -0.449507,-0.094 -0.680002,-0.4871 -0.625,-1.0937 0.05667,-0.625 0.293883,-0.8125 0.96875,-0.8125 z"
         style="opacity:0.6;fill:#ffffff;fill-opacity:1;stroke:none"
         inkscape:connector-curvature="0" />
      <path
         id="path2999-6-4"
         transform="translate(0,1030.3622)"
         d="M 11,2 C 10.586684,2.0003884 9.0692056,5.2789719 8.6875,5.4375 8.3057944,5.5960281 4.9169839,4.3637168 4.625,4.65625 4.3330161,4.9487833 5.5953104,8.3054971 5.4375,8.6875 5.2796897,9.0695029 1.9996116,10.586684 2,11 2.0003884,11.413316 5.2789719,12.930794 5.4375,13.3125 5.5960281,13.694206 4.3637168,17.083016 4.65625,17.375 4.9487833,17.666984 8.3054971,16.40469 8.6875,16.5625 9.0695029,16.72031 10.586684,20.000388 11,20 c 0.413316,-3.88e-4 1.930794,-3.278972 2.3125,-3.4375 0.381706,-0.158528 3.770516,1.073783 4.0625,0.78125 C 17.666984,17.051217 16.40469,13.694503 16.5625,13.3125 16.72031,12.930497 20.000388,11.413316 20,11 19.999612,10.586684 16.721028,9.0692056 16.5625,8.6875 16.403972,8.3057944 17.636283,4.9169839 17.34375,4.625 17.051217,4.3330161 13.694503,5.5953104 13.3125,5.4375 12.930497,5.2796897 11.413316,1.9996116 11,2 z m -0.0625,4.03125 c 0.08444,-0.00934 0.166339,-0.0157 0.25,0 0.306308,0.057 0.633677,0.36515 0.71875,0.65625 0.04464,0.1527 0.0753,1.1551 0.0625,2.9375 -0.01872,2.6072 -0.03029,2.7064 -0.15625,2.875 -0.302638,0.4052 -0.786727,0.5567 -1.1875,0.375 -0.255503,-0.1158 -0.516535,-0.4356 -0.5625,-0.6875 -0.02041,-0.1118 -0.04159,-1.4111 -0.03125,-2.875 l 0.03125,-2.65625 0.1875,-0.25 c 0.17678,-0.219675 0.434183,-0.3469828 0.6875,-0.375 z m 0.0625,8 c 0.674866,0 0.912078,0.1875 0.96875,0.8125 0.0405,0.4467 -0.08045,0.80345 -0.3125,0.96875 -0.181798,0.1294 -0.710669,0.1852 -1,0.125 -0.449507,-0.094 -0.680002,-0.48715 -0.625,-1.09375 0.05667,-0.625 0.293883,-0.8125 0.96875,-0.8125 z"
         style="opacity:0.8;fill:url(#linearGradient4550);fill-opacity:1;stroke:none"
         inkscape:connector-curvature="0" />
    </g>
  </g>
</svg>
