<?xml version="1.0" encoding="UTF-8" standalone="no"?>
<svg
     xmlns:dc="http://purl.org/dc/elements/1.1/"
     xmlns:cc="http://creativecommons.org/ns#"
     xmlns:rdf="http://www.w3.org/1999/02/22-rdf-syntax-ns#"
     xmlns:svg="http://www.w3.org/2000/svg"
     xmlns="http://www.w3.org/2000/svg"
     xmlns:xlink="http://www.w3.org/1999/xlink"
     xmlns:sodipodi="http://sodipodi.sourceforge.net/DTD/sodipodi-0.dtd"
     xmlns:inkscape="http://www.inkscape.org/namespaces/inkscape"
     viewBox="0 0 24 24"
     id="svg2"
     version="1.1"
     inkscape:version="0.48.3.1 r9886"
     width="100%"
     height="100%"
     sodipodi:docname="application-x-desktop.svg">
    <metadata
         id="metadata32">
        <rdf:RDF>
            <cc:Work
                 rdf:about="">
                <dc:format>image/svg+xml</dc:format>
                <dc:type
                     rdf:resource="http://purl.org/dc/dcmitype/StillImage" />
                <dc:title></dc:title>
            </cc:Work>
        </rdf:RDF>
    </metadata>
    <sodipodi:namedview
         pagecolor="#ffffff"
         bordercolor="#666666"
         borderopacity="1"
         objecttolerance="10"
         gridtolerance="10"
         guidetolerance="10"
         inkscape:pageopacity="0"
         inkscape:pageshadow="2"
         inkscape:window-width="1280"
         inkscape:window-height="976"
         id="namedview30"
         showgrid="true"
         inkscape:zoom="22.627417"
         inkscape:cx="15.598816"
         inkscape:cy="12.924982"
         inkscape:window-x="0"
         inkscape:window-y="24"
         inkscape:window-maximized="1"
         inkscape:current-layer="svg2">
        <inkscape:grid
             type="xygrid"
             id="grid3023" />
    </sodipodi:namedview>
    <defs
         id="defs4">
        <linearGradient
             gradientUnits="userSpaceOnUse"
             id="linearGradient3120"
             x2="0"
             y1="25.54085"
             y2="46.62325">
            <stop
                 offset="0"
                 stop-color="#fff"
                 stop-opacity=".669"
                 id="stop15" />
            <stop
                 offset="1"
                 stop-color="#fff"
                 stop-opacity="0"
                 id="stop17" />
        </linearGradient>
        <linearGradient
             gradientUnits="userSpaceOnUse"
             id="linearGradient3258-1"
             x2="0"
             y1="26.70543"
             y2="46.05029">
            <stop
                 offset="0"
                 stop-color="#d1d1d1"
                 id="stop20" />
            <stop
                 offset="1"
                 stop-color="#fbfbfb"
                 id="stop22" />
        </linearGradient>
        <linearGradient
             inkscape:collect="always"
             xlink:href="#linearGradient1022-8-8-3-0-05-6"
             id="linearGradient5611"
             gradientUnits="userSpaceOnUse"
             gradientTransform="matrix(1.119994,0,0,1.0064811,87.016638,408.76294)"
             x1="-2.5488417"
             y1="8.4068613"
             x2="-2.5488417"
             y2="19.975889" />
        <linearGradient
             gradientUnits="userSpaceOnUse"
             id="linearGradient1022-8-8-3-0-05-6"
             x2="0"
             y1="3.0069399"
             y2="11.02436">
            <stop
                 offset="0"
                 id="stop3001-0-9-4-49-0" />
            <stop
                 offset="1"
                 stop-color="#363636"
                 id="stop3003-5-6-6-8-7" />
        </linearGradient>
        <linearGradient
             inkscape:collect="always"
             xlink:href="#linearGradient1022-8-8-3-0-05-6"
             id="linearGradient3016"
             gradientUnits="userSpaceOnUse"
             gradientTransform="matrix(1.119994,0,0,1.0064811,87.016638,408.76294)"
             x1="-2.5488417"
             y1="8.4068613"
             x2="-2.5488417"
             y2="19.975889" />
        <linearGradient
             inkscape:collect="always"
             xlink:href="#linearGradient1022-8-8-3-0-05-6"
             id="linearGradient3019"
             gradientUnits="userSpaceOnUse"
             gradientTransform="matrix(1.119994,0,0,1.0064811,-226.98336,2.3394902)"
             x1="-2.5488417"
             y1="8.4068613"
             x2="-2.5488417"
             y2="19.975889" />
    </defs>
    <g
         transform="translate(0,-24)"
         id="g24">
        <path
             d="m 4.5,25.5 h 15 a 2,2 0 0 1 2,2 v 17 a 2,2 0 0 1 -2,2 h -15 a 2,2 0 0 1 -2,-2 v -17 a 2,2 0 0 1 2,-2"
             id="path26"
             style="fill:url(#linearGradient3258-1);stroke:#818181;stroke-linecap:round;stroke-linejoin:round"
             inkscape:connector-curvature="0" />
        <path
             d="m 4.5,26.5 h 15 a 1,1 0 0 1 1,1 v 17 a 1,1 0 0 1 -1,1 h -15 a 1,1 0 0 1 -1,-1 v -17 a 1,1 0 0 1 1,-1"
             id="path28"
             style="fill:none;stroke:url(#linearGradient3120)"
             inkscape:connector-curvature="0" />
    </g>
    <path
         style="font-size:medium;font-style:normal;font-variant:normal;font-weight:normal;font-stretch:normal;text-indent:0;text-align:start;text-decoration:none;line-height:normal;letter-spacing:normal;word-spacing:normal;text-transform:none;direction:ltr;block-progression:tb;writing-mode:lr-tb;text-anchor:start;baseline-shift:baseline;color:black;fill:#787878;fill-opacity:1;stroke:none;stroke-width:2.50000024;marker:none;visibility:visible;display:inline;overflow:visible;enable-background:accumulate;font-family:Sans;-inkscape-font-specification:Sans"
         d="M 11 6 L 11 7.09375 C 10.360121 7.2256075 9.7765392 7.4914943 9.25 7.84375 L 9.21875 7.84375 L 8.46875 7.0625 L 7.0625 8.46875 L 7.84375 9.21875 L 7.84375 9.25 C 7.4914943 9.7765392 7.2256075 10.360121 7.09375 11 L 6 11 L 6 13 L 7.09375 13 C 7.2256075 13.639879 7.4914943 14.223461 7.84375 14.75 C 7.8489672 14.757798 7.8384903 14.773482 7.84375 14.78125 L 7.0625 15.53125 L 8.46875 16.9375 L 9.21875 16.15625 L 9.25 16.15625 C 9.7765392 16.508506 10.360121 16.774392 11 16.90625 L 11 18 L 13 18 L 13 16.90625 C 13.639879 16.774392 14.223461 16.508506 14.75 16.15625 L 14.78125 16.15625 L 15.53125 16.9375 L 16.9375 15.53125 L 16.15625 14.78125 C 16.16151 14.773482 16.151033 14.757798 16.15625 14.75 C 16.508506 14.223461 16.774392 13.639879 16.90625 13 L 18 13 L 18 11 L 16.90625 11 C 16.774392 10.360121 16.508506 9.7765392 16.15625 9.25 C 16.151033 9.2422016 16.16151 9.2265178 16.15625 9.21875 L 16.9375 8.46875 L 15.53125 7.0625 L 14.78125 7.84375 C 14.773482 7.8384903 14.757798 7.8489672 14.75 7.84375 C 14.223461 7.4914943 13.639879 7.2256075 13 7.09375 L 13 6 L 11 6 z M 12 9 C 12.208587 9 12.397648 9.0228381 12.59375 9.0625 C 12.726856 9.0894208 12.874147 9.1125579 13 9.15625 C 13.10468 9.1925916 13.213607 9.2340747 13.3125 9.28125 C 13.927918 9.5748264 14.425174 10.072082 14.71875 10.6875 C 14.906202 11.080452 15 11.532071 15 12 C 15 12.467929 14.906202 12.919548 14.71875 13.3125 C 14.425174 13.927918 13.927918 14.425174 13.3125 14.71875 C 13.213607 14.765925 13.10468 14.807408 13 14.84375 C 12.874147 14.887442 12.726856 14.910579 12.59375 14.9375 C 12.397648 14.977162 12.208587 15 12 15 C 11.791413 15 11.602352 14.977162 11.40625 14.9375 C 11.273144 14.910579 11.125853 14.887442 11 14.84375 C 10.89532 14.807408 10.786393 14.765925 10.6875 14.71875 C 10.554948 14.655518 10.433234 14.581275 10.3125 14.5 C 10.293737 14.487372 10.268453 14.48179 10.25 14.46875 C 9.9554312 14.260212 9.701736 13.987179 9.5 13.6875 C 9.4187795 13.566821 9.344478 13.445043 9.28125 13.3125 C 9.0937975 12.919548 9 12.467929 9 12 C 9 11.532071 9.0937975 11.080452 9.28125 10.6875 C 9.3444818 10.554948 9.4187251 10.433234 9.5 10.3125 C 9.5126281 10.293737 9.5182105 10.268453 9.53125 10.25 C 9.7397881 9.9554312 10.012821 9.701736 10.3125 9.5 C 10.433179 9.4187795 10.554957 9.344478 10.6875 9.28125 C 10.786393 9.2340747 10.89532 9.1925916 11 9.15625 C 11.125881 9.1125481 11.272479 9.0873898 11.40625 9.0625 C 11.602352 9.0228381 11.791413 9 12 9 z "
         id="path3025" />
</svg>
