<svg viewBox="0 0 24 24" xmlns="http://www.w3.org/2000/svg">
<defs>
<filter id="filter3174">
<feGaussianBlur stdDeviation="1.71"/>
</filter>
<linearGradient gradientUnits="userSpaceOnUse" id="ButtonShadow" x2="0" y1="92" y2="6.97563">
<stop offset="0"/>
<stop offset="1" stop-opacity=".588"/>
</linearGradient>
<linearGradient gradientUnits="userSpaceOnUse" id="linearGradient3120" x2="0" y1="25.54085" y2="46.62325">
<stop offset="0" stop-color="#fff" stop-opacity=".669"/>
<stop offset="1" stop-color="#fff" stop-opacity="0"/>
</linearGradient>
<linearGradient gradientUnits="userSpaceOnUse" id="linearGradient3258-1" x2="0" y1="26.70543" y2="46.05029">
<stop offset="0" stop-color="#d1d1d1"/>
<stop offset="1" stop-color="#fbfbfb"/>
</linearGradient>
</defs>
<g transform="translate(0,-24)">
<path d="m4.5,25.5h15a2,2 0 0,1 2,2v17a2,2 0 0,1 -2,2h-15a2,2 0 0,1 -2-2v-17a2,2 0 0,1 2-2" fill="url(#linearGradient3258-1)" stroke="#818181" stroke-linecap="round" stroke-linejoin="round"/>
<path d="m4.5,26.5h15a1,1 0 0,1 1,1v17a1,1 0 0,1 -1,1h-15a1,1 0 0,1 -1-1v-17a1,1 0 0,1 1-1" fill="none" stroke="url(#linearGradient3120)"/>
</g>
</svg>
