<?xml version="1.0" encoding="UTF-8" standalone="no"?>
<svg
   xmlns:dc="http://purl.org/dc/elements/1.1/"
   xmlns:cc="http://creativecommons.org/ns#"
   xmlns:rdf="http://www.w3.org/1999/02/22-rdf-syntax-ns#"
   xmlns:svg="http://www.w3.org/2000/svg"
   xmlns="http://www.w3.org/2000/svg"
   xmlns:xlink="http://www.w3.org/1999/xlink"
   xmlns:sodipodi="http://sodipodi.sourceforge.net/DTD/sodipodi-0.dtd"
   xmlns:inkscape="http://www.inkscape.org/namespaces/inkscape"
   viewBox="0 0 24 24"
   id="svg2"
   version="1.1"
   inkscape:version="0.48.3.1 r9886"
   width="100%"
   height="100%"
   sodipodi:docname="text-x-perl.svg">
  <metadata
     id="metadata46">
    <rdf:RDF>
      <cc:Work
         rdf:about="">
        <dc:format>image/svg+xml</dc:format>
        <dc:type
           rdf:resource="http://purl.org/dc/dcmitype/StillImage" />
        <dc:title />
      </cc:Work>
    </rdf:RDF>
  </metadata>
  <sodipodi:namedview
     pagecolor="#ffffff"
     bordercolor="#666666"
     borderopacity="1"
     objecttolerance="10"
     gridtolerance="10"
     guidetolerance="10"
     inkscape:pageopacity="0"
     inkscape:pageshadow="2"
     inkscape:window-width="911"
     inkscape:window-height="713"
     id="namedview44"
     showgrid="true"
     inkscape:zoom="27.812867"
     inkscape:cx="16.602186"
     inkscape:cy="15.369947"
     inkscape:window-x="316"
     inkscape:window-y="218"
     inkscape:window-maximized="0"
     inkscape:current-layer="text3009">
    <inkscape:grid
       type="xygrid"
       id="grid3106" />
  </sodipodi:namedview>
  <defs
     id="defs4">
    <linearGradient
       gradientUnits="userSpaceOnUse"
       id="linearGradient3120"
       x2="0"
       y1="25.54085"
       y2="46.62325">
      <stop
         offset="0"
         stop-color="#fff"
         stop-opacity=".669"
         id="stop15" />
      <stop
         offset="1"
         stop-color="#fff"
         stop-opacity="0"
         id="stop17" />
    </linearGradient>
    <linearGradient
       gradientUnits="userSpaceOnUse"
       id="linearGradient3258-1"
       x2="0"
       y1="26.70543"
       y2="46.05029">
      <stop
         offset="0"
         stop-color="#d1d1d1"
         id="stop20" />
      <stop
         offset="1"
         stop-color="#fbfbfb"
         id="stop22" />
    </linearGradient>
    <linearGradient
       inkscape:collect="always"
       xlink:href="#linearGradient3120"
       id="linearGradient3116"
       gradientUnits="userSpaceOnUse"
       y1="25.54085"
       x2="0"
       y2="46.62325"
       gradientTransform="translate(0,-24)" />
    <linearGradient
       inkscape:collect="always"
       xlink:href="#linearGradient3258-1"
       id="linearGradient3119"
       gradientUnits="userSpaceOnUse"
       y1="26.70543"
       x2="0"
       y2="46.05029"
       gradientTransform="translate(0,-24)" />
    <linearGradient
       id="linearGradient3797">
      <stop
         id="stop3799"
         offset="0"
         style="stop-color:#999999;stop-opacity:1;" />
      <stop
         style="stop-color:#acac60;stop-opacity:1;"
         offset="1"
         id="stop3805" />
    </linearGradient>
    <linearGradient
       inkscape:collect="always"
       xlink:href="#linearGradient3797"
       id="linearGradient3121"
       gradientUnits="userSpaceOnUse"
       x1="17.365717"
       y1="13.705164"
       x2="17.365717"
       y2="27.410328" />
  </defs>
  <path
     inkscape:connector-curvature="0"
     style="fill:url(#linearGradient3119);stroke:#818181;stroke-linecap:round;stroke-linejoin:round"
     id="path26"
     d="m 4.5,1.5 h 15 a 2,2 0 0 1 2,2 v 17 a 2,2 0 0 1 -2,2 h -15 a 2,2 0 0 1 -2,-2 v -17 a 2,2 0 0 1 2,-2" />
  <path
     inkscape:connector-curvature="0"
     style="fill:none;stroke:url(#linearGradient3116)"
     id="path28"
     d="m 4.5,2.5 h 15 a 1,1 0 0 1 1,1 v 17 a 1,1 0 0 1 -1,1 h -15 a 1,1 0 0 1 -1,-1 v -17 a 1,1 0 0 1 1,-1" />
  <path
     style="fill:#999999"
     inkscape:connector-curvature="0"
     id="path30"
     d="m 14,6 h 4 v 1 h -4 z" />
  <path
     style="fill:#999999"
     inkscape:connector-curvature="0"
     id="path32"
     d="m 14,8 h 4 v 1 h -4 z" />
  <path
     style="fill:#999999"
     inkscape:connector-curvature="0"
     id="path34"
     d="m 14,10 h 4 v 1 h -4 z" />
  <path
     style="fill:#999999"
     inkscape:connector-curvature="0"
     id="path36"
     d="m 14,12 h 4 v 1 h -4 z" />
  <path
     style="fill:#999999"
     inkscape:connector-curvature="0"
     id="path38"
     d="m 6,14 h 12 v 1 H 6 z" />
  <path
     style="fill:#999999"
     inkscape:connector-curvature="0"
     id="path40"
     d="m 6,16 h 12 v 1 H 6 z" />
  <path
     style="fill:#999999"
     inkscape:connector-curvature="0"
     id="path42"
     d="m 6,18 h 12 v 1 H 6 z" />
  <g
     transform="matrix(0.62296197,0,0,0.5107563,-1.6363638,-0.99999784)"
     style="font-size:18.12018967px;font-style:normal;font-weight:normal;line-height:125%;letter-spacing:0px;word-spacing:0px;fill:url(#linearGradient3121);fill-opacity:1;stroke:none;font-family:Sans"
     id="text3009">
    <path
       d="m 12.258154,13.705162 6.420938,0 c 3.235433,0.06765 4.80174,2.176682 4.815703,4.894703 0.01516,3.138765 -2.06193,4.870387 -4.815703,4.894701 l -3.210469,2e-6 0,3.91576 -3.210469,-2e-6 0,-13.705164 m 3.210469,2.936824 0,3.915761 3.210469,-2e-6 c 1.438378,-0.0645 1.605234,-0.999779 1.605234,-1.95788 0,-1.035449 -0.322341,-1.957881 -1.605234,-1.957881 l -3.210469,2e-6"
       style="font-variant:normal;font-weight:bold;font-stretch:normal;fill:#9c974a;fill-opacity:1;font-family:Sans;-inkscape-font-specification:Sans Bold"
       id="path3027"
       inkscape:connector-curvature="0"
       sodipodi:nodetypes="cccccccccccccc" />
  </g>
</svg>
