<?xml version="1.0" encoding="UTF-8" standalone="no"?>
<svg
     xmlns:dc="http://purl.org/dc/elements/1.1/"
     xmlns:cc="http://creativecommons.org/ns#"
     xmlns:rdf="http://www.w3.org/1999/02/22-rdf-syntax-ns#"
     xmlns:svg="http://www.w3.org/2000/svg"
     xmlns="http://www.w3.org/2000/svg"
     xmlns:sodipodi="http://sodipodi.sourceforge.net/DTD/sodipodi-0.dtd"
     xmlns:inkscape="http://www.inkscape.org/namespaces/inkscape"
     viewBox="0 0 24 24"
     id="svg2"
     version="1.1"
     inkscape:version="0.48.3.1 r9886"
     width="100%"
     height="100%"
     sodipodi:docname="text-x-generic.svg">
    <metadata
         id="metadata46">
        <rdf:RDF>
            <cc:Work
                 rdf:about="">
                <dc:format>image/svg+xml</dc:format>
                <dc:type
                     rdf:resource="http://purl.org/dc/dcmitype/StillImage" />
            </cc:Work>
        </rdf:RDF>
    </metadata>
    <sodipodi:namedview
         pagecolor="#ffffff"
         bordercolor="#666666"
         borderopacity="1"
         objecttolerance="10"
         gridtolerance="10"
         guidetolerance="10"
         inkscape:pageopacity="0"
         inkscape:pageshadow="2"
         inkscape:window-width="1280"
         inkscape:window-height="976"
         id="namedview44"
         showgrid="false"
         inkscape:zoom="11.681818"
         inkscape:cx="11"
         inkscape:cy="11"
         inkscape:window-x="0"
         inkscape:window-y="24"
         inkscape:window-maximized="1"
         inkscape:current-layer="svg2" />
    <defs
         id="defs4">
        <linearGradient
             gradientUnits="userSpaceOnUse"
             id="linearGradient3120"
             x2="0"
             y1="27.54085"
             y2="48.623249">
            <stop
                 offset="0"
                 stop-color="#fff"
                 stop-opacity=".669"
                 id="stop15" />
            <stop
                 offset="1"
                 stop-color="#fff"
                 stop-opacity="0"
                 id="stop17" />
        </linearGradient>
        <linearGradient
             gradientUnits="userSpaceOnUse"
             id="linearGradient3258-1"
             x2="0"
             y1="28.705429"
             y2="48.050289">
            <stop
                 offset="0"
                 stop-color="#d1d1d1"
                 id="stop20" />
            <stop
                 offset="1"
                 stop-color="#fbfbfb"
                 id="stop22" />
        </linearGradient>
    </defs>
    <g
         transform="translate(1,-25)"
         id="g24">
        <path
             d="m 3.5,26.5 h 15 a 2,2 0 0 1 2,2 v 17 a 2,2 0 0 1 -2,2 h -15 a 2,2 0 0 1 -2,-2 v -17 a 2,2 0 0 1 2,-2"
             id="path26"
             style="fill:url(#linearGradient3258-1);stroke:#818181;stroke-linecap:round;stroke-linejoin:round"
             inkscape:connector-curvature="0" />
        <path
             d="m 3.5,27.5 h 15 a 1,1 0 0 1 1,1 v 17 a 1,1 0 0 1 -1,1 h -15 a 1,1 0 0 1 -1,-1 v -17 a 1,1 0 0 1 1,-1"
             id="path28"
             style="fill:none;stroke:url(#linearGradient3120)"
             inkscape:connector-curvature="0" />
        <path
             d="m 5,31 h 12 v 1 H 5 z"
             id="path30"
             inkscape:connector-curvature="0"
             style="fill:#999" />
        <path
             d="m 5,33 h 12 v 1 H 5 z"
             id="path32"
             inkscape:connector-curvature="0"
             style="fill:#999" />
        <path
             d="m 5,35 h 12 v 1 H 5 z"
             id="path34"
             inkscape:connector-curvature="0"
             style="fill:#999" />
        <path
             d="m 5,37 h 12 v 1 H 5 z"
             id="path36"
             inkscape:connector-curvature="0"
             style="fill:#999" />
        <path
             d="m 5,39 h 12 v 1 H 5 z"
             id="path38"
             inkscape:connector-curvature="0"
             style="fill:#999" />
        <path
             d="m 5,41 h 12 v 1 H 5 z"
             id="path40"
             inkscape:connector-curvature="0"
             style="fill:#999" />
        <path
             d="m 5,43 h 9 v 1 H 5 z"
             id="path42"
             inkscape:connector-curvature="0"
             style="fill:#999" />
    </g>
</svg>
