<?xml version="1.0" encoding="UTF-8" standalone="no"?>
<!-- Created with Inkscape (http://www.inkscape.org/) -->

<svg
   xmlns:dc="http://purl.org/dc/elements/1.1/"
   xmlns:cc="http://creativecommons.org/ns#"
   xmlns:rdf="http://www.w3.org/1999/02/22-rdf-syntax-ns#"
   xmlns:svg="http://www.w3.org/2000/svg"
   xmlns="http://www.w3.org/2000/svg"
   xmlns:xlink="http://www.w3.org/1999/xlink"
   version="1.1"
   width="100%"
   height="100%"
   viewBox="0 0 24 24"
   id="svg2">
  <metadata
     id="metadata46">
    <rdf:RDF>
      <cc:Work
         rdf:about="">
        <dc:format>image/svg+xml</dc:format>
        <dc:type
           rdf:resource="http://purl.org/dc/dcmitype/StillImage" />
        <dc:title></dc:title>
      </cc:Work>
    </rdf:RDF>
  </metadata>
  <defs
     id="defs4">
    <linearGradient
       y1="25.54085"
       x2="0"
       y2="46.623249"
       id="linearGradient3120"
       gradientUnits="userSpaceOnUse">
      <stop
         id="stop15"
         style="stop-color:#ffffff;stop-opacity:0.66900003"
         offset="0" />
      <stop
         id="stop17"
         style="stop-color:#ffffff;stop-opacity:0"
         offset="1" />
    </linearGradient>
    <linearGradient
       y1="26.705429"
       x2="0"
       y2="46.050289"
       id="linearGradient3258-1"
       gradientUnits="userSpaceOnUse">
      <stop
         id="stop20"
         style="stop-color:#d1d1d1;stop-opacity:1"
         offset="0" />
      <stop
         id="stop22"
         style="stop-color:#fbfbfb;stop-opacity:1"
         offset="1" />
    </linearGradient>
    <linearGradient
       y1="25.54085"
       x2="0"
       y2="46.623249"
       id="linearGradient3116"
       xlink:href="#linearGradient3120"
       gradientUnits="userSpaceOnUse"
       gradientTransform="translate(0,-24)" />
    <linearGradient
       y1="26.705429"
       x2="0"
       y2="46.050289"
       id="linearGradient3119"
       xlink:href="#linearGradient3258-1"
       gradientUnits="userSpaceOnUse"
       gradientTransform="translate(0,-24)" />
  </defs>
  <path
     d="m 4.5,1.5 h 15 a 2,2 0 0 1 2,2 v 17 a 2,2 0 0 1 -2,2 h -15 a 2,2 0 0 1 -2,-2 v -17 a 2,2 0 0 1 2,-2"
     id="path26"
     style="fill:url(#linearGradient3119);stroke:#818181;stroke-linecap:round;stroke-linejoin:round" />
  <path
     d="m 4.5,2.5 h 15 a 1,1 0 0 1 1,1 v 17 a 1,1 0 0 1 -1,1 h -15 a 1,1 0 0 1 -1,-1 v -17 a 1,1 0 0 1 1,-1"
     id="path28"
     style="fill:none;stroke:url(#linearGradient3116)" />
  <path
     d="m 6,14 h 12 v 1 H 6 z"
     id="path38"
     style="fill:#999999" />
  <path
     d="m 6,16 h 12 v 1 H 6 z"
     id="path40"
     style="fill:#999999" />
  <path
     d="m 6,18 h 12 v 1 H 6 z"
     id="path42"
     style="fill:#999999" />
  <g
     transform="matrix(0.5339674,0,0,0.51075642,-0.5454547,-1.0000005)"
     id="text3009"
     style="font-size:18.12018967px;font-style:normal;font-weight:normal;line-height:125%;letter-spacing:0px;word-spacing:0px;fill:#cc0000;fill-opacity:1;stroke:none;font-family:Sans">
    <path
       d="m 23.494795,26.428226 c -0.625253,0.324418 -1.277036,0.569206 -1.955353,0.734364 -0.678337,0.165157 -1.386156,0.247736 -2.123459,0.247737 -2.200147,-10e-7 -3.943151,-0.613444 -5.22902,-1.840332 -1.285874,-1.232784 -1.92881,-2.902057 -1.928809,-5.007826 -10e-7,-2.111654 0.642935,-3.780928 1.928809,-5.007826 1.285869,-1.232773 3.028873,-1.849166 5.22902,-1.849179 0.737303,1.3e-5 1.445122,0.08259 2.123459,0.247737 0.678317,0.165171 1.3301,0.409958 1.955353,0.734363 l 0,2.733954 c -0.631151,-0.43058 -1.253442,-0.74615 -1.866875,-0.946709 -0.613454,-0.200538 -1.259339,-0.300813 -1.937657,-0.300823 -1.215098,10e-6 -2.170654,0.389311 -2.866671,1.167902 -0.696028,0.778611 -1.044039,1.852137 -1.044034,3.220581 -5e-6,1.362558 0.348006,2.433135 1.044034,3.211733 0.696017,0.778604 1.651573,1.167905 2.866671,1.167903 0.678318,2e-6 1.324203,-0.100273 1.937657,-0.300824 0.613433,-0.200546 1.235724,-0.516115 1.866875,-0.946709 l 0,2.733954"
       id="path3027"
       style="font-variant:normal;font-weight:bold;font-stretch:normal;fill:#cc0000;font-family:Sans;-inkscape-font-specification:Sans Bold" />
  </g>
  <path
     d="m 14,6 0,1 -1,0 0,1 1,0 0,1 -1,0 0,1 1,0 0,1 1,0 0,-1 1,0 0,1 1,0 0,-1 1,0 0,-1 -1,0 0,-1 1,0 0,-1 -1,0 0,-1 -1,0 0,1 -1,0 0,-1 -1,0 z m 1,2 1,0 0,1 -1,0 0,-1 z"
     id="path3010"
     style="font-size:medium;font-style:normal;font-variant:normal;font-weight:normal;font-stretch:normal;text-indent:0;text-align:start;text-decoration:none;line-height:normal;letter-spacing:normal;word-spacing:normal;text-transform:none;direction:ltr;block-progression:tb;writing-mode:lr-tb;text-anchor:start;baseline-shift:baseline;color:#000000;fill:#cc0000;fill-opacity:1;fill-rule:nonzero;stroke:none;stroke-width:1px;marker:none;visibility:visible;display:inline;overflow:visible;enable-background:accumulate;font-family:Sans;-inkscape-font-specification:Sans" />
</svg>
