<?xml version="1.0" encoding="UTF-8" standalone="no"?>
<svg
   xmlns:dc="http://purl.org/dc/elements/1.1/"
   xmlns:cc="http://creativecommons.org/ns#"
   xmlns:rdf="http://www.w3.org/1999/02/22-rdf-syntax-ns#"
   xmlns:svg="http://www.w3.org/2000/svg"
   xmlns="http://www.w3.org/2000/svg"
   xmlns:xlink="http://www.w3.org/1999/xlink"
   xmlns:sodipodi="http://sodipodi.sourceforge.net/DTD/sodipodi-0.dtd"
   xmlns:inkscape="http://www.inkscape.org/namespaces/inkscape"
   viewBox="0 0 24 24"
   id="svg2"
   version="1.1"
   inkscape:version="0.48.3.1 r9886"
   width="100%"
   height="100%"
   sodipodi:docname="text-x-ruby.svg">
  <metadata
     id="metadata46">
    <rdf:RDF>
      <cc:Work
         rdf:about="">
        <dc:format>image/svg+xml</dc:format>
        <dc:type
           rdf:resource="http://purl.org/dc/dcmitype/StillImage" />
        <dc:title />
      </cc:Work>
    </rdf:RDF>
  </metadata>
  <sodipodi:namedview
     pagecolor="#ffffff"
     bordercolor="#666666"
     borderopacity="1"
     objecttolerance="10"
     gridtolerance="10"
     guidetolerance="10"
     inkscape:pageopacity="0"
     inkscape:pageshadow="2"
     inkscape:window-width="911"
     inkscape:window-height="713"
     id="namedview44"
     showgrid="true"
     inkscape:zoom="13.906434"
     inkscape:cx="12.012957"
     inkscape:cy="12.192382"
     inkscape:window-x="290"
     inkscape:window-y="202"
     inkscape:window-maximized="0"
     inkscape:current-layer="svg2">
    <inkscape:grid
       type="xygrid"
       id="grid3106" />
  </sodipodi:namedview>
  <defs
     id="defs4">
    <linearGradient
       id="linearGradient4171">
      <stop
         style="stop-color:#ffffff;stop-opacity:1;"
         offset="0"
         id="stop4173" />
      <stop
         style="stop-color:#ff0101;stop-opacity:1;"
         offset="1"
         id="stop4175" />
    </linearGradient>
    <linearGradient
       gradientUnits="userSpaceOnUse"
       id="linearGradient3120"
       x2="0"
       y1="25.54085"
       y2="46.62325">
      <stop
         offset="0"
         stop-color="#fff"
         stop-opacity=".669"
         id="stop15" />
      <stop
         offset="1"
         stop-color="#fff"
         stop-opacity="0"
         id="stop17" />
    </linearGradient>
    <linearGradient
       gradientUnits="userSpaceOnUse"
       id="linearGradient3258-1"
       x2="0"
       y1="26.70543"
       y2="46.05029">
      <stop
         offset="0"
         stop-color="#d1d1d1"
         id="stop20" />
      <stop
         offset="1"
         stop-color="#fbfbfb"
         id="stop22" />
    </linearGradient>
    <linearGradient
       inkscape:collect="always"
       xlink:href="#linearGradient3120"
       id="linearGradient3116"
       gradientUnits="userSpaceOnUse"
       y1="25.54085"
       x2="0"
       y2="46.62325"
       gradientTransform="translate(0,-24)" />
    <linearGradient
       inkscape:collect="always"
       xlink:href="#linearGradient3258-1"
       id="linearGradient3119"
       gradientUnits="userSpaceOnUse"
       y1="26.70543"
       x2="0"
       y2="46.05029"
       gradientTransform="translate(0,-24)" />
    <linearGradient
       inkscape:collect="always"
       xlink:href="#linearGradient4171"
       id="linearGradient4177"
       x1="12"
       y1="8"
       x2="12"
       y2="18"
       gradientUnits="userSpaceOnUse" />
  </defs>
  <path
     inkscape:connector-curvature="0"
     style="fill:url(#linearGradient3119);stroke:#818181;stroke-linecap:round;stroke-linejoin:round"
     id="path26"
     d="m 4.5,1.5 h 15 a 2,2 0 0 1 2,2 v 17 a 2,2 0 0 1 -2,2 h -15 a 2,2 0 0 1 -2,-2 v -17 a 2,2 0 0 1 2,-2" />
  <path
     inkscape:connector-curvature="0"
     style="fill:none;stroke:url(#linearGradient3116)"
     id="path28"
     d="m 4.5,2.5 h 15 a 1,1 0 0 1 1,1 v 17 a 1,1 0 0 1 -1,1 h -15 a 1,1 0 0 1 -1,-1 v -17 a 1,1 0 0 1 1,-1" />
  <path
     style="font-size:18.12018966999999847px;font-style:normal;font-weight:normal;line-height:125%;letter-spacing:0px;word-spacing:0px;color:#000000;fill:#ff0103;fill-opacity:1;fill-rule:evenodd;stroke:none;stroke-width:1.03759587000000009;marker:none;visibility:visible;display:inline;overflow:visible;enable-background:accumulate;font-family:Sans"
     d="m 8.6,7.5 -3,4 5.3,7 1.1,-0.0071 L 12,7.5 z"
     id="path4063"
     inkscape:connector-curvature="0"
     sodipodi:nodetypes="cccccc" />
  <path
     style="font-size:18.12018966999999847px;font-style:normal;font-weight:normal;line-height:125%;letter-spacing:0px;word-spacing:0px;color:#000000;fill:#ff0101;fill-opacity:1;fill-rule:evenodd;stroke:none;stroke-width:1.03759587000000009;marker:none;visibility:visible;display:inline;overflow:visible;enable-background:accumulate;font-family:Sans"
     d="m 12,7.5 0,11 1,0 5.3,-7 -2.8,-4 z"
     id="path4068"
     inkscape:connector-curvature="0"
     sodipodi:nodetypes="cccccc" />
  <path
     style="font-size:18.12018966999999847px;font-style:normal;font-weight:normal;line-height:125%;letter-spacing:0px;word-spacing:0px;color:#000000;fill:#ff0801;fill-opacity:1;fill-rule:evenodd;stroke:none;stroke-width:1.03759587000000009;marker:none;visibility:visible;display:inline;overflow:visible;enable-background:accumulate;font-family:Sans"
     d="m 11,8 -2,3.5 2.5,7 1,0 2.5,-7 L 13,8 z"
     id="path4066"
     inkscape:connector-curvature="0"
     sodipodi:nodetypes="ccccccc" />
  <path
     style="font-size:medium;font-style:normal;font-variant:normal;font-weight:normal;font-stretch:normal;text-indent:0;text-align:start;text-decoration:none;line-height:normal;letter-spacing:normal;word-spacing:normal;text-transform:none;direction:ltr;block-progression:tb;writing-mode:lr-tb;text-anchor:start;baseline-shift:baseline;color:#000000;fill:url(#linearGradient4177);fill-opacity:1;stroke:none;stroke-width:1px;marker:none;visibility:visible;display:inline;overflow:visible;enable-background:accumulate;font-family:Sans;-inkscape-font-specification:Sans"
     d="M 9 7.3125 L 8.53125 8 L 7.625 8 L 7.625 9 L 7.84375 9 L 6.28125 11.25 L 6.09375 11.53125 L 6.28125 11.8125 L 11.15625 18.78125 L 11.46875 18.59375 L 11.5 18.6875 L 12 18.5 L 12.5 18.6875 L 12.53125 18.59375 L 12.8125 18.78125 L 17.6875 11.8125 L 17.875 11.53125 L 17.6875 11.25 L 16.15625 9 L 16.375 9 L 16.375 8 L 15.46875 8 L 15 7.3125 L 14.15625 7.875 L 14.25 8 L 13.34375 8 L 13.03125 7.375 L 12.15625 7.84375 L 12.25 8 L 11.75 8 L 11.84375 7.84375 L 10.96875 7.375 L 10.65625 8 L 9.71875 8 L 9.8125 7.875 L 9 7.3125 z M 9.0625 9 L 10.125 9 L 9.0625 11.09375 L 7.625 11.09375 L 9.0625 9 z M 11.25 9 L 12.75 9 L 13.84375 11.09375 L 10.15625 11.09375 L 11.25 9 z M 13.875 9 L 14.9375 9 L 16.375 11.09375 L 14.9375 11.09375 L 13.875 9 z M 7.71875 12.09375 L 9.09375 12.09375 L 10.59375 16.21875 L 7.71875 12.09375 z M 10.15625 12.09375 L 13.84375 12.09375 L 12 17.15625 L 10.15625 12.09375 z M 14.90625 12.09375 L 16.28125 12.09375 L 13.40625 16.21875 L 14.90625 12.09375 z "
     id="path4111" />
  <path
     style="font-size:18.12018967px;font-style:normal;font-weight:normal;line-height:125%;letter-spacing:0px;word-spacing:0px;color:#000000;fill:none;stroke:#7c0000;stroke-width:1.00000012;stroke-linecap:square;stroke-linejoin:miter;stroke-miterlimit:4;stroke-opacity:1;stroke-dashoffset:0;marker:none;visibility:visible;display:inline;overflow:visible;enable-background:accumulate;font-family:Sans"
     d="m 13.203704,18.5 -2.407407,0 -5.2962971,-6.934783 2.8888896,-4.0652171 7.2222225,0 2.888889,4.0652181 z"
     id="path4046"
     inkscape:connector-curvature="0"
     sodipodi:nodetypes="ccccccc" />
</svg>
