<?xml version="1.0" encoding="UTF-8" standalone="no"?>
<svg
   xmlns:dc="http://purl.org/dc/elements/1.1/"
   xmlns:cc="http://creativecommons.org/ns#"
   xmlns:rdf="http://www.w3.org/1999/02/22-rdf-syntax-ns#"
   xmlns:svg="http://www.w3.org/2000/svg"
   xmlns="http://www.w3.org/2000/svg"
   xmlns:xlink="http://www.w3.org/1999/xlink"
   xmlns:sodipodi="http://sodipodi.sourceforge.net/DTD/sodipodi-0.dtd"
   xmlns:inkscape="http://www.inkscape.org/namespaces/inkscape"
   viewBox="0 0 24 24"
   id="svg2"
   version="1.1"
   inkscape:version="0.48.3.1 r9886"
   width="100%"
   height="100%"
   sodipodi:docname="text-x-c.svg">
  <metadata
     id="metadata46">
    <rdf:RDF>
      <cc:Work
         rdf:about="">
        <dc:format>image/svg+xml</dc:format>
        <dc:type
           rdf:resource="http://purl.org/dc/dcmitype/StillImage" />
        <dc:title />
      </cc:Work>
    </rdf:RDF>
  </metadata>
  <sodipodi:namedview
     pagecolor="#ffffff"
     bordercolor="#666666"
     borderopacity="1"
     objecttolerance="10"
     gridtolerance="10"
     guidetolerance="10"
     inkscape:pageopacity="0"
     inkscape:pageshadow="2"
     inkscape:window-width="911"
     inkscape:window-height="713"
     id="namedview44"
     showgrid="true"
     inkscape:zoom="19.666667"
     inkscape:cx="12"
     inkscape:cy="12.457626"
     inkscape:window-x="316"
     inkscape:window-y="218"
     inkscape:window-maximized="0"
     inkscape:current-layer="svg2">
    <inkscape:grid
       type="xygrid"
       id="grid3106" />
  </sodipodi:namedview>
  <defs
     id="defs4">
    <linearGradient
       gradientUnits="userSpaceOnUse"
       id="linearGradient3120"
       x2="0"
       y1="25.54085"
       y2="46.62325">
      <stop
         offset="0"
         stop-color="#fff"
         stop-opacity=".669"
         id="stop15" />
      <stop
         offset="1"
         stop-color="#fff"
         stop-opacity="0"
         id="stop17" />
    </linearGradient>
    <linearGradient
       gradientUnits="userSpaceOnUse"
       id="linearGradient3258-1"
       x2="0"
       y1="26.70543"
       y2="46.05029">
      <stop
         offset="0"
         stop-color="#d1d1d1"
         id="stop20" />
      <stop
         offset="1"
         stop-color="#fbfbfb"
         id="stop22" />
    </linearGradient>
    <linearGradient
       inkscape:collect="always"
       xlink:href="#linearGradient3120"
       id="linearGradient3116"
       gradientUnits="userSpaceOnUse"
       y1="25.54085"
       x2="0"
       y2="46.62325"
       gradientTransform="translate(0,-24)" />
    <linearGradient
       inkscape:collect="always"
       xlink:href="#linearGradient3258-1"
       id="linearGradient3119"
       gradientUnits="userSpaceOnUse"
       y1="26.70543"
       x2="0"
       y2="46.05029"
       gradientTransform="translate(0,-24)" />
  </defs>
  <path
     inkscape:connector-curvature="0"
     style="fill:url(#linearGradient3119);stroke:#818181;stroke-linecap:round;stroke-linejoin:round"
     id="path26"
     d="m 4.5,1.5 h 15 a 2,2 0 0 1 2,2 v 17 a 2,2 0 0 1 -2,2 h -15 a 2,2 0 0 1 -2,-2 v -17 a 2,2 0 0 1 2,-2" />
  <path
     inkscape:connector-curvature="0"
     style="fill:none;stroke:url(#linearGradient3116)"
     id="path28"
     d="m 4.5,2.5 h 15 a 1,1 0 0 1 1,1 v 17 a 1,1 0 0 1 -1,1 h -15 a 1,1 0 0 1 -1,-1 v -17 a 1,1 0 0 1 1,-1" />
  <path
     style="fill:#999999"
     inkscape:connector-curvature="0"
     id="path30"
     d="m 14,6 h 4 v 1 h -4 z" />
  <path
     style="fill:#999999"
     inkscape:connector-curvature="0"
     id="path32"
     d="m 14,8 h 4 v 1 h -4 z" />
  <path
     style="fill:#999999"
     inkscape:connector-curvature="0"
     id="path34"
     d="m 14,10 h 4 v 1 h -4 z" />
  <path
     style="fill:#999999"
     inkscape:connector-curvature="0"
     id="path36"
     d="m 14,12 h 4 v 1 h -4 z" />
  <path
     style="fill:#999999"
     inkscape:connector-curvature="0"
     id="path38"
     d="m 6,14 h 12 v 1 H 6 z" />
  <path
     style="fill:#999999"
     inkscape:connector-curvature="0"
     id="path40"
     d="m 6,16 h 12 v 1 H 6 z" />
  <path
     style="fill:#999999"
     inkscape:connector-curvature="0"
     id="path42"
     d="m 6,18 h 12 v 1 H 6 z" />
  <g
     transform="matrix(0.62296197,0,0,0.51075642,-1.6363638,-1.0000005)"
     style="font-size:18.12018967px;font-style:normal;font-weight:normal;line-height:125%;letter-spacing:0px;word-spacing:0px;fill:#0060ca;fill-opacity:1;stroke:none;font-family:Sans"
     id="text3009">
    <path
       inkscape:connector-curvature="0"
       d="m 23.494795,26.428226 c -0.625253,0.324418 -1.277036,0.569206 -1.955353,0.734364 -0.678337,0.165157 -1.386156,0.247736 -2.123459,0.247737 -2.200147,-10e-7 -3.943151,-0.613444 -5.22902,-1.840332 -1.285874,-1.232784 -1.92881,-2.902057 -1.928809,-5.007826 -10e-7,-2.111654 0.642935,-3.780928 1.928809,-5.007826 1.285869,-1.232773 3.028873,-1.849166 5.22902,-1.849179 0.737303,1.3e-5 1.445122,0.08259 2.123459,0.247737 0.678317,0.165171 1.3301,0.409958 1.955353,0.734363 l 0,2.733954 c -0.631151,-0.43058 -1.253442,-0.74615 -1.866875,-0.946709 -0.613454,-0.200538 -1.259339,-0.300813 -1.937657,-0.300823 -1.215098,10e-6 -2.170654,0.389311 -2.866671,1.167902 -0.696028,0.778611 -1.044039,1.852137 -1.044034,3.220581 -5e-6,1.362558 0.348006,2.433135 1.044034,3.211733 0.696017,0.778604 1.651573,1.167905 2.866671,1.167903 0.678318,2e-6 1.324203,-0.100273 1.937657,-0.300824 0.613433,-0.200546 1.235724,-0.516115 1.866875,-0.946709 l 0,2.733954"
       style="font-variant:normal;font-weight:bold;font-stretch:normal;fill:#0060ca;font-family:Sans;-inkscape-font-specification:Sans Bold"
       id="path3027" />
  </g>
</svg>
