<?xml version="1.0" encoding="UTF-8" standalone="no"?>
<svg xmlns:dc="http://purl.org/dc/elements/1.1/" xmlns:cc="http://creativecommons.org/ns#" xmlns:rdf="http://www.w3.org/1999/02/22-rdf-syntax-ns#" xmlns:svg="http://www.w3.org/2000/svg" xmlns="http://www.w3.org/2000/svg" xmlns:xlink="http://www.w3.org/1999/xlink" xmlns:sodipodi="http://sodipodi.sourceforge.net/DTD/sodipodi-0.dtd" xmlns:inkscape="http://www.inkscape.org/namespaces/inkscape" viewBox="0 0 24 24" id="svg2" version="1.1" inkscape:version="0.48.4 r9939" width="100%" height="100%" sodipodi:docname="x-office-drawing.svg">
  <metadata id="metadata68">
    <rdf:RDF>
      <cc:Work rdf:about="">
        <dc:format>image/svg+xml</dc:format>
        <dc:type rdf:resource="http://purl.org/dc/dcmitype/StillImage" />
      </cc:Work>
    </rdf:RDF>
  </metadata>
  <sodipodi:namedview pagecolor="#ffffff" bordercolor="#666666" borderopacity="1" objecttolerance="10" gridtolerance="10" guidetolerance="10" inkscape:pageopacity="0" inkscape:pageshadow="2" inkscape:window-width="1280" inkscape:window-height="976" id="namedview66" showgrid="true" inkscape:zoom="19.666666" inkscape:cx="24.49325" inkscape:cy="15.022815" inkscape:window-x="0" inkscape:window-y="24" inkscape:window-maximized="1" inkscape:current-layer="svg2">
    <inkscape:grid type="xygrid" id="grid3135" />
  </sodipodi:namedview>
  <defs id="defs4">
    <linearGradient gradientUnits="userSpaceOnUse" id="linearGradient3120" x2="0" y1="25.54085" y2="46.62325">
      <stop offset="0" stop-color="#fff" stop-opacity=".669" id="stop15" />
      <stop offset="1" stop-color="#fff" stop-opacity="0" id="stop17" />
    </linearGradient>
    <linearGradient inkscape:collect="always" xlink:href="#linearGradient3120" id="linearGradient3059" gradientUnits="userSpaceOnUse" y1="25.54085" x2="0" y2="46.62325" gradientTransform="translate(0,-24)" />
    <linearGradient id="linearGradient3853">
      <stop style="stop-color:#ffffff;stop-opacity:1;" offset="0" id="stop3855" />
      <stop style="stop-color:#ffffff;stop-opacity:0;" offset="1" id="stop3857" />
    </linearGradient>
    <linearGradient id="linearGradient3888">
      <stop id="stop3890" offset="0" style="stop-color:#808080;stop-opacity:1;" />
      <stop id="stop3892" offset="1" style="stop-color:#999999;stop-opacity:1" />
    </linearGradient>
    <linearGradient id="linearGradient3934">
      <stop style="stop-color:#5a5a5a;stop-opacity:1;" offset="0" id="stop3936" />
      <stop style="stop-color:#c8c8c8;stop-opacity:1;" offset="1" id="stop3940" />
    </linearGradient>
    <linearGradient inkscape:collect="always" xlink:href="#linearGradient3853" id="linearGradient3141" gradientUnits="userSpaceOnUse" gradientTransform="matrix(1,0,0,0.54285714,-5,-0.8)" x1="13" y1="7" x2="13" y2="42" />
    <linearGradient inkscape:collect="always" xlink:href="#linearGradient3934" id="linearGradient3195" gradientUnits="userSpaceOnUse" gradientTransform="matrix(0.45454546,0,0,0.44752348,1.8181816,0.70696003)" x1="23" y1="20.76548" x2="23" y2="27.46904" />
    <linearGradient inkscape:collect="always" xlink:href="#linearGradient3888" id="linearGradient3198" gradientUnits="userSpaceOnUse" gradientTransform="matrix(0.45454546,0,0,0.50000001,1.8181816,-0.50000015)" x1="23" y1="13" x2="23" y2="19" />
    <linearGradient y2="42" x2="13" y1="7" x1="13" gradientTransform="translate(2,0)" gradientUnits="userSpaceOnUse" id="linearGradient3838" xlink:href="#linearGradient3853-3" inkscape:collect="always" />
    <linearGradient gradientTransform="matrix(0,-1,-1,0,1.6172605e-8,-1.5826913e-8)" gradientUnits="userSpaceOnUse" y2="-21" x2="-43" y1="-21" x1="-5" id="linearGradient3872" xlink:href="#linearGradient3866-5" inkscape:collect="always" />
    <radialGradient xlink:href="#linearGradient5060-5" r="117.14286" id="radialGradient3131-5" gradientUnits="userSpaceOnUse" gradientTransform="matrix(-0.062142,0,0,0.029001,46.53201,28.085503)" cy="486.64789" cx="605.71429" />
    <radialGradient xlink:href="#linearGradient5060-5" r="117.14286" id="radialGradient3129-69" gradientUnits="userSpaceOnUse" gradientTransform="matrix(0.062142,0,0,0.029001,1.636502,28.085503)" cy="486.64789" cx="605.71429" />
    <linearGradient y1="-23" y2="-23" x2="42" x1="6" id="linearGradient998-9" gradientUnits="userSpaceOnUse">
      <stop id="stop24-0" stop-color="#fff" offset="0" />
      <stop style="stop-color:#ffffff;stop-opacity:0.5" id="stop26-3" stop-opacity="0" stop-color="#fff" offset="1" />
    </linearGradient>
    <linearGradient gradientTransform="matrix(0,-1,-1,0,1.6172605e-8,-1.5826913e-8)" x2="-5.84311" x1="-42.69615" id="linearGradient3157-5-5" gradientUnits="userSpaceOnUse">
      <stop id="stop19-5" stop-color="#fff" offset="0" />
      <stop id="stop21-2" stop-color="#cdcdcd" offset="1" />
    </linearGradient>
    <linearGradient y2="45.76167" y1="38.7186" x2="0" id="linearGradient3127-2" gradientUnits="userSpaceOnUse">
      <stop id="stop12-5" stop-opacity="0" offset="0" />
      <stop id="stop14-8" offset=".5" />
      <stop id="stop16-2" stop-opacity="0" offset="1" />
    </linearGradient>
    <linearGradient id="linearGradient5060-5">
      <stop id="stop7-13" offset="0" />
      <stop id="stop9-9" stop-opacity="0" offset="1" />
    </linearGradient>
    <linearGradient id="linearGradient3853-3">
      <stop style="stop-color:#ffffff;stop-opacity:1;" offset="0" id="stop3855-05" />
      <stop style="stop-color:#ffffff;stop-opacity:0;" offset="1" id="stop3857-3" />
    </linearGradient>
    <linearGradient id="linearGradient3866-5">
      <stop id="stop3868-5" offset="0" style="stop-color:#818181;stop-opacity:1;" />
      <stop id="stop3870-4" offset="1" style="stop-color:#7c5c0f;stop-opacity:1" />
    </linearGradient>
    <linearGradient inkscape:collect="always" xlink:href="#linearGradient998-9" id="linearGradient3154" gradientUnits="userSpaceOnUse" x1="6" y1="-23" x2="42" y2="-23" gradientTransform="matrix(0,0.54738277,-0.54738277,0,28.405446,-1.3331096)" />
    <linearGradient inkscape:collect="always" xlink:href="#linearGradient3853-3" id="linearGradient3157" gradientUnits="userSpaceOnUse" gradientTransform="matrix(0.54738277,0,0,0.54738277,29.500212,-1.3331096)" x1="13" y1="7" x2="13" y2="42" />
    <linearGradient inkscape:collect="always" xlink:href="#linearGradient3157-5-5" id="linearGradient3162" gradientUnits="userSpaceOnUse" gradientTransform="matrix(0,-0.54738277,-0.54738277,0,28.405446,-1.3331096)" x1="-42.69615" x2="-5.84311" />
    <linearGradient inkscape:collect="always" xlink:href="#linearGradient3866-5" id="linearGradient3164" gradientUnits="userSpaceOnUse" gradientTransform="matrix(0,-0.54738277,-0.54738277,0,28.405446,-1.3331096)" x1="-5" y1="-21" x2="-43" y2="-21" />
    <linearGradient inkscape:collect="always" xlink:href="#linearGradient3127-2" id="linearGradient3170" gradientUnits="userSpaceOnUse" y1="38.7186" x2="0" y2="45.76167" />
    <radialGradient inkscape:collect="always" xlink:href="#linearGradient5060-5" id="radialGradient3172" gradientUnits="userSpaceOnUse" gradientTransform="matrix(0.062142,0,0,0.029001,1.636502,28.085503)" cx="605.71429" cy="486.64789" r="117.14286" />
    <radialGradient inkscape:collect="always" xlink:href="#linearGradient5060-5" id="radialGradient3174" gradientUnits="userSpaceOnUse" gradientTransform="matrix(-0.062142,0,0,0.029001,46.53201,28.085503)" cx="605.71429" cy="486.64789" r="117.14286" />
    <linearGradient inkscape:collect="always" xlink:href="#linearGradient3157-5-5-7" id="linearGradient3162-4" gradientUnits="userSpaceOnUse" gradientTransform="matrix(0,-0.54738277,-0.54738277,0,28.405446,-1.3331096)" x1="-42.696152" x2="-5.8431101" />
    <linearGradient gradientTransform="matrix(0,-1,-1,0,1.6172605e-8,-1.5826913e-8)" x2="-5.8431101" x1="-42.696152" id="linearGradient3157-5-5-7" gradientUnits="userSpaceOnUse">
      <stop id="stop19-5-5" stop-color="#fff" offset="0" />
      <stop id="stop21-2-9" stop-color="#cdcdcd" offset="1" />
    </linearGradient>
    <linearGradient inkscape:collect="always" xlink:href="#linearGradient3866-5-8" id="linearGradient3164-3" gradientUnits="userSpaceOnUse" gradientTransform="matrix(0,-0.54738277,-0.54738277,0,28.405446,-1.3331096)" x1="-5" y1="-21" x2="-43" y2="-21" />
    <linearGradient id="linearGradient3866-5-8">
      <stop id="stop3868-5-9" offset="0" style="stop-color:#818181;stop-opacity:1;" />
      <stop id="stop3870-4-1" offset="1" style="stop-color:#7c5c0f;stop-opacity:1" />
    </linearGradient>
  </defs>
  <path inkscape:connector-curvature="0" style="fill:url(#linearGradient3162-4);stroke:url(#linearGradient3164-3);stroke-linecap:round;stroke-linejoin:round;color:black;fill-opacity:1;fill-rule:nonzero;stroke-width:1;stroke-miterlimit:4;stroke-opacity:1;stroke-dasharray:none;stroke-dashoffset:0;marker:none;visibility:visible;display:inline;overflow:visible;enable-background:accumulate" id="path36" d="m 4.5,1.5 h 15 a 2,2 0 0 1 2,2 v 17 a 2,2 0 0 1 -2,2 h -15 a 2,2 0 0 1 -2,-2 v -17 a 2,2 0 0 1 2,-2" />
  <path id="path3034" d="M 8,2 5.039808,2 C 3.935515,2 3,2.4924035 3,3 l 0,18 c 0,0.566053 0.942912,1 1.960192,1 L 8,22" style="color:black;fill:#e4aa1c;fill-opacity:1;fill-rule:nonzero;stroke:none;stroke-width:1;marker:none;visibility:visible;display:inline;overflow:visible;enable-background:accumulate" inkscape:connector-curvature="0" sodipodi:nodetypes="cssssc" />
  <path style="color:black;fill:#7c5c0f;fill-opacity:1;fill-rule:nonzero;stroke:none;stroke-width:1;marker:none;visibility:visible;display:inline;overflow:visible;enable-background:accumulate" d="M 7,3 8,3 8,22 7,22 z" id="rect3859" inkscape:connector-curvature="0" />
  <path style="opacity:0.5;color:#000000;fill:url(#linearGradient3141);fill-opacity:1;fill-rule:nonzero;stroke:none;stroke-width:1;marker:none;visibility:visible;display:inline;overflow:visible;enable-background:accumulate" d="M 8,3 9,3 9,22 8,22 z" id="rect3843" inkscape:connector-curvature="0" />
  <path inkscape:connector-curvature="0" style="fill:none;stroke:url(#linearGradient3059)" id="path38" d="m 4.5,2.5 h 15 a 1,1 0 0 1 1,1 v 17 a 1,1 0 0 1 -1,1 h -15 a 1,1 0 0 1 -1,-1 v -17 a 1,1 0 0 1 1,-1" />
  <g clip-path="none" clip-rule="nonzero" id="g8309" transform="matrix(0.13415706,0,0,0.13415706,55.882654,-19.439414)" />
  <path inkscape:connector-curvature="0" id="path13561" d="m 17.188411,16.957176 c -0.281903,-0.440764 -0.446226,-0.872016 -0.365157,-0.95834 0.173754,-0.185017 1.179923,1.063401 1.191125,1.477902 0.01354,0.501064 -0.298893,0.304537 -0.825968,-0.519562 z m -6.873049,-0.06467 c 0,-0.313143 1.270584,-1.501127 1.427169,-1.334389 0.08096,0.08621 -0.128735,0.463395 -0.465969,0.838209 -0.605674,0.673172 -0.9612,0.856699 -0.9612,0.49618 z m 2.66697,-1.382997 c -2.528838,-1.223161 -2.331114,-4.736477 0.348485,-6.1921317 0.894156,-0.4857386 2.537482,-0.5913725 3.212801,-0.2065219 0.643541,0.3667432 0.282881,0.668443 -0.504627,0.4221316 -2.059804,-0.6442495 -4.220565,0.982327 -4.22369,3.179505 -0.0011,0.824811 0.121016,1.121965 0.726444,1.766644 0.634562,0.675703 0.865691,0.775044 1.803215,0.775044 0.852109,0 1.215928,-0.125947 1.75244,-0.60666 0.928733,-0.83214 1.138556,-1.508666 0.763977,-2.463275 -0.510788,-1.301749 -1.740446,-1.65178 -2.770826,-0.78874 -0.755035,0.632415 -0.744237,1.463075 0.02466,1.896209 0.537406,0.302731 0.553122,0.346423 0.180343,0.50136 -0.607396,0.252449 -1.491006,-0.903821 -1.303206,-1.705343 0.196391,-0.838182 0.694169,-1.355308 1.545557,-1.605627 1.629904,-0.479214 3.056031,0.717513 3.056031,2.56445 0,0.992746 -0.675299,1.913922 -1.802813,2.459213 -1.097933,0.530984 -1.717024,0.53181 -2.808778,0.0037 z m 5.039745,-5.045716 c 0,-0.227632 1.238654,-1.1339048 1.552046,-1.1355673 0.389461,-0.00219 0.101186,0.4569486 -0.560456,0.8923713 -0.80989,0.53299 -0.99159,0.577553 -0.99159,0.243196 z M 9.8336918,10.066357 C 9.2281089,9.6665517 9.0655661,9.3273805 9.4795483,9.3273805 c 0.3310209,0 1.4780387,0.7457475 1.4780387,0.9609645 0,0.291406 -0.494071,0.19382 -1.1238952,-0.221988 z M 14.267689,8.1334511 c -0.188413,-0.5228366 -0.02793,-1.8834514 0.222143,-1.8834514 0.293563,0 0.403455,1.7131573 0.12866,2.0057662 -0.152831,0.1627418 -0.261761,0.1247616 -0.350803,-0.1223158 z" style="color:black;fill:#7c5c0f;fill-opacity:1;fill-rule:nonzero;stroke:#7c5c0f;stroke-width:0.5;stroke-linecap:butt;stroke-linejoin:round;stroke-miterlimit:4;stroke-opacity:1;stroke-dasharray:none;stroke-dashoffset:0;marker:none;visibility:visible;display:inline;overflow:visible;enable-background:accumulate" />
</svg>
