<?xml version="1.0" encoding="UTF-8" standalone="no"?>
<!-- Created with Inkscape (http://www.inkscape.org/) -->

<svg
   xmlns:dc="http://purl.org/dc/elements/1.1/"
   xmlns:cc="http://creativecommons.org/ns#"
   xmlns:rdf="http://www.w3.org/1999/02/22-rdf-syntax-ns#"
   xmlns:svg="http://www.w3.org/2000/svg"
   xmlns="http://www.w3.org/2000/svg"
   xmlns:xlink="http://www.w3.org/1999/xlink"
   xmlns:sodipodi="http://sodipodi.sourceforge.net/DTD/sodipodi-0.dtd"
   xmlns:inkscape="http://www.inkscape.org/namespaces/inkscape"
   width="22"
   height="22"
   id="svg6662"
   version="1.1"
   inkscape:version="0.48.3.1 r9886"
   sodipodi:docname="gtk-quit.svg">
  <defs
     id="defs6664">
    <linearGradient
       y2="11.02436"
       y1="3.0069399"
       x2="0"
       id="linearGradient1022-8-8-3-0-06-59"
       gradientUnits="userSpaceOnUse">
      <stop
         id="stop3001-0-9-4-9-02"
         offset="0" />
      <stop
         id="stop3003-5-6-6-5-70"
         stop-color="#363636"
         offset="1" />
    </linearGradient>
    <linearGradient
       inkscape:collect="always"
       xlink:href="#linearGradient1022-8-8-3-0-06-59"
       id="linearGradient3242"
       gradientUnits="userSpaceOnUse"
       gradientTransform="matrix(1.6799908,0,0,1.5097214,-347.97499,1019.463)"
       x1="213.08154"
       y1="8.5440931"
       x2="213.08154"
       y2="20.466822" />
  </defs>
  <sodipodi:namedview
     id="base"
     pagecolor="#ffffff"
     bordercolor="#666666"
     borderopacity="1.0"
     inkscape:pageopacity="0.0"
     inkscape:pageshadow="2"
     inkscape:zoom="15.839192"
     inkscape:cx="15.591843"
     inkscape:cy="11.811042"
     inkscape:document-units="px"
     inkscape:current-layer="capa1"
     showgrid="true"
     inkscape:showpageshadow="false"
     inkscape:window-width="730"
     inkscape:window-height="702"
     inkscape:window-x="167"
     inkscape:window-y="155"
     inkscape:window-maximized="0">
    <inkscape:grid
       type="xygrid"
       id="grid3199"
       empspacing="5"
       visible="true"
       enabled="true"
       snapvisiblegridlinesonly="true" />
  </sodipodi:namedview>
  <metadata
     id="metadata6667">
    <rdf:RDF>
      <cc:Work
         rdf:about="">
        <dc:format>image/svg+xml</dc:format>
        <dc:type
           rdf:resource="http://purl.org/dc/dcmitype/StillImage" />
        <dc:title />
      </cc:Work>
    </rdf:RDF>
  </metadata>
  <g
     inkscape:label="Capa 1"
     inkscape:groupmode="layer"
     id="capa1"
     transform="translate(0,-1030.3622)">
    <rect
       y="1029.3622"
       x="-1"
       height="23.999996"
       width="23.999996"
       id="rect3123"
       style="opacity:0.6;color:#000000;fill:none;stroke:none;stroke-width:1;marker:none;visibility:visible;display:inline;overflow:visible;enable-background:accumulate" />
    <path
       id="path3255"
       d="m 4.000003,1033.3622 -2,2 0,14 2,2 9,0 2,-2 0,-2 -2,0 0,1 -1,1 -7,0 -1,-1 0,-12 1,-1 7,0 1,1 0,1 2,0 0,-2 -2,-2 -9,0 z m 11,5 3,3 -8,0 0,2 8,0 -3,3 3,0 4,-4 -4,-4 -3,0 z"
       style="opacity:0.6;color:#000000;fill:#ffffff;fill-opacity:1;fill-rule:nonzero;stroke:none;stroke-width:1;marker:none;visibility:visible;display:inline;overflow:visible;enable-background:accumulate"
       inkscape:connector-curvature="0" />
    <path
       style="opacity:0.7;color:#000000;fill:url(#linearGradient3242);fill-opacity:1;fill-rule:nonzero;stroke:none;stroke-width:1;marker:none;visibility:visible;display:inline;overflow:visible;enable-background:accumulate"
       d="m 4.000003,1032.3622 -2,2 0,14 2,2 9,0 2,-2 0,-2 -2,0 0,1 -1,1 -7,0 -1,-1 0,-12 1,-1 7,0 1,1 0,1 2,0 0,-2 -2,-2 -9,0 z m 11,5 3,3 -8,0 0,2 8,0 -3,3 3,0 4,-4 -4,-4 -3,0 z"
       id="path3208"
       inkscape:connector-curvature="0" />
  </g>
</svg>
