<?xml version="1.0" encoding="UTF-8" standalone="no"?>
<!-- Created with Inkscape (http://www.inkscape.org/) -->

<svg
   xmlns:dc="http://purl.org/dc/elements/1.1/"
   xmlns:cc="http://creativecommons.org/ns#"
   xmlns:rdf="http://www.w3.org/1999/02/22-rdf-syntax-ns#"
   xmlns:svg="http://www.w3.org/2000/svg"
   xmlns="http://www.w3.org/2000/svg"
   xmlns:xlink="http://www.w3.org/1999/xlink"
   xmlns:sodipodi="http://sodipodi.sourceforge.net/DTD/sodipodi-0.dtd"
   xmlns:inkscape="http://www.inkscape.org/namespaces/inkscape"
   width="22"
   height="22"
   id="svg6662"
   version="1.1"
   inkscape:version="0.48.3.1 r9886"
   sodipodi:docname="document-properties.svg">
  <defs
     id="defs6664">
    <linearGradient
       y2="11.02436"
       y1="3.0069399"
       x2="0"
       id="linearGradient1022-8-8-3-0-06-59"
       gradientUnits="userSpaceOnUse">
      <stop
         id="stop3001-0-9-4-9-02"
         offset="0" />
      <stop
         id="stop3003-5-6-6-5-70"
         stop-color="#363636"
         offset="1" />
    </linearGradient>
    <linearGradient
       inkscape:collect="always"
       xlink:href="#linearGradient1022-8-8-3-0-06-59"
       id="linearGradient3602"
       gradientUnits="userSpaceOnUse"
       gradientTransform="matrix(1.6799908,0,0,1.5097214,-348.975,1019.4641)"
       x1="213.08154"
       y1="7.8809905"
       x2="213.08154"
       y2="21.128468" />
  </defs>
  <sodipodi:namedview
     id="base"
     pagecolor="#ffffff"
     bordercolor="#666666"
     borderopacity="1.0"
     inkscape:pageopacity="0.0"
     inkscape:pageshadow="2"
     inkscape:zoom="22.4"
     inkscape:cx="12.472164"
     inkscape:cy="12.808006"
     inkscape:document-units="px"
     inkscape:current-layer="capa1"
     showgrid="true"
     inkscape:showpageshadow="false"
     inkscape:window-width="730"
     inkscape:window-height="702"
     inkscape:window-x="126"
     inkscape:window-y="165"
     inkscape:window-maximized="0">
    <inkscape:grid
       type="xygrid"
       id="grid3199"
       empspacing="5"
       visible="true"
       enabled="true"
       snapvisiblegridlinesonly="true" />
  </sodipodi:namedview>
  <metadata
     id="metadata6667">
    <rdf:RDF>
      <cc:Work
         rdf:about="">
        <dc:format>image/svg+xml</dc:format>
        <dc:type
           rdf:resource="http://purl.org/dc/dcmitype/StillImage" />
        <dc:title />
      </cc:Work>
    </rdf:RDF>
  </metadata>
  <g
     inkscape:label="Capa 1"
     inkscape:groupmode="layer"
     id="capa1"
     transform="translate(0,-1030.3622)">
    <rect
       y="1029.3622"
       x="-1"
       height="23.999996"
       width="23.999996"
       id="rect3123"
       style="opacity:0.6;color:#000000;fill:none;stroke:none;stroke-width:1;marker:none;visibility:visible;display:inline;overflow:visible;enable-background:accumulate" />
    <path
       id="path3969"
       d="m 5.000003,1032.3622 -3,3 0,14 3,3 12,0 3,-3 0,-14 -3,-3 -12,0 z m 1,2 10,0 2,2 0,12 -2,2 -10,0 -2,-2 0,-12 2,-2 z m 4.53125,3 0,0.9688 c -0.713773,0.08 -1.351986,0.3509 -1.90625,0.75 l -0.8125,-0.8125 -0.90625,0.9062 0.8125,0.8125 c -0.4052728,0.5574 -0.6690636,1.186 -0.75,1.9063 l -0.96875,0 0,0.9375 0.96875,0 c 0.080182,0.7139 0.3508363,1.3519 0.75,1.9062 l -0.8125,0.8125 0.90625,0.9063 0.8125,-0.8125 c 0.554264,0.3991 1.192477,0.6698 1.90625,0.75 l 0,0.9687 0.9375,0 0,-0.9687 c 0.713773,-0.08 1.351986,-0.3509 1.90625,-0.75 l 0.8125,0.8125 0.90625,-0.9063 -0.8125,-0.8125 c 0.399163,-0.5543 0.669791,-1.1923 0.75,-1.9062 l 0.96875,0 0,-0.9375 -0.96875,0 c -0.08091,-0.7203 -0.344728,-1.3489 -0.75,-1.9063 l 0.8125,-0.8125 -0.90625,-0.9062 -0.8125,0.8125 c -0.554264,-0.3991 -1.192477,-0.6698 -1.90625,-0.75 l 0,-0.9688 -0.9375,0 z m 0.46875,2.7188 c 1.255191,0 2.28125,1.026 2.28125,2.2812 0,1.2552 -1.026059,2.2813 -2.28125,2.2813 -1.255191,0 -2.28125,-1.0261 -2.28125,-2.2813 0,-1.2552 1.026059,-2.2812 2.28125,-2.2812 z"
       style="opacity:0.6;color:#000000;fill:#ffffff;fill-opacity:1;fill-rule:nonzero;stroke:none;stroke-width:0.66666675;marker:none;visibility:visible;display:inline;overflow:visible;enable-background:accumulate"
       inkscape:connector-curvature="0" />
    <path
       style="opacity:0.7;color:#000000;fill:url(#linearGradient3602);fill-opacity:1;fill-rule:nonzero;stroke:none;stroke-width:1;marker:none;visibility:visible;display:inline;overflow:visible;enable-background:accumulate"
       d="m 5.000003,1031.3622 -3,3 0,14 3,3 12,0 3,-3 0,-14 -3,-3 -12,0 z m 1,2 10,0 2,2 0,12 -2,2 -10,0 -2,-2 0,-12 2,-2 z m 4.53125,3 0,0.9688 c -0.713773,0.08 -1.351986,0.3509 -1.90625,0.75 l -0.8125,-0.8125 -0.90625,0.9062 0.8125,0.8125 c -0.4052728,0.5574 -0.6690636,1.186 -0.75,1.9063 l -0.96875,0 0,0.9375 0.96875,0 c 0.080182,0.7139 0.3508363,1.3519 0.75,1.9062 l -0.8125,0.8125 0.90625,0.9063 0.8125,-0.8125 c 0.554264,0.3991 1.192477,0.6698 1.90625,0.75 l 0,0.9687 0.9375,0 0,-0.9687 c 0.713773,-0.08 1.351986,-0.3509 1.90625,-0.75 l 0.8125,0.8125 0.90625,-0.9063 -0.8125,-0.8125 c 0.399163,-0.5543 0.669791,-1.1923 0.75,-1.9062 l 0.96875,0 0,-0.9375 -0.96875,0 c -0.08091,-0.7203 -0.344728,-1.3489 -0.75,-1.9063 l 0.8125,-0.8125 -0.90625,-0.9062 -0.8125,0.8125 c -0.554264,-0.3991 -1.192477,-0.6698 -1.90625,-0.75 l 0,-0.9688 -0.9375,0 z m 0.46875,2.7188 c 1.255191,0 2.28125,1.026 2.28125,2.2812 0,1.2552 -1.026059,2.2813 -2.28125,2.2813 -1.255191,0 -2.28125,-1.0261 -2.28125,-2.2813 0,-1.2552 1.026059,-2.2812 2.28125,-2.2812 z"
       id="path3208"
       inkscape:connector-curvature="0" />
  </g>
</svg>
