<?xml version="1.0" encoding="UTF-8" standalone="no"?>
<!-- Created with Inkscape (http://www.inkscape.org/) -->

<svg
   xmlns:dc="http://purl.org/dc/elements/1.1/"
   xmlns:cc="http://creativecommons.org/ns#"
   xmlns:rdf="http://www.w3.org/1999/02/22-rdf-syntax-ns#"
   xmlns:svg="http://www.w3.org/2000/svg"
   xmlns="http://www.w3.org/2000/svg"
   xmlns:xlink="http://www.w3.org/1999/xlink"
   xmlns:sodipodi="http://sodipodi.sourceforge.net/DTD/sodipodi-0.dtd"
   xmlns:inkscape="http://www.inkscape.org/namespaces/inkscape"
   width="22"
   height="22"
   id="svg6662"
   version="1.1"
   inkscape:version="0.48.3.1 r9886"
   sodipodi:docname="document-revert.svg">
  <defs
     id="defs6664">
    <linearGradient
       y2="11.02436"
       y1="3.0069399"
       x2="0"
       id="linearGradient1022-8-8-3-0-06-59"
       gradientUnits="userSpaceOnUse">
      <stop
         id="stop3001-0-9-4-9-02"
         offset="0" />
      <stop
         id="stop3003-5-6-6-5-70"
         stop-color="#363636"
         offset="1" />
    </linearGradient>
    <linearGradient
       y2="22.45323"
       x2="213.08154"
       y1="9.2057524"
       x1="213.08154"
       gradientTransform="matrix(1.119994,0,0,1.0064811,83.016638,141.49574)"
       gradientUnits="userSpaceOnUse"
       id="linearGradient10140"
       xlink:href="#linearGradient1022-8-8-3-0-06-59"
       inkscape:collect="always" />
  </defs>
  <sodipodi:namedview
     id="base"
     pagecolor="#ffffff"
     bordercolor="#666666"
     borderopacity="1.0"
     inkscape:pageopacity="0.0"
     inkscape:pageshadow="2"
     inkscape:zoom="3.959798"
     inkscape:cx="31.628015"
     inkscape:cy="13.89448"
     inkscape:document-units="px"
     inkscape:current-layer="capa1"
     showgrid="false"
     inkscape:showpageshadow="false"
     inkscape:window-width="730"
     inkscape:window-height="702"
     inkscape:window-x="484"
     inkscape:window-y="100"
     inkscape:window-maximized="0" />
  <metadata
     id="metadata6667">
    <rdf:RDF>
      <cc:Work
         rdf:about="">
        <dc:format>image/svg+xml</dc:format>
        <dc:type
           rdf:resource="http://purl.org/dc/dcmitype/StillImage" />
        <dc:title />
      </cc:Work>
    </rdf:RDF>
  </metadata>
  <g
     inkscape:label="Capa 1"
     inkscape:groupmode="layer"
     id="capa1"
     transform="translate(0,-1030.3622)">
    <g
       id="document-revert"
       transform="matrix(1.4999998,0,0,1.4999998,-473.49994,344.81902)">
      <rect
         style="opacity:0.6;color:#000000;fill:none;stroke:none;stroke-width:1;marker:none;visibility:visible;display:inline;overflow:visible;enable-background:accumulate"
         id="rect3123"
         width="16"
         height="16"
         x="315"
         y="456.36218" />
      <path
         sodipodi:nodetypes="ccccccccccccccccccccccccccccccc"
         inkscape:connector-curvature="0"
         id="path6605"
         d="m 319.00003,458.36219 -2,2 0,9.33334 2,2 7.33333,0 2,-2 0,-2.66667 -1.33336,-7.4e-4 0,2 -1.33331,1.33407 -6,0 -1.33333,-1.33333 0,-8 1.33333,-1.33333 6,0 1.33334,1.33333 -3e-5,1.99926 1.33336,7.4e-4 0,-2.66667 -2,-2 z m 4,3.33334 -3.33334,3.33333 3.33334,3.33333 2,0 -2.66667,-2.66666 6,0 0,-1.33334 -6,0 2.66667,-2.66666 z"
         style="opacity:0.6;color:#000000;fill:#ffffff;fill-opacity:1;fill-rule:nonzero;stroke:none;stroke-width:0.66666675;marker:none;visibility:visible;display:inline;overflow:visible;enable-background:accumulate" />
      <path
         style="opacity:0.7;color:#000000;fill:url(#linearGradient10140);fill-opacity:1;fill-rule:nonzero;stroke:none;stroke-width:1;marker:none;visibility:visible;display:inline;overflow:visible;enable-background:accumulate"
         d="m 319.00003,149.42782 -2,2 0,9.33334 2,2 7.33333,0 2,-2 0,-2.66667 -1.33336,-7.4e-4 0,2 -1.33331,1.33407 -6,0 -1.33333,-1.33333 0,-8 1.33333,-1.33333 6,0 1.33334,1.33333 -3e-5,1.99926 1.33336,7.4e-4 0,-2.66667 -2,-2 z m 4,3.33334 -3.33334,3.33333 3.33334,3.33333 2,0 -2.66667,-2.66666 6,0 0,-1.33334 -6,0 2.66667,-2.66666 z"
         transform="translate(0,308.2677)"
         id="path7247"
         inkscape:connector-curvature="0"
         sodipodi:nodetypes="ccccccccccccccccccccccccccccccc" />
    </g>
  </g>
</svg>
