<?xml version="1.0" encoding="UTF-8" standalone="no"?>
<!-- Created with Inkscape (http://www.inkscape.org/) -->

<svg
   xmlns:dc="http://purl.org/dc/elements/1.1/"
   xmlns:cc="http://creativecommons.org/ns#"
   xmlns:rdf="http://www.w3.org/1999/02/22-rdf-syntax-ns#"
   xmlns:svg="http://www.w3.org/2000/svg"
   xmlns="http://www.w3.org/2000/svg"
   xmlns:xlink="http://www.w3.org/1999/xlink"
   xmlns:sodipodi="http://sodipodi.sourceforge.net/DTD/sodipodi-0.dtd"
   xmlns:inkscape="http://www.inkscape.org/namespaces/inkscape"
   width="22"
   height="22"
   id="svg6662"
   version="1.1"
   inkscape:version="0.48.4 r9939"
   sodipodi:docname="gtk-find-and-replace.svg">
  <defs
     id="defs6664">
    <linearGradient
       inkscape:collect="always"
       xlink:href="#linearGradient1022-8-8-3-0-27-2"
       id="linearGradient4380"
       gradientUnits="userSpaceOnUse"
       gradientTransform="matrix(1.679991,0,0,1.5097216,94.524957,449.09902)"
       x1="39.271069"
       y1="-296.74573"
       x2="39.271069"
       y2="-281.84232" />
    <linearGradient
       y2="11.02436"
       y1="3.0069399"
       x2="0"
       id="linearGradient1022-8-8-3-0-27-2"
       gradientUnits="userSpaceOnUse">
      <stop
         id="stop3001-0-9-4-6-8"
         offset="0" />
      <stop
         id="stop3003-5-6-6-01-8"
         stop-color="#363636"
         offset="1" />
    </linearGradient>
  </defs>
  <sodipodi:namedview
     id="base"
     pagecolor="#ffffff"
     bordercolor="#666666"
     borderopacity="1.0"
     inkscape:pageopacity="0.0"
     inkscape:pageshadow="2"
     inkscape:zoom="3.959798"
     inkscape:cx="31.628015"
     inkscape:cy="13.136866"
     inkscape:document-units="px"
     inkscape:current-layer="capa1"
     showgrid="false"
     inkscape:showpageshadow="false"
     inkscape:window-width="730"
     inkscape:window-height="702"
     inkscape:window-x="484"
     inkscape:window-y="100"
     inkscape:window-maximized="0" />
  <metadata
     id="metadata6667">
    <rdf:RDF>
      <cc:Work
         rdf:about="">
        <dc:format>image/svg+xml</dc:format>
        <dc:type
           rdf:resource="http://purl.org/dc/dcmitype/StillImage" />
        <dc:title />
      </cc:Work>
    </rdf:RDF>
  </metadata>
  <g
     inkscape:label="Capa 1"
     inkscape:groupmode="layer"
     id="capa1"
     transform="translate(0,-1030.3622)">
    <g
       id="edit-find-replace"
       inkscape:label="#edit-find-replace"
       transform="translate(-146,721.00002)">
      <path
         style="opacity:0.6;color:#000000;fill:#ffffff;fill-opacity:1;fill-rule:nonzero;stroke:none;stroke-width:1;marker:none;visibility:visible;display:inline;overflow:visible;enable-background:accumulate"
         d="m 150,311.36145 -2,2 0,11 2,2 11,0 5,5 2,-2 -5,-5 0,-10.5 -2.5,-2.5 z m 1,2 9,0 1,1 0,9 -1,1 -9,0 -1,-1 0,-9 z m -1,15.00073 -1,1 0,1 1,1 1,0 1,-1 0,-1 -1,-1 z m 4,-7.3e-4 -1,1 0,1 1,1 1,0 1,-1 0,-1 -1,-1 z m 4,7.3e-4 -1,1 0,1 1,1 1,0 1,-1 0,-1 -1,-1 z"
         id="path6315"
         inkscape:connector-curvature="0"
         sodipodi:nodetypes="ccccccccccccccccccccccccccccccccccccccccccccccc" />
      <path
         sodipodi:nodetypes="ccccccccccccccccccccccccccccccccccccccccccccccc"
         inkscape:connector-curvature="0"
         id="path4358"
         transform="translate(0,308.2677)"
         d="m 150,2.09375 -2,2 0,11 2,2 11,0 5,5 2,-2 -5,-5 0,-10.5 -2.5,-2.5 z m 1,2 9,0 1,1 0,9 -1,1 -9,0 -1,-1 0,-9 z m -1,15.000732 -1,1 0,1 1,1 1,0 1,-1 0,-1 -1,-1 z m 4,-7.32e-4 -1,1 0,1 1,1 1,0 1,-1 0,-1 -1,-1 z m 4,7.32e-4 -1,1 0,1 1,1 1,0 1,-1 0,-1 -1,-1 z"
         style="opacity:0.7;color:#000000;fill:url(#linearGradient4380);fill-opacity:1;fill-rule:nonzero;stroke:none;stroke-width:1;marker:none;visibility:visible;display:inline;overflow:visible;enable-background:accumulate" />
      <rect
         style="opacity:0.6;color:#000000;fill:none;stroke:none;stroke-width:1;marker:none;visibility:visible;display:inline;overflow:visible;enable-background:accumulate"
         id="rect4360"
         width="24"
         height="24"
         x="145"
         y="308.36218" />
    </g>
  </g>
</svg>
