<?xml version="1.0" encoding="UTF-8" standalone="no"?>
<svg
   xmlns:dc="http://purl.org/dc/elements/1.1/"
   xmlns:cc="http://creativecommons.org/ns#"
   xmlns:rdf="http://www.w3.org/1999/02/22-rdf-syntax-ns#"
   xmlns:svg="http://www.w3.org/2000/svg"
   xmlns="http://www.w3.org/2000/svg"
   xmlns:xlink="http://www.w3.org/1999/xlink"
   xmlns:sodipodi="http://sodipodi.sourceforge.net/DTD/sodipodi-0.dtd"
   xmlns:inkscape="http://www.inkscape.org/namespaces/inkscape"
   viewBox="0 0 22 22"
   id="svg3214"
   version="1.1"
   inkscape:version="0.48.3.1 r9886"
   width="100%"
   height="100%"
   sodipodi:docname="edit-find.svg">
  <metadata
     id="metadata3227">
    <rdf:RDF>
      <cc:Work
         rdf:about="">
        <dc:format>image/svg+xml</dc:format>
        <dc:type
           rdf:resource="http://purl.org/dc/dcmitype/StillImage" />
        <dc:title />
      </cc:Work>
    </rdf:RDF>
  </metadata>
  <sodipodi:namedview
     pagecolor="#ffffff"
     bordercolor="#666666"
     borderopacity="1"
     objecttolerance="10"
     gridtolerance="10"
     guidetolerance="10"
     inkscape:pageopacity="0"
     inkscape:pageshadow="2"
     inkscape:window-width="858"
     inkscape:window-height="763"
     id="namedview3225"
     showgrid="true"
     inkscape:zoom="19.666667"
     inkscape:cx="12"
     inkscape:cy="12.152542"
     inkscape:window-x="216"
     inkscape:window-y="90"
     inkscape:window-maximized="0"
     inkscape:current-layer="svg3214">
    <inkscape:grid
       type="xygrid"
       id="grid3000"
       empspacing="5"
       visible="true"
       enabled="true"
       snapvisiblegridlinesonly="true" />
  </sodipodi:namedview>
  <defs
     id="defs3216">
    <linearGradient
       gradientUnits="userSpaceOnUse"
       id="linearGradient3184"
       x2="0"
       y1="0.95683998"
       y2="10.0293">
      <stop
         offset="0"
         id="stop3219" />
      <stop
         offset="1"
         stop-color="#363636"
         id="stop3221" />
    </linearGradient>
    <linearGradient
       gradientTransform="matrix(0,1.333302,1.333302,0,-688.6496,-131.39689)"
       y2="11.02436"
       x2="0"
       y1="3.0069399"
       gradientUnits="userSpaceOnUse"
       id="linearGradient3245"
       xlink:href="#linearGradient951-5"
       inkscape:collect="always" />
    <linearGradient
       y2="11.02436"
       x2="0"
       y1="3.0069399"
       gradientUnits="userSpaceOnUse"
       id="linearGradient3242"
       xlink:href="#linearGradient951-5"
       inkscape:collect="always" />
    <linearGradient
       y2="11.02436"
       x2="0"
       y1="3.0069399"
       gradientUnits="userSpaceOnUse"
       id="linearGradient3240"
       xlink:href="#linearGradient951-5"
       inkscape:collect="always" />
    <linearGradient
       y2="11.02436"
       x2="0"
       y1="3.0069399"
       gradientUnits="userSpaceOnUse"
       id="linearGradient3233"
       xlink:href="#linearGradient951-5"
       inkscape:collect="always" />
    <linearGradient
       y2="11.02436"
       x2="0"
       y1="3.0069399"
       gradientUnits="userSpaceOnUse"
       id="linearGradient3231"
       xlink:href="#linearGradient951-5"
       inkscape:collect="always" />
    <linearGradient
       y2="11.02436"
       x2="0"
       y1="3.0069399"
       gradientUnits="userSpaceOnUse"
       id="linearGradient3229"
       xlink:href="#linearGradient951-5"
       inkscape:collect="always" />
    <linearGradient
       y2="11.02436"
       y1="3.0069399"
       x2="0"
       id="linearGradient951-5"
       gradientUnits="userSpaceOnUse">
      <stop
         id="stop3194"
         offset="0" />
      <stop
         id="stop3196"
         stop-color="#363636"
         offset="1" />
    </linearGradient>
    <linearGradient
       inkscape:collect="always"
       xlink:href="#linearGradient951-5"
       id="linearGradient3276"
       gradientUnits="userSpaceOnUse"
       gradientTransform="matrix(0,1.333302,1.333302,0,-689.05699,-130.88002)"
       y1="3.0069399"
       x2="0"
       y2="11.02436" />
    <linearGradient
       gradientUnits="userSpaceOnUse"
       id="linearGradient3184-4"
       x2="0"
       y1="0.95683998"
       y2="10.0293">
      <stop
         offset="0"
         id="stop3219-8" />
      <stop
         offset="1"
         stop-color="#363636"
         id="stop3221-4" />
    </linearGradient>
    <linearGradient
       gradientTransform="translate(-3,-3)"
       y2="10.0293"
       x2="0"
       y1="0.95683998"
       gradientUnits="userSpaceOnUse"
       id="linearGradient3367"
       xlink:href="#linearGradient3184-4"
       inkscape:collect="always" />
    <linearGradient
       inkscape:collect="always"
       xlink:href="#linearGradient3184-4"
       id="linearGradient3001"
       gradientUnits="userSpaceOnUse"
       y1="0.95683998"
       x2="0"
       y2="10.0293"
       gradientTransform="translate(-1,-0.9999996)" />
  </defs>
  <path
     id="path3312"
     style="opacity:0.6;color:#000000;fill:#ffffff;fill-opacity:1;fill-rule:nonzero;stroke-width:1;stroke-linecap:butt;stroke-linejoin:miter;stroke-miterlimit:4;stroke-opacity:1;stroke-dasharray:none;stroke-dashoffset:0;marker:none;visibility:visible;display:inline;overflow:visible;enable-background:accumulate"
     d="m 8.14696,5.1217428 c 2.19442,0 3.95162,1.69829 3.95162,3.8191302 0,2.120839 -1.7572,3.819129 -3.95162,3.819129 -2.19442,0 -3.95162,-1.69829 -3.95162,-3.819129 0,-2.1208402 1.7572,-3.8191302 3.95162,-3.8191302 z m 0,-2.12174 C 4.75829,3.0000028 2,5.6658128 2,8.940873 c 0,3.275059 2.75829,5.940869 6.14696,5.940869 1.06456,0 2.05297,-0.28018 2.92713,-0.74261 l 6.58603,6.64811 c 0.11834,0.12744 0.29017,0.22109 0.47566,0.21217 0.18549,-0.0089 0.38287,-0.10818 0.51225,-0.24754 l 1.17085,-1.27304 c 0.24077,-0.26467 0.24222,-0.62715 0,-0.84869 l -6.6958,-6.25913 c 0.71773,-0.97197 1.17085,-2.14808 1.17085,-3.430139 0,-3.2750602 -2.75829,-5.9408702 -6.14696,-5.9408702 z"
     inkscape:connector-curvature="0" />
  <path
     id="path3223"
     d="m 8.14696,4.1217404 c 2.19442,0 3.95162,1.69829 3.95162,3.81913 0,2.1208396 -1.7572,3.8191296 -3.95162,3.8191296 -2.19442,0 -3.95162,-1.69829 -3.95162,-3.8191296 0,-2.12084 1.7572,-3.81913 3.95162,-3.81913 z m 0,-2.12174 C 4.75829,2.0000004 2,4.6658104 2,7.9408704 2,11.21593 4.75829,13.88174 8.14696,13.88174 c 1.06456,0 2.05297,-0.28018 2.92713,-0.74261 l 6.58603,6.64811 c 0.11834,0.12744 0.29017,0.22109 0.47566,0.21217 0.18549,-0.0089 0.38287,-0.10818 0.51225,-0.24754 l 1.17085,-1.27304 c 0.24077,-0.26467 0.24222,-0.62715 0,-0.84869 l -6.6958,-6.25913 c 0.71773,-0.97197 1.17085,-2.14808 1.17085,-3.4301396 0,-3.27506 -2.75829,-5.94087 -6.14696,-5.94087 z"
     style="opacity:0.7;color:#000000;fill:url(#linearGradient3001);fill-opacity:1;fill-rule:nonzero;stroke-width:1;stroke-linecap:butt;stroke-linejoin:miter;stroke-miterlimit:4;stroke-opacity:1;stroke-dasharray:none;stroke-dashoffset:0;marker:none;visibility:visible;display:inline;overflow:visible;enable-background:accumulate"
     inkscape:connector-curvature="0" />
</svg>
