<?xml version="1.0" encoding="UTF-8" standalone="no"?>
<!-- Created with Inkscape (http://www.inkscape.org/) -->

<svg xmlns:dc="http://purl.org/dc/elements/1.1/" xmlns:cc="http://creativecommons.org/ns#" xmlns:rdf="http://www.w3.org/1999/02/22-rdf-syntax-ns#" xmlns:svg="http://www.w3.org/2000/svg" xmlns="http://www.w3.org/2000/svg" xmlns:xlink="http://www.w3.org/1999/xlink" xmlns:sodipodi="http://sodipodi.sourceforge.net/DTD/sodipodi-0.dtd" xmlns:inkscape="http://www.inkscape.org/namespaces/inkscape" width="22" height="22" id="svg6662" version="1.1" inkscape:version="0.48.3.1 r9886" sodipodi:docname="extract-archive.svg">
  <defs id="defs6664">
    <linearGradient y2="11.02436" y1="3.0069399" x2="0" id="linearGradient1022-8-8-3-0-2-99" gradientUnits="userSpaceOnUse">
      <stop id="stop3001-0-9-4-1-0" offset="0" />
      <stop id="stop3003-5-6-6-1-3" stop-color="#363636" offset="1" />
    </linearGradient>
    <linearGradient inkscape:collect="always" xlink:href="#linearGradient1022-8-8-3-0-2-99" id="linearGradient3033" gradientUnits="userSpaceOnUse" gradientTransform="matrix(1.679991,0,0,1.5097216,-194.97503,1477.3667)" x1="122.60484" y1="-294.75931" x2="122.60484" y2="-283.49896" />
  </defs>
  <sodipodi:namedview id="base" pagecolor="#ffffff" bordercolor="#666666" borderopacity="1.0" inkscape:pageopacity="0.0" inkscape:pageshadow="2" inkscape:zoom="14.641745" inkscape:cx="16.530373" inkscape:cy="9.6585106" inkscape:document-units="px" inkscape:current-layer="g3100" showgrid="true" inkscape:showpageshadow="false" inkscape:window-width="1280" inkscape:window-height="976" inkscape:window-x="0" inkscape:window-y="24" inkscape:window-maximized="1" width="22px" showguides="true" inkscape:guide-bbox="true">
    <inkscape:grid type="xygrid" id="grid3021" empspacing="5" visible="true" enabled="true" snapvisiblegridlinesonly="true" />
  </sodipodi:namedview>
  <metadata id="metadata6667">
    <rdf:RDF>
      <cc:Work rdf:about="">
        <dc:format>image/svg+xml</dc:format>
        <dc:type rdf:resource="http://purl.org/dc/dcmitype/StillImage" />
        <dc:title />
      </cc:Work>
    </rdf:RDF>
  </metadata>
  <g inkscape:label="Capa 1" inkscape:groupmode="layer" id="capa1" transform="translate(0,-1030.3622)">
    <g id="g3100">
      <path sodipodi:nodetypes="ccccccccccccccccccccc" inkscape:connector-curvature="0" id="path3035" d="m 11,1033.3622 -3,5 2,0 0,6 2,0 0,-6 2,0 z m -9,3 0,12 2,2 14,0 2,-2 0,-12 -2,0 0,11 -1,1 -12,0 -1,-1 0,-11 z" style="opacity:0.6;color:black;fill:white;fill-opacity:1;fill-rule:nonzero;stroke:none;stroke-width:1;marker:none;visibility:visible;display:inline;overflow:visible;enable-background:accumulate" />
      <path style="opacity:0.7;color:black;fill:url(#linearGradient3033);fill-opacity:1;fill-rule:nonzero;stroke:none;stroke-width:1;marker:none;visibility:visible;display:inline;overflow:visible;enable-background:accumulate" d="m 11,1032.3622 -3,5 2,0 0,6 2,0 0,-6 2,0 z m -9,3 0,12 2,2 14,0 2,-2 0,-12 -2,0 0,11 -1,1 -12,0 -1,-1 0,-11 z" id="path3004" inkscape:connector-curvature="0" sodipodi:nodetypes="ccccccccccccccccccccc" />
    </g>
  </g>
</svg>
