<?xml version="1.0" encoding="UTF-8" standalone="no"?>
<!-- Created with Inkscape (http://www.inkscape.org/) -->

<svg
   xmlns:dc="http://purl.org/dc/elements/1.1/"
   xmlns:cc="http://creativecommons.org/ns#"
   xmlns:rdf="http://www.w3.org/1999/02/22-rdf-syntax-ns#"
   xmlns:svg="http://www.w3.org/2000/svg"
   xmlns="http://www.w3.org/2000/svg"
   xmlns:xlink="http://www.w3.org/1999/xlink"
   xmlns:sodipodi="http://sodipodi.sourceforge.net/DTD/sodipodi-0.dtd"
   xmlns:inkscape="http://www.inkscape.org/namespaces/inkscape"
   width="22"
   height="22"
   id="svg6662"
   version="1.1"
   inkscape:version="0.48.4 r9939"
   sodipodi:docname="gtk-strikethrough.svg">
  <defs
     id="defs6664">
    <linearGradient
       y2="11.02436"
       y1="3.0069399"
       x2="0"
       id="linearGradient1022-8-8-3-0-2-3-3-9-7"
       gradientUnits="userSpaceOnUse">
      <stop
         id="stop3001-0-9-4-1-4-7-9-1"
         offset="0" />
      <stop
         id="stop3003-5-6-6-1-1-1-1-8"
         stop-color="#363636"
         offset="1" />
    </linearGradient>
    <linearGradient
       inkscape:collect="always"
       xlink:href="#linearGradient1022-8-8-3-0-2-3-3-9-7"
       id="linearGradient3876"
       gradientUnits="userSpaceOnUse"
       gradientTransform="matrix(1.824983,0,0,1.5098212,-299.41866,-655.85729)"
       x1="170.17093"
       y1="1119.1302"
       x2="170.17093"
       y2="1129.4154" />
  </defs>
  <sodipodi:namedview
     id="base"
     pagecolor="#ffffff"
     bordercolor="#666666"
     borderopacity="1.0"
     inkscape:pageopacity="0.0"
     inkscape:pageshadow="2"
     inkscape:zoom="11.313708"
     inkscape:cx="23.122044"
     inkscape:cy="24.028998"
     inkscape:document-units="px"
     inkscape:current-layer="capa1"
     showgrid="true"
     inkscape:showpageshadow="false"
     inkscape:window-width="1280"
     inkscape:window-height="949"
     inkscape:window-x="0"
     inkscape:window-y="0"
     inkscape:window-maximized="1">
    <inkscape:grid
       type="xygrid"
       id="grid3327"
       empspacing="5"
       visible="true"
       enabled="true"
       snapvisiblegridlinesonly="true" />
  </sodipodi:namedview>
  <metadata
     id="metadata6667">
    <rdf:RDF>
      <cc:Work
         rdf:about="">
        <dc:format>image/svg+xml</dc:format>
        <dc:type
           rdf:resource="http://purl.org/dc/dcmitype/StillImage" />
        <dc:title />
      </cc:Work>
    </rdf:RDF>
  </metadata>
  <g
     inkscape:label="Capa 1"
     inkscape:groupmode="layer"
     id="capa1"
     transform="translate(0,-1030.3622)">
    <path
       inkscape:connector-curvature="0"
       id="path3885"
       d="m 11,1034.3622 c -2.9004778,0 -4.1595107,0.361 -6,0.9998 l 0,2.3432 c 1.7929093,-0.7838 3.3567229,-1.3435 6,-1.3435 2.304104,0 3.907746,1.8612 4,3.999 l -3.53125,0 c -3.5557921,0 -6.6066272,1.4496 -7.3125,3.999 l -3.15625,0 0,1.9994 3.0625,0 c 0.4138993,2.4175 2.6425761,3.999 5.46875,3.999 2.878179,0.08 4.46875,-0.9997 5.46875,-2.9992 l 0,2.9992 3,0 0,-3.999 3,0 0,-1.9994 -3,0 0,-2.9993 c 0,-5.0159 -3.079033,-6.9622 -7,-6.9982 z m 0.1875,7.998 c 0.275662,-0.011 0.558431,7e-4 0.8125,0 l 3,0 c 0.0087,0.7094 -0.09661,1.3734 -0.25,1.9995 l -7.59375,0 c 0.5423528,-1.5897 2.400927,-1.9366 4.03125,-1.9995 z m -4.0625,3.9989 6.78125,0 c -0.848105,1.2177 -2.170016,1.9774 -3.90625,1.9995 -1.6464235,0 -2.5734522,-0.7028 -2.875,-1.9995 z"
       style="font-size:26.41190147px;font-style:normal;font-weight:normal;line-height:125%;letter-spacing:0px;word-spacing:0px;opacity:0.6;color:#000000;fill:#ffffff;fill-opacity:1;fill-rule:nonzero;stroke:none;stroke-width:0.66666669;marker:none;visibility:visible;display:inline;overflow:visible;enable-background:accumulate;font-family:Sans;-inkscape-font-specification:Sans" />
    <path
       style="opacity:0.6;color:#000000;fill:none;stroke:none;stroke-width:1;marker:none;visibility:visible;display:inline;overflow:visible;enable-background:accumulate"
       d="m -1,1029.3622 24,0 0,24 -24,0 z"
       id="rect2997"
       inkscape:connector-curvature="0" />
    <path
       style="font-size:26.41190147px;font-style:normal;font-weight:normal;line-height:125%;letter-spacing:0px;word-spacing:0px;opacity:0.75;color:#000000;fill:url(#linearGradient3876);fill-opacity:1;fill-rule:nonzero;stroke:none;stroke-width:1;marker:none;visibility:visible;display:inline;overflow:visible;enable-background:accumulate;font-family:Sans;-inkscape-font-specification:Sans"
       d="m 11,1033.3622 c -2.9004778,0 -4.1595107,0.361 -6,0.9998 l 0,2.3432 c 1.7929093,-0.7838 3.3567229,-1.3435 6,-1.3435 2.304104,0 3.907746,1.8612 4,3.999 l -3.53125,0 c -3.5557921,0 -6.6066272,1.4496 -7.3125,3.999 l -3.15625,0 0,1.9994 3.0625,0 c 0.4138993,2.4175 2.6425761,3.999 5.46875,3.999 2.878179,0.08 4.46875,-0.9997 5.46875,-2.9992 l 0,2.9992 3,0 0,-3.999 3,0 0,-1.9994 -3,0 0,-2.9993 c 0,-5.0159 -3.079033,-6.9622 -7,-6.9982 z m 0.1875,7.998 c 0.275662,-0.011 0.558431,7e-4 0.8125,0 l 3,0 c 0.0087,0.7094 -0.09661,1.3734 -0.25,1.9995 l -7.59375,0 c 0.5423528,-1.5897 2.400927,-1.9366 4.03125,-1.9995 z m -4.0625,3.9989 6.78125,0 c -0.848105,1.2177 -2.170016,1.9774 -3.90625,1.9995 -1.6464235,0 -2.5734522,-0.7028 -2.875,-1.9995 z"
       id="path3788"
       inkscape:connector-curvature="0" />
  </g>
</svg>
