<?xml version="1.0" encoding="UTF-8" standalone="no"?>
<svg
   xmlns:dc="http://purl.org/dc/elements/1.1/"
   xmlns:cc="http://creativecommons.org/ns#"
   xmlns:rdf="http://www.w3.org/1999/02/22-rdf-syntax-ns#"
   xmlns:svg="http://www.w3.org/2000/svg"
   xmlns="http://www.w3.org/2000/svg"
   xmlns:xlink="http://www.w3.org/1999/xlink"
   xmlns:sodipodi="http://sodipodi.sourceforge.net/DTD/sodipodi-0.dtd"
   xmlns:inkscape="http://www.inkscape.org/namespaces/inkscape"
   viewBox="0 0 22 22"
   id="svg2"
   version="1.1"
   inkscape:version="0.48.3.1 r9886"
   width="100%"
   height="100%"
   sodipodi:docname="go-bottom.svg">
  <metadata
     id="metadata19">
    <rdf:RDF>
      <cc:Work
         rdf:about="">
        <dc:format>image/svg+xml</dc:format>
        <dc:type
           rdf:resource="http://purl.org/dc/dcmitype/StillImage" />
      </cc:Work>
    </rdf:RDF>
  </metadata>
  <sodipodi:namedview
     pagecolor="#ffffff"
     bordercolor="#666666"
     borderopacity="1"
     objecttolerance="10"
     gridtolerance="10"
     guidetolerance="10"
     inkscape:pageopacity="0"
     inkscape:pageshadow="2"
     inkscape:window-width="869"
     inkscape:window-height="725"
     id="namedview17"
     showgrid="true"
     inkscape:zoom="19.666667"
     inkscape:cx="12"
     inkscape:cy="12.152542"
     inkscape:window-x="165"
     inkscape:window-y="160"
     inkscape:window-maximized="0"
     inkscape:current-layer="svg2">
    <inkscape:grid
       type="xygrid"
       id="grid2987"
       empspacing="5"
       visible="true"
       enabled="true"
       snapvisiblegridlinesonly="true" />
  </sodipodi:namedview>
  <defs
     id="defs4">
    <linearGradient
       gradientTransform="matrix(0,1.052632,0.984363,0,3.067548,47.665556)"
       gradientUnits="userSpaceOnUse"
       id="linearGradient1022-7"
       x2="0"
       y1="-0.06157"
       y2="8.08321">
      <stop
         offset="0"
         id="stop7" />
      <stop
         offset="1"
         stop-color="#363636"
         id="stop9" />
    </linearGradient>
    <linearGradient
       inkscape:collect="always"
       xlink:href="#linearGradient1022-7"
       id="linearGradient3732"
       gradientUnits="userSpaceOnUse"
       gradientTransform="matrix(0,1.0236103,0.93769206,0,3.4579852,43.308997)"
       y1="-0.06157"
       x2="0"
       y2="8.08321" />
  </defs>
  <path
     style="opacity:0.6;fill:#ffffff;fill-rule:evenodd"
     inkscape:connector-curvature="0"
     id="path13"
     d="M 11.044586,14.989648 4.4458599,8.205217 C 4.2126145,7.9767003 4.0439249,7.6587765 4.029724,7.3307791 c -5.802e-4,-0.013509 -1.522e-4,-0.046923 0,-0.060306 V 6.004046 H 5.3078556 C 5.6638967,5.975861 6.0121953,6.094766 6.2590234,6.3658823 L 11.044586,11.250672 15.800425,6.3658823 C 16.039063,6.1238283 16.385431,6.004046 16.721868,6.004046 H 18 v 1.2664271 c 0,0.3412936 -0.11803,0.6926801 -0.356688,0.9347439 l -6.598726,6.784431 z M 4,19 V 16.436993 H 17.970276 V 19 H 4 z" />
  <path
     inkscape:connector-curvature="0"
     style="opacity:0.7;fill:url(#linearGradient3732)"
     id="path15"
     d="M 4,15.40275 V 18 H 17.993437 V 15.40275 z M 4.0289777,5.0040198 v 1.2965397 c -1.524e-4,0.013485 -5.811e-4,0.026968 0,0.040581 0.014222,0.3305582 0.1633116,0.6610673 0.3969052,0.8913679 L 11.054217,14.079794 17.642789,7.2325064 C 17.881803,6.9885528 18,6.6445756 18,6.3006176 V 5.0040778 h -1.270085 c -0.33694,0 -0.67388,0.1207077 -0.912874,0.3646513 L 11.054217,10.31179 6.2517648,5.3687291 C 6.0045683,5.095496 5.6557784,4.9756732 5.2991962,5.0040778 H 4.0291111 z" />
</svg>
