<?xml version="1.0" encoding="UTF-8" standalone="no"?>
<svg
   xmlns:dc="http://purl.org/dc/elements/1.1/"
   xmlns:cc="http://creativecommons.org/ns#"
   xmlns:rdf="http://www.w3.org/1999/02/22-rdf-syntax-ns#"
   xmlns:svg="http://www.w3.org/2000/svg"
   xmlns="http://www.w3.org/2000/svg"
   xmlns:xlink="http://www.w3.org/1999/xlink"
   xmlns:sodipodi="http://sodipodi.sourceforge.net/DTD/sodipodi-0.dtd"
   xmlns:inkscape="http://www.inkscape.org/namespaces/inkscape"
   viewBox="0 0 22 22"
   id="svg2994"
   version="1.1"
   inkscape:version="0.48.3.1 r9886"
   width="100%"
   height="100%"
   sodipodi:docname="go-down.svg">
  <metadata
     id="metadata3017">
    <rdf:RDF>
      <cc:Work
         rdf:about="">
        <dc:format>image/svg+xml</dc:format>
        <dc:type
           rdf:resource="http://purl.org/dc/dcmitype/StillImage" />
      </cc:Work>
    </rdf:RDF>
  </metadata>
  <sodipodi:namedview
     pagecolor="#ffffff"
     bordercolor="#666666"
     borderopacity="1"
     objecttolerance="10"
     gridtolerance="10"
     guidetolerance="10"
     inkscape:pageopacity="0"
     inkscape:pageshadow="2"
     inkscape:window-width="640"
     inkscape:window-height="480"
     id="namedview3015"
     showgrid="false"
     inkscape:zoom="10.727273"
     inkscape:cx="11"
     inkscape:cy="11"
     inkscape:window-x="0"
     inkscape:window-y="24"
     inkscape:window-maximized="0"
     inkscape:current-layer="svg2994" />
  <defs
     id="defs2996">
    <linearGradient
       gradientUnits="userSpaceOnUse"
       id="linearGradient951-5"
       x2="0"
       y1="3.00694"
       y2="11.02436">
      <stop
         offset="0"
         id="stop2999" />
      <stop
         offset="1"
         stop-color="#363636"
         id="stop3001" />
    </linearGradient>
    <linearGradient
       inkscape:collect="always"
       xlink:href="#linearGradient951-5"
       id="linearGradient3745"
       gradientUnits="userSpaceOnUse"
       y1="3.00694"
       x2="0"
       y2="11.02436" />
    <linearGradient
       inkscape:collect="always"
       xlink:href="#linearGradient951-5"
       id="linearGradient3747"
       gradientUnits="userSpaceOnUse"
       y1="3.00694"
       x2="0"
       y2="11.02436" />
    <linearGradient
       inkscape:collect="always"
       xlink:href="#linearGradient951-5"
       id="linearGradient3749"
       gradientUnits="userSpaceOnUse"
       y1="3.00694"
       x2="0"
       y2="11.02436" />
    <linearGradient
       inkscape:collect="always"
       xlink:href="#linearGradient951-5"
       id="linearGradient3756"
       gradientUnits="userSpaceOnUse"
       y1="3.00694"
       x2="0"
       y2="11.02436" />
    <linearGradient
       inkscape:collect="always"
       xlink:href="#linearGradient951-5"
       id="linearGradient3758"
       gradientUnits="userSpaceOnUse"
       y1="3.00694"
       x2="0"
       y2="11.02436" />
    <linearGradient
       inkscape:collect="always"
       xlink:href="#linearGradient951-5"
       id="linearGradient3761"
       gradientUnits="userSpaceOnUse"
       y1="3.00694"
       x2="0"
       y2="11.02436"
       gradientTransform="matrix(0,-1.333302,1.333302,0,-689.64995,154.39039)" />
  </defs>
  <path
     d="m 3.66706,7.727208 0,1.333302 0,0.041732 C 3.681993,9.4421677 3.838496,9.782053 4.0837169,10.018887 l 6.9582361,7.041435 6.916504,-7.041435 c 0.250915,-0.2508736 0.374992,-0.6045986 0.374992,-0.9583103 l 0,-1.333302 -1.333302,0 c -0.353712,0 -0.707424,0.1241304 -0.958311,0.3749912 L 11.041953,13.18548 6.0004718,8.1022659 C 5.7409713,7.8212858 5.3748199,7.698062 5.0004953,7.7272747 l -1.333302,0 z"
     id="path3007"
     inkscape:connector-curvature="0"
     style="opacity:0.6;fill:#ffffff" />
  <path
     d="m 3.66709,6.393868 0,1.333302 0,0.041732 C 3.682023,8.1088277 3.838526,8.448713 4.0837469,8.6855475 l 6.9582361,7.0414345 6.916504,-7.0414345 c 0.250915,-0.2508741 0.374992,-0.6045991 0.374992,-0.9583108 l 0,-1.333302 -1.333302,0 c -0.353712,0 -0.707424,0.1241304 -0.958311,0.3749912 L 11.041983,11.85214 6.0005018,6.7689259 C 5.7410013,6.4879458 5.3748499,6.364722 5.0005253,6.3939347 l -1.333302,0 z"
     id="path3013"
     style="opacity:0.7;fill:url(#linearGradient3761)"
     inkscape:connector-curvature="0" />
</svg>
