<?xml version="1.0" encoding="UTF-8" standalone="no"?>
<svg
   xmlns:dc="http://purl.org/dc/elements/1.1/"
   xmlns:cc="http://creativecommons.org/ns#"
   xmlns:rdf="http://www.w3.org/1999/02/22-rdf-syntax-ns#"
   xmlns:svg="http://www.w3.org/2000/svg"
   xmlns="http://www.w3.org/2000/svg"
   xmlns:xlink="http://www.w3.org/1999/xlink"
   xmlns:sodipodi="http://sodipodi.sourceforge.net/DTD/sodipodi-0.dtd"
   xmlns:inkscape="http://www.inkscape.org/namespaces/inkscape"
   viewBox="0 0 22 22"
   id="svg3055"
   version="1.1"
   inkscape:version="0.48.3.1 r9886"
   width="100%"
   height="100%"
   sodipodi:docname="go-jump.svg">
  <metadata
     id="metadata3070">
    <rdf:RDF>
      <cc:Work
         rdf:about="">
        <dc:format>image/svg+xml</dc:format>
        <dc:type
           rdf:resource="http://purl.org/dc/dcmitype/StillImage" />
      </cc:Work>
    </rdf:RDF>
  </metadata>
  <sodipodi:namedview
     pagecolor="#ffffff"
     bordercolor="#666666"
     borderopacity="1"
     objecttolerance="10"
     gridtolerance="10"
     guidetolerance="10"
     inkscape:pageopacity="0"
     inkscape:pageshadow="2"
     inkscape:window-width="640"
     inkscape:window-height="480"
     id="namedview3068"
     showgrid="false"
     inkscape:zoom="10.727273"
     inkscape:cx="11"
     inkscape:cy="11.279661"
     inkscape:window-x="0"
     inkscape:window-y="24"
     inkscape:window-maximized="0"
     inkscape:current-layer="svg3055" />
  <defs
     id="defs3057">
    <linearGradient
       gradientUnits="userSpaceOnUse"
       id="linearGradient1022-1"
       x2="0"
       y1="3.00694"
       y2="11.02436">
      <stop
         offset="0"
         id="stop3060" />
      <stop
         offset="1"
         stop-color="#363636"
         id="stop3062" />
    </linearGradient>
    <linearGradient
       gradientUnits="userSpaceOnUse"
       id="linearGradient1022-1-7"
       x2="0"
       y1="3.0069399"
       y2="11.02436">
      <stop
         offset="0"
         id="stop3060-7" />
      <stop
         offset="1"
         stop-color="#363636"
         id="stop3062-6" />
    </linearGradient>
    <linearGradient
       gradientTransform="translate(-4.23442,-4.97166)"
       y2="11.02436"
       x2="0"
       y1="3.0069399"
       gradientUnits="userSpaceOnUse"
       id="linearGradient3639"
       xlink:href="#linearGradient1022-1-7"
       inkscape:collect="always" />
  </defs>
  <path
     d="m 8.18404,6.3125 c -2.168,0 -3.94962,1.78162 -3.94962,3.94962 v 0.56423 h 2.25693 v -0.56423 c 0,-0.94821 0.74448,-1.69269 1.6927,-1.69269 0.94822,0 1.6927,0.74448 1.6927,1.69269 v 5.74811 L 8.43091,14.56439 C 8.21617,14.35825 7.90972,14.21175 7.61983,14.21175 H 6.49137 v 1.12846 c 0,0.3492 0.1019,0.62327 0.31738,0.84635 l 4.19647,4.12594 4.19647,-4.12594 c 0.21548,-0.22307 0.31738,-0.49715 0.31738,-0.84635 v -1.12846 h -1.12846 c -0.28989,0 -0.59635,0.14651 -0.81108,0.35264 l -1.44584,1.44584 v -5.74811 c 0,-2.168 -1.78162,-3.94962 -3.94962,-3.94962 z"
     id="path3064"
     style="opacity:0.59999999999999998;color:#000000;fill:#ffffff;fill-opacity:1;fill-rule:nonzero;stroke-width:1;stroke-linecap:butt;stroke-linejoin:miter;stroke-miterlimit:4;stroke-opacity:1;stroke-dasharray:none;stroke-dashoffset:0;marker:none;visibility:visible;display:inline;overflow:visible;enable-background:accumulate" />
  <path
     d="m 8.18404,4.97167 c -2.168,0 -3.94962,1.78162 -3.94962,3.94962 V 9.48552 H 6.49135 V 8.92129 c 0,-0.94821 0.74448,-1.6927 1.6927,-1.6927 0.94822,0 1.6927,0.74448 1.6927,1.6927 V 14.6694 L 8.43091,13.22356 C 8.21617,13.01742 7.90972,12.87091 7.61983,12.87091 H 6.49137 v 1.12846 c 0,0.3492 0.1019,0.62327 0.31738,0.84635 l 4.19647,4.12594 4.19647,-4.12594 c 0.21548,-0.22307 0.31738,-0.49715 0.31738,-0.84635 v -1.12846 h -1.12846 c -0.28989,0 -0.59635,0.14651 -0.81108,0.35264 l -1.44584,1.44584 V 8.92128 c 0,-2.168 -1.78162,-3.94962 -3.94962,-3.94962 z"
     id="path3066"
     style="opacity:0.69999999999999996;color:#000000;fill:url(#linearGradient1022-1-7);fill-opacity:1;fill-rule:nonzero;stroke-width:1;stroke-linecap:butt;stroke-linejoin:miter;stroke-miterlimit:4;stroke-opacity:1;stroke-dasharray:none;stroke-dashoffset:0;marker:none;visibility:visible;display:inline;overflow:visible;enable-background:accumulate" />
</svg>
