<?xml version="1.0" encoding="UTF-8" standalone="no"?>
<svg
   xmlns:dc="http://purl.org/dc/elements/1.1/"
   xmlns:cc="http://creativecommons.org/ns#"
   xmlns:rdf="http://www.w3.org/1999/02/22-rdf-syntax-ns#"
   xmlns:svg="http://www.w3.org/2000/svg"
   xmlns="http://www.w3.org/2000/svg"
   xmlns:xlink="http://www.w3.org/1999/xlink"
   xmlns:sodipodi="http://sodipodi.sourceforge.net/DTD/sodipodi-0.dtd"
   xmlns:inkscape="http://www.inkscape.org/namespaces/inkscape"
   viewBox="0 0 22 22"
   id="svg3074"
   version="1.1"
   inkscape:version="0.48.3.1 r9886"
   width="100%"
   height="100%"
   sodipodi:docname="go-jump-rtl.svg">
  <metadata
     id="metadata3089">
    <rdf:RDF>
      <cc:Work
         rdf:about="">
        <dc:format>image/svg+xml</dc:format>
        <dc:type
           rdf:resource="http://purl.org/dc/dcmitype/StillImage" />
      </cc:Work>
    </rdf:RDF>
  </metadata>
  <sodipodi:namedview
     pagecolor="#ffffff"
     bordercolor="#666666"
     borderopacity="1"
     objecttolerance="10"
     gridtolerance="10"
     guidetolerance="10"
     inkscape:pageopacity="0"
     inkscape:pageshadow="2"
     inkscape:window-width="873"
     inkscape:window-height="751"
     id="namedview3087"
     showgrid="true"
     inkscape:zoom="22.627417"
     inkscape:cx="12"
     inkscape:cy="12.265165"
     inkscape:window-x="198"
     inkscape:window-y="120"
     inkscape:window-maximized="0"
     inkscape:current-layer="svg3074">
    <inkscape:grid
       type="xygrid"
       id="grid2990"
       empspacing="5"
       visible="true"
       enabled="true"
       snapvisiblegridlinesonly="true" />
  </sodipodi:namedview>
  <defs
     id="defs3076">
    <linearGradient
       gradientUnits="userSpaceOnUse"
       id="linearGradient1022-1"
       x2="0"
       y1="4.0064402"
       y2="12.02386">
      <stop
         offset="0"
         id="stop3079" />
      <stop
         offset="1"
         stop-color="#363636"
         id="stop3081" />
    </linearGradient>
    <linearGradient
       gradientUnits="userSpaceOnUse"
       id="linearGradient1022-1-6"
       x2="0"
       y1="4.0064402"
       y2="12.02386">
      <stop
         offset="0"
         id="stop3079-8" />
      <stop
         offset="1"
         stop-color="#363636"
         id="stop3081-6" />
    </linearGradient>
    <linearGradient
       gradientTransform="translate(-7.29998,-5.97117)"
       y2="12.02386"
       x2="0"
       y1="4.0064402"
       gradientUnits="userSpaceOnUse"
       id="linearGradient3542"
       xlink:href="#linearGradient1022-1-6"
       inkscape:collect="always" />
    <linearGradient
       inkscape:collect="always"
       xlink:href="#linearGradient1022-1-6"
       id="linearGradient2992"
       gradientUnits="userSpaceOnUse"
       y1="4.0064402"
       x2="0"
       y2="12.02386"
       gradientTransform="matrix(0.97477547,0,0,1,-1.1158414,-0.97117)" />
  </defs>
  <path
     d="M 13.150007,6 C 15.263321,6 17,7.78162 17,9.94962 v 0.56423 H 14.8 V 9.94962 c 0,-0.94821 -0.725701,-1.69269 -1.650002,-1.69269 -0.924302,0 -1.650003,0.74448 -1.650003,1.69269 v 5.74811 l 1.409379,-1.44584 c 0.209324,-0.20614 0.508043,-0.35264 0.790621,-0.35264 h 1.099995 v 1.12846 c 0,0.3492 -0.09933,0.62327 -0.309374,0.84635 L 10.4,20 6.3093742,15.87406 C 6.0993296,15.65098 6,15.37692 6,15.02771 v -1.12846 h 1.0999951 c 0.2825777,0 0.5813074,0.14651 0.7906209,0.35264 l 1.409369,1.44584 V 9.94962 C 9.299985,7.78162 11.036665,6 13.149978,6 z"
     id="path3083"
     style="opacity:0.6;color:#000000;fill:#ffffff;fill-opacity:1;fill-rule:nonzero;stroke-width:1;stroke-linecap:butt;stroke-linejoin:miter;stroke-miterlimit:4;stroke-opacity:1;stroke-dasharray:none;stroke-dashoffset:0;marker:none;visibility:visible;display:inline;overflow:visible;enable-background:accumulate"
     inkscape:connector-curvature="0" />
  <path
     d="M 13.150007,5 C 15.263321,5 17,6.78162 17,8.94962 V 9.51385 H 14.8 V 8.94962 c 0,-0.94821 -0.725701,-1.6927 -1.650002,-1.6927 -0.924302,0 -1.650003,0.74448 -1.650003,1.6927 v 5.74811 l 1.409379,-1.44584 c 0.209324,-0.20614 0.508043,-0.35264 0.790621,-0.35264 h 1.099995 v 1.12846 c 0,0.3492 -0.09933,0.62327 -0.309374,0.84635 L 10.4,19 6.3093742,14.87406 C 6.0993296,14.65099 6,14.37692 6,14.02771 v -1.12846 h 1.0999951 c 0.2825777,0 0.5813074,0.14651 0.7906209,0.35264 l 1.409369,1.44584 V 8.94962 C 9.299985,6.78162 11.036665,5 13.149978,5 z"
     id="path3085"
     style="opacity:0.7;color:#000000;fill:url(#linearGradient2992);fill-opacity:1;fill-rule:nonzero;stroke-width:1;stroke-linecap:butt;stroke-linejoin:miter;stroke-miterlimit:4;stroke-opacity:1;stroke-dasharray:none;stroke-dashoffset:0;marker:none;visibility:visible;display:inline;overflow:visible;enable-background:accumulate"
     inkscape:connector-curvature="0" />
</svg>
