<?xml version="1.0" encoding="UTF-8" standalone="no"?>
<!-- Created with Inkscape (http://www.inkscape.org/) -->

<svg
   xmlns:dc="http://purl.org/dc/elements/1.1/"
   xmlns:cc="http://creativecommons.org/ns#"
   xmlns:rdf="http://www.w3.org/1999/02/22-rdf-syntax-ns#"
   xmlns:svg="http://www.w3.org/2000/svg"
   xmlns="http://www.w3.org/2000/svg"
   xmlns:xlink="http://www.w3.org/1999/xlink"
   xmlns:sodipodi="http://sodipodi.sourceforge.net/DTD/sodipodi-0.dtd"
   xmlns:inkscape="http://www.inkscape.org/namespaces/inkscape"
   width="22"
   height="22"
   id="svg6662"
   version="1.1"
   inkscape:version="0.48.4 r9939"
   sodipodi:docname="gtk-color-picker.svg">
  <defs
     id="defs6664">
    <linearGradient
       gradientUnits="userSpaceOnUse"
       id="linearGradient1022-8-8-3-0-06-2-3-4"
       x2="0"
       y1="3.0069399"
       y2="11.02436">
      <stop
         offset="0"
         id="stop3001-0-9-4-9-0-1-2" />
      <stop
         offset="1"
         stop-color="#363636"
         id="stop3003-5-6-6-5-5-2-5" />
    </linearGradient>
    <linearGradient
       inkscape:collect="always"
       xlink:href="#linearGradient1022-8-8-3-0-06-2-3-4"
       id="linearGradient3110"
       gradientUnits="userSpaceOnUse"
       gradientTransform="matrix(1.6799908,0,0,1.5097214,-205.79773,1018.4641)"
       x1="128.45174"
       y1="7.8809905"
       x2="128.45174"
       y2="21.790842" />
  </defs>
  <sodipodi:namedview
     id="base"
     pagecolor="#ffffff"
     bordercolor="#666666"
     borderopacity="1.0"
     inkscape:pageopacity="0.0"
     inkscape:pageshadow="2"
     inkscape:zoom="22.4"
     inkscape:cx="21.587314"
     inkscape:cy="9.196393"
     inkscape:document-units="px"
     inkscape:current-layer="capa1"
     showgrid="true"
     inkscape:showpageshadow="false"
     inkscape:window-width="1280"
     inkscape:window-height="974"
     inkscape:window-x="0"
     inkscape:window-y="24"
     inkscape:window-maximized="1"
     inkscape:snap-bbox="true">
    <inkscape:grid
       type="xygrid"
       id="grid2990"
       empspacing="5"
       visible="true"
       enabled="true"
       snapvisiblegridlinesonly="true" />
  </sodipodi:namedview>
  <metadata
     id="metadata6667">
    <rdf:RDF>
      <cc:Work
         rdf:about="">
        <dc:format>image/svg+xml</dc:format>
        <dc:type
           rdf:resource="http://purl.org/dc/dcmitype/StillImage" />
        <dc:title />
      </cc:Work>
    </rdf:RDF>
  </metadata>
  <g
     inkscape:label="Capa 1"
     inkscape:groupmode="layer"
     id="capa1"
     transform="translate(0,-1030.3622)">
    <path
       id="path3112"
       d="m 18,1031.3622 c -1,0 -2,1 -3,2 l -3,3 4,4 3,-3 c 1,-1 2,-2 2,-3 0,-2 -1,-3 -3,-3 z m -8,4.9688 -1,1.0312 1,1 -10,9.9688 0,4.0312 4.03125,0 9.96875,-10 1,1 1,-1 -6,-6.0312 z m 0.96875,3.0625 1.96875,1.9687 -8.9375,9 -2,0 0,-2 8.96875,-8.9687 z M 2,1050.3622 l 2,-1 3.03125,-3.0312 -1,-1 -3.03125,3.0312 -1,2 z"
       style="opacity:0.6;color:black;fill:white;fill-opacity:1;fill-rule:nonzero;stroke:none;stroke-width:0.66666675;marker:none;visibility:visible;display:inline;overflow:visible;enable-background:accumulate"
       inkscape:connector-curvature="0" />
    <path
       style="opacity:0.7;color:black;fill:url(#linearGradient3110);fill-opacity:1;fill-rule:nonzero;stroke:none;stroke-width:1;marker:none;visibility:visible;display:inline;overflow:visible;enable-background:accumulate"
       d="m 18,1030.3622 c -1,0 -2,1 -3,2 l -3,3 4,4 3,-3 c 1,-1 2,-2 2,-3 0,-2 -1,-3 -3,-3 z m -8,4.9688 -1,1.0312 1,1 -10,9.9688 0,4.0312 4.03125,0 9.96875,-10 1,1 1,-1 -6,-6.0312 z m 0.96875,3.0625 1.96875,1.9687 -8.9375,9 -2,0 0,-2 8.96875,-8.9687 z M 2,1049.3622 l 2,-1 3.03125,-3.0312 -1,-1 -3.03125,3.0312 -1,2 z"
       id="path3077"
       inkscape:connector-curvature="0" />
  </g>
</svg>
