<?xml version="1.0" encoding="UTF-8" standalone="no"?>
<!-- Created with Inkscape (http://www.inkscape.org/) -->

<svg xmlns:dc="http://purl.org/dc/elements/1.1/" xmlns:cc="http://creativecommons.org/ns#" xmlns:rdf="http://www.w3.org/1999/02/22-rdf-syntax-ns#" xmlns:svg="http://www.w3.org/2000/svg" xmlns="http://www.w3.org/2000/svg" xmlns:xlink="http://www.w3.org/1999/xlink" xmlns:sodipodi="http://sodipodi.sourceforge.net/DTD/sodipodi-0.dtd" xmlns:inkscape="http://www.inkscape.org/namespaces/inkscape" width="22" height="22" id="svg3330" version="1.1" inkscape:version="0.48.4 r9939" sodipodi:docname="gtk-undelete.svg">
  <defs id="defs3332">
    <linearGradient y2="11.02436" y1="3.0069399" x2="0" id="linearGradient1022-8-8-3-0-2-12-9" gradientUnits="userSpaceOnUse">
      <stop id="stop3001-0-9-4-1-4-0" offset="0" />
      <stop id="stop3003-5-6-6-1-51-7" stop-color="#363636" offset="1" />
    </linearGradient>
    <linearGradient inkscape:collect="always" xlink:href="#linearGradient1022-8-8-3-0-2-12-9" id="linearGradient3032" gradientUnits="userSpaceOnUse" gradientTransform="matrix(1.6290822,0,0,1.476171,-340.24854,1015.2837)" x1="215.61131" y1="9.5371742" x2="215.61131" y2="24.440598" />
    <linearGradient y2="24.440598" x2="215.61131" y1="10.214602" x1="215.61131" gradientTransform="matrix(1.6290822,0,0,1.476171,-340.24854,1015.2837)" gradientUnits="userSpaceOnUse" id="linearGradient3060" xlink:href="#linearGradient1022-8-8-3-0-2-12-9-3" inkscape:collect="always" />
    <linearGradient gradientUnits="userSpaceOnUse" id="linearGradient1022-8-8-3-0-2-12-9-3" x2="0" y1="3.0069399" y2="11.02436">
      <stop offset="0" id="stop3001-0-9-4-1-4-0-0" />
      <stop offset="1" stop-color="#363636" id="stop3003-5-6-6-1-51-7-4" />
    </linearGradient>
    <linearGradient y2="11.02436" y1="3.0069399" x2="0" id="linearGradient1022-8-8-3-0-2-12-9-33" gradientUnits="userSpaceOnUse">
      <stop id="stop3001-0-9-4-1-4-0-2" offset="0" />
      <stop id="stop3003-5-6-6-1-51-7-0" stop-color="#363636" offset="1" />
    </linearGradient>
    <linearGradient y2="24.440598" x2="215.61131" y1="9.5371742" x1="215.61131" gradientTransform="matrix(1.6290822,0,0,1.476171,-344.24854,1028.2837)" gradientUnits="userSpaceOnUse" id="linearGradient3023" xlink:href="#linearGradient1022-8-8-3-0-2-12-9-33" inkscape:collect="always" />
  </defs>
  <sodipodi:namedview id="base" pagecolor="#ffffff" bordercolor="#666666" borderopacity="1.0" inkscape:pageopacity="0.0" inkscape:pageshadow="2" inkscape:zoom="22.627417" inkscape:cx="16.940172" inkscape:cy="10.857612" inkscape:document-units="px" inkscape:current-layer="capa1" showgrid="true" inkscape:showpageshadow="false" inkscape:window-width="1280" inkscape:window-height="976" inkscape:window-x="0" inkscape:window-y="24" inkscape:window-maximized="1" inkscape:snap-page="false" inkscape:snap-center="true" inkscape:snap-object-midpoints="false" inkscape:snap-to-guides="false" inkscape:snap-midpoints="true">
    <inkscape:grid type="xygrid" id="grid2990" empspacing="5" visible="true" enabled="true" snapvisiblegridlinesonly="true" />
  </sodipodi:namedview>
  <metadata id="metadata3335">
    <rdf:RDF>
      <cc:Work rdf:about="">
        <dc:format>image/svg+xml</dc:format>
        <dc:type rdf:resource="http://purl.org/dc/dcmitype/StillImage" />
        <dc:title></dc:title>
      </cc:Work>
    </rdf:RDF>
  </metadata>
  <g inkscape:label="Capa 1" inkscape:groupmode="layer" id="capa1" transform="translate(0,-1030.3622)">
    <path style="opacity:0.59999999999999998;color:black;fill:white;fill-opacity:1;fill-rule:nonzero;stroke:none;stroke-width:1;marker:none;visibility:visible;display:inline;overflow:visible;enable-background:accumulate" d="m 9,1031.3622 -3,3 3,3 0,-2 4,0 2,2 0,-2 -2,-2 -4,0 z m -5,4 0,15 2,2 10,0 2,-2 0,-15 -2,2 -10,0 z m 2,3 1,0 0,11 -1,-1 z m 3,0 1,0 0,11 -1,0 z m 3,0 1,0 0,11 -1,0 z m 3,0 1,0 0,10 -1,1 z" id="path2998-5" inkscape:connector-curvature="0" sodipodi:nodetypes="ccccccccccccccccccccccccccccccccccccccc" />
    <path style="opacity:0.7;color:black;fill:url(#linearGradient3032);fill-opacity:1;fill-rule:nonzero;stroke:none;stroke-width:1;marker:none;visibility:visible;display:inline;overflow:visible;enable-background:accumulate" d="m 9,1030.3622 -3,3 3,3 0,-2 4,0 2,2 0,-2 -2,-2 -4,0 z m -5,4 0,15 2,2 10,0 2,-2 0,-15 -2,2 -10,0 z m 2,3 1,0 0,11 -1,-1 z m 3,0 1,0 0,11 -1,0 z m 3,0 1,0 0,11 -1,0 z m 3,0 1,0 0,10 -1,1 z" id="path2998" inkscape:connector-curvature="0" sodipodi:nodetypes="ccccccccccccccccccccccccccccccccccccccc" />
  </g>
</svg>
