<?xml version="1.0" encoding="UTF-8" standalone="no"?>
<!-- Created with Inkscape (http://www.inkscape.org/) -->

<svg xmlns:dc="http://purl.org/dc/elements/1.1/" xmlns:cc="http://creativecommons.org/ns#" xmlns:rdf="http://www.w3.org/1999/02/22-rdf-syntax-ns#" xmlns:svg="http://www.w3.org/2000/svg" xmlns="http://www.w3.org/2000/svg" xmlns:xlink="http://www.w3.org/1999/xlink" xmlns:sodipodi="http://sodipodi.sourceforge.net/DTD/sodipodi-0.dtd" xmlns:inkscape="http://www.inkscape.org/namespaces/inkscape" width="22" height="22" id="svg3330" version="1.1" inkscape:version="0.48.4 r9939" sodipodi:docname="system-lock-screen.svg">
    <defs id="defs3332">
        <linearGradient y2="11.02436" y1="3.0069399" x2="0" id="linearGradient1022-8-8-3-0-06-59-5" gradientUnits="userSpaceOnUse">
            <stop id="stop3001-0-9-4-9-02-5" offset="0" />
            <stop id="stop3003-5-6-6-5-70-2" stop-color="#363636" offset="1" />
        </linearGradient>
        <linearGradient inkscape:collect="always" xlink:href="#linearGradient1022-8-8-3-0-06-59-5" id="linearGradient3066" gradientUnits="userSpaceOnUse" gradientTransform="matrix(0.55555556,0,0,3.1250109,2.8888888,984.36205)" x1="8.8000002" y1="823.48975" x2="8.8000002" y2="839.48975" />
        <linearGradient inkscape:collect="always" xlink:href="#linearGradient1022-8-8-3-0-06-59-5" id="linearGradient3080" gradientUnits="userSpaceOnUse" gradientTransform="matrix(0,-0.13888889,12.500044,0,-199.0006,10.7778)" x1="8.8000002" y1="823.48975" x2="8.8000002" y2="839.48975" />
        <linearGradient inkscape:collect="always" xlink:href="#linearGradient1022-8-8-3-0-06-59-5" id="linearGradient3084" gradientUnits="userSpaceOnUse" gradientTransform="matrix(0.55555556,0,0,3.1250109,2.8888888,995.36205)" x1="8.8000002" y1="823.48975" x2="8.8000002" y2="839.48975" />
        <linearGradient inkscape:collect="always" xlink:href="#linearGradient1022-8-8-3-0-06-59-5" id="linearGradient3090" gradientUnits="userSpaceOnUse" gradientTransform="matrix(0.55555556,0,0,3.1250109,13.888889,984.36205)" x1="8.8000002" y1="823.48975" x2="8.8000002" y2="839.48975" />
        <linearGradient inkscape:collect="always" xlink:href="#linearGradient1022-8-8-3-0-06-59-5" id="linearGradient3092" gradientUnits="userSpaceOnUse" gradientTransform="matrix(0.55555556,0,0,3.1250109,13.888889,995.36205)" x1="8.8000002" y1="823.48975" x2="8.8000002" y2="839.48975" />
        <linearGradient inkscape:collect="always" xlink:href="#linearGradient1022-8-8-3-0-06-59-5" id="linearGradient3096" gradientUnits="userSpaceOnUse" gradientTransform="matrix(0.13888889,0,0,2.5000087,16.222222,999.36208)" x1="8.8000002" y1="823.48975" x2="8.8000002" y2="839.48975" />
        <linearGradient inkscape:collect="always" xlink:href="#linearGradient1022-8-8-3-0-06-59-5" id="linearGradient3100" gradientUnits="userSpaceOnUse" gradientTransform="matrix(0.09820928,-0.09820928,1.7677731,1.7677731,-21.394988,1011.86)" x1="8.8000002" y1="823.48975" x2="8.8000002" y2="839.48975" />
        <linearGradient inkscape:collect="always" xlink:href="#linearGradient1022-8-8-3-0-06-59-9" id="linearGradient3006" gradientUnits="userSpaceOnUse" gradientTransform="matrix(1.25,0,0,1.75,4,-3.6)" x1="8.8000002" y1="823.48975" x2="8.8000002" y2="839.48975" />
        <linearGradient y2="11.02436" y1="3.0069399" x2="0" id="linearGradient1022-8-8-3-0-06-59-9" gradientUnits="userSpaceOnUse">
            <stop id="stop3001-0-9-4-9-02-3" offset="0" />
            <stop id="stop3003-5-6-6-5-70-5" stop-color="#363636" offset="1" />
        </linearGradient>
        <linearGradient inkscape:collect="always" xlink:href="#linearGradient1022-8-8-3-0-06-59-9" id="linearGradient3122" gradientUnits="userSpaceOnUse" gradientTransform="matrix(0.9375,0,0,1.0000043,6,1030.1622)" x1="8.8000002" y1="823.48975" x2="8.8000002" y2="839.48975" />
        <linearGradient inkscape:collect="always" xlink:href="#linearGradient1022-8-8-3-0-06-59-9" id="linearGradient3125" gradientUnits="userSpaceOnUse" gradientTransform="matrix(1.25,0,0,1.75,3,1025.7622)" x1="8.8000002" y1="823.48975" x2="8.8000002" y2="839.48975" />
        <linearGradient inkscape:collect="always" xlink:href="#linearGradient1022-8-8-3-0-06-59-9" id="linearGradient3129" gradientUnits="userSpaceOnUse" gradientTransform="matrix(1.25,0,0,1.75,-3,1037.7622)" x1="8.8000002" y1="823.48975" x2="8.8000002" y2="839.48975" />
        <linearGradient inkscape:collect="always" xlink:href="#linearGradient1022-8-8-3-0-06-59-9" id="linearGradient3133" gradientUnits="userSpaceOnUse" gradientTransform="matrix(1.25,0,0,1.75,9,1037.7622)" x1="8.8000002" y1="823.48975" x2="8.8000002" y2="839.48975" />
        <linearGradient inkscape:collect="always" xlink:href="#linearGradient1022-8-8-3-0-06-59-5" id="linearGradient3137" gradientUnits="userSpaceOnUse" gradientTransform="matrix(0,-0.27777778,0.6250022,0,-3e-5,1039.9178)" x1="8.8000002" y1="823.48975" x2="8.8000002" y2="839.48975" />
        <linearGradient inkscape:collect="always" xlink:href="#linearGradient1022-8-8-3-0-06-59-5" id="linearGradient3141" gradientUnits="userSpaceOnUse" gradientTransform="matrix(0,-0.27777778,0.6250022,0,-5.00003,1042.9178)" x1="8.8000002" y1="823.48975" x2="8.8000002" y2="839.48975" />
        <linearGradient inkscape:collect="always" xlink:href="#linearGradient1022-8-8-3-0-06-59-5" id="linearGradient3145" gradientUnits="userSpaceOnUse" gradientTransform="matrix(0,-0.27777778,0.6250022,0,4.99997,1042.9178)" x1="8.8000002" y1="823.48975" x2="8.8000002" y2="839.48975" />
        <linearGradient inkscape:collect="always" xlink:href="#linearGradient1022-8-8-3-0-06-59-9" id="linearGradient3149" gradientUnits="userSpaceOnUse" gradientTransform="matrix(1.25,0,0,1.75,8,1037.7622)" x1="8.8000002" y1="823.48975" x2="8.8000002" y2="839.48975" />
        <linearGradient inkscape:collect="always" xlink:href="#linearGradient1022-8-8-3-0-06-59-9" id="linearGradient3153" gradientUnits="userSpaceOnUse" gradientTransform="matrix(1.25,0,0,1.75,-2,1037.7622)" x1="8.8000002" y1="823.48975" x2="8.8000002" y2="839.48975" />
        <linearGradient inkscape:collect="always" xlink:href="#linearGradient1022-8-8-3-0-06-59-5" id="linearGradient3158" gradientUnits="userSpaceOnUse" gradientTransform="matrix(0,-0.13888889,12.500044,0,-199.0006,10.7778)" x1="8.8000002" y1="823.48975" x2="8.8000002" y2="839.48975" />
        <linearGradient inkscape:collect="always" xlink:href="#linearGradient1022-8-8-3-0-06-59-5" id="linearGradient3161" gradientUnits="userSpaceOnUse" gradientTransform="matrix(0,-0.13888889,12.500044,0,-199.0006,10.7778)" x1="70.400162" y1="16.79999" x2="-66.399841" y2="16.79999" />
    </defs>
    <sodipodi:namedview id="base" pagecolor="#ffffff" bordercolor="#666666" borderopacity="1.0" inkscape:pageopacity="0.0" inkscape:pageshadow="2" inkscape:zoom="24.24787" inkscape:cx="21.97691" inkscape:cy="12.907444" inkscape:document-units="px" inkscape:current-layer="capa1" showgrid="true" inkscape:showpageshadow="false" inkscape:window-width="1280" inkscape:window-height="974" inkscape:window-x="0" inkscape:window-y="24" inkscape:window-maximized="1" inkscape:snap-center="false" inkscape:snap-object-midpoints="false" inkscape:snap-page="true" inkscape:snap-midpoints="false" inkscape:snap-to-guides="false" inkscape:snap-bbox="true">
        <inkscape:grid type="xygrid" id="grid3124" empspacing="5" visible="true" enabled="true" snapvisiblegridlinesonly="true" />
    </sodipodi:namedview>
    <metadata id="metadata3335">
        <rdf:RDF>
            <cc:Work rdf:about="">
                <dc:format>image/svg+xml</dc:format>
                <dc:type rdf:resource="http://purl.org/dc/dcmitype/StillImage" />
                <dc:title></dc:title>
            </cc:Work>
        </rdf:RDF>
    </metadata>
    <g inkscape:label="Capa 1" inkscape:groupmode="layer" id="capa1" transform="translate(0,-1030.3622)">
        <path id="path3163" d="m 8,1032.3622 -1,1 0,5 1,1 2,0 0,2 -9,0 0,1 4,0 0,2 -2,0 -1,1 0,5 1,1 6,0 1,-1 0,-5 -1,-1 -3,0 0,-2 9,0 0,2 -2,0 -1,1 0,5 1,1 6,0 1,-1 0,-5 -1,-1 -3,0 0,-2 5,0 0,-1 -10,0 0,-2 3,0 1,-1 0,-5 -1,-1 -6,0 z m 0,1 6,0 0,4 -6,0 0,-4 z m -5,12 6,0 0,4 -6,0 0,-4 z m 10,0 6,0 0,4 -6,0 0,-4 z" style="opacity:0.59999999999999998;color:black;fill:white;fill-opacity:1;fill-rule:nonzero;stroke:none;stroke-width:1;marker:none;visibility:visible;display:inline;overflow:visible;enable-background:accumulate" inkscape:connector-curvature="0" />
        <path style="opacity:0.69999999999999996;color:black;fill:url(#linearGradient3161);fill-opacity:1;fill-rule:nonzero;stroke:none;stroke-width:1;marker:none;visibility:visible;display:inline;overflow:visible;enable-background:accumulate" d="M 8 1 L 7 2 L 7 7 L 8 8 L 10 8 L 10 10 L 1 10 L 1 11 L 5 11 L 5 13 L 3 13 L 2 14 L 2 19 L 3 20 L 9 20 L 10 19 L 10 14 L 9 13 L 6 13 L 6 11 L 15 11 L 15 13 L 13 13 L 12 14 L 12 19 L 13 20 L 19 20 L 20 19 L 20 14 L 19 13 L 16 13 L 16 11 L 21 11 L 21 10 L 11 10 L 11 8 L 14 8 L 15 7 L 15 2 L 14 1 L 8 1 z M 8 2 L 14 2 L 14 6 L 8 6 L 8 2 z M 3 14 L 9 14 L 9 18 L 3 18 L 3 14 z M 13 14 L 19 14 L 19 18 L 13 18 L 13 14 z " transform="translate(0,1030.3622)" id="rect3060" />
    </g>
</svg>
