<?xml version="1.0" encoding="UTF-8" standalone="no"?>
<!-- Created with Inkscape (http://www.inkscape.org/) -->

<svg
   xmlns:dc="http://purl.org/dc/elements/1.1/"
   xmlns:cc="http://creativecommons.org/ns#"
   xmlns:rdf="http://www.w3.org/1999/02/22-rdf-syntax-ns#"
   xmlns:svg="http://www.w3.org/2000/svg"
   xmlns="http://www.w3.org/2000/svg"
   xmlns:xlink="http://www.w3.org/1999/xlink"
   xmlns:sodipodi="http://sodipodi.sourceforge.net/DTD/sodipodi-0.dtd"
   xmlns:inkscape="http://www.inkscape.org/namespaces/inkscape"
   width="22"
   height="22"
   id="svg2"
   version="1.1"
   inkscape:version="0.48.3.1 r9886"
   sodipodi:docname="gtk-leave-fullscreen_22px.svg">
  <defs
     id="defs4">
    <linearGradient
       id="linearGradient4542">
      <stop
         style="stop-color:#000000;stop-opacity:1;"
         offset="0"
         id="stop4544" />
      <stop
         style="stop-color:#363636;stop-opacity:1;"
         offset="1"
         id="stop4546" />
    </linearGradient>
    <linearGradient
       inkscape:collect="always"
       xlink:href="#linearGradient4542"
       id="linearGradient3597"
       gradientUnits="userSpaceOnUse"
       gradientTransform="matrix(1.125,0,0,1.125,-1.5,-130.04528)"
       x1="8.625"
       y1="1031.3622"
       x2="8.625"
       y2="1049.3622" />
  </defs>
  <sodipodi:namedview
     id="base"
     pagecolor="#ffffff"
     bordercolor="#666666"
     borderopacity="1.0"
     inkscape:pageopacity="0.0"
     inkscape:pageshadow="2"
     inkscape:zoom="15.839192"
     inkscape:cx="11.997294"
     inkscape:cy="1.3277869"
     inkscape:document-units="px"
     inkscape:current-layer="g4692"
     showgrid="true"
     showguides="true"
     inkscape:guide-bbox="true"
     inkscape:window-width="1920"
     inkscape:window-height="1056"
     inkscape:window-x="0"
     inkscape:window-y="24"
     inkscape:window-maximized="1">
    <inkscape:grid
       type="xygrid"
       id="grid2985"
       empspacing="5"
       visible="true"
       enabled="true"
       snapvisiblegridlinesonly="true" />
  </sodipodi:namedview>
  <metadata
     id="metadata7">
    <rdf:RDF>
      <cc:Work
         rdf:about="">
        <dc:format>image/svg+xml</dc:format>
        <dc:type
           rdf:resource="http://purl.org/dc/dcmitype/StillImage" />
        <dc:title />
      </cc:Work>
    </rdf:RDF>
  </metadata>
  <g
     inkscape:label="Layer 1"
     inkscape:groupmode="layer"
     id="layer1"
     transform="translate(0,-1030.3622)">
    <g
       id="g4692"
       style="opacity:0.7"
       transform="matrix(0.88888889,0,0,0.88888889,0.33333332,116.5958)">
      <path
         style="opacity:0.6;fill:#ffffff;fill-opacity:1"
         d="m 6.375,1031.3622 0,4.5 -4.5,0 0,3.375 4.5087881,0 3.3662119,0 0,-3.3662 0,-4.5088 z m 7.875,0 0,4.5 0,3.375 3.375,0 4.5,0 0,-3.375 -4.5,0 0,-4.5 z m -12.375,12.375 0,3.375 4.5,0 0,4.5 3.375,0 0,-4.5 0,-3.375 -3.375,0 z m 12.375,0 0,3.375 0,4.5 3.375,0 0,-4.5 4.5,0 0,-3.375 -4.5,0 z"
         id="rect2987-7"
         inkscape:connector-curvature="0"
         sodipodi:nodetypes="cccccccccccccccccccccccccccccccccccc" />
      <path
         style="opacity:1;fill:url(#linearGradient3597);fill-opacity:1"
         d="m 6.375,1030.2372 0,4.5 -4.5,0 0,3.375 4.508788,0 3.366212,0 0,-3.3662 0,-4.5088 z m 7.875,0 0,4.5 0,3.375 3.375,0 4.5,0 0,-3.375 -4.5,0 0,-4.5 z m -12.375,12.375 0,3.375 4.5,0 0,4.5 3.375,0 0,-4.5 0,-3.375 -3.375,0 z m 12.375,0 0,3.375 0,4.5 3.375,0 0,-4.5 4.5,0 0,-3.375 -4.5,0 z"
         id="rect2987"
         inkscape:connector-curvature="0"
         sodipodi:nodetypes="cccccccccccccccccccccccccccccccccccc" />
    </g>
  </g>
</svg>
