<?xml version="1.0" encoding="UTF-8" standalone="no"?>
<!-- Created with Inkscape (http://www.inkscape.org/) -->

<svg
   xmlns:dc="http://purl.org/dc/elements/1.1/"
   xmlns:cc="http://creativecommons.org/ns#"
   xmlns:rdf="http://www.w3.org/1999/02/22-rdf-syntax-ns#"
   xmlns:svg="http://www.w3.org/2000/svg"
   xmlns="http://www.w3.org/2000/svg"
   xmlns:xlink="http://www.w3.org/1999/xlink"
   xmlns:sodipodi="http://sodipodi.sourceforge.net/DTD/sodipodi-0.dtd"
   xmlns:inkscape="http://www.inkscape.org/namespaces/inkscape"
   width="22"
   height="22"
   id="svg6662"
   version="1.1"
   inkscape:version="0.48.4 r9939"
   sodipodi:docname="gtk-print-pause.svg">
  <defs
     id="defs6664">
    <linearGradient
       y2="11.02436"
       y1="3.0069399"
       x2="0"
       id="linearGradient1022-8-8-3-0-27-9-5"
       gradientUnits="userSpaceOnUse">
      <stop
         id="stop3001-0-9-4-6-9-2"
         offset="0" />
      <stop
         id="stop3003-5-6-6-01-7-3"
         stop-color="#363636"
         offset="1" />
    </linearGradient>
    <linearGradient
       inkscape:collect="always"
       xlink:href="#linearGradient1022-8-8-3-0-27-9-5"
       id="linearGradient3038"
       gradientUnits="userSpaceOnUse"
       gradientTransform="matrix(-1.679991,0,0,1.5097216,163.47504,705.7722)"
       x1="89.568954"
       y1="215.66228"
       x2="89.568954"
       y2="228.24738" />
  </defs>
  <sodipodi:namedview
     id="base"
     pagecolor="#ffffff"
     bordercolor="#666666"
     borderopacity="1.0"
     inkscape:pageopacity="0.0"
     inkscape:pageshadow="2"
     inkscape:zoom="22.4"
     inkscape:cx="14.908632"
     inkscape:cy="10.013181"
     inkscape:document-units="px"
     inkscape:current-layer="capa1"
     showgrid="true"
     inkscape:showpageshadow="false"
     inkscape:window-width="1121"
     inkscape:window-height="987"
     inkscape:window-x="48"
     inkscape:window-y="0"
     inkscape:window-maximized="0"
     inkscape:snap-bbox="true">
    <inkscape:grid
       type="xygrid"
       id="grid2990"
       empspacing="5"
       visible="true"
       enabled="true"
       snapvisiblegridlinesonly="true" />
  </sodipodi:namedview>
  <metadata
     id="metadata6667">
    <rdf:RDF>
      <cc:Work
         rdf:about="">
        <dc:format>image/svg+xml</dc:format>
        <dc:type
           rdf:resource="http://purl.org/dc/dcmitype/StillImage" />
        <dc:title />
      </cc:Work>
    </rdf:RDF>
  </metadata>
  <g
     inkscape:label="Capa 1"
     inkscape:groupmode="layer"
     id="capa1"
     transform="translate(0,-1030.3622)">
    <path
       id="path3040"
       d="m 7,1032.3622 0,9 3,0 0,-9 -3,0 z m 5,0 0,9 3,0 0,-9 -3,0 z m -9,6 -2,2 0,9 2,2 16,0 2,-2 0,-9 -2,-2 -3,0 0,2 2,0 1,0 0,8 -1,1 -14,0 -1,-1 0,-7 1,-1 2,0 0,-2 -3,0 z m 2,4 0,2 2,0 8,0 2,0 0,-2 -12,0 z"
       style="opacity:0.6;color:black;fill:white;fill-opacity:1;fill-rule:nonzero;stroke:none;stroke-width:1;marker:none;visibility:visible;display:inline;overflow:visible;enable-background:accumulate"
       inkscape:connector-curvature="0" />
    <path
       style="opacity:0.7;color:black;fill:url(#linearGradient3038);fill-opacity:1;fill-rule:evenodd;stroke:none;stroke-width:1;marker:none;visibility:visible;display:inline;overflow:visible;enable-background:accumulate"
       d="m 7,1031.3622 0,9 3,0 0,-9 -3,0 z m 5,0 0,9 3,0 0,-9 -3,0 z m -9,6 -2,2 0,9 2,2 16,0 2,-2 0,-9 -2,-2 -3,0 0,2 2,0 1,0 0,8 -1,1 -14,0 -1,-1 0,-7 1,-1 2,0 0,-2 -3,0 z m 2,4 0,2 2,0 8,0 2,0 0,-2 -12,0 z"
       id="path2999"
       inkscape:connector-curvature="0" />
  </g>
</svg>
