<?xml version="1.0" encoding="UTF-8" standalone="no"?>
<svg
   xmlns:dc="http://purl.org/dc/elements/1.1/"
   xmlns:cc="http://creativecommons.org/ns#"
   xmlns:rdf="http://www.w3.org/1999/02/22-rdf-syntax-ns#"
   xmlns:svg="http://www.w3.org/2000/svg"
   xmlns="http://www.w3.org/2000/svg"
   xmlns:xlink="http://www.w3.org/1999/xlink"
   xmlns:sodipodi="http://sodipodi.sourceforge.net/DTD/sodipodi-0.dtd"
   xmlns:inkscape="http://www.inkscape.org/namespaces/inkscape"
   viewBox="0 0 22 22"
   id="svg2"
   version="1.1"
   inkscape:version="0.48.3.1 r9886"
   width="100%"
   height="100%"
   sodipodi:docname="media-eject.svg">
  <metadata
     id="metadata21">
    <rdf:RDF>
      <cc:Work
         rdf:about="">
        <dc:format>image/svg+xml</dc:format>
        <dc:type
           rdf:resource="http://purl.org/dc/dcmitype/StillImage" />
      </cc:Work>
    </rdf:RDF>
  </metadata>
  <sodipodi:namedview
     pagecolor="#ffffff"
     bordercolor="#666666"
     borderopacity="1"
     objecttolerance="10"
     gridtolerance="10"
     guidetolerance="10"
     inkscape:pageopacity="0"
     inkscape:pageshadow="2"
     inkscape:window-width="804"
     inkscape:window-height="661"
     id="namedview19"
     showgrid="true"
     inkscape:zoom="19.666667"
     inkscape:cx="12"
     inkscape:cy="12"
     inkscape:window-x="171"
     inkscape:window-y="152"
     inkscape:window-maximized="0"
     inkscape:current-layer="svg2">
    <inkscape:grid
       type="xygrid"
       id="grid2989"
       empspacing="5"
       visible="true"
       enabled="true"
       snapvisiblegridlinesonly="true" />
  </sodipodi:namedview>
  <defs
     id="defs4">
    <linearGradient
       gradientUnits="userSpaceOnUse"
       id="linearGradient1022-2"
       x2="0"
       y1="3.0069399"
       y2="11.02436">
      <stop
         offset="0"
         id="stop7" />
      <stop
         offset="1"
         stop-color="#363636"
         id="stop9" />
    </linearGradient>
    <linearGradient
       inkscape:collect="always"
       xlink:href="#linearGradient1022-2"
       id="linearGradient2999"
       gradientUnits="userSpaceOnUse"
       y1="3.0069399"
       x2="0"
       y2="11.02436"
       gradientTransform="matrix(1.25,0,0,1.2637052,-2.974575,-3.840432)" />
    <linearGradient
       inkscape:collect="always"
       xlink:href="#linearGradient1022-2"
       id="linearGradient3055"
       gradientUnits="userSpaceOnUse"
       gradientTransform="matrix(1.294925,0,0,1.3113859,-1.9593,-3.3032015)"
       y1="3.0069399"
       x2="0"
       y2="11.02436" />
  </defs>
  <title
     id="title11">Gnome Symbolic Icon Theme</title>
  <path
     id="path15"
     style="opacity:0.6;fill:#ffffff"
     d="M 3,15.454545 V 18 H 18 V 15.454545 H 3 z M 10.5,4 C 10.167525,4 9.833538,4.1134001 9.601563,4.3579547 L 3.3515625,10.721591 C 3.1563125,10.924069 3.03,11.194918 3,11.477273 v 0.15909 1.272728 h 15 v -1.272728 -0.15909 c -0.03,-0.282355 -0.156312,-0.553204 -0.351562,-0.755682 l -6.25,-6.3636363 C 11.160938,4.113591 10.8375,4 10.5,4 z"
     inkscape:connector-curvature="0" />
  <path
     id="path17"
     style="opacity:0.7;fill:url(#linearGradient2999)"
     d="M 3,14.47259 V 17 H 18 V 14.47259 H 3 z M 10.5,3 C 10.167525,3 9.833538,3.1140275 9.601563,3.359935 L 3.3515625,9.758781 C 3.1563125,9.96238 3.03,10.234728 3,10.518645 v 0.159971 1.279768 H 18 V 10.678616 10.518645 C 17.97,10.234728 17.843688,9.96238 17.648438,9.758781 l -6.25,-6.398846 C 11.160938,3.1142193 10.8375,3 10.5,3 z"
     inkscape:connector-curvature="0" />
</svg>
