<?xml version="1.0" encoding="UTF-8" standalone="no"?>
<!-- Created with Inkscape (http://www.inkscape.org/) -->

<svg
   xmlns:dc="http://purl.org/dc/elements/1.1/"
   xmlns:cc="http://creativecommons.org/ns#"
   xmlns:rdf="http://www.w3.org/1999/02/22-rdf-syntax-ns#"
   xmlns:svg="http://www.w3.org/2000/svg"
   xmlns="http://www.w3.org/2000/svg"
   xmlns:xlink="http://www.w3.org/1999/xlink"
   xmlns:sodipodi="http://sodipodi.sourceforge.net/DTD/sodipodi-0.dtd"
   xmlns:inkscape="http://www.inkscape.org/namespaces/inkscape"
   width="22"
   height="22"
   id="svg6662"
   version="1.1"
   inkscape:version="0.48.4 r9939"
   sodipodi:docname="process-stop.svg">
  <defs
     id="defs6664">
    <linearGradient
       y2="11.02436"
       y1="3.0069399"
       x2="0"
       id="linearGradient1022-8-8-3-0-27-9"
       gradientUnits="userSpaceOnUse">
      <stop
         id="stop3001-0-9-4-6-9"
         offset="0" />
      <stop
         id="stop3003-5-6-6-01-7-4"
         stop-color="#363636"
         offset="1" />
    </linearGradient>
    <linearGradient
       y2="-489.34335"
       x2="124.68819"
       y1="-499.27896"
       x1="124.68819"
       gradientTransform="matrix(-1.679991,0,0,1.5097216,549.47504,757.86672)"
       gradientUnits="userSpaceOnUse"
       id="linearGradient9162"
       xlink:href="#linearGradient1022-8-8-3-0-27-9"
       inkscape:collect="always" />
  </defs>
  <sodipodi:namedview
     id="base"
     pagecolor="#ffffff"
     bordercolor="#666666"
     borderopacity="1.0"
     inkscape:pageopacity="0.0"
     inkscape:pageshadow="2"
     inkscape:zoom="3.959798"
     inkscape:cx="31.628015"
     inkscape:cy="13.89448"
     inkscape:document-units="px"
     inkscape:current-layer="capa1"
     showgrid="false"
     inkscape:showpageshadow="false"
     inkscape:window-width="730"
     inkscape:window-height="702"
     inkscape:window-x="484"
     inkscape:window-y="100"
     inkscape:window-maximized="0"
     width="22px" />
  <metadata
     id="metadata6667">
    <rdf:RDF>
      <cc:Work
         rdf:about="">
        <dc:format>image/svg+xml</dc:format>
        <dc:type
           rdf:resource="http://purl.org/dc/dcmitype/StillImage" />
        <dc:title />
      </cc:Work>
    </rdf:RDF>
  </metadata>
  <g
     inkscape:label="Capa 1"
     inkscape:groupmode="layer"
     id="capa1"
     transform="translate(0,-1030.3622)">
    <g
       transform="translate(-326,721.00148)"
       id="process-stop">
      <rect
         style="opacity:0.6;color:#000000;fill:none;stroke:none;stroke-width:1;marker:none;visibility:visible;display:inline;overflow:visible;enable-background:accumulate"
         id="rect4202"
         width="24"
         height="24"
         x="325"
         y="308.36072" />
      <path
         id="path6267"
         style="opacity:0.59999999999999998;color:#000000;fill:#ffffff;fill-opacity:1;fill-rule:evenodd;stroke:none;stroke-width:1;marker:none;visibility:visible;display:inline;overflow:visible;enable-background:accumulate"
         d="m 333,320.36218 8,0 0,2 -8,0 z m 10.99999,4 -3.99999,4 -6,0 -4.00001,-4 10e-6,-6 4,-4 6,0 4,4 z m 2,1 -4.99998,5 -8,0 -5,-5 0,-8 5,-5 8,0 5,5 z"
         inkscape:connector-curvature="0" />
      <path
         inkscape:connector-curvature="0"
         d="m 333,11.094482 8,0 0,2 -8,0 z M 343.99999,15.09448 340,19.094484 l -6,0 -4.00001,-4.000004 10e-6,-5.9999961 4,-4.0000034 6,0 4,4.0000037 z m 2,1 -4.99998,5.000005 -8,0 -5,-4.999999 0,-8.0000014 5,-4.9999996 8,0 5,4.9999999 z"
         style="opacity:0.7;color:#000000;fill:url(#linearGradient9162);fill-opacity:1;fill-rule:evenodd;stroke:none;stroke-width:1;marker:none;visibility:visible;display:inline;overflow:visible;enable-background:accumulate"
         transform="translate(0,308.2677)"
         id="rect4505" />
    </g>
  </g>
</svg>
