<?xml version="1.0" encoding="UTF-8" standalone="no"?>
<!-- Created with Inkscape (http://www.inkscape.org/) -->

<svg
   xmlns:dc="http://purl.org/dc/elements/1.1/"
   xmlns:cc="http://creativecommons.org/ns#"
   xmlns:rdf="http://www.w3.org/1999/02/22-rdf-syntax-ns#"
   xmlns:svg="http://www.w3.org/2000/svg"
   xmlns="http://www.w3.org/2000/svg"
   xmlns:xlink="http://www.w3.org/1999/xlink"
   xmlns:sodipodi="http://sodipodi.sourceforge.net/DTD/sodipodi-0.dtd"
   xmlns:inkscape="http://www.inkscape.org/namespaces/inkscape"
   width="22"
   height="22"
   id="svg6662"
   version="1.1"
   inkscape:version="0.48.4 r9939"
   sodipodi:docname="stock_print-setup.svg">
  <defs
     id="defs6664">
    <linearGradient
       y2="11.02436"
       y1="3.0069399"
       x2="0"
       id="linearGradient1022-8-8-3-0-2"
       gradientUnits="userSpaceOnUse">
      <stop
         id="stop3001-0-9-4-1"
         offset="0" />
      <stop
         id="stop3003-5-6-6-1"
         stop-color="#363636"
         offset="1" />
    </linearGradient>
    <linearGradient
       inkscape:collect="always"
       xlink:href="#linearGradient1022-8-8-3-0-2"
       id="linearGradient3362"
       gradientUnits="userSpaceOnUse"
       gradientTransform="matrix(1.679991,0,0,1.5097216,-163.47504,-12.8981)"
       x1="103.25951"
       y1="9.8686085"
       x2="103.25951"
       y2="22.453711" />
  </defs>
  <sodipodi:namedview
     id="base"
     pagecolor="#ffffff"
     bordercolor="#666666"
     borderopacity="1.0"
     inkscape:pageopacity="0.0"
     inkscape:pageshadow="2"
     inkscape:zoom="11.313708"
     inkscape:cx="17.774586"
     inkscape:cy="10.074618"
     inkscape:document-units="px"
     inkscape:current-layer="capa1"
     showgrid="true"
     inkscape:showpageshadow="false"
     inkscape:window-width="1280"
     inkscape:window-height="976"
     inkscape:window-x="0"
     inkscape:window-y="24"
     inkscape:window-maximized="1">
    <inkscape:grid
       type="xygrid"
       id="grid3327"
       empspacing="5"
       visible="true"
       enabled="true"
       snapvisiblegridlinesonly="true" />
  </sodipodi:namedview>
  <metadata
     id="metadata6667">
    <rdf:RDF>
      <cc:Work
         rdf:about="">
        <dc:format>image/svg+xml</dc:format>
        <dc:type
           rdf:resource="http://purl.org/dc/dcmitype/StillImage" />
        <dc:title />
      </cc:Work>
    </rdf:RDF>
  </metadata>
  <g
     inkscape:label="Capa 1"
     inkscape:groupmode="layer"
     id="capa1"
     transform="translate(0,-1030.3622)">
    <g
       id="g3357"
       transform="translate(-1,1.0000174)">
      <rect
         y="1028.3622"
         x="0"
         height="24"
         width="24"
         id="rect2997"
         style="opacity:0.6;color:#000000;fill:none;stroke:none;stroke-width:1;marker:none;visibility:visible;display:inline;overflow:visible;enable-background:accumulate" />
      <path
         inkscape:connector-curvature="0"
         style="opacity:0.6;color:#000000;fill:#ffffff;fill-opacity:1;fill-rule:nonzero;stroke:none;stroke-width:0.66666669;marker:none;visibility:visible;display:inline;overflow:visible;enable-background:accumulate"
         d="m 8,1031.3622 0,10 -2,0 0,2 12,0 0,-2 -2,0 0,-10 -8,0 z m 2,2 4,0 0,8 -4,0 0,-8 z m -6,4 -2,2 0,9 2,2 16,0 2,-2 0,-9 -2,-2 -3,0 0,2 2,0 1,1 0,7 -1,1 -14,0 -1,-1 0,-7 1,-1 2,0 0,-2 -3,0 z m 4,7 0,3 2,0 0,-3 -2,0 z m 3,0 0,3 2,0 0,-3 -2,0 z m 3,0 0,3 2,0 0,-3 -2,0 z"
         id="path3338" />
      <path
         id="path3147"
         transform="translate(0,1028.3622)"
         d="m 8,2 0,10 -2,0 0,2 12,0 0,-2 -2,0 0,-10 -8,0 z m 2,2 4,0 0,8 -4,0 0,-8 z m -6,4 -2,2 0,9 2,2 16,0 2,-2 0,-9 -2,-2 -3,0 0,2 2,0 1,1 0,7 -1,1 L 5,19 4,18 4,11 5,10 7,10 7,8 4,8 z m 4,7 0,3 2,0 0,-3 -2,0 z m 3,0 0,3 2,0 0,-3 -2,0 z m 3,0 0,3 2,0 0,-3 -2,0 z"
         style="opacity:0.7;color:#000000;fill:url(#linearGradient3362);fill-opacity:1;fill-rule:nonzero;stroke:none;stroke-width:1;marker:none;visibility:visible;display:inline;overflow:visible;enable-background:accumulate"
         inkscape:connector-curvature="0" />
    </g>
  </g>
</svg>
