<?xml version="1.0" encoding="UTF-8" standalone="no"?>
<!-- Created with Inkscape (http://www.inkscape.org/) -->

<svg xmlns:dc="http://purl.org/dc/elements/1.1/" xmlns:cc="http://creativecommons.org/ns#" xmlns:rdf="http://www.w3.org/1999/02/22-rdf-syntax-ns#" xmlns:svg="http://www.w3.org/2000/svg" xmlns="http://www.w3.org/2000/svg" xmlns:xlink="http://www.w3.org/1999/xlink" xmlns:sodipodi="http://sodipodi.sourceforge.net/DTD/sodipodi-0.dtd" xmlns:inkscape="http://www.inkscape.org/namespaces/inkscape" width="22" height="22" id="svg3330" version="1.1" inkscape:version="0.48.4 r9939" sodipodi:docname="system-restart-panel.svg">
    <defs id="defs3332">
        <linearGradient y2="11.02436" y1="3.0069399" x2="0" id="linearGradient1022-8-8-3-0-2-9-92" gradientUnits="userSpaceOnUse">
            <stop id="stop3001-0-9-4-1-28-7" offset="0" style="stop-color:#397bba;stop-opacity:1" />
            <stop id="stop3003-5-6-6-1-8-8" stop-color="#363636" offset="1" style="stop-color:#459bcd;stop-opacity:1" />
        </linearGradient>
        <linearGradient y2="8.083209" x2="8.4964771" y1="-0.061573759" x1="8.4964771" gradientTransform="matrix(0.91099031,0,0,1.1382037,3.7120788,1.9447126)" gradientUnits="userSpaceOnUse" id="linearGradient2999" xlink:href="#linearGradient3875" inkscape:collect="always" />
        <linearGradient y2="15.00281" x2="11.644068" y1="2.4988678" x1="11.644068" gradientTransform="matrix(1.1570248,0,0,1.1320754,1.743802,2.0943399)" gradientUnits="userSpaceOnUse" id="linearGradient2996" xlink:href="#linearGradient3881" inkscape:collect="always" />
        <linearGradient id="linearGradient3875">
            <stop id="stop3877" style="stop-color:#3879b9;stop-opacity:1" offset="0" />
            <stop id="stop3879" style="stop-color:#469cce;stop-opacity:1" offset="1" />
        </linearGradient>
        <linearGradient id="linearGradient3881">
            <stop id="stop3883" style="stop-color:#3675b7;stop-opacity:1" offset="0" />
            <stop id="stop3885" style="stop-color:#469dce;stop-opacity:1" offset="1" />
        </linearGradient>
    </defs>
    <sodipodi:namedview id="base" pagecolor="#ffffff" bordercolor="#666666" borderopacity="1.0" inkscape:pageopacity="0.0" inkscape:pageshadow="2" inkscape:zoom="22.4" inkscape:cx="10.67605" inkscape:cy="12.703982" inkscape:document-units="px" inkscape:current-layer="capa1" showgrid="true" inkscape:showpageshadow="false" inkscape:window-width="1215" inkscape:window-height="1000" inkscape:window-x="65" inkscape:window-y="24" inkscape:window-maximized="1">
        <inkscape:grid type="xygrid" id="grid3004" empspacing="5" visible="true" enabled="true" snapvisiblegridlinesonly="true" />
    </sodipodi:namedview>
    <metadata id="metadata3335">
        <rdf:RDF>
            <cc:Work rdf:about="">
                <dc:format>image/svg+xml</dc:format>
                <dc:type rdf:resource="http://purl.org/dc/dcmitype/StillImage" />
                <dc:title />
            </cc:Work>
        </rdf:RDF>
    </metadata>
    <g inkscape:label="Capa 1" inkscape:groupmode="layer" id="capa1" transform="translate(0,-1030.3622)">
        <path id="path3830" d="m 10.5,1031.3622 -1.5,1 0,5 1.5,1 1.5,-1 0,-5 -1.5,-1 z m -7.5,3 0,2 3,3 2,0 0,-2 -3,-3 -2,0 z m 13,0 -3,3 0,2 2,0 3,-3 0,-2 -2,0 z m -15,6 -1,1.5 1,1.5 5,0 1,-1.5 -1,-1.5 -5,0 z m 14,0 -1,1.5 1,1.5 5,0 1,-1.5 -1,-1.5 -5,0 z m -9,4 -3,3 0,2 2,0 3,-3 0,-2 -2,0 z m 7,0 0,2 3,3 2,0 0,-2 -3,-3 -2,0 z m -2.5,1 -1.5,1 0,5 1.5,1 1.5,-1 0,-5 -1.5,-1 z" style="opacity:0.6;color:#000000;fill:#ffffff;fill-opacity:1;fill-rule:nonzero;stroke:none;stroke-width:1;marker:none;visibility:visible;display:inline;overflow:visible;enable-background:accumulate" inkscape:connector-curvature="0" />
        <path style="opacity:1;color:#000000;fill:#3b81bd;fill-opacity:1;fill-rule:nonzero;stroke:none;stroke-width:1;marker:none;visibility:visible;display:inline;overflow:visible;enable-background:accumulate" d="m 10.5,1030.3622 -1.5,1 0,5 1.5,1 1.5,-1 0,-5 -1.5,-1 z m -7.5,3 0,2 3,3 2,0 0,-2 -3,-3 -2,0 z m 13,0 -3,3 0,2 2,0 3,-3 0,-2 -2,0 z m -15,6 -1,1.5 1,1.5 5,0 1,-1.5 -1,-1.5 -5,0 z m 14,0 -1,1.5 1,1.5 5,0 1,-1.5 -1,-1.5 -5,0 z m -9,4 -3,3 0,2 2,0 3,-3 0,-2 -2,0 z m 7,0 0,2 3,3 2,0 0,-2 -3,-3 -2,0 z m -2.5,1 -1.5,1 0,5 1.5,1 1.5,-1 0,-5 -1.5,-1 z" id="path3793" inkscape:connector-curvature="0" />
    </g>
</svg>
