<svg viewBox="0 0 22 22" xmlns="http://www.w3.org/2000/svg">
<defs>
<linearGradient gradientUnits="userSpaceOnUse" id="linearGradient1022-2-3" x2="0" y1="-.6049" y2="9.02416">
<stop offset="0"/>
<stop offset="1" stop-color="#363636"/>
</linearGradient>
</defs>
<title>Gnome Symbolic Icon Theme</title>
<path d="m4.99491,4.58778c-1.0612,0-2.40204,1.32941-2.40204,2.40204v12.01018h2.40204v-10.59866c0-1.49364 1.22034-1.41152 1.22034-1.41152h9.77289c0,0 1.01695-.08178 1.01695,1.20813v10.80205h2.40204v-12.01018c0-1.07268-1.34082-2.40204-2.40204-2.40204zm4.80407,4.80407v2.40204h-2.40204v2.40204h2.40204v2.40204h2.40204v-2.40204h2.40204v-2.40204h-2.40204v-2.40204z" fill="#fff" opacity=".6"/>
<path d="m4.99491,3c-1.0612,0-2.40204,1.32941-2.40204,2.40204v12.01018h2.40204v-10.59866c0-1.49364 1.22034-1.41152 1.22034-1.41152h9.77289c0,0 1.01695-.08178 1.01695,1.20813v10.80205h2.40204v-12.01018c0-1.07268-1.34082-2.40204-2.40204-2.40204zm4.80407,4.80407v2.40204h-2.40204v2.40204h2.40204v2.40204h2.40204v-2.40204h2.40204v-2.40204h-2.40204v-2.40204z" fill="url(#linearGradient1022-2-3)" opacity=".7"/>
</svg>
