<?xml version="1.0" encoding="UTF-8" standalone="no"?>
<!-- Created with Inkscape (http://www.inkscape.org/) -->

<svg
   xmlns:dc="http://purl.org/dc/elements/1.1/"
   xmlns:cc="http://creativecommons.org/ns#"
   xmlns:rdf="http://www.w3.org/1999/02/22-rdf-syntax-ns#"
   xmlns:svg="http://www.w3.org/2000/svg"
   xmlns="http://www.w3.org/2000/svg"
   xmlns:xlink="http://www.w3.org/1999/xlink"
   xmlns:sodipodi="http://sodipodi.sourceforge.net/DTD/sodipodi-0.dtd"
   xmlns:inkscape="http://www.inkscape.org/namespaces/inkscape"
   width="22"
   height="22"
   id="svg6662"
   version="1.1"
   inkscape:version="0.48.4 r9939"
   sodipodi:docname="tab-new.svg">
  <defs
     id="defs6664">
    <linearGradient
       y2="11.02436"
       y1="3.0069399"
       x2="0"
       id="linearGradient1022-8-8-3-0-2-99-2"
       gradientUnits="userSpaceOnUse">
      <stop
         id="stop3001-0-9-4-1-0-6"
         offset="0" />
      <stop
         id="stop3003-5-6-6-1-3-3"
         stop-color="#363636"
         offset="1" />
    </linearGradient>
    <linearGradient
       inkscape:collect="always"
       xlink:href="#linearGradient1022-8-8-3-0-2-99-2"
       id="linearGradient3067"
       gradientUnits="userSpaceOnUse"
       gradientTransform="matrix(1.679991,0,0,1.5097216,70.02496,774.36672)"
       x1="124.09295"
       y1="-296.74573"
       x2="124.09295"
       y2="-283.49899" />
  </defs>
  <sodipodi:namedview
     id="base"
     pagecolor="#ffffff"
     bordercolor="#666666"
     borderopacity="1.0"
     inkscape:pageopacity="0.0"
     inkscape:pageshadow="2"
     inkscape:zoom="11.313708"
     inkscape:cx="28.916693"
     inkscape:cy="12.655249"
     inkscape:document-units="px"
     inkscape:current-layer="tab-new"
     showgrid="true"
     inkscape:showpageshadow="false"
     inkscape:window-width="1280"
     inkscape:window-height="976"
     inkscape:window-x="0"
     inkscape:window-y="24"
     inkscape:window-maximized="1"
     inkscape:snap-bbox="true">
    <inkscape:grid
       type="xygrid"
       id="grid2990"
       empspacing="5"
       visible="true"
       enabled="true"
       snapvisiblegridlinesonly="true" />
  </sodipodi:namedview>
  <metadata
     id="metadata6667">
    <rdf:RDF>
      <cc:Work
         rdf:about="">
        <dc:format>image/svg+xml</dc:format>
        <dc:type
           rdf:resource="http://purl.org/dc/dcmitype/StillImage" />
        <dc:title />
      </cc:Work>
    </rdf:RDF>
  </metadata>
  <g
     inkscape:label="Capa 1"
     inkscape:groupmode="layer"
     id="capa1"
     transform="translate(0,-1030.3622)">
    <g
       id="tab-new"
       transform="translate(-265,705.00002)">
      <path
         style="opacity:0.6;color:black;fill:white;fill-opacity:1;fill-rule:nonzero;stroke:none;stroke-width:1;marker:none;visibility:visible;display:inline;overflow:visible;enable-background:accumulate"
         d="m 269,327.36218 -2,2 0,15.99927 -2,7.3e-4 0,2 4,0 0,-17.00073 1,-0.99927 12,0 1,0.99927 0,17.00073 4,0 0,-2 -2,-7.3e-4 0,-15.99927 -2,-2 z m 6,6 0,3 -3,0 0,2 3,0 0,3 2,0 0,-3 3,0 0,-2 -3,0 0,-3 z"
         id="path3046"
         inkscape:connector-curvature="0"
         sodipodi:nodetypes="cccccccccccccccccccccccccccccc" />
      <path
         sodipodi:nodetypes="cccccccccccccccccccccccccccccc"
         inkscape:connector-curvature="0"
         id="path3527"
         d="m 269,326.36218 -2,2 0,15.99927 -2,7.3e-4 0,2 4,0 0,-17.00073 1,-0.99927 12,0 1,0.99927 0,17.00073 4,0 0,-2 -2,-7.3e-4 0,-15.99927 -2,-2 z m 6,6 0,3 -3,0 0,2 3,0 0,3 2,0 0,-3 3,0 0,-2 -3,0 0,-3 z"
         style="opacity:0.7;color:black;fill:url(#linearGradient3067);fill-opacity:1;fill-rule:nonzero;stroke:none;stroke-width:1;marker:none;visibility:visible;display:inline;overflow:visible;enable-background:accumulate" />
    </g>
  </g>
</svg>
