<?xml version="1.0" encoding="UTF-8" standalone="no"?>
<!-- Created with Inkscape (http://www.inkscape.org/) -->

<svg
   xmlns:dc="http://purl.org/dc/elements/1.1/"
   xmlns:cc="http://creativecommons.org/ns#"
   xmlns:rdf="http://www.w3.org/1999/02/22-rdf-syntax-ns#"
   xmlns:svg="http://www.w3.org/2000/svg"
   xmlns="http://www.w3.org/2000/svg"
   xmlns:xlink="http://www.w3.org/1999/xlink"
   xmlns:sodipodi="http://sodipodi.sourceforge.net/DTD/sodipodi-0.dtd"
   xmlns:inkscape="http://www.inkscape.org/namespaces/inkscape"
   width="22"
   height="22"
   id="svg6662"
   version="1.1"
   inkscape:version="0.48.3.1 r9886"
   sodipodi:docname="view-fullscreen.svg">
  <defs
     id="defs6664">
    <linearGradient
       y2="11.02436"
       y1="3.0069399"
       x2="0"
       id="linearGradient1022-8-8-3-0-1-3"
       gradientUnits="userSpaceOnUse">
      <stop
         id="stop3001-0-9-4-2-3"
         offset="0" />
      <stop
         id="stop3003-5-6-6-2-11"
         stop-color="#363636"
         offset="1" />
    </linearGradient>
    <linearGradient
       y2="21.129047"
       x2="139.87202"
       y1="11.192986"
       x1="139.87202"
       gradientTransform="matrix(1.119994,0,0,1.0064811,85.016638,119.49574)"
       gradientUnits="userSpaceOnUse"
       id="linearGradient9038"
       xlink:href="#linearGradient1022-8-8-3-0-1-3"
       inkscape:collect="always" />
  </defs>
  <sodipodi:namedview
     id="base"
     pagecolor="#ffffff"
     bordercolor="#666666"
     borderopacity="1.0"
     inkscape:pageopacity="0.0"
     inkscape:pageshadow="2"
     inkscape:zoom="3.959798"
     inkscape:cx="31.628015"
     inkscape:cy="13.136866"
     inkscape:document-units="px"
     inkscape:current-layer="capa1"
     showgrid="false"
     inkscape:showpageshadow="false"
     inkscape:window-width="730"
     inkscape:window-height="702"
     inkscape:window-x="484"
     inkscape:window-y="100"
     inkscape:window-maximized="0"
     width="22px" />
  <metadata
     id="metadata6667">
    <rdf:RDF>
      <cc:Work
         rdf:about="">
        <dc:format>image/svg+xml</dc:format>
        <dc:type
           rdf:resource="http://purl.org/dc/dcmitype/StillImage" />
        <dc:title />
      </cc:Work>
    </rdf:RDF>
  </metadata>
  <g
     inkscape:label="Capa 1"
     inkscape:groupmode="layer"
     id="capa1"
     transform="translate(0,-1030.3622)">
    <g
       id="view-fullscreen"
       transform="matrix(1.4999313,0,0,1.4999313,-353.48386,374.85)">
      <rect
         y="436.36218"
         x="235"
         height="16"
         width="16"
         id="rect3047"
         style="opacity:0.6;color:#000000;fill:none;stroke:none;stroke-width:1;marker:none;visibility:visible;display:inline;overflow:visible;enable-background:accumulate" />
      <path
         sodipodi:nodetypes="cccccccccccccccccccccccccccc"
         inkscape:connector-curvature="0"
         id="path6468"
         d="m 237.006,439.02943 0.006,4.6677 2,0 -0.006,-2.6677 2.67247,9.1e-4 0,-2 z m 7.33926,9.1e-4 0,2 2.66074,-9.1e-4 0.006,2.6677 2,0 -0.006,-4.6677 z m -7.33358,7.33358 -0.006,4.66551 4.67247,0.001 0,-2 -2.67247,-0.001 0.006,-2.66551 z m 10.00046,0 -0.006,2.66551 -2.66074,0.001 0,2 4.66074,-0.001 0.006,-4.66551 z"
         style="opacity:0.6;color:#000000;fill:#ffffff;fill-opacity:1;fill-rule:nonzero;stroke:none;stroke-width:0.6666972;marker:none;visibility:visible;display:inline;overflow:visible;enable-background:accumulate" />
      <path
         style="opacity:0.7;color:#000000;fill:url(#linearGradient9038);fill-opacity:1;fill-rule:nonzero;stroke:none;stroke-width:1;marker:none;visibility:visible;display:inline;overflow:visible;enable-background:accumulate"
         d="m 237,130.09375 0.006,4.6677 2,0 -0.006,-2.6677 2.67247,9.1e-4 0,-2 z m 7.33926,9.1e-4 0,2 2.66074,-9.1e-4 0.006,2.6677 2,0 -0.006,-4.6677 z m -7.33358,7.33358 -0.006,4.66551 4.67247,0.001 0,-2 -2.67247,-0.001 0.006,-2.66551 z m 10.00046,0 -0.006,2.66551 -2.66074,0.001 0,2 4.66074,-0.001 0.006,-4.66551 z"
         transform="translate(0,308.2677)"
         id="path6619"
         inkscape:connector-curvature="0"
         sodipodi:nodetypes="cccccccccccccccccccccccccccc" />
    </g>
  </g>
</svg>
