<?xml version="1.0" encoding="UTF-8" standalone="no"?>
<svg
   xmlns:dc="http://purl.org/dc/elements/1.1/"
   xmlns:cc="http://creativecommons.org/ns#"
   xmlns:rdf="http://www.w3.org/1999/02/22-rdf-syntax-ns#"
   xmlns:svg="http://www.w3.org/2000/svg"
   xmlns="http://www.w3.org/2000/svg"
   xmlns:xlink="http://www.w3.org/1999/xlink"
   xmlns:sodipodi="http://sodipodi.sourceforge.net/DTD/sodipodi-0.dtd"
   xmlns:inkscape="http://www.inkscape.org/namespaces/inkscape"
   viewBox="0 0 22 22"
   id="svg2"
   version="1.1"
   inkscape:version="0.48.3.1 r9886"
   width="100%"
   height="100%"
   sodipodi:docname="window-new.svg">
  <metadata
     id="metadata21">
    <rdf:RDF>
      <cc:Work
         rdf:about="">
        <dc:format>image/svg+xml</dc:format>
        <dc:type
           rdf:resource="http://purl.org/dc/dcmitype/StillImage" />
      </cc:Work>
    </rdf:RDF>
  </metadata>
  <sodipodi:namedview
     pagecolor="#ffffff"
     bordercolor="#666666"
     borderopacity="1"
     objecttolerance="10"
     gridtolerance="10"
     guidetolerance="10"
     inkscape:pageopacity="0"
     inkscape:pageshadow="2"
     inkscape:window-width="835"
     inkscape:window-height="731"
     id="namedview19"
     showgrid="true"
     inkscape:zoom="13.906433"
     inkscape:cx="7.220339"
     inkscape:cy="12.889082"
     inkscape:window-x="168"
     inkscape:window-y="131"
     inkscape:window-maximized="0"
     inkscape:current-layer="svg2">
    <inkscape:grid
       type="xygrid"
       id="grid2998"
       empspacing="5"
       visible="true"
       enabled="true"
       snapvisiblegridlinesonly="true" />
  </sodipodi:namedview>
  <defs
     id="defs4">
    <linearGradient
       gradientUnits="userSpaceOnUse"
       id="linearGradient1022-2-3"
       x2="0"
       y1="-0.6049"
       y2="9.0241604">
      <stop
         offset="0"
         id="stop7" />
      <stop
         offset="1"
         stop-color="#363636"
         id="stop9" />
    </linearGradient>
    <linearGradient
       inkscape:collect="always"
       xlink:href="#linearGradient1022-2-3"
       id="linearGradient3001"
       gradientUnits="userSpaceOnUse"
       y1="-0.6049"
       x2="0"
       y2="9.0241604"
       gradientTransform="translate(1.00013,1)" />
    <linearGradient
       inkscape:collect="always"
       xlink:href="#linearGradient1022-2-3"
       id="linearGradient3006"
       gradientUnits="userSpaceOnUse"
       gradientTransform="matrix(1,0,0,-1,1.00013,23.61017)"
       y1="-0.6049"
       x2="0"
       y2="9.0241604" />
    <linearGradient
       inkscape:collect="always"
       xlink:href="#linearGradient1022-2-3"
       id="linearGradient3051"
       gradientUnits="userSpaceOnUse"
       gradientTransform="matrix(1,0,0,-1,1.00013,23.91)"
       y1="-0.6049"
       x2="0"
       y2="9.0241604" />
    <linearGradient
       inkscape:collect="always"
       xlink:href="#linearGradient1022-2-3"
       id="linearGradient3057"
       gradientUnits="userSpaceOnUse"
       gradientTransform="matrix(1,0,0,-1,0.79898,24.20611)"
       y1="-0.6049"
       x2="0"
       y2="9.0241604" />
    <linearGradient
       inkscape:collect="always"
       xlink:href="#linearGradient1022-2-3"
       id="linearGradient3061"
       gradientUnits="userSpaceOnUse"
       gradientTransform="translate(1.00013,1)"
       y1="-0.6049"
       x2="0"
       y2="9.0241604" />
    <linearGradient
       inkscape:collect="always"
       xlink:href="#linearGradient1022-2-3"
       id="linearGradient3083"
       gradientUnits="userSpaceOnUse"
       gradientTransform="matrix(1.0111524,0,0,1.0055453,0.37745487,0.98361414)"
       y1="-0.6049"
       x2="0"
       y2="9.0241604" />
    <linearGradient
       inkscape:collect="always"
       xlink:href="#linearGradient1022-2-3"
       id="linearGradient3091"
       gradientUnits="userSpaceOnUse"
       gradientTransform="matrix(1.1666668,0,0,1.1573715,-0.83318215,-1.2562261)"
       y1="-0.6049"
       x2="0"
       y2="9.0241604" />
    <linearGradient
       inkscape:collect="always"
       xlink:href="#linearGradient1022-2-3"
       id="linearGradient3112"
       gradientUnits="userSpaceOnUse"
       gradientTransform="matrix(1.0706324,0,0,1.0646953,0.22318747,-0.19383506)"
       y1="-0.6049"
       x2="0"
       y2="9.0241604" />
    <linearGradient
       inkscape:collect="always"
       xlink:href="#linearGradient1022-2-3"
       id="linearGradient3115"
       gradientUnits="userSpaceOnUse"
       gradientTransform="matrix(1.1666668,0,0,1.1573715,-1.8331821,-2.2562261)"
       y1="-0.6049"
       x2="0"
       y2="9.0241604" />
  </defs>
  <title
     id="title11">Gnome Symbolic Icon Theme</title>
  <path
     id="path3118"
     d="M 4.5625,3 C 3.4263451,3 2,4.420476 2,5.5625 l 0,12.875 C 2,19.579528 3.4263451,21 4.5625,21 l 12.875,0 C 18.573676,21 20,19.579578 20,18.4375 l 0,-2.125 0,-8.625 0,-2.125 C 20,4.4204227 18.573676,3 17.4375,3 L 4.5625,3 z m 0.65625,2 11.625,0 C 16.84375,5 18,4.9133445 18,6.40625 L 18,17.625 C 18,19.117905 16.84375,19 16.84375,19 L 5.4375,19 C 5.4375,19 4,19.103687 4,17.375 L 4,6.625 C 4,5.3284778 4.8183259,5.0543017 5.21875,5 z M 10,8 l 0,3 -3,0 0,2 3,0 0,3 2,0 0,-3 3,0 0,-2 -3,0 0,-3 -2,0 z"
     style="opacity:0.6;color:#000000;fill:#ffffff;fill-opacity:1;fill-rule:nonzero;stroke-width:1;stroke-linecap:butt;stroke-linejoin:miter;stroke-miterlimit:4;stroke-opacity:1;stroke-dasharray:none;stroke-dashoffset:0;marker:none;visibility:visible;display:inline;overflow:visible;enable-background:accumulate"
     inkscape:connector-curvature="0" />
  <path
     style="opacity:0.7;fill:url(#linearGradient3115)"
     d="M 4.5625,2 C 3.4263451,2 2,3.420476 2,4.5625 l 0,12.875 C 2,18.579528 3.4263451,20 4.5625,20 l 12.875,0 C 18.573676,20 20,18.579578 20,17.4375 l 0,-2.125 0,-8.625 0,-2.125 C 20,3.4204227 18.573676,2 17.4375,2 L 4.5625,2 z m 0.65625,2 11.625,0 C 16.84375,4 18,3.9133445 18,5.40625 L 18,16.625 C 18,18.117905 16.84375,18 16.84375,18 L 5.4375,18 C 5.4375,18 4,18.103687 4,16.375 L 4,5.625 C 4,4.3284778 4.8183259,4.0543017 5.21875,4 z M 10,7 l 0,3 -3,0 0,2 3,0 0,3 2,0 0,-3 3,0 0,-2 -3,0 0,-3 -2,0 z"
     id="path3087"
     inkscape:connector-curvature="0" />
</svg>
