<?xml version="1.0" encoding="UTF-8" standalone="no"?>
<!-- Created with Inkscape (http://www.inkscape.org/) -->

<svg
   xmlns:dc="http://purl.org/dc/elements/1.1/"
   xmlns:cc="http://creativecommons.org/ns#"
   xmlns:rdf="http://www.w3.org/1999/02/22-rdf-syntax-ns#"
   xmlns:svg="http://www.w3.org/2000/svg"
   xmlns="http://www.w3.org/2000/svg"
   xmlns:xlink="http://www.w3.org/1999/xlink"
   xmlns:sodipodi="http://sodipodi.sourceforge.net/DTD/sodipodi-0.dtd"
   xmlns:inkscape="http://www.inkscape.org/namespaces/inkscape"
   width="22"
   height="22"
   id="svg6662"
   version="1.1"
   inkscape:version="0.48.4 r9939"
   sodipodi:docname="zoom-out.svg">
  <defs
     id="defs6664">
    <linearGradient
       y2="11.02436"
       y1="3.0069399"
       x2="0"
       id="linearGradient1022-8-8-3-0-27-08"
       gradientUnits="userSpaceOnUse">
      <stop
         id="stop3001-0-9-4-6-90"
         offset="0" />
      <stop
         id="stop3003-5-6-6-01-73"
         stop-color="#363636"
         offset="1" />
    </linearGradient>
    <linearGradient
       y2="24.440346"
       x2="197.01001"
       y1="11.192868"
       x1="197.01001"
       gradientTransform="matrix(1.6799908,0,0,1.5097214,94.025002,295.46407)"
       gradientUnits="userSpaceOnUse"
       id="linearGradient9722"
       xlink:href="#linearGradient1022-8-8-3-0-27-08"
       inkscape:collect="always" />
  </defs>
  <sodipodi:namedview
     id="base"
     pagecolor="#ffffff"
     bordercolor="#666666"
     borderopacity="1.0"
     inkscape:pageopacity="0.0"
     inkscape:pageshadow="2"
     inkscape:zoom="3.959798"
     inkscape:cx="31.628015"
     inkscape:cy="13.136866"
     inkscape:document-units="px"
     inkscape:current-layer="capa1"
     showgrid="false"
     inkscape:showpageshadow="false"
     inkscape:window-width="730"
     inkscape:window-height="702"
     inkscape:window-x="548"
     inkscape:window-y="294"
     inkscape:window-maximized="0" />
  <metadata
     id="metadata6667">
    <rdf:RDF>
      <cc:Work
         rdf:about="">
        <dc:format>image/svg+xml</dc:format>
        <dc:type
           rdf:resource="http://purl.org/dc/dcmitype/StillImage" />
        <dc:title />
      </cc:Work>
    </rdf:RDF>
  </metadata>
  <g
     inkscape:label="Capa 1"
     inkscape:groupmode="layer"
     id="capa1"
     transform="translate(0,-1030.3622)">
    <g
       transform="translate(-416,721.00148)"
       id="zoom-out"
       inkscape:label="#zoom-out">
      <rect
         style="opacity:0.6;color:#000000;fill:none;stroke:none;stroke-width:1;marker:none;visibility:visible;display:inline;overflow:visible;enable-background:accumulate"
         id="rect4216"
         width="24"
         height="24"
         x="415"
         y="308.36072" />
      <path
         sodipodi:nodetypes="ccccccccccccccccccccccc"
         style="opacity:0.6;color:#000000;fill:#ffffff;fill-opacity:1;fill-rule:nonzero;stroke:none;stroke-width:1;marker:none;visibility:visible;display:inline;overflow:visible;enable-background:accumulate"
         d="m 421,312.36218 -3,3 0,12 3,3 12,0 3,-3 0,-12 -3,-3 z m 1,2 10,0 2,2 0,10 -2,2 -10,0 -2,-2 0,-10 z m 1,6 0,2 8,0 0,-2 z"
         id="path6243"
         inkscape:connector-curvature="0" />
      <path
         inkscape:connector-curvature="0"
         id="path5395"
         d="m 421,311.36218 -3,3 0,12 3,3 12,0 3,-3 0,-12 -3,-3 z m 1,2 10,0 2,2 0,10 -2,2 -10,0 -2,-2 0,-10 z m 1,6 0,2 8,0 0,-2 z"
         style="opacity:0.7;color:#000000;fill:url(#linearGradient9722);fill-opacity:1;fill-rule:nonzero;stroke:none;stroke-width:1;marker:none;visibility:visible;display:inline;overflow:visible;enable-background:accumulate"
         sodipodi:nodetypes="ccccccccccccccccccccccc" />
    </g>
  </g>
</svg>
