<?xml version="1.0" encoding="UTF-8" standalone="no"?>
<!-- Created with Inkscape (http://www.inkscape.org/) -->

<svg xmlns:dc="http://purl.org/dc/elements/1.1/" xmlns:cc="http://creativecommons.org/ns#" xmlns:rdf="http://www.w3.org/1999/02/22-rdf-syntax-ns#" xmlns:svg="http://www.w3.org/2000/svg" xmlns="http://www.w3.org/2000/svg" xmlns:xlink="http://www.w3.org/1999/xlink" xmlns:sodipodi="http://sodipodi.sourceforge.net/DTD/sodipodi-0.dtd" xmlns:inkscape="http://www.inkscape.org/namespaces/inkscape" width="64" height="64" id="svg4700" version="1.1" inkscape:version="0.48.3.1 r9886" sodipodi:docname="media-optical.svg">
  <defs id="defs4702">
    <linearGradient id="linearGradient4096">
      <stop style="stop-color:#000000;stop-opacity:1;" offset="0" id="stop4098" />
      <stop id="stop4104" offset="0.59924078" style="stop-color:#000000;stop-opacity:1;" />
      <stop style="stop-color:#000000;stop-opacity:0;" offset="1" id="stop4100" />
    </linearGradient>
    <linearGradient id="linearGradient4009">
      <stop id="stop4012" offset="0" style="stop-color:#ffffff;stop-opacity:0;" />
      <stop style="stop-color:#ffffff;stop-opacity:0.54901963;" offset="0.5" id="stop4017" />
      <stop id="stop4014" offset="1" style="stop-color:#ffffff;stop-opacity:0;" />
    </linearGradient>
    <linearGradient id="linearGradient4390">
      <stop style="stop-color:#ffffff;stop-opacity:0.75384617;" offset="0" id="stop4392" />
      <stop style="stop-color:#ffffff;stop-opacity:0;" offset="1" id="stop4394" />
    </linearGradient>
    <linearGradient id="linearGradient4517">
      <stop style="stop-color:#ffffff;stop-opacity:1;" offset="0" id="stop4519" />
      <stop style="stop-color:#ffffff;stop-opacity:0;" offset="1" id="stop4521" />
    </linearGradient>
    <filter id="filter3174" color-interpolation-filters="sRGB">
      <feGaussianBlur stdDeviation="1.71" id="feGaussianBlur3176" />
    </filter>
    <linearGradient gradientTransform="scale(1.0058652,0.994169)" gradientUnits="userSpaceOnUse" id="ButtonShadow" y2="7.0165396" x2="45.447727" y1="92.539597" x1="45.447727">
      <stop offset="0" style="stop-color:#000000;stop-opacity:1" id="stop3750" />
      <stop offset="1" style="stop-color:#000000;stop-opacity:0.58823532" id="stop3752" />
    </linearGradient>
    <linearGradient id="linearGradient3173">
      <stop offset="0" style="stop-color:#d2d2d2;stop-opacity:1;" id="stop3187" />
      <stop offset="1" style="stop-color:#3b3b3b;stop-opacity:1;" id="stop3177" />
    </linearGradient>
    <linearGradient id="linearGradient3322">
      <stop offset="0" style="stop-color:#000000;stop-opacity:1;" id="stop3326" />
      <stop offset="1" style="stop-color:#000000;stop-opacity:0;" id="stop3330" />
    </linearGradient>
    <linearGradient id="linearGradient986-3">
      <stop style="stop-color:#ffffff;stop-opacity:1;" offset="0" id="stop988-9" />
      <stop style="stop-color:#ffffff;stop-opacity:0;" offset="1" id="stop990-4" />
    </linearGradient>
    <linearGradient x1="45.447727" y1="92.539597" x2="45.447727" y2="7.0165396" id="ButtonShadow-7" gradientUnits="userSpaceOnUse" gradientTransform="scale(1.0058652,0.994169)">
      <stop id="stop3750-5" style="stop-color:#000000;stop-opacity:1" offset="0" />
      <stop id="stop3752-1" style="stop-color:#000000;stop-opacity:0.58823532" offset="1" />
    </linearGradient>
    <filter color-interpolation-filters="sRGB" id="filter3174-8">
      <feGaussianBlur id="feGaussianBlur3176-3" stdDeviation="1.71" />
    </filter>
    <linearGradient id="linearGradient3772">
      <stop id="stop3774" style="stop-color:#898989;stop-opacity:1;" offset="0" />
      <stop id="stop3776" style="stop-color:#000000;stop-opacity:1;" offset="1" />
    </linearGradient>
    <linearGradient x1="12.2744" y1="32.4165" x2="35.391201" y2="14.2033" id="linearGradient3263" gradientUnits="userSpaceOnUse">
      <stop id="stop3265" style="stop-color:#c7c7c7;stop-opacity:1;" offset="0" />
      <stop id="stop3267" style="stop-color:#eaeaea;stop-opacity:1;" offset="0.5" />
      <stop id="stop3269" style="stop-color:#c7c7c7;stop-opacity:1;" offset="1" />
    </linearGradient>
    <linearGradient id="linearGradient6036">
      <stop id="stop6038" style="stop-color:#ffffff;stop-opacity:1" offset="0" />
      <stop id="stop6040" style="stop-color:#ffffff;stop-opacity:0" offset="1" />
    </linearGradient>
    <linearGradient inkscape:collect="always" xlink:href="#linearGradient4009" id="linearGradient3984" gradientUnits="userSpaceOnUse" gradientTransform="matrix(1,0,0,1.4242424,-44.000002,4.227271)" x1="11.625" y1="3.3750012" x2="11.625" y2="35.125988" />
    <linearGradient inkscape:collect="always" xlink:href="#linearGradient4390" id="linearGradient3987" gradientUnits="userSpaceOnUse" x1="11.625" y1="3.3750012" x2="11.625" y2="35.125988" gradientTransform="matrix(1,0,0,1.3333333,3.9999999,-15.000002)" />
    <linearGradient inkscape:collect="always" xlink:href="#linearGradient986-3" id="linearGradient3990" gradientUnits="userSpaceOnUse" gradientTransform="matrix(1.36248,0,0,1.2054795,-1.9491302,-19.232876)" x1="18.674173" y1="3.8322909" x2="34.45406" y2="25.487436" />
    <linearGradient inkscape:collect="always" xlink:href="#linearGradient3173" id="linearGradient4007" gradientUnits="userSpaceOnUse" gradientTransform="matrix(0.63095235,0,0,0.62499994,1.7142863,-36.25)" x1="46.430859" y1="77.039726" x2="46.430859" y2="33.8722" />
    <linearGradient inkscape:collect="always" xlink:href="#linearGradient3322" id="linearGradient4010" gradientUnits="userSpaceOnUse" gradientTransform="matrix(0.61538456,0,0,0.6198547,2.3076925,-14.786924)" x1="6" y1="77.09375" x2="32" y2="77.09375" />
    <linearGradient inkscape:collect="always" xlink:href="#linearGradient3322" id="linearGradient4013" gradientUnits="userSpaceOnUse" gradientTransform="matrix(-0.61538456,0,0,0.6198547,61.692308,-14.786924)" x1="6" y1="77.09375" x2="32" y2="77.09375" />
    <linearGradient inkscape:collect="always" xlink:href="#linearGradient4517" id="linearGradient4020" gradientUnits="userSpaceOnUse" gradientTransform="matrix(1.3774055,0,0,1.3426533,-1.073244,-18.763495)" x1="22.440199" y1="4.8942533" x2="22.440199" y2="38.21666" />
    <filter inkscape:collect="always" id="filter4092" x="-0.07058836" width="1.1411767" y="-0.39999601" height="1.799992">
      <feGaussianBlur inkscape:collect="always" stdDeviation="1.5625028" id="feGaussianBlur4094" />
    </filter>
    <radialGradient inkscape:collect="always" xlink:href="#linearGradient4096" id="radialGradient4102" cx="32" cy="70.906305" fx="32" fy="70.906305" r="30.312507" gradientTransform="matrix(1,0,0,0.27835249,0,20.994389)" gradientUnits="userSpaceOnUse" />
    <linearGradient inkscape:collect="always" xlink:href="#linearGradient6036" id="linearGradient3077" gradientUnits="userSpaceOnUse" gradientTransform="matrix(0.40408873,0,0,0.40408867,26.661652,0.39778515)" x1="10.50172" y1="3.6100161" x2="48.798885" y2="54.698483" />
    <linearGradient inkscape:collect="always" xlink:href="#linearGradient6036" id="linearGradient3080" gradientUnits="userSpaceOnUse" gradientTransform="matrix(0.85868866,0,0,0.85868857,15.593505,-10.967212)" x1="10.50172" y1="3.6100161" x2="48.798885" y2="54.698483" />
    <linearGradient inkscape:collect="always" xlink:href="#linearGradient3263" id="linearGradient3083" gradientUnits="userSpaceOnUse" gradientTransform="matrix(0,1.0285433,-1.0285433,0,60.259356,-14.185045)" x1="12.2744" y1="32.4165" x2="35.391201" y2="14.2033" />
    <linearGradient inkscape:collect="always" xlink:href="#linearGradient3772" id="linearGradient3085" gradientUnits="userSpaceOnUse" gradientTransform="matrix(0.87801704,0,0,0.87801704,59.561169,-10.572409)" x1="-21.915663" y1="3" x2="-21.915663" y2="45.032898" />
    <filter inkscape:collect="always" id="filter3867" x="-0.35580532" width="1.7116106" y="-0.35941746" height="1.7188349">
      <feGaussianBlur inkscape:collect="always" stdDeviation="1.0227031" id="feGaussianBlur3869" />
    </filter>
    <filter inkscape:collect="always" id="filter3871" x="-0.34804085" width="1.6960817" y="-0.41116809" height="1.8223362">
      <feGaussianBlur inkscape:collect="always" stdDeviation="1.0227031" id="feGaussianBlur3873" />
    </filter>
    <filter inkscape:collect="always" id="filter3875" x="-0.30238428" width="1.6047686" y="-0.33052201" height="1.661044">
      <feGaussianBlur inkscape:collect="always" stdDeviation="0.93074354" id="feGaussianBlur3877" />
    </filter>
    <filter inkscape:collect="always" id="filter3951" x="-0.3512298" width="1.7024596" y="-0.3504259" height="1.7008518">
      <feGaussianBlur inkscape:collect="always" stdDeviation="1.3418954" id="feGaussianBlur3953" />
    </filter>
    <filter inkscape:collect="always" id="filter3955" x="-0.36809311" width="1.7361862" y="-0.37392702" height="1.747854">
      <feGaussianBlur inkscape:collect="always" stdDeviation="1.3418954" id="feGaussianBlur3957" />
    </filter>
    <filter inkscape:collect="always" id="filter3959" x="-0.30505939" width="1.6101188" y="-0.31948182" height="1.6389636">
      <feGaussianBlur inkscape:collect="always" stdDeviation="1.3418954" id="feGaussianBlur3961" />
    </filter>
  </defs>
  <sodipodi:namedview id="base" pagecolor="#ffffff" bordercolor="#666666" borderopacity="1.0" inkscape:pageopacity="0.0" inkscape:pageshadow="2" inkscape:zoom="9.0929513" inkscape:cx="60.20487" inkscape:cy="33.618875" inkscape:current-layer="layer1" showgrid="true" inkscape:grid-bbox="true" inkscape:document-units="px" inkscape:window-width="1280" inkscape:window-height="976" inkscape:window-x="0" inkscape:window-y="24" inkscape:window-maximized="1" inkscape:snap-to-guides="false" inkscape:snap-grids="false">
    <inkscape:grid type="xygrid" id="grid1021" empspacing="5" visible="true" enabled="true" snapvisiblegridlinesonly="true" />
  </sodipodi:namedview>
  <metadata id="metadata4705">
    <rdf:RDF>
      <cc:Work rdf:about="">
        <dc:format>image/svg+xml</dc:format>
        <dc:type rdf:resource="http://purl.org/dc/dcmitype/StillImage" />
        <dc:title />
      </cc:Work>
    </rdf:RDF>
  </metadata>
  <g id="layer1" inkscape:label="Layer 1" inkscape:groupmode="layer" transform="translate(0,16)">
    <path style="opacity:0.5;fill:url(#radialGradient4102);fill-opacity:1;fill-rule:nonzero;stroke:none;stroke-width:104.96237946;marker:none;visibility:visible;display:inline;overflow:visible;filter:url(#filter4092)" d="m 14.46875,36.04378 c -4.8629421,2e-6 -9.03125,2.095653 -9.03125,4.6875 0,2.591845 5.29509,4.70518 9.03125,4.6875 l 35.0625,0 c 3.736159,0.01768 9.031252,-2.095655 9.03125,-4.6875 0,-2.591847 -4.16831,-4.687498 -9.03125,-4.6875 l -35.0625,0 z" id="rect4063" inkscape:connector-curvature="0" transform="matrix(0.98969051,0,0,0.94814122,0.32990378,1.3809423)" />
    <g id="layer2" style="display:none" transform="translate(5.204491,-179.6879)">
      <rect width="86" height="85" rx="6" ry="6" x="5" y="7" id="rect3745" style="opacity:0.9;fill:url(#ButtonShadow);fill-opacity:1;fill-rule:nonzero;stroke:none;filter:url(#filter3174)" />
    </g>
    <g id="layer2-6" style="display:none" transform="translate(-52.967913,-177.17602)">
      <rect width="86" height="85" rx="6" ry="6" x="5" y="7" id="rect3745-4" style="opacity:0.9;fill:url(#ButtonShadow-7);fill-opacity:1;fill-rule:nonzero;stroke:none;filter:url(#filter3174-8)" />
    </g>
    <g id="layer4" transform="matrix(1.3333333,0,0,1.3333333,6.9393212,-255.58386)" />
    <g id="layer4-8" transform="matrix(1.3333333,0,0,1.3333333,-70.623882,-252.23469)" />
    <path style="fill:#515151;fill-opacity:1;fill-rule:nonzero;stroke:#303030;stroke-width:0.99999994;stroke-miterlimit:4;stroke-opacity:1;stroke-dasharray:none" id="rect3243" inkscape:connector-curvature="0" d="m 58.500001,24.5 0,13.048424 c 0,2.189172 -1.68843,3.951575 -3.785717,3.951575 l -45.4285699,0 C 7.1884284,41.499999 5.5,39.737596 5.5,37.548424 L 5.5,24.5 l 53.000001,0 z" />
    <path sodipodi:nodetypes="cssccc" d="m 58,25 0,12.707021 C 58,39.767418 56.776308,41 54.730769,41 L 42,41 42,25 z" inkscape:connector-curvature="0" id="path4509" style="opacity:0.8;fill:url(#linearGradient4013);fill-opacity:1;fill-rule:nonzero;stroke:none" />
    <path style="opacity:0.8;fill:url(#linearGradient4010);fill-opacity:1;fill-rule:nonzero;stroke:none" id="path3263" inkscape:connector-curvature="0" d="M 6,25 6,37.707021 C 6,39.767418 7.2236922,41 9.2692305,41 L 22,41 22,25 z" sodipodi:nodetypes="cssccc" />
    <rect style="fill:url(#linearGradient4007);fill-opacity:1;fill-rule:nonzero;stroke:#303030;stroke-width:1;stroke-miterlimit:4;stroke-opacity:1;stroke-dasharray:none" id="rect3171" y="-32.5" x="5.5" ry="2.8337386" rx="2.7860613" height="45" width="53" transform="scale(1,-1)" />
    <path style="opacity:0.48611109;fill:#000000;fill-opacity:1;stroke:none" d="m 9,-12 6,10e-7 L 15,32 8.5714286,32 C 7.1468572,32 6,30.810666 6,29.333333 L 6,-9 c 0,-1.972223 0.9155768,-3 3,-3 z" id="rect4308" inkscape:connector-curvature="0" sodipodi:nodetypes="sccssss" />
    <rect width="51" height="43" ry="2" x="6.5" y="-11.499998" id="rect4513" style="opacity:0.48611109;fill:none;stroke:url(#linearGradient4020);stroke-width:0.99999982;stroke-miterlimit:4;stroke-opacity:1;stroke-dasharray:none" />
    <path inkscape:connector-curvature="0" d="m 54.49935,10.500001 c 0,-9.97687382 -8.02248,-17.9993506 -17.999351,-17.9993506 -9.976875,0 -17.999348,8.02247811 -17.999348,17.9993506 -3e-6,9.976872 8.022475,17.999348 17.999348,17.999348 9.976871,-2e-6 17.999351,-8.022475 17.999351,-17.999348 z m -11.414223,0 c 0,3.624568 -2.888035,6.585126 -6.585128,6.585126 -3.769617,0 -6.585128,-3.033823 -6.585128,-6.585126 0,-3.6238449 2.670461,-6.5851283 6.585128,-6.5851283 3.914668,0 6.585128,3.0330821 6.585128,6.5851283 z" id="path2781" style="fill:url(#linearGradient3083);fill-rule:nonzero;stroke:url(#linearGradient3085);stroke-width:1;stroke-miterlimit:4;stroke-opacity:1" />
    <path inkscape:connector-curvature="0" d="M 36.499999,-6.5000001 C 27.077141,-6.5000001 19.5,1.0771439 19.5,10.5 c 0,9.422856 7.577141,16.999999 16.999999,16.999999 9.422857,0 17,-7.577143 17,-16.999999 0,-9.4228561 -7.577143,-17.0000001 -17,-17.0000001 l 0,0 0,0 z" id="path3272" style="opacity:0.5;fill:none;stroke:url(#linearGradient3080);stroke-width:0.99999976;stroke-miterlimit:4;stroke-opacity:1" />
    <path style="opacity:0.5;fill:none;stroke:url(#linearGradient3077);stroke-width:1;stroke-miterlimit:4;stroke-opacity:1;stroke-dasharray:none" id="path4448" d="M 36.499999,2.5 C 32.065714,2.5 28.5,6.0657163 28.5,10.500001 28.5,14.934285 32.065714,18.5 36.499999,18.5 40.934284,18.5 44.5,14.934285 44.5,10.500001 44.5,6.0657163 40.934284,2.5 36.499999,2.5 l 0,0 0,0 z" inkscape:connector-curvature="0" />
    <path style="opacity:0.50822365000000003;fill:#01ff60;fill-opacity:1;fill-rule:nonzero;stroke:none;filter:url(#filter3959)" d="m 42.96875,15.16935 c -0.856142,1.900407 -2.158924,2.770187 -3.277643,3.308172 l 3.766707,6.820436 c 3.187819,-2.356788 5.070028,-3.349979 6.797957,-6.625722 z" id="path4189" inkscape:connector-curvature="0" sodipodi:nodetypes="ccccc" transform="matrix(0.99817221,-0.06043377,0.06043377,0.99817221,-1.140594,2.7548973)" />
    <path style="opacity:0.50822365000000003;color:#000000;fill:#01ff60;fill-opacity:1;fill-rule:nonzero;stroke:none;marker:none;visibility:visible;display:inline;overflow:visible;enable-background:accumulate;filter:url(#filter3875)" d="m 16.157098,17.705442 c 0,0 1.795233,-2.468446 5.834507,-4.039275 l 1.511226,4.833872 c -1.234223,0.224404 -2.621615,1.83761 -2.621615,1.83761 z" id="path4488" inkscape:connector-curvature="0" sodipodi:nodetypes="ccccc" transform="matrix(1.4092704,-0.17972541,0.17972541,1.4092704,-3.5506053,-19.716987)" />
    <path style="opacity:0.50822365000000003;fill:#eeff01;fill-opacity:1;fill-rule:nonzero;stroke:none;filter:url(#filter3955)" d="m 39.156971,18.4768 c -1.221185,0.573798 -2.503186,1.035831 -3.5756,0.578486 l -1.093028,7.9244 c 2.958462,0.390851 6.022392,-0.280358 8.749278,-1.704207 z" id="path4525" inkscape:connector-curvature="0" sodipodi:nodetypes="ccccc" />
    <path transform="matrix(1.1382694,0.61321649,-0.61321649,1.1382694,22.242813,-34.468948)" sodipodi:nodetypes="ccccc" inkscape:connector-curvature="0" id="path4527" d="m 16.157098,17.705442 c 0,0 1.795233,-2.468446 5.834507,-4.039275 l 1.667747,5.086719 C 22.425129,18.97729 20.981787,20.8471 20.981787,20.8471 z" style="opacity:0.50822365000000003;color:#000000;fill:#eeff01;fill-opacity:1;fill-rule:nonzero;stroke:none;marker:none;visibility:visible;display:inline;overflow:visible;enable-background:accumulate;filter:url(#filter3871)" />
    <path style="opacity:0.50822365000000003;fill:#808080;fill-opacity:0.63895484999999996;fill-rule:nonzero;stroke:none;filter:url(#filter3951)" d="m 31.472357,17.305286 -5.314664,5.861178 c 2.826875,2.070703 4.965303,3.011006 8.186779,3.329207 l 0.982571,-7.287021 c -1.581954,-0.08791 -2.928496,-0.898911 -3.854686,-1.903364 z" id="path4373" inkscape:connector-curvature="0" sodipodi:nodetypes="ccccc" />
    <path style="opacity:0.50822365000000003;color:#000000;fill:#808080;fill-opacity:0.63895484999999996;fill-rule:nonzero;stroke:none;marker:none;visibility:visible;display:inline;overflow:visible;enable-background:accumulate;filter:url(#filter3867)" d="m 16.157098,17.705442 c 0,0 1.795233,-2.468446 5.834507,-4.039275 l 1.153861,5.399982 c -1.234223,0.224404 -2.458284,1.695734 -2.458284,1.695734 z" id="path4375" inkscape:connector-curvature="0" sodipodi:nodetypes="ccccc" transform="matrix(0.59587036,1.1474451,-1.1474451,0.59587036,49.456816,-34.637201)" />
    <path style="color:#000000;fill:url(#linearGradient3990);fill-opacity:1;stroke:none;stroke-width:0.99999982;marker:none;visibility:visible;display:inline;overflow:visible;enable-background:accumulate" d="m 29,-12 26,0 c 1.809604,0 3,1.178648 3,3 l 0,41 -14.428289,0 z" id="rect966" inkscape:connector-curvature="0" sodipodi:nodetypes="cccccc" />
    <rect style="color:#000000;fill:url(#linearGradient3987);fill-opacity:1;fill-rule:nonzero;stroke:none;stroke-width:2.66660357;marker:none;visibility:visible;display:inline;overflow:visible;enable-background:accumulate" id="rect4388" width="1" height="44" x="15" y="-11" />
    <rect y="8.500001" x="-33" height="47" width="1" id="rect3237" style="color:#000000;fill:url(#linearGradient3984);fill-opacity:1;fill-rule:nonzero;stroke:none;stroke-width:1;marker:none;visibility:visible;display:inline;overflow:visible;enable-background:accumulate" transform="matrix(0,-1,1,0,0,0)" />
  </g>
</svg>
