<?xml version="1.0" encoding="UTF-8" standalone="no"?>
<!-- Created with Inkscape (http://www.inkscape.org/) -->

<svg
   xmlns:dc="http://purl.org/dc/elements/1.1/"
   xmlns:cc="http://creativecommons.org/ns#"
   xmlns:rdf="http://www.w3.org/1999/02/22-rdf-syntax-ns#"
   xmlns:svg="http://www.w3.org/2000/svg"
   xmlns="http://www.w3.org/2000/svg"
   xmlns:xlink="http://www.w3.org/1999/xlink"
   xmlns:sodipodi="http://sodipodi.sourceforge.net/DTD/sodipodi-0.dtd"
   xmlns:inkscape="http://www.inkscape.org/namespaces/inkscape"
   width="32"
   height="32"
   id="svg2"
   version="1.1"
   inkscape:version="0.91 r"
   sodipodi:docname="mainmenu.svg"
   inkscape:export-filename="/home/rafa/Documents/lubuntu/artwork/13.04/panel/rbutton.png"
   inkscape:export-xdpi="90"
   inkscape:export-ydpi="90">
  <defs
     id="defs4">
    <linearGradient
       id="linearGradient4036-8">
      <stop
         id="stop4038-2"
         offset="0"
         style="stop-color:#87b4d9;stop-opacity:1;" />
      <stop
         id="stop4040-1"
         offset="1"
         style="stop-color:#225e8d;stop-opacity:1;" />
    </linearGradient>
    <linearGradient
       inkscape:collect="always"
       xlink:href="#linearGradient4036-8"
       id="linearGradient4625"
       gradientUnits="userSpaceOnUse"
       gradientTransform="matrix(0.03298658,0,0,1.4117962,38.480858,-433.29997)"
       x1="-711.83063"
       y1="1031.071"
       x2="-711.83063"
       y2="1050.9039" />
  </defs>
  <sodipodi:namedview
     id="base"
     pagecolor="#ffffff"
     bordercolor="#666666"
     borderopacity="1.0"
     inkscape:pageopacity="0.0"
     inkscape:pageshadow="2"
     inkscape:zoom="8.0000002"
     inkscape:cx="46.584464"
     inkscape:cy="16.650963"
     inkscape:document-units="px"
     inkscape:current-layer="capa1"
     showgrid="true"
     width="0px"
     height="0px"
     fit-margin-top="0"
     fit-margin-left="0"
     fit-margin-right="0"
     fit-margin-bottom="0"
     inkscape:showpageshadow="false"
     inkscape:window-width="1366"
     inkscape:window-height="711"
     inkscape:window-x="0"
     inkscape:window-y="291"
     inkscape:window-maximized="1">
    <inkscape:grid
       type="xygrid"
       id="grid4531"
       empspacing="5"
       visible="true"
       enabled="true"
       snapvisiblegridlinesonly="true" />
  </sodipodi:namedview>
  <metadata
     id="metadata7">
    <rdf:RDF>
      <cc:Work
         rdf:about="">
        <dc:format>image/svg+xml</dc:format>
        <dc:type
           rdf:resource="http://purl.org/dc/dcmitype/StillImage" />
        <dc:title></dc:title>
      </cc:Work>
    </rdf:RDF>
  </metadata>
  <g
     inkscape:label="Capa 1"
     inkscape:groupmode="layer"
     id="capa1"
     transform="translate(0,-1020.3622)">
    <path
       style="color:black;fill:url(#linearGradient4625);fill-opacity:1;fill-rule:nonzero;stroke:none;stroke-width:1;marker:none;visibility:visible;display:inline;overflow:visible;enable-background:accumulate"
       d="m 31,1036.3623 c 0,8.2842 -6.71572,14.9999 -15,14.9999 -8.2842795,0 -15.00000005,-6.7157 -15.00000005,-14.9999 0,-8.2844 6.71572055,-15.0001 15.00000005,-15.0001 8.28428,0 15,6.7157 15,15.0001 z"
       id="path3912-0-3"
       inkscape:connector-curvature="0" />
    <g
       transform="scale(1.0241141,0.9764537)"
       style="font-size:6.6276865px;font-style:normal;font-variant:normal;font-weight:bold;font-stretch:normal;fill:black;fill-opacity:1;stroke:none;font-family:Rasheeq"
       id="text2433" />
    <g
       transform="scale(1.0241141,0.9764537)"
       style="font-size:10.04339218px;font-style:normal;font-variant:normal;font-weight:bold;font-stretch:normal;fill:black;fill-opacity:1;stroke:none;font-family:Rasheeq"
       id="text3288" />
    <g
       transform="scale(1.0577005,0.94544722)"
       style="font-size:4.01076841px;font-style:normal;font-variant:normal;font-weight:bold;font-stretch:normal;fill:black;fill-opacity:1;stroke:none;font-family:Rasheeq"
       id="text2433-5" />
    <g
       transform="scale(1.0577005,0.94544722)"
       style="font-size:6.07779455px;font-style:normal;font-variant:normal;font-weight:bold;font-stretch:normal;fill:black;fill-opacity:1;stroke:none;font-family:Rasheeq"
       id="text3288-4" />
    <g
       transform="scale(1.0241141,0.9764537)"
       style="font-size:6.6276865px;font-style:normal;font-variant:normal;font-weight:bold;font-stretch:normal;fill:black;fill-opacity:1;stroke:none;font-family:Rasheeq"
       id="text2433-8" />
    <g
       transform="scale(1.0241141,0.9764537)"
       style="font-size:10.04339218px;font-style:normal;font-variant:normal;font-weight:bold;font-stretch:normal;fill:black;fill-opacity:1;stroke:none;font-family:Rasheeq"
       id="text3288-1" />
    <g
       transform="scale(1.0241141,0.9764537)"
       style="font-size:6.6276865px;font-style:normal;font-variant:normal;font-weight:bold;font-stretch:normal;fill:black;fill-opacity:1;stroke:none;font-family:Rasheeq"
       id="text2433-88" />
    <g
       transform="scale(1.0241141,0.9764537)"
       style="font-size:10.04339218px;font-style:normal;font-variant:normal;font-weight:bold;font-stretch:normal;fill:black;fill-opacity:1;stroke:none;font-family:Rasheeq"
       id="text3288-8" />
    <g
       transform="scale(1.0241141,0.9764537)"
       style="font-size:6.6276865px;font-style:normal;font-variant:normal;font-weight:bold;font-stretch:normal;fill:black;fill-opacity:1;stroke:none;font-family:Rasheeq"
       id="text3911" />
    <g
       transform="scale(1.0241141,0.9764537)"
       style="font-size:10.04339218px;font-style:normal;font-variant:normal;font-weight:bold;font-stretch:normal;fill:black;fill-opacity:1;stroke:none;font-family:Rasheeq"
       id="text3915" />
    <g
       transform="scale(1.0577005,0.94544722)"
       style="font-size:4.01076841px;font-style:normal;font-variant:normal;font-weight:bold;font-stretch:normal;fill:black;fill-opacity:1;stroke:none;font-family:Rasheeq"
       id="text3919" />
    <g
       transform="scale(1.0577005,0.94544722)"
       style="font-size:6.07779455px;font-style:normal;font-variant:normal;font-weight:bold;font-stretch:normal;fill:black;fill-opacity:1;stroke:none;font-family:Rasheeq"
       id="text3923" />
    <g
       transform="scale(1.0241141,0.9764537)"
       style="font-size:6.6276865px;font-style:normal;font-variant:normal;font-weight:bold;font-stretch:normal;fill:black;fill-opacity:1;stroke:none;font-family:Rasheeq"
       id="text3927" />
    <g
       transform="scale(1.0241141,0.9764537)"
       style="font-size:10.04339218px;font-style:normal;font-variant:normal;font-weight:bold;font-stretch:normal;fill:black;fill-opacity:1;stroke:none;font-family:Rasheeq"
       id="text3931" />
    <g
       transform="scale(1.0241141,0.9764537)"
       style="font-size:6.6276865px;font-style:normal;font-variant:normal;font-weight:bold;font-stretch:normal;fill:black;fill-opacity:1;stroke:none;font-family:Rasheeq"
       id="text3949" />
    <g
       transform="scale(1.0241141,0.9764537)"
       style="font-size:10.04339218px;font-style:normal;font-variant:normal;font-weight:bold;font-stretch:normal;fill:black;fill-opacity:1;stroke:none;font-family:Rasheeq"
       id="text3953" />
    <g
       transform="scale(1.0241141,0.9764537)"
       style="font-size:6.6276865px;font-style:normal;font-variant:normal;font-weight:bold;font-stretch:normal;fill:black;fill-opacity:1;stroke:none;font-family:Rasheeq"
       id="text2433-3" />
    <g
       transform="scale(1.0241141,0.9764537)"
       style="font-size:10.04339218px;font-style:normal;font-variant:normal;font-weight:bold;font-stretch:normal;fill:black;fill-opacity:1;stroke:none;font-family:Rasheeq"
       id="text3288-15" />
    <g
       transform="scale(1.0577005,0.94544722)"
       style="font-size:4.01076841px;font-style:normal;font-variant:normal;font-weight:bold;font-stretch:normal;fill:black;fill-opacity:1;stroke:none;font-family:Rasheeq"
       id="text2433-5-2" />
    <g
       transform="scale(1.0577005,0.94544722)"
       style="font-size:6.07779455px;font-style:normal;font-variant:normal;font-weight:bold;font-stretch:normal;fill:black;fill-opacity:1;stroke:none;font-family:Rasheeq"
       id="text3288-4-3" />
    <g
       transform="scale(1.0241141,0.9764537)"
       style="font-size:6.6276865px;font-style:normal;font-variant:normal;font-weight:bold;font-stretch:normal;fill:black;fill-opacity:1;stroke:none;font-family:Rasheeq"
       id="text2433-8-7" />
    <g
       transform="scale(1.0241141,0.9764537)"
       style="font-size:10.04339218px;font-style:normal;font-variant:normal;font-weight:bold;font-stretch:normal;fill:black;fill-opacity:1;stroke:none;font-family:Rasheeq"
       id="text3288-1-5" />
    <g
       transform="scale(1.0241141,0.9764537)"
       style="font-size:6.6276865px;font-style:normal;font-variant:normal;font-weight:bold;font-stretch:normal;fill:black;fill-opacity:1;stroke:none;font-family:Rasheeq"
       id="text2433-88-4" />
    <g
       transform="scale(1.0241141,0.9764537)"
       style="font-size:10.04339218px;font-style:normal;font-variant:normal;font-weight:bold;font-stretch:normal;fill:black;fill-opacity:1;stroke:none;font-family:Rasheeq"
       id="text3288-8-0" />
    <g
       transform="scale(1.0241141,0.9764537)"
       style="font-size:6.6276865px;font-style:normal;font-variant:normal;font-weight:bold;font-stretch:normal;fill:black;fill-opacity:1;stroke:none;font-family:Rasheeq"
       id="text3911-1" />
    <g
       transform="scale(1.0241141,0.9764537)"
       style="font-size:10.04339218px;font-style:normal;font-variant:normal;font-weight:bold;font-stretch:normal;fill:black;fill-opacity:1;stroke:none;font-family:Rasheeq"
       id="text3915-9" />
    <g
       transform="scale(1.0577005,0.94544722)"
       style="font-size:4.01076841px;font-style:normal;font-variant:normal;font-weight:bold;font-stretch:normal;fill:black;fill-opacity:1;stroke:none;font-family:Rasheeq"
       id="text3919-5" />
    <g
       transform="scale(1.0577005,0.94544722)"
       style="font-size:6.07779455px;font-style:normal;font-variant:normal;font-weight:bold;font-stretch:normal;fill:black;fill-opacity:1;stroke:none;font-family:Rasheeq"
       id="text3923-6" />
    <g
       transform="scale(1.0241141,0.9764537)"
       style="font-size:6.6276865px;font-style:normal;font-variant:normal;font-weight:bold;font-stretch:normal;fill:black;fill-opacity:1;stroke:none;font-family:Rasheeq"
       id="text3927-1" />
    <g
       transform="scale(1.0241141,0.9764537)"
       style="font-size:10.04339218px;font-style:normal;font-variant:normal;font-weight:bold;font-stretch:normal;fill:black;fill-opacity:1;stroke:none;font-family:Rasheeq"
       id="text3931-4" />
    <g
       transform="scale(1.0241141,0.9764537)"
       style="font-size:6.6276865px;font-style:normal;font-variant:normal;font-weight:bold;font-stretch:normal;fill:black;fill-opacity:1;stroke:none;font-family:Rasheeq"
       id="text3949-5" />
    <g
       transform="scale(1.0241141,0.9764537)"
       style="font-size:10.04339218px;font-style:normal;font-variant:normal;font-weight:bold;font-stretch:normal;fill:black;fill-opacity:1;stroke:none;font-family:Rasheeq"
       id="text3953-4" />
    <path
       style="color:black;fill:white;fill-opacity:1;fill-rule:nonzero;stroke:none;stroke-width:1;marker:none;visibility:visible;display:inline;overflow:visible;enable-background:accumulate"
       d="m 19.993725,1025.1342 c -0.421107,-0.016 -2.74824,0.6756 -3.425088,1.5311 -2.042043,0.1475 -10.284599,5.7431 -15.1177277,9.1439 l 0.016886,1.1472 c 2.2025945,-0.8464 4.8578075,-1.7829 5.8955843,-1.7757 0.2040517,0 0.3619353,3e-4 0.4329493,0.074 0.3979407,0.4674 -1.3218564,2.7361 -3.0706579,5.298 -0.4579575,0.6707 -1.224663,1.7676 -1.6669506,2.4341 l 0.4134433,0.7554 c 2.4041516,-3.0007 5.7700536,-7.1834 6.607775,-7.3103 0.04499,0 0.08675,0.023 0.118433,0.038 0.148384,0.1808 -2.9276216,5.1018 -5.3986123,9.1362 l 0.8660608,0.9412 c 1.2018309,-1.6461 2.8374314,-4.0232 4.0994414,-5.7608 2.6267011,-3.615 4.9298191,-6.9912 6.0629561,-7.0247 0.03672,0 0.08502,0.031 0.118448,0.037 3.491605,0.019 6.961871,8.7801 8.756187,14.2495 l 0.69252,-0.552 c -0.860396,-6.1149 -2.873771,-16.1898 -7.086406,-18.9955 0.451289,-0.3003 0.472293,-1.8454 0.472293,-1.8454 l 1.220501,-1.5298 1.59e-4,2e-4 z"
       id="path4615"
       inkscape:connector-curvature="0" />
    <path
       style="color:#000000;display:inline;overflow:visible;visibility:visible;fill:#000000;fill-opacity:1;fill-rule:nonzero;stroke:none;stroke-width:1;marker:none;enable-background:accumulate"
       d="M 1.0253906,1036.3622 C 1.0198544,1036.2001 1,1036.0418 1,1035.8783 c 0,-8.0169 6.7157206,-14.5161 15,-14.5161 8.28428,0 15,6.4992 15,14.5161 0,0.1635 -0.01985,0.3218 -0.02539,0.4839 -0.266085,-7.7909 -6.859179,-14.0323 -14.974609,-14.0323 -8.1154294,0 -14.7085244,6.2414 -14.9746094,14.0323 z"
       id="path5692"
       inkscape:connector-curvature="0" />
    <path
       style="color:#000000;display:inline;overflow:visible;visibility:visible;fill:#000000;fill-opacity:1;fill-rule:nonzero;stroke:none;stroke-width:1;marker:none;enable-background:accumulate"
       d="M 19.816406 6.0097656 C 19.670939 5.9997656 19.272121 6.1047937 18.818359 6.2460938 L 18.78125 6.2929688 C 18.78125 6.2929688 18.75902 6.9624125 18.621094 7.5078125 L 19.816406 6.0097656 z M 18.595703 7.6171875 C 18.527083 7.8481875 18.440601 8.0507719 18.308594 8.1386719 C 18.387874 8.1916719 18.461332 8.2643656 18.539062 8.3222656 C 18.590702 7.9542656 18.594223 7.6853875 18.595703 7.6171875 z M 15.828125 13.400391 C 15.544841 13.410391 15.187749 13.626306 14.771484 14.003906 C 14.35522 14.381506 13.880244 14.918459 13.357422 15.568359 C 12.311777 16.868159 11.078975 18.616328 9.765625 20.423828 C 8.503615 22.161428 6.8678456 24.539447 5.6660156 26.185547 L 5.1484375 25.623047 C 5.0264625 25.821747 4.9116299 26.010572 4.7949219 26.201172 C 5.0891399 26.516572 5.4005091 26.806503 5.7207031 27.095703 C 6.8983851 25.469003 8.3973746 23.301309 9.5878906 21.662109 C 10.901241 19.854609 12.133553 18.106941 13.179688 16.806641 C 13.702754 16.156541 14.179256 15.618034 14.595703 15.240234 C 15.01215 14.862534 15.369059 14.645119 15.652344 14.636719 C 15.689064 14.636719 15.736104 14.667828 15.769531 14.673828 C 16.205982 14.673828 16.641676 14.814306 17.074219 15.066406 C 17.506762 15.318506 17.935247 15.683872 18.357422 16.138672 C 19.201772 17.048172 20.019091 18.317559 20.783203 19.755859 C 22.209218 22.439859 23.386812 25.662347 24.275391 28.310547 C 24.570325 28.105547 24.824523 27.852053 25.103516 27.626953 C 25.091136 27.547953 25.079919 27.471131 25.068359 27.394531 L 24.703125 27.685547 C 23.805967 24.950847 22.489162 21.393478 20.960938 18.517578 C 20.196825 17.079578 19.379506 15.811744 18.535156 14.902344 C 18.112981 14.447744 17.684496 14.082078 17.251953 13.830078 C 16.81941 13.578078 16.383716 13.4399 15.947266 13.4375 C 15.913836 13.4275 15.864846 13.400391 15.828125 13.400391 z M 7.3632812 14.818359 C 6.3255042 14.808359 3.671345 15.74735 1.46875 16.59375 L 1.46875 16.548828 C 1.41048 16.589828 1.3307685 16.642794 1.2734375 16.683594 L 1.2910156 17.832031 C 3.4936096 16.985631 6.149723 16.049441 7.1875 16.056641 C 7.302564 16.056641 7.3962044 16.056266 7.4746094 16.072266 C 7.7989614 15.485766 7.943594 15.064878 7.796875 14.892578 C 7.725865 14.818578 7.5673333 14.818359 7.3632812 14.818359 z M 10.080078 16.070312 C 9.6612171 16.134313 8.6099033 17.211838 7.3632812 18.648438 C 6.1166602 20.085137 4.6747322 21.880459 3.4726562 23.380859 L 3.3574219 23.169922 C 3.2187029 23.372822 3.0754291 23.578259 2.9550781 23.755859 C 3.1057401 24.003459 3.2301963 24.265906 3.3945312 24.503906 C 5.4870583 21.892806 8.2581025 18.446856 9.4765625 17.535156 L 9.4785156 17.535156 C 9.9272766 16.753256 10.244627 16.162822 10.199219 16.107422 C 10.167539 16.092422 10.125069 16.070312 10.080078 16.070312 z "
       transform="translate(0,1020.3622)"
       id="path5715" />
  </g>
</svg>
