<?xml version="1.0" encoding="UTF-8" standalone="no"?>
<!-- Created with Inkscape (http://www.inkscape.org/) -->

<svg
   xmlns:dc="http://purl.org/dc/elements/1.1/"
   xmlns:cc="http://creativecommons.org/ns#"
   xmlns:rdf="http://www.w3.org/1999/02/22-rdf-syntax-ns#"
   xmlns:svg="http://www.w3.org/2000/svg"
   xmlns="http://www.w3.org/2000/svg"
   xmlns:sodipodi="http://sodipodi.sourceforge.net/DTD/sodipodi-0.dtd"
   xmlns:inkscape="http://www.inkscape.org/namespaces/inkscape"
   width="32"
   height="32"
   id="svg2"
   version="1.1"
   inkscape:version="0.91 r13725"
   sodipodi:docname="mainmenu.svg"
   inkscape:export-filename="/home/rafa/Documents/lubuntu/artwork/13.04/panel/rbutton.png"
   inkscape:export-xdpi="90"
   inkscape:export-ydpi="90">
  <defs
     id="defs4" />
  <sodipodi:namedview
     id="base"
     pagecolor="#ffffff"
     bordercolor="#666666"
     borderopacity="1.0"
     inkscape:pageopacity="0.0"
     inkscape:pageshadow="2"
     inkscape:zoom="8"
     inkscape:cx="16.172747"
     inkscape:cy="16.644633"
     inkscape:document-units="px"
     inkscape:current-layer="capa1"
     showgrid="true"
     width="0px"
     height="0px"
     fit-margin-top="0"
     fit-margin-left="0"
     fit-margin-right="0"
     fit-margin-bottom="0"
     inkscape:showpageshadow="false"
     inkscape:window-width="1366"
     inkscape:window-height="711"
     inkscape:window-x="0"
     inkscape:window-y="291"
     inkscape:window-maximized="1">
    <inkscape:grid
       type="xygrid"
       id="grid4531"
       empspacing="5"
       visible="true"
       enabled="true"
       snapvisiblegridlinesonly="true" />
  </sodipodi:namedview>
  <metadata
     id="metadata7">
    <rdf:RDF>
      <cc:Work
         rdf:about="">
        <dc:format>image/svg+xml</dc:format>
        <dc:type
           rdf:resource="http://purl.org/dc/dcmitype/StillImage" />
        <dc:title />
      </cc:Work>
    </rdf:RDF>
  </metadata>
  <g
     inkscape:label="Capa 1"
     inkscape:groupmode="layer"
     id="capa1"
     transform="translate(0,-1020.3622)">
    <g
       transform="scale(1.0241141,0.9764537)"
       style="font-size:6.6276865px;font-style:normal;font-variant:normal;font-weight:bold;font-stretch:normal;fill:black;fill-opacity:1;stroke:none;font-family:Rasheeq"
       id="text2433" />
    <g
       transform="scale(1.0241141,0.9764537)"
       style="font-size:10.04339218px;font-style:normal;font-variant:normal;font-weight:bold;font-stretch:normal;fill:black;fill-opacity:1;stroke:none;font-family:Rasheeq"
       id="text3288" />
    <g
       transform="scale(1.0577005,0.94544722)"
       style="font-size:4.01076841px;font-style:normal;font-variant:normal;font-weight:bold;font-stretch:normal;fill:black;fill-opacity:1;stroke:none;font-family:Rasheeq"
       id="text2433-5" />
    <g
       transform="scale(1.0577005,0.94544722)"
       style="font-size:6.07779455px;font-style:normal;font-variant:normal;font-weight:bold;font-stretch:normal;fill:black;fill-opacity:1;stroke:none;font-family:Rasheeq"
       id="text3288-4" />
    <g
       transform="scale(1.0241141,0.9764537)"
       style="font-size:6.6276865px;font-style:normal;font-variant:normal;font-weight:bold;font-stretch:normal;fill:black;fill-opacity:1;stroke:none;font-family:Rasheeq"
       id="text2433-8" />
    <g
       transform="scale(1.0241141,0.9764537)"
       style="font-size:10.04339218px;font-style:normal;font-variant:normal;font-weight:bold;font-stretch:normal;fill:black;fill-opacity:1;stroke:none;font-family:Rasheeq"
       id="text3288-1" />
    <g
       transform="scale(1.0241141,0.9764537)"
       style="font-size:6.6276865px;font-style:normal;font-variant:normal;font-weight:bold;font-stretch:normal;fill:black;fill-opacity:1;stroke:none;font-family:Rasheeq"
       id="text2433-88" />
    <g
       transform="scale(1.0241141,0.9764537)"
       style="font-size:10.04339218px;font-style:normal;font-variant:normal;font-weight:bold;font-stretch:normal;fill:black;fill-opacity:1;stroke:none;font-family:Rasheeq"
       id="text3288-8" />
    <g
       transform="scale(1.0241141,0.9764537)"
       style="font-size:6.6276865px;font-style:normal;font-variant:normal;font-weight:bold;font-stretch:normal;fill:black;fill-opacity:1;stroke:none;font-family:Rasheeq"
       id="text3911" />
    <g
       transform="scale(1.0241141,0.9764537)"
       style="font-size:10.04339218px;font-style:normal;font-variant:normal;font-weight:bold;font-stretch:normal;fill:black;fill-opacity:1;stroke:none;font-family:Rasheeq"
       id="text3915" />
    <g
       transform="scale(1.0577005,0.94544722)"
       style="font-size:4.01076841px;font-style:normal;font-variant:normal;font-weight:bold;font-stretch:normal;fill:black;fill-opacity:1;stroke:none;font-family:Rasheeq"
       id="text3919" />
    <g
       transform="scale(1.0577005,0.94544722)"
       style="font-size:6.07779455px;font-style:normal;font-variant:normal;font-weight:bold;font-stretch:normal;fill:black;fill-opacity:1;stroke:none;font-family:Rasheeq"
       id="text3923" />
    <g
       transform="scale(1.0241141,0.9764537)"
       style="font-size:6.6276865px;font-style:normal;font-variant:normal;font-weight:bold;font-stretch:normal;fill:black;fill-opacity:1;stroke:none;font-family:Rasheeq"
       id="text3927" />
    <g
       transform="scale(1.0241141,0.9764537)"
       style="font-size:10.04339218px;font-style:normal;font-variant:normal;font-weight:bold;font-stretch:normal;fill:black;fill-opacity:1;stroke:none;font-family:Rasheeq"
       id="text3931" />
    <g
       transform="scale(1.0241141,0.9764537)"
       style="font-size:6.6276865px;font-style:normal;font-variant:normal;font-weight:bold;font-stretch:normal;fill:black;fill-opacity:1;stroke:none;font-family:Rasheeq"
       id="text3949" />
    <g
       transform="scale(1.0241141,0.9764537)"
       style="font-size:10.04339218px;font-style:normal;font-variant:normal;font-weight:bold;font-stretch:normal;fill:black;fill-opacity:1;stroke:none;font-family:Rasheeq"
       id="text3953" />
    <g
       transform="scale(1.0241141,0.9764537)"
       style="font-size:6.6276865px;font-style:normal;font-variant:normal;font-weight:bold;font-stretch:normal;fill:black;fill-opacity:1;stroke:none;font-family:Rasheeq"
       id="text2433-3" />
    <g
       transform="scale(1.0241141,0.9764537)"
       style="font-size:10.04339218px;font-style:normal;font-variant:normal;font-weight:bold;font-stretch:normal;fill:black;fill-opacity:1;stroke:none;font-family:Rasheeq"
       id="text3288-15" />
    <g
       transform="scale(1.0577005,0.94544722)"
       style="font-size:4.01076841px;font-style:normal;font-variant:normal;font-weight:bold;font-stretch:normal;fill:black;fill-opacity:1;stroke:none;font-family:Rasheeq"
       id="text2433-5-2" />
    <g
       transform="scale(1.0577005,0.94544722)"
       style="font-size:6.07779455px;font-style:normal;font-variant:normal;font-weight:bold;font-stretch:normal;fill:black;fill-opacity:1;stroke:none;font-family:Rasheeq"
       id="text3288-4-3" />
    <g
       transform="scale(1.0241141,0.9764537)"
       style="font-size:6.6276865px;font-style:normal;font-variant:normal;font-weight:bold;font-stretch:normal;fill:black;fill-opacity:1;stroke:none;font-family:Rasheeq"
       id="text2433-8-7" />
    <g
       transform="scale(1.0241141,0.9764537)"
       style="font-size:10.04339218px;font-style:normal;font-variant:normal;font-weight:bold;font-stretch:normal;fill:black;fill-opacity:1;stroke:none;font-family:Rasheeq"
       id="text3288-1-5" />
    <g
       transform="scale(1.0241141,0.9764537)"
       style="font-size:6.6276865px;font-style:normal;font-variant:normal;font-weight:bold;font-stretch:normal;fill:black;fill-opacity:1;stroke:none;font-family:Rasheeq"
       id="text2433-88-4" />
    <g
       transform="scale(1.0241141,0.9764537)"
       style="font-size:10.04339218px;font-style:normal;font-variant:normal;font-weight:bold;font-stretch:normal;fill:black;fill-opacity:1;stroke:none;font-family:Rasheeq"
       id="text3288-8-0" />
    <g
       transform="scale(1.0241141,0.9764537)"
       style="font-size:6.6276865px;font-style:normal;font-variant:normal;font-weight:bold;font-stretch:normal;fill:black;fill-opacity:1;stroke:none;font-family:Rasheeq"
       id="text3911-1" />
    <g
       transform="scale(1.0241141,0.9764537)"
       style="font-size:10.04339218px;font-style:normal;font-variant:normal;font-weight:bold;font-stretch:normal;fill:black;fill-opacity:1;stroke:none;font-family:Rasheeq"
       id="text3915-9" />
    <g
       transform="scale(1.0577005,0.94544722)"
       style="font-size:4.01076841px;font-style:normal;font-variant:normal;font-weight:bold;font-stretch:normal;fill:black;fill-opacity:1;stroke:none;font-family:Rasheeq"
       id="text3919-5" />
    <g
       transform="scale(1.0577005,0.94544722)"
       style="font-size:6.07779455px;font-style:normal;font-variant:normal;font-weight:bold;font-stretch:normal;fill:black;fill-opacity:1;stroke:none;font-family:Rasheeq"
       id="text3923-6" />
    <g
       transform="scale(1.0241141,0.9764537)"
       style="font-size:6.6276865px;font-style:normal;font-variant:normal;font-weight:bold;font-stretch:normal;fill:black;fill-opacity:1;stroke:none;font-family:Rasheeq"
       id="text3927-1" />
    <g
       transform="scale(1.0241141,0.9764537)"
       style="font-size:10.04339218px;font-style:normal;font-variant:normal;font-weight:bold;font-stretch:normal;fill:black;fill-opacity:1;stroke:none;font-family:Rasheeq"
       id="text3931-4" />
    <g
       transform="scale(1.0241141,0.9764537)"
       style="font-size:6.6276865px;font-style:normal;font-variant:normal;font-weight:bold;font-stretch:normal;fill:black;fill-opacity:1;stroke:none;font-family:Rasheeq"
       id="text3949-5" />
    <g
       transform="scale(1.0241141,0.9764537)"
       style="font-size:10.04339218px;font-style:normal;font-variant:normal;font-weight:bold;font-stretch:normal;fill:black;fill-opacity:1;stroke:none;font-family:Rasheeq"
       id="text3953-4" />
    <g
       transform="matrix(0.86849785,0,0,0.86849785,-362.61197,674.73746)"
       id="g4485">
      <path
         id="path4487"
         d="m 453.21007,416.37955 a 17.2712,17.2712 0 0 1 -17.2712,17.2712 17.2712,17.2712 0 0 1 -17.2712,-17.2712 17.2712,17.2712 0 0 1 17.2712,-17.2712 17.2712,17.2712 0 0 1 17.2712,17.2712 z"
         style="color:#000000;clip-rule:nonzero;display:inline;overflow:visible;visibility:visible;opacity:1;isolation:auto;mix-blend-mode:normal;color-interpolation:sRGB;color-interpolation-filters:linearRGB;solid-color:#000000;solid-opacity:1;fill:#0068c8;fill-opacity:1;fill-rule:evenodd;stroke:none;stroke-width:1.41732287;stroke-linecap:butt;stroke-linejoin:miter;stroke-miterlimit:4;stroke-dasharray:none;stroke-dashoffset:0;stroke-opacity:1;marker:none;color-rendering:auto;image-rendering:auto;shape-rendering:auto;text-rendering:auto;enable-background:accumulate"
         inkscape:connector-curvature="0" />
      <path
         inkscape:connector-curvature="0"
         id="path4489"
         d="m 438.18285,405.84656 c -0.73891,0.004 -1.47704,0.18989 -2.12714,0.54157 -0.80012,0.43284 -1.46349,1.11453 -1.87441,1.92613 -0.41091,0.8116 -0.56753,1.74955 -0.44279,2.65066 0.12475,0.9011 0.53029,1.76133 1.14623,2.43078 -0.32003,-0.5953 -0.47167,-1.27995 -0.43326,-1.95473 0.0384,-0.67478 0.2668,-1.33772 0.65232,-1.89286 0.38552,-0.55514 0.92695,-1.0007 1.54581,-1.27239 0.61886,-0.27169 1.31333,-0.3686 1.98292,-0.27667 0.9382,0.12881 1.81911,0.63527 2.40239,1.38131 l 9.34667,0 -8.20085,-1.1302 c -0.68223,-1.2955 -2.03211,-2.21558 -3.48735,-2.37683 -0.16954,-0.0188 -0.34003,-0.0276 -0.51054,-0.0268 z m -14.69708,1.59733 c -0.60073,1.18678 -0.83832,2.5543 -0.67321,3.87416 0.16512,1.31987 0.73229,2.58677 1.60687,3.58898 0.48942,0.56085 1.07566,1.03423 1.72147,1.40403 l -1.82877,-0.51419 c -0.0882,1.03093 0.1146,2.0852 0.57889,3.00988 0.46429,0.92468 1.18879,1.71682 2.06832,2.26182 1.30562,0.80903 2.94973,1.0509 4.43297,0.65192 -1.48579,0.0106 -2.95822,-0.72733 -3.83907,-1.9239 -0.49703,-0.67518 -0.80951,-1.48481 -0.89511,-2.31882 l 8.68299,1.42005 -7.01994,-1.97379 c -0.56161,-0.27269 -1.07478,-0.64561 -1.50302,-1.09998 -0.59214,-0.62828 -1.02233,-1.40802 -1.23811,-2.24397 -0.24706,-0.95717 -0.21044,-1.98562 0.10386,-2.92287 l 10.35395,5.80456 -12.55209,-9.01788 z m 16.88507,4.53277 c -0.2049,0.42497 -0.34744,0.87988 -0.4215,1.34582 -0.22967,1.44512 0.20009,2.90499 0.62839,4.30417 0.42829,1.39918 0.86487,2.85512 0.64887,4.30235 -0.16138,1.08128 -0.68903,2.09346 -1.42735,2.89974 -0.73833,0.80628 -1.6805,1.41218 -2.69285,1.82491 -1.6682,0.68013 -3.54435,0.83991 -5.30355,0.45172 l 0,4.81086 1.44663,-3.43401 c 1.87487,0.42759 3.88199,0.25463 5.65607,-0.48742 1.27002,-0.53121 2.42897,-1.35825 3.26485,-2.45208 0.83587,-1.09382 1.33484,-2.46085 1.29956,-3.83704 -0.0424,-1.65401 -0.82417,-3.18686 -1.58069,-4.65833 -0.75653,-1.47146 -1.52301,-3.01616 -1.53141,-4.6707 -7.2e-4,-0.13345 0.004,-0.26686 0.013,-0.39999 z"
         style="fill:#ffffff;fill-opacity:1;stroke:none" />
    </g>
  </g>
</svg>
