<?xml version="1.0" encoding="UTF-8" standalone="no"?>
<!-- Created with Inkscape (http://www.inkscape.org/) -->

<svg xmlns:dc="http://purl.org/dc/elements/1.1/" xmlns:cc="http://creativecommons.org/ns#" xmlns:rdf="http://www.w3.org/1999/02/22-rdf-syntax-ns#" xmlns:svg="http://www.w3.org/2000/svg" xmlns="http://www.w3.org/2000/svg" xmlns:xlink="http://www.w3.org/1999/xlink" xmlns:sodipodi="http://sodipodi.sourceforge.net/DTD/sodipodi-0.dtd" xmlns:inkscape="http://www.inkscape.org/namespaces/inkscape" width="32" height="32" id="svg3330" version="1.1" inkscape:version="0.48.3.1 r9886" sodipodi:docname="applications-science.svg">
  <defs id="defs3332">
    <linearGradient gradientUnits="userSpaceOnUse" id="linearGradient1022-8-8-3-0-06-59-7-8-0-2" x2="0" y1="3.0069399" y2="11.02436">
      <stop offset="0" id="stop3001-0-9-4-9-02-6-2-81-9" />
      <stop offset="1" stop-color="#363636" id="stop3003-5-6-6-5-70-7-1-4-9" />
    </linearGradient>
    <linearGradient inkscape:collect="always" xlink:href="#linearGradient1022-8-8-3-0-06-59-7-8-0-2" id="linearGradient3130" gradientUnits="userSpaceOnUse" gradientTransform="matrix(2.3556973,0,0,2.3198273,-518.39273,-1229.807)" x1="227.2757" y1="530.55975" x2="227.2757" y2="543.49176" />
  </defs>
  <sodipodi:namedview id="base" pagecolor="#ffffff" bordercolor="#666666" borderopacity="1.0" inkscape:pageopacity="0.0" inkscape:pageshadow="2" inkscape:zoom="11.313709" inkscape:cx="18.63683" inkscape:cy="17.150243" inkscape:document-units="px" inkscape:current-layer="capa1" showgrid="true" inkscape:showpageshadow="false" inkscape:window-width="1280" inkscape:window-height="976" inkscape:window-x="0" inkscape:window-y="24" inkscape:window-maximized="1" inkscape:snap-to-guides="false" inkscape:snap-grids="true" showguides="true" inkscape:guide-bbox="true">
    <inkscape:grid type="xygrid" id="grid2990" empspacing="5" visible="true" enabled="true" snapvisiblegridlinesonly="true" />
  </sodipodi:namedview>
  <metadata id="metadata3335">
    <rdf:RDF>
      <cc:Work rdf:about="">
        <dc:format>image/svg+xml</dc:format>
        <dc:type rdf:resource="http://purl.org/dc/dcmitype/StillImage" />
        <dc:title />
      </cc:Work>
    </rdf:RDF>
  </metadata>
  <g inkscape:label="Capa 1" inkscape:groupmode="layer" id="capa1" transform="translate(0,-1020.3622)">
    <path sodipodi:nodetypes="sssssssssccccccccccccccccccccccccccccccccc" inkscape:connector-curvature="0" id="path2991" d="m 5,1022.3622 c -2.216,0 -4,1.784 -4,4 l 0,22 c 0,2.216 1.784,4 4,4 l 22,0 c 2.216,0 4,-1.784 4,-4 l 0,-22 c 0,-2.216 -1.784,-4 -4,-4 z m 7,4 8,0 c 0,0 1,-0.062 1,1 0,1.0658 -1,1 -1,1 l 0,6 c 0,2 5,2 5,6 l 0,3 c 0,5.0465 -6,5 -6,5 l -6,0 c 0,0 -6,-0.05 -6,-5 l 0,-3 c 0,-3.9339 5,-4.1417 5,-6 l 0,-6 c 0,0 -1,-0.115 -1,-1 0,-1.0165 1,-1 1,-1 z m 2,2 0,6 c 0,3.1398 -5,3 -5,6 l 0,3 c 0,3.0052 4,3 4,3 l 6,0 c 0,0 4,-0.023 4,-3 l 0,-3 c 0,-3 -5,-3 -5,-6 l 0,-6 z m 8,13 0,2 c 0,1.8668 -2,2 -2,2 l -8,0 c 0,0 -2,0.033 -2,-2 l 0,-2 z" style="opacity:0.6;color:#000000;fill:#ffffff;fill-opacity:1;fill-rule:nonzero;stroke:none;stroke-width:1;marker:none;visibility:visible;display:inline;overflow:visible;enable-background:accumulate" />
    <rect y="1020.3622" x="-2.9999999e-06" height="32" width="32" id="rect3123" style="opacity:0.6;color:#000000;fill:none;stroke:none;stroke-width:1;marker:none;visibility:visible;display:inline;overflow:visible;enable-background:accumulate" />
    <path style="opacity:0.7;color:#000000;fill:url(#linearGradient3130);fill-opacity:1;fill-rule:evenodd;stroke:none;stroke-width:1.00139093;marker:none;visibility:visible;display:inline;overflow:visible;enable-background:accumulate" d="M 5,1 C 2.784,1 1,2.784 1,5 l 0,22 c 0,2.216 1.784,4 4,4 l 22,0 c 2.216,0 4,-1.784 4,-4 L 31,5 C 31,2.784 29.216,1 27,1 z m 7,4 8,0 c 0,0 1,-0.06158 1,1 0,1.0658416 -1,1 -1,1 l 0,6 c 0,2 5,2 5,6 l 0,3 c 0,5.046493 -6,5 -6,5 l -6,0 c 0,0 -6,-0.05003 -6,-5 l 0,-3 c 0,-3.933863 5,-4.141741 5,-6 L 12,7 C 12,7 11,6.8849876 11,6 11,4.983534 12,5 12,5 z m 2,2 0,6 c 0,3.139794 -5,3 -5,6 l 0,3 c 0,3.005204 4,3 4,3 l 6,0 c 0,0 4,-0.02314 4,-3 l 0,-3 c 0,-3 -5,-3 -5,-6 l 0,-6 z m 8,13 0,2 c 0,1.866821 -2,2 -2,2 l -8,0 c 0,0 -2,0.03343 -2,-2 l 0,-2 z" id="path3074" inkscape:connector-curvature="0" sodipodi:nodetypes="sssssssssccccccccccccccccccccccccccccccccc" transform="translate(0,1020.3622)" />
    <rect y="1005.3622" x="11" height="16" width="16" id="rect3097" style="opacity:0.6;color:#000000;fill:none;stroke:none;stroke-width:1;marker:none;visibility:visible;display:inline;overflow:visible;enable-background:accumulate" />
  </g>
</svg>
