<?xml version="1.0" encoding="UTF-8" standalone="no"?>
<!-- Created with Inkscape (http://www.inkscape.org/) -->

<svg xmlns:dc="http://purl.org/dc/elements/1.1/" xmlns:cc="http://creativecommons.org/ns#" xmlns:rdf="http://www.w3.org/1999/02/22-rdf-syntax-ns#" xmlns:svg="http://www.w3.org/2000/svg" xmlns="http://www.w3.org/2000/svg" xmlns:xlink="http://www.w3.org/1999/xlink" xmlns:sodipodi="http://sodipodi.sourceforge.net/DTD/sodipodi-0.dtd" xmlns:inkscape="http://www.inkscape.org/namespaces/inkscape" width="32" height="32" id="svg3330" version="1.1" inkscape:version="0.48.3.1 r9886" sodipodi:docname="applications-development.svg">
  <defs id="defs3332">
    <linearGradient gradientUnits="userSpaceOnUse" id="linearGradient1022-8-8-3-0-06-59-7-8-0-2" x2="0" y1="3.0069399" y2="11.02436">
      <stop offset="0" id="stop3001-0-9-4-9-02-6-2-81-9" />
      <stop offset="1" stop-color="#363636" id="stop3003-5-6-6-5-70-7-1-4-9" />
    </linearGradient>
    <linearGradient inkscape:collect="always" xlink:href="#linearGradient1022-8-8-3-0-06-59-7-8-0-2" id="linearGradient3035" gradientUnits="userSpaceOnUse" gradientTransform="matrix(2.3556973,0,0,2.3198273,-518.39273,-2250.1692)" x1="227.2757" y1="1410.2478" x2="227.2757" y2="1423.1798" />
  </defs>
  <sodipodi:namedview id="base" pagecolor="#ffffff" bordercolor="#666666" borderopacity="1.0" inkscape:pageopacity="0.0" inkscape:pageshadow="2" inkscape:zoom="11.313708" inkscape:cx="21.705296" inkscape:cy="15.521024" inkscape:document-units="px" inkscape:current-layer="capa1" showgrid="true" inkscape:showpageshadow="false" inkscape:window-width="1280" inkscape:window-height="976" inkscape:window-x="0" inkscape:window-y="24" inkscape:window-maximized="1" inkscape:snap-to-guides="false" inkscape:snap-grids="true" showguides="true" inkscape:guide-bbox="true">
    <inkscape:grid type="xygrid" id="grid2990" empspacing="5" visible="true" enabled="true" snapvisiblegridlinesonly="true" />
  </sodipodi:namedview>
  <metadata id="metadata3335">
    <rdf:RDF>
      <cc:Work rdf:about="">
        <dc:format>image/svg+xml</dc:format>
        <dc:type rdf:resource="http://purl.org/dc/dcmitype/StillImage" />
        <dc:title />
      </cc:Work>
    </rdf:RDF>
  </metadata>
  <g inkscape:label="Capa 1" inkscape:groupmode="layer" id="capa1" transform="translate(0,-1020.3622)">
    <path inkscape:connector-curvature="0" id="path3048" d="m 5,1022.3622 c -2.216,0 -4,1.784 -4,4 l 0,22 c 0,2.216 1.784,4 4,4 l 22,0 c 2.216,0 4,-1.784 4,-4 l 0,-22 c 0,-2.216 -1.784,-4 -4,-4 l -22,0 z m 10.46875,7.0938 c 0.637855,-0.023 1.267589,0.3397 1.59375,1 0.196708,0.3981 0.233897,1.0165 0.0625,1.4687 -0.258152,0.6808 -0.861221,1.0938 -1.59375,1.0938 -0.385729,0 -0.401201,0.01 -0.375,0.125 0.01516,0.069 0.08535,1.5955 0.1875,3.375 0.139806,2.4355 0.17144,3.2944 0.125,3.4687 -0.03393,0.1274 -0.04195,0.2332 -0.03125,0.25 0.533907,0.3015 1.074789,0.6072 1.65625,0.7813 0.45325,-0.6368 1.306648,-1.5801 1.46875,-1.6563 1.125466,-0.1567 2.315773,-0.1769 3.4375,0 1.919003,2.2254 3.799684,4.6611 5.5,7.0625 l -14,0.031 2.96875,-4.6563 c -0.0121,-0.011 -0.978728,-0.4945 -2.125,-1.0937 -1.864501,-0.9746 -2.223357,-1.1579 -2.21875,-1 6.78e-4,0.025 0.137602,0.6544 0.3125,1.375 l 0.40625,1.2812 0,1.9375 c 0.0063,1.8463 -0.009,1.8853 -0.125,2 -0.127352,0.1262 -0.378861,0.1648 -1.125,0.094 l 0,-0.031 c -0.268869,-0.025 -0.622373,-0.1232 -0.71875,-0.2187 l 0.03125,-3.9375 -0.34375,-1.25 -0.3125,-1.25 -1.75,3.0625 c -0.9663427,1.6833 -1.8533319,3.1609 -1.96875,3.2812 -0.2929873,0.3053 -0.4636009,0.2758 -0.96875,-0.094 -0.4325635,-0.3163 -0.5251559,-0.4874 -0.46875,-0.7813 0.050824,-0.2648 0.00116,-0.1616 2.0625,-3.75 1.0215901,-1.7784 1.8617046,-3.306 1.875,-3.375 0.020681,-0.1071 -0.055131,-0.1526 -0.59375,-0.4375 -0.6219725,-0.329 -0.6342559,-0.3382 -0.71875,-0.2187 -0.1500766,0.2122 -0.3613239,0.157 -0.78125,-0.2188 -0.5762502,-0.5157 -0.6140951,-0.4435 0.65625,-2.8125 0.575985,-1.0741 1.1410806,-2.0136 1.21875,-2.0937 l 0.125,-0.1563 2.53125,0 2.53125,-0.031 -0.09375,-0.2813 c -0.200639,-0.6396 0.01171,-1.4094 0.5,-1.875 0.310566,-0.2963 0.679787,-0.4548 1.0625,-0.4687 z m -5.28125,4.5 -0.625,0.031 -0.65625,1.25 c -0.3677083,0.687 -0.6709453,1.2668 -0.65625,1.2813 0.037486,0.037 1.120329,0.5619 1.15625,0.5625 0.016187,3e-4 0.3250754,-0.6599 0.6875,-1.4688 0.362424,-0.8088 0.665641,-1.5054 0.6875,-1.5625 0.03685,-0.096 -0.0069,-0.1086 -0.59375,-0.094 z m 3.53125,2.4062 c -0.06903,0.071 -0.209361,0.3708 -0.53125,1.0938 -0.304143,0.683 -0.583089,1.2606 -0.59375,1.2812 -0.02066,0.04 1.302436,0.7477 1.34375,0.7188 0.01344,-0.011 -0.0197,-0.6903 -0.0625,-1.5 -0.04274,-0.8097 -0.07388,-1.5199 -0.09375,-1.5938 -0.007,-0.026 -0.03949,-0.024 -0.0625,0 z" style="opacity:0.6;color:#000000;fill:#ffffff;fill-opacity:1;fill-rule:nonzero;stroke:none;stroke-width:1;marker:none;visibility:visible;display:inline;overflow:visible;enable-background:accumulate" />
    <path style="opacity:0.7;color:#000000;fill:url(#linearGradient3035);fill-opacity:1;fill-rule:nonzero;stroke:none;stroke-width:1.00139093;marker:none;visibility:visible;display:inline;overflow:visible;enable-background:accumulate" d="m 5,1021.3622 c -2.216,0 -4,1.784 -4,4 l 0,22 c 0,2.216 1.784,4 4,4 l 22,0 c 2.216,0 4,-1.784 4,-4 l 0,-22 c 0,-2.216 -1.784,-4 -4,-4 l -22,0 z m 10.46875,7.0938 c 0.637855,-0.023 1.267589,0.3397 1.59375,1 0.196708,0.3981 0.233897,1.0165 0.0625,1.4687 -0.258152,0.6808 -0.861221,1.0938 -1.59375,1.0938 -0.385729,0 -0.401201,0.01 -0.375,0.125 0.01516,0.069 0.08535,1.5955 0.1875,3.375 0.139806,2.4355 0.17144,3.2944 0.125,3.4687 -0.03393,0.1274 -0.04195,0.2332 -0.03125,0.25 0.533907,0.3015 1.074789,0.6072 1.65625,0.7813 0.45325,-0.6368 1.306648,-1.5801 1.46875,-1.6563 1.125466,-0.1567 2.315773,-0.1769 3.4375,0 1.919003,2.2254 3.799684,4.6611 5.5,7.0625 l -14,0.031 2.96875,-4.6563 c -0.0121,-0.011 -0.978728,-0.4945 -2.125,-1.0937 -1.864501,-0.9746 -2.223357,-1.1579 -2.21875,-1 6.78e-4,0.025 0.137602,0.6544 0.3125,1.375 l 0.40625,1.2812 0,1.9375 c 0.0063,1.8463 -0.009,1.8853 -0.125,2 -0.127352,0.1262 -0.378861,0.1648 -1.125,0.094 l 0,-0.031 c -0.268869,-0.025 -0.622373,-0.1232 -0.71875,-0.2187 l 0.03125,-3.9375 -0.34375,-1.25 -0.3125,-1.25 -1.75,3.0625 c -0.9663427,1.6833 -1.8533319,3.1609 -1.96875,3.2812 -0.2929873,0.3053 -0.4636009,0.2758 -0.96875,-0.094 -0.4325635,-0.3163 -0.5251559,-0.4874 -0.46875,-0.7813 0.050824,-0.2648 0.00116,-0.1616 2.0625,-3.75 1.0215901,-1.7784 1.8617046,-3.306 1.875,-3.375 0.020681,-0.1071 -0.055131,-0.1526 -0.59375,-0.4375 -0.6219725,-0.329 -0.6342559,-0.3382 -0.71875,-0.2187 -0.1500766,0.2122 -0.3613239,0.157 -0.78125,-0.2188 -0.5762502,-0.5157 -0.6140951,-0.4435 0.65625,-2.8125 0.575985,-1.0741 1.1410806,-2.0136 1.21875,-2.0937 l 0.125,-0.1563 2.53125,0 2.53125,-0.031 -0.09375,-0.2813 c -0.200639,-0.6396 0.01171,-1.4094 0.5,-1.875 0.310566,-0.2963 0.679787,-0.4548 1.0625,-0.4687 z m -5.28125,4.5 -0.625,0.031 -0.65625,1.25 c -0.3677083,0.687 -0.6709453,1.2668 -0.65625,1.2813 0.037486,0.037 1.120329,0.5619 1.15625,0.5625 0.016187,3e-4 0.3250754,-0.6599 0.6875,-1.4688 0.362424,-0.8088 0.665641,-1.5054 0.6875,-1.5625 0.03685,-0.096 -0.0069,-0.1086 -0.59375,-0.094 z m 3.53125,2.4062 c -0.06903,0.071 -0.209361,0.3708 -0.53125,1.0938 -0.304143,0.683 -0.583089,1.2606 -0.59375,1.2812 -0.02066,0.04 1.302436,0.7477 1.34375,0.7188 0.01344,-0.011 -0.0197,-0.6903 -0.0625,-1.5 -0.04274,-0.8097 -0.07388,-1.5199 -0.09375,-1.5938 -0.007,-0.026 -0.03949,-0.024 -0.0625,0 z" id="path3169" inkscape:connector-curvature="0" />
    <rect y="1020.3622" x="-2.9999999e-06" height="32" width="32" id="rect3123" style="opacity:0.6;color:#000000;fill:none;stroke:none;stroke-width:1;marker:none;visibility:visible;display:inline;overflow:visible;enable-background:accumulate" />
  </g>
</svg>
