<?xml version="1.0" encoding="UTF-8" standalone="no"?>
<!-- Created with Inkscape (http://www.inkscape.org/) -->

<svg xmlns:dc="http://purl.org/dc/elements/1.1/" xmlns:cc="http://creativecommons.org/ns#" xmlns:rdf="http://www.w3.org/1999/02/22-rdf-syntax-ns#" xmlns:svg="http://www.w3.org/2000/svg" xmlns="http://www.w3.org/2000/svg" xmlns:xlink="http://www.w3.org/1999/xlink" xmlns:sodipodi="http://sodipodi.sourceforge.net/DTD/sodipodi-0.dtd" xmlns:inkscape="http://www.inkscape.org/namespaces/inkscape" width="32" height="32" id="svg3330" version="1.1" inkscape:version="0.48.3.1 r9886" sodipodi:docname="preferences-desktop.svg">
  <defs id="defs3332">
    <linearGradient gradientUnits="userSpaceOnUse" id="linearGradient1022-8-8-3-0-06-59-7-8-0-2" x2="0" y1="3.0069399" y2="11.02436">
      <stop offset="0" id="stop3001-0-9-4-9-02-6-2-81-9" />
      <stop offset="1" stop-color="#363636" id="stop3003-5-6-6-5-70-7-1-4-9" />
    </linearGradient>
    <linearGradient inkscape:collect="always" xlink:href="#linearGradient1022-8-8-3-0-06-59-7-8-0-2" id="linearGradient3858" gradientUnits="userSpaceOnUse" gradientTransform="matrix(2.3556973,0,0,2.3198273,-518.39273,-209.44477)" x1="227.2757" y1="530.55975" x2="227.2757" y2="543.49176" />
  </defs>
  <sodipodi:namedview id="base" pagecolor="#ffffff" bordercolor="#666666" borderopacity="1.0" inkscape:pageopacity="0.0" inkscape:pageshadow="2" inkscape:zoom="16" inkscape:cx="24.205296" inkscape:cy="20.553194" inkscape:document-units="px" inkscape:current-layer="capa1" showgrid="true" inkscape:showpageshadow="false" inkscape:window-width="1280" inkscape:window-height="977" inkscape:window-x="0" inkscape:window-y="24" inkscape:window-maximized="1" inkscape:snap-to-guides="false" inkscape:snap-grids="true" showguides="true" inkscape:guide-bbox="true">
    <inkscape:grid type="xygrid" id="grid2990" empspacing="5" visible="true" enabled="true" snapvisiblegridlinesonly="true" />
  </sodipodi:namedview>
  <metadata id="metadata3335">
    <rdf:RDF>
      <cc:Work rdf:about="">
        <dc:format>image/svg+xml</dc:format>
        <dc:type rdf:resource="http://purl.org/dc/dcmitype/StillImage" />
        <dc:title />
      </cc:Work>
    </rdf:RDF>
  </metadata>
  <g inkscape:label="Capa 1" inkscape:groupmode="layer" id="capa1" transform="translate(0,-1020.3622)">
    <rect y="1020.3622" x="-2.9999999e-06" height="32" width="32" id="rect3123" style="opacity:0.6;color:#000000;fill:none;stroke:none;stroke-width:1;marker:none;visibility:visible;display:inline;overflow:visible;enable-background:accumulate" />
    <path d="m 5,1022.3622 22,0 c 2.216,0 4,1.784 4,4 l 0,22 c 0,2.216 -1.784,4 -4,4 l -22,0 c -2.216,0 -4,-1.784 -4,-4 l 0,-22 c 0,-2.216 1.784,-4 4,-4 z m 11,11.3125 c -2.092883,0 -3.8125,1.676 -3.8125,3.7813 0,2.1056 1.719617,3.8437 3.8125,3.8437 2.092882,0 3.8125,-1.7381 3.8125,-3.8437 0,-2.1053 -1.719618,-3.7813 -3.8125,-3.7813 z m -1.28125,-5.0937 2.5625,0 0,2.6562 c 0.822287,0.1692 1.577987,0.5121 2.25,0.9688 l 0.03125,0 1.90625,-1.9375 1.6875,1.6875 -1.9375,1.9375 0,0.031 c 0.454,0.6758 0.800488,1.454 0.96875,2.2813 l 1.8125,0 0,2.5312 -1.8125,0 c -0.168262,0.8273 -0.51475,1.6054 -0.96875,2.2813 l 1.9375,1.9375 -1.6875,1.7187 -1.90625,-1.9375 -0.03125,0 c -0.672013,0.4567 -1.427713,0.7995 -2.25,0.9688 l 0,2.6562 -2.5625,0 0,-2.6562 c -0.822288,-0.1693 -1.577987,-0.5121 -2.25,-0.9688 -0.0058,0 -0.02535,0.01 -0.03125,0 l -1.90625,1.9375 -1.6875,-1.7187 1.9375,-1.9375 c -0.453999,-0.6759 -0.8004878,-1.4541 -0.96875,-2.2813 l -1.8125,0 0,-2.5312 1.8125,0 c 0.1682622,-0.8273 0.514751,-1.6055 0.96875,-2.2813 0.0043,-0.01 -0.0043,-0.021 0,-0.031 l -1.9375,-1.9375 1.6875,-1.6875 1.90625,1.9375 0.03125,0 c 0.672013,-0.4567 1.427713,-0.7997 2.25,-0.9688 l 0,-2.6562 z" style="opacity:0.6;color:#000000;fill:#ffffff;fill-opacity:1;fill-rule:nonzero;stroke:none;stroke-width:1;marker:none;visibility:visible;display:inline;overflow:visible;enable-background:accumulate" id="path3860" inkscape:connector-curvature="0" />
    <path id="rect3134" style="opacity:0.69999999999999996;color:#000000;fill:url(#linearGradient3858);fill-opacity:1;fill-rule:evenodd;stroke:none;stroke-width:1.00139092999999990;marker:none;visibility:visible;display:inline;overflow:visible;enable-background:accumulate" d="m 5,1021.3622 22,0 c 2.216,0 4,1.784 4,4 l 0,22 c 0,2.216 -1.784,4 -4,4 l -22,0 c -2.216,0 -4,-1.784 -4,-4 l 0,-22 c 0,-2.216 1.784,-4 4,-4 z m 11,11.3125 c -2.092883,0 -3.8125,1.676 -3.8125,3.7813 0,2.1056 1.719617,3.8437 3.8125,3.8437 2.092882,0 3.8125,-1.7381 3.8125,-3.8437 0,-2.1053 -1.719618,-3.7813 -3.8125,-3.7813 z m -1.28125,-5.0937 2.5625,0 0,2.6562 c 0.822287,0.1692 1.577987,0.5121 2.25,0.9688 l 0.03125,0 1.90625,-1.9375 1.6875,1.6875 -1.9375,1.9375 0,0.031 c 0.454,0.6758 0.800488,1.454 0.96875,2.2813 l 1.8125,0 0,2.5312 -1.8125,0 c -0.168262,0.8273 -0.51475,1.6054 -0.96875,2.2813 l 1.9375,1.9375 -1.6875,1.7187 -1.90625,-1.9375 -0.03125,0 c -0.672013,0.4567 -1.427713,0.7995 -2.25,0.9688 l 0,2.6562 -2.5625,0 0,-2.6562 c -0.822288,-0.1693 -1.577987,-0.5121 -2.25,-0.9688 -0.0058,0 -0.02535,0.01 -0.03125,0 l -1.90625,1.9375 -1.6875,-1.7187 1.9375,-1.9375 c -0.453999,-0.6759 -0.8004878,-1.4541 -0.96875,-2.2813 l -1.8125,0 0,-2.5312 1.8125,0 c 0.1682622,-0.8273 0.514751,-1.6055 0.96875,-2.2813 0.0043,-0.01 -0.0043,-0.021 0,-0.031 l -1.9375,-1.9375 1.6875,-1.6875 1.90625,1.9375 0.03125,0 c 0.672013,-0.4567 1.427713,-0.7997 2.25,-0.9688 l 0,-2.6562 z" />
  </g>
</svg>
