<?xml version="1.0" encoding="UTF-8" standalone="no"?>
<!-- Created with Inkscape (http://www.inkscape.org/) -->

<svg
   xmlns:dc="http://purl.org/dc/elements/1.1/"
   xmlns:cc="http://creativecommons.org/ns#"
   xmlns:rdf="http://www.w3.org/1999/02/22-rdf-syntax-ns#"
   xmlns:svg="http://www.w3.org/2000/svg"
   xmlns="http://www.w3.org/2000/svg"
   xmlns:xlink="http://www.w3.org/1999/xlink"
   xmlns:sodipodi="http://sodipodi.sourceforge.net/DTD/sodipodi-0.dtd"
   xmlns:inkscape="http://www.inkscape.org/namespaces/inkscape"
   version="1.0"
   width="24"
   height="24"
   id="svg4431"
   sodipodi:version="0.32"
   inkscape:version="0.48.4 r9939"
   sodipodi:docname="audio-volume-muted-panel.svg"
   inkscape:output_extension="org.inkscape.output.svg.inkscape">
  <metadata
     id="metadata16">
    <rdf:RDF>
      <cc:Work
         rdf:about="">
        <dc:format>image/svg+xml</dc:format>
        <dc:type
           rdf:resource="http://purl.org/dc/dcmitype/StillImage" />
      </cc:Work>
    </rdf:RDF>
  </metadata>
  <sodipodi:namedview
     inkscape:window-height="1026"
     inkscape:window-width="1680"
     inkscape:pageshadow="2"
     inkscape:pageopacity="0.0"
     guidetolerance="10.0"
     gridtolerance="10.0"
     objecttolerance="10.0"
     borderopacity="1.0"
     bordercolor="#666666"
     pagecolor="#ffffff"
     id="base"
     showgrid="false"
     inkscape:zoom="10.375"
     inkscape:cx="-6.0080321"
     inkscape:cy="13.012048"
     inkscape:window-x="0"
     inkscape:window-y="24"
     inkscape:current-layer="svg4431"
     inkscape:window-maximized="1" />
  <defs
     id="defs4433">
    <linearGradient
       id="linearGradient3587-6-5">
      <stop
         id="stop3589-9-2"
         style="stop-color:#000000;stop-opacity:1"
         offset="0" />
      <stop
         id="stop3591-7-4"
         style="stop-color:#363636;stop-opacity:1"
         offset="1" />
    </linearGradient>
    <linearGradient
       inkscape:collect="always"
       xlink:href="#linearGradient3587-6-5"
       id="linearGradient3154"
       gradientUnits="userSpaceOnUse"
       gradientTransform="matrix(1.1111111,0,0,1.1111111,-2.4444443,-1.8888892)"
       x1="9"
       y1="3"
       x2="9"
       y2="21" />
  </defs>
  <g
     id="g3150"
     transform="translate(0,1)">
    <path
       d="m 2,10.222 0,5.555555 2.2222222,0 4.4444445,4.444445 0,-14.4444443 L 4.2222222,10.222 2,10.222 z m 8.888889,2.222222 c 0.740741,0 1.481481,0 2.222222,0 0,0.37037 0,0.740741 0,1.111111 -0.740741,0 -1.481481,0 -2.222222,0 0,-0.37037 0,-0.740741 0,-1.111111 z m 8.888889,0 c 0.740741,0 1.481481,0 2.222222,0 0,0.37037 0,0.740741 0,1.111111 -0.740741,0 -1.481481,0 -2.222222,0 0,-0.37037 0,-0.740741 0,-1.111111 z m -4.444445,0 c 0.740741,0 1.481481,0 2.222222,0 0,0.37037 0,0.740741 0,1.111111 -0.740741,0 -1.481481,0 -2.222222,0 0,-0.37037 0,-0.740741 0,-1.111111 z"
       id="path2387-4"
       style="opacity:0.23999999;fill:#ffffff;fill-opacity:1;fill-rule:evenodd;stroke:none"
       inkscape:connector-curvature="0" />
    <path
       d="m 2,9.222222 0,5.555555 2.2222223,0 4.4444444,4.444445 0,-14.4444444 L 4.2222223,9.222222 2,9.222222 z m 8.888889,2.222222 c 0.740741,0 1.481481,0 2.222222,0 0,0.37037 0,0.740741 0,1.111111 -0.740741,0 -1.481481,0 -2.222222,0 0,-0.37037 0,-0.740741 0,-1.111111 z m 8.888889,0 c 0.740741,0 1.481481,0 2.222222,0 0,0.37037 0,0.740741 0,1.111111 -0.740741,0 -1.481481,0 -2.222222,0 0,-0.37037 0,-0.740741 0,-1.111111 z m -4.444445,0 c 0.740741,0 1.481481,0 2.222222,0 0,0.37037 0,0.740741 0,1.111111 -0.740741,0 -1.481481,0 -2.222222,0 0,-0.37037 0,-0.740741 0,-1.111111 z"
       id="path2387"
       style="opacity:0.32000002;fill:url(#linearGradient3154);fill-opacity:1;fill-rule:evenodd;stroke:none"
       inkscape:connector-curvature="0" />
  </g>
</svg>
