<?xml version="1.0" encoding="UTF-8" standalone="no"?>
<!-- Created with Inkscape (http://www.inkscape.org/) -->

<svg
   xmlns:dc="http://purl.org/dc/elements/1.1/"
   xmlns:cc="http://creativecommons.org/ns#"
   xmlns:rdf="http://www.w3.org/1999/02/22-rdf-syntax-ns#"
   xmlns:svg="http://www.w3.org/2000/svg"
   xmlns="http://www.w3.org/2000/svg"
   xmlns:xlink="http://www.w3.org/1999/xlink"
   xmlns:sodipodi="http://sodipodi.sourceforge.net/DTD/sodipodi-0.dtd"
   xmlns:inkscape="http://www.inkscape.org/namespaces/inkscape"
   width="24"
   height="24"
   id="svg3038"
   version="1.1"
   inkscape:version="0.48.4 r9939"
   sodipodi:docname="bluetooth-active.svg">
  <defs
     id="defs3040">
    <linearGradient
       id="linearGradient3074">
      <stop
         style="stop-color:#000000;stop-opacity:1;"
         offset="0"
         id="stop3076" />
      <stop
         style="stop-color:#363636;stop-opacity:1;"
         offset="1"
         id="stop3078" />
    </linearGradient>
    <linearGradient
       inkscape:collect="always"
       xlink:href="#linearGradient3074"
       id="linearGradient3123"
       gradientUnits="userSpaceOnUse"
       x1="6"
       y1="28"
       x2="6"
       y2="44"
       gradientTransform="translate(1,1)" />
  </defs>
  <sodipodi:namedview
     id="base"
     pagecolor="#ffffff"
     bordercolor="#666666"
     borderopacity="1.0"
     inkscape:pageopacity="0.0"
     inkscape:pageshadow="2"
     inkscape:zoom="22.627417"
     inkscape:cx="11.881028"
     inkscape:cy="10.65659"
     inkscape:current-layer="layer1"
     showgrid="true"
     inkscape:grid-bbox="true"
     inkscape:document-units="px"
     inkscape:window-width="1280"
     inkscape:window-height="974"
     inkscape:window-x="0"
     inkscape:window-y="26"
     inkscape:window-maximized="1"
     inkscape:snap-global="true"
     inkscape:snap-bbox="true">
    <inkscape:grid
       type="xygrid"
       id="grid3053"
       empspacing="5"
       visible="true"
       enabled="true"
       snapvisiblegridlinesonly="true" />
  </sodipodi:namedview>
  <metadata
     id="metadata3043">
    <rdf:RDF>
      <cc:Work
         rdf:about="">
        <dc:format>image/svg+xml</dc:format>
        <dc:type
           rdf:resource="http://purl.org/dc/dcmitype/StillImage" />
        <dc:title />
      </cc:Work>
    </rdf:RDF>
  </metadata>
  <g
     id="layer1"
     inkscape:label="Layer 1"
     inkscape:groupmode="layer"
     transform="translate(0,-24)">
    <path
       style="opacity:0.6;fill:#ffffff;fill-opacity:1"
       d="m 11,29 0,6 -1,-1 -2,-2 0,2 2,2 1,1 -1,1 -2,2 0,2 2,-2 1,-1 0,6 2,0 1,-1 1,-1 1,-1 0,-1 0,-1 -1,-1 -1,-1 -1,-1 1,-1 1,-1 1,-1 0,-1 0,-1 -1,-1 -1,-1 -1,-1 z m 1,1 1,1 1,1 1,1 -1,1 -1,1 -1,1 z m 0,8 1,1 1,1 1,1 -1,1 -1,1 -1,1 z"
       id="rect2996-3"
       inkscape:connector-curvature="0"
       sodipodi:nodetypes="ccccccccccccccccccccccccccccccccccccccccccccccc" />
    <path
       style="opacity:0.7;fill:url(#linearGradient3123);fill-opacity:1"
       d="m 11,28 0,6 -1,-1 -2,-2 0,2 2,2 1,1 -1,1 -2,2 0,2 2,-2 1,-1 0,6 2,0 1,-1 1,-1 1,-1 0,-1 0,-1 -1,-1 -1,-1 -1,-1 1,-1 1,-1 1,-1 0,-1 0,-1 -1,-1 -1,-1 -1,-1 z m 1,1 1,1 1,1 1,1 -1,1 -1,1 -1,1 z m 0,8 1,1 1,1 1,1 -1,1 -1,1 -1,1 z"
       id="rect2996"
       inkscape:connector-curvature="0"
       sodipodi:nodetypes="ccccccccccccccccccccccccccccccccccccccccccccccc" />
  </g>
</svg>
