<?xml version="1.0" encoding="UTF-8" standalone="no"?>
<!-- Created with Inkscape (http://www.inkscape.org/) -->

<svg
   xmlns:dc="http://purl.org/dc/elements/1.1/"
   xmlns:cc="http://creativecommons.org/ns#"
   xmlns:rdf="http://www.w3.org/1999/02/22-rdf-syntax-ns#"
   xmlns:svg="http://www.w3.org/2000/svg"
   xmlns="http://www.w3.org/2000/svg"
   xmlns:xlink="http://www.w3.org/1999/xlink"
   xmlns:sodipodi="http://sodipodi.sourceforge.net/DTD/sodipodi-0.dtd"
   xmlns:inkscape="http://www.inkscape.org/namespaces/inkscape"
   version="1.1"
   width="24"
   height="24"
   id="svg3833"
   inkscape:version="0.48.3.1 r9886"
   sodipodi:docname="dropboxstatus-busy.svg">
  <metadata
     id="metadata13">
    <rdf:RDF>
      <cc:Work
         rdf:about="">
        <dc:format>image/svg+xml</dc:format>
        <dc:type
           rdf:resource="http://purl.org/dc/dcmitype/StillImage" />
      </cc:Work>
    </rdf:RDF>
  </metadata>
  <sodipodi:namedview
     pagecolor="#ffffff"
     bordercolor="#666666"
     borderopacity="1"
     objecttolerance="10"
     gridtolerance="10"
     guidetolerance="10"
     inkscape:pageopacity="0"
     inkscape:pageshadow="2"
     inkscape:window-width="1680"
     inkscape:window-height="1026"
     id="namedview11"
     showgrid="false"
     inkscape:zoom="18.706189"
     inkscape:cx="9.9638916"
     inkscape:cy="7.2323294"
     inkscape:window-x="0"
     inkscape:window-y="24"
     inkscape:window-maximized="1"
     inkscape:current-layer="svg3833" />
  <defs
     id="defs3835">
    <linearGradient
       id="linearGradient3587-6-5-8">
      <stop
         id="stop3589-9-2-4"
         style="stop-color:#000000;stop-opacity:1"
         offset="0" />
      <stop
         id="stop3591-7-4-3"
         style="stop-color:#363636;stop-opacity:1"
         offset="1" />
    </linearGradient>
    <linearGradient
       inkscape:collect="always"
       xlink:href="#linearGradient3587-6-5-8"
       id="linearGradient2991"
       gradientUnits="userSpaceOnUse"
       gradientTransform="matrix(1.1111111,0,0,1.1212121,-0.43466556,-0.68237227)"
       x1="11.191199"
       y1="3.561305"
       x2="11.191199"
       y2="17.561304" />
  </defs>
  <path
     inkscape:connector-curvature="0"
     style="opacity:0.6;color:#000000;fill:#ffffff;fill-opacity:1;fill-rule:nonzero;stroke:none;stroke-width:1;marker:none;visibility:visible;display:inline;overflow:visible;enable-background:accumulate"
     id="path2835-6"
     d="M 7,3.75 2,7.6742424 7,11.037879 2,15.522727 12,22.25 22,15.522727 17,11.037879 22,7.6742424 17,3.75 12,7.6742424 7,3.75 z m 5,5.0454545 c 1.647369,0 2.680858,0.6259625 3.333333,1.4015155 l 0,-1.4015155 1.111111,0 0,2.2424245 0,1.121212 -1.111111,0 -2.222222,0 0,-1.121212 1.458333,0 C 14.08572,10.413681 13.300053,9.916667 12,9.916667 c -3.3333333,0 -3.3333333,3.363636 -3.3333333,3.363636 l -1.1111111,0 c 0,0 0,-4.4848485 4.4444444,-4.4848485 z m 3.333333,4.4848485 1.111111,0 c 0,0 0,4.484849 -4.444444,4.484849 -1.647369,0 -2.6808578,-0.625963 -3.3333333,-1.401516 l 0,1.401516 -1.1111111,0 0,-2.242425 0,-1.121212 1.1111111,0 2.2222223,0 0,1.121212 -1.4583334,0 C 9.91428,16.146925 10.699947,16.643939 12,16.643939 c 3.333333,0 3.333333,-3.363636 3.333333,-3.363636 z" />
  <path
     inkscape:connector-curvature="0"
     style="opacity:0.7;color:#000000;fill:url(#linearGradient2991);fill-opacity:1;fill-rule:nonzero;stroke:none;stroke-width:1;marker:none;visibility:visible;display:inline;overflow:visible;enable-background:accumulate"
     id="path2835"
     d="M 7,2.75 2,6.6742424 7,10.037879 2,14.522727 12,21.25 22,14.522727 17,10.037879 22,6.6742424 17,2.75 12,6.6742424 7,2.75 z m 5,5.0454545 c 1.647369,0 2.680858,0.6259627 3.333333,1.4015152 l 0,-1.4015152 1.111111,0 0,2.2424245 0,1.121212 -1.111111,0 -2.222222,0 0,-1.121212 1.458333,0 C 14.08572,9.413681 13.300053,8.9166667 12,8.9166667 c -3.3333333,0 -3.3333333,3.3636363 -3.3333333,3.3636363 l -1.1111111,0 c 0,0 0,-4.4848489 4.4444444,-4.4848485 z m 3.333333,4.4848485 1.111111,0 c 0,0 0,4.484849 -4.444444,4.484849 -1.647369,0 -2.6808578,-0.625963 -3.3333333,-1.401516 l 0,1.401516 -1.1111111,0 0,-2.242425 0,-1.121212 1.1111111,0 2.2222223,0 0,1.121212 -1.4583334,0 C 9.91428,15.146925 10.699947,15.643939 12,15.643939 c 3.333333,0 3.333333,-3.363636 3.333333,-3.363636 z" />
</svg>
