<?xml version="1.0" encoding="UTF-8" standalone="no"?>
<!-- Created with Inkscape (http://www.inkscape.org/) -->

<svg
   xmlns:dc="http://purl.org/dc/elements/1.1/"
   xmlns:cc="http://creativecommons.org/ns#"
   xmlns:rdf="http://www.w3.org/1999/02/22-rdf-syntax-ns#"
   xmlns:svg="http://www.w3.org/2000/svg"
   xmlns="http://www.w3.org/2000/svg"
   xmlns:xlink="http://www.w3.org/1999/xlink"
   xmlns:sodipodi="http://sodipodi.sourceforge.net/DTD/sodipodi-0.dtd"
   xmlns:inkscape="http://www.inkscape.org/namespaces/inkscape"
   version="1.1"
   width="24"
   height="24"
   id="svg4744"
   inkscape:version="0.48.3.1 r9886"
   sodipodi:docname="dropboxstatus-x.svg">
  <metadata
     id="metadata18">
    <rdf:RDF>
      <cc:Work
         rdf:about="">
        <dc:format>image/svg+xml</dc:format>
        <dc:type
           rdf:resource="http://purl.org/dc/dcmitype/StillImage" />
      </cc:Work>
    </rdf:RDF>
  </metadata>
  <sodipodi:namedview
     pagecolor="#ffffff"
     bordercolor="#666666"
     borderopacity="1"
     objecttolerance="10"
     gridtolerance="10"
     guidetolerance="10"
     inkscape:pageopacity="0"
     inkscape:pageshadow="2"
     inkscape:window-width="949"
     inkscape:window-height="616"
     id="namedview16"
     showgrid="false"
     inkscape:zoom="6.1363635"
     inkscape:cx="-20.777779"
     inkscape:cy="13.566667"
     inkscape:window-x="0"
     inkscape:window-y="24"
     inkscape:window-maximized="0"
     inkscape:current-layer="svg4744" />
  <defs
     id="defs4746">
    <linearGradient
       inkscape:collect="always"
       xlink:href="#linearGradient3187-6"
       id="linearGradient2996"
       gradientUnits="userSpaceOnUse"
       gradientTransform="matrix(1.1111111,0,0,1.1212121,-0.43466556,6.0449005)"
       x1="11.109717"
       y1="-2.9572136"
       x2="11.109717"
       y2="13.487432" />
    <linearGradient
       id="linearGradient3187-6">
      <stop
         offset="0"
         style="stop-color:#a60000;stop-opacity:1"
         id="stop3189-5" />
      <stop
         offset="1"
         style="stop-color:#ff1313;stop-opacity:1"
         id="stop3191-6" />
    </linearGradient>
  </defs>
  <path
     inkscape:connector-curvature="0"
     style="opacity:0.6;color:#000000;fill:#ffffff;fill-opacity:1;fill-rule:nonzero;stroke:none;stroke-width:1;marker:none;visibility:visible;display:inline;overflow:visible;enable-background:accumulate"
     id="path3973"
     d="M 7,3.75 2,7.6742423 7,11.037879 2,15.522727 12,22.25 22,15.522727 17,11.037879 22,7.6742423 17,3.75 12,7.6742423 7,3.75 z m 5,5.0454545 c 0.615556,0 1.111111,0.5000605 1.111111,1.1212125 l 0,5.60606 c 0,0.621152 -0.495555,1.121212 -1.111111,1.121212 -0.615556,0 -1.111111,-0.50006 -1.111111,-1.121212 l 0,-5.60606 c 0,-0.621152 0.495555,-1.1212125 1.111111,-1.1212125 z m -0.277778,8.9696965 0.555556,0 c 0.461666,0 0.833333,0.375045 0.833333,0.84091 l 0,0.560606 c 0,0.465863 -0.371667,0.840909 -0.833333,0.840909 l -0.555556,0 c -0.461666,0 -0.833333,-0.375046 -0.833333,-0.840909 l 0,-0.560606 c 0,-0.465865 0.371667,-0.84091 0.833333,-0.84091 z" />
  <path
     inkscape:connector-curvature="0"
     style="opacity:0.8;color:#000000;fill:url(#linearGradient2996);fill-opacity:1;fill-rule:nonzero;stroke:none;stroke-width:1;marker:none;visibility:visible;display:inline;overflow:visible;enable-background:accumulate"
     id="path3967"
     d="M 7,2.75 2,6.6742424 7,10.037879 2,14.522727 12,21.25 22,14.522727 17,10.037879 22,6.6742424 17,2.75 12,6.6742424 7,2.75 z m 5,5.0454545 c 0.615556,0 1.111111,0.5000606 1.111111,1.1212121 l 0,5.6060604 c 0,0.621152 -0.495555,1.121212 -1.111111,1.121212 -0.615556,0 -1.111111,-0.50006 -1.111111,-1.121212 l 0,-5.6060604 c 0,-0.6211515 0.495555,-1.1212121 1.111111,-1.1212121 z m -0.277778,8.9696965 0.555556,0 c 0.461666,0 0.833333,0.375045 0.833333,0.84091 l 0,0.560606 c 0,0.465863 -0.371667,0.840909 -0.833333,0.840909 l -0.555556,0 c -0.461666,0 -0.833333,-0.375046 -0.833333,-0.840909 l 0,-0.560606 c 0,-0.465865 0.371667,-0.84091 0.833333,-0.84091 z" />
</svg>
