<?xml version="1.0" encoding="UTF-8" standalone="no"?>
<!-- Created with Inkscape (http://www.inkscape.org/) -->

<svg
   xmlns:dc="http://purl.org/dc/elements/1.1/"
   xmlns:cc="http://creativecommons.org/ns#"
   xmlns:rdf="http://www.w3.org/1999/02/22-rdf-syntax-ns#"
   xmlns:svg="http://www.w3.org/2000/svg"
   xmlns="http://www.w3.org/2000/svg"
   xmlns:xlink="http://www.w3.org/1999/xlink"
   xmlns:sodipodi="http://sodipodi.sourceforge.net/DTD/sodipodi-0.dtd"
   xmlns:inkscape="http://www.inkscape.org/namespaces/inkscape"
   width="24"
   height="24"
   id="svg7669"
   version="1.1"
   inkscape:version="0.48.3.1 r9886"
   sodipodi:docname="New document 22">
  <defs
     id="defs7671">
    <linearGradient
       inkscape:collect="always"
       xlink:href="#linearGradient6443"
       id="linearGradient7634"
       gradientUnits="userSpaceOnUse"
       gradientTransform="matrix(1.0526316,0,0,1.0526316,53.631334,1104.0141)"
       x1="-38.396969"
       y1="-69.691612"
       x2="-38.396969"
       y2="-50.803493" />
    <linearGradient
       id="linearGradient6443">
      <stop
         style="stop-color:#000000;stop-opacity:1;"
         offset="0"
         id="stop6445" />
      <stop
         style="stop-color:#363636;stop-opacity:1;"
         offset="1"
         id="stop6447" />
    </linearGradient>
    <linearGradient
       inkscape:collect="always"
       xlink:href="#linearGradient6443-7"
       id="linearGradient7634-3"
       gradientUnits="userSpaceOnUse"
       gradientTransform="matrix(1.0526316,0,0,1.0526316,53.631334,1104.0141)"
       x1="-38.396969"
       y1="-69.691612"
       x2="-38.396969"
       y2="-50.803493" />
    <linearGradient
       id="linearGradient6443-7">
      <stop
         style="stop-color:#000000;stop-opacity:1;"
         offset="0"
         id="stop6445-3" />
      <stop
         style="stop-color:#363636;stop-opacity:1;"
         offset="1"
         id="stop6447-5" />
    </linearGradient>
  </defs>
  <sodipodi:namedview
     id="base"
     pagecolor="#ffffff"
     bordercolor="#666666"
     borderopacity="1.0"
     inkscape:pageopacity="0.0"
     inkscape:pageshadow="2"
     inkscape:zoom="0.98994949"
     inkscape:cx="129.37128"
     inkscape:cy="16.504225"
     inkscape:document-units="px"
     inkscape:current-layer="layer1"
     showgrid="false"
     inkscape:window-width="1680"
     inkscape:window-height="1026"
     inkscape:window-x="0"
     inkscape:window-y="24"
     inkscape:window-maximized="1" />
  <metadata
     id="metadata7674">
    <rdf:RDF>
      <cc:Work
         rdf:about="">
        <dc:format>image/svg+xml</dc:format>
        <dc:type
           rdf:resource="http://purl.org/dc/dcmitype/StillImage" />
        <dc:title></dc:title>
      </cc:Work>
    </rdf:RDF>
  </metadata>
  <g
     inkscape:label="Layer 1"
     inkscape:groupmode="layer"
     id="layer1"
     transform="translate(0,-1028.3622)">
    <g
       id="g7728">
      <path
         id="path4235-3"
         d="M 4.256944,1031.3622 C 3.005711,1031.3622 2,1032.368 2,1033.6192 l 0,15.4861 c 0,1.2512 1.005711,2.2569 2.256944,2.2569 l 11.770834,0 5.972222,-5.9028 0,-11.8402 c 0,-1.2512 -1.005722,-2.257 -2.256944,-2.257 l -15.486112,0 z m 1.979167,4.2709 11.111111,0 0,2.2222 -11.111111,0 0,-2.2222 z m 0,4.2708 11.111111,0 0,2.2222 -11.111111,0 0,-2.2222 z m 0,4.2709 7.881945,0 0,2.2222 -7.881945,0 0,-2.2222 z"
         style="font-size:medium;font-style:normal;font-variant:normal;font-weight:normal;font-stretch:normal;text-indent:0;text-align:start;text-decoration:none;line-height:normal;letter-spacing:normal;word-spacing:normal;text-transform:none;direction:ltr;block-progression:tb;writing-mode:lr-tb;text-anchor:start;baseline-shift:baseline;opacity:0.6;color:#000000;fill:#ffffff;fill-opacity:1;fill-rule:nonzero;stroke:none;stroke-width:1;marker:none;visibility:visible;display:inline;overflow:visible;enable-background:accumulate;font-family:Sans;-inkscape-font-specification:Sans"
         inkscape:connector-curvature="0" />
      <path
         id="path4235"
         d="m 4.2569445,1030.3622 c -1.2512333,0 -2.2569444,1.0058 -2.2569444,2.257 l 0,15.4861 c 0,1.2512 1.0057111,2.2569 2.2569444,2.2569 l 11.7708335,0 5.972222,-5.9028 0,-11.8402 c 0,-1.2512 -1.005722,-2.257 -2.256944,-2.257 l -15.4861115,0 z m 1.9791666,4.2709 11.1111109,0 0,2.2222 -11.1111109,0 0,-2.2222 z m 0,4.2708 11.1111109,0 0,2.2222 -11.1111109,0 0,-2.2222 z m 0,4.2709 7.8819449,0 0,2.2222 -7.8819449,0 0,-2.2222 z"
         style="font-size:medium;font-style:normal;font-variant:normal;font-weight:normal;font-stretch:normal;text-indent:0;text-align:start;text-decoration:none;line-height:normal;letter-spacing:normal;word-spacing:normal;text-transform:none;direction:ltr;block-progression:tb;writing-mode:lr-tb;text-anchor:start;baseline-shift:baseline;opacity:0.7;color:#000000;fill:url(#linearGradient7634);fill-opacity:1;fill-rule:nonzero;stroke:none;stroke-width:1;marker:none;visibility:visible;display:inline;overflow:visible;enable-background:accumulate;font-family:Sans;-inkscape-font-specification:Sans"
         inkscape:connector-curvature="0" />
    </g>
  </g>
</svg>
