<?xml version="1.0" encoding="UTF-8" standalone="no"?>
<!-- Created with Inkscape (http://www.inkscape.org/) -->

<svg
   xmlns:dc="http://purl.org/dc/elements/1.1/"
   xmlns:cc="http://creativecommons.org/ns#"
   xmlns:rdf="http://www.w3.org/1999/02/22-rdf-syntax-ns#"
   xmlns:svg="http://www.w3.org/2000/svg"
   xmlns="http://www.w3.org/2000/svg"
   xmlns:xlink="http://www.w3.org/1999/xlink"
   xmlns:sodipodi="http://sodipodi.sourceforge.net/DTD/sodipodi-0.dtd"
   xmlns:inkscape="http://www.inkscape.org/namespaces/inkscape"
   width="24"
   height="24"
   id="svg7669"
   version="1.1"
   inkscape:version="0.48.4 r9939"
   sodipodi:docname="xpad-panel.svg">
  <defs
     id="defs7671">
    <linearGradient
       id="linearGradient6443">
      <stop
         style="stop-color:#000000;stop-opacity:1;"
         offset="0"
         id="stop6445" />
      <stop
         style="stop-color:#363636;stop-opacity:1;"
         offset="1"
         id="stop6447" />
    </linearGradient>
    <linearGradient
       inkscape:collect="always"
       xlink:href="#linearGradient6443"
       id="linearGradient3775"
       gradientUnits="userSpaceOnUse"
       gradientTransform="matrix(0.84210526,0,0,0.84210526,45.305068,1091.2837)"
       x1="-38.396969"
       y1="-69.691612"
       x2="-38.396969"
       y2="-50.803493" />
  </defs>
  <sodipodi:namedview
     id="base"
     pagecolor="#ffffff"
     bordercolor="#666666"
     borderopacity="1.0"
     inkscape:pageopacity="0.0"
     inkscape:pageshadow="2"
     inkscape:zoom="11.998804"
     inkscape:cx="0.70796146"
     inkscape:cy="8.7798992"
     inkscape:document-units="px"
     inkscape:current-layer="layer1"
     showgrid="false"
     inkscape:window-width="1024"
     inkscape:window-height="550"
     inkscape:window-x="0"
     inkscape:window-y="0"
     inkscape:window-maximized="1" />
  <metadata
     id="metadata7674">
    <rdf:RDF>
      <cc:Work
         rdf:about="">
        <dc:format>image/svg+xml</dc:format>
        <dc:type
           rdf:resource="http://purl.org/dc/dcmitype/StillImage" />
        <dc:title />
      </cc:Work>
    </rdf:RDF>
  </metadata>
  <g
     inkscape:label="Layer 1"
     inkscape:groupmode="layer"
     id="layer1"
     transform="translate(0,-1028.3622)">
    <path
       inkscape:connector-curvature="0"
       style="font-size:medium;font-style:normal;font-variant:normal;font-weight:normal;font-stretch:normal;text-indent:0;text-align:start;text-decoration:none;line-height:normal;letter-spacing:normal;word-spacing:normal;text-transform:none;direction:ltr;block-progression:tb;writing-mode:lr-tb;text-anchor:start;baseline-shift:baseline;opacity:0.6;color:#000000;fill:#ffffff;fill-opacity:1;fill-rule:nonzero;stroke:none;stroke-width:1;marker:none;visibility:visible;display:inline;overflow:visible;enable-background:accumulate;font-family:Sans;-inkscape-font-specification:Sans"
       d="M 5.8055552,1033.3622 C 4.8045688,1033.3622 4,1034.1668 4,1035.1678 l 0,12.3888 c 0,1.0011 0.8045688,1.8056 1.8055552,1.8056 l 9.4166668,0 4.777778,-4.7223 0,-9.4721 c 0,-1.001 -0.804578,-1.8056 -1.805556,-1.8056 l -12.3888888,0 z m 1.5833336,3.4168 8.8888892,0 0,1.7776 -8.8888892,0 0,-1.7776 z m 0,3.4165 8.8888892,0 0,1.7778 -8.8888892,0 0,-1.7778 z m 0,3.4168 6.3055552,0 0,1.7778 -6.3055552,0 0,-1.7778 z"
       id="path4235-3" />
    <path
       inkscape:connector-curvature="0"
       style="font-size:medium;font-style:normal;font-variant:normal;font-weight:normal;font-stretch:normal;text-indent:0;text-align:start;text-decoration:none;line-height:normal;letter-spacing:normal;word-spacing:normal;text-transform:none;direction:ltr;block-progression:tb;writing-mode:lr-tb;text-anchor:start;baseline-shift:baseline;opacity:0.7;color:#000000;fill:url(#linearGradient3775);fill-opacity:1;fill-rule:nonzero;stroke:none;stroke-width:1;marker:none;visibility:visible;display:inline;overflow:visible;enable-background:accumulate;font-family:Sans;-inkscape-font-specification:Sans"
       d="M 5.8055556,1032.3622 C 4.8045688,1032.3622 4,1033.1668 4,1034.1678 l 0,12.3888 c 0,1.0011 0.8045688,1.8056 1.8055556,1.8056 l 9.4166664,0 4.777778,-4.7223 0,-9.4721 c 0,-1.001 -0.804578,-1.8056 -1.805556,-1.8056 l -12.3888884,0 z m 1.5833332,3.4168 8.8888892,0 0,1.7776 -8.8888891,0 0,-1.7776 z m 0,3.4165 8.8888892,0 0,1.7778 -8.8888891,0 0,-1.7778 z m 0,3.4168 6.3055552,0 0,1.7778 -6.3055552,0 0,-1.7778 z"
       id="path4235" />
  </g>
</svg>
