<?xml version="1.0" encoding="UTF-8" standalone="no"?>
<!-- Created with Inkscape (http://www.inkscape.org/) -->

<svg
   xmlns:dc="http://purl.org/dc/elements/1.1/"
   xmlns:cc="http://creativecommons.org/ns#"
   xmlns:rdf="http://www.w3.org/1999/02/22-rdf-syntax-ns#"
   xmlns:svg="http://www.w3.org/2000/svg"
   xmlns="http://www.w3.org/2000/svg"
   xmlns:xlink="http://www.w3.org/1999/xlink"
   xmlns:sodipodi="http://sodipodi.sourceforge.net/DTD/sodipodi-0.dtd"
   xmlns:inkscape="http://www.inkscape.org/namespaces/inkscape"
   width="24"
   height="24"
   id="svg7669"
   version="1.1"
   inkscape:version="0.48.3.1 r9886"
   sodipodi:docname="xpad-panel_24px.svg">
  <defs
     id="defs7671">
    <linearGradient
       inkscape:collect="always"
       xlink:href="#linearGradient6443"
       id="linearGradient7634"
       gradientUnits="userSpaceOnUse"
       gradientTransform="matrix(1.0526316,0,0,1.0526316,53.631334,1104.0141)"
       x1="-38.396969"
       y1="-69.691612"
       x2="-38.396969"
       y2="-50.803493" />
    <linearGradient
       id="linearGradient6443">
      <stop
         style="stop-color:#000000;stop-opacity:1;"
         offset="0"
         id="stop6445" />
      <stop
         style="stop-color:#363636;stop-opacity:1;"
         offset="1"
         id="stop6447" />
    </linearGradient>
    <linearGradient
       inkscape:collect="always"
       xlink:href="#linearGradient6443-7"
       id="linearGradient7634-3"
       gradientUnits="userSpaceOnUse"
       gradientTransform="matrix(1.0526316,0,0,1.0526316,53.631334,1104.0141)"
       x1="-38.396969"
       y1="-69.691612"
       x2="-38.396969"
       y2="-50.803493" />
    <linearGradient
       id="linearGradient6443-7">
      <stop
         style="stop-color:#000000;stop-opacity:1;"
         offset="0"
         id="stop6445-3" />
      <stop
         style="stop-color:#363636;stop-opacity:1;"
         offset="1"
         id="stop6447-5" />
    </linearGradient>
    <linearGradient
       inkscape:collect="always"
       xlink:href="#linearGradient6443"
       id="linearGradient3775"
       gradientUnits="userSpaceOnUse"
       gradientTransform="matrix(0.94736842,0,0,0.94736842,49.468201,1097.6489)"
       x1="-38.396969"
       y1="-69.691612"
       x2="-38.396969"
       y2="-50.803493" />
  </defs>
  <sodipodi:namedview
     id="base"
     pagecolor="#ffffff"
     bordercolor="#666666"
     borderopacity="1.0"
     inkscape:pageopacity="0.0"
     inkscape:pageshadow="2"
     inkscape:zoom="22.4"
     inkscape:cx="6.06523"
     inkscape:cy="8.7814579"
     inkscape:document-units="px"
     inkscape:current-layer="layer1"
     showgrid="false"
     inkscape:window-width="1680"
     inkscape:window-height="1026"
     inkscape:window-x="0"
     inkscape:window-y="24"
     inkscape:window-maximized="1" />
  <metadata
     id="metadata7674">
    <rdf:RDF>
      <cc:Work
         rdf:about="">
        <dc:format>image/svg+xml</dc:format>
        <dc:type
           rdf:resource="http://purl.org/dc/dcmitype/StillImage" />
        <dc:title />
      </cc:Work>
    </rdf:RDF>
  </metadata>
  <g
     inkscape:label="Layer 1"
     inkscape:groupmode="layer"
     id="layer1"
     transform="translate(0,-1028.3622)">
    <path
       inkscape:connector-curvature="0"
       style="font-size:medium;font-style:normal;font-variant:normal;font-weight:normal;font-stretch:normal;text-indent:0;text-align:start;text-decoration:none;line-height:normal;letter-spacing:normal;word-spacing:normal;text-transform:none;direction:ltr;block-progression:tb;writing-mode:lr-tb;text-anchor:start;baseline-shift:baseline;opacity:0.6;color:#000000;fill:#ffffff;fill-opacity:1;fill-rule:nonzero;stroke:none;stroke-width:1;marker:none;visibility:visible;display:inline;overflow:visible;enable-background:accumulate;font-family:Sans;-inkscape-font-specification:Sans"
       d="M 5.0312496,1032.3622 C 3.9051399,1032.3622 3,1033.2674 3,1034.3935 l 0,13.9374 c 0,1.1262 0.9051399,2.0313 2.0312496,2.0313 l 10.5937504,0 5.375,-5.3126 0,-10.6561 c 0,-1.1261 -0.90515,-2.0313 -2.03125,-2.0313 l -13.9375004,0 z m 1.7812503,3.8439 10.0000001,0 0,1.9998 -10.0000001,0 0,-1.9998 z m 0,3.8436 10.0000001,0 0,2 -10.0000001,0 0,-2 z m 0,3.8439 7.0937501,0 0,2 -7.0937501,0 0,-2 z"
       id="path4235-3" />
    <path
       inkscape:connector-curvature="0"
       style="font-size:medium;font-style:normal;font-variant:normal;font-weight:normal;font-stretch:normal;text-indent:0;text-align:start;text-decoration:none;line-height:normal;letter-spacing:normal;word-spacing:normal;text-transform:none;direction:ltr;block-progression:tb;writing-mode:lr-tb;text-anchor:start;baseline-shift:baseline;opacity:0.7;color:#000000;fill:url(#linearGradient3775);fill-opacity:1;fill-rule:nonzero;stroke:none;stroke-width:1;marker:none;visibility:visible;display:inline;overflow:visible;enable-background:accumulate;font-family:Sans;-inkscape-font-specification:Sans"
       d="M 5.03125,1031.3622 C 3.9051399,1031.3622 3,1032.2674 3,1033.3935 l 0,13.9374 c 0,1.1262 0.9051399,2.0313 2.03125,2.0313 l 10.59375,0 5.375,-5.3126 0,-10.6561 c 0,-1.1261 -0.90515,-2.0313 -2.03125,-2.0313 l -13.9374999,0 z m 1.7812499,3.8439 10.0000001,0 0,1.9998 -10,0 0,-1.9998 z m 0,3.8436 10.0000001,0 0,2 -10,0 0,-2 z m 0,3.8439 7.0937501,0 0,2 -7.0937501,0 0,-2 z"
       id="path4235" />
  </g>
</svg>
