<?xml version="1.0" encoding="UTF-8" standalone="no"?>
<!-- Created with Inkscape (http://www.inkscape.org/) -->

<svg
   xmlns:dc="http://purl.org/dc/elements/1.1/"
   xmlns:cc="http://creativecommons.org/ns#"
   xmlns:rdf="http://www.w3.org/1999/02/22-rdf-syntax-ns#"
   xmlns:svg="http://www.w3.org/2000/svg"
   xmlns="http://www.w3.org/2000/svg"
   xmlns:xlink="http://www.w3.org/1999/xlink"
   xmlns:sodipodi="http://sodipodi.sourceforge.net/DTD/sodipodi-0.dtd"
   xmlns:inkscape="http://www.inkscape.org/namespaces/inkscape"
   id="svg3225"
   height="22"
   width="22"
   version="1.0"
   inkscape:version="0.48.3.1 r9886"
   sodipodi:docname="preferences-desktop-keyboard_22.svg">
  <metadata
     id="metadata10">
    <rdf:RDF>
      <cc:Work
         rdf:about="">
        <dc:format>image/svg+xml</dc:format>
        <dc:type
           rdf:resource="http://purl.org/dc/dcmitype/StillImage" />
        <dc:title></dc:title>
      </cc:Work>
    </rdf:RDF>
  </metadata>
  <defs
     id="defs8">
    <linearGradient
       id="linearGradient2989">
      <stop
         style="stop-color:#000000;stop-opacity:1;"
         offset="0"
         id="stop2991" />
      <stop
         style="stop-color:#363636;stop-opacity:1;"
         offset="1"
         id="stop2993" />
    </linearGradient>
    <linearGradient
       inkscape:collect="always"
       xlink:href="#linearGradient2989"
       id="linearGradient2995"
       x1="10.580508"
       y1="4.1016951"
       x2="10.673729"
       y2="17.805084"
       gradientUnits="userSpaceOnUse" />
    <linearGradient
       inkscape:collect="always"
       xlink:href="#linearGradient2989-1"
       id="linearGradient2995-8"
       x1="10.580508"
       y1="4.1016951"
       x2="10.673729"
       y2="17.805084"
       gradientUnits="userSpaceOnUse" />
    <linearGradient
       id="linearGradient2989-1">
      <stop
         style="stop-color:#000000;stop-opacity:1;"
         offset="0"
         id="stop2991-0" />
      <stop
         style="stop-color:#363636;stop-opacity:1;"
         offset="1"
         id="stop2993-1" />
    </linearGradient>
  </defs>
  <sodipodi:namedview
     pagecolor="#ffffff"
     bordercolor="#666666"
     borderopacity="1"
     objecttolerance="10"
     gridtolerance="10"
     guidetolerance="10"
     inkscape:pageopacity="0"
     inkscape:pageshadow="2"
     inkscape:window-width="1680"
     inkscape:window-height="1026"
     id="namedview6"
     showgrid="false"
     inkscape:zoom="21.454545"
     inkscape:cx="7.5794827"
     inkscape:cy="4.5539784"
     inkscape:window-x="0"
     inkscape:window-y="24"
     inkscape:window-maximized="1"
     inkscape:current-layer="svg3225" />
  <path
     inkscape:connector-curvature="0"
     d="m 10.100081,5.2498655 v 2.700027 H 3.9969402 c -1.1080911,0 -1.99694,0.802808 -1.99694,1.800018 v 7.2000715 c 0,0.99721 0.8888489,1.800018 1.99694,1.800018 H 18.00288 C 19.110791,18.75 20,17.947192 20,16.949984 V 9.7499105 c 0,-0.99721 -0.889209,-1.800018 -1.99712,-1.800018 h -7.00297 v -1.800018 h 0.900009 v 0.900009 h 3.600036 V 6.1498745 H 12.799928 V 5.2498655 H 10.099901 z M 3.9969401,8.8499015 H 18.00288 c 0.554406,0 0.98461,0.401404 0.98461,0.900009 v 7.2000715 c 0,0.498605 -0.430204,0.900009 -0.98461,0.900009 H 3.9969401 c -0.5542256,0 -0.9846099,-0.401404 -0.9846099,-0.900009 V 9.7499105 c 0,-0.498605 0.4303843,-0.900009 0.9844299,-0.900009 z m 1.1530915,0.900009 c -0.2493025,0 -0.4500045,0.200702 -0.4500045,0.4500035 v 0.90001 c 0,0.249303 0.200702,0.450005 0.4500045,0.450005 h 0.900009 c 0.2493025,0 0.4500045,-0.200702 0.4500045,-0.450005 v -0.90001 c 0,-0.2493015 -0.200702,-0.4500035 -0.4500045,-0.4500035 h -0.900009 z m 2.700027,0 c -0.2493025,0 -0.4500045,0.200702 -0.4500045,0.4500035 v 0.90001 c 0,0.249303 0.200702,0.450005 0.4500045,0.450005 h 0.900009 c 0.2493025,0 0.4500045,-0.200702 0.4500045,-0.450005 v -0.90001 c 0,-0.2493015 -0.200702,-0.4500035 -0.4500045,-0.4500035 h -0.900009 z m 2.7000274,0 c -0.249303,0 -0.450005,0.200702 -0.450005,0.4500035 v 0.90001 c 0,0.249303 0.200702,0.450005 0.450005,0.450005 h 0.900009 c 0.249302,0 0.450004,-0.200702 0.450004,-0.450005 v -0.90001 c 0,-0.2493015 -0.200702,-0.4500035 -0.450004,-0.4500035 h -0.900009 z m 2.700027,0 c -0.249303,0 -0.450005,0.200702 -0.450005,0.4500035 v 0.90001 c 0,0.249303 0.200702,0.450005 0.450005,0.450005 h 0.900009 c 0.249302,0 0.450004,-0.200702 0.450004,-0.450005 v -0.90001 c 0,-0.2493015 -0.200702,-0.4500035 -0.450004,-0.4500035 h -0.900009 z m 2.700027,0 c -0.249303,0 -0.450005,0.200702 -0.450005,0.4500035 v 0.90001 c 0,0.249303 0.200702,0.450005 0.450005,0.450005 h 0.900009 c 0.249302,0 0.450004,-0.200702 0.450004,-0.450005 v -0.90001 c 0,-0.2493015 -0.200702,-0.4500035 -0.450004,-0.4500035 H 15.95014 z M 5.1500316,12.449937 c -0.2493025,0 -0.4500045,0.200702 -0.4500045,0.450004 v 0.900009 c 0,0.249304 0.200702,0.450006 0.4500045,0.450006 h 0.900009 c 0.2493025,0 0.4500045,-0.200702 0.4500045,-0.450006 v -0.900009 c 0,-0.249302 -0.200702,-0.450004 -0.4500045,-0.450004 h -0.900009 z m 2.700027,0 c -0.2493025,0 -0.4500045,0.200702 -0.4500045,0.450004 v 0.900009 c 0,0.249304 0.200702,0.450006 0.4500045,0.450006 h 0.900009 c 0.2493025,0 0.4500045,-0.200702 0.4500045,-0.450006 v -0.900009 c 0,-0.249302 -0.200702,-0.450004 -0.4500045,-0.450004 h -0.900009 z m 2.7000274,0 c -0.249303,0 -0.450005,0.200702 -0.450005,0.450004 v 0.900009 c 0,0.249304 0.200702,0.450006 0.450005,0.450006 h 0.900009 c 0.249302,0 0.450004,-0.200702 0.450004,-0.450006 v -0.900009 c 0,-0.249302 -0.200702,-0.450004 -0.450004,-0.450004 h -0.900009 z m 2.700027,0 c -0.249303,0 -0.450005,0.200702 -0.450005,0.450004 v 0.900009 c 0,0.249304 0.200702,0.450006 0.450005,0.450006 h 0.900009 c 0.249302,0 0.450004,-0.200702 0.450004,-0.450006 v -0.900009 c 0,-0.249302 -0.200702,-0.450004 -0.450004,-0.450004 h -0.900009 z m 2.700027,0 c -0.249303,0 -0.450005,0.200702 -0.450005,0.450004 v 0.900009 c 0,0.249304 0.200702,0.450006 0.450005,0.450006 h 0.900009 c 0.249302,0 0.450004,-0.200702 0.450004,-0.450006 v -0.900009 c 0,-0.249302 -0.200702,-0.450004 -0.450004,-0.450004 H 15.95014 z m -9.0000904,2.700027 c -0.2493025,0 -0.4500045,0.200703 -0.4500045,0.450005 v 0.900009 c 0,0.249304 0.200702,0.450006 0.4500045,0.450006 h 8.1000814 c 0.249302,0 0.450004,-0.200702 0.450004,-0.450006 v -0.900009 c 0,-0.249302 -0.200702,-0.450005 -0.450004,-0.450005 H 6.9500496 z"
     style="opacity:0.59999999999999998;fill:#ffffff;fill-opacity:1;fill-rule:evenodd"
     id="rect2396-0" />
  <path
     inkscape:connector-curvature="0"
     d="m 10.100081,4.2499325 v 2.700027 H 3.99694 C 2.8888489,6.9499595 2,7.7527675 2,8.7499775 v 7.2000715 c 0,0.99721 0.8888489,1.800018 1.99694,1.800018 H 18.00288 C 19.110791,17.750067 20,16.947259 20,15.95005 V 8.7499775 c 0,-0.99721 -0.889209,-1.800018 -1.99712,-1.800018 h -7.00297 v -1.800018 h 0.900009 v 0.900009 h 3.600036 V 5.1499415 H 12.799928 V 4.2499325 H 10.099901 z M 3.99694,7.8499685 h 14.00594 c 0.554406,0 0.98461,0.401404 0.98461,0.900009 v 7.2000715 c 0,0.498605 -0.430204,0.900009 -0.98461,0.900009 H 3.99694 c -0.5542256,0 -0.9846099,-0.401404 -0.9846099,-0.900009 V 8.7499775 c 0,-0.498605 0.4303843,-0.900009 0.9844299,-0.900009 z m 1.1530915,0.900009 c -0.2493025,0 -0.4500045,0.200702 -0.4500045,0.4500045 v 0.900009 c 0,0.249303 0.200702,0.450005 0.4500045,0.450005 h 0.900009 c 0.2493025,0 0.4500045,-0.200702 0.4500045,-0.450005 V 9.199982 c 0,-0.2493025 -0.200702,-0.4500045 -0.4500045,-0.4500045 h -0.900009 z m 2.700027,0 c -0.2493025,0 -0.4500045,0.200702 -0.4500045,0.4500045 v 0.900009 c 0,0.249303 0.200702,0.450005 0.4500045,0.450005 h 0.900009 c 0.2493025,0 0.4500045,-0.200702 0.4500045,-0.450005 V 9.199982 c 0,-0.2493025 -0.200702,-0.4500045 -0.4500045,-0.4500045 h -0.900009 z m 2.7000275,0 c -0.249303,0 -0.450005,0.200702 -0.450005,0.4500045 v 0.900009 c 0,0.249303 0.200702,0.450005 0.450005,0.450005 h 0.900009 c 0.249302,0 0.450004,-0.200702 0.450004,-0.450005 V 9.199982 c 0,-0.2493025 -0.200702,-0.4500045 -0.450004,-0.4500045 h -0.900009 z m 2.700027,0 c -0.249303,0 -0.450005,0.200702 -0.450005,0.4500045 v 0.900009 c 0,0.249303 0.200702,0.450005 0.450005,0.450005 h 0.900009 c 0.249302,0 0.450004,-0.200702 0.450004,-0.450005 V 9.199982 c 0,-0.2493025 -0.200702,-0.4500045 -0.450004,-0.4500045 h -0.900009 z m 2.700027,0 c -0.249303,0 -0.450005,0.200702 -0.450005,0.4500045 v 0.900009 c 0,0.249303 0.200702,0.450005 0.450005,0.450005 h 0.900009 c 0.249302,0 0.450004,-0.200702 0.450004,-0.450005 V 9.199982 c 0,-0.2493025 -0.200702,-0.4500045 -0.450004,-0.4500045 H 15.95014 z M 5.1500315,11.450005 c -0.2493025,0 -0.4500045,0.200702 -0.4500045,0.450004 v 0.900009 c 0,0.249303 0.200702,0.450005 0.4500045,0.450005 h 0.900009 c 0.2493025,0 0.4500045,-0.200702 0.4500045,-0.450006 v -0.900009 c 0,-0.249302 -0.200702,-0.450004 -0.4500045,-0.450004 h -0.900009 z m 2.700027,0 c -0.2493025,0 -0.4500045,0.200702 -0.4500045,0.450004 v 0.900009 c 0,0.249303 0.200702,0.450005 0.4500045,0.450005 h 0.900009 c 0.2493025,0 0.4500045,-0.200702 0.4500045,-0.450006 v -0.900009 c 0,-0.249302 -0.200702,-0.450004 -0.4500045,-0.450004 h -0.900009 z m 2.7000275,0 c -0.249303,0 -0.450005,0.200702 -0.450005,0.450004 v 0.900009 c 0,0.249303 0.200702,0.450005 0.450005,0.450005 h 0.900009 c 0.249302,0 0.450004,-0.200702 0.450004,-0.450006 v -0.900009 c 0,-0.249302 -0.200702,-0.450004 -0.450004,-0.450004 h -0.900009 z m 2.700027,0 c -0.249303,0 -0.450005,0.200702 -0.450005,0.450004 v 0.900009 c 0,0.249303 0.200702,0.450005 0.450005,0.450005 h 0.900009 c 0.249302,0 0.450004,-0.200702 0.450004,-0.450006 v -0.900009 c 0,-0.249302 -0.200702,-0.450004 -0.450004,-0.450004 h -0.900009 z m 2.700027,0 c -0.249303,0 -0.450005,0.200702 -0.450005,0.450004 v 0.900009 c 0,0.249303 0.200702,0.450005 0.450005,0.450005 h 0.900009 c 0.249302,0 0.450004,-0.200702 0.450004,-0.450006 v -0.900009 c 0,-0.249302 -0.200702,-0.450004 -0.450004,-0.450004 H 15.95014 z m -9.0000905,2.700027 c -0.2493025,0 -0.4500045,0.200702 -0.4500045,0.450004 v 0.900009 c 0,0.249303 0.200702,0.450005 0.4500045,0.450005 h 8.1000815 c 0.249302,0 0.450004,-0.200702 0.450004,-0.450005 v -0.900009 c 0,-0.249302 -0.200702,-0.450004 -0.450004,-0.450004 H 6.9500495 z"
     style="fill:url(#linearGradient2995);fill-rule:evenodd;fill-opacity:1;opacity:0.7"
     id="rect2396" />
</svg>
