<?xml version="1.0" encoding="UTF-8" standalone="no"?>
<!-- Created with Inkscape (http://www.inkscape.org/) -->

<svg
   xmlns:dc="http://purl.org/dc/elements/1.1/"
   xmlns:cc="http://creativecommons.org/ns#"
   xmlns:rdf="http://www.w3.org/1999/02/22-rdf-syntax-ns#"
   xmlns:svg="http://www.w3.org/2000/svg"
   xmlns="http://www.w3.org/2000/svg"
   xmlns:xlink="http://www.w3.org/1999/xlink"
   xmlns:sodipodi="http://sodipodi.sourceforge.net/DTD/sodipodi-0.dtd"
   xmlns:inkscape="http://www.inkscape.org/namespaces/inkscape"
   width="22"
   height="22"
   id="svg4455"
   version="1.1"
   inkscape:version="0.48.3.1 r9886"
   sodipodi:docname="New document 40">
  <defs
     id="defs4457">
    <linearGradient
       inkscape:collect="always"
       xlink:href="#linearGradient4058"
       id="linearGradient4246"
       gradientUnits="userSpaceOnUse"
       gradientTransform="matrix(-0.02673824,0.10968474,-0.10968474,-0.02673824,47.921825,-7.224094)"
       x1="310.93448"
       y1="260.00607"
       x2="154.56343"
       y2="299.75323" />
    <linearGradient
       id="linearGradient4058">
      <stop
         id="stop4066"
         offset="0"
         style="stop-color:#49a3d2;stop-opacity:1;" />
      <stop
         style="stop-color:#3470b4;stop-opacity:1;"
         offset="0.69999999"
         id="stop4068" />
      <stop
         style="stop-color:#1b5699;stop-opacity:1;"
         offset="1"
         id="stop4062" />
    </linearGradient>
    <linearGradient
       y2="299.75323"
       x2="154.56343"
       y1="260.00607"
       x1="310.93448"
       gradientTransform="matrix(-0.02673824,0.10968474,-0.10968474,-0.02673824,47.921825,-7.224094)"
       gradientUnits="userSpaceOnUse"
       id="linearGradient4481"
       xlink:href="#linearGradient4058"
       inkscape:collect="always" />
  </defs>
  <sodipodi:namedview
     id="base"
     pagecolor="#ffffff"
     bordercolor="#666666"
     borderopacity="1.0"
     inkscape:pageopacity="0.0"
     inkscape:pageshadow="2"
     inkscape:zoom="3.959798"
     inkscape:cx="18.95777"
     inkscape:cy="14.810387"
     inkscape:document-units="px"
     inkscape:current-layer="layer1"
     showgrid="false"
     inkscape:window-width="607"
     inkscape:window-height="415"
     inkscape:window-x="1071"
     inkscape:window-y="134"
     inkscape:window-maximized="0" />
  <metadata
     id="metadata4460">
    <rdf:RDF>
      <cc:Work
         rdf:about="">
        <dc:format>image/svg+xml</dc:format>
        <dc:type
           rdf:resource="http://purl.org/dc/dcmitype/StillImage" />
        <dc:title></dc:title>
      </cc:Work>
    </rdf:RDF>
  </metadata>
  <g
     inkscape:label="Layer 1"
     inkscape:groupmode="layer"
     id="layer1"
     transform="translate(0,-1030.3622)">
    <g
       id="g4242"
       transform="translate(0,-0.5)">
      <path
         id="path2999-6-2-2"
         d="m 11,1033.3622 c -0.413316,4e-4 -1.930794,3.279 -2.3125,3.4375 -0.381706,0.1585 -3.770516,-1.0738 -4.0625,-0.7812 -0.291984,0.2925 0.97031,3.6492 0.8125,4.0312 -0.15781,0.382 -3.437888,1.8992 -3.4375,2.3125 3.89e-4,0.4133 3.278972,1.9308 3.4375,2.3125 0.158528,0.3817 -1.073783,3.7705 -0.78125,4.0625 0.292533,0.292 3.649247,-0.9703 4.03125,-0.8125 0.382003,0.1578 1.899184,3.4379 2.3125,3.4375 0.413316,-4e-4 1.930794,-3.279 2.3125,-3.4375 0.381706,-0.1585 3.770516,1.0738 4.0625,0.7813 0.291984,-0.2926 -0.97031,-3.6493 -0.8125,-4.0313 0.15781,-0.382 3.437888,-1.8992 3.4375,-2.3125 -3.88e-4,-0.4133 -3.278972,-1.9308 -3.4375,-2.3125 -0.158528,-0.3817 1.073783,-3.7705 0.78125,-4.0625 -0.292533,-0.292 -3.649247,0.9703 -4.03125,0.8125 -0.382003,-0.1578 -1.899184,-3.4379 -2.3125,-3.4375 z m 0,5 3.71875,4.2813 -2.125,0 0,3.7187 -3.1875,0 0,-3.7187 -2.125,0 L 11,1038.3622 z"
         style="opacity:0.6;fill:#ffffff;fill-opacity:1;stroke:none"
         inkscape:connector-curvature="0" />
      <path
         id="path2999-6-2"
         transform="translate(0,1030.3622)"
         d="M 11,2 C 10.586684,2.0003884 9.0692056,5.2789719 8.6875,5.4375 8.3057944,5.5960281 4.9169839,4.3637168 4.625,4.65625 4.3330161,4.9487833 5.5953104,8.3054971 5.4375,8.6875 5.2796897,9.0695029 1.9996116,10.586684 2,11 2.0003884,11.413316 5.2789719,12.930794 5.4375,13.3125 5.5960281,13.694206 4.3637168,17.083016 4.65625,17.375 4.9487833,17.666984 8.3054971,16.40469 8.6875,16.5625 9.0695029,16.72031 10.586684,20.000388 11,20 c 0.413316,-3.88e-4 1.930794,-3.278972 2.3125,-3.4375 0.381706,-0.158528 3.770516,1.073783 4.0625,0.78125 C 17.666984,17.051217 16.40469,13.694503 16.5625,13.3125 16.72031,12.930497 20.000388,11.413316 20,11 19.999612,10.586684 16.721028,9.0692056 16.5625,8.6875 16.403972,8.3057944 17.636283,4.9169839 17.34375,4.625 17.051217,4.3330161 13.694503,5.5953104 13.3125,5.4375 12.930497,5.2796897 11.413316,1.9996116 11,2 z m 0,5 3.71875,4.28125 -2.125,0 0,3.71875 -3.1875,0 0,-3.71875 -2.125,0 L 11,7 z"
         style="fill:url(#linearGradient4481);fill-opacity:1;stroke:none"
         inkscape:connector-curvature="0" />
    </g>
  </g>
</svg>
