<?xml version="1.0" encoding="UTF-8" standalone="no"?>
<!-- Created with Inkscape (http://www.inkscape.org/) -->

<svg
   xmlns:dc="http://purl.org/dc/elements/1.1/"
   xmlns:cc="http://creativecommons.org/ns#"
   xmlns:rdf="http://www.w3.org/1999/02/22-rdf-syntax-ns#"
   xmlns:svg="http://www.w3.org/2000/svg"
   xmlns="http://www.w3.org/2000/svg"
   xmlns:xlink="http://www.w3.org/1999/xlink"
   xmlns:sodipodi="http://sodipodi.sourceforge.net/DTD/sodipodi-0.dtd"
   xmlns:inkscape="http://www.inkscape.org/namespaces/inkscape"
   version="1.0"
   width="22"
   height="24"
   id="svg3167"
   sodipodi:version="0.32"
   inkscape:version="0.48.4 r9939"
   sodipodi:docname="gnome-netstatus-50-74.svg"
   inkscape:output_extension="org.inkscape.output.svg.inkscape">
  <metadata
     id="metadata20">
    <rdf:RDF>
      <cc:Work
         rdf:about="">
        <dc:format>image/svg+xml</dc:format>
        <dc:type
           rdf:resource="http://purl.org/dc/dcmitype/StillImage" />
        <dc:title />
      </cc:Work>
    </rdf:RDF>
  </metadata>
  <sodipodi:namedview
     inkscape:window-height="974"
     inkscape:window-width="1280"
     inkscape:pageshadow="2"
     inkscape:pageopacity="0.0"
     guidetolerance="10.0"
     gridtolerance="10.0"
     objecttolerance="10.0"
     borderopacity="1.0"
     bordercolor="#666666"
     pagecolor="#ffffff"
     id="base"
     showgrid="true"
     inkscape:zoom="20.75"
     inkscape:cx="26.078449"
     inkscape:cy="9.3830593"
     inkscape:window-x="0"
     inkscape:window-y="26"
     inkscape:current-layer="svg3167"
     inkscape:window-maximized="1">
    <inkscape:grid
       type="xygrid"
       id="grid2997" />
  </sodipodi:namedview>
  <defs
     id="defs3169">
    <linearGradient
       id="linearGradient3587-6-5-3">
      <stop
         id="stop3589-9-2-0"
         style="stop-color:#bebebe;stop-opacity:1;"
         offset="0" />
      <stop
         id="stop3591-7-4-7"
         style="stop-color:#ffffff;stop-opacity:1;"
         offset="1" />
    </linearGradient>
    <linearGradient
       inkscape:collect="always"
       xlink:href="#linearGradient3587-6-5-3"
       id="linearGradient3024"
       gradientUnits="userSpaceOnUse"
       gradientTransform="translate(-1.0001235,0)"
       x1="14"
       y1="3"
       x2="14"
       y2="21" />
  </defs>
  <path
     style="fill:#000000;fill-opacity:1;fill-rule:evenodd;stroke:none;overflow:visible"
     d="M 10.96875,6.125 C 7.4843474,6.125 4.9057149,7.0225417 3.1875,7.9375 1.4692851,8.8524583 0.5625,9.84375 0.5625,9.84375 l 1.28125,1.125 c 0,0 0.6531062,-0.730818 2.15625,-1.53125 C 5.5031438,8.6370682 7.7754833,7.84375 10.96875,7.84375 14.144635,7.84375 16.481408,8.6343344 18,9.4375 19.518592,10.240666 20.1875,11 20.1875,11 l 1.25,-1.15625 c 0,0 -0.925951,-0.9911144 -2.65625,-1.90625 C 17.050951,7.0223644 14.437705,6.125 10.96875,6.125 z m -0.875,4.15625 C 8.0469575,10.376809 6.4722178,10.929965 5.375,11.5 4.1210368,12.151469 3.4375,12.875 3.4375,12.875 l 1.25,1.15625 c 0,0 0.4328542,-0.493073 1.46875,-1.03125 1.0358958,-0.538177 2.6169436,-1.071608 4.8125,-1.03125 2.229143,0.04097 3.837127,0.594338 4.875,1.125 1.037873,0.530662 1.4375,1 1.4375,1 l 1.25,-1.1875 c 0,0 -0.695238,-0.677334 -1.9375,-1.3125 C 15.351488,10.958584 13.49844,10.327175 11,10.28125 c -0.311642,-0.0057 -0.613851,-0.01365 -0.90625,0 z m 0.8125,4 c -1.6764633,0.01768 -2.8595426,0.361903 -3.625,0.75 -0.7654574,0.388097 -1.1875,0.90625 -1.1875,0.90625 l 1.34375,1.03125 c 0,0 0.1010867,-0.140619 0.625,-0.40625 0.5239133,-0.265631 1.3997388,-0.578523 2.84375,-0.59375 1.414949,-0.01492 2.342888,0.284917 2.90625,0.5625 C 14.375862,16.808833 14.53125,17 14.53125,17 l 1.28125,-1.09375 c 0,0 -0.45342,-0.513754 -1.25,-0.90625 -0.79658,-0.392496 -1.989628,-0.736327 -3.65625,-0.71875 z m 0.0625,3.90625 c -1.4402325,-0.0058 -1.9868453,0.427456 -2.125,0.53125 0.077307,0.06262 2.125,2.28125 2.125,2.28125 0,0 2.09325,-2.19996 2.1875,-2.28125 -0.107939,-0.100609 -0.770343,-0.52555 -2.1875,-0.53125 z"
     id="path3794"
     inkscape:connector-curvature="0" />
  <path
     style="font-size:medium;font-style:normal;font-variant:normal;font-weight:normal;font-stretch:normal;text-indent:0;text-align:start;text-decoration:none;line-height:normal;letter-spacing:normal;word-spacing:normal;text-transform:none;direction:ltr;block-progression:tb;writing-mode:lr-tb;text-anchor:start;baseline-shift:baseline;opacity:1;color:#000000;fill:#808080;fill-opacity:1;stroke:none;stroke-width:1.70000005000000010;marker:none;visibility:visible;display:inline;overflow:visible;enable-background:accumulate;font-family:Sans;-inkscape-font-specification:Sans"
     d="M 10.96875,5.125 C 7.4843474,5.125 4.9057149,6.0225417 3.1875,6.9375 1.4692851,7.8524583 0.5625,8.84375 0.5625,8.84375 l 1.28125,1.125 c 0,0 0.6531062,-0.7308182 2.15625,-1.53125 C 5.5031438,7.6370682 7.7754833,6.84375 10.96875,6.84375 14.144635,6.84375 16.481408,7.6343344 18,8.4375 19.518592,9.2406656 20.1875,10 20.1875,10 l 1.25,-1.15625 c 0,0 -0.925951,-0.9911144 -2.65625,-1.90625 C 17.050951,6.0223644 14.437705,5.125 10.96875,5.125 z"
     id="path3209"
     inkscape:connector-curvature="0" />
  <path
     style="opacity:1;fill:url(#linearGradient3024);fill-opacity:1;fill-rule:evenodd;stroke:none;overflow:visible"
     d="M 10.09375,9.28125 C 8.0469575,9.3768087 6.4722178,9.9299645 5.375,10.5 4.1210368,11.151469 3.4375,11.875 3.4375,11.875 l 1.25,1.15625 c 0,0 0.4328542,-0.493073 1.46875,-1.03125 1.0358958,-0.538177 2.6169436,-1.071608 4.8125,-1.03125 2.229143,0.04097 3.837127,0.594338 4.875,1.125 1.037873,0.530662 1.4375,1 1.4375,1 l 1.25,-1.1875 c 0,0 -0.695238,-0.677334 -1.9375,-1.3125 C 15.351488,9.9585842 13.49844,9.327175 11,9.28125 c -0.311642,-0.00573 -0.613851,-0.013651 -0.90625,0 z m 0.8125,4 c -1.6764633,0.01768 -2.8595426,0.361903 -3.625,0.75 -0.7654574,0.388097 -1.1875,0.90625 -1.1875,0.90625 l 1.34375,1.03125 c 0,0 0.1010867,-0.140619 0.625,-0.40625 0.5239133,-0.265631 1.3997388,-0.578523 2.84375,-0.59375 1.414949,-0.01492 2.342888,0.284917 2.90625,0.5625 C 14.375862,15.808833 14.53125,16 14.53125,16 l 1.28125,-1.09375 c 0,0 -0.45342,-0.513754 -1.25,-0.90625 -0.79658,-0.392496 -1.989628,-0.736327 -3.65625,-0.71875 z m 0.0625,3.90625 c -1.4402325,-0.0058 -1.9868453,0.427456 -2.125,0.53125 0.077307,0.06262 2.125,2.28125 2.125,2.28125 0,0 2.09325,-2.19996 2.1875,-2.28125 -0.107939,-0.100609 -0.770343,-0.52555 -2.1875,-0.53125 z"
     id="path3375"
     inkscape:connector-curvature="0" />
</svg>
