<?xml version="1.0" encoding="UTF-8" standalone="no"?>
<!-- Created with Inkscape (http://www.inkscape.org/) -->

<svg
   xmlns:dc="http://purl.org/dc/elements/1.1/"
   xmlns:cc="http://creativecommons.org/ns#"
   xmlns:rdf="http://www.w3.org/1999/02/22-rdf-syntax-ns#"
   xmlns:svg="http://www.w3.org/2000/svg"
   xmlns="http://www.w3.org/2000/svg"
   xmlns:xlink="http://www.w3.org/1999/xlink"
   xmlns:sodipodi="http://sodipodi.sourceforge.net/DTD/sodipodi-0.dtd"
   xmlns:inkscape="http://www.inkscape.org/namespaces/inkscape"
   version="1.0"
   width="22"
   height="22"
   id="svg3167"
   sodipodi:version="0.32"
   inkscape:version="0.48.4 r9939"
   sodipodi:docname="network-transmit.svg"
   inkscape:output_extension="org.inkscape.output.svg.inkscape">
  <metadata
     id="metadata18">
    <rdf:RDF>
      <cc:Work
         rdf:about="">
        <dc:format>image/svg+xml</dc:format>
        <dc:type
           rdf:resource="http://purl.org/dc/dcmitype/StillImage" />
      </cc:Work>
    </rdf:RDF>
  </metadata>
  <sodipodi:namedview
     inkscape:window-height="972"
     inkscape:window-width="1280"
     inkscape:pageshadow="2"
     inkscape:pageopacity="0.0"
     guidetolerance="10.0"
     gridtolerance="10.0"
     objecttolerance="10.0"
     borderopacity="1.0"
     bordercolor="#666666"
     pagecolor="#ffffff"
     id="base"
     showgrid="true"
     inkscape:zoom="24"
     inkscape:cx="21.349398"
     inkscape:cy="14.409639"
     inkscape:window-x="0"
     inkscape:window-y="26"
     inkscape:current-layer="svg3167"
     inkscape:snap-bbox="true"
     inkscape:window-maximized="1">
    <inkscape:grid
       type="xygrid"
       id="grid3003"
       empspacing="5"
       visible="true"
       enabled="true"
       snapvisiblegridlinesonly="true" />
  </sodipodi:namedview>
  <defs
     id="defs3169">
    <linearGradient
       id="linearGradient3587-6-5-3">
      <stop
         id="stop3589-9-2-0"
         style="stop-color:#bebebe;stop-opacity:1;"
         offset="0" />
      <stop
         id="stop3591-7-4-7"
         style="stop-color:#ffffff;stop-opacity:1;"
         offset="1" />
    </linearGradient>
    <linearGradient
       inkscape:collect="always"
       xlink:href="#linearGradient3587-6-5-3"
       id="linearGradient2398"
       gradientUnits="userSpaceOnUse"
       x1="14"
       y1="3"
       x2="14"
       y2="21"
       gradientTransform="translate(-0.9912779,-2)" />
  </defs>
  <path
     id="path3005"
     d="M 10.96825,4.125 C 7.4838477,4.125 4.9052149,5.0225 3.187,5.9375 1.4687851,6.8525 0.562,7.8438 0.562,7.8438 l 1.28125,1.125 c 0,0 0.6531063,-0.7309 2.15625,-1.5313 1.5031437,-0.8004 3.7754835,-1.5937 6.96875,-1.5937 3.175885,0 5.512658,0.7905 7.03125,1.5937 C 19.518092,8.2407 20.187,9 20.187,9 l 1.25,-1.1562 c 0,0 -0.92595,-0.9912 -2.65625,-1.9063 C 17.05045,5.0224 14.437206,4.125 10.96825,4.125 z m -0.875,4.1563 C 8.0464576,8.3763 6.4717178,8.93 5.3745,9.5 4.1205368,10.1515 3.437,10.875 3.437,10.875 l 1.25,1.1563 c 0,0 0.4328543,-0.4931 1.46875,-1.0313 1.0358957,-0.5382 2.6169439,-1.0716 4.8125,-1.0312 2.229143,0.041 3.837127,0.5943 4.875,1.125 1.037873,0.5306 1.4375,1 1.4375,1 l 1.25,-1.1875 c 0,0 -0.695238,-0.6774 -1.9375,-1.3125 -1.242262,-0.6352 -3.095309,-1.2666 -5.59375,-1.3125 -0.311642,-0.01 -0.613851,-0.014 -0.90625,0 z m 0.8125,4 c -1.676463,0.018 -2.8595427,0.3619 -3.625,0.75 -0.7654573,0.388 -1.1875,0.9062 -1.1875,0.9062 L 7.437,14.9688 c 0,0 0.1010867,-0.1407 0.625,-0.4063 0.5239133,-0.2656 1.399739,-0.5785 2.84375,-0.5937 1.414949,-0.015 2.342888,0.2849 2.90625,0.5625 C 14.375362,14.8088 14.53075,15 14.53075,15 L 15.812,13.9063 c 0,0 -0.45342,-0.5138 -1.25,-0.9063 -0.79658,-0.3925 -1.989628,-0.7363 -3.65625,-0.7187 z m 0.09375,3.9062 c -1.440233,-0.01 -2.0180953,0.4275 -2.15625,0.5313 0.077307,0.063 2.125,2.2812 2.125,2.2812 0,0 2.09325,-2.2 2.1875,-2.2812 -0.107939,-0.1007 -0.739093,-0.5256 -2.15625,-0.5313 z"
     style="fill:#000000;fill-opacity:1;fill-rule:evenodd;stroke:none;overflow:visible"
     inkscape:connector-curvature="0" />
  <path
     style="fill:url(#linearGradient2398);fill-opacity:1;fill-rule:evenodd;stroke:none;overflow:visible"
     d="M 10.96825,3.125 C 7.4838477,3.125 4.9052149,4.0225 3.187,4.9375 1.4687851,5.8525 0.562,6.8438 0.562,6.8438 l 1.28125,1.125 c 0,0 0.6531063,-0.7309 2.15625,-1.5313 1.5031437,-0.8004 3.7754835,-1.5937 6.96875,-1.5937 3.175885,0 5.512658,0.7905 7.03125,1.5937 C 19.518092,7.2407 20.187,8 20.187,8 l 1.25,-1.1562 c 0,0 -0.92595,-0.9912 -2.65625,-1.9063 C 17.05045,4.0224 14.437206,3.125 10.96825,3.125 z m -0.875,4.1563 C 8.0464576,7.3763 6.4717178,7.93 5.3745,8.5 4.1205368,9.1515 3.437,9.875 3.437,9.875 l 1.25,1.1563 c 0,0 0.4328543,-0.4931 1.46875,-1.0313 1.0358957,-0.5382 2.6169439,-1.0716 4.8125,-1.0312 2.229143,0.041 3.837127,0.5943 4.875,1.125 1.037873,0.5306 1.4375,1 1.4375,1 l 1.25,-1.1875 c 0,0 -0.695238,-0.6774 -1.9375,-1.3125 -1.242262,-0.6352 -3.095309,-1.2666 -5.59375,-1.3125 -0.311642,-0.01 -0.613851,-0.014 -0.90625,0 z m 0.8125,4 c -1.676463,0.018 -2.8595427,0.3619 -3.625,0.75 -0.7654573,0.388 -1.1875,0.9062 -1.1875,0.9062 L 7.437,13.9688 c 0,0 0.1010867,-0.1407 0.625,-0.4063 0.5239133,-0.2656 1.399739,-0.5785 2.84375,-0.5937 1.414949,-0.015 2.342888,0.2849 2.90625,0.5625 C 14.375362,13.8088 14.53075,14 14.53075,14 L 15.812,12.9063 c 0,0 -0.45342,-0.5138 -1.25,-0.9063 -0.79658,-0.3925 -1.989628,-0.7363 -3.65625,-0.7187 z m 0.09375,3.9062 c -1.440233,-0.01 -2.0180953,0.4275 -2.15625,0.5313 0.077307,0.063 2.125,2.2812 2.125,2.2812 0,0 2.09325,-2.2 2.1875,-2.2812 -0.107939,-0.1007 -0.739093,-0.5256 -2.15625,-0.5313 z"
     id="path3375"
     inkscape:connector-curvature="0" />
</svg>
