<?xml version="1.0" encoding="UTF-8" standalone="no"?>
<!-- Created with Inkscape (http://www.inkscape.org/) -->

<svg
   xmlns:dc="http://purl.org/dc/elements/1.1/"
   xmlns:cc="http://creativecommons.org/ns#"
   xmlns:rdf="http://www.w3.org/1999/02/22-rdf-syntax-ns#"
   xmlns:svg="http://www.w3.org/2000/svg"
   xmlns="http://www.w3.org/2000/svg"
   xmlns:xlink="http://www.w3.org/1999/xlink"
   xmlns:sodipodi="http://sodipodi.sourceforge.net/DTD/sodipodi-0.dtd"
   xmlns:inkscape="http://www.inkscape.org/namespaces/inkscape"
   version="1.0"
   width="24"
   height="24"
   id="svg4073"
   inkscape:version="0.48.4 r9939"
   sodipodi:docname="nm-device-wired-secure.svg">
  <metadata
     id="metadata18">
    <rdf:RDF>
      <cc:Work
         rdf:about="">
        <dc:format>image/svg+xml</dc:format>
        <dc:type
           rdf:resource="http://purl.org/dc/dcmitype/StillImage" />
        <dc:title />
      </cc:Work>
    </rdf:RDF>
  </metadata>
  <sodipodi:namedview
     pagecolor="#ffffff"
     bordercolor="#666666"
     borderopacity="1"
     objecttolerance="10"
     gridtolerance="10"
     guidetolerance="10"
     inkscape:pageopacity="0"
     inkscape:pageshadow="2"
     inkscape:window-width="1280"
     inkscape:window-height="974"
     id="namedview16"
     showgrid="true"
     inkscape:zoom="22.627416"
     inkscape:cx="15.375525"
     inkscape:cy="7.499571"
     inkscape:window-x="0"
     inkscape:window-y="26"
     inkscape:window-maximized="1"
     inkscape:current-layer="svg4073"
     showguides="true"
     inkscape:guide-bbox="true"
     inkscape:snap-bbox="true">
    <inkscape:grid
       type="xygrid"
       id="grid3028" />
  </sodipodi:namedview>
  <defs
     id="defs4075">
    <linearGradient
       id="linearGradient3587-6-5-1-5">
      <stop
         offset="0"
         style="stop-color:#bebebe;stop-opacity:1;"
         id="stop3589-9-2-9-4" />
      <stop
         offset="1"
         style="stop-color:#ffffff;stop-opacity:1;"
         id="stop3591-7-4-9-0" />
    </linearGradient>
    <linearGradient
       inkscape:collect="always"
       xlink:href="#linearGradient3587-6-5-1-5"
       id="linearGradient3820"
       gradientUnits="userSpaceOnUse"
       x1="9.1701241"
       y1="3"
       x2="9.311203"
       y2="15"
       gradientTransform="matrix(1.1,0,0,1.1052632,-0.2,-0.31578947)" />
    <linearGradient
       inkscape:collect="always"
       xlink:href="#linearGradient3587-6-5-1-5-3"
       id="linearGradient3820-7"
       gradientUnits="userSpaceOnUse"
       x1="14.727273"
       y1="9.333333"
       x2="14.727273"
       y2="20.190475"
       gradientTransform="matrix(1.1,0,0,1.1052632,-0.2,-0.31578947)" />
    <linearGradient
       id="linearGradient3587-6-5-1-5-3">
      <stop
         offset="0"
         style="stop-color:#bebebe;stop-opacity:1;"
         id="stop3589-9-2-9-4-4" />
      <stop
         offset="1"
         style="stop-color:#ffffff;stop-opacity:1;"
         id="stop3591-7-4-9-0-2" />
    </linearGradient>
    <linearGradient
       inkscape:collect="always"
       xlink:href="#linearGradient3587-6-5-1-5-4"
       id="linearGradient3820-8"
       gradientUnits="userSpaceOnUse"
       x1="18.363636"
       y1="12.95238"
       x2="18.363636"
       y2="21.095238"
       gradientTransform="matrix(1.1,0,0,1.1052632,-0.2,-0.31578947)" />
    <linearGradient
       id="linearGradient3587-6-5-1-5-4">
      <stop
         offset="0"
         style="stop-color:#bebebe;stop-opacity:1;"
         id="stop3589-9-2-9-4-1" />
      <stop
         offset="1"
         style="stop-color:#ffffff;stop-opacity:1;"
         id="stop3591-7-4-9-0-6" />
    </linearGradient>
  </defs>
  <path
     inkscape:connector-curvature="0"
     style="opacity:1;fill:#000000;fill-opacity:1;fill-rule:nonzero;stroke:none;stroke-width:1;marker:none;visibility:visible;display:inline;overflow:visible;enable-background:accumulate"
     d="m 14.1,9.6315793 0,7.7368427 -3.3,0 5.5,5.526316 1.1,-1.105263 0,-2.210527 c 0,-0.612316 0.4906,-1.105263 1.1,-1.105263 l 0,-1.070724 c 0,-0.01184 -1.78e-4,-0.02274 0,-0.03454 l 0,-7.7368427 -4.4,0 z m 5.5,7.7368427 0,1.105263 1.1,0 1.1,-1.105263 -2.2,0 z"
     id="path4348-1" />
  <path
     d="M 13,9.6315793 7.5,4.1052633 2,9.6315793 l 3.3,0 0,7.7368427 4.4,0 0,-7.7368427 3.3,0 z"
     id="path4348-1-3"
     style="opacity:1;fill:#000000;fill-opacity:1;fill-rule:nonzero;stroke:none;stroke-width:1;marker:none;visibility:visible;display:inline;overflow:visible;enable-background:accumulate"
     inkscape:connector-curvature="0" />
  <path
     inkscape:connector-curvature="0"
     style="opacity:1;fill:#000000;fill-opacity:1;fill-rule:nonzero;stroke:none;stroke-width:1;marker:none;visibility:visible;display:inline;overflow:visible;enable-background:accumulate"
     id="rect2822-4"
     d="m 20.7,15.157895 c -1.2188,0 -2.2,1.006633 -2.2,2.245066 l 0,1.070724 c -0.6094,0 -1.1,0.492947 -1.1,1.105263 l 0,3.31579 c 0,0.612316 0.4906,1.105263 1.1,1.105263 l 4.4,0 c 0.6094,0 1.1,-0.492947 1.1,-1.105263 l 0,-3.31579 c 0,-0.612316 -0.4906,-1.105263 -1.1,-1.105263 l 0,-1.070724 c 0,-1.238432 -0.9812,-2.245066 -2.2,-2.245066 z m 0,1.105264 c 0.6094,0 1.1,0.488927 1.1,1.105263 l 0,1.105263 -2.2,0 0,-1.105263 c 0,-0.616336 0.4906,-1.105263 1.1,-1.105263 z" />
  <path
     inkscape:connector-curvature="0"
     style="opacity:1;fill:url(#linearGradient3820-7);fill-opacity:1;fill-rule:nonzero;stroke:none;stroke-width:1;marker:none;visibility:visible;display:inline;overflow:visible;enable-background:accumulate;color:#000000"
     d="m 14.1,8.5263161 0,7.7368429 -3.3,0 5.5,5.526316 1.1,-1.105264 0,-2.210526 c 0,-0.612316 0.4906,-1.105263 1.1,-1.105263 l 0,-1.070724 c 0,-0.01184 -1.78e-4,-0.02275 0,-0.03454 l 0,-7.7368429 -4.4,0 z m 5.5,7.7368429 0,1.105263 1.1,0 1.1,-1.105263 -2.2,0 z"
     id="path4348-1-1" />
  <path
     d="M 13,8.5263161 7.5,3.0000001 2,8.5263161 l 3.3,0 0,7.7368429 4.4,0 0,-7.7368429 3.3,0 z"
     id="path4348-1-3-3"
     style="opacity:1;fill:url(#linearGradient3820);fill-opacity:1;fill-rule:nonzero;stroke:none;stroke-width:1;marker:none;visibility:visible;display:inline;overflow:visible;enable-background:accumulate"
     inkscape:connector-curvature="0" />
  <path
     inkscape:connector-curvature="0"
     style="opacity:1;fill:url(#linearGradient3820-8);fill-opacity:1;fill-rule:nonzero;stroke:none;stroke-width:1;marker:none;visibility:visible;display:inline;overflow:visible;enable-background:accumulate;color:#000000"
     id="rect2822-4-4"
     d="m 20.7,14.052632 c -1.2188,0 -2.2,1.006633 -2.2,2.245066 l 0,1.070724 c -0.6094,0 -1.1,0.492947 -1.1,1.105263 l 0,3.31579 c 0,0.612315 0.4906,1.105263 1.1,1.105263 l 4.4,0 c 0.6094,0 1.1,-0.492948 1.1,-1.105263 l 0,-3.31579 c 0,-0.612316 -0.4906,-1.105263 -1.1,-1.105263 l 0,-1.070724 c 0,-1.238432 -0.9812,-2.245066 -2.2,-2.245066 z m 0,1.105263 c 0.6094,0 1.1,0.488928 1.1,1.105264 l 0,1.105263 -2.2,0 0,-1.105263 c 0,-0.616336 0.4906,-1.105264 1.1,-1.105264 z" />
</svg>
