<?xml version="1.0" encoding="UTF-8" standalone="no"?>
<!-- Created with Inkscape (http://www.inkscape.org/) -->

<svg
   xmlns:dc="http://purl.org/dc/elements/1.1/"
   xmlns:cc="http://creativecommons.org/ns#"
   xmlns:rdf="http://www.w3.org/1999/02/22-rdf-syntax-ns#"
   xmlns:svg="http://www.w3.org/2000/svg"
   xmlns="http://www.w3.org/2000/svg"
   xmlns:xlink="http://www.w3.org/1999/xlink"
   xmlns:sodipodi="http://sodipodi.sourceforge.net/DTD/sodipodi-0.dtd"
   xmlns:inkscape="http://www.inkscape.org/namespaces/inkscape"
   version="1.0"
   width="22"
   height="22"
   id="svg3262"
   inkscape:version="0.48.4 r9939"
   sodipodi:docname="pidgin-tray-away.svg">
  <metadata
     id="metadata15">
    <rdf:RDF>
      <cc:Work
         rdf:about="">
        <dc:format>image/svg+xml</dc:format>
        <dc:type
           rdf:resource="http://purl.org/dc/dcmitype/StillImage" />
      </cc:Work>
    </rdf:RDF>
  </metadata>
  <sodipodi:namedview
     pagecolor="#ffffff"
     bordercolor="#666666"
     borderopacity="1"
     objecttolerance="10"
     gridtolerance="10"
     guidetolerance="10"
     inkscape:pageopacity="0"
     inkscape:pageshadow="2"
     inkscape:window-width="1280"
     inkscape:window-height="972"
     id="namedview13"
     showgrid="true"
     inkscape:zoom="27.812867"
     inkscape:cx="12"
     inkscape:cy="12"
     inkscape:window-x="0"
     inkscape:window-y="26"
     inkscape:window-maximized="1"
     inkscape:current-layer="svg3262">
    <inkscape:grid
       type="xygrid"
       id="grid2992"
       empspacing="5"
       visible="true"
       enabled="true"
       snapvisiblegridlinesonly="true" />
  </sodipodi:namedview>
  <defs
     id="defs3264">
    <linearGradient
       id="linearGradient3587-6-5-3">
      <stop
         id="stop3589-9-2-2"
         style="stop-color:#bebebe;stop-opacity:1;"
         offset="0" />
      <stop
         id="stop3591-7-4-73"
         style="stop-color:#ffffff;stop-opacity:1;"
         offset="1" />
    </linearGradient>
    <linearGradient
       x1="159.68553"
       y1="14.403693"
       x2="159.68553"
       y2="38.279892"
       id="linearGradient2393"
       xlink:href="#linearGradient3587-6-5-3"
       gradientUnits="userSpaceOnUse"
       gradientTransform="matrix(-0.4100229,0,0,0.5447147,77.029995,-4.8459034)" />
  </defs>
  <path
     style="fill:#000000;fill-opacity:1;fill-rule:nonzero;stroke:none;stroke-width:1;marker:none;visibility:visible;display:inline;overflow:visible;enable-background:accumulate"
     d="M 9.5,4 C 4.808,3.9999999 1,6.9120001 1,10.5 c -1e-6,3.588 3.808,6.5 8.5,6.5 2.408496,0 4.577862,-0.76783 6.125,-2 L 21,14.90625 17.71875,12.09375 C 17.887375,11.583288 18,11.050338 18,10.5 18,6.9120003 14.192,4 9.5,4 z"
     id="path3776"
     inkscape:connector-curvature="0" />
  <path
     style="fill:url(#linearGradient2393);fill-opacity:1;fill-rule:nonzero;stroke:none;stroke-width:1;marker:none;visibility:visible;display:inline;overflow:visible;enable-background:accumulate"
     d="M 9.5,3 C 4.808,2.9999999 1,5.9120001 1,9.5 c -1e-6,3.588 3.808,6.5 8.5,6.5 2.408496,0 4.577862,-0.76783 6.125,-2 L 21,13.90625 17.71875,11.09375 C 17.887375,10.583288 18,10.050338 18,9.5 18,5.9120003 14.192,3 9.5,3 z m 0,2 C 11.984,5 14,7.0160005 14,9.5 14,11.984 11.984,14 9.5,14 7.016,14 5,11.984 5,9.5 5,7.0160001 7.016,5.0000001 9.5,5 z M 9.34375,6.5 A 0.50005,0.50005 0 0 0 9,7 L 9,9.5 A 0.50005,0.50005 0 0 0 9.5,10 l 1.75,0 a 0.50005,0.50005 0 1 0 0,-1 L 10,9 10,7 a 0.50005,0.50005 0 0 0 -0.59375,-0.5 0.50005,0.50005 0 0 0 -0.0625,0 z"
     id="path2396"
     inkscape:connector-curvature="0" />
</svg>
