<?xml version="1.0" encoding="UTF-8" standalone="no"?>
<!-- Created with Inkscape (http://www.inkscape.org/) -->

<svg
   xmlns:dc="http://purl.org/dc/elements/1.1/"
   xmlns:cc="http://creativecommons.org/ns#"
   xmlns:rdf="http://www.w3.org/1999/02/22-rdf-syntax-ns#"
   xmlns:svg="http://www.w3.org/2000/svg"
   xmlns="http://www.w3.org/2000/svg"
   xmlns:xlink="http://www.w3.org/1999/xlink"
   xmlns:sodipodi="http://sodipodi.sourceforge.net/DTD/sodipodi-0.dtd"
   xmlns:inkscape="http://www.inkscape.org/namespaces/inkscape"
   version="1.0"
   width="22"
   height="22"
   id="svg3197"
   inkscape:version="0.48.4 r9939"
   sodipodi:docname="sylpheed-panel.svg">
  <metadata
     id="metadata12">
    <rdf:RDF>
      <cc:Work
         rdf:about="">
        <dc:format>image/svg+xml</dc:format>
        <dc:type
           rdf:resource="http://purl.org/dc/dcmitype/StillImage" />
        <dc:title />
      </cc:Work>
    </rdf:RDF>
  </metadata>
  <sodipodi:namedview
     pagecolor="#ffffff"
     bordercolor="#666666"
     borderopacity="1"
     objecttolerance="10"
     gridtolerance="10"
     guidetolerance="10"
     inkscape:pageopacity="0"
     inkscape:pageshadow="2"
     inkscape:window-width="1280"
     inkscape:window-height="972"
     id="namedview10"
     showgrid="true"
     inkscape:zoom="18.706189"
     inkscape:cx="14.41693"
     inkscape:cy="13.428491"
     inkscape:window-x="0"
     inkscape:window-y="26"
     inkscape:window-maximized="1"
     inkscape:current-layer="svg3197">
    <inkscape:grid
       type="xygrid"
       id="grid2987"
       empspacing="5"
       visible="true"
       enabled="true"
       snapvisiblegridlinesonly="true" />
  </sodipodi:namedview>
  <defs
     id="defs3199">
    <linearGradient
       gradientTransform="matrix(0.4342346,0,0,0.5947449,-35.164623,-2.6039091)"
       gradientUnits="userSpaceOnUse"
       xlink:href="#linearGradient3587-6-5-3-1"
       id="linearGradient2388-2"
       y2="32.96188"
       x2="104.00973"
       y1="11.103767"
       x1="104.00973" />
    <linearGradient
       id="linearGradient3587-6-5-3-1">
      <stop
         offset="0"
         style="stop-color:#000000;stop-opacity:1"
         id="stop3589-9-2-2-3" />
      <stop
         offset="1"
         style="stop-color:#363636;stop-opacity:1"
         id="stop3591-7-4-73-8" />
    </linearGradient>
  </defs>
  <g
     id="g3004">
    <path
       d="M 3.9999999,5.0000002 2,7.0000002 2,17 l 2,2 14,0 2,-2 0,-9.9999998 -2,-2 z m 0,2 L 11,14 18,7.0000002 18,9 l -3,3 3,3 0,2 -4,-4 -3,3 -3.0000003,-3 -3.9999998,4 0,-2 2.9999998,-3 -2.9999998,-3 z"
       id="path3000"
       style="opacity:0.6;color:#000000;fill:#ffffff;fill-opacity:1;fill-rule:nonzero;stroke:none;stroke-width:1;marker:none;visibility:visible;display:inline;overflow:visible;enable-background:accumulate"
       inkscape:connector-curvature="0"
       sodipodi:nodetypes="cccccccccccccccccccccccc" />
    <path
       sodipodi:nodetypes="cccccccccccccccccccccccc"
       inkscape:connector-curvature="0"
       style="opacity:0.7;fill:url(#linearGradient2388-2);fill-opacity:1;fill-rule:nonzero;stroke:none;stroke-width:1;marker:none;visibility:visible;display:inline;overflow:visible;enable-background:accumulate"
       id="rect3170-8"
       d="m 4,4 -2,2 0,10 2,2 14,0 2,-2 0,-10 -2,-2 z m 0,2 7,7 7,-7 0,2 -3,3 3,3 0,2 -4,-4 -3,3 L 8,12 4,16 4,14 7,11 4,8 z" />
  </g>
</svg>
