<?xml version="1.0" encoding="UTF-8" standalone="no"?>
<!-- Created with Inkscape (http://www.inkscape.org/) -->

<svg
   xmlns:dc="http://purl.org/dc/elements/1.1/"
   xmlns:cc="http://creativecommons.org/ns#"
   xmlns:rdf="http://www.w3.org/1999/02/22-rdf-syntax-ns#"
   xmlns:svg="http://www.w3.org/2000/svg"
   xmlns="http://www.w3.org/2000/svg"
   xmlns:sodipodi="http://sodipodi.sourceforge.net/DTD/sodipodi-0.dtd"
   xmlns:inkscape="http://www.inkscape.org/namespaces/inkscape"
   version="1.0"
   width="22"
   height="22"
   id="svg3215"
   inkscape:version="0.48.4 r9939"
   sodipodi:docname="ubuntuone-client-offline.svg">
  <metadata
     id="metadata8">
    <rdf:RDF>
      <cc:Work
         rdf:about="">
        <dc:format>image/svg+xml</dc:format>
        <dc:type
           rdf:resource="http://purl.org/dc/dcmitype/StillImage" />
        <dc:title />
      </cc:Work>
    </rdf:RDF>
  </metadata>
  <sodipodi:namedview
     pagecolor="#ffffff"
     bordercolor="#666666"
     borderopacity="1"
     objecttolerance="10"
     gridtolerance="10"
     guidetolerance="10"
     inkscape:pageopacity="0"
     inkscape:pageshadow="2"
     inkscape:window-width="1280"
     inkscape:window-height="972"
     id="namedview6"
     showgrid="true"
     inkscape:zoom="22.627417"
     inkscape:cx="19.735371"
     inkscape:cy="10.504107"
     inkscape:window-x="0"
     inkscape:window-y="26"
     inkscape:window-maximized="1"
     inkscape:current-layer="svg3215"
     inkscape:snap-global="true"
     inkscape:snap-bbox="true">
    <inkscape:grid
       type="xygrid"
       id="grid2983"
       empspacing="5"
       visible="true"
       enabled="true"
       snapvisiblegridlinesonly="true" />
  </sodipodi:namedview>
  <defs
     id="defs3217" />
  <path
     inkscape:connector-curvature="0"
     d="m 12.5,5.000001 c -1.689456,1e-7 -3.136804,1.0625201 -3.90625,2.59375 C 8.16048,7.2333454 7.6072,7.0000011 7,7.000001 c -1.3799999,1e-7 -2.4999999,1.12 -2.5,2.5 0,0.309927 0.05301,0.601043 0.15625,0.875 C 3.0867423,11.07628 2,12.664032 2,14.5 2,16.993 4.007,19 6.5,19 l 9,0 c 2.493,0 4.5,-2.007 4.5,-4.5 0,-1.974673 -1.26873,-3.641032 -3.03125,-4.249999 0.0039,-0.08543 0.03125,-0.163499 0.03125,-0.25 0,-2.7600004 -2.016,-5 -4.5,-5 z"
     id="rect3193-5"
     style="fill:#000000;fill-opacity:1;fill-rule:evenodd;stroke:none;stroke-width:1.69999993;marker:none;visibility:visible;display:inline;overflow:visible;enable-background:accumulate" />
  <path
     d="m 12.5,4.0000006 c -1.689456,1e-7 -3.136804,1.0625201 -3.90625,2.59375 C 8.16048,6.233345 7.6072,6.0000007 7,6.0000006 5.6200001,6.0000007 4.5000001,7.1200008 4.5,8.5 4.5,8.809927 4.55301,9.101043 4.65625,9.375 3.0867423,10.07628 2,11.664032 2,13.5 2,15.993 4.007,18 6.5,18 l 9,0 C 17.993,18 20,15.993 20,13.5 20,11.525327 18.73127,9.858967 16.96875,9.25 16.97265,9.16457 17,9.086501 17,9 17,6.2400002 14.984,4.0000006 12.5,4.0000006 z"
     id="rect3193"
     style="fill:#808080;fill-opacity:1;fill-rule:evenodd;stroke:none;stroke-width:1.69999993;marker:none;visibility:visible;display:inline;overflow:visible;enable-background:accumulate"
     inkscape:connector-curvature="0" />
</svg>
