<?xml version="1.0" encoding="UTF-8" standalone="no"?>
<!-- Created with Inkscape (http://www.inkscape.org/) -->

<svg
   xmlns:dc="http://purl.org/dc/elements/1.1/"
   xmlns:cc="http://creativecommons.org/ns#"
   xmlns:rdf="http://www.w3.org/1999/02/22-rdf-syntax-ns#"
   xmlns:svg="http://www.w3.org/2000/svg"
   xmlns="http://www.w3.org/2000/svg"
   xmlns:xlink="http://www.w3.org/1999/xlink"
   xmlns:sodipodi="http://sodipodi.sourceforge.net/DTD/sodipodi-0.dtd"
   xmlns:inkscape="http://www.inkscape.org/namespaces/inkscape"
   id="svg3215"
   height="22"
   width="22"
   version="1.0"
   inkscape:version="0.48.4 r9939"
   sodipodi:docname="ubuntuone-client-paused.svg">
  <defs
     id="defs8">
    <linearGradient
       id="linearGradient2983">
      <stop
         style="stop-color:#bebebe;stop-opacity:1;"
         offset="0"
         id="stop2985" />
      <stop
         style="stop-color:#ffffff;stop-opacity:1;"
         offset="1"
         id="stop2987" />
    </linearGradient>
    <linearGradient
       inkscape:collect="always"
       xlink:href="#linearGradient2983"
       id="linearGradient2989"
       x1="13"
       y1="5"
       x2="13"
       y2="19"
       gradientUnits="userSpaceOnUse"
       gradientTransform="translate(-1,-1)" />
  </defs>
  <sodipodi:namedview
     pagecolor="#ffffff"
     bordercolor="#666666"
     borderopacity="1"
     objecttolerance="10"
     gridtolerance="10"
     guidetolerance="10"
     inkscape:pageopacity="0"
     inkscape:pageshadow="2"
     inkscape:window-width="1280"
     inkscape:window-height="972"
     id="namedview6"
     showgrid="true"
     inkscape:zoom="25.583334"
     inkscape:cx="17.745928"
     inkscape:cy="9.6938111"
     inkscape:window-x="0"
     inkscape:window-y="26"
     inkscape:window-maximized="1"
     inkscape:current-layer="svg3215">
    <inkscape:grid
       type="xygrid"
       id="grid2991"
       empspacing="5"
       visible="true"
       enabled="true"
       snapvisiblegridlinesonly="true" />
  </sodipodi:namedview>
  <metadata
     id="metadata8">
    <rdf:RDF>
      <cc:Work
         rdf:about="">
        <dc:format>image/svg+xml</dc:format>
        <dc:type
           rdf:resource="http://purl.org/dc/dcmitype/StillImage" />
        <dc:title />
      </cc:Work>
    </rdf:RDF>
  </metadata>
  <path
     id="path3770"
     d="m 12.5,5 c -1.6895,1e-7 -3.13685,1.06245 -3.90625,2.59375 C 8.16045,7.23325 7.6072,7 7,7 5.62,7 4.5,8.12 4.5,9.5 4.5,9.8099 4.55305,10.101 4.65625,10.375 3.08675,11.076 2,12.664 2,14.5 2,16.993 4.007,19 6.5,19 l 9,0 C 17.993,19 20,16.993 20,14.5 20,12.525 18.73075,10.859 16.96875,10.25 16.97275,10.165 17,10.087 17,10 17,7.24 14.984,5 12.5,5 z m -4.5,5 2,0 0,6 -2,0 0,-6 z m 4,0 2,0 0,6 -2,0 0,-6 z"
     style="fill:#000000;fill-rule:evenodd"
     inkscape:connector-curvature="0" />
  <path
     style="fill:url(#linearGradient2989);fill-opacity:1;fill-rule:evenodd"
     d="m 12.5,4 c -1.6895,1e-7 -3.13685,1.06245 -3.90625,2.59375 C 8.16045,6.23325 7.6072,6 7,6 5.62,6 4.5,7.12 4.5,8.5 4.5,8.8099 4.55305,9.101 4.65625,9.375 3.08675,10.076 2,11.664 2,13.5 2,15.993 4.007,18 6.5,18 l 9,0 C 17.993,18 20,15.993 20,13.5 20,11.525 18.73075,9.859 16.96875,9.25 16.97275,9.165 17,9.087 17,9 17,6.24 14.984,4 12.5,4 z M 8,9 l 2,0 0,6 -2,0 0,-6 z m 4,0 2,0 0,6 -2,0 0,-6 z"
     id="rect3193"
     inkscape:connector-curvature="0" />
</svg>
