<?xml version="1.0" encoding="UTF-8" standalone="no"?>
<!-- Created with Inkscape (http://www.inkscape.org/) -->

<svg
   xmlns:dc="http://purl.org/dc/elements/1.1/"
   xmlns:cc="http://creativecommons.org/ns#"
   xmlns:rdf="http://www.w3.org/1999/02/22-rdf-syntax-ns#"
   xmlns:svg="http://www.w3.org/2000/svg"
   xmlns="http://www.w3.org/2000/svg"
   xmlns:xlink="http://www.w3.org/1999/xlink"
   xmlns:sodipodi="http://sodipodi.sourceforge.net/DTD/sodipodi-0.dtd"
   xmlns:inkscape="http://www.inkscape.org/namespaces/inkscape"
   width="16"
   height="16"
   id="svg3330"
   version="1.1"
   inkscape:version="0.48.4 r9939"
   sodipodi:docname="gtk-open.svg">
  <defs
     id="defs3332">
    <linearGradient
       y2="11.02436"
       y1="3.0069399"
       x2="0"
       id="linearGradient1022-8-8-3-0-3"
       gradientUnits="userSpaceOnUse">
      <stop
         id="stop3001-0-9-4-4"
         offset="0" />
      <stop
         id="stop3003-5-6-6-9"
         stop-color="#363636"
         offset="1" />
    </linearGradient>
    <linearGradient
       y2="19.975889"
       x2="-2.5488417"
       y1="8.4068613"
       x1="-2.5488417"
       gradientTransform="matrix(1.119994,0,0,1.0064811,66.016638,59.495742)"
       gradientUnits="userSpaceOnUse"
       id="linearGradient3328"
       xlink:href="#linearGradient1022-8-8-3-0-3"
       inkscape:collect="always" />
  </defs>
  <sodipodi:namedview
     id="base"
     pagecolor="#ffffff"
     bordercolor="#666666"
     borderopacity="1.0"
     inkscape:pageopacity="0.0"
     inkscape:pageshadow="2"
     inkscape:zoom="3.959798"
     inkscape:cx="9.9802495"
     inkscape:cy="8.8537028"
     inkscape:document-units="px"
     inkscape:current-layer="capa1"
     showgrid="false"
     inkscape:showpageshadow="false"
     inkscape:window-width="673"
     inkscape:window-height="598"
     inkscape:window-x="537"
     inkscape:window-y="241"
     inkscape:window-maximized="0" />
  <metadata
     id="metadata3335">
    <rdf:RDF>
      <cc:Work
         rdf:about="">
        <dc:format>image/svg+xml</dc:format>
        <dc:type
           rdf:resource="http://purl.org/dc/dcmitype/StillImage" />
        <dc:title />
      </cc:Work>
    </rdf:RDF>
  </metadata>
  <g
     inkscape:label="Capa 1"
     inkscape:groupmode="layer"
     id="capa1"
     transform="translate(0,-1036.3622)">
    <g
       id="document-open"
       inkscape:label="#document-open"
       transform="translate(-115,660.00002)"
       inkscape:export-xdpi="90"
       inkscape:export-ydpi="90">
      <rect
         y="376.36218"
         x="115"
         height="16"
         width="16"
         id="rect2987"
         style="opacity:0.6;color:#000000;fill:none;stroke:none;stroke-width:1;marker:none;visibility:visible;display:inline;overflow:visible;enable-background:accumulate" />
      <path
         inkscape:connector-curvature="0"
         style="opacity:0.6;color:#000000;fill:#ffffff;fill-opacity:1;fill-rule:nonzero;stroke:none;stroke-width:1;marker:none;visibility:visible;display:inline;overflow:visible;enable-background:accumulate"
         d="m 123,70.09375 -3,3 6,0 -3,-3 z m -5,4 -1,1 0,8 1,1 10,0 1,-1 0,-7 -1,-1 -4,0 -1,-1 -5,0 z m 1,2 3,0 1,1 4,0 0,5 -8,0 0,-6 z"
         transform="translate(0,308.2677)"
         id="path3737" />
      <path
         inkscape:connector-curvature="0"
         style="opacity:0.7;color:#000000;fill:url(#linearGradient3328);fill-opacity:1;fill-rule:nonzero;stroke:none;stroke-width:1;marker:none;visibility:visible;display:inline;overflow:visible;enable-background:accumulate"
         d="m 123,69.09375 -3,3 6,0 -3,-3 z m -5,4 -1,1 0,8 1,1 10,0 1,-1 0,-7 -1,-1 -4,0 -1,-1 -5,0 z m 1,2 3,0 1,1 4,0 0,5 -8,0 0,-6 z"
         transform="translate(0,308.2677)"
         id="rect3150" />
    </g>
  </g>
</svg>
