<?xml version="1.0" encoding="UTF-8" standalone="no"?>
<!-- Created with Inkscape (http://www.inkscape.org/) -->

<svg
   xmlns:dc="http://purl.org/dc/elements/1.1/"
   xmlns:cc="http://creativecommons.org/ns#"
   xmlns:rdf="http://www.w3.org/1999/02/22-rdf-syntax-ns#"
   xmlns:svg="http://www.w3.org/2000/svg"
   xmlns="http://www.w3.org/2000/svg"
   xmlns:xlink="http://www.w3.org/1999/xlink"
   xmlns:sodipodi="http://sodipodi.sourceforge.net/DTD/sodipodi-0.dtd"
   xmlns:inkscape="http://www.inkscape.org/namespaces/inkscape"
   width="16"
   height="16"
   id="svg3330"
   version="1.1"
   inkscape:version="0.48.4 r9939"
   sodipodi:docname="gtk-save-as.svg">
  <defs
     id="defs3332">
    <linearGradient
       y2="11.02436"
       y1="3.0069399"
       x2="0"
       id="linearGradient1022-8-8-3-0-2-5"
       gradientUnits="userSpaceOnUse">
      <stop
         id="stop3001-0-9-4-1-2"
         offset="0" />
      <stop
         id="stop3003-5-6-6-1-9"
         stop-color="#363636"
         offset="1" />
    </linearGradient>
    <linearGradient
       inkscape:collect="always"
       xlink:href="#linearGradient1022-8-8-3-0-2-5"
       id="linearGradient3052"
       gradientUnits="userSpaceOnUse"
       gradientTransform="matrix(1.119994,0,0,1.0064811,-88.983362,-8.5987)"
       x1="85.69989"
       y1="9.53689"
       x2="85.69989"
       y2="23.446739" />
  </defs>
  <sodipodi:namedview
     id="base"
     pagecolor="#ffffff"
     bordercolor="#666666"
     borderopacity="1.0"
     inkscape:pageopacity="0.0"
     inkscape:pageshadow="2"
     inkscape:zoom="22.4"
     inkscape:cx="9.9802495"
     inkscape:cy="8.8537028"
     inkscape:document-units="px"
     inkscape:current-layer="capa1"
     showgrid="true"
     inkscape:showpageshadow="false"
     inkscape:window-width="988"
     inkscape:window-height="826"
     inkscape:window-x="61"
     inkscape:window-y="102"
     inkscape:window-maximized="0"
     inkscape:snap-bbox="true">
    <inkscape:grid
       type="xygrid"
       id="grid2990" />
  </sodipodi:namedview>
  <metadata
     id="metadata3335">
    <rdf:RDF>
      <cc:Work
         rdf:about="">
        <dc:format>image/svg+xml</dc:format>
        <dc:type
           rdf:resource="http://purl.org/dc/dcmitype/StillImage" />
        <dc:title />
      </cc:Work>
    </rdf:RDF>
  </metadata>
  <g
     inkscape:label="Capa 1"
     inkscape:groupmode="layer"
     id="capa1"
     transform="translate(0,-1036.3622)">
    <path
       id="path3054"
       d="m 4,1038.3622 3,3 3,-3 -6,0 z m -1,4 -1,1 0,8 1,1 10,0 1,-1 0,-7 -1,-1 -4,0 -1,-1 -5,0 z m 1,2 3,0 1,1 4,0 0,5 -8,0 0,-6 z m 1,2 0,2 2,0 0,-2 -2,0 z m 3,0 0,2 2,0 0,-2 -2,0 z"
       style="opacity:0.59999999999999998;color:black;fill:white;fill-opacity:1;fill-rule:nonzero;stroke:none;stroke-width:1;marker:none;visibility:visible;display:inline;overflow:visible;enable-background:accumulate"
       inkscape:connector-curvature="0" />
    <path
       style="opacity:0.69999999999999996;color:black;fill:url(#linearGradient3052);fill-opacity:1;fill-rule:nonzero;stroke:none;stroke-width:1;marker:none;visibility:visible;display:inline;overflow:visible;enable-background:accumulate"
       d="M 4 1 L 7 4 L 10 1 L 4 1 z M 3 5 L 2 6 L 2 14 L 3 15 L 13 15 L 14 14 L 14 7 L 13 6 L 9 6 L 8 5 L 3 5 z M 4 7 L 7 7 L 8 8 L 12 8 L 12 13 L 4 13 L 4 7 z M 5 9 L 5 11 L 7 11 L 7 9 L 5 9 z M 8 9 L 8 11 L 10 11 L 10 9 L 8 9 z "
       transform="translate(0,1036.3622)"
       id="path3003" />
  </g>
</svg>
