<?xml version="1.0" encoding="UTF-8" standalone="no"?>
<!-- Created with Inkscape (http://www.inkscape.org/) -->

<svg
   xmlns:dc="http://purl.org/dc/elements/1.1/"
   xmlns:cc="http://creativecommons.org/ns#"
   xmlns:rdf="http://www.w3.org/1999/02/22-rdf-syntax-ns#"
   xmlns:svg="http://www.w3.org/2000/svg"
   xmlns="http://www.w3.org/2000/svg"
   xmlns:xlink="http://www.w3.org/1999/xlink"
   xmlns:sodipodi="http://sodipodi.sourceforge.net/DTD/sodipodi-0.dtd"
   xmlns:inkscape="http://www.inkscape.org/namespaces/inkscape"
   width="16"
   height="16"
   id="svg3330"
   version="1.1"
   inkscape:version="0.48.4 r9939"
   sodipodi:docname="document-print.svg">
  <defs
     id="defs3332">
    <linearGradient
       y2="11.02436"
       y1="3.0069399"
       x2="0"
       id="linearGradient1022-8-8-3-0-2-9"
       gradientUnits="userSpaceOnUse">
      <stop
         id="stop3001-0-9-4-1-28"
         offset="0" />
      <stop
         id="stop3003-5-6-6-1-8"
         stop-color="#363636"
         offset="1" />
    </linearGradient>
    <linearGradient
       y2="19.975889"
       x2="-2.5488417"
       y1="8.4068613"
       x1="-2.5488417"
       gradientTransform="matrix(1.119994,0,0,1.0064811,66.016638,367.76344)"
       gradientUnits="userSpaceOnUse"
       id="linearGradient3522"
       xlink:href="#linearGradient1022-8-8-3-0-2-9"
       inkscape:collect="always" />
  </defs>
  <sodipodi:namedview
     id="base"
     pagecolor="#ffffff"
     bordercolor="#666666"
     borderopacity="1.0"
     inkscape:pageopacity="0.0"
     inkscape:pageshadow="2"
     inkscape:zoom="3.959798"
     inkscape:cx="9.9802495"
     inkscape:cy="8.0960884"
     inkscape:document-units="px"
     inkscape:current-layer="capa1"
     showgrid="false"
     inkscape:showpageshadow="false"
     inkscape:window-width="673"
     inkscape:window-height="598"
     inkscape:window-x="537"
     inkscape:window-y="241"
     inkscape:window-maximized="0" />
  <metadata
     id="metadata3335">
    <rdf:RDF>
      <cc:Work
         rdf:about="">
        <dc:format>image/svg+xml</dc:format>
        <dc:type
           rdf:resource="http://purl.org/dc/dcmitype/StillImage" />
        <dc:title />
      </cc:Work>
    </rdf:RDF>
  </metadata>
  <g
     inkscape:label="Capa 1"
     inkscape:groupmode="layer"
     id="capa1"
     transform="translate(0,-1036.3622)">
    <g
       transform="translate(-175,660.00002)"
       id="document-print">
      <rect
         y="376.36218"
         x="175"
         height="16"
         width="16"
         id="rect2997"
         style="opacity:0.6;color:#000000;fill:none;stroke:none;stroke-width:1;marker:none;visibility:visible;display:inline;overflow:visible;enable-background:accumulate" />
      <path
         inkscape:connector-curvature="0"
         style="opacity:0.6;color:#000000;fill:#ffffff;fill-opacity:1;fill-rule:nonzero;stroke:none;stroke-width:1;marker:none;visibility:visible;display:inline;overflow:visible;enable-background:accumulate"
         d="m 180,378.36218 0,9 6,0 0,-9 -6,0 z m 2,2 2,0 0,5 -2,0 0,-5 z m -4,2 -2,1.9375 0,5.15625 2,1.90625 10,0 2,-2 0,-5 -1.9375,-2 -1.0625,0 0,2 1,0 0,5 -10,0 0,-5 1,0 0,-2 -1,0 z"
         id="path3790" />
      <path
         id="path3147"
         d="m 180,377.36218 0,9 6,0 0,-9 -6,0 z m 2,2 2,0 0,5 -2,0 0,-5 z m -4,2 -2,1.9375 0,5.15625 2,1.90625 10,0 2,-2 0,-5 -1.9375,-2 -1.0625,0 0,2 1,0 0,5 -10,0 0,-5 1,0 0,-2 -1,0 z"
         style="opacity:0.7;color:#000000;fill:url(#linearGradient3522);fill-opacity:1;fill-rule:nonzero;stroke:none;stroke-width:1;marker:none;visibility:visible;display:inline;overflow:visible;enable-background:accumulate"
         inkscape:connector-curvature="0" />
    </g>
  </g>
</svg>
