<?xml version="1.0" encoding="UTF-8" standalone="no"?>
<!-- Created with Inkscape (http://www.inkscape.org/) -->

<svg
   xmlns:dc="http://purl.org/dc/elements/1.1/"
   xmlns:cc="http://creativecommons.org/ns#"
   xmlns:rdf="http://www.w3.org/1999/02/22-rdf-syntax-ns#"
   xmlns:svg="http://www.w3.org/2000/svg"
   xmlns="http://www.w3.org/2000/svg"
   xmlns:xlink="http://www.w3.org/1999/xlink"
   xmlns:sodipodi="http://sodipodi.sourceforge.net/DTD/sodipodi-0.dtd"
   xmlns:inkscape="http://www.inkscape.org/namespaces/inkscape"
   width="16"
   height="16"
   id="svg3330"
   version="1.1"
   inkscape:version="0.91 r13725"
   sodipodi:docname="gtk-paste.svg">
  <defs
     id="defs3332">
    <linearGradient
       y2="11.02436"
       y1="3.0069399"
       x2="0"
       id="linearGradient1022-8-8-3-0-2-12"
       gradientUnits="userSpaceOnUse">
      <stop
         id="stop3001-0-9-4-1-4"
         offset="0" />
      <stop
         id="stop3003-5-6-6-1-51"
         stop-color="#363636"
         offset="1" />
    </linearGradient>
    <linearGradient
       y2="23.447037"
       x2="214.27202"
       y1="8.5436277"
       x1="214.27202"
       gradientTransform="matrix(1.119994,0,0,1.0064811,-233.98337,1027.7632)"
       gradientUnits="userSpaceOnUse"
       id="linearGradient3574"
       xlink:href="#linearGradient1022-8-8-3-0-2-12"
       inkscape:collect="always" />
  </defs>
  <sodipodi:namedview
     id="base"
     pagecolor="#ffffff"
     bordercolor="#666666"
     borderopacity="1.0"
     inkscape:pageopacity="0.0"
     inkscape:pageshadow="2"
     inkscape:zoom="17.67767"
     inkscape:cx="8"
     inkscape:cy="8.1697056"
     inkscape:document-units="px"
     inkscape:current-layer="capa1"
     showgrid="true"
     inkscape:showpageshadow="false"
     inkscape:window-width="1366"
     inkscape:window-height="704"
     inkscape:window-x="0"
     inkscape:window-y="27"
     inkscape:window-maximized="1"
     inkscape:snap-page="true"
     inkscape:snap-center="true"
     inkscape:snap-object-midpoints="true">
    <inkscape:grid
       type="xygrid"
       id="grid2990" />
  </sodipodi:namedview>
  <metadata
     id="metadata3335">
    <rdf:RDF>
      <cc:Work
         rdf:about="">
        <dc:format>image/svg+xml</dc:format>
        <dc:type
           rdf:resource="http://purl.org/dc/dcmitype/StillImage" />
        <dc:title />
      </cc:Work>
    </rdf:RDF>
  </metadata>
  <g
     inkscape:label="Capa 1"
     inkscape:groupmode="layer"
     id="capa1"
     transform="translate(0,-1036.3622)">
    <path
       inkscape:connector-curvature="0"
       style="color:#000000;display:inline;overflow:visible;visibility:visible;opacity:0.6;fill:#ffffff;fill-opacity:1;fill-rule:nonzero;stroke:none;stroke-width:1;marker:none;enable-background:accumulate"
       d="m 5,1037.3622 0,1 -2,0 -1,1 0,12 1,1 10,0 1,-1 0,-12 -1,-1 -2,0 0,-1 -6,0 z m -1,3 1,0 0,1 6,0 0,-1 1,0 0,10 -8,0 0,-10 z m 1,2 0,3 6,0 0,-3 -6,0 z m 0,4 0,3 6,0 0,-3 -6,0 z"
       id="path3280" />
    <path
       inkscape:connector-curvature="0"
       id="path3282"
       d="m 5,1036.3622 0,1 -2,0 -1,1 0,12 1,1 10,0 1,-1 0,-12 -1,-1 -2,0 0,-1 -6,0 z m -1,3 1,0 0,1 6,0 0,-1 1,0 0,10 -8,0 0,-10 z m 1,2 0,3 6,0 0,-3 -6,0 z m 0,4 0,3 6,0 0,-3 -6,0 z"
       style="color:#000000;display:inline;overflow:visible;visibility:visible;opacity:0.7;fill:url(#linearGradient3574);fill-opacity:1;fill-rule:nonzero;stroke:none;stroke-width:1;marker:none;enable-background:accumulate" />
  </g>
</svg>
