<?xml version="1.0" encoding="UTF-8" standalone="no"?>
<!-- Created with Inkscape (http://www.inkscape.org/) -->

<svg
   xmlns:dc="http://purl.org/dc/elements/1.1/"
   xmlns:cc="http://creativecommons.org/ns#"
   xmlns:rdf="http://www.w3.org/1999/02/22-rdf-syntax-ns#"
   xmlns:svg="http://www.w3.org/2000/svg"
   xmlns="http://www.w3.org/2000/svg"
   xmlns:xlink="http://www.w3.org/1999/xlink"
   xmlns:sodipodi="http://sodipodi.sourceforge.net/DTD/sodipodi-0.dtd"
   xmlns:inkscape="http://www.inkscape.org/namespaces/inkscape"
   width="16"
   height="16"
   id="svg6662"
   version="1.1"
   inkscape:version="0.91 r13725"
   sodipodi:docname="view-list-icons.svg">
  <defs
     id="defs6664">
    <linearGradient
       y2="11.02436"
       y1="3.0069399"
       x2="0"
       id="linearGradient1022-8-8-3-0-06-59-5"
       gradientUnits="userSpaceOnUse">
      <stop
         id="stop3001-0-9-4-9-02-3"
         offset="0" />
      <stop
         id="stop3003-5-6-6-5-70-4"
         stop-color="#363636"
         offset="1" />
    </linearGradient>
    <linearGradient
       inkscape:collect="always"
       xlink:href="#linearGradient1022-8-8-3-0-06-59-5"
       id="linearGradient3151"
       gradientUnits="userSpaceOnUse"
       gradientTransform="matrix(0,-4.8872673,0.25834805,0,-335.07978,-885.95429)"
       x1="-393.53619"
       y1="1353.3109"
       x2="-396.36356"
       y2="1353.3109" />
  </defs>
  <sodipodi:namedview
     id="base"
     pagecolor="#ffffff"
     bordercolor="#666666"
     borderopacity="1.0"
     inkscape:pageopacity="0.0"
     inkscape:pageshadow="2"
     inkscape:zoom="22.4"
     inkscape:cx="13.66104"
     inkscape:cy="9.870438"
     inkscape:document-units="px"
     inkscape:current-layer="capa1"
     showgrid="true"
     inkscape:showpageshadow="false"
     inkscape:window-width="1280"
     inkscape:window-height="975"
     inkscape:window-x="0"
     inkscape:window-y="24"
     inkscape:window-maximized="1"
     inkscape:snap-bbox="true">
    <inkscape:grid
       type="xygrid"
       id="grid2990"
       empspacing="5"
       visible="true"
       enabled="true"
       snapvisiblegridlinesonly="true" />
  </sodipodi:namedview>
  <metadata
     id="metadata6667">
    <rdf:RDF>
      <cc:Work
         rdf:about="">
        <dc:format>image/svg+xml</dc:format>
        <dc:type
           rdf:resource="http://purl.org/dc/dcmitype/StillImage" />
        <dc:title />
      </cc:Work>
    </rdf:RDF>
  </metadata>
  <g
     inkscape:label="Capa 1"
     inkscape:groupmode="layer"
     id="capa1"
     transform="translate(0,-1036.3622)">
    <path
       inkscape:connector-curvature="0"
       d="m 10,1042.3622 3,0 0,3 -3,0 z m -4,0 3,0 0,3 -3,0 z m 0,5 3,0 0,3 -3,0 z m -5,-7 14,0 0,11 -14,0 z m 0,-2 -1,1 0,12 1,1 14,0 1,-1 0,-12 -1,-1 z m 1,4 3,0 0,3 -3,0 z m 0,5 3,0 0,3 -3,0 z"
       style="opacity:0.59999999999999998;color:#000000;fill:#ffffff;fill-opacity:1;fill-rule:nonzero;stroke:none;stroke-width:0.66666674999999997;marker:none;visibility:visible;display:inline;overflow:visible;enable-background:accumulate"
       id="path3153" />
    <path
       id="path3029"
       style="opacity:0.66000001;color:#000000;fill:url(#linearGradient3151);fill-opacity:1;fill-rule:nonzero;stroke:none;stroke-width:1;marker:none;visibility:visible;display:inline;overflow:visible;enable-background:accumulate"
       d="m 10,1041.3622 3,0 0,3 -3,0 z m -4,0 3,0 0,3 -3,0 z m 0,5 3,0 0,3 -3,0 z m -5,-7 14,0 0,11 -14,0 z m 0,-2 -1,1 0,12 1,1 14,0 1,-1 0,-12 -1,-1 z m 1,4 3,0 0,3 -3,0 z m 0,5 3,0 0,3 -3,0 z" />
  </g>
</svg>
