<?xml version="1.0" encoding="UTF-8" standalone="no"?>
<!-- Created with Inkscape (http://www.inkscape.org/) -->

<svg
   xmlns:dc="http://purl.org/dc/elements/1.1/"
   xmlns:cc="http://creativecommons.org/ns#"
   xmlns:rdf="http://www.w3.org/1999/02/22-rdf-syntax-ns#"
   xmlns:svg="http://www.w3.org/2000/svg"
   xmlns="http://www.w3.org/2000/svg"
   xmlns:xlink="http://www.w3.org/1999/xlink"
   xmlns:sodipodi="http://sodipodi.sourceforge.net/DTD/sodipodi-0.dtd"
   xmlns:inkscape="http://www.inkscape.org/namespaces/inkscape"
   width="22"
   height="22"
   id="svg3330"
   version="1.1"
   inkscape:version="0.48.4 r9939"
   sodipodi:docname="gtk-delete.svg">
  <defs
     id="defs3332">
    <linearGradient
       y2="11.02436"
       y1="3.0069399"
       x2="0"
       id="linearGradient1022-8-8-3-0-2-12-9-7"
       gradientUnits="userSpaceOnUse">
      <stop
         id="stop3001-0-9-4-1-4-0-25"
         offset="0" />
      <stop
         id="stop3003-5-6-6-1-51-7-3"
         stop-color="#363636"
         offset="1" />
    </linearGradient>
    <linearGradient
       inkscape:collect="always"
       xlink:href="#linearGradient1022-8-8-3-0-2-12-9-7"
       id="linearGradient3265"
       gradientUnits="userSpaceOnUse"
       gradientTransform="matrix(1.6290822,0,0,1.476171,-356.74854,-13.0785)"
       x1="226.04663"
       y1="708.21112"
       x2="226.04663"
       y2="719.04999" />
  </defs>
  <sodipodi:namedview
     id="base"
     pagecolor="#ffffff"
     bordercolor="#666666"
     borderopacity="1.0"
     inkscape:pageopacity="0.0"
     inkscape:pageshadow="2"
     inkscape:zoom="22.627417"
     inkscape:cx="17.57413"
     inkscape:cy="11.874077"
     inkscape:document-units="px"
     inkscape:current-layer="capa1"
     showgrid="true"
     inkscape:showpageshadow="false"
     inkscape:window-width="1280"
     inkscape:window-height="975"
     inkscape:window-x="0"
     inkscape:window-y="24"
     inkscape:window-maximized="1"
     inkscape:snap-page="false"
     inkscape:snap-center="false"
     inkscape:snap-object-midpoints="false"
     inkscape:snap-to-guides="true"
     inkscape:snap-midpoints="false"
     inkscape:snap-bbox="true">
    <inkscape:grid
       type="xygrid"
       id="grid2990"
       empspacing="5"
       visible="true"
       enabled="true"
       snapvisiblegridlinesonly="true" />
  </sodipodi:namedview>
  <metadata
     id="metadata3335">
    <rdf:RDF>
      <cc:Work
         rdf:about="">
        <dc:format>image/svg+xml</dc:format>
        <dc:type
           rdf:resource="http://purl.org/dc/dcmitype/StillImage" />
        <dc:title />
      </cc:Work>
    </rdf:RDF>
  </metadata>
  <g
     inkscape:label="Capa 1"
     inkscape:groupmode="layer"
     id="capa1"
     transform="translate(0,-1030.3622)">
    <path
       inkscape:connector-curvature="0"
       id="path3267"
       d="m 5,1033.3622 -2,2 0,13 2,2 12,0 2,-2 0,-13 -2,-2 -2,0 0,1 0,1 2,0 0,5 -12,0 0,-5 2,0 0,-1 0,-1 -2,0 z m 7,0 c -0.788853,0 -1.455724,0.4616 -1.78125,1.125 -0.230576,-0.07 -0.465238,-0.125 -0.71875,-0.125 -1.229365,0 -2.228193,0.8933 -2.4375,2.0625 -0.620303,0.184 -1.0625,0.7575 -1.0625,1.4375 0,0.8284 0.671573,1.5 1.5,1.5 0.326497,0 0.62874,-0.1041 0.875,-0.2812 0.339949,0.1729 0.717424,0.2812 1.125,0.2812 0.674247,0 1.300336,-0.2536 1.75,-0.6875 0.267274,0.4125 0.721877,0.6875 1.25,0.6875 0.382538,0 0.735032,-0.1393 1,-0.375 0.264968,0.2357 0.617462,0.375 1,0.375 0.828427,0 1.5,-0.6716 1.5,-1.5 0,-0.8284 -0.671573,-1.5 -1.5,-1.5 -0.382538,0 -0.735032,0.1393 -1,0.375 -0.01097,-0.01 -0.01999,-0.022 -0.03125,-0.031 0.325196,-0.3557 0.53125,-0.8239 0.53125,-1.3438 0,-1.1046 -0.895431,-2 -2,-2 z m -6,9 1,0 0,1 -1,0 0,-1 z m 3,0 1,0 0,1 -1,0 0,-1 z m 3,0 1,0 0,1 -1,0 0,-1 z m 3,0 1,0 0,1 -1,0 0,-1 z m -9,2 1,0 0,1 -1,0 0,-1 z m 3,0 1,0 0,1 -1,0 0,-1 z m 3,0 1,0 0,1 -1,0 0,-1 z m 3,0 1,0 0,1 -1,0 0,-1 z m -9,2 1,0 0,1 -1,0 0,-1 z m 3,0 1,0 0,1 -1,0 0,-1 z m 3,0 1,0 0,1 -1,0 0,-1 z m 3,0 1,0 0,1 -1,0 0,-1 z"
       style="opacity:0.6;color:#000000;fill:#ffffff;fill-opacity:1;fill-rule:nonzero;stroke:none;stroke-width:1;marker:none;visibility:visible;display:inline;overflow:visible;enable-background:accumulate" />
    <path
       style="opacity:0.7;color:#000000;fill:url(#linearGradient3265);fill-opacity:1;fill-rule:nonzero;stroke:none;stroke-width:1;marker:none;visibility:visible;display:inline;overflow:visible;enable-background:accumulate"
       d="m 5,1032.3622 -2,2 0,13 2,2 12,0 2,-2 0,-13 -2,-2 -2,0 0,1 0,1 2,0 0,5 -12,0 0,-5 2,0 0,-1 0,-1 -2,0 z m 7,0 c -0.788853,0 -1.455724,0.4616 -1.78125,1.125 -0.230576,-0.07 -0.465238,-0.125 -0.71875,-0.125 -1.229365,0 -2.228193,0.8933 -2.4375,2.0625 -0.620303,0.184 -1.0625,0.7575 -1.0625,1.4375 0,0.8284 0.671573,1.5 1.5,1.5 0.326497,0 0.62874,-0.1041 0.875,-0.2812 0.339949,0.1729 0.717424,0.2812 1.125,0.2812 0.674247,0 1.300336,-0.2536 1.75,-0.6875 0.267274,0.4125 0.721877,0.6875 1.25,0.6875 0.382538,0 0.735032,-0.1393 1,-0.375 0.264968,0.2357 0.617462,0.375 1,0.375 0.828427,0 1.5,-0.6716 1.5,-1.5 0,-0.8284 -0.671573,-1.5 -1.5,-1.5 -0.382538,0 -0.735032,0.1393 -1,0.375 -0.01097,-0.01 -0.01999,-0.022 -0.03125,-0.031 0.325196,-0.3557 0.53125,-0.8239 0.53125,-1.3438 0,-1.1046 -0.895431,-2 -2,-2 z m -6,9 1,0 0,1 -1,0 0,-1 z m 3,0 1,0 0,1 -1,0 0,-1 z m 3,0 1,0 0,1 -1,0 0,-1 z m 3,0 1,0 0,1 -1,0 0,-1 z m -9,2 1,0 0,1 -1,0 0,-1 z m 3,0 1,0 0,1 -1,0 0,-1 z m 3,0 1,0 0,1 -1,0 0,-1 z m 3,0 1,0 0,1 -1,0 0,-1 z m -9,2 1,0 0,1 -1,0 0,-1 z m 3,0 1,0 0,1 -1,0 0,-1 z m 3,0 1,0 0,1 -1,0 0,-1 z m 3,0 1,0 0,1 -1,0 0,-1 z"
       id="path3057"
       inkscape:connector-curvature="0" />
  </g>
</svg>
