<?xml version="1.0" encoding="UTF-8" standalone="no"?>
<!-- Created with Inkscape (http://www.inkscape.org/) -->

<svg
   xmlns:dc="http://purl.org/dc/elements/1.1/"
   xmlns:cc="http://creativecommons.org/ns#"
   xmlns:rdf="http://www.w3.org/1999/02/22-rdf-syntax-ns#"
   xmlns:svg="http://www.w3.org/2000/svg"
   xmlns="http://www.w3.org/2000/svg"
   xmlns:xlink="http://www.w3.org/1999/xlink"
   xmlns:sodipodi="http://sodipodi.sourceforge.net/DTD/sodipodi-0.dtd"
   xmlns:inkscape="http://www.inkscape.org/namespaces/inkscape"
   width="22"
   height="22"
   id="svg6662"
   version="1.1"
   inkscape:version="0.48.4 r9939"
   sodipodi:docname="gtk-caps-lock-warning.svg">
  <defs
     id="defs6664">
    <linearGradient
       gradientUnits="userSpaceOnUse"
       id="linearGradient1022-8-8-3-0-2-3-3-9-3"
       x2="0"
       y1="3.0069399"
       y2="11.02436">
      <stop
         offset="0"
         id="stop3001-0-9-4-1-4-7-9-1" />
      <stop
         offset="1"
         stop-color="#363636"
         id="stop3003-5-6-6-1-1-1-1-8" />
    </linearGradient>
    <linearGradient
       inkscape:collect="always"
       xlink:href="#linearGradient1022-8-8-3-0-2-3-3-9-3"
       id="linearGradient2992-3"
       gradientUnits="userSpaceOnUse"
       gradientTransform="matrix(1.6347544,0,0,1.4690698,-268.33642,1502.2962)"
       x1="170.87363"
       y1="-320.56613"
       x2="170.87363"
       y2="-306.95209" />
  </defs>
  <sodipodi:namedview
     id="base"
     pagecolor="#ffffff"
     bordercolor="#666666"
     borderopacity="1.0"
     inkscape:pageopacity="0.0"
     inkscape:pageshadow="2"
     inkscape:zoom="15.999999"
     inkscape:cx="29.706976"
     inkscape:cy="16.022601"
     inkscape:document-units="px"
     inkscape:current-layer="capa1"
     showgrid="true"
     inkscape:showpageshadow="false"
     inkscape:window-width="1280"
     inkscape:window-height="974"
     inkscape:window-x="0"
     inkscape:window-y="24"
     inkscape:window-maximized="1"
     inkscape:snap-bbox="true">
    <inkscape:grid
       type="xygrid"
       id="grid3327"
       empspacing="5"
       visible="true"
       enabled="true"
       snapvisiblegridlinesonly="true" />
  </sodipodi:namedview>
  <metadata
     id="metadata6667">
    <rdf:RDF>
      <cc:Work
         rdf:about="">
        <dc:format>image/svg+xml</dc:format>
        <dc:type
           rdf:resource="http://purl.org/dc/dcmitype/StillImage" />
        <dc:title />
      </cc:Work>
    </rdf:RDF>
  </metadata>
  <g
     inkscape:label="Capa 1"
     inkscape:groupmode="layer"
     id="capa1"
     transform="translate(0,-1030.3622)">
    <path
       id="path3046"
       d="m 4.6875,1032.3622 c -2.0325041,0 -3.6875,1.655 -3.6875,3.6875 l 0,12.5938 c 0,2.0326 1.6549959,3.7187 3.6875,3.7187 l 12.625,0 c 2.032504,0 3.6875,-1.6861 3.6875,-3.7187 l 0,-12.5938 c 0,-2.0325 -1.654996,-3.6875 -3.6875,-3.6875 l -12.625,0 z m 0,2 12.625,0 c 0.959099,0 1.6875,0.7284 1.6875,1.6875 l 0,12.5938 c 0,0.9591 -0.728401,1.7187 -1.6875,1.7187 l -12.625,0 C 3.7284014,1050.3622 3,1049.6026 3,1048.6435 l 0,-12.5938 c 0,-0.9591 0.7284014,-1.6875 1.6875,-1.6875 z m 4.3125,2 -4,12 3,0 1,-2 4,0 1,2 3,0 -4,-12 -4,0 z m 2,2 2,6 -4,0 2,-6 z"
       style="font-size:medium;font-style:normal;font-variant:normal;font-weight:normal;font-stretch:normal;text-indent:0;text-align:start;text-decoration:none;line-height:normal;letter-spacing:normal;word-spacing:normal;text-transform:none;direction:ltr;block-progression:tb;writing-mode:lr-tb;text-anchor:start;baseline-shift:baseline;opacity:0.6;color:black;fill:white;fill-opacity:1;fill-rule:nonzero;stroke:none;stroke-width:0.66666669;marker:none;visibility:visible;display:inline;overflow:visible;enable-background:accumulate;font-family:Sans;-inkscape-font-specification:Sans"
       inkscape:connector-curvature="0" />
    <path
       style="font-size:medium;font-style:normal;font-variant:normal;font-weight:normal;font-stretch:normal;text-indent:0;text-align:start;text-decoration:none;line-height:normal;letter-spacing:normal;word-spacing:normal;text-transform:none;direction:ltr;block-progression:tb;writing-mode:lr-tb;text-anchor:start;baseline-shift:baseline;opacity:0.75;color:black;fill:url(#linearGradient2992-3);fill-opacity:1;fill-rule:nonzero;stroke:none;stroke-width:1;marker:none;visibility:visible;display:inline;overflow:visible;enable-background:accumulate;font-family:Sans;-inkscape-font-specification:Sans"
       d="m 4.6875,1031.3622 c -2.0325041,0 -3.6875,1.655 -3.6875,3.6875 l 0,12.5938 c 0,2.0326 1.6549959,3.7187 3.6875,3.7187 l 12.625,0 c 2.032504,0 3.6875,-1.6861 3.6875,-3.7187 l 0,-12.5938 c 0,-2.0325 -1.654996,-3.6875 -3.6875,-3.6875 l -12.625,0 z m 0,2 12.625,0 c 0.959099,0 1.6875,0.7284 1.6875,1.6875 l 0,12.5938 c 0,0.9591 -0.728401,1.7187 -1.6875,1.7187 l -12.625,0 C 3.7284014,1049.3622 3,1048.6026 3,1047.6435 l 0,-12.5938 c 0,-0.9591 0.7284014,-1.6875 1.6875,-1.6875 z m 4.3125,2 -4,12 3,0 1,-2 4,0 1,2 3,0 -4,-12 -4,0 z m 2,2 2,6 -4,0 2,-6 z"
       id="path13"
       inkscape:connector-curvature="0" />
  </g>
</svg>
