<?xml version="1.0" encoding="UTF-8" standalone="no"?>
<!-- Created with Inkscape (http://www.inkscape.org/) -->

<svg
   xmlns:dc="http://purl.org/dc/elements/1.1/"
   xmlns:cc="http://creativecommons.org/ns#"
   xmlns:rdf="http://www.w3.org/1999/02/22-rdf-syntax-ns#"
   xmlns:svg="http://www.w3.org/2000/svg"
   xmlns="http://www.w3.org/2000/svg"
   xmlns:xlink="http://www.w3.org/1999/xlink"
   xmlns:sodipodi="http://sodipodi.sourceforge.net/DTD/sodipodi-0.dtd"
   xmlns:inkscape="http://www.inkscape.org/namespaces/inkscape"
   width="22"
   height="22"
   id="svg3330"
   version="1.1"
   inkscape:version="0.48.4 r9939"
   sodipodi:docname="system-lock-screen.svg">
  <defs
     id="defs3332">
    <linearGradient
       y2="11.02436"
       y1="3.0069399"
       x2="0"
       id="linearGradient1022-8-8-3-0-06-59"
       gradientUnits="userSpaceOnUse">
      <stop
         id="stop3001-0-9-4-9-02"
         offset="0" />
      <stop
         id="stop3003-5-6-6-5-70"
         stop-color="#363636"
         offset="1" />
    </linearGradient>
    <linearGradient
       inkscape:collect="always"
       xlink:href="#linearGradient1022-8-8-3-0-06-59"
       id="linearGradient3025"
       gradientUnits="userSpaceOnUse"
       gradientTransform="matrix(1.25,0,0,1.25,1,2)"
       x1="8.8000002"
       y1="823.48975"
       x2="8.8000002"
       y2="839.48975" />
  </defs>
  <sodipodi:namedview
     id="base"
     pagecolor="#ffffff"
     bordercolor="#666666"
     borderopacity="1.0"
     inkscape:pageopacity="0.0"
     inkscape:pageshadow="2"
     inkscape:zoom="17.145833"
     inkscape:cx="25.764277"
     inkscape:cy="13.25395"
     inkscape:document-units="px"
     inkscape:current-layer="capa1"
     showgrid="true"
     inkscape:showpageshadow="false"
     inkscape:window-width="1280"
     inkscape:window-height="976"
     inkscape:window-x="0"
     inkscape:window-y="24"
     inkscape:window-maximized="1"
     inkscape:snap-center="true"
     inkscape:snap-object-midpoints="true"
     inkscape:snap-page="true"
     inkscape:snap-midpoints="true"
     inkscape:snap-to-guides="false">
    <inkscape:grid
       type="xygrid"
       id="grid3124"
       empspacing="5"
       visible="true"
       enabled="true"
       snapvisiblegridlinesonly="true" />
  </sodipodi:namedview>
  <metadata
     id="metadata3335">
    <rdf:RDF>
      <cc:Work
         rdf:about="">
        <dc:format>image/svg+xml</dc:format>
        <dc:type
           rdf:resource="http://purl.org/dc/dcmitype/StillImage" />
        <dc:title />
      </cc:Work>
    </rdf:RDF>
  </metadata>
  <g
     inkscape:label="Capa 1"
     inkscape:groupmode="layer"
     id="capa1"
     transform="translate(0,-1030.3622)">
    <path
       id="path3027"
       d="m 3,1032.3622 -2,2 0,13 2,2 3,0 -2,2 0,1 14,0 0,-1 -2,-2 3,0 2,-2 0,-13 -2,-2 -16,0 z m 1,2 14,0 1,1 0,11 -1,1 -14,0 -1,-1 0,-11 1,-1 z m 5,2 -1,1 0,3 -1,1 0,3 1,1 6,0 1,-1 0,-3 -1,-1 0,-3 -1,-1 -4,0 z m 0,1 4,0 0,3 -4,0 0,-3 z"
       style="opacity:0.6;color:black;fill:white;fill-opacity:1;fill-rule:nonzero;stroke:none;stroke-width:1;marker:none;visibility:visible;display:inline;overflow:visible;enable-background:accumulate"
       inkscape:connector-curvature="0" />
    <path
       style="opacity:0.7;color:black;fill:url(#linearGradient3025);fill-opacity:1;fill-rule:nonzero;stroke:none;stroke-width:1;marker:none;visibility:visible;display:inline;overflow:visible;enable-background:accumulate"
       d="m 3,1031.3622 -2,2 0,13 2,2 3,0 -2,2 0,1 14,0 0,-1 -2,-2 3,0 2,-2 0,-13 -2,-2 -16,0 z m 1,2 14,0 1,1 0,11 -1,1 -14,0 -1,-1 0,-11 1,-1 z m 5,2 -1,1 0,3 -1,1 0,3 1,1 6,0 1,-1 0,-3 -1,-1 0,-3 -1,-1 -4,0 z m 0,1 4,0 0,3 -4,0 0,-3 z"
       id="path3011"
       inkscape:connector-curvature="0" />
  </g>
</svg>
