<?xml version="1.0" encoding="UTF-8" standalone="no"?>
<!-- Created with Inkscape (http://www.inkscape.org/) -->

<svg
   xmlns:dc="http://purl.org/dc/elements/1.1/"
   xmlns:cc="http://creativecommons.org/ns#"
   xmlns:rdf="http://www.w3.org/1999/02/22-rdf-syntax-ns#"
   xmlns:svg="http://www.w3.org/2000/svg"
   xmlns="http://www.w3.org/2000/svg"
   xmlns:xlink="http://www.w3.org/1999/xlink"
   xmlns:sodipodi="http://sodipodi.sourceforge.net/DTD/sodipodi-0.dtd"
   xmlns:inkscape="http://www.inkscape.org/namespaces/inkscape"
   width="22"
   height="22"
   id="svg6662"
   version="1.1"
   inkscape:version="0.48.4 r9939"
   sodipodi:docname="view-right-new.svg">
  <defs
     id="defs6664">
    <linearGradient
       y2="11.02436"
       y1="3.0069399"
       x2="0"
       id="linearGradient1022-8-8-3-0-06-59-5"
       gradientUnits="userSpaceOnUse">
      <stop
         id="stop3001-0-9-4-9-02-3"
         offset="0" />
      <stop
         id="stop3003-5-6-6-5-70-4"
         stop-color="#363636"
         offset="1" />
    </linearGradient>
    <linearGradient
       inkscape:collect="always"
       xlink:href="#linearGradient1022-8-8-3-0-06-59-5"
       id="linearGradient3167"
       gradientUnits="userSpaceOnUse"
       gradientTransform="matrix(0,-1.6800202,0.17761428,0,-238.36736,381.96353)"
       x1="-386.54218"
       y1="1403.9827"
       x2="-397.85156"
       y2="1403.9827" />
  </defs>
  <sodipodi:namedview
     id="base"
     pagecolor="#ffffff"
     bordercolor="#666666"
     borderopacity="1.0"
     inkscape:pageopacity="0.0"
     inkscape:pageshadow="2"
     inkscape:zoom="15.839192"
     inkscape:cx="26.763885"
     inkscape:cy="10.495438"
     inkscape:document-units="px"
     inkscape:current-layer="capa1"
     showgrid="true"
     inkscape:showpageshadow="false"
     inkscape:window-width="1280"
     inkscape:window-height="975"
     inkscape:window-x="0"
     inkscape:window-y="24"
     inkscape:window-maximized="1"
     inkscape:snap-bbox="true">
    <inkscape:grid
       type="xygrid"
       id="grid2990"
       empspacing="5"
       visible="true"
       enabled="true"
       snapvisiblegridlinesonly="true" />
  </sodipodi:namedview>
  <metadata
     id="metadata6667">
    <rdf:RDF>
      <cc:Work
         rdf:about="">
        <dc:format>image/svg+xml</dc:format>
        <dc:type
           rdf:resource="http://purl.org/dc/dcmitype/StillImage" />
        <dc:title />
      </cc:Work>
    </rdf:RDF>
  </metadata>
  <g
     inkscape:label="Capa 1"
     inkscape:groupmode="layer"
     id="capa1"
     transform="translate(0,-1030.3622)">
    <path
       sodipodi:nodetypes="cccccccccccccccccccccccccccccccc"
       inkscape:connector-curvature="0"
       id="path2995"
       d="m 2,1032.3622 -2,2 0,15 2,2 18,0 2,-2 0,-15 -2,-2 z m 0,3 18,0 0,14 -18,0 z m 7,1 0,12 1,0 0,-12 z m 5,2 0,3 -3,0 0,2 3,0 0,3 2,0 0,-3 3,0 0,-2 -3,0 0,-3 z"
       style="opacity:0.6;color:#000000;fill:#ffffff;fill-opacity:1;fill-rule:nonzero;stroke:none;stroke-width:0.66666675;marker:none;visibility:visible;display:inline;overflow:visible;enable-background:accumulate" />
    <path
       style="opacity:0.66000001;color:#000000;fill:url(#linearGradient3167);fill-opacity:1;fill-rule:nonzero;stroke:none;stroke-width:1;marker:none;visibility:visible;display:inline;overflow:visible;enable-background:accumulate"
       d="m 2,1031.3622 -2,2 0,15 2,2 18,0 2,-2 0,-15 -2,-2 z m 0,3 18,0 0,14 -18,0 z m 7,1 0,12 1,0 0,-12 z m 5,2 0,3 -3,0 0,2 3,0 0,3 2,0 0,-3 3,0 0,-2 -3,0 0,-3 z"
       id="rect3151"
       inkscape:connector-curvature="0"
       sodipodi:nodetypes="cccccccccccccccccccccccccccccccc" />
  </g>
</svg>
