<?xml version="1.0" encoding="UTF-8" standalone="no"?>
<!-- Created with Inkscape (http://www.inkscape.org/) -->

<svg xmlns:dc="http://purl.org/dc/elements/1.1/" xmlns:cc="http://creativecommons.org/ns#" xmlns:rdf="http://www.w3.org/1999/02/22-rdf-syntax-ns#" xmlns:svg="http://www.w3.org/2000/svg" xmlns="http://www.w3.org/2000/svg" xmlns:xlink="http://www.w3.org/1999/xlink" xmlns:sodipodi="http://sodipodi.sourceforge.net/DTD/sodipodi-0.dtd" xmlns:inkscape="http://www.inkscape.org/namespaces/inkscape" width="22" height="22" id="svg4700" version="1.1" inkscape:version="0.48.4 r9939" sodipodi:docname="audio-input-microphone22.svg" inkscape:export-filename="/home/rafa/.icons/Box/_unfinished/audio-input-microphone.png" inkscape:export-xdpi="90" inkscape:export-ydpi="90">
  <defs id="defs4702">
    <linearGradient id="linearGradient4109">
      <stop style="stop-color:white;stop-opacity:0.50196081;" offset="0" id="stop4111" />
      <stop style="stop-color:white;stop-opacity:0;" offset="1" id="stop4113" />
    </linearGradient>
    <linearGradient id="linearGradient4062">
      <stop offset="0" style="stop-color:#5a5a5a;stop-opacity:1;" id="stop4064" />
      <stop id="stop4066" style="stop-color:white;stop-opacity:1;" offset="0.77495146" />
      <stop offset="1" style="stop-color:#5a5a5a;stop-opacity:1;" id="stop4068" />
    </linearGradient>
    <linearGradient id="linearGradient3926">
      <stop id="stop3928" style="stop-color:black;stop-opacity:1" offset="0" />
      <stop offset="0.49999997" style="stop-color:white;stop-opacity:1;" id="stop3930" />
      <stop id="stop3932" style="stop-color:black;stop-opacity:1" offset="1" />
    </linearGradient>
    <linearGradient id="linearGradient3966">
      <stop id="stop3974" style="stop-color:#3c3c3c;stop-opacity:1;" offset="0" />
      <stop offset="0.5" style="stop-color:white;stop-opacity:1;" id="stop3976" />
      <stop id="stop3970" style="stop-color:#3c3c3c;stop-opacity:1;" offset="1" />
    </linearGradient>
    <filter id="filter3174" color-interpolation-filters="sRGB">
      <feGaussianBlur stdDeviation="1.71" id="feGaussianBlur3176" />
    </filter>
    <linearGradient gradientTransform="scale(1.0058652,0.994169)" gradientUnits="userSpaceOnUse" id="ButtonShadow" y2="7.0165396" x2="45.447727" y1="92.539597" x1="45.447727">
      <stop offset="0" style="stop-color:#000000;stop-opacity:1" id="stop3750" />
      <stop offset="1" style="stop-color:#000000;stop-opacity:0.58823532" id="stop3752" />
    </linearGradient>
    <linearGradient gradientUnits="userSpaceOnUse" id="linearGradient4594-3" x1="8.2114201" x2="31.74275" y1="-5.7136502" y2="25.48744">
      <stop offset="0" stop-color="#fff" id="stop37-5-1-3" />
      <stop offset="1" stop-color="#fff" stop-opacity="0" id="stop39-0" />
    </linearGradient>
    <linearGradient inkscape:collect="always" xlink:href="#linearGradient4594-3" id="linearGradient3194" gradientUnits="userSpaceOnUse" gradientTransform="matrix(0.47262675,0,0,0.35616438,-1.3776979,24.863018)" x1="8.2114201" y1="-5.7136502" x2="31.74275" y2="25.48744" />
    <linearGradient inkscape:collect="always" xlink:href="#linearGradient3926" id="linearGradient3215" gradientUnits="userSpaceOnUse" gradientTransform="matrix(0,-0.04591836,0.07407406,0,-0.77777749,11.846944)" x1="-694.00006" y1="132.00002" x2="-694.00006" y2="186.00002" />
    <linearGradient inkscape:collect="always" xlink:href="#linearGradient4062" id="linearGradient3221" gradientUnits="userSpaceOnUse" gradientTransform="matrix(0.17857141,0,0,0.19444442,2.4285697,25.333333)" x1="7.2787275" y1="40.941334" x2="88.721275" y2="40.941334" />
    <linearGradient inkscape:collect="always" xlink:href="#linearGradient3966" id="linearGradient3225" gradientUnits="userSpaceOnUse" gradientTransform="matrix(0.04761902,0,0,0.04166665,17.714283,32.749998)" x1="54.994385" y1="15.032819" x2="54.994385" y2="68.967247" />
    <linearGradient inkscape:collect="always" xlink:href="#linearGradient3966" id="linearGradient4002" gradientUnits="userSpaceOnUse" gradientTransform="matrix(0.04761902,0,0,0.04166665,-4.2857138,32.749998)" x1="54.994385" y1="15.032819" x2="54.994385" y2="68.967247" />
    <linearGradient inkscape:collect="always" xlink:href="#linearGradient4109" id="linearGradient4115" x1="12" y1="26" x2="12" y2="39" gradientUnits="userSpaceOnUse" gradientTransform="translate(-1.000001,1)" />
  </defs>
  <sodipodi:namedview id="base" pagecolor="#ffffff" bordercolor="#666666" borderopacity="1.0" inkscape:pageopacity="0.0" inkscape:pageshadow="2" inkscape:zoom="22.627416" inkscape:cx="11.571678" inkscape:cy="10.585264" inkscape:current-layer="layer1" showgrid="true" inkscape:grid-bbox="true" inkscape:document-units="px" inkscape:window-width="1018" inkscape:window-height="908" inkscape:window-x="0" inkscape:window-y="4" inkscape:window-maximized="0" inkscape:snap-to-guides="false" inkscape:snap-grids="true" inkscape:snap-bbox="true">
    <inkscape:grid type="xygrid" id="grid1021" empspacing="5" visible="true" enabled="true" snapvisiblegridlinesonly="true" />
  </sodipodi:namedview>
  <metadata id="metadata4705">
    <rdf:RDF>
      <cc:Work rdf:about="">
        <dc:format>image/svg+xml</dc:format>
        <dc:type rdf:resource="http://purl.org/dc/dcmitype/StillImage" />
        <dc:title />
      </cc:Work>
    </rdf:RDF>
  </metadata>
  <g id="layer1" inkscape:label="Layer 1" inkscape:groupmode="layer" transform="translate(0,-26)">
    <rect rx="0.99999994" width="3.9999988" height="3" ry="1" x="-3.9999988" y="33" id="rect4000" style="fill:url(#linearGradient4002);fill-opacity:1;fill-rule:nonzero;stroke:none" transform="scale(-1,1)" />
    <g id="layer2" style="display:none" transform="translate(5.204491,-179.6879)">
      <rect width="86" height="85" rx="6" ry="6" x="5" y="7" id="rect3745" style="opacity:0.9;fill:url(#ButtonShadow);fill-opacity:1;fill-rule:nonzero;stroke:none;filter:url(#filter3174)" />
    </g>
    <g id="layer4" transform="translate(5.204491,-179.6879)" />
    <path style="color:black;fill:black;fill-opacity:1;fill-rule:nonzero;stroke:none;stroke-width:3;marker:none;visibility:visible;display:inline;overflow:visible;enable-background:accumulate" d="m 2.8695642,45.99261 0.4782608,0 0,0.499029 -0.4782608,0 z" id="rect4256" inkscape:connector-curvature="0" />
    <rect style="fill:url(#linearGradient3225);fill-opacity:1;fill-rule:nonzero;stroke:none" id="rect3186" y="33" x="18" ry="1" height="3" width="3.9999988" rx="0.99999994" />
    <rect width="18" height="4" ry="2" x="1.9999989" y="44" id="rect3122" style="color:black;fill:black;fill-opacity:1;fill-rule:nonzero;stroke:none;stroke-width:1;marker:none;visibility:visible;display:inline;overflow:visible;enable-background:accumulate" rx="1.9999999" />
    <rect style="fill:url(#linearGradient3221);fill-opacity:1;fill-rule:nonzero;stroke:black;stroke-width:1;stroke-miterlimit:4;stroke-opacity:1;stroke-dasharray:none" y="26.5" x="3.499999" ry="3" height="14" width="15" id="rect3171" rx="3.0000002" />
    <rect style="fill:#585858;fill-opacity:1;fill-rule:nonzero;stroke:none" id="rect4030" y="44" x="1.9999989" ry="2" height="3" width="18" rx="1.9999999" />
    <path style="color:black;fill:url(#linearGradient3215);fill-opacity:1;fill-rule:nonzero;stroke:none;stroke-width:1;marker:none;visibility:visible;display:inline;overflow:visible;enable-background:accumulate" d="m 8.9999986,44.857143 0,-2.857143 3.9999994,0 0,2.857143 c 0,0 0,1.142857 -1.999999,1.142857 -2.0000004,0 -2.0000004,-1.142857 -2.0000004,-1.142857 z" id="rect4626" inkscape:connector-curvature="0" sodipodi:nodetypes="cccccc" />
    <path style="font-size:medium;font-style:normal;font-variant:normal;font-weight:normal;font-stretch:normal;text-indent:0;text-align:start;text-decoration:none;line-height:normal;letter-spacing:normal;word-spacing:normal;text-transform:none;direction:ltr;block-progression:tb;writing-mode:lr-tb;text-anchor:start;baseline-shift:baseline;color:black;fill:black;fill-opacity:1;stroke:none;stroke-width:1;marker:none;visibility:visible;display:inline;overflow:visible;enable-background:accumulate;font-family:Sans;-inkscape-font-specification:Sans" d="m 0.99999903,32 0,7 c 0,2 2.08695587,4.000733 3.99999977,4 l 11.9999992,0 c 1.913044,7.33e-4 4,-2 4,-4 l 0,-7 -1,0 0,6 c 0,2 -1,4 -4,4 L 5.9999988,42 C 2.9999989,42 1.9999989,40 1.9999989,38 l 0,-6 z" id="rect4336" inkscape:connector-curvature="0" sodipodi:nodetypes="csccsccsccscc" />
    <path style="color:black;fill:white;fill-opacity:0.50196078;fill-rule:nonzero;stroke:none;stroke-width:3;marker:none;visibility:visible;display:inline;overflow:visible;enable-background:accumulate" d="m 12.528887,30 c -0.295467,0 -0.528889,0.223 -0.528889,0.5 0,0.277 0.233422,0.5 0.528889,0.5 l 5.471111,0 0,-1 z" id="path4022" inkscape:connector-curvature="0" sodipodi:nodetypes="sssccs" />
    <path style="color:black;fill:black;fill-opacity:1;fill-rule:nonzero;stroke:none;stroke-width:3;marker:none;visibility:visible;display:inline;overflow:visible;enable-background:accumulate" d="m 12.488695,29 c -0.297303,0 -0.532175,0.223 -0.532175,0.5 0,0.277 0.234872,0.5 0.532175,0.5 l 5.511303,0 0,-1 z" id="path4030" inkscape:connector-curvature="0" sodipodi:nodetypes="sssccs" />
    <rect style="color:black;fill:aqua;fill-opacity:1;stroke:none;stroke-width:0.99999994;marker:none;visibility:visible;display:inline;overflow:visible;enable-background:accumulate" id="rect4668" width="1.9999999" height="1" x="9.999999" y="38" />
    <path sodipodi:nodetypes="sssccs" inkscape:connector-curvature="0" id="path4034" d="m 12.528887,32 c -0.295467,0 -0.528889,0.223 -0.528889,0.5 0,0.277 0.233422,0.5 0.528889,0.5 l 5.471111,0 0,-1 z" style="color:black;fill:white;fill-opacity:0.50196078;fill-rule:nonzero;stroke:none;stroke-width:3;marker:none;visibility:visible;display:inline;overflow:visible;enable-background:accumulate" />
    <path sodipodi:nodetypes="sssccs" inkscape:connector-curvature="0" id="path4036" d="m 12.488695,31 c -0.297303,0 -0.532175,0.223 -0.532175,0.5 0,0.277 0.234872,0.5 0.532175,0.5 l 5.511303,0 0,-1 z" style="color:black;fill:black;fill-opacity:1;fill-rule:nonzero;stroke:none;stroke-width:3;marker:none;visibility:visible;display:inline;overflow:visible;enable-background:accumulate" />
    <path style="color:black;fill:white;fill-opacity:0.50196078;fill-rule:nonzero;stroke:none;stroke-width:3;marker:none;visibility:visible;display:inline;overflow:visible;enable-background:accumulate" d="m 12.528887,34 c -0.295467,0 -0.528889,0.223 -0.528889,0.5 0,0.277 0.233422,0.5 0.528889,0.5 l 5.471111,0 0,-1 z" id="path4038" inkscape:connector-curvature="0" sodipodi:nodetypes="sssccs" />
    <path style="color:black;fill:black;fill-opacity:1;fill-rule:nonzero;stroke:none;stroke-width:3;marker:none;visibility:visible;display:inline;overflow:visible;enable-background:accumulate" d="m 12.488695,33 c -0.297303,0 -0.532175,0.223 -0.532175,0.5 0,0.277 0.234872,0.5 0.532175,0.5 l 5.511303,0 0,-1 z" id="path4040" inkscape:connector-curvature="0" sodipodi:nodetypes="sssccs" />
    <path sodipodi:nodetypes="sssccs" inkscape:connector-curvature="0" id="path4042" d="m 12.528887,36 c -0.295467,0 -0.528889,0.223 -0.528889,0.5 0,0.277 0.233422,0.5 0.528889,0.5 l 5.471111,0 0,-1 z" style="color:black;fill:white;fill-opacity:0.50196078;fill-rule:nonzero;stroke:none;stroke-width:3;marker:none;visibility:visible;display:inline;overflow:visible;enable-background:accumulate" />
    <path sodipodi:nodetypes="sssccs" inkscape:connector-curvature="0" id="path4044" d="m 12.488695,35 c -0.297303,0 -0.532175,0.223 -0.532175,0.5 0,0.277 0.234872,0.5 0.532175,0.5 l 5.511303,0 0,-1 z" style="color:black;fill:black;fill-opacity:1;fill-rule:nonzero;stroke:none;stroke-width:3;marker:none;visibility:visible;display:inline;overflow:visible;enable-background:accumulate" />
    <path sodipodi:nodetypes="sssccs" inkscape:connector-curvature="0" id="path4046" d="m 9.4711096,30 c 0.295467,0 0.528889,0.223 0.528889,0.5 0,0.277 -0.233422,0.5 -0.528889,0.5 l -5.4711108,0 0,-1 z" style="color:black;fill:white;fill-opacity:0.50196078;fill-rule:nonzero;stroke:none;stroke-width:3;marker:none;visibility:visible;display:inline;overflow:visible;enable-background:accumulate" />
    <path sodipodi:nodetypes="sssccs" inkscape:connector-curvature="0" id="path4048" d="m 9.5113016,29 c 0.297303,0 0.5321754,0.223 0.5321754,0.5 0,0.277 -0.2348724,0.5 -0.5321754,0.5 l -5.5113028,0 0,-1 z" style="color:black;fill:black;fill-opacity:1;fill-rule:nonzero;stroke:none;stroke-width:3;marker:none;visibility:visible;display:inline;overflow:visible;enable-background:accumulate" />
    <path style="color:black;fill:white;fill-opacity:0.50196078;fill-rule:nonzero;stroke:none;stroke-width:3;marker:none;visibility:visible;display:inline;overflow:visible;enable-background:accumulate" d="m 9.4711096,32 c 0.295467,0 0.528889,0.223 0.528889,0.5 0,0.277 -0.233422,0.5 -0.528889,0.5 l -5.4711108,0 0,-1 z" id="path4050" inkscape:connector-curvature="0" sodipodi:nodetypes="sssccs" />
    <path style="color:black;fill:black;fill-opacity:1;fill-rule:nonzero;stroke:none;stroke-width:3;marker:none;visibility:visible;display:inline;overflow:visible;enable-background:accumulate" d="m 9.5113016,31 c 0.297303,0 0.5321754,0.223 0.5321754,0.5 0,0.277 -0.2348724,0.5 -0.5321754,0.5 l -5.5113028,0 0,-1 z" id="path4052" inkscape:connector-curvature="0" sodipodi:nodetypes="sssccs" />
    <path sodipodi:nodetypes="sssccs" inkscape:connector-curvature="0" id="path4054" d="m 9.4711096,34 c 0.295467,0 0.528889,0.223 0.528889,0.5 0,0.277 -0.233422,0.5 -0.528889,0.5 l -5.4711108,0 0,-1 z" style="color:black;fill:white;fill-opacity:0.50196078;fill-rule:nonzero;stroke:none;stroke-width:3;marker:none;visibility:visible;display:inline;overflow:visible;enable-background:accumulate" />
    <path sodipodi:nodetypes="sssccs" inkscape:connector-curvature="0" id="path4056" d="m 9.5113016,33 c 0.297303,0 0.5321754,0.223 0.5321754,0.5 0,0.277 -0.2348724,0.5 -0.5321754,0.5 l -5.5113028,0 0,-1 z" style="color:black;fill:black;fill-opacity:1;fill-rule:nonzero;stroke:none;stroke-width:3;marker:none;visibility:visible;display:inline;overflow:visible;enable-background:accumulate" />
    <path style="color:black;fill:white;fill-opacity:0.50196078;fill-rule:nonzero;stroke:none;stroke-width:3;marker:none;visibility:visible;display:inline;overflow:visible;enable-background:accumulate" d="m 9.4711096,36 c 0.295467,0 0.528889,0.223 0.528889,0.5 0,0.277 -0.233422,0.5 -0.528889,0.5 l -5.4711108,0 0,-1 z" id="path4058" inkscape:connector-curvature="0" sodipodi:nodetypes="sssccs" />
    <path style="color:black;fill:black;fill-opacity:1;fill-rule:nonzero;stroke:none;stroke-width:3;marker:none;visibility:visible;display:inline;overflow:visible;enable-background:accumulate" d="m 9.5113016,35 c 0.297303,0 0.5321754,0.223 0.5321754,0.5 0,0.277 -0.2348724,0.5 -0.5321754,0.5 l -5.5113028,0 0,-1 z" id="path4060" inkscape:connector-curvature="0" sodipodi:nodetypes="sssccs" />
    <path style="opacity:0.98999999;fill:url(#linearGradient3194)" inkscape:connector-curvature="0" d="m 6.9999987,27 8.9999993,0 c 1,0 2,1 2,2 l -1e-6,11 -6.098132,0 z" id="path57-5-0" sodipodi:nodetypes="cssccc" />
    <rect id="rect4102" width="13" height="12" ry="2" x="4.499999" y="27.5" style="fill:none;stroke:url(#linearGradient4115);stroke-width:1;stroke-miterlimit:4;stroke-opacity:1;stroke-dasharray:none" rx="2" />
  </g>
</svg>
