<?xml version="1.0" encoding="UTF-8" standalone="no"?>
<!-- Created with Inkscape (http://www.inkscape.org/) -->

<svg xmlns:dc="http://purl.org/dc/elements/1.1/" xmlns:cc="http://creativecommons.org/ns#" xmlns:rdf="http://www.w3.org/1999/02/22-rdf-syntax-ns#" xmlns:svg="http://www.w3.org/2000/svg" xmlns="http://www.w3.org/2000/svg" xmlns:xlink="http://www.w3.org/1999/xlink" xmlns:sodipodi="http://sodipodi.sourceforge.net/DTD/sodipodi-0.dtd" xmlns:inkscape="http://www.inkscape.org/namespaces/inkscape" width="22" height="22" id="svg6662" version="1.1" inkscape:version="0.48.3.1 r9886" sodipodi:docname="gtk-harddisk.svg">
  <defs id="defs6664">
    <linearGradient y2="11.02436" y1="3.0069399" x2="0" id="linearGradient1022-8-8-3-0-06-59" gradientUnits="userSpaceOnUse">
      <stop id="stop3001-0-9-4-9-02" offset="0" />
      <stop id="stop3003-5-6-6-5-70" stop-color="#363636" offset="1" />
    </linearGradient>
    <linearGradient inkscape:collect="always" xlink:href="#linearGradient1022-8-8-3-0-06-59" id="linearGradient3819" gradientUnits="userSpaceOnUse" gradientTransform="matrix(1.6799908,0,0,1.5097214,-348.975,-8.8980788)" x1="213.08154" y1="7.8809905" x2="213.08154" y2="21.128468" />
  </defs>
  <sodipodi:namedview id="base" pagecolor="#ffffff" bordercolor="#666666" borderopacity="1.0" inkscape:pageopacity="0.0" inkscape:pageshadow="2" inkscape:zoom="16" inkscape:cx="16.874085" inkscape:cy="12.70467" inkscape:document-units="px" inkscape:current-layer="capa1" showgrid="true" inkscape:showpageshadow="false" inkscape:window-width="730" inkscape:window-height="702" inkscape:window-x="118" inkscape:window-y="75" inkscape:window-maximized="0">
    <inkscape:grid type="xygrid" id="grid3199" empspacing="5" visible="true" enabled="true" snapvisiblegridlinesonly="true" />
  </sodipodi:namedview>
  <metadata id="metadata6667">
    <rdf:RDF>
      <cc:Work rdf:about="">
        <dc:format>image/svg+xml</dc:format>
        <dc:type rdf:resource="http://purl.org/dc/dcmitype/StillImage" />
        <dc:title />
      </cc:Work>
    </rdf:RDF>
  </metadata>
  <g inkscape:label="Capa 1" inkscape:groupmode="layer" id="capa1" transform="translate(0,-1030.3622)">
    <rect y="1029.3622" x="-1" height="23.999996" width="23.999996" id="rect3123" style="opacity:0.6;color:#000000;fill:none;stroke:none;stroke-width:1;marker:none;visibility:visible;display:inline;overflow:visible;enable-background:accumulate" />
    <path id="path3822" d="m 4.000003,1032.3622 -3,3 0,14 3,3 14,0 3,-3 0,-14 -3,-3 -14,0 z m 1,2 12,0 2,2 0,10 -2,2 -12,0 -2,-2 0,-10 2,-2 z m 0.5,2 c -0.2761425,0 -0.5,0.2238 -0.5,0.5 0,0.2761 0.2238575,0.5 0.5,0.5 0.2761424,0 0.5,-0.2239 0.5,-0.5 0,-0.2762 -0.2238576,-0.5 -0.5,-0.5 z m 11,0 c -0.276142,0 -0.5,0.2238 -0.5,0.5 0,0.2761 0.223858,0.5 0.5,0.5 0.276142,0 0.5,-0.2239 0.5,-0.5 0,-0.2762 -0.223858,-0.5 -0.5,-0.5 z m -5.5,1 c -2.2091381,0 -4,1.7908 -4,4 0,2.2091 1.7908619,4 4,4 2.209139,0 4,-1.7909 4,-4 0,-2.2092 -1.790861,-4 -4,-4 z m 0,2 c 1.104572,0 2,0.8954 2,2 0,1.1046 -0.895428,2 -2,2 -1.104571,0 -2,-0.8954 -2,-2 0,-1.1046 0.895429,-2 2,-2 z m -5.5,7 c -0.2761425,0 -0.5,0.2238 -0.5,0.5 0,0.2761 0.2238575,0.5 0.5,0.5 0.2761424,0 0.5,-0.2239 0.5,-0.5 0,-0.2762 -0.2238576,-0.5 -0.5,-0.5 z m 11,0 c -0.276142,0 -0.5,0.2238 -0.5,0.5 0,0.2761 0.223858,0.5 0.5,0.5 0.276142,0 0.5,-0.2239 0.5,-0.5 0,-0.2762 -0.223858,-0.5 -0.5,-0.5 z m -1.5,4 2,0 0,1 -2,0 0,-1 z" style="opacity:0.6;color:#000000;fill:#ffffff;fill-opacity:1;fill-rule:nonzero;stroke:none;stroke-width:0.66666675;marker:none;visibility:visible;display:inline;overflow:visible;enable-background:accumulate" inkscape:connector-curvature="0" />
    <path style="opacity:0.7;color:#000000;fill:url(#linearGradient3819);fill-opacity:1;fill-rule:nonzero;stroke:none;stroke-width:1;marker:none;visibility:visible;display:inline;overflow:visible;enable-background:accumulate" d="m 4.000003,1031.3622 -3,3 0,14 3,3 14,0 3,-3 0,-14 -3,-3 -14,0 z m 1,2 12,0 2,2 0,10 -2,2 -12,0 -2,-2 0,-10 2,-2 z m 0.5,2 c -0.2761425,0 -0.5,0.2238 -0.5,0.5 0,0.2761 0.2238575,0.5 0.5,0.5 0.2761424,0 0.5,-0.2239 0.5,-0.5 0,-0.2762 -0.2238576,-0.5 -0.5,-0.5 z m 11,0 c -0.276142,0 -0.5,0.2238 -0.5,0.5 0,0.2761 0.223858,0.5 0.5,0.5 0.276142,0 0.5,-0.2239 0.5,-0.5 0,-0.2762 -0.223858,-0.5 -0.5,-0.5 z m -5.5,1 c -2.2091381,0 -4,1.7908 -4,4 0,2.2091 1.7908619,4 4,4 2.209139,0 4,-1.7909 4,-4 0,-2.2092 -1.790861,-4 -4,-4 z m 0,2 c 1.104572,0 2,0.8954 2,2 0,1.1046 -0.895428,2 -2,2 -1.104571,0 -2,-0.8954 -2,-2 0,-1.1046 0.895429,-2 2,-2 z m -5.5,7 c -0.2761425,0 -0.5,0.2238 -0.5,0.5 0,0.2761 0.2238575,0.5 0.5,0.5 0.2761424,0 0.5,-0.2239 0.5,-0.5 0,-0.2762 -0.2238576,-0.5 -0.5,-0.5 z m 11,0 c -0.276142,0 -0.5,0.2238 -0.5,0.5 0,0.2761 0.223858,0.5 0.5,0.5 0.276142,0 0.5,-0.2239 0.5,-0.5 0,-0.2762 -0.223858,-0.5 -0.5,-0.5 z m -1.5,4 2,0 0,1 -2,0 0,-1 z" id="path3002" inkscape:connector-curvature="0" />
  </g>
</svg>
