<?xml version="1.0" encoding="UTF-8" standalone="no"?>
<!-- Created with Inkscape (http://www.inkscape.org/) -->

<svg xmlns:dc="http://purl.org/dc/elements/1.1/" xmlns:cc="http://creativecommons.org/ns#" xmlns:rdf="http://www.w3.org/1999/02/22-rdf-syntax-ns#" xmlns:svg="http://www.w3.org/2000/svg" xmlns="http://www.w3.org/2000/svg" xmlns:xlink="http://www.w3.org/1999/xlink" xmlns:sodipodi="http://sodipodi.sourceforge.net/DTD/sodipodi-0.dtd" xmlns:inkscape="http://www.inkscape.org/namespaces/inkscape" width="22" height="22" id="svg4700" version="1.1" inkscape:version="0.48.4 r9939" sodipodi:docname="media-optical.svg">
  <defs id="defs4702">
    <linearGradient id="linearGradient4517">
      <stop style="stop-color:white;stop-opacity:0.50196081;" offset="0" id="stop4519" />
      <stop style="stop-color:#ffffff;stop-opacity:0;" offset="1" id="stop4521" />
    </linearGradient>
    <filter id="filter3174" color-interpolation-filters="sRGB">
      <feGaussianBlur stdDeviation="1.71" id="feGaussianBlur3176" />
    </filter>
    <linearGradient gradientTransform="scale(1.0058652,0.994169)" gradientUnits="userSpaceOnUse" id="ButtonShadow" y2="7.0165396" x2="45.447727" y1="92.539597" x1="45.447727">
      <stop offset="0" style="stop-color:#000000;stop-opacity:1" id="stop3750" />
      <stop offset="1" style="stop-color:#000000;stop-opacity:0.58823532" id="stop3752" />
    </linearGradient>
    <linearGradient inkscape:collect="always" xlink:href="#linearGradient4517" id="linearGradient3874" gradientUnits="userSpaceOnUse" gradientTransform="matrix(0.51315109,0,0,0.49959198,-1.3214047,24.797305)" x1="22.440199" y1="4.8942533" x2="22.440199" y2="38.21666" />
    <linearGradient id="linearGradient6036">
      <stop offset="0" style="stop-color:#ffffff;stop-opacity:1" id="stop6038" />
      <stop offset="1" style="stop-color:#ffffff;stop-opacity:0" id="stop6040" />
    </linearGradient>
    <linearGradient gradientUnits="userSpaceOnUse" id="linearGradient3263" y2="14.2033" x2="35.391201" y1="32.4165" x1="12.2744">
      <stop offset="0" style="stop-color:#c7c7c7;stop-opacity:1;" id="stop3265" />
      <stop offset="0.5" style="stop-color:#eaeaea;stop-opacity:1;" id="stop3267" />
      <stop offset="1" style="stop-color:#c7c7c7;stop-opacity:1;" id="stop3269" />
    </linearGradient>
    <linearGradient id="linearGradient3772">
      <stop offset="0" style="stop-color:#898989;stop-opacity:1;" id="stop3774" />
      <stop offset="1" style="stop-color:#000000;stop-opacity:1;" id="stop3776" />
    </linearGradient>
    <filter inkscape:collect="always" id="filter4201" x="-0.29339999" width="1.5868" y="-0.29636365" height="1.5927273" color-interpolation-filters="sRGB">
      <feGaussianBlur inkscape:collect="always" stdDeviation="0.7640625" id="feGaussianBlur4203" />
    </filter>
    <filter color-interpolation-filters="sRGB" inkscape:collect="always" id="filter4201-5" x="-0.29339999" width="1.5868" y="-0.29636365" height="1.5927273">
      <feGaussianBlur inkscape:collect="always" stdDeviation="0.7640625" id="feGaussianBlur4203-6" />
    </filter>
    <filter id="filter3174-8" color-interpolation-filters="sRGB">
      <feGaussianBlur stdDeviation="1.71" id="feGaussianBlur3176-3" />
    </filter>
    <linearGradient gradientTransform="scale(1.0058652,0.994169)" gradientUnits="userSpaceOnUse" id="ButtonShadow-7" y2="7.0165396" x2="45.447727" y1="92.539597" x1="45.447727">
      <stop offset="0" style="stop-color:#000000;stop-opacity:1" id="stop3750-5" />
      <stop offset="1" style="stop-color:#000000;stop-opacity:0.58823532" id="stop3752-1" />
    </linearGradient>
    <linearGradient id="linearGradient3322-2">
      <stop id="stop3326-9" style="stop-color:#000000;stop-opacity:1;" offset="0" />
      <stop id="stop3330-1" style="stop-color:#000000;stop-opacity:0;" offset="1" />
    </linearGradient>
    <linearGradient x1="45.447727" y1="92.539597" x2="45.447727" y2="7.0165396" id="ButtonShadow-6" gradientUnits="userSpaceOnUse" gradientTransform="scale(1.0058652,0.994169)">
      <stop id="stop3750-1" style="stop-color:#000000;stop-opacity:1" offset="0" />
      <stop id="stop3752-8" style="stop-color:#000000;stop-opacity:0.58823532" offset="1" />
    </linearGradient>
    <filter color-interpolation-filters="sRGB" id="filter3174-9">
      <feGaussianBlur id="feGaussianBlur3176-2" stdDeviation="1.71" />
    </filter>
    <linearGradient id="linearGradient4390">
      <stop id="stop4392" offset="0" style="stop-color:white;stop-opacity:0.50196081;" />
      <stop id="stop4394" offset="1" style="stop-color:#ffffff;stop-opacity:0;" />
    </linearGradient>
    <linearGradient id="linearGradient4009">
      <stop style="stop-color:#ffffff;stop-opacity:0;" offset="0" id="stop4012" />
      <stop id="stop4017" offset="0.5" style="stop-color:#ffffff;stop-opacity:0.54901963;" />
      <stop style="stop-color:#ffffff;stop-opacity:0;" offset="1" id="stop4014" />
    </linearGradient>
    <linearGradient inkscape:collect="always" xlink:href="#ButtonShadow-6" id="linearGradient3244" gradientUnits="userSpaceOnUse" gradientTransform="scale(1.0058652,0.994169)" x1="45.447727" y1="92.539597" x2="45.447727" y2="7.0165396" />
    <linearGradient inkscape:collect="always" xlink:href="#ButtonShadow-7" id="linearGradient3246" gradientUnits="userSpaceOnUse" gradientTransform="scale(1.0058652,0.994169)" x1="45.447727" y1="92.539597" x2="45.447727" y2="7.0165396" />
    <linearGradient inkscape:collect="always" xlink:href="#linearGradient4009" id="linearGradient3265" gradientUnits="userSpaceOnUse" gradientTransform="matrix(1,0,0,0.54545454,-56.000002,0.363635)" x1="11.625" y1="3.3750012" x2="11.625" y2="35.125988" />
    <linearGradient inkscape:collect="always" xlink:href="#linearGradient4390" id="linearGradient3268" gradientUnits="userSpaceOnUse" x1="11.625" y1="3.3750012" x2="11.625" y2="35.125988" gradientTransform="matrix(1,0,0,0.48484849,-7.0000011,26.545454)" />
    <linearGradient inkscape:collect="always" xlink:href="#linearGradient3322-2" id="linearGradient3297" gradientUnits="userSpaceOnUse" gradientTransform="matrix(0.15384614,0,0,0.15496368,0.076923,33.053269)" x1="6" y1="77.09375" x2="32" y2="77.09375" />
    <linearGradient inkscape:collect="always" xlink:href="#linearGradient3173-0-2" id="linearGradient3294-8" gradientUnits="userSpaceOnUse" gradientTransform="matrix(0.4643436,0,0,0.47228973,26.717556,-57.336171)" x1="-38.156132" y1="176.45137" x2="-38.156132" y2="212.44623" />
    <linearGradient id="linearGradient3173-0-2">
      <stop id="stop3187-4-1" style="stop-color:#d2d2d2;stop-opacity:1;" offset="0" />
      <stop id="stop3177-5-9" style="stop-color:#3b3b3b;stop-opacity:1;" offset="1" />
    </linearGradient>
    <linearGradient inkscape:collect="always" xlink:href="#linearGradient3322-2" id="linearGradient4147" gradientUnits="userSpaceOnUse" gradientTransform="matrix(-0.15384614,0,0,0.15496368,21.923077,33.053269)" x1="6" y1="77.09375" x2="32" y2="77.09375" />
    <linearGradient inkscape:collect="always" xlink:href="#linearGradient6036" id="linearGradient4189" gradientUnits="userSpaceOnUse" gradientTransform="matrix(0.15153457,0,0,0.15153304,8.8106129,31.71168)" x1="10.50172" y1="3.6100161" x2="48.798885" y2="54.698483" />
    <linearGradient inkscape:collect="always" xlink:href="#linearGradient6036" id="linearGradient4192" gradientUnits="userSpaceOnUse" gradientTransform="matrix(0.30306661,0,0,0.3030635,5.1212369,27.923354)" x1="10.50172" y1="3.6100161" x2="48.798885" y2="54.698483" />
    <linearGradient inkscape:collect="always" xlink:href="#linearGradient3263" id="linearGradient4216" gradientUnits="userSpaceOnUse" gradientTransform="matrix(0,0.31238379,-0.3123838,0,19.716067,28.002787)" x1="12.2744" y1="32.4165" x2="35.391201" y2="14.2033" />
    <linearGradient inkscape:collect="always" xlink:href="#linearGradient3772" id="linearGradient4218" gradientUnits="userSpaceOnUse" gradientTransform="matrix(0.26666674,0,0,0.26666674,19.504019,29.099998)" x1="-21.915663" y1="3" x2="-21.915663" y2="45.032898" />
    <linearGradient id="linearGradient986-3-9">
      <stop id="stop988-9-8" offset="0" style="stop-color:#ffffff;stop-opacity:1;" />
      <stop id="stop990-4-7" offset="1" style="stop-color:#ffffff;stop-opacity:0;" />
    </linearGradient>
    <linearGradient inkscape:collect="always" xlink:href="#linearGradient986-3-9" id="linearGradient4421" gradientUnits="userSpaceOnUse" gradientTransform="matrix(0.51680285,0,0,0.46575344,-1.7393275,24.20548)" x1="18.674173" y1="3.8322909" x2="34.45406" y2="25.487436" />
  </defs>
  <sodipodi:namedview id="base" pagecolor="#ffffff" bordercolor="#666666" borderopacity="1.0" inkscape:pageopacity="0.0" inkscape:pageshadow="2" inkscape:zoom="17.309385" inkscape:cx="14.829549" inkscape:cy="14.267984" inkscape:current-layer="layer1" showgrid="true" inkscape:grid-bbox="true" inkscape:document-units="px" inkscape:window-width="1280" inkscape:window-height="976" inkscape:window-x="0" inkscape:window-y="24" inkscape:window-maximized="1" inkscape:snap-to-guides="false" inkscape:snap-grids="true" inkscape:snap-page="false" inkscape:snap-object-midpoints="false" inkscape:snap-midpoints="false" inkscape:snap-bbox="true" inkscape:snap-nodes="true" inkscape:snap-global="true">
    <inkscape:grid type="xygrid" id="grid1021" empspacing="5" visible="true" enabled="true" snapvisiblegridlinesonly="true" />
  </sodipodi:namedview>
  <metadata id="metadata4705">
    <rdf:RDF>
      <cc:Work rdf:about="">
        <dc:format>image/svg+xml</dc:format>
        <dc:type rdf:resource="http://purl.org/dc/dcmitype/StillImage" />
        <dc:title />
      </cc:Work>
    </rdf:RDF>
  </metadata>
  <g id="layer1" inkscape:label="Layer 1" inkscape:groupmode="layer" transform="translate(0,-26)">
    <g id="layer2" style="display:none" transform="translate(5.204491,-179.6879)">
      <rect width="86" height="85" rx="6" ry="6" x="5" y="7" id="rect3745" style="opacity:0.9;fill:url(#ButtonShadow);fill-opacity:1;fill-rule:nonzero;stroke:none;filter:url(#filter3174)" />
    </g>
    <g id="layer4" transform="translate(4.204491,-178.6879)" />
    <path style="color:black;fill:#515151;fill-opacity:1;fill-rule:nonzero;stroke:#303030;stroke-width:1;stroke-linecap:butt;stroke-linejoin:miter;stroke-miterlimit:4;stroke-opacity:1;stroke-dasharray:none;stroke-dashoffset:0;marker:none;visibility:visible;display:inline;overflow:visible;enable-background:accumulate" id="rect3243" inkscape:connector-curvature="0" d="m 21.5,41.5 0,4.605326 C 21.5,46.877975 20.831,47.5 20,47.5 l -18,0 C 1.169,47.5 0.5,46.877975 0.5,46.105326 L 0.5,41.5 l 21,0 z" />
    <path sodipodi:nodetypes="cssccc" d="m 21,43 0,3.176755 C 21,46.691855 20.694077,47 20.182692,47 L 17,47 17,43 z" inkscape:connector-curvature="0" id="path4145" style="opacity:0.8;fill:url(#linearGradient4147);fill-opacity:1;fill-rule:nonzero;stroke:none" />
    <path style="opacity:0.8;fill:url(#linearGradient3297);fill-opacity:1;fill-rule:nonzero;stroke:none" id="path3263-7" inkscape:connector-curvature="0" d="m 1,43 0,3.176755 C 1,46.691855 1.305923,47 1.8173077,47 L 5,47 5,43 z" sodipodi:nodetypes="cssccc" />
    <rect style="color:black;fill:url(#linearGradient3294-8);fill-opacity:1;fill-rule:nonzero;stroke:#303030;stroke-width:0.9951371;stroke-linecap:butt;stroke-linejoin:miter;stroke-miterlimit:4;stroke-opacity:1;stroke-dasharray:none;stroke-dashoffset:0;marker:none;visibility:visible;display:inline;overflow:visible;enable-background:accumulate" id="rect3171" y="26.5" x="0.5" ry="2" height="18" width="21" rx="2" />
    <g id="layer2-8" style="display:none" transform="translate(31.21054,-160.6879)">
      <rect width="86" height="85" rx="6" ry="6" x="5" y="7" id="rect3745-1" style="opacity:0.9;fill:url(#linearGradient3244);fill-opacity:1;fill-rule:nonzero;stroke:none;filter:url(#filter3174-9)" />
    </g>
    <g id="layer4-84" transform="translate(30.21054,-159.6879)" />
    <g id="layer2-6" style="display:none" transform="translate(-26.961864,-158.17602)">
      <rect width="86" height="85" rx="6" ry="6" x="5" y="7" id="rect3745-4" style="opacity:0.9;fill:url(#linearGradient3246);fill-opacity:1;fill-rule:nonzero;stroke:none;filter:url(#filter3174-8)" />
    </g>
    <g id="layer4-8" transform="translate(-27.961864,-157.17602)" />
    <path id="path2781" style="fill:url(#linearGradient4216);fill-rule:nonzero;stroke:url(#linearGradient4218);stroke-width:0.99999988;stroke-miterlimit:4;stroke-opacity:1" d="m 14.5,35.5 c 0,1.100835 -0.877138,2 -2,2 -1.144888,0 -2,-0.921416 -2,-2 0,-1.100614 0.811058,-2.000001 2,-2.000001 1.188943,0 2,0.921193 2,2.000001 z m 5.000001,0 c 0,-3.880036 -3.119966,-7.000001 -7.000001,-7.000001 -3.8800361,0 -6.9999998,3.119966 -6.9999998,7.000001 -1.1e-6,3.880035 3.1199642,7 6.9999998,7 3.880035,-10e-7 7.000001,-3.119964 7.000001,-7 z" inkscape:connector-curvature="0" />
    <path inkscape:connector-curvature="0" d="m 12.5,29.5 c -3.325714,0 -6.0000001,2.674259 -6.0000001,5.999939 0,3.325681 2.6742861,5.99994 6.0000001,5.99994 3.325714,0 6,-2.674259 6,-5.99994 C 18.5,32.174259 15.825714,29.5 12.5,29.5 l 0,0 0,0 z" id="path3272" style="opacity:0.5;fill:none;stroke:url(#linearGradient4192);stroke-width:0.99999994;stroke-miterlimit:4;stroke-opacity:1" />
    <path style="opacity:0.5;fill:none;stroke:url(#linearGradient4189);stroke-width:0.99999994;stroke-miterlimit:4;stroke-opacity:1" id="path4448" d="M 12.500026,32.50001 C 10.837154,32.50001 9.5,33.837151 9.5,35.500005 c 0,1.662855 1.337154,2.999996 3.000026,2.999996 1.66287,0 3.000026,-1.337141 3.000026,-2.999996 0,-1.662854 -1.337156,-2.999995 -3.000026,-2.999995 l 0,0 0,0 z" inkscape:connector-curvature="0" />
    <g id="g4199" transform="matrix(0.83369473,0,0,0.79432822,1.1220988,7.2403729)">
      <path transform="matrix(0.54192636,-0.0946568,0.09465775,0.5419209,-2.3726881,24.466522)" inkscape:connector-curvature="0" id="path4189" d="m 28.8125,28.46875 c -0.25654,0.278787 -0.535253,0.545586 -0.84375,0.75 l 3.90625,5.4375 c 0.897215,-0.622683 1.6661,-1.396676 2.34375,-2.28125 L 28.8125,28.46875 z M 27.90625,29.25 c -0.362666,0.232712 -0.730114,0.436814 -1.125,0.5625 l 1.75,6.40625 c 1.200446,-0.329979 2.293161,-0.855069 3.28125,-1.53125 L 27.90625,29.25 z" style="opacity:0.50822365;fill:#01ff60;fill-opacity:1;fill-rule:nonzero;stroke:none;filter:url(#filter4201)" />
      <path transform="matrix(0.54192636,-0.0946568,0.09465775,0.5419209,-2.3726881,24.466522)" sodipodi:nodetypes="ccccc" inkscape:connector-curvature="0" id="path4488" d="m 16.157098,17.705442 c 0,0 1.795233,-2.468446 5.834507,-4.039275 l 1.122021,5.722306 C 21.879403,19.612877 20.981787,20.8471 20.981787,20.8471 z" style="opacity:0.50822365;color:black;fill:#01ff60;fill-opacity:1;fill-rule:nonzero;stroke:none;marker:none;visibility:visible;display:inline;overflow:visible;filter:url(#filter4201-5);enable-background:accumulate" />
      <path style="opacity:0.50822365;fill:#eeff01;fill-opacity:1;fill-rule:nonzero;stroke:none;filter:url(#filter4201)" d="m 28.8125,28.46875 c -0.25654,0.278787 -0.535253,0.545586 -0.84375,0.75 l 3.90625,5.4375 c 0.897215,-0.622683 1.6661,-1.396676 2.34375,-2.28125 L 28.8125,28.46875 z M 27.90625,29.25 c -0.362666,0.232712 -0.730114,0.436814 -1.125,0.5625 l 1.75,6.40625 c 1.200446,-0.329979 2.293161,-0.855069 3.28125,-1.53125 L 27.90625,29.25 z" id="path4525" inkscape:connector-curvature="0" transform="matrix(0.46218652,0.18148341,-0.18148524,0.46218186,6.3688427,19.642803)" />
      <path style="opacity:0.50822365;color:black;fill:#eeff01;fill-opacity:1;fill-rule:nonzero;stroke:none;marker:none;visibility:visible;display:inline;overflow:visible;filter:url(#filter4201-5);enable-background:accumulate" d="m 16.157098,17.705442 c 0,0 1.795233,-2.468446 5.834507,-4.039275 l 1.122021,5.722306 C 21.879403,19.612877 20.981787,20.8471 20.981787,20.8471 z" id="path4527" inkscape:connector-curvature="0" sodipodi:nodetypes="ccccc" transform="matrix(0.46602435,0.18299038,-0.18299223,0.46601966,6.6095441,19.186597)" />
      <path transform="matrix(0.26300497,0.42116277,-0.42116701,0.26300232,17.289453,18.481793)" inkscape:connector-curvature="0" id="path4373" d="m 28.8125,28.46875 c -0.25654,0.278787 -0.535253,0.545586 -0.84375,0.75 l 3.90625,5.4375 c 0.897215,-0.622683 1.6661,-1.396676 2.34375,-2.28125 L 28.8125,28.46875 z M 27.90625,29.25 c -0.362666,0.232712 -0.730114,0.436814 -1.125,0.5625 l 1.75,6.40625 c 1.200446,-0.329979 2.293161,-0.855069 3.28125,-1.53125 L 27.90625,29.25 z" style="opacity:0.50822365;fill:gray;fill-opacity:0.63895485;fill-rule:nonzero;stroke:none;filter:url(#filter4201)" />
      <path transform="matrix(0.26518887,0.42465996,-0.42466424,0.2651862,17.754611,18.258877)" sodipodi:nodetypes="ccccc" inkscape:connector-curvature="0" id="path4375" d="m 16.157098,17.705442 c 0,0 1.795233,-2.468446 5.834507,-4.039275 l 1.122021,5.722306 C 21.879403,19.612877 20.981787,20.8471 20.981787,20.8471 z" style="opacity:0.50822365;color:black;fill:gray;fill-opacity:0.63895485;fill-rule:nonzero;stroke:none;marker:none;visibility:visible;display:inline;overflow:visible;filter:url(#filter4201-5);enable-background:accumulate" />
    </g>
    <rect style="color:black;fill:url(#linearGradient3268);fill-opacity:1;fill-rule:nonzero;stroke:none;stroke-width:2.66660357;marker:none;visibility:visible;display:inline;overflow:visible;enable-background:accumulate" id="rect4388" width="1" height="16" x="4" y="28" />
    <rect y="2" x="-45" height="18" width="1" id="rect3237" style="color:black;fill:url(#linearGradient3265);fill-opacity:1;fill-rule:nonzero;stroke:none;stroke-width:2.66660357;marker:none;visibility:visible;display:inline;overflow:visible;enable-background:accumulate" transform="matrix(0,-1,1,0,0,0)" />
    <path style="opacity:0.48611109;color:black;fill:black;fill-opacity:1;fill-rule:nonzero;stroke:none;stroke-width:1;marker:none;visibility:visible;display:inline;overflow:visible;enable-background:accumulate" d="M 2.5,27 4,27 4,44 2.5,44 C 1.669,44 1,43.331 1,42.5 l 0,-14 C 1,27.669 1.669,27 2.5,27 z" id="rect4075" inkscape:connector-curvature="0" sodipodi:nodetypes="ccccssc" />
    <path style="color:black;fill:url(#linearGradient4421);fill-opacity:1;stroke:none;stroke-width:0.99999982;marker:none;visibility:visible;display:inline;overflow:visible;enable-background:accumulate" d="m 10,27 9.5,0 c 0.686403,0 1.5,0.796296 1.5,1.5 l 0,15.5 -5.472799,0 z" id="rect966" inkscape:connector-curvature="0" sodipodi:nodetypes="cccccc" />
    <rect width="19" height="16" ry="1" x="1.5" y="27.5" id="rect4513" style="fill:none;stroke:url(#linearGradient3874);stroke-width:0.99999988;stroke-miterlimit:4;stroke-opacity:1;stroke-dasharray:none" rx="1" />
  </g>
</svg>
