<?xml version="1.0" encoding="UTF-8" standalone="no"?>
<svg xmlns:dc="http://purl.org/dc/elements/1.1/" xmlns:cc="http://creativecommons.org/ns#" xmlns:rdf="http://www.w3.org/1999/02/22-rdf-syntax-ns#" xmlns:svg="http://www.w3.org/2000/svg" xmlns="http://www.w3.org/2000/svg" xmlns:xlink="http://www.w3.org/1999/xlink" xmlns:sodipodi="http://sodipodi.sourceforge.net/DTD/sodipodi-0.dtd" xmlns:inkscape="http://www.inkscape.org/namespaces/inkscape" viewBox="0 0 22 22" id="svg2" version="1.1" inkscape:version="0.48.4 r9939" width="100%" height="100%" sodipodi:docname="printer.svg">
  <metadata id="metadata116">
    <rdf:RDF>
      <cc:Work rdf:about="">
        <dc:format>image/svg+xml</dc:format>
        <dc:type rdf:resource="http://purl.org/dc/dcmitype/StillImage" />
        <dc:title />
      </cc:Work>
    </rdf:RDF>
  </metadata>
  <sodipodi:namedview pagecolor="#ffffff" bordercolor="#666666" borderopacity="1" objecttolerance="10" gridtolerance="10" guidetolerance="10" inkscape:pageopacity="0" inkscape:pageshadow="2" inkscape:window-width="1280" inkscape:window-height="976" id="namedview114" showgrid="true" inkscape:zoom="16" inkscape:cx="15.453633" inkscape:cy="13.313437" inkscape:window-x="0" inkscape:window-y="24" inkscape:window-maximized="1" inkscape:current-layer="svg2" showguides="true" inkscape:guide-bbox="true">
    <inkscape:grid type="xygrid" id="grid3038" empspacing="5" visible="true" enabled="true" snapvisiblegridlinesonly="true" />
  </sodipodi:namedview>
  <defs id="defs4">
    <filter y="-0.1437" x="-0.1135" width="1.227" id="filter5517-9" height="1.2874" color-interpolation-filters="sRGB">
      <feGaussianBlur id="feGaussianBlur3492-1" stdDeviation="1.407" />
    </filter>
    <linearGradient y2="35.343102" y1="26.769501" x2="29.1057" x1="17.922001" id="linearGradient5621-9-6" gradientUnits="userSpaceOnUse">
      <stop id="stop3550-4" stop-opacity=".731" offset="0" />
      <stop id="stop3552-7" stop-opacity=".415" offset="1" />
    </linearGradient>
    <linearGradient y2="37.287701" y1="43.8284" x2="29.636" x1="17.391701" id="linearGradient5621-7" gradientUnits="userSpaceOnUse">
      <stop id="stop3545-1" stop-opacity=".706" offset="0" />
      <stop id="stop3547-1" stop-opacity=".353" offset="1" />
    </linearGradient>
    <linearGradient y2="36.1441" y1="19.9025" x2="31.226999" x1="19.0944" id="linearGradient6103" gradientUnits="userSpaceOnUse">
      <stop id="stop3555" stop-color="#fff" offset="0" />
      <stop id="stop3557" stop-opacity="0" stop-color="#fff" offset="1" />
    </linearGradient>
    <linearGradient y2="14.0665" y1="19.5112" x2="0" id="linearGradient5586" gradientUnits="userSpaceOnUse">
      <stop id="stop3540" stop-color="#ceeefb" offset="0" />
      <stop id="stop3542" stop-color="#61a2f4" offset="1" />
    </linearGradient>
    <linearGradient y2="19.9744" y1="21.7652" x2="0" id="linearGradient5584" gradientUnits="userSpaceOnUse">
      <stop id="stop3535" stop-color="#d3b72c" offset="0" />
      <stop id="stop3537" stop-color="#f2ea73" offset="1" />
    </linearGradient>
    <linearGradient y2="19.625" y1="4.9837999" x2="0" id="linearGradient5582" gradientUnits="userSpaceOnUse">
      <stop id="stop3530" stop-color="#999" offset="0" />
      <stop id="stop3532" stop-color="#727272" offset="1" />
    </linearGradient>
    <linearGradient y2="23.709" y1="3.1575999" x2="0" id="linearGradient5527" gradientUnits="userSpaceOnUse">
      <stop id="stop3525" stop-color="#757575" offset="0" />
      <stop id="stop3527" stop-color="#292929" offset="1" />
    </linearGradient>
    <linearGradient id="linearGradient3774-1-0">
      <stop id="stop3520" stop-color="#b3b3b3" offset="0" />
      <stop id="stop3522" stop-color="#e7e7e7" offset="1" />
    </linearGradient>
    <linearGradient x2="-12.1495" x1="-22.9608" id="linearGradient3120" gradientUnits="userSpaceOnUse" gradientTransform="matrix(0,-1.82233,-1.62141,0,68.99015,-18.31992)">
      <stop id="stop3510" stop-color="#fff" offset="0" />
      <stop id="stop3512" stop-color="#cdcdcd" offset="1" />
    </linearGradient>
    <linearGradient x2="23.474001" x1="4.4031" id="linearGradient3104" gradientUnits="userSpaceOnUse">
      <stop id="stop3505" stop-opacity=".502" stop-color="#fff" offset="0" />
      <stop id="stop3507" stop-opacity="0" stop-color="#fff" offset="1" />
    </linearGradient>
    <linearGradient id="linearGradient4050">
      <stop id="stop3495" stop-opacity=".669" stop-color="#fff" offset="0" />
      <stop id="stop3497" stop-opacity="0" stop-color="#fff" offset="1" />
    </linearGradient>
    <linearGradient inkscape:collect="always" xlink:href="#linearGradient5584" id="linearGradient3276" gradientUnits="userSpaceOnUse" y1="21.7652" x2="0" y2="19.9744" />
    <linearGradient inkscape:collect="always" xlink:href="#linearGradient5586" id="linearGradient3278" gradientUnits="userSpaceOnUse" y1="19.5112" x2="0" y2="14.0665" />
    <linearGradient inkscape:collect="always" xlink:href="#linearGradient6103" id="linearGradient4118" gradientUnits="userSpaceOnUse" gradientTransform="matrix(0.49999999,0,0,0.42105261,-0.99999955,2.0526325)" x1="19.0944" y1="19.9025" x2="31.226999" y2="36.1441" />
    <linearGradient inkscape:collect="always" xlink:href="#linearGradient5621-9-6" id="linearGradient4121" gradientUnits="userSpaceOnUse" gradientTransform="matrix(0.49999999,0,0,0.36363634,-0.99999974,3.5454555)" x1="17.922001" y1="26.769501" x2="29.1057" y2="35.343102" />
    <linearGradient inkscape:collect="always" xlink:href="#linearGradient5621-7" id="linearGradient4124" gradientUnits="userSpaceOnUse" gradientTransform="matrix(0.49999999,0,0,0.37499996,-0.9999997,4.1250013)" x1="17.391701" y1="43.8284" x2="29.636" y2="37.287701" />
    <linearGradient inkscape:collect="always" xlink:href="#linearGradient3104" id="linearGradient4146" gradientUnits="userSpaceOnUse" gradientTransform="matrix(0,0.4714288,-0.48148147,0,-0.55555591,-0.5999797)" x1="4.4031" x2="23.474001" />
    <linearGradient inkscape:collect="always" xlink:href="#linearGradient3120" id="linearGradient4150" gradientUnits="userSpaceOnUse" gradientTransform="matrix(0,-0.9545538,-0.83866029,0,34.270765,-10.929482)" x1="-22.9608" x2="-12.1495" />
    <linearGradient inkscape:collect="always" xlink:href="#linearGradient5527" id="linearGradient4152" gradientUnits="userSpaceOnUse" gradientTransform="matrix(0.51724135,0,0,0.52380952,-1.413793,-1.3333334)" y1="3.1575999" x2="0" y2="23.709" />
    <linearGradient inkscape:collect="always" xlink:href="#linearGradient4050" id="linearGradient4156" gradientUnits="userSpaceOnUse" gradientTransform="matrix(0.48685977,0,0,0.47949408,-0.68465859,-0.5283877)" y1="11.2534" x2="0" y2="33.3442" />
    <linearGradient inkscape:collect="always" xlink:href="#linearGradient3774-1-0" id="linearGradient4159" gradientUnits="userSpaceOnUse" gradientTransform="matrix(0.51258141,0,0,0.76870717,-0.97633692,-13.242083)" x1="19.757586" y1="23.247763" x2="28.486401" y2="28.2652" />
    <linearGradient inkscape:collect="always" xlink:href="#linearGradient3774-1-0" id="linearGradient4162" gradientUnits="userSpaceOnUse" gradientTransform="matrix(0.51258141,0,0,0.61085726,-0.97633692,-6.8041755)" x1="14.2364" y1="45.981899" x2="29.736401" y2="40.123001" />
    <linearGradient inkscape:collect="always" xlink:href="#linearGradient5582" id="linearGradient4165" gradientUnits="userSpaceOnUse" gradientTransform="matrix(0.49999999,0,0,0.50000012,-0.99999975,-0.500002)" y1="5.0000029" x2="28" y2="19" x1="28" />
  </defs>
  <path style="fill:url(#linearGradient4162);stroke:#484848;stroke-width:1;stroke-miterlimit:4;stroke-dasharray:none" inkscape:connector-curvature="0" d="M 2.0377443,6.5 H 19.962255 a 1.5377443,1.4530613 0 0 1 1.537744,1.4530612 V 20.046938 A 1.5377443,1.4530613 0 0 1 19.962255,21.5 H 2.0377443 A 1.5377443,1.4530613 0 0 1 0.5,20.046938 V 7.9530612 A 1.5377443,1.4530613 0 0 1 2.0377443,6.5" id="path3566" />
  <path sodipodi:nodetypes="csssssssc" inkscape:connector-curvature="0" d="m 2.0377443,3.5000001 17.9622557,0 c 0.805161,0 1.499999,0.6845797 1.499999,1.4999999 l 0,10.942663 c 0,0.81542 -0.732583,1.557337 -1.537744,1.557337 l -17.9245107,0 C 1.2325836,17.5 0.5000005,16.758083 0.5,15.942663 l 0,-10.8853249 c 0,-0.8154203 0.7325833,-1.557338 1.5377443,-1.557338" id="path3568" style="fill:url(#linearGradient4159);stroke:#484848;stroke-width:1;stroke-miterlimit:4;stroke-dasharray:none" />
  <path sodipodi:nodetypes="csssssssc" style="fill:none;stroke:url(#linearGradient4156);stroke-width:1.02429998" inkscape:connector-curvature="0" d="M 2.4858697,4.51215 19.5,4.5 c 0.969921,-6.926e-4 1.001298,-0.070987 1,1 l -0.01215,10.028862 c -6.08e-4,0.502125 -0.463882,0.958988 -0.97372,0.958988 l -17.0282603,0 c -0.5098383,0 -0.9737195,-0.456863 -0.9737196,-0.958988 l 0,-10.0577239 c 0,-0.8777755 0.2650075,-0.9589882 0.9737196,-0.9589881" id="path3570" />
  <path transform="matrix(0.50726482,0,0,0.50726482,-11.595917,5.5390242)" inkscape:connector-curvature="0" d="M 60.675135,11.14914 V -0.173755 c 0,-0.612484 -1.002767,-1.105549 -2.248253,-1.105549 H 30.323338 c -1.245596,0 -2.248253,0.493065 -2.248253,1.105549 V 11.14914 z" id="path3572" style="color:black;fill:#2d2d2d;fill-opacity:1;fill-rule:nonzero;stroke-width:0.76127243;stroke-linecap:butt;stroke-linejoin:miter;stroke-miterlimit:4;stroke-opacity:1;stroke-dasharray:none;stroke-dashoffset:0;marker:none;visibility:visible;display:inline;overflow:visible;filter:url(#filter5517-9);enable-background:accumulate" />
  <path inkscape:connector-curvature="0" d="M 2.0000001,13 20,13 l 0,-3 -17.9999999,7.6e-5 z" id="path3576" style="color:black;fill:#292929;fill-opacity:1;fill-rule:nonzero;stroke-width:1;stroke-linecap:butt;stroke-linejoin:miter;stroke-miterlimit:4;stroke-opacity:1;stroke-dasharray:none;stroke-dashoffset:0;marker:none;visibility:visible;display:inline;overflow:visible;enable-background:accumulate" sodipodi:nodetypes="ccccc" />
  <path sodipodi:nodetypes="csssscc" style="fill:url(#linearGradient4150);stroke:url(#linearGradient4152);stroke-width:1;stroke-linecap:round;stroke-linejoin:round" inkscape:connector-curvature="0" d="m 18.499999,11.5 0,-10.0215239 C 18.499999,0.9363856 18.073104,0.5 17.5,0.5 L 4.5000001,0.5 C 3.9268967,0.5 3.4999999,0.9363856 3.4999999,1.4784761 l 0,10.0215239 z" id="path3574" />
  <path sodipodi:nodetypes="csssssssc" style="fill:none;stroke:url(#linearGradient4146);stroke-width:1;stroke-linecap:round;stroke-linejoin:round" inkscape:connector-curvature="0" d="m 17.5,1.9714288 0,8.0571422 C 17.5,10.275411 17.270621,10.5 17.018518,10.5 l -12.0370364,0 C 4.7293784,10.5 4.4999999,10.275411 4.5,10.028571 l 0,-8.0571422 C 4.5,1.5214642 4.5575034,1.5 4.9814816,1.5 l 12.0370364,0 C 17.473746,1.5 17.5,1.5058391 17.5,1.9714288" id="path3578" />
  <path id="path3582" style="fill:url(#linearGradient4165);fill-opacity:1;fill-rule:evenodd;stroke:none" d="M 5.0000001,8 V 9 H 17 V 8 H 5.0000001 z M 11,6 v 1 h 6 V 6 h -6 z m 0,-2 v 1 h 6 V 4 h -6 z m 0,-2 v 1 h 6 V 2 h -6 z" inkscape:connector-curvature="0" />
  <g id="g3584" transform="matrix(0.55555556,0,0,0.625,-2.2222221,-6.75)">
    <path style="fill:white" inkscape:connector-curvature="0" id="path3586" d="m 13,14 h 9 v 8 h -9 z" />
    <path inkscape:connector-curvature="0" style="fill:url(#linearGradient3276)" id="path3588" d="m 13,20 h 9 v 2 h -9 z" />
    <path inkscape:connector-curvature="0" style="fill:url(#linearGradient3278)" id="path3590" d="m 13,14 h 9 v 6 h -9 z" />
    <path style="fill:#a86516" inkscape:connector-curvature="0" id="path3592" d="m 13,19 h 1.1678 c 1.5134,0 0.7191,-2.0854 3.0202,-2.0854 C 19.3447,17.0009 18.4824,19 20.4958,19 H 22 v 1 h -9 z" />
    <path style="fill:yellow" inkscape:connector-curvature="0" id="path3594" transform="translate(-42.5983,-0.4859)" d="m 63.9272,16.4319 c 0,0.6354 -0.5151,1.1505 -1.1505,1.1505 -0.6354,0 -1.1505,-0.5151 -1.1505,-1.1505 0,-0.6354 0.5151,-1.1505 1.1505,-1.1505 0.6354,0 1.1505,0.5151 1.1505,1.1505 z" />
  </g>
  <path style="fill:aqua;stroke:none" inkscape:connector-curvature="0" d="m 18,19 h 2 v 1 h -2 z" id="path3596" />
  <path inkscape:connector-curvature="0" d="M 5.0000001,18 H 17 v 3 H 5.0000001 z" id="path3600" style="color:black;fill:url(#linearGradient4124);fill-opacity:1;fill-rule:nonzero;stroke-width:1;stroke-linecap:butt;stroke-linejoin:miter;stroke-miterlimit:4;stroke-opacity:1;stroke-dasharray:none;stroke-dashoffset:0;marker:none;visibility:visible;display:inline;overflow:visible;enable-background:accumulate" />
  <path inkscape:connector-curvature="0" d="M 5.0000001,13 H 17 v 4 H 5.0000001 z" id="path3602" style="color:black;fill:url(#linearGradient4121);fill-opacity:1;fill-rule:nonzero;stroke-width:1;stroke-linecap:butt;stroke-linejoin:miter;stroke-miterlimit:4;stroke-opacity:1;stroke-dasharray:none;stroke-dashoffset:0;marker:none;visibility:visible;display:inline;overflow:visible;enable-background:accumulate" />
  <path style="opacity:0.98999999;fill:url(#linearGradient4118)" inkscape:connector-curvature="0" d="m 11,13 h 6 v 8 h -3.32625 z" id="path3604" />
</svg>
