<?xml version="1.0" encoding="UTF-8" standalone="no"?>
<svg
   xmlns:dc="http://purl.org/dc/elements/1.1/"
   xmlns:cc="http://creativecommons.org/ns#"
   xmlns:rdf="http://www.w3.org/1999/02/22-rdf-syntax-ns#"
   xmlns:svg="http://www.w3.org/2000/svg"
   xmlns="http://www.w3.org/2000/svg"
   xmlns:sodipodi="http://sodipodi.sourceforge.net/DTD/sodipodi-0.dtd"
   xmlns:inkscape="http://www.inkscape.org/namespaces/inkscape"
   viewBox="0 0 16 16"
   id="svg2"
   version="1.1"
   inkscape:version="0.48.3.1 r9886"
   width="100%"
   height="100%"
   sodipodi:docname="x-office-spreadsheet.svg">
  <metadata
     id="metadata70">
    <rdf:RDF>
      <cc:Work
         rdf:about="">
        <dc:format>image/svg+xml</dc:format>
        <dc:type
           rdf:resource="http://purl.org/dc/dcmitype/StillImage" />
      </cc:Work>
    </rdf:RDF>
  </metadata>
  <sodipodi:namedview
     pagecolor="#ffffff"
     bordercolor="#666666"
     borderopacity="1"
     objecttolerance="10"
     gridtolerance="10"
     guidetolerance="10"
     inkscape:pageopacity="0"
     inkscape:pageshadow="2"
     inkscape:window-width="640"
     inkscape:window-height="480"
     id="namedview68" />
  <defs
     id="defs4">
    <linearGradient
       gradientUnits="userSpaceOnUse"
       id="linearGradient3258-1"
       x2="0"
       y1="33.36102"
       y2="47.17878">
      <stop
         offset="0"
         stop-color="#d1d1d1"
         id="stop15" />
      <stop
         offset="1"
         stop-color="#fbfbfb"
         id="stop17" />
    </linearGradient>
    <linearGradient
       gradientUnits="userSpaceOnUse"
       id="linearGradient3756"
       x2="0"
       y1="32.84374"
       y2="47.26854">
      <stop
         offset="0"
         stop-color="#fff"
         stop-opacity=".669"
         id="stop20" />
      <stop
         offset="1"
         stop-color="#fff"
         stop-opacity="0"
         id="stop22" />
    </linearGradient>
  </defs>
  <g
     transform="translate(0,-32)"
     id="g24">
    <path
       d="m3.5,32.5h9a2,2 0 0,1 2,2v11a2,2 0 0,1 -2,2h-9a2,2 0 0,1 -2-2v-11a2,2 0 0,1 2-2"
       fill="url(#linearGradient3258-1)"
       stroke="#818181"
       stroke-linecap="round"
       stroke-linejoin="round"
       id="path26" />
    <path
       d="m3.5,33.5h9a1,1 0 0,1 1,1v11a1,1 0 0,1 -1,1h-9a1,1 0 0,1 -1-1v-11a1,1 0 0,1 1-1"
       fill="none"
       stroke="url(#linearGradient3756)"
       id="path28" />
    <path
       d="m4,44h2v1h-2z"
       fill="#009fe9"
       id="path30" />
    <path
       d="m7,44h2v1h-2z"
       fill="#bdbdbd"
       id="path32" />
    <path
       d="m10,44h2v1h-2z"
       fill="#bdbdbd"
       id="path34" />
    <path
       d="m4,42h2v1h-2z"
       fill="#009fe9"
       id="path36" />
    <path
       d="m7,42h2v1h-2z"
       fill="#bdbdbd"
       id="path38" />
    <path
       d="m10,42h2v1h-2z"
       fill="#bdbdbd"
       id="path40" />
    <path
       d="m4,40h2v1h-2z"
       fill="#009fe9"
       id="path42" />
    <path
       d="m7,40h2v1h-2z"
       fill="#bdbdbd"
       id="path44" />
    <path
       d="m10,40h2v1h-2z"
       fill="#bdbdbd"
       id="path46" />
    <path
       d="m4,38h2v1h-2z"
       fill="#009fe9"
       id="path48" />
    <path
       d="m7,38h2v1h-2z"
       fill="#bdbdbd"
       id="path50" />
    <path
       d="m10,38h2v1h-2z"
       fill="#bdbdbd"
       id="path52" />
    <path
       d="m4,36h2v1h-2z"
       fill="#009fe9"
       id="path54" />
    <path
       d="m7,36h2v1h-2z"
       fill="#009fe9"
       id="path56" />
    <path
       d="m10,36h2v1h-2z"
       fill="#009fe9"
       id="path58" />
    <g
       transform="matrix(.8,0,0,.847136,-34.711859,40.746872)"
       id="g60">
      <path
         d="m64.0678,9.66102c0,1.40411-2.39034,2.54237-5.33898,2.54237s-5.33898-1.13826-5.33898-2.54237 2.39034-2.54237 5.33898-2.54237 5.33898,1.13826 5.33898,2.54237z"
         fill="#006b9d"
         transform="matrix(.936508,0,0,1,3.389831,-6.002344)"
         id="path62" />
      <path
         d="m53.38983,1.45522h10v2.44491h-10z"
         fill="#006b9d"
         id="path64" />
      <path
         d="m64.0678,9.66102c0,1.40411-2.39034,2.54237-5.33898,2.54237s-5.33898-1.13826-5.33898-2.54237 2.39034-2.54237 5.33898-2.54237 5.33898,1.13826 5.33898,2.54237z"
         fill="#009fe9"
         transform="matrix(.936508,0,0,1,3.389831,-8.000288)"
         id="path66" />
    </g>
  </g>
</svg>
