<?xml version="1.0" encoding="UTF-8" standalone="no"?>
<svg
     xmlns:dc="http://purl.org/dc/elements/1.1/"
     xmlns:cc="http://creativecommons.org/ns#"
     xmlns:rdf="http://www.w3.org/1999/02/22-rdf-syntax-ns#"
     xmlns:svg="http://www.w3.org/2000/svg"
     xmlns="http://www.w3.org/2000/svg"
     xmlns:xlink="http://www.w3.org/1999/xlink"
     xmlns:sodipodi="http://sodipodi.sourceforge.net/DTD/sodipodi-0.dtd"
     xmlns:inkscape="http://www.inkscape.org/namespaces/inkscape"
     viewBox="0 0 16 16"
     id="svg2"
     version="1.1"
     inkscape:version="0.48.3.1 r9886"
     width="100%"
     height="100%"
     sodipodi:docname="application-x-generic.svg">
    <metadata
         id="metadata44">
        <rdf:RDF>
            <cc:Work
                 rdf:about="">
                <dc:format>image/svg+xml</dc:format>
                <dc:type
                     rdf:resource="http://purl.org/dc/dcmitype/StillImage" />
                <dc:title />
            </cc:Work>
        </rdf:RDF>
    </metadata>
    <sodipodi:namedview
         pagecolor="#ffffff"
         bordercolor="#666666"
         borderopacity="1"
         objecttolerance="10"
         gridtolerance="10"
         guidetolerance="10"
         inkscape:pageopacity="0"
         inkscape:pageshadow="2"
         inkscape:window-width="1280"
         inkscape:window-height="976"
         id="namedview42"
         showgrid="true"
         inkscape:zoom="32.125"
         inkscape:cx="8"
         inkscape:cy="8.1867704"
         inkscape:window-x="0"
         inkscape:window-y="24"
         inkscape:window-maximized="1"
         inkscape:current-layer="svg2">
        <inkscape:grid
             type="xygrid"
             id="grid2996" />
    </sodipodi:namedview>
    <defs
         id="defs4">
        <linearGradient
             gradientUnits="userSpaceOnUse"
             id="linearGradient3258-1"
             x2="0"
             y1="33.36102"
             y2="47.17878">
            <stop
                 offset="0"
                 stop-color="#d1d1d1"
                 id="stop15" />
            <stop
                 offset="1"
                 stop-color="#fbfbfb"
                 id="stop17" />
        </linearGradient>
        <linearGradient
             gradientUnits="userSpaceOnUse"
             id="linearGradient3756"
             x2="0"
             y1="32.84374"
             y2="47.26854">
            <stop
                 offset="0"
                 stop-color="#fff"
                 stop-opacity=".669"
                 id="stop20" />
            <stop
                 offset="1"
                 stop-color="#fff"
                 stop-opacity="0"
                 id="stop22" />
        </linearGradient>
        <linearGradient
             inkscape:collect="always"
             xlink:href="#linearGradient3756"
             id="linearGradient3005"
             gradientUnits="userSpaceOnUse"
             y1="32.84374"
             x2="0"
             y2="47.26854"
             gradientTransform="translate(0,-32)" />
        <linearGradient
             inkscape:collect="always"
             xlink:href="#linearGradient3258-1"
             id="linearGradient3008"
             gradientUnits="userSpaceOnUse"
             y1="33.36102"
             x2="0"
             y2="47.17878"
             gradientTransform="translate(0,-32)" />
    </defs>
    <path
         inkscape:connector-curvature="0"
         style="fill:url(#linearGradient3008);stroke:#818181;stroke-linecap:round;stroke-linejoin:round"
         id="path26"
         d="m 3.5,0.5 h 9 a 2,2 0 0 1 2,2 v 11 a 2,2 0 0 1 -2,2 h -9 a 2,2 0 0 1 -2,-2 v -11 a 2,2 0 0 1 2,-2" />
    <path
         inkscape:connector-curvature="0"
         style="fill:none;stroke:url(#linearGradient3005)"
         id="path28"
         d="m 3.5,1.5 h 9 a 1,1 0 0 1 1,1 v 11 a 1,1 0 0 1 -1,1 h -9 a 1,1 0 0 1 -1,-1 v -11 a 1,1 0 0 1 1,-1" />
    <path
         style="fill:#999"
         inkscape:connector-curvature="0"
         id="path32"
         d="M 7,3 H 9 V 5 H 7 z" />
    <path
         style="font-size:medium;font-style:normal;font-variant:normal;font-weight:normal;font-stretch:normal;text-indent:0;text-align:start;text-decoration:none;line-height:normal;letter-spacing:normal;word-spacing:normal;text-transform:none;direction:ltr;block-progression:tb;writing-mode:lr-tb;text-anchor:start;baseline-shift:baseline;color:black;fill:#999;fill-opacity:1;stroke:none;stroke-width:1;marker:none;visibility:visible;display:inline;overflow:visible;enable-background:accumulate;font-family:Sans;-inkscape-font-specification:Sans;fill-rule:nonzero;stroke-linecap:butt;stroke-linejoin:miter;stroke-miterlimit:4;stroke-opacity:1;stroke-dasharray:none;stroke-dashoffset:0"
         d="M 8,3.9921875 C 5.8027056,3.9921875 3.9921875,5.8027056 3.9921875,8 c 0,2.197295 1.8105181,4.007813 4.0078125,4.007813 2.197295,0 4.007813,-1.810518 4.007813,-4.007813 C 12.007813,5.8027056 10.197295,3.9921875 8,3.9921875 z m 0,2.015625 C 9.1164142,6.0078125 9.9921875,6.8835858 9.9921875,8 9.9921875,9.1164142 9.1164142,9.9921875 8,9.9921875 6.8835858,9.9921875 6.0078125,9.1164142 6.0078125,8 6.0078125,6.8835858 6.8835858,6.0078125 8,6.0078125 z"
         id="path3767"
         inkscape:connector-curvature="0" />
    <path
         d="m 7,11 h 2 v 2 H 7 z"
         id="path3790"
         inkscape:connector-curvature="0"
         style="fill:#999" />
    <path
         style="fill:#999"
         inkscape:connector-curvature="0"
         id="path3792"
         d="m 11,7 h 2 v 2 h -2 z" />
    <path
         d="M 3,7 H 5 V 9 H 3 z"
         id="path3794"
         inkscape:connector-curvature="0"
         style="fill:#999" />
    <path
         sodipodi:nodetypes="cccccc"
         d="M 4,4 5,4 6,5 5,6 4,5 z"
         id="path3798"
         inkscape:connector-curvature="0"
         style="fill:#999" />
    <path
         style="fill:#999"
         inkscape:connector-curvature="0"
         id="path3804"
         d="m 12,4 -1,0 -1,1 1,1 1,-1 z"
         sodipodi:nodetypes="cccccc" />
    <path
         style="fill:#999"
         inkscape:connector-curvature="0"
         id="path3806"
         d="M 4,12 5,12 6,11 5,10 4,11 z"
         sodipodi:nodetypes="cccccc" />
    <path
         sodipodi:nodetypes="cccccc"
         d="m 12,12 -1,0 -1,-1 1,-1 1,1 z"
         id="path3808"
         inkscape:connector-curvature="0"
         style="fill:#999" />
</svg>
