<?xml version="1.0" encoding="UTF-8" standalone="no"?>
<svg
     xmlns:dc="http://purl.org/dc/elements/1.1/"
     xmlns:cc="http://creativecommons.org/ns#"
     xmlns:rdf="http://www.w3.org/1999/02/22-rdf-syntax-ns#"
     xmlns:svg="http://www.w3.org/2000/svg"
     xmlns="http://www.w3.org/2000/svg"
     xmlns:xlink="http://www.w3.org/1999/xlink"
     xmlns:sodipodi="http://sodipodi.sourceforge.net/DTD/sodipodi-0.dtd"
     xmlns:inkscape="http://www.inkscape.org/namespaces/inkscape"
     viewBox="0 0 16 16"
     id="svg2"
     version="1.1"
     inkscape:version="0.48.3.1 r9886"
     width="100%"
     height="100%"
     sodipodi:docname="audio-x-generic.svg">
    <metadata
         id="metadata32">
        <rdf:RDF>
            <cc:Work
                 rdf:about="">
                <dc:format>image/svg+xml</dc:format>
                <dc:type
                     rdf:resource="http://purl.org/dc/dcmitype/StillImage" />
                <dc:title />
            </cc:Work>
        </rdf:RDF>
    </metadata>
    <sodipodi:namedview
         pagecolor="#ffffff"
         bordercolor="#666666"
         borderopacity="1"
         objecttolerance="10"
         gridtolerance="10"
         guidetolerance="10"
         inkscape:pageopacity="0"
         inkscape:pageshadow="2"
         inkscape:window-width="1280"
         inkscape:window-height="976"
         id="namedview30"
         showgrid="true"
         inkscape:zoom="16.0625"
         inkscape:cx="15.470817"
         inkscape:cy="5.1361868"
         inkscape:window-x="0"
         inkscape:window-y="24"
         inkscape:window-maximized="1"
         inkscape:current-layer="svg2">
        <inkscape:grid
             type="xygrid"
             id="grid3266" />
    </sodipodi:namedview>
    <defs
         id="defs4">
        <filter
             id="filter3174"
             color-interpolation-filters="sRGB">
            <feGaussianBlur
                 stdDeviation="1.71"
                 id="feGaussianBlur3176" />
        </filter>
        <linearGradient
             gradientTransform="scale(1.0058652,0.994169)"
             gradientUnits="userSpaceOnUse"
             id="ButtonShadow"
             y2="7.0165396"
             x2="45.447727"
             y1="92.539597"
             x1="45.447727">
            <stop
                 offset="0"
                 style="stop-color:#000000;stop-opacity:1"
                 id="stop3750" />
            <stop
                 offset="1"
                 style="stop-color:#000000;stop-opacity:0.58823532"
                 id="stop3752" />
        </linearGradient>
        <filter
             id="filter3174-2"
             color-interpolation-filters="sRGB">
            <feGaussianBlur
                 stdDeviation="1.71"
                 id="feGaussianBlur3176-1" />
        </filter>
        <linearGradient
             gradientTransform="scale(1.0058652,0.994169)"
             gradientUnits="userSpaceOnUse"
             id="ButtonShadow-9"
             y2="7.0165396"
             x2="45.447727"
             y1="92.539597"
             x1="45.447727">
            <stop
                 offset="0"
                 style="stop-color:#000000;stop-opacity:1"
                 id="stop3750-3" />
            <stop
                 offset="1"
                 style="stop-color:#000000;stop-opacity:0.58823532"
                 id="stop3752-0" />
        </linearGradient>
        <linearGradient
             x1="45.447727"
             y1="92.539597"
             x2="45.447727"
             y2="7.0165396"
             id="ButtonShadow-91"
             gradientUnits="userSpaceOnUse"
             gradientTransform="scale(1.0058652,0.994169)">
            <stop
                 id="stop3750-4"
                 style="stop-color:#000000;stop-opacity:1"
                 offset="0" />
            <stop
                 id="stop3752-2"
                 style="stop-color:#000000;stop-opacity:0.58823532"
                 offset="1" />
        </linearGradient>
        <filter
             color-interpolation-filters="sRGB"
             id="filter3174-4">
            <feGaussianBlur
                 id="feGaussianBlur3176-2"
                 stdDeviation="1.71" />
        </filter>
        <linearGradient
             inkscape:collect="always"
             xlink:href="#linearGradient998-2-6"
             id="linearGradient3171-2"
             gradientUnits="userSpaceOnUse"
             gradientTransform="matrix(0,0.44920278,-0.44920278,0,-1.253535,-2.6180798)"
             x1="6.4056101"
             x2="41.369011" />
        <linearGradient
             gradientUnits="userSpaceOnUse"
             id="linearGradient998-2-6"
             x1="6.4056101"
             x2="41.369011">
            <stop
                 style="stop-color:white;stop-opacity:0.50196081;"
                 offset="0"
                 stop-color="#fff"
                 stop-opacity=".545"
                 id="stop27-5-3" />
            <stop
                 offset="1"
                 stop-color="#fff"
                 stop-opacity="0"
                 id="stop29-4-3" />
        </linearGradient>
        <linearGradient
             id="linearGradient3777-0-1">
            <stop
                 style="stop-color:#c2def6;stop-opacity:1;"
                 offset="0"
                 id="stop3779-0-2" />
            <stop
                 style="stop-color:#2f6994;stop-opacity:1;"
                 offset="1"
                 id="stop3781-2-4" />
        </linearGradient>
        <linearGradient
             id="linearGradient4141-4">
            <stop
                 id="stop4143-3"
                 offset="0"
                 style="stop-color:#408ac0;stop-opacity:1;" />
            <stop
                 id="stop4145-0"
                 offset="1"
                 style="stop-color:#1f3e55;stop-opacity:1;" />
        </linearGradient>
        <linearGradient
             y2="25.48744"
             y1="-5.7136502"
             x2="31.74275"
             x1="8.2114201"
             id="linearGradient4594-3-2"
             gradientUnits="userSpaceOnUse">
            <stop
                 id="stop37-5-1-7"
                 stop-color="#fff"
                 offset="0" />
            <stop
                 id="stop39-0-3"
                 stop-opacity="0"
                 stop-color="#fff"
                 offset="1" />
        </linearGradient>
        <linearGradient
             y2="25.48744"
             x2="31.74275"
             y1="-5.7136502"
             x1="8.2114201"
             gradientTransform="matrix(0.34372854,0,0,0.38012425,-0.0928705,-1.2807451)"
             gradientUnits="userSpaceOnUse"
             id="linearGradient3052"
             xlink:href="#linearGradient4594-3-2"
             inkscape:collect="always" />
        <linearGradient
             inkscape:collect="always"
             xlink:href="#linearGradient3157-5-9"
             id="linearGradient3160"
             gradientUnits="userSpaceOnUse"
             gradientTransform="matrix(0,-0.55406804,-0.55406804,0,-3.101442,-2.5473742)"
             x1="-42.696152"
             x2="-5.8431101" />
        <linearGradient
             gradientUnits="userSpaceOnUse"
             id="linearGradient3157-5-9"
             x1="-42.696152"
             x2="-5.8431101">
            <stop
                 offset="0"
                 stop-color="#cf0000"
                 id="stop22-9" />
            <stop
                 offset="1"
                 stop-color="#dc5600"
                 id="stop24-8" />
        </linearGradient>
        <linearGradient
             gradientTransform="matrix(0,-0.55406804,-0.55406804,0,-1.709578,-1.5478912)"
             x2="-5.8431101"
             x1="-42.696152"
             gradientUnits="userSpaceOnUse"
             id="linearGradient3133-5"
             xlink:href="#linearGradient3157-5-9"
             inkscape:collect="always" />
        <radialGradient
             r="117.14286"
             cy="486.64789"
             cx="605.71429"
             gradientTransform="matrix(-0.062142,0,0,0.029001,46.53201,28.085503)"
             gradientUnits="userSpaceOnUse"
             id="radialGradient3143"
             xlink:href="#linearGradient5060"
             inkscape:collect="always" />
        <radialGradient
             r="117.14286"
             cy="486.64789"
             cx="605.71429"
             gradientTransform="matrix(0.062142,0,0,0.029001,1.636502,28.085503)"
             gradientUnits="userSpaceOnUse"
             id="radialGradient3141"
             xlink:href="#linearGradient5060"
             inkscape:collect="always" />
        <linearGradient
             y2="45.76167"
             x2="0"
             y1="38.7186"
             gradientUnits="userSpaceOnUse"
             id="linearGradient3139"
             xlink:href="#linearGradient3127"
             inkscape:collect="always" />
        <linearGradient
             gradientTransform="matrix(0,-0.55406804,-0.55406804,0,-1.709578,-1.5478912)"
             x2="-5.84311"
             x1="-42.69615"
             gradientUnits="userSpaceOnUse"
             id="linearGradient3133"
             xlink:href="#linearGradient3157-5"
             inkscape:collect="always" />
        <linearGradient
             gradientTransform="matrix(0,0.55406804,-0.55406804,0,22.202368,-1.0473742)"
             x2="41.36901"
             x1="6.40561"
             gradientUnits="userSpaceOnUse"
             id="linearGradient3129"
             xlink:href="#linearGradient998"
             inkscape:collect="always" />
        <linearGradient
             gradientTransform="matrix(0.55406804,0,0,0.55406804,22.202368,-1.0473742)"
             y2="25.48744"
             x2="31.74275"
             y1="-5.71365"
             x1="8.21142"
             gradientUnits="userSpaceOnUse"
             id="linearGradient3126"
             xlink:href="#linearGradient4594"
             inkscape:collect="always" />
        <linearGradient
             id="linearGradient5060">
            <stop
                 offset="0"
                 id="stop10" />
            <stop
                 offset="1"
                 stop-opacity="0"
                 id="stop12" />
        </linearGradient>
        <linearGradient
             gradientUnits="userSpaceOnUse"
             id="linearGradient3127"
             x2="0"
             y1="38.7186"
             y2="45.76167">
            <stop
                 offset="0"
                 stop-opacity="0"
                 id="stop15" />
            <stop
                 offset=".5"
                 id="stop17" />
            <stop
                 offset="1"
                 stop-opacity="0"
                 id="stop19" />
        </linearGradient>
        <linearGradient
             gradientUnits="userSpaceOnUse"
             id="linearGradient3157-5"
             x1="-42.69615"
             x2="-5.84311">
            <stop
                 offset="0"
                 stop-color="#cf0000"
                 id="stop22" />
            <stop
                 offset="1"
                 stop-color="#dc5600"
                 id="stop24" />
        </linearGradient>
        <linearGradient
             gradientUnits="userSpaceOnUse"
             id="linearGradient998"
             x1="6.40561"
             x2="41.36901">
            <stop
                 offset="0"
                 stop-color="#fff"
                 stop-opacity=".545"
                 id="stop27" />
            <stop
                 offset="1"
                 stop-color="#fff"
                 stop-opacity="0"
                 id="stop29" />
        </linearGradient>
        <linearGradient
             gradientUnits="userSpaceOnUse"
             id="linearGradient4594"
             x1="8.21142"
             x2="31.74275"
             y1="-5.71365"
             y2="25.48744">
            <stop
                 offset="0"
                 stop-color="#fff"
                 id="stop37" />
            <stop
                 offset="1"
                 stop-color="#fff"
                 stop-opacity="0"
                 id="stop39" />
        </linearGradient>
        <radialGradient
             cx="605.71429"
             cy="486.64789"
             gradientTransform="matrix(0.062142,0,0,0.029001,1.636502,28.085503)"
             gradientUnits="userSpaceOnUse"
             id="radialGradient3129"
             r="117.14286"
             xlink:href="#linearGradient5060" />
        <radialGradient
             cx="605.71429"
             cy="486.64789"
             gradientTransform="matrix(-0.062142,0,0,0.029001,46.53201,28.085503)"
             gradientUnits="userSpaceOnUse"
             id="radialGradient3131"
             r="117.14286"
             xlink:href="#linearGradient5060" />
        <linearGradient
             y2="3.8989999"
             x2="0"
             y1="44"
             gradientTransform="matrix(0.6348115,0,0,0.57575932,-21.765561,27.63619)"
             gradientUnits="userSpaceOnUse"
             id="linearGradient4139"
             xlink:href="#linearGradient3911-3-1-2"
             inkscape:collect="always" />
        <radialGradient
             r="19.99999"
             cy="8.44977"
             cx="7.4956799"
             gradientTransform="matrix(1.2333415e-8,1.3455438,-1.5694168,-2.4790052e-8,6.7311954,20.476738)"
             gradientUnits="userSpaceOnUse"
             id="radialGradient4137"
             xlink:href="#radialGradient3909-3-1-6"
             inkscape:collect="always" />
        <linearGradient
             x2="41.369011"
             x1="6.4056101"
             gradientTransform="matrix(0,0.56250001,-0.56250001,0,1.78125,-1.3437502)"
             gradientUnits="userSpaceOnUse"
             id="linearGradient4134"
             xlink:href="#linearGradient1000-0-6"
             inkscape:collect="always" />
        <linearGradient
             y2="25.48744"
             x2="31.74275"
             y1="-5.7136502"
             x1="8.2114201"
             gradientTransform="matrix(0.51559279,0,0,0.52054793,-0.139305,-1.123287)"
             gradientUnits="userSpaceOnUse"
             id="linearGradient4121"
             xlink:href="#linearGradient4594-3-5"
             inkscape:collect="always" />
        <filter
             id="filter3174-4-2"
             color-interpolation-filters="sRGB">
            <feGaussianBlur
                 stdDeviation="1.71"
                 id="feGaussianBlur3176-2-8" />
        </filter>
        <linearGradient
             gradientTransform="scale(1.0058652,0.994169)"
             gradientUnits="userSpaceOnUse"
             id="ButtonShadow-91-9"
             y2="7.0165396"
             x2="45.447727"
             y1="92.539597"
             x1="45.447727">
            <stop
                 offset="0"
                 style="stop-color:#000000;stop-opacity:1"
                 id="stop3750-4-6" />
            <stop
                 offset="1"
                 style="stop-color:#000000;stop-opacity:0.58823532"
                 id="stop3752-2-6" />
        </linearGradient>
        <linearGradient
             gradientUnits="userSpaceOnUse"
             id="linearGradient4594-3-5"
             x1="8.2114201"
             x2="31.74275"
             y1="-5.7136502"
             y2="25.48744">
            <stop
                 offset="0"
                 stop-color="#fff"
                 id="stop37-5-1-8" />
            <stop
                 offset="1"
                 stop-color="#fff"
                 stop-opacity="0"
                 id="stop39-0-0" />
        </linearGradient>
        <linearGradient
             x1="45.447727"
             y1="92.539597"
             x2="45.447727"
             y2="7.0165396"
             id="ButtonShadow-9-2"
             gradientUnits="userSpaceOnUse"
             gradientTransform="scale(1.0058652,0.994169)">
            <stop
                 id="stop3750-3-6"
                 style="stop-color:#000000;stop-opacity:1"
                 offset="0" />
            <stop
                 id="stop3752-0-8"
                 style="stop-color:#000000;stop-opacity:0.58823532"
                 offset="1" />
        </linearGradient>
        <filter
             color-interpolation-filters="sRGB"
             id="filter3174-2-7">
            <feGaussianBlur
                 id="feGaussianBlur3176-1-7"
                 stdDeviation="1.71" />
        </filter>
        <linearGradient
             x1="45.447727"
             y1="92.539597"
             x2="45.447727"
             y2="7.0165396"
             id="ButtonShadow-6"
             gradientUnits="userSpaceOnUse"
             gradientTransform="scale(1.0058652,0.994169)">
            <stop
                 id="stop3750-33"
                 style="stop-color:#000000;stop-opacity:1"
                 offset="0" />
            <stop
                 id="stop3752-8"
                 style="stop-color:#000000;stop-opacity:0.58823532"
                 offset="1" />
        </linearGradient>
        <filter
             color-interpolation-filters="sRGB"
             id="filter3174-9">
            <feGaussianBlur
                 id="feGaussianBlur3176-5"
                 stdDeviation="1.71" />
        </filter>
        <linearGradient
             inkscape:collect="always"
             xlink:href="#linearGradient4594-3-5"
             id="linearGradient3186-0"
             gradientUnits="userSpaceOnUse"
             gradientTransform="matrix(0.51559279,0,0,0.52054793,-0.139305,-1.123287)"
             x1="8.2114201"
             y1="-5.7136502"
             x2="31.74275"
             y2="25.48744" />
        <linearGradient
             inkscape:collect="always"
             xlink:href="#linearGradient1000-0-6"
             id="linearGradient3075-4"
             gradientUnits="userSpaceOnUse"
             x1="6.4056101"
             x2="41.369011"
             gradientTransform="matrix(0,0.56250001,-0.56250001,0,1.78125,-1.3437502)" />
        <linearGradient
             id="linearGradient1000-0-6">
            <stop
                 id="stop7-6-9"
                 stop-color="#fff"
                 offset="0" />
            <stop
                 id="stop9-8-3"
                 stop-opacity="0"
                 stop-color="#fff"
                 offset="1" />
        </linearGradient>
        <radialGradient
             inkscape:collect="always"
             xlink:href="#radialGradient3909-3-1-6"
             id="radialGradient3078-4"
             gradientUnits="userSpaceOnUse"
             gradientTransform="matrix(1.2333415e-8,1.3455438,-1.5694168,-2.4790052e-8,6.7311954,20.476738)"
             cx="7.4956799"
             cy="8.44977"
             r="19.99999" />
        <radialGradient
             r="19.99999"
             id="radialGradient3909-3-1-6"
             gradientUnits="userSpaceOnUse"
             gradientTransform="matrix(2.33699,-2.142113e-8,-4.3056275e-8,2.725821,39.327917,-7.769967)"
             cy="8.44977"
             cx="7.4956799">
            <stop
                 id="stop31-6-2"
                 stop-color="#4d4d4d"
                 offset="0" />
            <stop
                 id="stop33-6-5"
                 stop-color="#404040"
                 offset=".262" />
            <stop
                 id="stop35-8-3"
                 stop-color="#303030"
                 offset=".705" />
            <stop
                 id="stop37-50-0"
                 stop-color="#232323"
                 offset="1" />
        </radialGradient>
        <linearGradient
             inkscape:collect="always"
             xlink:href="#linearGradient3911-3-1-2"
             id="linearGradient3080-6"
             gradientUnits="userSpaceOnUse"
             gradientTransform="matrix(0.6348115,0,0,0.57575932,-21.765561,27.63619)"
             y1="44"
             x2="0"
             y2="3.8989999" />
        <linearGradient
             y2="3.8989999"
             y1="44"
             x2="0"
             id="linearGradient3911-3-1-2"
             gradientUnits="userSpaceOnUse"
             gradientTransform="matrix(0,-1.102564,1,0,51.762716,41.724249)">
            <stop
                 id="stop24-1-9"
                 stop-color="#202020"
                 offset="0" />
            <stop
                 id="stop26-8-9"
                 stop-color="#383838"
                 offset="1" />
        </linearGradient>
        <linearGradient
             id="linearGradient3777-0">
            <stop
                 style="stop-color:#c2def6;stop-opacity:1;"
                 offset="0"
                 id="stop3779-0" />
            <stop
                 style="stop-color:#2f6994;stop-opacity:1;"
                 offset="1"
                 id="stop3781-2" />
        </linearGradient>
        <linearGradient
             gradientUnits="userSpaceOnUse"
             id="linearGradient998-2"
             x1="6.4056101"
             x2="41.369011">
            <stop
                 style="stop-color:white;stop-opacity:0.50196081;"
                 offset="0"
                 stop-color="#fff"
                 stop-opacity=".545"
                 id="stop27-5" />
            <stop
                 offset="1"
                 stop-color="#fff"
                 stop-opacity="0"
                 id="stop29-4" />
        </linearGradient>
        <linearGradient
             gradientTransform="matrix(0,0.60747784,-0.60747784,0,-0.556084,-1.6028521)"
             x2="41.369011"
             x1="6.4056101"
             gradientUnits="userSpaceOnUse"
             id="linearGradient3106-0"
             xlink:href="#linearGradient998-2"
             inkscape:collect="always" />
        <filter
             id="filter3174-0"
             color-interpolation-filters="sRGB">
            <feGaussianBlur
                 stdDeviation="1.71"
                 id="feGaussianBlur3176-8" />
        </filter>
        <linearGradient
             gradientTransform="scale(1.0058652,0.994169)"
             gradientUnits="userSpaceOnUse"
             id="ButtonShadow-1"
             y2="7.0165396"
             x2="45.447727"
             y1="92.539597"
             x1="45.447727">
            <stop
                 offset="0"
                 style="stop-color:#000000;stop-opacity:1"
                 id="stop3750-0" />
            <stop
                 offset="1"
                 style="stop-color:#000000;stop-opacity:0.58823532"
                 id="stop3752-1" />
        </linearGradient>
        <filter
             id="filter3174-2-5"
             color-interpolation-filters="sRGB">
            <feGaussianBlur
                 stdDeviation="1.71"
                 id="feGaussianBlur3176-1-9" />
        </filter>
        <linearGradient
             gradientTransform="scale(1.0058652,0.994169)"
             gradientUnits="userSpaceOnUse"
             id="ButtonShadow-9-7"
             y2="7.0165396"
             x2="45.447727"
             y1="92.539597"
             x1="45.447727">
            <stop
                 offset="0"
                 style="stop-color:#000000;stop-opacity:1"
                 id="stop3750-3-67" />
            <stop
                 offset="1"
                 style="stop-color:#000000;stop-opacity:0.58823532"
                 id="stop3752-0-9" />
        </linearGradient>
        <linearGradient
             x1="45.447727"
             y1="92.539597"
             x2="45.447727"
             y2="7.0165396"
             id="ButtonShadow-91-1"
             gradientUnits="userSpaceOnUse"
             gradientTransform="scale(1.0058652,0.994169)">
            <stop
                 id="stop3750-4-3"
                 style="stop-color:#000000;stop-opacity:1"
                 offset="0" />
            <stop
                 id="stop3752-2-1"
                 style="stop-color:#000000;stop-opacity:0.58823532"
                 offset="1" />
        </linearGradient>
        <filter
             color-interpolation-filters="sRGB"
             id="filter3174-4-25">
            <feGaussianBlur
                 id="feGaussianBlur3176-2-3"
                 stdDeviation="1.71" />
        </filter>
        <linearGradient
             id="linearGradient4141">
            <stop
                 id="stop4143"
                 offset="0"
                 style="stop-color:#408ac0;stop-opacity:1;" />
            <stop
                 id="stop4145"
                 offset="1"
                 style="stop-color:#1f3e55;stop-opacity:1;" />
        </linearGradient>
        <linearGradient
             inkscape:collect="always"
             xlink:href="#linearGradient4594-3-5"
             id="linearGradient3248"
             gradientUnits="userSpaceOnUse"
             gradientTransform="matrix(0.51559279,0,0,0.52054793,15.003696,-2.623287)"
             x1="8.2114201"
             y1="-5.7136502"
             x2="31.74275"
             y2="25.48744" />
        <linearGradient
             inkscape:collect="always"
             xlink:href="#linearGradient998-2"
             id="linearGradient3263"
             gradientUnits="userSpaceOnUse"
             gradientTransform="matrix(0,0.60747784,-0.60747784,0,14.586917,-3.1028521)"
             x1="6.4056101"
             x2="41.369011" />
        <linearGradient
             inkscape:collect="always"
             xlink:href="#linearGradient3157-5-9"
             id="linearGradient3266"
             gradientUnits="userSpaceOnUse"
             gradientTransform="matrix(0,-0.39576288,-0.39576288,0,-2.2925557,-0.17706514)"
             x1="-42.696152"
             x2="-5.8431101" />
        <linearGradient
             inkscape:collect="always"
             xlink:href="#linearGradient3157-5-9-6"
             id="linearGradient3266-6"
             gradientUnits="userSpaceOnUse"
             gradientTransform="matrix(0,-0.39576288,-0.39576288,0,-2.2925557,-0.17706514)"
             x1="-42.696152"
             x2="-5.8431101" />
        <linearGradient
             gradientUnits="userSpaceOnUse"
             id="linearGradient3157-5-9-6"
             x1="-42.696152"
             x2="-5.8431101">
            <stop
                 offset="0"
                 stop-color="#cf0000"
                 id="stop22-9-6" />
            <stop
                 offset="1"
                 stop-color="#dc5600"
                 id="stop24-8-1" />
        </linearGradient>
        <linearGradient
             x2="-5.8431101"
             x1="-42.696152"
             gradientTransform="matrix(0,-0.39576288,-0.39576288,0,-2.5068414,-1.6770651)"
             gradientUnits="userSpaceOnUse"
             id="linearGradient3283"
             xlink:href="#linearGradient3157-5-9-6"
             inkscape:collect="always" />
    </defs>
    <path
         inkscape:connector-curvature="0"
         style="fill:url(#linearGradient3266-6);stroke:#8d2020;stroke-linecap:round;stroke-linejoin:round;color:black;fill-opacity:1;fill-rule:nonzero;stroke-width:1;stroke-miterlimit:4;stroke-opacity:1;stroke-dasharray:none;stroke-dashoffset:0;marker:none;visibility:visible;display:inline;overflow:visible;enable-background:accumulate"
         id="path26"
         d="m 3.5,0.5 h 9 a 2,2 0 0 1 2,2 v 11 a 2,2 0 0 1 -2,2 h -9 a 2,2 0 0 1 -2,-2 v -11 a 2,2 0 0 1 2,-2" />
    <path
         inkscape:connector-curvature="0"
         style="fill:none;stroke:url(#linearGradient3171-2);color:black;stroke-width:1;stroke-linecap:round;stroke-linejoin:round;stroke-miterlimit:4;stroke-opacity:1;stroke-dasharray:none;stroke-dashoffset:0;marker:none;visibility:visible;display:inline;overflow:visible;enable-background:accumulate"
         id="path28"
         d="m 3.5,1.5 h 9 a 1,1 0 0 1 1,1 v 11 a 1,1 0 0 1 -1,1 h -9 a 1,1 0 0 1 -1,-1 v -11 a 1,1 0 0 1 1,-1" />
    <g
         id="layer2"
         style="display:none"
         transform="matrix(0.73945542,0,0,0.73945542,3.6170542,-151.67742)">
        <rect
             width="86"
             height="85"
             rx="8.1140795"
             ry="8.1140795"
             x="5"
             y="7"
             id="rect3745"
             style="opacity:0.9;fill:url(#ButtonShadow);fill-opacity:1;fill-rule:nonzero;stroke:none;filter:url(#filter3174)" />
    </g>
    <g
         id="layer4"
         transform="matrix(0.73945542,0,0,0.73945542,3.6170542,-151.67742)" />
    <g
         id="layer2-0"
         style="display:none"
         transform="matrix(0.73945542,0,0,0.73945542,23.26023,-143.94726)">
        <rect
             width="86"
             height="85"
             rx="8.1140795"
             ry="8.1140795"
             x="5"
             y="7"
             id="rect3745-7"
             style="opacity:0.9;fill:url(#ButtonShadow-91);fill-opacity:1;fill-rule:nonzero;stroke:none;filter:url(#filter3174-4)" />
    </g>
    <g
         id="layer4-3"
         transform="matrix(0.73945542,0,0,0.73945542,23.26023,-143.94726)" />
    <g
         id="layer2-1"
         style="display:none"
         transform="matrix(0.73945542,0,0,0.73945542,64.762166,-141.77679)">
        <rect
             width="86"
             height="85"
             rx="8.1140795"
             ry="8.1140795"
             x="5"
             y="7"
             id="rect3745-1"
             style="opacity:0.9;fill:url(#ButtonShadow-9);fill-opacity:1;fill-rule:nonzero;stroke:none;filter:url(#filter3174-2)" />
    </g>
    <g
         id="layer4-8"
         transform="matrix(0.73945542,0,0,0.73945542,64.762166,-141.77679)" />
    <path
         inkscape:connector-curvature="0"
         style="opacity:0.4;color:black;fill:black;fill-opacity:1;fill-rule:nonzero;stroke:none;stroke-width:1;marker:none;visibility:visible;display:inline;overflow:visible;enable-background:accumulate"
         d="m 13.967217,7.3862784 -0.05263,0.2561366 -0.03289,-0.2561366 -0.02632,-0.2561372 -0.06579,0.2561372 -0.0658,0.2561366 -0.01315,-0.2431653 c -0.0084,-0.1338699 -0.0568,-0.2431685 -0.105265,-0.2431685 -0.04847,0 -0.104134,-0.069512 -0.125001,-0.1523853 -0.02086,-0.082872 -0.04991,0.079397 -0.0658,0.3598899 -0.0269,0.4748737 -0.03348,0.4892191 -0.09868,0.2301966 -0.03852,-0.1529967 -0.07333,-0.4179672 -0.07895,-0.5900865 -0.0057,-0.1721186 -0.05022,-0.3112532 -0.09869,-0.3112532 -0.04847,0 -0.104132,-0.069512 -0.125,-0.1523846 -0.02755,-0.1094206 -0.0503,-0.081419 -0.07237,0.1037526 l -0.02632,0.2561366 -0.06579,-0.2561366 c -0.04502,-0.1810086 -0.07518,-0.02452 -0.09868,0.5349665 -0.02935,0.6984864 -0.03561,0.739401 -0.08552,0.3696125 l -0.05921,-0.4182485 -0.04605,0.3728572 -0.04605,0.3696138 -0.0329,-0.4863338 c -0.01558,-0.2677412 -0.06037,-0.5393091 -0.09869,-0.6030551 -0.05961,-0.099191 -0.08066,-0.078804 -0.164474,0.1394166 -0.08619,0.2244133 -0.102961,0.1517846 -0.131583,-0.6030551 -0.03109,-0.8200063 -0.0364,-0.7990778 -0.08552,0.4863339 l -0.05263,1.3455261 -0.01973,-1.066693 c -0.01231,-0.5864777 -0.04687,-1.1429109 -0.07894,-1.2385319 -0.06551,-0.1953181 -0.223689,-0.2365674 -0.223689,-0.058361 0,0.072118 -0.05035,0.1134795 -0.138158,0.1134795 -0.121007,0 -0.147341,0.1609803 -0.164476,1.1250531 -0.01099,0.6183531 -0.02942,0.8998651 -0.04605,0.6257511 -0.01695,-0.2794345 -0.07404,-0.4960624 -0.125001,-0.4960624 -0.05096,0 -0.09211,0.049733 -0.09211,0.1134799 0,0.063753 -0.04036,0.1167206 -0.09211,0.1167206 -0.05174,0 -0.101616,-0.1192419 -0.111842,-0.2658645 -0.01152,-0.165106 -0.04372,-0.072685 -0.07895,0.2431692 l -0.05264,0.5090295 -0.0329,-0.5090291 C 10.659561,6.8994793 10.649021,6.876996 10.592181,7.1301439 l -0.0658,0.2788332 -0.02632,-0.3696139 -0.0329,-0.3728577 -0.06579,0.2561371 c -0.04925,0.1980573 -0.07232,0.10859 -0.09868,-0.3955531 l -0.03289,-0.6484466 -0.05263,0.5122713 -0.05922,0.5090291 -0.0329,-0.6257503 C 10.094703,5.7221118 10.076536,5.8125077 9.9803316,7.0393599 L 9.8684891,8.430278 9.8487628,6.9907279 C 9.8368584,6.2002556 9.7929024,5.4716085 9.7500931,5.3696133 L 9.6711426,5.1848049 9.6514163,5.4150015 c -0.01209,0.1274959 -0.052607,0.2963598 -0.092107,0.372858 -0.06457,0.1250579 -0.080663,0.1144049 -0.1052646,-0.094025 L 9.4277096,5.4636381 9.3684945,5.7651671 C 9.3115152,6.0439236 9.3068271,6.024909 9.2763873,5.5317257 L 9.2434981,5 9.1777015,5.6938383 C 9.1418108,6.0763256 9.0963356,6.775134 9.079021,7.2468685 L 9.0461272,8.1060602 8.9934935,7.4803097 C 8.9514262,6.9806993 8.9291728,6.9080993 8.888228,7.1301479 L 8.8421758,7.408981 8.8224494,7.0490919 C 8.8126694,6.8514753 8.7656504,6.6924467 8.7171839,6.6924467 c -0.048469,0 -0.1041359,-0.069512 -0.1250001,-0.1523853 -0.020862,-0.082873 -0.05139,0.06945 -0.065788,0.3371939 -0.014407,0.2677432 -0.059188,0.5492524 -0.098685,0.6257504 L 8.3553422,7.6424223 8.3421793,7.4738278 c -0.00613,-0.092066 -0.040138,-0.2676327 -0.07895,-0.39231 L 8.1908507,6.8545626 8.138217,7.1301512 C 8.0977005,7.3360131 8.0775504,7.2563545 8.065848,6.818898 8.0562643,6.4609262 8.0109784,6.2288122 7.9540055,6.2288122 c -0.051741,0 -0.092107,0.039787 -0.092107,0.090783 0,0.051 -0.040363,0.094025 -0.092107,0.094025 -0.057836,0 -0.1054386,0.2805479 -0.1184239,0.7295024 C 7.6338856,7.7469569 7.6218506,7.663319 7.5789986,6.6665167 L 7.5263645,5.4636485 7.4868938,6.5757328 7.447423,7.6878169 7.3947894,6.6665127 7.3421557,5.6484533 7.302685,6.4136208 C 7.2683532,7.0999599 7.2569483,7.1368045 7.2039964,6.783234 7.155573,6.4599161 7.1391554,6.5468614 7.1118901,7.2695678 L 7.0789999,8.1514554 7.0000512,7.3862891 C 6.9560645,6.9655519 6.8841354,6.2567962 6.842152,5.8105659 L 6.7632015,5.0000069 6.7303122,6.0893956 6.6974229,7.1787838 6.6447893,6.2190849 C 6.6152718,5.6920988 6.5585811,5.2460817 6.5197874,5.2269624 6.4809929,5.207843 6.439142,5.6273712 6.4276812,6.1607249 L 6.4079549,7.1301512 6.3553212,6.0634583 c -0.022864,-0.4655171 -0.05074,-0.7748559 -0.065788,-0.7975902 -0.00207,0.0059 -0.00514,0.020824 -0.00658,0.04215 -0.011477,0.1706141 -0.060108,0.3246758 -0.1118425,0.3404351 -0.051741,0.015759 -0.098685,0.2555261 -0.098685,0.5609037 0,0.6149418 -0.1844856,1.2926782 -0.2894789,1.0602109 L 5.7237396,7.1301511 5.7105857,7.2598404 c -0.00703,0.079984 -0.062794,0.1264486 -0.1513168,0.1264486 -0.097714,0 -0.1476475,0.054693 -0.1578984,0.1750806 C 5.3866118,7.7348262 5.3645414,7.6438222 5.1842634,6.7735059 5.1433321,6.5758867 5.0705186,6.4136167 5.0263651,6.4136167 c -0.04415,0 -0.088561,-0.046386 -0.098684,-0.1037519 -0.010134,-0.057374 -0.040886,0.1148445 -0.072369,0.3825811 -0.01933,0.164296 -0.035729,0.2612306 -0.046052,0.2788339 C 4.7959891,6.9480862 4.7854401,6.749706 4.7763621,6.3325608 4.7648941,5.8054487 4.7231241,5.4863372 4.6645196,5.4863372 c -0.051741,0 -0.09789,0.066271 -0.098684,0.1491438 -0.00108,0.1143386 -0.022909,0.1338283 -0.092107,0.081056 -0.069196,-0.052772 -0.092658,-0.036765 -0.1052655,0.071329 -0.011053,0.094667 -0.035035,0.063757 -0.07895,-0.094025 L 4.2237241,5.4636446 4.1908348,5.648453 C 4.1659064,5.7957562 4.1470635,5.7668188 4.0987277,5.5090364 4.05987,5.3017906 4.0284232,5.6290402 4.0066205,6.4136206 3.9846763,7.2032923 3.9491815,7.5001629 3.9145134,7.2468756 L 3.8618797,6.8545664 3.7895107,7.156095 C 3.7507071,7.3218396 3.7071612,7.5503815 3.6908221,7.6651248 3.6744856,7.7798688 3.6472943,7.6440877 3.631616,7.3635962 3.603487,6.8603325 3.60465,6.8573571 3.513192,7.120427 3.4622172,7.2670457 3.3884066,7.3862923 3.3487167,7.3862923 3.3090297,7.3862923 3.2419663,7.1611037 3.1973999,6.8869891 3.1263109,6.4497846 3.1096679,6.420138 3.0723944,6.6438205 l -0.04607,0.256138 -0.059206,-0.256138 C 2.9159648,6.4284261 2.9000557,6.4691655 2.8749857,6.8999586 2.8462851,7.3930084 2.8427537,7.3988098 2.7763007,7.1074625 2.7384988,6.9417173 2.6942254,6.6701528 2.6776166,6.5044074 2.6559564,6.2883042 2.6320071,6.3737295 2.5920901,6.8059367 L 2.5394564,7.4089911 2.51973,6.9096886 C 2.5083432,6.6146461 2.4635802,6.4136275 2.4078884,6.4136275 c -0.051741,0 -0.098385,-0.1192427 -0.1052655,-0.2658646 C 2.2903706,5.8870746 2.2870979,5.8869977 2.2105158,6.2450295 2.0997317,6.7628227 2.0469547,6.7770933 2.0197246,6.2969028 L 2,5.8786571 v 3.7609888 c 0.0064,0.07162 0.016589,0.189076 0.026317,0.3436762 l 0.03948,0.6257499 0.059206,-0.534966 C 2.152176,9.8179194 2.167855,9.6883944 2.177637,9.6688286 c 0.00766,0.00676 0.011874,0.095324 0.019726,0.2561371 0.027254,0.5554203 0.2026162,0.4813673 0.2236895,-0.094025 0.013073,-0.3568303 0.02986,-0.4119423 0.065788,-0.2204729 l 0.052634,0.256137 0.059206,-0.256137 0.059206,-0.2528921 0.019726,0.3015287 c 0.011405,0.1657454 0.05587,0.3843387 0.098684,0.4863347 0.058386,0.139091 0.088399,0.01787 0.1118425,-0.4863347 L 2.914456,8.9847205 2.973662,9.8893043 3.026296,10.793889 3.059185,10.074114 C 3.077487,9.6788765 3.109132,9.4039589 3.131554,9.461331 c 0.089075,0.2278955 0.217108,0.085174 0.217108,-0.2431686 0,-0.2781733 0.025271,-0.3469179 0.1381594,-0.3469179 0.1155326,0 0.1426753,0.088028 0.1578974,0.4960618 l 0.019717,0.499302 0.052634,-0.50903 0.052634,-0.5122704 0.072369,0.3955531 c 0.038497,0.2167432 0.079969,0.769824 0.092107,1.228806 0.017184,0.649809 0.032601,0.511416 0.072369,-0.625751 l 0.052634,-1.4622466 0.032898,1.4622466 c 0.020763,0.803221 0.066978,1.323222 0.098684,1.157477 0.061559,-0.321784 0.1319421,-0.301107 0.2565824,0.07133 0.05386,0.160919 0.092347,-0.178762 0.1250009,-1.1120835 0.050398,-1.4406412 0.1785794,-1.5457871 0.1973727,-0.1621129 l 0.00658,0.8105584 0.1250009,-0.440941 c 0.06925,-0.2422408 0.1383208,-0.4608376 0.151316,-0.4863348 0.012992,-0.025496 0.047459,0.1732022 0.07895,0.4409428 l 0.059206,0.486333 0.03948,-0.6257513 C 5.2629717,9.4043703 5.2666867,9.382855 5.3223607,9.7045026 l 0.059215,0.3469184 0.026317,-0.3015301 c 0.015372,-0.1657453 0.060883,-0.4373132 0.098685,-0.6030551 l 0.072369,-0.3015286 0.019726,0.2561379 c 0.041961,0.4510601 0.1745658,0.5292555 0.1973747,0.11672 C 5.8317856,8.5718527 5.953109,9.0501425 5.9868386,9.960636 l 0.032898,0.833255 0.052634,-0.719774 0.059215,-0.716536 0.039471,1.08939 c 0.030419,0.867557 0.04387,0.990687 0.085523,0.603055 0.028841,-0.268387 0.080105,-0.436759 0.1118425,-0.372858 0.031735,0.0639 0.071467,-0.237662 0.085523,-0.671144 0.014064,-0.4334806 0.049875,-1.0395362 0.085523,-1.3455254 0.054707,-0.4694151 0.074668,-0.3465545 0.1052647,0.7878631 0.033006,1.2234793 0.0425,1.2796803 0.092107,0.6257503 0.041328,-0.5448581 0.057683,-0.6332564 0.085523,-0.3696121 l 0.039471,0.3469161 0.059206,-0.3469161 0.059215,-0.3469189 0.039471,0.252893 c 0.022674,0.1593532 0.057484,0.021529 0.092106,-0.3696136 0.049118,-0.5548017 0.056574,-0.4838571 0.092107,0.6257506 l 0.039471,1.251502 0.052634,-1.018061 0.052634,-1.0213035 0.046052,1.4590055 L 7.4342008,12 7.4868348,10.190833 c 0.024469,-0.8783746 0.040958,-1.3005151 0.052634,-1.3552537 0.00793,0.04632 0.015705,0.2653551 0.026317,0.6354776 0.033511,1.1689541 0.1623539,1.6803211 0.2105302,0.8364971 L 7.802633,9.82122 7.855267,10.307554 c 0.042365,0.395553 0.06851,0.452217 0.1250009,0.301528 0.038236,-0.101994 0.071801,-0.324549 0.072369,-0.49282 5.644e-4,-0.1682695 0.02473,-0.4701059 0.059215,-0.6711417 0.061983,-0.3613952 0.067248,-0.3639238 0.1842152,-0.2042599 0.065057,0.088818 0.1210664,0.2614639 0.125,0.3825817 0.00505,0.1563384 0.044511,0.2204739 0.1381593,0.2204739 0.1770576,0 0.3335269,-0.2389461 0.3486887,-0.528485 0.011684,-0.2230326 0.020168,-0.2276086 0.085523,-0.07457 0.055843,0.1307486 0.069935,0.095367 0.085523,-0.1848079 0.01063,-0.1912427 0.05725,-0.4429192 0.098684,-0.5576632 0.04507,-0.1248373 0.084594,0.5373772 0.098685,1.6470552 0.014092,1.109677 0.053607,1.768651 0.098684,1.64381 0.041436,-0.114744 0.081845,-0.41615 0.092107,-0.671142 0.01026,-0.254992 0.048351,-0.60937 0.085523,-0.787863 l 0.065788,-0.324222 0.039471,0.392309 c 0.022215,0.247043 0.052417,0.03321 0.085523,-0.5771161 l 0.052634,-0.9759132 0.032889,0.8137994 c 0.016805,0.4462339 0.060622,0.9993139 0.098685,1.2288059 l 0.065788,0.415005 0.026317,-0.603054 c 0.02258,-0.649945 0.225576,-1.3051332 0.309214,-0.9953641 0.02514,0.09312 0.05509,-0.0073 0.07237,-0.2334425 0.01657,-0.2167426 0.0515,-0.3260412 0.07237,-0.2431679 0.02302,0.091395 0.08907,0.1523846 0.171056,0.1523846 0.105156,0 0.137779,-0.084978 0.151318,-0.3825818 0.01291,-0.2836006 0.02701,-0.3198899 0.05263,-0.1394166 0.01899,0.1338699 0.07597,0.2431698 0.125001,0.2431698 0.04904,0 0.09563,0.069512 0.105266,0.1523846 0.0096,0.082872 0.04648,-0.02642 0.07895,-0.2431692 0.0411,-0.2744532 0.07159,-0.015847 0.09868,0.8559501 l 0.03289,1.251502 0.05263,-1.3682221 0.05263,-1.3682217 0.03947,1.4622477 c 0.03352,1.1988741 0.05456,1.3433911 0.09868,0.8105581 l 0.05263,-0.648447 0.04605,0.648447 c 0.04568,0.627294 0.05104,0.616424 0.07895,-0.346917 0.03794,-1.3096351 0.162288,-1.7508842 0.20395,-0.7197755 0.01784,0.4421005 0.04912,0.6383105 0.07895,0.4863345 0.04906,-0.2500463 0.05021,-0.2470224 0.105265,0.139415 l 0.05922,0.395554 0.02632,-0.534966 c 0.01911,-0.3410396 0.05282,-0.4734072 0.09211,-0.3696138 l 0.05922,0.162112 0.07895,-0.2075039 c 0.212358,-0.5941441 0.223361,-0.5994434 0.256582,-0.094024 0.02785,0.4236485 0.03886,0.3793366 0.08552,-0.346918 l 0.05263,-0.8364957 0.03947,1.1153289 c 0.03329,0.9501506 0.04523,1.0323976 0.09211,0.5771166 l 0.05263,-0.5317242 0.05263,0.5317242 0.04604,0.534968 0.01973,-0.521998 c 0.01107,-0.2868631 0.0568,-0.5219982 0.105266,-0.5219982 0.04847,0 0.104133,0.06951 0.125001,0.152385 0.02086,0.082872 0.05395,-0.1323685 0.07236,-0.4766073 l 0.03289,-0.6257504 0.05922,0.4863338 c 0.03148,0.2677405 0.06882,0.4399575 0.07895,0.3825825 0.01013,-0.05738 0.0601,-0.1037526 0.111842,-0.1037526 0.05174,0 0.09914,-0.1192426 0.105265,-0.2658646 0.0092,-0.2193966 0.01985,-0.2441606 0.07895,-0.1296893 0.06155,0.1191974 0.0801,0.1050514 0.09868,-0.1134799 L 14,8.6151138 z"
         id="path53-4" />
    <path
         style="opacity:0.98999999;fill:url(#linearGradient3052)"
         inkscape:connector-curvature="0"
         d="m 6,1 6.666667,0 C 13.440316,1 14,1.7340783 14,2.4604774 l 0,12.4140576 -4.4350058,0 z"
         id="path57-5-9"
         sodipodi:nodetypes="cssccc" />
    <path
         style="color:black;fill:black;fill-opacity:1;fill-rule:nonzero;stroke:none;stroke-width:1;marker:none;visibility:visible;display:inline;overflow:visible;enable-background:accumulate;opacity:0.40000000000000002"
         id="path3956"
         d="m 8.3896655,2 c -0.356607,-0.042658 -0.4059873,0.2662253 -0.3688374,0.5119878 -0.00333,2.4455709 0.00677,4.8933837 -0.0051,7.3375548 C 7.9286325,9.9336609 7.7614927,9.7953087 7.6505295,9.831216 6.4416557,9.7631 5.1208517,10.573445 5,11.742897 c -0.142433,0.929784 0.9202733,1.694791 1.8679406,1.55018 1.1941249,-0.117164 2.1270415,-1.231215 1.9713613,-2.331007 0.00333,-1.9364122 -0.00676,-3.8750664 0.0051,-5.8100779 0.081398,-0.086177 0.202798,0.097307 0.2885416,0.1063061 C 10.093217,5.7835554 10.94266,6.6497255 11,7.7283887 11.063059,8.5712501 10.786983,9.3960064 10.476377,10.177382 11.517157,8.9930211 11.850334,7.265277 11.127106,5.8663694 10.757225,5.0543266 9.9228226,4.5538925 9.4560423,3.7996425 9.1113275,3.2956053 8.8489774,2.73291 8.7668967,2.1378518 8.6993137,2.013766 8.521303,1.9986564 8.3896655,1.9999915 z"
         inkscape:connector-curvature="0" />
    <path
         inkscape:connector-curvature="0"
         d="m 8.3896655,2.7109019 c -0.356607,-0.042642 -0.4059873,0.2661315 -0.3688374,0.5118074 -0.00333,2.4447093 0.00676,4.8916599 -0.0051,7.3349697 -0.087096,0.08409 -0.2542357,-0.05422 -0.365199,-0.01831 C 6.4416557,10.471267 5.1208517,11.281325 5,12.450367 4.857567,13.379823 5.9202733,14.144561 6.8679406,14 8.0620655,13.882878 8.9949821,12.76922 8.8393019,11.669815 8.8426362,9.7340854 8.832535,7.7961138 8.8444014,5.8617836 8.9257996,5.7756366 9.0471995,5.9590556 9.1329431,5.9680523 10.093217,6.4931245 10.94266,7.3589895 11,8.4372727 11.063059,9.2798372 10.786983,10.104304 10.476377,10.885404 11.517157,9.7014601 11.850334,7.9743249 11.127106,6.5759099 10.757225,5.7641525 9.9228226,5.2638947 9.4560423,4.5099104 9.1113275,4.0060508 8.8489774,3.4435537 8.7668967,2.8487051 8.6993137,2.724663 8.521303,2.7095588 8.3896655,2.7108934 z"
         id="path61"
         style="fill:white;stroke:none" />
    <g
         id="layer2-7"
         style="display:none"
         transform="translate(-4,-205.1879)">
        <rect
             width="86"
             height="85"
             rx="6"
             ry="6"
             x="5"
             y="7"
             id="rect3745-2"
             style="opacity:0.9;fill:url(#ButtonShadow-1);fill-opacity:1;fill-rule:nonzero;stroke:none;filter:url(#filter3174-0)" />
    </g>
    <g
         id="layer4-7"
         transform="translate(-4,-205.1879)" />
    <g
         id="layer2-0-8"
         style="display:none"
         transform="translate(22.564381,-194.73404)">
        <rect
             width="86"
             height="85"
             rx="6"
             ry="6"
             x="5"
             y="7"
             id="rect3745-7-9"
             style="opacity:0.9;fill:url(#ButtonShadow-91-1);fill-opacity:1;fill-rule:nonzero;stroke:none;filter:url(#filter3174-4-25)" />
    </g>
    <g
         id="layer4-3-7"
         transform="translate(22.564381,-194.73404)" />
    <g
         id="layer2-1-9"
         style="display:none"
         transform="translate(78.689382,-191.79881)">
        <rect
             width="86"
             height="85"
             rx="6"
             ry="6"
             x="5"
             y="7"
             id="rect3745-1-8"
             style="opacity:0.9;fill:url(#ButtonShadow-9-7);fill-opacity:1;fill-rule:nonzero;stroke:none;filter:url(#filter3174-2-5)" />
    </g>
    <g
         id="layer4-8-4"
         transform="translate(78.689382,-191.79881)" />
</svg>
