<?xml version="1.0" encoding="UTF-8" standalone="no"?>
<!-- Created with Inkscape (http://www.inkscape.org/) -->

<svg xmlns:dc="http://purl.org/dc/elements/1.1/" xmlns:cc="http://creativecommons.org/ns#" xmlns:rdf="http://www.w3.org/1999/02/22-rdf-syntax-ns#" xmlns:svg="http://www.w3.org/2000/svg" xmlns="http://www.w3.org/2000/svg" xmlns:xlink="http://www.w3.org/1999/xlink" xmlns:sodipodi="http://sodipodi.sourceforge.net/DTD/sodipodi-0.dtd" xmlns:inkscape="http://www.inkscape.org/namespaces/inkscape" width="16" height="16" id="svg4700" version="1.1" inkscape:version="0.48.4 r9939" sodipodi:docname="image-x-generic.svg">
  <defs id="defs4702">
    <filter id="filter3174" color-interpolation-filters="sRGB">
      <feGaussianBlur stdDeviation="1.71" id="feGaussianBlur3176" />
    </filter>
    <linearGradient gradientTransform="scale(1.0058652,0.994169)" gradientUnits="userSpaceOnUse" id="ButtonShadow" y2="7.0165396" x2="45.447727" y1="92.539597" x1="45.447727">
      <stop offset="0" style="stop-color:#000000;stop-opacity:1" id="stop3750" />
      <stop offset="1" style="stop-color:#000000;stop-opacity:0.58823532" id="stop3752" />
    </linearGradient>
    <linearGradient inkscape:collect="always" xlink:href="#linearGradient20028-0-1" id="linearGradient3100-7" gradientUnits="userSpaceOnUse" x1="60.454826" y1="-9.8733616" x2="68.331146" y2="35.364891" gradientTransform="matrix(0.3681923,0,0,0.35810397,-19.259002,31.53569)" />
    <linearGradient y2="34.685299" y1="3.7228" x2="21.1047" x1="14.8565" id="linearGradient20028-0-1" gradientUnits="userSpaceOnUse">
      <stop id="stop26-7" stop-color="#a40" offset="0" />
      <stop id="stop28-4" stop-color="#fea" offset="1" />
    </linearGradient>
    <linearGradient y2="7.0165396" x2="45.447727" y1="92.539597" x1="45.447727" gradientTransform="scale(1.0058652,0.994169)" gradientUnits="userSpaceOnUse" id="linearGradient3140" xlink:href="#ButtonShadow-8" inkscape:collect="always" />
    <linearGradient y2="7.0165396" x2="45.447727" y1="92.539597" x1="45.447727" gradientTransform="scale(1.0058652,0.994169)" gradientUnits="userSpaceOnUse" id="linearGradient3138" xlink:href="#ButtonShadow-91" inkscape:collect="always" />
    <linearGradient y2="7.0165396" x2="45.447727" y1="92.539597" x1="45.447727" gradientTransform="scale(1.0058652,0.994169)" gradientUnits="userSpaceOnUse" id="linearGradient3136" xlink:href="#ButtonShadow-9" inkscape:collect="always" />
    <filter id="filter3174-4" color-interpolation-filters="sRGB">
      <feGaussianBlur stdDeviation="1.71" id="feGaussianBlur3176-2" />
    </filter>
    <linearGradient gradientTransform="scale(1.0058652,0.994169)" gradientUnits="userSpaceOnUse" id="ButtonShadow-91" y2="7.0165396" x2="45.447727" y1="92.539597" x1="45.447727">
      <stop offset="0" style="stop-color:#000000;stop-opacity:1" id="stop3750-4" />
      <stop offset="1" style="stop-color:#000000;stop-opacity:0.58823532" id="stop3752-2" />
    </linearGradient>
    <linearGradient x1="45.447727" y1="92.539597" x2="45.447727" y2="7.0165396" id="ButtonShadow-9" gradientUnits="userSpaceOnUse" gradientTransform="scale(1.0058652,0.994169)">
      <stop id="stop3750-3" style="stop-color:#000000;stop-opacity:1" offset="0" />
      <stop id="stop3752-0" style="stop-color:#000000;stop-opacity:0.58823532" offset="1" />
    </linearGradient>
    <filter color-interpolation-filters="sRGB" id="filter3174-2">
      <feGaussianBlur id="feGaussianBlur3176-1" stdDeviation="1.71" />
    </filter>
    <linearGradient x1="45.447727" y1="92.539597" x2="45.447727" y2="7.0165396" id="ButtonShadow-8" gradientUnits="userSpaceOnUse" gradientTransform="scale(1.0058652,0.994169)">
      <stop id="stop3750-6" style="stop-color:#000000;stop-opacity:1" offset="0" />
      <stop id="stop3752-1" style="stop-color:#000000;stop-opacity:0.58823532" offset="1" />
    </linearGradient>
    <filter color-interpolation-filters="sRGB" id="filter3174-3">
      <feGaussianBlur id="feGaussianBlur3176-19" stdDeviation="1.71" />
    </filter>
    <linearGradient x1="45.447727" y1="92.539597" x2="45.447727" y2="7.0165396" id="ButtonShadow-6" gradientUnits="userSpaceOnUse" gradientTransform="scale(1.0058652,0.994169)">
      <stop id="stop3750-9" style="stop-color:#000000;stop-opacity:1" offset="0" />
      <stop id="stop3752-07" style="stop-color:#000000;stop-opacity:0.58823532" offset="1" />
    </linearGradient>
    <filter color-interpolation-filters="sRGB" id="filter3174-0">
      <feGaussianBlur id="feGaussianBlur3176-20" stdDeviation="1.71" />
    </filter>
    <radialGradient inkscape:collect="always" xlink:href="#linearGradient3872-8-5-0" id="radialGradient3241-7" gradientUnits="userSpaceOnUse" gradientTransform="matrix(0.35871681,2.6368254e-8,-2.4012587e-8,0.50492568,-1.2545,27.136612)" cx="17.061928" cy="22.215902" fx="17.061928" fy="22.215902" r="5.6176791" />
    <linearGradient id="linearGradient3872-8-5-0">
      <stop id="stop3874-8-0-3" offset="0" style="stop-color:#338100;stop-opacity:1" />
      <stop id="stop3876-5-6-3" offset="1" style="stop-color:#1b4e18;stop-opacity:1;" />
    </linearGradient>
    <linearGradient inkscape:collect="always" xlink:href="#linearGradient3875-7-0" id="linearGradient3246-2" gradientUnits="userSpaceOnUse" gradientTransform="matrix(0.35253628,0,0,0.35253632,-2.4419,32.08243)" x1="22" y1="31" x2="22" y2="42" />
    <linearGradient inkscape:collect="always" id="linearGradient3875-7-0">
      <stop style="stop-color:#da862e;stop-opacity:1" offset="0" id="stop3878-3-7" />
      <stop style="stop-color:#39220a;stop-opacity:1" offset="1" id="stop3880-8-6" />
    </linearGradient>
    <linearGradient inkscape:collect="always" xlink:href="#linearGradient3866-4-5-9" id="linearGradient3255-1" gradientUnits="userSpaceOnUse" gradientTransform="matrix(0,-0.35279585,-0.35279583,0,8.293623,32.479124)" x1="-5" y1="-21" x2="-43" y2="-21" />
    <linearGradient id="linearGradient3866-4-5-9">
      <stop style="stop-color:#966132;stop-opacity:1;" offset="0" id="stop3868-5-9-0" />
      <stop style="stop-color:#1e130a;stop-opacity:1;" offset="1" id="stop3870-0-3-5" />
    </linearGradient>
    <radialGradient inkscape:collect="always" xlink:href="#linearGradient3872-8-5-0" id="radialGradient3980" gradientUnits="userSpaceOnUse" gradientTransform="matrix(0.35871681,2.6368254e-8,-2.4012587e-8,0.50492568,-1.2545,27.136612)" cx="17.061928" cy="22.215902" fx="17.061928" fy="22.215902" r="5.6176791" />
    <radialGradient inkscape:collect="always" xlink:href="#linearGradient3872-8-5-0" id="radialGradient3983" gradientUnits="userSpaceOnUse" gradientTransform="matrix(0.35871681,2.6368254e-8,-2.4012587e-8,0.50492568,-1.2545,27.136612)" cx="17.061928" cy="22.215902" fx="17.061928" fy="22.215902" r="5.6176791" />
    <radialGradient inkscape:collect="always" xlink:href="#linearGradient3872-8-5-0" id="radialGradient3986" gradientUnits="userSpaceOnUse" gradientTransform="matrix(0.35871681,2.6368254e-8,-2.4012587e-8,0.50492568,-1.2545,27.136612)" cx="17.061928" cy="22.215902" fx="17.061928" fy="22.215902" r="5.6176791" />
  </defs>
  <sodipodi:namedview id="base" pagecolor="#ffffff" bordercolor="#666666" borderopacity="1.0" inkscape:pageopacity="0.0" inkscape:pageshadow="2" inkscape:zoom="22.627418" inkscape:cx="14.928494" inkscape:cy="7.0829102" inkscape:current-layer="layer1" showgrid="true" inkscape:grid-bbox="true" inkscape:document-units="px" inkscape:window-width="1278" inkscape:window-height="991" inkscape:window-x="0" inkscape:window-y="0" inkscape:window-maximized="0" inkscape:snap-to-guides="false" inkscape:snap-grids="true">
    <inkscape:grid type="xygrid" id="grid1021" empspacing="5" visible="true" enabled="true" snapvisiblegridlinesonly="true" />
  </sodipodi:namedview>
  <metadata id="metadata4705">
    <rdf:RDF>
      <cc:Work rdf:about="">
        <dc:format>image/svg+xml</dc:format>
        <dc:type rdf:resource="http://purl.org/dc/dcmitype/StillImage" />
        <dc:title />
      </cc:Work>
    </rdf:RDF>
  </metadata>
  <g id="layer1" inkscape:label="Layer 1" inkscape:groupmode="layer" transform="translate(0,-32)">
    <g id="layer2" style="display:none" transform="translate(5.204491,-179.6879)">
      <rect width="86" height="85" rx="6" ry="6" x="5" y="7" id="rect3745" style="opacity:0.9;fill:url(#ButtonShadow);fill-opacity:1;fill-rule:nonzero;stroke:none;filter:url(#filter3174)" />
    </g>
    <g id="layer4" transform="translate(5.204491,-179.6879)" />
    <rect style="color:black;fill:url(#linearGradient3100-7);fill-opacity:1;fill-rule:evenodd;stroke:none;stroke-width:1;marker:none;visibility:visible;display:inline;overflow:visible;enable-background:accumulate" id="rect3154" y="33" x="1" ry="1.5" height="14" width="14" rx="1.5" />
    <path style="color:black;fill:url(#linearGradient3246-2);fill-opacity:1;fill-rule:nonzero;stroke:none;stroke-width:1;marker:none;visibility:visible;display:inline;overflow:visible;enable-background:accumulate" inkscape:connector-curvature="0" d="M 15,44.00002 15,47 1,47 1,43 c 5,-3 11.02945,0.678569 14,0.99998 z" id="path46" sodipodi:nodetypes="cccccc" />
    <path style="fill:#ffff85;fill-rule:evenodd;stroke:none;fill-opacity:1" inkscape:connector-curvature="0" d="m 13,37 a 2,2 0 0 1 -4,0 2,2 0 1 1 4,0 z" id="path58" />
    <path style="color:black;fill:#2f1d07;fill-opacity:1;fill-rule:nonzero;stroke:none;stroke-width:1;marker:none;visibility:visible;display:inline;overflow:visible;enable-background:accumulate" d="m 4.325305,40.016645 c 0.3169194,0.173371 0.29394,0.622594 0.336018,1.013719 0.020079,0.811373 -0.2711319,0.703835 -0.670237,1.053742 -0.1013686,0.03548 -0.3369763,0.01606 -0.3490168,0.09432 0.2509443,0.05023 0.5091549,0.02652 0.7593287,-0.0096 0.061484,-0.02815 0.1385606,-0.06086 0.030605,-0.0073 -0.067642,0.05489 -0.3141081,0.126475 -0.2435724,0.232601 0.1586664,-0.124968 0.3436536,-0.281046 0.5413,-0.225041 0.1195409,0.0047 0.1209582,0.256192 0.1860728,0.256803 0.00204,-0.153178 0.071781,-0.399477 0.2042598,-0.201859 0.1371935,0.0255 0.2856937,-0.105932 0.4070643,0.0556 0.058357,0.03614 0.2854949,0.154228 0.122376,0.07747 -0.1527154,-0.04294 -0.074586,-0.281832 0.067181,-0.22215 0.094213,-0.01891 0.2328568,0.06168 0.3021091,-0.01544 -0.066087,-0.07644 -0.058181,-0.08052 0.02911,-0.06733 0.2188546,0.01548 0.4378265,0.03351 0.6552129,0.0692 0.1017655,-0.01513 0.1099458,-0.102514 -3.366e-4,-0.09021 -0.23354,-0.01094 -0.4704617,-0.02306 -0.6914223,-0.126866 -0.675004,-0.113173 -0.4159449,-0.629491 -0.5266008,-0.923211 -0.00773,-0.214497 -0.013466,-0.720449 0.1387988,-0.747552 0.1479161,-0.03298 0.3173564,-0.122577 0.346801,-0.326161 C 6.0048286,39.644949 5.8278821,39.42914 5.6645379,39.296473 5.4574554,39.048667 5.159622,38.927236 4.8733745,38.973527 c -0.2084566,-0.0034 -0.4672724,-0.02454 -0.611746,0.197769 -0.065749,0.163501 -0.1184804,0.387439 -0.02738,0.55327 0.028622,0.106903 0.2833257,0.219264 0.091057,0.292079 z" id="path54" inkscape:connector-curvature="0" sodipodi:nodetypes="cccccccccccccccccccccccccc" />
    <path style="color:black;fill:url(#radialGradient3986);fill-opacity:1;fill-rule:nonzero;stroke:none;stroke-width:1;marker:none;visibility:visible;display:inline;overflow:visible;enable-background:accumulate" d="m 4.939782,37.272246 c -0.2329046,-0.242687 -0.4297254,0.521268 -0.5885847,0.03658 -0.366801,-0.290361 -0.3341106,0.556641 -0.6689888,0.294789 -0.2897599,0.02235 -0.2555543,0.488121 -0.3588558,0.553844 -0.1912047,-0.0359 -0.1229042,0.548714 -0.3067669,0.176011 -0.3172633,-0.263294 -0.6141289,0.363985 -0.3251239,0.580479 0.1553629,0.249126 -0.1812948,0.515044 0.056308,0.766879 -0.237846,0.243916 -0.3215286,0.659786 -0.02131,0.890871 0.039844,0.273509 0.1299123,0.555638 0.4840715,0.406752 0.1414182,0.03954 0.3018862,0.253537 0.4140891,0.01721 0.2961779,-0.01626 0.8722266,0.03226 0.6441113,-0.447307 -0.032988,-0.301021 0.3920685,-0.07836 0.2924258,-0.355737 0.011162,-0.289848 0.3105338,-0.323064 0.3447094,-0.0267 0.063318,0.07762 0.315523,-0.528056 0.2584952,-0.216938 -0.1892536,0.392213 0.3513895,-0.03744 0.3948494,0.05771 -0.2418667,0.08596 -0.1296772,0.335108 0.084928,0.178829 0.3420278,-0.110112 -0.4597414,0.331685 -0.070136,0.292609 0.3809694,-0.208346 0.5496316,0.213711 0.5840534,0.516344 0.2039638,0.358501 0.6802494,0.09951 0.7213189,-0.242863 0.249649,-0.230143 0.5962506,0.351942 0.7892708,-0.01197 0.082988,-0.282028 -0.4165147,-0.540724 0.010057,-0.7189 0.2870558,-0.186611 0.028705,-0.541432 -0.1690654,-0.68606 C 7.2877627,39.136046 7.6121429,38.686665 7.250442,38.529061 6.8863914,38.379313 7.2403508,37.884465 6.8339386,37.787888 6.5559648,37.578859 6.2855311,38.187266 6.1612559,37.716405 6.2396174,37.380878 5.8170471,37.242544 5.6733046,37.551651 5.5052307,37.54559 5.4009636,37.130758 5.1485086,37.346894 5.0730059,37.337735 5.0176837,37.272425 4.939782,37.272246 z" id="path56" inkscape:connector-curvature="0" />
    <g id="layer2-3" style="display:none" transform="matrix(0.75732562,0,0,0.75732562,19.796963,-122.574)">
      <rect width="86" height="85" rx="7.922616" ry="7.922616" x="5" y="7" id="rect3745-0" style="opacity:0.9;fill:url(#linearGradient3140);fill-opacity:1;fill-rule:nonzero;stroke:none;filter:url(#filter3174-3)" />
    </g>
    <g id="layer4-0" transform="matrix(0.75732562,0,0,0.75732562,19.796963,-122.574)" />
    <g id="layer2-0" style="display:none" transform="matrix(0.75732562,0,0,0.75732562,39.914849,-114.65702)">
      <rect width="86" height="85" rx="7.922616" ry="7.922616" x="5" y="7" id="rect3745-7" style="opacity:0.9;fill:url(#linearGradient3138);fill-opacity:1;fill-rule:nonzero;stroke:none;filter:url(#filter3174-4)" />
    </g>
    <g id="layer4-3" transform="matrix(0.75732562,0,0,0.75732562,39.914849,-114.65702)" />
    <g id="layer2-1" style="display:none" transform="matrix(0.75732562,0,0,0.75732562,82.41975,-112.43409)">
      <rect width="86" height="85" rx="7.922616" ry="7.922616" x="5" y="7" id="rect3745-1" style="opacity:0.9;fill:url(#linearGradient3136);fill-opacity:1;fill-rule:nonzero;stroke:none;filter:url(#filter3174-2)" />
    </g>
    <g id="layer4-8" transform="matrix(0.75732562,0,0,0.75732562,82.41975,-112.43409)" />
    <g id="layer2-07" style="display:none" transform="matrix(0.99999504,0,0,1,24.76702,-177.7504)">
      <rect width="86" height="85" rx="6.0000296" ry="6" x="5" y="7" id="rect3745-2" style="opacity:0.9;fill:url(#ButtonShadow-6);fill-opacity:1;fill-rule:nonzero;stroke:none;filter:url(#filter3174-0)" />
    </g>
    <g id="layer4-2" transform="matrix(0.99999504,0,0,1,24.76702,-177.7504)" />
    <rect style="color:black;fill:none;fill-opacity:1;fill-rule:nonzero;stroke:url(#linearGradient3255-1);stroke-width:1;stroke-linecap:round;stroke-linejoin:round;stroke-miterlimit:4;stroke-opacity:1;stroke-dasharray:none;stroke-dashoffset:0;marker:none;visibility:visible;display:inline;overflow:visible;enable-background:accumulate" id="rect3874" width="15" height="15" x="0.5" y="32.5" ry="2" rx="2" />
  </g>
</svg>
