<?xml version="1.0" encoding="UTF-8" standalone="no"?>
<!-- Created with Inkscape (http://www.inkscape.org/) -->

<svg
     xmlns:dc="http://purl.org/dc/elements/1.1/"
     xmlns:cc="http://creativecommons.org/ns#"
     xmlns:rdf="http://www.w3.org/1999/02/22-rdf-syntax-ns#"
     xmlns:svg="http://www.w3.org/2000/svg"
     xmlns="http://www.w3.org/2000/svg"
     xmlns:xlink="http://www.w3.org/1999/xlink"
     xmlns:sodipodi="http://sodipodi.sourceforge.net/DTD/sodipodi-0.dtd"
     xmlns:inkscape="http://www.inkscape.org/namespaces/inkscape"
     width="16"
     height="16"
     id="svg4700"
     version="1.1"
     inkscape:version="0.48.3.1 r9886"
     sodipodi:docname="image-x-generic.svg">
    <defs
         id="defs4702">
        <linearGradient
             id="linearGradient4050">
            <stop
                 id="stop4052"
                 offset="0"
                 style="stop-color:#ffffff;stop-opacity:1;" />
            <stop
                 id="stop4054"
                 offset="1"
                 style="stop-color:#ffffff;stop-opacity:0;" />
        </linearGradient>
        <filter
             id="filter3174"
             color-interpolation-filters="sRGB">
            <feGaussianBlur
                 stdDeviation="1.71"
                 id="feGaussianBlur3176" />
        </filter>
        <linearGradient
             gradientTransform="scale(1.0058652,0.994169)"
             gradientUnits="userSpaceOnUse"
             id="ButtonShadow"
             y2="7.0165396"
             x2="45.447727"
             y1="92.539597"
             x1="45.447727">
            <stop
                 offset="0"
                 style="stop-color:#000000;stop-opacity:1"
                 id="stop3750" />
            <stop
                 offset="1"
                 style="stop-color:#000000;stop-opacity:0.58823532"
                 id="stop3752" />
        </linearGradient>
        <linearGradient
             y2="24.20339"
             y1="6.1016898"
             x2="0"
             id="linearGradient4071-6"
             gradientUnits="userSpaceOnUse">
            <stop
                 id="stop24-5"
                 stop-color="#bf914e"
                 offset="0"
                 style="stop-color:#c78a33;stop-opacity:1;" />
            <stop
                 id="stop26-0"
                 stop-color="#8b5810"
                 offset="1"
                 style="stop-color:#66400c;stop-opacity:1;" />
        </linearGradient>
        <radialGradient
             xlink:href="#linearGradient5060"
             r="117.14286"
             id="radialGradient3131"
             gradientUnits="userSpaceOnUse"
             gradientTransform="matrix(-0.062142,0,0,0.029001,46.53201,28.085503)"
             cy="486.64789"
             cx="605.71429" />
        <radialGradient
             xlink:href="#linearGradient5060"
             r="117.14286"
             id="radialGradient3129"
             gradientUnits="userSpaceOnUse"
             gradientTransform="matrix(0.062142,0,0,0.029001,1.636502,28.085503)"
             cy="486.64789"
             cx="605.71429" />
        <linearGradient
             x2="-5.8431101"
             x1="-42.696152"
             id="linearGradient3157-5-2"
             gradientUnits="userSpaceOnUse">
            <stop
                 id="stop29"
                 stop-color="#ae802b"
                 offset="0" />
            <stop
                 id="stop31"
                 stop-color="#e1c18b"
                 offset="1" />
        </linearGradient>
        <linearGradient
             x2="41.369011"
             x1="6.4056101"
             id="linearGradient998"
             gradientUnits="userSpaceOnUse">
            <stop
                 id="stop19"
                 stop-opacity=".5"
                 stop-color="#fff"
                 offset="0" />
            <stop
                 id="stop21"
                 stop-opacity="0"
                 stop-color="#fff"
                 offset="1" />
        </linearGradient>
        <linearGradient
             y2="45.761669"
             y1="38.718601"
             x2="0"
             id="linearGradient3127"
             gradientUnits="userSpaceOnUse">
            <stop
                 id="stop12"
                 stop-opacity="0"
                 offset="0" />
            <stop
                 id="stop14"
                 offset=".5" />
            <stop
                 id="stop16"
                 stop-opacity="0"
                 offset="1" />
        </linearGradient>
        <linearGradient
             id="linearGradient5060">
            <stop
                 id="stop7"
                 offset="0" />
            <stop
                 id="stop9"
                 stop-opacity="0"
                 offset="1" />
        </linearGradient>
        <linearGradient
             inkscape:collect="always"
             xlink:href="#linearGradient998"
             id="linearGradient3069"
             gradientUnits="userSpaceOnUse"
             x1="6.4056101"
             x2="41.369011"
             gradientTransform="matrix(0,1,-1,0,25.470401,15.180019)" />
        <linearGradient
             inkscape:collect="always"
             xlink:href="#linearGradient3157-5-2"
             id="linearGradient3075"
             gradientUnits="userSpaceOnUse"
             x1="-42.696152"
             x2="-5.8431101"
             gradientTransform="matrix(0,-0.57023713,-0.5702371,0,-1.8295158,22.379162)" />
        <linearGradient
             x2="-5.8431101"
             x1="-42.696152"
             id="linearGradient3157-5-2-4"
             gradientUnits="userSpaceOnUse">
            <stop
                 id="stop29-2"
                 stop-color="#ae802b"
                 offset="0" />
            <stop
                 id="stop31-9"
                 stop-color="#e1c18b"
                 offset="1" />
        </linearGradient>
        <linearGradient
             y2="22.4515"
             y1="-8.7496004"
             x2="34.056301"
             x1="8.7800999"
             id="linearGradient3179"
             gradientUnits="userSpaceOnUse">
            <stop
                 id="stop36"
                 stop-color="#fff"
                 offset="0" />
            <stop
                 id="stop38"
                 stop-opacity="0"
                 stop-color="#fff"
                 offset="1" />
        </linearGradient>
        <linearGradient
             y2="50.269901"
             y1="33.578201"
             x2="19.5851"
             x1="17.7101"
             id="linearGradient20025-9"
             gradientUnits="userSpaceOnUse">
            <stop
                 id="stop31-5"
                 stop-color="#502d16"
                 offset="0" />
            <stop
                 id="stop33"
                 offset="1" />
        </linearGradient>
        <linearGradient
             y2="34.685299"
             y1="3.7228"
             x2="21.1047"
             x1="14.8565"
             id="linearGradient20028-0"
             gradientUnits="userSpaceOnUse">
            <stop
                 id="stop26"
                 stop-color="#a40"
                 offset="0" />
            <stop
                 id="stop28"
                 stop-color="#fea"
                 offset="1" />
        </linearGradient>
        <linearGradient
             y2="41.825802"
             y1="4.6476998"
             x2="0"
             id="linearGradient4523"
             gradientUnits="userSpaceOnUse">
            <stop
                 id="stop21-8"
                 stop-opacity=".669"
                 stop-color="#fff"
                 offset="0" />
            <stop
                 id="stop23"
                 stop-opacity="0"
                 stop-color="#fff"
                 offset="1" />
        </linearGradient>
        <filter
             y="-0.2705"
             x="-0.2281"
             width="1.4563"
             id="filter20101"
             height="1.5409"
             color-interpolation-filters="sRGB">
            <feGaussianBlur
                 id="feGaussianBlur13"
                 stdDeviation="16.981" />
        </filter>
        <filter
             y="-0.63990003"
             x="-0.1182"
             width="1.2364"
             id="filter3914"
             height="2.2797999"
             color-interpolation-filters="sRGB">
            <feGaussianBlur
                 id="feGaussianBlur10"
                 stdDeviation="1.872" />
        </filter>
        <linearGradient
             inkscape:collect="always"
             xlink:href="#linearGradient3179"
             id="linearGradient3087"
             gradientUnits="userSpaceOnUse"
             x1="8.7800999"
             y1="-8.7496004"
             x2="34.056301"
             y2="22.4515"
             gradientTransform="matrix(0.47824931,0,0,0.46644355,25.915203,25.580912)" />
        <linearGradient
             inkscape:collect="always"
             xlink:href="#linearGradient20025-9"
             id="linearGradient3097"
             gradientUnits="userSpaceOnUse"
             x1="17.7101"
             y1="33.578201"
             x2="19.5851"
             y2="50.269901"
             gradientTransform="matrix(0.35008185,0,0,0.40403705,-0.40032781,29.639573)" />
        <linearGradient
             inkscape:collect="always"
             xlink:href="#linearGradient4523-2"
             id="linearGradient3094-8"
             gradientUnits="userSpaceOnUse"
             y1="4.6476998"
             x2="0"
             y2="41.825802"
             gradientTransform="matrix(0.46913793,0,0,0.47055591,24.433549,25.675193)" />
        <linearGradient
             y2="41.825802"
             y1="4.6476998"
             x2="0"
             id="linearGradient4523-2"
             gradientUnits="userSpaceOnUse">
            <stop
                 id="stop21-8-3"
                 stop-opacity=".669"
                 stop-color="#fff"
                 offset="0" />
            <stop
                 id="stop23-7"
                 stop-opacity="0"
                 stop-color="#fff"
                 offset="1" />
        </linearGradient>
        <linearGradient
             y2="41.825802"
             x2="0"
             y1="4.6476998"
             gradientTransform="matrix(0.4690309,0,0,0.4690309,-1.604211,-1.118295)"
             gradientUnits="userSpaceOnUse"
             id="linearGradient3119"
             xlink:href="#linearGradient4523-2"
             inkscape:collect="always" />
        <linearGradient
             inkscape:collect="always"
             xlink:href="#linearGradient20028-0-1"
             id="linearGradient3100-7"
             gradientUnits="userSpaceOnUse"
             x1="60.726425"
             y1="4.0890627"
             x2="68.331146"
             y2="35.364891"
             gradientTransform="matrix(0.3681923,0,0,0.35810397,-19.259002,31.53569)" />
        <linearGradient
             y2="34.685299"
             y1="3.7228"
             x2="21.1047"
             x1="14.8565"
             id="linearGradient20028-0-1"
             gradientUnits="userSpaceOnUse">
            <stop
                 id="stop26-7"
                 stop-color="#a40"
                 offset="0" />
            <stop
                 id="stop28-4"
                 stop-color="#fea"
                 offset="1" />
        </linearGradient>
        <linearGradient
             y2="34.685299"
             x2="21.1047"
             y1="3.7228"
             x1="14.8565"
             gradientTransform="matrix(0.5,0,0,0.5,-2,-1.482)"
             gradientUnits="userSpaceOnUse"
             id="linearGradient3171"
             xlink:href="#linearGradient20028-0-1"
             inkscape:collect="always" />
        <linearGradient
             id="linearGradient1000-0-6">
            <stop
                 id="stop7-6-3"
                 stop-color="#fff"
                 offset="0" />
            <stop
                 id="stop9-8-2"
                 stop-opacity="0"
                 stop-color="#fff"
                 offset="1" />
        </linearGradient>
        <linearGradient
             x2="41.369011"
             x1="6.4056101"
             gradientTransform="matrix(0,0.42599567,-0.42599567,0,0.941021,-1.9109705)"
             gradientUnits="userSpaceOnUse"
             id="linearGradient3129-7"
             xlink:href="#linearGradient1000-0-6"
             inkscape:collect="always" />
        <linearGradient
             y2="3.8989999"
             y1="44"
             x2="0"
             id="linearGradient3911-3-1-3"
             gradientUnits="userSpaceOnUse"
             gradientTransform="matrix(0,-1.102564,1,0,51.762716,41.724249)">
            <stop
                 id="stop24-1-8"
                 stop-color="#202020"
                 offset="0" />
            <stop
                 id="stop26-8-8"
                 stop-color="#383838"
                 offset="1" />
        </linearGradient>
        <linearGradient
             y2="3.8989999"
             x2="0"
             y1="44"
             gradientTransform="matrix(0.48075901,0,0,0.43603728,-16.376931,19.404419)"
             gradientUnits="userSpaceOnUse"
             id="linearGradient3134-7"
             xlink:href="#linearGradient3911-3-1-3"
             inkscape:collect="always" />
        <radialGradient
             r="19.99999"
             id="radialGradient3909-3-1-6"
             gradientUnits="userSpaceOnUse"
             gradientTransform="matrix(2.33699,-2.142113e-8,-4.3056275e-8,2.725821,39.327917,-7.769967)"
             cy="8.44977"
             cx="7.4956799">
            <stop
                 id="stop31-6-6"
                 stop-color="#4d4d4d"
                 offset="0" />
            <stop
                 id="stop33-6-1"
                 stop-color="#404040"
                 offset=".262" />
            <stop
                 id="stop35-8-2"
                 stop-color="#303030"
                 offset=".705" />
            <stop
                 id="stop37-50-5"
                 stop-color="#232323"
                 offset="1" />
        </radialGradient>
        <radialGradient
             r="19.99999"
             cy="8.44977"
             cx="7.4956799"
             gradientTransform="matrix(0,1.0190148,-1.1885596,-1.8774142e-8,5.204393,13.982383)"
             gradientUnits="userSpaceOnUse"
             id="radialGradient3132-8"
             xlink:href="#radialGradient3909-3-1-6"
             inkscape:collect="always" />
        <linearGradient
             y2="7.0165396"
             x2="45.447727"
             y1="92.539597"
             x1="45.447727"
             gradientTransform="scale(1.0058652,0.994169)"
             gradientUnits="userSpaceOnUse"
             id="linearGradient3140"
             xlink:href="#ButtonShadow-8"
             inkscape:collect="always" />
        <linearGradient
             y2="7.0165396"
             x2="45.447727"
             y1="92.539597"
             x1="45.447727"
             gradientTransform="scale(1.0058652,0.994169)"
             gradientUnits="userSpaceOnUse"
             id="linearGradient3138"
             xlink:href="#ButtonShadow-91"
             inkscape:collect="always" />
        <linearGradient
             y2="7.0165396"
             x2="45.447727"
             y1="92.539597"
             x1="45.447727"
             gradientTransform="scale(1.0058652,0.994169)"
             gradientUnits="userSpaceOnUse"
             id="linearGradient3136"
             xlink:href="#ButtonShadow-9"
             inkscape:collect="always" />
        <linearGradient
             y2="25.48744"
             x2="31.74275"
             y1="-5.7136502"
             x1="8.2114201"
             gradientTransform="matrix(0.34372854,0,0,0.38012425,-0.09287054,-1.2807451)"
             gradientUnits="userSpaceOnUse"
             id="linearGradient3116"
             xlink:href="#linearGradient4594-3"
             inkscape:collect="always" />
        <filter
             id="filter3174-4"
             color-interpolation-filters="sRGB">
            <feGaussianBlur
                 stdDeviation="1.71"
                 id="feGaussianBlur3176-2" />
        </filter>
        <linearGradient
             gradientTransform="scale(1.0058652,0.994169)"
             gradientUnits="userSpaceOnUse"
             id="ButtonShadow-91"
             y2="7.0165396"
             x2="45.447727"
             y1="92.539597"
             x1="45.447727">
            <stop
                 offset="0"
                 style="stop-color:#000000;stop-opacity:1"
                 id="stop3750-4" />
            <stop
                 offset="1"
                 style="stop-color:#000000;stop-opacity:0.58823532"
                 id="stop3752-2" />
        </linearGradient>
        <linearGradient
             gradientUnits="userSpaceOnUse"
             id="linearGradient4594-3"
             x1="8.2114201"
             x2="31.74275"
             y1="-5.7136502"
             y2="25.48744">
            <stop
                 offset="0"
                 stop-color="#fff"
                 id="stop37-5-1" />
            <stop
                 offset="1"
                 stop-color="#fff"
                 stop-opacity="0"
                 id="stop39-0" />
        </linearGradient>
        <linearGradient
             x1="45.447727"
             y1="92.539597"
             x2="45.447727"
             y2="7.0165396"
             id="ButtonShadow-9"
             gradientUnits="userSpaceOnUse"
             gradientTransform="scale(1.0058652,0.994169)">
            <stop
                 id="stop3750-3"
                 style="stop-color:#000000;stop-opacity:1"
                 offset="0" />
            <stop
                 id="stop3752-0"
                 style="stop-color:#000000;stop-opacity:0.58823532"
                 offset="1" />
        </linearGradient>
        <filter
             color-interpolation-filters="sRGB"
             id="filter3174-2">
            <feGaussianBlur
                 id="feGaussianBlur3176-1"
                 stdDeviation="1.71" />
        </filter>
        <linearGradient
             x1="45.447727"
             y1="92.539597"
             x2="45.447727"
             y2="7.0165396"
             id="ButtonShadow-8"
             gradientUnits="userSpaceOnUse"
             gradientTransform="scale(1.0058652,0.994169)">
            <stop
                 id="stop3750-6"
                 style="stop-color:#000000;stop-opacity:1"
                 offset="0" />
            <stop
                 id="stop3752-1"
                 style="stop-color:#000000;stop-opacity:0.58823532"
                 offset="1" />
        </linearGradient>
        <filter
             color-interpolation-filters="sRGB"
             id="filter3174-3">
            <feGaussianBlur
                 id="feGaussianBlur3176-19"
                 stdDeviation="1.71" />
        </filter>
        <linearGradient
             inkscape:collect="always"
             xlink:href="#linearGradient4594-3"
             id="linearGradient3172"
             gradientUnits="userSpaceOnUse"
             gradientTransform="matrix(0.34372854,0,0,0.38356165,0.907129,30.698631)"
             x1="8.2114201"
             y1="-5.7136502"
             x2="31.74275"
             y2="25.48744" />
        <linearGradient
             inkscape:collect="always"
             xlink:href="#linearGradient1000-0-6"
             id="linearGradient3175"
             gradientUnits="userSpaceOnUse"
             gradientTransform="matrix(0,0.42599567,-0.42599567,0,17.941021,30.589029)"
             x1="6.4056101"
             x2="41.369011" />
        <radialGradient
             inkscape:collect="always"
             xlink:href="#radialGradient3909-3-1-6"
             id="radialGradient3193"
             gradientUnits="userSpaceOnUse"
             gradientTransform="matrix(0,1.0190148,-1.1885596,-1.8774142e-8,22.204393,46.482383)"
             cx="7.4956799"
             cy="8.44977"
             r="19.99999" />
        <linearGradient
             inkscape:collect="always"
             xlink:href="#linearGradient3911-3-1-3"
             id="linearGradient3195"
             gradientUnits="userSpaceOnUse"
             gradientTransform="matrix(0.48075901,0,0,0.43603728,0.623069,51.904419)"
             y1="44"
             x2="0"
             y2="3.8989999" />
    </defs>
    <sodipodi:namedview
         id="base"
         pagecolor="#ffffff"
         bordercolor="#666666"
         borderopacity="1.0"
         inkscape:pageopacity="0.0"
         inkscape:pageshadow="2"
         inkscape:zoom="16"
         inkscape:cx="17.67526"
         inkscape:cy="17.775554"
         inkscape:current-layer="layer1"
         showgrid="true"
         inkscape:grid-bbox="true"
         inkscape:document-units="px"
         inkscape:window-width="1280"
         inkscape:window-height="976"
         inkscape:window-x="0"
         inkscape:window-y="24"
         inkscape:window-maximized="1"
         inkscape:snap-to-guides="false"
         inkscape:snap-grids="true">
        <inkscape:grid
             type="xygrid"
             id="grid1021"
             empspacing="5"
             visible="true"
             enabled="true"
             snapvisiblegridlinesonly="true" />
    </sodipodi:namedview>
    <metadata
         id="metadata4705">
        <rdf:RDF>
            <cc:Work
                 rdf:about="">
                <dc:format>image/svg+xml</dc:format>
                <dc:type
                     rdf:resource="http://purl.org/dc/dcmitype/StillImage" />
                <dc:title />
            </cc:Work>
        </rdf:RDF>
    </metadata>
    <g
         id="layer1"
         inkscape:label="Layer 1"
         inkscape:groupmode="layer"
         transform="translate(0,-32)">
        <g
             id="layer2"
             style="display:none"
             transform="translate(5.204491,-179.6879)">
            <rect
                 width="86"
                 height="85"
                 rx="6"
                 ry="6"
                 x="5"
                 y="7"
                 id="rect3745"
                 style="opacity:0.9;fill:url(#ButtonShadow);fill-opacity:1;fill-rule:nonzero;stroke:none;filter:url(#filter3174)" />
        </g>
        <g
             id="layer4"
             transform="translate(5.204491,-179.6879)" />
        <rect
             style="color:black;fill:#b3b3b3;fill-opacity:1;fill-rule:nonzero;stroke:#696969;stroke-width:0.99999994;stroke-linecap:butt;stroke-linejoin:miter;stroke-miterlimit:4;stroke-opacity:1;stroke-dasharray:none;stroke-dashoffset:0;marker:none;visibility:visible;display:inline;overflow:visible;enable-background:accumulate"
             id="rect3874"
             width="15"
             height="15"
             x="0.5"
             y="32.5"
             ry="2"
             rx="2" />
        <rect
             width="19.016144"
             height="19.610952"
             ry="1"
             x="27"
             y="27.389046"
             id="rect4513"
             style="opacity:0.5;color:black;fill:none;stroke:url(#linearGradient3094-8);stroke-width:1.02429998;stroke-linecap:butt;stroke-linejoin:miter;stroke-miterlimit:4;stroke-opacity:1;stroke-dasharray:none;stroke-dashoffset:0;marker:none;visibility:visible;display:inline;overflow:visible;enable-background:accumulate"
             rx="0.99999994" />
        <rect
             style="color:black;fill:url(#linearGradient3100-7);fill-opacity:1;fill-rule:evenodd;stroke:none;stroke-width:1;marker:none;visibility:visible;display:inline;overflow:visible;enable-background:accumulate"
             id="rect3154"
             y="33"
             x="1"
             ry="1.5"
             height="14"
             width="14"
             rx="1.5" />
        <path
             style="fill:url(#linearGradient3097)"
             inkscape:connector-curvature="0"
             d="m 15,43.565469 0,2.146574 C 15,46.475317 14.565048,47.000071 13.949994,47 L 2.0499268,46.998626 C 1.3860578,46.998544 1,46.57105 1,45.712043 l 0,-3.005232 c 4.5486488,-1.874893 11.02945,0.537207 14,0.858618 z"
             id="path46"
             sodipodi:nodetypes="cssssccc" />
        <path
             style="fill:#ffe57d;fill-rule:evenodd"
             inkscape:connector-curvature="0"
             d="m 14,36.000653 a 2,2 0 0 1 -4,0 2,2 0 1 1 4,0 z"
             id="path58" />
        <path
             style="fill:#4a351d"
             inkscape:connector-curvature="0"
             id="path54"
             d="m 4.325305,40.46611 c 0.02424,0.02591 0.06469,0.02553 0.09217,0.04619 0.01158,0.0087 0.01914,0.02208 0.03073,0.03079 0.0092,0.0069 0.02119,0.009 0.03073,0.0154 0.01807,0.01208 0.02871,0.03313 0.04608,0.04619 0.0092,0.0069 0.02263,0.0073 0.03073,0.0154 9.85e-4,9.88e-4 0.02882,0.05872 0.03073,0.06158 0.01536,0.02309 0.03073,0.0154 0.04608,0.04619 0.0046,0.0091 -0.0025,0.02084 0,0.03079 0.0028,0.01114 0.01024,0.02053 0.01536,0.03079 l 0.04608,0.09238 c 0.0051,0.01026 0.01258,0.01966 0.01536,0.03079 0.0025,0.0099 -0.0032,0.02105 0,0.03079 0.0023,0.0069 0.01024,0.01026 0.01536,0.0154 0.0051,0.01026 0.01258,0.01966 0.01536,0.03079 0.0025,0.0099 -0.0032,0.02105 0,0.03079 0.0023,0.0069 0.01307,0.0085 0.01536,0.0154 0.0032,0.0097 -0.0032,0.02105 0,0.03079 0.0023,0.0069 0.01212,0.0089 0.01536,0.0154 0.0046,0.0091 -0.0046,0.02161 0,0.03079 0.0032,0.0065 0.01212,0.0089 0.01536,0.0154 0.002,0.004 0,0.08146 0,0.09238 0,0.0051 -0.0036,0.01177 0,0.0154 0.0036,0.0036 0.01174,-0.0036 0.01536,0 0.0036,0.0036 0,0.01026 0,0.0154 v 0.0154 c 0,0.01092 -0.002,0.0884 0,0.09238 0.0032,0.0065 0.01212,0.0089 0.01536,0.0154 0.0016,0.0031 0.0022,0.04401 0,0.04619 -0.0068,0.0068 -0.02902,-0.01198 -0.01536,0.0154 0.0032,0.0065 0.01536,0.0081 0.01536,0.0154 0,0.0051 -0.01174,-0.0036 -0.01536,0 -7.04e-4,7.06e-4 0,0.06972 0,0.07698 0,0.0051 0.0036,0.01177 0,0.0154 -0.0036,0.0036 -0.01174,-0.0036 -0.01536,0 -0.0031,0.0031 0.003,0.04008 0,0.04619 -0.05095,0.05107 0.0072,-0.01451 -0.01536,0.03079 -0.0092,0.01847 -0.03687,0.02771 -0.04609,0.04619 -0.0023,0.0046 0.0036,0.01177 0,0.0154 -0.0036,0.0036 -0.01174,-0.0036 -0.01536,0 -0.0072,0.0072 0.0046,0.02161 0,0.03079 -0.0065,0.01298 -0.02425,0.01781 -0.03073,0.03079 -0.0023,0.0046 0.0023,0.01081 0,0.0154 -0.0032,0.0065 -0.01212,0.0089 -0.01536,0.0154 -0.0023,0.0046 0.0023,0.0108 0,0.0154 -0.0032,0.0065 -0.01212,0.0089 -0.01536,0.0154 -0.0023,0.0046 0.0036,0.01177 0,0.0154 -0.0036,0.0036 -0.01174,-0.0036 -0.01536,0 -0.03179,0.03185 0.04857,-0.0012 -0.01536,0.03079 -0.0092,0.0046 -0.02348,-0.0072 -0.03073,0 -0.0036,0.0036 0.0036,0.01177 0,0.0154 -0.0036,0.0036 -0.01078,-0.0023 -0.01536,0 -0.0065,0.0032 -0.0089,0.01215 -0.01536,0.0154 -0.0092,0.0046 -0.02156,-0.0046 -0.03073,0 -0.01295,0.0065 -0.01777,0.0243 -0.03073,0.03079 -0.0046,0.0023 -0.01078,-0.0023 -0.01536,0 -0.0065,0.0032 -0.0089,0.01215 -0.01536,0.0154 -0.0046,0.0023 -0.01078,-0.0023 -0.01536,0 -0.0065,0.0032 -0.01024,0.01026 -0.01536,0.0154 l -0.01536,0.0154 c -0.05095,0.05107 0.01448,-0.0072 -0.03073,0.0154 -0.01295,0.0065 -0.01777,0.0243 -0.03073,0.03079 -0.0092,0.0046 -0.02157,-0.0046 -0.03073,0 -0.0065,0.0032 -0.0089,0.01215 -0.01536,0.0154 -0.0092,0.0046 -0.02156,-0.0046 -0.03073,0 -0.0065,0.0032 -0.0089,0.01215 -0.01536,0.0154 -0.0092,0.0046 -0.02156,-0.0046 -0.03073,0 -0.0065,0.0032 -0.0089,0.01215 -0.01536,0.0154 -0.0061,0.003 -0.04295,-0.0031 -0.04608,0 -0.0036,0.0036 0.0036,0.01177 0,0.0154 -0.0072,0.0072 -0.02156,-0.0046 -0.03073,0 -0.0065,0.0032 -0.0089,0.01215 -0.01536,0.0154 -0.0046,0.0023 -0.01078,-0.0023 -0.01536,0 -0.0065,0.0032 -0.0089,0.01215 -0.01536,0.0154 -0.04521,0.02265 0.02022,-0.03567 -0.03073,0.0154 -0.03603,0.03611 0.01086,-0.0036 -0.04609,0.0154 -0.01374,0.0046 -0.01777,0.0243 -0.03073,0.03079 -0.0046,0.0023 -0.01078,-0.0023 -0.01536,0 -0.0065,0.0032 -0.0089,0.01215 -0.01536,0.0154 -0.0046,0.0023 -0.01024,0 -0.01536,0 h -0.03073 -0.09217 -0.07681 -0.01536 c -0.0051,0 -0.01078,-0.0023 -0.01536,0 -0.0065,0.0032 -0.0089,0.01215 -0.01536,0.0154 -0.0093,0.0046 -0.08284,-0.0046 -0.09217,0 -0.0065,0.0032 -0.0089,0.01215 -0.01536,0.0154 -0.0046,0.0023 -0.01174,-0.0036 -0.01536,0 -0.0036,0.0036 0.0036,0.01177 0,0.0154 -0.0036,0.0036 -0.01536,0.0051 -0.01536,0 0,-0.0051 0.01024,0 0.01536,0 h 0.06144 0.07681 c 0.0051,0 0.0105,-0.0016 0.01536,0 0.01086,0.0036 0.01961,0.01261 0.03073,0.0154 0.01168,0.0029 0.06395,0 0.07681,0 0.0051,0 0.0105,-0.0016 0.01536,0 0.01086,0.0036 0.01961,0.01261 0.03073,0.0154 0.01208,0.003 0.0762,0 0.09217,0 h 0.107533 0.03073 c 0.0051,0 0.0105,0.0016 0.01536,0 0.01086,-0.0036 0.01985,-0.01177 0.03073,-0.0154 0.01056,-0.0035 0.03702,0.0045 0.04608,0 0.0065,-0.0032 0.0089,-0.01215 0.01536,-0.0154 0.0092,-0.0046 0.02349,0.0072 0.03073,0 0.0036,-0.0036 -0.0036,-0.01177 0,-0.0154 0.0036,-0.0036 0.01024,0 0.01536,0 0.0056,0 0.06082,-6.11e-4 0.06144,0 0.0036,0.0036 -0.0036,0.01177 0,0.0154 0.0036,0.0036 0.01024,0 0.01536,0 0.01089,0 0.0882,0.002 0.09217,0 0.0065,-0.0032 0.0089,-0.01215 0.01536,-0.0154 0.0212,-0.01061 0.01374,0.01864 0.03073,-0.0154 0.0023,-0.0046 -0.0036,-0.01177 0,-0.0154 0.0036,-0.0036 0.01078,0.0023 0.01536,0 0.0065,-0.0032 0.0089,-0.01215 0.01536,-0.0154 0.0046,-0.0023 0.01174,0.0036 0.01536,0 0.0036,-0.0036 -0.0036,-0.01177 0,-0.0154 0.0036,-0.0036 0.01174,-0.0036 0.01536,0 0.0036,0.0036 0.0036,0.01177 0,0.0154 -0.0036,0.0036 -0.01174,-0.0036 -0.01536,0 -0.0036,0.0036 0,0.01026 0,0.0154 l -0.03073,0.0154 -0.09217,0.04619 c -0.01024,0.0051 -0.01961,0.01261 -0.03073,0.0154 -0.0099,0.0025 -0.02122,-0.0038 -0.03073,0 -0.01714,0.0069 -0.02894,0.02392 -0.04609,0.03079 -0.0095,0.0038 -0.02101,-0.0032 -0.03073,0 -0.0069,0.0023 -0.01024,0.01026 -0.01536,0.0154 -0.01024,0.0051 -0.01985,0.01177 -0.03073,0.0154 -0.0049,0.0016 -0.01024,0 -0.01536,0 -0.0051,0.0051 -0.0089,0.01215 -0.01536,0.0154 -0.0046,0.0023 -0.01174,-0.0036 -0.01536,0 -0.0036,0.0036 0.0036,0.01177 0,0.0154 -0.0036,0.0036 -0.01174,-0.0036 -0.01536,0 -0.0036,0.0036 0.0036,0.01177 0,0.0154 -0.0036,0.0036 -0.01174,-0.0036 -0.01536,0 -0.0077,0.0077 0.0077,0.03849 0,0.04619 -0.0036,0.0036 -0.01024,0 -0.01536,0 0,0.0051 0.0023,0.0108 0,0.0154 -0.0032,0.0065 -0.01024,0.02053 -0.01536,0.0154 -0.0051,-0.0051 0.0089,-0.01215 0.01536,-0.0154 0.0046,-0.0023 0.01078,0.0023 0.01536,0 0.0065,-0.0032 0.0093,-0.01137 0.01536,-0.0154 0.01905,-0.01273 0.0424,-0.01806 0.06144,-0.03079 0.006,-0.004 0.0093,-0.01137 0.01536,-0.0154 0.01905,-0.01273 0.04097,-0.02053 0.06144,-0.03079 0.02049,-0.01026 0.03972,-0.02354 0.06144,-0.03079 0.0049,-0.0016 0.0105,0.0016 0.01536,0 0.09314,-0.03112 -0.0317,3.29e-4 0.06144,-0.03079 0.0049,-0.0016 0.01078,0.0023 0.01536,0 0.03797,-0.01902 -0.0053,-0.0154 0.03073,-0.0154 0.0037,0 0.04559,5.18e-4 0.04608,0 0.0036,-0.0036 -0.0036,-0.01177 0,-0.0154 0.0036,-0.0036 0.01078,0.0023 0.01536,0 0.0065,-0.0032 0.0089,-0.01215 0.01536,-0.0154 0.0046,-0.0023 0.01078,0.0023 0.01536,0 0.0065,-0.0032 0.0089,-0.01215 0.01536,-0.0154 0.0046,-0.0023 0.01078,0.0023 0.01536,0 0.0065,-0.0032 0.0089,-0.01215 0.01536,-0.0154 0.0092,-0.0046 0.02156,0.0046 0.03073,0 0.0065,-0.0032 0.0089,-0.01215 0.01536,-0.0154 0.0031,-0.0016 0.04392,-0.0022 0.04609,0 0.0036,0.0036 -0.0036,0.01177 0,0.0154 0.0036,0.0036 0.01174,-0.0036 0.01536,0 0.0036,0.0036 -0.0036,0.01177 0,0.0154 0.0036,0.0036 0.01078,-0.0023 0.01536,0 0.0065,0.0032 0.0089,0.01215 0.01536,0.0154 0.0046,0.0023 0.01078,-0.0023 0.01536,0 0.0065,0.0032 0.01024,0.01026 0.01536,0.0154 0.0051,0.0051 0.01212,0.0089 0.01536,0.0154 0.0023,0.0046 -0.0023,0.0108 0,0.0154 0.0032,0.0065 0.01212,0.0089 0.01536,0.0154 0.0023,0.0046 -0.0023,0.0108 0,0.0154 0.0032,0.0065 0.01212,0.0089 0.01536,0.0154 0.0023,0.0046 -0.0023,0.0108 0,0.0154 0.0032,0.0065 0.01212,0.0089 0.01536,0.0154 0.0023,0.0046 -0.0036,0.01177 0,0.0154 0.0036,0.0036 0.01174,-0.0036 0.01536,0 0.0072,0.0072 -0.0072,0.02354 0,0.03079 0.0036,0.0036 0.01174,-0.0036 0.01536,0 0.0036,0.0036 -0.0023,0.0108 0,0.0154 0.0032,0.0065 0.01212,0.0089 0.01536,0.0154 0.0046,0.0092 -0.0046,0.02161 0,0.03079 0.0032,0.0065 0.01212,0.0089 0.01536,0.0154 0.0023,0.0046 0,0.01026 0,0.0154 v 0.0154 c 0,0.0051 0.0051,0.0154 0,0.0154 -0.0051,0 -0.0023,-0.0108 0,-0.0154 0.0032,-0.0065 0.01212,-0.0089 0.01536,-0.0154 0.0023,-0.0046 0,-0.05096 0,-0.06159 v -0.09238 c 0,-0.01026 -0.0032,-0.02106 0,-0.03079 0.0023,-0.0069 0.01307,-0.0085 0.01536,-0.0154 0.0032,-0.0097 -0.0025,-0.02084 0,-0.03079 0.0028,-0.01114 0.01174,-0.01991 0.01536,-0.03079 0.0032,-0.0097 -0.0072,-0.02354 0,-0.03079 0.0036,-0.0036 0.01174,0.0036 0.01536,0 0.0036,-0.0036 -0.0051,-0.0154 0,-0.0154 0.0051,0 -0.0036,0.01177 0,0.0154 0.0036,0.0036 0.01174,-0.0036 0.01536,0 0.0036,0.0036 -0.0036,0.01177 0,0.0154 0.0036,0.0036 0.01174,-0.0036 0.01536,0 0.03179,0.03185 -0.04857,-0.0012 0.01536,0.03079 0.0046,0.0023 0.01078,-0.0023 0.01536,0 0.0065,0.0032 0.0089,0.01215 0.01536,0.0154 0.0046,0.0023 0.01078,-0.0023 0.01536,0 0.0065,0.0032 0.0089,0.01215 0.01536,0.0154 7.97e-4,4.11e-4 0.04528,4.11e-4 0.04608,0 0.0065,-0.0032 0.0089,-0.01215 0.01536,-0.0154 0.0046,-0.0023 0.01024,0 0.01536,0 0.0051,0 0.01078,-0.0023 0.01536,0 0.0065,0.0032 0.0089,0.01215 0.01536,0.0154 0.0046,0.0023 0.01174,-0.0036 0.01536,0 0.0036,0.0036 -0.0023,0.0108 0,0.0154 0.0032,0.0065 0.01212,0.0089 0.01536,0.0154 0.0023,0.0046 -0.0036,0.01177 0,0.0154 0.0036,0.0036 0.01174,-0.0036 0.01536,0 0.0036,0.0036 -0.0036,0.01177 0,0.0154 0.0036,0.0036 0.01536,-0.0051 0.01536,0 0,0.0051 -0.01174,0.0036 -0.01536,0 -0.0036,-0.0036 0.0036,-0.01177 0,-0.0154 -0.0036,-0.0036 -0.01174,0.0036 -0.01536,0 -0.0072,-0.0072 0.0072,-0.02354 0,-0.03079 -0.0068,-0.0068 -0.02902,0.01198 -0.01536,-0.0154 0.002,-0.0041 0.04201,-0.04414 0.04608,-0.04619 0.0046,-0.0023 0.01078,0.0023 0.01536,0 0.0065,-0.0032 0.0089,-0.01215 0.01536,-0.0154 0.0013,-6.58e-4 0.06013,-6.58e-4 0.06144,0 0.01295,0.0065 0.01777,0.0243 0.03073,0.03079 0.04521,0.02265 -0.02022,-0.03567 0.03073,0.0154 l 0.01536,0.0154 c 0.0051,0.0051 0.0089,0.01215 0.01536,0.0154 0.0046,0.0023 0.01078,-0.0023 0.01536,0 0.0065,0.0032 0.0089,0.01215 0.01536,0.0154 0.0046,0.0023 0.01078,-0.0023 0.01536,0 0.0065,0.0032 0.0089,0.01215 0.01536,0.0154 0.0046,0.0023 0.01024,0 0.01536,0 0.0051,0.0051 0.0089,0.01215 0.01536,0.0154 0.0056,0.0028 0.06612,0 0.07681,0 0.0051,0 0.01174,-0.0036 0.01536,0 0.0036,0.0036 -0.0036,0.01177 0,0.0154 0.0072,0.0072 0.02349,-0.0072 0.03073,0 0.0036,0.0036 -0.0036,0.01177 0,0.0154 0.0036,0.0036 0.01174,-0.0036 0.01536,0 0.0036,0.0036 -0.0036,0.01177 0,0.0154 0.0036,0.0036 0.01174,-0.0036 0.01536,0 0.0036,0.0036 -0.0036,0.01177 0,0.0154 0.0036,0.0036 0.01024,0 0.01536,0 h 0.01536 c 0.0072,0 0.07612,7.05e-4 0.07681,0 0.01024,-0.01026 -0.0051,-0.02566 -0.01536,-0.0154 -0.0036,0.0036 0.0036,0.01177 0,0.0154 -0.0036,0.0036 -0.01024,0 -0.01536,0 -0.0051,0 -0.0105,0.0016 -0.01536,0 -0.01086,-0.0036 -0.01985,-0.01177 -0.03073,-0.0154 -0.01496,-0.005 -0.06217,0.0049 -0.07681,0 -0.111274,-0.03717 0.02421,0.0044 -0.04609,-0.03079 -0.0046,-0.0023 -0.01174,0.0036 -0.01536,0 -0.0036,-0.0036 0.0023,-0.0108 0,-0.0154 -0.0032,-0.0065 -0.01212,-0.0089 -0.01536,-0.0154 -0.0028,-0.0055 0,-0.06627 0,-0.07698 0,-0.0037 -5.16e-4,-0.04569 0,-0.04619 0.0036,-0.0036 0.01024,0 0.01536,0 0.01068,0 0.07126,-0.0028 0.07681,0 0.0065,0.0032 0.0089,0.01215 0.01536,0.0154 0.0045,0.0023 0.08571,0 0.09217,0 0.0051,0 0.01078,0.0023 0.01536,0 0.0065,-0.0032 0.0089,-0.01215 0.01536,-0.0154 0.0046,-0.0023 0.01024,0 0.01536,0 h 0.01536 0.07681 0.07681 0.01536 c 0.0051,0 0.01078,-0.0023 0.01536,0 0.0065,0.0032 0.0089,0.01215 0.01536,0.0154 0.0046,0.0023 0.01174,-0.0036 0.01536,0 0.03179,0.03185 -0.04857,-0.0012 0.01536,0.03079 0.02049,0.01026 0.01536,-0.0051 0.01536,-0.0154 0,-0.0051 0.0023,-0.0108 0,-0.0154 -0.0032,-0.0065 -0.01024,-0.01026 -0.01536,-0.0154 -0.0051,-0.0051 -0.0089,-0.01215 -0.01536,-0.0154 -0.0092,-0.0046 -0.02156,0.0046 -0.03073,0 -0.01295,-0.0065 -0.01777,-0.0243 -0.03073,-0.03079 -0.0046,-0.0023 -0.01174,0.0036 -0.01536,0 -0.0036,-0.0036 0.0036,-0.01177 0,-0.0154 -0.0036,-0.0036 -0.01174,0.0036 -0.01536,0 -0.0036,-0.0036 -0.0036,-0.01177 0,-0.0154 6.1e-4,-6.12e-4 0.0558,0 0.06144,0 h 0.122895 c 0.0069,0 0.04141,-0.0023 0.04609,0 0.0065,0.0032 0.0089,0.01215 0.01536,0.0154 0.01229,0.0061 0.0338,-0.0061 0.04608,0 0.0065,0.0032 0.0089,0.01215 0.01536,0.0154 0.0097,0.0049 0.06683,-0.005 0.07681,0 0.0065,0.0032 0.0089,0.01215 0.01536,0.0154 0.0047,0.0023 0.03917,0 0.04608,0 0.01395,0 0.09756,0.0033 0.107534,0 0.0069,-0.0023 0.0089,-0.01215 0.01536,-0.0154 0.0046,-0.0023 0.01024,0 0.01536,0 h 0.01536 c 0.01068,0 0.07126,-0.0028 0.07681,0 0.0065,0.0032 0.0089,0.01215 0.01536,0.0154 0.0046,0.0023 0.01078,-0.0023 0.01536,0 0.0065,0.0032 0.0085,0.0131 0.01536,0.0154 0.0029,9.88e-4 0.103458,0.002 0.107533,0 0.0065,-0.0032 0.0089,-0.01215 0.01536,-0.0154 0.0046,-0.0023 0.01078,0.0023 0.01536,0 0.0065,-0.0032 0.0089,-0.01215 0.01536,-0.0154 0.0046,-0.0023 0.01174,0.0036 0.01536,0 0.0036,-0.0036 -0.0036,-0.01177 0,-0.0154 0.0072,-0.0072 0.02348,0.0072 0.03073,0 0.02109,-0.02113 -0.02712,-0.0154 -0.03073,-0.0154 H 6.73687 c -0.01536,0 -0.03151,0.0049 -0.04609,0 -0.0069,-0.0023 -0.0085,-0.0131 -0.01536,-0.0154 -0.01457,-0.0049 -0.03073,0 -0.04608,0 H 6.521834 c -0.0065,0 -0.0876,0.0023 -0.09217,0 -0.0065,-0.0032 -0.0089,-0.01215 -0.01536,-0.0154 -0.0046,-0.0023 -0.0105,0.0016 -0.01536,0 -0.01086,-0.0036 -0.01985,-0.01177 -0.03073,-0.0154 -0.0089,-0.003 -0.04813,0 -0.06144,0 -0.01331,0 -0.08319,0.003 -0.09217,0 -0.0069,-0.0023 -0.0089,-0.01215 -0.01536,-0.0154 -0.0098,-0.0049 -0.04908,0.0041 -0.06144,0 -0.01086,-0.0036 -0.01985,-0.01177 -0.03073,-0.0154 -0.0049,-0.0016 -0.01078,0.0023 -0.01536,0 -0.0065,-0.0032 -0.0089,-0.01215 -0.01536,-0.0154 -0.0092,-0.0046 -0.02157,0.0046 -0.03073,0 -0.05095,-0.05107 0.01448,0.0072 -0.03073,-0.0154 -0.0065,-0.0032 -0.0089,-0.01215 -0.01536,-0.0154 -0.0092,-0.0046 -0.02156,0.0046 -0.03073,0 -0.0065,-0.0032 -0.0089,-0.01215 -0.01536,-0.0154 -0.0046,-0.0023 -0.01078,0.0023 -0.01536,0 -0.0065,-0.0032 -0.0089,-0.01215 -0.01536,-0.0154 -0.0046,-0.0023 -0.01078,0.0023 -0.01536,0 -0.0065,-0.0032 -0.0089,-0.01215 -0.01536,-0.0154 -0.0046,-0.0023 -0.01078,0.0023 -0.01536,0 -0.0065,-0.0032 -0.0089,-0.01215 -0.01536,-0.0154 -0.004,-0.002 -0.08129,0 -0.09217,0 -0.0051,0 -0.01174,0.0036 -0.01536,0 -0.0036,-0.0036 0.0036,-0.01177 0,-0.0154 -0.0036,-0.0036 -0.01078,0.0023 -0.01536,0 -0.01295,-0.0065 -0.01777,-0.0243 -0.03073,-0.03079 -0.0046,-0.0023 -0.01024,0 -0.01536,0 -0.0051,-0.0051 -0.0089,-0.01215 -0.01536,-0.0154 -0.0046,-0.0023 -0.01174,0.0036 -0.01536,0 -0.0036,-0.0036 0.0036,-0.01177 0,-0.0154 -0.0036,-0.0036 -0.01024,0 -0.01536,0 -0.01089,0 -0.0882,0.002 -0.09217,0 -0.06394,-0.03203 0.01642,0.0011 -0.01536,-0.03079 -0.0036,-0.0036 -0.01078,0.0023 -0.01536,0 -0.01843,-0.0092 -0.02765,-0.03695 -0.04609,-0.04619 -0.0046,-0.0023 -0.01174,0.0036 -0.01536,0 -0.0036,-0.0036 0.0036,-0.01177 0,-0.0154 -0.0036,-0.0036 -0.01078,0.0023 -0.01536,0 -0.0065,-0.0032 -0.01024,-0.01026 -0.01536,-0.0154 -0.0051,-0.0051 -0.01212,-0.0089 -0.01536,-0.0154 -0.0023,-0.0046 0.0036,-0.01177 0,-0.0154 -0.0036,-0.0036 -0.01174,0.0036 -0.01536,0 -0.0036,-0.0036 0.0023,-0.0108 0,-0.0154 -0.0032,-0.0065 -0.01212,-0.0089 -0.01536,-0.0154 -0.0023,-0.0046 0.0023,-0.0108 0,-0.0154 -0.0032,-0.0065 -0.01212,-0.0089 -0.01536,-0.0154 -0.0023,-0.0046 0.0036,-0.01177 0,-0.0154 -0.0036,-0.0036 -0.01174,0.0036 -0.01536,0 -0.0031,-0.0031 0.003,-0.04008 0,-0.04619 -0.03197,-0.06408 0.0011,0.01646 -0.03073,-0.0154 -0.0036,-0.0036 0.0023,-0.01081 0,-0.0154 -0.0032,-0.0065 -0.01212,-0.0089 -0.01536,-0.0154 -0.0023,-0.0046 0.0023,-0.0108 0,-0.0154 -0.0032,-0.0065 -0.01212,-0.0089 -0.01536,-0.0154 -0.0046,-0.0092 0.0072,-0.02354 0,-0.03079 -0.0036,-0.0036 -0.01174,0.0036 -0.01536,0 -0.0031,-0.0031 0.003,-0.04008 0,-0.04619 -0.0032,-0.0065 -0.01212,-0.0089 -0.01536,-0.0154 -0.0048,-0.0097 0.0048,-0.06727 0,-0.07698 -0.0032,-0.0065 -0.01212,-0.0089 -0.01536,-0.0154 -10e-4,-0.0021 -10e-4,-0.09027 0,-0.09238 0.0032,-0.0065 0.01212,-0.0089 0.01536,-0.0154 0.0023,-0.0046 0,-0.01026 0,-0.0154 v -0.0154 -0.09238 c 0,-0.0069 -0.0023,-0.0415 0,-0.04619 0.0032,-0.0065 0.01212,-0.0089 0.01536,-0.0154 0.0046,-0.0092 -0.0072,-0.02354 0,-0.03079 0.0036,-0.0036 0.01174,0.0036 0.01536,0 0.0072,-0.0072 -0.0072,-0.02354 0,-0.03079 0.0036,-0.0036 0.01174,0.0036 0.01536,0 0.0072,-0.0072 -0.0072,-0.02354 0,-0.03079 0.0036,-0.0036 0.01174,0.0036 0.01536,0 0.0072,-0.0072 -0.0046,-0.02161 0,-0.03079 0.0032,-0.0065 0.01212,-0.0089 0.01536,-0.0154 0.0023,-0.0046 -0.0023,-0.0108 0,-0.0154 0.0032,-0.0065 0.01212,-0.0089 0.01536,-0.0154 0.003,-0.0061 -0.0031,-0.04304 0,-0.04619 0.0036,-0.0036 0.01174,0.0036 0.01536,0 0.0077,-0.0077 -0.0077,-0.0385 0,-0.04619 0.0036,-0.0036 0.01174,0.0036 0.01536,0 0.0072,-0.0072 -0.0072,-0.02354 0,-0.03079 0.0036,-0.0036 0.01174,0.0036 0.01536,0 0.0036,-0.0036 -0.0023,-0.0108 0,-0.0154 0.0032,-0.0065 0.01212,-0.0089 0.01536,-0.0154 0.0023,-0.0046 -0.0036,-0.01177 0,-0.0154 0.0036,-0.0036 0.01174,0.0036 0.01536,0 0.0036,-0.0036 -0.0036,-0.01177 0,-0.0154 0.0036,-0.0036 0.01174,0.0036 0.01536,0 0.0036,-0.0036 -0.0036,-0.01177 0,-0.0154 0.0036,-0.0036 0.01078,0.0023 0.01536,0 0.0065,-0.0032 0.0089,-0.01215 0.01536,-0.0154 0.0046,-0.0023 0.01174,0.0036 0.01536,0 0.0036,-0.0036 -0.0036,-0.01177 0,-0.0154 5.16e-4,-5.18e-4 0.04236,0 0.04608,0 0.0051,0 0.01174,-0.0036 0.01536,0 0.0036,0.0036 -0.0036,0.01177 0,0.0154 0.0036,0.0036 0.01024,0 0.01536,0 0.01068,0 0.07126,0.0028 0.07681,0 0.0065,-0.0032 0.0089,-0.01215 0.01536,-0.0154 0.0046,-0.0023 0.01174,0.0036 0.01536,0 0.0036,-0.0036 -0.0036,-0.01177 0,-0.0154 0.0036,-0.0036 0.01024,0 0.01536,0 h 0.01536 c 0.01089,0 0.0882,0.002 0.09217,0 0.0065,-0.0032 0.0089,-0.01215 0.01536,-0.0154 0.0046,-0.0023 0.01078,0.0023 0.01536,0 0.06394,-0.03203 -0.01642,0.0011 0.01536,-0.03079 0.0036,-0.0036 0.01078,0.0023 0.01536,0 0.02883,-0.01444 0.0066,-0.01975 0.01536,-0.04619 0.0046,-0.01376 0.02425,-0.01781 0.03073,-0.03079 0.0023,-0.0046 -0.0023,-0.0108 0,-0.0154 0.0059,-0.01177 0.04262,-0.03577 0.04609,-0.04619 0.0032,-0.0097 -0.0032,-0.02105 0,-0.03079 0.0023,-0.0069 0.01212,-0.0089 0.01536,-0.0154 0.0061,-0.01232 -0.0061,-0.03387 0,-0.04619 0.0032,-0.0065 0.01212,-0.0089 0.01536,-0.0154 0.0023,-0.0046 0,-0.01026 0,-0.0154 0,-0.03478 0.0023,0.0069 -0.01536,-0.04619 -0.0016,-0.0049 0,-0.01026 0,-0.0154 0,-0.01026 0.0032,-0.02106 0,-0.03079 -0.0023,-0.0069 -0.01307,-0.0085 -0.01536,-0.0154 -0.0032,-0.0097 0.0032,-0.02105 0,-0.03079 -0.0023,-0.0069 -0.01134,-0.0093 -0.01536,-0.0154 -0.01625,-0.02443 -0.02014,-0.05964 -0.04608,-0.07698 -0.0095,-0.0063 -0.02264,-0.0073 -0.03073,-0.0154 -0.0081,-0.0081 -0.0085,-0.02161 -0.01536,-0.03079 -0.0087,-0.01161 -0.02049,-0.02053 -0.03073,-0.03079 -0.0051,-0.0051 -0.0096,-0.01104 -0.01536,-0.0154 -0.01477,-0.01111 -0.03167,-0.01923 -0.04608,-0.03079 -0.01131,-0.009 -0.01914,-0.02208 -0.03073,-0.03079 -0.0092,-0.0069 -0.02156,-0.0085 -0.03073,-0.0154 -0.02317,-0.01742 -0.03883,-0.04345 -0.06144,-0.06158 -0.02884,-0.02311 -0.06333,-0.03846 -0.09217,-0.06158 -0.01131,-0.009 -0.01941,-0.02172 -0.03073,-0.03079 -0.01441,-0.01156 -0.03073,-0.02053 -0.04608,-0.03079 -0.01536,-0.01026 -0.02958,-0.02251 -0.04608,-0.03079 -0.01448,-0.0072 -0.03073,-0.01026 -0.04609,-0.0154 -0.110499,-0.03692 0.0275,0.0078 -0.107534,-0.03079 L 5.16998,39.61933 c -0.02028,-0.0029 -0.04097,0 -0.06144,0 H 4.954922 4.770579 4.709139 c -0.02048,0 -0.04117,-0.0029 -0.06144,0 -0.01603,0.0023 -0.03006,0.0131 -0.04608,0.0154 -0.03549,0.0051 -0.07218,-0.0059 -0.107533,0 -0.01597,0.0027 -0.03021,0.01222 -0.04609,0.0154 -0.01004,0.002 -0.02069,-0.002 -0.03073,0 -0.01587,0.0032 -0.03021,0.01222 -0.04608,0.0154 -0.04746,0.0095 -0.01677,-0.01399 -0.04609,0.0154 -0.03523,0.0353 0.0065,-0.0097 -0.03073,0.04619 -0.004,0.006 -0.01134,0.0093 -0.01536,0.0154 -0.01801,0.02708 -0.01823,0.04568 -0.03073,0.07698 -0.0043,0.01065 -0.01311,0.01953 -0.01536,0.03079 -0.003,0.0151 0.0025,0.031 0,0.04619 -0.0027,0.01601 -0.0127,0.03018 -0.01536,0.04619 -0.0025,0.01519 0.0025,0.031 0,0.04619 -0.0027,0.01601 -0.0127,0.03018 -0.01536,0.04619 -0.0025,0.01519 0,0.03079 0,0.04619 v 0.07698 c 0,0.004 -0.0026,0.08463 0,0.09238 0.0038,0.01126 0.01666,0.03915 0.03073,0.04619 0.0046,0.0023 0.01078,-0.0023 0.01536,0 0.0065,0.0032 0.0085,0.0131 0.01536,0.0154 0.0069,0.0023 0.05461,-0.0034 0.06144,0 0.0065,0.0032 0.0089,0.01215 0.01536,0.0154 0.0092,0.0046 0.02349,-0.0072 0.03073,0 0.0036,0.0036 0,0.01026 0,0.0154 0.0051,0 0.01078,-0.0023 0.01536,0 0.02342,0.01174 0.01536,0.04046 0.01536,0.06158 0,0.0051 0.004,0.01219 0,0.0154 -0.02332,0.01869 -0.0512,0.03079 -0.07681,0.04619 z" />
        <path
             style="fill:#183816"
             inkscape:connector-curvature="0"
             id="path56"
             d="M 4.939782,38.23369 C 4.867592,38.18287 4.877932,38.1875 4.816886,38.1875 h -0.01536 c -0.0051,0 -0.01078,-0.0023 -0.01536,0 -0.0065,0.0032 -0.0089,0.01215 -0.01536,0.0154 -0.0046,0.0023 -0.01078,-0.0023 -0.01536,0 -0.01362,0.0068 -0.0321,0.03685 -0.04608,0.04619 -0.0095,0.0063 -0.02119,0.009 -0.03073,0.0154 -0.006,0.004 -0.01024,0.01026 -0.01536,0.0154 -0.0051,0.0051 -0.01134,0.0093 -0.01536,0.0154 -0.03385,0.0077 -0.0081,0.03167 -0.01536,0.04619 -0.0065,0.01298 -0.02425,0.01781 -0.03073,0.03079 -0.0023,0.0046 0.0036,0.01177 0,0.0154 -0.0036,0.0036 -0.01174,-0.0036 -0.01536,0 -0.0036,0.0036 0.0036,0.01177 0,0.0154 -6.1e-4,6.12e-4 -0.0558,0 -0.06144,0 -0.008,0 -0.0574,0.002 -0.06144,0 -0.01843,-0.0092 -0.02765,-0.03695 -0.04609,-0.04619 -0.0046,-0.0023 -0.01174,0.0036 -0.01536,0 -0.0036,-0.0036 0.0023,-0.0108 0,-0.0154 -0.0032,-0.0065 -0.01212,-0.0089 -0.01536,-0.0154 -0.0023,-0.0046 0.0036,-0.01177 0,-0.0154 -0.0036,-0.0036 -0.01174,0.0036 -0.01536,0 -0.0036,-0.0036 0.0023,-0.01081 0,-0.0154 -0.0032,-0.0065 -0.01212,-0.0089 -0.01536,-0.0154 -0.0046,-0.0092 0.0072,-0.02354 0,-0.03079 -0.0036,-0.0036 -0.01078,0.0023 -0.01536,0 -0.0065,-0.0032 -0.0089,-0.01215 -0.01536,-0.0154 -0.0046,-0.0023 -0.01078,0.0023 -0.01536,0 -0.0065,-0.0032 -0.0089,-0.01215 -0.01536,-0.0154 -0.01229,-0.0061 -0.0338,0.0061 -0.04608,0 -0.0065,-0.0032 -0.0089,-0.01215 -0.01536,-0.0154 -0.0043,-0.0022 -0.05713,-0.0022 -0.06144,0 -0.0065,0.0032 -0.0089,0.01215 -0.01536,0.0154 -0.0046,0.0023 -0.01024,0 -0.01536,0 -0.01024,0.0051 -0.02119,0.009 -0.03073,0.0154 -0.01205,0.008 -0.01777,0.0243 -0.03073,0.03079 -0.0046,0.0023 -0.01174,-0.0036 -0.01536,0 -0.0081,0.0081 -0.009,0.02124 -0.01536,0.03079 -0.0093,0.01402 -0.03928,0.03254 -0.04609,0.04619 -0.0023,0.0046 0.0023,0.01081 0,0.0154 -0.0032,0.0065 -0.01212,0.0089 -0.01536,0.0154 -0.0023,0.0046 0.0036,0.01177 0,0.0154 -0.0036,0.0036 -0.01174,-0.0036 -0.01536,0 -0.0054,0.0054 0.0053,0.06635 0,0.07698 -0.0032,0.0065 -0.01212,0.0089 -0.01536,0.0154 -0.0023,0.0046 0.0036,0.01177 0,0.0154 -0.0036,0.0036 -0.01174,-0.0036 -0.01536,0 -0.03179,0.03185 0.04857,-0.0012 -0.01536,0.03079 -0.0046,0.0023 -0.01174,-0.0036 -0.01536,0 -0.0036,0.0036 0.0036,0.01177 0,0.0154 -0.0036,0.0036 -0.01174,-0.0036 -0.01536,0 -0.0036,0.0036 0.0036,0.01177 0,0.0154 -0.0036,0.0036 -0.01024,0 -0.01536,0 h -0.01536 c -0.0069,0 -0.04141,0.0023 -0.04608,0 -0.0065,-0.0032 -0.0089,-0.01215 -0.01536,-0.0154 -0.0046,-0.0023 -0.01078,0.0023 -0.01536,0 -0.01295,-0.0065 -0.01777,-0.0243 -0.03073,-0.03079 -0.0046,-0.0023 -0.01174,0.0036 -0.01536,0 -0.0036,-0.0036 0.0036,-0.01177 0,-0.0154 -0.0036,-0.0036 -0.01024,0 -0.01536,0 h -0.01536 c -0.0056,0 -0.06082,-6.11e-4 -0.06144,0 -0.0036,0.0036 0.0036,0.01177 0,0.0154 -0.0036,0.0036 -0.01078,-0.0023 -0.01536,0 -0.01295,0.0065 -0.01777,0.0243 -0.03073,0.03079 -0.0046,0.0023 -0.01174,-0.0036 -0.01536,0 -0.03731,0.03739 0.0045,0.02261 -0.03073,0.04619 -0.0095,0.0063 -0.02119,0.009 -0.03073,0.0154 -0.006,0.004 -0.0089,0.01215 -0.01536,0.0154 -0.0046,0.0023 -0.01078,-0.0023 -0.01536,0 -0.0065,0.0032 -0.0089,0.01215 -0.01536,0.0154 -0.0046,0.0023 -0.01174,-0.0036 -0.01536,0 -0.0036,0.0036 0.0036,0.01177 0,0.0154 -0.0036,0.0036 -0.01174,-0.0036 -0.01536,0 -0.0036,0.0036 0.0036,0.01177 0,0.0154 -0.0036,0.0036 -0.01174,-0.0036 -0.01536,0 -0.0036,0.0036 0.0023,0.01081 0,0.0154 -0.0065,0.01298 -0.02425,0.01781 -0.03073,0.03079 -0.0023,0.0046 0.0023,0.0108 0,0.0154 -0.0032,0.0065 -0.01212,0.0089 -0.01536,0.0154 -0.0023,0.0047 0,0.03926 0,0.04619 v 0.09238 0.0154 c 0,0.0051 -0.0036,0.01177 0,0.0154 0.0036,0.0036 0.01174,-0.0036 0.01536,0 0.0036,0.0036 0,0.01026 0,0.0154 0,0.0051 0.0036,0.01177 0,0.0154 -0.0036,0.0036 -0.01174,-0.0036 -0.01536,0 -0.03179,0.03185 0.04857,-0.0012 -0.01536,0.03079 -0.004,0.002 -0.05341,0 -0.06144,0 -0.008,0 -0.05741,0.002 -0.06144,0 -0.004,-0.002 -0.01871,-0.02743 -0.03073,-0.0154 -0.0036,0.0036 0.0036,0.01177 0,0.0154 -0.0036,0.0036 -0.01174,-0.0036 -0.01536,0 -0.0072,0.0072 0.0046,0.02161 0,0.03079 -0.0032,0.0065 -0.01212,0.0089 -0.01536,0.0154 -0.0023,0.0046 0,0.01026 0,0.0154 v 0.0154 c 0,0.01259 0.0026,0.09996 0,0.107771 -0.0023,0.0069 -0.01212,0.0089 -0.01536,0.0154 -0.0046,0.0092 0.0072,0.02354 0,0.03079 -0.0036,0.0036 -0.01174,-0.0036 -0.01536,0 -0.0036,0.0036 0.0036,0.01177 0,0.0154 -0.0036,0.0036 -0.01024,0 -0.01536,0 -0.0051,0 -0.01078,0.0023 -0.01536,0 -0.0065,-0.0032 -0.0089,-0.01215 -0.01536,-0.0154 -0.0046,-0.0023 -0.01078,0.0023 -0.01536,0 -0.0065,-0.0032 -0.01024,-0.01026 -0.01536,-0.0154 l -0.01536,-0.0154 -0.06144,-0.06158 c -0.0081,-0.0081 -0.04198,-0.03796 -0.04609,-0.04619 -0.0023,-0.0046 0.0036,-0.01177 0,-0.0154 -0.0036,-0.0036 -0.01174,0.0036 -0.01536,0 -0.0036,-0.0036 0.0036,-0.01177 0,-0.0154 -0.0036,-0.0036 -0.01174,0.0036 -0.01536,0 -0.0036,-0.0036 0.0036,-0.01177 0,-0.0154 -0.0036,-0.0036 -0.01024,0 -0.01536,0 -0.008,0 -0.0574,-0.002 -0.06144,0 -0.0065,0.0032 -0.0089,0.01215 -0.01536,0.0154 -0.0046,0.0023 -0.01078,-0.0023 -0.01536,0 -0.0065,0.0032 -0.0089,0.01215 -0.01536,0.0154 -0.0092,0.0046 -0.02156,-0.0046 -0.03073,0 -0.01295,0.0065 -0.01777,0.0243 -0.03073,0.03079 -0.0046,0.0023 -0.01078,-0.0023 -0.01536,0 -0.0082,0.0041 -0.038,0.03808 -0.04609,0.04619 -0.0069,0.0069 -0.04375,0.03916 -0.04609,0.04619 -0.0032,0.0097 0.0032,0.02105 0,0.03079 -0.0046,0.01376 -0.0227,0.01871 -0.03073,0.03079 -0.03244,0.04877 -0.0026,0.03869 -0.01536,0.07698 -0.0023,0.0069 -0.01212,0.0089 -0.01536,0.0154 -0.0023,0.0047 0,0.03926 0,0.04619 0,0.0069 -0.0023,0.0415 0,0.04619 0.0032,0.0065 0.01212,0.0089 0.01536,0.0154 0.0055,0.01095 -0.0055,0.01985 0,0.03079 0.0065,0.01298 0.02425,0.01781 0.03073,0.03079 0.0023,0.0046 -0.0023,0.0108 0,0.0154 0.0032,0.0065 0.01024,0.01026 0.01536,0.0154 0.0051,0.0051 0.0089,0.01215 0.01536,0.0154 0.0046,0.0023 0.01078,-0.0023 0.01536,0 0.06394,0.03203 -0.01642,-0.0011 0.01536,0.03079 0.0036,0.0036 0.01078,-0.0023 0.01536,0 0.0041,0.002 0.04405,0.0421 0.04608,0.04619 0.0023,0.0046 -0.0036,0.01177 0,0.0154 0.0036,0.0036 0.01174,-0.0036 0.01536,0 0.0036,0.0036 0,0.01026 0,0.0154 0,0.008 0.002,0.05754 0,0.06159 -0.0032,0.0065 -0.01212,0.0089 -0.01536,0.0154 -0.0046,0.0092 0.0046,0.02161 0,0.03079 -0.0032,0.0065 -0.01212,0.0089 -0.01536,0.0154 -0.0023,0.0046 0.0023,0.0108 0,0.0154 -0.0032,0.0065 -0.01212,0.0089 -0.01536,0.0154 -0.0023,0.0046 0.0023,0.01081 0,0.0154 -0.0065,0.01298 -0.02425,0.01781 -0.03073,0.03079 -0.0023,0.0046 0.0023,0.0108 0,0.0154 -0.0032,0.0065 -0.01212,0.0089 -0.01536,0.0154 -0.0023,0.0046 0.0023,0.0108 0,0.0154 -0.0032,0.0065 -0.01212,0.0089 -0.01536,0.0154 -0.002,0.004 0,0.08146 0,0.09238 0,0.0037 -5.16e-4,0.04569 0,0.04619 0.0036,0.0036 0.01174,-0.0036 0.01536,0 0.03179,0.03185 -0.04857,-0.0012 0.01536,0.03079 0.0046,0.0023 0.01174,-0.0036 0.01536,0 0.0036,0.0036 -0.0036,0.01177 0,0.0154 0.0036,0.0036 0.01078,-0.0023 0.01536,0 0.03397,0.01702 0.0048,0.0095 0.01536,0.03079 0.0032,0.0065 0.01212,0.0089 0.01536,0.0154 0.0023,0.0047 0,0.03926 0,0.04619 0,0.0069 0.0023,0.04151 0,0.04619 -0.0032,0.0065 -0.01212,0.0089 -0.01536,0.0154 -0.0023,0.0046 0.0036,0.01177 0,0.0154 -0.0036,0.0036 -0.01078,-0.0023 -0.01536,0 -0.01362,0.0068 -0.0321,0.03684 -0.04609,0.04619 -0.0095,0.0063 -0.02119,0.009 -0.03073,0.0154 -0.01205,0.008 -0.01867,0.02274 -0.03073,0.03079 -0.0081,0.0054 -0.04106,0.01566 -0.04609,0.03079 -0.0032,0.0097 0.0032,0.02106 0,0.03079 -0.0023,0.0069 -0.01212,0.0089 -0.01536,0.0154 -0.0023,0.0046 0,0.01026 0,0.0154 v 0.03079 0.107773 0.07698 c 0,0.01026 -0.0032,0.02105 0,0.03079 0.0036,0.01088 0.01174,0.0199 0.01536,0.03079 0.0016,0.0049 -0.0023,0.01081 0,0.0154 0.0032,0.0065 0.01212,0.0089 0.01536,0.0154 0.0023,0.0046 -0.0023,0.01081 0,0.0154 0.0065,0.01298 0.02425,0.01781 0.03073,0.03079 0.0023,0.0046 -0.0023,0.0108 0,0.0154 0.0032,0.0065 0.01024,0.01026 0.01536,0.0154 0.0051,0.0051 0.0089,0.01215 0.01536,0.0154 0.0046,0.0023 0.01174,-0.0036 0.01536,0 0.03179,0.03185 -0.04857,-0.0012 0.01536,0.03079 0.0046,0.0023 0.01078,-0.0023 0.01536,0 0.0065,0.0032 0.0089,0.01215 0.01536,0.0154 0.0092,0.0046 0.02157,-0.0046 0.03073,0 0.0065,0.0032 0.01024,0.01026 0.01536,0.0154 0.0051,0.0051 0.01212,0.0089 0.01536,0.0154 0.0023,0.0046 -0.0036,0.01177 0,0.0154 0.0036,0.0036 0.01174,-0.0036 0.01536,0 5.17e-4,5.18e-4 0,0.04246 0,0.04619 v 0.123168 c 0,0.0069 -0.0023,0.04151 0,0.04619 0.0032,0.0065 0.01212,0.0089 0.01536,0.0154 0.0023,0.0046 -0.0023,0.01081 0,0.0154 0.0032,0.0065 0.01212,0.0089 0.01536,0.0154 0.0023,0.0046 -0.0036,0.01177 0,0.0154 0.0036,0.0036 0.01174,-0.0036 0.01536,0 0.03179,0.03185 -0.04857,-0.0012 0.01536,0.03079 0.0046,0.0023 0.01174,-0.0036 0.01536,0 0.0036,0.0036 -0.0036,0.01177 0,0.0154 0.0031,0.0031 0.04,-0.003 0.04609,0 0.0065,0.0032 0.0089,0.01215 0.01536,0.0154 0.0092,0.0046 0.02156,-0.0046 0.03073,0 0.0065,0.0032 0.0089,0.01215 0.01536,0.0154 7.98e-4,4.11e-4 0.04528,4.11e-4 0.04609,0 0.0065,-0.0032 0.0089,-0.01215 0.01536,-0.0154 0.0046,-0.0023 0.01024,0 0.01536,0 0.01024,0 0.021,0.0032 0.03073,0 0.0069,-0.0023 0.0089,-0.01215 0.01536,-0.0154 0.0046,-0.0023 0.01078,0.0023 0.01536,0 0.0065,-0.0032 0.0089,-0.01215 0.01536,-0.0154 0.0046,-0.0023 0.01078,0.0023 0.01536,0 0.0065,-0.0032 0.0089,-0.01215 0.01536,-0.0154 0.0046,-0.0023 0.01024,0 0.01536,0 h 0.01536 c 0.01485,0 0.08762,-0.0023 0.09217,0 0.0065,0.0032 0.0089,0.01215 0.01536,0.0154 0.0046,0.0023 0.01078,-0.0023 0.01536,0 0.01295,0.0065 0.01777,0.0243 0.03073,0.03079 0.0046,0.0023 0.01174,-0.0036 0.01536,0 0.0036,0.0036 -0.0036,0.01177 0,0.0154 0.0036,0.0036 0.01174,-0.0036 0.01536,0 0.0036,0.0036 -0.0036,0.01177 0,0.0154 0.03179,0.03185 -0.0012,-0.04868 0.03073,0.0154 0.0023,0.0046 -0.0036,0.01177 0,0.0154 0.0036,0.0036 0.01174,-0.0036 0.01536,0 0.0036,0.0036 -0.0036,0.01177 0,0.0154 0.0036,0.0036 0.01174,-0.0036 0.01536,0 0.0036,0.0036 -0.0036,0.01177 0,0.0154 0.0036,0.0036 0.01024,0 0.01536,0 h 0.01536 c 0.0069,0 0.04141,0.0023 0.04609,0 0.0065,-0.0032 0.0089,-0.01215 0.01536,-0.0154 0.0046,-0.0023 0.01174,0.0036 0.01536,0 0.0036,-0.0036 -0.0023,-0.01081 0,-0.0154 0.0032,-0.0065 0.01212,-0.0089 0.01536,-0.0154 0.0023,-0.0046 -0.0036,-0.01177 0,-0.0154 0.0036,-0.0036 0.01174,0.0036 0.01536,0 0.03179,-0.03185 -0.04857,0.0012 0.01536,-0.03079 0.0046,-0.0023 0.01174,0.0036 0.01536,0 0.0036,-0.0036 -0.0036,-0.01177 0,-0.0154 0.0072,-0.0072 0.02157,0.0046 0.03073,0 0.0065,-0.0032 0.0089,-0.01215 0.01536,-0.0154 0.0097,-0.0048 0.06712,0.0048 0.07681,0 0.0065,-0.0032 0.0089,-0.01215 0.01536,-0.0154 0.0013,-6.58e-4 0.06013,-6.58e-4 0.06144,0 0.0065,0.0032 0.0089,0.01215 0.01536,0.0154 0.0047,0.0023 0.03917,0 0.04608,0 H 4.03345 c 0.01373,0 0.07192,0.0024 0.07681,0 0.0065,-0.0032 0.0089,-0.01215 0.01536,-0.0154 0.0046,-0.0023 0.01078,0.0023 0.01536,0 0.0065,-0.0032 0.0089,-0.01215 0.01536,-0.0154 0.0046,-0.0023 0.01078,0.0023 0.01536,0 0.0065,-0.0032 0.0089,-0.01215 0.01536,-0.0154 0.0092,-0.0046 0.02156,0.0046 0.03073,0 0.0065,-0.0032 0.0089,-0.01215 0.01536,-0.0154 0.0046,-0.0023 0.01174,0.0036 0.01536,0 0.0036,-0.0036 -0.0036,-0.01177 0,-0.0154 0.0072,-0.0072 0.02156,0.0046 0.03073,0 0.0065,-0.0032 0.0089,-0.01215 0.01536,-0.0154 0.0046,-0.0023 0.01174,0.0036 0.01536,0 0.0036,-0.0036 -0.0023,-0.01081 0,-0.0154 0.0032,-0.0065 0.01212,-0.0089 0.01536,-0.0154 8.44e-4,-0.0017 8.44e-4,-0.07526 0,-0.07698 -0.0032,-0.0065 -0.01212,-0.0089 -0.01536,-0.0154 -0.0023,-0.0046 0.0023,-0.0108 0,-0.0154 -0.0065,-0.01298 -0.02425,-0.01781 -0.03073,-0.03079 -0.0023,-0.0046 0.0023,-0.0108 0,-0.0154 -0.0032,-0.0065 -0.01212,-0.0089 -0.01536,-0.0154 -0.0046,-0.0092 0.0046,-0.02161 0,-0.03079 -0.0032,-0.0065 -0.01212,-0.0089 -0.01536,-0.0154 -4.1e-4,-8.01e-4 -4.1e-4,-0.04539 0,-0.04619 0.0032,-0.0065 0.01212,-0.0089 0.01536,-0.0154 0.0023,-0.0046 -0.0036,-0.01177 0,-0.0154 0.0036,-0.0036 0.01174,0.0036 0.01536,0 0.0036,-0.0036 -0.0023,-0.0108 0,-0.0154 0.002,-0.0041 0.04201,-0.04414 0.04608,-0.04619 0.04097,0 -0.0051,0.0051 0.01536,-0.0154 0.0072,-0.0072 0.02156,0.0046 0.03073,0 0.0065,-0.0032 0.0085,-0.0131 0.01536,-0.0154 0.01045,-0.0035 0.06867,0.0041 0.07681,0 0.0065,-0.0032 0.0089,-0.01215 0.01536,-0.0154 0.0013,-6.58e-4 0.04411,-6.58e-4 0.04608,0 0.01086,0.0036 0.01986,0.01177 0.03073,0.0154 0.0049,0.0016 0.01078,-0.0023 0.01536,0 0.0065,0.0032 0.0089,0.01215 0.01536,0.0154 0.0092,0.0046 0.02348,-0.0072 0.03073,0 0.0036,0.0036 0.0036,0.01177 0,0.0154 -0.01201,0.01204 -0.02673,-0.01339 -0.03073,-0.0154 -0.02119,-0.01062 -0.01374,0.01864 -0.03073,-0.0154 -0.0048,-0.0096 0.0048,-0.05191 0,-0.06159 -0.0032,-0.0065 -0.01212,-0.0089 -0.01536,-0.0154 -0.0023,-0.0046 0,-0.01026 0,-0.0154 v -0.0154 c 0,-0.0051 -0.0051,-0.0154 0,-0.0154 0.0072,0 0.0089,0.01215 0.01536,0.0154 0.02732,0.01369 0.0085,-0.0085 0.01536,-0.0154 0.0036,-0.0036 0.01174,0.0036 0.01536,0 0.0036,-0.0036 0,-0.01026 0,-0.0154 0,-0.01092 -0.002,-0.0884 0,-0.09238 0.0032,-0.0065 0.01212,-0.0089 0.01536,-0.0154 0.0046,-0.0092 -0.0072,-0.02354 0,-0.03079 0.0036,-0.0036 0.01078,0.0023 0.01536,0 0.01843,-0.0092 0.02765,-0.03695 0.04608,-0.04619 0.0092,-0.0046 0.02349,0.0072 0.03073,0 0.0036,-0.0036 -0.0036,-0.01177 0,-0.0154 5.16e-4,-5.18e-4 0.04236,0 0.04609,0 0.01068,0 0.07126,-0.0028 0.07681,0 0.02133,0.01068 0.01536,0.02739 0.01536,0.04619 0,0.0051 -0.0036,0.01177 0,0.0154 0.0036,0.0036 0.01174,-0.0036 0.01536,0 0.0072,0.0072 -0.0072,0.02354 0,0.03079 0.0036,0.0036 0.01174,-0.0036 0.01536,0 0.0072,0.0072 -0.0072,0.02354 0,0.03079 0.0036,0.0036 0.01174,-0.0036 0.01536,0 0.01021,0.01023 -0.01021,0.02056 0,0.03079 0.0036,0.0036 0.01024,0 0.01536,0 0,0.0051 -0.0023,0.0108 0,0.0154 0.0032,0.0065 0.01212,0.0089 0.01536,0.0154 0.0023,0.0046 -0.0036,0.01177 0,0.0154 0.0036,0.0036 0.01174,-0.0036 0.01536,0 0.0072,0.0072 -0.0072,0.02354 0,0.03079 0.0036,0.0036 0.01174,0.0036 0.01536,0 0.0072,-0.0072 -0.0072,-0.02354 0,-0.03079 0.0036,-0.0036 0.01174,0.0036 0.01536,0 0.0072,-0.0072 -0.0032,-0.02105 0,-0.03079 0.0036,-0.01089 0.0073,-0.02268 0.01536,-0.03079 0.0036,-0.0036 0.01174,0.0036 0.01536,0 0.0036,-0.0036 -0.0023,-0.0108 0,-0.0154 0.05095,-0.05107 -0.0072,0.01452 0.01536,-0.03079 0.03197,-0.06408 -0.0011,0.01646 0.03073,-0.0154 0.0036,-0.0036 -0.0023,-0.01081 0,-0.0154 0.03197,-0.06408 -0.0011,0.01646 0.03073,-0.0154 0.0036,-0.0036 -0.0036,-0.01177 0,-0.0154 0.0036,-0.0036 0.01024,0 0.01536,0 0,-0.0051 -0.0023,-0.01081 0,-0.0154 0.03197,-0.06408 -0.0011,0.01646 0.03073,-0.0154 0.0036,-0.0036 -0.0036,-0.01177 0,-0.0154 0.0036,-0.0036 0.01174,0.0036 0.01536,0 0.0036,-0.0036 -0.0023,-0.01081 0,-0.0154 0.0032,-0.0065 0.01212,-0.0089 0.01536,-0.0154 0.0023,-0.0046 -0.0036,-0.01177 0,-0.0154 0.0036,-0.0036 0.01174,0.0036 0.01536,0 0.0036,-0.0036 -0.0036,-0.01177 0,-0.0154 0.0036,-0.0036 0.01174,0.0036 0.01536,0 0.0036,-0.0036 0,-0.01026 0,-0.0154 0.0051,0 0.01078,0.0023 0.01536,0 0.0065,-0.0032 0.0089,-0.01215 0.01536,-0.0154 0.0046,-0.0023 0.01536,-0.0051 0.01536,0 0,0.0072 -0.01307,0.0085 -0.01536,0.0154 -0.0032,0.0097 0.0032,0.02105 0,0.03079 -0.0023,0.0069 -0.01134,0.0093 -0.01536,0.0154 -0.0064,0.0095 -0.009,0.02124 -0.01536,0.03079 -0.004,0.006 -0.01307,0.0085 -0.01536,0.0154 -0.0032,0.0097 0.0032,0.02106 0,0.03079 -0.0023,0.0069 -0.01212,0.0089 -0.01536,0.0154 -0.0023,0.0046 0.0023,0.0108 0,0.0154 -0.0032,0.0065 -0.01212,0.0089 -0.01536,0.0154 -0.0046,0.0091 0.0072,0.02354 0,0.03079 -0.0036,0.0036 -0.01174,-0.0036 -0.01536,0 -0.0015,0.0015 -0.0015,0.04465 0,0.04619 0.0036,0.0036 0.01174,-0.0036 0.01536,0 0.0036,0.0036 -0.0036,0.01177 0,0.0154 0.0022,0.0022 0.04294,0.0016 0.04609,0 0.0065,-0.0032 0.0089,-0.01215 0.01536,-0.0154 0.0092,-0.0046 0.02156,0.0046 0.03073,0 0.0065,-0.0032 0.0089,-0.01215 0.01536,-0.0154 0.0092,-0.0046 0.02157,0.0046 0.03073,0 0.0065,-0.0032 0.0089,-0.01215 0.01536,-0.0154 0.0046,-0.0023 0.01078,0.0023 0.01536,0 0.01295,-0.0065 0.01777,-0.0243 0.03073,-0.03079 0.0092,-0.0046 0.02348,0.0072 0.03073,0 0.0036,-0.0036 -0.0036,-0.01177 0,-0.0154 0.0072,-0.0072 0.02156,0.0046 0.03073,0 0.03797,-0.01902 -0.0053,-0.0154 0.03073,-0.0154 0.0069,0 0.04141,0.0023 0.04608,0 0.0065,-0.0032 0.0089,-0.01215 0.01536,-0.0154 0.0061,-0.003 0.04295,0.0031 0.04609,0 0.0036,-0.0036 -0.0036,-0.01177 0,-0.0154 0.0072,-0.0072 0.02157,0.0046 0.03073,0 0.03797,-0.01902 -0.0053,-0.0154 0.03073,-0.0154 h 0.03073 c -0.01024,0 -0.021,-0.0032 -0.03073,0 -0.01166,0.0039 -0.04733,0.05451 -0.06144,0.06158 -0.0046,0.0023 -0.0105,-0.0016 -0.01536,0 -0.0279,0.0093 -0.02851,0.01317 -0.04608,0.03079 -0.0051,0.0051 -0.01212,0.0089 -0.01536,0.0154 -0.01059,0.02124 0.0186,0.01376 -0.01536,0.03079 -0.0046,0.0023 -0.01174,-0.0036 -0.01536,0 -0.0072,0.0072 0.0072,0.02354 0,0.03079 -0.0036,0.0036 -0.01174,-0.0036 -0.01536,0 -0.0036,0.0036 0.0023,0.0108 0,0.0154 -0.002,0.004 -0.02738,0.01876 -0.01536,0.03079 6.09e-4,6.12e-4 0.0558,0 0.06144,0 h 0.06144 c 0.01024,0 0.02101,0.0032 0.03073,0 0.01086,-0.0036 0.01985,-0.01177 0.03073,-0.0154 0.0049,-0.0016 0.0105,0.0016 0.01536,0 0.01086,-0.0036 0.01985,-0.01177 0.03073,-0.0154 0.01236,-0.0041 0.05163,0.0049 0.06144,0 0.0065,-0.0032 0.0089,-0.01215 0.01536,-0.0154 0.004,-0.002 0.05341,0 0.06144,0 h 0.01536 c 0.0051,0 0.01536,-0.0051 0.01536,0 0,0.0051 -0.01078,-0.0023 -0.01536,0 -0.0065,0.0032 -0.01024,0.01026 -0.01536,0.0154 -0.01024,0 -0.021,-0.0032 -0.03073,0 -0.0069,0.0023 -0.0093,0.01137 -0.01536,0.0154 -0.04776,0.03191 -0.01368,-0.0011 -0.06144,0.03079 -0.006,0.004 -0.0093,0.01137 -0.01536,0.0154 -0.01689,0.01129 -0.08159,0.03557 -0.09217,0.04619 -0.0081,0.0081 -0.0073,0.02268 -0.01536,0.03079 -0.0081,0.0081 -0.02119,0.009 -0.03073,0.0154 -0.0065,0.0043 -0.04291,0.03981 -0.04608,0.04619 -0.0046,0.0092 0.0072,0.02354 0,0.03079 -0.0036,0.0036 -0.01174,-0.0036 -0.01536,0 -0.02511,0.02516 0.04198,0.01334 0.04608,0.0154 0.0065,0.0032 0.0089,0.01215 0.01536,0.0154 0.01801,0.009 0.01823,-0.0091 0.03073,-0.0154 0.0092,-0.0046 0.02157,0.0046 0.03073,0 0.0065,-0.0032 0.0085,-0.0131 0.01536,-0.0154 0.0097,-0.0032 0.02157,0.0046 0.03073,0 0.0046,-0.0023 -0.0036,-0.01177 0,-0.0154 0.0036,-0.0036 0.01024,0 0.01536,0 h 0.07681 c 0.0069,0 0.04141,0.0023 0.04609,0 0.0065,-0.0032 0.0089,-0.01215 0.01536,-0.0154 0.004,-0.002 0.05341,0 0.06144,0 0.008,0 0.0574,-0.002 0.06144,0 0.0065,0.0032 0.0089,0.01215 0.01536,0.0154 0.0097,0.0048 0.05179,-0.0048 0.06144,0 0.0065,0.0032 0.0089,0.01215 0.01536,0.0154 0.0046,0.0023 0.01174,-0.0036 0.01536,0 0.0036,0.0036 -0.0036,0.01177 0,0.0154 0.0036,0.0036 0.01078,-0.0023 0.01536,0 0.06394,0.03203 -0.01642,-0.0011 0.01536,0.03079 0.0036,0.0036 0.01174,-0.0036 0.01536,0 0.0042,0.0042 -0.0042,0.05323 0,0.06158 0.0065,0.01298 0.02269,0.01871 0.03073,0.03079 0.0063,0.0095 0.009,0.02124 0.01536,0.03079 0.004,0.006 0.01212,0.0089 0.01536,0.0154 0.0023,0.0046 -0.0023,0.0108 0,0.0154 0.0032,0.0065 0.01307,0.0085 0.01536,0.0154 0.0032,0.0097 -0.0032,0.02105 0,0.03079 0.0023,0.0069 0.01212,0.0089 0.01536,0.0154 0.0023,0.0046 0,0.01026 0,0.0154 v 0.0154 0.07698 0.0154 c 0,0.0051 -0.0036,0.01177 0,0.0154 0.0036,0.0036 0.01174,-0.0036 0.01536,0 0.0036,0.0036 -0.0023,0.0108 0,0.0154 0.0065,0.01298 0.02425,0.01781 0.03073,0.03079 0.0023,0.0046 -0.0023,0.0108 0,0.0154 0.002,0.0041 0.04201,0.04414 0.04608,0.04619 0.0046,0.0023 0.0105,-0.0016 0.01536,0 0.02172,0.0072 0.03972,0.02354 0.06144,0.03079 0.0049,0.0016 0.0105,-0.0016 0.01536,0 0.01086,0.0036 0.01961,0.01261 0.03073,0.0154 0.01987,0.005 0.04157,-0.005 0.06144,0 0.01111,0.0028 0.01927,0.0154 0.03073,0.0154 0.01145,0 0.01962,-0.01261 0.03073,-0.0154 0.0241,-0.006 0.05271,0.006 0.07681,0 0.01111,-0.0028 0.01962,-0.01261 0.03073,-0.0154 0.0241,-0.006 0.05271,0.006 0.07681,0 0.01111,-0.0028 0.01985,-0.01177 0.03073,-0.0154 0.0049,-0.0016 0.01078,0.0023 0.01536,0 0.0065,-0.0032 0.0089,-0.01215 0.01536,-0.0154 0.0046,-0.0023 0.01174,0.0036 0.01536,0 0.0036,-0.0036 -0.0036,-0.01177 0,-0.0154 0.0036,-0.0036 0.01174,0.0036 0.01536,0 0.0036,-0.0036 -0.0036,-0.01177 0,-0.0154 0.0036,-0.0036 0.01174,0.0036 0.01536,0 0.0072,-0.0072 -0.0046,-0.02161 0,-0.03079 0.0032,-0.0065 0.01212,-0.0089 0.01536,-0.0154 0.0048,-0.0096 -0.0048,-0.05191 0,-0.06158 0.0032,-0.0065 0.01212,-0.0089 0.01536,-0.0154 0.0023,-0.0046 -0.0023,-0.0108 0,-0.0154 0.0065,-0.01298 0.02425,-0.01781 0.03073,-0.03079 0.0023,-0.0046 -0.0023,-0.0108 0,-0.0154 0.0032,-0.0065 0.01024,-0.01026 0.01536,-0.0154 0.0051,-0.0051 0.0089,-0.01215 0.01536,-0.0154 0.0046,-0.0023 0.01078,0.0023 0.01536,0 0.01511,-0.0076 0.04633,-0.05401 0.06144,-0.06158 0.0046,-0.0023 0.01174,0.0036 0.01536,0 0.0036,-0.0036 -0.0036,-0.01177 0,-0.0154 0.0036,-0.0036 0.05775,0.0037 0.06144,0 0.0037,-0.0037 -0.0036,-0.01177 0,-0.0154 0.0036,-0.0036 0.01024,0 0.01536,0 0.0069,0 0.04141,-0.0023 0.04609,0 0.0065,0.0032 0.0089,0.01215 0.01536,0.0154 0.0046,0.0023 0.01078,-0.0023 0.01536,0 0.03497,0.03504 -0.0032,0.004 0.03073,0.0154 0.01086,0.0036 0.01985,0.01177 0.03073,0.0154 0.0049,0.0016 0.01174,-0.0036 0.01536,0 0.0036,0.0036 -0.0036,0.01177 0,0.0154 0.0072,0.0072 0.02156,-0.0046 0.03073,0 0.0065,0.0032 0.0089,0.01215 0.01536,0.0154 0.0097,0.0048 0.05179,-0.0048 0.06144,0 0.0065,0.0032 0.0089,0.01215 0.01536,0.0154 0.0092,0.0046 0.02347,-0.0072 0.03073,0 0.0036,0.0036 -0.0036,0.01177 0,0.0154 0.0072,0.0072 0.02347,-0.0072 0.03073,0 0.0036,0.0036 -0.0036,0.01177 0,0.0154 0.0036,0.0036 0.0105,-0.0016 0.01536,0 0.01086,0.0036 0.01985,0.01177 0.03073,0.0154 0.0049,0.0016 0.01024,0 0.01536,0 H 7.4438 c 0.01024,0 0.02079,-0.0025 0.03073,0 0.01111,0.0028 0.01961,0.01261 0.03073,0.0154 0.0343,0.0086 0.03038,-0.005 0.06144,-0.0154 0.0049,-0.0016 0.0105,0.0016 0.01536,0 0.05569,-0.01861 0.01093,-0.0073 0.04609,-0.03079 0.0095,-0.0063 0.02264,-0.0073 0.03073,-0.0154 0.0036,-0.0036 -0.0016,-0.01052 0,-0.0154 0.0036,-0.01089 0.01174,-0.0199 0.01536,-0.03079 0.0032,-0.0097 0,-0.02053 0,-0.03079 0,-0.0061 0.0033,-0.0704 0,-0.07698 -0.0033,-0.0066 -0.01212,-0.0089 -0.01536,-0.0154 -0.0069,-0.01376 0.0069,-0.03242 0,-0.04619 -0.0023,-0.0046 -0.01174,0.0036 -0.01536,0 -0.05995,-0.06008 0.0036,-0.0082 -0.01536,-0.04619 -0.0049,-0.0098 -0.06473,-0.06488 -0.07681,-0.07698 -0.0051,-0.0051 -0.01212,-0.0089 -0.01536,-0.0154 -0.0023,-0.0046 0.0036,-0.01177 0,-0.0154 -0.03179,-0.03185 0.0012,0.04868 -0.03073,-0.0154 -0.0023,-0.0046 0.0023,-0.0108 0,-0.0154 -0.0032,-0.0065 -0.01212,-0.0089 -0.01536,-0.0154 -0.0046,-0.0091 0.0046,-0.02161 0,-0.03079 -0.0032,-0.0065 -0.01536,-0.0081 -0.01536,-0.0154 0,-0.0072 0.01212,-0.0089 0.01536,-0.0154 0.0046,-0.0092 -0.0046,-0.02161 0,-0.03079 0.0032,-0.0065 0.01024,-0.01026 0.01536,-0.0154 0.0051,-0.0051 0.0093,-0.01137 0.01536,-0.0154 0.0095,-0.0063 0.02119,-0.009 0.03073,-0.0154 0.006,-0.004 0.0089,-0.01215 0.01536,-0.0154 0.0046,-0.0023 0.01078,0.0023 0.01536,0 0.0065,-0.0032 0.0089,-0.01215 0.01536,-0.0154 0.0046,-0.0023 0.01078,0.0023 0.01536,0 0.01295,-0.0065 0.01777,-0.0243 0.03073,-0.03079 0.0092,-0.0046 0.02156,0.0046 0.03073,0 0.01295,-0.0065 0.01777,-0.0243 0.03073,-0.03079 0.0046,-0.0023 0.01078,0.0023 0.01536,0 0.0065,-0.0032 0.0089,-0.01215 0.01536,-0.0154 0.0046,-0.0023 0.01174,0.0036 0.01536,0 0.03179,-0.03185 -0.04857,0.0012 0.01536,-0.03079 0.0046,-0.0023 0.01174,0.0036 0.01536,0 0.0036,-0.0036 -0.0023,-0.0108 0,-0.0154 0.0032,-0.0065 0.01212,-0.0089 0.01536,-0.0154 0.0046,-0.0092 -0.0046,-0.02161 0,-0.03079 0.0032,-0.0065 0.01212,-0.0089 0.01536,-0.0154 4.02e-4,-8.01e-4 4.02e-4,-0.04539 0,-0.04619 -0.0032,-0.0065 -0.01307,-0.0085 -0.01536,-0.0154 -0.0032,-0.0097 0.0032,-0.02105 0,-0.03079 -0.0023,-0.0069 -0.01212,-0.0089 -0.01536,-0.0154 -0.0023,-0.0046 0,-0.01026 0,-0.0154 -0.0051,-0.01026 -0.009,-0.02124 -0.01536,-0.03079 -0.008,-0.01208 -0.02425,-0.01781 -0.03073,-0.03079 -0.0061,-0.01229 0.0061,-0.01851 0,-0.03079 -0.01638,-0.03285 -0.01433,0.0021 -0.03073,-0.03079 -0.0023,-0.0046 0.0023,-0.01081 0,-0.0154 -0.0032,-0.0065 -0.01212,-0.0089 -0.01536,-0.0154 -0.01059,-0.02124 0.0186,-0.01376 -0.01536,-0.03079 -0.0046,-0.0023 -0.01078,0.0023 -0.01536,0 -0.01295,-0.0065 -0.01867,-0.02274 -0.03073,-0.03079 -0.111385,-0.05582 0.02429,0.01623 -0.04609,-0.03079 -0.01905,-0.01273 -0.0424,-0.01806 -0.06144,-0.03079 -0.006,-0.004 -0.0093,-0.01137 -0.01536,-0.0154 -0.0095,-0.0063 -0.01985,-0.01177 -0.03073,-0.0154 -0.0097,-0.0032 -0.02348,0.0072 -0.03073,0 -0.0036,-0.0036 0.0036,-0.01177 0,-0.0154 -0.0036,-0.0036 -0.01174,0.0036 -0.01536,0 -0.0036,-0.0036 0.0036,-0.01177 0,-0.0154 -0.0036,-0.0036 -0.01174,0.0036 -0.01536,0 -0.0036,-0.0036 0,-0.01026 0,-0.0154 v -0.0154 c 0,-0.0155 -0.0028,-0.08386 0,-0.09238 0.0023,-0.0069 0.01212,-0.0089 0.01536,-0.0154 0.0023,-0.0046 0,-0.01026 0,-0.0154 0,-0.01026 -0.0032,-0.02106 0,-0.03079 0.0023,-0.0069 0.01212,-0.0089 0.01536,-0.0154 0.0023,-0.0045 0,-0.07748 0,-0.09238 0,-0.01042 0.0023,-0.10076 0,-0.107772 -0.0023,-0.007 -0.01212,-0.0089 -0.01536,-0.0154 -0.0023,-0.0046 0.0023,-0.01081 0,-0.0154 -0.0032,-0.0065 -0.01212,-0.0089 -0.01536,-0.0154 -0.0023,-0.0046 0,-0.01026 0,-0.0154 -0.0051,-0.01026 -0.009,-0.02124 -0.01536,-0.03079 -0.008,-0.01208 -0.02425,-0.01781 -0.03073,-0.03079 -0.0023,-0.0046 0.0023,-0.01081 0,-0.0154 -0.0015,-0.003 -0.0585,-0.06012 -0.06144,-0.06159 -0.0046,-0.0023 -0.01024,0 -0.01536,0 -0.0051,-0.0051 -0.0089,-0.01215 -0.01536,-0.0154 -0.0092,-0.0046 -0.02157,0.0046 -0.03073,0 -0.0065,-0.0032 -0.0089,-0.01215 -0.01536,-0.0154 -0.0046,-0.0023 -0.01078,0.0023 -0.01536,0 -0.0065,-0.0032 -0.0089,-0.01215 -0.01536,-0.0154 -0.0092,-0.0046 -0.02157,0.0046 -0.03073,0 -0.0065,-0.0032 -0.0089,-0.01215 -0.01536,-0.0154 -0.0046,-0.0023 -0.01078,0.0023 -0.01536,0 C 7.1026,39.18655 7.13177,39.19408 7.12121,39.17279 7.11471,39.15981 7.09696,39.15498 7.09048,39.142 c -0.0023,-0.0046 0.0036,-0.01177 0,-0.0154 -0.0036,-0.0036 -0.01174,0.0036 -0.01536,0 -0.0072,-0.0072 0.0046,-0.02161 0,-0.03079 -0.0032,-0.0065 -0.01212,-0.0089 -0.01536,-0.0154 -0.0048,-0.0096 0.0048,-0.05191 0,-0.06158 -0.0032,-0.0065 -0.01212,-0.0089 -0.01536,-0.0154 -0.0016,-0.0031 -0.0022,-0.04401 0,-0.04619 0.0036,-0.0036 0.01174,0.0036 0.01536,0 0.0042,-0.0042 -0.0042,-0.05323 0,-0.06158 0.0032,-0.0065 0.01212,-0.0089 0.01536,-0.0154 8.44e-4,-0.0017 8.44e-4,-0.07526 0,-0.07698 -0.0032,-0.0065 -0.01024,-0.01026 -0.01536,-0.0154 L 7.0444,38.77248 C 7.03416,38.76222 7.02573,38.74974 7.01367,38.74169 7.00417,38.73539 6.99319,38.73143 6.98294,38.72629 L 6.9215,38.6955 C 6.90102,38.68524 6.88131,38.67324 6.86006,38.66471 c -0.01503,-0.006 -0.03105,-0.0093 -0.04608,-0.0154 -0.01063,-0.0043 -0.01949,-0.01314 -0.03073,-0.0154 -0.02511,-0.005 -0.05197,0.0062 -0.07681,0 -0.01111,-0.0028 -0.01949,-0.01314 -0.03073,-0.0154 -0.01506,-0.003 -0.03073,0 -0.04608,0 H 6.5989 c -0.0051,0 -0.0105,-0.0016 -0.01536,0 -0.01086,0.0036 -0.01961,0.01261 -0.03073,0.0154 -0.0099,0.0025 -0.02101,-0.0032 -0.03073,0 -0.0069,0.0023 -0.01024,0.01026 -0.01536,0.0154 -0.009,0.009 -0.05433,0.05802 -0.06144,0.06159 -0.02119,0.01061 -0.01374,-0.01864 -0.03073,0.0154 -0.0023,0.0046 0.0023,0.01081 0,0.0154 -0.0032,0.0065 -0.01212,0.0089 -0.01536,0.0154 -0.0023,0.0046 0.0023,0.0108 0,0.0154 -0.0095,0.01902 -0.01483,0.0154 -0.03073,0.0154 -0.0051,0 -0.01174,0.0036 -0.01536,0 -0.0036,-0.0036 0.0036,-0.01177 0,-0.0154 -0.0036,-0.0036 -0.01078,0.0023 -0.01536,0 -0.01295,-0.0065 -0.01777,-0.0243 -0.03073,-0.03079 -0.0046,-0.0023 -0.01078,0.0023 -0.01536,0 -0.0065,-0.0032 -0.0093,-0.01137 -0.01536,-0.0154 -0.111384,-0.05581 0.02429,0.01623 -0.04609,-0.03079 -0.0095,-0.0063 -0.02119,-0.009 -0.03073,-0.0154 -0.0065,-0.0043 -0.04291,-0.03982 -0.04609,-0.04619 -0.0023,-0.0046 0.0036,-0.01177 0,-0.0154 -0.0036,-0.0036 -0.01174,0.0036 -0.01536,0 -0.0036,-0.0036 0,-0.01026 0,-0.0154 0,-0.0051 -0.0036,-0.01177 0,-0.0154 0.0036,-0.0036 0.01174,0.0036 0.01536,0 0.0031,-0.0031 -0.003,-0.04008 0,-0.04619 0.0032,-0.0065 0.01212,-0.0089 0.01536,-0.0154 8.44e-4,-0.0017 8.44e-4,-0.07526 0,-0.07698 -0.0065,-0.01298 -0.02425,-0.01781 -0.03073,-0.03079 -0.0082,-0.01642 0.0152,-0.02059 -0.01536,-0.03079 -0.0097,-0.0032 -0.02101,0.0032 -0.03073,0 -0.01374,-0.0046 -0.01777,-0.0243 -0.03073,-0.03079 -0.0046,-0.0023 -0.01078,0.0023 -0.01536,0 -0.0065,-0.0032 -0.0089,-0.01215 -0.01536,-0.0154 -0.0046,-0.0023 -0.01078,0.0023 -0.01536,0 -0.0065,-0.0032 -0.0085,-0.0131 -0.01536,-0.0154 -0.0097,-0.0032 -0.02049,0 -0.03073,0 -0.0051,0 -0.01078,0.0023 -0.01536,0 -0.0065,-0.0032 -0.0089,-0.01215 -0.01536,-0.0154 -0.0034,-0.0017 -0.05779,0 -0.06144,0 H 5.8615 c -0.0051,0 -0.01078,-0.0023 -0.01536,0 -0.0065,0.0032 -0.01024,0.01026 -0.01536,0.0154 -0.012,0.01203 -0.03283,0.03733 -0.04608,0.04619 -0.0095,0.0063 -0.0212,0.009 -0.03073,0.0154 -0.0065,0.0043 -0.04291,0.03981 -0.04608,0.04619 -0.0023,0.0046 0.0023,0.0108 0,0.0154 -0.0032,0.0065 -0.01024,0.01026 -0.01536,0.0154 -0.0051,0.0051 -0.0089,0.01215 -0.01536,0.0154 -0.0046,0.0023 -0.01174,-0.0036 -0.01536,0 -0.0036,0.0036 0.0051,0.0154 0,0.0154 -0.0072,0 -0.0089,-0.01215 -0.01536,-0.0154 -0.0046,-0.0023 -0.01078,0.0023 -0.01536,0 -0.0065,-0.0032 -0.0089,-0.01215 -0.01536,-0.0154 -0.02119,-0.01061 -0.01374,0.01864 -0.03073,-0.0154 -0.0023,-0.0046 0.0023,-0.01081 0,-0.0154 -0.0092,-0.01847 -0.03687,-0.02771 -0.04608,-0.04619 -0.0023,-0.0046 0.0036,-0.01177 0,-0.0154 -0.0036,-0.0036 -0.01174,0.0036 -0.01536,0 -0.0036,-0.0036 0.0036,-0.01177 0,-0.0154 -0.0036,-0.0036 -0.01174,0.0036 -0.01536,0 -0.0036,-0.0036 0.0023,-0.0108 0,-0.0154 -0.0032,-0.0065 -0.01024,-0.01026 -0.01536,-0.0154 -0.0051,-0.0051 -0.0089,-0.01215 -0.01536,-0.0154 -0.0046,-0.0023 -0.01078,0.0023 -0.01536,0 -0.01295,-0.0065 -0.01777,-0.0243 -0.03073,-0.03079 -0.0092,-0.0046 -0.02157,0.0046 -0.03073,0 -0.0065,-0.0032 -0.0089,-0.01215 -0.01536,-0.0154 -0.0046,-0.0023 -0.01078,0.0023 -0.01536,0 -0.0065,-0.0032 -0.0089,-0.01215 -0.01536,-0.0154 -0.004,-0.002 -0.05341,0 -0.06144,0 H 5.27778 c -0.0051,0 -0.01174,-0.0036 -0.01536,0 -0.0036,0.0036 0.0036,0.01177 0,0.0154 -0.0072,0.0072 -0.02349,-0.0072 -0.03073,0 -0.0036,0.0036 0.0036,0.01177 0,0.0154 -0.0036,0.0036 -0.01174,-0.0036 -0.01536,0 -0.0036,0.0036 0.0036,0.01177 0,0.0154 -0.0036,0.0036 -0.01024,0 -0.01536,0 H 5.18561 c -0.008,0 -0.05741,0.002 -0.06144,0 -0.0065,-0.0032 -0.0089,-0.01215 -0.01536,-0.0154 -0.0092,-0.0046 -0.02156,0.0046 -0.03073,0 -0.0065,-0.0032 -0.0089,-0.01215 -0.01536,-0.0154 -0.0092,-0.0046 -0.02348,0.0072 -0.03073,0 -0.0036,-0.0036 0.0036,-0.01177 0,-0.0154 -0.0036,-0.0036 -0.01031,8.48e-4 -0.01536,0 -0.02576,-0.0043 -0.0512,-0.01026 -0.07681,-0.0154 z" />
        <g
             id="layer2-3"
             style="display:none"
             transform="matrix(0.75732562,0,0,0.75732562,19.796963,-122.574)">
            <rect
                 width="86"
                 height="85"
                 rx="7.922616"
                 ry="7.922616"
                 x="5"
                 y="7"
                 id="rect3745-0"
                 style="opacity:0.9;fill:url(#linearGradient3140);fill-opacity:1;fill-rule:nonzero;stroke:none;filter:url(#filter3174-3)" />
        </g>
        <g
             id="layer4-0"
             transform="matrix(0.75732562,0,0,0.75732562,19.796963,-122.574)" />
        <g
             id="layer2-0"
             style="display:none"
             transform="matrix(0.75732562,0,0,0.75732562,39.914849,-114.65702)">
            <rect
                 width="86"
                 height="85"
                 rx="7.922616"
                 ry="7.922616"
                 x="5"
                 y="7"
                 id="rect3745-7"
                 style="opacity:0.9;fill:url(#linearGradient3138);fill-opacity:1;fill-rule:nonzero;stroke:none;filter:url(#filter3174-4)" />
        </g>
        <g
             id="layer4-3"
             transform="matrix(0.75732562,0,0,0.75732562,39.914849,-114.65702)" />
        <g
             id="layer2-1"
             style="display:none"
             transform="matrix(0.75732562,0,0,0.75732562,82.41975,-112.43409)">
            <rect
                 width="86"
                 height="85"
                 rx="7.922616"
                 ry="7.922616"
                 x="5"
                 y="7"
                 id="rect3745-1"
                 style="opacity:0.9;fill:url(#linearGradient3136);fill-opacity:1;fill-rule:nonzero;stroke:none;filter:url(#filter3174-2)" />
        </g>
        <g
             id="layer4-8"
             transform="matrix(0.75732562,0,0,0.75732562,82.41975,-112.43409)" />
        <path
             style="opacity:0.98999999;fill:url(#linearGradient3172)"
             inkscape:connector-curvature="0"
             d="m 7,33 6.666667,0 C 14.440316,33 15,33.740716 15,34.473684 L 15,47 10.564994,47 z"
             id="path57-5-9"
             sodipodi:nodetypes="cssccc" />
    </g>
</svg>
