<?xml version="1.0" encoding="UTF-8" standalone="no"?>
<svg
   xmlns:dc="http://purl.org/dc/elements/1.1/"
   xmlns:cc="http://creativecommons.org/ns#"
   xmlns:rdf="http://www.w3.org/1999/02/22-rdf-syntax-ns#"
   xmlns:svg="http://www.w3.org/2000/svg"
   xmlns="http://www.w3.org/2000/svg"
   xmlns:sodipodi="http://sodipodi.sourceforge.net/DTD/sodipodi-0.dtd"
   xmlns:inkscape="http://www.inkscape.org/namespaces/inkscape"
   viewBox="0 0 16 16"
   id="svg2"
   version="1.1"
   inkscape:version="0.48.3.1 r9886"
   width="100%"
   height="100%"
   sodipodi:docname="text-x-perl.svg">
  <metadata
     id="metadata32">
    <rdf:RDF>
      <cc:Work
         rdf:about="">
        <dc:format>image/svg+xml</dc:format>
        <dc:type
           rdf:resource="http://purl.org/dc/dcmitype/StillImage" />
        <dc:title></dc:title>
      </cc:Work>
    </rdf:RDF>
  </metadata>
  <sodipodi:namedview
     pagecolor="#ffffff"
     bordercolor="#666666"
     borderopacity="1"
     objecttolerance="10"
     gridtolerance="10"
     guidetolerance="10"
     inkscape:pageopacity="0"
     inkscape:pageshadow="2"
     inkscape:window-width="1450"
     inkscape:window-height="876"
     id="namedview30"
     showgrid="false"
     inkscape:zoom="22.627417"
     inkscape:cx="17.520907"
     inkscape:cy="7.6740156"
     inkscape:window-x="150"
     inkscape:window-y="0"
     inkscape:window-maximized="1"
     inkscape:current-layer="svg2">
    <inkscape:grid
       type="xygrid"
       id="grid3009" />
  </sodipodi:namedview>
  <defs
     id="defs4">
    <linearGradient
       gradientUnits="userSpaceOnUse"
       id="linearGradient3258-1"
       x2="0"
       y1="33.36102"
       y2="47.17878">
      <stop
         offset="0"
         stop-color="#d1d1d1"
         id="stop15" />
      <stop
         offset="1"
         stop-color="#fbfbfb"
         id="stop17" />
    </linearGradient>
    <linearGradient
       gradientUnits="userSpaceOnUse"
       id="linearGradient3756"
       x2="0"
       y1="32.84374"
       y2="47.26854">
      <stop
         offset="0"
         stop-color="#fff"
         stop-opacity=".669"
         id="stop20" />
      <stop
         offset="1"
         stop-color="#fff"
         stop-opacity="0"
         id="stop22" />
    </linearGradient>
  </defs>
  <g
     transform="translate(0,-32)"
     id="g24">
    <path
       d="m3.5,32.5h9a2,2 0 0,1 2,2v11a2,2 0 0,1 -2,2h-9a2,2 0 0,1 -2-2v-11a2,2 0 0,1 2-2"
       id="path26"
       stroke-linejoin="round"
       stroke-linecap="round"
       stroke="#818181"
       fill="url(#linearGradient3258-1)" />
    <path
       d="m3.5,33.5h9a1,1 0 0,1 1,1v11a1,1 0 0,1 -1,1h-9a1,1 0 0,1 -1-1v-11a1,1 0 0,1 1-1"
       id="path28"
       stroke="url(#linearGradient3756)"
       fill="none" />
  </g>
  <path
     style="fill:#f57900;fill-opacity:1;stroke:none"
     d="M 3.0045722,4.0886184 C 3.0255572,4.2266268 2.9585042,5.2927824 3.5255505,5.3125 4.0925922,5.332199 3.7668173,5.7869189 3.5568005,6.0629355 3.3467836,6.3389493 3.1382636,7.2634433 3.411283,7.7760471 4.0240334,9.0025709 4.8992756,8.4887083 5,8.9117581 5.070651,10.277913 5.2292447,11.881896 5,13 c 0.5880461,0.01971 0.9579958,0.335161 1,0 -0.017325,-1.363157 0,-2.562982 0,-4 -0.041999,-0.6506143 1,-0.5539566 1,0 0,0.6755232 0,1.282108 0,2 0,0.196233 0.1277758,0.263433 0.2327649,0.489725 0.2841916,0.350509 2.0614452,1.202321 2.1874552,1.438904 0.1260109,0.236585 0.7799689,0.107285 0.7799689,-0.247511 0,-0.354878 -0.08569,-0.691298 -1.1779016,-1.388742 C 8.260565,10.80597 8,10.748774 8,10.461095 8,9.892241 8,9.4672727 8,9 8,8.7302808 9,8.2558592 9,9 c 0,0.7565433 0,1.780059 0,3 -0.7642419,-0.566613 -1.218807,0.370876 -1.6314621,1 0.2232798,0.145671 0.8172016,0.752415 1.0037036,0.733735 0.1123729,-0.13161 0.4348387,-0.66172 0.5489873,-0.834824 0.2730234,-0.414025 0.5583324,-0.592512 0.8733599,-1.04597 C 10.109611,11.399487 10,10.921504 10,10.551417 10,10 10,9.5237442 10,9 c 0,-0.4741182 0.747979,-1.1434961 1,0 0,1.35649 -3.16e-4,2.468047 0,4 0.386058,0 0.664968,0 1,0 0.05958,-1.244154 0,-3.4557371 0,-4.6789008 -0.1035,-0.6878302 0.272859,-1.001125 0.204148,0.1558497 -0.0919,1.5473941 0.790983,0.5172869 0.790983,-0.2875262 0,-2.1305688 -2.195192,-5.3382441 -3.6812192,-5.4170156 C 7.8771232,2.7724071 7.9452218,4.1324576 7,4.7209865 5.6569344,5.5572271 5.9386103,6.237603 5.6445879,6.4347587 5.3505646,6.6319108 5.3505108,6.0705743 5.6996901,5.725002 6,5.4277943 6.5027011,3 5.328125,3 4.3392785,3 4.4889996,3.9605675 3.6699393,4 2.8508764,4.0394287 3.0045709,4.0886184 3.0045722,4.0886184 z"
     id="path3809"
     inkscape:connector-curvature="0"
     sodipodi:nodetypes="cssccccccscsssssscccssssccccsscsssssc" />
</svg>
