<?xml version="1.0" encoding="UTF-8" standalone="no"?>
<svg
   xmlns:dc="http://purl.org/dc/elements/1.1/"
   xmlns:cc="http://creativecommons.org/ns#"
   xmlns:rdf="http://www.w3.org/1999/02/22-rdf-syntax-ns#"
   xmlns:svg="http://www.w3.org/2000/svg"
   xmlns="http://www.w3.org/2000/svg"
   xmlns:xlink="http://www.w3.org/1999/xlink"
   xmlns:sodipodi="http://sodipodi.sourceforge.net/DTD/sodipodi-0.dtd"
   xmlns:inkscape="http://www.inkscape.org/namespaces/inkscape"
   viewBox="0 0 16 16"
   id="svg2"
   version="1.1"
   inkscape:version="0.48.3.1 r9886"
   width="100%"
   height="100%"
   sodipodi:docname="text-x-vala.svg">
  <metadata
     id="metadata32">
    <rdf:RDF>
      <cc:Work
         rdf:about="">
        <dc:format>image/svg+xml</dc:format>
        <dc:type
           rdf:resource="http://purl.org/dc/dcmitype/StillImage" />
        <dc:title />
      </cc:Work>
    </rdf:RDF>
  </metadata>
  <sodipodi:namedview
     pagecolor="#ffffff"
     bordercolor="#666666"
     borderopacity="1"
     objecttolerance="10"
     gridtolerance="10"
     guidetolerance="10"
     inkscape:pageopacity="0"
     inkscape:pageshadow="2"
     inkscape:window-width="772"
     inkscape:window-height="655"
     id="namedview30"
     showgrid="true"
     inkscape:zoom="20.85965"
     inkscape:cx="13.290474"
     inkscape:cy="8.0286667"
     inkscape:window-x="419"
     inkscape:window-y="297"
     inkscape:window-maximized="0"
     inkscape:current-layer="svg2">
    <inkscape:grid
       type="xygrid"
       id="grid3009" />
  </sodipodi:namedview>
  <defs
     id="defs4">
    <linearGradient
       gradientUnits="userSpaceOnUse"
       id="linearGradient3258-1"
       x2="0"
       y1="33.36102"
       y2="47.17878">
      <stop
         offset="0"
         stop-color="#d1d1d1"
         id="stop15" />
      <stop
         offset="1"
         stop-color="#fbfbfb"
         id="stop17" />
    </linearGradient>
    <linearGradient
       gradientUnits="userSpaceOnUse"
       id="linearGradient3756"
       x2="0"
       y1="32.84374"
       y2="47.26854">
      <stop
         offset="0"
         stop-color="#fff"
         stop-opacity=".669"
         id="stop20" />
      <stop
         offset="1"
         stop-color="#fff"
         stop-opacity="0"
         id="stop22" />
    </linearGradient>
    <linearGradient
       id="linearGradient3797-6">
      <stop
         style="stop-color:#999999;stop-opacity:1;"
         offset="0"
         id="stop3799-2" />
      <stop
         id="stop3805-7"
         offset="1"
         style="stop-color:#acac60;stop-opacity:1;" />
    </linearGradient>
    <linearGradient
       inkscape:collect="always"
       xlink:href="#linearGradient3797-6"
       id="linearGradient3104"
       gradientUnits="userSpaceOnUse"
       x1="17.365717"
       y1="13.705164"
       x2="17.365717"
       y2="27.410328" />
  </defs>
  <g
     transform="translate(0,-32)"
     id="g24">
    <path
       d="m3.5,32.5h9a2,2 0 0,1 2,2v11a2,2 0 0,1 -2,2h-9a2,2 0 0,1 -2-2v-11a2,2 0 0,1 2-2"
       fill="url(#linearGradient3258-1)"
       stroke="#818181"
       stroke-linecap="round"
       stroke-linejoin="round"
       id="path26" />
    <path
       d="m3.5,33.5h9a1,1 0 0,1 1,1v11a1,1 0 0,1 -1,1h-9a1,1 0 0,1 -1-1v-11a1,1 0 0,1 1-1"
       fill="none"
       stroke="url(#linearGradient3756)"
       id="path28" />
  </g>
  <g
     transform="matrix(0.71195655,0,0,0.60270202,-3.5844161,-5.440148)"
     style="font-size:18.12018967px;font-style:normal;font-weight:normal;line-height:125%;letter-spacing:0px;word-spacing:0px;fill:url(#linearGradient3104);fill-opacity:1;stroke:none;font-family:Sans"
     id="text3009-7">
    <g
       transform="matrix(0.91666663,0,0,1.0895713,1.0215137,-1.227591)"
       style="font-size:18.12018967px;font-style:normal;font-weight:normal;line-height:125%;letter-spacing:0px;word-spacing:0px;fill:#75b900;fill-opacity:1;stroke:none;font-family:Sans"
       id="text3009-6">
      <path
         d="m 10.506989,15.502091 3.502329,10e-7 2.626748,9.136775 2.626747,-9.136775 3.50233,0 -4.596808,13.705163 -3.064538,0 -4.596808,-13.705164"
         style="font-variant:normal;font-weight:bold;font-stretch:normal;fill:#68a400;fill-opacity:1;font-family:Sans;-inkscape-font-specification:Sans Bold"
         id="path3795"
         inkscape:connector-curvature="0"
         sodipodi:nodetypes="cccccccc" />
    </g>
  </g>
</svg>
