<?xml version="1.0" encoding="UTF-8" standalone="no"?>
<svg
   xmlns:dc="http://purl.org/dc/elements/1.1/"
   xmlns:cc="http://creativecommons.org/ns#"
   xmlns:rdf="http://www.w3.org/1999/02/22-rdf-syntax-ns#"
   xmlns:svg="http://www.w3.org/2000/svg"
   xmlns="http://www.w3.org/2000/svg"
   xmlns:sodipodi="http://sodipodi.sourceforge.net/DTD/sodipodi-0.dtd"
   xmlns:inkscape="http://www.inkscape.org/namespaces/inkscape"
   viewBox="0 0 16 16"
   id="svg2"
   version="1.1"
   inkscape:version="0.48.3.1 r9886"
   width="100%"
   height="100%"
   sodipodi:docname="text-x-python.svg">
  <metadata
     id="metadata32">
    <rdf:RDF>
      <cc:Work
         rdf:about="">
        <dc:format>image/svg+xml</dc:format>
        <dc:type
           rdf:resource="http://purl.org/dc/dcmitype/StillImage" />
        <dc:title />
      </cc:Work>
    </rdf:RDF>
  </metadata>
  <sodipodi:namedview
     pagecolor="#ffffff"
     bordercolor="#666666"
     borderopacity="1"
     objecttolerance="10"
     gridtolerance="10"
     guidetolerance="10"
     inkscape:pageopacity="0"
     inkscape:pageshadow="2"
     inkscape:window-width="772"
     inkscape:window-height="655"
     id="namedview30"
     showgrid="true"
     inkscape:zoom="26.950593"
     inkscape:cx="8.5802056"
     inkscape:cy="6.5777631"
     inkscape:window-x="286"
     inkscape:window-y="294"
     inkscape:window-maximized="0"
     inkscape:current-layer="svg2">
    <inkscape:grid
       type="xygrid"
       id="grid3009" />
  </sodipodi:namedview>
  <defs
     id="defs4">
    <linearGradient
       gradientUnits="userSpaceOnUse"
       id="linearGradient3258-1"
       x2="0"
       y1="33.36102"
       y2="47.17878">
      <stop
         offset="0"
         stop-color="#d1d1d1"
         id="stop15" />
      <stop
         offset="1"
         stop-color="#fbfbfb"
         id="stop17" />
    </linearGradient>
    <linearGradient
       gradientUnits="userSpaceOnUse"
       id="linearGradient3756"
       x2="0"
       y1="32.84374"
       y2="47.26854">
      <stop
         offset="0"
         stop-color="#fff"
         stop-opacity=".669"
         id="stop20" />
      <stop
         offset="1"
         stop-color="#fff"
         stop-opacity="0"
         id="stop22" />
    </linearGradient>
  </defs>
  <g
     transform="translate(0,-32)"
     id="g24">
    <path
       d="m3.5,32.5h9a2,2 0 0,1 2,2v11a2,2 0 0,1 -2,2h-9a2,2 0 0,1 -2-2v-11a2,2 0 0,1 2-2"
       id="path26"
       stroke-linejoin="round"
       stroke-linecap="round"
       stroke="#818181"
       fill="url(#linearGradient3258-1)" />
    <path
       d="m3.5,33.5h9a1,1 0 0,1 1,1v11a1,1 0 0,1 -1,1h-9a1,1 0 0,1 -1-1v-11a1,1 0 0,1 1-1"
       id="path28"
       stroke="url(#linearGradient3756)"
       fill="none" />
  </g>
  <path
     sodipodi:nodetypes="ccccccccc"
     id="path4111"
     d="m 9.5000004,12.5 0,-2 2.9999996,0 10e-7,-4 -3.0000006,8.43e-5 0,1.9999157 L 6.5,8.5 l 0,4 z"
     style="color:#000000;fill:#f9df2e;fill-opacity:1;fill-rule:nonzero;stroke:#ad7900;stroke-width:1;stroke-linecap:butt;stroke-linejoin:miter;stroke-miterlimit:4;stroke-opacity:1;stroke-dasharray:none;stroke-dashoffset:0;marker:none;visibility:visible;display:inline;overflow:visible;enable-background:accumulate"
     inkscape:connector-curvature="0" />
  <path
     inkscape:connector-curvature="0"
     style="color:#000000;fill:#5db7fd;fill-opacity:1;fill-rule:nonzero;stroke:#1b3e74;stroke-width:1;stroke-linecap:butt;stroke-linejoin:miter;stroke-miterlimit:4;stroke-opacity:1;stroke-dasharray:none;stroke-dashoffset:0;marker:none;visibility:visible;display:inline;overflow:visible;enable-background:accumulate"
     d="m 6.5000004,3.5 0,2 -3.0000002,0 -4e-7,4 3.0000006,-8.43e-5 0,-1.9999157 2.9999996,0 0,-4 z"
     id="path3785"
     sodipodi:nodetypes="ccccccccc" />
</svg>
