<?xml version="1.0" encoding="UTF-8" standalone="no"?>
<svg
   xmlns:dc="http://purl.org/dc/elements/1.1/"
   xmlns:cc="http://creativecommons.org/ns#"
   xmlns:rdf="http://www.w3.org/1999/02/22-rdf-syntax-ns#"
   xmlns:svg="http://www.w3.org/2000/svg"
   xmlns="http://www.w3.org/2000/svg"
   xmlns:sodipodi="http://sodipodi.sourceforge.net/DTD/sodipodi-0.dtd"
   xmlns:inkscape="http://www.inkscape.org/namespaces/inkscape"
   viewBox="0 0 16 16"
   id="svg2"
   version="1.1"
   inkscape:version="0.48.3.1 r9886"
   width="100%"
   height="100%"
   sodipodi:docname="text-x-c++src.svg">
  <metadata
     id="metadata32">
    <rdf:RDF>
      <cc:Work
         rdf:about="">
        <dc:format>image/svg+xml</dc:format>
        <dc:type
           rdf:resource="http://purl.org/dc/dcmitype/StillImage" />
        <dc:title />
      </cc:Work>
    </rdf:RDF>
  </metadata>
  <sodipodi:namedview
     pagecolor="#ffffff"
     bordercolor="#666666"
     borderopacity="1"
     objecttolerance="10"
     gridtolerance="10"
     guidetolerance="10"
     inkscape:pageopacity="0"
     inkscape:pageshadow="2"
     inkscape:window-width="772"
     inkscape:window-height="655"
     id="namedview30"
     showgrid="true"
     inkscape:zoom="20.85965"
     inkscape:cx="13.290474"
     inkscape:cy="7.5972118"
     inkscape:window-x="419"
     inkscape:window-y="297"
     inkscape:window-maximized="0"
     inkscape:current-layer="svg2">
    <inkscape:grid
       type="xygrid"
       id="grid3009" />
  </sodipodi:namedview>
  <defs
     id="defs4">
    <linearGradient
       gradientUnits="userSpaceOnUse"
       id="linearGradient3258-1"
       x2="0"
       y1="33.36102"
       y2="47.17878">
      <stop
         offset="0"
         stop-color="#d1d1d1"
         id="stop15" />
      <stop
         offset="1"
         stop-color="#fbfbfb"
         id="stop17" />
    </linearGradient>
    <linearGradient
       gradientUnits="userSpaceOnUse"
       id="linearGradient3756"
       x2="0"
       y1="32.84374"
       y2="47.26854">
      <stop
         offset="0"
         stop-color="#fff"
         stop-opacity=".669"
         id="stop20" />
      <stop
         offset="1"
         stop-color="#fff"
         stop-opacity="0"
         id="stop22" />
    </linearGradient>
  </defs>
  <g
     transform="translate(0,-32)"
     id="g24">
    <path
       d="m3.5,32.5h9a2,2 0 0,1 2,2v11a2,2 0 0,1 -2,2h-9a2,2 0 0,1 -2-2v-11a2,2 0 0,1 2-2"
       fill="url(#linearGradient3258-1)"
       stroke="#818181"
       stroke-linecap="round"
       stroke-linejoin="round"
       id="path26" />
    <path
       d="m3.5,33.5h9a1,1 0 0,1 1,1v11a1,1 0 0,1 -1,1h-9a1,1 0 0,1 -1-1v-11a1,1 0 0,1 1-1"
       fill="none"
       stroke="url(#linearGradient3756)"
       id="path28" />
  </g>
  <g
     transform="matrix(0.71195654,0,0,0.43779122,-4.727273,-3.0000008)"
     style="font-size:18.12018967px;font-style:normal;font-weight:normal;line-height:125%;letter-spacing:0px;word-spacing:0px;fill:#0060ca;fill-opacity:1;stroke:none;font-family:Sans"
     id="text3009">
    <path
       inkscape:connector-curvature="0"
       d="m 23.494795,26.428226 c -0.625253,0.324418 -1.277036,0.569206 -1.955353,0.734364 -0.678337,0.165157 -1.386156,0.247736 -2.123459,0.247737 -2.200147,-10e-7 -3.943151,-0.613444 -5.22902,-1.840332 -1.285874,-1.232784 -1.92881,-2.902057 -1.928809,-5.007826 -10e-7,-2.111654 0.642935,-3.780928 1.928809,-5.007826 1.285869,-1.232773 3.028873,-1.849166 5.22902,-1.849179 0.737303,1.3e-5 1.445122,0.08259 2.123459,0.247737 0.678317,0.165171 1.3301,0.409958 1.955353,0.734363 l 0,2.733954 c -0.631151,-0.43058 -1.253442,-0.74615 -1.866875,-0.946709 -0.613454,-0.200538 -1.259339,-0.300813 -1.937657,-0.300823 -1.215098,10e-6 -2.170654,0.389311 -2.866671,1.167902 -0.696028,0.778611 -1.044039,1.852137 -1.044034,3.220581 -5e-6,1.362558 0.348006,2.433135 1.044034,3.211733 0.696017,0.778604 1.651573,1.167905 2.866671,1.167903 0.678318,2e-6 1.324203,-0.100273 1.937657,-0.300824 0.613433,-0.200546 1.235724,-0.516115 1.866875,-0.946709 l 0,2.733954"
       style="font-variant:normal;font-weight:bold;font-stretch:normal;fill:#0060ca;font-family:Sans;-inkscape-font-specification:Sans Bold"
       id="path3027" />
  </g>
  <rect
     style="color:#000000;fill:#0060ca;fill-opacity:1;fill-rule:nonzero;stroke:none;stroke-width:1;marker:none;visibility:visible;display:inline;overflow:visible;enable-background:accumulate"
     id="rect3114"
     width="3"
     height="1"
     x="4"
     y="11" />
  <rect
     style="color:#000000;fill:#0060ca;fill-opacity:1;fill-rule:nonzero;stroke:none;stroke-width:1;marker:none;visibility:visible;display:inline;overflow:visible;enable-background:accumulate"
     id="rect3116"
     width="3"
     height="1"
     x="9"
     y="11" />
  <rect
     style="color:#000000;fill:#0060ca;fill-opacity:1;fill-rule:nonzero;stroke:none;stroke-width:1;marker:none;visibility:visible;display:inline;overflow:visible;enable-background:accumulate"
     id="rect3118"
     width="1"
     height="3"
     x="5"
     y="10" />
  <rect
     style="color:#000000;fill:#0060ca;fill-opacity:1;fill-rule:nonzero;stroke:none;stroke-width:1;marker:none;visibility:visible;display:inline;overflow:visible;enable-background:accumulate"
     id="rect3120"
     width="1"
     height="3"
     x="10"
     y="10" />
</svg>
