<?xml version="1.0" encoding="UTF-8" standalone="no"?>
<svg
   xmlns:dc="http://purl.org/dc/elements/1.1/"
   xmlns:cc="http://creativecommons.org/ns#"
   xmlns:rdf="http://www.w3.org/1999/02/22-rdf-syntax-ns#"
   xmlns:svg="http://www.w3.org/2000/svg"
   xmlns="http://www.w3.org/2000/svg"
   xmlns:sodipodi="http://sodipodi.sourceforge.net/DTD/sodipodi-0.dtd"
   xmlns:inkscape="http://www.inkscape.org/namespaces/inkscape"
   viewBox="0 0 16 16"
   id="svg2"
   version="1.1"
   inkscape:version="0.48.3.1 r9886"
   width="100%"
   height="100%"
   sodipodi:docname="unknown.svg">
  <metadata
     id="metadata44">
    <rdf:RDF>
      <cc:Work
         rdf:about="">
        <dc:format>image/svg+xml</dc:format>
        <dc:type
           rdf:resource="http://purl.org/dc/dcmitype/StillImage" />
      </cc:Work>
    </rdf:RDF>
  </metadata>
  <sodipodi:namedview
     pagecolor="#ffffff"
     bordercolor="#666666"
     borderopacity="1"
     objecttolerance="10"
     gridtolerance="10"
     guidetolerance="10"
     inkscape:pageopacity="0"
     inkscape:pageshadow="2"
     inkscape:window-width="640"
     inkscape:window-height="480"
     id="namedview42" />
  <defs
     id="defs4">
    <linearGradient
       gradientUnits="userSpaceOnUse"
       id="linearGradient3258-1"
       x2="0"
       y1="33.36102"
       y2="47.17878">
      <stop
         offset="0"
         stop-color="#d1d1d1"
         id="stop15" />
      <stop
         offset="1"
         stop-color="#fbfbfb"
         id="stop17" />
    </linearGradient>
    <linearGradient
       gradientUnits="userSpaceOnUse"
       id="linearGradient3756"
       x2="0"
       y1="32.84374"
       y2="47.26854">
      <stop
         offset="0"
         stop-color="#fff"
         stop-opacity=".669"
         id="stop20" />
      <stop
         offset="1"
         stop-color="#fff"
         stop-opacity="0"
         id="stop22" />
    </linearGradient>
  </defs>
  <g
     transform="translate(0,-32)"
     id="g24">
    <path
       d="m3.5,32.5h9a2,2 0 0,1 2,2v11a2,2 0 0,1 -2,2h-9a2,2 0 0,1 -2-2v-11a2,2 0 0,1 2-2"
       fill="url(#linearGradient3258-1)"
       stroke="#818181"
       stroke-linecap="round"
       stroke-linejoin="round"
       id="path26" />
    <path
       d="m3.5,33.5h9a1,1 0 0,1 1,1v11a1,1 0 0,1 -1,1h-9a1,1 0 0,1 -1-1v-11a1,1 0 0,1 1-1"
       fill="none"
       stroke="url(#linearGradient3756)"
       id="path28" />
    <path
       d="m3,35h10v1h-10z"
       fill="#999"
       id="path30" />
    <path
       d="m3,37h10v1h-10z"
       fill="#999"
       id="path32" />
    <path
       d="m3,39h10v1h-10z"
       fill="#999"
       id="path34" />
    <path
       d="m3,41h10.09315v1h-10.09315z"
       fill="#999"
       id="path36" />
    <path
       d="m3,43h10.09315v1h-10.09315z"
       fill="#999"
       id="path38" />
    <path
       d="m3,45h6v1h-6z"
       fill="#999"
       id="path40" />
  </g>
</svg>
