<?xml version="1.0" encoding="UTF-8" standalone="no"?>
<svg xmlns:dc="http://purl.org/dc/elements/1.1/" xmlns:cc="http://creativecommons.org/ns#" xmlns:rdf="http://www.w3.org/1999/02/22-rdf-syntax-ns#" xmlns:svg="http://www.w3.org/2000/svg" xmlns="http://www.w3.org/2000/svg" xmlns:xlink="http://www.w3.org/1999/xlink" xmlns:sodipodi="http://sodipodi.sourceforge.net/DTD/sodipodi-0.dtd" xmlns:inkscape="http://www.inkscape.org/namespaces/inkscape" viewBox="0 0 16 16" id="svg2" version="1.1" inkscape:version="0.48.4 r9939" width="100%" height="100%" sodipodi:docname="x-office-spreadsheet.svg">
  <metadata id="metadata64">
    <rdf:RDF>
      <cc:Work rdf:about="">
        <dc:format>image/svg+xml</dc:format>
        <dc:type rdf:resource="http://purl.org/dc/dcmitype/StillImage" />
        <dc:title />
      </cc:Work>
    </rdf:RDF>
  </metadata>
  <sodipodi:namedview pagecolor="#ffffff" bordercolor="#666666" borderopacity="1" objecttolerance="10" gridtolerance="10" guidetolerance="10" inkscape:pageopacity="0" inkscape:pageshadow="2" inkscape:window-width="1280" inkscape:window-height="976" id="namedview62" showgrid="true" inkscape:zoom="29.5" inkscape:cx="12.722035" inkscape:cy="7.6397485" inkscape:window-x="0" inkscape:window-y="24" inkscape:window-maximized="1" inkscape:current-layer="svg2" inkscape:snap-center="true" inkscape:snap-object-midpoints="true">
    <inkscape:grid type="xygrid" id="grid3010" />
  </sodipodi:namedview>
  <defs id="defs4">
    <linearGradient inkscape:collect="always" xlink:href="#linearGradient4417" id="linearGradient4383-2" gradientUnits="userSpaceOnUse" gradientTransform="matrix(0.66666675,0,0,1.0000001,-2.6666667,-6.000001)" x1="4" y1="9.5" x2="7" y2="9.5" />
    <linearGradient id="linearGradient4417">
      <stop id="stop4419" offset="0" style="stop-color:#505050;stop-opacity:1;" />
      <stop style="stop-color:#ffffff;stop-opacity:1;" offset="1" id="stop4421" />
    </linearGradient>
    <linearGradient inkscape:collect="always" xlink:href="#linearGradient3157-5-8-1" id="linearGradient3136-0" gradientUnits="userSpaceOnUse" gradientTransform="matrix(0,-0.40117713,-0.40117713,0,15.328309,-1.9458149)" x1="-42.696152" x2="-5.8431101" />
    <linearGradient gradientUnits="userSpaceOnUse" id="linearGradient3157-5-8-1" x1="-42.696152" x2="-5.8431101">
      <stop offset="0" stop-color="#fff" id="stop19-8-8" />
      <stop offset="1" stop-color="#cdcdcd" id="stop21-0-6" />
    </linearGradient>
    <linearGradient inkscape:collect="always" xlink:href="#linearGradient3866-6" id="linearGradient3138-3" gradientUnits="userSpaceOnUse" gradientTransform="matrix(0,-0.40117713,-0.40117713,0,15.328309,-1.9458149)" x1="-5" y1="-21" x2="-43" y2="-21" />
    <linearGradient id="linearGradient3866-6">
      <stop style="stop-color:#818181;stop-opacity:1;" offset="0" id="stop3868-3" />
      <stop style="stop-color:#667c03;stop-opacity:1;" offset="1" id="stop3870-8" />
    </linearGradient>
  </defs>
  <path inkscape:connector-curvature="0" style="fill:url(#linearGradient3136-0);stroke:url(#linearGradient3138-3);stroke-linecap:round;stroke-linejoin:round;color:black;fill-opacity:1;fill-rule:nonzero;stroke-width:1;stroke-miterlimit:4;stroke-opacity:1;stroke-dasharray:none;stroke-dashoffset:0;marker:none;visibility:visible;display:inline;overflow:visible;enable-background:accumulate" id="path36" d="m 3.5,0.5 h 9 a 2,2 0 0 1 2,2 v 11 a 2,2 0 0 1 -2,2 h -9 a 2,2 0 0 1 -2,-2 v -11 a 2,2 0 0 1 2,-2" />
  <path id="path3034" d="M 5,1 3.0159232,1 C 2.574206,1 2,1.6446825 2,2 l 0,12 c 0,0.396237 0.5771648,1 0.9840768,1 L 5,15" style="color:black;fill:#a4c201;fill-opacity:1;fill-rule:nonzero;stroke:none;stroke-width:1;marker:none;visibility:visible;display:inline;overflow:visible;enable-background:accumulate" inkscape:connector-curvature="0" sodipodi:nodetypes="cssssc" />
  <g clip-path="none" clip-rule="nonzero" id="g8309" transform="matrix(0.17138748,0,0,0.17138748,65.451176,-30.228873)" />
  <path d="M 6,3 H 9 V 5 H 6 z" id="path44" inkscape:connector-curvature="0" style="fill:#9fbc01;fill-opacity:1" />
  <path d="M 6,6 H 9 V 8 H 6 z" id="path50" inkscape:connector-curvature="0" style="fill:#999" />
  <path style="fill:#9fbc01;fill-opacity:1" inkscape:connector-curvature="0" id="path3144" d="m 10,3 h 3 v 2 h -3 z" />
  <path d="m 10,9 h 3 v 2 h -3 z" id="path3150" inkscape:connector-curvature="0" style="fill:#999" />
  <path style="fill:#667c03;fill-opacity:1" d="m 12.000004,10 c -0.7273,0 -1.412354,0.103872 -2.000002,0.273292 L 8,10.273292 8,12 l 0,0.186335 0.024997,0 C 8.2079865,13.204877 9.9129071,14 12,14 c 2.087093,0 3.792013,-0.795123 3.975003,-1.813665 l 0.025,0 0,-0.186335 0,-1.726708 -2.000002,0 C 13.412358,10.103872 12.727305,10 12.000004,10 z" id="path86" inkscape:connector-curvature="0" />
  <path style="color:black;fill:#adcc01;fill-opacity:1;fill-rule:nonzero;stroke-width:1;stroke-linecap:butt;stroke-linejoin:miter;stroke-miterlimit:4;stroke-opacity:1;stroke-dasharray:none;stroke-dashoffset:0;marker:none;visibility:visible;display:inline;overflow:visible;enable-background:accumulate" inkscape:connector-curvature="0" id="path90" d="M 16,9.9999999 C 16,11.104567 14.209141,12 12,12 9.7908591,12 8,11.104567 8,9.9999999 8,8.8954323 9.7908591,8 12,8 c 2.209141,0 4,0.8954323 4,1.9999999 z" />
  <path style="fill:#999" inkscape:connector-curvature="0" id="path3251" d="m 10,6 h 3 v 1 h -3 z" />
  <path style="fill:#999" inkscape:connector-curvature="0" id="path3253" d="m 6,9 h 1 v 2 H 6 z" />
  <path d="m 6,12 h 1 v 2 H 6 z" id="path3255" inkscape:connector-curvature="0" style="fill:#999" />
</svg>
