<?xml version="1.0" encoding="UTF-8" standalone="no"?>
<svg
   xmlns:dc="http://purl.org/dc/elements/1.1/"
   xmlns:cc="http://creativecommons.org/ns#"
   xmlns:rdf="http://www.w3.org/1999/02/22-rdf-syntax-ns#"
   xmlns:svg="http://www.w3.org/2000/svg"
   xmlns="http://www.w3.org/2000/svg"
   xmlns:xlink="http://www.w3.org/1999/xlink"
   xmlns:sodipodi="http://sodipodi.sourceforge.net/DTD/sodipodi-0.dtd"
   xmlns:inkscape="http://www.inkscape.org/namespaces/inkscape"
   viewBox="0 0 16 16"
   id="svg2"
   version="1.1"
   inkscape:version="0.48.3.1 r9886"
   width="100%"
   height="100%"
   sodipodi:docname="x-office-document.svg">
  <metadata
     id="metadata64">
    <rdf:RDF>
      <cc:Work
         rdf:about="">
        <dc:format>image/svg+xml</dc:format>
        <dc:type
           rdf:resource="http://purl.org/dc/dcmitype/StillImage" />
      </cc:Work>
    </rdf:RDF>
  </metadata>
  <sodipodi:namedview
     pagecolor="#ffffff"
     bordercolor="#666666"
     borderopacity="1"
     objecttolerance="10"
     gridtolerance="10"
     guidetolerance="10"
     inkscape:pageopacity="0"
     inkscape:pageshadow="2"
     inkscape:window-width="640"
     inkscape:window-height="480"
     id="namedview62"
     showgrid="false"
     inkscape:zoom="14.75"
     inkscape:cx="8"
     inkscape:cy="8.2033898"
     inkscape:window-x="0"
     inkscape:window-y="24"
     inkscape:window-maximized="0"
     inkscape:current-layer="svg2" />
  <defs
     id="defs4">
    <filter
       id="filter3174">
      <feGaussianBlur
         stdDeviation="1.71"
         id="feGaussianBlur7" />
    </filter>
    <linearGradient
       gradientUnits="userSpaceOnUse"
       id="ButtonShadow"
       x2="0"
       y1="92"
       y2="6.97563">
      <stop
         offset="0"
         id="stop10" />
      <stop
         offset="1"
         stop-opacity=".588"
         id="stop12" />
    </linearGradient>
    <linearGradient
       gradientUnits="userSpaceOnUse"
       id="linearGradient3258-1"
       x2="0"
       y1="33.36102"
       y2="47.17878">
      <stop
         offset="0"
         stop-color="#d1d1d1"
         id="stop15" />
      <stop
         offset="1"
         stop-color="#fbfbfb"
         id="stop17" />
    </linearGradient>
    <linearGradient
       gradientUnits="userSpaceOnUse"
       id="linearGradient3756"
       x2="0"
       y1="32.84374"
       y2="47.26854">
      <stop
         offset="0"
         stop-color="#fff"
         stop-opacity=".669"
         id="stop20" />
      <stop
         offset="1"
         stop-color="#fff"
         stop-opacity="0"
         id="stop22" />
    </linearGradient>
    <linearGradient
       gradientUnits="userSpaceOnUse"
       id="linearGradient4529"
       x2="0"
       y1="38.56846"
       y2="35.09715">
      <stop
         offset="0"
         stop-color="#ceeefb"
         id="stop25" />
      <stop
         offset="1"
         stop-color="#61a2f4"
         id="stop27" />
    </linearGradient>
    <linearGradient
       gradientUnits="userSpaceOnUse"
       id="linearGradient4532"
       x2="0"
       y1="38.70195"
       y2="36.46351">
      <stop
         offset="0"
         stop-color="#d3b72c"
         id="stop30" />
      <stop
         offset="1"
         stop-color="#f2ea73"
         id="stop32" />
    </linearGradient>
    <linearGradient
       inkscape:collect="always"
       xlink:href="#linearGradient4529"
       id="linearGradient3049"
       gradientUnits="userSpaceOnUse"
       y1="38.56846"
       x2="0"
       y2="35.09715"
       gradientTransform="translate(0,-32)" />
    <linearGradient
       inkscape:collect="always"
       xlink:href="#linearGradient4532"
       id="linearGradient3052"
       gradientUnits="userSpaceOnUse"
       y1="38.70195"
       x2="0"
       y2="36.46351"
       gradientTransform="translate(0,-32)" />
    <linearGradient
       inkscape:collect="always"
       xlink:href="#linearGradient3756"
       id="linearGradient3057"
       gradientUnits="userSpaceOnUse"
       y1="32.84374"
       x2="0"
       y2="47.26854"
       gradientTransform="translate(0,-32)" />
    <linearGradient
       inkscape:collect="always"
       xlink:href="#linearGradient3258-1"
       id="linearGradient3060"
       gradientUnits="userSpaceOnUse"
       y1="33.36102"
       x2="0"
       y2="47.17878"
       gradientTransform="translate(0,-32)" />
  </defs>
  <path
     inkscape:connector-curvature="0"
     style="fill:url(#linearGradient3060);stroke:#818181;stroke-linecap:round;stroke-linejoin:round"
     id="path36"
     d="m 3.5,0.5 h 9 a 2,2 0 0 1 2,2 v 11 a 2,2 0 0 1 -2,2 h -9 a 2,2 0 0 1 -2,-2 v -11 a 2,2 0 0 1 2,-2" />
  <path
     inkscape:connector-curvature="0"
     style="fill:none;stroke:url(#linearGradient3057)"
     id="path38"
     d="m 3.5,1.5 h 9 a 1,1 0 0 1 1,1 v 11 a 1,1 0 0 1 -1,1 h -9 a 1,1 0 0 1 -1,-1 v -11 a 1,1 0 0 1 1,-1" />
  <path
     style="fill:#999999"
     inkscape:connector-curvature="0"
     id="path40"
     d="m 9,3 h 4 V 4 H 9 z" />
  <path
     style="fill:#ffffff"
     inkscape:connector-curvature="0"
     id="path42"
     d="M 3,3 H 8 V 8 H 3 z" />
  <path
     inkscape:connector-curvature="0"
     style="fill:url(#linearGradient3052)"
     id="path44"
     d="M 3,6.75 H 8 V 8 H 3 z" />
  <path
     inkscape:connector-curvature="0"
     style="fill:url(#linearGradient3049)"
     id="path46"
     d="M 3,3 H 8 V 6.75 H 3 z" />
  <path
     style="fill:#a86516"
     inkscape:connector-curvature="0"
     id="path48"
     d="M 3,6.125 H 3.64877 C 4.48952,6.125 4.04826,4.82165 5.32665,4.82165 6.52482,4.87557 6.04574,6.125 7.16433,6.125 H 8 V 6.75 H 3 z" />
  <path
     style="fill:#ffff00"
     inkscape:connector-curvature="0"
     id="path50"
     d="m 7.6272063,4.21623 c 0,0.3971437 -0.286178,0.7190937 -0.639195,0.7190937 -0.3530169,0 -0.6391949,-0.32195 -0.6391949,-0.7190937 0,-0.3971438 0.286178,-0.7190938 0.6391949,-0.7190938 0.353017,0 0.639195,0.32195 0.639195,0.7190938 z" />
  <path
     style="fill:#999999"
     inkscape:connector-curvature="0"
     id="path52"
     d="m 9,5 h 4 V 6 H 9 z" />
  <path
     style="fill:#999999"
     inkscape:connector-curvature="0"
     id="path54"
     d="m 9,7 h 4 V 8 H 9 z" />
  <path
     style="fill:#999999"
     inkscape:connector-curvature="0"
     id="path56"
     d="m 3,9 h 10.09315 v 1 H 3 z" />
  <path
     style="fill:#999999"
     inkscape:connector-curvature="0"
     id="path58"
     d="m 3,11 h 10.09315 v 1 H 3 z" />
  <path
     style="fill:#999999"
     inkscape:connector-curvature="0"
     id="path60"
     d="m 3,13 h 6 v 1 H 3 z" />
</svg>
