<?xml version="1.0" encoding="UTF-8" standalone="no"?>
<svg
   xmlns:dc="http://purl.org/dc/elements/1.1/"
   xmlns:cc="http://creativecommons.org/ns#"
   xmlns:rdf="http://www.w3.org/1999/02/22-rdf-syntax-ns#"
   xmlns:svg="http://www.w3.org/2000/svg"
   xmlns="http://www.w3.org/2000/svg"
   xmlns:sodipodi="http://sodipodi.sourceforge.net/DTD/sodipodi-0.dtd"
   xmlns:inkscape="http://www.inkscape.org/namespaces/inkscape"
   viewBox="0 0 16 16"
   id="svg2"
   version="1.1"
   inkscape:version="0.48.4 r9939"
   width="100%"
   height="100%"
   sodipodi:docname="camera-web.svg">
  <metadata
     id="metadata116">
    <rdf:RDF>
      <cc:Work
         rdf:about="">
        <dc:format>image/svg+xml</dc:format>
        <dc:type
           rdf:resource="http://purl.org/dc/dcmitype/StillImage" />
      </cc:Work>
    </rdf:RDF>
  </metadata>
  <sodipodi:namedview
     pagecolor="#ffffff"
     bordercolor="#666666"
     borderopacity="1"
     objecttolerance="10"
     gridtolerance="10"
     guidetolerance="10"
     inkscape:pageopacity="0"
     inkscape:pageshadow="2"
     inkscape:window-width="1280"
     inkscape:window-height="975"
     id="namedview114"
     showgrid="true"
     inkscape:zoom="11.313709"
     inkscape:cx="12.704455"
     inkscape:cy="7.5044576"
     inkscape:window-x="0"
     inkscape:window-y="24"
     inkscape:window-maximized="1"
     inkscape:current-layer="svg2"
     inkscape:snap-center="true"
     inkscape:snap-object-midpoints="true">
    <inkscape:grid
       type="xygrid"
       id="grid3038"
       empspacing="5"
       visible="true"
       enabled="true"
       snapvisiblegridlinesonly="true" />
  </sodipodi:namedview>
  <defs
     id="defs4" />
  <path
     style="opacity:0.69999999999999996;color:#000000;fill:#363636;fill-opacity:1;fill-rule:nonzero;stroke:none;stroke-width:1;marker:none;visibility:visible;display:inline;overflow:visible;enable-background:accumulate"
     d="M 2 0 L 0 2 L 0 14 L 2 16 L 14 16 L 16 14 L 16 2 L 14 0 L 2 0 z M 8 3 C 10.761427 3 13 5.2382502 13 8 C 13 10.76175 10.761427 13 8 13 C 5.23857 13 3 10.76175 3 8 C 3 5.2382502 5.23857 3 8 3 z M 8 4 C 7.7238573 4 7.4478906 4.040473 7.1875 4.09375 C 8.2318454 4.3936956 9 5.3590591 9 6.5 C 9 7.8808751 7.8807152 9 6.5 9 C 5.3591924 9 4.3937298 8.2318977 4.09375 7.1875 C 4.0404665 7.4479082 4 7.723825 4 8 C 4 10.2094 5.7908581 12 8 12 C 10.209144 12 12 10.2094 12 8 C 12 5.7906001 10.209144 4 8 4 z "
     id="path3089" />
</svg>
