<?xml version="1.0" encoding="UTF-8" standalone="no"?>
<svg
   xmlns:dc="http://purl.org/dc/elements/1.1/"
   xmlns:cc="http://creativecommons.org/ns#"
   xmlns:rdf="http://www.w3.org/1999/02/22-rdf-syntax-ns#"
   xmlns:svg="http://www.w3.org/2000/svg"
   xmlns="http://www.w3.org/2000/svg"
   xmlns:sodipodi="http://sodipodi.sourceforge.net/DTD/sodipodi-0.dtd"
   xmlns:inkscape="http://www.inkscape.org/namespaces/inkscape"
   viewBox="0 0 16 16"
   id="svg3076"
   version="1.1"
   inkscape:version="0.48.4 r9939"
   width="100%"
   height="100%"
   sodipodi:docname="drive-removable-media.svg">
  <metadata
     id="metadata3117">
    <rdf:RDF>
      <cc:Work
         rdf:about="">
        <dc:format>image/svg+xml</dc:format>
        <dc:type
           rdf:resource="http://purl.org/dc/dcmitype/StillImage" />
      </cc:Work>
    </rdf:RDF>
  </metadata>
  <sodipodi:namedview
     pagecolor="#ffffff"
     bordercolor="#666666"
     borderopacity="1"
     objecttolerance="10"
     gridtolerance="10"
     guidetolerance="10"
     inkscape:pageopacity="0"
     inkscape:pageshadow="2"
     inkscape:window-width="1280"
     inkscape:window-height="975"
     id="namedview3115"
     showgrid="true"
     inkscape:zoom="14.75"
     inkscape:cx="8"
     inkscape:cy="8.2033898"
     inkscape:window-x="0"
     inkscape:window-y="24"
     inkscape:window-maximized="1"
     inkscape:current-layer="svg3076">
    <inkscape:grid
       type="xygrid"
       id="grid3066" />
  </sodipodi:namedview>
  <defs
     id="defs3078" />
  <path
     id="path3002"
     style="opacity:0.69999999999999996;color:#000000;fill:#363636;fill-opacity:1;fill-rule:nonzero;stroke:none;stroke-width:1;marker:none;visibility:visible;display:inline;overflow:visible;enable-background:accumulate"
     d="m 11,14.1875 2,0 0,0.8125 -2,0 0,-0.8125 z M 12,11 l 0,1 1,0 0,-1 -1,0 z m -8.9999995,0 0,1 1,0 0,-1 -1,0 z M 12,2.9999986 l 0,1 1,0 0,-1 -1,0 z m -8.9999995,0 0,1 1,0 0,-1 -1,0 z m 0,-1 9.9999995,0 1,1 L 14,12 l -1,1 -9.9999995,0 -1,-1 0,-9.0000014 1,-1 z m -1,-2.00000004 L 5.8e-7,1.9999986 5.8e-7,14 2.0000005,16 14,16 16,14 16,1.9999986 14,-1.44e-6 l -11.9999995,0 z"
     inkscape:connector-curvature="0" />
</svg>
