<?xml version="1.0" encoding="UTF-8" standalone="no"?>
<svg xmlns:dc="http://purl.org/dc/elements/1.1/" xmlns:cc="http://creativecommons.org/ns#" xmlns:rdf="http://www.w3.org/1999/02/22-rdf-syntax-ns#" xmlns:svg="http://www.w3.org/2000/svg" xmlns="http://www.w3.org/2000/svg" xmlns:xlink="http://www.w3.org/1999/xlink" xmlns:sodipodi="http://sodipodi.sourceforge.net/DTD/sodipodi-0.dtd" xmlns:inkscape="http://www.inkscape.org/namespaces/inkscape" viewBox="0 0 22 22" id="svg2" version="1.1" inkscape:version="0.48.3.1 r9886" width="100%" height="100%" sodipodi:docname="camera.svg">
  <metadata id="metadata116">
    <rdf:RDF>
      <cc:Work rdf:about="">
        <dc:format>image/svg+xml</dc:format>
        <dc:type rdf:resource="http://purl.org/dc/dcmitype/StillImage" />
      </cc:Work>
    </rdf:RDF>
  </metadata>
  <sodipodi:namedview pagecolor="#ffffff" bordercolor="#666666" borderopacity="1" objecttolerance="10" gridtolerance="10" guidetolerance="10" inkscape:pageopacity="0" inkscape:pageshadow="2" inkscape:window-width="1280" inkscape:window-height="976" id="namedview114" showgrid="true" inkscape:zoom="8" inkscape:cx="37.660316" inkscape:cy="19.381967" inkscape:window-x="0" inkscape:window-y="24" inkscape:window-maximized="1" inkscape:current-layer="svg2">
    <inkscape:grid type="xygrid" id="grid3038" empspacing="5" visible="true" enabled="true" snapvisiblegridlinesonly="true" />
  </sodipodi:namedview>
  <defs id="defs4">
    <linearGradient gradientUnits="userSpaceOnUse" id="linearGradient3649" spreadMethod="reflect" x1="41.789299" x2="63.373402">
      <stop offset="0" stop-color="#eef2f3" id="stop27" />
      <stop offset="1" stop-color="#a2a8a8" id="stop29" />
    </linearGradient>
    <linearGradient gradientUnits="userSpaceOnUse" id="linearGradient3651" x2="0" y1="30.5275" y2="40.9212">
      <stop offset="0" stop-color="#fff" id="stop32" />
      <stop offset="1" stop-color="#959698" id="stop34" />
    </linearGradient>
    <linearGradient gradientUnits="userSpaceOnUse" id="linearGradient3655" x2="0" y1="30.5275" y2="40.9212">
      <stop offset="0" stop-color="#8aaec7" id="stop37" />
      <stop offset="1" stop-color="#124275" id="stop39" />
    </linearGradient>
    <linearGradient gradientUnits="userSpaceOnUse" id="linearGradient3657" x2="0" y1="30.215" y2="40.005699">
      <stop offset="0" stop-color="#0f0" id="stop42" />
      <stop offset="1" stop-color="#0f0" stop-opacity="0" id="stop44" />
    </linearGradient>
    <linearGradient gradientUnits="userSpaceOnUse" id="linearGradient3659" x2="0" y1="30.4946" y2="40.888199">
      <stop offset="0" stop-color="#fff" id="stop47" />
      <stop offset="1" stop-color="#545454" id="stop49" />
    </linearGradient>
    <linearGradient gradientUnits="userSpaceOnUse" id="linearGradient3661" x2="0" y1="-41.968899" y2="-69.329102">
      <stop offset="0" stop-color="#dedede" id="stop52" />
      <stop offset="1" stop-color="#dedede" stop-opacity="0" id="stop54" />
    </linearGradient>
    <linearGradient gradientUnits="userSpaceOnUse" id="linearGradient3663" x2="0" y1="29.4592" y2="22.5408">
      <stop offset="0" stop-color="#fff" id="stop57" />
      <stop offset="1" stop-color="#dedede" stop-opacity="0" id="stop59" />
    </linearGradient>
    <linearGradient gradientUnits="userSpaceOnUse" id="linearGradient3665" x2="0" y1="30.215" y2="40.005699">
      <stop offset="0" stop-color="#f0f" id="stop62" />
      <stop offset="1" stop-color="#f0f" stop-opacity="0" id="stop64" />
    </linearGradient>
    <linearGradient gradientUnits="userSpaceOnUse" id="linearGradient3667" x1="26.6113" x2="33.479401">
      <stop offset="0" stop-color="#fff" id="stop67" />
      <stop offset="1" stop-color="#929292" id="stop69" />
    </linearGradient>
    <radialGradient cx="43.133499" cy="28.7313" gradientUnits="userSpaceOnUse" id="radialGradient3669" r="5.9219999">
      <stop offset="0" stop-color="#fff" id="stop72" />
      <stop offset="1" stop-color="#fff" stop-opacity="0" id="stop74" />
    </radialGradient>
    <radialGradient inkscape:collect="always" xlink:href="#radialGradient3669" id="radialGradient3046" gradientUnits="userSpaceOnUse" cx="43.133499" cy="28.7313" r="5.9219999" gradientTransform="matrix(0.7598784,0,0,0.75987846,-27.276216,-12.332295)" />
    <linearGradient inkscape:collect="always" xlink:href="#linearGradient3667" id="linearGradient3049" gradientUnits="userSpaceOnUse" x1="26.6113" x2="33.479401" gradientTransform="matrix(0.57142868,0,0,0.50000001,-11.642861,-8.7500004)" />
    <linearGradient inkscape:collect="always" xlink:href="#linearGradient3663" id="linearGradient3056" gradientUnits="userSpaceOnUse" y1="29.4592" x2="0" y2="22.5408" gradientTransform="matrix(0.4634135,0,0,0.57142859,-8.4633907,-10.357143)" />
    <linearGradient inkscape:collect="always" xlink:href="#linearGradient3661" id="linearGradient3059" gradientUnits="userSpaceOnUse" y1="-41.968899" x2="0" y2="-69.329102" gradientTransform="matrix(0.4634135,0,0,-0.43333476,-8.4633907,-6.2834187)" />
    <linearGradient inkscape:collect="always" xlink:href="#linearGradient3659" id="linearGradient3062" gradientUnits="userSpaceOnUse" y1="30.4946" x2="0" y2="40.888199" gradientTransform="matrix(0.5752728,0,0,-0.57527289,-3.7033559,34.994441)" />
    <linearGradient inkscape:collect="always" xlink:href="#linearGradient3651" id="linearGradient3074" gradientUnits="userSpaceOnUse" y1="30.5275" x2="0" y2="40.9212" gradientTransform="matrix(0.95879247,0,0,0.95879255,-15.83907,-20.65756)" />
    <linearGradient inkscape:collect="always" xlink:href="#linearGradient3649" id="linearGradient3077" gradientUnits="userSpaceOnUse" spreadMethod="reflect" x1="41.789299" x2="63.373402" gradientTransform="matrix(0.48837209,0,0,0.4871795,-9.5116284,-8.9743592)" />
    <linearGradient inkscape:collect="always" xlink:href="#linearGradient3655" id="linearGradient3094" gradientUnits="userSpaceOnUse" gradientTransform="matrix(0.4488938,0,0,0.44757003,1.37046,-0.34316853)" y1="30.5275" x2="0" y2="40.9212" />
    <linearGradient inkscape:collect="always" xlink:href="#linearGradient3657" id="linearGradient3096" gradientUnits="userSpaceOnUse" gradientTransform="matrix(0.1918139,-0.19143385,0.11326325,0.11303692,4.648748,16.813263)" y1="30.215" x2="0" y2="40.005699" />
    <linearGradient inkscape:collect="always" xlink:href="#linearGradient3665" id="linearGradient3098" gradientUnits="userSpaceOnUse" gradientTransform="matrix(-0.1918139,0.19143385,-0.11326325,-0.11303692,26.513982,14.37999)" y1="30.215" x2="0" y2="40.005699" />
  </defs>
  <path inkscape:connector-curvature="0" style="fill:url(#linearGradient3077);stroke:#424242;stroke-width:1" id="path88" d="M 1.8124995,1.5 H 20.187501 A 1.3125,1.3166513 0 0 1 21.5,2.8166513 V 19.183349 A 1.3125,1.3166513 0 0 1 20.187501,20.5 H 1.8124995 A 1.3125,1.3166513 0 0 1 0.5,19.183349 V 2.8166513 A 1.3125,1.3166513 0 0 1 1.8124995,1.5" />
  <path inkscape:connector-curvature="0" style="fill:none;stroke:url(#linearGradient3059);stroke-width:1" id="path100" d="M 2.1333474,19.5 H 19.866652 A 0.63334721,0.59089529 0 0 0 20.5,18.909105 V 7.0908952 A 0.63334721,0.59089529 0 0 0 19.866652,6.5 H 2.1333474 A 0.63334721,0.59089529 0 0 0 1.5,7.0908952 V 18.909105 A 0.63334721,0.59089529 0 0 0 2.1333474,19.5" />
  <path inkscape:connector-curvature="0" style="fill:none;stroke:url(#linearGradient3056);stroke-width:0.99999994" id="path102" d="M 2.1333474,2.5000002 H 19.866653 A 0.63334722,0.80000003 0 0 1 20.5,3.3000004 V 5.7000002 A 0.63334722,0.80000003 0 0 1 19.866653,6.5000004 H 2.1333474 A 0.63334722,0.80000003 0 0 1 1.5,5.7000002 V 3.3000004 A 0.63334722,0.80000003 0 0 1 2.1333474,2.5000002" />
  <path style="fill:white;stroke:#777;stroke-width:1" inkscape:connector-curvature="0" id="path104" d="M 3.8349358,8.5 H 7.165064 A 0.33493617,0.50241259 0 0 1 7.5000002,9.002413 V 9.997587 A 0.33493617,0.50241259 0 0 1 7.165064,10.5 H 3.8349358 A 0.33493617,0.50241259 0 0 1 3.5000001,9.997587 V 9.002413 A 0.33493617,0.50241259 0 0 1 3.8349358,8.5" />
  <path inkscape:connector-curvature="0" style="fill:url(#linearGradient3049);stroke:#424242;stroke-width:1" id="path108" d="M 4.0714288,3.5 H 6.9285714 A 0.57142868,0.50000001 0 0 1 7.4999999,4 V 4.4999999 A 0.57142868,0.50000001 0 0 1 6.9285714,5 H 4.0714288 A 0.57142868,0.50000001 0 0 1 3.5,4.4999999 V 4 A 0.57142868,0.50000001 0 0 1 4.0714288,3.5" />
  <path inkscape:connector-curvature="0" style="fill:url(#linearGradient3074);stroke:#424242;stroke-width:0.99998534" id="path90" d="m 19.500008,13.5 c 0,2.761417 -2.23859,5.000007 -5.000009,5.000007 -2.761416,0 -5.000006,-2.23859 -5.000006,-5.000007 0,-2.76142 2.23859,-5.000008 5.000006,-5.000008 2.761419,0 5.000009,2.238588 5.000009,5.000008 z" />
  <path inkscape:connector-curvature="0" style="fill:none;stroke:url(#linearGradient3062);stroke-width:1.00001848" id="path98" d="m 17.49999,14.5 c 0,-1.656844 -1.343147,-2.999991 -2.999992,-2.999991 -1.656842,0 -2.999989,1.343147 -2.999989,2.999991 0,1.656844 1.343147,2.999991 2.999989,2.999991 1.656845,0 2.999992,-1.343147 2.999992,-2.999991 z" />
  <g id="g3088" transform="matrix(1.0679484,0,0,1.0711072,-2.1330886,-2.211181)">
    <g id="g3083">
      <path inkscape:connector-curvature="0" style="fill:url(#linearGradient3094)" id="path94" d="m 17.915742,15.601783 c 0,1.289046 -1.048078,2.334033 -2.340937,2.334033 -1.292858,0 -2.340937,-1.044987 -2.340937,-2.334033 0,-1.289047 1.048079,-2.334034 2.340937,-2.334034 1.292859,0 2.340937,1.044987 2.340937,2.334034 z" />
      <path inkscape:connector-curvature="0" style="fill:url(#linearGradient3096)" id="path96" d="m 15.753676,13.784421 c 0.32621,0.325557 0.14281,1.036436 -0.409634,1.587786 -0.552443,0.551348 -1.264737,0.734389 -1.590946,0.408831 -0.326209,-0.325557 -0.14281,-1.036436 0.409633,-1.587785 0.552443,-0.551347 1.264737,-0.734389 1.590947,-0.408832 z" />
      <path inkscape:connector-curvature="0" style="fill:url(#linearGradient3098)" id="path106" d="m 15.409053,17.408832 c -0.326209,-0.325557 -0.14281,-1.036436 0.409634,-1.587785 0.552444,-0.551349 1.264737,-0.73439 1.590947,-0.408833 C 17.735844,15.737773 17.552443,16.448651 17,17 c -0.552443,0.551348 -1.264737,0.734389 -1.590947,0.408832 z" />
    </g>
  </g>
  <path inkscape:connector-curvature="0" style="fill:url(#radialGradient3046)" id="path110" d="M 10,9.5 C 10,11.985259 7.9852581,14 5.4999998,14 3.0147415,14 1,11.985259 1,9.5 1,7.014742 3.0147415,5 5.4999998,5 7.9852581,5 10,7.014742 10,9.5 z" />
  <path style="fill:white;fill-opacity:0.49800002" inkscape:connector-curvature="0" id="path112" d="M 11,15 5.5000003,10.70709 0,15 4.7222007,10.000001 0,5 5.5000003,9.29291 11,5 6.2778002,10.000001 z" />
</svg>
