<?xml version="1.0" encoding="UTF-8" standalone="no"?>
<!-- Created with Inkscape (http://www.inkscape.org/) -->

<svg
   xmlns:dc="http://purl.org/dc/elements/1.1/"
   xmlns:cc="http://creativecommons.org/ns#"
   xmlns:rdf="http://www.w3.org/1999/02/22-rdf-syntax-ns#"
   xmlns:svg="http://www.w3.org/2000/svg"
   xmlns="http://www.w3.org/2000/svg"
   xmlns:xlink="http://www.w3.org/1999/xlink"
   xmlns:sodipodi="http://sodipodi.sourceforge.net/DTD/sodipodi-0.dtd"
   xmlns:inkscape="http://www.inkscape.org/namespaces/inkscape"
   version="1.0"
   width="22"
   height="22"
   id="svg4431"
   inkscape:version="0.48.4 r9939"
   sodipodi:docname="audio-volume-muted.svg">
  <metadata
     id="metadata13">
    <rdf:RDF>
      <cc:Work
         rdf:about="">
        <dc:format>image/svg+xml</dc:format>
        <dc:type
           rdf:resource="http://purl.org/dc/dcmitype/StillImage" />
      </cc:Work>
    </rdf:RDF>
  </metadata>
  <sodipodi:namedview
     pagecolor="#ffffff"
     bordercolor="#666666"
     borderopacity="1"
     objecttolerance="10"
     gridtolerance="10"
     guidetolerance="10"
     inkscape:pageopacity="0"
     inkscape:pageshadow="2"
     inkscape:window-width="1280"
     inkscape:window-height="975"
     id="namedview11"
     showgrid="true"
     inkscape:zoom="25.90909"
     inkscape:cx="17.329825"
     inkscape:cy="10.864912"
     inkscape:window-x="0"
     inkscape:window-y="24"
     inkscape:window-maximized="1"
     inkscape:current-layer="svg4431">
    <inkscape:grid
       type="xygrid"
       id="grid2989"
       empspacing="5"
       visible="true"
       enabled="true"
       snapvisiblegridlinesonly="true" />
  </sodipodi:namedview>
  <defs
     id="defs4433">
    <linearGradient
       inkscape:collect="always"
       xlink:href="#linearGradient3587-6-5-6-4"
       id="linearGradient3859-9"
       gradientUnits="userSpaceOnUse"
       gradientTransform="matrix(0,0.86726932,-0.81520396,0,74.411979,-53.321815)"
       x1="50.925655"
       y1="11.648451"
       x2="73.986542"
       y2="11.648451" />
    <linearGradient
       id="linearGradient3587-6-5-6-4">
      <stop
         id="stop3589-9-2-4-2"
         style="stop-color:#c8c8c8;stop-opacity:1;"
         offset="0" />
      <stop
         id="stop3591-7-4-8-2"
         style="stop-color:#ffffff;stop-opacity:1;"
         offset="1" />
    </linearGradient>
    <linearGradient
       inkscape:collect="always"
       xlink:href="#linearGradient3587-6-5-6-5"
       id="linearGradient3862-8"
       gradientUnits="userSpaceOnUse"
       gradientTransform="matrix(1.1111111,0,0,1.1111111,40.846784,-12.488889)"
       x1="9"
       y1="3"
       x2="9"
       y2="21" />
    <linearGradient
       id="linearGradient3587-6-5-6-5">
      <stop
         id="stop3589-9-2-4-22"
         style="stop-color:#c8c8c8;stop-opacity:1;"
         offset="0" />
      <stop
         id="stop3591-7-4-8-1"
         style="stop-color:#ffffff;stop-opacity:1;"
         offset="1" />
    </linearGradient>
    <linearGradient
       inkscape:collect="always"
       xlink:href="#linearGradient3587-6-5-6-5-8"
       id="linearGradient3862-8-4"
       gradientUnits="userSpaceOnUse"
       gradientTransform="matrix(1.1111111,0,0,1.1111111,40.846784,-12.488889)"
       x1="9"
       y1="3"
       x2="9"
       y2="21" />
    <linearGradient
       id="linearGradient3587-6-5-6-5-8">
      <stop
         id="stop3589-9-2-4-22-3"
         style="stop-color:#c8c8c8;stop-opacity:1;"
         offset="0" />
      <stop
         id="stop3591-7-4-8-1-1"
         style="stop-color:#ffffff;stop-opacity:1;"
         offset="1" />
    </linearGradient>
  </defs>
  <path
     d="m 1.0000001,9.222 0,5.555556 2.2222222,0 4.4444445,4.444444 0,-14.4444441 L 3.2222223,9.222 l -2.2222222,0 z m 8.888889,2.222222 c 0.7407409,0 1.4814809,0 2.2222219,0 0,0.37037 0,0.740741 0,1.111111 -0.740741,0 -1.481481,0 -2.2222219,0 0,-0.37037 0,-0.740741 0,-1.111111 z m 8.8888889,0 c 0.740741,0 1.481481,0 2.222222,0 0,0.37037 0,0.740741 0,1.111111 -0.740741,0 -1.481481,0 -2.222222,0 0,-0.37037 0,-0.740741 0,-1.111111 z m -4.444445,0 c 0.740741,0 1.481481,0 2.222223,0 0,0.37037 0,0.740741 0,1.111111 -0.740742,0 -1.481482,0 -2.222223,0 0,-0.37037 0,-0.740741 0,-1.111111 z"
     id="path2387-4"
     style="opacity:1;fill:#000000;fill-opacity:1;fill-rule:evenodd;stroke:none;color:#000000;stroke-width:1;marker:none;visibility:visible;display:inline;overflow:visible;enable-background:accumulate"
     inkscape:connector-curvature="0" />
  <path
     d="m 1.0000001,8.222222 0,5.555556 2.222222,0 4.444445,4.444444 0,-14.444444 L 3.222222,8.222222 1,8.222222 z m 8.888889,2.222222 c 0.7407409,0 1.4814809,0 2.2222219,0 0,0.37037 0,0.740741 0,1.111111 -0.740741,0 -1.481481,0 -2.2222219,0 0,-0.37037 0,-0.740741 0,-1.111111 z m 8.8888889,0 c 0.740741,0 1.481481,0 2.222222,0 0,0.37037 0,0.740741 0,1.111111 -0.740741,0 -1.481481,0 -2.222222,0 0,-0.37037 0,-0.740741 0,-1.111111 z m -4.444444,0 c 0.740741,0 1.481481,0 2.222222,0 0,0.37037 0,0.740741 0,1.111111 -0.740741,0 -1.481481,0 -2.222222,0 0,-0.37037 0,-0.740741 0,-1.111111 z"
     id="path2387"
     style="opacity:1;fill:url(#linearGradient3862-8-4);fill-opacity:1;fill-rule:evenodd;stroke:none;color:#000000;stroke-width:1;marker:none;visibility:visible;display:inline;overflow:visible;enable-background:accumulate"
     inkscape:connector-curvature="0" />
</svg>
