<?xml version="1.0" encoding="UTF-8" standalone="no"?>
<!-- Created with Inkscape (http://www.inkscape.org/) -->

<svg xmlns:dc="http://purl.org/dc/elements/1.1/" xmlns:cc="http://creativecommons.org/ns#" xmlns:rdf="http://www.w3.org/1999/02/22-rdf-syntax-ns#" xmlns:svg="http://www.w3.org/2000/svg" xmlns="http://www.w3.org/2000/svg" xmlns:xlink="http://www.w3.org/1999/xlink" xmlns:sodipodi="http://sodipodi.sourceforge.net/DTD/sodipodi-0.dtd" xmlns:inkscape="http://www.inkscape.org/namespaces/inkscape" width="24" height="24" id="svg3437" version="1.1" inkscape:version="0.48.4 r9939" sodipodi:docname="audio-card24.svg">
  <defs id="defs3439">
    <linearGradient id="linearGradient4695">
      <stop style="stop-color:white;stop-opacity:0.5;" offset="0" id="stop4697" />
      <stop style="stop-color:white;stop-opacity:0;" offset="1" id="stop4699" />
    </linearGradient>
    <linearGradient inkscape:collect="always" xlink:href="#linearGradient4594-3" id="linearGradient5698" gradientUnits="userSpaceOnUse" gradientTransform="matrix(0.5155929,0,0,0.4931506,0.860694,1027.4033)" x1="8.2114201" y1="-5.7136502" x2="31.74275" y2="25.48744" />
    <linearGradient gradientUnits="userSpaceOnUse" id="linearGradient4594-3" x1="8.2114201" x2="31.74275" y1="-5.7136502" y2="25.48744">
      <stop offset="0" stop-color="#fff" id="stop37-5-1-3" />
      <stop offset="1" stop-color="#fff" stop-opacity="0" id="stop39-0" />
    </linearGradient>
    <linearGradient inkscape:collect="always" xlink:href="#linearGradient4695" id="linearGradient4701" x1="12" y1="1030.3622" x2="12" y2="1046.3622" gradientUnits="userSpaceOnUse" />
    <radialGradient gradientUnits="userSpaceOnUse" gradientTransform="matrix(1,0,0,1.4999914,-4.9999771,-12.749748)" r="1.0000057" fy="29.5" fx="25.999971" cy="29.5" cx="25.999971" id="radialGradient4328" xlink:href="#linearGradient4322" inkscape:collect="always" />
    <linearGradient y2="44" x2="20" y1="36" x1="20" gradientTransform="matrix(0.66666667,0,0,1,1.3333333,0)" gradientUnits="userSpaceOnUse" id="linearGradient4134" xlink:href="#linearGradient3923" inkscape:collect="always" />
    <linearGradient y2="44" x2="20" y1="36" x1="20" gradientTransform="matrix(0.66666667,0,0,1,3.3333333,0)" gradientUnits="userSpaceOnUse" id="linearGradient4026" xlink:href="#linearGradient3923" inkscape:collect="always" />
    <linearGradient y2="36" x2="10" y1="43" x1="10" gradientTransform="matrix(-1,0,0,1,47.999997,0)" gradientUnits="userSpaceOnUse" id="linearGradient3872" xlink:href="#linearGradient3892" inkscape:collect="always" />
    <linearGradient y2="44" x2="-9" y1="36" x1="-9" gradientTransform="scale(-1,1)" gradientUnits="userSpaceOnUse" id="linearGradient3870" xlink:href="#linearGradient3886" inkscape:collect="always" />
    <linearGradient y2="3" x2="10" y1="43" x1="10" gradientTransform="matrix(-1,0,0,1,47.999997,0)" gradientUnits="userSpaceOnUse" id="linearGradient3865" xlink:href="#linearGradient3791" inkscape:collect="always" />
    <linearGradient gradientTransform="scale(-1,1)" y2="44" x2="-9" y1="4" x1="-9" gradientUnits="userSpaceOnUse" id="linearGradient3863" xlink:href="#linearGradient3783" inkscape:collect="always" />
    <linearGradient y2="25.48744" x2="31.74275" y1="-5.7136502" x1="8.2114201" gradientTransform="matrix(0.9882196,0,0,0.9863014,3.482997,-1.917809)" gradientUnits="userSpaceOnUse" id="linearGradient3952" xlink:href="#linearGradient4594-3-2" inkscape:collect="always" />
    <radialGradient r="117.14286" fy="486.64789" fx="605.71429" cy="486.64789" cx="605.71429" gradientTransform="matrix(-0.06214224,0,0,0.02900085,46.53201,28.953157)" gradientUnits="userSpaceOnUse" id="radialGradient3583" xlink:href="#linearGradient5060-29" inkscape:collect="always" />
    <linearGradient y2="609.50507" x2="302.85715" y1="366.64789" x1="302.85715" gradientTransform="matrix(0.06214224,0,0,0.02900085,1.6242719,28.953157)" gradientUnits="userSpaceOnUse" id="linearGradient3581" xlink:href="#linearGradient5048-8" inkscape:collect="always" />
    <radialGradient r="117.14286" fy="486.64789" fx="605.71429" cy="486.64789" cx="605.71429" gradientTransform="matrix(0.06214224,0,0,0.02900085,1.6365015,28.953157)" gradientUnits="userSpaceOnUse" id="radialGradient3579" xlink:href="#linearGradient5060-29" inkscape:collect="always" />
    <linearGradient y2="23.579182" x2="13.839919" y1="3.2931969" x1="13.839919" gradientTransform="matrix(0.99919706,0,0,1.0351975,-0.82880645,0.59089074)" gradientUnits="userSpaceOnUse" id="linearGradient3425" xlink:href="#linearGradient4050-7" inkscape:collect="always" />
    <linearGradient gradientUnits="userSpaceOnUse" id="linearGradient4594-3-2" x1="8.2114201" x2="31.74275" y1="-5.7136502" y2="25.48744">
      <stop offset="0" stop-color="#fff" id="stop37-5-1-3-9" />
      <stop offset="1" stop-color="#fff" stop-opacity="0" id="stop39-0-8" />
    </linearGradient>
    <linearGradient id="linearGradient4050-7">
      <stop style="stop-color:white;stop-opacity:0.50196081;" offset="0" id="stop4052-6" />
      <stop style="stop-color:#ffffff;stop-opacity:0;" offset="1" id="stop4054-0" />
    </linearGradient>
    <linearGradient id="linearGradient5060-29">
      <stop id="stop5062-9" style="stop-color:#000000;stop-opacity:1" offset="0" />
      <stop id="stop5064-08" style="stop-color:#000000;stop-opacity:0" offset="1" />
    </linearGradient>
    <linearGradient id="linearGradient5048-8">
      <stop id="stop5050-4" style="stop-color:#000000;stop-opacity:0" offset="0" />
      <stop id="stop5056-7" style="stop-color:#000000;stop-opacity:1" offset="0.5" />
      <stop id="stop5052-0-1" style="stop-color:#000000;stop-opacity:0" offset="1" />
    </linearGradient>
    <linearGradient id="linearGradient3783">
      <stop style="stop-color:#50891f;stop-opacity:1;" offset="0" id="stop3858" />
      <stop id="stop3787" offset="1" style="stop-color:#a4cc55;stop-opacity:1;" />
    </linearGradient>
    <linearGradient id="linearGradient3791">
      <stop id="stop3793" offset="0" style="stop-color:#1f5200;stop-opacity:1" />
      <stop id="stop3795" offset="1" style="stop-color:#1f5200;stop-opacity:1" />
    </linearGradient>
    <linearGradient id="linearGradient3886">
      <stop id="stop3888" offset="0" style="stop-color:#999c31;stop-opacity:1;" />
      <stop style="stop-color:#c3c66a;stop-opacity:1;" offset="1" id="stop3890" />
    </linearGradient>
    <linearGradient id="linearGradient3892">
      <stop style="stop-color:#3e4508;stop-opacity:0.86239105" offset="0" id="stop3894" />
      <stop style="stop-color:#3a4100;stop-opacity:1" offset="1" id="stop3896" />
    </linearGradient>
    <linearGradient id="linearGradient3923">
      <stop id="stop3925" offset="0" style="stop-color:#edf112;stop-opacity:1;" />
      <stop id="stop3927" offset="1" style="stop-color:#ecef26;stop-opacity:0;" />
    </linearGradient>
    <linearGradient id="linearGradient4322">
      <stop id="stop4324" offset="0" style="stop-color:gray;stop-opacity:1;" />
      <stop id="stop4326" offset="1" style="stop-color:white;stop-opacity:1;" />
    </linearGradient>
    <linearGradient inkscape:collect="always" xlink:href="#linearGradient3886" id="linearGradient3303" gradientUnits="userSpaceOnUse" gradientTransform="scale(-1,1)" x1="-9" y1="36" x2="-9" y2="44" />
    <linearGradient inkscape:collect="always" xlink:href="#linearGradient3892" id="linearGradient3305" gradientUnits="userSpaceOnUse" gradientTransform="matrix(-1,0,0,1,47.999997,0)" x1="10" y1="43" x2="10" y2="36" />
    <linearGradient inkscape:collect="always" xlink:href="#linearGradient4594-3-2" id="linearGradient3309" gradientUnits="userSpaceOnUse" gradientTransform="matrix(0.9882196,0,0,0.9863014,33.357997,1024.4444)" x1="8.2114201" y1="-5.7136502" x2="31.74275" y2="25.48744" />
    <linearGradient inkscape:collect="always" xlink:href="#linearGradient4050-7" id="linearGradient3328" gradientUnits="userSpaceOnUse" gradientTransform="matrix(0.99919706,0,0,1.0351975,29.046194,1026.9531)" x1="13.839919" y1="3.2931969" x2="13.839919" y2="23.579182" />
    <radialGradient inkscape:collect="always" xlink:href="#linearGradient4322" id="radialGradient3343" gradientUnits="userSpaceOnUse" gradientTransform="matrix(1,0,0,1.4999914,24.875023,1013.6125)" cx="25.999971" cy="29.5" fx="25.999971" fy="29.5" r="1.0000057" />
    <linearGradient inkscape:collect="always" xlink:href="#linearGradient3783" id="linearGradient3399" gradientUnits="userSpaceOnUse" gradientTransform="matrix(-1,0,0,1,29.875,1026.3622)" x1="-9" y1="4" x2="-9" y2="44" />
    <linearGradient inkscape:collect="always" xlink:href="#linearGradient3791" id="linearGradient3401" gradientUnits="userSpaceOnUse" gradientTransform="matrix(-1,0,0,1,77.874997,1026.3622)" x1="10" y1="43" x2="10" y2="3" />
    <linearGradient inkscape:collect="always" xlink:href="#linearGradient3923" id="linearGradient3404" gradientUnits="userSpaceOnUse" gradientTransform="matrix(0.66666667,0,0,1,33.208333,1026.3622)" x1="20" y1="36" x2="20" y2="44" />
    <linearGradient inkscape:collect="always" xlink:href="#linearGradient3886" id="linearGradient3407" gradientUnits="userSpaceOnUse" gradientTransform="matrix(-1,0,0,1,29.875,1026.3622)" x1="-9" y1="36" x2="-9" y2="44" />
    <linearGradient inkscape:collect="always" xlink:href="#linearGradient3892" id="linearGradient3409" gradientUnits="userSpaceOnUse" gradientTransform="matrix(-1,0,0,1,77.874997,1026.3622)" x1="10" y1="43" x2="10" y2="36" />
    <linearGradient inkscape:collect="always" xlink:href="#linearGradient3923" id="linearGradient3412" gradientUnits="userSpaceOnUse" gradientTransform="matrix(0.66666667,0,0,1,31.208333,1026.3622)" x1="20" y1="36" x2="20" y2="44" />
    <linearGradient inkscape:collect="always" xlink:href="#linearGradient3886" id="linearGradient3415" gradientUnits="userSpaceOnUse" gradientTransform="matrix(-1,0,0,1,29.875,1026.3622)" x1="-9" y1="36" x2="-9" y2="44" />
    <linearGradient inkscape:collect="always" xlink:href="#linearGradient3892" id="linearGradient3417" gradientUnits="userSpaceOnUse" gradientTransform="matrix(-1,0,0,1,77.874997,1026.3622)" x1="10" y1="43" x2="10" y2="36" />
  </defs>
  <sodipodi:namedview id="base" pagecolor="#ffffff" bordercolor="#666666" borderopacity="1.0" inkscape:pageopacity="0.0" inkscape:pageshadow="2" inkscape:zoom="11.313708" inkscape:cx="26.14108" inkscape:cy="10.880968" inkscape:document-units="px" inkscape:current-layer="capa1" showgrid="true" inkscape:window-width="1280" inkscape:window-height="949" inkscape:window-x="0" inkscape:window-y="0" inkscape:window-maximized="1" inkscape:snap-bbox="true">
    <inkscape:grid type="xygrid" id="grid3445" empspacing="5" visible="true" enabled="true" snapvisiblegridlinesonly="true" />
  </sodipodi:namedview>
  <metadata id="metadata3442">
    <rdf:RDF>
      <cc:Work rdf:about="">
        <dc:format>image/svg+xml</dc:format>
        <dc:type rdf:resource="http://purl.org/dc/dcmitype/StillImage" />
        <dc:title />
      </cc:Work>
    </rdf:RDF>
  </metadata>
  <g inkscape:label="Capa 1" inkscape:groupmode="layer" id="capa1" transform="translate(0,-1028.3622)">
    <path style="color:black;fill:#85882b;fill-opacity:1;fill-rule:nonzero;stroke:#3e4508;stroke-width:1;stroke-linecap:round;stroke-linejoin:round;stroke-miterlimit:4;stroke-opacity:1;stroke-dasharray:none;stroke-dashoffset:0;marker:none;visibility:visible;display:inline;overflow:visible;enable-background:accumulate" d="m 13.5,1044.8622 -12,0 0,4.6666 c 0,0.7392 0.6931267,1.3334 1.555555,1.3334 l 8.888889,0 c 0.862428,0 1.555556,-0.5 1.555556,-1.3334 z" id="path3868" inkscape:connector-curvature="0" sodipodi:nodetypes="ccssssc" />
    <path sodipodi:nodetypes="ccssssc" inkscape:connector-curvature="0" id="path4001" d="m 22.5,1044.8622 -6,0 0,4.6666 c 0,0.7392 0.725793,1.3334 1.481818,1.3334 l 3.154545,0 c 0.756026,0 1.363637,-0.5942 1.363637,-1.3334 z" style="color:black;fill:#85882b;fill-opacity:1;fill-rule:nonzero;stroke:#3e4508;stroke-width:1;stroke-linecap:round;stroke-linejoin:round;stroke-miterlimit:4;stroke-opacity:1;stroke-dasharray:none;stroke-dashoffset:0;marker:none;visibility:visible;display:inline;overflow:visible;enable-background:accumulate" />
    <path style="color:black;fill:#dcd900;fill-opacity:1;fill-rule:nonzero;stroke:none;stroke-width:1;marker:none;visibility:visible;display:inline;overflow:visible;enable-background:accumulate" d="m 18,1046.3622 0,4 1,0 0,-4 -1,0 z m 2,0 0,4 1,0 0,-4 -1,0 z" id="path4626" inkscape:connector-curvature="0" />
    <path style="color:black;fill:#dcd900;fill-opacity:1;fill-rule:nonzero;stroke:none;stroke-width:1;marker:none;visibility:visible;display:inline;overflow:visible;enable-background:accumulate" d="m 3,1046.3622 0,4 1,0 0,-4 -1,0 z m 2,0 0,4 1,0 0,-4 -1,0 z m 2,0 0,4 1,0 0,-4 -1,0 z m 2,0 0,4 1,0 0,-4 -1,0 z m 2,0 0,4 1,0 0,-4 -1,0 z" id="path4640" inkscape:connector-curvature="0" />
    <rect ry="2.5" y="1029.8622" x="1.5000001" height="17.000017" width="21" id="rect4644" style="color:black;fill:#50ac00;fill-opacity:1;fill-rule:nonzero;stroke:#1f5200;stroke-width:1;stroke-linecap:round;stroke-linejoin:round;stroke-miterlimit:4;stroke-opacity:1;stroke-dasharray:none;stroke-dashoffset:0;marker:none;visibility:visible;display:inline;overflow:visible;enable-background:accumulate" />
    <rect style="color:black;fill:#282828;fill-opacity:1;fill-rule:nonzero;stroke:none;stroke-width:0.99999981999999998;marker:none;visibility:visible;display:inline;overflow:visible;enable-background:accumulate" id="rect4030" width="9" height="9.0000172" x="12" y="1031.3622" ry="0.99999994" rx="1" />
    <path style="color:black;fill:white;fill-opacity:1;fill-rule:nonzero;stroke:none;stroke-width:1;marker:none;visibility:visible;display:inline;overflow:visible;enable-background:accumulate" d="m 21,1032.3622 0,1 1,0 0,-1 -1,0 z m 0,2 0,1 1,0 0,-1 -1,0 z m 0,2 0,1 1,0 0,-1 -1,0 z m 0,2 0,1 1,0 0,-1 -1,0 z" id="rect4034" inkscape:connector-curvature="0" />
    <g id="g4617">
      <rect style="color:black;fill:black;fill-opacity:1;fill-rule:nonzero;stroke:none;stroke-width:1;marker:none;visibility:visible;display:inline;overflow:visible;enable-background:accumulate" id="rect4660" width="2" height="3.000037" x="13" y="1042.3622" />
      <path inkscape:connector-curvature="0" id="path4452" d="m 12,1042.3622 0,1 1,0 0,-1 -1,0 z" style="color:black;fill:white;fill-opacity:1;fill-rule:nonzero;stroke:none;stroke-width:1;marker:none;visibility:visible;display:inline;overflow:visible;enable-background:accumulate" />
      <path style="color:black;fill:white;fill-opacity:1;fill-rule:nonzero;stroke:none;stroke-width:1;marker:none;visibility:visible;display:inline;overflow:visible;enable-background:accumulate" d="m 12,1044.3622 0,1 1,0 0,-1 -1,0 z" id="path4456" inkscape:connector-curvature="0" />
      <path style="color:black;fill:white;fill-opacity:1;fill-rule:nonzero;stroke:none;stroke-width:1;marker:none;visibility:visible;display:inline;overflow:visible;enable-background:accumulate" d="m 15,1042.3622 0,1 1,0 0,-1 -1,0 z" id="path4458" inkscape:connector-curvature="0" />
      <path inkscape:connector-curvature="0" id="path4460" d="m 15,1044.3622 0,1 1,0 0,-1 -1,0 z" style="color:black;fill:white;fill-opacity:1;fill-rule:nonzero;stroke:none;stroke-width:1;marker:none;visibility:visible;display:inline;overflow:visible;enable-background:accumulate" />
    </g>
    <g transform="translate(6,-1.9572067e-5)" id="g4541">
      <rect y="1042.3622" x="12" height="3.000037" width="2" id="rect4543" style="color:black;fill:black;fill-opacity:1;fill-rule:nonzero;stroke:none;stroke-width:1;marker:none;visibility:visible;display:inline;overflow:visible;enable-background:accumulate" />
      <path style="color:black;fill:white;fill-opacity:1;fill-rule:nonzero;stroke:none;stroke-width:1;marker:none;visibility:visible;display:inline;overflow:visible;enable-background:accumulate" d="m 11,1042.3622 0,1 1,0 0,-1 -1,0 z" id="path4545" inkscape:connector-curvature="0" />
      <path inkscape:connector-curvature="0" id="path4547" d="m 11,1044.3622 0,1 1,0 0,-1 -1,0 z" style="color:black;fill:white;fill-opacity:1;fill-rule:nonzero;stroke:none;stroke-width:1;marker:none;visibility:visible;display:inline;overflow:visible;enable-background:accumulate" />
      <path inkscape:connector-curvature="0" id="path4549" d="m 14,1042.3622 0,1 1,0 0,-1 -1,0 z" style="color:black;fill:white;fill-opacity:1;fill-rule:nonzero;stroke:none;stroke-width:1;marker:none;visibility:visible;display:inline;overflow:visible;enable-background:accumulate" />
      <path style="color:black;fill:white;fill-opacity:1;fill-rule:nonzero;stroke:none;stroke-width:1;marker:none;visibility:visible;display:inline;overflow:visible;enable-background:accumulate" d="m 14,1044.3622 0,1 1,0 0,-1 -1,0 z" id="path4551" inkscape:connector-curvature="0" />
    </g>
    <path style="color:black;fill:white;fill-opacity:1;fill-rule:nonzero;stroke:none;stroke-width:1;marker:none;visibility:visible;display:inline;overflow:visible;enable-background:accumulate" d="M 11 4 L 11 5 L 12 5 L 12 4 L 11 4 z M 11 6 L 11 7 L 12 7 L 12 6 L 11 6 z M 11 8 L 11 9 L 12 9 L 12 8 L 11 8 z M 11 10 L 11 11 L 12 11 L 12 10 L 11 10 z " transform="translate(0,1028.3622)" id="rect4559" />
    <path style="color:black;fill:white;fill-opacity:1;fill-rule:nonzero;stroke:none;stroke-width:1;marker:none;visibility:visible;display:inline;overflow:visible;enable-background:accumulate" d="M 13 12 L 13 13 L 14 13 L 14 12 L 13 12 z M 15 12 L 15 13 L 16 13 L 16 12 L 15 12 z M 17 12 L 17 13 L 18 13 L 18 12 L 17 12 z M 19 12 L 19 13 L 20 13 L 20 12 L 19 12 z " transform="translate(0,1028.3622)" id="rect4567" />
    <path style="color:black;fill:white;fill-opacity:1;fill-rule:nonzero;stroke:none;stroke-width:1;marker:none;visibility:visible;display:inline;overflow:visible;enable-background:accumulate" d="M 13 2 L 13 3 L 14 3 L 14 2 L 13 2 z M 15 2 L 15 3 L 16 3 L 16 2 L 15 2 z M 17 2 L 17 3 L 18 3 L 18 2 L 17 2 z M 19 2 L 19 3 L 20 3 L 20 2 L 19 2 z " id="rect4575" transform="translate(0,1028.3622)" />
    <path inkscape:connector-curvature="0" id="path4615" d="m 9,1042.3622 0,3 2,0 0,-3 -2,0 z" style="color:black;fill:white;fill-opacity:1;fill-rule:nonzero;stroke:none;stroke-width:1;marker:none;visibility:visible;display:inline;overflow:visible;enable-background:accumulate" />
    <rect style="color:black;fill:none;stroke:url(#linearGradient4701);stroke-width:1;stroke-miterlimit:4;stroke-opacity:1;stroke-dasharray:none;marker:none;visibility:visible;display:inline;overflow:visible;enable-background:accumulate" id="rect4642" width="19" height="15.000017" x="2.5" y="1030.8622" ry="1.5" rx="1.5" />
    <path style="opacity:0.98999999;fill:url(#linearGradient5698)" inkscape:connector-curvature="0" d="m 10,1030.3622 10,0 c 1,0 2,1 2,2 l 0,14 -7,0 z" id="path57-5-0" sodipodi:nodetypes="cssccc" />
    <g id="g3423" transform="matrix(0.5347132,0,0,0.54001902,2.1334704,475.06153)">
      <path inkscape:connector-curvature="0" d="m 8.2522221,1029.3721 c -0.794699,-0.1037 -0.904742,0.647 -0.821956,1.2443 -0.0076,5.9439 0.01502,11.8933 -0.01126,17.8337 -0.194092,0.2045 -0.566567,-0.1318 -0.813847,-0.044 -2.69398,-0.1656 -5.63739597,1.804 -5.90671397,4.6463 -0.317412,2.2598 2.05083097,4.1191 4.16271097,3.7676 2.66111,-0.2847 4.74012,-2.9924 4.393183,-5.6654 0.0076,-4.7064 -0.01502,-9.4182 0.01126,-14.1212 0.181386,-0.2095 0.451936,0.2365 0.643014,0.2584 2.1399749,1.2766 4.0329589,3.3818 4.1607419,6.0034 0.140521,2.0486 -0.474708,4.0531 -1.166893,5.9522 2.319387,-2.8785 3.061871,-7.0777 1.450156,-10.4777 -0.824275,-1.9737 -2.683748,-3.19 -3.723967,-5.0232 -0.7681979,-1.225 -1.3528469,-2.5926 -1.5357639,-4.0389 -0.150608,-0.3016 -0.547305,-0.3383 -0.84066,-0.3351 z" id="path4005" style="fill:#1f5200;fill-opacity:1;stroke:#1f5200;stroke-width:5.58285427;stroke-linecap:round;stroke-linejoin:round;stroke-miterlimit:4;stroke-opacity:1;stroke-dasharray:none" />
      <path style="fill:white;fill-opacity:1;stroke:none" id="path61" d="m 8.3218941,1029.93 c -0.76738,-0.1 -0.87364,0.6222 -0.7937,1.1965 -0.0073,5.7152 0.01451,11.4355 -0.01088,17.1474 -0.18742,0.1966 -0.54709,-0.1267 -0.78587,-0.043 -2.601369,-0.1592 -5.443599,1.7345 -5.703659,4.4674 -0.30649997,2.1729 1.98033,3.9606 4.019609,3.6227 2.56963,-0.2738 4.57717,-2.8773 4.24216,-5.4474 0.0073,-4.5253 -0.01451,-9.0558 0.01088,-13.5778 0.17515,-0.2014 0.4364,0.2274 0.62091,0.2485 2.0664089,1.2275 3.8943189,3.2516 4.0177089,5.7724 0.13569,1.9697 -0.45839,3.8971 -1.12678,5.7231 2.23965,-2.7677 2.95661,-6.8054 1.4003,-10.0745 -0.79594,-1.8977 -2.591489,-3.0672 -3.595949,-4.8298 -0.7417899,-1.1779 -1.3063399,-2.4929 -1.4829699,-3.8835 -0.14543,-0.29 -0.52849,-0.3253 -0.81176,-0.3222 z" inkscape:connector-curvature="0" />
    </g>
  </g>
</svg>
