<?xml version="1.0" encoding="UTF-8" standalone="no"?>
<!-- Created with Inkscape (http://www.inkscape.org/) -->

<svg
   xmlns:dc="http://purl.org/dc/elements/1.1/"
   xmlns:cc="http://creativecommons.org/ns#"
   xmlns:rdf="http://www.w3.org/1999/02/22-rdf-syntax-ns#"
   xmlns:svg="http://www.w3.org/2000/svg"
   xmlns="http://www.w3.org/2000/svg"
   xmlns:xlink="http://www.w3.org/1999/xlink"
   xmlns:sodipodi="http://sodipodi.sourceforge.net/DTD/sodipodi-0.dtd"
   xmlns:inkscape="http://www.inkscape.org/namespaces/inkscape"
   version="1.0"
   width="22"
   height="22"
   id="svg4073"
   inkscape:version="0.48.4 r9939"
   sodipodi:docname="nm-device-wired.svg">
  <metadata
     id="metadata18">
    <rdf:RDF>
      <cc:Work
         rdf:about="">
        <dc:format>image/svg+xml</dc:format>
        <dc:type
           rdf:resource="http://purl.org/dc/dcmitype/StillImage" />
        <dc:title />
      </cc:Work>
    </rdf:RDF>
  </metadata>
  <sodipodi:namedview
     pagecolor="#ffffff"
     bordercolor="#666666"
     borderopacity="1"
     objecttolerance="10"
     gridtolerance="10"
     guidetolerance="10"
     inkscape:pageopacity="0"
     inkscape:pageshadow="2"
     inkscape:window-width="1280"
     inkscape:window-height="975"
     id="namedview16"
     showgrid="true"
     inkscape:zoom="14.688536"
     inkscape:cx="21.61058"
     inkscape:cy="11.496706"
     inkscape:window-x="0"
     inkscape:window-y="24"
     inkscape:window-maximized="1"
     inkscape:current-layer="svg4073"
     inkscape:snap-bbox="true"
     inkscape:bbox-nodes="true">
    <inkscape:grid
       type="xygrid"
       id="grid2989" />
  </sodipodi:namedview>
  <defs
     id="defs4075">
    <linearGradient
       y2="21.23077"
       x2="19.000309"
       y1="-2.1538463"
       x1="19.000309"
       gradientTransform="matrix(1,0,0,0.8125,-7.000309,2.75)"
       gradientUnits="userSpaceOnUse"
       id="linearGradient3120-0"
       xlink:href="#linearGradient3004-8-3"
       inkscape:collect="always" />
    <linearGradient
       id="linearGradient3004-8-3">
      <stop
         id="stop3006-3-0"
         offset="0"
         style="stop-color:#dcdcdc;stop-opacity:1;" />
      <stop
         id="stop3008-7-3"
         offset="1"
         style="stop-color:#ffffff;stop-opacity:1;" />
    </linearGradient>
  </defs>
  <path
     id="path3020"
     d="m 12,2 -1,1 0,7 1,1 5,0 0,1 0,2.15625 L 16,15 l -1,0 -1,0 0,-2 -1,-1 -9,0 -1,1 0,7 1,1 9,0 1,-1 0,-3 1,0 2,0 2,-2 0,-3 0,-1 2,0 1,-1 0,-7 -1,-1 z m 1,2 7,0 0,5 -7,0 z m -8,10 7,0 0,5 -7,0 z"
     style="opacity:1;color:#000000;fill:#0c0c0c;fill-opacity:1;fill-rule:nonzero;stroke:none;stroke-width:1;marker:none;visibility:visible;display:inline;overflow:visible;enable-background:accumulate"
     inkscape:connector-curvature="0"
     sodipodi:nodetypes="ccccccccccccccccccccccccccccccccccccccc" />
  <path
     style="opacity:1;color:#000000;fill:url(#linearGradient3120-0);fill-opacity:1;fill-rule:nonzero;stroke:none;stroke-width:1;marker:none;visibility:visible;display:inline;overflow:visible;enable-background:accumulate"
     d="m 12,1 -1,1 0,7 1,1 5,0 0,1 0,2.15625 L 16,14 l -1,0 -1,0 0,-2 -1,-1 -9,0 -1,1 0,7 1,1 9,0 1,-1 0,-3 1,0 2,0 2,-2 0,-3 0,-1 2,0 1,-1 0,-7 -1,-1 z m 1,2 7,0 0,5 -7,0 z m -8,10 7,0 0,5 -7,0 z"
     id="path2996"
     inkscape:connector-curvature="0"
     sodipodi:nodetypes="ccccccccccccccccccccccccccccccccccccccc" />
</svg>
