<?xml version="1.0" encoding="UTF-8" standalone="no"?>
<!-- Created with Inkscape (http://www.inkscape.org/) -->

<svg
   xmlns:dc="http://purl.org/dc/elements/1.1/"
   xmlns:cc="http://creativecommons.org/ns#"
   xmlns:rdf="http://www.w3.org/1999/02/22-rdf-syntax-ns#"
   xmlns:svg="http://www.w3.org/2000/svg"
   xmlns="http://www.w3.org/2000/svg"
   xmlns:xlink="http://www.w3.org/1999/xlink"
   xmlns:sodipodi="http://sodipodi.sourceforge.net/DTD/sodipodi-0.dtd"
   xmlns:inkscape="http://www.inkscape.org/namespaces/inkscape"
   width="22"
   height="22.000008"
   id="svg7862"
   version="1.1"
   inkscape:version="0.48.4 r9939"
   sodipodi:docname="xfpm-ups-060-charging.svg">
  <defs
     id="defs7864">
    <linearGradient
       id="linearGradient3587-6-5-3-0">
      <stop
         offset="0"
         style="stop-color:#bebebe;stop-opacity:1;"
         id="stop3589-9-2-2-4" />
      <stop
         offset="1"
         style="stop-color:#ffffff;stop-opacity:1;"
         id="stop3591-7-4-73-2" />
    </linearGradient>
    <linearGradient
       inkscape:collect="always"
       xlink:href="#linearGradient3587-6-5-3-0"
       id="linearGradient4262"
       gradientUnits="userSpaceOnUse"
       gradientTransform="matrix(0.4101105,0,0,0.4193901,-28.84874,5.95621)"
       x1="87.412384"
       y1="-11.817637"
       x2="87.412384"
       y2="35.870659" />
  </defs>
  <sodipodi:namedview
     id="base"
     pagecolor="#ffffff"
     bordercolor="#666666"
     borderopacity="1.0"
     inkscape:pageopacity="0.0"
     inkscape:pageshadow="2"
     inkscape:zoom="7.9195959"
     inkscape:cx="11"
     inkscape:cy="11.000007"
     inkscape:document-units="px"
     inkscape:current-layer="layer1"
     showgrid="false"
     inkscape:showpageshadow="false"
     fit-margin-top="0"
     fit-margin-left="0"
     fit-margin-right="0"
     fit-margin-bottom="0"
     inkscape:window-width="1280"
     inkscape:window-height="975"
     inkscape:window-x="0"
     inkscape:window-y="24"
     inkscape:window-maximized="1" />
  <metadata
     id="metadata7867">
    <rdf:RDF>
      <cc:Work
         rdf:about="">
        <dc:format>image/svg+xml</dc:format>
        <dc:type
           rdf:resource="http://purl.org/dc/dcmitype/StillImage" />
        <dc:title />
      </cc:Work>
    </rdf:RDF>
  </metadata>
  <g
     inkscape:label="Layer 1"
     inkscape:groupmode="layer"
     id="layer1"
     transform="translate(-364,-521.36218)">
    <path
       id="path4204"
       d="m 370,523.36219 c -0.554,0 -1,0.446 -1,1 l 0,1 -1,0 c -1.6447,0 -3,1.3553 -3,3 l 0,11 c 0,1.6447 1.3553,3 3,3 l 7,0 0,-2 -7,0 c -0.5713,0 -1,-0.4287 -1,-1 l 0,-11 c 0,-0.5713 0.4287,-1 1,-1 l 2,0 2,0 2,0 c 0.5713,0 1,0.4287 1,1 l 0,4.125 2,-2.125 0,-2 c 0,-1.6447 -1.3553,-3 -3,-3 l -1,0 0,-1 c 0,-0.554 -0.446,-1 -1,-1 z m 8,8 c -1,0 -1,1 -1,1 l 0,2 -1,0 0,4 c 0,2 2,2 2,2 l 1,0 0,3 2,0 0,-3 1,0 c 2,0 2,-2 2,-2 l 0,-4 -1,0 0,-2 c 0,0 0,-1 -1,-1 -1,0 -1,1 -1,1 l 0,2 -2,0 0,-2 c 0,0 0,-1 -1,-1 z m -9,1 c -0.554,0 -1,0.446 -1,1 l 0,1 c 0,0.554 0.446,1 1,1 l 4,0 c 0.554,0 1,-0.446 1,-1 l 0,-1 c 0,-0.554 -0.446,-1 -1,-1 z m 0,4 c -0.554,0 -1,0.446 -1,1 l 0,1 c 0,0.554 0.446,1 1,1 l 4,0 c 0.554,0 1,-0.446 1,-1 l 0,-1 c 0,-0.554 -0.446,-1 -1,-1 z"
       style="font-size:medium;font-style:normal;font-variant:normal;font-weight:normal;font-stretch:normal;text-indent:0;text-align:start;text-decoration:none;line-height:normal;letter-spacing:normal;word-spacing:normal;text-transform:none;direction:ltr;block-progression:tb;writing-mode:lr-tb;text-anchor:start;baseline-shift:baseline;opacity:1;color:#000000;fill:#000000;fill-opacity:1;fill-rule:nonzero;stroke:none;stroke-width:1;marker:none;visibility:visible;display:inline;overflow:visible;enable-background:accumulate;font-family:Sans;-inkscape-font-specification:Sans"
       inkscape:connector-curvature="0"
       sodipodi:nodetypes="sscssssccssssccssccsscsssscccscccccsccccsccccsssssssssssssssssss" />
    <path
       style="font-size:medium;font-style:normal;font-variant:normal;font-weight:normal;font-stretch:normal;text-indent:0;text-align:start;text-decoration:none;line-height:normal;letter-spacing:normal;word-spacing:normal;text-transform:none;direction:ltr;block-progression:tb;writing-mode:lr-tb;text-anchor:start;baseline-shift:baseline;opacity:1;color:#000000;fill:url(#linearGradient4262);fill-opacity:1;fill-rule:nonzero;stroke:none;stroke-width:1;marker:none;visibility:visible;display:inline;overflow:visible;enable-background:accumulate;font-family:Sans;-inkscape-font-specification:Sans"
       d="M 6 1 C 5.446 1 5 1.446 5 2 L 5 3 L 4 3 C 2.3553 3 1 4.3553 1 6 L 1 17 C 1 18.6447 2.3553 20 4 20 L 11 20 L 11 18 L 4 18 C 3.4287 18 3 17.5713 3 17 L 3 6 C 3 5.4287 3.4287 5 4 5 L 6 5 L 8 5 L 10 5 C 10.5713 5 11 5.4287 11 6 L 11 10.125 L 13 8 L 13 6 C 13 4.3553 11.6447 3 10 3 L 9 3 L 9 2 C 9 1.446 8.554 1 8 1 L 6 1 z M 14 9 C 13 9 13 10 13 10 L 13 12 L 12 12 L 12 16 C 12 18 14 18 14 18 L 15 18 L 15 21 L 17 21 L 17 18 L 18 18 C 20 18 20 16 20 16 L 20 12 L 19 12 L 19 10 C 19 10 19 9 18 9 C 17 9 17 10 17 10 L 17 12 L 15 12 L 15 10 C 15 10 15 9 14 9 z M 5 10 C 4.446 10 4 10.446 4 11 L 4 12 C 4 12.554 4.446 13 5 13 L 9 13 C 9.554 13 10 12.554 10 12 L 10 11 C 10 10.446 9.554 10 9 10 L 5 10 z M 5 14 C 4.446 14 4 14.446 4 15 L 4 16 C 4 16.554 4.446 17 5 17 L 9 17 C 9.554 17 10 16.554 10 16 L 10 15 C 10 14.446 9.554 14 9 14 L 5 14 z "
       transform="translate(364,521.36218)"
       id="path4208" />
  </g>
</svg>
