<?xml version="1.0" encoding="UTF-8" standalone="no"?>
<!-- Created with Inkscape (http://www.inkscape.org/) -->

<svg
   xmlns:dc="http://purl.org/dc/elements/1.1/"
   xmlns:cc="http://creativecommons.org/ns#"
   xmlns:rdf="http://www.w3.org/1999/02/22-rdf-syntax-ns#"
   xmlns:svg="http://www.w3.org/2000/svg"
   xmlns="http://www.w3.org/2000/svg"
   xmlns:xlink="http://www.w3.org/1999/xlink"
   xmlns:sodipodi="http://sodipodi.sourceforge.net/DTD/sodipodi-0.dtd"
   xmlns:inkscape="http://www.inkscape.org/namespaces/inkscape"
   width="22"
   height="22.000008"
   id="svg7235"
   version="1.1"
   inkscape:version="0.48.4 r9939"
   sodipodi:docname="xfpm-phone-040.svg">
  <defs
     id="defs7237">
    <linearGradient
       id="linearGradient3587-6-5-3-0-3">
      <stop
         offset="0"
         style="stop-color:#bebebe;stop-opacity:1;"
         id="stop3589-9-2-2-4-8" />
      <stop
         offset="1"
         style="stop-color:#ffffff;stop-opacity:1;"
         id="stop3591-7-4-73-2-2" />
    </linearGradient>
    <linearGradient
       inkscape:collect="always"
       xlink:href="#linearGradient3587-6-5-3-0-3"
       id="linearGradient3762"
       x1="7.6071429"
       y1="1.2678572"
       x2="7.6071429"
       y2="20.940893"
       gradientUnits="userSpaceOnUse" />
  </defs>
  <sodipodi:namedview
     id="base"
     pagecolor="#ffffff"
     bordercolor="#666666"
     borderopacity="1.0"
     inkscape:pageopacity="0.0"
     inkscape:pageshadow="2"
     inkscape:zoom="11.2"
     inkscape:cx="11"
     inkscape:cy="11.000007"
     inkscape:document-units="px"
     inkscape:current-layer="layer1"
     showgrid="false"
     inkscape:showpageshadow="false"
     fit-margin-top="0"
     fit-margin-left="0"
     fit-margin-right="0"
     fit-margin-bottom="0"
     inkscape:window-width="1280"
     inkscape:window-height="975"
     inkscape:window-x="0"
     inkscape:window-y="24"
     inkscape:window-maximized="1" />
  <metadata
     id="metadata7240">
    <rdf:RDF>
      <cc:Work
         rdf:about="">
        <dc:format>image/svg+xml</dc:format>
        <dc:type
           rdf:resource="http://purl.org/dc/dcmitype/StillImage" />
        <dc:title />
      </cc:Work>
    </rdf:RDF>
  </metadata>
  <g
     inkscape:label="Layer 1"
     inkscape:groupmode="layer"
     id="layer1"
     transform="translate(-364,-521.36218)">
    <path
       inkscape:connector-curvature="0"
       style="opacity:1;color:#000000;fill:#000000;fill-opacity:1;fill-rule:nonzero;stroke:none;stroke-width:1;marker:none;visibility:visible;display:inline;overflow:visible;enable-background:accumulate"
       d="m 370,523.36219 c -0.554,0 -1,0.446 -1,1 l 0,1 -1,0 c -1.6447,0 -3,1.3553 -3,3 l 0,4 0,7 c 0,1.6447 1.3553,3 3,3 l 5,0 2,0 0,-2 -2,0 -3,0 -2,0 c -0.5713,0 -1,-0.4287 -1,-1 l 0,-7 0,-4 c 0,-0.5713 0.4287,-1 1,-1 l 2,0 2,0 2,0 c 0.5713,0 1,0.4287 1,1 l 0,1.875 2,-1.875 c 0,-1.6447 -1.3553,-3 -3,-3 l -1,0 0,-1 c 0,-0.554 -0.446,-1 -1,-1 z m 8,6 c -1.108,0 -2,0.892 -2,2 l 0,10 c 0,1.108 0.892,2 2,2 l 6,0 c 1.108,0 2,-0.892 2,-2 l 0,-10 c 0,-1.108 -0.892,-2 -2,-2 z m 0.59375,1 4.8125,0 c 0.8864,0 1.59375,0.669 1.59375,1.5 l 0,3 c 0,0.831 -0.70735,1.5 -1.59375,1.5 l -4.8125,0 c -0.8864,0 -1.59375,-0.669 -1.59375,-1.5 l 0,-3 c 0,-0.831 0.70735,-1.5 1.59375,-1.5 z m -9.59375,6 c -0.554,0 -1,0.446 -1,1 l 0,1 c 0,0.554 0.446,1 1,1 l 4,0 c 0.554,0 1,-0.446 1,-1 l 0,-1 c 0,-0.554 -0.446,-1 -1,-1 z m 8.5,1 1,0 c 0.277,0 0.5,0.223 0.5,0.5 l 0,1 c 0,0.277 -0.223,0.5 -0.5,0.5 l -1,0 c -0.277,0 -0.5,-0.223 -0.5,-0.5 l 0,-1 c 0,-0.277 0.223,-0.5 0.5,-0.5 z m 3,0 1,0 c 0.277,0 0.5,0.223 0.5,0.5 l 0,1 c 0,0.277 -0.223,0.5 -0.5,0.5 l -1,0 c -0.277,0 -0.5,-0.223 -0.5,-0.5 l 0,-1 c 0,-0.277 0.223,-0.5 0.5,-0.5 z m 3,0 1,0 c 0.277,0 0.5,0.223 0.5,0.5 l 0,1 c 0,0.277 -0.223,0.5 -0.5,0.5 l -1,0 c -0.277,0 -0.5,-0.223 -0.5,-0.5 l 0,-1 c 0,-0.277 0.223,-0.5 0.5,-0.5 z m -6,3 1,0 c 0.277,0 0.5,0.223 0.5,0.5 l 0,1 c 0,0.277 -0.223,0.5 -0.5,0.5 l -1,0 c -0.277,0 -0.5,-0.223 -0.5,-0.5 l 0,-1 c 0,-0.277 0.223,-0.5 0.5,-0.5 z m 3,0 1,0 c 0.277,0 0.5,0.223 0.5,0.5 l 0,1 c 0,0.277 -0.223,0.5 -0.5,0.5 l -1,0 c -0.277,0 -0.5,-0.223 -0.5,-0.5 l 0,-1 c 0,-0.277 0.223,-0.5 0.5,-0.5 z m 3,0 1,0 c 0.277,0 0.5,0.223 0.5,0.5 l 0,1 c 0,0.277 -0.223,0.5 -0.5,0.5 l -1,0 c -0.277,0 -0.5,-0.223 -0.5,-0.5 l 0,-1 c 0,-0.277 0.223,-0.5 0.5,-0.5 z"
       id="path5302"
       sodipodi:nodetypes="sscsscsscccccsscssccssccscssssssssssssssssssssssssssssssssssssssssssssssssssssssssssssssssssssssssssssssssssss" />
    <path
       style="opacity:1;color:#000000;fill:url(#linearGradient3762);fill-opacity:1;fill-rule:nonzero;stroke:none;stroke-width:1;marker:none;visibility:visible;display:inline;overflow:visible;enable-background:accumulate"
       d="M 6 1 C 5.446 1 5 1.446 5 2 L 5 3 L 4 3 C 2.3553 3 1 4.3553 1 6 L 1 10 L 1 17 C 1 18.6447 2.3553 20 4 20 L 9 20 L 11 20 L 11 18 L 9 18 L 6 18 L 4 18 C 3.4287 18 3 17.5713 3 17 L 3 10 L 3 6 C 3 5.4287 3.4287 5 4 5 L 6 5 L 8 5 L 10 5 C 10.5713 5 11 5.4287 11 6 L 11 7.875 L 13 6 C 13 4.3553 11.6447 3 10 3 L 9 3 L 9 2 C 9 1.446 8.554 1 8 1 L 6 1 z M 14 7 C 12.892 7 12 7.892 12 9 L 12 19 C 12 20.108 12.892 21 14 21 L 20 21 C 21.108 21 22 20.108 22 19 L 22 9 C 22 7.892 21.108 7 20 7 L 14 7 z M 14.59375 8 L 19.40625 8 C 20.29265 8 21 8.669 21 9.5 L 21 12.5 C 21 13.331 20.29265 14 19.40625 14 L 14.59375 14 C 13.70735 14 13 13.331 13 12.5 L 13 9.5 C 13 8.669 13.70735 8 14.59375 8 z M 5 14 C 4.446 14 4 14.446 4 15 L 4 16 C 4 16.554 4.446 17 5 17 L 9 17 C 9.554 17 10 16.554 10 16 L 10 15 C 10 14.446 9.554 14 9 14 L 5 14 z M 13.5 15 L 14.5 15 C 14.777 15 15 15.223 15 15.5 L 15 16.5 C 15 16.777 14.777 17 14.5 17 L 13.5 17 C 13.223 17 13 16.777 13 16.5 L 13 15.5 C 13 15.223 13.223 15 13.5 15 z M 16.5 15 L 17.5 15 C 17.777 15 18 15.223 18 15.5 L 18 16.5 C 18 16.777 17.777 17 17.5 17 L 16.5 17 C 16.223 17 16 16.777 16 16.5 L 16 15.5 C 16 15.223 16.223 15 16.5 15 z M 19.5 15 L 20.5 15 C 20.777 15 21 15.223 21 15.5 L 21 16.5 C 21 16.777 20.777 17 20.5 17 L 19.5 17 C 19.223 17 19 16.777 19 16.5 L 19 15.5 C 19 15.223 19.223 15 19.5 15 z M 13.5 18 L 14.5 18 C 14.777 18 15 18.223 15 18.5 L 15 19.5 C 15 19.777 14.777 20 14.5 20 L 13.5 20 C 13.223 20 13 19.777 13 19.5 L 13 18.5 C 13 18.223 13.223 18 13.5 18 z M 16.5 18 L 17.5 18 C 17.777 18 18 18.223 18 18.5 L 18 19.5 C 18 19.777 17.777 20 17.5 20 L 16.5 20 C 16.223 20 16 19.777 16 19.5 L 16 18.5 C 16 18.223 16.223 18 16.5 18 z M 19.5 18 L 20.5 18 C 20.777 18 21 18.223 21 18.5 L 21 19.5 C 21 19.777 20.777 20 20.5 20 L 19.5 20 C 19.223 20 19 19.777 19 19.5 L 19 18.5 C 19 18.223 19.223 18 19.5 18 z "
       transform="translate(364,521.36218)"
       id="path5306" />
  </g>
</svg>
