<?xml version="1.0" encoding="UTF-8" standalone="no"?>
<svg xmlns:dc="http://purl.org/dc/elements/1.1/" xmlns:cc="http://creativecommons.org/ns#" xmlns:rdf="http://www.w3.org/1999/02/22-rdf-syntax-ns#" xmlns:svg="http://www.w3.org/2000/svg" xmlns="http://www.w3.org/2000/svg" xmlns:xlink="http://www.w3.org/1999/xlink" xmlns:sodipodi="http://sodipodi.sourceforge.net/DTD/sodipodi-0.dtd" xmlns:inkscape="http://www.inkscape.org/namespaces/inkscape" viewBox="0 0 22 22" id="svg2" version="1.1" inkscape:version="0.48.4 r9939" width="100%" height="100%" sodipodi:docname="abiword.svg">
    <metadata id="metadata68">
        <rdf:RDF>
            <cc:Work rdf:about="">
                <dc:format>image/svg+xml</dc:format>
                <dc:type rdf:resource="http://purl.org/dc/dcmitype/StillImage" />
            </cc:Work>
        </rdf:RDF>
    </metadata>
    <sodipodi:namedview pagecolor="#ffffff" bordercolor="#666666" borderopacity="1" objecttolerance="10" gridtolerance="10" guidetolerance="10" inkscape:pageopacity="0" inkscape:pageshadow="2" inkscape:window-width="1280" inkscape:window-height="976" id="namedview66" showgrid="true" inkscape:zoom="19.666666" inkscape:cx="18.213589" inkscape:cy="15.238542" inkscape:window-x="0" inkscape:window-y="24" inkscape:window-maximized="1" inkscape:current-layer="svg2">
        <inkscape:grid type="xygrid" id="grid3135" empspacing="5" visible="true" enabled="true" snapvisiblegridlinesonly="true" />
    </sodipodi:namedview>
    <defs id="defs4">
        <linearGradient gradientUnits="userSpaceOnUse" id="linearGradient3120" x2="0" y1="25.54085" y2="46.623249">
            <stop offset="0" stop-color="#fff" stop-opacity=".669" id="stop15" />
            <stop offset="1" stop-color="#fff" stop-opacity="0" id="stop17" />
        </linearGradient>
        <linearGradient inkscape:collect="always" xlink:href="#linearGradient3120" id="linearGradient3059" gradientUnits="userSpaceOnUse" y1="25.54085" x2="0" y2="46.623249" gradientTransform="translate(-1,-25)" />
        <linearGradient id="linearGradient3853">
            <stop style="stop-color:#ffffff;stop-opacity:1;" offset="0" id="stop3855" />
            <stop style="stop-color:#ffffff;stop-opacity:0;" offset="1" id="stop3857" />
        </linearGradient>
        <linearGradient id="linearGradient3888">
            <stop id="stop3890" offset="0" style="stop-color:#808080;stop-opacity:1;" />
            <stop id="stop3892" offset="1" style="stop-color:#999999;stop-opacity:1" />
        </linearGradient>
        <linearGradient id="linearGradient3934">
            <stop style="stop-color:#5a5a5a;stop-opacity:1;" offset="0" id="stop3936" />
            <stop style="stop-color:#c8c8c8;stop-opacity:1;" offset="1" id="stop3940" />
        </linearGradient>
        <linearGradient inkscape:collect="always" xlink:href="#linearGradient3853" id="linearGradient3141" gradientUnits="userSpaceOnUse" gradientTransform="matrix(1,0,0,0.54285714,-6,-1.8)" x1="13" y1="7" x2="13" y2="42" />
        <linearGradient inkscape:collect="always" xlink:href="#linearGradient3934" id="linearGradient3195" gradientUnits="userSpaceOnUse" gradientTransform="matrix(0.45454546,0,0,0.44752348,0.8181816,-0.29304)" x1="23" y1="20.76548" x2="23" y2="27.46904" />
        <linearGradient inkscape:collect="always" xlink:href="#linearGradient3888" id="linearGradient3198" gradientUnits="userSpaceOnUse" gradientTransform="matrix(0.45454546,0,0,0.50000001,0.8181816,-1.5000001)" x1="23" y1="13" x2="23" y2="19" />
        <linearGradient inkscape:collect="always" xlink:href="#linearGradient3157-5-1" id="linearGradient3159-1" gradientUnits="userSpaceOnUse" x1="-42.696152" x2="-5.8431101" gradientTransform="matrix(0,-0.54285714,-0.40000114,0,-0.60000739,-1.9857143)" />
        <linearGradient x2="-5.8431101" x1="-42.696152" id="linearGradient3157-5-1" gradientUnits="userSpaceOnUse">
            <stop id="stop19-9" stop-color="#fff" offset="0" />
            <stop id="stop21-9" stop-color="#cdcdcd" offset="1" />
        </linearGradient>
        <linearGradient inkscape:collect="always" xlink:href="#linearGradient3866-7" id="linearGradient3161-2" gradientUnits="userSpaceOnUse" x1="-5" y1="-21" x2="-43" y2="-21" gradientTransform="matrix(0,-0.54285714,-0.40000114,0,-0.60000739,-1.9857143)" />
        <linearGradient id="linearGradient3866-7">
            <stop id="stop3868-9" offset="0" style="stop-color:#818181;stop-opacity:1;" />
            <stop id="stop3870-2" offset="1" style="stop-color:#1f597a;stop-opacity:1;" />
        </linearGradient>
        <linearGradient x1="45.447727" y1="92.539597" x2="45.447727" y2="7.0165396" id="ButtonShadow" gradientUnits="userSpaceOnUse" gradientTransform="matrix(1.0058652,0,0,0.994169,0,2)">
            <stop id="stop3750" style="stop-color:#000000;stop-opacity:1" offset="0" />
            <stop id="stop3752" style="stop-color:#000000;stop-opacity:0.58823532" offset="1" />
        </linearGradient>
        <filter color-interpolation-filters="sRGB" id="filter3174">
            <feGaussianBlur id="feGaussianBlur3176" stdDeviation="1.71" />
        </filter>
    </defs>
    <path inkscape:connector-curvature="0" style="color:#000000;fill:url(#linearGradient3159-1);fill-opacity:1;fill-rule:nonzero;stroke:url(#linearGradient3161-2);stroke-width:1;stroke-linecap:round;stroke-linejoin:round;stroke-miterlimit:4;stroke-opacity:1;stroke-dasharray:none;stroke-dashoffset:0;marker:none;visibility:visible;display:inline;overflow:visible;enable-background:accumulate" id="path36" d="m 3.5,0.5 h 15 a 2,2 0 0 1 2,2 v 17 a 2,2 0 0 1 -2,2 h -15 a 2,2 0 0 1 -2,-2 v -17 a 2,2 0 0 1 2,-2" />
    <path style="color:#000000;fill:#8c8c8c;fill-opacity:1;fill-rule:nonzero;stroke:none;stroke-width:1;marker:none;visibility:visible;display:inline;overflow:visible;enable-background:accumulate" inkscape:connector-curvature="0" id="path40" d="m 15,5.0000002 h 3 v 1 h -3 z" />
    <path style="color:#000000;fill:#8c8c8c;fill-opacity:1;fill-rule:nonzero;stroke:none;stroke-width:1;marker:none;visibility:visible;display:inline;overflow:visible;enable-background:accumulate" inkscape:connector-curvature="0" id="path54" d="m 15,7.0000002 h 3 V 8 h -3 z" />
    <path style="color:#000000;fill:#8c8c8c;fill-opacity:1;fill-rule:nonzero;stroke:none;stroke-width:1;marker:none;visibility:visible;display:inline;overflow:visible;enable-background:accumulate" inkscape:connector-curvature="0" id="path56" d="m 15,9 h 3 v 1 h -3 z" />
    <path style="color:#000000;fill:#8c8c8c;fill-opacity:1;fill-rule:nonzero;stroke:none;stroke-width:1;marker:none;visibility:visible;display:inline;overflow:visible;enable-background:accumulate" inkscape:connector-curvature="0" id="path58" d="m 9,11 h 9 v 1 H 9 z" />
    <path style="color:#000000;fill:#8c8c8c;fill-opacity:1;fill-rule:nonzero;stroke:none;stroke-width:1;marker:none;visibility:visible;display:inline;overflow:visible;enable-background:accumulate" inkscape:connector-curvature="0" id="path60" d="m 9,13 h 7 v 1 H 9 z" />
    <path style="color:#000000;fill:#8c8c8c;fill-opacity:1;fill-rule:nonzero;stroke:none;stroke-width:1;marker:none;visibility:visible;display:inline;overflow:visible;enable-background:accumulate" inkscape:connector-curvature="0" id="path62" d="m 9,15 h 5 v 1 H 9 z" />
    <path style="color:#000000;fill:#8c8c8c;fill-opacity:1;fill-rule:nonzero;stroke:none;stroke-width:1;marker:none;visibility:visible;display:inline;overflow:visible;enable-background:accumulate" inkscape:connector-curvature="0" id="path64" d="m 9,17 h 3 v 1 H 9 z" />
    <path style="fill:url(#linearGradient3198);fill-opacity:1;stroke:none" inkscape:connector-curvature="0" id="path3886" d="m 9,5 h 5 v 5 H 9 z" />
    <path style="color:#000000;fill:url(#linearGradient3195);fill-opacity:1;fill-rule:nonzero;stroke:none;stroke-width:1;marker:none;visibility:visible;display:inline;overflow:visible;enable-background:accumulate" inkscape:connector-curvature="0" id="path72" d="m 9,8.209906 0.648771,0 c 0.840749,0 0.399494,-1.2099059 1.677881,-1.2099059 1.198165,0.050048 0.719089,1.2099059 1.837677,1.2099059 L 14,8.209906 14,10 9.000005,10 z" sodipodi:nodetypes="cscscccc" />
    <path style="fill:#dcdcdc;fill-opacity:1;stroke:none" inkscape:connector-curvature="0" id="path74" d="M 13.818181,6.2499995 C 13.818181,6.6642125 13.451868,7 13,7 12.548131,7 12.181817,6.6642125 12.181817,6.2499995 c 0,-0.414213 0.366314,-0.7499996 0.818183,-0.7499996 0.451868,0 0.818181,0.3357866 0.818181,0.7499996 z" />
    <path id="path3034" d="M 7,1 4.039808,1 C 2.935515,1 2,1.4924035 2,2 l 0,18 c 0,0.566053 0.942912,1 1.960192,1 L 7,21" style="color:#000000;fill:#6fa5cc;fill-opacity:1;fill-rule:nonzero;stroke:none;stroke-width:1;marker:none;visibility:visible;display:inline;overflow:visible;enable-background:accumulate" inkscape:connector-curvature="0" sodipodi:nodetypes="cssssc" />
    <path style="color:#000000;fill:#3c6b96;fill-opacity:1;fill-rule:nonzero;stroke:none;stroke-width:1;marker:none;visibility:visible;display:inline;overflow:visible;enable-background:accumulate" d="M 6,2 7,2 7,21 6,21 z" id="rect3859" inkscape:connector-curvature="0" />
    <path style="opacity:0.5;color:#000000;fill:url(#linearGradient3141);fill-opacity:1;fill-rule:nonzero;stroke:none;stroke-width:1;marker:none;visibility:visible;display:inline;overflow:visible;enable-background:accumulate" d="M 7,2 8,2 8,21 7,21 z" id="rect3843" inkscape:connector-curvature="0" />
    <path inkscape:connector-curvature="0" style="fill:none;stroke:url(#linearGradient3059)" id="path38" d="m 3.5,1.5 h 15 a 1,1 0 0 1 1,1 v 17 a 1,1 0 0 1 -1,1 h -15 a 1,1 0 0 1 -1,-1 v -17 a 1,1 0 0 1 1,-1" />
    <g id="layer2" style="display:none" transform="translate(46.224721,-205.66581)">
        <rect width="86" height="85" rx="6" ry="6" x="5" y="7" id="rect3745" style="opacity:0.9;fill:url(#ButtonShadow);fill-opacity:1;fill-rule:nonzero;stroke:none;filter:url(#filter3174)" />
    </g>
    <g id="layer4" transform="translate(46.224721,-205.66581)" />
    <g id="g4116" transform="matrix(0.37734075,0.37734075,-0.37734075,0.37734075,44.710629,-399.08547)">
        <rect style="color:#000000;fill:#ffffff;fill-opacity:1;fill-rule:evenodd;stroke:none;stroke-width:1;marker:none;visibility:visible;display:inline;overflow:visible;enable-background:accumulate" id="rect4086" width="4" height="16" x="510" y="576.36218" />
        <path sodipodi:nodetypes="ccccc" inkscape:transform-center-y="-5.8662831" inkscape:transform-center-x="-9.3983079" id="rect2383" d="m 514,591.86218 0,-13 -4,0 0,13 z" style="color:#000000;fill:#5a5a5a;fill-opacity:1;fill-rule:evenodd;stroke:none;marker:none;visibility:visible;display:inline;overflow:visible;enable-background:accumulate" inkscape:connector-curvature="0" />
        <path inkscape:connector-curvature="0" id="path3270" d="m 510,592.36218 1,2.5 1,2.5 1,-2.5 1,-2.5 -4,0 z" style="fill:#5a5a5a;fill-opacity:1;fill-rule:evenodd;stroke:none" />
        <path sodipodi:nodetypes="ssccccs" inkscape:connector-curvature="0" id="rect3819" d="m 511.5,573.36218 1,0 c 0.831,0 1.5,0.5305 1.5,1.5 l 0,2 -4,0 0,-2 c 0,-0.9695 0.669,-1.5 1.5,-1.5 z" style="color:#000000;fill:#5a5a5a;fill-opacity:1;fill-rule:evenodd;stroke:none;stroke-width:1;marker:none;visibility:visible;display:inline;overflow:visible;enable-background:accumulate" />
        <rect rx="0.93696052" ry="0.93696052" y="580.36218" x="511" height="10" width="1" id="rect4061" style="color:#000000;fill:#ffffff;fill-opacity:1;fill-rule:evenodd;stroke:none;stroke-width:1;marker:none;visibility:visible;display:inline;overflow:visible;enable-background:accumulate" />
        <rect transform="matrix(0,-1,1,0,0,0)" style="color:#000000;fill:#5a5a5a;fill-opacity:1;fill-rule:evenodd;stroke:none;stroke-width:1;marker:none;visibility:visible;display:inline;overflow:visible;enable-background:accumulate" id="rect4063" width="1" height="4" x="-578.36218" y="510" ry="0.93696052" rx="0.93696052" />
    </g>
</svg>
