<?xml version="1.0" encoding="UTF-8" standalone="no"?>
<!-- Created with Inkscape (http://www.inkscape.org/) -->

<svg xmlns:dc="http://purl.org/dc/elements/1.1/" xmlns:cc="http://creativecommons.org/ns#" xmlns:rdf="http://www.w3.org/1999/02/22-rdf-syntax-ns#" xmlns:svg="http://www.w3.org/2000/svg" xmlns="http://www.w3.org/2000/svg" xmlns:xlink="http://www.w3.org/1999/xlink" xmlns:sodipodi="http://sodipodi.sourceforge.net/DTD/sodipodi-0.dtd" xmlns:inkscape="http://www.inkscape.org/namespaces/inkscape" width="22" height="22" id="svg4700" version="1.1" inkscape:version="0.48.4 r9939" sodipodi:docname="leafpad.svg">
    <defs id="defs4702">
        <linearGradient inkscape:collect="always" id="linearGradient4158">
            <stop style="stop-color:#d1d1d1;stop-opacity:1" offset="0" id="stop4160" />
            <stop style="stop-color:#fbfbfb;stop-opacity:1" offset="1" id="stop4162" />
        </linearGradient>
        <linearGradient id="linearGradient4050">
            <stop id="stop4052" offset="0" style="stop-color:#ffffff;stop-opacity:0.66929132;" />
            <stop id="stop4054" offset="1" style="stop-color:#ffffff;stop-opacity:0;" />
        </linearGradient>
        <filter id="filter3174" color-interpolation-filters="sRGB">
            <feGaussianBlur stdDeviation="1.71" id="feGaussianBlur3176" />
        </filter>
        <linearGradient gradientTransform="scale(1.0058652,0.994169)" gradientUnits="userSpaceOnUse" id="ButtonShadow" y2="7.0165396" x2="45.447727" y1="92.539597" x1="45.447727">
            <stop offset="0" style="stop-color:#000000;stop-opacity:1" id="stop3750" />
            <stop offset="1" style="stop-color:#000000;stop-opacity:0.58823532" id="stop3752" />
        </linearGradient>
        <linearGradient inkscape:collect="always" xlink:href="#linearGradient4050" id="linearGradient3120" gradientUnits="userSpaceOnUse" gradientTransform="matrix(0.42802318,0,0,0.63267936,-1.307746,23.444356)" x1="22.440199" y1="4.8942533" x2="22.440199" y2="38.21666" />
        <linearGradient inkscape:collect="always" xlink:href="#linearGradient4158" id="linearGradient3258-1" gradientUnits="userSpaceOnUse" gradientTransform="matrix(1.9511263,0,0,1.9568671,5.866548,-98.119142)" x1="3.3913295" y1="64.298988" x2="3.3913295" y2="74.184616" />
        <linearGradient inkscape:collect="always" xlink:href="#linearGradient3916-9-8" id="linearGradient3425-4" gradientUnits="userSpaceOnUse" gradientTransform="matrix(0.8949773,0,0,1.3424658,-3.3822289,14.646567)" x1="4" y1="9.5" x2="10" y2="9.5" />
        <linearGradient id="linearGradient3916-9-8">
            <stop style="stop-color:#505050;stop-opacity:1;" offset="0" id="stop3918-8-0" />
            <stop id="stop3924-8-6" offset="0.5" style="stop-color:#c7c7c7;stop-opacity:1;" />
            <stop style="stop-color:#505050;stop-opacity:1;" offset="1" id="stop3920-7-8" />
        </linearGradient>
    </defs>
    <sodipodi:namedview id="base" pagecolor="#ffffff" bordercolor="#666666" borderopacity="1.0" inkscape:pageopacity="0.0" inkscape:pageshadow="2" inkscape:zoom="15.208334" inkscape:cx="18.026205" inkscape:cy="16.100642" inkscape:current-layer="layer1" showgrid="true" inkscape:grid-bbox="true" inkscape:document-units="px" inkscape:window-width="1280" inkscape:window-height="976" inkscape:window-x="0" inkscape:window-y="24" inkscape:window-maximized="1" inkscape:snap-to-guides="false" inkscape:snap-grids="true">
        <inkscape:grid type="xygrid" id="grid1021" empspacing="5" visible="true" enabled="true" snapvisiblegridlinesonly="true" />
    </sodipodi:namedview>
    <metadata id="metadata4705">
        <rdf:RDF>
            <cc:Work rdf:about="">
                <dc:format>image/svg+xml</dc:format>
                <dc:type rdf:resource="http://purl.org/dc/dcmitype/StillImage" />
                <dc:title />
            </cc:Work>
        </rdf:RDF>
    </metadata>
    <g id="layer1" inkscape:label="Layer 1" inkscape:groupmode="layer" transform="translate(0,-26)">
        <g id="layer2" style="display:none" transform="translate(5.204491,-179.6879)">
            <rect width="86" height="85" rx="6" ry="6" x="5" y="7" id="rect3745" style="opacity:0.9;fill:url(#ButtonShadow);fill-opacity:1;fill-rule:nonzero;stroke:none;filter:url(#filter3174)" />
        </g>
        <g id="layer4" transform="translate(5.204491,-179.6879)" />
        <rect style="color:black;fill:url(#linearGradient3258-1);fill-opacity:1;fill-rule:nonzero;stroke:#818181;stroke-width:1;stroke-linecap:round;stroke-linejoin:round;stroke-miterlimit:4;stroke-opacity:1;stroke-dasharray:none;stroke-dashoffset:0;marker:none;visibility:visible;display:inline;overflow:visible;enable-background:accumulate" id="rect3874" width="19" height="21" x="1.5" y="26.5" ry="1.9999998" rx="1.9999999" />
        <rect width="17" height="19" ry="1.0000001" x="2.5" y="27.5" id="rect4513" style="fill:none;stroke:url(#linearGradient3120);stroke-width:1;stroke-miterlimit:4;stroke-opacity:1;stroke-dasharray:none" rx="1.0000001" />
        <rect style="color:black;fill:#999;fill-opacity:1;fill-rule:nonzero;stroke:none;stroke-width:1;marker:none;visibility:visible;display:inline;overflow:visible;enable-background:accumulate" id="rect974" width="10" height="1" x="7" y="31" />
        <rect y="33" x="7" height="1" width="10" id="rect4164" style="color:black;fill:#999;fill-opacity:1;fill-rule:nonzero;stroke:none;stroke-width:1;marker:none;visibility:visible;display:inline;overflow:visible;enable-background:accumulate" />
        <rect style="color:black;fill:#999;fill-opacity:1;fill-rule:nonzero;stroke:none;stroke-width:1;marker:none;visibility:visible;display:inline;overflow:visible;enable-background:accumulate" id="rect4166" width="10" height="1" x="7" y="35" />
        <rect y="37" x="7" height="1" width="10" id="rect4168" style="color:black;fill:#999;fill-opacity:1;fill-rule:nonzero;stroke:none;stroke-width:1;marker:none;visibility:visible;display:inline;overflow:visible;enable-background:accumulate" />
        <rect style="color:black;fill:#999;fill-opacity:1;fill-rule:nonzero;stroke:none;stroke-width:1;marker:none;visibility:visible;display:inline;overflow:visible;enable-background:accumulate" id="rect4170" width="9" height="1" x="7" y="39" />
        <rect y="41" x="7" height="1" width="7" id="rect4172" style="color:black;fill:#999;fill-opacity:1;fill-rule:nonzero;stroke:none;stroke-width:1;marker:none;visibility:visible;display:inline;overflow:visible;enable-background:accumulate" />
        <rect style="color:black;fill:#999;fill-opacity:1;fill-rule:nonzero;stroke:none;stroke-width:1;marker:none;visibility:visible;display:inline;overflow:visible;enable-background:accumulate" id="rect4174" width="5" height="1" x="7" y="43" />
        <g id="g4116" transform="matrix(0.37734075,0.37734075,-0.37734075,0.37734075,45.710629,-373.10756)">
            <rect style="color:black;fill:white;fill-opacity:1;fill-rule:evenodd;stroke:none;stroke-width:1;marker:none;visibility:visible;display:inline;overflow:visible;enable-background:accumulate" id="rect4086" width="4" height="16" x="510" y="576.36218" />
            <path sodipodi:nodetypes="ccccc" inkscape:transform-center-y="-5.8662831" inkscape:transform-center-x="-9.3983079" id="rect2383" d="m 514,591.86218 0,-13 -4,0 0,13 z" style="color:black;fill:#5a5a5a;fill-opacity:1;fill-rule:evenodd;stroke:none;marker:none;visibility:visible;display:inline;overflow:visible;enable-background:accumulate" inkscape:connector-curvature="0" />
            <path inkscape:connector-curvature="0" id="path3270" d="m 510,592.36218 1,2.5 1,2.5 1,-2.5 1,-2.5 -4,0 z" style="fill:#5a5a5a;fill-opacity:1;fill-rule:evenodd;stroke:none" />
            <path sodipodi:nodetypes="ssccccs" inkscape:connector-curvature="0" id="rect3819" d="m 511.5,573.36218 1,0 c 0.831,0 1.5,0.5305 1.5,1.5 l 0,2 -4,0 0,-2 c 0,-0.9695 0.669,-1.5 1.5,-1.5 z" style="color:black;fill:#5a5a5a;fill-opacity:1;fill-rule:evenodd;stroke:none;stroke-width:1;marker:none;visibility:visible;display:inline;overflow:visible;enable-background:accumulate" />
            <rect rx="0.93696052" ry="0.93696052" y="580.36218" x="511" height="10" width="1" id="rect4061" style="color:black;fill:white;fill-opacity:1;fill-rule:evenodd;stroke:none;stroke-width:1;marker:none;visibility:visible;display:inline;overflow:visible;enable-background:accumulate" />
            <rect transform="matrix(0,-1,1,0,0,0)" style="color:black;fill:#5a5a5a;fill-opacity:1;fill-rule:evenodd;stroke:none;stroke-width:1;marker:none;visibility:visible;display:inline;overflow:visible;enable-background:accumulate" id="rect4063" width="1" height="4" x="-578.36218" y="510" ry="0.93696052" rx="0.93696052" />
        </g>
        <path style="color:black;fill:#5a5a5a;fill-opacity:1;fill-rule:nonzero;stroke:none;stroke-width:1.33333325;marker:none;visibility:visible;display:inline;overflow:visible;enable-background:accumulate" d="M 4.5,28 C 3.6715729,28 3,28.671573 3,29.5 3,30.328427 3.6715729,31 4.5,31 5.3284271,31 6,30.328427 6,29.5 6,28.671573 5.3284271,28 4.5,28 z m 0,5 C 3.6715729,33 3,33.671573 3,34.5 3,35.328427 3.6715729,36 4.5,36 5.3284271,36 6,35.328427 6,34.5 6,33.671573 5.3284271,33 4.5,33 z m 0,5 C 3.6715729,38 3,38.671573 3,39.5 3,40.328427 3.6715729,41 4.5,41 5.3284271,41 6,40.328427 6,39.5 6,38.671573 5.3284271,38 4.5,38 z m 0,5 C 3.6715729,43 3,43.671573 3,44.5 3,45.328427 3.6715729,46 4.5,46 5.3284271,46 6,45.328427 6,44.5 6,43.671573 5.3284271,43 4.5,43 z" id="path3914" inkscape:connector-curvature="0" />
        <path style="color:black;fill:url(#linearGradient3425-4);fill-opacity:1;fill-rule:nonzero;stroke:none;stroke-width:1;marker:none;visibility:visible;display:inline;overflow:visible;enable-background:accumulate" d="M 0.5,29 C 0.223,29 0,29.223 0,29.5 0,29.777 0.223,30 0.5,30 l 4,0 C 4.777,30 5,29.777 5,29.5 5,29.223 4.777,29 4.5,29 l -4,0 z m 0,5 C 0.223,34 0,34.223 0,34.5 0,34.777 0.223,35 0.5,35 l 4,0 C 4.777,35 5,34.777 5,34.5 5,34.223 4.777,34 4.5,34 l -4,0 z m 0,5 C 0.223,39 0,39.223 0,39.5 0,39.777 0.223,40 0.5,40 l 4,0 C 4.777,40 5,39.777 5,39.5 5,39.223 4.777,39 4.5,39 l -4,0 z m 0,5 C 0.223,44 0,44.223 0,44.5 0,44.777 0.223,45 0.5,45 l 4,0 C 4.777,45 5,44.777 5,44.5 5,44.223 4.777,44 4.5,44 l -4,0 z" id="rect3908" inkscape:connector-curvature="0" />
    </g>
</svg>
