<?xml version="1.0" encoding="UTF-8" standalone="no"?>
<!-- Created with Inkscape (http://www.inkscape.org/) -->

<svg xmlns:dc="http://purl.org/dc/elements/1.1/" xmlns:cc="http://creativecommons.org/ns#" xmlns:rdf="http://www.w3.org/1999/02/22-rdf-syntax-ns#" xmlns:svg="http://www.w3.org/2000/svg" xmlns="http://www.w3.org/2000/svg" xmlns:xlink="http://www.w3.org/1999/xlink" xmlns:sodipodi="http://sodipodi.sourceforge.net/DTD/sodipodi-0.dtd" xmlns:inkscape="http://www.inkscape.org/namespaces/inkscape" version="1.1" width="22" height="22" id="svg4700" inkscape:version="0.48.4 r9939" sodipodi:docname="exaile.svg">
    <sodipodi:namedview pagecolor="#ffffff" bordercolor="#666666" borderopacity="1" objecttolerance="10" gridtolerance="10" guidetolerance="10" inkscape:pageopacity="0" inkscape:pageshadow="2" inkscape:window-width="640" inkscape:window-height="480" id="namedview44" />
    <defs id="defs4702">
        <linearGradient id="linearGradient4050">
            <stop id="stop4052" style="stop-color:#ffffff;stop-opacity:0.66929132" offset="0" />
            <stop id="stop4054" style="stop-color:#ffffff;stop-opacity:0" offset="1" />
        </linearGradient>
        <filter color-interpolation-filters="sRGB" id="filter3174">
            <feGaussianBlur id="feGaussianBlur3176" stdDeviation="1.71" />
        </filter>
        <linearGradient x1="45.447727" y1="92.539597" x2="45.447727" y2="7.0165396" id="ButtonShadow" gradientUnits="userSpaceOnUse" gradientTransform="scale(1.0058652,0.994169)">
            <stop id="stop3750" style="stop-color:#000000;stop-opacity:1" offset="0" />
            <stop id="stop3752" style="stop-color:#000000;stop-opacity:0.58823532" offset="1" />
        </linearGradient>
        <linearGradient x1="22.440199" y1="4.8942533" x2="22.440199" y2="38.21666" id="linearGradient3120" xlink:href="#linearGradient4050" gradientUnits="userSpaceOnUse" gradientTransform="matrix(0.53950487,0,0,0.61161008,-1.9715265,23.570745)" />
        <linearGradient x1="45.447727" y1="92.539597" x2="45.447727" y2="7.0165396" id="ButtonShadow-9" gradientUnits="userSpaceOnUse" gradientTransform="scale(1.0058652,0.994169)">
            <stop id="stop3750-6" style="stop-color:#000000;stop-opacity:1" offset="0" />
            <stop id="stop3752-3" style="stop-color:#000000;stop-opacity:0.58823532" offset="1" />
        </linearGradient>
        <filter color-interpolation-filters="sRGB" id="filter3174-5">
            <feGaussianBlur stdDeviation="1.71" id="feGaussianBlur3176-2" />
        </filter>
        <linearGradient id="linearGradient3882">
            <stop id="stop3884" style="stop-color:#ffffff;stop-opacity:1" offset="0" />
            <stop id="stop3886" style="stop-color:#ffffff;stop-opacity:0" offset="1" />
        </linearGradient>
        <radialGradient cx="29.303301" cy="20.259962" r="24.34375" fx="29.303301" fy="20.259962" id="radialGradient3162" xlink:href="#linearGradient3882" gradientUnits="userSpaceOnUse" gradientTransform="matrix(0.48779898,0,0,0.4881082,0.29270357,0.767293)" />
        <radialGradient cx="28.773218" cy="19.740349" r="21.015722" fx="28.773218" fy="19.740349" id="radialGradient3157-0" xlink:href="#linearGradient3808" gradientUnits="userSpaceOnUse" gradientTransform="matrix(0.55503029,0,0,0.5567155,-3.0336397,25.089181)" />
        <linearGradient x1="17.480215" y1="43.784" x2="17.480215" y2="2.6583908" id="linearGradient3159-0" xlink:href="#linearGradient3998" gradientUnits="userSpaceOnUse" gradientTransform="matrix(0.49079457,0,0,0.49258914,-1.1853711,26.354061)" />
        <linearGradient id="linearGradient3808">
            <stop id="stop3810" style="stop-color:#61bf07;stop-opacity:1" offset="0" />
            <stop id="stop3812" style="stop-color:#397005;stop-opacity:1" offset="1" />
        </linearGradient>
        <linearGradient id="linearGradient3998">
            <stop id="stop4000" style="stop-color:#133812;stop-opacity:1" offset="0" />
            <stop id="stop4002" style="stop-color:#055b02;stop-opacity:1" offset="1" />
        </linearGradient>
        <clipPath id="clipPath3926">
            <path d="M 4,2.5 C 3.1776486,2.5 2.5,3.177649 2.5,4 l 0,17 c 0,0.822351 0.6776486,1.5 1.5,1.5 l 17,0 c 0.822351,0 1.5,-0.677649 1.5,-1.5 l 0,-17 C 22.5,3.177649 21.822351,2.5 21,2.5 l -17,0 z" id="path3928" style="font-size:medium;font-style:normal;font-variant:normal;font-weight:normal;font-stretch:normal;text-indent:0;text-align:start;text-decoration:none;line-height:normal;letter-spacing:normal;word-spacing:normal;text-transform:none;direction:ltr;block-progression:tb;writing-mode:lr-tb;text-anchor:start;baseline-shift:baseline;opacity:0.5;color:#000000;fill:url(#linearGradient3930);fill-opacity:1;stroke:none;stroke-width:1;marker:none;visibility:visible;display:inline;overflow:visible;enable-background:accumulate;font-family:Sans;-inkscape-font-specification:Sans" />
        </clipPath>
        <linearGradient x1="22.440199" y1="4.8942533" x2="22.440199" y2="38.21666" id="linearGradient3930" xlink:href="#linearGradient4050" gradientUnits="userSpaceOnUse" gradientTransform="matrix(0.53950487,0,0,0.61161008,-0.47152653,-0.929255)" />
    </defs>
    <metadata id="metadata4705">
        <rdf:RDF>
            <cc:Work rdf:about="">
                <dc:format>image/svg+xml</dc:format>
                <dc:type rdf:resource="http://purl.org/dc/dcmitype/StillImage" />
                <dc:title />
            </cc:Work>
        </rdf:RDF>
    </metadata>
    <g transform="translate(0,-26)" id="layer1">
        <g transform="translate(5.204491,-179.6879)" id="layer2" style="display:none">
            <rect width="86" height="85" rx="6" ry="6" x="5" y="7" id="rect3745" style="opacity:0.9;fill:url(#ButtonShadow);fill-opacity:1;fill-rule:nonzero;stroke:none;filter:url(#filter3174)" />
        </g>
        <g transform="translate(5.204491,-179.6879)" id="layer4" />
        <rect width="20.998592" height="20.99859" rx="2.0028172" ry="2.0028174" x="0.50070429" y="26.500706" id="rect3874" style="color:#000000;fill:url(#radialGradient3157-0);fill-opacity:1;fill-rule:nonzero;stroke:url(#linearGradient3159-0);stroke-width:1.00140858;stroke-linecap:butt;stroke-linejoin:miter;stroke-miterlimit:4;stroke-opacity:1;stroke-dasharray:none;stroke-dashoffset:0;marker:none;visibility:visible;display:inline;overflow:visible;enable-background:accumulate" />
        <g transform="matrix(0.49109216,0,0,0.49109216,29.584775,-63.74481)" id="layer2-3" style="display:none">
            <rect width="86" height="85" rx="12.217667" ry="12.217667" x="5" y="7" id="rect3745-9" style="opacity:0.9;fill:url(#ButtonShadow-9);fill-opacity:1;fill-rule:nonzero;stroke:none;filter:url(#filter3174-5)" />
        </g>
        <g transform="matrix(0.49109216,0,0,0.49109216,29.584775,-63.74481)" id="layer4-3" />
        <path d="M 12,0.125 C 5.4428325,0.125 0.125,5.4386757 0.125,12 0.125,18.561324 5.4428325,23.875 12,23.875 18.557168,23.875 23.875,18.561324 23.875,12 23.875,5.4386757 18.557168,0.125 12,0.125 z m 0,0.46875 C 18.293542,0.59375 23.375,5.7024685 23.375,12 23.375,18.297531 18.293542,23.375 12,23.375 5.706458,23.375 0.625,18.297531 0.625,12 0.625,5.7024685 5.706458,0.59375 12,0.59375 z m 0,1.25 C 6.4033779,1.84375 1.875,6.3998297 1.875,12 1.875,17.60017 6.4033779,22.125 12,22.125 17.596622,22.125 22.15625,17.60017 22.15625,12 22.15625,6.3998297 17.596622,1.84375 12,1.84375 z m 0,0.96875 c 5.06937,0 9.1875,4.1149161 9.1875,9.1875 0,5.072583 -4.11813,9.15625 -9.1875,9.15625 C 6.9306296,21.15625 2.84375,17.072583 2.84375,12 2.84375,6.9274161 6.9306296,2.8125 12,2.8125 z m 0,1.125 c -4.4446453,0 -8.0625,3.6150367 -8.0625,8.0625 0,4.447463 3.6178547,8.0625 8.0625,8.0625 4.444646,0 8.0625,-3.615037 8.0625,-8.0625 0,-4.4474633 -3.617854,-8.0625 -8.0625,-8.0625 z m 0,1.9375 c 3.390141,0 6.125,2.73271 6.125,6.125 0,3.39229 -2.734859,6.125 -6.125,6.125 C 8.609859,18.125 5.875,15.39229 5.875,12 5.875,8.60771 8.609859,5.875 12,5.875 z M 9,8 l 0,8 8.03125,-4.03125 z" transform="translate(-1.5,24.5)" clip-path="url(#clipPath3926)" id="path3829" style="font-size:32.94774628px;font-style:normal;font-variant:normal;font-weight:bold;font-stretch:normal;line-height:125%;letter-spacing:0px;word-spacing:0px;color:#000000;fill:url(#radialGradient3162);fill-opacity:1;fill-rule:nonzero;stroke:none;stroke-width:4.83461523;marker:none;visibility:visible;display:inline;overflow:visible;enable-background:accumulate;font-family:Ubuntu;-inkscape-font-specification:Ubuntu Bold" />
        <rect width="19" height="19" rx="1" ry="0.99999994" x="1.5" y="27.5" id="rect4513" style="opacity:0.5;fill:none;stroke:url(#linearGradient3120);stroke-width:1;stroke-miterlimit:4;stroke-opacity:1;stroke-dasharray:none" />
    </g>
</svg>
