<?xml version="1.0" encoding="UTF-8" standalone="no"?>
<!-- Created with Inkscape (http://www.inkscape.org/) -->

<svg xmlns:dc="http://purl.org/dc/elements/1.1/" xmlns:cc="http://creativecommons.org/ns#" xmlns:rdf="http://www.w3.org/1999/02/22-rdf-syntax-ns#" xmlns:svg="http://www.w3.org/2000/svg" xmlns="http://www.w3.org/2000/svg" xmlns:xlink="http://www.w3.org/1999/xlink" xmlns:sodipodi="http://sodipodi.sourceforge.net/DTD/sodipodi-0.dtd" xmlns:inkscape="http://www.inkscape.org/namespaces/inkscape" width="22" height="22" id="svg3472" version="1.1" inkscape:version="0.48.4 r9939" sodipodi:docname="gimp.svg">
    <defs id="defs3474">
        <linearGradient id="linearGradient3871">
            <stop id="stop3873" offset="0" style="stop-color:#ab9a69;stop-opacity:1" />
            <stop id="stop3875" offset="1" style="stop-color:#221f19;stop-opacity:1;" />
        </linearGradient>
        <linearGradient y2="25.48744" y1="-5.7136502" x2="31.74275" x1="8.2114201" id="linearGradient4594-3-7" gradientUnits="userSpaceOnUse">
            <stop id="stop37-5-1-3-5" stop-color="#fff" offset="0" />
            <stop id="stop39-0-2" stop-opacity="0" stop-color="#fff" offset="1" />
        </linearGradient>
        <linearGradient inkscape:collect="always" xlink:href="#linearGradient4050" id="linearGradient3120" gradientUnits="userSpaceOnUse" gradientTransform="matrix(0.53950487,0,0,0.61161008,-1.9715273,1027.933)" x1="22.440199" y1="4.8942533" x2="22.440199" y2="38.21666" />
        <linearGradient id="linearGradient4050">
            <stop id="stop4052" offset="0" style="stop-color:#ffffff;stop-opacity:0.66929132;" />
            <stop id="stop4054" offset="1" style="stop-color:#ffffff;stop-opacity:0;" />
        </linearGradient>
        <linearGradient inkscape:collect="always" xlink:href="#linearGradient4282-3-1" id="linearGradient3132-3" gradientUnits="userSpaceOnUse" gradientTransform="matrix(0.49494157,0,0,0.49494157,21.752166,532.64375)" x1="30" y1="1007.3622" x2="30" y2="1052.3622" />
        <linearGradient id="linearGradient4282-3-1">
            <stop id="stop4284-3-4" offset="0" style="stop-color:#fce94f;stop-opacity:1;" />
            <stop id="stop4286-2-0" offset="1" style="stop-color:#8f5902;stop-opacity:1;" />
        </linearGradient>
        <linearGradient inkscape:collect="always" xlink:href="#linearGradient3899-9-5" id="linearGradient3134-2" gradientUnits="userSpaceOnUse" gradientTransform="matrix(0.49494157,0,0,0.49494157,21.752166,532.64375)" x1="10" y1="1007.3622" x2="10" y2="1049.3365" />
        <linearGradient id="linearGradient3899-9-5">
            <stop style="stop-color:#a88d0b;stop-opacity:1" offset="0" id="stop3901-3-0" />
            <stop style="stop-color:#2b1d03;stop-opacity:1" offset="1" id="stop3903-6-5" />
        </linearGradient>
        <linearGradient inkscape:collect="always" xlink:href="#linearGradient4594-3-7" id="linearGradient3878" gradientUnits="userSpaceOnUse" gradientTransform="matrix(0.51559287,0,0,0.54794558,-0.13930634,1028.0745)" x1="8.2114201" y1="-5.7136502" x2="31.74275" y2="25.48744" />
        <linearGradient id="linearGradient6482">
            <stop style="stop-color:black;stop-opacity:1;" offset="0" id="stop6484" />
            <stop style="stop-color:black;stop-opacity:1;" offset="1" id="stop6486" />
        </linearGradient>
        <linearGradient inkscape:collect="always" id="linearGradient2446">
            <stop style="stop-color:#ffffff;stop-opacity:1;" offset="0" id="stop2448" />
            <stop style="stop-color:#ffffff;stop-opacity:0;" offset="1" id="stop2450" />
        </linearGradient>
        <linearGradient inkscape:collect="always" id="linearGradient6492">
            <stop style="stop-color:black;stop-opacity:1;" offset="0" id="stop6494" />
            <stop style="stop-color:black;stop-opacity:0;" offset="1" id="stop6496" />
        </linearGradient>
        <linearGradient id="linearGradient8542-3">
            <stop style="stop-color:#5b676b;stop-opacity:1;" offset="0" id="stop8544-3" />
            <stop style="stop-color:#141718;stop-opacity:1;" offset="1" id="stop8546-1" />
        </linearGradient>
        <radialGradient inkscape:collect="always" xlink:href="#linearGradient6492" id="radialGradient4270" gradientUnits="userSpaceOnUse" gradientTransform="matrix(1,0,0,0.284247,0,24.29088)" cx="23" cy="33.9375" fx="23" fy="33.9375" r="18.25" />
        <radialGradient inkscape:collect="always" xlink:href="#linearGradient8542-3" id="radialGradient4280" gradientUnits="userSpaceOnUse" gradientTransform="matrix(0.916159,0.09318684,-0.108765,1.069309,3.253668,-3.029272)" cx="6.0242186" cy="25.271027" fx="6.0242186" fy="25.271027" r="4.8310289" />
        <linearGradient inkscape:collect="always" xlink:href="#linearGradient6482" id="linearGradient3069" gradientUnits="userSpaceOnUse" gradientTransform="matrix(0.52039545,0,0,0.51849744,-2.2089745,1029.0292)" x1="32.350136" y1="28.083355" x2="21.213203" y2="30.293064" />
        <radialGradient inkscape:collect="always" xlink:href="#linearGradient3871" id="radialGradient3072" gradientUnits="userSpaceOnUse" gradientTransform="matrix(1.0400849,-3.164211e-8,2.4971882e-8,0.82083264,-10.973383,1021.677)" cx="21.126528" cy="26.418509" fx="21.126528" fy="26.418509" r="19.2292" />
        <linearGradient inkscape:collect="always" xlink:href="#linearGradient2446" id="linearGradient3088" gradientUnits="userSpaceOnUse" gradientTransform="matrix(0.755165,0.395143,-0.395143,0.755165,-25.91245,6.532586)" x1="13.236155" y1="37.752247" x2="7.7521091" y2="42.282146" />
    </defs>
    <sodipodi:namedview id="base" pagecolor="#ffffff" bordercolor="#666666" borderopacity="1.0" inkscape:pageopacity="0.0" inkscape:pageshadow="2" inkscape:zoom="14.81251" inkscape:cx="17.248661" inkscape:cy="14.11898" inkscape:document-units="px" inkscape:current-layer="capa1" showgrid="true" inkscape:window-width="1280" inkscape:window-height="976" inkscape:window-x="0" inkscape:window-y="24" inkscape:window-maximized="1" inkscape:snap-page="true" inkscape:snap-center="true" inkscape:snap-object-midpoints="true">
        <inkscape:grid type="xygrid" id="grid3480" empspacing="5" visible="true" enabled="true" snapvisiblegridlinesonly="true" />
    </sodipodi:namedview>
    <metadata id="metadata3477">
        <rdf:RDF>
            <cc:Work rdf:about="">
                <dc:format>image/svg+xml</dc:format>
                <dc:type rdf:resource="http://purl.org/dc/dcmitype/StillImage" />
                <dc:title />
            </cc:Work>
        </rdf:RDF>
    </metadata>
    <g inkscape:label="Capa 1" inkscape:groupmode="layer" id="capa1" transform="translate(0,-1030.3622)">
        <rect style="color:black;fill:url(#linearGradient3132-3);fill-opacity:1;fill-rule:nonzero;stroke:url(#linearGradient3134-2);stroke-width:0.99999994;stroke-linecap:butt;stroke-linejoin:miter;stroke-miterlimit:4;stroke-opacity:1;stroke-dasharray:none;stroke-dashoffset:0;marker:none;visibility:visible;display:inline;overflow:visible;enable-background:accumulate" id="rect3874" width="21" height="21" x="0.49999997" y="1030.8622" ry="2" rx="2" />
        <rect width="19" height="19" ry="0.99999994" x="1.4999982" y="1031.8622" id="rect4513" style="opacity:0.5;fill:none;stroke:url(#linearGradient3120);stroke-width:1;stroke-miterlimit:4;stroke-opacity:1;stroke-dasharray:none" rx="1" />
        <rect style="fill:#eeeeec;fill-opacity:1;fill-rule:nonzero;stroke:none;stroke-width:2;marker:none;visibility:visible;display:none;overflow:visible;enable-background:accumulate" id="rect6282" width="256" height="256" x="34.410198" y="887.36218" inkscape:label="256x256" />
        <rect inkscape:label="48x48" y="907.35852" x="310.47269" height="48" width="48" id="rect6284" style="fill:#eeeeec;fill-opacity:1;fill-rule:nonzero;stroke:none;stroke-width:2;marker:none;visibility:visible;display:none;overflow:visible;enable-background:accumulate" />
        <rect style="fill:#eeeeec;fill-opacity:1;fill-rule:nonzero;stroke:none;stroke-width:2;marker:none;visibility:visible;display:none;overflow:visible;enable-background:accumulate" id="rect6592" width="32" height="32" x="317.41019" y="983.35852" inkscape:label="32x32" />
        <rect inkscape:label="22x22" y="1034.421" x="317.41019" height="22" width="22" id="rect6749" style="fill:#eeeeec;fill-opacity:1;fill-rule:nonzero;stroke:none;stroke-width:2;marker:none;visibility:visible;display:none;overflow:visible;enable-background:accumulate" />
        <rect style="fill:#eeeeec;fill-opacity:1;fill-rule:nonzero;stroke:none;stroke-width:2;marker:none;visibility:visible;display:none;overflow:visible;enable-background:accumulate" id="rect6833" width="16" height="16" x="317.41019" y="1076.3622" inkscape:label="16x16" />
        <rect style="fill:#eeeeec;fill-opacity:1;fill-rule:nonzero;stroke:none;stroke-width:2;marker:none;visibility:visible;display:none;overflow:visible;enable-background:accumulate" id="rect5028" width="24" height="24" x="316.36728" y="1033.3157" inkscape:label="24x24" />
        <text inkscape:label="context" sodipodi:linespacing="125%" id="context" y="848.36218" x="35.410198" style="font-size:20px;font-style:normal;font-variant:normal;font-weight:normal;font-stretch:normal;text-align:start;line-height:125%;writing-mode:lr-tb;text-anchor:start;fill:black;fill-opacity:1;stroke:none;display:none;enable-background:new;font-family:Trebuchet MS;-inkscape-font-specification:Trebuchet MS" xml:space="preserve"><tspan y="848.36218" x="35.410198" id="tspan16843" sodipodi:role="line">apps</tspan></text>
        <text inkscape:label="icon-name" sodipodi:linespacing="125%" id="icon-name" y="848.36218" x="173.4102" style="font-size:20px;font-style:normal;font-variant:normal;font-weight:normal;font-stretch:normal;text-align:start;line-height:125%;writing-mode:lr-tb;text-anchor:start;fill:black;fill-opacity:1;stroke:none;display:none;enable-background:new;font-family:Trebuchet MS;-inkscape-font-specification:Trebuchet MS" xml:space="preserve"><tspan y="848.36218" x="173.4102" id="tspan16847" sodipodi:role="line">gimp</tspan></text>
        <g id="g3075">
            <path transform="matrix(0.52039545,0,0,0.79336372,-0.14740152,1018.4845)" d="m 41.25,33.9375 c 0,2.864977 -8.170803,5.1875 -18.25,5.1875 -10.079197,0 -18.25,-2.322523 -18.25,-5.1875 0,-2.864977 8.170803,-5.1875 18.25,-5.1875 10.079197,0 18.25,2.322523 18.25,5.1875 z" sodipodi:ry="5.1875" sodipodi:rx="18.25" sodipodi:cy="33.9375" sodipodi:cx="23" id="path6490" style="fill:url(#radialGradient4270);fill-opacity:1;fill-rule:evenodd;stroke:none;stroke-width:0.9999997;marker:none;visibility:visible;display:inline;overflow:visible" sodipodi:type="arc" />
            <path inkscape:connector-curvature="0" sodipodi:nodetypes="csscccc" id="path7016" d="m 5.1863239,1035.3144 c 0,0 1.4958815,3.0734 4.9954021,2.9867 7.333681,-0.1833 8.619679,-3.995 8.803666,-4.5449 0.183988,-0.55 0.465511,-0.4667 0.530599,0.042 2.391838,21.6314 -16.599018,12.3502 -17.2734684,8.6659 3.7717453,-1.0999 2.8518074,-3.208 2.8518074,-3.208 l 0.091994,-3.9413 z" style="fill:url(#radialGradient3072);fill-opacity:1;fill-rule:evenodd;stroke:#1f2324;stroke-width:0.99999934;stroke-linecap:butt;stroke-linejoin:miter;stroke-miterlimit:10;stroke-opacity:1;stroke-dasharray:none;stroke-dashoffset:0;marker:none;visibility:visible;display:inline;overflow:visible" />
            <path inkscape:connector-curvature="0" sodipodi:nodetypes="cccsccc" id="path7018" d="m 7.9774294,1044.439 c 3.5068956,0.6988 5.2927856,0.051 6.3379916,-0.7533 -0.275982,-0.3552 -0.74745,-0.7447 -0.74745,-0.7447 0,0 1.224657,0.3391 1.655889,0.8937 0.429998,0.553 0.159662,0.8937 0.04713,1.6013 -0.250525,-0.6215 -0.718137,-0.8546 -0.781444,-1.1015 -0.939974,1.2947 -3.281846,1.2409 -6.5121149,0.1045 z" style="fill:url(#linearGradient3069);fill-opacity:1;fill-rule:evenodd;stroke:none;stroke-width:0.9999997;marker:none;visibility:visible;display:inline;overflow:visible" />
            <path transform="matrix(0.70259169,0,0,0.70005008,-42.042897,1024.5367)" d="m 72.655224,21.837049 c 0,1.75736 -1.424621,3.181981 -3.18198,3.181981 -1.75736,0 -3.181981,-1.424621 -3.181981,-3.181981 0,-1.757359 1.424621,-3.18198 3.181981,-3.18198 1.757359,0 3.18198,1.424621 3.18198,3.18198 z" sodipodi:ry="3.1819806" sodipodi:rx="3.1819806" sodipodi:cy="21.837049" sodipodi:cx="69.473244" id="path4357" style="fill:white;fill-opacity:1;fill-rule:evenodd;stroke:#878787;stroke-width:1.42588234;stroke-linecap:butt;stroke-linejoin:miter;stroke-miterlimit:10;stroke-opacity:1;stroke-dasharray:none;stroke-dashoffset:0;marker:none;visibility:visible;display:inline;overflow:visible" sodipodi:type="arc" />
            <path transform="matrix(0.40646979,-0.28318364,0.29323971,0.39253008,-7.4540353,1032.8986)" d="m 10.429825,27.228739 c 0,3.368272 -1.9390679,6.098796 -4.3310291,6.098796 -2.3919612,0 -4.3310289,-2.730524 -4.3310289,-6.098796 0,-3.368272 1.9390677,-6.098796 4.3310289,-6.098796 2.3919612,0 4.3310291,2.730524 4.3310291,6.098796 z" sodipodi:ry="6.0987959" sodipodi:rx="4.3310289" sodipodi:cy="27.228739" sodipodi:cx="6.0987959" id="path7023" style="fill:url(#radialGradient4280);fill-opacity:1;fill-rule:evenodd;stroke:black;stroke-width:2.03030586;stroke-linecap:butt;stroke-linejoin:miter;stroke-miterlimit:10;stroke-opacity:1;stroke-dasharray:none;stroke-dashoffset:0;marker:none;visibility:visible;display:inline;overflow:visible" sodipodi:type="arc" />
            <path sodipodi:type="arc" style="fill:#2e3436;fill-opacity:1;fill-rule:evenodd;stroke:black;stroke-width:2.98942566;stroke-linecap:butt;stroke-linejoin:miter;stroke-miterlimit:10;stroke-opacity:1;stroke-dasharray:none;stroke-dashoffset:0;marker:none;visibility:visible;display:inline;overflow:visible" id="path4359" sodipodi:cx="21.743534" sodipodi:cy="21.837049" sodipodi:rx="2.2980971" sodipodi:ry="2.2980971" d="m 24.041631,21.837049 c 0,1.269204 -1.028893,2.298098 -2.298097,2.298098 -1.269204,0 -2.298097,-1.028894 -2.298097,-2.298098 0,-1.269204 1.028893,-2.298097 2.298097,-2.298097 1.269204,0 2.298097,1.028893 2.298097,2.298097 z" transform="matrix(0.33512399,0,0,0.33390182,0.00943658,1033.1159)" />
            <path transform="matrix(0.52039545,0,0,0.51849744,-0.21245048,1028.8498)" d="m 5.833631,23.251263 c 0,1.171572 -0.7914562,2.12132 -1.7677669,2.12132 -0.9763107,0 -1.767767,-0.949748 -1.767767,-2.12132 0,-1.171573 0.7914563,-2.121321 1.767767,-2.121321 0.9763107,0 1.7677669,0.949748 1.7677669,2.121321 z" sodipodi:ry="2.1213202" sodipodi:rx="1.767767" sodipodi:cy="23.251263" sodipodi:cx="4.0658641" id="path7027" style="fill:white;fill-opacity:1;fill-rule:evenodd;stroke:none;stroke-width:0.9999997;marker:none;visibility:visible;display:inline;overflow:visible" sodipodi:type="arc" />
            <path sodipodi:type="arc" style="fill:white;fill-opacity:1;fill-rule:evenodd;stroke:none;stroke-width:0.9999997;marker:none;visibility:visible;display:inline;overflow:visible" id="path4361" sodipodi:cx="21.38998" sodipodi:cy="20.953165" sodipodi:rx="1.767767" sodipodi:ry="1.767767" d="m 23.157747,20.953165 c 0,0.976311 -0.791456,1.767767 -1.767767,1.767767 -0.97631,0 -1.767767,-0.791456 -1.767767,-1.767767 0,-0.976311 0.791457,-1.767767 1.767767,-1.767767 0.976311,0 1.767767,0.791456 1.767767,1.767767 z" transform="matrix(0.30161135,0,0,0.30051146,0.54853909,1033.7565)" />
            <path sodipodi:type="arc" style="fill:white;fill-opacity:1;fill-rule:evenodd;stroke:#878787;stroke-width:1.15865135;stroke-linecap:butt;stroke-linejoin:miter;stroke-miterlimit:10;stroke-opacity:1;stroke-dasharray:none;stroke-dashoffset:0;marker:none;visibility:visible;display:inline;overflow:visible" id="path7030" sodipodi:cx="69.473244" sodipodi:cy="21.837049" sodipodi:rx="3.1819806" sodipodi:ry="3.1819806" d="m 72.655224,21.837049 c 0,1.75736 -1.424621,3.181981 -3.18198,3.181981 -1.75736,0 -3.181981,-1.424621 -3.181981,-3.181981 0,-1.757359 1.424621,-3.18198 3.181981,-3.18198 1.757359,0 3.18198,1.424621 3.18198,3.18198 z" transform="matrix(0.86462988,0,0,0.86151725,-48.542401,1020.8053)" />
            <path transform="matrix(0.52720852,0,0,0.52528566,0.85698755,1028.7985)" d="m 24.041631,21.837049 c 0,1.269204 -1.028893,2.298098 -2.298097,2.298098 -1.269204,0 -2.298097,-1.028894 -2.298097,-2.298098 0,-1.269204 1.028893,-2.298097 2.298097,-2.298097 1.269204,0 2.298097,1.028893 2.298097,2.298097 z" sodipodi:ry="2.2980971" sodipodi:rx="2.2980971" sodipodi:cy="21.837049" sodipodi:cx="21.743534" id="path7032" style="fill:#2e3436;fill-opacity:1;fill-rule:evenodd;stroke:black;stroke-width:1.90024996;stroke-linecap:butt;stroke-linejoin:miter;stroke-miterlimit:10;stroke-opacity:1;stroke-dasharray:none;stroke-dashoffset:0;marker:none;visibility:visible;display:inline;overflow:visible" sodipodi:type="arc" />
            <path transform="matrix(0.47448836,0,0,0.47275732,1.8507033,1030.0637)" d="m 23.157747,20.953165 c 0,0.976311 -0.791456,1.767767 -1.767767,1.767767 -0.97631,0 -1.767767,-0.791456 -1.767767,-1.767767 0,-0.976311 0.791457,-1.767767 1.767767,-1.767767 0.976311,0 1.767767,0.791456 1.767767,1.767767 z" sodipodi:ry="1.767767" sodipodi:rx="1.767767" sodipodi:cy="20.953165" sodipodi:cx="21.38998" id="path7034" style="fill:white;fill-opacity:1;fill-rule:evenodd;stroke:none;stroke-width:0.9999997;marker:none;visibility:visible;display:inline;overflow:visible" sodipodi:type="arc" />
        </g>
        <g id="g8463" transform="matrix(-0.0597685,-0.20214327,0.20288377,-0.05955048,10.648781,1044.2437)">
            <path sodipodi:nodetypes="ccssc" inkscape:r_cy="true" inkscape:r_cx="true" id="path6937" d="m -21.867446,22.469825 3.167705,2.99392 C -11.529027,19.909969 -3.9927711,7.9981439 -3.9927711,7.9981439 -2.2926917,6.0493572 -4.0813021,4.7493736 -5.8400227,5.9274855 c 0,0 -11.1431803,8.8029895 -16.0274233,16.5423395 z" style="fill:#ea8113;fill-opacity:1;fill-rule:nonzero;stroke:#4e2b05;stroke-width:1.89467454;stroke-linecap:round;stroke-linejoin:miter;stroke-miterlimit:4;stroke-opacity:1;stroke-dasharray:none;stroke-dashoffset:0;marker:none;visibility:visible;display:inline;overflow:visible" inkscape:connector-curvature="0" />
            <path sodipodi:nodetypes="ccccccccc" inkscape:r_cy="true" inkscape:r_cx="true" id="path6935" d="m -30.449715,32.813894 2.24632,1.93382 8.492766,-7.367031 0.275061,-0.705828 1.094405,-0.01782 c -0.4375,-1.5625 -2.941514,-4.383455 -4.816514,-4.383455 l 0.08202,1.090075 -0.669991,0.380027 -6.704066,9.070207 z" style="fill:black;fill-opacity:1;fill-rule:nonzero;stroke:gray;stroke-width:4.73668909;stroke-linecap:round;stroke-linejoin:miter;stroke-miterlimit:4;stroke-opacity:1;stroke-dasharray:none;stroke-dashoffset:0;marker:none;visibility:visible;display:inline;overflow:visible" inkscape:connector-curvature="0" />
            <path inkscape:r_cy="true" inkscape:r_cx="true" id="path6985" d="m -22.822429,27.329316 -4.364933,5.266471" style="fill:none;stroke:white;stroke-width:4.73668909;stroke-linecap:round;stroke-linejoin:round;stroke-miterlimit:4;stroke-opacity:1;stroke-dasharray:none;stroke-dashoffset:0;marker:none;visibility:visible;display:inline;overflow:visible" inkscape:connector-curvature="0" />
            <path sodipodi:nodetypes="cssc" inkscape:r_cy="true" inkscape:r_cx="true" id="path7040" d="m -45.341208,42.769835 c 10.443958,0 18.370039,1.24373 19.870605,-6.354738 1.209249,-6.123314 -7.210534,-9.057368 -11.38287,-3.590861 -4.019277,5.265971 -8.487735,9.945599 -8.487735,9.945599 z" style="fill:black;fill-opacity:1;fill-rule:nonzero;stroke:none;stroke-width:0.2;marker:none;visibility:visible;display:inline;overflow:visible" inkscape:connector-curvature="0" />
            <path transform="matrix(2.069903,0,0,2.069903,-44.75012,-41.50978)" inkscape:r_cy="true" inkscape:r_cx="true" d="m 8.8749989,37.75 c 0,0.690356 -0.559644,1.25 -1.2499999,1.25 -0.6903558,0 -1.2499998,-0.559644 -1.2499998,-1.25 0,-0.690356 0.559644,-1.25 1.2499998,-1.25 0.6903559,0 1.2499999,0.559644 1.2499999,1.25 z" sodipodi:ry="1.2499999" sodipodi:rx="1.2499999" sodipodi:cy="37.75" sodipodi:cx="7.624999" id="path6971" style="opacity:0.52777782;fill:white;fill-opacity:1;fill-rule:nonzero;stroke:none;stroke-width:1;marker:none;visibility:visible;display:inline;overflow:visible" sodipodi:type="arc" />
            <path sodipodi:type="arc" style="fill:white;fill-opacity:1;fill-rule:nonzero;stroke:none;stroke-width:1;marker:none;visibility:visible;display:inline;overflow:visible" id="path6983" sodipodi:cx="7.624999" sodipodi:cy="37.75" sodipodi:rx="1.2499999" sodipodi:ry="1.2499999" d="m 8.8749989,37.75 c 0,0.690356 -0.559644,1.25 -1.2499999,1.25 -0.6903558,0 -1.2499998,-0.559644 -1.2499998,-1.25 0,-0.690356 0.559644,-1.25 1.2499998,-1.25 0.6903559,0 1.2499999,0.559644 1.2499999,1.25 z" inkscape:r_cx="true" inkscape:r_cy="true" transform="matrix(1.396669,0,0,1.396669,-30.1058,-26.80516)" />
            <path sodipodi:nodetypes="cssc" inkscape:r_cy="true" inkscape:r_cx="true" id="path7044" d="m -38.543723,40.909242 c 0,0 3.72152,0.0943 6.116538,-1.411995 0.847351,-0.532923 1.515774,0.649985 0.493819,1.087367 -2.207394,0.944732 -6.610357,0.324628 -6.610357,0.324628 z" style="opacity:0.42777776;fill:url(#linearGradient3088);fill-opacity:1;fill-rule:nonzero;stroke:none;stroke-width:1;marker:none;visibility:visible;display:inline;overflow:visible" inkscape:connector-curvature="0" />
        </g>
        <path style="opacity:0.98999999;fill:url(#linearGradient3878)" inkscape:connector-curvature="0" d="m 8.9999987,1031.3622 10.6710783,0 c 0.664086,0 1.328922,0.5625 1.328922,1.3905 l 0,18.6095 -6.652508,0 -5.3474923,-20 z" id="path57-5-0" sodipodi:nodetypes="cssccc" />
    </g>
</svg>
