<?xml version="1.0" encoding="UTF-8" standalone="no"?>
<svg xmlns:dc="http://purl.org/dc/elements/1.1/" xmlns:cc="http://creativecommons.org/ns#" xmlns:rdf="http://www.w3.org/1999/02/22-rdf-syntax-ns#" xmlns:svg="http://www.w3.org/2000/svg" xmlns="http://www.w3.org/2000/svg" xmlns:xlink="http://www.w3.org/1999/xlink" xmlns:sodipodi="http://sodipodi.sourceforge.net/DTD/sodipodi-0.dtd" xmlns:inkscape="http://www.inkscape.org/namespaces/inkscape" viewBox="0 0 22 22" id="svg2" version="1.1" inkscape:version="0.48.4 r9939" width="100%" height="100%" sodipodi:docname="libreoffice-draw.svg">
    <metadata id="metadata68">
        <rdf:RDF>
            <cc:Work rdf:about="">
                <dc:format>image/svg+xml</dc:format>
                <dc:type rdf:resource="http://purl.org/dc/dcmitype/StillImage" />
            </cc:Work>
        </rdf:RDF>
    </metadata>
    <sodipodi:namedview pagecolor="#ffffff" bordercolor="#666666" borderopacity="1" objecttolerance="10" gridtolerance="10" guidetolerance="10" inkscape:pageopacity="0" inkscape:pageshadow="2" inkscape:window-width="1280" inkscape:window-height="976" id="namedview66" showgrid="true" inkscape:zoom="19.666666" inkscape:cx="24.49325" inkscape:cy="15.175357" inkscape:window-x="0" inkscape:window-y="24" inkscape:window-maximized="1" inkscape:current-layer="svg2">
        <inkscape:grid type="xygrid" id="grid3135" empspacing="5" visible="true" enabled="true" snapvisiblegridlinesonly="true" />
    </sodipodi:namedview>
    <defs id="defs4">
        <linearGradient gradientUnits="userSpaceOnUse" id="linearGradient3120" x2="0" y1="25.54085" y2="46.623249">
            <stop offset="0" stop-color="#fff" stop-opacity=".669" id="stop15" />
            <stop offset="1" stop-color="#fff" stop-opacity="0" id="stop17" />
        </linearGradient>
        <linearGradient inkscape:collect="always" xlink:href="#linearGradient3120" id="linearGradient3059" gradientUnits="userSpaceOnUse" y1="25.54085" x2="0" y2="46.623249" gradientTransform="translate(-1,-25)" />
        <linearGradient id="linearGradient3853">
            <stop style="stop-color:#ffffff;stop-opacity:1;" offset="0" id="stop3855" />
            <stop style="stop-color:#ffffff;stop-opacity:0;" offset="1" id="stop3857" />
        </linearGradient>
        <linearGradient inkscape:collect="always" xlink:href="#linearGradient3853" id="linearGradient3141" gradientUnits="userSpaceOnUse" gradientTransform="matrix(1,0,0,0.54285714,-6,-1.8)" x1="13" y1="7" x2="13" y2="42" />
        <linearGradient inkscape:collect="always" xlink:href="#linearGradient3157-5-5-7" id="linearGradient3162-4" gradientUnits="userSpaceOnUse" gradientTransform="matrix(0,-0.54738277,-0.54738277,0,27.405446,-2.3331096)" x1="-42.696152" x2="-5.8431101" />
        <linearGradient gradientTransform="matrix(0,-1,-1,0,1.6172605e-8,-1.5826913e-8)" x2="-5.8431101" x1="-42.696152" id="linearGradient3157-5-5-7" gradientUnits="userSpaceOnUse">
            <stop id="stop19-5-5" stop-color="#fff" offset="0" />
            <stop id="stop21-2-9" stop-color="#cdcdcd" offset="1" />
        </linearGradient>
        <linearGradient inkscape:collect="always" xlink:href="#linearGradient3866-5-8" id="linearGradient3164-3" gradientUnits="userSpaceOnUse" gradientTransform="matrix(0,-0.54738277,-0.54738277,0,27.405446,-2.3331096)" x1="-5" y1="-21" x2="-43" y2="-21" />
        <linearGradient id="linearGradient3866-5-8">
            <stop id="stop3868-5-9" offset="0" style="stop-color:#818181;stop-opacity:1;" />
            <stop id="stop3870-4-1" offset="1" style="stop-color:#7c5c0f;stop-opacity:1" />
        </linearGradient>
    </defs>
    <path inkscape:connector-curvature="0" style="color:black;fill:url(#linearGradient3162-4);fill-opacity:1;fill-rule:nonzero;stroke:url(#linearGradient3164-3);stroke-width:1;stroke-linecap:round;stroke-linejoin:round;stroke-miterlimit:4;stroke-opacity:1;stroke-dasharray:none;stroke-dashoffset:0;marker:none;visibility:visible;display:inline;overflow:visible;enable-background:accumulate" id="path36" d="m 3.5,0.5 h 15 a 2,2 0 0 1 2,2 v 17 a 2,2 0 0 1 -2,2 h -15 a 2,2 0 0 1 -2,-2 v -17 a 2,2 0 0 1 2,-2" />
    <path id="path3034" d="M 7,1 4.039808,1 C 2.935515,1 2,1.4924035 2,2 l 0,18 c 0,0.566053 0.942912,1 1.960192,1 L 7,21" style="color:black;fill:#e4aa1c;fill-opacity:1;fill-rule:nonzero;stroke:none;stroke-width:1;marker:none;visibility:visible;display:inline;overflow:visible;enable-background:accumulate" inkscape:connector-curvature="0" sodipodi:nodetypes="cssssc" />
    <path style="color:black;fill:#7c5c0f;fill-opacity:1;fill-rule:nonzero;stroke:none;stroke-width:1;marker:none;visibility:visible;display:inline;overflow:visible;enable-background:accumulate" d="M 6,2 7,2 7,21 6,21 z" id="rect3859" inkscape:connector-curvature="0" />
    <path style="opacity:0.5;color:black;fill:url(#linearGradient3141);fill-opacity:1;fill-rule:nonzero;stroke:none;stroke-width:1;marker:none;visibility:visible;display:inline;overflow:visible;enable-background:accumulate" d="M 7,2 8,2 8,21 7,21 z" id="rect3843" inkscape:connector-curvature="0" />
    <path inkscape:connector-curvature="0" style="fill:none;stroke:url(#linearGradient3059)" id="path38" d="m 3.5,1.5 h 15 a 1,1 0 0 1 1,1 v 17 a 1,1 0 0 1 -1,1 h -15 a 1,1 0 0 1 -1,-1 v -17 a 1,1 0 0 1 1,-1" />
    <g clip-path="none" clip-rule="nonzero" id="g8309" transform="matrix(0.13415706,0,0,0.13415706,55.882654,-21.439414)" />
    <path inkscape:connector-curvature="0" id="path13561" d="m 16.188411,15.957176 c -0.281903,-0.440764 -0.446226,-0.872016 -0.365157,-0.95834 0.173754,-0.185017 1.179923,1.063401 1.191125,1.477902 0.01354,0.501064 -0.298893,0.304537 -0.825968,-0.519562 z m -6.873049,-0.06467 c 0,-0.313143 1.270584,-1.501127 1.427169,-1.334389 0.08096,0.08621 -0.128735,0.463395 -0.465969,0.838209 -0.605674,0.673172 -0.9612,0.856699 -0.9612,0.49618 z m 2.66697,-1.382997 C 9.453494,13.286348 9.651218,9.773032 12.330817,8.317377 c 0.894156,-0.4857383 2.537482,-0.5913722 3.212801,-0.206522 0.643541,0.366744 0.282881,0.668443 -0.504627,0.422132 -2.059804,-0.6442495 -4.220565,0.982327 -4.22369,3.179505 -0.0011,0.824811 0.121016,1.121965 0.726444,1.766644 0.634562,0.675703 0.865691,0.775044 1.803215,0.775044 0.852109,0 1.215928,-0.125947 1.75244,-0.60666 0.928733,-0.83214 1.138556,-1.508666 0.763977,-2.463275 -0.510788,-1.301749 -1.740446,-1.65178 -2.770826,-0.78874 -0.755035,0.632415 -0.744237,1.463075 0.02466,1.896209 0.537406,0.302731 0.553122,0.346423 0.180343,0.50136 -0.607396,0.252449 -1.491006,-0.903821 -1.303206,-1.705343 0.196391,-0.838182 0.694169,-1.355308 1.545557,-1.605627 1.629904,-0.479214 3.056031,0.717513 3.056031,2.56445 0,0.992746 -0.675299,1.913922 -1.802813,2.459213 -1.097933,0.530984 -1.717024,0.53181 -2.808778,0.0037 z m 5.039745,-5.045716 c 0,-0.227632 1.238654,-1.133905 1.552046,-1.135567 0.389461,-0.0022 0.101186,0.456948 -0.560456,0.892371 -0.80989,0.53299 -0.99159,0.577553 -0.99159,0.243196 z M 8.8336918,9.066357 C 8.2281089,8.666552 8.0655661,8.327381 8.4795483,8.327381 c 0.3310209,0 1.4780387,0.745747 1.4780387,0.960964 0,0.291406 -0.494071,0.19382 -1.1238952,-0.221988 z M 13.267689,7.1334511 c -0.188413,-0.5228366 -0.02793,-1.8834514 0.222143,-1.8834514 0.293563,0 0.403455,1.7131573 0.12866,2.0057662 -0.152831,0.1627418 -0.261761,0.1247616 -0.350803,-0.1223158 z" style="color:black;fill:#7c5c0f;fill-opacity:1;fill-rule:nonzero;stroke:#7c5c0f;stroke-width:0.5;stroke-linecap:butt;stroke-linejoin:round;stroke-miterlimit:4;stroke-opacity:1;stroke-dasharray:none;stroke-dashoffset:0;marker:none;visibility:visible;display:inline;overflow:visible;enable-background:accumulate" />
</svg>
