<?xml version="1.0" encoding="UTF-8" standalone="no"?>
<!-- Created with Inkscape (http://www.inkscape.org/) -->

<svg xmlns:dc="http://purl.org/dc/elements/1.1/" xmlns:cc="http://creativecommons.org/ns#" xmlns:rdf="http://www.w3.org/1999/02/22-rdf-syntax-ns#" xmlns:svg="http://www.w3.org/2000/svg" xmlns="http://www.w3.org/2000/svg" xmlns:xlink="http://www.w3.org/1999/xlink" xmlns:sodipodi="http://sodipodi.sourceforge.net/DTD/sodipodi-0.dtd" xmlns:inkscape="http://www.inkscape.org/namespaces/inkscape" width="22" height="22" id="svg4223" version="1.1" inkscape:version="0.48.4 r9939" sodipodi:docname="system-software-install.svg" inkscape:export-filename="/home/rafa/Escriptori/lubuntu/lsc/lsc24.png" inkscape:export-xdpi="90" inkscape:export-ydpi="90">
    <sodipodi:namedview id="base" pagecolor="#ffffff" bordercolor="#666666" borderopacity="1.0" inkscape:pageopacity="0.0" inkscape:pageshadow="2" inkscape:zoom="16" inkscape:cx="22.269224" inkscape:cy="12.436119" inkscape:current-layer="layer1" showgrid="true" inkscape:document-units="px" inkscape:grid-bbox="true" inkscape:window-width="1280" inkscape:window-height="949" inkscape:window-x="0" inkscape:window-y="0" inkscape:window-maximized="1" showguides="true" inkscape:guide-bbox="true">
        <inkscape:grid type="xygrid" id="grid3978" empspacing="5" visible="true" enabled="true" snapvisiblegridlinesonly="true" />
    </sodipodi:namedview>
    <defs id="defs4225">
        <linearGradient id="linearGradient5267">
            <stop style="stop-color:#ffffff;stop-opacity:1;" offset="0" id="stop5269" />
            <stop style="stop-color:#cccccc;stop-opacity:1;" offset="1" id="stop5271" />
        </linearGradient>
        <linearGradient id="linearGradient3319-5">
            <stop id="stop3321-0" style="stop-color:#a79071;stop-opacity:1" offset="0" />
            <stop id="stop3323-9" style="stop-color:#6f5d45;stop-opacity:1" offset="1" />
        </linearGradient>
        <linearGradient id="linearGradient8967-0">
            <stop id="stop8969-8" style="stop-color:#ddcfbd;stop-opacity:1" offset="0" />
            <stop id="stop8971-8" style="stop-color:#856f50;stop-opacity:1" offset="1" />
        </linearGradient>
        <linearGradient id="linearGradient3707-319-631-407-324-616-674-812-821-107-178-392-400-6-9">
            <stop id="stop5440-4-3" style="stop-color:#272727;stop-opacity:1" offset="0" />
            <stop id="stop5442-3-9" style="stop-color:#454545;stop-opacity:1" offset="1" />
        </linearGradient>
        <linearGradient id="linearGradient2867-449-88-871-390-598-476-591-434-148-57-177-641-289-620-227-114-444-680-744-8-9">
            <stop id="stop5430-8-4" style="stop-color:#5f5f5f;stop-opacity:1" offset="0" />
            <stop id="stop5432-3-8" style="stop-color:#4f4f4f;stop-opacity:1" offset="0.26238" />
            <stop id="stop5434-1-1" style="stop-color:#3b3b3b;stop-opacity:1" offset="0.704952" />
            <stop id="stop5436-8-2" style="stop-color:#2b2b2b;stop-opacity:1" offset="1" />
        </linearGradient>
        <linearGradient id="linearGradient2867-449-88-871-390-598-476-591-434-148-57-177-641-289-620-227-114-444-680-744-8-7">
            <stop id="stop5430-8-6" style="stop-color:#5f5f5f;stop-opacity:1" offset="0" />
            <stop id="stop5432-3-5" style="stop-color:#4f4f4f;stop-opacity:1" offset="0.26238" />
            <stop id="stop5434-1-6" style="stop-color:#3b3b3b;stop-opacity:1" offset="0.704952" />
            <stop id="stop5436-8-9" style="stop-color:#2b2b2b;stop-opacity:1" offset="1" />
        </linearGradient>
        <linearGradient id="linearGradient3227">
            <stop id="stop3229" style="stop-color:#4d4d4d;stop-opacity:1" offset="0" />
            <stop id="stop3231" style="stop-color:#333333;stop-opacity:1" offset="1" />
        </linearGradient>
        <linearGradient id="linearGradient3702-501-757-4">
            <stop id="stop2895-00" style="stop-color:#181818;stop-opacity:0" offset="0" />
            <stop id="stop2897-4" style="stop-color:#181818;stop-opacity:1" offset="0.5" />
            <stop id="stop2899-6" style="stop-color:#181818;stop-opacity:0" offset="1" />
        </linearGradient>
        <linearGradient id="linearGradient3688-464-309-80">
            <stop id="stop2889-5" style="stop-color:#181818;stop-opacity:1" offset="0" />
            <stop id="stop2891-6" style="stop-color:#181818;stop-opacity:0" offset="1" />
        </linearGradient>
        <linearGradient id="linearGradient3688-166-749-19">
            <stop id="stop2883-69" style="stop-color:#181818;stop-opacity:1" offset="0" />
            <stop id="stop2885-3" style="stop-color:#181818;stop-opacity:0" offset="1" />
        </linearGradient>
        <linearGradient id="linearGradient3104-3-9">
            <stop offset="0" style="stop-color:#787878;stop-opacity:1" id="stop3106-7-0" />
            <stop offset="1" style="stop-color:#aaaaaa;stop-opacity:1" id="stop3108-2-0" />
        </linearGradient>
        <linearGradient id="linearGradient3600-6-7">
            <stop offset="0" style="stop-color:#f4f4f4;stop-opacity:1" id="stop3602-1-4" />
            <stop offset="1" style="stop-color:#dbdbdb;stop-opacity:1" id="stop3604-1-3" />
        </linearGradient>
        <linearGradient id="linearGradient2490-6">
            <stop id="stop2492-5" style="stop-color:#791235;stop-opacity:1" offset="0" />
            <stop id="stop2494-0" style="stop-color:#dd3b27;stop-opacity:1" offset="1" />
        </linearGradient>
        <linearGradient id="linearGradient3242-6">
            <stop id="stop3244-3" style="stop-color:#f89b7e;stop-opacity:1" offset="0" />
            <stop id="stop3246-0" style="stop-color:#e35d4f;stop-opacity:1" offset="0.26238" />
            <stop id="stop3248-2" style="stop-color:#c6262e;stop-opacity:1" offset="0.66093999" />
            <stop id="stop3250-1" style="stop-color:#690b2c;stop-opacity:1" offset="1" />
        </linearGradient>
        <radialGradient inkscape:collect="always" xlink:href="#linearGradient3688-166-749-19" id="radialGradient5224" gradientUnits="userSpaceOnUse" gradientTransform="matrix(2.003784,0,0,1.4,27.98813,-17.4)" cx="4.9929786" cy="43.5" fx="4.9929786" fy="43.5" r="2.5" />
        <radialGradient inkscape:collect="always" xlink:href="#linearGradient3688-464-309-80" id="radialGradient5226" gradientUnits="userSpaceOnUse" gradientTransform="matrix(2.003784,0,0,1.4,-20.01187,-104.4)" cx="4.9929786" cy="43.5" fx="4.9929786" fy="43.5" r="2.5" />
        <linearGradient inkscape:collect="always" xlink:href="#linearGradient3702-501-757-4" id="linearGradient5228" gradientUnits="userSpaceOnUse" x1="25.058096" y1="47.027729" x2="25.058096" y2="39.999443" />
        <linearGradient inkscape:collect="always" xlink:href="#linearGradient3600-6-7" id="linearGradient5230" gradientUnits="userSpaceOnUse" gradientTransform="matrix(0.20489618,0,0,0.21294832,7.5858103,41.522604)" x1="19.360001" y1="16.137854" x2="19.360001" y2="44.98436" />
        <linearGradient inkscape:collect="always" xlink:href="#linearGradient3104-3-9" id="linearGradient5232" gradientUnits="userSpaceOnUse" gradientTransform="matrix(0.20489618,0,0,0.21294832,7.5858103,41.728619)" x1="24" y1="44" x2="24" y2="3.8904724" />
        <radialGradient inkscape:collect="always" xlink:href="#linearGradient3242-6" id="radialGradient5234" gradientUnits="userSpaceOnUse" gradientTransform="matrix(0,0.33224487,-0.62958711,-1.4019414e-8,17.808237,40.580423)" cx="7.4956832" cy="8.4497671" fx="7.4956832" fy="8.4497671" r="19.99999" />
        <linearGradient inkscape:collect="always" xlink:href="#linearGradient2490-6" id="linearGradient5236" gradientUnits="userSpaceOnUse" gradientTransform="matrix(0.20453059,0,0,0.23498905,7.5796198,41.876485)" x1="24" y1="44" x2="24" y2="3.8990016" />
        <radialGradient inkscape:collect="always" xlink:href="#linearGradient5267" id="radialGradient5285" gradientUnits="userSpaceOnUse" gradientTransform="matrix(1,0,0,0.99852844,0,0.04622148)" cx="16.299917" cy="31.409895" fx="16.299917" fy="31.409895" r="5.2118235" />
        <linearGradient inkscape:collect="always" xlink:href="#linearGradient3227" id="linearGradient5287" gradientUnits="userSpaceOnUse" gradientTransform="matrix(0.22984508,0,0,0.22947091,10.783635,25.902593)" x1="7.5542169" y1="2.9999976" x2="7.5542169" y2="45.184376" />
        <radialGradient inkscape:collect="always" xlink:href="#linearGradient8967-0" id="radialGradient5327" gradientUnits="userSpaceOnUse" gradientTransform="matrix(0,0.62980801,-0.71781058,0,-0.86144002,2.6311784)" cx="24.501682" cy="6.6475959" fx="24.501682" fy="6.6475959" r="17.49832" />
        <linearGradient inkscape:collect="always" xlink:href="#linearGradient3319-5" id="linearGradient5329" gradientUnits="userSpaceOnUse" gradientTransform="matrix(0.15799941,0,0,0.16915362,-10.689136,17.305367)" x1="32.901409" y1="4.6481781" x2="32.901409" y2="61.481758" />
        <radialGradient inkscape:collect="always" xlink:href="#linearGradient2867-449-88-871-390-598-476-591-434-148-57-177-641-289-620-227-114-444-680-744-8-9" id="radialGradient5331" gradientUnits="userSpaceOnUse" gradientTransform="matrix(0.28462646,0.48682166,-0.44633268,0.26095404,5.9093513,12.819632)" cx="7.4956832" cy="8.4497671" fx="7.4956832" fy="8.4497671" r="19.99999" />
        <linearGradient inkscape:collect="always" xlink:href="#linearGradient3707-319-631-407-324-616-674-812-821-107-178-392-400-6-9" id="linearGradient5333" gradientUnits="userSpaceOnUse" gradientTransform="matrix(0.18053655,-0.10555298,0.1217919,0.2083114,-0.68049501,20.148226)" x1="24" y1="44" x2="24" y2="3.8990016" />
        <radialGradient inkscape:collect="always" xlink:href="#linearGradient2867-449-88-871-390-598-476-591-434-148-57-177-641-289-620-227-114-444-680-744-8-7" id="radialGradient5335" gradientUnits="userSpaceOnUse" gradientTransform="matrix(0.17049882,0.29161912,-0.24963985,0.1459551,5.7978316,15.88827)" cx="10.90426" cy="8.4497671" fx="10.90426" fy="8.4497671" r="19.99999" />
        <linearGradient inkscape:collect="always" xlink:href="#linearGradient3924-6-0" id="linearGradient3629-7" gradientUnits="userSpaceOnUse" gradientTransform="matrix(1.1356919,0,0,1.1814462,25.272868,22.892015)" x1="23.99999" y1="20.182753" x2="23.99999" y2="43" />
        <linearGradient id="linearGradient3924-6-0">
            <stop offset="0" style="stop-color:#ffffff;stop-opacity:1;" id="stop3926-6-2" />
            <stop offset="1" style="stop-color:#ffffff;stop-opacity:0;" id="stop3932-43-9" />
        </linearGradient>
        <radialGradient inkscape:collect="always" xlink:href="#linearGradient2867-449-88-871-390-598-476-591-434-148-57-177-7-2" id="radialGradient3635-0" gradientUnits="userSpaceOnUse" gradientTransform="matrix(0.50000023,0,-1.334677e-8,0.45464368,16.945055,51.050251)" cx="-11.890104" cy="8.6875706" fx="-11.890104" fy="8.6875706" r="19.99999" />
        <linearGradient id="linearGradient2867-449-88-871-390-598-476-591-434-148-57-177-7-2">
            <stop id="stop3750-1-6" style="stop-color:#90dbec;stop-opacity:1;" offset="0" />
            <stop id="stop3756-4-4" style="stop-color:#0f4e92;stop-opacity:1;" offset="1" />
        </linearGradient>
        <linearGradient inkscape:collect="always" xlink:href="#linearGradient4023-9" id="linearGradient3637-8" gradientUnits="userSpaceOnUse" gradientTransform="translate(29,-7.5)" x1="-24" y1="58.5" x2="-24" y2="71.5" />
        <linearGradient id="linearGradient4023-9">
            <stop id="stop4025-7" offset="0" style="stop-color:#31769f;stop-opacity:1;" />
            <stop id="stop4027-0" offset="1" style="stop-color:#122739;stop-opacity:1;" />
        </linearGradient>
        <linearGradient inkscape:collect="always" xlink:href="#linearGradient986-3-8" id="linearGradient3626-3" gradientUnits="userSpaceOnUse" gradientTransform="matrix(1.0416664,0,0,0.76712324,27.965987,42.000727)" x1="-13.407351" y1="10.427625" x2="-9.5673504" y2="26.070482" />
        <linearGradient id="linearGradient986-3-8" inkscape:collect="always">
            <stop id="stop988-9-6" offset="0" style="stop-color:#ffffff;stop-opacity:1;" />
            <stop id="stop990-4-8" offset="1" style="stop-color:#ffffff;stop-opacity:0;" />
        </linearGradient>
    </defs>
    <metadata id="metadata4228">
        <rdf:RDF>
            <cc:Work rdf:about="">
                <dc:format>image/svg+xml</dc:format>
                <dc:type rdf:resource="http://purl.org/dc/dcmitype/StillImage" />
                <dc:title />
            </cc:Work>
        </rdf:RDF>
    </metadata>
    <g inkscape:groupmode="layer" inkscape:label="Layer 1" id="layer1" transform="translate(0,-42)">
        <path id="path5240" d="m 20.5,50.953523 -2,-1.859226 7.32e-4,4.235061 z" style="color:#000000;fill:#8ec3e2;fill-opacity:1;fill-rule:nonzero;stroke:#005f93;stroke-width:0.99999988;stroke-linecap:butt;stroke-linejoin:round;stroke-miterlimit:4;stroke-opacity:1;stroke-dasharray:none;stroke-dashoffset:0;marker:none;visibility:visible;display:inline;overflow:visible;enable-background:accumulate" inkscape:connector-curvature="0" sodipodi:nodetypes="cccc" />
        <path sodipodi:nodetypes="cccc" inkscape:connector-curvature="0" style="color:#000000;fill:#8ec3e2;fill-opacity:1;fill-rule:nonzero;stroke:#005f93;stroke-width:0.99999994;stroke-linecap:butt;stroke-linejoin:round;stroke-miterlimit:4;stroke-opacity:1;stroke-dasharray:none;stroke-dashoffset:0;marker:none;visibility:visible;display:inline;overflow:visible;enable-background:accumulate" d="m 1.5,50.953523 2.3100332,-1.859226 -8.451e-4,4.235061 z" id="path4750" />
        <g id="g5275" transform="matrix(1.0612734,0,0,1.0628463,-1.7981349,14.024227)">
            <path inkscape:connector-curvature="0" d="m 21.01174,31.409729 c 0,2.598116 -2.10971,4.70432 -4.711764,4.70432 -2.602292,0 -4.711883,-2.106229 -4.711883,-4.70432 0,-2.597998 2.109591,-4.703988 4.711883,-4.703988 2.602054,0 4.711764,2.10599 4.711764,4.703988 l 0,0 z" id="path4328" style="fill:url(#radialGradient5285);fill-opacity:1;fill-rule:nonzero;stroke:url(#linearGradient5287);stroke-width:0.94156677;stroke-miterlimit:4;stroke-opacity:1;stroke-dasharray:none" />
            <path inkscape:connector-curvature="0" d="m 13.298381,31.526843 c 0.642647,0.01392 0.724419,-0.0028 0.724419,-0.0028" id="path4336" style="opacity:0.5;fill:none;stroke:#000000;stroke-width:0.62802505;stroke-linecap:round;stroke-linejoin:miter;stroke-miterlimit:4;stroke-opacity:1;stroke-dasharray:none" />
            <path inkscape:connector-curvature="0" d="m 16.083755,31.767025 2.506571,-2.554037" id="path4344" style="fill:none;stroke:#000000;stroke-width:0.56493998;stroke-linecap:round;stroke-linejoin:miter;stroke-miterlimit:4;stroke-opacity:1;stroke-dasharray:none" />
            <path inkscape:connector-curvature="0" d="M 16.466616,31.767054 14.773261,30.073699" id="path4346" style="fill:none;stroke:#000000;stroke-width:0.56493998;stroke-linecap:round;stroke-linejoin:miter;stroke-miterlimit:4;stroke-opacity:1;stroke-dasharray:none" />
            <path inkscape:connector-curvature="0" d="m 16.448409,31.561721 2.549819,-0.717958" id="path4348" style="fill:#ff0000;fill-rule:evenodd;stroke:#ff0000;stroke-width:0.56493998;stroke-linecap:round;stroke-linejoin:miter;stroke-miterlimit:4;stroke-opacity:1;stroke-dasharray:none" />
        </g>
        <g id="g5321" transform="translate(-0.17998277,25.842956)">
            <rect transform="matrix(0.86327901,-0.50472701,0.50472701,0.86327901,0,0)" width="7.6614208" height="9.4041615" rx="0.5" x="-9.4638653" y="18.139271" id="rect4314" style="fill:url(#radialGradient5327);fill-opacity:1;stroke:url(#linearGradient5329);stroke-width:1.0190413;stroke-linecap:round;stroke-linejoin:round;stroke-miterlimit:0;stroke-opacity:1;stroke-dasharray:none;stroke-dashoffset:0;display:inline" ry="0.5" />
            <path d="m 1.5826655,20.082874 c 0,0 3.3028047,5.649078 4.749884,8.124145 l -0.7221462,0.422212 c -0.1030589,0.06025 -0.23081,0.01957 -0.2963874,-0.0926 L 0.67998277,20.610639 z" id="path4316" style="color:#000000;fill:url(#radialGradient5331);fill-opacity:1;fill-rule:nonzero;stroke:url(#linearGradient5333);stroke-width:1;stroke-linecap:round;stroke-linejoin:round;stroke-miterlimit:4;stroke-opacity:1;stroke-dasharray:none;stroke-dashoffset:0;marker:none;visibility:visible;display:inline;overflow:visible;enable-background:accumulate" inkscape:connector-curvature="0" />
            <path d="m 5.6603562,20.536848 c -0.2139301,0.06605 -0.3602896,0.333173 -0.3602896,0.333173 l -0.1433061,0.219576 c 0,0 -0.107393,0.319865 -0.071687,0.386323 0.00436,0.290891 0.2155876,0.522986 0.3429351,0.769537 0.1321182,0.198358 0.078369,0.434109 0.2717541,0.600505 0.1071074,0.207172 0.341632,0.228283 0.5331118,0.31147 0.2273718,0.113937 0.5304284,0.258869 0.5310287,0.553965 -0.036025,0.481992 -0.3233738,0.894271 -0.5734733,1.291615 -0.1148184,0.08391 -2.502e-4,0.174345 0.04047,0.262764 0.038694,0.06663 0.068371,0.167587 0.1477193,0.0794 C 7.455992,24.715281 8.5333648,24.085381 9.6107386,23.455481 9.5434539,23.340398 9.4761695,23.225315 9.4088849,23.110233 8.9577334,23.137362 8.484036,23.160826 8.0567225,22.989858 7.7873507,22.865499 7.7866794,22.527219 7.7931652,22.272837 7.7922694,22.064619 7.92239,21.855164 7.8091081,21.655235 7.7606643,21.413522 7.5588169,21.308003 7.4271007,21.12746 7.252832,20.88789 7.1591174,20.569294 6.8992291,20.403546 c -0.306334,-0.145987 -0.6700184,-0.07572 -0.9817512,0.01936 -0.088772,0.0304 -0.1756659,0.06716 -0.2571216,0.113947 z" id="path4322" style="color:#000000;fill:url(#radialGradient5335);fill-opacity:1;fill-rule:nonzero;stroke:none;stroke-width:0.99999994;marker:none;visibility:visible;display:inline;overflow:visible;enable-background:accumulate" inkscape:connector-curvature="0" />
        </g>
        <g id="g5212" transform="translate(-1,1.1081184)">
            <g style="display:inline" id="g4354" transform="matrix(0.23223924,0,0,0.11118082,7.0815268,46.774504)">
                <g style="opacity:0.4" id="g4356" transform="matrix(1.052632,0,0,1.285713,-1.263158,-13.42854)">
                    <rect style="fill:url(#radialGradient5224);fill-opacity:1;stroke:none" id="rect4358" y="40" x="38" height="7" width="5" />
                    <rect style="fill:url(#radialGradient5226);fill-opacity:1;stroke:none" id="rect4360" transform="scale(-1,-1)" y="-47" x="-10" height="7" width="5" />
                    <rect style="fill:url(#linearGradient5228);fill-opacity:1;stroke:none" id="rect4362" y="40" x="10" height="7.0000005" width="28" />
                </g>
            </g>
            <path style="color:#000000;fill:url(#linearGradient5230);fill-opacity:1;fill-rule:nonzero;stroke:url(#linearGradient5232);stroke-width:0.99999982;stroke-linecap:round;stroke-linejoin:round;stroke-miterlimit:4;stroke-opacity:1;stroke-dasharray:none;stroke-dashoffset:0;marker:none;visibility:visible;display:inline;overflow:visible;enable-background:accumulate" d="m 16.49879,43.5 c 0,0 0.0043,4.60839 -0.0033,6.896361 -0.02663,0.410733 -0.434002,0.651911 -0.800529,0.595509 -2.20444,-0.0023 -4.409099,0.0045 -6.6133954,-0.0034 C 8.685852,50.96083 8.4534933,50.537995 8.5078327,50.157556 8.5100227,47.869443 8.5111227,43.5 8.5111227,43.5 z" id="path4364" inkscape:connector-curvature="0" sodipodi:nodetypes="ccccccc" />
            <path inkscape:connector-curvature="0" id="path4370" style="color:#000000;fill:#4d4d4d;fill-opacity:1;fill-rule:nonzero;stroke:none;stroke-width:1;marker:none;visibility:visible;display:inline;overflow:visible;enable-background:accumulate" d="m 13.794933,46.727737 c -0.66554,0 -1.205068,0.71887 -1.205068,1.605641 0,0.886771 0.539528,1.605641 1.205068,1.605641 0.66554,0 1.205067,-0.71887 1.205067,-1.605641 0,-0.886771 -0.539527,-1.605641 -1.205067,-1.605641 z m 0,0.535213 c 0.278169,0 0.502111,0.344775 0.502111,0.77606 l 0,0.588736 c 0,0.431284 -0.223942,0.77606 -0.502111,0.77606 -0.27817,0 -0.502112,-0.344776 -0.502112,-0.77606 l 0,-0.588736 c 0,-0.431285 0.223942,-0.77606 0.502112,-0.77606 z m -3.146272,2.078534 c 0.442462,0 0.884924,0 1.327386,0 -0.05096,0.181552 0.124427,0.60118 -0.135402,0.597511 -0.685568,0 -1.371135,0 -2.0567015,0 C 9.7965696,49.655371 9.6973537,49.293379 10,49.140219 c 0.354034,-0.33392 0.731039,-0.642605 1.059692,-1.006089 0.171084,-0.231286 0.156005,-0.645721 -0.118617,-0.777421 -0.280699,-0.152603 -0.602512,-0.03366 -0.873431,0.08602 -0.088841,0.100011 -0.3607298,0.212682 -0.2694677,-0.04402 -0.018907,-0.227196 -0.073378,-0.572275 0.2358997,-0.555845 0.504546,-0.13609 1.073516,-0.196524 1.549008,0.07741 0.389601,0.252995 0.4982,0.876213 0.22067,1.266788 -0.247458,0.383008 -0.618964,0.638408 -0.933156,0.950705 -0.07408,0.06777 -0.148132,0.135593 -0.221937,0.203722 z" />
            <path style="color:#000000;fill:url(#radialGradient5234);fill-opacity:1;fill-rule:nonzero;stroke:url(#linearGradient5236);stroke-width:0.99999994;stroke-linecap:square;stroke-linejoin:miter;stroke-miterlimit:4;stroke-opacity:1;stroke-dasharray:none;stroke-dashoffset:0;marker:none;visibility:visible;display:inline;overflow:visible;enable-background:accumulate" d="m 16.476696,43.500002 0.0233,2 -7.999996,0 0.00328,-2 z" id="path4382" inkscape:connector-curvature="0" sodipodi:nodetypes="ccccc" />
        </g>
        <path sodipodi:nodetypes="csssscc" inkscape:connector-curvature="0" id="rect5505-21" d="m 20.499727,51.5 0,10.5 c 0,0.623246 -0.865144,1.5 -1.499727,1.5 l -16,0 C 2.3654179,63.5 1.5,62.623246 1.5,62 l 0,-10.5005 z" style="color:#000000;fill:url(#radialGradient3635-0);fill-opacity:1;fill-rule:nonzero;stroke:url(#linearGradient3637-8);stroke-width:0.99999994;stroke-linecap:butt;stroke-linejoin:miter;stroke-miterlimit:4;stroke-opacity:1;stroke-dasharray:none;stroke-dashoffset:0;marker:none;visibility:visible;display:inline;overflow:visible;enable-background:accumulate" />
        <path inkscape:connector-curvature="0" d="m 12.08765,53.911151 c -0.11548,-0.0041 -0.753608,0.185927 -0.939212,0.421027 -0.559967,0.04058 -2.8201457,1.579924 -4.1454812,2.515355 l 0.00276,0.315769 c 0.603969,-0.232895 1.3320231,-0.490569 1.616631,-0.488497 0.055934,3.46e-4 0.099266,1.05e-4 0.1187467,0.0216 0.10912,0.1286 -0.3625079,0.752676 -0.8420512,1.457393 C 7.7734899,58.3383 7.5632386,58.639907 7.4419728,58.82315 l 0.1133546,0.207815 c 0.6592461,-0.825507 1.5822086,-1.97589 1.8119096,-2.0107 0.01227,-0.0017 0.02361,0.0066 0.03237,0.01066 0.04078,0.04985 -0.8028002,1.403517 -1.4804094,2.51307 l 0.2374916,0.2591 c 0.3295348,-0.453057 0.7780605,-1.106799 1.1241578,-1.584659 0.720223,-0.994412 1.351765,-1.923139 1.662512,-1.932396 0.01011,0 0.02307,0.0092 0.03238,0.01066 0.957428,0.0055 1.909022,2.415004 2.401077,3.91943 l 0.189861,-0.151787 c -0.235888,-1.682092 -0.788004,-4.453026 -1.943196,-5.22503 0.123759,-0.0825 0.12956,-0.507392 0.12956,-0.507392 l 0.334662,-0.421025 3.4e-5,3.4e-5 z M 15,56.999995 C 15,59.209138 13.209137,61 11,61 8.7908573,61 7,59.209138 7,56.999995 7,54.790861 8.7908573,53 11,53 c 2.209137,0 4,1.790861 4,3.999995 z" style="color:#000000;fill:#000000;fill-opacity:0.50196078;fill-rule:evenodd;stroke:none;stroke-width:1.41732287;marker:none;visibility:visible;display:inline;overflow:visible;enable-background:accumulate" id="path3799" />
        <path id="path3912-0" style="color:#000000;fill:#ffffff;fill-opacity:1;fill-rule:evenodd;stroke:none;stroke-width:1.41732287;marker:none;visibility:visible;display:inline;overflow:visible;enable-background:accumulate" d="m 12.08765,54.911152 c -0.11548,-0.0041 -0.753608,0.185927 -0.939212,0.421027 -0.559967,0.04058 -2.8201457,1.579925 -4.1454812,2.515354 l 0.00276,0.315769 c 0.603969,-0.232895 1.3320231,-0.490568 1.616631,-0.488496 0.055934,3.45e-4 0.099266,1.06e-4 0.1187467,0.0216 0.10912,0.128602 -0.3625079,0.752678 -0.8420512,1.457395 C 7.7734899,59.3383 7.5632386,59.639909 7.4419728,59.82315 l 0.1133546,0.207814 c 0.6592461,-0.825507 1.5822086,-1.975889 1.8119086,-2.010697 0.01228,-0.0017 0.02361,0.0066 0.03237,0.01066 0.04078,0.04985 -0.8027992,1.403516 -1.4804084,2.513071 l 0.2374916,0.259098 c 0.3295348,-0.453058 0.7780605,-1.106797 1.1241578,-1.584658 0.720222,-0.994411 1.351765,-1.923141 1.662512,-1.932396 0.01011,0 0.02307,0.0092 0.03238,0.01066 0.957429,0.0055 1.909022,2.415002 2.401077,3.919429 l 0.189862,-0.151786 c -0.235888,-1.682093 -0.788004,-4.453027 -1.943196,-5.225033 0.123759,-0.0825 0.12956,-0.507391 0.12956,-0.507391 l 0.334661,-0.421023 3.4e-5,3.4e-5 z M 15,57.999996 C 15,60.209138 13.209137,62 11,62 8.7908573,62 7,60.209138 7,57.999996 7,55.790861 8.7908573,54 11,54 c 2.209137,0 4,1.790861 4,3.999996 z" inkscape:connector-curvature="0" />
        <path sodipodi:nodetypes="csssscc" inkscape:connector-curvature="0" id="rect6741" d="m 19.5,52.5 0,9.341945 C 19.5,62.20651 19.154616,62.5 18.725596,62.5 l -15.3497826,-3e-6 C 2.9467941,62.499997 2.5,62.206507 2.5,61.841942 l 0,-9.341945 z" style="opacity:0.33658537;color:#000000;fill:none;stroke:url(#linearGradient3629-7);stroke-width:0.99999994;stroke-linecap:round;stroke-linejoin:round;stroke-miterlimit:4;stroke-opacity:1;stroke-dasharray:none;stroke-dashoffset:0;marker:none;visibility:visible;display:inline;overflow:visible;enable-background:accumulate" />
        <path sodipodi:nodetypes="ccccc" d="m 20,52 -6,0 3,11 3,0 z" id="path3333" style="opacity:0.98999999;color:#000000;fill:url(#linearGradient3626-3);fill-opacity:1;fill-rule:nonzero;stroke:none;stroke-width:0.99999982;marker:none;visibility:visible;display:inline;overflow:visible;enable-background:accumulate" inkscape:connector-curvature="0" />
    </g>
</svg>
