<?xml version="1.0" encoding="UTF-8" standalone="no"?>
<!-- Created with Inkscape (http://www.inkscape.org/) -->

<svg xmlns:dc="http://purl.org/dc/elements/1.1/" xmlns:cc="http://creativecommons.org/ns#" xmlns:rdf="http://www.w3.org/1999/02/22-rdf-syntax-ns#" xmlns:svg="http://www.w3.org/2000/svg" xmlns="http://www.w3.org/2000/svg" xmlns:xlink="http://www.w3.org/1999/xlink" xmlns:sodipodi="http://sodipodi.sourceforge.net/DTD/sodipodi-0.dtd" xmlns:inkscape="http://www.inkscape.org/namespaces/inkscape" version="1.0" width="22" height="22" id="svg3437" inkscape:version="0.48.4 r9939" sodipodi:docname="lxscreenshot.svg">
    <metadata id="metadata101">
        <rdf:RDF>
            <cc:Work rdf:about="">
                <dc:format>image/svg+xml</dc:format>
                <dc:type rdf:resource="http://purl.org/dc/dcmitype/StillImage" />
                <dc:title />
            </cc:Work>
        </rdf:RDF>
    </metadata>
    <sodipodi:namedview pagecolor="#ffffff" bordercolor="#666666" borderopacity="1" objecttolerance="10" gridtolerance="10" guidetolerance="10" inkscape:pageopacity="0" inkscape:pageshadow="2" inkscape:window-width="1280" inkscape:window-height="976" id="namedview99" showgrid="true" inkscape:zoom="13.352806" inkscape:cx="20.458854" inkscape:cy="12.300148" inkscape:window-x="0" inkscape:window-y="24" inkscape:window-maximized="1" inkscape:current-layer="svg3437" inkscape:snap-to-guides="false" inkscape:snap-grids="true" showguides="true" inkscape:guide-bbox="true" inkscape:snap-page="true" inkscape:snap-center="true" inkscape:snap-object-midpoints="true">
        <inkscape:grid type="xygrid" id="grid911" empspacing="5" visible="true" enabled="true" snapvisiblegridlinesonly="true" />
    </sodipodi:namedview>
    <defs id="defs3439">
        <filter id="filter3174-4" color-interpolation-filters="sRGB">
            <feGaussianBlur stdDeviation="1.71" id="feGaussianBlur3176-2" />
        </filter>
        <linearGradient gradientTransform="scale(1.0058652,0.994169)" gradientUnits="userSpaceOnUse" id="ButtonShadow-91" y2="7.0165396" x2="45.447727" y1="92.539597" x1="45.447727">
            <stop offset="0" style="stop-color:#000000;stop-opacity:1" id="stop3750-4" />
            <stop offset="1" style="stop-color:#000000;stop-opacity:0.58823532" id="stop3752-2" />
        </linearGradient>
        <linearGradient x1="45.447727" y1="92.539597" x2="45.447727" y2="7.0165396" id="ButtonShadow-9" gradientUnits="userSpaceOnUse" gradientTransform="scale(1.0058652,0.994169)">
            <stop id="stop3750-3" style="stop-color:#000000;stop-opacity:1" offset="0" />
            <stop id="stop3752-0" style="stop-color:#000000;stop-opacity:0.58823532" offset="1" />
        </linearGradient>
        <filter color-interpolation-filters="sRGB" id="filter3174-2">
            <feGaussianBlur id="feGaussianBlur3176-1" stdDeviation="1.71" />
        </filter>
        <linearGradient x1="45.447727" y1="92.539597" x2="45.447727" y2="7.0165396" id="ButtonShadow" gradientUnits="userSpaceOnUse" gradientTransform="scale(1.0058652,0.994169)">
            <stop id="stop3750" style="stop-color:#000000;stop-opacity:1" offset="0" />
            <stop id="stop3752" style="stop-color:#000000;stop-opacity:0.58823532" offset="1" />
        </linearGradient>
        <filter color-interpolation-filters="sRGB" id="filter3174">
            <feGaussianBlur id="feGaussianBlur3176" stdDeviation="1.71" />
        </filter>
        <linearGradient y2="40.005699" x2="0" y1="30.215" gradientTransform="matrix(-0.1918139,0.19143385,-0.11326325,-0.11303692,26.513982,14.37999)" gradientUnits="userSpaceOnUse" id="linearGradient3098" xlink:href="#linearGradient3665" inkscape:collect="always" />
        <linearGradient y2="40.005699" x2="0" y1="30.215" gradientTransform="matrix(0.1918139,-0.19143385,0.11326325,0.11303692,4.648748,16.813263)" gradientUnits="userSpaceOnUse" id="linearGradient3096" xlink:href="#linearGradient3657" inkscape:collect="always" />
        <linearGradient y2="40.9212" x2="0" y1="30.5275" gradientTransform="matrix(0.4488938,0,0,0.44757003,1.37046,-0.34316853)" gradientUnits="userSpaceOnUse" id="linearGradient3094" xlink:href="#linearGradient3655" inkscape:collect="always" />
        <linearGradient y2="35" y1="35" gradientTransform="matrix(0.34883721,0,0,0.33333336,-6.6511629,-5.6666675)" x2="59.200001" x1="24.800001" spreadMethod="reflect" gradientUnits="userSpaceOnUse" id="linearGradient3077" xlink:href="#linearGradient3649" inkscape:collect="always" />
        <linearGradient gradientTransform="matrix(0.67115517,0,0,0.67115517,-11.237363,-13.910304)" y2="40.9212" x2="0" y1="30.5275" gradientUnits="userSpaceOnUse" id="linearGradient3074" xlink:href="#linearGradient3651" inkscape:collect="always" />
        <linearGradient gradientTransform="matrix(0.47939375,0,0,-0.47939382,-5.1694545,27.078692)" y2="40.888199" x2="0" y1="30.4946" gradientUnits="userSpaceOnUse" id="linearGradient3062" xlink:href="#linearGradient3659" inkscape:collect="always" />
        <linearGradient gradientTransform="matrix(0.3170724,0,0,-0.26666755,-5.3170572,-2.3667199)" y2="-69.329102" x2="0" y1="-41.968899" gradientUnits="userSpaceOnUse" id="linearGradient3059" xlink:href="#linearGradient3661" inkscape:collect="always" />
        <linearGradient gradientTransform="matrix(0.3170724,0,0,0.42857149,-5.3170572,-7.1428588)" y2="22.5408" x2="0" y1="29.4592" gradientUnits="userSpaceOnUse" id="linearGradient3056" xlink:href="#linearGradient3663" inkscape:collect="always" />
        <radialGradient gradientTransform="matrix(0.59101654,0,0,0.50658564,-20.992612,-6.5548632)" r="5.9219999" cy="28.7313" cx="43.133499" gradientUnits="userSpaceOnUse" id="radialGradient3046" xlink:href="#radialGradient3669" inkscape:collect="always" />
        <radialGradient r="5.9219999" id="radialGradient3669" gradientUnits="userSpaceOnUse" cy="28.7313" cx="43.133499">
            <stop id="stop72" stop-color="#fff" offset="0" />
            <stop id="stop74" stop-opacity="0" stop-color="#fff" offset="1" />
        </radialGradient>
        <linearGradient y2="40.005699" y1="30.215" x2="0" id="linearGradient3665" gradientUnits="userSpaceOnUse">
            <stop id="stop62" stop-color="#f0f" offset="0" />
            <stop id="stop64" stop-opacity="0" stop-color="#f0f" offset="1" />
        </linearGradient>
        <linearGradient y2="22.5408" y1="29.4592" x2="0" id="linearGradient3663" gradientUnits="userSpaceOnUse">
            <stop id="stop57" stop-color="#fff" offset="0" />
            <stop id="stop59" stop-opacity="0" stop-color="#dedede" offset="1" />
        </linearGradient>
        <linearGradient y2="-69.329102" y1="-41.968899" x2="0" id="linearGradient3661" gradientUnits="userSpaceOnUse">
            <stop id="stop52" stop-color="#dedede" offset="0" />
            <stop id="stop54" stop-opacity="0" stop-color="#dedede" offset="1" />
        </linearGradient>
        <linearGradient y2="40.888199" y1="30.4946" x2="0" id="linearGradient3659" gradientUnits="userSpaceOnUse">
            <stop id="stop47" stop-color="#fff" offset="0" />
            <stop id="stop49" stop-color="#545454" offset="1" />
        </linearGradient>
        <linearGradient y2="40.005699" y1="30.215" x2="0" id="linearGradient3657" gradientUnits="userSpaceOnUse">
            <stop id="stop42" stop-color="#0f0" offset="0" />
            <stop id="stop44" stop-opacity="0" stop-color="#0f0" offset="1" />
        </linearGradient>
        <linearGradient y2="40.9212" y1="30.5275" x2="0" id="linearGradient3655" gradientUnits="userSpaceOnUse">
            <stop id="stop37" stop-color="#8aaec7" offset="0" />
            <stop id="stop39" stop-color="#124275" offset="1" />
        </linearGradient>
        <linearGradient y2="40.9212" y1="30.5275" x2="0" id="linearGradient3651" gradientUnits="userSpaceOnUse">
            <stop id="stop32" stop-color="#fff" offset="0" />
            <stop id="stop34" stop-color="#959698" offset="1" />
        </linearGradient>
        <linearGradient x2="63.373402" x1="41.789299" spreadMethod="reflect" id="linearGradient3649" gradientUnits="userSpaceOnUse">
            <stop id="stop27" stop-color="#eef2f3" offset="0" />
            <stop id="stop29" stop-color="#a2a8a8" offset="1" />
        </linearGradient>
        <linearGradient id="linearGradient3860-2-5-2">
            <stop style="stop-color:#41afff;stop-opacity:1" offset="0" id="stop3862-0-4-4" />
            <stop style="stop-color:#0b283b;stop-opacity:1" offset="1" id="stop3866-9-5-9" />
        </linearGradient>
        <linearGradient id="linearGradient1072-0-7">
            <stop style="stop-color:#dedede;stop-opacity:1;" offset="0" id="stop1074-1-9" />
            <stop style="stop-color:gray;stop-opacity:1;" offset="1" id="stop1076-2-2" />
        </linearGradient>
        <linearGradient id="linearGradient4226-5">
            <stop id="stop4228-3" offset="0" style="stop-color:#4f92dd;stop-opacity:1;" />
            <stop id="stop4230-0" offset="1" style="stop-color:#153f6e;stop-opacity:1;" />
        </linearGradient>
        <linearGradient id="linearGradient4000">
            <stop style="stop-color:aqua;stop-opacity:1;" offset="0" id="stop4002" />
            <stop style="stop-color:white;stop-opacity:0;" offset="1" id="stop4004" />
        </linearGradient>
        <linearGradient id="linearGradient3919">
            <stop style="stop-color:white;stop-opacity:1;" offset="0" id="stop3921" />
            <stop style="stop-color:white;stop-opacity:0;" offset="1" id="stop3923" />
        </linearGradient>
        <filter id="filter3174-5" color-interpolation-filters="sRGB">
            <feGaussianBlur stdDeviation="1.71" id="feGaussianBlur3176-11" />
        </filter>
        <linearGradient gradientTransform="scale(1.0058652,0.994169)" gradientUnits="userSpaceOnUse" id="ButtonShadow-0" y2="7.0165396" x2="45.447727" y1="92.539597" x1="45.447727">
            <stop offset="0" style="stop-color:#000000;stop-opacity:1" id="stop3750-6" />
            <stop offset="1" style="stop-color:#000000;stop-opacity:0.58823532" id="stop3752-03" />
        </linearGradient>
        <filter id="filter3174-2-9" color-interpolation-filters="sRGB">
            <feGaussianBlur stdDeviation="1.71" id="feGaussianBlur3176-1-8" />
        </filter>
        <linearGradient gradientTransform="scale(1.0058652,0.994169)" gradientUnits="userSpaceOnUse" id="ButtonShadow-9-6" y2="7.0165396" x2="45.447727" y1="92.539597" x1="45.447727">
            <stop offset="0" style="stop-color:#000000;stop-opacity:1" id="stop3750-3-8" />
            <stop offset="1" style="stop-color:#000000;stop-opacity:0.58823532" id="stop3752-0-7" />
        </linearGradient>
        <linearGradient y2="25.48744" y1="-5.7136502" x2="31.74275" x1="8.2114201" id="linearGradient4594-3-4" gradientUnits="userSpaceOnUse">
            <stop id="stop37-5-1-9" stop-color="#fff" offset="0" />
            <stop id="stop39-0-8" stop-opacity="0" stop-color="#fff" offset="1" />
        </linearGradient>
        <linearGradient x1="45.447727" y1="92.539597" x2="45.447727" y2="7.0165396" id="ButtonShadow-91-5" gradientUnits="userSpaceOnUse" gradientTransform="scale(1.0058652,0.994169)">
            <stop id="stop3750-4-3" style="stop-color:#000000;stop-opacity:1" offset="0" />
            <stop id="stop3752-2-8" style="stop-color:#000000;stop-opacity:0.58823532" offset="1" />
        </linearGradient>
        <filter color-interpolation-filters="sRGB" id="filter3174-4-2">
            <feGaussianBlur id="feGaussianBlur3176-2-7" stdDeviation="1.71" />
        </filter>
        <linearGradient id="linearGradient965-3">
            <stop style="stop-color:#ffffff;stop-opacity:0.31451613;" offset="0" id="stop967-9" />
            <stop style="stop-color:#ffffff;stop-opacity:0;" offset="1" id="stop969-2" />
        </linearGradient>
        <linearGradient inkscape:collect="always" xlink:href="#ButtonShadow-0" id="linearGradient3193" gradientUnits="userSpaceOnUse" gradientTransform="scale(1.0058652,0.994169)" x1="45.447727" y1="92.539597" x2="45.447727" y2="7.0165396" />
        <linearGradient inkscape:collect="always" xlink:href="#ButtonShadow-91-5" id="linearGradient3195" gradientUnits="userSpaceOnUse" gradientTransform="scale(1.0058652,0.994169)" x1="45.447727" y1="92.539597" x2="45.447727" y2="7.0165396" />
        <linearGradient inkscape:collect="always" xlink:href="#ButtonShadow-9-6" id="linearGradient3197" gradientUnits="userSpaceOnUse" gradientTransform="scale(1.0058652,0.994169)" x1="45.447727" y1="92.539597" x2="45.447727" y2="7.0165396" />
        <linearGradient inkscape:collect="always" xlink:href="#linearGradient3919" id="linearGradient3199" gradientUnits="userSpaceOnUse" gradientTransform="matrix(0.03281251,0,0,0.0323016,3.0000001,5.0841647)" x1="238" y1="402.34906" x2="238" y2="554.73877" />
        <radialGradient inkscape:collect="always" xlink:href="#linearGradient3919" id="radialGradient3201" gradientUnits="userSpaceOnUse" gradientTransform="matrix(0.02686579,0,-4.2862521e-4,0.00613599,6.3007177,20.303041)" cx="494.39099" cy="640.9693" fx="494.39099" fy="640.9693" r="901" />
        <radialGradient inkscape:collect="always" xlink:href="#linearGradient4000" id="radialGradient3203" gradientUnits="userSpaceOnUse" gradientTransform="matrix(0.03253015,-0.008981,0.00279943,0.0102505,1.5743837,22.968178)" cx="626.90698" cy="692.79584" fx="626.90698" fy="692.79584" r="640" />
        <linearGradient inkscape:collect="always" xlink:href="#linearGradient4594-3-4" id="linearGradient3210" gradientUnits="userSpaceOnUse" gradientTransform="matrix(0.38669457,0,0,0.46575342,3.1455217,-1.7945199)" x1="8.2114201" y1="-5.7136502" x2="31.74275" y2="25.48744" />
        <linearGradient inkscape:collect="always" xlink:href="#linearGradient965-3" id="linearGradient3213" gradientUnits="userSpaceOnUse" gradientTransform="matrix(0.39534884,0,0,0.516129,0.51162686,-2.8870969)" x1="23.429665" y1="8.403966" x2="23.429665" y2="39.357925" />
        <linearGradient inkscape:collect="always" xlink:href="#linearGradient1072-0-7" id="linearGradient3233" gradientUnits="userSpaceOnUse" gradientTransform="matrix(0.90835414,0,0,0.88672678,-3.898846,-16.192828)" x1="23.362995" y1="36.5" x2="23.362995" y2="38.406406" />
        <linearGradient inkscape:collect="always" xlink:href="#linearGradient4226-5" id="linearGradient3236" gradientUnits="userSpaceOnUse" gradientTransform="matrix(0.97374705,0,0,0.95056273,-2.6103875,-18.606318)" x1="23.362995" y1="36.5" x2="23.362995" y2="38.406406" />
        <radialGradient inkscape:collect="always" xlink:href="#linearGradient3860-2-5-2" id="radialGradient3239" gradientUnits="userSpaceOnUse" gradientTransform="matrix(0.01637919,0,0,0.01595627,-0.55107664,0.57169675)" cx="640" cy="538.36218" fx="640" fy="538.36218" r="640" />
    </defs>
    <rect style="color:black;fill:url(#radialGradient3239);fill-opacity:1;fill-rule:evenodd;stroke:#0d354f;stroke-width:0.99999994;stroke-linecap:butt;stroke-linejoin:miter;stroke-miterlimit:4;stroke-opacity:1;stroke-dasharray:none;stroke-dashoffset:0;marker:none;visibility:visible;display:inline;overflow:visible;enable-background:accumulate" id="rect990-9" width="19" height="18" x="0.5" y="0.5" ry="1.8947369" />
    <path style="color:black;fill:url(#linearGradient3236);fill-opacity:1;fill-rule:nonzero;stroke:none;stroke-width:0.99999994;marker:none;visibility:visible;display:inline;overflow:visible;enable-background:accumulate" d="m 1,16 0,0.576355 C 1,17.417911 1.5516207,18 2.4501232,18 L 5,18 5,16 z" id="path1006" inkscape:connector-curvature="0" sodipodi:nodetypes="cssccc" />
    <path style="color:black;fill:url(#linearGradient3233);fill-opacity:1;fill-rule:nonzero;stroke:none;stroke-width:0.99999994;marker:none;visibility:visible;display:inline;overflow:visible;enable-background:accumulate" d="m 5,16 0,2 15,0 c 0.379887,0 1,-0.446 1,-1 l 0,-1 z" id="rect1066" inkscape:connector-curvature="0" sodipodi:nodetypes="ccsscc" />
    <g id="layer2-8" style="display:none" transform="translate(-24.686565,-203.78881)">
        <rect width="86" height="85" rx="6" ry="6" x="5" y="7" id="rect3745-2" style="opacity:0.9;fill:url(#linearGradient3193);fill-opacity:1;fill-rule:nonzero;stroke:none;filter:url(#filter3174-5)" />
    </g>
    <g id="layer4-2" transform="translate(-24.686565,-203.78881)" />
    <g id="layer2-0-8" style="display:none" transform="translate(1.877816,-193.33495)">
        <rect width="86" height="85" rx="6" ry="6" x="5" y="7" id="rect3745-7-6" style="opacity:0.9;fill:url(#linearGradient3195);fill-opacity:1;fill-rule:nonzero;stroke:none;filter:url(#filter3174-4-2)" />
    </g>
    <g id="layer4-3-7" transform="translate(1.877816,-193.33495)" />
    <g id="layer2-1-2" style="display:none" transform="translate(58.002817,-190.39972)">
        <rect width="86" height="85" rx="6" ry="6" x="5" y="7" id="rect3745-1-4" style="opacity:0.9;fill:url(#linearGradient3197);fill-opacity:1;fill-rule:nonzero;stroke:none;filter:url(#filter3174-2-9)" />
    </g>
    <g id="layer4-8-3" transform="translate(58.002817,-190.39972)" />
    <g id="g3970" transform="matrix(0.47619047,0,0,0.47022455,-0.42857145,-1.5831438)">
        <path style="opacity:0.75;color:black;fill:url(#linearGradient3199);fill-opacity:1;fill-rule:evenodd;stroke:none;stroke-width:1;marker:none;visibility:visible;display:inline;overflow:visible;enable-background:accumulate" d="m 28.157678,23.840981 c -18.7717853,16.106013 -9.385893,8.053006 0,0 z m -25.1576779,-3.889803 0,4.180902 C 20.772212,14.686702 26.839982,30.246578 45.000001,26.76984 l 0,-4.565971 C 25.971671,31.993788 23.292653,15.428314 3.0000001,19.951178 z m 0,5.292477 0,2.106539 C 11.770334,19.193798 22.18458,23.21465 22.18458,23.21465 c 0,0 -9.39336,-4.448766 -19.1845799,2.029005 z" id="path3913" inkscape:connector-curvature="0" sodipodi:nodetypes="ccccccccccc" />
        <path sodipodi:nodetypes="ccccccccc" inkscape:connector-curvature="0" id="path3927" d="m 45.000001,14 c -12.346987,16.012688 -27.00879,9.660195 -27.00879,9.660195 0,0 13.224589,7.250979 27.00879,-5.761795 z m -42.0000009,4.905806 0,1.959293 c 13.3208039,0.02074 20.8913459,14.581997 42.0000009,6.828759 l 0,-7.73825 C 26.507562,34.249817 17.016075,22.59542 3.0000001,18.905806 z" style="opacity:0.75;color:black;fill:url(#radialGradient3201);fill-opacity:1;fill-rule:evenodd;stroke:none;stroke-width:1;marker:none;visibility:visible;display:inline;overflow:visible;enable-background:accumulate" />
        <path style="opacity:0.75;color:black;fill:url(#radialGradient3203);fill-opacity:1;fill-rule:nonzero;stroke:none;stroke-width:0.84909761;marker:none;visibility:visible;display:inline;overflow:visible;enable-background:accumulate" d="m 3.0000001,25.426695 c 7.4710259,2.666139 16.8423219,-1.074621 16.8423219,-1.074621 0,0 -8.118387,3.745029 -16.8423219,2.265835 z m 42.0000009,-9.222502 0,2.486787 C 27.227789,17.194399 21.16002,27.856517 3.0000001,30 l 0,-2.715824 C 22.02833,28.694385 24.707347,18.220017 45.000001,16.204193 z m 0,3.147947 0,1.252963 c -8.770335,-2.817495 -19.184579,1.989228 -19.184579,1.989228 0,0 9.39336,-4.824495 19.184579,-3.242191 z" id="path3959" inkscape:connector-curvature="0" sodipodi:nodetypes="ccccccccccccc" />
    </g>
    <rect style="opacity:0.75;color:black;fill:white;fill-opacity:1;fill-rule:nonzero;stroke:none;stroke-width:0.99999994;marker:none;visibility:visible;display:inline;overflow:visible;enable-background:accumulate" id="rect4234" width="2" height="2" x="4" y="3" ry="0.66666669" />
    <rect y="5" x="3" height="1" width="4" id="rect4236" style="opacity:0.75;color:black;fill:white;fill-opacity:1;fill-rule:nonzero;stroke:none;stroke-width:0.99999994;marker:none;visibility:visible;display:inline;overflow:visible;enable-background:accumulate" />
    <rect ry="0.66666669" y="7" x="4" height="2" width="2" id="rect3241" style="opacity:0.75;color:black;fill:white;fill-opacity:1;fill-rule:nonzero;stroke:none;stroke-width:0.99999994;marker:none;visibility:visible;display:inline;overflow:visible;enable-background:accumulate" />
    <rect style="opacity:0.75;color:black;fill:white;fill-opacity:1;fill-rule:nonzero;stroke:none;stroke-width:0.99999994;marker:none;visibility:visible;display:inline;overflow:visible;enable-background:accumulate" id="rect3243" width="4" height="1" x="3" y="9" />
    <rect ry="0.94117647" y="1.4999999" x="1.5" height="16" width="17" id="rect963" style="color:black;fill:none;stroke:url(#linearGradient3213);stroke-width:0.99999976;stroke-opacity:1;marker:none;visibility:visible;display:inline;overflow:visible;enable-background:accumulate" />
    <path style="opacity:0.98999999;fill:url(#linearGradient3210)" inkscape:connector-curvature="0" d="m 10,1 7.499999,0 C 18.529222,1 19,1.5203903 19,2.7894738 L 19,18 14.010619,18 z" id="path57-5" sodipodi:nodetypes="cssccc" />
    <g id="layer2" style="display:none" transform="translate(-23.686565,-203.78881)">
        <rect width="86" height="85" rx="6" ry="6" x="5" y="7" id="rect3745" style="opacity:0.9;fill:url(#ButtonShadow);fill-opacity:1;fill-rule:nonzero;stroke:none;filter:url(#filter3174)" />
    </g>
    <g id="layer4" transform="translate(-23.686565,-203.78881)" />
    <g id="layer2-0" style="display:none" transform="translate(2.877816,-193.33495)">
        <rect width="86" height="85" rx="6" ry="6" x="5" y="7" id="rect3745-7" style="opacity:0.9;fill:url(#ButtonShadow-91);fill-opacity:1;fill-rule:nonzero;stroke:none;filter:url(#filter3174-4)" />
    </g>
    <g id="layer4-3" transform="translate(2.877816,-193.33495)" />
    <g id="layer2-1" style="display:none" transform="translate(59.002817,-190.39972)">
        <rect width="86" height="85" rx="6" ry="6" x="5" y="7" id="rect3745-1" style="opacity:0.9;fill:url(#ButtonShadow-9);fill-opacity:1;fill-rule:nonzero;stroke:none;filter:url(#filter3174-2)" />
    </g>
    <g id="layer4-8" transform="translate(59.002817,-190.39972)" />
    <g id="g3164" transform="translate(6,7)">
        <path d="M 1.4374993,1.4999996 H 14.562501 A 0.9375,0.90086674 0 0 1 15.5,2.4008662 V 13.599134 A 0.9375,0.90086674 0 0 1 14.562501,14.5 H 1.4374993 A 0.9375,0.90086674 0 0 1 0.49999979,13.599134 V 2.4008662 A 0.9375,0.90086674 0 0 1 1.4374993,1.4999996" id="path88" style="fill:url(#linearGradient3077);stroke:#424242;stroke-width:0.99999964" inkscape:connector-curvature="0" />
        <path d="M 1.9333435,13.5 H 14.066657 A 0.43334284,0.36362787 0 0 0 14.5,13.136372 V 5.8636272 A 0.43334284,0.36362787 0 0 0 14.066657,5.4999995 H 1.9333435 A 0.43334284,0.36362787 0 0 0 1.4999998,5.8636272 V 13.136372 A 0.43334284,0.36362787 0 0 0 1.9333435,13.5" id="path100" style="fill:none;stroke:url(#linearGradient3059);stroke-width:0.99999952" inkscape:connector-curvature="0" />
        <path d="M 1.9333435,2.4999997 H 14.066658 A 0.43334284,0.60000009 0 0 1 14.5,3.0999999 v 1.8 A 0.43334284,0.60000009 0 0 1 14.066658,5.5000002 H 1.9333435 A 0.43334284,0.60000009 0 0 1 1.4999998,4.8999999 v -1.8 A 0.43334284,0.60000009 0 0 1 1.9333435,2.4999997" id="path102" style="fill:none;stroke:url(#linearGradient3056);stroke-width:0.99999946" inkscape:connector-curvature="0" />
        <path d="m 13.500008,10.000001 c 0,1.932993 -1.567014,3.500007 -3.5000089,3.500007 -1.9329928,0 -3.5000064,-1.567014 -3.5000064,-3.500007 0,-1.9329954 1.5670136,-3.5000079 3.5000064,-3.5000079 1.9329949,0 3.5000089,1.5670125 3.5000089,3.5000079 z" id="path90" style="fill:url(#linearGradient3074);stroke:#616161;stroke-width:0.99998492;stroke-opacity:1" inkscape:connector-curvature="0" />
        <path d="m 12.499991,10.000001 c 0,-1.3807025 -1.11929,-2.4999916 -2.4999918,-2.4999916 -1.3807025,0 -2.4999902,1.1192891 -2.4999902,2.4999916 0,1.380702 1.1192877,2.49999 2.4999902,2.49999 1.3807018,0 2.4999918,-1.119288 2.4999918,-2.49999 z" id="path98" style="fill:none;stroke:url(#linearGradient3062);stroke-width:1.000018" inkscape:connector-curvature="0" />
        <g transform="matrix(0.85435875,0,0,0.85688573,-3.3064709,-3.3689448)" id="g3088">
            <g id="g3083">
                <path d="m 17.915742,15.601783 c 0,1.289046 -1.048078,2.334033 -2.340937,2.334033 -1.292858,0 -2.340937,-1.044987 -2.340937,-2.334033 0,-1.289047 1.048079,-2.334034 2.340937,-2.334034 1.292859,0 2.340937,1.044987 2.340937,2.334034 z" id="path94" style="fill:url(#linearGradient3094)" inkscape:connector-curvature="0" />
                <path d="m 15.753676,13.784421 c 0.32621,0.325557 0.14281,1.036436 -0.409634,1.587786 -0.552443,0.551348 -1.264737,0.734389 -1.590946,0.408831 -0.326209,-0.325557 -0.14281,-1.036436 0.409633,-1.587785 0.552443,-0.551347 1.264737,-0.734389 1.590947,-0.408832 z" id="path96" style="fill:url(#linearGradient3096)" inkscape:connector-curvature="0" />
                <path d="m 15.409053,17.408832 c -0.326209,-0.325557 -0.14281,-1.036436 0.409634,-1.587785 0.552444,-0.551349 1.264737,-0.73439 1.590947,-0.408833 C 17.735844,15.737773 17.552443,16.448651 17,17 c -0.552443,0.551348 -1.264737,0.734389 -1.590947,0.408832 z" id="path106" style="fill:url(#linearGradient3098)" inkscape:connector-curvature="0" />
            </g>
        </g>
        <rect y="3" x="3" height="1" width="3" id="rect3048" style="color:black;fill:#424242;fill-opacity:1;fill-rule:nonzero;stroke:none;stroke-width:1;marker:none;visibility:visible;display:inline;overflow:visible;enable-background:accumulate" />
        <rect style="color:black;fill:#777;fill-opacity:1;fill-rule:nonzero;stroke:none;stroke-width:1;marker:none;visibility:visible;display:inline;overflow:visible;enable-background:accumulate" id="rect3818" width="3" height="2" x="3" y="7" />
        <path d="M 8,8 C 8,9.6568394 6.4329784,11 4.5,11 2.5670216,11 1,9.6568394 1,8 1,6.3431614 2.5670216,5 4.5,5 6.4329784,5 8,6.3431614 8,8 z" id="path110" style="fill:url(#radialGradient3046)" inkscape:connector-curvature="0" />
        <path d="M 8,11 4.5,8.7433806 1,11 4.005037,8.3716909 1,5.7433806 4.5,8 8,5.7433806 4.9949636,8.3716909 z" id="path112" inkscape:connector-curvature="0" style="fill:white;fill-opacity:0.49800002" />
    </g>
</svg>
