<?xml version="1.0" encoding="UTF-8" standalone="no"?>
<!-- Created with Inkscape (http://www.inkscape.org/) -->

<svg xmlns:dc="http://purl.org/dc/elements/1.1/" xmlns:cc="http://creativecommons.org/ns#" xmlns:rdf="http://www.w3.org/1999/02/22-rdf-syntax-ns#" xmlns:svg="http://www.w3.org/2000/svg" xmlns="http://www.w3.org/2000/svg" xmlns:xlink="http://www.w3.org/1999/xlink" xmlns:sodipodi="http://sodipodi.sourceforge.net/DTD/sodipodi-0.dtd" xmlns:inkscape="http://www.inkscape.org/namespaces/inkscape" version="1.1" width="22" height="22" id="svg4700" inkscape:version="0.48.4 r9939" sodipodi:docname="meld.svg">
    <sodipodi:namedview pagecolor="#ffffff" bordercolor="#666666" borderopacity="1" objecttolerance="10" gridtolerance="10" guidetolerance="10" inkscape:pageopacity="0" inkscape:pageshadow="2" inkscape:window-width="1450" inkscape:window-height="876" id="namedview49" showgrid="false" inkscape:zoom="8" inkscape:cx="3.1549608" inkscape:cy="-2.2078588" inkscape:window-x="150" inkscape:window-y="0" inkscape:window-maximized="1" inkscape:current-layer="svg4700" />
    <defs id="defs4702">
        <linearGradient id="linearGradient3849">
            <stop style="stop-color:#2658a0;stop-opacity:1;" offset="0" id="stop3851" />
            <stop style="stop-color:#193969;stop-opacity:1;" offset="1" id="stop3853" />
        </linearGradient>
        <filter color-interpolation-filters="sRGB" id="filter3174">
            <feGaussianBlur id="feGaussianBlur3176" stdDeviation="1.71" />
        </filter>
        <linearGradient x1="45.447727" y1="92.539597" x2="45.447727" y2="7.0165396" id="ButtonShadow" gradientUnits="userSpaceOnUse" gradientTransform="scale(1.0058652,0.994169)">
            <stop id="stop3750" style="stop-color:#000000;stop-opacity:1" offset="0" />
            <stop id="stop3752" style="stop-color:#000000;stop-opacity:0.58823532" offset="1" />
        </linearGradient>
        <linearGradient x1="22.440199" y1="4.8942533" x2="22.440199" y2="38.21666" id="linearGradient4523" xlink:href="#linearGradient4050" gradientUnits="userSpaceOnUse" gradientTransform="matrix(0.48679116,0,0,0.50432992,-0.096154,24.595504)" />
        <linearGradient id="linearGradient4050">
            <stop id="stop4052" style="stop-color:#ffffff;stop-opacity:1" offset="0" />
            <stop id="stop4054" style="stop-color:#ffffff;stop-opacity:0" offset="1" />
        </linearGradient>
        <radialGradient cx="25.739487" cy="19.837296" r="20.999998" fx="25.739487" fy="19.837296" id="radialGradient4024" xlink:href="#linearGradient4018" gradientUnits="userSpaceOnUse" gradientTransform="matrix(0.57300668,0,0,0.57300662,-1.7521607,22.820847)" />
        <linearGradient id="linearGradient4018">
            <stop id="stop4020" style="stop-color:#83aad3;stop-opacity:1;" offset="0" />
            <stop id="stop4022" style="stop-color:#3d74af;stop-opacity:1;" offset="1" />
        </linearGradient>
        <linearGradient inkscape:collect="always" xlink:href="#linearGradient4215" id="linearGradient4758" gradientUnits="userSpaceOnUse" gradientTransform="matrix(0.5,0,0,0.5,28.781154,-0.5082101)" x1="-43.62677" y1="1.8443371" x2="-43.62677" y2="37.221615" />
        <linearGradient id="linearGradient4215">
            <stop style="stop-color:#fca44b;stop-opacity:1;" offset="0" id="stop4217" />
            <stop style="stop-color:#f57d04;stop-opacity:1;" offset="1" id="stop4219" />
        </linearGradient>
        <linearGradient inkscape:collect="always" xlink:href="#linearGradient3849" id="linearGradient3855" x1="12.788898" y1="25.069807" x2="12.788898" y2="46.858284" gradientUnits="userSpaceOnUse" />
        <linearGradient inkscape:collect="always" xlink:href="#linearGradient4215" id="linearGradient3861" gradientUnits="userSpaceOnUse" gradientTransform="matrix(0.5,0,0,0.5,29.296237,0.0146)" x1="-43.62677" y1="1.8443371" x2="-43.62677" y2="37.221615" />
    </defs>
    <metadata id="metadata4705">
        <rdf:RDF>
            <cc:Work rdf:about="">
                <dc:format>image/svg+xml</dc:format>
                <dc:type rdf:resource="http://purl.org/dc/dcmitype/StillImage" />
                <dc:title />
            </cc:Work>
        </rdf:RDF>
    </metadata>
    <g transform="translate(-1,-25)" id="layer1">
        <g transform="translate(5.204491,-179.6879)" id="layer2" style="display:none">
            <rect width="86" height="85" rx="6" ry="6" x="5" y="7" id="rect3745" style="opacity:0.9;fill:url(#ButtonShadow);fill-opacity:1;fill-rule:nonzero;stroke:none;filter:url(#filter3174)" />
        </g>
        <g transform="translate(4.204491,-178.6879)" id="layer4" />
        <rect width="21" height="21" rx="1.5377461" ry="1.5377462" x="1.5" y="25.5" id="rect3117" style="color:#000000;fill:url(#radialGradient4024);fill-opacity:1;fill-rule:nonzero;stroke:url(#linearGradient3855);stroke-width:0.99999994;stroke-linecap:butt;stroke-linejoin:miter;stroke-miterlimit:4;stroke-opacity:1;stroke-dasharray:none;stroke-dashoffset:0;marker:none;visibility:visible;display:inline;overflow:visible;enable-background:accumulate" />
        <rect width="19.000111" height="19.000111" rx="0.53303063" ry="0.53303063" x="2.4999442" y="26.499945" id="rect4513-0" style="opacity:0.5;fill:none;stroke:url(#linearGradient4523);stroke-width:0.99988848;stroke-miterlimit:4;stroke-opacity:1;stroke-dasharray:none" />
    </g>
    <path style="color:#000000;fill:url(#linearGradient4758);fill-opacity:1;stroke:#ce5c00;stroke-width:1px;stroke-linecap:butt;stroke-linejoin:miter;stroke-miterlimit:4;stroke-opacity:1;stroke-dasharray:none;stroke-dashoffset:0;marker:none;visibility:visible;display:inline;overflow:visible" d="M 2.0591145,0.5 C 1.0544155,0.5 0.522964,1.2881899 0.5,2.0553399 l 0,12.6718501 c 0.638636,0.72465 1.3529575,1.3894 2.1997395,1.95315 1.647545,1.0968 3.6152812,1.82545 5.5625002,1.79685 1.9472183,-0.0285 4.3720573,-1.4851 5.3437503,-3.29685 1.099853,-2.05075 0.539873,-4.578424 -0.196002,-5.214524 -0.802701,-0.69385 -1.780879,0.01812 -2.366498,0.589524 1.29368,-0.14085 1.375691,0.4754 1.4375,0.92185 0.253924,1.83405 -0.99234,3.28195 -2.703125,3.46875 -2.8891863,0.3155 -5.1439713,-2.5488 -5.3750005,-5.25 C 4.0770335,5.8863397 7.0353337,1.59 10.527865,0.5 z" id="path3859" inkscape:connector-curvature="0" sodipodi:nodetypes="sccccsscscscs" />
    <path style="color:#000000;fill:url(#linearGradient3861);fill-opacity:1;stroke:#ce5c00;stroke-width:1px;stroke-linecap:butt;stroke-linejoin:miter;stroke-miterlimit:4;stroke-opacity:1;stroke-dasharray:none;stroke-dashoffset:0;marker:none;visibility:visible;display:inline;overflow:visible" d="m 13.714823,3.5 c -1.947219,0.0285 -4.372058,1.4851 -5.3437504,3.2968998 -1.099854,2.0507 -0.5398736,4.5783742 0.1960024,5.2144742 0.8027,0.69385 1.780878,-0.01812 2.366498,-0.589474 C 9.639892,11.5627 9.557881,10.94645 9.496073,10.5 9.242148,8.6659498 10.488412,7.2180498 12.199198,7.0312498 c 2.889185,-0.3155 5.14397,2.5488002 5.375,5.2500002 0.32583,3.8096 -2.63247,8.12875 -6.125,9.21875 l 8.468749,0 C 20.922646,21.5 21.5,20.773262 21.5,19.9219 l 0,-12.6719002 C 20.861363,6.5253498 20.124104,5.8605998 19.277322,5.2969 17.629777,4.20005 15.662041,3.4714 13.714823,3.5 z" id="path3431" inkscape:connector-curvature="0" sodipodi:nodetypes="ccscscscscccc" />
    <path style="font-size:medium;font-style:normal;font-variant:normal;font-weight:normal;font-stretch:normal;text-indent:0;text-align:start;text-decoration:none;line-height:normal;letter-spacing:normal;word-spacing:normal;text-transform:none;direction:ltr;block-progression:tb;writing-mode:lr-tb;text-anchor:start;baseline-shift:baseline;opacity:0.3;color:#000000;fill:#eeeeec;fill-opacity:1;stroke:none;stroke-width:1;marker:none;visibility:visible;display:inline;overflow:visible;enable-background:accumulate;font-family:Sans;-inkscape-font-specification:Sans" d="m 2.0625,0.96875 c -0.3508345,0 -0.6805433,0.2307156 -0.78125,0.34375 -0.1553257,0.1743393 -0.2878039,0.4025369 -0.3125,0.71875 l 0,0.03125 0,0.03125 0,12.1875 0,0.1875 0.125,0.15625 c 0.547783,0.5868 1.1567783,1.14684 1.875,1.625 1.5824639,1.053475 3.4610902,1.745482 5.28125,1.71875 0.878427,-0.01286 1.808947,-0.30505 2.705806,-0.849112 0.896859,-0.544062 1.767225,-1.32106 2.200444,-2.150888 0.94114,-1.80275 0.634995,-5.232311 -0.794194,-4.732187 0.634918,0.531477 0.708563,1.388643 0.59992,2.178395 C 12.734487,14.068644 11.539577,15.245391 9.8125,15.4375 8.1962955,15.61399 6.7848703,14.881838 5.75,13.78125 4.7087527,12.67388 4.032479,11.225873 3.90625,9.75 3.7305069,7.69522 4.4051372,5.5527781 5.59375,3.78125 6.0750894,3.0638539 6.7099442,2.4445514 7.375,1.84375 l 0.96875,-0.875 -1.3125,0 z m 0,1 3.84375,0 C 5.5159411,2.3711342 5.1067183,2.7336666 4.78125,3.21875 3.485505,5.1499495 2.7068969,7.4816736 2.90625,9.8125 3.0530134,11.528461 3.8055363,13.198434 5,14.46875 6.1798184,15.723491 8.681998,16.911562 10.90441,16.163182 8.5708139,17.869937 5.1548668,16.50105 3.53125,15.4375 2.9508712,15.057322 2.4514156,14.568563 1.96875,14.0625 l 0,-11.96875 0,-0.03125 C 1.980657,2.0407093 2.0151981,2.0180169 2.03125,2 2.1180517,1.9025728 1.9467735,1.96875 2.0625,1.96875 z" id="path3863" inkscape:connector-curvature="0" sodipodi:nodetypes="ssccccccccsscscssscccsscssscscccss" />
    <path sodipodi:nodetypes="ssccccccccsscscssscccsscssscscccss" inkscape:connector-curvature="0" id="path3877" d="m 19.916106,21.040993 c 0.350835,0 0.680544,-0.230716 0.78125,-0.34375 0.155326,-0.17434 0.287804,-0.402537 0.3125,-0.71875 l 0,-0.03125 0,-0.03125 0,-12.1874999 0,-0.1875 -0.125,-0.15625 c -0.547783,-0.5868 -1.156778,-1.14684 -1.875,-1.625 -1.582464,-1.053475 -3.461089,-1.745482 -5.281249,-1.71875 -0.878427,0.01286 -1.808947,0.30505 -2.705806,0.849112 C 10.125942,5.4341671 9.287688,6.2287366 8.8223565,7.0409931 7.8343415,8.7656181 8.257674,12.335804 9.639989,11.734116 9.00507,11.202639 8.8923625,10.329849 9.001006,9.540097 9.228495,7.8864116 10.43903,6.7643521 12.166107,6.5722431 c 1.616204,-0.17649 3.02763,0.555662 4.0625,1.65625 1.041247,1.1073699 1.71752,2.5553769 1.843749,4.0312499 0.175743,2.05478 -0.498887,4.197222 -1.6875,5.96875 -0.481338,0.717396 -1.116193,1.336698 -1.781249,1.9375 l -0.946653,0.830806 1.290403,0.04419 z m 0,-1 -3.843749,0 c 0.390308,-0.402385 0.799531,-0.764917 1.124999,-1.25 1.295745,-1.9312 2.074353,-4.262924 1.875,-6.59375 -0.146763,-1.715961 -0.899286,-3.3859339 -2.09375,-4.6562499 -1.179817,-1.254741 -3.681997,-2.442812 -5.904409,-1.694432 2.333596,-1.706755 5.749543,-0.337868 7.373159,0.725682 0.580379,0.380178 1.079835,0.868937 1.5625,1.375 l 0,11.9687499 0,0.03125 c -0.01191,0.02179 -0.04645,0.04448 -0.0625,0.0625 -0.0868,0.09743 0.08448,0.03125 -0.03125,0.03125 z" style="font-size:medium;font-style:normal;font-variant:normal;font-weight:normal;font-stretch:normal;text-indent:0;text-align:start;text-decoration:none;line-height:normal;letter-spacing:normal;word-spacing:normal;text-transform:none;direction:ltr;block-progression:tb;writing-mode:lr-tb;text-anchor:start;baseline-shift:baseline;opacity:0.3;color:#000000;fill:#eeeeec;fill-opacity:1;stroke:none;stroke-width:1;marker:none;visibility:visible;display:inline;overflow:visible;enable-background:accumulate;font-family:Sans;-inkscape-font-specification:Sans" />
</svg>
