<?xml version="1.0" encoding="UTF-8" standalone="no"?>
<!-- Created with Inkscape (http://www.inkscape.org/) -->

<svg xmlns:dc="http://purl.org/dc/elements/1.1/" xmlns:cc="http://creativecommons.org/ns#" xmlns:rdf="http://www.w3.org/1999/02/22-rdf-syntax-ns#" xmlns:svg="http://www.w3.org/2000/svg" xmlns="http://www.w3.org/2000/svg" xmlns:xlink="http://www.w3.org/1999/xlink" xmlns:sodipodi="http://sodipodi.sourceforge.net/DTD/sodipodi-0.dtd" xmlns:inkscape="http://www.inkscape.org/namespaces/inkscape" width="24" height="24" id="svg4700" version="1.1" inkscape:version="0.48.4 r9939" sodipodi:docname="pidgin.svg">
    <defs id="defs4702">
        <filter id="filter3174" color-interpolation-filters="sRGB">
            <feGaussianBlur stdDeviation="1.71" id="feGaussianBlur3176" />
        </filter>
        <linearGradient gradientTransform="scale(1.0058652,0.994169)" gradientUnits="userSpaceOnUse" id="ButtonShadow" y2="7.0165396" x2="45.447727" y1="92.539597" x1="45.447727">
            <stop offset="0" style="stop-color:#000000;stop-opacity:1" id="stop3750" />
            <stop offset="1" style="stop-color:#000000;stop-opacity:0.58823532" id="stop3752" />
        </linearGradient>
        <linearGradient id="linearGradient5280" inkscape:collect="always">
            <stop id="stop5282" offset="0" style="stop-color:#82508e;stop-opacity:1;" />
            <stop id="stop5284" offset="1" style="stop-color:#82508e;stop-opacity:0;" />
        </linearGradient>
        <linearGradient id="linearGradient5304" inkscape:collect="always">
            <stop id="stop5306" offset="0" style="stop-color:#2e3436;stop-opacity:1;" />
            <stop id="stop5308" offset="1" style="stop-color:#2e3436;stop-opacity:0;" />
        </linearGradient>
        <linearGradient id="linearGradient6506" inkscape:collect="always">
            <stop id="stop6508" offset="0" style="stop-color:#eeeeec;stop-opacity:1;" />
            <stop id="stop6510" offset="1" style="stop-color:#eeeeec;stop-opacity:0;" />
        </linearGradient>
        <linearGradient id="linearGradient6563">
            <stop id="stop6565" offset="0" style="stop-color:white;stop-opacity:1;" />
            <stop id="stop6567" offset="1" style="stop-color:white;stop-opacity:0;" />
        </linearGradient>
        <linearGradient id="linearGradient3882-7" inkscape:collect="always">
            <stop id="stop3884-2" offset="0" style="stop-color:#ffffff;stop-opacity:1;" />
            <stop id="stop3886-1" offset="1" style="stop-color:#ffffff;stop-opacity:0;" />
        </linearGradient>
        <radialGradient inkscape:collect="always" xlink:href="#linearGradient4018-1" id="radialGradient4024-3" cx="-12.166987" cy="27.329136" fx="-12.166987" fy="27.329136" r="20.999998" gradientUnits="userSpaceOnUse" gradientTransform="matrix(0.60143773,-0.16926387,0.17861213,0.63849449,13.725028,18.599176)" />
        <linearGradient id="linearGradient4018-1">
            <stop style="stop-color:#f24cd3;stop-opacity:1;" offset="0" id="stop4020-9" />
            <stop style="stop-color:#3b1941;stop-opacity:1;" offset="1" id="stop4022-4" />
        </linearGradient>
        <linearGradient inkscape:collect="always" xlink:href="#linearGradient3998-0" id="linearGradient4004-0" x1="-21.674812" y1="36.283001" x2="-20.214117" y2="14.486113" gradientUnits="userSpaceOnUse" gradientTransform="matrix(0.99946103,0,0,1.0031156,27.741025,10.168481)" />
        <linearGradient id="linearGradient3998-0">
            <stop style="stop-color:#3b1941;stop-opacity:1;" offset="0" id="stop4000-9" />
            <stop style="stop-color:#7b3488;stop-opacity:1;" offset="1" id="stop4002-1" />
        </linearGradient>
        <linearGradient inkscape:collect="always" xlink:href="#linearGradient4050-3-7" id="linearGradient4523-8" x1="-17.381144" y1="15.672249" x2="-17.381144" y2="35.141037" gradientUnits="userSpaceOnUse" gradientTransform="matrix(0.99795425,0,0,1.0055811,26.876967,10.305361)" />
        <linearGradient id="linearGradient4050-3-7">
            <stop id="stop4052-4-5" offset="0" style="stop-color:#ffffff;stop-opacity:1;" />
            <stop id="stop4054-9-4" offset="1" style="stop-color:#ffffff;stop-opacity:0;" />
        </linearGradient>
        <radialGradient inkscape:collect="always" xlink:href="#linearGradient5280" id="radialGradient4091" gradientUnits="userSpaceOnUse" gradientTransform="matrix(1,0,0,0.732283,0,10.65742)" cx="15.004828" cy="39.80859" fx="15.004828" fy="39.80859" r="9.7225161" />
        <linearGradient inkscape:collect="always" xlink:href="#linearGradient5304" id="linearGradient4093" gradientUnits="userSpaceOnUse" gradientTransform="matrix(0.50605076,0,0,0.49638388,-23.351417,23.569529)" x1="12.606371" y1="15.069461" x2="12.606371" y2="23.043955" />
        <linearGradient inkscape:collect="always" xlink:href="#linearGradient6506" id="linearGradient4095" gradientUnits="userSpaceOnUse" gradientTransform="matrix(0.50605076,0,0,0.49638388,-23.351417,23.569529)" x1="15.645709" y1="39.743458" x2="15.645709" y2="53.502155" />
        <linearGradient inkscape:collect="always" xlink:href="#linearGradient6563" id="linearGradient4097" gradientUnits="userSpaceOnUse" gradientTransform="matrix(0.61965124,0,0,0.45568168,-16.968477,20.147866)" x1="-1.2424574" y1="39.40155" x2="5.5366187" y2="44.272076" />
        <clipPath clipPathUnits="userSpaceOnUse" id="clipPath4197">
            <path style="font-size:medium;font-style:normal;font-variant:normal;font-weight:normal;font-stretch:normal;text-indent:0;text-align:start;text-decoration:none;line-height:normal;letter-spacing:normal;word-spacing:normal;text-transform:none;direction:ltr;block-progression:tb;writing-mode:lr-tb;text-anchor:start;baseline-shift:baseline;color:#000000;fill:url(#linearGradient4201);fill-opacity:1;fill-rule:nonzero;stroke:none;stroke-width:1;marker:none;visibility:visible;display:inline;overflow:visible;enable-background:accumulate;font-family:Sans;-inkscape-font-specification:Sans" d="m -23.104893,26 17,0 c 0.839649,0 1.5,0.660351 1.5,1.5 l 0,17 c 0,0.839649 -0.660351,1.5 -1.5,1.5 l -17,0 c -0.839649,0 -1.5,-0.660351 -1.5,-1.5 l 0,-17 c 0,-0.839649 0.660351,-1.5 1.5,-1.5 z" id="path4199" inkscape:connector-curvature="0" />
        </clipPath>
        <linearGradient inkscape:collect="always" xlink:href="#linearGradient3998-0" id="linearGradient4201" gradientUnits="userSpaceOnUse" gradientTransform="matrix(0.99946103,0,0,1.0031156,1.136132,10.168481)" x1="-21.674812" y1="36.283001" x2="-20.214117" y2="14.486113" />
        <radialGradient inkscape:collect="always" xlink:href="#linearGradient3882-7" id="radialGradient3102" gradientUnits="userSpaceOnUse" gradientTransform="matrix(1.0156518,0,0,1.0162956,50.849177,2.9473128)" cx="29.303301" cy="20.259962" fx="29.303301" fy="20.259962" r="24.34375" />
    </defs>
    <sodipodi:namedview id="base" pagecolor="#ffffff" bordercolor="#666666" borderopacity="1.0" inkscape:pageopacity="0.0" inkscape:pageshadow="2" inkscape:zoom="21.921445" inkscape:cx="20.893357" inkscape:cy="14.300606" inkscape:current-layer="layer1" showgrid="true" inkscape:grid-bbox="true" inkscape:document-units="px" inkscape:window-width="1280" inkscape:window-height="976" inkscape:window-x="0" inkscape:window-y="24" inkscape:window-maximized="1" inkscape:snap-to-guides="false" inkscape:snap-grids="false">
        <inkscape:grid type="xygrid" id="grid1021" empspacing="5" visible="true" enabled="true" snapvisiblegridlinesonly="true" />
    </sodipodi:namedview>
    <metadata id="metadata4705">
        <rdf:RDF>
            <cc:Work rdf:about="">
                <dc:format>image/svg+xml</dc:format>
                <dc:type rdf:resource="http://purl.org/dc/dcmitype/StillImage" />
                <dc:title />
            </cc:Work>
        </rdf:RDF>
    </metadata>
    <g id="layer1" inkscape:label="Layer 1" inkscape:groupmode="layer" transform="translate(0,-24)">
        <g id="layer2" style="display:none" transform="translate(5.204491,-179.6879)">
            <rect width="86" height="85" rx="6" ry="6" x="5" y="7" id="rect3745" style="opacity:0.9;fill:url(#ButtonShadow);fill-opacity:1;fill-rule:nonzero;stroke:none;filter:url(#filter3174)" />
        </g>
        <g id="layer4" transform="translate(5.204491,-179.6879)" />
        <rect style="color:#000000;fill:url(#radialGradient4024-3);fill-opacity:1;fill-rule:nonzero;stroke:url(#linearGradient4004-0);stroke-width:1;stroke-linecap:butt;stroke-linejoin:miter;stroke-miterlimit:4;stroke-opacity:1;stroke-dasharray:none;stroke-dashoffset:0;marker:none;visibility:visible;display:inline;overflow:visible;enable-background:accumulate" id="rect3874" width="21" height="21" x="1.5" y="25.5" ry="2" rx="2" />
        <g id="g4223" transform="matrix(0.42105772,0,0,0.42079098,-19.263435,24.513336)">
            <path d="m 75.22482,13.554899 c 7.058652,0 12.759125,5.704088 12.759125,12.767213 0,7.063126 -5.700473,12.735455 -12.759125,12.735455 -7.058651,0 -12.727387,-5.672329 -12.727387,-12.735455 0,-7.063125 5.668736,-12.767213 12.727387,-12.767213 z m 0,-4.0334237 c -9.254247,0 -16.789994,7.5405237 -16.789994,16.8006367 0,9.260114 7.535747,16.800637 16.789994,16.800637 9.254247,0 16.789994,-7.540523 16.789994,-16.800637 0,-9.260113 -7.535747,-16.8006367 -16.789994,-16.8006367 z m 0,-2.3184248 c 10.554993,0 19.10695,8.5573765 19.10695,19.1190615 0,10.561684 -8.551957,19.087302 -19.10695,19.087302 -10.554994,0 -19.07521,-8.525618 -19.07521,-19.087302 0,-10.561685 8.520216,-19.1190615 19.07521,-19.1190615 z m 0,-2.0325913 c -11.652791,0 -21.106514,9.4914738 -21.106514,21.1516528 0,11.660178 9.453723,21.119894 21.106514,21.119894 11.65279,0 21.138252,-9.459716 21.138252,-21.119894 0,-11.660179 -9.485462,-21.1516528 -21.138252,-21.1516528 z m 0,-2.5724986 c 13.103855,0 23.709122,10.6119894 23.709122,23.7241514 0,13.112162 -10.605267,23.724152 -23.709122,23.724152 -13.103856,0 -23.709122,-10.61199 -23.709122,-23.724152 0,-13.112162 10.605266,-23.7241514 23.709122,-23.7241514 z m 0,-1.0162953 c -13.652753,0 -24.724774,11.0790387 -24.724774,24.7404467 0,13.661407 11.072021,24.740447 24.724774,24.740447 13.652753,0 24.724774,-11.07904 24.724774,-24.740447 0,-13.661408 -11.072021,-24.7404467 -24.724774,-24.7404467 z" style="font-size:32.94774628px;font-style:normal;font-variant:normal;font-weight:bold;font-stretch:normal;line-height:125%;letter-spacing:0px;word-spacing:0px;color:#000000;fill:url(#radialGradient3102);fill-opacity:1;fill-rule:nonzero;stroke:none;stroke-width:4.83461523;marker:none;visibility:visible;display:inline;overflow:visible;enable-background:accumulate;font-family:Ubuntu;-inkscape-font-specification:Ubuntu Bold" id="path4208" inkscape:connector-curvature="0" />
        </g>
        <g id="g4073" transform="translate(26.604893,0)" clip-path="url(#clipPath4197)">
            <path sodipodi:nodetypes="cccccszcsc" id="path5176" d="m -15.777892,29.68622 c -3.477489,0 -6.299797,2.905192 -6.299797,6.484802 0.96912,7.772975 -1.316134,6.735895 -1.547311,10.291613 0,1.08121 0.517329,1.595527 1.623274,1.595527 0.623412,0 13.7626106,0.07581 15.1753396,0.07581 1.1098811,0 1.0231743,-1.068488 1.0231743,-1.068488 0,-1.382773 -3.3609934,-2.543053 -4.2977989,-3.558067 -0.959889,-1.038098 0.09793,-4.742479 0.09793,-4.742479 0.3366747,-0.793636 0.524983,-1.673035 0.524983,-2.59392 0,-3.57961 -2.822308,-6.484802 -6.299798,-6.484802 z" style="fill:#82508e;fill-opacity:1;stroke:#3b1941;stroke-width:0.99999994;stroke-miterlimit:4;stroke-opacity:1;stroke-dasharray:none" inkscape:connector-curvature="0" />
            <path transform="matrix(0.51296784,0,0,0.58989887,-23.999873,20.115242)" d="m 24.727345,39.80859 a 9.7225161,7.119638 0 1 1 -19.4450326,0 9.7225161,7.119638 0 1 1 19.4450326,0 z" sodipodi:ry="7.119638" sodipodi:rx="9.7225161" sodipodi:cy="39.80859" sodipodi:cx="15.004828" id="path5273" style="fill:url(#radialGradient4091);fill-opacity:1;stroke:none" sodipodi:type="arc" />
            <path sodipodi:nodetypes="cccccccccc" id="path5241" d="m -15.729406,30.643678 c -2.608686,0 -5.25368,1.944927 -5.25368,5.364889 0,3.674981 0.404608,5.7542 -0.649512,7.711044 -1.41266,2.805369 -1.241364,3.423329 -0.05602,3.423329 0.980008,0 10.461225,-0.01479 13.4094626,-0.01479 0.590666,0 1.3457834,0.437714 1.3457834,-0.289273 0,0 -1.4656812,-0.95774 -2.0652163,-1.349316 -1.6317907,-0.733783 -2.4452937,-1.842749 -2.4452937,-3.4149 0,-3.657024 0.968156,-3.429769 0.968156,-5.691094 0,-3.149852 -2.206022,-5.739891 -5.253681,-5.739889 z" style="opacity:0.31004369;fill:url(#linearGradient4093);fill-opacity:1;stroke:url(#linearGradient4095);stroke-width:0.99999988;stroke-miterlimit:4;stroke-opacity:1" inkscape:connector-curvature="0" />
            <path sodipodi:nodetypes="csssc" id="path5160" d="m -20.12169,34.265291 c 0.921179,-0.966926 2.419791,-0.709322 3.007976,-0.09193 0.806029,0.846057 0.712575,2.317464 -0.208604,3.284389 -0.800519,0.840274 -2.117228,1.280982 -2.923258,0.434924 -0.806029,-0.846057 -0.603878,-2.86348 0.123886,-3.627385 z" style="fill:#a381ab;fill-opacity:1;stroke:none" inkscape:connector-curvature="0" />
            <path sodipodi:nodetypes="csssc" id="path5157" d="m -16.565365,35.875828 c 0,1.159164 -1.0973,1.947642 -1.837441,1.947642 -1.014267,0 -1.837441,-0.940771 -1.837441,-2.099935 0,-1.007332 0.564277,-2.099934 1.578544,-2.099934 1.014268,0 2.096338,1.336446 2.096338,2.252227 z" style="fill:#ffffff;fill-opacity:1;stroke:none" inkscape:connector-curvature="0" />
            <path transform="matrix(0.63451141,0,0,0.60825438,-24.855564,21.197845)" d="m 11.410714,24.3125 a 1.2410715,1.2946428 0 1 1 -2.482143,0 1.2410715,1.2946428 0 1 1 2.482143,0 z" sodipodi:ry="1.2946428" sodipodi:rx="1.2410715" sodipodi:cy="24.3125" sodipodi:cx="10.169642" id="path5162" style="color:#000000;fill:#000000;fill-opacity:1;fill-rule:nonzero;stroke:none;marker:none;visibility:visible;display:inline;overflow:visible;enable-background:accumulate" sodipodi:type="arc" />
            <path sodipodi:nodetypes="csssc" id="path5167" d="m -9.1876451,34.210965 c -0.7114468,-0.885069 -1.8688579,-0.649272 -2.3231269,-0.08414 -0.622514,0.774433 -0.550337,2.121277 0.16111,3.006347 0.618258,0.76914 1.6351814,1.17254 2.2576965,0.398106 0.6225145,-0.774435 0.4663885,-2.621072 -0.095679,-3.320308 z" style="fill:#a381ab;fill-opacity:1;stroke:none" inkscape:connector-curvature="0" />
            <path sodipodi:nodetypes="csssc" id="path5169" d="m -9.6178198,34.576388 c -0.5757372,-0.644614 -1.5123712,-0.472878 -1.8799862,-0.06128 -0.50377,0.564037 -0.445361,1.544971 0.130376,2.189586 0.500325,0.56018 1.323269,0.853984 1.8270384,0.289947 0.503769,-0.564036 0.3774245,-1.90898 -0.077428,-2.418249 z" style="fill:#ffffff;fill-opacity:1;stroke:none" inkscape:connector-curvature="0" />
            <path transform="matrix(0.57906734,0,0,0.55510855,-16.416967,22.489951)" d="m 11.410714,24.3125 a 1.2410715,1.2946428 0 1 1 -2.482143,0 1.2410715,1.2946428 0 1 1 2.482143,0 z" sodipodi:ry="1.2946428" sodipodi:rx="1.2410715" sodipodi:cy="24.3125" sodipodi:cx="10.169642" id="path5173" style="fill:#000000;fill-opacity:1;stroke:none" sodipodi:type="arc" />
            <rect ry="0.99999481" rx="1.1656054" y="38.34845" x="-15.515402" height="1.0499609" width="3.1498997" id="rect5215" style="fill:#eeeeec;fill-opacity:1;stroke:none" />
            <path sodipodi:nodetypes="czczc" id="rect5187" d="m -17.587692,39.288427 c 2.799665,1.523738 3.177063,-1.391632 3.706857,-1.391632 0.522506,0 0.737133,2.92786 3.117921,1.393254 -0.500149,0.887338 -2.037422,2.281626 -2.685502,2.281626 -0.655376,0 -3.326532,-0.972514 -4.139276,-2.283248 z" style="fill:#f88f00;fill-opacity:1;stroke:none" inkscape:connector-curvature="0" />
            <path sodipodi:nodetypes="cccc" id="path5192" d="m -19.729115,29.458846 c 0.85178,-0.974989 3.471519,-0.219135 3.471519,0.48987 l -2.117359,0.27214 -1.35416,-0.76201 z" style="fill:#3b1941;fill-opacity:1;stroke:none" inkscape:connector-curvature="0" />
            <path sodipodi:nodetypes="cccc" id="rect5189" d="m -18.654413,28.280252 c 1.500289,-0.947949 4.362156,0.742101 4.634296,1.611591 l -2.382958,0 -2.251338,-1.611591 z" style="fill:#3b1941;fill-opacity:1;stroke:none" inkscape:connector-curvature="0" />
            <path sodipodi:nodetypes="czczc" id="path6561" d="m -17.587692,39.288427 c 2.799665,1.523738 3.177063,-1.391632 3.706857,-1.391632 0.522506,0 0.737133,2.92786 3.117921,1.393254 -0.500149,0.887338 -2.037422,2.281626 -2.685502,2.281626 -0.655376,0 -3.326532,-0.972514 -4.139276,-2.283248 z" style="fill:url(#linearGradient4097);fill-opacity:1;stroke:none" inkscape:connector-curvature="0" />
        </g>
        <rect width="19" height="19" ry="1" x="2.5" y="26.5" id="rect4513" style="opacity:0.50000000000000000;color:#000000;fill:none;stroke:url(#linearGradient4523-8);stroke-width:1;stroke-linecap:butt;stroke-linejoin:miter;stroke-miterlimit:4;stroke-opacity:1;stroke-dasharray:none;stroke-dashoffset:0;marker:none;visibility:visible;display:inline;overflow:visible;enable-background:accumulate" rx="1" />
    </g>
</svg>
