<?xml version="1.0" encoding="UTF-8" standalone="no"?>
<!-- Created with Inkscape (http://www.inkscape.org/) -->

<svg xmlns:dc="http://purl.org/dc/elements/1.1/" xmlns:cc="http://creativecommons.org/ns#" xmlns:rdf="http://www.w3.org/1999/02/22-rdf-syntax-ns#" xmlns:svg="http://www.w3.org/2000/svg" xmlns="http://www.w3.org/2000/svg" xmlns:xlink="http://www.w3.org/1999/xlink" xmlns:sodipodi="http://sodipodi.sourceforge.net/DTD/sodipodi-0.dtd" xmlns:inkscape="http://www.inkscape.org/namespaces/inkscape" width="22" height="22" id="svg4700" version="1.1" inkscape:version="0.48.4 r9939" sodipodi:docname="seahorse.svg">
    <defs id="defs4702">
        <linearGradient id="linearGradient3852">
            <stop id="stop3854" offset="0" style="stop-color:white;stop-opacity:1;" />
            <stop id="stop3856" offset="1" style="stop-color:#ffffff;stop-opacity:0;" />
        </linearGradient>
        <linearGradient inkscape:collect="always" id="linearGradient3844">
            <stop style="stop-color:white;stop-opacity:1;" offset="0" id="stop3846" />
            <stop style="stop-color:white;stop-opacity:0;" offset="1" id="stop3848" />
        </linearGradient>
        <linearGradient id="linearGradient3873">
            <stop style="stop-color:#543116;stop-opacity:1;" offset="0" id="stop3875" />
            <stop style="stop-color:#77461f;stop-opacity:1;" offset="1" id="stop3877" />
        </linearGradient>
        <linearGradient id="linearGradient4162">
            <stop style="stop-color:#f9d8a3;stop-opacity:1;" offset="0" id="stop4164" />
            <stop style="stop-color:#5a2f05;stop-opacity:0.70588237;" offset="1" id="stop4166" />
        </linearGradient>
        <linearGradient id="linearGradient3920">
            <stop style="stop-color:white;stop-opacity:1;" offset="0" id="stop3922" />
            <stop style="stop-color:white;stop-opacity:0;" offset="1" id="stop3924" />
        </linearGradient>
        <linearGradient id="linearGradient4517">
            <stop style="stop-color:white;stop-opacity:0.50196081;" offset="0" id="stop4519" />
            <stop style="stop-color:#ffffff;stop-opacity:0;" offset="1" id="stop4521" />
        </linearGradient>
        <filter id="filter3174" color-interpolation-filters="sRGB">
            <feGaussianBlur stdDeviation="1.71" id="feGaussianBlur3176" />
        </filter>
        <linearGradient gradientTransform="scale(1.0058652,0.994169)" gradientUnits="userSpaceOnUse" id="ButtonShadow" y2="7.0165396" x2="45.447727" y1="92.539597" x1="45.447727">
            <stop offset="0" style="stop-color:#000000;stop-opacity:1" id="stop3750" />
            <stop offset="1" style="stop-color:#000000;stop-opacity:0.58823532" id="stop3752" />
        </linearGradient>
        <linearGradient id="linearGradient4029-2">
            <stop id="stop4031-7" offset="0" style="stop-color:#d5af83;stop-opacity:1" />
            <stop id="stop4033-3" offset="1" style="stop-color:#8a4808;stop-opacity:1" />
        </linearGradient>
        <linearGradient inkscape:collect="always" xlink:href="#linearGradient4029-2" id="linearGradient4338" x1="22" y1="9" x2="22" y2="42" gradientUnits="userSpaceOnUse" gradientTransform="matrix(0.48717946,0,0,0.32352944,-0.69230832,33.749992)" />
        <linearGradient inkscape:collect="always" xlink:href="#linearGradient4517" id="linearGradient3880" gradientUnits="userSpaceOnUse" gradientTransform="matrix(0.45913516,0,0,0.062449,-0.02441498,33.162163)" x1="22.440199" y1="4.8942533" x2="22.440199" y2="20.692619" />
        <linearGradient id="linearGradient4029-2-3">
            <stop id="stop4031-7-1" offset="0" style="stop-color:#d5af83;stop-opacity:1" />
            <stop id="stop4033-3-8" offset="1" style="stop-color:#8a4808;stop-opacity:1" />
        </linearGradient>
        <linearGradient inkscape:collect="always" xlink:href="#linearGradient3852" id="linearGradient4089" gradientUnits="userSpaceOnUse" gradientTransform="matrix(0.45913518,0,0,0.18734699,-0.0244158,36.486489)" x1="23.010555" y1="4.6870556" x2="23.010555" y2="13.420092" />
        <linearGradient inkscape:collect="always" xlink:href="#linearGradient4029-2-3" id="linearGradient4106" x1="22.916666" y1="38" x2="22.916666" y2="36.5" gradientUnits="userSpaceOnUse" gradientTransform="matrix(0.46153844,0,0,0.33333273,-0.07692316,32.333356)" />
        <linearGradient inkscape:collect="always" xlink:href="#linearGradient4162" id="linearGradient4160" x1="14" y1="12" x2="14" y2="15" gradientUnits="userSpaceOnUse" />
        <linearGradient inkscape:collect="always" xlink:href="#linearGradient4029-2" id="linearGradient3869" gradientUnits="userSpaceOnUse" gradientTransform="matrix(0.48717946,0,0,0.23529413,-0.69230835,30.5)" x1="22" y1="10.818182" x2="22" y2="28.115385" />
        <linearGradient inkscape:collect="always" xlink:href="#linearGradient3873" id="linearGradient3879" x1="36" y1="44" x2="36" y2="22" gradientUnits="userSpaceOnUse" gradientTransform="matrix(0.51351349,0,0,0.50000005,-1.3243248,25.749991)" />
        <radialGradient inkscape:collect="always" xlink:href="#linearGradient3844" id="radialGradient3850" cx="24.000002" cy="15.931371" fx="24.000002" fy="15.931371" r="15" gradientTransform="matrix(-0.75999999,0,0,-0.31372548,29.240002,42.886968)" gradientUnits="userSpaceOnUse" />
        <linearGradient inkscape:collect="always" xlink:href="#linearGradient4517" id="linearGradient3858" gradientUnits="userSpaceOnUse" gradientTransform="matrix(0.45913515,0,0,0.21857147,-0.02441516,-47.682428)" x1="23.010555" y1="4.6870556" x2="23.010555" y2="13.420092" />
        <linearGradient inkscape:collect="always" xlink:href="#linearGradient3920" id="linearGradient3909" gradientUnits="userSpaceOnUse" x1="23.093567" y1="4.3033333" x2="23.093567" y2="10.699231" gradientTransform="matrix(0.55238935,0,0,0.65227609,-2.2495107,24.289351)" />
        <linearGradient inkscape:collect="always" xlink:href="#linearGradient4162" id="linearGradient3103" gradientUnits="userSpaceOnUse" x1="14" y1="12" x2="14" y2="15" />
        <linearGradient inkscape:collect="always" xlink:href="#linearGradient4029-2-3" id="linearGradient3107" gradientUnits="userSpaceOnUse" gradientTransform="matrix(0.46153844,0,0,0.33333273,-0.07692316,30.333356)" x1="22.916666" y1="38" x2="22.916666" y2="36.5" />
        <linearGradient inkscape:collect="always" xlink:href="#linearGradient4029-2-3" id="linearGradient3111" gradientUnits="userSpaceOnUse" gradientTransform="matrix(0.46153844,0,0,0.33333273,-0.07692316,28.333356)" x1="22.916666" y1="38" x2="22.916666" y2="36.5" />
    </defs>
    <sodipodi:namedview id="base" pagecolor="#ffffff" bordercolor="#666666" borderopacity="1.0" inkscape:pageopacity="0.0" inkscape:pageshadow="2" inkscape:zoom="16" inkscape:cx="29.95629" inkscape:cy="17.78568" inkscape:current-layer="layer1" showgrid="true" inkscape:grid-bbox="true" inkscape:document-units="px" inkscape:window-width="1280" inkscape:window-height="998" inkscape:window-x="0" inkscape:window-y="0" inkscape:window-maximized="1" inkscape:snap-to-guides="true" inkscape:snap-grids="true" inkscape:snap-bbox="true" inkscape:snap-global="true">
        <inkscape:grid type="xygrid" id="grid1021" empspacing="5" visible="true" enabled="true" snapvisiblegridlinesonly="true" />
    </sodipodi:namedview>
    <metadata id="metadata4705">
        <rdf:RDF>
            <cc:Work rdf:about="">
                <dc:format>image/svg+xml</dc:format>
                <dc:type rdf:resource="http://purl.org/dc/dcmitype/StillImage" />
                <dc:title />
            </cc:Work>
        </rdf:RDF>
    </metadata>
    <g id="layer1" inkscape:label="Layer 1" inkscape:groupmode="layer" transform="translate(0,-26)">
        <rect width="19" height="4" ry="2" x="1.5" y="32.5" id="rect3069" style="color:black;fill:none;stroke:#77461f;stroke-width:1;stroke-linecap:round;stroke-linejoin:round;stroke-miterlimit:4;stroke-opacity:1;stroke-dasharray:none;stroke-dashoffset:0;marker:none;visibility:visible;display:inline;overflow:visible;enable-background:accumulate" rx="1.9999999" />
        <rect rx="1.9999999" style="color:black;fill:url(#linearGradient3869);fill-opacity:1;fill-rule:nonzero;stroke:#77461f;stroke-width:0.99999994;stroke-linecap:round;stroke-linejoin:round;stroke-miterlimit:4;stroke-opacity:1;stroke-dasharray:none;stroke-dashoffset:0;marker:none;visibility:visible;display:inline;overflow:visible;enable-background:accumulate" id="rect3867" y="32.5" x="1.5" ry="2" height="8" width="19" />
        <rect style="color:black;fill:none;stroke:#77461f;stroke-width:1;stroke-linecap:round;stroke-linejoin:round;stroke-miterlimit:4;stroke-opacity:1;stroke-dasharray:none;stroke-dashoffset:0;marker:none;visibility:visible;display:inline;overflow:visible;enable-background:accumulate" id="rect3871" y="32.5" x="1.5" ry="2" height="4.0000019" width="19" rx="2" />
        <g id="layer2" style="display:none" transform="translate(5.204491,-179.6879)">
            <rect width="86" height="85" rx="6" ry="6" x="5" y="7" id="rect3745" style="opacity:0.9;fill:url(#ButtonShadow);fill-opacity:1;fill-rule:nonzero;stroke:none;filter:url(#filter3174)" />
        </g>
        <g id="layer4" transform="translate(5.204491,-179.6879)" />
        <rect style="opacity:0.75;fill:none;stroke:url(#linearGradient3880);stroke-width:1;stroke-miterlimit:4;stroke-opacity:1;stroke-dasharray:none" id="rect3878" y="33.5" x="2.5000005" ry="1" height="2" width="17" rx="0.99999994" />
        <path sodipodi:type="arc" style="color:black;fill:url(#linearGradient4160);fill-opacity:1;fill-rule:nonzero;stroke:none;stroke-width:1;marker:none;visibility:visible;display:inline;overflow:visible;enable-background:accumulate" id="path4116" sodipodi:cx="14" sodipodi:cy="15" sodipodi:rx="4" sodipodi:ry="3" d="m 18,15 c 0,1.656854 -1.790861,3 -4,3 -2.209139,0 -4,-1.343146 -4,-3 0,-1.656854 1.790861,-3 4,-3 2.209139,0 4,1.343146 4,3 z" transform="matrix(0.75,0,0,-0.5,-4.5,42)" />
        <rect style="color:black;fill:url(#linearGradient4338);fill-opacity:1;fill-rule:nonzero;stroke:url(#linearGradient3879);stroke-width:0.99999994;stroke-linecap:round;stroke-linejoin:round;stroke-miterlimit:4;stroke-opacity:1;stroke-dasharray:none;stroke-dashoffset:0;marker:none;visibility:visible;display:inline;overflow:visible;enable-background:accumulate" id="rect3171" y="36.5" x="1.5" ry="1.9999999" height="11" width="19" rx="1.9999999" />
        <rect style="opacity:0.5;fill:none;stroke:url(#linearGradient3858);stroke-width:1;stroke-miterlimit:4;stroke-opacity:1;stroke-dasharray:none" id="rect3098" y="-46.5" x="2.5" ry="1" height="7" width="17" transform="scale(1,-1)" rx="1" />
        <rect style="color:black;fill:url(#linearGradient4106);fill-opacity:1;fill-rule:nonzero;stroke:none;stroke-width:1;marker:none;visibility:visible;display:inline;overflow:visible;enable-background:accumulate" id="rect4091" width="12" height="0.99999821" x="5" y="44" ry="1" rx="1" />
        <path transform="matrix(0.75,0,0,-0.5,5.5,42)" d="m 18,15 c 0,1.656854 -1.790861,3 -4,3 -2.209139,0 -4,-1.343146 -4,-3 0,-1.656854 1.790861,-3 4,-3 2.209139,0 4,1.343146 4,3 z" sodipodi:ry="3" sodipodi:rx="4" sodipodi:cy="15" sodipodi:cx="14" id="path3101" style="color:black;fill:url(#linearGradient3103);fill-opacity:1;fill-rule:nonzero;stroke:none;stroke-width:1;marker:none;visibility:visible;display:inline;overflow:visible;enable-background:accumulate" sodipodi:type="arc" />
        <path style="font-size:medium;font-style:normal;font-variant:normal;font-weight:normal;font-stretch:normal;text-indent:0;text-align:start;text-decoration:none;line-height:normal;letter-spacing:normal;word-spacing:normal;text-transform:none;direction:ltr;block-progression:tb;writing-mode:lr-tb;text-anchor:start;baseline-shift:baseline;color:black;fill:#bebebe;fill-opacity:1;stroke:#424242;stroke-width:1;stroke-miterlimit:4;stroke-opacity:1;stroke-dasharray:none;marker:none;visibility:visible;display:inline;overflow:visible;enable-background:accumulate;font-family:Sans;-inkscape-font-specification:Sans" d="m 9.5,26.5 c -3.0168066,0.028 -4.9772763,2.398773 -5,5.62499 -0.035092,0.768821 0,0.887545 0,1.687497 -0.015438,0.832682 0.6589172,1.68316 1.5,1.687497 0.8410828,0.0043 1.5066829,-0.854702 1.5,-1.687497 l 0,-1.687497 c -0.021214,-1.590285 1.750378,-2.249996 3,-2.249996 l 1,0 c 1.372252,-0.0056 3,0.805206 3,2.249996 l 0,1.687497 c -0.01189,0.83326 0.658378,1.687497 1.5,1.687497 0.841622,0 1.511685,-0.854237 1.49978,-1.687497 l 0,-1.687497 C 17.498948,28.907689 15.117696,26.510745 12.5,26.5 z" id="path3073" inkscape:connector-curvature="0" sodipodi:nodetypes="cccsccccccscccc" />
        <rect ry="1" y="42" x="5" height="0.99999821" width="12" id="rect3105" style="color:black;fill:url(#linearGradient3107);fill-opacity:1;fill-rule:nonzero;stroke:none;stroke-width:1;marker:none;visibility:visible;display:inline;overflow:visible;enable-background:accumulate" rx="1" />
        <rect rx="1" style="color:black;fill:url(#linearGradient3111);fill-opacity:1;fill-rule:nonzero;stroke:none;stroke-width:1;marker:none;visibility:visible;display:inline;overflow:visible;enable-background:accumulate" id="rect3109" width="12" height="0.99999821" x="5" y="40" ry="1" />
        <path style="font-size:medium;font-style:normal;font-variant:normal;font-weight:normal;font-stretch:normal;text-indent:0;text-align:start;text-decoration:none;line-height:normal;letter-spacing:normal;word-spacing:normal;text-transform:none;direction:ltr;block-progression:tb;writing-mode:lr-tb;text-anchor:start;baseline-shift:baseline;color:black;fill:url(#linearGradient3909);fill-opacity:1;stroke:none;stroke-width:1.68947256;marker:none;visibility:visible;display:inline;overflow:visible;enable-background:accumulate;font-family:Sans;-inkscape-font-specification:Sans" d="m 10.455443,27.000373 c -2.8708249,0 -4.3187458,1.25512 -4.9542406,2.568339 -0.6044962,1.249158 -0.4964155,2.428365 -0.4833414,2.547953 7.002e-4,0.0062 0,0.08153 0,0.08153 l -0.017264,1.223018 a 0.46666996,0.55105638 0 1 0 0.9321571,0 l 0.017264,-1.304552 a 0.46666996,0.55105638 0 0 0 0,-0.08153 c 0,0 -0.1240404,-0.966694 0.3452425,-1.936443 0.469283,-0.969752 1.5071131,-1.997597 4.1601814,-1.997597 l 1.018469,0 0.06905,0 a 0.46666996,0.55105638 0 0 0 0.05178,0 c 0.01316,7.8e-5 0.02144,-1.31e-4 0.03452,0 2.57986,0.02543 3.610465,1.03999 4.073871,1.997597 0.469283,0.969749 0.345244,1.936443 0.345244,1.936443 a 0.46666996,0.55105638 0 0 0 0,0.08153 l -0.01725,1.304552 a 0.46666996,0.55105638 0 1 0 0.932157,0 l 0.01726,-1.223018 0,-0.08153 c 0.01308,-0.119588 0.13842,-1.298795 -0.466076,-2.547953 -0.625342,-1.292237 -2.070044,-2.509031 -4.850669,-2.547955 -0.03243,-4.54e-4 -0.05351,-0.02028 -0.08631,-0.02038 a 0.46666996,0.55105638 0 0 0 -0.03453,0 l -0.08631,0 -1.001206,0 z" id="path3910" inkscape:connector-curvature="0" />
        <path style="font-size:medium;font-style:normal;font-variant:normal;font-weight:normal;font-stretch:normal;text-indent:0;text-align:start;text-decoration:none;line-height:normal;letter-spacing:normal;word-spacing:normal;text-transform:none;direction:ltr;block-progression:tb;writing-mode:lr-tb;text-anchor:start;baseline-shift:baseline;color:black;fill:black;fill-opacity:0.78431373;stroke:none;stroke-width:2;marker:none;visibility:visible;display:inline;overflow:visible;enable-background:accumulate;font-family:Sans;-inkscape-font-specification:Sans" d="m 10,28 c -2.5000003,0 -4,1.363637 -4,5 0,-2.272727 1.4999997,-4.090909 4,-4.090909 l 2,0 c 3,0 4,1.818182 4,4.090909 0,-3.636363 -1.5,-5 -4,-5 z" id="path3899" inkscape:connector-curvature="0" sodipodi:nodetypes="ccccccc" />
        <path sodipodi:nodetypes="cccccc" inkscape:connector-curvature="0" id="path4006" d="m 11,29 c 2.142858,0 5,0 5,3.225479 l 0,1.382349 c 6.1e-5,0.526585 -0.714286,0.519194 -0.714286,0 l 0,-1.843132 C 15.285714,29 11.714286,29 11,29 z" style="font-size:medium;font-style:normal;font-variant:normal;font-weight:normal;font-stretch:normal;text-indent:0;text-align:start;text-decoration:none;line-height:normal;letter-spacing:normal;word-spacing:normal;text-transform:none;direction:ltr;block-progression:tb;writing-mode:lr-tb;text-anchor:start;baseline-shift:baseline;color:black;fill:white;fill-opacity:1;fill-rule:evenodd;stroke:none;stroke-width:1.99999988;marker:none;visibility:visible;display:inline;overflow:visible;enable-background:accumulate;font-family:Sans;-inkscape-font-specification:Sans" />
        <path style="font-size:medium;font-style:normal;font-variant:normal;font-weight:normal;font-stretch:normal;text-indent:0;text-align:start;text-decoration:none;line-height:normal;letter-spacing:normal;word-spacing:normal;text-transform:none;direction:ltr;block-progression:tb;writing-mode:lr-tb;text-anchor:start;baseline-shift:baseline;color:black;fill:white;fill-opacity:1;fill-rule:evenodd;stroke:none;stroke-width:1.99999988;marker:none;visibility:visible;display:inline;overflow:visible;enable-background:accumulate;font-family:Sans;-inkscape-font-specification:Sans" d="m 10,27 c -1.6666673,0 -5,0.470152 -5,4.701531 l 0,1.880613 c -3.87e-5,0.561073 0.5555554,0.553197 0.5555554,0 l 0,-1.880613 C 5.5555554,27.940307 9.444444,27 10,27 z" id="path3972" inkscape:connector-curvature="0" sodipodi:nodetypes="cccccc" />
        <rect width="17" height="6" ry="1" x="2.5" y="37.5" id="rect4087" style="opacity:0.5;fill:none;stroke:url(#linearGradient4089);stroke-width:0.99999988;stroke-miterlimit:4;stroke-opacity:1;stroke-dasharray:none" rx="1" />
        <rect style="opacity:0.75;color:black;fill:url(#radialGradient3850);fill-opacity:1;fill-rule:nonzero;stroke:none;stroke-width:1;marker:none;visibility:visible;display:inline;overflow:visible;enable-background:accumulate" id="rect3842" width="18" height="8" x="2" y="37" ry="1.9999999" rx="2" />
    </g>
</svg>
