<?xml version="1.0" encoding="UTF-8" standalone="no"?>
<!-- Created with Inkscape (http://www.inkscape.org/) -->

<svg xmlns:dc="http://purl.org/dc/elements/1.1/" xmlns:cc="http://creativecommons.org/ns#" xmlns:rdf="http://www.w3.org/1999/02/22-rdf-syntax-ns#" xmlns:svg="http://www.w3.org/2000/svg" xmlns="http://www.w3.org/2000/svg" xmlns:xlink="http://www.w3.org/1999/xlink" xmlns:sodipodi="http://sodipodi.sourceforge.net/DTD/sodipodi-0.dtd" xmlns:inkscape="http://www.inkscape.org/namespaces/inkscape" width="22" height="22" id="svg4700" version="1.1" inkscape:version="0.48.4 r9939" sodipodi:docname="synaptic.svg">
    <defs id="defs4702">
        <linearGradient id="linearGradient4050">
            <stop id="stop4052" offset="0" style="stop-color:#ffffff;stop-opacity:1;" />
            <stop id="stop4054" offset="1" style="stop-color:#ffffff;stop-opacity:0;" />
        </linearGradient>
        <filter id="filter3174" color-interpolation-filters="sRGB">
            <feGaussianBlur stdDeviation="1.71" id="feGaussianBlur3176" />
        </filter>
        <linearGradient gradientTransform="scale(1.0058652,0.994169)" gradientUnits="userSpaceOnUse" id="ButtonShadow" y2="7.0165396" x2="45.447727" y1="92.539597" x1="45.447727">
            <stop offset="0" style="stop-color:#000000;stop-opacity:1" id="stop3750" />
            <stop offset="1" style="stop-color:#000000;stop-opacity:0.58823532" id="stop3752" />
        </linearGradient>
        <linearGradient inkscape:collect="always" xlink:href="#linearGradient4050" id="linearGradient3120" gradientUnits="userSpaceOnUse" gradientTransform="matrix(0.53950485,0,0,0.61161005,-1.9715264,23.570746)" x1="22.440199" y1="4.8942533" x2="22.440199" y2="38.21666" />
        <linearGradient inkscape:collect="always" xlink:href="#linearGradient3157-5-2-4" id="linearGradient3075-3" gradientUnits="userSpaceOnUse" x1="-42.696152" x2="-5.8431101" gradientTransform="matrix(0,-0.57209012,-0.57036717,0,-2.8302753,23.300782)" />
        <linearGradient x2="-5.8431101" x1="-42.696152" id="linearGradient3157-5-2-4" gradientUnits="userSpaceOnUse">
            <stop id="stop29-2" stop-color="#ae802b" offset="0" />
            <stop id="stop31-9" stop-color="#e1c18b" offset="1" />
        </linearGradient>
    </defs>
    <sodipodi:namedview id="base" pagecolor="#ffffff" bordercolor="#666666" borderopacity="1.0" inkscape:pageopacity="0.0" inkscape:pageshadow="2" inkscape:zoom="21.507832" inkscape:cx="19.244628" inkscape:cy="15.481392" inkscape:current-layer="layer1" showgrid="true" inkscape:grid-bbox="true" inkscape:document-units="px" inkscape:window-width="1280" inkscape:window-height="976" inkscape:window-x="0" inkscape:window-y="24" inkscape:window-maximized="1" inkscape:snap-to-guides="false" inkscape:snap-grids="true">
        <inkscape:grid type="xygrid" id="grid1021" empspacing="5" visible="true" enabled="true" snapvisiblegridlinesonly="true" />
    </sodipodi:namedview>
    <metadata id="metadata4705">
        <rdf:RDF>
            <cc:Work rdf:about="">
                <dc:format>image/svg+xml</dc:format>
                <dc:type rdf:resource="http://purl.org/dc/dcmitype/StillImage" />
                <dc:title />
            </cc:Work>
        </rdf:RDF>
    </metadata>
    <g id="layer1" inkscape:label="Layer 1" inkscape:groupmode="layer" transform="translate(0,-26)">
        <g id="layer2" style="display:none" transform="translate(5.204491,-179.6879)">
            <rect width="86" height="85" rx="6" ry="6" x="5" y="7" id="rect3745" style="opacity:0.9;fill:url(#ButtonShadow);fill-opacity:1;fill-rule:nonzero;stroke:none;filter:url(#filter3174)" />
        </g>
        <g id="layer4" transform="translate(4.204491,-178.6879)" />
        <rect style="color:#000000;fill:url(#linearGradient3075-3);fill-opacity:1;fill-rule:nonzero;stroke:#66420d;stroke-width:1;stroke-linecap:round;stroke-linejoin:round;stroke-miterlimit:4;stroke-opacity:1;stroke-dasharray:none;stroke-dashoffset:0;marker:none;visibility:visible;display:inline;overflow:visible;enable-background:accumulate" id="rect3874" width="21" height="21" x="0.5" y="26.5" ry="2" rx="2" />
        <path style="fill:#ffffff" d="M 10,27 C 9.718304,30.17612 7.278723,33 4,33 3.0551131,33 2,33 1,32 l 0,3 c 1,1 2.2232181,1 3,1 0.6960903,0 1.3746439,-0.09706 2.03125,-0.28125 C 6.1775749,34.198428 7.4413087,33 9,33 9.403858,33 9.773328,33.105305 10.125,33.25 11.885085,31.487525 13,29.137201 13,27 l -3,0 z m -1,7 c -1.1045695,0 -2,0.895431 -2,2 0,1.104569 0.8954305,2 2,2 1.104569,0 2,-0.895431 2,-2 0,-1.104569 -0.895431,-2 -2,-2 z" id="path3891" inkscape:connector-curvature="0" />
        <path style="fill:#ffffff" inkscape:connector-curvature="0" d="m 11,41 h 8 v 5 h -8 z" id="path49" />
        <path style="fill:#6a6a6a" d="m 12,42 v 3 h 1 v -3 h -1 z" id="path3123" inkscape:connector-curvature="0" />
        <path style="fill:#6a6a6a" d="m 14,42 v 3 h 2 v -3 h -2 z" id="path3121" inkscape:connector-curvature="0" />
        <path style="fill:#6a6a6a" d="m 17,42 v 3 h 1 v -3 h -1 z" id="path3119" inkscape:connector-curvature="0" />
        <path style="fill:#66420d;fill-opacity:1" d="m 4,41 0,1 -1,0 0,1 1,0 0,2 -1,0 0,1 7,0 0,-1 -1,0 0,-2 1,0 0,-1 -1,0 0,-1 -1,0 0,1 -1,0 0,1 1,0 0,2 -3,0 0,-2 1,0 0,-1 -1,0 0,-1 z" id="path53" inkscape:connector-curvature="0" sodipodi:nodetypes="ccccccccccccccccccccccccccccc" />
        <rect width="19" height="19" ry="1" x="1.5" y="27.500002" id="rect4513" style="opacity:0.5;fill:none;stroke:url(#linearGradient3120);stroke-width:1;stroke-miterlimit:4;stroke-opacity:1;stroke-dasharray:none" rx="1.0000001" />
    </g>
</svg>
