<?xml version="1.0" encoding="UTF-8" standalone="no"?>
<!-- Created with Inkscape (http://www.inkscape.org/) -->

<svg xmlns:dc="http://purl.org/dc/elements/1.1/" xmlns:cc="http://creativecommons.org/ns#" xmlns:rdf="http://www.w3.org/1999/02/22-rdf-syntax-ns#" xmlns:svg="http://www.w3.org/2000/svg" xmlns="http://www.w3.org/2000/svg" xmlns:xlink="http://www.w3.org/1999/xlink" xmlns:sodipodi="http://sodipodi.sourceforge.net/DTD/sodipodi-0.dtd" xmlns:inkscape="http://www.inkscape.org/namespaces/inkscape" width="22" height="22" id="svg3877" version="1.1" inkscape:version="0.48.4 r9939" sodipodi:docname="thunderbird.svg">
    <defs id="defs3879">
        <linearGradient inkscape:collect="always" xlink:href="#linearGradient4594-3-8" id="linearGradient5698" gradientUnits="userSpaceOnUse" gradientTransform="matrix(0.5155929,0,0,0.4931506,-0.139306,1028.4033)" x1="8.2114201" y1="-5.7136502" x2="31.74275" y2="25.48744" />
        <linearGradient gradientUnits="userSpaceOnUse" id="linearGradient4594-3-8" x1="8.2114201" x2="31.74275" y1="-5.7136502" y2="25.48744">
            <stop offset="0" stop-color="#fff" id="stop37-5-1-3" />
            <stop offset="1" stop-color="#fff" stop-opacity="0" id="stop39-0-8" />
        </linearGradient>
        <linearGradient id="linearGradient3801-25-6">
            <stop id="stop3803-6" offset="0" style="stop-color:#446779;stop-opacity:1;" />
            <stop id="stop3805-8" offset="1" style="stop-color:#252525;stop-opacity:1;" />
        </linearGradient>
        <linearGradient inkscape:collect="always" xlink:href="#linearGradient4050" id="linearGradient3120" gradientUnits="userSpaceOnUse" gradientTransform="matrix(0.53950487,0,0,0.61161008,-1.971527,1027.9329)" x1="22.440199" y1="4.8942533" x2="22.440199" y2="38.21666" />
        <linearGradient id="linearGradient4050">
            <stop id="stop4052" offset="0" style="stop-color:#ffffff;stop-opacity:0.66929132;" />
            <stop id="stop4054" offset="1" style="stop-color:#ffffff;stop-opacity:0;" />
        </linearGradient>
        <clipPath clipPathUnits="userSpaceOnUse" id="clipPath6197">
            <rect style="fill:black;fill-opacity:1;fill-rule:nonzero;stroke:none;stroke-width:0.97674417;marker:none;visibility:visible;display:inline;overflow:visible;enable-background:accumulate" id="rect6199" width="23.448593" height="23.448591" x="76.043358" y="15.163994" rx="1.2341367" ry="1.6033224" />
        </clipPath>
        <radialGradient inkscape:collect="always" xlink:href="#XMLID_1_" id="radialGradient5296" gradientUnits="userSpaceOnUse" gradientTransform="matrix(0.205043,0,0,0.205043,70.948408,11.935159)" cx="111.25" cy="123.5" fx="111.25" fy="123.5" r="91" />
        <radialGradient gradientTransform="matrix(0.205043,0,0,0.205043,70.948408,11.935159)" fy="123.5" fx="111.25" r="91" cy="123.5" cx="111.25" gradientUnits="userSpaceOnUse" id="XMLID_1_">
            <stop id="stop5" style="stop-color:#000000;" offset="0.00" />
            <stop id="stop7" style="stop-color:#000000;" offset="0.50" />
            <stop id="stop9" style="stop-color:#000000; stop-opacity:0.00;" offset="1.00" />
        </radialGradient>
        <radialGradient inkscape:collect="always" xlink:href="#XMLID_2_" id="radialGradient5298" gradientUnits="userSpaceOnUse" gradientTransform="matrix(0.205043,0,0,0.205043,70.948408,11.935159)" cx="151.75" cy="175.67" fx="151.75" fy="175.67" r="126.3" />
        <radialGradient gradientTransform="matrix(0.205043,0,0,0.205043,70.948408,11.935159)" fy="175.67" fx="151.75" r="126.3" cy="175.67" cx="151.75" gradientUnits="userSpaceOnUse" id="XMLID_2_">
            <stop id="stop12" style="stop-color:#f2be7f;" offset="0.00" />
            <stop id="stop14" style="stop-color:#ffffdc;" offset="1.00" />
        </radialGradient>
        <linearGradient inkscape:collect="always" xlink:href="#XMLID_3_" id="linearGradient5300" gradientUnits="userSpaceOnUse" gradientTransform="matrix(0.205043,0,0,0.205043,70.948408,11.935159)" x1="100.13" y1="79.080002" x2="94.449997" y2="45.619999" />
        <linearGradient gradientTransform="matrix(0.205043,0,0,0.205043,70.948408,11.935159)" y2="45.619999" x2="94.449997" y1="79.080002" x1="100.13" gradientUnits="userSpaceOnUse" id="XMLID_3_">
            <stop id="stop17" style="stop-color:#c3ad7b;stop-opacity:1;" offset="0" />
            <stop id="stop19" style="stop-color:#533100;stop-opacity:1;" offset="1" />
        </linearGradient>
        <filter color-interpolation-filters="sRGB" id="filter8029" inkscape:collect="always">
            <feGaussianBlur id="feGaussianBlur8031" stdDeviation="0.43996176" inkscape:collect="always" />
        </filter>
        <radialGradient inkscape:collect="always" xlink:href="#XMLID_4_" id="radialGradient5302" gradientUnits="userSpaceOnUse" gradientTransform="matrix(0.205043,0,0,0.205043,70.948408,11.935159)" cx="149.75" cy="87" fx="149.75" fy="87" r="90.870003" />
        <radialGradient gradientTransform="matrix(0.205043,0,0,0.205043,70.948408,11.935159)" fy="87" fx="149.75" r="90.870003" cy="87" cx="149.75" gradientUnits="userSpaceOnUse" id="XMLID_4_">
            <stop id="stop22" style="stop-color:#f2be7f;" offset="0.00" />
            <stop id="stop24" style="stop-color:#ffffdc;" offset="1.00" />
        </radialGradient>
        <linearGradient inkscape:collect="always" xlink:href="#XMLID_5_" id="linearGradient5304" gradientUnits="userSpaceOnUse" gradientTransform="matrix(0.3057651,0,0,0.3057651,-6.4331058,-5.0379535)" x1="80.160004" y1="171.37" x2="82.470001" y2="164.25" />
        <linearGradient gradientTransform="matrix(0.205043,0,0,0.205043,70.948408,11.935159)" y2="164.25" x2="82.470001" y1="171.37" x1="80.160004" gradientUnits="userSpaceOnUse" id="XMLID_5_">
            <stop id="stop27" style="stop-color:#aa944b;" offset="0.00" />
            <stop id="stop29" style="stop-color:#aa944b; stop-opacity:0.00;" offset="1.00" />
        </linearGradient>
        <filter color-interpolation-filters="sRGB" height="1.1582226" y="-0.079111278" width="1.4967408" x="-0.24837042" id="filter8057" inkscape:collect="always">
            <feGaussianBlur id="feGaussianBlur8059" stdDeviation="0.5338805" inkscape:collect="always" />
        </filter>
        <filter color-interpolation-filters="sRGB" height="1.3480948" y="-0.17404741" width="1.1831316" x="-0.091565818" id="filter8089" inkscape:collect="always">
            <feGaussianBlur id="feGaussianBlur8091" stdDeviation="0.413674" inkscape:collect="always" />
        </filter>
        <linearGradient inkscape:collect="always" xlink:href="#XMLID_6_" id="linearGradient5306" gradientUnits="userSpaceOnUse" gradientTransform="matrix(0.205043,0,0,0.205043,70.948408,11.935159)" x1="34.919998" y1="84.019997" x2="34.919998" y2="58.060001" />
        <linearGradient gradientTransform="matrix(0.205043,0,0,0.205043,70.948408,11.935159)" y2="58.060001" x2="34.919998" y1="84.019997" x1="34.919998" gradientUnits="userSpaceOnUse" id="XMLID_6_">
            <stop id="stop32" style="stop-color:#d2b170;" offset="0.01" />
            <stop id="stop34" style="stop-color:#a25f00;" offset="1.00" />
        </linearGradient>
        <linearGradient inkscape:collect="always" xlink:href="#XMLID_7_" id="linearGradient5308" gradientUnits="userSpaceOnUse" gradientTransform="matrix(0.205043,0,0,0.205043,70.948408,11.935159)" x1="85.489998" y1="124.25" x2="85.489998" y2="71.330002" />
        <linearGradient gradientTransform="matrix(0.205043,0,0,0.205043,70.948408,11.935159)" y2="71.330002" x2="85.489998" y1="124.25" x1="85.489998" gradientUnits="userSpaceOnUse" id="XMLID_7_">
            <stop id="stop37" style="stop-color:#a25f00; stop-opacity:0.00;" offset="0.00" />
            <stop id="stop39" style="stop-color:#a25f00;" offset="1.00" />
        </linearGradient>
        <filter color-interpolation-filters="sRGB" id="filter8061" inkscape:collect="always">
            <feGaussianBlur id="feGaussianBlur8063" stdDeviation="0.27574245" inkscape:collect="always" />
        </filter>
        <linearGradient inkscape:collect="always" xlink:href="#XMLID_8_" id="linearGradient5310" gradientUnits="userSpaceOnUse" gradientTransform="matrix(0.205043,0,0,0.205043,70.948408,11.935159)" x1="29.23" y1="187.64" x2="29.23" y2="165.83" />
        <linearGradient gradientTransform="matrix(0.205043,0,0,0.205043,70.948408,11.935159)" y2="165.83" x2="29.23" y1="187.64" x1="29.23" gradientUnits="userSpaceOnUse" id="XMLID_8_">
            <stop id="stop42" style="stop-color:#a4d8e5;" offset="0.00" />
            <stop id="stop44" style="stop-color:#0c418f;" offset="0.50" />
            <stop id="stop46" style="stop-color:#000060;" offset="1.00" />
        </linearGradient>
        <linearGradient inkscape:collect="always" xlink:href="#XMLID_9_" id="linearGradient5312" gradientUnits="userSpaceOnUse" gradientTransform="matrix(0.205043,0,0,0.205043,70.948408,11.935159)" x1="15.71" y1="170.38" x2="15.71" y2="141.59" />
        <linearGradient gradientTransform="matrix(0.205043,0,0,0.205043,70.948408,11.935159)" y2="141.59" x2="15.71" y1="170.38" x1="15.71" gradientUnits="userSpaceOnUse" id="XMLID_9_">
            <stop id="stop49" style="stop-color:#a4d8e5;" offset="0.00" />
            <stop id="stop51" style="stop-color:#0c418f;" offset="0.50" />
            <stop id="stop53" style="stop-color:#000060;" offset="1.00" />
        </linearGradient>
        <radialGradient inkscape:collect="always" xlink:href="#XMLID_10_" id="radialGradient5314" gradientUnits="userSpaceOnUse" gradientTransform="matrix(0.205043,0,0,0.205043,70.948408,11.935159)" cx="41.75" cy="67" fx="41.75" fy="67" r="77.830002" />
        <radialGradient gradientTransform="matrix(0.205043,0,0,0.205043,70.948408,11.935159)" fy="67" fx="41.75" r="77.830002" cy="67" cx="41.75" gradientUnits="userSpaceOnUse" id="XMLID_10_">
            <stop id="stop56" style="stop-color:#000060;" offset="0.00" />
            <stop id="stop58" style="stop-color:#0c418f;" offset="0.50" />
            <stop id="stop60" style="stop-color:#a4d8e5;" offset="1.00" />
        </radialGradient>
        <radialGradient inkscape:collect="always" xlink:href="#XMLID_11_" id="radialGradient5316" gradientUnits="userSpaceOnUse" gradientTransform="matrix(0.205043,0,0,0.205043,70.948408,11.935159)" cx="57.5" cy="54.25" fx="57.5" fy="54.25" r="71.419998" />
        <radialGradient gradientTransform="matrix(0.205043,0,0,0.205043,70.948408,11.935159)" fy="54.25" fx="57.5" r="71.419998" cy="54.25" cx="57.5" gradientUnits="userSpaceOnUse" id="XMLID_11_">
            <stop id="stop63" style="stop-color:#000060;" offset="0.00" />
            <stop id="stop65" style="stop-color:#0c418f;" offset="0.50" />
            <stop id="stop67" style="stop-color:#a4d8e5;" offset="1.00" />
        </radialGradient>
        <linearGradient inkscape:collect="always" xlink:href="#XMLID_12_" id="linearGradient5318" gradientUnits="userSpaceOnUse" gradientTransform="matrix(0.205043,0,0,0.205043,70.948408,11.935159)" x1="46.73" y1="25.34" x2="9.2200003" y2="90.300003" />
        <linearGradient gradientTransform="matrix(0.205043,0,0,0.205043,70.948408,11.935159)" y2="90.300003" x2="9.2200003" y1="25.34" x1="46.73" gradientUnits="userSpaceOnUse" id="XMLID_12_">
            <stop id="stop70" style="stop-color:#1b609d;" offset="0.01" />
            <stop id="stop72" style="stop-color:#9fd2e5;" offset="0.50" />
            <stop id="stop74" style="stop-color:#4187b8;" offset="1.00" />
        </linearGradient>
        <linearGradient inkscape:collect="always" xlink:href="#XMLID_13_" id="linearGradient5320" gradientUnits="userSpaceOnUse" gradientTransform="matrix(0.205043,0,0,0.205043,70.948408,11.935159)" x1="66.43" y1="24.35" x2="123.46" y2="81.379997" />
        <linearGradient gradientTransform="matrix(0.205043,0,0,0.205043,70.948408,11.935159)" y2="81.379997" x2="123.46" y1="24.35" x1="66.43" gradientUnits="userSpaceOnUse" id="XMLID_13_">
            <stop id="stop77" style="stop-color:#a4d8e5;" offset="0.00" />
            <stop id="stop79" style="stop-color:#0c418f;" offset="0.67" />
            <stop id="stop81" style="stop-color:#000040;" offset="1.00" />
        </linearGradient>
        <linearGradient inkscape:collect="always" xlink:href="#XMLID_14_" id="linearGradient5322" gradientUnits="userSpaceOnUse" gradientTransform="matrix(0.205043,0,0,0.205043,70.948408,11.935159)" x1="71.550003" y1="36.5" x2="61.5" y2="8.8800001" />
        <linearGradient gradientTransform="matrix(0.205043,0,0,0.205043,70.948408,11.935159)" y2="8.8800001" x2="61.5" y1="36.5" x1="71.550003" gradientUnits="userSpaceOnUse" id="XMLID_14_">
            <stop id="stop84" style="stop-color:#a4d8e5;" offset="0.00" />
            <stop id="stop86" style="stop-color:#0c418f;" offset="1.00" />
        </linearGradient>
        <linearGradient inkscape:collect="always" xlink:href="#XMLID_15_" id="linearGradient5324" gradientUnits="userSpaceOnUse" gradientTransform="matrix(0.205043,0,0,0.205043,70.948408,11.935159)" x1="115.05" y1="222.03999" x2="170.24001" y2="126.46" />
        <linearGradient gradientTransform="matrix(0.205043,0,0,0.205043,70.948408,11.935159)" y2="126.46" x2="170.24001" y1="222.03999" x1="115.05" gradientUnits="userSpaceOnUse" id="XMLID_15_">
            <stop id="stop89" style="stop-color:#b4b4dc;" offset="0.01" />
            <stop id="stop91" style="stop-color:#000000;" offset="1.00" />
        </linearGradient>
        <linearGradient inkscape:collect="always" xlink:href="#XMLID_16_" id="linearGradient5326" gradientUnits="userSpaceOnUse" gradientTransform="matrix(0.205043,0,0,0.205043,70.948408,11.935159)" x1="139.21001" y1="224.10001" x2="168.19" y2="173.89999" />
        <linearGradient gradientTransform="matrix(0.205043,0,0,0.205043,70.948408,11.935159)" y2="173.89999" x2="168.19" y1="224.10001" x1="139.21001" gradientUnits="userSpaceOnUse" id="XMLID_16_">
            <stop id="stop94" style="stop-color:#b4b4dc;" offset="0.01" />
            <stop id="stop96" style="stop-color:#000000;" offset="1.00" />
        </linearGradient>
        <linearGradient inkscape:collect="always" xlink:href="#XMLID_17_" id="linearGradient5328" gradientUnits="userSpaceOnUse" gradientTransform="matrix(0.205043,0,0,0.205043,70.948408,11.935159)" x1="185.78999" y1="171.82001" x2="185.78999" y2="72.25" />
        <linearGradient gradientTransform="matrix(0.205043,0,0,0.205043,70.948408,11.935159)" y2="72.25" x2="185.78999" y1="171.82001" x1="185.78999" gradientUnits="userSpaceOnUse" id="XMLID_17_">
            <stop id="stop99" style="stop-color:#6498c1;" offset="0.00" />
            <stop id="stop101" style="stop-color:#0c418f;" offset="0.20" />
            <stop id="stop103" style="stop-color:#000040;" offset="1.00" />
        </linearGradient>
        <linearGradient inkscape:collect="always" xlink:href="#XMLID_18_" id="linearGradient5330" gradientUnits="userSpaceOnUse" gradientTransform="matrix(0.205043,0,0,0.205043,70.948408,11.935159)" x1="185.2" y1="149.75" x2="185.2" y2="60.68" />
        <linearGradient gradientTransform="matrix(0.205043,0,0,0.205043,70.948408,11.935159)" y2="60.68" x2="185.2" y1="149.75" x1="185.2" gradientUnits="userSpaceOnUse" id="XMLID_18_">
            <stop id="stop106" style="stop-color:#a4d8e5;" offset="0.00" />
            <stop id="stop108" style="stop-color:#0c418f;" offset="0.20" />
            <stop id="stop110" style="stop-color:#000040;" offset="0.50" />
        </linearGradient>
        <linearGradient inkscape:collect="always" xlink:href="#XMLID_19_" id="linearGradient5332" gradientUnits="userSpaceOnUse" gradientTransform="matrix(0.205043,0,0,0.205043,70.948408,11.935159)" x1="151.2" y1="134.73" x2="151.2" y2="83.480003" />
        <linearGradient gradientTransform="matrix(0.205043,0,0,0.205043,70.948408,11.935159)" y2="83.480003" x2="151.2" y1="134.73" x1="151.2" gradientUnits="userSpaceOnUse" id="XMLID_19_">
            <stop id="stop113" style="stop-color:#a4d8e5;" offset="0.00" />
            <stop id="stop115" style="stop-color:#0c418f;" offset="0.50" />
            <stop id="stop117" style="stop-color:#000060;" offset="1.00" />
        </linearGradient>
        <linearGradient inkscape:collect="always" xlink:href="#XMLID_20_" id="linearGradient5334" gradientUnits="userSpaceOnUse" gradientTransform="matrix(0.205043,0,0,0.205043,70.948408,11.935159)" x1="132.09" y1="33.560001" x2="171.09" y2="88.059998" />
        <linearGradient gradientTransform="matrix(0.205043,0,0,0.205043,70.948408,11.935159)" y2="88.059998" x2="171.09" y1="33.560001" x1="132.09" gradientUnits="userSpaceOnUse" id="XMLID_20_">
            <stop id="stop120" style="stop-color:#4187b8;" offset="0.00" />
            <stop id="stop122" style="stop-color:#074e92;" offset="1.00" />
        </linearGradient>
        <linearGradient inkscape:collect="always" xlink:href="#XMLID_21_" id="linearGradient5336" gradientUnits="userSpaceOnUse" gradientTransform="matrix(0.205043,0,0,0.205043,70.948408,11.935159)" x1="162.21001" y1="71.089996" x2="134.67999" y2="23.41" />
        <linearGradient gradientTransform="matrix(0.205043,0,0,0.205043,70.948408,11.935159)" y2="23.41" x2="134.67999" y1="71.089996" x1="162.21001" gradientUnits="userSpaceOnUse" id="XMLID_21_">
            <stop id="stop125" style="stop-color:#1b609d;" offset="0.01" />
            <stop id="stop127" style="stop-color:#9fd2e5;" offset="0.50" />
            <stop id="stop129" style="stop-color:#4187b8;" offset="1.00" />
        </linearGradient>
        <linearGradient inkscape:collect="always" xlink:href="#XMLID_22_" id="linearGradient5338" gradientUnits="userSpaceOnUse" gradientTransform="matrix(0.205043,0,0,0.205043,70.948408,11.935159)" x1="50.32" y1="74.900002" x2="94.57" y2="30.65" />
        <linearGradient gradientTransform="matrix(0.205043,0,0,0.205043,70.948408,11.935159)" y2="30.65" x2="94.57" y1="74.900002" x1="50.32" gradientUnits="userSpaceOnUse" id="XMLID_22_">
            <stop id="stop132" style="stop-color:#a5b4d3;" offset="0.00" />
            <stop id="stop134" style="stop-color:#a5b4d3; stop-opacity:0.33;" offset="1.00" />
        </linearGradient>
        <linearGradient inkscape:collect="always" xlink:href="#XMLID_23_" id="linearGradient5340" gradientUnits="userSpaceOnUse" gradientTransform="matrix(0.205043,0,0,0.205043,70.948408,11.935159)" x1="48.16" y1="72.75" x2="92.410004" y2="28.5" />
        <linearGradient gradientTransform="matrix(0.205043,0,0,0.205043,70.948408,11.935159)" y2="28.5" x2="92.410004" y1="72.75" x1="48.16" gradientUnits="userSpaceOnUse" id="XMLID_23_">
            <stop id="stop137" style="stop-color:#264b92;" offset="0.00" />
            <stop id="stop139" style="stop-color:#264b92; stop-opacity:0.33;" offset="1.00" />
        </linearGradient>
        <radialGradient inkscape:collect="always" xlink:href="#eye_2_" id="radialGradient5342" gradientUnits="userSpaceOnUse" gradientTransform="matrix(0.205043,0,0,0.205043,70.948408,11.935159)" cx="58.580002" cy="67.169998" fx="58.580002" fy="67.169998" r="8.5100002" />
        <radialGradient gradientTransform="matrix(0.205043,0,0,0.205043,70.948408,11.935159)" fy="67.169998" fx="58.580002" r="8.5100002" cy="67.169998" cx="58.580002" gradientUnits="userSpaceOnUse" id="eye_2_">
            <stop id="stop142" style="stop-color:#600000;" offset="0.00" />
            <stop id="stop144" style="stop-color:#c00000;" offset="0.50" />
            <stop id="stop146" style="stop-color:#f6aa00;" offset="1.00" />
        </radialGradient>
        <radialGradient inkscape:collect="always" xlink:href="#pupil_1_" id="radialGradient5344" gradientUnits="userSpaceOnUse" gradientTransform="matrix(0.205043,0,0,0.205043,70.948408,11.935159)" cx="59.610001" cy="65.110001" fx="59.610001" fy="65.110001" r="3.8" />
        <radialGradient gradientTransform="matrix(0.205043,0,0,0.205043,70.948408,11.935159)" fy="65.110001" fx="59.610001" r="3.8" cy="65.110001" cx="59.610001" gradientUnits="userSpaceOnUse" id="pupil_1_">
            <stop id="stop149" style="stop-color:#ffffff;" offset="0.01" />
            <stop id="stop151" style="stop-color:#000000;" offset="1.00" />
        </radialGradient>
        <radialGradient inkscape:collect="always" xlink:href="#XMLID_24_" id="radialGradient5346" gradientUnits="userSpaceOnUse" gradientTransform="matrix(0.205043,0,0,0.205043,70.948408,11.935159)" cx="51.5" cy="87.5" fx="51.5" fy="87.5" r="12.97" />
        <radialGradient gradientTransform="matrix(0.205043,0,0,0.205043,70.948408,11.935159)" fy="87.5" fx="51.5" r="12.97" cy="87.5" cx="51.5" gradientUnits="userSpaceOnUse" id="XMLID_24_">
            <stop id="stop154" style="stop-color:#769eb8;" offset="0.00" />
            <stop id="stop156" style="stop-color:#ffffff;" offset="1.00" />
        </radialGradient>
        <radialGradient inkscape:collect="always" xlink:href="#XMLID_25_" id="radialGradient5348" gradientUnits="userSpaceOnUse" gradientTransform="matrix(0.205043,0,0,0.205043,70.948408,11.935159)" cx="47.25" cy="82.5" fx="47.25" fy="82.5" r="3.78" />
        <radialGradient gradientTransform="matrix(0.205043,0,0,0.205043,70.948408,11.935159)" fy="82.5" fx="47.25" r="3.78" cy="82.5" cx="47.25" gradientUnits="userSpaceOnUse" id="XMLID_25_">
            <stop id="stop159" style="stop-color:#ffffff;" offset="0.01" />
            <stop id="stop161" style="stop-color:#000000;" offset="1.00" />
        </radialGradient>
        <linearGradient id="linearGradient5630-4">
            <stop style="stop-color:#fba128;stop-opacity:1" offset="0" id="stop5632-9" />
            <stop style="stop-color:#b63702;stop-opacity:1" offset="1" id="stop5634-9" />
        </linearGradient>
        <linearGradient y2="0.11266359" x2="-42" y1="-7" x1="-42" gradientTransform="matrix(0.51045026,0,0,0.51045026,29.340495,1034.8693)" gradientUnits="userSpaceOnUse" id="linearGradient4240" xlink:href="#linearGradient5630-4" inkscape:collect="always" />
        <linearGradient y2="43.004219" x2="24.420143" y1="2.3661644" x1="24.420143" gradientTransform="matrix(0.51005879,0,0,0.51038212,-1.27725,1029.7598)" gradientUnits="userSpaceOnUse" id="linearGradient4242" xlink:href="#linearGradient3801-25-6" inkscape:collect="always" />
        <linearGradient y2="43.004219" x2="24.420143" y1="2.3661644" x1="24.420143" gradientTransform="matrix(0.51005879,0,0,0.51038212,-1.27725,1029.7598)" gradientUnits="userSpaceOnUse" id="linearGradient4244" xlink:href="#linearGradient3801-25-6" inkscape:collect="always" />
    </defs>
    <sodipodi:namedview id="base" pagecolor="#ffffff" bordercolor="#666666" borderopacity="1.0" inkscape:pageopacity="0.0" inkscape:pageshadow="2" inkscape:zoom="8" inkscape:cx="22.964672" inkscape:cy="12.901656" inkscape:document-units="px" inkscape:current-layer="capa1" showgrid="true" inkscape:window-width="1280" inkscape:window-height="976" inkscape:window-x="0" inkscape:window-y="24" inkscape:window-maximized="1">
        <inkscape:grid type="xygrid" id="grid3960" empspacing="5" visible="true" enabled="true" snapvisiblegridlinesonly="true" />
    </sodipodi:namedview>
    <metadata id="metadata3882">
        <rdf:RDF>
            <cc:Work rdf:about="">
                <dc:format>image/svg+xml</dc:format>
                <dc:type rdf:resource="http://purl.org/dc/dcmitype/StillImage" />
                <dc:title />
            </cc:Work>
        </rdf:RDF>
    </metadata>
    <g inkscape:label="Capa 1" inkscape:groupmode="layer" id="capa1" transform="translate(0,-1030.3622)">
        <g id="layer4" transform="translate(33.204491,801.67427)" />
        <g id="layer4-3" transform="translate(59.768872,812.12813)" />
        <g id="layer4-8" transform="translate(115.89387,815.06336)" />
        <g id="layer4-4" transform="translate(60.006735,815.58272)" />
        <g id="layer4-0" transform="translate(120.44109,814.78987)" />
        <g id="layer4-6" transform="translate(37,843.57617)" />
        <g transform="matrix(0.08436872,0,0,0.08436872,24.02562,1011.998)" id="g5892" style="stroke:none" />
        <rect style="color:black;fill:url(#linearGradient4240);fill-opacity:1;fill-rule:nonzero;stroke:url(#linearGradient4242);stroke-width:1;stroke-linecap:butt;stroke-linejoin:miter;stroke-miterlimit:4;stroke-opacity:1;stroke-dasharray:none;stroke-dashoffset:0;marker:none;visibility:visible;display:inline;overflow:visible;enable-background:accumulate" id="rect3874" width="21" height="21" x="0.5" y="1030.8622" ry="2" rx="2" />
        <g id="g4128" transform="matrix(0.89235744,0,0,0.89235744,-67.320121,1017.3682)" clip-path="url(#clipPath6197)">
            <path inkscape:connector-curvature="0" style="fill:url(#radialGradient5296);stroke:none" id="path163" d="m 112.41833,37.257959 c 0,10.305457 -8.35345,18.658899 -18.652746,18.658899 -10.29931,0 -18.663007,-8.353442 -18.663007,-18.658899 0,-10.305457 8.353447,-18.658905 18.658907,-18.658905 10.305446,0 18.656846,8.353448 18.656846,18.658905 z" />
            <path inkscape:connector-curvature="0" style="fill:#340000;stroke:none" id="path165" d="m 77.237074,22.550231 -5.240897,6.709004 2.780382,14.14796 25.587301,8.285783 6.12053,-10.397724 -1.79412,-15.579161 -19.645166,-9.064947 -7.6645,5.716596 -0.14353,0.182489 z" />
            <path inkscape:connector-curvature="0" style="fill:url(#radialGradient5298);stroke:none" id="path167" d="m 104.91786,31.280957 -19.565186,7.361041 -8.993184,-14.301743 -3.924521,5.023552 2.696314,22.262838 25.045987,-0.425767 5.88473,-9.995843 -1.14414,-9.924078 z" sodipodi:nodetypes="cccccccc" />
            <path inkscape:connector-curvature="0" style="fill:url(#linearGradient5300);stroke:none;filter:url(#filter8029)" id="path169" d="M 85.112774,40.436124 77.663563,29.841557 c -4.168522,3.690772 0.272707,8.406759 -0.33627,9.091602 -0.411453,0.455195 -1.369687,-0.06903 -2.874702,-1.572679 -2.257522,-2.255471 0.410086,2.665558 1.640344,4.373566 0.820171,1.140038 -0.15925,1.071691 -2.938265,-0.205043 l -0.822222,-13.395454 3.639511,-4.408422 36.206471,5.023551 -10.66223,6.151287 -16.403426,5.536159 z" />
            <path inkscape:connector-curvature="0" style="fill:#340000;stroke:none" id="path171" d="m 111.23934,28.90246 -25.886666,9.739538 -9.380715,-14.916871 -0.346522,0.217345 9.559097,15.201881 26.198336,-9.858462 -0.14353,-0.383431 z" sodipodi:nodetypes="ccccccc" />
            <path inkscape:connector-curvature="0" style="fill:url(#radialGradient5302);stroke:none" id="path173" d="m 104.91786,31.280957 -0.38753,-3.362702 -27.779208,-4.078305 -0.147631,0.18659 -0.244001,0.313715 8.993184,14.301743 19.565186,-7.361041 z" />
            <path inkscape:connector-curvature="0" style="fill:url(#linearGradient5304);stroke:none" d="m -3.90625,34.09375 c -10e-8,10e-7 2.7507658,8.631159 7.65625,15.5625 9.944835,6.931344 7.522324,3.5625 7.53125,3.5625 C 13.060195,54.259936 14.241077,54.25 14.25,54.25 14.2441,53.208811 9.7866257,53.002709 8.53125,45.9375 c 1.332721,2.677341 6.693585,4.141231 7,3.84375 0.186198,-0.188092 -0.618502,-1.537463 -2.3125,-4 l 23.9375,7.75 1.03125,-1.78125 -38.5,-12.78125 -0.9375,-4 -2.65625,-0.875 z" transform="matrix(0.6705898,0,0,0.6705898,75.262383,15.313559)" id="path175" />
            <path inkscape:connector-curvature="0" style="fill:#7b5516;stroke:none;filter:url(#filter8057)" id="path177" d="m 104.92196,27.725513 -0.39163,0.192742 0.38753,3.362702 -4.58886,1.726462 c 2.26368,4.849265 0.55567,10.914434 0.56182,10.914434 3.50828,-1.876142 4.42688,-7.258519 4.59706,-11.351175 l -0.56592,-4.845165 z" />
            <path inkscape:connector-curvature="0" style="fill:#7b5516;stroke:none;filter:url(#filter8089)" id="path179" d="m 94.077244,27.303125 c 3.53904,0.963702 5.16709,3.379108 6.257906,5.704294 l 4.58476,-1.726462 -0.38753,-3.362702 -3.66206,-0.537213 -0.24195,1.162593 -6.551126,-1.24051 z" />
            <path inkscape:connector-curvature="0" style="fill:url(#linearGradient5306);stroke:none" id="path181" d="m 79.560211,24.252087 -2.809089,-0.412137 -0.147631,0.18659 -0.244001,0.313715 3.032586,4.822609 0.0164,-0.0021 c 0.133278,-0.81197 0.391633,-1.453754 0.397783,-1.453754 0.0062,0 0.01435,0.03896 0.05126,0.102521 l -0.03896,-0.893987 c -0.0164,-0.725852 -0.213244,-1.712108 -0.252202,-2.663507 l -0.0062,0 z" />
            <path inkscape:connector-curvature="0" style="fill:url(#linearGradient5308);stroke:none;filter:url(#filter8061)" id="path183" d="m 94.077244,27.303125 c 0,0 -2.77833,-0.604876 -4.72008,-0.742255 -1.94176,-0.137379 -4.36332,1.779773 -5.12608,2.239068 -0.40598,0.244001 -0.86323,0.492103 -1.349178,0.750457 0.03896,1.929454 0.506458,6.11438 3.657968,7.861346 -0.0082,-10.252146 7.53737,-10.108616 7.54353,-10.108616 l -0.0062,0 z" />
            <path inkscape:connector-curvature="0" style="fill:url(#linearGradient5310);stroke:none" id="path187" d="m 81.251814,50.739528 c 0,0 -4.377666,-0.29731 -8.103296,-7.685007 -2.20011,-7.641948 2.903408,4.39612 8.109448,7.685007 l -0.0062,0 z" />
            <path inkscape:connector-curvature="0" style="fill:url(#linearGradient5312);stroke:none" id="path189" d="m 70.983265,33.882952 c 0,0 0.529011,11.525462 6.378885,13.42211 -2.977223,-4.049598 -3.822,-11.94375 -3.815848,-11.94375 l -2.563037,-1.47836 z" />
            <path inkscape:connector-curvature="0" style="fill:url(#radialGradient5314);stroke:none" id="path191" d="m 74.434137,41.205035 c -1.230257,0.256304 -3.561595,-4.049598 -3.479578,-8.509281 0.04921,-2.973122 0.559767,-5.348203 1.531671,-7.125241 l 1.025214,8.45802 c 0,0 0,5.792462 0.928845,7.176502 l -0.0062,0 z" />
            <path inkscape:connector-curvature="0" style="fill:black;stroke:none" id="path193" d="m 90.171184,14.498195 c 0,0 -14.045443,2.255472 -17.678803,11.072318 -2.491271,6.229203 3.147409,11.560319 3.998337,10.713492 -0.0041,0 -3.061291,-3.979883 -0.04921,-9.926128 2.003953,-3.964162 6.580511,-7.91739 13.729676,-11.859682 z" />
            <path inkscape:connector-curvature="0" style="fill:url(#radialGradient5316);stroke:none" id="path195" d="m 90.171184,14.498195 c 0,0 -12.208001,-5.7462923 -15.841361,3.070554 -2.491271,6.229203 1.309967,19.562083 2.160895,18.715256 -0.0041,0 -3.899916,-4.613466 -0.459296,-10.867275 2.288279,-4.169205 7.001532,-7.808717 14.139762,-10.918535 z" sodipodi:nodetypes="ccscc" />
            <path inkscape:connector-curvature="0" style="fill:url(#linearGradient5318);stroke:none" id="path197" d="m 72.469826,27.245714 c -0.752507,5.023551 0.865281,3.143307 2.124245,-0.752508 -1.252812,2.169354 -2.124245,1.589083 -2.118093,0.752508 l -0.0062,0 z m 1.566528,-3.477528 c -2.237018,4.562205 -0.127126,3.260181 2.253422,-0.07587 -1.851538,1.691604 -2.507675,0.873483 -2.24727,0.07587 l -0.0062,0 z m 4.469937,-4.664727 c -3.256083,2.893156 -1.158494,2.544583 1.814629,0.67049 -2.021723,0.742255 -2.273927,-0.118924 -1.808479,-0.67049 l -0.0061,0 z m -2.306734,2.060682 c -3.258132,3.561595 -0.986256,2.936214 2.075035,0.531061 -2.140649,1.04982 -2.519978,0.129177 -2.068884,-0.531061 l -0.0062,0 z m 6.325574,-2.880854 c -1.771571,0.496204 -1.929453,-0.258354 -1.492713,-0.697146 -2.987475,2.247271 -1.170794,2.093489 1.498864,0.697146 l -0.0062,0 z" />
            <path inkscape:connector-curvature="0" style="fill:black;stroke:none" id="path199" d="m 103.93366,16.778273 c -1.06623,-0.996509 -3.54109,-1.662899 -4.943586,-1.947908 -1.2077,-0.241951 -2.49332,-0.319867 -3.71127,-0.410086 -0.84068,-0.05946 -3.23558,-0.01435 -4.25259,0.09022 -2.56714,0.266556 -3.59441,1.213854 -5.65919,2.673759 -1.89255,1.330729 -4.677027,2.780382 -5.499249,5.10762 -0.652036,1.29177 -0.06561,3.354501 -0.03486,4.623717 l 0.03486,0.893987 c -0.03896,-0.06356 -0.05741,-0.102521 -0.05126,-0.102521 0.0062,0 -1.140038,2.827542 0.133278,4.100859 0.0123,-0.114825 0.03896,-0.227599 0.08407,-0.338321 l -0.08202,0.338321 c 0,0 0.555666,-1.017014 1.57678,-1.548075 1.021113,-0.531061 1.958161,-1.000609 2.720921,-1.459906 0.76276,-0.459295 3.15356,-2.374396 5.10147,-2.239068 1.2986,0.09159 5.05772,0.752507 11.277356,1.982765 l 0.64998,-3.143308 -1.17694,-0.887836 c 0.12507,-0.330118 0.22144,-0.680742 0.40393,-0.980105 0.44699,-0.768911 0.50235,-1.439401 0.49415,-2.316985 1.03752,-0.246051 2.20011,-0.672541 2.87881,-1.554225 0.57822,-0.770961 0.85707,-2.132446 0.0615,-2.882903 l -0.006,0 z" />
            <path inkscape:connector-curvature="0" style="fill:url(#linearGradient5320);stroke:none" id="path201" d="m 103.93366,16.778273 c -1.06623,-0.996509 -3.54109,-1.662899 -4.943586,-1.947908 -1.2077,-0.241951 -2.49332,-0.319867 -3.71127,-0.410086 -0.84068,-0.05946 -3.23558,-0.01435 -4.25259,0.09022 -2.56714,0.266556 -3.59441,1.213854 -5.65919,2.673759 -1.89255,1.330729 -4.677027,2.780382 -5.499249,5.10762 -0.652036,1.29177 -0.06561,3.354501 -0.03486,4.623717 l 0.03486,0.893987 c -0.03896,-0.06356 -0.05741,-0.102521 -0.05126,-0.102521 0.0062,0 -1.140038,2.827542 0.133278,4.100859 0.137379,-1.33278 2.255473,-2.357994 2.261623,-2.357994 l 1.560379,-0.785315 c 0.23785,-0.161984 0.89193,-0.559767 1.10108,-0.768911 1.24461,-0.7197 2.28828,-1.511166 3.76048,-1.656747 1.94176,-0.19479 3.77895,0.668441 5.7166,0.459297 1.58703,-0.172237 3.75844,-0.397783 5.13838,-1.277417 0.647925,-0.416238 0.666385,-1.261015 1.041605,-1.888446 0.447,-0.76686 0.50236,-1.439401 0.49416,-2.316985 1.03751,-0.246051 2.20011,-0.672541 2.8788,-1.554225 0.55362,-0.770961 0.83247,-2.132446 0.0369,-2.882903 l -0.006,0 z" />
            <path inkscape:connector-curvature="0" style="fill:#484848;stroke:none" id="path203" d="m 89.351014,13.370459 c -0.2235,0.09432 -0.4511,0.225548 -0.6746,0.38343 0.2276,-0.157882 0.4552,-0.29116 0.68075,-0.38343 l -0.0061,0 z m 0,0 c -1.97457,1.281519 -2.70042,3.930673 -2.69427,3.930673 0.20094,-0.08612 0.49826,-0.463397 0.89809,-0.924744 -0.2399,0.276808 -0.44494,0.52491 -0.60693,0.695096 0.01025,-0.04921 0.81402,-2.183707 2.40926,-3.701025 l -0.0061,0 z m -0.61513,-1.4353 c -4.40843,3.221224 -4.20543,5.806815 -4.19928,5.806815 0.06356,-0.03281 0.14558,-0.09227 0.24605,-0.172236 -0.0082,-0.0021 -0.12508,-1.990967 3.95938,-5.634579 l -0.0062,0 z m 1.09288,2.563036 c -1.01702,1.435301 -0.23785,1.742865 -0.2317,1.742865 0.0061,0 -0.28911,-0.47775 0.2317,-1.742865 z m -1.08468,0.66844 c 0.32602,-0.264505 0.68689,-0.502355 1.09083,-0.66844 -0.42034,0.174287 -0.77917,0.410086 -1.08468,0.66844 -0.0062,0 -0.0062,0 0,0 l -0.0062,0 z" />
            <path inkscape:connector-curvature="0" style="fill:url(#linearGradient5322);stroke:none" id="path205" d="m 80.32092,21.34868 c 2.792684,-8.527736 8.414964,-9.413521 8.421114,-9.413521 -4.41253,3.221224 -4.20953,5.806815 -4.20338,5.806815 0.72175,-0.364976 3.03463,-3.619007 4.81851,-4.371515 -1.97662,1.281519 -2.70452,3.930673 -2.69837,3.930673 0.49005,-0.205043 1.51732,-2.109892 3.18022,-2.802937 -1.01907,1.435301 -0.24195,1.742865 -0.2358,1.742865 l -9.282294,5.10762 z" />
            <path inkscape:connector-curvature="0" style="fill:black;stroke:none" id="path207" d="m 113.73471,30.485391 -8.95423,-3.735881 -0.76891,8.663063 c 0.0984,0.559766 0.16404,1.164644 0.2071,1.804377 -0.0103,-0.106623 -0.0164,-0.209144 -0.0185,-0.313716 -0.7443,11.906842 -7.808026,18.004814 -11.353216,19.577494 4.45558,0.30757 7.192896,-1.24256 7.199046,-1.24256 0.006,0 -0.596666,0.72996 -2.185746,1.70391 1.99916,0 6.971446,-1.89665 7.951556,-3.89582 l 0.50851,0.20505 c -0.002,0 9.68622,-6.766418 7.4205,-22.765917 l -0.006,0 z" />
            <path inkscape:connector-curvature="0" style="fill:url(#linearGradient5324);stroke:none" id="path209" d="m 104.19201,36.903234 c -0.7402,11.906842 -7.803926,18.004814 -11.349116,19.577494 8.743026,-1.90279 11.845316,-12.847985 11.355266,-19.577494 l -0.006,0 z" />
            <path inkscape:connector-curvature="0" style="fill:url(#linearGradient5326);stroke:none" id="path211" d="m 97.860294,56.942078 c 0,0 7.022716,-2.76808 7.849036,-9.073149 3.27453,0.461347 -3.44062,8.099199 -7.842886,9.073149 l -0.0062,0 z" />
            <path inkscape:connector-curvature="0" style="fill:black;stroke:none" id="path213" d="m 99.092594,26.134381 c -2.28417,-3.338099 -5.80271,-4.39202 -9.08545,-4.39202 5.9565,0.752508 14.722076,9.210528 9.8072,18.591241 2.905456,-3.901966 1.915106,-10.342364 -0.71559,-14.199221 l -0.0062,0 z" />
            <path inkscape:connector-curvature="0" style="fill:black;stroke:none" id="path215" d="m 104.21867,36.513653 c -1.59319,3.436519 -4.410476,3.819949 -4.404326,3.819949 0.0062,0 2.353896,0.410086 4.301796,-1.947907 0.27886,-0.340372 0.28912,-0.996509 0.10868,-1.872042 l -0.006,0 z" />
            <path inkscape:connector-curvature="0" style="fill:url(#linearGradient5328);stroke:none" id="path217" d="m 113.73471,30.485391 -8.95423,-3.735881 -0.76891,8.663063 c 0.082,0.469547 0.14148,0.971903 0.18454,1.498863 -0.002,-0.0041 -0.002,-0.0082 0.004,-0.0082 0.004,0.104572 0.0102,0.207093 0.0226,0.313716 -0.0102,-0.102521 -0.0185,-0.202992 -0.0205,-0.303463 -0.0307,0.43264 -0.0677,0.857079 -0.10457,1.275367 -0.11482,1.86589 -0.13123,5.329065 1.02317,7.426653 0.78531,-1.187198 1.57473,-2.669658 1.84948,-4.154168 0.12303,1.507065 -0.59052,3.44472 -1.28972,4.947685 0.2317,0.262455 0.50236,0.4798 0.81402,0.639733 0.11688,0.04921 0.2358,0.08612 0.36088,0.116875 0.98215,-1.213854 2.57739,-3.459074 2.99157,-5.704293 0.14353,1.77157 -0.86528,4.139815 -1.65469,5.694041 3.3668,-0.920643 5.66123,-8.306288 5.70839,-8.437516 -0.004,-0.002 -0.004,-0.002 0.002,-0.0041 0.26246,-2.413355 0.26861,-5.148627 -0.16198,-8.228372 l -0.006,0 z" />
            <path inkscape:connector-curvature="0" style="fill:#0c418f;stroke:none" id="path219" d="m 109.00437,45.316145 c -0.26861,0.670491 -0.56797,1.304073 -0.83453,1.841285 1.21386,-0.334219 2.29033,-1.511166 3.17612,-2.882903 -0.79762,0.574121 -1.76952,0.891937 -2.33544,1.041618 l -0.006,0 z" />
            <path inkscape:connector-curvature="0" style="fill:#0c418f;stroke:none" id="path221" d="m 105.99434,45.660617 c -0.10867,0.258354 -0.22145,0.510557 -0.32807,0.748407 0.23375,0.262455 0.50235,0.4798 0.81402,0.639733 0.11687,0.04921 0.2358,0.08612 0.36087,0.116875 0.98216,-1.213854 2.57739,-3.459074 2.99158,-5.704293 -1.12363,2.880852 -2.82139,3.865059 -3.83225,4.199278 l -0.006,0 z" />
            <path inkscape:connector-curvature="0" style="fill:url(#linearGradient5330);stroke:none" id="path223" d="m 106.72839,34.54114 c 0.56387,3.280686 -1.64034,8.099196 -1.63419,8.099196 0.006,0 3.29299,-0.645886 4.74674,-7.652202 0,0 -0.30961,4.865668 -0.9514,6.011857 -0.004,0 3.17407,-1.486561 3.84661,-7.535327 0.67254,-6.048765 -3.69487,-9.739537 -5.07891,-9.021888 -0.9227,0.478434 -1.23231,3.844555 -0.92885,10.098364 z" />
            <path inkscape:connector-curvature="0" style="fill:url(#linearGradient5332);stroke:none" id="path225" d="m 113.85158,31.186638 c 0,-0.002 0,-0.002 0.006,-0.0041 -0.33217,-2.146799 -0.90834,-4.186976 -1.6834,-6.02211 -1.99507,-4.67908 -5.30856,-7.535327 -9.14286,-8.714324 -8.718426,-0.820172 -13.024326,5.296258 -13.018176,5.296258 3.28479,0 6.80333,1.053921 9.09366,4.39202 2.632746,3.856857 3.623106,10.297255 0.71765,14.199221 -0.0041,0 6.044656,-0.820172 5.435676,-10.867274 -0.004,0 2.14885,4.20338 -0.61307,9.995842 -0.004,0 5.58331,-1.38404 3.8466,-12.148793 -0.004,0 1.27742,2.460515 0.87348,8.150456 -0.004,0 2.30264,-1.603435 2.30879,-6.510113 -0.004,0 1.58498,5.177334 0.002,8.458021 -0.004,0 0.0226,-0.09022 0.14353,-0.180438 0.49415,-0.418288 2.43386,-2.075034 2.03607,-6.044665 l -0.006,0 z" />
            <path inkscape:connector-curvature="0" style="fill:url(#linearGradient5334);stroke:none" id="path227" d="m 99.478074,26.739258 c 1.109286,1.839234 1.781826,3.955277 2.019676,6.085673 0.15993,0.434691 0.57617,1.131836 1.15029,0.971904 0.4716,-0.135329 0.90014,-0.678693 1.17899,-1.070324 0.35268,-0.510558 0.49211,-1.131838 0.83043,-1.650596 0.15788,-0.256304 0.37933,-0.48185 0.41008,-0.797617 0.006,-0.110723 -0.0328,-0.766861 0.1948,-0.746356 -0.006,-0.02256 -0.006,-0.04306 -0.002,-0.06561 -0.004,0 0.0103,0.03076 0.041,0.08407 0.15584,0.135329 0.2153,0.451095 0.28091,0.639735 0.0882,0.297312 0.16814,0.598724 0.2481,0.900138 0.12508,0.516708 0.4798,1.447603 1.14209,0.871433 0.30142,-0.268607 0.48801,-0.676642 0.65204,-1.04367 0.14968,-0.356774 0.2399,-0.713548 0.29936,-1.099029 0.0984,-0.729953 0.0677,-1.726462 0.61103,-2.302632 -0.0143,-0.06766 -0.0246,-0.135328 -0.0287,-0.202993 -0.004,0 0.0369,0.07997 0.10868,0.239901 0.24195,0.161983 0.58027,0.315765 0.87143,0.155833 0.2645,-0.149682 0.38138,-0.488003 0.45929,-0.766861 0.10663,-0.426489 0.14559,-0.873483 0.2358,-1.308174 0.0943,-0.498254 0.1948,-1.008811 0.15994,-1.517317 0.21734,0.502355 0.45519,0.990357 0.65203,1.507065 0.15379,0.42854 0.31167,0.86118 0.34653,1.320476 0.0267,0.389582 0.0185,0.781213 0.0718,1.170795 0.0349,0.309615 0.10662,0.690995 0.38343,0.887836 0.11893,-1.662898 0.37523,-3.463174 -0.15788,-5.080963 -0.87143,-1.689554 -2.00122,-3.251982 -3.40576,-4.531449 -1.48451,-1.343031 -3.24583,-2.357993 -5.15068,-2.944416 -8.718426,-0.820172 -13.024326,5.298309 -13.018176,5.298309 1.77158,0 3.5657,0.307564 5.18964,1.062122 1.74902,0.844777 3.19662,2.226767 4.23209,3.932724 l -0.0062,0 z" />
            <path inkscape:connector-curvature="0" style="fill:url(#linearGradient5336);stroke:none" id="path229" d="m 96.527514,18.584701 c 0.58847,0.797616 -0.07587,1.066223 -1.44556,0.937046 4.10906,1.281517 3.16587,0.149681 1.45171,-0.937046 l -0.0062,0 z m 3.879406,-0.580272 c 3.86711,0.422388 2.83574,-0.418288 1.12979,-1.082627 0.65408,0.604877 0.11277,0.957551 -1.12364,1.082627 l -0.006,0 z m 2.77423,2.887004 c 0.54541,0.887837 -0.17429,1.111333 -1.60139,0.855029 4.19723,1.708008 3.3094,0.436742 1.60754,-0.855029 l -0.006,0 z m 1.94176,-1.05392 c 0.54746,0.889886 -0.17224,1.111333 -1.59934,0.855028 4.19723,1.708008 3.30939,0.436743 1.60549,-0.855028 l -0.006,0 z m -8.732776,0.846826 c 4.203376,1.708009 3.31554,0.436742 1.61369,-0.855028 0.53926,0.887835 -0.18044,1.109283 -1.60549,0.855028 l -0.0082,0 z m 3.924516,0.42444 c 0.54541,0.887836 -0.17429,1.109283 -1.601386,0.855029 4.197226,1.708007 3.309396,0.436741 1.607536,-0.855029 l -0.006,0 z m 3.55339,-2.155001 c -0.30961,-0.2399 -0.80582,-0.516708 -1.36558,-0.779163 0.71765,0.754558 0.0595,1.121584 -1.38814,1.172845 3.14535,0.553616 3.51033,0.192741 2.77833,-0.38343 4.40637,0.768911 3.27248,-0.282959 1.34508,-1.181047 0.70125,0.746356 0.0595,1.113383 -1.36354,1.170795 l -0.006,0 z m -4.515036,1.673149 c 4.469926,0.785316 3.331946,-0.270656 1.396336,-1.172845 0.7156,0.752508 0.0574,1.121585 -1.390186,1.172845 l -0.0062,0 z m 0.01025,-2.302631 c 0.28296,0.510557 -0.29321,0.740205 -1.38404,0.740205 3.643606,0.775062 2.928006,-0.05741 1.42505,-0.86118 -0.04306,-0.256304 -0.57822,-0.738155 -1.25281,-1.220006 0.488,0.746357 -0.12303,0.9555 -1.35124,0.775063 1.66085,0.619229 2.39696,0.729952 2.56919,0.565918 l -0.0062,0 z m 6.440396,4.273094 c 4.04344,2.519978 3.35245,1.045719 1.82078,-0.596675 0.40188,1.017014 -0.38343,1.117485 -1.81463,0.596675 l -0.006,0 z m -2.14885,0.939098 c 4.04344,2.519977 3.3504,1.045718 1.82078,-0.596676 0.39983,1.017013 -0.38548,1.117484 -1.81463,0.596676 l -0.006,0 z m -9.075196,-3.639513 c 0.54746,0.887835 -0.17224,1.111333 -1.59934,0.855029 4.19723,1.708008 3.3094,0.436742 1.60549,-0.855029 l -0.0061,0 z m 13.450806,-0.0082 c 0.38753,0.967803 -0.35882,1.064174 -1.72031,0.567969 3.84456,2.399002 3.18432,0.994459 1.72647,-0.567969 l -0.006,0 z m -7.20315,3.805597 c 4.24438,2.647105 3.51853,1.09903 1.911,-0.62538 0.42033,1.066222 -0.40394,1.172845 -1.90485,0.62538 l -0.006,0 z m -4.367416,-2.327237 c 0.54542,0.887836 -0.17428,1.109283 -1.60138,0.855029 4.19723,1.708007 3.30939,0.436741 1.60753,-0.855029 l -0.0061,0 z m 2.90341,1.605486 c 0.54747,0.889886 -0.17224,1.111332 -1.59933,0.855029 4.197216,1.708008 3.309386,0.436741 1.60548,-0.855029 l -0.0062,0 z m -0.50646,2.669659 c 3.789196,3.637461 3.377056,1.890495 2.099636,-0.231698 0.20095,1.191298 -0.66844,1.119534 -2.093476,0.231698 l -0.0062,0 z" />
            <path inkscape:connector-curvature="0" style="fill:#4a6eaa;stroke:none" id="path231" d="m 102.71365,33.942414 c -1.40249,-0.922692 -1.23026,-3.210971 -1.2241,-3.210971 0.11482,0.699196 1.10518,0.529011 1.11133,0.529011 -0.20915,-0.649987 -0.19069,-4.186977 -0.18454,-4.186977 1.39634,5.263452 2.3908,4.611415 1.96636,-0.563867 -0.0123,0 2.12425,3.947075 -1.6629,7.432804 l -0.006,0 z" />
            <path inkscape:connector-curvature="0" style="fill:#4a6eaa;stroke:none" id="path233" d="m 106.062,30.936486 c 0.35883,-0.871433 -0.2399,-3.96553 -0.23375,-3.96553 0.006,0 0.4757,0.922692 1.1585,0.684843 0,0 0.17018,-1.505015 -0.9514,-2.255472 -0.004,0 1.15849,0.307565 1.4722,-0.342421 -0.0102,0 2.41541,3.895814 -1.4394,5.87858 l -0.006,0 z" />
            <path inkscape:connector-curvature="0" style="fill:url(#linearGradient5338);stroke:none" id="path235" d="m 81.985869,28.014624 c 4.767245,-0.153782 2.239065,-3.401662 8.601545,-9.552949 -5.18348,3.007979 -10.58226,2.940316 -8.595395,9.552949 l -0.0062,0 z" />
            <path inkscape:connector-curvature="0" style="fill:url(#linearGradient5340);stroke:none" id="path237" d="m 81.985869,28.014624 c 0.838625,-1.213854 3.674365,-5.929841 8.601545,-9.552949 -5.18348,3.007979 -10.58226,2.940316 -8.595395,9.552949 l -0.0062,0 z" />
            <path inkscape:connector-curvature="0" style="fill:#000064;stroke:none" id="path239" d="m 84.442284,26.117977 c -0.89604,0.896038 -1.968413,0.686894 -2.052481,-0.494153 -0.131228,-1.66905 1.658801,-1.845386 2.437961,-1.591133 0.26245,0.756609 -0.06972,1.494763 -0.37933,2.085286" />
            <path inkscape:connector-curvature="0" style="fill:url(#radialGradient5342);stroke:none" id="path241" d="m 84.528404,25.89448 c -0.28911,0.539263 -0.96371,0.756609 -1.33688,0.553616 -0.381383,-0.202992 -0.379332,-0.881684 -0.08407,-1.420947 0.285011,-0.539263 1.543971,-0.297312 1.550121,-0.297312 0.0062,0 0.15994,0.627431 -0.12917,1.164643 z" />
            <path inkscape:connector-curvature="0" style="fill:url(#radialGradient5344);stroke:none" id="path243" d="m 83.255084,25.927288 c 0.26245,0.328068 0.66434,0.444942 0.90219,0.260403 0.2276,-0.186588 0.33217,-0.734053 0.07381,-1.062121 -0.26655,-0.33012 -0.79761,-0.313716 -1.02316,-0.129177 -0.24195,0.184538 -0.217345,0.602826 0.05331,0.930895 l -0.0062,0 z" />
            <path inkscape:connector-curvature="0" style="fill:url(#radialGradient5346);stroke:none" id="path245" d="m 82.260625,29.38021 c 0,0 0,-0.512607 -0.14763,-1.025214 -1.76542,0.598724 -2.310834,-0.647936 -2.304682,-0.647936 0.0062,0 -1.142089,2.827542 0.131227,4.100859 0.137379,-1.33278 2.255472,-2.357994 2.261623,-2.357994" />
            <path inkscape:connector-curvature="0" style="fill:#484848;stroke:none" id="path247" d="m 82.190912,29.449925 0.06971,-0.06971 c 0,0 0,-0.512607 -0.14763,-1.025214 -2.807037,1.502964 -2.175505,3.452923 -2.169353,3.452923 0.129177,-1.33278 2.24727,-2.357994 2.25342,-2.357994 l -0.0062,0 z" />
            <path inkscape:connector-curvature="0" style="fill:url(#radialGradient5348);stroke:none" id="path249" d="m 79.931338,29.544245 c 0,0 0.01435,-0.846828 0.399835,-1.00061 -0.0041,0.166084 0.19274,0.295261 0.391631,0.295261 -0.537212,0.05331 -0.791466,0.705349 -0.785314,0.705349 l -0.0062,0 z" />
            <path inkscape:connector-curvature="0" style="fill:white;fill-opacity:0.25;stroke:none" id="path251" d="m 80.32092,21.34868 0.0041,-0.0021 c -0.19069,0.299363 -0.352674,0.611028 -0.465447,0.945248 -0.559768,1.107231 -0.209144,2.780382 -0.07382,4.033194 0.116875,0.440842 0.254253,0.893987 0.502355,1.142088 l 0.303463,0.102523 c -0.0062,-0.699197 0.241951,-1.347133 0.211195,-2.05043 -0.04716,-0.852979 -0.270657,-1.708008 -0.09842,-2.563037 0.14148,-0.752507 0.588473,-1.404543 0.770961,-2.1509 0.219396,-0.928844 0.192741,-1.929454 0.323968,-2.876752 -0.551565,0.976004 -1.04982,2.105791 -1.472207,3.420117" />
        </g>
        <rect width="19" height="19" ry="0.99999994" x="1.5" y="1031.8622" id="rect4513" style="opacity:0.5;fill:none;stroke:url(#linearGradient3120);stroke-width:1;stroke-miterlimit:4;stroke-opacity:1;stroke-dasharray:none" rx="1" />
        <rect rx="2" ry="2" y="1030.8622" x="0.5" height="21" width="21" id="rect5426" style="color:black;fill:none;stroke:url(#linearGradient4244);stroke-width:1;stroke-linecap:butt;stroke-linejoin:miter;stroke-miterlimit:4;stroke-opacity:1;stroke-dasharray:none;stroke-dashoffset:0;marker:none;visibility:visible;display:inline;overflow:visible;enable-background:accumulate" />
        <path style="opacity:0.98999999;fill:url(#linearGradient5698)" inkscape:connector-curvature="0" d="m 9,1031.3622 10.671078,0 c 0.664086,0 1.328922,0.5064 1.328922,1.2515 l 0,16.7485 -6.652508,0 -5.347492,-18 z" id="path57-5-0" sodipodi:nodetypes="cssccc" />
    </g>
</svg>
