<?xml version="1.0" encoding="UTF-8" standalone="no"?>
<!-- Created with Inkscape (http://www.inkscape.org/) -->

<svg xmlns:dc="http://purl.org/dc/elements/1.1/" xmlns:cc="http://creativecommons.org/ns#" xmlns:rdf="http://www.w3.org/1999/02/22-rdf-syntax-ns#" xmlns:svg="http://www.w3.org/2000/svg" xmlns="http://www.w3.org/2000/svg" xmlns:xlink="http://www.w3.org/1999/xlink" xmlns:sodipodi="http://sodipodi.sourceforge.net/DTD/sodipodi-0.dtd" xmlns:inkscape="http://www.inkscape.org/namespaces/inkscape" width="22" height="22" id="svg4700" version="1.1" inkscape:version="0.48.4 r9939" sodipodi:docname="xpad.svg">
    <defs id="defs4702">
        <linearGradient id="linearGradient4050">
            <stop id="stop4052" offset="0" style="stop-color:#ffffff;stop-opacity:0.66929132;" />
            <stop id="stop4054" offset="1" style="stop-color:#ffffff;stop-opacity:0;" />
        </linearGradient>
        <filter id="filter3174" color-interpolation-filters="sRGB">
            <feGaussianBlur stdDeviation="1.71" id="feGaussianBlur3176" />
        </filter>
        <linearGradient gradientTransform="scale(1.0058652,0.994169)" gradientUnits="userSpaceOnUse" id="ButtonShadow" y2="7.0165396" x2="45.447727" y1="92.539597" x1="45.447727">
            <stop offset="0" style="stop-color:#000000;stop-opacity:1" id="stop3750" />
            <stop offset="1" style="stop-color:#000000;stop-opacity:0.58823532" id="stop3752" />
        </linearGradient>
        <filter height="2.2797973" y="-0.6398986" width="1.2364281" x="-0.11821404" id="filter3914-1" inkscape:collect="always" color-interpolation-filters="sRGB">
            <feGaussianBlur id="feGaussianBlur3916-3" stdDeviation="1.8717561" inkscape:collect="always" />
        </filter>
        <linearGradient x1="45.447727" y1="92.539597" x2="45.447727" y2="7.0165396" id="ButtonShadow-5" gradientUnits="userSpaceOnUse" gradientTransform="scale(1.0058652,0.994169)">
            <stop id="stop3750-0" style="stop-color:#000000;stop-opacity:1" offset="0" />
            <stop id="stop3752-8" style="stop-color:#000000;stop-opacity:0.58823532" offset="1" />
        </linearGradient>
        <filter color-interpolation-filters="sRGB" id="filter3174-3">
            <feGaussianBlur id="feGaussianBlur3176-6" stdDeviation="1.71" />
        </filter>
        <linearGradient inkscape:collect="always" xlink:href="#linearGradient3918-7-8-3" id="linearGradient4227-3" gradientUnits="userSpaceOnUse" gradientTransform="matrix(0.48151611,0,0,-0.48304359,-2.4833569,25.580241)" x1="27.181786" y1="-3.7031581" x2="27.181786" y2="-41.160442" />
        <linearGradient id="linearGradient3918-7-8-3" inkscape:collect="always">
            <stop id="stop3920-3-7-2" offset="0" style="stop-color:#e8d382;stop-opacity:1;" />
            <stop id="stop3922-3-3-4" offset="1" style="stop-color:#f5eabd;stop-opacity:1" />
        </linearGradient>
        <linearGradient inkscape:collect="always" xlink:href="#linearGradient4050" id="linearGradient4322" gradientUnits="userSpaceOnUse" gradientTransform="matrix(0.53984006,0,0,0.62923075,-1.9622419,23.520072)" x1="22.440199" y1="4.8942533" x2="22.440199" y2="38.21666" />
    </defs>
    <sodipodi:namedview id="base" pagecolor="#ffffff" bordercolor="#666666" borderopacity="1.0" inkscape:pageopacity="0.0" inkscape:pageshadow="2" inkscape:zoom="8" inkscape:cx="21.670896" inkscape:cy="13.39484" inkscape:current-layer="layer1" showgrid="true" inkscape:grid-bbox="true" inkscape:document-units="px" inkscape:window-width="1019" inkscape:window-height="888" inkscape:window-x="69" inkscape:window-y="33" inkscape:window-maximized="0" inkscape:snap-to-guides="false" inkscape:snap-grids="false">
        <inkscape:grid type="xygrid" id="grid1021" empspacing="5" visible="true" enabled="true" snapvisiblegridlinesonly="true" />
    </sodipodi:namedview>
    <metadata id="metadata4705">
        <rdf:RDF>
            <cc:Work rdf:about="">
                <dc:format>image/svg+xml</dc:format>
                <dc:type rdf:resource="http://purl.org/dc/dcmitype/StillImage" />
                <dc:title />
            </cc:Work>
        </rdf:RDF>
    </metadata>
    <g id="layer1" inkscape:label="Layer 1" inkscape:groupmode="layer" transform="translate(0,-26)">
        <g id="layer2" style="display:none" transform="translate(5.204491,-179.6879)">
            <rect width="86" height="85" rx="6" ry="6" x="5" y="7" id="rect3745" style="opacity:0.9;fill:url(#ButtonShadow);fill-opacity:1;fill-rule:nonzero;stroke:none;filter:url(#filter3174)" />
        </g>
        <g id="layer4" transform="translate(4.204491,-179.6879)" />
        <path style="font-size:medium;font-style:normal;font-variant:normal;font-weight:normal;font-stretch:normal;text-indent:0;text-align:start;text-decoration:none;line-height:normal;letter-spacing:normal;word-spacing:normal;text-transform:none;direction:ltr;block-progression:tb;writing-mode:lr-tb;text-anchor:start;baseline-shift:baseline;color:black;fill:#8d751a;fill-opacity:1;fill-rule:nonzero;stroke:none;stroke-width:1;marker:none;visibility:visible;display:inline;overflow:visible;enable-background:accumulate;font-family:Sans;-inkscape-font-specification:Sans" d="M 2.5,26 C 1.1236487,26 0,27.123649 0,28.5 l 0,17 C 0,46.876351 1.1236487,48 2.5,48 L 15.438356,48 22,41.50411 22,28.5 C 22,27.123649 20.876351,26 19.5,26 z" id="path4235" inkscape:connector-curvature="0" sodipodi:nodetypes="ssssccsss" />
        <path style="font-size:medium;font-style:normal;font-variant:normal;font-weight:normal;font-stretch:normal;text-indent:0;text-align:start;text-decoration:none;line-height:normal;letter-spacing:normal;word-spacing:normal;text-transform:none;direction:ltr;block-progression:tb;writing-mode:lr-tb;text-anchor:start;baseline-shift:baseline;color:black;fill:url(#linearGradient4227-3);fill-opacity:1;fill-rule:nonzero;stroke:none;stroke-width:1;marker:none;visibility:visible;display:inline;overflow:visible;enable-background:accumulate;font-family:Sans;-inkscape-font-specification:Sans" d="m 2.5,27 17,0 c 0.839649,0 1.5,0.660351 1.5,1.5 L 21,42.063014 16.09589,47 2.5,47 C 1.6603515,47 1,46.339649 1,45.5 l 0,-17 C 1,27.660351 1.6603515,27 2.5,27 z" id="rect3874" inkscape:connector-curvature="0" sodipodi:nodetypes="sssccssss" />
        <path style="fill:none;stroke:url(#linearGradient4322);stroke-width:1;stroke-miterlimit:4;stroke-opacity:1" d="m 2.5114415,27.562531 17.0118045,0 c 0.554,0 1,0.446 1,1 l 0,17.547395 c 0,0.554 -0.446,1 -1,1 l -17.0118045,0 c -0.554,0 -1,-0.446 -1,-1 l 0,-17.547395 c 0,-0.554 0.446,-1 1,-1 z" id="rect4513" inkscape:connector-curvature="0" />
        <g id="layer2-4" style="display:none" transform="matrix(0.48140081,0,0,0.48140081,-22.722313,-60.847114)">
            <rect width="86" height="85" rx="12.463627" ry="12.463627" x="5" y="7" id="rect3745-4" style="opacity:0.9;fill:url(#ButtonShadow-5);fill-opacity:1;fill-rule:nonzero;stroke:none;filter:url(#filter3174-3)" />
        </g>
        <g id="layer4-1" transform="matrix(0.48140081,0,0,0.48140081,-23.722313,-60.847114)" />
        <path style="font-size:medium;font-style:normal;font-variant:normal;font-weight:normal;font-stretch:normal;text-indent:0;text-align:start;text-decoration:none;line-height:normal;letter-spacing:normal;word-spacing:normal;text-transform:none;direction:ltr;block-progression:tb;writing-mode:lr-tb;text-anchor:start;baseline-shift:baseline;color:black;fill:black;fill-opacity:0.4160839;fill-rule:nonzero;stroke:none;stroke-width:0.80062228;marker:none;visibility:visible;display:inline;overflow:visible;filter:url(#filter3914-1);enable-background:accumulate;font-family:Sans;-inkscape-font-specification:Sans" d="m 32.198149,42.698149 -1.5,0 0,-0.5 0,-10.03125 c 0,-1.971328 1.569412,-3.5 3.5,-3.5 l 9,0 0.5,0 0,1.53125 z" id="rect4064" inkscape:connector-curvature="0" sodipodi:nodetypes="cccsscccc" transform="matrix(0.38660248,0,0,0.37946956,3.0264594,29.929732)" />
        <path inkscape:connector-curvature="0" style="font-size:medium;font-style:normal;font-variant:normal;font-weight:normal;font-stretch:normal;text-indent:0;text-align:start;text-decoration:none;line-height:normal;letter-spacing:normal;word-spacing:normal;text-transform:none;direction:ltr;block-progression:tb;writing-mode:lr-tb;text-anchor:start;baseline-shift:baseline;color:black;fill:#8d751a;fill-opacity:1;stroke:none;stroke-width:1.03094733;marker:none;visibility:visible;display:inline;overflow:visible;enable-background:accumulate;font-family:Sans;-inkscape-font-specification:Sans" d="M 15.807692,48 15,48 15,47.750556 15,42.746102 C 15,41.762633 15.845068,41 16.884615,41 L 21.730768,41 22,41 l 0,0.76392 z" id="path4102" />
        <path inkscape:connector-curvature="0" style="font-size:medium;font-style:normal;font-variant:normal;font-weight:normal;font-stretch:normal;text-indent:0;text-align:start;text-decoration:none;line-height:normal;letter-spacing:normal;word-spacing:normal;text-transform:none;direction:ltr;block-progression:tb;writing-mode:lr-tb;text-anchor:start;baseline-shift:baseline;color:black;fill:#f3e6b2;fill-opacity:1;stroke:none;stroke-width:1.03094733;marker:none;visibility:visible;display:inline;overflow:visible;enable-background:accumulate;font-family:Sans;-inkscape-font-specification:Sans" d="M 16,46.5 20.5,42 17.350427,42 C 16.588218,42 16,42.51902 16,43.234375 z" id="path4075" sodipodi:nodetypes="ccssc" />
        <g transform="matrix(0.49969784,-0.14703488,0,0.46377375,-0.47608222,24.018236)" style="font-size:15.03956699px;font-style:normal;font-variant:normal;font-weight:normal;font-stretch:normal;line-height:125%;letter-spacing:0px;word-spacing:0px;color:black;fill:#8d751a;fill-opacity:1;fill-rule:nonzero;stroke:#8d751a;stroke-width:1.03863561;stroke-miterlimit:4;stroke-opacity:1;stroke-dasharray:none;marker:none;visibility:visible;display:inline;overflow:visible;enable-background:accumulate;font-family:Stylograph;-inkscape-font-specification:Stylograph" id="text4168">
            <path d="m 15.44022,33.73915 c -9e-6,0.210555 -0.305813,0.315832 -0.917414,0.315831 -0.330877,1e-6 -0.631668,-0.130342 -0.902374,-0.391028 -0.130349,-0.130343 -0.260692,-0.260685 -0.391028,-0.391029 -0.08022,-0.07018 -0.270719,-0.265698 -0.571504,-0.586543 -0.170454,-0.180473 -0.30581,-0.270711 -0.406068,-0.270713 -0.150401,2e-6 -0.381008,0.100266 -0.69182,0.300792 -0.140374,0.09024 -0.310822,0.210555 -0.511346,0.360949 -0.270716,0.210555 -0.536414,0.421109 -0.797097,0.631662 -0.381005,0.270713 -0.736941,0.406069 -1.0678088,0.406069 -0.4912944,0 -0.917415,-0.36095 -1.2783632,-1.082849 -0.3208449,-0.641687 -0.4812667,-1.268335 -0.4812662,-1.879946 -5e-7,-0.07018 0.035092,-0.145379 0.105277,-0.225594 0.070184,-0.09023 0.1503948,-0.140365 0.2406331,-0.150395 0.08021,-0.01002 0.1503946,0.02006 0.2105539,0.09024 0.070183,0.06016 0.1203153,0.235623 0.1503957,0.526385 0.030078,0.280741 0.145381,0.651717 0.34591,1.112928 0.2506576,0.591557 0.5113432,0.887335 0.7820575,0.887334 0.1403667,1e-6 0.3058018,-0.05514 0.4963057,-0.165435 0.010023,-0.01002 0.2957753,-0.225592 0.8572553,-0.646701 0.491288,-0.370974 0.792079,-0.591554 0.902374,-0.661741 0.330866,-0.220578 0.586538,-0.330868 0.767018,-0.330871 0.190496,3e-6 0.466221,0.205544 0.827176,0.616623 0.2306,0.270714 0.431128,0.476254 0.601583,0.616622 0.210547,0.210555 0.365955,0.360951 0.466226,0.451187 0.190494,0.170449 0.34089,0.255673 0.451187,0.255672 l 0.270713,0 c 0.17044,10e-7 0.300783,0.01504 0.391028,0.04512 0.100256,0.02005 0.150387,0.0752 0.150396,0.165435" style="stroke:#8d751a;stroke-width:1.03863561;stroke-miterlimit:4;stroke-opacity:1;stroke-dasharray:none;marker:none" id="path3114" inkscape:connector-curvature="0" />
            <path d="m 23.192177,32.505906 c -7e-6,0.461215 -0.230613,0.83219 -0.69182,1.112928 -0.451193,0.280739 -1.002643,0.421108 -1.654353,0.421108 -0.892351,0 -1.704486,-0.225593 -2.436409,-0.676781 -0.721901,-0.451185 -1.08285,-1.007649 -1.082849,-1.669392 -1e-6,-0.280735 0.145381,-0.551447 0.436147,-0.812136 0.290764,-0.260683 0.541423,-0.391025 0.751978,-0.391029 0.110289,-0.01002 0.205539,-0.01504 0.285752,-0.01504 0.16042,4e-6 0.290763,0.02006 0.391029,0.06016 0.100261,0.04011 0.150393,0.115307 0.150396,0.225593 -3e-6,0.130346 -0.07019,0.215571 -0.210554,0.255673 -0.130346,0.03008 -0.280741,0.04512 -0.451187,0.04512 -0.160424,4e-6 -0.31082,0.06517 -0.451187,0.195515 -0.140371,0.130346 -0.210556,0.265702 -0.210554,0.406068 -2e-6,0.330873 0.245644,0.686809 0.736939,1.067809 0.581527,0.451189 1.278359,0.676782 2.090499,0.676781 0.491288,1e-6 0.88733,-0.08522 1.188126,-0.255673 0.300786,-0.180473 0.451181,-0.39604 0.451187,-0.646701 0.01002,-0.140367 -0.150401,-0.320842 -0.481266,-0.541425 -0.270717,-0.180472 -0.626653,-0.370973 -1.067809,-0.571503 -0.320848,-0.100261 -0.546442,-0.165432 -0.676781,-0.195514 -0.23061,-0.07018 -0.345913,-0.175459 -0.34591,-0.315831 -0.01003,-0.13034 0.01504,-0.210551 0.0752,-0.240633 0.07018,-0.0401 0.205537,-0.06015 0.406068,-0.06016 0.10026,4e-6 0.32084,0.07019 0.661741,0.210554 0.350919,0.130347 0.671763,0.280742 0.962533,0.451187 0.411075,0.23061 0.691814,0.416098 0.842215,0.556464 0.220574,0.210556 0.330864,0.446176 0.330871,0.70686" style="stroke:#8d751a;stroke-width:1.03863561;stroke-miterlimit:4;stroke-opacity:1;stroke-dasharray:none;marker:none" id="path3116" inkscape:connector-curvature="0" />
            <path d="m 30.194269,30.550762 c -5e-6,0.140373 -0.04512,0.220584 -0.135356,0.240633 -0.08022,0.02006 -0.185493,0.03008 -0.315831,0.03008 -0.110295,4e-6 -0.29077,-0.02005 -0.541424,-0.06016 -0.631666,-0.10026 -0.982589,-0.150392 -1.05277,-0.150396 -0.06016,4e-6 -0.265702,0.04512 -0.616622,0.135357 -0.190504,0.05014 -0.335886,0.0752 -0.436147,0.0752 0.09023,0.461217 0.230603,0.982588 0.421108,1.564115 0.190497,0.571505 0.350919,0.922428 0.481266,1.05277 0.06015,0.06016 0.185484,0.130344 0.375989,0.210554 0.190497,0.08021 0.285747,0.160423 0.285752,0.240633 -5e-6,0.14037 -0.05014,0.23562 -0.150396,0.285752 -0.09024,0.05013 -0.26069,0.0752 -0.511345,0.0752 -0.37098,0 -0.751982,-0.576516 -1.143007,-1.729551 -0.170451,-0.49129 -0.300794,-0.957516 -0.391029,-1.398679 -0.150398,0.04011 -0.40607,0.185491 -0.767018,0.436147 -0.160423,0.110293 -0.2657,0.165438 -0.315831,0.165435 -0.180476,3e-6 -0.270713,-0.08021 -0.270712,-0.240633 -1e-6,-0.210551 0.135355,-0.426118 0.406068,-0.646701 0.230605,-0.170445 0.466225,-0.345906 0.70686,-0.526385 -0.08021,-0.43113 -0.155411,-0.947488 -0.225594,-1.549075 -0.06016,-0.601577 -0.09024,-1.193133 -0.09024,-1.774669 -2e-6,-0.180468 -0.005,-0.360942 -0.01504,-0.541425 -10e-7,-0.190493 -10e-7,-0.380994 0,-0.571503 -10e-7,-0.320836 0.01504,-0.561468 0.04512,-0.721899 0.0401,-0.170439 0.115302,-0.255664 0.225594,-0.255673 0.180472,9e-6 0.295776,0.210563 0.34591,0.631662 0.05013,0.421116 0.0752,1.012672 0.0752,1.774669 -2e-6,0.250666 0.03509,0.636681 0.105277,1.158046 0.07018,0.521377 0.155407,1.067814 0.255673,1.639313 0.120314,4e-6 0.305802,-0.02506 0.556464,-0.0752 0.250656,-0.05013 0.436144,-0.07519 0.556464,-0.0752 0.54142,4e-6 1.032712,0.06517 1.473878,0.195514 0.441155,0.130347 0.661735,0.265703 0.66174,0.406068" style="stroke:#8d751a;stroke-width:1.03863561;stroke-miterlimit:4;stroke-opacity:1;stroke-dasharray:none;marker:none" id="path3118" inkscape:connector-curvature="0" />
            <path d="m 38.434073,33.40828 -1.955144,0.511345 c -0.471245,0.120317 -0.787075,0.190502 -0.947492,0.210554 -0.381007,0.06016 -0.887339,0.09024 -1.518997,0.09024 -0.521374,0 -0.957521,-0.09024 -1.308442,-0.270713 -0.180477,-0.09024 -0.426123,-0.280738 -0.736939,-0.571503 -0.14037,0.08021 -0.270713,0.155409 -0.391029,0.225593 -0.120317,0.06016 -0.25066,0.115304 -0.391028,0.165436 -0.09024,0.04011 -0.170449,0.02005 -0.240633,-0.06016 -0.06016,-0.09024 -0.09024,-0.1905 -0.09024,-0.300791 0,-0.09024 0.02507,-0.140368 0.0752,-0.150396 0.11029,-0.0401 0.22058,-0.08522 0.330871,-0.135356 0.330869,-0.160421 0.506331,-0.245645 0.526384,-0.255672 -0.08021,-0.160421 -0.135357,-0.340896 -0.165435,-0.541425 -0.03008,-0.200525 -0.04512,-0.411079 -0.04512,-0.631662 0,-0.521368 0.175461,-0.957515 0.526385,-1.308442 0.360948,-0.360945 0.736937,-0.54142 1.127968,-0.541424 0.320841,4e-6 0.601579,0.105281 0.842216,0.31583 0.280735,0.250664 0.421104,0.59156 0.421107,1.022691 -3e-6,0.3409 -0.260689,0.726915 -0.782057,1.158047 -0.220583,0.180476 -0.571506,0.436149 -1.05277,0.767018 0.200526,0.180475 0.39604,0.310818 0.586543,0.391028 0.27071,0.120318 0.566488,0.180476 0.887335,0.180475 0.631658,1e-6 1.057778,-0.01003 1.278363,-0.03008 0.220575,-0.03008 0.576512,-0.115303 1.067809,-0.255673 0.501313,-0.150394 0.842209,-0.250658 1.022691,-0.300791 0.280731,-0.08021 0.511338,-0.135355 0.69182,-0.165435 0.160414,-0.03008 0.285744,-0.02005 0.375989,0.03008 0.09023,0.05013 0.135348,0.115304 0.135356,0.195514 -8e-6,0.110291 -0.09025,0.195516 -0.270712,0.255673 M 33.831966,31.122266 C 33.81191,30.921742 33.751751,30.76132 33.651491,30.641 c -0.100267,-0.120313 -0.255676,-0.180471 -0.466227,-0.180475 -0.270714,4e-6 -0.501321,0.115307 -0.69182,0.34591 -0.190503,0.23061 -0.285753,0.496309 -0.285752,0.797097 -1e-6,0.180477 -1e-6,0.355939 0,0.526385 0.01002,0.160424 0.06016,0.315832 0.150396,0.466226 0.451185,-0.260684 0.807121,-0.516356 1.067809,-0.767018 0.270709,-0.260683 0.406065,-0.496302 0.406069,-0.706859" style="stroke:#8d751a;stroke-width:1.03863561;stroke-miterlimit:4;stroke-opacity:1;stroke-dasharray:none;marker:none" id="path3120" inkscape:connector-curvature="0" />
        </g>
        <g id="g3098" style="font-size:15.03956699px;font-style:normal;font-variant:normal;font-weight:normal;font-stretch:normal;line-height:125%;letter-spacing:0px;word-spacing:0px;color:black;fill:#8d751a;fill-opacity:1;fill-rule:nonzero;stroke:#8d751a;stroke-width:1.16555977;stroke-linecap:butt;stroke-linejoin:miter;stroke-miterlimit:4;stroke-opacity:1;stroke-dasharray:none;stroke-dashoffset:0;marker:none;visibility:visible;display:inline;overflow:visible;enable-background:accumulate;font-family:Stylograph;-inkscape-font-specification:Stylograph" transform="matrix(0.49805338,-0.15052438,-0.03503081,0.38007077,-8.4016642,35.598575)">
            <path inkscape:connector-curvature="0" id="path3104" style="color:black;fill:#8d751a;fill-opacity:1;fill-rule:nonzero;stroke:#8d751a;stroke-width:1.16555977;stroke-linecap:butt;stroke-linejoin:miter;stroke-miterlimit:4;stroke-opacity:1;stroke-dasharray:none;stroke-dashoffset:0;marker:none;visibility:visible;display:inline;overflow:visible;enable-background:accumulate" d="m 35.805014,26.389781 c -1.387295,0.159601 -2.927726,0.410358 -4.621303,0.752256 -1.662022,0.342004 -2.651081,0.631647 -2.96718,0.86893 -0.145902,0.109501 -0.276161,0.338344 -0.390782,0.68652 -0.114628,0.348161 -0.298265,0.521742 -0.550894,0.520746 -0.442115,-0.0018 -0.778436,-0.09486 -1.008965,-0.279247 -0.223266,-0.166031 -0.425705,-0.478767 -0.607294,-0.938199 -0.26875,-0.679978 1.271041,-1.371101 4.619391,-2.073368 1.423896,-0.306266 2.797906,-0.539332 4.122034,-0.699196 l 2.383602,-0.430883 c 1.299757,-0.141671 2.871641,-0.272986 4.715569,-0.394087 1.851157,-0.102731 3.692546,-0.150449 5.524166,-0.143159 0.568403,0.0023 1.133211,-0.0046 1.69439,-0.02078 0.599983,0.0024 1.199987,0.0048 1.800019,0.0072 1.010513,0.004 1.779308,0.0346 2.306398,0.09175 0.565868,0.07564 0.888775,0.214544 0.968703,0.416701 0.130713,0.330792 -0.448922,0.539495 -1.738905,0.626111 -1.290038,0.08661 -3.135058,0.125142 -5.535061,0.115592 -0.789504,-0.0031 -1.979885,0.05634 -3.571142,0.178451 -1.591301,0.122098 -6.384752,0.760245 -8.112121,0.936864" sodipodi:nodetypes="ccccccsccccccscccscc" />
        </g>
    </g>
</svg>
