<?xml version="1.0" encoding="UTF-8" standalone="no"?>
<!-- Created with Inkscape (http://www.inkscape.org/) -->

<svg xmlns:dc="http://purl.org/dc/elements/1.1/" xmlns:cc="http://creativecommons.org/ns#" xmlns:rdf="http://www.w3.org/1999/02/22-rdf-syntax-ns#" xmlns:svg="http://www.w3.org/2000/svg" xmlns="http://www.w3.org/2000/svg" xmlns:xlink="http://www.w3.org/1999/xlink" xmlns:sodipodi="http://sodipodi.sourceforge.net/DTD/sodipodi-0.dtd" xmlns:inkscape="http://www.inkscape.org/namespaces/inkscape" width="22" height="22" id="svg4700" version="1.1" inkscape:version="0.48.4 r9939" sodipodi:docname="xscreensaver.svg">
    <defs id="defs4702">
        <linearGradient id="linearGradient4050">
            <stop id="stop4052" offset="0" style="stop-color:#ffffff;stop-opacity:0.66929132;" />
            <stop id="stop4054" offset="1" style="stop-color:#ffffff;stop-opacity:0;" />
        </linearGradient>
        <filter id="filter3174" color-interpolation-filters="sRGB">
            <feGaussianBlur stdDeviation="1.71" id="feGaussianBlur3176" />
        </filter>
        <linearGradient gradientTransform="scale(1.0058652,0.994169)" gradientUnits="userSpaceOnUse" id="ButtonShadow" y2="7.0165396" x2="45.447727" y1="92.539597" x1="45.447727">
            <stop offset="0" style="stop-color:#000000;stop-opacity:1" id="stop3750" />
            <stop offset="1" style="stop-color:#000000;stop-opacity:0.58823532" id="stop3752" />
        </linearGradient>
        <linearGradient inkscape:collect="always" xlink:href="#linearGradient4050" id="linearGradient3120" gradientUnits="userSpaceOnUse" gradientTransform="matrix(0.53950485,0,0,0.45066006,-1.9715264,24.60476)" x1="22.440199" y1="4.8942533" x2="22.440199" y2="38.21666" />
        <linearGradient y2="9.4076004" y1="32.059502" x2="21.9424" x1="27.5068" id="linearGradient5775-3" gradientUnits="userSpaceOnUse">
            <stop id="stop3648-3" stop-color="#5489a7" offset="0" />
            <stop id="stop3650-1" stop-color="#242e4f" offset="1" />
        </linearGradient>
        <linearGradient y2="25.279301" y1="-5.7136998" x2="32.9515" x1="10.1889" id="linearGradient5660" gradientUnits="userSpaceOnUse" gradientTransform="matrix(1,0,0,0.84932,2.4060994e-7,-1.09589)">
            <stop id="stop3643" stop-color="#fff" offset="0" />
            <stop id="stop3645" stop-opacity="0" stop-color="#fff" offset="1" />
        </linearGradient>
        <linearGradient inkscape:collect="always" xlink:href="#linearGradient5775-3" id="linearGradient3153" gradientUnits="userSpaceOnUse" x1="27.5068" y1="32.059502" x2="21.9424" y2="9.4076004" gradientTransform="matrix(0.49999992,0,0,0.52250062,-1,22.654824)" />
        <radialGradient inkscape:collect="always" xlink:href="#radialGradient4327-5-5" id="radialGradient3165-8" gradientUnits="userSpaceOnUse" gradientTransform="matrix(0.49669567,0,0,0.38494408,-1.2750925,26.22095)" cx="24.0002" cy="20.5" r="19.9998" />
        <radialGradient r="19.9998" id="radialGradient4327-5-5" gradientUnits="userSpaceOnUse" gradientTransform="matrix(1,0,0,0.77501,0,3.61238)" cy="20.5" cx="24.0002">
            <stop id="stop3673-5-2" stop-color="#0f86c8" offset="0" />
            <stop id="stop3675-1-1" stop-color="#0e2731" offset="1" />
        </radialGradient>
        <linearGradient inkscape:collect="always" xlink:href="#linearGradient5660" id="linearGradient4014" gradientUnits="userSpaceOnUse" gradientTransform="matrix(0.5,0,0,0.41096131,-1.0000007,24.534246)" x1="10.1889" y1="-5.7136998" x2="32.9515" y2="25.279301" />
        <linearGradient inkscape:collect="always" xlink:href="#linearGradient3780-6-2-1-8" id="linearGradient4187-9" gradientUnits="userSpaceOnUse" x1="16.132845" x2="27.589365" gradientTransform="matrix(0.99852857,0,0,0.99837368,-11.042656,-19.295855)" y1="57.076187" y2="57.076187" />
        <linearGradient x2="38.898602" x1="8.4863997" id="linearGradient3780-6-2-1-8" gradientUnits="userSpaceOnUse">
            <stop id="stop3631-4-7-5" stop-color="#b3b3b3" offset="0" />
            <stop id="stop3633-2-56-8" stop-color="#e7e7e7" offset="1" />
        </linearGradient>
        <linearGradient inkscape:collect="always" xlink:href="#linearGradient3780-6-2-1-8-9" id="linearGradient4187-9-9" gradientUnits="userSpaceOnUse" x1="16.132845" x2="27.589365" gradientTransform="matrix(0.86460661,0,0,0.9897,-8.0863104,-18.712455)" y1="57.076187" y2="57.076187" />
        <linearGradient x2="38.898602" x1="8.4863997" id="linearGradient3780-6-2-1-8-9" gradientUnits="userSpaceOnUse">
            <stop id="stop3631-4-7-5-9" stop-color="#b3b3b3" offset="0" />
            <stop id="stop3633-2-56-8-9" stop-color="#e7e7e7" offset="1" />
        </linearGradient>
        <radialGradient r="5.7508001" id="radialGradient4329" gradientUnits="userSpaceOnUse" cy="17.886999" cx="6.0910001">
            <stop id="stop3668" stop-color="#fff" offset="0" />
            <stop id="stop3670" stop-opacity="0" stop-color="#307085" offset="1" />
        </radialGradient>
        <radialGradient r="9.7437" id="radialGradient4326" gradientUnits="userSpaceOnUse" cy="16.5448" cx="38.852699">
            <stop id="stop3663" stop-color="#91d3ff" offset="0" />
            <stop id="stop3665" stop-opacity="0" stop-color="#33acff" offset="1" />
        </radialGradient>
        <radialGradient inkscape:collect="always" xlink:href="#radialGradient4326" id="radialGradient3146" gradientUnits="userSpaceOnUse" cx="38.852699" cy="16.5448" r="9.7437" gradientTransform="matrix(0.47500832,0,0,0.4601479,-0.62647356,25.815119)" />
        <radialGradient inkscape:collect="always" xlink:href="#radialGradient4329" id="radialGradient3149" gradientUnits="userSpaceOnUse" cx="6.0910001" cy="17.886999" r="5.7508001" gradientTransform="matrix(0.47500832,0,0,0.46153847,-0.62647359,24.76923)" />
    </defs>
    <sodipodi:namedview id="base" pagecolor="#ffffff" bordercolor="#666666" borderopacity="1.0" inkscape:pageopacity="0.0" inkscape:pageshadow="2" inkscape:zoom="26.140498" inkscape:cx="12.301807" inkscape:cy="9.5943066" inkscape:current-layer="layer1" showgrid="true" inkscape:grid-bbox="true" inkscape:document-units="px" inkscape:window-width="1280" inkscape:window-height="998" inkscape:window-x="0" inkscape:window-y="0" inkscape:window-maximized="1" inkscape:snap-to-guides="true" inkscape:snap-grids="true" inkscape:snap-bbox="true">
        <inkscape:grid type="xygrid" id="grid1021" empspacing="5" visible="true" enabled="true" snapvisiblegridlinesonly="true" />
    </sodipodi:namedview>
    <metadata id="metadata4705">
        <rdf:RDF>
            <cc:Work rdf:about="">
                <dc:format>image/svg+xml</dc:format>
                <dc:type rdf:resource="http://purl.org/dc/dcmitype/StillImage" />
                <dc:title />
            </cc:Work>
        </rdf:RDF>
    </metadata>
    <g id="layer1" inkscape:label="Layer 1" inkscape:groupmode="layer" transform="translate(0,-26)">
        <rect ry="1" y="44.51545" x="4.51545" height="2.9691" width="12.9691" id="rect3975" style="color:black;fill:url(#linearGradient4187-9-9);fill-opacity:1;fill-rule:nonzero;stroke:#2a2a2a;stroke-width:1.0309;stroke-linecap:butt;stroke-linejoin:miter;stroke-miterlimit:4;stroke-opacity:1;stroke-dasharray:none;stroke-dashoffset:0;marker:none;visibility:visible;display:inline;overflow:visible;enable-background:accumulate" rx="1" />
        <g id="layer2" style="display:none" transform="translate(5.204491,-179.6879)">
            <rect width="86" height="85" rx="6" ry="6" x="5" y="7" id="rect3745" style="opacity:0.9;fill:url(#ButtonShadow);fill-opacity:1;fill-rule:nonzero;stroke:none;filter:url(#filter3174)" />
        </g>
        <g id="layer4" transform="translate(5.204491,-179.6879)" />
        <rect style="color:black;fill:url(#linearGradient4187-9);fill-opacity:1;fill-rule:nonzero;stroke:#2a2a2a;stroke-width:1.0309;stroke-linecap:butt;stroke-linejoin:miter;stroke-miterlimit:4;stroke-opacity:1;stroke-dasharray:none;stroke-dashoffset:0;marker:none;visibility:visible;display:inline;overflow:visible;enable-background:accumulate" id="rect3874" width="20.969099" height="18.969099" x="0.51545" y="26.51545" ry="2" rx="1.9999999" />
        <rect rx="1" style="color:black;fill:url(#radialGradient3165-8);fill-opacity:1;fill-rule:nonzero;stroke:none;stroke-width:1;marker:none;visibility:visible;display:inline;overflow:visible;enable-background:accumulate" id="rect3979" y="27" x="1" ry="1.5" height="15" width="20" />
        <path inkscape:connector-curvature="0" id="path3691" d="M 7.3593991,33.382389 C 4.0306501,33.378677 1.4171497,35.325986 1,35.652028 v 1.338905 c 0.4307496,-0.617176 3.6399486,-4.868555 9.265598,-3.06969 -0.9989,-0.381268 -1.9806001,-0.537809 -2.9062492,-0.538802 z M 4.3124997,32.19046 c -2.1855503,0.0117 -3.2968996,0.555157 -3.2968996,0.555157 l 0.015603,2.547191 c 0,0 3.8301495,-3.933908 9.9218979,-1.485887 5.07215,2.038275 8.902949,1.461223 10.046899,1.208281 v -2.743127 c -1.195649,1.003306 -4.79305,3.412503 -9.921898,1.338907 C 8.3000021,32.487762 6.0123531,32.181368 4.3125027,32.190408 z M 2.9843999,30.982178 C 2.0998494,30.979369 1.4452998,31.091797 1,31.21077 v 1.077658 C 2.3850994,31.695966 5.5717987,30.984791 10.937498,33.300774 7.3761488,31.464392 4.7388492,30.987925 2.9843999,30.982178 z M 20.999997,29.969832 c -1.000001,1.476692 -4.06025,5.152223 -8.984398,3.608495 4.221648,1.771328 7.861948,-0.850057 8.984398,-1.796096 V 29.96978 z" style="opacity:0.403;color:black;fill:url(#linearGradient3153);fill-opacity:1;fill-rule:nonzero;stroke-width:1;stroke-linecap:butt;stroke-linejoin:miter;stroke-miterlimit:4;stroke-opacity:1;stroke-dasharray:none;stroke-dashoffset:0;marker:none;visibility:visible;display:inline;overflow:visible;enable-background:accumulate" />
        <path style="fill:aqua;stroke:none" inkscape:connector-curvature="0" d="m 17,43 h 2 v 1 h -2 z" id="path3697" />
        <rect width="19" height="14" ry="1.3610822" x="1.5" y="27.5" id="rect4513" style="fill:none;stroke:url(#linearGradient3120);stroke-width:1;stroke-miterlimit:4;stroke-opacity:1;stroke-dasharray:none" rx="1.3610822" />
        <path style="opacity:0.74683539;fill:url(#linearGradient4014)" inkscape:connector-curvature="0" d="m 9,27 10.5,0 c 0.664099,0 1.5,0.879097 1.5,1.5 l 0,13.5 -6.6525,0 z" id="path3695" sodipodi:nodetypes="cssccc" />
        <path style="opacity:0.01000001;fill:url(#radialGradient3149)" inkscape:connector-curvature="0" d="m 2.2660421,30.454369 c -0.3506987,0 -0.6844395,0.06398 -0.9924824,0.177324 V 35.4196 c 0.3080905,0.113353 0.6417837,0.177322 0.9924824,0.177322 C 3.7747161,35.596922 5,34.443539 5,33.023479 5,31.603415 3.7746684,30.454323 2.2660421,30.454323 z" id="path3685" />
        <path style="opacity:0.15;fill:url(#radialGradient3146)" inkscape:connector-curvature="0" d="m 17.829073,29.085574 c -2.556163,0 -4.627104,1.943437 -4.627104,4.342278 0,2.398844 2.070893,4.342278 4.627104,4.342278 0.898525,0 1.734541,-0.2396 2.444487,-0.655434 v -7.373687 c -0.709614,-0.415283 -1.546626,-0.655435 -2.444487,-0.655435 z" id="path3687" />
        <path style="opacity:0.88185658;color:black;fill:white;fill-opacity:1;fill-rule:nonzero;stroke:none;stroke-width:1;marker:none;visibility:visible;display:inline;overflow:visible;enable-background:accumulate" d="m 3.9235533,34.812806 c -1.2314044,1.186643 -1.2314044,3.110572 0,4.297213 1.2314047,1.186642 3.2279058,1.186642 4.4593097,0 C 8.6447765,38.857626 8.8495018,38.570837 9,38.265925 7.8529839,38.732293 6.4706198,38.514245 5.5360719,37.613669 4.5685399,36.681306 4.3760134,35.297574 4.9288889,34.170142 4.564936,34.318274 4.2201259,34.527016 3.9235533,34.812806 z" id="path3025" inkscape:connector-curvature="0" />
        <path sodipodi:type="star" style="opacity:0.88185658;color:black;fill:white;fill-opacity:1;fill-rule:nonzero;stroke:none;stroke-width:1;marker:none;visibility:visible;display:inline;overflow:visible;enable-background:accumulate" id="path3800" sodipodi:sides="4" sodipodi:cx="16" sodipodi:cy="18" sodipodi:r1="5" sodipodi:r2="1.5" sodipodi:arg1="1.5707963" sodipodi:arg2="2.3561945" inkscape:flatsided="false" inkscape:rounded="0" inkscape:randomized="0" d="M 16,23 14.93934,19.06066 11,18 14.93934,16.93934 16,13 17.06066,16.93934 21,18 17.06066,19.06066 z" transform="matrix(0.41167385,0,0,0.39999998,9.728709,30.8)" />
        <path sodipodi:type="star" style="opacity:0.84810127;color:black;fill:white;fill-opacity:1;fill-rule:nonzero;stroke:none;stroke-width:1;marker:none;visibility:visible;display:inline;overflow:visible;enable-background:accumulate" id="path3804" sodipodi:sides="4" sodipodi:cx="16" sodipodi:cy="18" sodipodi:r1="5" sodipodi:r2="1.5" sodipodi:arg1="1.5707963" sodipodi:arg2="2.3561945" inkscape:flatsided="false" inkscape:rounded="0" inkscape:randomized="0" d="M 16,23 14.93934,19.06066 11,18 14.93934,16.93934 16,13 17.06066,16.93934 21,18 17.06066,19.06066 z" transform="matrix(0.28500499,0,0,0.27692308,3.3635963,28.092308)" />
        <path transform="matrix(0.5,0,0,0.48582149,4.5,22.684321)" d="M 16,23 14.93934,19.06066 11,18 14.93934,16.93934 16,13 17.06066,16.93934 21,18 17.06066,19.06066 z" inkscape:randomized="0" inkscape:rounded="0" inkscape:flatsided="false" sodipodi:arg2="2.3561945" sodipodi:arg1="1.5707963" sodipodi:r2="1.5" sodipodi:r1="5" sodipodi:cy="18" sodipodi:cx="16" sodipodi:sides="4" id="path3802" style="opacity:0.88185658;color:black;fill:white;fill-opacity:1;fill-rule:nonzero;stroke:none;stroke-width:1;marker:none;visibility:visible;display:inline;overflow:visible;enable-background:accumulate" sodipodi:type="star" />
        <path transform="matrix(0.19000333,0,0,0.18461539,10.583724,32.523078)" d="M 16,23 14.93934,19.06066 11,18 14.93934,16.93934 16,13 17.06066,16.93934 21,18 17.06066,19.06066 z" inkscape:randomized="0" inkscape:rounded="0" inkscape:flatsided="false" sodipodi:arg2="2.3561945" sodipodi:arg1="1.5707963" sodipodi:r2="1.5" sodipodi:r1="5" sodipodi:cy="18" sodipodi:cx="16" sodipodi:sides="4" id="path3806" style="opacity:0.84810127;color:black;fill:white;fill-opacity:1;fill-rule:nonzero;stroke:none;stroke-width:1;marker:none;visibility:visible;display:inline;overflow:visible;enable-background:accumulate" sodipodi:type="star" />
        <path sodipodi:type="star" style="opacity:0.88185658;color:black;fill:white;fill-opacity:1;fill-rule:nonzero;stroke:none;stroke-width:1;marker:none;visibility:visible;display:inline;overflow:visible;enable-background:accumulate" id="path3808" sodipodi:sides="4" sodipodi:cx="16" sodipodi:cy="18" sodipodi:r1="5" sodipodi:r2="1.5" sodipodi:arg1="1.5707963" sodipodi:arg2="2.3561945" inkscape:flatsided="false" inkscape:rounded="0" inkscape:randomized="0" d="M 16,23 14.93934,19.06066 11,18 14.93934,16.93934 16,13 17.06066,16.93934 21,18 17.06066,19.06066 z" transform="matrix(0.19000333,0,0,0.18461539,2.0335729,26.061539)" />
        <path transform="matrix(0.19000333,0,0,0.18461539,14.00993,26.753846)" d="M 16,23 14.93934,19.06066 11,18 14.93934,16.93934 16,13 17.06066,16.93934 21,18 17.06066,19.06066 z" inkscape:randomized="0" inkscape:rounded="0" inkscape:flatsided="false" sodipodi:arg2="2.3561945" sodipodi:arg1="1.5707963" sodipodi:r2="1.5" sodipodi:r1="5" sodipodi:cy="18" sodipodi:cx="16" sodipodi:sides="4" id="path3810" style="opacity:0.88185658;color:black;fill:white;fill-opacity:1;fill-rule:nonzero;stroke:none;stroke-width:1;marker:none;visibility:visible;display:inline;overflow:visible;enable-background:accumulate" sodipodi:type="star" />
        <path sodipodi:type="star" style="opacity:0.77215187;color:black;fill:white;fill-opacity:1;fill-rule:nonzero;stroke:none;stroke-width:1;marker:none;visibility:visible;display:inline;overflow:visible;enable-background:accumulate" id="path3812" sodipodi:sides="4" sodipodi:cx="16" sodipodi:cy="18" sodipodi:r1="5" sodipodi:r2="1.5" sodipodi:arg1="1.5707963" sodipodi:arg2="2.3561945" inkscape:flatsided="false" inkscape:rounded="0" inkscape:randomized="0" d="M 16,23 14.93934,19.06066 11,18 14.93934,16.93934 16,13 17.06066,16.93934 21,18 17.06066,19.06066 z" transform="matrix(0.19000333,0,0,0.18461539,7.2586645,34.830769)" />
    </g>
</svg>
