<?xml version="1.0" encoding="UTF-8" standalone="no"?>
<!-- Created with Inkscape (http://www.inkscape.org/) -->

<svg
   xmlns:dc="http://purl.org/dc/elements/1.1/"
   xmlns:cc="http://creativecommons.org/ns#"
   xmlns:rdf="http://www.w3.org/1999/02/22-rdf-syntax-ns#"
   xmlns:svg="http://www.w3.org/2000/svg"
   xmlns="http://www.w3.org/2000/svg"
   xmlns:xlink="http://www.w3.org/1999/xlink"
   xmlns:sodipodi="http://sodipodi.sourceforge.net/DTD/sodipodi-0.dtd"
   xmlns:inkscape="http://www.inkscape.org/namespaces/inkscape"
   version="1.0"
   width="128"
   height="128"
   id="svg3437"
   inkscape:version="0.48.3.1 r9886"
   sodipodi:docname="lxfind.svg"
   inkscape:export-filename="/home/rafa/.icons/lubuntu box/lxfind128.png"
   inkscape:export-xdpi="90"
   inkscape:export-ydpi="90">
  <metadata
     id="metadata101">
    <rdf:RDF>
      <cc:Work
         rdf:about="">
        <dc:format>image/svg+xml</dc:format>
        <dc:type
           rdf:resource="http://purl.org/dc/dcmitype/StillImage" />
        <dc:title />
      </cc:Work>
    </rdf:RDF>
  </metadata>
  <sodipodi:namedview
     pagecolor="#ffffff"
     bordercolor="#666666"
     borderopacity="1"
     objecttolerance="10"
     gridtolerance="10"
     guidetolerance="10"
     inkscape:pageopacity="0"
     inkscape:pageshadow="2"
     inkscape:window-width="749"
     inkscape:window-height="663"
     id="namedview99"
     showgrid="true"
     inkscape:zoom="2"
     inkscape:cx="111.39091"
     inkscape:cy="60.313473"
     inkscape:window-x="0"
     inkscape:window-y="0"
     inkscape:window-maximized="1"
     inkscape:current-layer="svg3437"
     inkscape:snap-to-guides="false"
     inkscape:snap-grids="false"
     width="0px"
     height="0px"
     fit-margin-top="0"
     fit-margin-left="0"
     fit-margin-right="0"
     fit-margin-bottom="0">
    <inkscape:grid
       type="xygrid"
       id="grid911"
       empspacing="5"
       visible="true"
       enabled="true"
       snapvisiblegridlinesonly="true" />
  </sodipodi:namedview>
  <defs
     id="defs3439">
    <linearGradient
       id="linearGradient4467-2">
      <stop
         id="stop4469-9"
         offset="0"
         style="stop-color:#ffffff;stop-opacity:1;" />
      <stop
         id="stop4471-5"
         offset="1.0000000"
         style="stop-color:#ffffff;stop-opacity:0.24761905;" />
    </linearGradient>
    <linearGradient
       id="linearGradient4454-4">
      <stop
         id="stop4456-1"
         offset="0.0000000"
         style="stop-color:#729fcf;stop-opacity:0.20784314;" />
      <stop
         id="stop4458-5"
         offset="1.0000000"
         style="stop-color:#729fcf;stop-opacity:0.67619050;" />
    </linearGradient>
    <radialGradient
       inkscape:collect="always"
       xlink:href="#linearGradient4454-4"
       id="radialGradient2003"
       gradientUnits="userSpaceOnUse"
       cx="18.240929"
       cy="21.817987"
       fx="18.240929"
       fy="21.817987"
       r="8.3085051" />
    <linearGradient
       id="linearGradient2366-4">
      <stop
         style="stop-color:#ffffff;stop-opacity:1;"
         offset="0"
         id="stop2368-6" />
      <stop
         id="stop2374-6"
         offset="0.50000000"
         style="stop-color:#ffffff;stop-opacity:0.21904762;" />
      <stop
         style="stop-color:#ffffff;stop-opacity:1.0000000;"
         offset="1.0000000"
         id="stop2370-8" />
    </linearGradient>
    <linearGradient
       inkscape:collect="always"
       xlink:href="#linearGradient2366-4"
       id="linearGradient2005"
       gradientUnits="userSpaceOnUse"
       x1="18.292673"
       y1="13.602121"
       x2="17.500893"
       y2="25.743469" />
    <linearGradient
       id="linearGradient2846-5">
      <stop
         style="stop-color:#8a8a8a;stop-opacity:1.0000000;"
         offset="0.0000000"
         id="stop2848-4" />
      <stop
         style="stop-color:#484848;stop-opacity:1.0000000;"
         offset="1.0000000"
         id="stop2850-9" />
    </linearGradient>
    <linearGradient
       inkscape:collect="always"
       id="linearGradient3904">
      <stop
         style="stop-color:#000000;stop-opacity:1;"
         offset="0"
         id="stop3906" />
      <stop
         style="stop-color:#000000;stop-opacity:0;"
         offset="1"
         id="stop3908" />
    </linearGradient>
    <linearGradient
       id="linearGradient3912"
       inkscape:collect="always">
      <stop
         id="stop3914"
         offset="0"
         style="stop-color:#888a85;stop-opacity:1" />
      <stop
         id="stop3916"
         offset="1"
         style="stop-color:#d3d7cf" />
    </linearGradient>
    <linearGradient
       id="linearGradient2690"
       inkscape:collect="always">
      <stop
         id="stop2692"
         offset="0"
         style="stop-color:#2e3436" />
      <stop
         id="stop2694"
         offset="1"
         style="stop-color:#555753" />
    </linearGradient>
    <linearGradient
       inkscape:collect="always"
       xlink:href="#linearGradient2690"
       id="linearGradient7491"
       gradientUnits="userSpaceOnUse"
       x1="81.096306"
       y1="57.148193"
       x2="83.629295"
       y2="54.615208"
       gradientTransform="translate(0.9714494,0.9765495)" />
    <linearGradient
       id="linearGradient2698-5">
      <stop
         id="stop2700-8"
         offset="0"
         style="stop-color:#888a85;stop-opacity:1" />
      <stop
         style="stop-color:#a3a5a2;stop-opacity:1;"
         offset="0.70238096"
         id="stop2706-4" />
      <stop
         id="stop2702-1"
         offset="1"
         style="stop-color:#888a85" />
    </linearGradient>
    <linearGradient
       inkscape:collect="always"
       xlink:href="#linearGradient2698-5"
       id="linearGradient7489"
       gradientUnits="userSpaceOnUse"
       x1="81.332451"
       y1="55.106758"
       x2="82.919647"
       y2="53.511261"
       gradientTransform="translate(0.9714494,0.9765495)" />
    <filter
       inkscape:collect="always"
       id="filter3286"
       x="-0.12195122"
       width="1.2439024"
       y="-0.34351143"
       height="1.6870229">
      <feGaussianBlur
         inkscape:collect="always"
         stdDeviation="1.5088502"
         id="feGaussianBlur3288" />
    </filter>
    <linearGradient
       id="linearGradient3292-0">
      <stop
         id="stop3294-4"
         offset="0"
         style="stop-color:#000000;stop-opacity:1;" />
      <stop
         style="stop-color:#000000;stop-opacity:0.49803922;"
         offset="0.30910534"
         id="stop3296-7" />
      <stop
         id="stop3300-0"
         offset="0.34748977"
         style="stop-color:#000000;stop-opacity:0.24705882;" />
      <stop
         id="stop3298-7"
         offset="1"
         style="stop-color:#000000;stop-opacity:0;" />
    </linearGradient>
    <linearGradient
       inkscape:collect="always"
       xlink:href="#linearGradient3292-0"
       id="linearGradient3268"
       gradientUnits="userSpaceOnUse"
       x1="31.19417"
       y1="30.503681"
       x2="1.5"
       y2="19.961847" />
    <linearGradient
       gradientUnits="userSpaceOnUse"
       y2="102.98915"
       x2="63.318913"
       y1="116.48915"
       x1="63.318913"
       id="linearGradient895"
       xlink:href="#linearGradient889"
       inkscape:collect="always" />
    <linearGradient
       gradientUnits="userSpaceOnUse"
       y2="109.70361"
       x2="89.272232"
       y1="116.95146"
       x1="89.272232"
       id="linearGradient862"
       xlink:href="#linearGradient865"
       inkscape:collect="always" />
    <linearGradient
       y2="22.113136"
       x2="9.8763561"
       y1="2.6014566"
       x1="9.8763561"
       gradientTransform="matrix(5.2305598,0,0,5.3832164,1.8080897,-1.351296)"
       gradientUnits="userSpaceOnUse"
       id="linearGradient3159"
       xlink:href="#linearGradient5157-1"
       inkscape:collect="always" />
    <linearGradient
       y2="35.589085"
       x2="-28.531403"
       y1="18.645372"
       x1="-28.531403"
       gradientTransform="matrix(5.2305598,0,0,5.3832164,181.62429,-79.415058)"
       gradientUnits="userSpaceOnUse"
       id="linearGradient3157"
       xlink:href="#linearGradient933-1"
       inkscape:collect="always" />
    <linearGradient
       y2="4.3030405"
       x2="9.7045717"
       y1="20.882006"
       x1="9.7045717"
       gradientTransform="matrix(5.1743974,0,0,5.4320872,0.18824782,5.965936)"
       gradientUnits="userSpaceOnUse"
       id="linearGradient3154"
       xlink:href="#linearGradient3390-6"
       inkscape:collect="always" />
    <radialGradient
       r="11.268134"
       fy="8.5608768"
       fx="7.8185525"
       cy="8.5608768"
       cx="7.8185525"
       gradientTransform="matrix(8.7921776,0,0,5.6998942,-26.395604,1.83676)"
       gradientUnits="userSpaceOnUse"
       id="radialGradient3152"
       xlink:href="#linearGradient7012-661-145-733-759-865-745-3"
       inkscape:collect="always" />
    <radialGradient
       r="10.273108"
       fy="5.5926585"
       fx="4.02005"
       cy="5.5926585"
       cx="4.02005"
       gradientTransform="matrix(-1.8996254e-7,7.0367231,-9.7596034,-0.00293199,75.17288,8.561562)"
       gradientUnits="userSpaceOnUse"
       id="radialGradient3149"
       xlink:href="#linearGradient921-4"
       inkscape:collect="always" />
    <linearGradient
       gradientTransform="matrix(2.2329037,0,0,2.1673688,18.047814,18.341668)"
       y2="24.627615"
       x2="20.054544"
       y1="16.407909"
       x1="18.03083"
       gradientUnits="userSpaceOnUse"
       id="linearGradient3146"
       xlink:href="#linearGradient8265-821-176-38-919-66-249-1"
       inkscape:collect="always" />
    <radialGradient
       r="117.14286"
       fy="486.64789"
       fx="605.71429"
       cy="486.64789"
       cx="605.71429"
       gradientTransform="matrix(-0.06214224,0,0,0.02900085,46.53201,44.085503)"
       gradientUnits="userSpaceOnUse"
       id="radialGradient3131"
       xlink:href="#linearGradient5060-9"
       inkscape:collect="always" />
    <radialGradient
       r="117.14286"
       fy="486.64789"
       fx="605.71429"
       cy="486.64789"
       cx="605.71429"
       gradientTransform="matrix(0.06214224,0,0,0.02900085,1.6365015,44.085503)"
       gradientUnits="userSpaceOnUse"
       id="radialGradient3129"
       xlink:href="#linearGradient5060-9"
       inkscape:collect="always" />
    <linearGradient
       y2="609.50507"
       x2="302.85715"
       y1="366.64789"
       x1="302.85715"
       gradientTransform="matrix(0.06214224,0,0,0.02900085,1.6242719,44.085503)"
       gradientUnits="userSpaceOnUse"
       id="linearGradient3127"
       xlink:href="#linearGradient5048-3"
       inkscape:collect="always" />
    <linearGradient
       id="linearGradient5048-3">
      <stop
         offset="0"
         style="stop-color:#000000;stop-opacity:0"
         id="stop5050-5" />
      <stop
         offset="0.5"
         style="stop-color:#000000;stop-opacity:1"
         id="stop5056-6" />
      <stop
         offset="1"
         style="stop-color:#000000;stop-opacity:0"
         id="stop5052-5" />
    </linearGradient>
    <linearGradient
       id="linearGradient5060-9">
      <stop
         offset="0"
         style="stop-color:#000000;stop-opacity:1"
         id="stop5062-0" />
      <stop
         offset="1"
         style="stop-color:#000000;stop-opacity:0"
         id="stop5064-6" />
    </linearGradient>
    <linearGradient
       id="linearGradient5157-1">
      <stop
         offset="0"
         style="stop-color:#b5b5b5;stop-opacity:1;"
         id="stop5159-6" />
      <stop
         offset="1"
         style="stop-color:#5d5d5d;stop-opacity:1;"
         id="stop5161-46" />
    </linearGradient>
    <linearGradient
       id="linearGradient7012-661-145-733-759-865-745-3">
      <stop
         offset="0"
         style="stop-color:#9cbbd9;stop-opacity:1"
         id="stop2699-7" />
      <stop
         offset="1"
         style="stop-color:#5c82ab;stop-opacity:1"
         id="stop2701-3" />
    </linearGradient>
    <linearGradient
       id="linearGradient3390-6">
      <stop
         offset="0"
         style="stop-color:#344960;stop-opacity:1;"
         id="stop3392-2" />
      <stop
         offset="1"
         style="stop-color:#5e778e;stop-opacity:1;"
         id="stop3394-8" />
    </linearGradient>
    <linearGradient
       id="linearGradient8265-821-176-38-919-66-249-1">
      <stop
         offset="0"
         style="stop-color:#ffffff;stop-opacity:1"
         id="stop2687-8" />
      <stop
         offset="1"
         style="stop-color:#ffffff;stop-opacity:0"
         id="stop2689-5" />
    </linearGradient>
    <linearGradient
       id="linearGradient921-4">
      <stop
         id="stop923-3"
         style="stop-color:#ffffff;stop-opacity:1"
         offset="0" />
      <stop
         id="stop925-7"
         style="stop-color:#ffffff;stop-opacity:1"
         offset="0.69999999" />
      <stop
         id="stop927-5"
         style="stop-color:#ffffff;stop-opacity:0"
         offset="1" />
    </linearGradient>
    <linearGradient
       id="linearGradient933-1">
      <stop
         id="stop935-9"
         style="stop-color:#ffffff;stop-opacity:1"
         offset="0" />
      <stop
         id="stop937-3"
         style="stop-color:#cdcdcd;stop-opacity:1"
         offset="0.70000005" />
      <stop
         id="stop939-2"
         style="stop-color:#a1a1a1;stop-opacity:1"
         offset="1" />
    </linearGradient>
    <linearGradient
       id="linearGradient865">
      <stop
         style="stop-color:#ffffff;stop-opacity:1;"
         offset="0"
         id="stop867" />
      <stop
         style="stop-color:#ffffff;stop-opacity:0;"
         offset="1"
         id="stop869" />
    </linearGradient>
    <linearGradient
       id="linearGradient889"
       inkscape:collect="always">
      <stop
         id="stop891"
         offset="0"
         style="stop-color:#346283;stop-opacity:1;" />
      <stop
         id="stop893"
         offset="1"
         style="stop-color:#346283;stop-opacity:0;" />
    </linearGradient>
    <radialGradient
       inkscape:collect="always"
       xlink:href="#linearGradient4467-2"
       id="radialGradient3193"
       gradientUnits="userSpaceOnUse"
       gradientTransform="matrix(4.834287,0,0,4.1987909,-5.0594954,7.6024727)"
       cx="15.414371"
       cy="13.078408"
       fx="15.414371"
       fy="13.078408"
       r="6.65625" />
    <linearGradient
       inkscape:collect="always"
       xlink:href="#linearGradient2846-5"
       id="linearGradient3199"
       gradientUnits="userSpaceOnUse"
       gradientTransform="matrix(1.8988115,0,0,1.8978522,40.427813,40.042515)"
       x1="27.366341"
       y1="26.580296"
       x2="31.335964"
       y2="30.557772" />
    <linearGradient
       inkscape:collect="always"
       xlink:href="#linearGradient3904"
       id="linearGradient3202"
       gradientUnits="userSpaceOnUse"
       gradientTransform="matrix(2.7966909,0,0,2.79684,35.630479,38.553806)"
       x1="22.540768"
       y1="21.90337"
       x2="23.207554"
       y2="22.570156" />
    <linearGradient
       inkscape:collect="always"
       xlink:href="#linearGradient3912"
       id="linearGradient3205"
       gradientUnits="userSpaceOnUse"
       gradientTransform="matrix(1.8644616,0,0,1.8645609,33.766016,38.553806)"
       x1="40.749702"
       y1="41.369453"
       x2="43.327663"
       y2="37.705376" />
  </defs>
  <g
     id="g1088"
     transform="translate(-1.3844357e-8,-8.9999999)">
    <path
       sodipodi:nodetypes="cccscccccccccc"
       inkscape:connector-curvature="0"
       style="fill:url(#linearGradient3157);fill-opacity:1;stroke:url(#linearGradient3159);stroke-width:1;stroke-linecap:round;stroke-linejoin:round;stroke-miterlimit:4;stroke-opacity:1;stroke-dasharray:none;display:inline"
       id="path3496"
       d="M 17.315527,11.5 C 15.100035,11.5 13.5,12.569408 13.5,16 l 0,2.5 -5.5,0 c -2.7405448,0 -3.5,2.088048 -3.5,4.5 l 0,87.87989 C 4.5,114.897 7.4007074,118 11.842105,118 l 97.657895,0 0,-95 c 0,-3.181942 -1.79329,-4.5 -4.5,-4.5 l -47.5,0 0,-2.5 c 0,-2.215574 -0.669543,-4.5 -4.605527,-4.5 z" />
    <g
       transform="matrix(2.8145022,0,0,2.8396736,-3.7851784,-48.382968)"
       id="g914">
      <rect
         width="30.005821"
         height="7.0430632"
         x="9.0813398"
         y="54.718601"
         id="rect4173"
         style="opacity:0.5;fill:url(#linearGradient3127);fill-opacity:1;fill-rule:nonzero;stroke:none;stroke-width:104.96237946;marker:none;visibility:visible;display:inline;overflow:visible" />
      <path
         d="m 39.087163,54.718845 c 0,0 0,7.042675 0,7.042675 3.200171,0.01326 7.736457,-1.577906 7.736455,-3.52179 0,-1.943885 -3.57115,-3.520884 -7.736455,-3.520885 z"
         id="path5058"
         style="opacity:0.5;fill:url(#radialGradient3129);fill-opacity:1;fill-rule:nonzero;stroke:none;stroke-width:104.96237946;marker:none;visibility:visible;display:inline;overflow:visible"
         inkscape:connector-curvature="0" />
      <path
         d="m 9.0813406,54.718845 c 0,0 0,7.042675 0,7.042675 -3.2001721,0.01326 -7.7364568,-1.577906 -7.7364568,-3.52179 0,-1.943885 3.57115,-3.520884 7.7364568,-3.520885 z"
         id="path5018"
         style="opacity:0.5;fill:url(#radialGradient3131);fill-opacity:1;fill-rule:nonzero;stroke:none;stroke-width:104.96237946;marker:none;visibility:visible;display:inline;overflow:visible"
         inkscape:connector-curvature="0" />
    </g>
    <path
       inkscape:connector-curvature="0"
       id="rect897"
       d="m 5.5,20 0,2 103,0 0,-2 -103,0 z m 0,4.9375 0,2 103,0 0,-2 -103,0 z m 0,4.96875 0,2 103,0 0,-2 -103,0 z m 0,4.9375 0,2 103,0 0,-2 -103,0 z m 0,4.9375 0,2 103,0 0,-2 -103,0 z m 0,4.96875 0,2 103,0 0,-2 -103,0 z m 0,4.9375 0,2 103,0 0,-2 -103,0 z m 0,4.9375 0,2 103,0 0,-2 -103,0 z m 0,4.96875 0,2 103,0 0,-2 -103,0 z m 0,4.9375 0,2 103,0 0,-2 -103,0 z m 0,4.9375 0,2 103,0 0,-2 -103,0 z m 0,4.9375 0,2 103,0 0,-2 -103,0 z m 0,4.96875 0,2 103,0 0,-2 -103,0 z m 0,4.9375 0,2 103,0 0,-2 -103,0 z m 0,4.9375 0,2 103,0 0,-2 -103,0 z m 0,4.96875 0,2 103,0 0,-2 -103,0 z m 0,4.9375 0,2 103,0 0,-2 -103,0 z m 0,4.9375 0,2 103,0 0,-2 -103,0 z m 0,4.96875 0,2 103,0 0,-2 -103,0 z m 0,4.9375 0,2 103,0 0,-2 -103,0 z"
       style="opacity:0.30481286;color:#000000;color-interpolation:sRGB;color-interpolation-filters:linearRGB;fill:#5c5c5c;fill-opacity:0.52017942;fill-rule:evenodd;stroke:none;stroke-width:0.99999994;marker:none;visibility:visible;display:inline;overflow:visible;enable-background:accumulate;clip-rule:nonzero" />
    <path
       sodipodi:nodetypes="ccccccccc"
       inkscape:connector-curvature="0"
       style="fill:url(#radialGradient3152);fill-opacity:1;stroke:url(#linearGradient3154);stroke-width:1;stroke-linecap:round;stroke-linejoin:round;stroke-miterlimit:4;stroke-opacity:1;stroke-dasharray:none;display:inline"
       id="path3498"
       d="m 23,29.5 96.5,0 c 2.55513,0 4,1.429233 4,4 l 0,77.5 c 0,3.99114 -1.7162,7 -6.5,7 l -105,0 c 2.940743,0 7.487342,-2.36268 7.499954,-6.87988 L 19.500046,33.5 c 0,-2.863398 0.858844,-4 3.499954,-4 z" />
    <path
       sodipodi:nodetypes="cccc"
       inkscape:connector-curvature="0"
       style="opacity:0.4;fill:none;stroke:url(#radialGradient3149);stroke-width:0.98119456;stroke-linecap:butt;stroke-linejoin:miter;stroke-miterlimit:4;stroke-opacity:1;stroke-dasharray:none;display:inline"
       id="path3211"
       d="M 122.50001,30.5 23.5,30.5 c -2.583519,0 -3,0.423435 -3,3 l 0,76.5" />
    <path
       sodipodi:nodetypes="ssccccsss"
       inkscape:connector-curvature="0"
       style="opacity:0.30481286;fill:url(#linearGradient3146);fill-opacity:1;fill-rule:evenodd;stroke:none"
       id="path2608"
       d="M 23.499827,30 C 20.814771,30 20,30.664532 20,34 l 0,34.928306 C 20,71.380032 21.397167,72.870862 24.026843,73 57.629065,69.73243 85.96049,62.974236 119.37136,57.557498 c 1.95017,-0.79379 3.72798,-2.33107 3.62822,-4.95613 L 123.00042,34 c 1.3e-4,-2.947766 -0.97574,-4 -4.0053,-4 z" />
    <path
       style="color:#000000;color-interpolation:sRGB;color-interpolation-filters:linearRGB;fill:url(#linearGradient895);fill-opacity:1;fill-rule:nonzero;stroke:none;stroke-width:0.99999994;marker:none;visibility:visible;display:inline;overflow:visible;enable-background:accumulate;clip-rule:nonzero"
       d="m 20.771519,100.542 102.123821,0 c -0.37306,9.08845 -0.0493,16.89429 -4.86469,16.89429 l -101.211738,0 c 2.5,0 3.952607,-8.12458 3.952607,-16.89429 z"
       id="path871"
       inkscape:connector-curvature="0"
       sodipodi:nodetypes="ccccc" />
    <path
       sodipodi:nodetypes="ccccc"
       inkscape:connector-curvature="0"
       id="rect854"
       d="m 20.970563,109.792 101.424777,0 c -0.36603,4.50965 -1.76691,6.08882 -4.77297,6.89429 l -99.303458,0 c 0,0 2.651651,-2.2947 2.651651,-6.89429 z"
       style="opacity:0.50267382;color:#000000;color-interpolation:sRGB;color-interpolation-filters:linearRGB;fill:url(#linearGradient862);fill-opacity:1;fill-rule:nonzero;stroke:none;stroke-width:0.99999994;marker:none;visibility:visible;display:inline;overflow:visible;enable-background:accumulate;clip-rule:nonzero" />
  </g>
  <path
     style="opacity:0.7;fill:url(#linearGradient3268);fill-opacity:1;fill-rule:nonzero;stroke:none;stroke-width:0.67653471;marker:none;visibility:visible;display:inline;overflow:visible;filter:url(#filter3286)"
     d="m 83.508292,9.3098989 c -0.0055,0.010672 -0.01172,0.020248 0,0.031247 l 0.694581,0.8358351 c 0.01702,0.01528 0.04797,0.02817 0.09472,0.03906 l 5.367215,1.335774 c 0.240326,0.05952 0.605021,0.0756 1.041871,0.05468 0.43685,-0.02092 0.940211,-0.09202 1.483877,-0.226535 0.539179,-0.133403 0.822677,-0.252127 0.915584,-0.35933 0.09291,-0.107204 0.01593,-0.206971 -0.221003,-0.265593 L 87.486346,9.4270749 c -0.05303,-0.012877 -0.115749,-0.020717 -0.189431,-0.023435 L 83.950298,9.2395975 c -0.0455,-0.0032 -0.111224,-0.00135 -0.157859,0 z"
     id="path2446"
     inkscape:connector-curvature="0"
     sodipodi:nodetypes="cccccssscccccc"
     transform="matrix(2.7968324,0,0,2.7968324,-135.79837,93.230087)" />
  <g
     style="display:inline"
     transform="matrix(2.8788269,0,0,2.863995,-126.72224,-47.113707)"
     id="g2708">
    <path
       inkscape:connector-curvature="0"
       style="fill:url(#linearGradient7489);fill-opacity:1;fill-rule:nonzero;stroke:url(#linearGradient7491);stroke-width:0.36283982;stroke-linecap:round;stroke-linejoin:round;stroke-miterlimit:4;stroke-opacity:1;stroke-dashoffset:0;marker:none;visibility:visible;display:inline;overflow:visible"
       d="m 75.339143,50.907296 3.076304,3.092887 5.181173,5.213494 c 0.192503,0.193704 0.97147,0.320302 1.942939,-0.65625 0.97147,-0.976552 0.895574,-1.70388 0.647647,-1.953105 l -5.181173,-5.208279 -2.752336,-2.93012 -2.914554,2.441373 z"
       id="path2682"
       sodipodi:nodetypes="cczzzccc" />
  </g>
  <path
     inkscape:connector-curvature="0"
     sodipodi:nodetypes="cczzzccc"
     id="path17267"
     d="m 94.887636,99.289648 6.258604,6.355962 13.7973,13.88975 c 0.68765,0.69225 0.7832,0.80801 2.52432,-0.93321 1.74113,-1.74121 1.59867,-1.92876 0.73843,-2.80262 L 105.15061,102.5371 98.5295,95.835367 94.887636,99.289648 z"
     style="fill:none;stroke:url(#linearGradient3205);stroke-width:0.99997592;stroke-linecap:round;stroke-linejoin:miter;stroke-miterlimit:4;stroke-opacity:1;stroke-dasharray:none;stroke-dashoffset:0;marker:none;visibility:visible;display:inline;overflow:visible" />
  <path
     inkscape:connector-curvature="0"
     style="opacity:0.36936939;fill:url(#linearGradient3202);fill-opacity:1;fill-rule:nonzero;stroke:none;stroke-width:0.67653471;marker:none;visibility:visible;display:inline;overflow:visible"
     d="m 90.792791,98.795025 8.375629,8.442755 c 4.40725,-1.9846 5.74133,-2.83833 7.5217,-6.5679 l -8.647127,-8.172279 c -2.036636,1.769001 -4.665973,4.548551 -7.250202,6.297424 z"
     id="path19908"
     sodipodi:nodetypes="ccccc" />
  <path
     inkscape:connector-curvature="0"
     style="fill:#dcdcdc;fill-opacity:1;fill-rule:evenodd;stroke:url(#linearGradient3199);stroke-width:2.00165534;stroke-linecap:round;stroke-linejoin:miter;stroke-miterlimit:10;stroke-opacity:1;stroke-dasharray:none;stroke-dashoffset:0;marker:none;visibility:visible;display:inline;overflow:visible"
     d="m 75.798063,46.008517 c -15.454677,0 -27.997601,12.536583 -27.997601,27.983444 0,15.446866 12.542924,27.983449 27.997601,27.983449 6.607016,0 12.439114,-2.627367 17.229285,-6.457715 1.680387,-1.488192 3.420557,-3.087631 4.379112,-4.448653 3.77237,-4.768202 6.3892,-10.530804 6.3892,-17.077081 0,-15.446861 -12.542927,-27.983444 -27.997597,-27.983444 z m -0.143589,2.327113 c 14.505891,0 25.238576,9.088721 25.238576,25.225817 0,16.46408 -11.044803,25.225823 -25.238576,25.225823 -13.866927,0 -25.238574,-10.396609 -25.238574,-25.225823 0,-15.152651 11.059889,-25.225817 25.238574,-25.225817 z"
     id="path2844"
     sodipodi:nodetypes="cssccscczzzz" />
  <path
     inkscape:connector-curvature="0"
     id="path4430"
     d="m 75.724411,46.092861 c -15.487915,0 -28.057819,12.569899 -28.057819,28.057809 0,15.487915 12.569904,28.05782 28.057819,28.05782 6.62123,0 12.465868,-2.634356 17.266346,-6.47488 0.898354,-1.099348 5.936271,-4.675974 4.388532,-4.460475 3.780481,-4.780877 6.402941,-10.558792 6.402941,-17.122465 0,-15.48791 -12.569906,-28.057809 -28.057819,-28.057809 z m -0.143897,6.043219 c 11.913782,0 21.582938,9.669156 21.582938,21.582932 0,11.913782 -9.669156,21.582935 -21.582938,21.582935 -11.913781,0 -21.582934,-9.669153 -21.582934,-21.582935 0,-11.913776 9.669153,-21.582932 21.582934,-21.582932 z"
     style="fill:#dcdcdc;fill-opacity:1;fill-rule:evenodd;stroke:none;stroke-width:1.00000036;marker:none;visibility:visible;display:inline;overflow:visible"
     sodipodi:nodetypes="cssccsccsssc" />
  <path
     transform="matrix(2.3994308,0,0,2.3501274,33.774292,29.509566)"
     d="m 28.549437,18.920233 a 11.048544,11.280332 0 1 1 -22.0970883,0 11.048544,11.280332 0 1 1 22.0970883,0 z"
     sodipodi:ry="11.280332"
     sodipodi:rx="11.048544"
     sodipodi:cy="18.920233"
     sodipodi:cx="17.500893"
     id="path4450"
     style="fill:none;stroke:url(#linearGradient2005);stroke-width:0.43909013;stroke-linecap:round;stroke-linejoin:miter;stroke-miterlimit:10;stroke-opacity:1;stroke-dasharray:none;stroke-dashoffset:0;marker:none;visibility:visible;display:inline;overflow:visible"
     sodipodi:type="arc" />
  <path
     transform="matrix(2.5246698,0,0,2.5246698,31.359333,27.322947)"
     d="m 25.897786,18.478292 a 8.3085051,8.3085051 0 1 1 -16.61701,0 8.3085051,8.3085051 0 1 1 16.61701,0 z"
     sodipodi:ry="8.3085051"
     sodipodi:rx="8.3085051"
     sodipodi:cy="18.478292"
     sodipodi:cx="17.589281"
     id="path4452"
     style="fill:url(#radialGradient2003);fill-opacity:1;fill-rule:evenodd;stroke:#3063a3;stroke-width:0.39609194;stroke-linecap:round;stroke-linejoin:miter;stroke-miterlimit:10;stroke-opacity:1;stroke-dashoffset:0;marker:none;visibility:visible;display:inline"
     sodipodi:type="arc" />
  <path
     inkscape:connector-curvature="0"
     id="path4462"
     d="M 77.487686,56.377031 C 61.196792,55.587199 56.954814,67.990774 58.139562,76.514984 c 0.386005,2.777297 0.783615,5.38393 1.952333,7.737029 2.33492,0.860625 4.815259,1.446173 7.447795,1.446173 11.505046,0 22.470478,-11.630927 23.180479,-22.957994 -3.227185,-3.813661 -7.84914,-6.363161 -13.232483,-6.363161 z"
     style="opacity:0.83422457;fill:url(#radialGradient3193);fill-opacity:1;fill-rule:evenodd;stroke:none;stroke-width:1;marker:none;visibility:visible;display:inline;overflow:visible"
     sodipodi:nodetypes="cscscc" />
</svg>
