<?xml version="1.0" encoding="UTF-8" standalone="no"?>
<!-- Created with Inkscape (http://www.inkscape.org/) -->

<svg
   xmlns:dc="http://purl.org/dc/elements/1.1/"
   xmlns:cc="http://creativecommons.org/ns#"
   xmlns:rdf="http://www.w3.org/1999/02/22-rdf-syntax-ns#"
   xmlns:svg="http://www.w3.org/2000/svg"
   xmlns="http://www.w3.org/2000/svg"
   xmlns:xlink="http://www.w3.org/1999/xlink"
   xmlns:sodipodi="http://sodipodi.sourceforge.net/DTD/sodipodi-0.dtd"
   xmlns:inkscape="http://www.inkscape.org/namespaces/inkscape"
   width="22"
   height="22"
   id="svg3173"
   version="1.1"
   inkscape:version="0.48.4 r9939"
   sodipodi:docname="audacious-panel.svg">
  <defs
     id="defs3175">
    <linearGradient
       inkscape:collect="always"
       id="linearGradient5014">
      <stop
         style="stop-color:#000000;stop-opacity:1"
         offset="0"
         id="stop5016" />
      <stop
         style="stop-color:#363636;stop-opacity:1"
         offset="1"
         id="stop5018" />
    </linearGradient>
    <linearGradient
       inkscape:collect="always"
       xlink:href="#linearGradient5014"
       id="linearGradient3203"
       gradientUnits="userSpaceOnUse"
       x1="11.152778"
       y1="1.9097221"
       x2="11"
       y2="19.9375"
       gradientTransform="translate(5.000004e-8,1029.8622)" />
  </defs>
  <sodipodi:namedview
     id="base"
     pagecolor="#ffffff"
     bordercolor="#666666"
     borderopacity="1.0"
     inkscape:pageopacity="0.0"
     inkscape:pageshadow="2"
     inkscape:zoom="31.038267"
     inkscape:cx="6.8370048"
     inkscape:cy="11.055129"
     inkscape:document-units="px"
     inkscape:current-layer="layer1"
     showgrid="false"
     inkscape:window-width="1680"
     inkscape:window-height="1026"
     inkscape:window-x="0"
     inkscape:window-y="24"
     inkscape:window-maximized="1" />
  <metadata
     id="metadata3178">
    <rdf:RDF>
      <cc:Work
         rdf:about="">
        <dc:format>image/svg+xml</dc:format>
        <dc:type
           rdf:resource="http://purl.org/dc/dcmitype/StillImage" />
        <dc:title />
      </cc:Work>
    </rdf:RDF>
  </metadata>
  <g
     inkscape:label="Layer 1"
     inkscape:groupmode="layer"
     id="layer1"
     transform="translate(0,-1030.3622)">
    <g
       id="g3206">
      <path
         inkscape:connector-curvature="0"
         id="path4854"
         d="m 11,1032.8622 c -4.970563,0 -9,4.0294 -9,9 0,4.9706 4.029437,9 9,9 4.970563,0 9,-4.0294 9,-9 0,-4.9706 -4.029437,-9 -9,-9 z m -0.1875,3.5312 c 1.148039,-0.042 2.235623,0.1123 2.9375,0.4688 0.750359,0.3811 1.358432,1.2163 1.59375,2.2187 0.10522,0.4483 0.116449,0.9758 0.09375,3.4063 l -0.03125,2.8438 0.40625,0.125 c 0.450514,0.1469 0.412522,0.1466 0.53125,0.375 0.106362,0.2046 0.133556,0.965 0.03125,1.1562 -0.04113,0.077 -0.206318,0.1707 -0.34375,0.2188 -0.312455,0.1093 -1.467495,0.161 -2.09375,0.094 -0.538985,-0.058 -0.839505,-0.2758 -1.0625,-0.7812 -0.127331,-0.2887 -0.25,-0.3805 -0.25,-0.1875 0,0.155 -0.316904,0.4159 -0.71875,0.5937 -1.149875,0.5086 -3.64653,0.5059 -4.8125,0 -0.548296,-0.2378 -1.176113,-0.9731 -1.375,-1.625 -0.245688,-0.8053 -0.200929,-2.0512 0.09375,-2.7187 0.267335,-0.6056 0.769261,-1.3125 1.09375,-1.5313 0.760363,-0.5127 1.416542,-0.6486 3.75,-0.6875 1.395724,-0.023 1.925049,-0.056 1.96875,-0.125 0.116568,-0.1835 0.06742,-0.6389 -0.09375,-0.8437 -0.302849,-0.3851 -0.541329,-0.4326 -1.75,-0.4688 -1.291862,-0.039 -1.424143,-0.017 -2.2187499,0.5 -0.6901491,0.4492 -1.1120891,0.625 -1.5312501,0.625 -0.527415,0 -0.839529,-0.2684 -1.03125,-0.9063 -0.116632,-0.388 -0.09921,-0.4159 0.0625,-0.75 0.19775,-0.4084 0.907586,-1.0569 1.46875,-1.3125 0.9138441,-0.4161 2.133211,-0.6451 3.28125,-0.6875 z m -0.15625,6.1251 c -0.201646,-9e-4 -0.369318,0.01 -0.5,0.031 -0.6618359,0.1223 -1.4759089,0.5633 -1.5937499,0.875 -0.0914,0.2418 0.04624,0.3807 0.46875,0.5625 0.7308529,0.3144 1.7366249,0.4137 2.5937499,0.2188 0.730031,-0.1661 1,-0.4164 1,-0.9375 0,-0.3576 -0.03854,-0.3849 -0.28125,-0.5 -0.288604,-0.137 -1.082562,-0.2476 -1.6875,-0.25 z"
         style="opacity:0.6;fill:#ffffff;fill-opacity:1;stroke:#ff0000;stroke-width:0;stroke-linecap:butt;stroke-linejoin:miter;stroke-miterlimit:4;stroke-opacity:1;stroke-dasharray:none;stroke-dashoffset:0" />
      <path
         inkscape:connector-curvature="0"
         id="path4854-6"
         d="m 11,1031.8622 c -4.9705629,0 -8.9999999,4.0294 -8.9999999,9 0,4.9706 4.029437,9 8.9999999,9 4.970563,0 9,-4.0294 9,-9 0,-4.9706 -4.029437,-9 -9,-9 z m -0.1875,3.5312 c 1.148039,-0.042 2.235623,0.1123 2.9375,0.4688 0.750359,0.3811 1.358432,1.2163 1.59375,2.2187 0.10522,0.4483 0.116449,0.9758 0.09375,3.4063 l -0.03125,2.8438 0.40625,0.125 c 0.450514,0.1469 0.412522,0.1466 0.53125,0.375 0.106362,0.2046 0.133556,0.965 0.03125,1.1562 -0.04113,0.077 -0.206318,0.1707 -0.34375,0.2188 -0.312455,0.1093 -1.467495,0.161 -2.09375,0.094 -0.538985,-0.058 -0.839505,-0.2758 -1.0625,-0.7812 -0.127331,-0.2887 -0.25,-0.3805 -0.25,-0.1875 0,0.155 -0.316904,0.4159 -0.71875,0.5937 -1.149875,0.5086 -3.6465299,0.5059 -4.8124999,0 -0.548296,-0.2378 -1.176113,-0.9731 -1.375,-1.625 -0.245688,-0.8053 -0.200929,-2.0512 0.09375,-2.7187 0.267335,-0.6056 0.769261,-1.3125 1.09375,-1.5313 0.760363,-0.5127 1.416542,-0.6486 3.7499999,-0.6875 1.395724,-0.023 1.925049,-0.056 1.96875,-0.125 0.116568,-0.1835 0.06742,-0.6389 -0.09375,-0.8438 -0.302849,-0.385 -0.541329,-0.4325 -1.75,-0.4687 -1.2918619,-0.039 -1.4241429,-0.017 -2.2187499,0.5 -0.690149,0.4492 -1.112089,0.625 -1.53125,0.625 -0.527415,0 -0.839529,-0.2684 -1.03125,-0.9063 -0.116632,-0.388 -0.09921,-0.4159 0.0625,-0.75 0.19775,-0.4084 0.907586,-1.0569 1.46875,-1.3125 0.913844,-0.4161 2.133211,-0.6451 3.2812499,-0.6875 z m -0.15625,6.1251 c -0.201646,-9e-4 -0.369318,0.01 -0.5,0.031 -0.6618359,0.1223 -1.4759089,0.5633 -1.5937499,0.875 -0.0914,0.2418 0.04624,0.3807 0.46875,0.5625 0.730853,0.3144 1.7366249,0.4137 2.5937499,0.2188 0.730031,-0.1661 1,-0.4164 1,-0.9375 0,-0.3576 -0.03854,-0.3849 -0.28125,-0.5 -0.288604,-0.137 -1.082562,-0.2476 -1.6875,-0.25 z"
         style="opacity:0.7;fill:url(#linearGradient3203);fill-opacity:1;stroke:#ff0000;stroke-width:0;stroke-linecap:butt;stroke-linejoin:miter;stroke-miterlimit:4;stroke-opacity:1;stroke-dasharray:none;stroke-dashoffset:0" />
    </g>
  </g>
</svg>
