<?xml version="1.0" encoding="UTF-8" standalone="no"?>
<!-- Created with Inkscape (http://www.inkscape.org/) -->

<svg
   xmlns:dc="http://purl.org/dc/elements/1.1/"
   xmlns:cc="http://creativecommons.org/ns#"
   xmlns:rdf="http://www.w3.org/1999/02/22-rdf-syntax-ns#"
   xmlns:svg="http://www.w3.org/2000/svg"
   xmlns="http://www.w3.org/2000/svg"
   xmlns:xlink="http://www.w3.org/1999/xlink"
   xmlns:sodipodi="http://sodipodi.sourceforge.net/DTD/sodipodi-0.dtd"
   xmlns:inkscape="http://www.inkscape.org/namespaces/inkscape"
   version="1.0"
   width="22"
   height="22"
   id="svg4073"
   inkscape:version="0.48.4 r9939"
   sodipodi:docname="nm-device-wwan.svg">
  <metadata
     id="metadata18">
    <rdf:RDF>
      <cc:Work
         rdf:about="">
        <dc:format>image/svg+xml</dc:format>
        <dc:type
           rdf:resource="http://purl.org/dc/dcmitype/StillImage" />
        <dc:title />
      </cc:Work>
    </rdf:RDF>
  </metadata>
  <sodipodi:namedview
     pagecolor="#ffffff"
     bordercolor="#666666"
     borderopacity="1"
     objecttolerance="10"
     gridtolerance="10"
     guidetolerance="10"
     inkscape:pageopacity="0"
     inkscape:pageshadow="2"
     inkscape:window-width="1280"
     inkscape:window-height="971"
     id="namedview16"
     showgrid="true"
     inkscape:zoom="14.688536"
     inkscape:cx="11.287536"
     inkscape:cy="4.9664341"
     inkscape:window-x="0"
     inkscape:window-y="24"
     inkscape:window-maximized="1"
     inkscape:current-layer="svg4073"
     inkscape:snap-bbox="true"
     inkscape:bbox-nodes="true">
    <inkscape:grid
       type="xygrid"
       id="grid2989" />
  </sodipodi:namedview>
  <defs
     id="defs4075">
    <linearGradient
       id="linearGradient3004-8-3">
      <stop
         id="stop3006-3-0"
         offset="0"
         style="stop-color:#000000;stop-opacity:1;" />
      <stop
         id="stop3008-7-3"
         offset="1"
         style="stop-color:#363636;stop-opacity:1;" />
    </linearGradient>
    <linearGradient
       inkscape:collect="always"
       xlink:href="#linearGradient3004-8-3"
       id="linearGradient3021"
       gradientUnits="userSpaceOnUse"
       gradientTransform="matrix(1,0,0,0.8125,-8.000309,-3.25)"
       x1="20.000309"
       y1="6.4615383"
       x2="20.000309"
       y2="26.153847" />
    <linearGradient
       inkscape:collect="always"
       xlink:href="#linearGradient3004-8-3"
       id="linearGradient3018"
       gradientUnits="userSpaceOnUse"
       gradientTransform="matrix(-1,0,0,0.8125,30.000309,-2.25)"
       x1="20.000309"
       y1="6.4615383"
       x2="20.000309"
       y2="26.153847" />
    <linearGradient
       inkscape:collect="always"
       xlink:href="#linearGradient3004-8-3-2"
       id="linearGradient3018-3"
       gradientUnits="userSpaceOnUse"
       gradientTransform="matrix(-1,0,0,0.8125,30.000309,-2.25)"
       x1="20.000309"
       y1="6.4615383"
       x2="20.000309"
       y2="26.153847" />
    <linearGradient
       id="linearGradient3004-8-3-2">
      <stop
         id="stop3006-3-0-1"
         offset="0"
         style="stop-color:#000000;stop-opacity:1;" />
      <stop
         id="stop3008-7-3-5"
         offset="1"
         style="stop-color:#363636;stop-opacity:1;" />
    </linearGradient>
    <linearGradient
       inkscape:collect="always"
       xlink:href="#linearGradient3004-8-3-2"
       id="linearGradient3057"
       gradientUnits="userSpaceOnUse"
       gradientTransform="matrix(-0.5,0,0,1.3541667,20.500154,-8.75)"
       x1="20.000309"
       y1="6.4615383"
       x2="20.000309"
       y2="26.153847" />
    <linearGradient
       inkscape:collect="always"
       xlink:href="#linearGradient3004-8-3-2-0"
       id="linearGradient3057-8"
       gradientUnits="userSpaceOnUse"
       gradientTransform="matrix(-0.33333333,0,0,1.3541667,17.000103,-8.75)"
       x1="20.000309"
       y1="6.4615383"
       x2="20.000309"
       y2="26.153847" />
    <linearGradient
       id="linearGradient3004-8-3-2-0">
      <stop
         id="stop3006-3-0-1-9"
         offset="0"
         style="stop-color:#000000;stop-opacity:1;" />
      <stop
         id="stop3008-7-3-5-5"
         offset="1"
         style="stop-color:#363636;stop-opacity:1;" />
    </linearGradient>
    <linearGradient
       inkscape:collect="always"
       xlink:href="#linearGradient3004-8-3-2-0"
       id="linearGradient3046"
       gradientUnits="userSpaceOnUse"
       gradientTransform="matrix(-0.66666666,0,0,1.0833334,23.000206,-2.8)"
       x1="20.000309"
       y1="6.4615383"
       x2="20.000309"
       y2="26.153847" />
    <linearGradient
       inkscape:collect="always"
       xlink:href="#linearGradient3004-8-3-2-0"
       id="linearGradient3050"
       gradientUnits="userSpaceOnUse"
       gradientTransform="matrix(-0.99999999,0,0,0.40625002,29.000309,12.075)"
       x1="20.000309"
       y1="6.4615383"
       x2="20.000309"
       y2="26.153847" />
    <linearGradient
       inkscape:collect="always"
       xlink:href="#linearGradient3004-8-3-2-0"
       id="linearGradient3058"
       gradientUnits="userSpaceOnUse"
       gradientTransform="matrix(-0.5,0,0,2.03125,16.000154,-16.625)"
       x1="20.000309"
       y1="6.4615383"
       x2="20.000309"
       y2="26.153847" />
    <linearGradient
       inkscape:collect="always"
       xlink:href="#linearGradient3004-8-3-2-0"
       id="linearGradient3062"
       gradientUnits="userSpaceOnUse"
       gradientTransform="matrix(-0.33333333,0,0,1.3541667,17.000103,-8.75)"
       x1="20.000309"
       y1="6.4615383"
       x2="20.000309"
       y2="26.153847" />
    <linearGradient
       inkscape:collect="always"
       xlink:href="#linearGradient3004-8-3-2-0"
       id="linearGradient3065"
       gradientUnits="userSpaceOnUse"
       gradientTransform="matrix(-0.42857141,0,0,2.03125,16.285845,-16.625)"
       x1="20.000309"
       y1="6.4615383"
       x2="20.000309"
       y2="26.153847" />
    <linearGradient
       inkscape:collect="always"
       xlink:href="#linearGradient3004-8-3-2-0"
       id="linearGradient3069"
       gradientUnits="userSpaceOnUse"
       gradientTransform="matrix(-0.57142855,0,0,2.7083333,16.71446,-24.5)"
       x1="20.000309"
       y1="6.4615383"
       x2="20.000309"
       y2="26.153847" />
    <linearGradient
       inkscape:collect="always"
       xlink:href="#linearGradient3004-8-3-2-0"
       id="linearGradient3073"
       gradientUnits="userSpaceOnUse"
       gradientTransform="matrix(-0.57142855,0,0,3.3854166,13.71446,-32.375)"
       x1="20.000309"
       y1="6.4615383"
       x2="20.000309"
       y2="26.153847" />
    <linearGradient
       inkscape:collect="always"
       xlink:href="#linearGradient3004-8-3-2-0"
       id="linearGradient3075"
       gradientUnits="userSpaceOnUse"
       gradientTransform="matrix(-0.33333333,0,0,1.3541667,17.000103,-8.75)"
       x1="20.000309"
       y1="6.4615383"
       x2="20.000309"
       y2="26.153847" />
    <linearGradient
       inkscape:collect="always"
       xlink:href="#linearGradient3004-8-3"
       id="linearGradient3079"
       gradientUnits="userSpaceOnUse"
       gradientTransform="matrix(-1,0,0,0.8125,30.000309,-3.25)"
       x1="20.000309"
       y1="6.4615383"
       x2="20.000309"
       y2="26.153847" />
    <linearGradient
       inkscape:collect="always"
       xlink:href="#linearGradient3004-8-3-2-0"
       id="linearGradient3085"
       gradientUnits="userSpaceOnUse"
       gradientTransform="matrix(-1.6666667,0,0,0.24621213,41.000514,13.772727)"
       x1="20.000309"
       y1="6.4615383"
       x2="20.000309"
       y2="26.153847" />
    <linearGradient
       inkscape:collect="always"
       xlink:href="#linearGradient3004-8-3-2-0"
       id="linearGradient3089"
       gradientUnits="userSpaceOnUse"
       gradientTransform="matrix(-1.3333334,0,0,0.12310607,35.000411,14.386364)"
       x1="20.000309"
       y1="6.4615383"
       x2="20.000309"
       y2="26.153847" />
    <linearGradient
       inkscape:collect="always"
       xlink:href="#linearGradient3004-8-3-2-0"
       id="linearGradient3093"
       gradientUnits="userSpaceOnUse"
       gradientTransform="matrix(-1.3333334,0,0,0.12310607,35.000411,17.386364)"
       x1="20.000309"
       y1="6.4615383"
       x2="20.000309"
       y2="26.153847" />
    <linearGradient
       inkscape:collect="always"
       xlink:href="#linearGradient3004-8-3-2-0"
       id="linearGradient3095"
       gradientUnits="userSpaceOnUse"
       gradientTransform="matrix(-0.33333333,0,0,1.1079546,17.000103,-5.5227273)"
       x1="20.000309"
       y1="6.4615383"
       x2="20.000309"
       y2="26.153847" />
    <linearGradient
       inkscape:collect="always"
       xlink:href="#linearGradient3004-8-3"
       id="linearGradient3098"
       gradientUnits="userSpaceOnUse"
       gradientTransform="matrix(1,0,0,0.8125,-8.000309,-3.25)"
       x1="20.000309"
       y1="6.4615383"
       x2="20.000309"
       y2="28.615385" />
  </defs>
  <path
     id="path3100"
     d="m 1,3 0,1 -1,0 0,7 1,0 0,1 1,0 L 2,11 2,4 2,3 1,3 z m 19,0 0,1 0,7 0,1 1,0 0,-1 1,0 0,-7 -1,0 0,-1 -1,0 z M 4,4 4,5 3,5 3,10 4,10 4,11 5,11 5,10 5,5 5,4 4,4 z m 13,0 0,1 0,5 0,1 1,0 0,-1 1,0 0,-5 -1,0 0,-1 -1,0 z M 7,5 7,6 6,6 6,9 7,9 7,10 8,10 8,9 8,6 8,5 7,5 z m 7,0 0,1 0,3 0,1 1,0 0,-1 1,0 0,-3 -1,0 0,-1 -1,0 z M 11,6 C 9.8954305,6 9,6.8954305 9,8 9,9.0192902 9.764285,9.8449348 10.75,9.96875 L 8,21 14,21 11.25,9.96875 C 12.235715,9.8449348 13,9.0192902 13,8 13,6.8954305 12.104569,6 11,6 z"
     style="opacity:0.59999999999999998;color:#000000;fill:#ffffff;fill-opacity:1;fill-rule:nonzero;stroke:none;stroke-width:1;marker:none;visibility:visible;display:inline;overflow:visible;enable-background:accumulate"
     inkscape:connector-curvature="0" />
  <path
     style="opacity:0.69999999999999996;color:#000000;fill:url(#linearGradient3098);fill-opacity:1;fill-rule:nonzero;stroke:none;stroke-width:1;marker:none;visibility:visible;display:inline;overflow:visible;enable-background:accumulate"
     d="M 1 2 L 1 3 L 0 3 L 0 10 L 1 10 L 1 11 L 2 11 L 2 10 L 2 3 L 2 2 L 1 2 z M 20 2 L 20 3 L 20 10 L 20 11 L 21 11 L 21 10 L 22 10 L 22 3 L 21 3 L 21 2 L 20 2 z M 4 3 L 4 4 L 3 4 L 3 9 L 4 9 L 4 10 L 5 10 L 5 9 L 5 4 L 5 3 L 4 3 z M 17 3 L 17 4 L 17 9 L 17 10 L 18 10 L 18 9 L 19 9 L 19 4 L 18 4 L 18 3 L 17 3 z M 7 4 L 7 5 L 6 5 L 6 8 L 7 8 L 7 9 L 8 9 L 8 8 L 8 5 L 8 4 L 7 4 z M 14 4 L 14 5 L 14 8 L 14 9 L 15 9 L 15 8 L 16 8 L 16 5 L 15 5 L 15 4 L 14 4 z M 11 5 C 9.8954305 5 9 5.8954305 9 7 C 9 8.0192902 9.764285 8.8449348 10.75 8.96875 L 8 20 L 14 20 L 11.25 8.96875 C 12.235715 8.8449348 13 8.0192902 13 7 C 13 5.8954305 12.104569 5 11 5 z "
     id="path2996" />
</svg>
