<?xml version="1.0" encoding="UTF-8" standalone="no"?>
<!-- Created with Inkscape (http://www.inkscape.org/) -->

<svg
   xmlns:dc="http://purl.org/dc/elements/1.1/"
   xmlns:cc="http://creativecommons.org/ns#"
   xmlns:rdf="http://www.w3.org/1999/02/22-rdf-syntax-ns#"
   xmlns:svg="http://www.w3.org/2000/svg"
   xmlns="http://www.w3.org/2000/svg"
   xmlns:xlink="http://www.w3.org/1999/xlink"
   xmlns:sodipodi="http://sodipodi.sourceforge.net/DTD/sodipodi-0.dtd"
   xmlns:inkscape="http://www.inkscape.org/namespaces/inkscape"
   width="22"
   height="22"
   id="svg2902"
   version="1.1"
   inkscape:version="0.48.4 r9939"
   sodipodi:docname="sylpheed-panel-unread.svg">
  <defs
     id="defs2904">
    <linearGradient
       x1="51.639214"
       y1="32.96188"
       x2="51.639214"
       y2="11.103767"
       id="linearGradient2388-9"
       xlink:href="#linearGradient2867-449-88-871-390-598-476-591-434-148-6"
       gradientUnits="userSpaceOnUse"
       gradientTransform="matrix(0.4342346,0,0,0.5947449,-11.423534,-8.6039091)" />
    <linearGradient
       id="linearGradient2867-449-88-871-390-598-476-591-434-148-6">
      <stop
         offset="0"
         style="stop-color:#49a3d2;stop-opacity:1"
         id="stop4629-2" />
      <stop
         offset="0.704952"
         style="stop-color:#3470b4;stop-opacity:1"
         id="stop4631-0" />
      <stop
         offset="1"
         style="stop-color:#1b5699;stop-opacity:1"
         id="stop4633-7" />
    </linearGradient>
  </defs>
  <sodipodi:namedview
     id="base"
     pagecolor="#ffffff"
     bordercolor="#666666"
     borderopacity="1.0"
     inkscape:pageopacity="0.0"
     inkscape:pageshadow="2"
     inkscape:zoom="22.197802"
     inkscape:cx="22.280693"
     inkscape:cy="14.599753"
     inkscape:current-layer="layer1"
     showgrid="true"
     inkscape:grid-bbox="true"
     inkscape:document-units="px"
     inkscape:window-width="1280"
     inkscape:window-height="976"
     inkscape:window-x="0"
     inkscape:window-y="24"
     inkscape:window-maximized="1">
    <inkscape:grid
       type="xygrid"
       id="grid2989" />
  </sodipodi:namedview>
  <metadata
     id="metadata2907">
    <rdf:RDF>
      <cc:Work
         rdf:about="">
        <dc:format>image/svg+xml</dc:format>
        <dc:type
           rdf:resource="http://purl.org/dc/dcmitype/StillImage" />
        <dc:title />
      </cc:Work>
    </rdf:RDF>
  </metadata>
  <g
     id="layer1"
     inkscape:label="Layer 1"
     inkscape:groupmode="layer"
     transform="translate(0,6)">
    <path
       sodipodi:nodetypes="cccccccccccccccccccccccc"
       inkscape:connector-curvature="0"
       style="opacity:0.6;color:black;fill:white;fill-opacity:1;fill-rule:nonzero;stroke:none;stroke-width:1;marker:none;visibility:visible;display:inline;overflow:visible;enable-background:accumulate"
       id="path3000"
       d="M 3.9999999,-1 2,0.9999999 2,10 l 1.9999999,2 13.9999991,0 2,-2 0,-9.0000001 -2,-1.9999999 z m 0,1.9999999 6.9999991,6.9999998 7,-6.9999998 0,1.9999998 -3,3 3,3 0,2.0000003 -4,-4.0000003 L 10.999999,10 7.9999997,6.9999997 3.9999999,11 l 0,-2.0000003 2.9999998,-3 -2.9999998,-3 z" />
    <path
       d="M 4,-2.0000003 2,-2.5e-7 2,8.9999997 4,11 l 13.999999,0 2,-2.0000003 0,-8.99999995 -2,-2.00000005 z M 4,-2.5e-7 l 6.999999,6.99999995 7,-6.99999995 0,1.99999995 -3,3 3,3 0,2.0000003 -4,-4.0000003 -3,3 L 8,5.9999997 4,10 4,7.9999997 l 3,-3 -3,-3 z"
       id="rect3170-5"
       style="opacity:1;fill:url(#linearGradient2388-9);fill-opacity:1;fill-rule:nonzero;stroke:none;stroke-width:1;marker:none;visibility:visible;display:inline;overflow:visible;enable-background:accumulate;color:black"
       inkscape:connector-curvature="0"
       sodipodi:nodetypes="cccccccccccccccccccccccc" />
  </g>
</svg>
