<?xml version="1.0" encoding="UTF-8" standalone="no"?>
<!-- Created with Inkscape (http://www.inkscape.org/) -->

<svg
   xmlns:dc="http://purl.org/dc/elements/1.1/"
   xmlns:cc="http://creativecommons.org/ns#"
   xmlns:rdf="http://www.w3.org/1999/02/22-rdf-syntax-ns#"
   xmlns:svg="http://www.w3.org/2000/svg"
   xmlns="http://www.w3.org/2000/svg"
   xmlns:xlink="http://www.w3.org/1999/xlink"
   xmlns:sodipodi="http://sodipodi.sourceforge.net/DTD/sodipodi-0.dtd"
   xmlns:inkscape="http://www.inkscape.org/namespaces/inkscape"
   version="1.0"
   width="128"
   height="128"
   id="svg3437"
   inkscape:version="0.48+devel r11422"
   sodipodi:docname="folder128.svg"
   inkscape:export-filename="/home/rafa/.icons/lubuntu box/_press/box guide/folder128.png"
   inkscape:export-xdpi="90"
   inkscape:export-ydpi="90">
  <metadata
     id="metadata101">
    <rdf:RDF>
      <cc:Work
         rdf:about="">
        <dc:format>image/svg+xml</dc:format>
        <dc:type
           rdf:resource="http://purl.org/dc/dcmitype/StillImage" />
        <dc:title />
      </cc:Work>
    </rdf:RDF>
  </metadata>
  <sodipodi:namedview
     pagecolor="#ffffff"
     bordercolor="#666666"
     borderopacity="1"
     objecttolerance="10"
     gridtolerance="10"
     guidetolerance="10"
     inkscape:pageopacity="0"
     inkscape:pageshadow="2"
     inkscape:window-width="1280"
     inkscape:window-height="975"
     id="namedview99"
     showgrid="false"
     inkscape:zoom="1"
     inkscape:cx="195.56479"
     inkscape:cy="159.93353"
     inkscape:window-x="0"
     inkscape:window-y="26"
     inkscape:window-maximized="1"
     inkscape:current-layer="svg3437"
     inkscape:snap-to-guides="false"
     inkscape:snap-grids="false"
     width="0px"
     height="0px"
     fit-margin-top="0"
     fit-margin-left="0"
     fit-margin-right="0"
     fit-margin-bottom="0"
     showguides="true"
     inkscape:guide-bbox="true">
    <inkscape:grid
       type="xygrid"
       id="grid911"
       empspacing="5"
       visible="true"
       enabled="true"
       snapvisiblegridlinesonly="true" />
  </sodipodi:namedview>
  <defs
     id="defs3439">
    <linearGradient
       inkscape:collect="always"
       id="linearGradient889">
      <stop
         style="stop-color:#346283;stop-opacity:1;"
         offset="0"
         id="stop891" />
      <stop
         style="stop-color:#346283;stop-opacity:0;"
         offset="1"
         id="stop893" />
    </linearGradient>
    <linearGradient
       id="linearGradient875">
      <stop
         style="stop-color:#677bff;stop-opacity:1;"
         offset="0"
         id="stop877" />
      <stop
         style="stop-color:#ffffff;stop-opacity:0;"
         offset="1"
         id="stop879" />
    </linearGradient>
    <linearGradient
       id="linearGradient865">
      <stop
         id="stop867"
         offset="0"
         style="stop-color:#ffffff;stop-opacity:1;" />
      <stop
         id="stop869"
         offset="1"
         style="stop-color:#ffffff;stop-opacity:0;" />
    </linearGradient>
    <linearGradient
       id="linearGradient933">
      <stop
         offset="0"
         style="stop-color:#ffffff;stop-opacity:1"
         id="stop935" />
      <stop
         offset="0.70000005"
         style="stop-color:#cdcdcd;stop-opacity:1"
         id="stop937" />
      <stop
         offset="1"
         style="stop-color:#a1a1a1;stop-opacity:1"
         id="stop939" />
    </linearGradient>
    <linearGradient
       id="linearGradient921">
      <stop
         offset="0"
         style="stop-color:#ffffff;stop-opacity:1"
         id="stop923" />
      <stop
         offset="0.69999999"
         style="stop-color:#ffffff;stop-opacity:1"
         id="stop925" />
      <stop
         offset="1"
         style="stop-color:#ffffff;stop-opacity:0"
         id="stop927" />
    </linearGradient>
    <linearGradient
       id="linearGradient8265-821-176-38-919-66-249">
      <stop
         id="stop2687"
         style="stop-color:#ffffff;stop-opacity:1"
         offset="0" />
      <stop
         id="stop2689"
         style="stop-color:#ffffff;stop-opacity:0"
         offset="1" />
    </linearGradient>
    <linearGradient
       id="linearGradient3390">
      <stop
         id="stop3392"
         style="stop-color:#344960;stop-opacity:1;"
         offset="0" />
      <stop
         id="stop3394"
         style="stop-color:#5e778e;stop-opacity:1;"
         offset="1" />
    </linearGradient>
    <linearGradient
       id="linearGradient7012-661-145-733-759-865-745">
      <stop
         id="stop2699"
         style="stop-color:#9cbbd9;stop-opacity:1"
         offset="0" />
      <stop
         id="stop2701"
         style="stop-color:#5c82ab;stop-opacity:1"
         offset="1" />
    </linearGradient>
    <linearGradient
       id="linearGradient5157">
      <stop
         id="stop5159"
         style="stop-color:#b5b5b5;stop-opacity:1;"
         offset="0" />
      <stop
         id="stop5161"
         style="stop-color:#5d5d5d;stop-opacity:1;"
         offset="1" />
    </linearGradient>
    <linearGradient
       id="linearGradient5060">
      <stop
         id="stop5062"
         style="stop-color:#000000;stop-opacity:1"
         offset="0" />
      <stop
         id="stop5064"
         style="stop-color:#000000;stop-opacity:0"
         offset="1" />
    </linearGradient>
    <linearGradient
       id="linearGradient5048">
      <stop
         id="stop5050"
         style="stop-color:#000000;stop-opacity:0"
         offset="0" />
      <stop
         id="stop5056"
         style="stop-color:#000000;stop-opacity:1"
         offset="0.5" />
      <stop
         id="stop5052"
         style="stop-color:#000000;stop-opacity:0"
         offset="1" />
    </linearGradient>
    <linearGradient
       inkscape:collect="always"
       xlink:href="#linearGradient5048"
       id="linearGradient3127"
       gradientUnits="userSpaceOnUse"
       gradientTransform="matrix(0.06214224,0,0,0.02900085,1.6242719,44.085503)"
       x1="302.85715"
       y1="366.64789"
       x2="302.85715"
       y2="609.50507" />
    <radialGradient
       inkscape:collect="always"
       xlink:href="#linearGradient5060"
       id="radialGradient3129"
       gradientUnits="userSpaceOnUse"
       gradientTransform="matrix(0.06214224,0,0,0.02900085,1.6365015,44.085503)"
       cx="605.71429"
       cy="486.64789"
       fx="605.71429"
       fy="486.64789"
       r="117.14286" />
    <radialGradient
       inkscape:collect="always"
       xlink:href="#linearGradient5060"
       id="radialGradient3131"
       gradientUnits="userSpaceOnUse"
       gradientTransform="matrix(-0.06214224,0,0,0.02900085,46.53201,44.085503)"
       cx="605.71429"
       cy="486.64789"
       fx="605.71429"
       fy="486.64789"
       r="117.14286" />
    <linearGradient
       inkscape:collect="always"
       xlink:href="#linearGradient8265-821-176-38-919-66-249"
       id="linearGradient3146"
       gradientUnits="userSpaceOnUse"
       x1="18.03083"
       y1="16.407909"
       x2="20.054544"
       y2="24.627615"
       gradientTransform="matrix(2.2329037,0,0,2.1673688,18.047814,18.341668)" />
    <radialGradient
       inkscape:collect="always"
       xlink:href="#linearGradient921"
       id="radialGradient3149"
       gradientUnits="userSpaceOnUse"
       gradientTransform="matrix(-1.8996254e-7,7.0367231,-9.7596034,-0.00293199,75.17288,8.561562)"
       cx="4.02005"
       cy="5.5926585"
       fx="4.02005"
       fy="5.5926585"
       r="10.273108" />
    <radialGradient
       inkscape:collect="always"
       xlink:href="#linearGradient7012-661-145-733-759-865-745"
       id="radialGradient3152"
       gradientUnits="userSpaceOnUse"
       gradientTransform="matrix(8.7921776,0,0,5.6998942,-26.395604,1.83676)"
       cx="7.8185525"
       cy="8.5608768"
       fx="7.8185525"
       fy="8.5608768"
       r="11.268134" />
    <linearGradient
       inkscape:collect="always"
       xlink:href="#linearGradient3390"
       id="linearGradient3154"
       gradientUnits="userSpaceOnUse"
       gradientTransform="matrix(5.1743974,0,0,5.4320872,0.18824782,5.965936)"
       x1="9.7045717"
       y1="20.882006"
       x2="9.7045717"
       y2="4.3030405" />
    <linearGradient
       inkscape:collect="always"
       xlink:href="#linearGradient933"
       id="linearGradient3157"
       gradientUnits="userSpaceOnUse"
       gradientTransform="matrix(5.2305598,0,0,5.3832164,181.62429,-79.415058)"
       x1="-28.531403"
       y1="18.645372"
       x2="-28.531403"
       y2="35.589085" />
    <linearGradient
       inkscape:collect="always"
       xlink:href="#linearGradient5157"
       id="linearGradient3159"
       gradientUnits="userSpaceOnUse"
       gradientTransform="matrix(5.2305598,0,0,5.3832164,1.8080897,-1.351296)"
       x1="9.8763561"
       y1="2.6014566"
       x2="9.8763561"
       y2="22.113136" />
    <linearGradient
       inkscape:collect="always"
       xlink:href="#linearGradient865"
       id="linearGradient862"
       x1="89.272232"
       y1="116.95146"
       x2="89.272232"
       y2="109.70361"
       gradientUnits="userSpaceOnUse" />
    <linearGradient
       inkscape:collect="always"
       xlink:href="#linearGradient889"
       id="linearGradient895"
       x1="63.318913"
       y1="116.48915"
       x2="63.318913"
       y2="102.98915"
       gradientUnits="userSpaceOnUse" />
  </defs>
  <path
     d="M 17.315527,11.5 C 15.100035,11.5 13.5,12.569408 13.5,16 l 0,2.5 -5.5,0 c -2.7405448,0 -3.5,2.088048 -3.5,4.5 l 0,87.87989 C 4.5,114.897 7.4007074,118 11.842105,118 l 97.657895,0 0,-95 c 0,-3.181942 -1.79329,-4.5 -4.5,-4.5 l -47.5,0 0,-2.5 c 0,-2.215574 -0.669543,-4.5 -4.605527,-4.5 z"
     id="path3496"
     style="fill:url(#linearGradient3157);fill-opacity:1;stroke:url(#linearGradient3159);stroke-width:1;stroke-linecap:round;stroke-linejoin:round;stroke-miterlimit:4;stroke-opacity:1;stroke-dasharray:none;display:inline"
     inkscape:connector-curvature="0"
     sodipodi:nodetypes="cccscccccccccc" />
  <g
     id="g914"
     transform="matrix(2.8145022,0,0,2.8396736,-3.7851784,-48.382968)">
    <rect
       style="opacity:0.5;fill:url(#linearGradient3127);fill-opacity:1;fill-rule:nonzero;stroke:none;stroke-width:104.96237946;marker:none;visibility:visible;display:inline;overflow:visible"
       id="rect4173"
       y="54.718601"
       x="9.0813398"
       height="7.0430632"
       width="30.005821" />
    <path
       inkscape:connector-curvature="0"
       style="opacity:0.5;fill:url(#radialGradient3129);fill-opacity:1;fill-rule:nonzero;stroke:none;stroke-width:104.96237946;marker:none;visibility:visible;display:inline;overflow:visible"
       id="path5058"
       d="m 39.087163,54.718845 c 0,0 0,7.042675 0,7.042675 3.200171,0.01326 7.736457,-1.577906 7.736455,-3.52179 0,-1.943885 -3.57115,-3.520884 -7.736455,-3.520885 z" />
    <path
       inkscape:connector-curvature="0"
       style="opacity:0.5;fill:url(#radialGradient3131);fill-opacity:1;fill-rule:nonzero;stroke:none;stroke-width:104.96237946;marker:none;visibility:visible;display:inline;overflow:visible"
       id="path5018"
       d="m 9.0813406,54.718845 c 0,0 0,7.042675 0,7.042675 -3.2001721,0.01326 -7.7364568,-1.577906 -7.7364568,-3.52179 0,-1.943885 3.57115,-3.520884 7.7364568,-3.520885 z" />
  </g>
  <path
     style="opacity:0.30481286;color:#000000;color-interpolation:sRGB;color-interpolation-filters:linearRGB;fill:#5c5c5c;fill-opacity:0.52017942;fill-rule:evenodd;stroke:none;stroke-width:0.99999994;marker:none;visibility:visible;display:inline;overflow:visible;enable-background:accumulate;clip-rule:nonzero"
     d="m 5.5,20 0,2 103,0 0,-2 -103,0 z m 0,4.9375 0,2 103,0 0,-2 -103,0 z m 0,4.96875 0,2 103,0 0,-2 -103,0 z m 0,4.9375 0,2 103,0 0,-2 -103,0 z m 0,4.9375 0,2 103,0 0,-2 -103,0 z m 0,4.96875 0,2 103,0 0,-2 -103,0 z m 0,4.9375 0,2 103,0 0,-2 -103,0 z m 0,4.9375 0,2 103,0 0,-2 -103,0 z m 0,4.96875 0,2 103,0 0,-2 -103,0 z m 0,4.9375 0,2 103,0 0,-2 -103,0 z m 0,4.9375 0,2 103,0 0,-2 -103,0 z m 0,4.9375 0,2 103,0 0,-2 -103,0 z m 0,4.96875 0,2 103,0 0,-2 -103,0 z m 0,4.9375 0,2 103,0 0,-2 -103,0 z m 0,4.9375 0,2 103,0 0,-2 -103,0 z m 0,4.96875 0,2 103,0 0,-2 -103,0 z m 0,4.9375 0,2 103,0 0,-2 -103,0 z m 0,4.9375 0,2 103,0 0,-2 -103,0 z m 0,4.96875 0,2 103,0 0,-2 -103,0 z m 0,4.9375 0,2 103,0 0,-2 -103,0 z"
     id="rect897"
     inkscape:connector-curvature="0" />
  <path
     d="m 23,29.5 96.5,0 c 2.55513,0 4,1.429233 4,4 l 0,77.5 c 0,3.99114 -1.7162,7 -6.5,7 l -105,0 c 2.940743,0 7.487342,-2.36268 7.499954,-6.87988 L 19.500046,33.5 c 0,-2.863398 0.858844,-4 3.499954,-4 z"
     id="path3498"
     style="fill:url(#radialGradient3152);fill-opacity:1;stroke:url(#linearGradient3154);stroke-width:1;stroke-linecap:round;stroke-linejoin:round;stroke-miterlimit:4;stroke-opacity:1;stroke-dasharray:none;display:inline"
     inkscape:connector-curvature="0"
     sodipodi:nodetypes="ccccccccc" />
  <path
     d="M 122.50001,30.5 23.5,30.5 c -2.583519,0 -3,0.423435 -3,3 l 0,76.5"
     id="path3211"
     style="opacity:0.4;fill:none;stroke:url(#radialGradient3149);stroke-width:0.98119456;stroke-linecap:butt;stroke-linejoin:miter;stroke-miterlimit:4;stroke-opacity:1;stroke-dasharray:none;display:inline"
     inkscape:connector-curvature="0"
     sodipodi:nodetypes="cccc" />
  <path
     d="M 23.499827,30 C 20.814771,30 20,30.664532 20,34 l 0,34.928306 C 20,71.380032 21.397167,72.870862 24.026843,73 57.629065,69.73243 85.96049,62.974236 119.37136,57.557498 c 1.95017,-0.79379 3.72798,-2.33107 3.62822,-4.95613 L 123.00042,34 c 1.3e-4,-2.947766 -0.97574,-4 -4.0053,-4 z"
     id="path2608"
     style="opacity:0.30481283;fill:url(#linearGradient3146);fill-opacity:1;fill-rule:evenodd;stroke:none"
     inkscape:connector-curvature="0"
     sodipodi:nodetypes="ssccccsss" />
  <path
     sodipodi:nodetypes="ccccc"
     inkscape:connector-curvature="0"
     id="path871"
     d="m 20.771519,100.542 102.123821,0 c -0.37306,9.08845 -0.0493,16.89429 -4.86469,16.89429 l -101.211738,0 c 2.5,0 3.952607,-8.12458 3.952607,-16.89429 z"
     style="color:#000000;color-interpolation:sRGB;color-interpolation-filters:linearRGB;fill:url(#linearGradient895);fill-opacity:1;fill-rule:nonzero;stroke:none;stroke-width:0.99999994;marker:none;visibility:visible;display:inline;overflow:visible;enable-background:accumulate;clip-rule:nonzero" />
  <path
     style="color:#000000;color-interpolation:sRGB;color-interpolation-filters:linearRGB;fill:url(#linearGradient862);fill-opacity:1;fill-rule:nonzero;stroke:none;stroke-width:0.99999994;marker:none;visibility:visible;display:inline;overflow:visible;enable-background:accumulate;clip-rule:nonzero;opacity:0.5026738"
     d="m 20.970563,109.792 101.424777,0 c -0.36603,4.50965 -1.76691,6.08882 -4.77297,6.89429 l -99.303458,0 c 0,0 2.651651,-2.2947 2.651651,-6.89429 z"
     id="rect854"
     inkscape:connector-curvature="0"
     sodipodi:nodetypes="ccccc" />
</svg>
