/* XPM */
static char * menu_prelight_xpm[] = {
"20 24 17 1",
" 	c None",
".	c #939393",
"+	c #FFFFFF",
"@	c #DEDEDE",
"#	c #008AFF",
"$	c #EAEAEA",
"%	c #ECECEC",
"&	c #DFDFDF",
"*	c #E4E4E4",
"=	c #E1E1E1",
"-	c #D4D4D4",
";	c #E0E0E0",
">	c #E6E6E6",
",	c #BEBEBE",
"'	c #D8D8D8",
")	c #E2E2E2",
"!	c #EDEDED",
"....................",
"++++++++++++++++++++",
"@@@@@@@@@@@@@@@@@@@@",
"@@@@@@@@@@@@@@@@@@@@",
"@@@@@@@@@@@@@@@@@@@@",
"@@@@@@@@@@@@@@@@@@@@",
"@@@@@@@@@@@@@@@@@@@@",
"@@@@@@@@@@@@@@@@@@@@",
"@@@@@@@@@@@@@@@@@@@@",
"@@@@@@@@@@@@@@@@@@@@",
"@@@@@@@@@@@@@@@@@@@@",
"@@@@@@########@@@@@@",
"@@@@@@$######%@@@@@@",
"@@@@@@&*####$@@@@@@@",
"@@@@@@@=-##*;@@@@@@@",
"@@@@@@@@>,')@@@@@@@@",
"@@@@@@@@@!>@@@@@@@@@",
"@@@@@@@@@@@@@@@@@@@@",
"@@@@@@@@@@@@@@@@@@@@",
"@@@@@@@@@@@@@@@@@@@@",
"@@@@@@@@@@@@@@@@@@@@",
"@@@@@@@@@@@@@@@@@@@@",
"@@@@@@@@@@@@@@@@@@@@",
"@@@@@@@@@@@@@@@@@@@@"};
