/* XPM */
static char * stick_prelight_xpm[] = {
"20 24 6 1",
" 	c None",
".	c #8D8D8D",
"+	c #FFFFFF",
"@	c #DEDEDE",
"#	c #008AFF",
"$	c #ECECEC",
"....................",
"++++++++++++++++++++",
"@@@@@@@@@@@@@@@@@@@@",
"@@@@@@@@@@@@@@@@@@@@",
"@@@@@@@@@@@@@@@@@@@@",
"@@@@@@@@@@@@@@@@@@@@",
"@@@@@@@@@@@@@@@@@@@@",
"@@@@@@@@@@@@@@@@@@@@",
"@@@@@@@@@@@@@@@@@@@@",
"@@@@@@@@####@@@@@@@@",
"@@@@@@@######@@@@@@@",
"@@@@@@##$$$$##@@@@@@",
"@@@@@@##@@@@##@@@@@@",
"@@@@@@##@@@@##@@@@@@",
"@@@@@@##@@@@##@@@@@@",
"@@@@@@$######$@@@@@@",
"@@@@@@@$####$@@@@@@@",
"@@@@@@@@$$$$@@@@@@@@",
"@@@@@@@@@@@@@@@@@@@@",
"@@@@@@@@@@@@@@@@@@@@",
"@@@@@@@@@@@@@@@@@@@@",
"@@@@@@@@@@@@@@@@@@@@",
"@@@@@@@@@@@@@@@@@@@@",
"@@@@@@@@@@@@@@@@@@@@"};
