<?xml version="1.0" encoding="UTF-8" standalone="no"?>
<svg
     xmlns:dc="http://purl.org/dc/elements/1.1/"
     xmlns:cc="http://creativecommons.org/ns#"
     xmlns:rdf="http://www.w3.org/1999/02/22-rdf-syntax-ns#"
     xmlns:svg="http://www.w3.org/2000/svg"
     xmlns="http://www.w3.org/2000/svg"
     xmlns:xlink="http://www.w3.org/1999/xlink"
     xmlns:sodipodi="http://sodipodi.sourceforge.net/DTD/sodipodi-0.dtd"
     xmlns:inkscape="http://www.inkscape.org/namespaces/inkscape"
     viewBox="0 0 22 22"
     id="svg2"
     version="1.1"
     inkscape:version="0.48.3.1 r9886"
     width="100%"
     height="100%"
     sodipodi:docname="audio-x-generic.svg">
    <metadata
         id="metadata32">
        <rdf:RDF>
            <cc:Work
                 rdf:about="">
                <dc:format>image/svg+xml</dc:format>
                <dc:type
                     rdf:resource="http://purl.org/dc/dcmitype/StillImage" />
            </cc:Work>
        </rdf:RDF>
    </metadata>
    <sodipodi:namedview
         pagecolor="#ffffff"
         bordercolor="#666666"
         borderopacity="1"
         objecttolerance="10"
         gridtolerance="10"
         guidetolerance="10"
         inkscape:pageopacity="0"
         inkscape:pageshadow="2"
         inkscape:window-width="1280"
         inkscape:window-height="976"
         id="namedview30"
         showgrid="true"
         inkscape:zoom="13.906433"
         inkscape:cx="35.074406"
         inkscape:cy="8.6583409"
         inkscape:window-x="0"
         inkscape:window-y="24"
         inkscape:window-maximized="1"
         inkscape:current-layer="svg2">
        <inkscape:grid
             type="xygrid"
             id="grid2990"
             empspacing="5"
             visible="true"
             enabled="true"
             snapvisiblegridlinesonly="true" />
    </sodipodi:namedview>
    <defs
         id="defs4">
        <linearGradient
             id="linearGradient4141">
            <stop
                 style="stop-color:#408ac0;stop-opacity:1;"
                 offset="0"
                 id="stop4143" />
            <stop
                 style="stop-color:#1f3e55;stop-opacity:1;"
                 offset="1"
                 id="stop4145" />
        </linearGradient>
        <filter
             id="filter3174-4"
             color-interpolation-filters="sRGB">
            <feGaussianBlur
                 stdDeviation="1.71"
                 id="feGaussianBlur3176-2" />
        </filter>
        <linearGradient
             gradientTransform="scale(1.0058652,0.994169)"
             gradientUnits="userSpaceOnUse"
             id="ButtonShadow-91"
             y2="7.0165396"
             x2="45.447727"
             y1="92.539597"
             x1="45.447727">
            <stop
                 offset="0"
                 style="stop-color:#000000;stop-opacity:1"
                 id="stop3750-4" />
            <stop
                 offset="1"
                 style="stop-color:#000000;stop-opacity:0.58823532"
                 id="stop3752-2" />
        </linearGradient>
        <linearGradient
             x1="45.447727"
             y1="92.539597"
             x2="45.447727"
             y2="7.0165396"
             id="ButtonShadow-9"
             gradientUnits="userSpaceOnUse"
             gradientTransform="scale(1.0058652,0.994169)">
            <stop
                 id="stop3750-3"
                 style="stop-color:#000000;stop-opacity:1"
                 offset="0" />
            <stop
                 id="stop3752-0"
                 style="stop-color:#000000;stop-opacity:0.58823532"
                 offset="1" />
        </linearGradient>
        <filter
             color-interpolation-filters="sRGB"
             id="filter3174-2">
            <feGaussianBlur
                 id="feGaussianBlur3176-1"
                 stdDeviation="1.71" />
        </filter>
        <linearGradient
             x1="45.447727"
             y1="92.539597"
             x2="45.447727"
             y2="7.0165396"
             id="ButtonShadow"
             gradientUnits="userSpaceOnUse"
             gradientTransform="scale(1.0058652,0.994169)">
            <stop
                 id="stop3750"
                 style="stop-color:#000000;stop-opacity:1"
                 offset="0" />
            <stop
                 id="stop3752"
                 style="stop-color:#000000;stop-opacity:0.58823532"
                 offset="1" />
        </linearGradient>
        <filter
             color-interpolation-filters="sRGB"
             id="filter3174">
            <feGaussianBlur
                 id="feGaussianBlur3176"
                 stdDeviation="1.71" />
        </filter>
        <linearGradient
             inkscape:collect="always"
             xlink:href="#linearGradient998-2"
             id="linearGradient3106-0"
             gradientUnits="userSpaceOnUse"
             x1="6.4056101"
             x2="41.369011"
             gradientTransform="matrix(0,0.60747784,-0.60747784,0,-1.556084,-2.602852)" />
        <linearGradient
             x2="41.369011"
             x1="6.4056101"
             id="linearGradient998-2"
             gradientUnits="userSpaceOnUse">
            <stop
                 id="stop27-5"
                 stop-opacity=".545"
                 stop-color="#fff"
                 offset="0"
                 style="stop-color:white;stop-opacity:0.50196081;" />
            <stop
                 id="stop29-4"
                 stop-opacity="0"
                 stop-color="#fff"
                 offset="1" />
        </linearGradient>
        <linearGradient
             id="linearGradient3777-0">
            <stop
                 id="stop3779-0"
                 offset="0"
                 style="stop-color:#c2def6;stop-opacity:1;" />
            <stop
                 id="stop3781-2"
                 offset="1"
                 style="stop-color:#2f6994;stop-opacity:1;" />
        </linearGradient>
        <linearGradient
             gradientTransform="matrix(0,-1.102564,1,0,51.762716,41.724249)"
             gradientUnits="userSpaceOnUse"
             id="linearGradient3911-3-1-2"
             x2="0"
             y1="44"
             y2="3.8989999">
            <stop
                 offset="0"
                 stop-color="#202020"
                 id="stop24-1-9" />
            <stop
                 offset="1"
                 stop-color="#383838"
                 id="stop26-8-9" />
        </linearGradient>
        <linearGradient
             y2="3.8989999"
             x2="0"
             y1="44"
             gradientTransform="matrix(0.6348115,0,0,0.57575932,-21.765561,27.63619)"
             gradientUnits="userSpaceOnUse"
             id="linearGradient3080-6"
             xlink:href="#linearGradient3911-3-1-2"
             inkscape:collect="always" />
        <radialGradient
             cx="7.4956799"
             cy="8.44977"
             gradientTransform="matrix(2.33699,-2.142113e-8,-4.3056275e-8,2.725821,39.327917,-7.769967)"
             gradientUnits="userSpaceOnUse"
             id="radialGradient3909-3-1-6"
             r="19.99999">
            <stop
                 offset="0"
                 stop-color="#4d4d4d"
                 id="stop31-6-2" />
            <stop
                 offset=".262"
                 stop-color="#404040"
                 id="stop33-6-5" />
            <stop
                 offset=".705"
                 stop-color="#303030"
                 id="stop35-8-3" />
            <stop
                 offset="1"
                 stop-color="#232323"
                 id="stop37-50-0" />
        </radialGradient>
        <radialGradient
             r="19.99999"
             cy="8.44977"
             cx="7.4956799"
             gradientTransform="matrix(1.2333415e-8,1.3455438,-1.5694168,-2.4790052e-8,6.7311954,20.476738)"
             gradientUnits="userSpaceOnUse"
             id="radialGradient3078-4"
             xlink:href="#radialGradient3909-3-1-6"
             inkscape:collect="always" />
        <linearGradient
             id="linearGradient1000-0-6">
            <stop
                 offset="0"
                 stop-color="#fff"
                 id="stop7-6-9" />
            <stop
                 offset="1"
                 stop-color="#fff"
                 stop-opacity="0"
                 id="stop9-8-3" />
        </linearGradient>
        <linearGradient
             gradientTransform="matrix(0,0.56250001,-0.56250001,0,1.78125,-1.3437502)"
             x2="41.369011"
             x1="6.4056101"
             gradientUnits="userSpaceOnUse"
             id="linearGradient3075-4"
             xlink:href="#linearGradient1000-0-6"
             inkscape:collect="always" />
        <linearGradient
             y2="25.48744"
             x2="31.74275"
             y1="-5.7136502"
             x1="8.2114201"
             gradientTransform="matrix(0.51559279,0,0,0.52054793,-0.139305,-1.123287)"
             gradientUnits="userSpaceOnUse"
             id="linearGradient3186-0"
             xlink:href="#linearGradient4594-3-5"
             inkscape:collect="always" />
        <filter
             id="filter3174-9"
             color-interpolation-filters="sRGB">
            <feGaussianBlur
                 stdDeviation="1.71"
                 id="feGaussianBlur3176-5" />
        </filter>
        <linearGradient
             gradientTransform="scale(1.0058652,0.994169)"
             gradientUnits="userSpaceOnUse"
             id="ButtonShadow-6"
             y2="7.0165396"
             x2="45.447727"
             y1="92.539597"
             x1="45.447727">
            <stop
                 offset="0"
                 style="stop-color:#000000;stop-opacity:1"
                 id="stop3750-33" />
            <stop
                 offset="1"
                 style="stop-color:#000000;stop-opacity:0.58823532"
                 id="stop3752-8" />
        </linearGradient>
        <filter
             id="filter3174-2-7"
             color-interpolation-filters="sRGB">
            <feGaussianBlur
                 stdDeviation="1.71"
                 id="feGaussianBlur3176-1-7" />
        </filter>
        <linearGradient
             gradientTransform="scale(1.0058652,0.994169)"
             gradientUnits="userSpaceOnUse"
             id="ButtonShadow-9-2"
             y2="7.0165396"
             x2="45.447727"
             y1="92.539597"
             x1="45.447727">
            <stop
                 offset="0"
                 style="stop-color:#000000;stop-opacity:1"
                 id="stop3750-3-6" />
            <stop
                 offset="1"
                 style="stop-color:#000000;stop-opacity:0.58823532"
                 id="stop3752-0-8" />
        </linearGradient>
        <linearGradient
             y2="25.48744"
             y1="-5.7136502"
             x2="31.74275"
             x1="8.2114201"
             id="linearGradient4594-3-5"
             gradientUnits="userSpaceOnUse">
            <stop
                 id="stop37-5-1-8"
                 stop-color="#fff"
                 offset="0" />
            <stop
                 id="stop39-0-0"
                 stop-opacity="0"
                 stop-color="#fff"
                 offset="1" />
        </linearGradient>
        <linearGradient
             x1="45.447727"
             y1="92.539597"
             x2="45.447727"
             y2="7.0165396"
             id="ButtonShadow-91-9"
             gradientUnits="userSpaceOnUse"
             gradientTransform="scale(1.0058652,0.994169)">
            <stop
                 id="stop3750-4-6"
                 style="stop-color:#000000;stop-opacity:1"
                 offset="0" />
            <stop
                 id="stop3752-2-6"
                 style="stop-color:#000000;stop-opacity:0.58823532"
                 offset="1" />
        </linearGradient>
        <filter
             color-interpolation-filters="sRGB"
             id="filter3174-4-2">
            <feGaussianBlur
                 id="feGaussianBlur3176-2-8"
                 stdDeviation="1.71" />
        </filter>
        <linearGradient
             inkscape:collect="always"
             xlink:href="#linearGradient4594-3-5"
             id="linearGradient4121"
             gradientUnits="userSpaceOnUse"
             gradientTransform="matrix(0.51559279,0,0,0.52054793,-1.139305,-2.123287)"
             x1="8.2114201"
             y1="-5.7136502"
             x2="31.74275"
             y2="25.48744" />
        <linearGradient
             inkscape:collect="always"
             xlink:href="#linearGradient1000-0-6"
             id="linearGradient4134"
             gradientUnits="userSpaceOnUse"
             gradientTransform="matrix(0,0.56250001,-0.56250001,0,1.78125,-1.3437502)"
             x1="6.4056101"
             x2="41.369011" />
        <radialGradient
             inkscape:collect="always"
             xlink:href="#radialGradient3909-3-1-6"
             id="radialGradient4137"
             gradientUnits="userSpaceOnUse"
             gradientTransform="matrix(1.2333415e-8,1.3455438,-1.5694168,-2.4790052e-8,6.7311954,20.476738)"
             cx="7.4956799"
             cy="8.44977"
             r="19.99999" />
        <linearGradient
             inkscape:collect="always"
             xlink:href="#linearGradient3911-3-1-2"
             id="linearGradient4139"
             gradientUnits="userSpaceOnUse"
             gradientTransform="matrix(0.6348115,0,0,0.57575932,-21.765561,27.63619)"
             y1="44"
             x2="0"
             y2="3.8989999" />
        <radialGradient
             xlink:href="#linearGradient5060"
             r="117.14286"
             id="radialGradient3131"
             gradientUnits="userSpaceOnUse"
             gradientTransform="matrix(-0.062142,0,0,0.029001,46.53201,28.085503)"
             cy="486.64789"
             cx="605.71429" />
        <radialGradient
             xlink:href="#linearGradient5060"
             r="117.14286"
             id="radialGradient3129"
             gradientUnits="userSpaceOnUse"
             gradientTransform="matrix(0.062142,0,0,0.029001,1.636502,28.085503)"
             cy="486.64789"
             cx="605.71429" />
        <linearGradient
             y2="25.48744"
             y1="-5.7136502"
             x2="31.74275"
             x1="8.2114201"
             id="linearGradient4594"
             gradientUnits="userSpaceOnUse">
            <stop
                 id="stop37"
                 stop-color="#fff"
                 offset="0" />
            <stop
                 id="stop39"
                 stop-opacity="0"
                 stop-color="#fff"
                 offset="1" />
        </linearGradient>
        <linearGradient
             x2="41.369011"
             x1="6.4056101"
             id="linearGradient998"
             gradientUnits="userSpaceOnUse">
            <stop
                 id="stop27"
                 stop-opacity=".545"
                 stop-color="#fff"
                 offset="0" />
            <stop
                 id="stop29"
                 stop-opacity="0"
                 stop-color="#fff"
                 offset="1" />
        </linearGradient>
        <linearGradient
             x2="-5.8431101"
             x1="-42.696152"
             id="linearGradient3157-5"
             gradientUnits="userSpaceOnUse">
            <stop
                 id="stop22"
                 stop-color="#cf0000"
                 offset="0" />
            <stop
                 id="stop24"
                 stop-color="#dc5600"
                 offset="1" />
        </linearGradient>
        <linearGradient
             y2="45.761669"
             y1="38.718601"
             x2="0"
             id="linearGradient3127"
             gradientUnits="userSpaceOnUse">
            <stop
                 id="stop15"
                 stop-opacity="0"
                 offset="0" />
            <stop
                 id="stop17"
                 offset=".5" />
            <stop
                 id="stop19"
                 stop-opacity="0"
                 offset="1" />
        </linearGradient>
        <linearGradient
             id="linearGradient5060">
            <stop
                 id="stop10"
                 offset="0" />
            <stop
                 id="stop12"
                 stop-opacity="0"
                 offset="1" />
        </linearGradient>
        <linearGradient
             inkscape:collect="always"
             xlink:href="#linearGradient4594"
             id="linearGradient3126"
             gradientUnits="userSpaceOnUse"
             x1="8.2114201"
             y1="-5.7136502"
             x2="31.74275"
             y2="25.48744"
             gradientTransform="matrix(0.55406804,0,0,0.55406804,22.202368,-1.0473742)" />
        <linearGradient
             inkscape:collect="always"
             xlink:href="#linearGradient998"
             id="linearGradient3129"
             gradientUnits="userSpaceOnUse"
             x1="6.4056101"
             x2="41.369011"
             gradientTransform="matrix(0,0.55406804,-0.55406804,0,22.202368,-1.0473742)" />
        <linearGradient
             inkscape:collect="always"
             xlink:href="#linearGradient3157-5"
             id="linearGradient3133"
             gradientUnits="userSpaceOnUse"
             x1="-42.696152"
             x2="-5.8431101"
             gradientTransform="matrix(0,-0.55406804,-0.55406804,0,-1.709578,-1.5478912)" />
        <linearGradient
             inkscape:collect="always"
             xlink:href="#linearGradient3127"
             id="linearGradient3139"
             gradientUnits="userSpaceOnUse"
             y1="38.718601"
             x2="0"
             y2="45.761669" />
        <radialGradient
             inkscape:collect="always"
             xlink:href="#linearGradient5060"
             id="radialGradient3141"
             gradientUnits="userSpaceOnUse"
             gradientTransform="matrix(0.062142,0,0,0.029001,1.636502,28.085503)"
             cx="605.71429"
             cy="486.64789"
             r="117.14286" />
        <radialGradient
             inkscape:collect="always"
             xlink:href="#linearGradient5060"
             id="radialGradient3143"
             gradientUnits="userSpaceOnUse"
             gradientTransform="matrix(-0.062142,0,0,0.029001,46.53201,28.085503)"
             cx="605.71429"
             cy="486.64789"
             r="117.14286" />
        <linearGradient
             inkscape:collect="always"
             xlink:href="#linearGradient3157-5-9"
             id="linearGradient3133-5"
             gradientUnits="userSpaceOnUse"
             x1="-42.696152"
             x2="-5.8431101"
             gradientTransform="matrix(0,-0.55406804,-0.55406804,0,-2.709578,-2.547891)" />
        <linearGradient
             x2="-5.8431101"
             x1="-42.696152"
             id="linearGradient3157-5-9"
             gradientUnits="userSpaceOnUse">
            <stop
                 id="stop22-9"
                 stop-color="#cf0000"
                 offset="0" />
            <stop
                 id="stop24-8"
                 stop-color="#dc5600"
                 offset="1" />
        </linearGradient>
        <linearGradient
             x2="-5.8431101"
             x1="-42.696152"
             gradientTransform="matrix(0,-0.55406804,-0.55406804,0,-3.101442,-2.5473742)"
             gradientUnits="userSpaceOnUse"
             id="linearGradient3160"
             xlink:href="#linearGradient3157-5-9"
             inkscape:collect="always" />
    </defs>
    <path
         inkscape:connector-curvature="0"
         style="color:black;fill:url(#linearGradient3133-5);fill-opacity:1;fill-rule:nonzero;stroke:#8d2020;stroke-width:1;stroke-linecap:round;stroke-linejoin:round;stroke-miterlimit:4;stroke-opacity:1;stroke-dasharray:none;stroke-dashoffset:0;marker:none;visibility:visible;display:inline;overflow:visible;enable-background:accumulate"
         id="path26"
         d="m 3.5,0.5 h 15 a 2,2 0 0 1 2,2 v 17 a 2,2 0 0 1 -2,2 h -15 a 2,2 0 0 1 -2,-2 v -17 a 2,2 0 0 1 2,-2" />
    <path
         inkscape:connector-curvature="0"
         style="color:black;fill:none;stroke:url(#linearGradient3106-0);stroke-width:1;stroke-linecap:round;stroke-linejoin:round;stroke-miterlimit:4;stroke-opacity:1;stroke-dasharray:none;stroke-dashoffset:0;marker:none;visibility:visible;display:inline;overflow:visible;enable-background:accumulate"
         id="path28"
         d="m 3.5,1.5 h 15 a 1,1 0 0 1 1,1 v 17 a 1,1 0 0 1 -1,1 h -15 a 1,1 0 0 1 -1,-1 v -17 a 1,1 0 0 1 1,-1" />
    <g
         id="layer2"
         style="display:none"
         transform="translate(-19.143001,-205.6879)">
        <rect
             width="86"
             height="85"
             rx="6"
             ry="6"
             x="5"
             y="7"
             id="rect3745"
             style="opacity:0.9;fill:url(#ButtonShadow);fill-opacity:1;fill-rule:nonzero;stroke:none;filter:url(#filter3174)" />
    </g>
    <g
         id="layer4"
         transform="translate(-19.143001,-205.6879)" />
    <g
         id="layer2-0"
         style="display:none"
         transform="translate(7.42138,-195.23404)">
        <rect
             width="86"
             height="85"
             rx="6"
             ry="6"
             x="5"
             y="7"
             id="rect3745-7"
             style="opacity:0.9;fill:url(#ButtonShadow-91);fill-opacity:1;fill-rule:nonzero;stroke:none;filter:url(#filter3174-4)" />
    </g>
    <g
         id="layer4-3"
         transform="translate(7.42138,-195.23404)" />
    <g
         id="layer2-1"
         style="display:none"
         transform="translate(63.546381,-192.29881)">
        <rect
             width="86"
             height="85"
             rx="6"
             ry="6"
             x="5"
             y="7"
             id="rect3745-1"
             style="opacity:0.9;fill:url(#ButtonShadow-9);fill-opacity:1;fill-rule:nonzero;stroke:none;filter:url(#filter3174-2)" />
    </g>
    <g
         id="layer4-8"
         transform="translate(63.546381,-192.29881)" />
    <path
         inkscape:connector-curvature="0"
         style="opacity:0.4;color:black;fill:black;fill-opacity:1;fill-rule:nonzero;stroke:none;stroke-width:1;marker:none;visibility:visible;display:inline;overflow:visible;enable-background:accumulate"
         d="m 19.950707,10.079419 -0.07895,0.384205 -0.04934,-0.384205 -0.03948,-0.384206 -0.09868,0.384206 -0.09869,0.384205 -0.01973,-0.364748 c -0.01263,-0.200805 -0.0852,-0.364753 -0.157897,-0.364753 -0.0727,0 -0.156198,-0.104269 -0.1875,-0.228578 -0.0313,-0.124308 -0.07486,0.119096 -0.09869,0.539835 -0.04035,0.712311 -0.05021,0.733829 -0.148025,0.345295 -0.05777,-0.229495 -0.110002,-0.626951 -0.118423,-0.88513 -0.0085,-0.258178 -0.07533,-0.46688 -0.148031,-0.46688 -0.0727,0 -0.156198,-0.104268 -0.187499,-0.228577 -0.04133,-0.164131 -0.07545,-0.122129 -0.108552,0.155629 L 18.37174,9.349922 18.27306,8.965717 c -0.06752,-0.271513 -0.11277,-0.03678 -0.148026,0.80245 -0.04402,1.04773 -0.05342,1.109102 -0.128289,0.554419 l -0.08881,-0.627373 -0.06908,0.559286 -0.06908,0.554421 -0.04934,-0.729501 C 17.697065,9.677807 17.629875,9.270455 17.572403,9.174836 17.482983,9.02605 17.451414,9.05663 17.325693,9.383961 17.196404,9.720581 17.171252,9.611638 17.128321,8.479378 17.081681,7.249368 17.073731,7.280761 17.000033,9.208879 l -0.07895,2.01829 -0.02959,-1.60004 c -0.01847,-0.879717 -0.07031,-1.714367 -0.118419,-1.857799 -0.09826,-0.292977 -0.33553,-0.354851 -0.33553,-0.08754 0,0.108178 -0.07553,0.17022 -0.207237,0.17022 -0.181509,0 -0.22101,0.24147 -0.246712,1.68758 -0.01649,0.92753 -0.04413,1.349798 -0.06908,0.938627 -0.02542,-0.419152 -0.111061,-0.744094 -0.1875,-0.744094 -0.07644,0 -0.13816,0.0746 -0.13816,0.17022 0,0.09563 -0.06055,0.175081 -0.13816,0.175081 -0.07761,0 -0.152423,-0.178863 -0.167762,-0.398797 -0.01728,-0.247659 -0.06558,-0.109027 -0.118423,0.364754 l -0.07895,0.763544 -0.04934,-0.763544 C 14.98925,9.349221 14.97344,9.315496 14.888189,9.695218 l -0.09869,0.41825 -0.03948,-0.554421 -0.04934,-0.559287 -0.09868,0.384206 c -0.07388,0.297086 -0.108488,0.162885 -0.148025,-0.59333 l -0.04934,-0.97267 -0.07895,0.768407 -0.08882,0.763544 -0.04934,-0.938626 c -0.04555,-0.828122 -0.0728,-0.692528 -0.217105,1.147751 l -0.167763,2.086378 -0.02959,-2.159326 c -0.01786,-1.185709 -0.08379,-2.27868 -0.148003,-2.431673 l -0.118422,-0.277213 -0.02959,0.345295 c -0.01813,0.191244 -0.07891,0.44454 -0.13816,0.559288 -0.09686,0.187587 -0.120989,0.171607 -0.157896,-0.141038 l -0.0395,-0.345295 -0.08882,0.452294 c -0.08547,0.418135 -0.0925,0.389613 -0.13816,-0.350162 L 12.865175,6.5 12.766485,7.540758 c -0.05384,0.573731 -0.122052,1.621944 -0.148024,2.329546 l -0.04934,1.288788 -0.07895,-0.938626 C 12.427071,9.47105 12.393691,9.36215 12.332274,9.695223 l -0.06908,0.41825 -0.02959,-0.539834 c -0.01468,-0.296425 -0.0852,-0.534968 -0.157897,-0.534968 -0.0727,0 -0.156203,-0.104269 -0.1875,-0.228578 -0.0313,-0.124309 -0.07708,0.104175 -0.09868,0.505791 -0.02161,0.401615 -0.08878,0.823879 -0.148026,0.938626 L 11.53295,10.463635 11.51321,10.210743 C 11.50401,10.072644 11.453,9.809294 11.394788,9.622278 L 11.28622,9.281845 11.20727,9.695228 c -0.06077,0.308793 -0.091,0.189305 -0.108552,-0.46688 -0.01437,-0.536958 -0.08231,-0.885129 -0.167762,-0.885129 -0.07761,0 -0.13816,0.05968 -0.13816,0.136175 0,0.0765 -0.06055,0.141038 -0.13816,0.141038 -0.08676,0 -0.158156,0.420822 -0.177634,1.094254 -0.02622,0.905751 -0.04427,0.780294 -0.108551,-0.71491 L 10.289501,7.195473 10.230291,8.8636 10.171081,10.531727 10.092131,8.99977 10.013181,7.47268 9.953971,8.620432 C 9.902471,9.649941 9.885371,9.705208 9.805939,9.174852 9.733299,8.689875 9.708679,8.820293 9.66778,9.904353 L 9.61845,11.227185 9.500027,10.079435 C 9.434047,9.448329 9.326154,8.385195 9.26318,7.715849 L 9.144757,6.50001 9.095417,8.134094 9.046077,9.768177 8.96713,8.328628 C 8.922854,7.538148 8.837824,6.869123 8.7796282,6.840444 8.7214332,6.811764 8.658665,7.441057 8.6414693,8.241088 l -0.029589,1.45414 -0.078947,-1.60004 C 8.4986393,7.396912 8.4568173,6.932904 8.4342483,6.898802 c -0.00314,0.0088 -0.00767,0.03124 -0.00989,0.06323 -0.017217,0.255921 -0.090154,0.487014 -0.1677626,0.510653 -0.077605,0.02364 -0.1480253,0.383289 -0.1480253,0.841356 0,0.922413 -0.2767273,1.939018 -0.4342165,1.590317 L 7.5855399,9.695233 7.5658049,9.889767 c -0.010481,0.119976 -0.094186,0.189673 -0.2269734,0.189673 -0.1465703,0 -0.2214695,0.08204 -0.2368459,0.262621 -0.022139,0.260185 -0.05524,0.123679 -0.3256587,-1.181796 -0.0614,-0.296429 -0.1706161,-0.539834 -0.236846,-0.539834 -0.066226,0 -0.1328345,-0.06958 -0.1480253,-0.155628 C 6.3762606,8.378743 6.3301346,8.63707 6.2829038,9.038675 6.2539158,9.285119 6.2293108,9.430521 6.2138288,9.456926 6.1939288,9.422136 6.1781058,9.124565 6.1644878,8.498847 6.1472798,7.708179 6.0846348,7.229511 5.9967252,7.229511 c -0.077605,0 -0.1468343,0.09941 -0.1480253,0.223716 C 5.8471299,7.624735 5.8143369,7.653969 5.7105404,7.574811 5.6067415,7.495651 5.5715547,7.519661 5.5526434,7.681805 5.5360624,7.823806 5.5000874,7.777435 5.4342209,7.540767 L 5.3355359,7.195472 5.2861949,7.472685 C 5.2487989,7.69364 5.2205349,7.650234 5.1480351,7.26356 5.0897461,6.952691 5.0425851,7.443566 5.0098753,8.620437 4.9769583,9.804945 4.9237223,10.250251 4.8717155,9.87032 L 4.7927685,9.281856 4.6842177,9.734149 c -0.058202,0.248617 -0.12352,0.59143 -0.1480319,0.763545 -0.02451,0.172111 -0.065286,-0.03156 -0.088814,-0.452298 C 4.4051758,9.2905 4.4069268,9.286037 4.2697376,9.680642 4.1932736,9.90057 4.082561,10.07944 4.023026,10.07944 3.963491,10.07944 3.8629012,9.741657 3.7960526,9.330485 3.6894142,8.674678 3.6644536,8.630208 3.608545,8.965732 L 3.539443,9.349939 3.450629,8.965732 C 3.373938,8.64264 3.3500748,8.703749 3.3124692,9.349939 3.2694192,10.089514 3.2641212,10.098216 3.164443,9.661195 3.10774,9.412577 3.0413312,9.00523 3.0164177,8.756612 2.9839277,8.432457 2.9480047,8.560595 2.8881287,9.208906 L 2.8091817,10.113488 2.7795927,9.364534 C 2.7625077,8.92197 2.6953657,8.620442 2.6118308,8.620442 2.5342168,8.620442 2.464255,8.441578 2.4539337,8.221645 2.4355497,7.830612 2.4306527,7.830497 2.315774,8.367545 2.1495989,9.144235 2.0704339,9.165641 2.0295889,8.445355 L 2,7.817986 v 5.641485 c 0.00957,0.107429 0.024884,0.283615 0.039478,0.515515 l 0.059213,0.938626 0.088814,-0.80245 c 0.040759,-0.38428 0.064275,-0.578568 0.078947,-0.607917 0.011527,0.01008 0.017809,0.142987 0.029589,0.384206 0.040881,0.833131 0.3039219,0.722052 0.3355312,-0.141037 0.019613,-0.535246 0.044793,-0.617914 0.098685,-0.33071 l 0.078947,0.384206 0.088815,-0.384206 0.088815,-0.379338 0.029589,0.452293 c 0.017112,0.248618 0.083809,0.576508 0.1480254,0.729501 0.087571,0.208638 0.1325974,0.0268 0.1677625,-0.729501 l 0.039478,-1.011576 0.088815,1.356876 0.078947,1.356877 0.049341,-1.079663 c 0.027445,-0.592855 0.074922,-1.005232 0.1085517,-0.919174 0.1336082,0.341843 0.3256596,0.127762 0.3256596,-0.364753 0,-0.41726 0.037901,-0.520377 0.2072371,-0.520377 0.1732987,0 0.2140113,0.132042 0.236845,0.744093 l 0.029572,0.748953 0.078947,-0.763545 0.078947,-0.768406 0.1085508,0.59333 c 0.057749,0.325115 0.1199578,1.154735 0.1381598,1.843209 0.025773,0.974714 0.048905,0.767124 0.1085518,-0.938626 l 0.078947,-2.193371 0.049341,2.193371 c 0.03114,1.204832 0.1004644,1.984833 0.1480262,1.736215 0.092344,-0.482676 0.1979108,-0.45166 0.3848704,0.106993 0.080786,0.241378 0.1385196,-0.268143 0.1874998,-1.668126 0.075602,-2.160962 0.2678672,-2.318681 0.2960568,-0.243169 l 0.00989,1.215838 0.1874998,-0.661413 c 0.103872,-0.36336 0.2074801,-0.691256 0.2269734,-0.729501 0.019491,-0.03825 0.071193,0.259803 0.1184225,0.661413 l 0.088814,0.729501 0.059213,-0.938627 c 0.049071,-0.868447 0.054656,-0.90072 0.1381598,-0.418248 l 0.08882,0.520376 0.039478,-0.452294 c 0.023054,-0.248618 0.091318,-0.65597 0.1480262,-0.904583 l 0.1085508,-0.452293 0.029589,0.384207 c 0.062942,0.67659 0.261844,0.793884 0.2960568,0.17508 0.05361,-0.969469 0.2355904,-0.252034 0.2861851,1.113707 l 0.049341,1.249883 0.078947,-1.079663 0.08882,-1.074803 0.059213,1.634085 c 0.045629,1.301336 0.065799,1.48603 0.128289,0.904582 0.043259,-0.40258 0.1201529,-0.655137 0.1677626,-0.559287 0.047607,0.09585 0.107196,-0.356492 0.1282881,-1.006715 0.021094,-0.650222 0.074809,-1.559305 0.1282889,-2.018289 0.082058,-0.704123 0.1119969,-0.519832 0.1578971,1.181795 0.049506,1.835219 0.063752,1.919521 0.1381588,0.938626 0.06199,-0.817288 0.08652,-0.949885 0.128289,-0.554419 l 0.05921,0.520375 0.08881,-0.520375 0.08882,-0.520378 0.05921,0.37934 c 0.03401,0.239029 0.08622,0.03229 0.138159,-0.554421 0.07367,-0.832203 0.08486,-0.725786 0.13816,0.938626 l 0.05921,1.877253 0.07895,-1.527091 0.07895,-1.531956 0.06908,2.188509 0.05921,2.19337 0.07895,-2.713751 c 0.0367,-1.317563 0.06144,-1.950774 0.07895,-2.032882 0.01184,0.06948 0.02356,0.398033 0.03948,0.953217 0.05026,1.753431 0.243529,2.520481 0.315793,1.254746 l 0.03948,-0.729501 0.07895,0.729501 c 0.06355,0.59333 0.102766,0.678325 0.1875,0.452292 0.05735,-0.152991 0.107699,-0.486824 0.108551,-0.73923 8.47e-4,-0.252405 0.03709,-0.705159 0.08882,-1.006713 0.09298,-0.542093 0.100872,-0.545886 0.27632,-0.30639 0.09759,0.133227 0.181599,0.392196 0.1875,0.573873 0.0076,0.234508 0.06677,0.330711 0.207237,0.330711 0.265585,0 0.500287,-0.35842 0.52303,-0.792728 0.01753,-0.334549 0.03025,-0.341413 0.128289,-0.111856 0.08376,0.196123 0.104899,0.14305 0.128288,-0.277212 0.01595,-0.286864 0.08588,-0.664379 0.148026,-0.836495 0.06761,-0.187256 0.126891,0.806066 0.148026,2.470584 0.02114,1.664517 0.08041,2.652978 0.148025,2.465716 0.06215,-0.172116 0.122763,-0.624226 0.13816,-1.006714 0.01539,-0.382487 0.07253,-0.914055 0.128289,-1.181794 l 0.09868,-0.486334 0.05921,0.588464 c 0.03332,0.370565 0.07862,0.04982 0.128289,-0.865675 l 0.07895,-1.46387 0.04934,1.2207 c 0.02521,0.669351 0.09093,1.498972 0.148026,1.843209 l 0.09868,0.622508 0.03948,-0.904582 c 0.03388,-0.974918 0.338362,-1.9577 0.463819,-1.493046 0.03771,0.139679 0.08263,-0.01094 0.108551,-0.350164 0.02486,-0.325114 0.07725,-0.489062 0.108552,-0.364752 0.03452,0.137092 0.133602,0.228577 0.256582,0.228577 0.157733,0 0.206666,-0.127467 0.226975,-0.573873 0.01936,-0.425401 0.04051,-0.479835 0.07895,-0.209125 0.02848,0.200805 0.113945,0.364755 0.1875,0.364755 0.07355,0 0.143436,0.104268 0.157897,0.228577 0.01446,0.124308 0.06973,-0.03963 0.118422,-0.364754 0.06165,-0.41168 0.107387,-0.02377 0.148026,1.283926 l 0.04934,1.877253 0.07895,-2.052333 0.07895,-2.052334 0.05921,2.193372 c 0.05028,1.798313 0.08184,2.015087 0.148026,1.215838 l 0.07895,-0.972671 0.06908,0.972671 c 0.06852,0.940941 0.07656,0.924637 0.118422,-0.520376 0.05691,-1.964453 0.24343,-2.626327 0.305922,-1.079663 0.02677,0.663152 0.07368,0.957465 0.118424,0.729501 0.0736,-0.375069 0.07531,-0.370533 0.157896,0.209124 l 0.08882,0.593331 0.03948,-0.802451 c 0.02867,-0.511558 0.07923,-0.71011 0.138159,-0.554419 l 0.08882,0.243168 0.118422,-0.311256 c 0.318536,-0.891217 0.335039,-0.899166 0.384871,-0.141037 0.04177,0.635474 0.05828,0.569005 0.128289,-0.520377 l 0.07895,-1.254744 0.05921,1.672994 c 0.04994,1.425226 0.06785,1.548597 0.138159,0.865676 l 0.07895,-0.797588 0.07895,0.797588 0.06907,0.802452 0.02959,-0.782998 c 0.01661,-0.430295 0.0852,-0.782998 0.157897,-0.782998 0.0727,0 0.156198,0.104268 0.1875,0.228578 0.0313,0.124309 0.08093,-0.198552 0.108546,-0.714911 l 0.04934,-0.938626 0.08882,0.729501 c 0.04722,0.401611 0.103227,0.659936 0.118423,0.573874 0.01519,-0.08607 0.09015,-0.155629 0.167762,-0.155629 0.07761,0 0.148714,-0.178864 0.157897,-0.398797 0.01373,-0.329095 0.02978,-0.366241 0.118423,-0.194534 0.09232,0.178796 0.120147,0.157577 0.148025,-0.17022 L 20,11.922668 z"
         id="path53-4" />
    <path
         style="opacity:0.4;color:black;fill:black;fill-opacity:1;fill-rule:nonzero;stroke:none;stroke-width:1;marker:none;visibility:visible;display:inline;overflow:visible;enable-background:accumulate"
         id="path3956"
         d="m 12.191953,1.999994 c -0.491747,-0.06034 -0.55984,0.3766 -0.508613,0.724253 -0.0046,3.459476 0.0093,6.922124 -0.007,10.379621 -0.120101,0.119 -0.350582,-0.07672 -0.503595,-0.02592 -1.666989,-0.09636 -3.4883259,1.049943 -3.6549759,2.704237 -0.1964091,1.315262 1.2690204,2.397433 2.5758159,2.192866 1.646651,-0.165737 2.933106,-1.741661 2.718429,-3.297415 0.0046,-2.739226 -0.0093,-5.481624 0.007,-8.218869 0.112241,-0.121905 0.279651,0.137649 0.397887,0.150379 1.32418,0.743023 2.495528,1.968297 2.574598,3.494162 0.08695,1.192302 -0.293742,2.358993 -0.722055,3.464318 1.435196,-1.675384 1.894633,-4.119431 0.89733,-6.09831 C 15.456725,6.32061 14.306115,5.612701 13.662444,4.545748 13.187096,3.832743 12.825325,3.036761 12.71214,2.194998 12.61895,2.019468 12.373476,1.998094 12.191953,1.999982 z"
         inkscape:connector-curvature="0" />
    <path
         inkscape:connector-curvature="0"
         d="m 12.191953,3.005628 c -0.491747,-0.06032 -0.55984,0.376467 -0.508613,0.723997 -0.0046,3.458258 0.0093,6.919686 -0.007,10.375965 -0.120101,0.118958 -0.350582,-0.07669 -0.503595,-0.02591 -1.666989,-0.09633 -3.4883259,1.049573 -3.6549759,2.703285 -0.1964091,1.314798 1.2690204,2.396588 2.5758159,2.192093 1.646651,-0.165679 2.933106,-1.741047 2.718429,-3.296253 0.0046,-2.738261 -0.0093,-5.479693 0.007,-8.215974 0.112241,-0.121862 0.279651,0.137601 0.397887,0.150326 1.32418,0.742761 2.495528,1.967604 2.574598,3.492931 0.08695,1.191882 -0.293742,2.358162 -0.722055,3.463098 1.435196,-1.674794 1.894633,-4.11798 0.89733,-6.096162 C 15.456725,7.324721 14.306115,6.617062 13.662444,5.550485 13.187096,4.837731 12.825325,4.042029 12.71214,3.200563 12.61895,3.025094 12.373476,3.003728 12.191953,3.005616 z"
         id="path61"
         style="fill:white;stroke:none" />
    <path
         style="fill:url(#linearGradient4121);stroke:none"
         inkscape:connector-curvature="0"
         d="m 8,1 10,0 c 1.160474,0 2,1.005258 2,2 l 0,17 -6.652508,0 z"
         id="path57-5-9"
         sodipodi:nodetypes="cssccc" />
</svg>
