<?xml version="1.0" encoding="UTF-8" standalone="no"?>
<svg xmlns:dc="http://purl.org/dc/elements/1.1/" xmlns:cc="http://creativecommons.org/ns#" xmlns:rdf="http://www.w3.org/1999/02/22-rdf-syntax-ns#" xmlns:svg="http://www.w3.org/2000/svg" xmlns="http://www.w3.org/2000/svg" xmlns:xlink="http://www.w3.org/1999/xlink" xmlns:sodipodi="http://sodipodi.sourceforge.net/DTD/sodipodi-0.dtd" xmlns:inkscape="http://www.inkscape.org/namespaces/inkscape" viewBox="0 0 22 22" id="svg2" version="1.1" inkscape:version="0.48.4 r9939" width="100%" height="100%" sodipodi:docname="audio-flac.svg">
    <metadata id="metadata32">
        <rdf:RDF>
            <cc:Work rdf:about="">
                <dc:format>image/svg+xml</dc:format>
                <dc:type rdf:resource="http://purl.org/dc/dcmitype/StillImage" />
            </cc:Work>
        </rdf:RDF>
    </metadata>
    <sodipodi:namedview pagecolor="#ffffff" bordercolor="#666666" borderopacity="1" objecttolerance="10" gridtolerance="10" guidetolerance="10" inkscape:pageopacity="0" inkscape:pageshadow="2" inkscape:window-width="1280" inkscape:window-height="977" id="namedview30" showgrid="true" inkscape:zoom="13.906433" inkscape:cx="35.074406" inkscape:cy="8.4426134" inkscape:window-x="0" inkscape:window-y="24" inkscape:window-maximized="1" inkscape:current-layer="svg2" inkscape:snap-bbox="true">
        <inkscape:grid type="xygrid" id="grid2990" empspacing="5" visible="true" enabled="true" snapvisiblegridlinesonly="true" />
    </sodipodi:namedview>
    <defs id="defs4">
        <filter id="filter3174-4" color-interpolation-filters="sRGB">
            <feGaussianBlur stdDeviation="1.71" id="feGaussianBlur3176-2" />
        </filter>
        <linearGradient gradientTransform="scale(1.0058652,0.994169)" gradientUnits="userSpaceOnUse" id="ButtonShadow-91" y2="7.0165396" x2="45.447727" y1="92.539597" x1="45.447727">
            <stop offset="0" style="stop-color:#000000;stop-opacity:1" id="stop3750-4" />
            <stop offset="1" style="stop-color:#000000;stop-opacity:0.58823532" id="stop3752-2" />
        </linearGradient>
        <linearGradient x1="45.447727" y1="92.539597" x2="45.447727" y2="7.0165396" id="ButtonShadow-9" gradientUnits="userSpaceOnUse" gradientTransform="scale(1.0058652,0.994169)">
            <stop id="stop3750-3" style="stop-color:#000000;stop-opacity:1" offset="0" />
            <stop id="stop3752-0" style="stop-color:#000000;stop-opacity:0.58823532" offset="1" />
        </linearGradient>
        <filter color-interpolation-filters="sRGB" id="filter3174-2">
            <feGaussianBlur id="feGaussianBlur3176-1" stdDeviation="1.71" />
        </filter>
        <linearGradient x1="45.447727" y1="92.539597" x2="45.447727" y2="7.0165396" id="ButtonShadow" gradientUnits="userSpaceOnUse" gradientTransform="scale(1.0058652,0.994169)">
            <stop id="stop3750" style="stop-color:#000000;stop-opacity:1" offset="0" />
            <stop id="stop3752" style="stop-color:#000000;stop-opacity:0.58823532" offset="1" />
        </linearGradient>
        <filter color-interpolation-filters="sRGB" id="filter3174">
            <feGaussianBlur id="feGaussianBlur3176" stdDeviation="1.71" />
        </filter>
        <linearGradient inkscape:collect="always" xlink:href="#linearGradient998-2" id="linearGradient3106-0" gradientUnits="userSpaceOnUse" x1="6.4056101" x2="41.369011" gradientTransform="matrix(0,0.60747784,-0.60747784,0,-1.556084,-2.6028521)" />
        <linearGradient x2="41.369011" x1="6.4056101" id="linearGradient998-2" gradientUnits="userSpaceOnUse">
            <stop id="stop27-5" stop-opacity=".545" stop-color="#fff" offset="0" style="stop-color:white;stop-opacity:0.50196081;" />
            <stop id="stop29-4" stop-opacity="0" stop-color="#fff" offset="1" />
        </linearGradient>
        <linearGradient y2="25.48744" y1="-5.7136502" x2="31.74275" x1="8.2114201" id="linearGradient4594-3-5" gradientUnits="userSpaceOnUse">
            <stop id="stop37-5-1-8" stop-color="#fff" offset="0" />
            <stop id="stop39-0-0" stop-opacity="0" stop-color="#fff" offset="1" />
        </linearGradient>
        <linearGradient inkscape:collect="always" xlink:href="#linearGradient4594-3-5" id="linearGradient4121" gradientUnits="userSpaceOnUse" gradientTransform="matrix(0.51559279,0,0,0.52054793,-1.139305,-2.123287)" x1="8.2114201" y1="-5.7136502" x2="31.74275" y2="25.48744" />
        <linearGradient gradientTransform="matrix(0,-0.57207088,-0.54285584,0,-2.0284632,-2.8130129)" y2="-23.99995" x2="-5" y1="-23.99995" x1="-43" gradientUnits="userSpaceOnUse" id="linearGradient3871-0" xlink:href="#linearGradient3782-2" inkscape:collect="always" />
        <linearGradient id="linearGradient3782-2">
            <stop style="stop-color:#c35c00;stop-opacity:1;" offset="0" id="stop3784-2" />
            <stop style="stop-color:#fff003;stop-opacity:1;" offset="1" id="stop3786-7" />
        </linearGradient>
        <linearGradient gradientTransform="matrix(0,-0.57207088,-0.54285584,0,-2.0284632,-2.8130129)" y2="-23.99995" x2="-5" y1="-23.99995" x1="-43" gradientUnits="userSpaceOnUse" id="linearGradient3873-5" xlink:href="#linearGradient3790-0" inkscape:collect="always" />
        <linearGradient id="linearGradient3790-0">
            <stop style="stop-color:#593200;stop-opacity:1;" offset="0" id="stop3792-3" />
            <stop style="stop-color:#e7b900;stop-opacity:1;" offset="1" id="stop3794-2" />
        </linearGradient>
    </defs>
    <path inkscape:connector-curvature="0" style="color:black;fill:url(#linearGradient3871-0);fill-opacity:1;fill-rule:nonzero;stroke:url(#linearGradient3873-5);stroke-width:0.99999994;stroke-linecap:round;stroke-linejoin:round;stroke-miterlimit:4;stroke-opacity:1;stroke-dasharray:none;stroke-dashoffset:0;marker:none;visibility:visible;display:inline;overflow:visible;enable-background:accumulate" id="path26" d="m 3.5,0.5 h 15 a 2,2 0 0 1 2,2 v 17 a 2,2 0 0 1 -2,2 h -15 a 2,2 0 0 1 -2,-2 v -17 a 2,2 0 0 1 2,-2" />
    <path inkscape:connector-curvature="0" style="color:black;fill:none;stroke:url(#linearGradient3106-0);stroke-width:1;stroke-linecap:round;stroke-linejoin:round;stroke-miterlimit:4;stroke-opacity:1;stroke-dasharray:none;stroke-dashoffset:0;marker:none;visibility:visible;display:inline;overflow:visible;enable-background:accumulate" id="path28" d="m 3.5,1.5 h 15 a 1,1 0 0 1 1,1 v 17 a 1,1 0 0 1 -1,1 h -15 a 1,1 0 0 1 -1,-1 v -17 a 1,1 0 0 1 1,-1" />
    <g id="layer2" style="display:none" transform="translate(-19.143001,-205.6879)">
        <rect width="86" height="85" rx="6" ry="6" x="5" y="7" id="rect3745" style="opacity:0.9;fill:url(#ButtonShadow);fill-opacity:1;fill-rule:nonzero;stroke:none;filter:url(#filter3174)" />
    </g>
    <g id="layer4" transform="translate(-19.143001,-205.6879)" />
    <g id="layer2-0" style="display:none" transform="translate(7.42138,-195.23404)">
        <rect width="86" height="85" rx="6" ry="6" x="5" y="7" id="rect3745-7" style="opacity:0.9;fill:url(#ButtonShadow-91);fill-opacity:1;fill-rule:nonzero;stroke:none;filter:url(#filter3174-4)" />
    </g>
    <g id="layer4-3" transform="translate(7.42138,-195.23404)" />
    <g id="layer2-1" style="display:none" transform="translate(63.546381,-192.29881)">
        <rect width="86" height="85" rx="6" ry="6" x="5" y="7" id="rect3745-1" style="opacity:0.9;fill:url(#ButtonShadow-9);fill-opacity:1;fill-rule:nonzero;stroke:none;filter:url(#filter3174-2)" />
    </g>
    <g id="layer4-8" transform="translate(63.546381,-192.29881)" />
    <path inkscape:connector-curvature="0" style="opacity:0.3;color:black;fill:black;fill-opacity:1;fill-rule:nonzero;stroke:none;stroke-width:1;marker:none;visibility:visible;display:inline;overflow:visible;enable-background:accumulate" d="m 19.950707,10.079419 -0.07895,0.384205 -0.04934,-0.384205 -0.03948,-0.384206 -0.09868,0.384206 -0.09869,0.384205 -0.01973,-0.364748 c -0.01263,-0.200805 -0.0852,-0.364753 -0.157897,-0.364753 -0.0727,0 -0.156198,-0.104269 -0.1875,-0.228578 -0.0313,-0.124308 -0.07486,0.119096 -0.09869,0.539835 -0.04035,0.712311 -0.05021,0.733829 -0.148025,0.345295 -0.05777,-0.229495 -0.110002,-0.626951 -0.118423,-0.88513 -0.0085,-0.258178 -0.07533,-0.46688 -0.148031,-0.46688 -0.0727,0 -0.156198,-0.104268 -0.187499,-0.228577 -0.04133,-0.164131 -0.07545,-0.122129 -0.108552,0.155629 L 18.37174,9.349922 18.27306,8.965717 c -0.06752,-0.271513 -0.11277,-0.03678 -0.148026,0.80245 -0.04402,1.04773 -0.05342,1.109102 -0.128289,0.554419 l -0.08881,-0.627373 -0.06908,0.559286 -0.06908,0.554421 -0.04934,-0.729501 C 17.697065,9.677807 17.629875,9.270455 17.572403,9.174836 17.482983,9.02605 17.451414,9.05663 17.325693,9.383961 17.196404,9.720581 17.171252,9.611638 17.128321,8.479378 17.081681,7.249368 17.073731,7.2807607 17.000033,9.208879 l -0.07895,2.01829 -0.02959,-1.60004 c -0.01847,-0.879717 -0.07031,-1.7143672 -0.118419,-1.8577987 -0.09826,-0.2929773 -0.33553,-0.3548513 -0.33553,-0.087541 0,0.1081776 -0.07553,0.1702193 -0.207237,0.1702193 -0.181509,0 -0.22101,0.2414704 -0.246712,1.6875804 -0.01649,0.92753 -0.04413,1.349798 -0.06908,0.938627 -0.02542,-0.419152 -0.111061,-0.744094 -0.1875,-0.744094 -0.07644,0 -0.13816,0.0746 -0.13816,0.17022 0,0.09563 -0.06055,0.175081 -0.13816,0.175081 -0.07761,0 -0.152423,-0.178863 -0.167762,-0.398797 -0.01728,-0.247659 -0.06558,-0.109027 -0.118423,0.364754 L 15.08556,10.808924 15.03622,10.04538 C 14.98925,9.34922 14.97344,9.315495 14.888189,9.695217 l -0.09869,0.41825 -0.03948,-0.554421 -0.04934,-0.559287 -0.09868,0.384206 c -0.07388,0.297086 -0.108488,0.162885 -0.148025,-0.59333 l -0.04934,-0.9726702 -0.07895,0.7684072 -0.08882,0.763544 -0.04934,-0.938626 c -0.04555,-0.8281219 -0.0728,-0.692528 -0.217105,1.147751 l -0.167763,2.086378 -0.02959,-2.159326 C 13.75521,8.300384 13.689277,7.2074129 13.625063,7.0544201 l -0.118422,-0.2772127 -0.02959,0.3452951 c -0.01813,0.1912438 -0.07891,0.4445399 -0.13816,0.5592871 -0.09686,0.187587 -0.120989,0.1716076 -0.157896,-0.1410372 l -0.0395,-0.345295 -0.08882,0.4522937 c -0.08547,0.4181349 -0.0925,0.3896129 -0.13816,-0.3501623 L 12.865175,6.5 12.766485,7.5407577 C 12.712645,8.114489 12.644433,9.162702 12.618461,9.870304 l -0.04934,1.288788 -0.07895,-0.938626 C 12.427071,9.47105 12.393691,9.36215 12.332274,9.695223 l -0.06908,0.41825 -0.02959,-0.539834 c -0.01468,-0.296425 -0.0852,-0.534968 -0.157897,-0.534968 -0.0727,0 -0.156203,-0.104269 -0.1875,-0.228578 -0.0313,-0.124309 -0.07708,0.104175 -0.09868,0.505791 -0.02161,0.401615 -0.08878,0.823879 -0.148026,0.938626 L 11.53295,10.463635 11.51321,10.210743 C 11.50401,10.072644 11.453,9.809294 11.394788,9.622278 L 11.28622,9.281845 11.20727,9.695228 c -0.06077,0.308793 -0.091,0.189305 -0.108552,-0.46688 -0.01437,-0.536958 -0.08231,-0.885129 -0.167762,-0.885129 -0.07761,0 -0.13816,0.05968 -0.13816,0.136175 0,0.0765 -0.06055,0.141038 -0.13816,0.141038 -0.08676,0 -0.158156,0.420822 -0.177634,1.094254 -0.02622,0.905751 -0.04427,0.780294 -0.108551,-0.71491 L 10.289501,7.195473 10.230291,8.8636 10.171081,10.531727 10.092131,8.99977 10.013181,7.4726804 9.953971,8.620432 C 9.902471,9.649941 9.885371,9.705208 9.805939,9.174852 9.733299,8.689875 9.708679,8.820293 9.66778,9.904353 L 9.61845,11.227185 9.500027,10.079435 C 9.434047,9.448329 9.326154,8.385195 9.26318,7.7158493 L 9.144757,6.5000104 9.095417,8.134094 9.046077,9.768177 8.96713,8.328628 C 8.9228536,7.5381485 8.837824,6.8691226 8.7796282,6.8404437 8.7214333,6.8117646 8.658665,7.4410571 8.6414693,8.241088 l -0.029589,1.45414 -0.078947,-1.60004 C 8.4986394,7.3969122 8.4568177,6.9329037 8.4342479,6.8988022 c -0.00314,0.00884 -0.00767,0.031236 -0.00989,0.063225 C 8.4071409,7.2179485 8.3342039,7.4490412 8.2565953,7.4726801 8.1789903,7.4963186 8.10857,7.8559694 8.10857,8.314036 c 0,0.922413 -0.2767273,1.939018 -0.4342165,1.590317 L 7.5855395,9.695228 7.5658045,9.889762 c -0.010481,0.119976 -0.094186,0.189673 -0.2269734,0.189673 -0.1465703,0 -0.2214695,0.08204 -0.2368459,0.262621 -0.022139,0.260185 -0.05524,0.123679 -0.3256587,-1.181796 -0.0614,-0.296429 -0.1706161,-0.539834 -0.236846,-0.539834 -0.066226,0 -0.1328345,-0.06958 -0.1480253,-0.155628 C 6.3762602,8.378738 6.3301342,8.637065 6.2829034,9.03867 6.2539154,9.285114 6.2293104,9.430516 6.2138284,9.456921 6.1939284,9.422131 6.1781054,9.12456 6.1644874,8.498842 6.1472794,7.7081736 6.0846344,7.2295061 5.9967248,7.2295061 c -0.077605,0 -0.1468343,0.099407 -0.1480253,0.2237159 C 5.8471315,7.62473 5.8143363,7.6539644 5.71054,7.5748064 5.6067411,7.4956483 5.5715543,7.5196595 5.552643,7.6817998 5.5360624,7.8238011 5.5000871,7.7774348 5.4342205,7.5407625 L 5.3355355,7.1954674 5.2861945,7.4726801 C 5.2487985,7.693635 5.2205345,7.6502289 5.1480347,7.2635551 5.0897457,6.9526863 5.0425847,7.443561 5.0098749,8.620432 4.9769579,9.80494 4.9237219,10.250246 4.8717151,9.870315 L 4.7927681,9.281851 4.6842173,9.734144 c -0.058202,0.248617 -0.12352,0.59143 -0.1480319,0.763545 C 4.5116762,10.669805 4.4709,10.466133 4.4473718,10.045396 4.4051754,9.2905 4.4069267,9.286037 4.2697376,9.680642 4.1932735,9.90057 4.082561,10.07944 4.023026,10.07944 3.963491,10.07944 3.8629012,9.741657 3.7960526,9.330485 3.6894142,8.674678 3.6644536,8.630208 3.608545,8.965732 L 3.539443,9.349939 3.450629,8.965732 C 3.373938,8.64264 3.3500748,8.703749 3.3124692,9.349939 3.2694192,10.089514 3.2641212,10.098216 3.164443,9.661195 3.10774,9.412577 3.0413312,9.00523 3.0164177,8.756612 2.9839277,8.432457 2.9480047,8.560595 2.8881287,9.208906 L 2.8091817,10.113488 2.7795927,9.364534 C 2.7625077,8.92197 2.6953657,8.620442 2.6118308,8.620442 2.5342168,8.620442 2.464255,8.441578 2.4539337,8.221645 2.4355497,7.8306124 2.4306527,7.8304971 2.315774,8.367545 2.1495989,9.144235 2.0704339,9.165641 2.0295889,8.445355 L 2,7.8179861 v 5.6414849 c 0.00957,0.107429 0.024884,0.283615 0.039478,0.515515 l 0.059213,0.938626 0.088814,-0.80245 c 0.040759,-0.38428 0.064275,-0.578568 0.078947,-0.607917 0.011527,0.01008 0.017809,0.142987 0.029589,0.384206 0.040881,0.833131 0.3039219,0.722052 0.3355312,-0.141037 0.019613,-0.535246 0.044793,-0.617914 0.098685,-0.33071 l 0.078947,0.384206 0.088815,-0.384206 0.088815,-0.379338 0.029589,0.452293 c 0.017112,0.248618 0.083809,0.576508 0.1480254,0.729501 0.087571,0.208638 0.1325974,0.0268 0.1677625,-0.729501 l 0.039478,-1.011576 0.088815,1.356876 0.078947,1.356877 0.049341,-1.079663 c 0.027445,-0.592855 0.074922,-1.005232 0.1085517,-0.919174 0.1336082,0.341843 0.3256596,0.127762 0.3256596,-0.364753 0,-0.41726 0.037901,-0.520377 0.2072371,-0.520377 0.1732987,0 0.2140113,0.132042 0.236845,0.744093 l 0.029572,0.748953 0.078947,-0.763545 0.078947,-0.768406 0.1085508,0.59333 c 0.057749,0.325115 0.1199578,1.154735 0.1381598,1.843209 0.025773,0.974714 0.048905,0.767124 0.1085518,-0.938626 l 0.078947,-2.193371 0.049341,2.193371 c 0.03114,1.204832 0.1004644,1.984833 0.1480262,1.736215 0.092344,-0.482676 0.1979108,-0.45166 0.3848704,0.106993 0.080786,0.241378 0.1385196,-0.268143 0.1874998,-1.668126 0.075602,-2.160962 0.2678672,-2.318681 0.2960568,-0.243169 l 0.00989,1.215838 0.1874998,-0.661413 c 0.103872,-0.36336 0.2074801,-0.691256 0.2269734,-0.729501 0.019491,-0.03825 0.071193,0.259803 0.1184225,0.661413 l 0.088814,0.729501 0.059213,-0.938627 c 0.049071,-0.868447 0.054656,-0.90072 0.1381598,-0.418248 l 0.08882,0.520376 0.039478,-0.452294 c 0.023054,-0.248618 0.091318,-0.65597 0.1480262,-0.904583 l 0.1085508,-0.452293 0.029589,0.384207 c 0.062942,0.67659 0.261844,0.793884 0.2960568,0.17508 0.05361,-0.969469 0.2355904,-0.252034 0.2861851,1.113707 l 0.049341,1.249883 0.078947,-1.079663 0.08882,-1.074803 0.059213,1.634085 c 0.045629,1.301336 0.065799,1.48603 0.128289,0.904582 0.043259,-0.40258 0.1201529,-0.655137 0.1677626,-0.559287 0.047607,0.09585 0.107196,-0.356492 0.1282881,-1.006715 0.021094,-0.650222 0.074809,-1.559305 0.1282889,-2.018289 0.082058,-0.704123 0.1119969,-0.519832 0.1578971,1.181795 0.049506,1.835219 0.063752,1.919521 0.1381588,0.938626 0.06199,-0.817288 0.08652,-0.949885 0.128289,-0.554419 l 0.05921,0.520375 0.08881,-0.520375 0.08882,-0.520378 0.05921,0.37934 c 0.03401,0.239029 0.08622,0.03229 0.138159,-0.554421 0.07367,-0.832203 0.08486,-0.725786 0.13816,0.938626 l 0.05921,1.877253 0.07895,-1.527091 0.07895,-1.531956 0.06908,2.188509 0.05921,2.19337 0.07895,-2.713751 c 0.0367,-1.317563 0.06144,-1.950774 0.07895,-2.032882 0.01184,0.06948 0.02356,0.398033 0.03948,0.953217 0.05026,1.753431 0.243529,2.520481 0.315793,1.254746 l 0.03948,-0.729501 0.07895,0.729501 c 0.06355,0.59333 0.102766,0.678325 0.1875,0.452292 0.05735,-0.152991 0.107699,-0.486824 0.108551,-0.73923 8.47e-4,-0.252405 0.03709,-0.705159 0.08882,-1.006713 0.09298,-0.542093 0.100872,-0.545886 0.27632,-0.30639 0.09759,0.133227 0.181599,0.392196 0.1875,0.573873 0.0076,0.234508 0.06677,0.330711 0.207237,0.330711 0.265585,0 0.500287,-0.35842 0.52303,-0.792728 0.01753,-0.334549 0.03025,-0.341413 0.128289,-0.111856 0.08376,0.196123 0.104899,0.14305 0.128288,-0.277212 0.01595,-0.286864 0.08588,-0.664379 0.148026,-0.836495 0.06761,-0.187256 0.126891,0.806066 0.148026,2.470584 0.02114,1.664517 0.08041,2.652978 0.148025,2.465716 0.06215,-0.172116 0.122763,-0.624226 0.13816,-1.006714 0.01539,-0.382487 0.07253,-0.914055 0.128289,-1.181794 l 0.09868,-0.486334 0.05921,0.588464 c 0.03332,0.370565 0.07862,0.04982 0.128289,-0.865675 l 0.07895,-1.46387 0.04934,1.2207 c 0.02521,0.669351 0.09093,1.498972 0.148026,1.843209 l 0.09868,0.622508 0.03948,-0.904582 c 0.03388,-0.974918 0.338362,-1.9577 0.463819,-1.493046 0.03771,0.139679 0.08263,-0.01094 0.108551,-0.350164 0.02486,-0.325114 0.07725,-0.489062 0.108552,-0.364752 0.03452,0.137092 0.133602,0.228577 0.256582,0.228577 0.157733,0 0.206666,-0.127467 0.226975,-0.573873 0.01936,-0.425401 0.04051,-0.479835 0.07895,-0.209125 0.02848,0.200805 0.113945,0.364755 0.1875,0.364755 0.07355,0 0.143436,0.104268 0.157897,0.228577 0.01446,0.124308 0.06973,-0.03963 0.118422,-0.364754 0.06165,-0.41168 0.107387,-0.02377 0.148026,1.283926 l 0.04934,1.877253 0.07895,-2.052333 0.07895,-2.052334 0.05921,2.193372 c 0.05028,1.798313 0.08184,2.015087 0.148026,1.215838 l 0.07895,-0.972671 0.06908,0.972671 c 0.06852,0.940941 0.07656,0.924637 0.118422,-0.520376 0.05691,-1.964453 0.24343,-2.626327 0.305922,-1.079663 0.02677,0.663152 0.07368,0.957465 0.118424,0.729501 0.0736,-0.375069 0.07531,-0.370533 0.157896,0.209124 l 0.08882,0.593331 0.03948,-0.802451 c 0.02867,-0.511558 0.07923,-0.71011 0.138159,-0.554419 l 0.08882,0.243168 0.118422,-0.311256 c 0.318536,-0.891217 0.335039,-0.899166 0.384871,-0.141037 0.04177,0.635474 0.05828,0.569005 0.128289,-0.520377 l 0.07895,-1.254744 0.05921,1.672994 c 0.04994,1.425226 0.06785,1.548597 0.138159,0.865676 l 0.07895,-0.797588 0.07895,0.797588 0.06907,0.802452 0.02959,-0.782998 c 0.01661,-0.430295 0.0852,-0.782998 0.157897,-0.782998 0.0727,0 0.156198,0.104268 0.1875,0.228578 0.0313,0.124309 0.08093,-0.198552 0.108546,-0.714911 l 0.04934,-0.938626 0.08882,0.729501 c 0.04722,0.401611 0.103227,0.659936 0.118423,0.573874 0.01519,-0.08607 0.09015,-0.155629 0.167762,-0.155629 0.07761,0 0.148714,-0.178864 0.157897,-0.398797 0.01373,-0.329095 0.02978,-0.366241 0.118423,-0.194534 0.09232,0.178796 0.120147,0.157577 0.148025,-0.17022 L 20,11.922668 z" id="path53-4" />
    <path style="fill:url(#linearGradient4121);stroke:none" inkscape:connector-curvature="0" d="m 8,1 10,0 c 1.160474,0 2,1.005258 2,2 l 0,17 -6.652508,0 z" id="path57-5-9" sodipodi:nodetypes="cssccc" />
    <path style="opacity:0.4;color:black;fill:black;fill-opacity:1;fill-rule:nonzero;stroke:none;stroke-width:1;marker:none;visibility:visible;display:inline;overflow:visible;enable-background:accumulate" id="path3956" d="m 12.191953,1.9999944 c -0.491747,-0.060343 -0.55984,0.3765993 -0.508613,0.7242521 -0.0046,3.4594766 0.0093,6.9221245 -0.007,10.3796215 -0.120101,0.119 -0.350582,-0.07672 -0.503595,-0.02592 -1.666989,-0.09636 -3.4883259,1.049943 -3.6549759,2.704237 -0.1964091,1.315262 1.2690204,2.397433 2.5758159,2.192866 1.646651,-0.165737 2.933106,-1.741661 2.718429,-3.297415 0.0046,-2.739226 -0.0093,-5.481624 0.007,-8.2188691 0.112241,-0.1219052 0.279651,0.1376495 0.397887,0.1503793 1.32418,0.7430229 2.495528,1.9682968 2.574598,3.4941618 0.08695,1.192302 -0.293742,2.358993 -0.722055,3.464318 1.435196,-1.675384 1.894633,-4.119431 0.89733,-6.0983097 C 15.456725,6.3206099 14.306115,5.6127015 13.662444,4.5457481 13.187096,3.8327429 12.825325,3.0367606 12.71214,2.1949979 12.618945,2.0194676 12.373476,1.9980938 12.191953,1.9999824 z" inkscape:connector-curvature="0" />
    <path inkscape:connector-curvature="0" d="m 12.191953,3.0056281 c -0.491747,-0.060322 -0.55984,0.3764666 -0.508613,0.7239969 -0.0046,3.4582578 0.0093,6.919686 -0.007,10.375965 -0.120101,0.118958 -0.350582,-0.07669 -0.503595,-0.02591 -1.666989,-0.09633 -3.4883259,1.049573 -3.6549759,2.703285 -0.1964091,1.314798 1.2690204,2.396588 2.5758159,2.192093 1.646651,-0.165679 2.933106,-1.741047 2.718429,-3.296253 0.0046,-2.738261 -0.0093,-5.479693 0.007,-8.2159743 0.112241,-0.1218622 0.279651,0.1376011 0.397887,0.1503264 1.32418,0.7427609 2.495528,1.9676039 2.574598,3.4929309 0.08695,1.191882 -0.293742,2.358162 -0.722055,3.463098 1.435196,-1.674794 1.894633,-4.11798 0.89733,-6.096162 C 15.456725,7.3247214 14.306115,6.6170624 13.662444,5.5504849 13.187096,4.8377309 12.825325,4.042029 12.71214,3.2005629 12.618945,3.0250944 12.373476,3.0037282 12.191953,3.0056161 z" id="path61" style="fill:white;stroke:none" />
</svg>
