<?xml version="1.0" encoding="UTF-8" standalone="no"?>
<!-- Created with Inkscape (http://www.inkscape.org/) -->

<svg
     xmlns:dc="http://purl.org/dc/elements/1.1/"
     xmlns:cc="http://creativecommons.org/ns#"
     xmlns:rdf="http://www.w3.org/1999/02/22-rdf-syntax-ns#"
     xmlns:svg="http://www.w3.org/2000/svg"
     xmlns="http://www.w3.org/2000/svg"
     xmlns:xlink="http://www.w3.org/1999/xlink"
     xmlns:sodipodi="http://sodipodi.sourceforge.net/DTD/sodipodi-0.dtd"
     xmlns:inkscape="http://www.inkscape.org/namespaces/inkscape"
     width="22"
     height="22"
     id="svg4700"
     version="1.1"
     inkscape:version="0.48.3.1 r9886"
     sodipodi:docname="image-x-generic.svg">
    <defs
         id="defs4702">
        <linearGradient
             id="linearGradient4050">
            <stop
                 id="stop4052"
                 offset="0"
                 style="stop-color:#ffffff;stop-opacity:1;" />
            <stop
                 id="stop4054"
                 offset="1"
                 style="stop-color:#ffffff;stop-opacity:0;" />
        </linearGradient>
        <filter
             id="filter3174"
             color-interpolation-filters="sRGB">
            <feGaussianBlur
                 stdDeviation="1.71"
                 id="feGaussianBlur3176" />
        </filter>
        <linearGradient
             gradientTransform="scale(1.0058652,0.994169)"
             gradientUnits="userSpaceOnUse"
             id="ButtonShadow"
             y2="7.0165396"
             x2="45.447727"
             y1="92.539597"
             x1="45.447727">
            <stop
                 offset="0"
                 style="stop-color:#000000;stop-opacity:1"
                 id="stop3750" />
            <stop
                 offset="1"
                 style="stop-color:#000000;stop-opacity:0.58823532"
                 id="stop3752" />
        </linearGradient>
        <linearGradient
             y2="24.20339"
             y1="6.1016898"
             x2="0"
             id="linearGradient4071-6"
             gradientUnits="userSpaceOnUse">
            <stop
                 id="stop24-5"
                 stop-color="#bf914e"
                 offset="0"
                 style="stop-color:#c78a33;stop-opacity:1;" />
            <stop
                 id="stop26-0"
                 stop-color="#8b5810"
                 offset="1"
                 style="stop-color:#66400c;stop-opacity:1;" />
        </linearGradient>
        <radialGradient
             xlink:href="#linearGradient5060"
             r="117.14286"
             id="radialGradient3131"
             gradientUnits="userSpaceOnUse"
             gradientTransform="matrix(-0.062142,0,0,0.029001,46.53201,28.085503)"
             cy="486.64789"
             cx="605.71429" />
        <radialGradient
             xlink:href="#linearGradient5060"
             r="117.14286"
             id="radialGradient3129"
             gradientUnits="userSpaceOnUse"
             gradientTransform="matrix(0.062142,0,0,0.029001,1.636502,28.085503)"
             cy="486.64789"
             cx="605.71429" />
        <linearGradient
             x2="-5.8431101"
             x1="-42.696152"
             id="linearGradient3157-5-2"
             gradientUnits="userSpaceOnUse">
            <stop
                 id="stop29"
                 stop-color="#ae802b"
                 offset="0" />
            <stop
                 id="stop31"
                 stop-color="#e1c18b"
                 offset="1" />
        </linearGradient>
        <linearGradient
             x2="41.369011"
             x1="6.4056101"
             id="linearGradient998"
             gradientUnits="userSpaceOnUse">
            <stop
                 id="stop19"
                 stop-opacity=".5"
                 stop-color="#fff"
                 offset="0" />
            <stop
                 id="stop21"
                 stop-opacity="0"
                 stop-color="#fff"
                 offset="1" />
        </linearGradient>
        <linearGradient
             y2="45.761669"
             y1="38.718601"
             x2="0"
             id="linearGradient3127"
             gradientUnits="userSpaceOnUse">
            <stop
                 id="stop12"
                 stop-opacity="0"
                 offset="0" />
            <stop
                 id="stop14"
                 offset=".5" />
            <stop
                 id="stop16"
                 stop-opacity="0"
                 offset="1" />
        </linearGradient>
        <linearGradient
             id="linearGradient5060">
            <stop
                 id="stop7"
                 offset="0" />
            <stop
                 id="stop9"
                 stop-opacity="0"
                 offset="1" />
        </linearGradient>
        <linearGradient
             inkscape:collect="always"
             xlink:href="#linearGradient998"
             id="linearGradient3069"
             gradientUnits="userSpaceOnUse"
             x1="6.4056101"
             x2="41.369011"
             gradientTransform="matrix(0,1,-1,0,25.470401,15.180019)" />
        <linearGradient
             inkscape:collect="always"
             xlink:href="#linearGradient3157-5-2"
             id="linearGradient3075"
             gradientUnits="userSpaceOnUse"
             x1="-42.696152"
             x2="-5.8431101"
             gradientTransform="matrix(0,-0.57023713,-0.5702371,0,-1.8295158,22.379162)" />
        <linearGradient
             x2="-5.8431101"
             x1="-42.696152"
             id="linearGradient3157-5-2-4"
             gradientUnits="userSpaceOnUse">
            <stop
                 id="stop29-2"
                 stop-color="#ae802b"
                 offset="0" />
            <stop
                 id="stop31-9"
                 stop-color="#e1c18b"
                 offset="1" />
        </linearGradient>
        <linearGradient
             y2="22.4515"
             y1="-8.7496004"
             x2="34.056301"
             x1="8.7800999"
             id="linearGradient3179"
             gradientUnits="userSpaceOnUse">
            <stop
                 id="stop36"
                 stop-color="#fff"
                 offset="0" />
            <stop
                 id="stop38"
                 stop-opacity="0"
                 stop-color="#fff"
                 offset="1" />
        </linearGradient>
        <linearGradient
             y2="50.269901"
             y1="33.578201"
             x2="19.5851"
             x1="17.7101"
             id="linearGradient20025-9"
             gradientUnits="userSpaceOnUse">
            <stop
                 id="stop31-5"
                 stop-color="#502d16"
                 offset="0" />
            <stop
                 id="stop33"
                 offset="1" />
        </linearGradient>
        <linearGradient
             y2="34.685299"
             y1="3.7228"
             x2="21.1047"
             x1="14.8565"
             id="linearGradient20028-0"
             gradientUnits="userSpaceOnUse">
            <stop
                 id="stop26"
                 stop-color="#a40"
                 offset="0" />
            <stop
                 id="stop28"
                 stop-color="#fea"
                 offset="1" />
        </linearGradient>
        <linearGradient
             y2="41.825802"
             y1="4.6476998"
             x2="0"
             id="linearGradient4523"
             gradientUnits="userSpaceOnUse">
            <stop
                 id="stop21-8"
                 stop-opacity=".669"
                 stop-color="#fff"
                 offset="0" />
            <stop
                 id="stop23"
                 stop-opacity="0"
                 stop-color="#fff"
                 offset="1" />
        </linearGradient>
        <filter
             y="-0.2705"
             x="-0.2281"
             width="1.4563"
             id="filter20101"
             height="1.5409"
             color-interpolation-filters="sRGB">
            <feGaussianBlur
                 id="feGaussianBlur13"
                 stdDeviation="16.981" />
        </filter>
        <filter
             y="-0.63990003"
             x="-0.1182"
             width="1.2364"
             id="filter3914"
             height="2.2797999"
             color-interpolation-filters="sRGB">
            <feGaussianBlur
                 id="feGaussianBlur10"
                 stdDeviation="1.872" />
        </filter>
        <linearGradient
             inkscape:collect="always"
             xlink:href="#linearGradient3179"
             id="linearGradient3087"
             gradientUnits="userSpaceOnUse"
             x1="8.7800999"
             y1="-8.7496004"
             x2="34.056301"
             y2="22.4515"
             gradientTransform="matrix(0.47824931,0,0,0.46644355,-0.08479784,25.580912)" />
        <linearGradient
             inkscape:collect="always"
             xlink:href="#linearGradient20025-9"
             id="linearGradient3097"
             gradientUnits="userSpaceOnUse"
             x1="17.7101"
             y1="33.578201"
             x2="19.5851"
             y2="50.269901"
             gradientTransform="matrix(0.50011411,0,0,0.47055589,-1.0003442,26.78143)" />
        <linearGradient
             inkscape:collect="always"
             xlink:href="#linearGradient4523-2"
             id="linearGradient3094-8"
             gradientUnits="userSpaceOnUse"
             y1="4.6476998"
             x2="0"
             y2="41.825802"
             gradientTransform="matrix(0.46913793,0,0,0.47055591,-1.0547791,25.783874)" />
        <linearGradient
             y2="41.825802"
             y1="4.6476998"
             x2="0"
             id="linearGradient4523-2"
             gradientUnits="userSpaceOnUse">
            <stop
                 id="stop21-8-3"
                 stop-opacity=".669"
                 stop-color="#fff"
                 offset="0" />
            <stop
                 id="stop23-7"
                 stop-opacity="0"
                 stop-color="#fff"
                 offset="1" />
        </linearGradient>
        <linearGradient
             y2="41.825802"
             x2="0"
             y1="4.6476998"
             gradientTransform="matrix(0.4690309,0,0,0.4690309,-1.604211,-1.118295)"
             gradientUnits="userSpaceOnUse"
             id="linearGradient3119"
             xlink:href="#linearGradient4523-2"
             inkscape:collect="always" />
        <linearGradient
             inkscape:collect="always"
             xlink:href="#linearGradient20028-0-1"
             id="linearGradient3100-7"
             gradientUnits="userSpaceOnUse"
             x1="60.726425"
             y1="4.0890627"
             x2="68.331146"
             y2="35.364891"
             gradientTransform="matrix(0.525989,0,0,0.5115771,-27.941318,24.908129)" />
        <linearGradient
             y2="34.685299"
             y1="3.7228"
             x2="21.1047"
             x1="14.8565"
             id="linearGradient20028-0-1"
             gradientUnits="userSpaceOnUse">
            <stop
                 id="stop26-7"
                 stop-color="#a40"
                 offset="0" />
            <stop
                 id="stop28-4"
                 stop-color="#fea"
                 offset="1" />
        </linearGradient>
        <linearGradient
             y2="34.685299"
             x2="21.1047"
             y1="3.7228"
             x1="14.8565"
             gradientTransform="matrix(0.5,0,0,0.5,-2,-1.482)"
             gradientUnits="userSpaceOnUse"
             id="linearGradient3171"
             xlink:href="#linearGradient20028-0-1"
             inkscape:collect="always" />
    </defs>
    <sodipodi:namedview
         id="base"
         pagecolor="#ffffff"
         bordercolor="#666666"
         borderopacity="1.0"
         inkscape:pageopacity="0.0"
         inkscape:pageshadow="2"
         inkscape:zoom="22.627417"
         inkscape:cx="15.98776"
         inkscape:cy="15.160661"
         inkscape:current-layer="layer1"
         showgrid="true"
         inkscape:grid-bbox="true"
         inkscape:document-units="px"
         inkscape:window-width="1280"
         inkscape:window-height="976"
         inkscape:window-x="0"
         inkscape:window-y="24"
         inkscape:window-maximized="1"
         inkscape:snap-to-guides="false"
         inkscape:snap-grids="true">
        <inkscape:grid
             type="xygrid"
             id="grid1021"
             empspacing="5"
             visible="true"
             enabled="true"
             snapvisiblegridlinesonly="true" />
    </sodipodi:namedview>
    <metadata
         id="metadata4705">
        <rdf:RDF>
            <cc:Work
                 rdf:about="">
                <dc:format>image/svg+xml</dc:format>
                <dc:type
                     rdf:resource="http://purl.org/dc/dcmitype/StillImage" />
                <dc:title />
            </cc:Work>
        </rdf:RDF>
    </metadata>
    <g
         id="layer1"
         inkscape:label="Layer 1"
         inkscape:groupmode="layer"
         transform="translate(0,-26)">
        <g
             id="layer2"
             style="display:none"
             transform="translate(5.204491,-179.6879)">
            <rect
                 width="86"
                 height="85"
                 rx="6"
                 ry="6"
                 x="5"
                 y="7"
                 id="rect3745"
                 style="opacity:0.9;fill:url(#ButtonShadow);fill-opacity:1;fill-rule:nonzero;stroke:none;filter:url(#filter3174)" />
        </g>
        <g
             id="layer4"
             transform="translate(5.204491,-179.6879)" />
        <rect
             style="color:black;fill:#b3b3b3;fill-opacity:1;fill-rule:nonzero;stroke:#696969;stroke-width:1;stroke-linecap:butt;stroke-linejoin:miter;stroke-miterlimit:4;stroke-opacity:1;stroke-dasharray:none;stroke-dashoffset:0;marker:none;visibility:visible;display:inline;overflow:visible;enable-background:accumulate"
             id="rect3874"
             width="21.000002"
             height="21.00004"
             x="0.4999986"
             y="26.499981"
             ry="2"
             rx="1.9999999" />
        <rect
             width="19.016144"
             height="19.610952"
             ry="1"
             x="1.5116708"
             y="27.497726"
             id="rect4513"
             style="opacity:0.5;color:black;fill:none;stroke:url(#linearGradient3094-8);stroke-width:1.02429998;stroke-linecap:butt;stroke-linejoin:miter;stroke-miterlimit:4;stroke-opacity:1;stroke-dasharray:none;stroke-dashoffset:0;marker:none;visibility:visible;display:inline;overflow:visible;enable-background:accumulate"
             rx="0.99999994" />
        <rect
             style="color:black;fill:url(#linearGradient3100-7);fill-opacity:1;fill-rule:evenodd;stroke:none;stroke-width:1;marker:none;visibility:visible;display:inline;overflow:visible;enable-background:accumulate"
             id="rect3154"
             y="27"
             x="1.0001128"
             ry="1.5"
             height="20"
             width="20"
             rx="1.5" />
        <path
             style="fill:url(#linearGradient3097)"
             inkscape:connector-curvature="0"
             d="M 21,43.000023 21,45.5 c 0,0.888936 -0.621356,1.500083 -1.5,1.5 L 2.5,46.9984 C 1.551621,46.998304 1.0001127,46.50043 1.0001127,45.5 l 0,-3.5 C 7.4981452,39.816433 16.756381,42.62565 21,42.999977 z"
             id="path46"
             sodipodi:nodetypes="cssssccc" />
        <path
             style="fill-rule:evenodd;filter:url(#filter20101)"
             inkscape:connector-curvature="0"
             d="m 1228.851,1167.465 c 9.8774,20.4601 -118.239,114.5668 -170.341,86.8372 -25.2809,-13.455 16.5009,-93.4433 50.4535,-110.3727 31.395,-15.6541 49.112,-21.3388 76.7242,-26.1056 3.0963,-0.5345 10.5769,-13.6321 12.522,-7.5167 2.7177,8.5443 5.4661,10.3486 9.0455,14.4741 10.8909,12.5528 16.5879,37.072 21.5958,42.6837 z"
             transform="matrix(0.03006236,0,0,0.0210856,-29.643779,17.905176)"
             id="path50" />
        <path
             style="fill:#4a351d"
             inkscape:connector-curvature="0"
             id="path54"
             d="m 5.4216123,39.524367 c 0.024236,0.02591 0.064695,0.02553 0.092171,0.04619 0.011583,0.0087 0.019144,0.02208 0.030727,0.03079 0.0092,0.0069 0.021195,0.009 0.030727,0.0154 0.018074,0.01208 0.028707,0.03313 0.046081,0.04619 0.0092,0.0069 0.022635,0.0073 0.030727,0.0154 9.852e-4,9.88e-4 0.028817,0.05872 0.030727,0.06158 0.015364,0.02309 0.030727,0.0154 0.046081,0.04619 0.0046,0.0091 -0.0025,0.02084 0,0.03079 0.0028,0.01114 0.010242,0.02053 0.015364,0.03079 l 0.04608,0.09238 c 0.0051,0.01026 0.012583,0.01966 0.015364,0.03079 0.0025,0.0099 -0.0032,0.02105 0,0.03079 0.0023,0.0069 0.010242,0.01026 0.015364,0.0154 0.0051,0.01026 0.012583,0.01966 0.015364,0.03079 0.0025,0.0099 -0.0032,0.02105 0,0.03079 0.0023,0.0069 0.013073,0.0085 0.015363,0.0154 0.0032,0.0097 -0.0032,0.02105 0,0.03079 0.0023,0.0069 0.012123,0.0089 0.015364,0.0154 0.0046,0.0091 -0.0046,0.02161 0,0.03079 0.0032,0.0065 0.012123,0.0089 0.015364,0.0154 0.002,0.004 0,0.08146 0,0.09238 0,0.0051 -0.0036,0.01177 0,0.0154 0.0036,0.0036 0.011743,-0.0036 0.015363,0 0.0036,0.0036 0,0.01026 0,0.0154 v 0.0154 c 0,0.01092 -0.002,0.0884 0,0.09238 0.0032,0.0065 0.012123,0.0089 0.015364,0.0154 0.0016,0.0031 0.0022,0.04401 0,0.04619 -0.0068,0.0068 -0.029017,-0.01198 -0.015364,0.0154 0.0032,0.0065 0.015364,0.0081 0.015364,0.0154 0,0.0051 -0.011743,-0.0036 -0.015364,0 -7.042e-4,7.06e-4 0,0.06972 0,0.07698 0,0.0051 0.0036,0.01177 0,0.0154 -0.0036,0.0036 -0.011743,-0.0036 -0.015363,0 -0.0031,0.0031 0.003,0.04008 0,0.04619 -0.050952,0.05107 0.0072,-0.01451 -0.015364,0.03079 -0.0092,0.01847 -0.036868,0.02771 -0.046091,0.04619 -0.0023,0.0046 0.0036,0.01177 0,0.0154 -0.0036,0.0036 -0.011743,-0.0036 -0.015364,0 -0.0072,0.0072 0.0046,0.02161 0,0.03079 -0.0065,0.01298 -0.024246,0.01781 -0.030727,0.03079 -0.0023,0.0046 0.0023,0.01081 0,0.0154 -0.0032,0.0065 -0.012123,0.0089 -0.015363,0.0154 -0.0023,0.0046 0.0023,0.0108 0,0.0154 -0.0032,0.0065 -0.012123,0.0089 -0.015364,0.0154 -0.0023,0.0046 0.0036,0.01177 0,0.0154 -0.0036,0.0036 -0.011743,-0.0036 -0.015364,0 -0.031787,0.03185 0.048571,-0.0012 -0.015363,0.03079 -0.0092,0.0046 -0.023485,-0.0072 -0.030727,0 -0.0036,0.0036 0.0036,0.01177 0,0.0154 -0.0036,0.0036 -0.010783,-0.0023 -0.015364,0 -0.0065,0.0032 -0.0089,0.01215 -0.015364,0.0154 -0.0092,0.0046 -0.021565,-0.0046 -0.030727,0 -0.012953,0.0065 -0.017774,0.0243 -0.030727,0.03079 -0.0046,0.0023 -0.010783,-0.0023 -0.015364,0 -0.0065,0.0032 -0.0089,0.01215 -0.015364,0.0154 -0.0046,0.0023 -0.010782,-0.0023 -0.015364,0 -0.0065,0.0032 -0.010242,0.01026 -0.015364,0.0154 l -0.015363,0.0154 c -0.050952,0.05107 0.014483,-0.0072 -0.030727,0.0154 -0.012953,0.0065 -0.017774,0.0243 -0.030727,0.03079 -0.0092,0.0046 -0.021565,-0.0046 -0.030727,0 -0.0065,0.0032 -0.0089,0.01215 -0.015364,0.0154 -0.0092,0.0046 -0.021565,-0.0046 -0.030727,0 -0.0065,0.0032 -0.0089,0.01215 -0.015364,0.0154 -0.0092,0.0046 -0.021565,-0.0046 -0.030727,0 -0.0065,0.0032 -0.0089,0.01215 -0.015364,0.0154 -0.0061,0.003 -0.04295,-0.0031 -0.046081,0 -0.0036,0.0036 0.0036,0.01177 0,0.0154 -0.0072,0.0072 -0.021565,-0.0046 -0.030727,0 -0.0065,0.0032 -0.0089,0.01215 -0.015364,0.0154 -0.0046,0.0023 -0.010782,-0.0023 -0.015364,0 -0.0065,0.0032 -0.0089,0.01215 -0.015363,0.0154 -0.04521,0.02265 0.020225,-0.03567 -0.030727,0.0154 -0.036028,0.03611 0.010862,-0.0036 -0.046091,0.0154 -0.013743,0.0046 -0.017774,0.0243 -0.030727,0.03079 -0.0046,0.0023 -0.010782,-0.0023 -0.015364,0 -0.0065,0.0032 -0.0089,0.01215 -0.015363,0.0154 -0.0046,0.0023 -0.010242,0 -0.015364,0 h -0.030727 -0.092171 -0.076808 -0.015364 c -0.0051,0 -0.010782,-0.0023 -0.015364,0 -0.0065,0.0032 -0.0089,0.01215 -0.015363,0.0154 -0.0093,0.0046 -0.082839,-0.0046 -0.092171,0 -0.0065,0.0032 -0.0089,0.01215 -0.015364,0.0154 -0.0046,0.0023 -0.011743,-0.0036 -0.015364,0 -0.0036,0.0036 0.0036,0.01177 0,0.0154 -0.0036,0.0036 -0.015363,0.0051 -0.015363,0 0,-0.0051 0.010242,0 0.015363,0 h 0.061444 0.076808 c 0.0051,0 0.010502,-0.0016 0.015364,0 0.010862,0.0036 0.019614,0.01261 0.030727,0.0154 0.011683,0.0029 0.063945,0 0.076808,0 0.0051,0 0.010502,-0.0016 0.015364,0 0.010862,0.0036 0.019614,0.01261 0.030727,0.0154 0.012083,0.003 0.076197,0 0.092171,0 h 0.1075335 0.030727 c 0.0051,0 0.010502,0.0016 0.015363,0 0.010862,-0.0036 0.019855,-0.01177 0.030727,-0.0154 0.010562,-0.0035 0.037018,0.0045 0.04608,0 0.0065,-0.0032 0.0089,-0.01215 0.015364,-0.0154 0.0092,-0.0046 0.023485,0.0072 0.030727,0 0.0036,-0.0036 -0.0036,-0.01177 0,-0.0154 0.0036,-0.0036 0.010242,0 0.015363,0 0.0056,0 0.060824,-6.11e-4 0.061444,0 0.0036,0.0036 -0.0036,0.01177 0,0.0154 0.0036,0.0036 0.010242,0 0.015363,0 0.010893,0 0.0882,0.002 0.092171,0 0.0065,-0.0032 0.0089,-0.01215 0.015363,-0.0154 0.021195,-0.01061 0.013743,0.01864 0.030727,-0.0154 0.0023,-0.0046 -0.0036,-0.01177 0,-0.0154 0.0036,-0.0036 0.010782,0.0023 0.015364,0 0.0065,-0.0032 0.0089,-0.01215 0.015364,-0.0154 0.0046,-0.0023 0.011743,0.0036 0.015363,0 0.0036,-0.0036 -0.0036,-0.01177 0,-0.0154 0.0036,-0.0036 0.011743,-0.0036 0.015364,0 0.0036,0.0036 0.0036,0.01177 0,0.0154 -0.0036,0.0036 -0.011743,-0.0036 -0.015364,0 -0.0036,0.0036 0,0.01026 0,0.0154 l -0.030727,0.0154 -0.092171,0.04619 c -0.010242,0.0051 -0.019615,0.01261 -0.030727,0.0154 -0.0099,0.0025 -0.021215,-0.0038 -0.030727,0 -0.017144,0.0069 -0.028937,0.02392 -0.046091,0.03079 -0.0095,0.0038 -0.021005,-0.0032 -0.030727,0 -0.0069,0.0023 -0.010242,0.01026 -0.015364,0.0154 -0.010242,0.0051 -0.019855,0.01177 -0.030727,0.0154 -0.0049,0.0016 -0.010242,0 -0.015364,0 -0.0051,0.0051 -0.0089,0.01215 -0.015364,0.0154 -0.0046,0.0023 -0.011743,-0.0036 -0.015364,0 -0.0036,0.0036 0.0036,0.01177 0,0.0154 -0.0036,0.0036 -0.011743,-0.0036 -0.015363,0 -0.0036,0.0036 0.0036,0.01177 0,0.0154 -0.0036,0.0036 -0.011743,-0.0036 -0.015364,0 -0.0077,0.0077 0.0077,0.03849 0,0.04619 -0.0036,0.0036 -0.010242,0 -0.015364,0 0,0.0051 0.0023,0.0108 0,0.0154 -0.0032,0.0065 -0.010242,0.02053 -0.015363,0.0154 -0.0051,-0.0051 0.0089,-0.01215 0.015363,-0.0154 0.0046,-0.0023 0.010783,0.0023 0.015364,0 0.0065,-0.0032 0.0093,-0.01137 0.015364,-0.0154 0.019054,-0.01273 0.0424,-0.01806 0.061444,-0.03079 0.006,-0.004 0.0093,-0.01137 0.015364,-0.0154 0.019054,-0.01273 0.040969,-0.02053 0.061444,-0.03079 0.020485,-0.01026 0.039719,-0.02354 0.061444,-0.03079 0.0049,-0.0016 0.010502,0.0016 0.015363,0 0.093141,-0.03112 -0.031697,3.29e-4 0.061444,-0.03079 0.0049,-0.0016 0.010783,0.0023 0.015364,0 0.037969,-0.01902 -0.0053,-0.0154 0.030727,-0.0154 0.0037,0 0.04559,5.18e-4 0.046081,0 0.0036,-0.0036 -0.0036,-0.01177 0,-0.0154 0.0036,-0.0036 0.010782,0.0023 0.015363,0 0.0065,-0.0032 0.0089,-0.01215 0.015364,-0.0154 0.0046,-0.0023 0.010782,0.0023 0.015364,0 0.0065,-0.0032 0.0089,-0.01215 0.015363,-0.0154 0.0046,-0.0023 0.010782,0.0023 0.015364,0 0.0065,-0.0032 0.0089,-0.01215 0.015364,-0.0154 0.0092,-0.0046 0.021565,0.0046 0.030727,0 0.0065,-0.0032 0.0089,-0.01215 0.015364,-0.0154 0.0031,-0.0016 0.04392,-0.0022 0.046091,0 0.0036,0.0036 -0.0036,0.01177 0,0.0154 0.0036,0.0036 0.011743,-0.0036 0.015363,0 0.0036,0.0036 -0.0036,0.01177 0,0.0154 0.0036,0.0036 0.010783,-0.0023 0.015364,0 0.0065,0.0032 0.0089,0.01215 0.015363,0.0154 0.0046,0.0023 0.010783,-0.0023 0.015364,0 0.0065,0.0032 0.010242,0.01026 0.015363,0.0154 0.0051,0.0051 0.012123,0.0089 0.015364,0.0154 0.0023,0.0046 -0.0023,0.0108 0,0.0154 0.0032,0.0065 0.012123,0.0089 0.015364,0.0154 0.0023,0.0046 -0.0023,0.0108 0,0.0154 0.0032,0.0065 0.012123,0.0089 0.015363,0.0154 0.0023,0.0046 -0.0023,0.0108 0,0.0154 0.0032,0.0065 0.012123,0.0089 0.015364,0.0154 0.0023,0.0046 -0.0036,0.01177 0,0.0154 0.0036,0.0036 0.011743,-0.0036 0.015364,0 0.0072,0.0072 -0.0072,0.02354 0,0.03079 0.0036,0.0036 0.011743,-0.0036 0.015363,0 0.0036,0.0036 -0.0023,0.0108 0,0.0154 0.0032,0.0065 0.012123,0.0089 0.015364,0.0154 0.0046,0.0092 -0.0046,0.02161 0,0.03079 0.0032,0.0065 0.012123,0.0089 0.015364,0.0154 0.0023,0.0046 0,0.01026 0,0.0154 v 0.0154 c 0,0.0051 0.0051,0.0154 0,0.0154 -0.0051,0 -0.0023,-0.0108 0,-0.0154 0.0032,-0.0065 0.012123,-0.0089 0.015363,-0.0154 0.0023,-0.0046 0,-0.05096 0,-0.06159 v -0.09238 c 0,-0.01026 -0.0032,-0.02106 0,-0.03079 0.0023,-0.0069 0.013073,-0.0085 0.015364,-0.0154 0.0032,-0.0097 -0.0025,-0.02084 0,-0.03079 0.0028,-0.01114 0.011743,-0.01991 0.015364,-0.03079 0.0032,-0.0097 -0.0072,-0.02354 0,-0.03079 0.0036,-0.0036 0.011743,0.0036 0.015363,0 0.0036,-0.0036 -0.0051,-0.0154 0,-0.0154 0.0051,0 -0.0036,0.01177 0,0.0154 0.0036,0.0036 0.011743,-0.0036 0.015364,0 0.0036,0.0036 -0.0036,0.01177 0,0.0154 0.0036,0.0036 0.011743,-0.0036 0.015364,0 0.031787,0.03185 -0.048571,-0.0012 0.015363,0.03079 0.0046,0.0023 0.010783,-0.0023 0.015364,0 0.0065,0.0032 0.0089,0.01215 0.015363,0.0154 0.0046,0.0023 0.010782,-0.0023 0.015364,0 0.0065,0.0032 0.0089,0.01215 0.015364,0.0154 7.972e-4,4.11e-4 0.04528,4.11e-4 0.04608,0 0.0065,-0.0032 0.0089,-0.01215 0.015364,-0.0154 0.0046,-0.0023 0.010242,0 0.015363,0 0.0051,0 0.010783,-0.0023 0.015364,0 0.0065,0.0032 0.0089,0.01215 0.015364,0.0154 0.0046,0.0023 0.011743,-0.0036 0.015363,0 0.0036,0.0036 -0.0023,0.0108 0,0.0154 0.0032,0.0065 0.012123,0.0089 0.015364,0.0154 0.0023,0.0046 -0.0036,0.01177 0,0.0154 0.0036,0.0036 0.011743,-0.0036 0.015364,0 0.0036,0.0036 -0.0036,0.01177 0,0.0154 0.0036,0.0036 0.015363,-0.0051 0.015363,0 0,0.0051 -0.011743,0.0036 -0.015363,0 -0.0036,-0.0036 0.0036,-0.01177 0,-0.0154 -0.0036,-0.0036 -0.011743,0.0036 -0.015364,0 -0.0072,-0.0072 0.0072,-0.02354 0,-0.03079 -0.0068,-0.0068 -0.029017,0.01198 -0.015364,-0.0154 0.002,-0.0041 0.04201,-0.04414 0.046081,-0.04619 0.0046,-0.0023 0.010783,0.0023 0.015364,0 0.0065,-0.0032 0.0089,-0.01215 0.015363,-0.0154 0.0013,-6.58e-4 0.060134,-6.58e-4 0.061444,0 0.012953,0.0065 0.017774,0.0243 0.030727,0.03079 0.04521,0.02265 -0.020225,-0.03567 0.030727,0.0154 l 0.015363,0.0154 c 0.0051,0.0051 0.0089,0.01215 0.015364,0.0154 0.0046,0.0023 0.010783,-0.0023 0.015364,0 0.0065,0.0032 0.0089,0.01215 0.015363,0.0154 0.0046,0.0023 0.010783,-0.0023 0.015364,0 0.0065,0.0032 0.0089,0.01215 0.015364,0.0154 0.0046,0.0023 0.010242,0 0.015363,0 0.0051,0.0051 0.0089,0.01215 0.015364,0.0154 0.0056,0.0028 0.066125,0 0.076808,0 0.0051,0 0.011743,-0.0036 0.015364,0 0.0036,0.0036 -0.0036,0.01177 0,0.0154 0.0072,0.0072 0.023485,-0.0072 0.030727,0 0.0036,0.0036 -0.0036,0.01177 0,0.0154 0.0036,0.0036 0.011743,-0.0036 0.015364,0 0.0036,0.0036 -0.0036,0.01177 0,0.0154 0.0036,0.0036 0.011743,-0.0036 0.015364,0 0.0036,0.0036 -0.0036,0.01177 0,0.0154 0.0036,0.0036 0.010242,0 0.015363,0 h 0.015364 c 0.0072,0 0.076117,7.05e-4 0.076808,0 0.010242,-0.01026 -0.0051,-0.02566 -0.015364,-0.0154 -0.0036,0.0036 0.0036,0.01177 0,0.0154 -0.0036,0.0036 -0.010242,0 -0.015363,0 -0.0051,0 -0.010502,0.0016 -0.015364,0 -0.010862,-0.0036 -0.019855,-0.01177 -0.030727,-0.0154 -0.014963,-0.005 -0.062174,0.0049 -0.076808,0 -0.1112744,-0.03717 0.024215,0.0044 -0.046091,-0.03079 -0.0046,-0.0023 -0.011743,0.0036 -0.015364,0 -0.0036,-0.0036 0.0023,-0.0108 0,-0.0154 -0.0032,-0.0065 -0.012123,-0.0089 -0.015363,-0.0154 -0.0028,-0.0055 0,-0.06627 0,-0.07698 0,-0.0037 -5.161e-4,-0.04569 0,-0.04619 0.0036,-0.0036 0.010242,0 0.015363,0 0.010683,0 0.071256,-0.0028 0.076808,0 0.0065,0.0032 0.0089,0.01215 0.015364,0.0154 0.0045,0.0023 0.08571,0 0.092171,0 0.0051,0 0.010783,0.0023 0.015364,0 0.0065,-0.0032 0.0089,-0.01215 0.015363,-0.0154 0.0046,-0.0023 0.010242,0 0.015364,0 h 0.015364 0.076808 0.076808 0.015364 c 0.0051,0 0.010782,-0.0023 0.015363,0 0.0065,0.0032 0.0089,0.01215 0.015364,0.0154 0.0046,0.0023 0.011743,-0.0036 0.015364,0 0.031787,0.03185 -0.048571,-0.0012 0.015363,0.03079 0.020485,0.01026 0.015364,-0.0051 0.015364,-0.0154 0,-0.0051 0.0023,-0.0108 0,-0.0154 -0.0032,-0.0065 -0.010242,-0.01026 -0.015364,-0.0154 -0.0051,-0.0051 -0.0089,-0.01215 -0.015363,-0.0154 -0.0092,-0.0046 -0.021565,0.0046 -0.030727,0 -0.012953,-0.0065 -0.017774,-0.0243 -0.030727,-0.03079 -0.0046,-0.0023 -0.011743,0.0036 -0.015364,0 -0.0036,-0.0036 0.0036,-0.01177 0,-0.0154 -0.0036,-0.0036 -0.011743,0.0036 -0.015363,0 -0.0036,-0.0036 -0.0036,-0.01177 0,-0.0154 6.101e-4,-6.12e-4 0.055803,0 0.061444,0 h 0.122895 c 0.0069,0 0.04141,-0.0023 0.046091,0 0.0065,0.0032 0.0089,0.01215 0.015364,0.0154 0.012293,0.0061 0.033798,-0.0061 0.04608,0 0.0065,0.0032 0.0089,0.01215 0.015364,0.0154 0.0097,0.0049 0.066825,-0.005 0.076808,0 0.0065,0.0032 0.0089,0.01215 0.015363,0.0154 0.0047,0.0023 0.039169,0 0.046081,0 0.013953,0 0.097562,0.0033 0.1075336,0 0.0069,-0.0023 0.0089,-0.01215 0.015363,-0.0154 0.0046,-0.0023 0.010242,0 0.015364,0 h 0.015364 c 0.010682,0 0.071256,-0.0028 0.076808,0 0.0065,0.0032 0.0089,0.01215 0.015363,0.0154 0.0046,0.0023 0.010783,-0.0023 0.015364,0 0.0065,0.0032 0.0085,0.0131 0.015364,0.0154 0.0029,9.88e-4 0.1034577,0.002 0.1075336,0 0.0065,-0.0032 0.0089,-0.01215 0.015363,-0.0154 0.0046,-0.0023 0.010782,0.0023 0.015364,0 0.0065,-0.0032 0.0089,-0.01215 0.015364,-0.0154 0.0046,-0.0023 0.011743,0.0036 0.015363,0 0.0036,-0.0036 -0.0036,-0.01177 0,-0.0154 0.0072,-0.0072 0.023475,0.0072 0.030727,0 0.021085,-0.02113 -0.027116,-0.0154 -0.030727,-0.0154 H 7.833413 c -0.015364,0 -0.031507,0.0049 -0.046091,0 -0.0069,-0.0023 -0.0085,-0.0131 -0.015364,-0.0154 -0.014573,-0.0049 -0.030727,0 -0.04608,0 H 7.6183716 c -0.0065,0 -0.0876,0.0023 -0.092171,0 -0.0065,-0.0032 -0.0089,-0.01215 -0.015364,-0.0154 -0.0046,-0.0023 -0.010502,0.0016 -0.015363,0 -0.010862,-0.0036 -0.019855,-0.01177 -0.030727,-0.0154 -0.0089,-0.003 -0.048131,0 -0.061444,0 -0.013313,0 -0.083189,0.003 -0.092171,0 -0.0069,-0.0023 -0.0089,-0.01215 -0.015364,-0.0154 -0.0098,-0.0049 -0.049081,0.0041 -0.061444,0 -0.010862,-0.0036 -0.019855,-0.01177 -0.030727,-0.0154 -0.0049,-0.0016 -0.010783,0.0023 -0.015364,0 -0.0065,-0.0032 -0.0089,-0.01215 -0.015363,-0.0154 -0.0092,-0.0046 -0.021565,0.0046 -0.030727,0 -0.050952,-0.05107 0.014483,0.0072 -0.030727,-0.0154 -0.0065,-0.0032 -0.0089,-0.01215 -0.015364,-0.0154 -0.0092,-0.0046 -0.021565,0.0046 -0.030727,0 -0.0065,-0.0032 -0.0089,-0.01215 -0.015364,-0.0154 -0.0046,-0.0023 -0.010782,0.0023 -0.015363,0 -0.0065,-0.0032 -0.0089,-0.01215 -0.015364,-0.0154 -0.0046,-0.0023 -0.010782,0.0023 -0.015363,0 -0.0065,-0.0032 -0.0089,-0.01215 -0.015364,-0.0154 -0.0046,-0.0023 -0.010783,0.0023 -0.015364,0 -0.0065,-0.0032 -0.0089,-0.01215 -0.015363,-0.0154 -0.004,-0.002 -0.081289,0 -0.092171,0 -0.0051,0 -0.011743,0.0036 -0.015363,0 -0.0036,-0.0036 0.0036,-0.01177 0,-0.0154 -0.0036,-0.0036 -0.010782,0.0023 -0.015364,0 -0.012953,-0.0065 -0.017774,-0.0243 -0.030727,-0.03079 -0.0046,-0.0023 -0.010242,0 -0.015364,0 -0.0051,-0.0051 -0.0089,-0.01215 -0.015364,-0.0154 -0.0046,-0.0023 -0.011743,0.0036 -0.015363,0 -0.0036,-0.0036 0.0036,-0.01177 0,-0.0154 -0.0036,-0.0036 -0.010242,0 -0.015364,0 -0.010892,0 -0.0882,0.002 -0.092171,0 -0.063935,-0.03203 0.016424,0.0011 -0.015364,-0.03079 -0.0036,-0.0036 -0.010782,0.0023 -0.015363,0 -0.018434,-0.0092 -0.027646,-0.03695 -0.046091,-0.04619 -0.0046,-0.0023 -0.011743,0.0036 -0.015364,0 -0.0036,-0.0036 0.0036,-0.01177 0,-0.0154 -0.0036,-0.0036 -0.010783,0.0023 -0.015364,0 -0.0065,-0.0032 -0.010242,-0.01026 -0.015363,-0.0154 -0.0051,-0.0051 -0.012123,-0.0089 -0.015364,-0.0154 -0.0023,-0.0046 0.0036,-0.01177 0,-0.0154 -0.0036,-0.0036 -0.011743,0.0036 -0.015364,0 -0.0036,-0.0036 0.0023,-0.0108 0,-0.0154 -0.0032,-0.0065 -0.012123,-0.0089 -0.015363,-0.0154 -0.0023,-0.0046 0.0023,-0.0108 0,-0.0154 -0.0032,-0.0065 -0.012123,-0.0089 -0.015364,-0.0154 -0.0023,-0.0046 0.0036,-0.01177 0,-0.0154 -0.0036,-0.0036 -0.011743,0.0036 -0.015364,0 -0.0031,-0.0031 0.003,-0.04008 0,-0.04619 -0.031967,-0.06408 0.0011,0.01646 -0.030727,-0.0154 -0.0036,-0.0036 0.0023,-0.01081 0,-0.0154 -0.0032,-0.0065 -0.012123,-0.0089 -0.015364,-0.0154 -0.0023,-0.0046 0.0023,-0.0108 0,-0.0154 -0.0032,-0.0065 -0.012123,-0.0089 -0.015364,-0.0154 -0.0046,-0.0092 0.0072,-0.02354 0,-0.03079 -0.0036,-0.0036 -0.011743,0.0036 -0.015363,0 -0.0031,-0.0031 0.003,-0.04008 0,-0.04619 -0.0032,-0.0065 -0.012123,-0.0089 -0.015364,-0.0154 -0.0048,-0.0097 0.0048,-0.06727 0,-0.07698 -0.0032,-0.0065 -0.012123,-0.0089 -0.015364,-0.0154 -10e-4,-0.0021 -10e-4,-0.09027 0,-0.09238 0.0032,-0.0065 0.012123,-0.0089 0.015364,-0.0154 0.0023,-0.0046 0,-0.01026 0,-0.0154 v -0.0154 -0.09238 c 0,-0.0069 -0.0023,-0.0415 0,-0.04619 0.0032,-0.0065 0.012123,-0.0089 0.015364,-0.0154 0.0046,-0.0092 -0.0072,-0.02354 0,-0.03079 0.0036,-0.0036 0.011743,0.0036 0.015363,0 0.0072,-0.0072 -0.0072,-0.02354 0,-0.03079 0.0036,-0.0036 0.011743,0.0036 0.015364,0 0.0072,-0.0072 -0.0072,-0.02354 0,-0.03079 0.0036,-0.0036 0.011743,0.0036 0.015364,0 0.0072,-0.0072 -0.0046,-0.02161 0,-0.03079 0.0032,-0.0065 0.012123,-0.0089 0.015364,-0.0154 0.0023,-0.0046 -0.0023,-0.0108 0,-0.0154 0.0032,-0.0065 0.012123,-0.0089 0.015363,-0.0154 0.003,-0.0061 -0.0031,-0.04304 0,-0.04619 0.0036,-0.0036 0.011743,0.0036 0.015364,0 0.0077,-0.0077 -0.0077,-0.0385 0,-0.04619 0.0036,-0.0036 0.011743,0.0036 0.015364,0 0.0072,-0.0072 -0.0072,-0.02354 0,-0.03079 0.0036,-0.0036 0.011743,0.0036 0.015363,0 0.0036,-0.0036 -0.0023,-0.0108 0,-0.0154 0.0032,-0.0065 0.012123,-0.0089 0.015364,-0.0154 0.0023,-0.0046 -0.0036,-0.01177 0,-0.0154 0.0036,-0.0036 0.011743,0.0036 0.015364,0 0.0036,-0.0036 -0.0036,-0.01177 0,-0.0154 0.0036,-0.0036 0.011743,0.0036 0.015363,0 0.0036,-0.0036 -0.0036,-0.01177 0,-0.0154 0.0036,-0.0036 0.010783,0.0023 0.015364,0 0.0065,-0.0032 0.0089,-0.01215 0.015364,-0.0154 0.0046,-0.0023 0.011743,0.0036 0.015363,0 0.0036,-0.0036 -0.0036,-0.01177 0,-0.0154 5.161e-4,-5.18e-4 0.04236,0 0.046081,0 0.0051,0 0.011743,-0.0036 0.015364,0 0.0036,0.0036 -0.0036,0.01177 0,0.0154 0.0036,0.0036 0.010242,0 0.015363,0 0.010683,0 0.071256,0.0028 0.076808,0 0.0065,-0.0032 0.0089,-0.01215 0.015363,-0.0154 0.0046,-0.0023 0.011743,0.0036 0.015364,0 0.0036,-0.0036 -0.0036,-0.01177 0,-0.0154 0.0036,-0.0036 0.010242,0 0.015364,0 h 0.015363 c 0.010893,0 0.0882,0.002 0.092171,0 0.0065,-0.0032 0.0089,-0.01215 0.015364,-0.0154 0.0046,-0.0023 0.010782,0.0023 0.015363,0 0.063935,-0.03203 -0.016424,0.0011 0.015364,-0.03079 0.0036,-0.0036 0.010782,0.0023 0.015364,0 0.028827,-0.01444 0.0066,-0.01975 0.015364,-0.04619 0.0046,-0.01376 0.024246,-0.01781 0.030727,-0.03079 0.0023,-0.0046 -0.0023,-0.0108 0,-0.0154 0.0059,-0.01177 0.04262,-0.03577 0.046091,-0.04619 0.0032,-0.0097 -0.0032,-0.02105 0,-0.03079 0.0023,-0.0069 0.012123,-0.0089 0.015364,-0.0154 0.0061,-0.01232 -0.0061,-0.03387 0,-0.04619 0.0032,-0.0065 0.012123,-0.0089 0.015363,-0.0154 0.0023,-0.0046 0,-0.01026 0,-0.0154 0,-0.03478 0.0023,0.0069 -0.015363,-0.04619 -0.0016,-0.0049 0,-0.01026 0,-0.0154 0,-0.01026 0.0032,-0.02106 0,-0.03079 -0.0023,-0.0069 -0.013073,-0.0085 -0.015364,-0.0154 -0.0032,-0.0097 0.0032,-0.02105 0,-0.03079 -0.0023,-0.0069 -0.011343,-0.0093 -0.015364,-0.0154 -0.016254,-0.02443 -0.020145,-0.05964 -0.04608,-0.07698 -0.0095,-0.0063 -0.022635,-0.0073 -0.030727,-0.0154 -0.0081,-0.0081 -0.0085,-0.02161 -0.015364,-0.03079 -0.0087,-0.01161 -0.020485,-0.02053 -0.030727,-0.03079 -0.0051,-0.0051 -0.0096,-0.01104 -0.015364,-0.0154 -0.014773,-0.01111 -0.031667,-0.01923 -0.04608,-0.03079 -0.011313,-0.009 -0.019144,-0.02208 -0.030727,-0.03079 -0.0092,-0.0069 -0.021565,-0.0085 -0.030727,-0.0154 -0.023175,-0.01742 -0.038829,-0.04345 -0.061444,-0.06158 -0.028837,-0.02311 -0.063334,-0.03846 -0.092171,-0.06158 -0.011312,-0.009 -0.019414,-0.02172 -0.030727,-0.03079 -0.014413,-0.01156 -0.030727,-0.02053 -0.04608,-0.03079 -0.015364,-0.01026 -0.029577,-0.02251 -0.046081,-0.03079 -0.014483,-0.0072 -0.030727,-0.01026 -0.046091,-0.0154 -0.1104992,-0.03692 0.027496,0.0078 -0.1075336,-0.03079 l -0.092171,-0.03079 c -0.020275,-0.0029 -0.040969,0 -0.061444,0 H 6.051431 5.867088 5.8056439 c -0.020485,0 -0.041169,-0.0029 -0.061444,0 -0.016034,0.0023 -0.030057,0.0131 -0.04608,0.0154 -0.035488,0.0051 -0.072177,-0.0059 -0.1075335,0 -0.015974,0.0027 -0.030207,0.01222 -0.046091,0.0154 -0.010042,0.002 -0.020685,-0.002 -0.030727,0 -0.015874,0.0032 -0.030207,0.01222 -0.04608,0.0154 -0.047461,0.0095 -0.016774,-0.01399 -0.046091,0.0154 -0.035228,0.0353 0.0065,-0.0097 -0.030727,0.04619 -0.004,0.006 -0.011343,0.0093 -0.015363,0.0154 -0.018014,0.02708 -0.018234,0.04568 -0.030727,0.07698 -0.0043,0.01065 -0.013113,0.01953 -0.015364,0.03079 -0.003,0.0151 0.0025,0.031 0,0.04619 -0.0027,0.01601 -0.012703,0.03018 -0.015364,0.04619 -0.0025,0.01519 0.0025,0.031 0,0.04619 -0.0027,0.01601 -0.012703,0.03018 -0.015363,0.04619 -0.0025,0.01519 0,0.03079 0,0.04619 v 0.07698 c 0,0.004 -0.0026,0.08463 0,0.09238 0.0038,0.01126 0.016664,0.03915 0.030727,0.04619 0.0046,0.0023 0.010782,-0.0023 0.015364,0 0.0065,0.0032 0.0085,0.0131 0.015363,0.0154 0.0069,0.0023 0.054612,-0.0034 0.061444,0 0.0065,0.0032 0.0089,0.01215 0.015364,0.0154 0.0092,0.0046 0.023485,-0.0072 0.030727,0 0.0036,0.0036 0,0.01026 0,0.0154 0.0051,0 0.010783,-0.0023 0.015364,0 0.023425,0.01174 0.015364,0.04046 0.015364,0.06158 0,0.0051 0.004,0.01219 0,0.0154 -0.023315,0.01869 -0.051202,0.03079 -0.076808,0.04619 z" />
        <path
             style="fill:#183816"
             inkscape:connector-curvature="0"
             id="path56"
             d="m 6.0360895,37.291947 c -0.072186,-0.05082 -0.061854,-0.04619 -0.122896,-0.04619 H 5.89783 c -0.0051,0 -0.010782,-0.0023 -0.015364,0 -0.0065,0.0032 -0.0089,0.01215 -0.015363,0.0154 -0.0046,0.0023 -0.010783,-0.0023 -0.015364,0 -0.013623,0.0068 -0.032097,0.03685 -0.046081,0.04619 -0.0095,0.0063 -0.021195,0.009 -0.030727,0.0154 -0.006,0.004 -0.010242,0.01026 -0.015364,0.0154 -0.0051,0.0051 -0.011343,0.0093 -0.015364,0.0154 -0.033848,0.0077 -0.0081,0.03167 -0.015363,0.04619 -0.0065,0.01298 -0.024246,0.01781 -0.030727,0.03079 -0.0023,0.0046 0.0036,0.01177 0,0.0154 -0.0036,0.0036 -0.011743,-0.0036 -0.015363,0 -0.0036,0.0036 0.0036,0.01177 0,0.0154 -6.101e-4,6.12e-4 -0.055803,0 -0.061444,0 -0.008,0 -0.057403,0.002 -0.061444,0 -0.018434,-0.0092 -0.027646,-0.03695 -0.046091,-0.04619 -0.0046,-0.0023 -0.011743,0.0036 -0.015364,0 -0.0036,-0.0036 0.0023,-0.0108 0,-0.0154 -0.0032,-0.0065 -0.012123,-0.0089 -0.015364,-0.0154 -0.0023,-0.0046 0.0036,-0.01177 0,-0.0154 -0.0036,-0.0036 -0.011743,0.0036 -0.015363,0 -0.0036,-0.0036 0.0023,-0.01081 0,-0.0154 -0.0032,-0.0065 -0.012123,-0.0089 -0.015364,-0.0154 -0.0046,-0.0092 0.0072,-0.02354 0,-0.03079 -0.0036,-0.0036 -0.010782,0.0023 -0.015364,0 -0.0065,-0.0032 -0.0089,-0.01215 -0.015363,-0.0154 -0.0046,-0.0023 -0.010783,0.0023 -0.015364,0 -0.0065,-0.0032 -0.0089,-0.01215 -0.015364,-0.0154 -0.012293,-0.0061 -0.033798,0.0061 -0.04608,0 -0.0065,-0.0032 -0.0089,-0.01215 -0.015364,-0.0154 -0.0043,-0.0022 -0.057133,-0.0022 -0.061444,0 -0.0065,0.0032 -0.0089,0.01215 -0.015363,0.0154 -0.0046,0.0023 -0.010242,0 -0.015364,0 -0.010242,0.0051 -0.021195,0.009 -0.030727,0.0154 -0.012053,0.008 -0.017774,0.0243 -0.030727,0.03079 -0.0046,0.0023 -0.011743,-0.0036 -0.015363,0 -0.0081,0.0081 -0.009,0.02124 -0.015364,0.03079 -0.0093,0.01402 -0.039279,0.03254 -0.046091,0.04619 -0.0023,0.0046 0.0023,0.01081 0,0.0154 -0.0032,0.0065 -0.012123,0.0089 -0.015363,0.0154 -0.0023,0.0046 0.0036,0.01177 0,0.0154 -0.0036,0.0036 -0.011743,-0.0036 -0.015364,0 -0.0054,0.0054 0.0053,0.06635 0,0.07698 -0.0032,0.0065 -0.012123,0.0089 -0.015364,0.0154 -0.0023,0.0046 0.0036,0.01177 0,0.0154 -0.0036,0.0036 -0.011743,-0.0036 -0.015363,0 -0.031787,0.03185 0.048571,-0.0012 -0.015364,0.03079 -0.0046,0.0023 -0.011743,-0.0036 -0.015364,0 -0.0036,0.0036 0.0036,0.01177 0,0.0154 -0.0036,0.0036 -0.011743,-0.0036 -0.015364,0 -0.0036,0.0036 0.0036,0.01177 0,0.0154 -0.0036,0.0036 -0.010242,0 -0.015364,0 H 4.960701 c -0.0069,0 -0.041409,0.0023 -0.046081,0 -0.0065,-0.0032 -0.0089,-0.01215 -0.015364,-0.0154 -0.0046,-0.0023 -0.010782,0.0023 -0.015363,0 -0.012953,-0.0065 -0.017774,-0.0243 -0.030727,-0.03079 -0.0046,-0.0023 -0.011743,0.0036 -0.015363,0 -0.0036,-0.0036 0.0036,-0.01177 0,-0.0154 -0.0036,-0.0036 -0.010242,0 -0.015364,0 H 4.807076 c -0.0056,0 -0.060824,-6.11e-4 -0.061444,0 -0.0036,0.0036 0.0036,0.01177 0,0.0154 -0.0036,0.0036 -0.010782,-0.0023 -0.015364,0 -0.012953,0.0065 -0.017774,0.0243 -0.030727,0.03079 -0.0046,0.0023 -0.011743,-0.0036 -0.015364,0 -0.037308,0.03739 0.0045,0.02261 -0.030727,0.04619 -0.0095,0.0063 -0.021195,0.009 -0.030727,0.0154 -0.006,0.004 -0.0089,0.01215 -0.015363,0.0154 -0.0046,0.0023 -0.010783,-0.0023 -0.015364,0 -0.0065,0.0032 -0.0089,0.01215 -0.015364,0.0154 -0.0046,0.0023 -0.011743,-0.0036 -0.015363,0 -0.0036,0.0036 0.0036,0.01177 0,0.0154 -0.0036,0.0036 -0.011743,-0.0036 -0.015364,0 -0.0036,0.0036 0.0036,0.01177 0,0.0154 -0.0036,0.0036 -0.011743,-0.0036 -0.015364,0 -0.0036,0.0036 0.0023,0.01081 0,0.0154 -0.0065,0.01298 -0.024246,0.01781 -0.030727,0.03079 -0.0023,0.0046 0.0023,0.0108 0,0.0154 -0.0032,0.0065 -0.012123,0.0089 -0.015363,0.0154 -0.0023,0.0047 0,0.03926 0,0.04619 v 0.09238 0.0154 c 0,0.0051 -0.0036,0.01177 0,0.0154 0.0036,0.0036 0.011743,-0.0036 0.015363,0 0.0036,0.0036 0,0.01026 0,0.0154 0,0.0051 0.0036,0.01177 0,0.0154 -0.0036,0.0036 -0.011743,-0.0036 -0.015363,0 -0.031787,0.03185 0.048571,-0.0012 -0.015364,0.03079 -0.004,0.002 -0.053412,0 -0.061444,0 -0.008,0 -0.057413,0.002 -0.061444,0 -0.004,-0.002 -0.018714,-0.02743 -0.030727,-0.0154 -0.0036,0.0036 0.0036,0.01177 0,0.0154 -0.0036,0.0036 -0.011743,-0.0036 -0.015363,0 -0.0072,0.0072 0.0046,0.02161 0,0.03079 -0.0032,0.0065 -0.012123,0.0089 -0.015364,0.0154 -0.0023,0.0046 0,0.01026 0,0.0154 v 0.0154 c 0,0.01259 0.0026,0.09996 0,0.107771 -0.0023,0.0069 -0.012123,0.0089 -0.015363,0.0154 -0.0046,0.0092 0.0072,0.02354 0,0.03079 -0.0036,0.0036 -0.011743,-0.0036 -0.015364,0 -0.0036,0.0036 0.0036,0.01177 0,0.0154 -0.0036,0.0036 -0.010242,0 -0.015364,0 -0.0051,0 -0.010782,0.0023 -0.015363,0 -0.0065,-0.0032 -0.0089,-0.01215 -0.015364,-0.0154 -0.0046,-0.0023 -0.010783,0.0023 -0.015364,0 -0.0065,-0.0032 -0.010242,-0.01026 -0.015364,-0.0154 l -0.015364,-0.0154 -0.061444,-0.06158 c -0.0081,-0.0081 -0.04198,-0.03796 -0.046091,-0.04619 -0.0023,-0.0046 0.0036,-0.01177 0,-0.0154 -0.0036,-0.0036 -0.011743,0.0036 -0.015364,0 -0.0036,-0.0036 0.0036,-0.01177 0,-0.0154 -0.0036,-0.0036 -0.011743,0.0036 -0.015363,0 -0.0036,-0.0036 0.0036,-0.01177 0,-0.0154 -0.0036,-0.0036 -0.010242,0 -0.015364,0 -0.008,0 -0.057403,-0.002 -0.061444,0 -0.0065,0.0032 -0.0089,0.01215 -0.015364,0.0154 -0.0046,0.0023 -0.010782,-0.0023 -0.015363,0 -0.0065,0.0032 -0.0089,0.01215 -0.015363,0.0154 -0.0092,0.0046 -0.021565,-0.0046 -0.030727,0 -0.012953,0.0065 -0.017774,0.0243 -0.030727,0.03079 -0.0046,0.0023 -0.010782,-0.0023 -0.015363,0 -0.0082,0.0041 -0.037999,0.03808 -0.046091,0.04619 -0.0069,0.0069 -0.04375,0.03916 -0.046091,0.04619 -0.0032,0.0097 0.0032,0.02105 0,0.03079 -0.0046,0.01376 -0.022695,0.01871 -0.030727,0.03079 -0.032437,0.04877 -0.0026,0.03869 -0.015364,0.07698 -0.0023,0.0069 -0.012123,0.0089 -0.015364,0.0154 -0.0023,0.0047 0,0.03926 0,0.04619 0,0.0069 -0.0023,0.0415 0,0.04619 0.0032,0.0065 0.012123,0.0089 0.015364,0.0154 0.0055,0.01095 -0.0055,0.01985 0,0.03079 0.0065,0.01298 0.024246,0.01781 0.030727,0.03079 0.0023,0.0046 -0.0023,0.0108 0,0.0154 0.0032,0.0065 0.010242,0.01026 0.015363,0.0154 0.0051,0.0051 0.0089,0.01215 0.015364,0.0154 0.0046,0.0023 0.010782,-0.0023 0.015363,0 0.063935,0.03203 -0.016424,-0.0011 0.015363,0.03079 0.0036,0.0036 0.010782,-0.0023 0.015363,0 0.0041,0.002 0.04405,0.0421 0.046081,0.04619 0.0023,0.0046 -0.0036,0.01177 0,0.0154 0.0036,0.0036 0.011743,-0.0036 0.015363,0 0.0036,0.0036 0,0.01026 0,0.0154 0,0.008 0.002,0.05754 0,0.06159 -0.0032,0.0065 -0.012123,0.0089 -0.015363,0.0154 -0.0046,0.0092 0.0046,0.02161 0,0.03079 -0.0032,0.0065 -0.012123,0.0089 -0.015364,0.0154 -0.0023,0.0046 0.0023,0.0108 0,0.0154 -0.0032,0.0065 -0.012123,0.0089 -0.015363,0.0154 -0.0023,0.0046 0.0023,0.01081 0,0.0154 -0.0065,0.01298 -0.024246,0.01781 -0.030727,0.03079 -0.0023,0.0046 0.0023,0.0108 0,0.0154 -0.0032,0.0065 -0.012123,0.0089 -0.015363,0.0154 -0.0023,0.0046 0.0023,0.0108 0,0.0154 -0.0032,0.0065 -0.012123,0.0089 -0.015363,0.0154 -0.002,0.004 0,0.08146 0,0.09238 0,0.0037 -5.161e-4,0.04569 0,0.04619 0.0036,0.0036 0.011743,-0.0036 0.015363,0 0.031787,0.03185 -0.048571,-0.0012 0.015363,0.03079 0.0046,0.0023 0.011743,-0.0036 0.015364,0 0.0036,0.0036 -0.0036,0.01177 0,0.0154 0.0036,0.0036 0.010782,-0.0023 0.015363,0 0.033968,0.01702 0.0048,0.0095 0.015363,0.03079 0.0032,0.0065 0.012123,0.0089 0.015364,0.0154 0.0023,0.0047 0,0.03926 0,0.04619 0,0.0069 0.0023,0.04151 0,0.04619 -0.0032,0.0065 -0.012123,0.0089 -0.015364,0.0154 -0.0023,0.0046 0.0036,0.01177 0,0.0154 -0.0036,0.0036 -0.010782,-0.0023 -0.015363,0 -0.013623,0.0068 -0.032097,0.03684 -0.046091,0.04619 -0.0095,0.0063 -0.021195,0.009 -0.030727,0.0154 -0.012053,0.008 -0.018674,0.02274 -0.030727,0.03079 -0.0081,0.0054 -0.041059,0.01566 -0.046091,0.03079 -0.0032,0.0097 0.0032,0.02106 0,0.03079 -0.0023,0.0069 -0.012123,0.0089 -0.015364,0.0154 -0.0023,0.0046 0,0.01026 0,0.0154 v 0.03079 0.107773 0.07698 c 0,0.01026 -0.0032,0.02105 0,0.03079 0.0036,0.01088 0.011743,0.0199 0.015364,0.03079 0.0016,0.0049 -0.0023,0.01081 0,0.0154 0.0032,0.0065 0.012123,0.0089 0.015363,0.0154 0.0023,0.0046 -0.0023,0.01081 0,0.0154 0.0065,0.01298 0.024246,0.01781 0.030727,0.03079 0.0023,0.0046 -0.0023,0.0108 0,0.0154 0.0032,0.0065 0.010242,0.01026 0.015363,0.0154 0.0051,0.0051 0.0089,0.01215 0.015363,0.0154 0.0046,0.0023 0.011743,-0.0036 0.015364,0 0.031787,0.03185 -0.048571,-0.0012 0.015363,0.03079 0.0046,0.0023 0.010782,-0.0023 0.015363,0 0.0065,0.0032 0.0089,0.01215 0.015364,0.0154 0.0092,0.0046 0.021565,-0.0046 0.030727,0 0.0065,0.0032 0.010242,0.01026 0.015364,0.0154 0.0051,0.0051 0.012123,0.0089 0.015363,0.0154 0.0023,0.0046 -0.0036,0.01177 0,0.0154 0.0036,0.0036 0.011743,-0.0036 0.015363,0 5.161e-4,5.18e-4 0,0.04246 0,0.04619 v 0.123168 c 0,0.0069 -0.0023,0.04151 0,0.04619 0.0032,0.0065 0.012123,0.0089 0.015363,0.0154 0.0023,0.0046 -0.0023,0.01081 0,0.0154 0.0032,0.0065 0.012123,0.0089 0.015364,0.0154 0.0023,0.0046 -0.0036,0.01177 0,0.0154 0.0036,0.0036 0.011743,-0.0036 0.015363,0 0.031787,0.03185 -0.048571,-0.0012 0.015363,0.03079 0.0046,0.0023 0.011743,-0.0036 0.015364,0 0.0036,0.0036 -0.0036,0.01177 0,0.0154 0.0031,0.0031 0.039999,-0.003 0.046091,0 0.0065,0.0032 0.0089,0.01215 0.015363,0.0154 0.0092,0.0046 0.021565,-0.0046 0.030727,0 0.0065,0.0032 0.0089,0.01215 0.015364,0.0154 7.972e-4,4.11e-4 0.04528,4.11e-4 0.046091,0 0.0065,-0.0032 0.0089,-0.01215 0.015364,-0.0154 0.0046,-0.0023 0.010242,0 0.015363,0 0.010242,0 0.021005,0.0032 0.030727,0 0.0069,-0.0023 0.0089,-0.01215 0.015363,-0.0154 0.0046,-0.0023 0.010783,0.0023 0.015364,0 0.0065,-0.0032 0.0089,-0.01215 0.015364,-0.0154 0.0046,-0.0023 0.010782,0.0023 0.015364,0 0.0065,-0.0032 0.0089,-0.01215 0.015364,-0.0154 0.0046,-0.0023 0.010242,0 0.015363,0 h 0.015364 c 0.014853,0 0.08762,-0.0023 0.092171,0 0.0065,0.0032 0.0089,0.01215 0.015364,0.0154 0.0046,0.0023 0.010783,-0.0023 0.015364,0 0.012953,0.0065 0.017774,0.0243 0.030727,0.03079 0.0046,0.0023 0.011743,-0.0036 0.015364,0 0.0036,0.0036 -0.0036,0.01177 0,0.0154 0.0036,0.0036 0.011743,-0.0036 0.015363,0 0.0036,0.0036 -0.0036,0.01177 0,0.0154 0.031787,0.03185 -0.0012,-0.04868 0.030727,0.0154 0.0023,0.0046 -0.0036,0.01177 0,0.0154 0.0036,0.0036 0.011743,-0.0036 0.015364,0 0.0036,0.0036 -0.0036,0.01177 0,0.0154 0.0036,0.0036 0.011743,-0.0036 0.015364,0 0.0036,0.0036 -0.0036,0.01177 0,0.0154 0.0036,0.0036 0.010242,0 0.015363,0 h 0.015364 c 0.0069,0 0.041409,0.0023 0.046091,0 0.0065,-0.0032 0.0089,-0.01215 0.015364,-0.0154 0.0046,-0.0023 0.011743,0.0036 0.015363,0 0.0036,-0.0036 -0.0023,-0.01081 0,-0.0154 0.0032,-0.0065 0.012123,-0.0089 0.015364,-0.0154 0.0023,-0.0046 -0.0036,-0.01177 0,-0.0154 0.0036,-0.0036 0.011743,0.0036 0.015364,0 0.031787,-0.03185 -0.048571,0.0012 0.015363,-0.03079 0.0046,-0.0023 0.011743,0.0036 0.015364,0 0.0036,-0.0036 -0.0036,-0.01177 0,-0.0154 0.0072,-0.0072 0.021565,0.0046 0.030727,0 0.0065,-0.0032 0.0089,-0.01215 0.015364,-0.0154 0.0097,-0.0048 0.067115,0.0048 0.076807,0 0.0065,-0.0032 0.0089,-0.01215 0.015364,-0.0154 0.0013,-6.58e-4 0.060134,-6.58e-4 0.061444,0 0.0065,0.0032 0.0089,0.01215 0.015364,0.0154 0.0047,0.0023 0.039169,0 0.04608,0 h 0.1843431 c 0.013733,0 0.071916,0.0024 0.076808,0 0.0065,-0.0032 0.0089,-0.01215 0.015363,-0.0154 0.0046,-0.0023 0.010783,0.0023 0.015364,0 0.0065,-0.0032 0.0089,-0.01215 0.015364,-0.0154 0.0046,-0.0023 0.010782,0.0023 0.015363,0 0.0065,-0.0032 0.0089,-0.01215 0.015364,-0.0154 0.0092,-0.0046 0.021565,0.0046 0.030727,0 0.0065,-0.0032 0.0089,-0.01215 0.015364,-0.0154 0.0046,-0.0023 0.011743,0.0036 0.015363,0 0.0036,-0.0036 -0.0036,-0.01177 0,-0.0154 0.0072,-0.0072 0.021565,0.0046 0.030727,0 0.0065,-0.0032 0.0089,-0.01215 0.015363,-0.0154 0.0046,-0.0023 0.011743,0.0036 0.015364,0 0.0036,-0.0036 -0.0023,-0.01081 0,-0.0154 0.0032,-0.0065 0.012123,-0.0089 0.015364,-0.0154 8.442e-4,-0.0017 8.442e-4,-0.07526 0,-0.07698 -0.0032,-0.0065 -0.012123,-0.0089 -0.015364,-0.0154 -0.0023,-0.0046 0.0023,-0.0108 0,-0.0154 -0.0065,-0.01298 -0.024246,-0.01781 -0.030727,-0.03079 -0.0023,-0.0046 0.0023,-0.0108 0,-0.0154 -0.0032,-0.0065 -0.012123,-0.0089 -0.015364,-0.0154 -0.0046,-0.0092 0.0046,-0.02161 0,-0.03079 -0.0032,-0.0065 -0.012123,-0.0089 -0.015364,-0.0154 -4.091e-4,-8.01e-4 -4.091e-4,-0.04539 0,-0.04619 0.0032,-0.0065 0.012123,-0.0089 0.015364,-0.0154 0.0023,-0.0046 -0.0036,-0.01177 0,-0.0154 0.0036,-0.0036 0.011743,0.0036 0.015364,0 0.0036,-0.0036 -0.0023,-0.0108 0,-0.0154 0.002,-0.0041 0.04201,-0.04414 0.04608,-0.04619 0.040969,0 -0.0051,0.0051 0.015364,-0.0154 0.0072,-0.0072 0.021565,0.0046 0.030727,0 0.0065,-0.0032 0.0085,-0.0131 0.015364,-0.0154 0.010452,-0.0035 0.068666,0.0041 0.076808,0 0.0065,-0.0032 0.0089,-0.01215 0.015364,-0.0154 0.0013,-6.58e-4 0.04411,-6.58e-4 0.04608,0 0.010862,0.0036 0.019855,0.01177 0.030727,0.0154 0.0049,0.0016 0.010782,-0.0023 0.015363,0 0.0065,0.0032 0.0089,0.01215 0.015364,0.0154 0.0092,0.0046 0.023475,-0.0072 0.030727,0 0.0036,0.0036 0.0036,0.01177 0,0.0154 -0.012013,0.01204 -0.026726,-0.01339 -0.030727,-0.0154 -0.021195,-0.01062 -0.013743,0.01864 -0.030727,-0.0154 -0.0048,-0.0096 0.0048,-0.05191 0,-0.06159 -0.0032,-0.0065 -0.012123,-0.0089 -0.015364,-0.0154 -0.0023,-0.0046 0,-0.01026 0,-0.0154 v -0.0154 c 0,-0.0051 -0.0051,-0.0154 0,-0.0154 0.0072,0 0.0089,0.01215 0.015364,0.0154 0.027316,0.01369 0.0085,-0.0085 0.015363,-0.0154 0.0036,-0.0036 0.011743,0.0036 0.015364,0 0.0036,-0.0036 0,-0.01026 0,-0.0154 0,-0.01092 -0.002,-0.0884 0,-0.09238 0.0032,-0.0065 0.012123,-0.0089 0.015364,-0.0154 0.0046,-0.0092 -0.0072,-0.02354 0,-0.03079 0.0036,-0.0036 0.010782,0.0023 0.015363,0 0.018434,-0.0092 0.027646,-0.03695 0.046081,-0.04619 0.0092,-0.0046 0.023485,0.0072 0.030727,0 0.0036,-0.0036 -0.0036,-0.01177 0,-0.0154 5.162e-4,-5.18e-4 0.04236,0 0.046091,0 0.010682,0 0.071256,-0.0028 0.076808,0 0.021325,0.01068 0.015363,0.02739 0.015363,0.04619 0,0.0051 -0.0036,0.01177 0,0.0154 0.0036,0.0036 0.011743,-0.0036 0.015364,0 0.0072,0.0072 -0.0072,0.02354 0,0.03079 0.0036,0.0036 0.011743,-0.0036 0.015364,0 0.0072,0.0072 -0.0072,0.02354 0,0.03079 0.0036,0.0036 0.011743,-0.0036 0.015363,0 0.010212,0.01023 -0.010212,0.02056 0,0.03079 0.0036,0.0036 0.010242,0 0.015364,0 0,0.0051 -0.0023,0.0108 0,0.0154 0.0032,0.0065 0.012123,0.0089 0.015364,0.0154 0.0023,0.0046 -0.0036,0.01177 0,0.0154 0.0036,0.0036 0.011743,-0.0036 0.015363,0 0.0072,0.0072 -0.0072,0.02354 0,0.03079 0.0036,0.0036 0.011743,0.0036 0.015364,0 0.0072,-0.0072 -0.0072,-0.02354 0,-0.03079 0.0036,-0.0036 0.011743,0.0036 0.015364,0 0.0072,-0.0072 -0.0032,-0.02105 0,-0.03079 0.0036,-0.01089 0.0073,-0.02268 0.015363,-0.03079 0.0036,-0.0036 0.011743,0.0036 0.015364,0 0.0036,-0.0036 -0.0023,-0.0108 0,-0.0154 0.050952,-0.05107 -0.0072,0.01452 0.015364,-0.03079 0.031967,-0.06408 -0.0011,0.01646 0.030727,-0.0154 0.0036,-0.0036 -0.0023,-0.01081 0,-0.0154 0.031967,-0.06408 -0.0011,0.01646 0.030727,-0.0154 0.0036,-0.0036 -0.0036,-0.01177 0,-0.0154 0.0036,-0.0036 0.010242,0 0.015364,0 0,-0.0051 -0.0023,-0.01081 0,-0.0154 0.031967,-0.06408 -0.0011,0.01646 0.030727,-0.0154 0.0036,-0.0036 -0.0036,-0.01177 0,-0.0154 0.0036,-0.0036 0.011743,0.0036 0.015364,0 0.0036,-0.0036 -0.0023,-0.01081 0,-0.0154 0.0032,-0.0065 0.012123,-0.0089 0.015363,-0.0154 0.0023,-0.0046 -0.0036,-0.01177 0,-0.0154 0.0036,-0.0036 0.011743,0.0036 0.015364,0 0.0036,-0.0036 -0.0036,-0.01177 0,-0.0154 0.0036,-0.0036 0.011743,0.0036 0.015363,0 0.0036,-0.0036 0,-0.01026 0,-0.0154 0.0051,0 0.010783,0.0023 0.015364,0 0.0065,-0.0032 0.0089,-0.01215 0.015364,-0.0154 0.0046,-0.0023 0.015363,-0.0051 0.015363,0 0,0.0072 -0.013073,0.0085 -0.015363,0.0154 -0.0032,0.0097 0.0032,0.02105 0,0.03079 -0.0023,0.0069 -0.011343,0.0093 -0.015364,0.0154 -0.0064,0.0095 -0.009,0.02124 -0.015364,0.03079 -0.004,0.006 -0.013073,0.0085 -0.015363,0.0154 -0.0032,0.0097 0.0032,0.02106 0,0.03079 -0.0023,0.0069 -0.012123,0.0089 -0.015364,0.0154 -0.0023,0.0046 0.0023,0.0108 0,0.0154 -0.0032,0.0065 -0.012123,0.0089 -0.015363,0.0154 -0.0046,0.0091 0.0072,0.02354 0,0.03079 -0.0036,0.0036 -0.011743,-0.0036 -0.015364,0 -0.0015,0.0015 -0.0015,0.04465 0,0.04619 0.0036,0.0036 0.011743,-0.0036 0.015364,0 0.0036,0.0036 -0.0036,0.01177 0,0.0154 0.0022,0.0022 0.04294,0.0016 0.04609,0 0.0065,-0.0032 0.0089,-0.01215 0.015364,-0.0154 0.0092,-0.0046 0.021565,0.0046 0.030727,0 0.0065,-0.0032 0.0089,-0.01215 0.015364,-0.0154 0.0092,-0.0046 0.021565,0.0046 0.030727,0 0.0065,-0.0032 0.0089,-0.01215 0.015364,-0.0154 0.0046,-0.0023 0.010782,0.0023 0.015363,0 0.012953,-0.0065 0.017774,-0.0243 0.030727,-0.03079 0.0092,-0.0046 0.023475,0.0072 0.030727,0 0.0036,-0.0036 -0.0036,-0.01177 0,-0.0154 0.0072,-0.0072 0.021565,0.0046 0.030727,0 0.037969,-0.01902 -0.0053,-0.0154 0.030727,-0.0154 0.0069,0 0.041409,0.0023 0.04608,0 0.0065,-0.0032 0.0089,-0.01215 0.015364,-0.0154 0.0061,-0.003 0.04295,0.0031 0.046091,0 0.0036,-0.0036 -0.0036,-0.01177 0,-0.0154 0.0072,-0.0072 0.021565,0.0046 0.030727,0 0.037969,-0.01902 -0.0053,-0.0154 0.030727,-0.0154 h 0.030727 c -0.010242,0 -0.021005,-0.0032 -0.030727,0 -0.011663,0.0039 -0.047331,0.05451 -0.061444,0.06158 -0.0046,0.0023 -0.010502,-0.0016 -0.015364,0 -0.027896,0.0093 -0.028507,0.01317 -0.046081,0.03079 -0.0051,0.0051 -0.012123,0.0089 -0.015364,0.0154 -0.010592,0.02124 0.018604,0.01376 -0.015363,0.03079 -0.0046,0.0023 -0.011743,-0.0036 -0.015364,0 -0.0072,0.0072 0.0072,0.02354 0,0.03079 -0.0036,0.0036 -0.011743,-0.0036 -0.015364,0 -0.0036,0.0036 0.0023,0.0108 0,0.0154 -0.002,0.004 -0.027376,0.01876 -0.015363,0.03079 6.091e-4,6.12e-4 0.055803,0 0.061444,0 h 0.061444 c 0.010242,0 0.021005,0.0032 0.030727,0 0.010862,-0.0036 0.019855,-0.01177 0.030727,-0.0154 0.0049,-0.0016 0.010502,0.0016 0.015364,0 0.010862,-0.0036 0.019855,-0.01177 0.030727,-0.0154 0.012363,-0.0041 0.051632,0.0049 0.061444,0 0.0065,-0.0032 0.0089,-0.01215 0.015363,-0.0154 0.004,-0.002 0.053412,0 0.061444,0 h 0.015364 c 0.0051,0 0.015364,-0.0051 0.015364,0 0,0.0051 -0.010782,-0.0023 -0.015364,0 -0.0065,0.0032 -0.010242,0.01026 -0.015364,0.0154 -0.010242,0 -0.021005,-0.0032 -0.030727,0 -0.0069,0.0023 -0.0093,0.01137 -0.015364,0.0154 -0.047761,0.03191 -0.013683,-0.0011 -0.061444,0.03079 -0.006,0.004 -0.0093,0.01137 -0.015363,0.0154 -0.016894,0.01129 -0.081589,0.03557 -0.092171,0.04619 -0.0081,0.0081 -0.0073,0.02268 -0.015364,0.03079 -0.0081,0.0081 -0.021195,0.009 -0.030727,0.0154 -0.0065,0.0043 -0.04291,0.03981 -0.04608,0.04619 -0.0046,0.0092 0.0072,0.02354 0,0.03079 -0.0036,0.0036 -0.011743,-0.0036 -0.015364,0 -0.025106,0.02516 0.04198,0.01334 0.046081,0.0154 0.0065,0.0032 0.0089,0.01215 0.015363,0.0154 0.018014,0.009 0.018234,-0.0091 0.030727,-0.0154 0.0092,-0.0046 0.021565,0.0046 0.030727,0 0.0065,-0.0032 0.0085,-0.0131 0.015363,-0.0154 0.0097,-0.0032 0.021565,0.0046 0.030727,0 0.0046,-0.0023 -0.0036,-0.01177 0,-0.0154 0.0036,-0.0036 0.010242,0 0.015363,0 h 0.076808 c 0.0069,0 0.04141,0.0023 0.046091,0 0.0065,-0.0032 0.0089,-0.01215 0.015364,-0.0154 0.004,-0.002 0.053412,0 0.061444,0 0.008,0 0.057403,-0.002 0.061444,0 0.0065,0.0032 0.0089,0.01215 0.015364,0.0154 0.0097,0.0048 0.051792,-0.0048 0.061444,0 0.0065,0.0032 0.0089,0.01215 0.015363,0.0154 0.0046,0.0023 0.011743,-0.0036 0.015364,0 0.0036,0.0036 -0.0036,0.01177 0,0.0154 0.0036,0.0036 0.010783,-0.0023 0.015364,0 0.063935,0.03203 -0.016424,-0.0011 0.015363,0.03079 0.0036,0.0036 0.011743,-0.0036 0.015364,0 0.0042,0.0042 -0.0042,0.05323 0,0.06158 0.0065,0.01298 0.022695,0.01871 0.030727,0.03079 0.0063,0.0095 0.009,0.02124 0.015364,0.03079 0.004,0.006 0.012123,0.0089 0.015363,0.0154 0.0023,0.0046 -0.0023,0.0108 0,0.0154 0.0032,0.0065 0.013073,0.0085 0.015364,0.0154 0.0032,0.0097 -0.0032,0.02105 0,0.03079 0.0023,0.0069 0.012123,0.0089 0.015364,0.0154 0.0023,0.0046 0,0.01026 0,0.0154 v 0.0154 0.07698 0.0154 c 0,0.0051 -0.0036,0.01177 0,0.0154 0.0036,0.0036 0.011743,-0.0036 0.015363,0 0.0036,0.0036 -0.0023,0.0108 0,0.0154 0.0065,0.01298 0.024246,0.01781 0.030727,0.03079 0.0023,0.0046 -0.0023,0.0108 0,0.0154 0.002,0.0041 0.04201,0.04414 0.04608,0.04619 0.0046,0.0023 0.010502,-0.0016 0.015364,0 0.021725,0.0072 0.039719,0.02354 0.061444,0.03079 0.0049,0.0016 0.010502,-0.0016 0.015364,0 0.010862,0.0036 0.019614,0.01261 0.030727,0.0154 0.019875,0.005 0.041569,-0.005 0.061444,0 0.011112,0.0028 0.019274,0.0154 0.030727,0.0154 0.011453,0 0.019615,-0.01261 0.030727,-0.0154 0.024096,-0.006 0.052712,0.006 0.076808,0 0.011113,-0.0028 0.019615,-0.01261 0.030727,-0.0154 0.024095,-0.006 0.052712,0.006 0.076808,0 0.011113,-0.0028 0.019855,-0.01177 0.030727,-0.0154 0.0049,-0.0016 0.010782,0.0023 0.015364,0 0.0065,-0.0032 0.0089,-0.01215 0.015364,-0.0154 0.0046,-0.0023 0.011743,0.0036 0.015363,0 0.0036,-0.0036 -0.0036,-0.01177 0,-0.0154 0.0036,-0.0036 0.011743,0.0036 0.015364,0 0.0036,-0.0036 -0.0036,-0.01177 0,-0.0154 0.0036,-0.0036 0.011743,0.0036 0.015364,0 0.0072,-0.0072 -0.0046,-0.02161 0,-0.03079 0.0032,-0.0065 0.012123,-0.0089 0.015363,-0.0154 0.0048,-0.0096 -0.0048,-0.05191 0,-0.06158 0.0032,-0.0065 0.012123,-0.0089 0.015364,-0.0154 0.0023,-0.0046 -0.0023,-0.0108 0,-0.0154 0.0065,-0.01298 0.024246,-0.01781 0.030727,-0.03079 0.0023,-0.0046 -0.0023,-0.0108 0,-0.0154 0.0032,-0.0065 0.010242,-0.01026 0.015364,-0.0154 0.0051,-0.0051 0.0089,-0.01215 0.015364,-0.0154 0.0046,-0.0023 0.010782,0.0023 0.015363,0 0.015114,-0.0076 0.046331,-0.05401 0.061444,-0.06158 0.0046,-0.0023 0.011743,0.0036 0.015363,0 0.0036,-0.0036 -0.0036,-0.01177 0,-0.0154 0.0036,-0.0036 0.057753,0.0037 0.061444,0 0.0037,-0.0037 -0.0036,-0.01177 0,-0.0154 0.0036,-0.0036 0.010242,0 0.015364,0 0.0069,0 0.041409,-0.0023 0.046091,0 0.0065,0.0032 0.0089,0.01215 0.015363,0.0154 0.0046,0.0023 0.010782,-0.0023 0.015363,0 0.034968,0.03504 -0.0032,0.004 0.030727,0.0154 0.010862,0.0036 0.019855,0.01177 0.030727,0.0154 0.0049,0.0016 0.011743,-0.0036 0.015364,0 0.0036,0.0036 -0.0036,0.01177 0,0.0154 0.0072,0.0072 0.021565,-0.0046 0.030727,0 0.0065,0.0032 0.0089,0.01215 0.015363,0.0154 0.0097,0.0048 0.051792,-0.0048 0.061444,0 0.0065,0.0032 0.0089,0.01215 0.015364,0.0154 0.0092,0.0046 0.023475,-0.0072 0.030727,0 0.0036,0.0036 -0.0036,0.01177 0,0.0154 0.0072,0.0072 0.023475,-0.0072 0.030727,0 0.0036,0.0036 -0.0036,0.01177 0,0.0154 0.0036,0.0036 0.010502,-0.0016 0.015363,0 0.010862,0.0036 0.019855,0.01177 0.030727,0.0154 0.0049,0.0016 0.010242,0 0.015363,0 h 0.030727 c 0.010242,0 0.020785,-0.0025 0.030727,0 0.011112,0.0028 0.019614,0.01261 0.030727,0.0154 0.034298,0.0086 0.030377,-0.005 0.061444,-0.0154 0.0049,-0.0016 0.010502,0.0016 0.015363,0 0.055693,-0.01861 0.010933,-0.0073 0.046091,-0.03079 0.0095,-0.0063 0.022635,-0.0073 0.030727,-0.0154 0.0036,-0.0036 -0.0016,-0.01052 0,-0.0154 0.0036,-0.01089 0.011743,-0.0199 0.015363,-0.03079 0.0032,-0.0097 0,-0.02053 0,-0.03079 0,-0.0061 0.0033,-0.0704 0,-0.07698 -0.0033,-0.0066 -0.012123,-0.0089 -0.015363,-0.0154 -0.0069,-0.01376 0.0069,-0.03242 0,-0.04619 -0.0023,-0.0046 -0.011743,0.0036 -0.015364,0 -0.059954,-0.06008 0.0036,-0.0082 -0.015363,-0.04619 -0.0049,-0.0098 -0.064735,-0.06488 -0.076807,-0.07698 -0.0051,-0.0051 -0.012123,-0.0089 -0.015364,-0.0154 -0.0023,-0.0046 0.0036,-0.01177 0,-0.0154 -0.031787,-0.03185 0.0012,0.04868 -0.030727,-0.0154 -0.0023,-0.0046 0.0023,-0.0108 0,-0.0154 -0.0032,-0.0065 -0.012123,-0.0089 -0.015364,-0.0154 -0.0046,-0.0091 0.0046,-0.02161 0,-0.03079 -0.0032,-0.0065 -0.015363,-0.0081 -0.015363,-0.0154 0,-0.0072 0.012123,-0.0089 0.015363,-0.0154 0.0046,-0.0092 -0.0046,-0.02161 0,-0.03079 0.0032,-0.0065 0.010242,-0.01026 0.015364,-0.0154 0.0051,-0.0051 0.0093,-0.01137 0.015363,-0.0154 0.0095,-0.0063 0.021195,-0.009 0.030727,-0.0154 0.006,-0.004 0.0089,-0.01215 0.015363,-0.0154 0.0046,-0.0023 0.010782,0.0023 0.015363,0 0.0065,-0.0032 0.0089,-0.01215 0.015364,-0.0154 0.0046,-0.0023 0.010782,0.0023 0.015363,0 0.012953,-0.0065 0.017774,-0.0243 0.030727,-0.03079 0.0092,-0.0046 0.021565,0.0046 0.030727,0 0.012953,-0.0065 0.017774,-0.0243 0.030727,-0.03079 0.0046,-0.0023 0.010782,0.0023 0.015364,0 0.0065,-0.0032 0.0089,-0.01215 0.015363,-0.0154 0.0046,-0.0023 0.011743,0.0036 0.015363,0 0.031787,-0.03185 -0.048571,0.0012 0.015364,-0.03079 0.0046,-0.0023 0.011743,0.0036 0.015363,0 0.0036,-0.0036 -0.0023,-0.0108 0,-0.0154 0.0032,-0.0065 0.012123,-0.0089 0.015363,-0.0154 0.0046,-0.0092 -0.0046,-0.02161 0,-0.03079 0.0032,-0.0065 0.012123,-0.0089 0.015364,-0.0154 4.021e-4,-8.01e-4 4.021e-4,-0.04539 0,-0.04619 -0.0032,-0.0065 -0.013073,-0.0085 -0.015364,-0.0154 -0.0032,-0.0097 0.0032,-0.02105 0,-0.03079 -0.0023,-0.0069 -0.012123,-0.0089 -0.015363,-0.0154 -0.0023,-0.0046 0,-0.01026 0,-0.0154 -0.0051,-0.01026 -0.009,-0.02124 -0.015363,-0.03079 -0.008,-0.01208 -0.024246,-0.01781 -0.030727,-0.03079 -0.0061,-0.01229 0.0061,-0.01851 0,-0.03079 -0.016384,-0.03285 -0.014333,0.0021 -0.030727,-0.03079 -0.0023,-0.0046 0.0023,-0.01081 0,-0.0154 -0.0032,-0.0065 -0.012123,-0.0089 -0.015363,-0.0154 -0.010592,-0.02124 0.018604,-0.01376 -0.015364,-0.03079 -0.0046,-0.0023 -0.010782,0.0023 -0.015363,0 -0.012953,-0.0065 -0.018674,-0.02274 -0.030727,-0.03079 -0.1113844,-0.05582 0.024286,0.01623 -0.046091,-0.03079 -0.019054,-0.01273 -0.0424,-0.01806 -0.061444,-0.03079 -0.006,-0.004 -0.0093,-0.01137 -0.015363,-0.0154 -0.0095,-0.0063 -0.019854,-0.01177 -0.030727,-0.0154 -0.0097,-0.0032 -0.023475,0.0072 -0.030727,0 -0.0036,-0.0036 0.0036,-0.01177 0,-0.0154 -0.0036,-0.0036 -0.011743,0.0036 -0.015364,0 -0.0036,-0.0036 0.0036,-0.01177 0,-0.0154 -0.0036,-0.0036 -0.011743,0.0036 -0.015363,0 -0.0036,-0.0036 0,-0.01026 0,-0.0154 v -0.0154 c 0,-0.0155 -0.0028,-0.08386 0,-0.09238 0.0023,-0.0069 0.012123,-0.0089 0.015363,-0.0154 0.0023,-0.0046 0,-0.01026 0,-0.0154 0,-0.01026 -0.0032,-0.02106 0,-0.03079 0.0023,-0.0069 0.012123,-0.0089 0.015364,-0.0154 0.0023,-0.0045 0,-0.07748 0,-0.09238 0,-0.01042 0.0023,-0.10076 0,-0.107772 -0.0023,-0.007 -0.012123,-0.0089 -0.015364,-0.0154 -0.0023,-0.0046 0.0023,-0.01081 0,-0.0154 -0.0032,-0.0065 -0.012123,-0.0089 -0.015363,-0.0154 -0.0023,-0.0046 0,-0.01026 0,-0.0154 -0.0051,-0.01026 -0.009,-0.02124 -0.015364,-0.03079 -0.008,-0.01208 -0.024245,-0.01781 -0.030727,-0.03079 -0.0023,-0.0046 0.0023,-0.01081 0,-0.0154 -0.0015,-0.003 -0.058503,-0.06012 -0.061444,-0.06159 -0.0046,-0.0023 -0.010242,0 -0.015364,0 -0.0051,-0.0051 -0.0089,-0.01215 -0.015363,-0.0154 -0.0092,-0.0046 -0.021565,0.0046 -0.030727,0 -0.0065,-0.0032 -0.0089,-0.01215 -0.015363,-0.0154 -0.0046,-0.0023 -0.010782,0.0023 -0.015363,0 -0.0065,-0.0032 -0.0089,-0.01215 -0.015364,-0.0154 -0.0092,-0.0046 -0.021565,0.0046 -0.030727,0 -0.0065,-0.0032 -0.0089,-0.01215 -0.015364,-0.0154 -0.0046,-0.0023 -0.010782,0.0023 -0.015364,0 -0.033968,-0.01703 -0.0048,-0.0095 -0.015364,-0.03079 -0.0065,-0.01298 -0.024245,-0.01781 -0.030727,-0.03079 -0.0023,-0.0046 0.0036,-0.01177 0,-0.0154 -0.0036,-0.0036 -0.011743,0.0036 -0.015364,0 -0.0072,-0.0072 0.0046,-0.02161 0,-0.03079 -0.0032,-0.0065 -0.012123,-0.0089 -0.015363,-0.0154 -0.0048,-0.0096 0.0048,-0.05191 0,-0.06158 -0.0032,-0.0065 -0.012123,-0.0089 -0.015363,-0.0154 -0.0016,-0.0031 -0.0022,-0.04401 0,-0.04619 0.0036,-0.0036 0.011743,0.0036 0.015363,0 0.0042,-0.0042 -0.0042,-0.05323 0,-0.06158 0.0032,-0.0065 0.012123,-0.0089 0.015363,-0.0154 8.442e-4,-0.0017 8.442e-4,-0.07526 0,-0.07698 -0.0032,-0.0065 -0.010242,-0.01026 -0.015363,-0.0154 l -0.015363,-0.0154 c -0.010242,-0.01026 -0.018674,-0.02274 -0.030727,-0.03079 -0.0095,-0.0063 -0.020485,-0.01026 -0.030727,-0.0154 l -0.061444,-0.03079 c -0.020485,-0.01026 -0.040189,-0.02226 -0.061444,-0.03079 -0.015033,-0.006 -0.031047,-0.0093 -0.046081,-0.0154 -0.010632,-0.0043 -0.019494,-0.01314 -0.030727,-0.0154 -0.025106,-0.005 -0.051972,0.0062 -0.076808,0 -0.011113,-0.0028 -0.019495,-0.01314 -0.030727,-0.0154 -0.015064,-0.003 -0.030727,0 -0.046081,0 h -0.030727 c -0.0051,0 -0.010502,-0.0016 -0.015364,0 -0.010862,0.0036 -0.019614,0.01261 -0.030727,0.0154 -0.0099,0.0025 -0.021005,-0.0032 -0.030727,0 -0.0069,0.0023 -0.010242,0.01026 -0.015364,0.0154 -0.009,0.009 -0.054332,0.05802 -0.061444,0.06159 -0.021195,0.01061 -0.013743,-0.01864 -0.030727,0.0154 -0.0023,0.0046 0.0023,0.01081 0,0.0154 -0.0032,0.0065 -0.012123,0.0089 -0.015364,0.0154 -0.0023,0.0046 0.0023,0.0108 0,0.0154 -0.0095,0.01902 -0.014833,0.0154 -0.030727,0.0154 -0.0051,0 -0.011743,0.0036 -0.015364,0 -0.0036,-0.0036 0.0036,-0.01177 0,-0.0154 -0.0036,-0.0036 -0.010782,0.0023 -0.015364,0 -0.012953,-0.0065 -0.017774,-0.0243 -0.030727,-0.03079 -0.0046,-0.0023 -0.010782,0.0023 -0.015363,0 -0.0065,-0.0032 -0.0093,-0.01137 -0.015364,-0.0154 -0.1113834,-0.05581 0.024286,0.01623 -0.046091,-0.03079 -0.0095,-0.0063 -0.021195,-0.009 -0.030727,-0.0154 -0.0065,-0.0043 -0.04291,-0.03982 -0.046091,-0.04619 -0.0023,-0.0046 0.0036,-0.01177 0,-0.0154 -0.0036,-0.0036 -0.011743,0.0036 -0.015364,0 -0.0036,-0.0036 0,-0.01026 0,-0.0154 0,-0.0051 -0.0036,-0.01177 0,-0.0154 0.0036,-0.0036 0.011743,0.0036 0.015364,0 0.0031,-0.0031 -0.003,-0.04008 0,-0.04619 0.0032,-0.0065 0.012123,-0.0089 0.015364,-0.0154 8.442e-4,-0.0017 8.442e-4,-0.07526 0,-0.07698 -0.0065,-0.01298 -0.024246,-0.01781 -0.030727,-0.03079 -0.0082,-0.01642 0.015203,-0.02059 -0.015363,-0.03079 -0.0097,-0.0032 -0.021005,0.0032 -0.030727,0 -0.013743,-0.0046 -0.017774,-0.0243 -0.030727,-0.03079 -0.0046,-0.0023 -0.010782,0.0023 -0.015363,0 -0.0065,-0.0032 -0.0089,-0.01215 -0.015364,-0.0154 -0.0046,-0.0023 -0.010782,0.0023 -0.015364,0 -0.0065,-0.0032 -0.0085,-0.0131 -0.015363,-0.0154 -0.0097,-0.0032 -0.020485,0 -0.030727,0 -0.0051,0 -0.010782,0.0023 -0.015363,0 -0.0065,-0.0032 -0.0089,-0.01215 -0.015364,-0.0154 -0.0034,-0.0017 -0.057793,0 -0.061444,0 h -0.015364 c -0.0051,0 -0.010782,-0.0023 -0.015363,0 -0.0065,0.0032 -0.010242,0.01026 -0.015364,0.0154 -0.012003,0.01203 -0.032827,0.03733 -0.046081,0.04619 -0.0095,0.0063 -0.021195,0.009 -0.030727,0.0154 -0.0065,0.0043 -0.04291,0.03981 -0.04608,0.04619 -0.0023,0.0046 0.0023,0.0108 0,0.0154 -0.0032,0.0065 -0.010242,0.01026 -0.015364,0.0154 -0.0051,0.0051 -0.0089,0.01215 -0.015363,0.0154 -0.0046,0.0023 -0.011743,-0.0036 -0.015364,0 -0.0036,0.0036 0.0051,0.0154 0,0.0154 -0.0072,0 -0.0089,-0.01215 -0.015364,-0.0154 -0.0046,-0.0023 -0.010782,0.0023 -0.015363,0 -0.0065,-0.0032 -0.0089,-0.01215 -0.015364,-0.0154 -0.021195,-0.01061 -0.013743,0.01864 -0.030727,-0.0154 -0.0023,-0.0046 0.0023,-0.01081 0,-0.0154 -0.0092,-0.01847 -0.036868,-0.02771 -0.046081,-0.04619 -0.0023,-0.0046 0.0036,-0.01177 0,-0.0154 -0.0036,-0.0036 -0.011743,0.0036 -0.015364,0 -0.0036,-0.0036 0.0036,-0.01177 0,-0.0154 -0.0036,-0.0036 -0.011743,0.0036 -0.015364,0 -0.0036,-0.0036 0.0023,-0.0108 0,-0.0154 -0.0032,-0.0065 -0.010242,-0.01026 -0.015364,-0.0154 -0.0051,-0.0051 -0.0089,-0.01215 -0.015363,-0.0154 -0.0046,-0.0023 -0.010782,0.0023 -0.015364,0 -0.012953,-0.0065 -0.017774,-0.0243 -0.030727,-0.03079 -0.0092,-0.0046 -0.021565,0.0046 -0.030727,0 -0.0065,-0.0032 -0.0089,-0.01215 -0.015364,-0.0154 -0.0046,-0.0023 -0.010783,0.0023 -0.015364,0 -0.0065,-0.0032 -0.0089,-0.01215 -0.015363,-0.0154 -0.004,-0.002 -0.053412,0 -0.061444,0 h -0.015363 c -0.0051,0 -0.011743,-0.0036 -0.015364,0 -0.0036,0.0036 0.0036,0.01177 0,0.0154 -0.0072,0.0072 -0.023485,-0.0072 -0.030727,0 -0.0036,0.0036 0.0036,0.01177 0,0.0154 -0.0036,0.0036 -0.011743,-0.0036 -0.015364,0 -0.0036,0.0036 0.0036,0.01177 0,0.0154 -0.0036,0.0036 -0.010242,0 -0.015363,0 h -0.015364 c -0.008,0 -0.057413,0.002 -0.061444,0 -0.0065,-0.0032 -0.0089,-0.01215 -0.015364,-0.0154 -0.0092,-0.0046 -0.021565,0.0046 -0.030727,0 -0.0065,-0.0032 -0.0089,-0.01215 -0.015364,-0.0154 -0.0092,-0.0046 -0.023475,0.0072 -0.030727,0 -0.0036,-0.0036 0.0036,-0.01177 0,-0.0154 -0.0036,-0.0036 -0.010312,8.48e-4 -0.015364,0 -0.025756,-0.0043 -0.051202,-0.01026 -0.076808,-0.0154 z" />
        <path
             style="fill:#ffe57d;fill-rule:evenodd"
             inkscape:connector-curvature="0"
             d="m 18.478356,31.77865 a 2.1147801,2.1211718 0 0 1 -4.22956,0 2.1147801,2.1211718 0 1 1 4.22956,0 z"
             id="path58" />
        <path
             style="opacity:0.98999999;fill:url(#linearGradient3087)"
             inkscape:connector-curvature="0"
             d="m 9,27 10.5,0 c 0.870884,0 1.502788,0.467566 1.5,1.5 l -0.04183,15.48864 -6.628248,0 z"
             id="path60"
             sodipodi:nodetypes="cssccc" />
    </g>
</svg>
