<?xml version="1.0" encoding="UTF-8" standalone="no"?>
<svg
   xmlns:dc="http://purl.org/dc/elements/1.1/"
   xmlns:cc="http://creativecommons.org/ns#"
   xmlns:rdf="http://www.w3.org/1999/02/22-rdf-syntax-ns#"
   xmlns:svg="http://www.w3.org/2000/svg"
   xmlns="http://www.w3.org/2000/svg"
   xmlns:xlink="http://www.w3.org/1999/xlink"
   xmlns:sodipodi="http://sodipodi.sourceforge.net/DTD/sodipodi-0.dtd"
   xmlns:inkscape="http://www.inkscape.org/namespaces/inkscape"
   viewBox="0 0 22 22"
   id="svg2"
   version="1.1"
   inkscape:version="0.48.3.1 r9886"
   width="100%"
   height="100%"
   sodipodi:docname="text-x-python.svg">
  <metadata
     id="metadata46">
    <rdf:RDF>
      <cc:Work
         rdf:about="">
        <dc:format>image/svg+xml</dc:format>
        <dc:type
           rdf:resource="http://purl.org/dc/dcmitype/StillImage" />
        <dc:title />
      </cc:Work>
    </rdf:RDF>
  </metadata>
  <sodipodi:namedview
     pagecolor="#ffffff"
     bordercolor="#666666"
     borderopacity="1"
     objecttolerance="10"
     gridtolerance="10"
     guidetolerance="10"
     inkscape:pageopacity="0"
     inkscape:pageshadow="2"
     inkscape:window-width="911"
     inkscape:window-height="713"
     id="namedview44"
     showgrid="true"
     inkscape:zoom="8"
     inkscape:cx="15.537327"
     inkscape:cy="11.833825"
     inkscape:window-x="316"
     inkscape:window-y="218"
     inkscape:window-maximized="0"
     inkscape:current-layer="svg2"
     width="22px">
    <inkscape:grid
       type="xygrid"
       id="grid3106"
       empspacing="5"
       visible="true"
       enabled="true"
       snapvisiblegridlinesonly="true" />
  </sodipodi:namedview>
  <defs
     id="defs4">
    <linearGradient
       gradientUnits="userSpaceOnUse"
       id="linearGradient3120"
       x2="0"
       y1="25.54085"
       y2="46.623249">
      <stop
         offset="0"
         stop-color="#fff"
         stop-opacity=".669"
         id="stop15" />
      <stop
         offset="1"
         stop-color="#fff"
         stop-opacity="0"
         id="stop17" />
    </linearGradient>
    <linearGradient
       gradientUnits="userSpaceOnUse"
       id="linearGradient3258-1"
       x2="0"
       y1="26.705429"
       y2="46.050289">
      <stop
         offset="0"
         stop-color="#d1d1d1"
         id="stop20" />
      <stop
         offset="1"
         stop-color="#fbfbfb"
         id="stop22" />
    </linearGradient>
    <linearGradient
       inkscape:collect="always"
       xlink:href="#linearGradient3120"
       id="linearGradient3116"
       gradientUnits="userSpaceOnUse"
       y1="25.54085"
       x2="0"
       y2="46.623249"
       gradientTransform="translate(-1,-25)" />
    <linearGradient
       inkscape:collect="always"
       xlink:href="#linearGradient3258-1"
       id="linearGradient3119"
       gradientUnits="userSpaceOnUse"
       y1="26.705429"
       x2="0"
       y2="46.050289"
       gradientTransform="translate(-1,-25)" />
  </defs>
  <path
     inkscape:connector-curvature="0"
     style="fill:url(#linearGradient3119);stroke:#818181;stroke-linecap:round;stroke-linejoin:round"
     id="path26"
     d="m 3.5,0.5 h 15 a 2,2 0 0 1 2,2 v 17 a 2,2 0 0 1 -2,2 h -15 a 2,2 0 0 1 -2,-2 v -17 a 2,2 0 0 1 2,-2" />
  <path
     inkscape:connector-curvature="0"
     style="fill:none;stroke:url(#linearGradient3116)"
     id="path28"
     d="m 3.5,1.5 h 15 a 1,1 0 0 1 1,1 v 17 a 1,1 0 0 1 -1,1 h -15 a 1,1 0 0 1 -1,-1 v -17 a 1,1 0 0 1 1,-1" />
  <path
     inkscape:connector-curvature="0"
     style="color:#000000;fill:#5db7fd;fill-opacity:1;fill-rule:nonzero;stroke:#1b3e74;stroke-width:1;stroke-linecap:butt;stroke-linejoin:miter;stroke-miterlimit:4;stroke-opacity:1;stroke-dasharray:none;stroke-dashoffset:0;marker:none;visibility:visible;display:inline;overflow:visible;enable-background:accumulate"
     d="M 9,4.4999993 C 8.019894,4.4999993 7.5,4.9966856 7.5,6 l 0,2.5 2.500028,0 -5.6e-5,0 -3.9999721,0 C 5.1587974,8.5 4.5,9.026322 4.5,10 l 0,3 c 0,0.991628 0.4955645,1.500137 1.4999999,1.500137 l 1.5000002,-2.73e-4 0,-2.299864 c 0,-1.017094 0.6309769,-1.7 1.6999999,-1.7 l 2.8,0 c 0.906316,0 1.5,-0.627558 1.5,-1.7 L 13.5,6 C 13.5,4.9372483 12.960491,4.4999993 12,4.4999993 z"
     id="path3785"
     sodipodi:nodetypes="sscccsssccsssssss" />
  <rect
     style="color:#000000;fill:#ffffff;fill-opacity:1;fill-rule:nonzero;stroke:none;stroke-width:1px;marker:none;visibility:visible;display:inline;overflow:visible;enable-background:accumulate"
     id="rect3109"
     width="1"
     height="1"
     x="8.9999962"
     y="6" />
  <path
     sodipodi:nodetypes="sscccsssccsssssss"
     id="path3117"
     d="m 13,17.5 c 0.980106,0 1.5,-0.496685 1.5,-1.5 l 0,-2.5 -2.500028,0 5.6e-5,0 L 16,13.5 c 0.841203,0 1.5,-0.526322 1.5,-1.5 l 0,-3 C 17.5,8.008372 17.004436,7.5 16,7.5 l -1.5,0 0,1.5 c 0,1.376469 -0.993477,2.5 -2.5,2.5 l -2.5,0 c -0.916629,0 -1,0.05743 -1,1 l 0,3.5 c 0,1.062752 0.539509,1.5 1.5,1.5 z"
     style="color:#000000;fill:#f9df2e;fill-opacity:1;fill-rule:nonzero;stroke:#ad7900;stroke-width:1;stroke-linecap:butt;stroke-linejoin:miter;stroke-miterlimit:4;stroke-opacity:1;stroke-dasharray:none;stroke-dashoffset:0;marker:none;visibility:visible;display:inline;overflow:visible;enable-background:accumulate"
     inkscape:connector-curvature="0" />
  <rect
     y="15"
     x="11.999996"
     height="1"
     width="1"
     id="rect3123"
     style="color:#000000;fill:#ffffff;fill-opacity:1;fill-rule:nonzero;stroke:none;stroke-width:1px;marker:none;visibility:visible;display:inline;overflow:visible;enable-background:accumulate" />
</svg>
