<?xml version="1.0" encoding="UTF-8" standalone="no"?>
<svg
   xmlns:dc="http://purl.org/dc/elements/1.1/"
   xmlns:cc="http://creativecommons.org/ns#"
   xmlns:rdf="http://www.w3.org/1999/02/22-rdf-syntax-ns#"
   xmlns:svg="http://www.w3.org/2000/svg"
   xmlns="http://www.w3.org/2000/svg"
   xmlns:xlink="http://www.w3.org/1999/xlink"
   xmlns:sodipodi="http://sodipodi.sourceforge.net/DTD/sodipodi-0.dtd"
   xmlns:inkscape="http://www.inkscape.org/namespaces/inkscape"
   viewBox="0 0 22 22"
   id="svg2"
   version="1.1"
   inkscape:version="0.48.3.1 r9886"
   width="100%"
   height="100%"
   sodipodi:docname="text-x-chdr.svg">
  <metadata
     id="metadata46">
    <rdf:RDF>
      <cc:Work
         rdf:about="">
        <dc:format>image/svg+xml</dc:format>
        <dc:type
           rdf:resource="http://purl.org/dc/dcmitype/StillImage" />
        <dc:title />
      </cc:Work>
    </rdf:RDF>
  </metadata>
  <sodipodi:namedview
     pagecolor="#ffffff"
     bordercolor="#666666"
     borderopacity="1"
     objecttolerance="10"
     gridtolerance="10"
     guidetolerance="10"
     inkscape:pageopacity="0"
     inkscape:pageshadow="2"
     inkscape:window-width="911"
     inkscape:window-height="713"
     id="namedview44"
     showgrid="true"
     inkscape:zoom="9.8333334"
     inkscape:cx="16.602186"
     inkscape:cy="15.675032"
     inkscape:window-x="317"
     inkscape:window-y="242"
     inkscape:window-maximized="0"
     inkscape:current-layer="svg2"
     width="22px">
    <inkscape:grid
       type="xygrid"
       id="grid3106"
       empspacing="5"
       visible="true"
       enabled="true"
       snapvisiblegridlinesonly="true" />
  </sodipodi:namedview>
  <defs
     id="defs4">
    <linearGradient
       gradientUnits="userSpaceOnUse"
       id="linearGradient3120"
       x2="0"
       y1="25.54085"
       y2="46.623249">
      <stop
         offset="0"
         stop-color="#fff"
         stop-opacity=".669"
         id="stop15" />
      <stop
         offset="1"
         stop-color="#fff"
         stop-opacity="0"
         id="stop17" />
    </linearGradient>
    <linearGradient
       gradientUnits="userSpaceOnUse"
       id="linearGradient3258-1"
       x2="0"
       y1="26.705429"
       y2="46.050289">
      <stop
         offset="0"
         stop-color="#d1d1d1"
         id="stop20" />
      <stop
         offset="1"
         stop-color="#fbfbfb"
         id="stop22" />
    </linearGradient>
    <linearGradient
       inkscape:collect="always"
       xlink:href="#linearGradient3120"
       id="linearGradient3116"
       gradientUnits="userSpaceOnUse"
       y1="25.54085"
       x2="0"
       y2="46.623249"
       gradientTransform="translate(-1,-25)" />
    <linearGradient
       inkscape:collect="always"
       xlink:href="#linearGradient3258-1"
       id="linearGradient3119"
       gradientUnits="userSpaceOnUse"
       y1="26.705429"
       x2="0"
       y2="46.050289"
       gradientTransform="translate(-1,-25)" />
  </defs>
  <path
     inkscape:connector-curvature="0"
     style="fill:url(#linearGradient3119);stroke:#818181;stroke-linecap:round;stroke-linejoin:round"
     id="path26"
     d="m 3.5,0.5 h 15 a 2,2 0 0 1 2,2 v 17 a 2,2 0 0 1 -2,2 h -15 a 2,2 0 0 1 -2,-2 v -17 a 2,2 0 0 1 2,-2" />
  <path
     inkscape:connector-curvature="0"
     style="fill:none;stroke:url(#linearGradient3116)"
     id="path28"
     d="m 3.5,1.5 h 15 a 1,1 0 0 1 1,1 v 17 a 1,1 0 0 1 -1,1 h -15 a 1,1 0 0 1 -1,-1 v -17 a 1,1 0 0 1 1,-1" />
  <path
     style="fill:#999999"
     inkscape:connector-curvature="0"
     id="path30"
     d="m 13,5 h 4 v 1 h -4 z" />
  <path
     style="fill:#999999"
     inkscape:connector-curvature="0"
     id="path32"
     d="m 13,7 h 4 v 1 h -4 z" />
  <path
     style="fill:#999999"
     inkscape:connector-curvature="0"
     id="path34"
     d="m 13,9 h 4 v 1 h -4 z" />
  <path
     style="fill:#999999"
     inkscape:connector-curvature="0"
     id="path36"
     d="m 13,11 h 4 v 1 h -4 z" />
  <path
     style="fill:#999999"
     inkscape:connector-curvature="0"
     id="path38"
     d="m 5,13 h 12 v 1 H 5 z" />
  <path
     style="fill:#999999"
     inkscape:connector-curvature="0"
     id="path40"
     d="m 5,15 h 12 v 1 H 5 z" />
  <path
     style="fill:#999999"
     inkscape:connector-curvature="0"
     id="path42"
     d="m 5,17 h 12 v 1 H 5 z" />
  <g
     transform="matrix(0.56234867,0,0,0.53399328,-2.2069706,-1.9999989)"
     style="font-size:17.98176765px;font-style:normal;font-weight:normal;line-height:125%;letter-spacing:0px;word-spacing:0px;fill:#0060ca;fill-opacity:1;stroke:none;font-family:Sans"
     id="text3009-4">
    <path
       d="m 12.81584,13.108777 3.556512,-0.06733 0,3.812696 5.334769,0 0,-3.745366 3.556512,0 0,13.108779 -3.556512,-10e-7 0,-5.618047 -5.334769,0 0,5.550718 -3.556512,0.06733 0,-13.108779"
       style="font-variant:normal;font-weight:bold;font-stretch:normal;fill:#0060ca;font-family:Sans;-inkscape-font-specification:Sans Bold"
       id="path3028"
       inkscape:connector-curvature="0"
       sodipodi:nodetypes="ccccccccccccc" />
  </g>
</svg>
