<?xml version="1.0" encoding="UTF-8" standalone="no"?>
<svg
   xmlns:dc="http://purl.org/dc/elements/1.1/"
   xmlns:cc="http://creativecommons.org/ns#"
   xmlns:rdf="http://www.w3.org/1999/02/22-rdf-syntax-ns#"
   xmlns:svg="http://www.w3.org/2000/svg"
   xmlns="http://www.w3.org/2000/svg"
   xmlns:xlink="http://www.w3.org/1999/xlink"
   xmlns:sodipodi="http://sodipodi.sourceforge.net/DTD/sodipodi-0.dtd"
   xmlns:inkscape="http://www.inkscape.org/namespaces/inkscape"
   viewBox="0 0 22 22"
   id="svg2"
   version="1.1"
   inkscape:version="0.48.3.1 r9886"
   width="100%"
   height="100%"
   sodipodi:docname="text-x-ruby.svg">
  <metadata
     id="metadata46">
    <rdf:RDF>
      <cc:Work
         rdf:about="">
        <dc:format>image/svg+xml</dc:format>
        <dc:type
           rdf:resource="http://purl.org/dc/dcmitype/StillImage" />
        <dc:title />
      </cc:Work>
    </rdf:RDF>
  </metadata>
  <sodipodi:namedview
     pagecolor="#ffffff"
     bordercolor="#666666"
     borderopacity="1"
     objecttolerance="10"
     gridtolerance="10"
     guidetolerance="10"
     inkscape:pageopacity="0"
     inkscape:pageshadow="2"
     inkscape:window-width="911"
     inkscape:window-height="713"
     id="namedview44"
     showgrid="true"
     inkscape:zoom="13.906434"
     inkscape:cx="12.012957"
     inkscape:cy="12.408109"
     inkscape:window-x="290"
     inkscape:window-y="202"
     inkscape:window-maximized="0"
     inkscape:current-layer="svg2"
     width="22px">
    <inkscape:grid
       type="xygrid"
       id="grid3106"
       empspacing="5"
       visible="true"
       enabled="true"
       snapvisiblegridlinesonly="true" />
  </sodipodi:namedview>
  <defs
     id="defs4">
    <linearGradient
       id="linearGradient4171">
      <stop
         style="stop-color:#ffffff;stop-opacity:1;"
         offset="0"
         id="stop4173" />
      <stop
         style="stop-color:#ff0101;stop-opacity:1;"
         offset="1"
         id="stop4175" />
    </linearGradient>
    <linearGradient
       gradientUnits="userSpaceOnUse"
       id="linearGradient3120"
       x2="0"
       y1="25.54085"
       y2="46.623249">
      <stop
         offset="0"
         stop-color="#fff"
         stop-opacity=".669"
         id="stop15" />
      <stop
         offset="1"
         stop-color="#fff"
         stop-opacity="0"
         id="stop17" />
    </linearGradient>
    <linearGradient
       gradientUnits="userSpaceOnUse"
       id="linearGradient3258-1"
       x2="0"
       y1="26.705429"
       y2="46.050289">
      <stop
         offset="0"
         stop-color="#d1d1d1"
         id="stop20" />
      <stop
         offset="1"
         stop-color="#fbfbfb"
         id="stop22" />
    </linearGradient>
    <linearGradient
       inkscape:collect="always"
       xlink:href="#linearGradient3120"
       id="linearGradient3116"
       gradientUnits="userSpaceOnUse"
       y1="25.54085"
       x2="0"
       y2="46.623249"
       gradientTransform="translate(-1,-25)" />
    <linearGradient
       inkscape:collect="always"
       xlink:href="#linearGradient3258-1"
       id="linearGradient3119"
       gradientUnits="userSpaceOnUse"
       y1="26.705429"
       x2="0"
       y2="46.050289"
       gradientTransform="translate(-1,-25)" />
    <linearGradient
       inkscape:collect="always"
       xlink:href="#linearGradient4171"
       id="linearGradient4177"
       x1="12"
       y1="8"
       x2="12"
       y2="18"
       gradientUnits="userSpaceOnUse"
       gradientTransform="translate(-1,-1)" />
  </defs>
  <path
     inkscape:connector-curvature="0"
     style="fill:url(#linearGradient3119);stroke:#818181;stroke-linecap:round;stroke-linejoin:round"
     id="path26"
     d="m 3.5,0.5 h 15 a 2,2 0 0 1 2,2 v 17 a 2,2 0 0 1 -2,2 h -15 a 2,2 0 0 1 -2,-2 v -17 a 2,2 0 0 1 2,-2" />
  <path
     inkscape:connector-curvature="0"
     style="fill:none;stroke:url(#linearGradient3116)"
     id="path28"
     d="m 3.5,1.5 h 15 a 1,1 0 0 1 1,1 v 17 a 1,1 0 0 1 -1,1 h -15 a 1,1 0 0 1 -1,-1 v -17 a 1,1 0 0 1 1,-1" />
  <path
     style="font-size:18.12018967px;font-style:normal;font-weight:normal;line-height:125%;letter-spacing:0px;word-spacing:0px;color:#000000;fill:#ff0103;fill-opacity:1;fill-rule:evenodd;stroke:none;stroke-width:1.03759587;marker:none;visibility:visible;display:inline;overflow:visible;enable-background:accumulate;font-family:Sans"
     d="m 7.6,6.5 -3,4 5.3,7 L 11,17.4929 11,6.5 z"
     id="path4063"
     inkscape:connector-curvature="0"
     sodipodi:nodetypes="cccccc" />
  <path
     style="font-size:18.12018967px;font-style:normal;font-weight:normal;line-height:125%;letter-spacing:0px;word-spacing:0px;color:#000000;fill:#ff0101;fill-opacity:1;fill-rule:evenodd;stroke:none;stroke-width:1.03759587;marker:none;visibility:visible;display:inline;overflow:visible;enable-background:accumulate;font-family:Sans"
     d="m 11,6.5 0,11 1,0 5.3,-7 -2.8,-4 z"
     id="path4068"
     inkscape:connector-curvature="0"
     sodipodi:nodetypes="cccccc" />
  <path
     style="font-size:18.12018967px;font-style:normal;font-weight:normal;line-height:125%;letter-spacing:0px;word-spacing:0px;color:#000000;fill:#ff0801;fill-opacity:1;fill-rule:evenodd;stroke:none;stroke-width:1.03759587;marker:none;visibility:visible;display:inline;overflow:visible;enable-background:accumulate;font-family:Sans"
     d="m 10,7 -2,3.5 2.5,7 1,0 2.5,-7 L 12,7 z"
     id="path4066"
     inkscape:connector-curvature="0"
     sodipodi:nodetypes="ccccccc" />
  <path
     style="font-size:medium;font-style:normal;font-variant:normal;font-weight:normal;font-stretch:normal;text-indent:0;text-align:start;text-decoration:none;line-height:normal;letter-spacing:normal;word-spacing:normal;text-transform:none;direction:ltr;block-progression:tb;writing-mode:lr-tb;text-anchor:start;baseline-shift:baseline;color:#000000;fill:url(#linearGradient4177);fill-opacity:1;stroke:none;stroke-width:1px;marker:none;visibility:visible;display:inline;overflow:visible;enable-background:accumulate;font-family:Sans;-inkscape-font-specification:Sans"
     d="M 8,6.3125 7.53125,7 6.625,7 l 0,1 0.21875,0 -1.5625,2.25 -0.1875,0.28125 0.1875,0.28125 4.875,6.96875 0.3125,-0.1875 L 10.5,17.6875 11,17.5 l 0.5,0.1875 0.03125,-0.09375 0.28125,0.1875 4.875,-6.96875 L 16.875,10.53125 16.6875,10.25 15.15625,8 15.375,8 15.375,7 14.46875,7 14,6.3125 13.15625,6.875 13.25,7 12.34375,7 12.03125,6.375 11.15625,6.84375 11.25,7 10.75,7 10.84375,6.84375 9.96875,6.375 9.65625,7 8.71875,7 8.8125,6.875 8,6.3125 z M 8.0625,8 9.125,8 l -1.0625,2.09375 -1.4375,0 L 8.0625,8 z m 2.1875,0 1.5,0 1.09375,2.09375 -3.6875,0 L 10.25,8 z m 2.625,0 1.0625,0 1.4375,2.09375 -1.4375,0 L 12.875,8 z m -6.15625,3.09375 1.375,0 1.5,4.125 -2.875,-4.125 z m 2.4375,0 3.6875,0 L 11,16.15625 9.15625,11.09375 z m 4.75,0 1.375,0 -2.875,4.125 1.5,-4.125 z"
     id="path4111"
     inkscape:connector-curvature="0" />
  <path
     style="font-size:18.12018967px;font-style:normal;font-weight:normal;line-height:125%;letter-spacing:0px;word-spacing:0px;color:#000000;fill:none;stroke:#7c0000;stroke-width:1.00000012;stroke-linecap:square;stroke-linejoin:miter;stroke-miterlimit:4;stroke-opacity:1;stroke-dashoffset:0;marker:none;visibility:visible;display:inline;overflow:visible;enable-background:accumulate;font-family:Sans"
     d="m 12.203704,17.5 -2.407407,0 -5.2962971,-6.934783 2.8888896,-4.0652171 7.2222225,0 2.888889,4.0652181 z"
     id="path4046"
     inkscape:connector-curvature="0"
     sodipodi:nodetypes="ccccccc" />
</svg>
