<?xml version="1.0" encoding="UTF-8" standalone="no"?>
<svg xmlns:dc="http://purl.org/dc/elements/1.1/" xmlns:cc="http://creativecommons.org/ns#" xmlns:rdf="http://www.w3.org/1999/02/22-rdf-syntax-ns#" xmlns:svg="http://www.w3.org/2000/svg" xmlns="http://www.w3.org/2000/svg" xmlns:xlink="http://www.w3.org/1999/xlink" xmlns:sodipodi="http://sodipodi.sourceforge.net/DTD/sodipodi-0.dtd" xmlns:inkscape="http://www.inkscape.org/namespaces/inkscape" viewBox="0 0 22 22" id="svg2" version="1.1" inkscape:version="0.48.4 r9939" width="100%" height="100%" sodipodi:docname="text-x-template22.svg">
    <metadata id="metadata68">
        <rdf:RDF>
            <cc:Work rdf:about="">
                <dc:format>image/svg+xml</dc:format>
                <dc:type rdf:resource="http://purl.org/dc/dcmitype/StillImage" />
                <dc:title />
            </cc:Work>
        </rdf:RDF>
    </metadata>
    <sodipodi:namedview pagecolor="#ffffff" bordercolor="#666666" borderopacity="1" objecttolerance="10" gridtolerance="10" guidetolerance="10" inkscape:pageopacity="0" inkscape:pageshadow="2" inkscape:window-width="1280" inkscape:window-height="976" id="namedview66" showgrid="true" inkscape:zoom="13.906433" inkscape:cx="11.540362" inkscape:cy="11.260361" inkscape:window-x="0" inkscape:window-y="24" inkscape:window-maximized="1" inkscape:current-layer="svg2" inkscape:snap-bbox="true">
        <inkscape:grid type="xygrid" id="grid3135" empspacing="5" visible="true" enabled="true" snapvisiblegridlinesonly="true" />
    </sodipodi:namedview>
    <defs id="defs4">
        <linearGradient gradientUnits="userSpaceOnUse" id="linearGradient3120" x2="0" y1="25.54085" y2="46.623249">
            <stop offset="0" stop-color="#fff" stop-opacity=".669" id="stop15" />
            <stop offset="1" stop-color="#fff" stop-opacity="0" id="stop17" />
        </linearGradient>
        <linearGradient inkscape:collect="always" xlink:href="#linearGradient3120" id="linearGradient3059" gradientUnits="userSpaceOnUse" y1="25.54085" x2="0" y2="46.623249" gradientTransform="translate(-0.99999982,-25)" />
        <linearGradient id="linearGradient3853">
            <stop style="stop-color:#ffffff;stop-opacity:1;" offset="0" id="stop3855" />
            <stop style="stop-color:#ffffff;stop-opacity:0;" offset="1" id="stop3857" />
        </linearGradient>
        <linearGradient inkscape:collect="always" xlink:href="#linearGradient3853" id="linearGradient3141" gradientUnits="userSpaceOnUse" gradientTransform="matrix(1,0,0,0.54285714,-5.9999998,-1.8)" x1="13" y1="7" x2="13" y2="42" />
        <linearGradient id="linearGradient3916">
            <stop id="stop3918" offset="0" style="stop-color:#505050;stop-opacity:1;" />
            <stop style="stop-color:#ffffff;stop-opacity:1;" offset="0.5" id="stop3924" />
            <stop id="stop3920" offset="1" style="stop-color:#505050;stop-opacity:1;" />
        </linearGradient>
        <linearGradient inkscape:collect="always" xlink:href="#linearGradient3916" id="linearGradient3257" gradientUnits="userSpaceOnUse" gradientTransform="matrix(0.83333344,0,0,1.0000001,-3.3333334,-6.0000009)" x1="4" y1="9.5" x2="10" y2="9.5" />
        <linearGradient inkscape:collect="always" xlink:href="#linearGradient3916" id="linearGradient3261" gradientUnits="userSpaceOnUse" gradientTransform="matrix(0.83333344,0,0,1.0000001,-3.3333334,-1.0000009)" x1="4" y1="9.5" x2="10" y2="9.5" />
        <linearGradient inkscape:collect="always" xlink:href="#linearGradient3916" id="linearGradient3265" gradientUnits="userSpaceOnUse" gradientTransform="matrix(0.83333344,0,0,1.0000001,-3.3333334,3.9999991)" x1="4" y1="9.5" x2="10" y2="9.5" />
        <linearGradient inkscape:collect="always" xlink:href="#linearGradient3916" id="linearGradient3269" gradientUnits="userSpaceOnUse" gradientTransform="matrix(0.83333344,0,0,1.0000001,-3.3333334,8.999999)" x1="4" y1="9.5" x2="10" y2="9.5" />
        <linearGradient inkscape:collect="always" xlink:href="#linearGradient3157-5-9-8" id="linearGradient3313-0" gradientUnits="userSpaceOnUse" gradientTransform="matrix(0,-0.57062027,-0.56997455,0,2.4985064,-2.8333269)" x1="-42.696152" x2="-5.8431101" />
        <linearGradient x2="-5.8431101" x1="-42.696152" id="linearGradient3157-5-9-8" gradientUnits="userSpaceOnUse">
            <stop id="stop19-6-7" stop-color="#fff" offset="0" />
            <stop id="stop21-3-1" stop-color="#cdcdcd" offset="1" />
        </linearGradient>
        <linearGradient id="linearGradient3866-4-4">
            <stop id="stop3868-7-6" offset="0" style="stop-color:#818181;stop-opacity:1;" />
            <stop id="stop3870-6-8" offset="1" style="stop-color:#333d57;stop-opacity:1;" />
        </linearGradient>
        <linearGradient y2="-21" x2="-43" y1="-21" x1="-5" gradientTransform="matrix(0,-0.4057248,-0.4057248,0,33.844931,-1.6046968)" gradientUnits="userSpaceOnUse" id="linearGradient3092-3" xlink:href="#linearGradient3866-4-4" inkscape:collect="always" />
        <linearGradient gradientTransform="matrix(0,-1,-1,0,1.6172605e-8,-1.5826913e-8)" x2="-5.8431101" x1="-42.696152" id="linearGradient3157-5-7-7" gradientUnits="userSpaceOnUse">
            <stop id="stop19-0-9" stop-color="#fff" offset="0" />
            <stop id="stop21-5-3" stop-color="#cdcdcd" offset="1" />
        </linearGradient>
        <linearGradient x2="-5.8431101" x1="-42.696152" gradientTransform="matrix(0,-0.4057248,-0.4057248,0,33.844931,-1.6046968)" gradientUnits="userSpaceOnUse" id="linearGradient3090-7" xlink:href="#linearGradient3157-5-7-7" inkscape:collect="always" />
        <linearGradient id="linearGradient4417">
            <stop style="stop-color:#505050;stop-opacity:1;" offset="0" id="stop4419" />
            <stop id="stop4421" offset="1" style="stop-color:#ffffff;stop-opacity:1;" />
        </linearGradient>
        <linearGradient y2="9.5" x2="7" y1="9.5" x1="4" gradientTransform="matrix(0.66666675,0,0,1.0000001,-2.6666667,-6.000001)" gradientUnits="userSpaceOnUse" id="linearGradient4383-2" xlink:href="#linearGradient4417" inkscape:collect="always" />
        <linearGradient inkscape:collect="always" xlink:href="#linearGradient4417" id="linearGradient3174" gradientUnits="userSpaceOnUse" gradientTransform="matrix(0.66666675,0,0,1.0000001,-2.6666667,-6.000001)" x1="4" y1="9.5" x2="7" y2="9.5" />
        <linearGradient inkscape:collect="always" xlink:href="#linearGradient4417" id="linearGradient3176" gradientUnits="userSpaceOnUse" gradientTransform="matrix(0.66666675,0,0,1.0000001,-2.6666667,-6.000001)" x1="4" y1="9.5" x2="7" y2="9.5" />
    </defs>
    <path inkscape:connector-curvature="0" style="color:black;fill:url(#linearGradient3313-0);fill-opacity:1;fill-rule:nonzero;stroke:#818181;stroke-width:1;stroke-linecap:round;stroke-linejoin:round;stroke-miterlimit:4;stroke-opacity:1;stroke-dasharray:none;stroke-dashoffset:0;marker:none;visibility:visible;display:inline;overflow:visible;enable-background:accumulate" id="path36" d="M 3.5000002,0.5 H 18.5 a 2,2 0 0 1 2,2 v 17 a 2,2 0 0 1 -2,2 H 3.5000002 a 2,2 0 0 1 -2,-2 v -17 a 2,2 0 0 1 2,-2" />
    <path id="path3034" d="m 7.0000002,1 -2.960192,0 c -1.104293,0 -2.039808,0.4924035 -2.039808,1 l 0,18 c 0,0.566053 0.942912,1 1.960192,1 l 3.039808,0" style="color:black;fill:#aaa;fill-opacity:1;fill-rule:nonzero;stroke:none;stroke-width:1;marker:none;visibility:visible;display:inline;overflow:visible;enable-background:accumulate" inkscape:connector-curvature="0" sodipodi:nodetypes="cssssc" />
    <path style="color:black;fill:#787878;fill-opacity:1;fill-rule:nonzero;stroke:none;stroke-width:1;marker:none;visibility:visible;display:inline;overflow:visible;enable-background:accumulate" d="m 6.0000002,2 1,0 0,19 -1,0 z" id="rect3859" inkscape:connector-curvature="0" />
    <path style="opacity:0.5;color:black;fill:url(#linearGradient3141);fill-opacity:1;fill-rule:nonzero;stroke:none;stroke-width:1;marker:none;visibility:visible;display:inline;overflow:visible;enable-background:accumulate" d="m 7.0000002,2 1,0 0,19 -1,0 z" id="rect3843" inkscape:connector-curvature="0" />
    <path inkscape:connector-curvature="0" style="fill:none;stroke:url(#linearGradient3059)" id="path38" d="M 3.5000002,1.5 H 18.5 a 1,1 0 0 1 1,1 v 17 a 1,1 0 0 1 -1,1 H 3.5000002 a 1,1 0 0 1 -1,-1 v -17 a 1,1 0 0 1 1,-1" />
    <path style="color:black;fill:#505050;fill-opacity:1;fill-rule:nonzero;stroke:none;stroke-width:1;marker:none;visibility:visible;display:inline;overflow:visible;enable-background:accumulate" d="m 4.5000002,2 c -0.8284271,0 -1.5,0.6715729 -1.5,1.5 0,0.8284271 0.6715729,1.5 1.5,1.5 0.8284271,0 1.5,-0.6715729 1.5,-1.5 0,-0.8284271 -0.6715729,-1.5 -1.5,-1.5 z m 0,5 c -0.8284271,0 -1.5,0.6715729 -1.5,1.5 0,0.828427 0.6715729,1.5 1.5,1.5 0.8284271,0 1.5,-0.671573 1.5,-1.5 0,-0.8284271 -0.6715729,-1.5 -1.5,-1.5 z m 0,5 c -0.8284271,0 -1.5,0.671573 -1.5,1.5 0,0.828427 0.6715729,1.5 1.5,1.5 0.8284271,0 1.5,-0.671573 1.5,-1.5 0,-0.828427 -0.6715729,-1.5 -1.5,-1.5 z m 0,5 c -0.8284271,0 -1.5,0.671573 -1.5,1.5 0,0.828427 0.6715729,1.5 1.5,1.5 0.8284271,0 1.5,-0.671573 1.5,-1.5 0,-0.828427 -0.6715729,-1.5 -1.5,-1.5 z" id="path3914" inkscape:connector-curvature="0" />
    <rect rx="0.5" style="color:black;fill:url(#linearGradient3257);fill-opacity:1;fill-rule:nonzero;stroke:none;stroke-width:1;marker:none;visibility:visible;display:inline;overflow:visible;enable-background:accumulate" id="rect3908" width="5" height="1.0000001" x="0" y="3" ry="0.5" />
    <rect rx="0.5" ry="0.5" y="8" x="0" height="1.0000001" width="5" id="rect3479" style="color:black;fill:url(#linearGradient3261);fill-opacity:1;fill-rule:nonzero;stroke:none;stroke-width:1;marker:none;visibility:visible;display:inline;overflow:visible;enable-background:accumulate" />
    <rect style="color:black;fill:url(#linearGradient3265);fill-opacity:1;fill-rule:nonzero;stroke:none;stroke-width:1;marker:none;visibility:visible;display:inline;overflow:visible;enable-background:accumulate" id="rect3487" width="5" height="1.0000001" x="0" y="13" ry="0.5" rx="0.5" />
    <rect rx="0.5" ry="0.5" y="18" x="0" height="1.0000001" width="5" id="rect3495" style="color:black;fill:url(#linearGradient3269);fill-opacity:1;fill-rule:nonzero;stroke:none;stroke-width:1;marker:none;visibility:visible;display:inline;overflow:visible;enable-background:accumulate" />
    <g clip-path="none" clip-rule="nonzero" id="g8309" transform="matrix(0.24508821,0,0,0.24508821,110.42629,-44.459314)" />
    <path d="M 9.0000002,5 H 17 V 6 H 9.0000002 z" id="path30" inkscape:connector-curvature="0" style="fill:#999" />
    <path d="M 9.0000002,7 H 17 V 8 H 9.0000002 z" id="path32" inkscape:connector-curvature="0" style="fill:#999" />
    <path d="M 9.0000002,9 H 17 v 1 H 9.0000002 z" id="path34" inkscape:connector-curvature="0" style="fill:#999" />
    <path d="M 9.0000002,11 H 17 v 1 H 9.0000002 z" id="path36-7" inkscape:connector-curvature="0" style="fill:#999" />
    <path d="M 9.0000002,13 H 17 v 1 H 9.0000002 z" id="path38-8" inkscape:connector-curvature="0" style="fill:#999" />
    <path d="M 9.0000002,15 H 17 v 1 H 9.0000002 z" id="path40-6" inkscape:connector-curvature="0" style="fill:#999" />
    <path d="M 9.0000002,17 H 14 v 1 H 9.0000002 z" id="path42" inkscape:connector-curvature="0" style="fill:#999" />
</svg>
