<?xml version="1.0" encoding="UTF-8" standalone="no"?>
<svg
   xmlns:dc="http://purl.org/dc/elements/1.1/"
   xmlns:cc="http://creativecommons.org/ns#"
   xmlns:rdf="http://www.w3.org/1999/02/22-rdf-syntax-ns#"
   xmlns:svg="http://www.w3.org/2000/svg"
   xmlns="http://www.w3.org/2000/svg"
   xmlns:sodipodi="http://sodipodi.sourceforge.net/DTD/sodipodi-0.dtd"
   xmlns:inkscape="http://www.inkscape.org/namespaces/inkscape"
   viewBox="0 0 22 22"
   id="svg2"
   version="1.1"
   inkscape:version="0.48.3.1 r9886"
   width="100%"
   height="100%"
   sodipodi:docname="unknown.svg">
  <metadata
     id="metadata46">
    <rdf:RDF>
      <cc:Work
         rdf:about="">
        <dc:format>image/svg+xml</dc:format>
        <dc:type
           rdf:resource="http://purl.org/dc/dcmitype/StillImage" />
      </cc:Work>
    </rdf:RDF>
  </metadata>
  <sodipodi:namedview
     pagecolor="#ffffff"
     bordercolor="#666666"
     borderopacity="1"
     objecttolerance="10"
     gridtolerance="10"
     guidetolerance="10"
     inkscape:pageopacity="0"
     inkscape:pageshadow="2"
     inkscape:window-width="640"
     inkscape:window-height="480"
     id="namedview44" />
  <defs
     id="defs4">
    <linearGradient
       gradientUnits="userSpaceOnUse"
       id="linearGradient3120"
       x2="0"
       y1="27.54085"
       y2="48.62325">
      <stop
         offset="0"
         stop-color="#fff"
         stop-opacity=".669"
         id="stop15" />
      <stop
         offset="1"
         stop-color="#fff"
         stop-opacity="0"
         id="stop17" />
    </linearGradient>
    <linearGradient
       gradientUnits="userSpaceOnUse"
       id="linearGradient3258-1"
       x2="0"
       y1="28.70543"
       y2="48.05029">
      <stop
         offset="0"
         stop-color="#d1d1d1"
         id="stop20" />
      <stop
         offset="1"
         stop-color="#fbfbfb"
         id="stop22" />
    </linearGradient>
  </defs>
  <g
     transform="translate(0,-26)"
     id="g24">
    <path
       d="m3.5,26.5h15a2,2 0 0,1 2,2v17a2,2 0 0,1 -2,2h-15a2,2 0 0,1 -2-2v-17a2,2 0 0,1 2-2"
       fill="url(#linearGradient3258-1)"
       stroke="#818181"
       stroke-linecap="round"
       stroke-linejoin="round"
       id="path26" />
    <path
       d="m3.5,27.5h15a1,1 0 0,1 1,1v17a1,1 0 0,1 -1,1h-15a1,1 0 0,1 -1-1v-17a1,1 0 0,1 1-1"
       fill="none"
       stroke="url(#linearGradient3120)"
       id="path28" />
    <path
       d="m5,31h12v1h-12z"
       fill="#999"
       id="path30" />
    <path
       d="m5,33h12v1h-12z"
       fill="#999"
       id="path32" />
    <path
       d="m5,35h12v1h-12z"
       fill="#999"
       id="path34" />
    <path
       d="m5,37h12v1h-12z"
       fill="#999"
       id="path36" />
    <path
       d="m5,39h12v1h-12z"
       fill="#999"
       id="path38" />
    <path
       d="m5,41h12v1h-12z"
       fill="#999"
       id="path40" />
    <path
       d="m5,43h9v1h-9z"
       fill="#999"
       id="path42" />
  </g>
</svg>
