<?xml version="1.0" encoding="UTF-8" standalone="no"?>
<svg xmlns:dc="http://purl.org/dc/elements/1.1/" xmlns:cc="http://creativecommons.org/ns#" xmlns:rdf="http://www.w3.org/1999/02/22-rdf-syntax-ns#" xmlns:svg="http://www.w3.org/2000/svg" xmlns="http://www.w3.org/2000/svg" xmlns:xlink="http://www.w3.org/1999/xlink" xmlns:sodipodi="http://sodipodi.sourceforge.net/DTD/sodipodi-0.dtd" xmlns:inkscape="http://www.inkscape.org/namespaces/inkscape" viewBox="0 0 22 22" id="svg2" version="1.1" inkscape:version="0.48.4 r9939" width="100%" height="100%" sodipodi:docname="video-ogg24.svg">
    <metadata id="metadata32">
        <rdf:RDF>
            <cc:Work rdf:about="">
                <dc:format>image/svg+xml</dc:format>
                <dc:type rdf:resource="http://purl.org/dc/dcmitype/StillImage" />
            </cc:Work>
        </rdf:RDF>
    </metadata>
    <sodipodi:namedview pagecolor="#ffffff" bordercolor="#666666" borderopacity="1" objecttolerance="10" gridtolerance="10" guidetolerance="10" inkscape:pageopacity="0" inkscape:pageshadow="2" inkscape:window-width="1280" inkscape:window-height="976" id="namedview30" showgrid="true" inkscape:zoom="27.812867" inkscape:cx="17.169024" inkscape:cy="11.87883" inkscape:window-x="0" inkscape:window-y="24" inkscape:window-maximized="1" inkscape:current-layer="svg2" inkscape:snap-bbox="true">
        <inkscape:grid type="xygrid" id="grid2990" empspacing="5" visible="true" enabled="true" snapvisiblegridlinesonly="true" />
    </sodipodi:namedview>
    <defs id="defs4">
        <filter id="filter3174-4" color-interpolation-filters="sRGB">
            <feGaussianBlur stdDeviation="1.71" id="feGaussianBlur3176-2" />
        </filter>
        <linearGradient gradientTransform="scale(1.0058652,0.994169)" gradientUnits="userSpaceOnUse" id="ButtonShadow-91" y2="7.0165396" x2="45.447727" y1="92.539597" x1="45.447727">
            <stop offset="0" style="stop-color:#000000;stop-opacity:1" id="stop3750-4" />
            <stop offset="1" style="stop-color:#000000;stop-opacity:0.58823532" id="stop3752-2" />
        </linearGradient>
        <linearGradient gradientUnits="userSpaceOnUse" id="linearGradient4594-3" x1="8.2114201" x2="31.74275" y1="-5.7136502" y2="25.48744">
            <stop offset="0" stop-color="#fff" id="stop37-5-1" />
            <stop offset="1" stop-color="#fff" stop-opacity="0" id="stop39-0" />
        </linearGradient>
        <linearGradient x1="45.447727" y1="92.539597" x2="45.447727" y2="7.0165396" id="ButtonShadow-9" gradientUnits="userSpaceOnUse" gradientTransform="scale(1.0058652,0.994169)">
            <stop id="stop3750-3" style="stop-color:#000000;stop-opacity:1" offset="0" />
            <stop id="stop3752-0" style="stop-color:#000000;stop-opacity:0.58823532" offset="1" />
        </linearGradient>
        <filter color-interpolation-filters="sRGB" id="filter3174-2">
            <feGaussianBlur id="feGaussianBlur3176-1" stdDeviation="1.71" />
        </filter>
        <linearGradient x1="45.447727" y1="92.539597" x2="45.447727" y2="7.0165396" id="ButtonShadow" gradientUnits="userSpaceOnUse" gradientTransform="scale(1.0058652,0.994169)">
            <stop id="stop3750" style="stop-color:#000000;stop-opacity:1" offset="0" />
            <stop id="stop3752" style="stop-color:#000000;stop-opacity:0.58823532" offset="1" />
        </linearGradient>
        <filter color-interpolation-filters="sRGB" id="filter3174">
            <feGaussianBlur id="feGaussianBlur3176" stdDeviation="1.71" />
        </filter>
        <linearGradient inkscape:collect="always" xlink:href="#linearGradient4594-3" id="linearGradient3186" gradientUnits="userSpaceOnUse" gradientTransform="matrix(0.51559279,0,0,0.52054793,-1.139305,-2.123287)" x1="8.2114201" y1="-5.7136502" x2="31.74275" y2="25.48744" />
        <linearGradient inkscape:collect="always" xlink:href="#linearGradient1000-0" id="linearGradient3075-4" gradientUnits="userSpaceOnUse" x1="6.4056101" x2="41.369011" gradientTransform="matrix(0,0.56250001,-0.56250001,0,0.7812499,-2.3437502)" />
        <linearGradient id="linearGradient1000-0">
            <stop id="stop7-6" stop-color="#fff" offset="0" />
            <stop id="stop9-8" stop-opacity="0" stop-color="#fff" offset="1" />
        </linearGradient>
        <linearGradient id="linearGradient3799-8">
            <stop style="stop-color:#fff226;stop-opacity:1;" offset="0" id="stop3801-6" />
            <stop style="stop-color:#4d7e00;stop-opacity:1;" offset="1" id="stop3803-3" />
        </linearGradient>
        <filter id="filter3174-3" color-interpolation-filters="sRGB">
            <feGaussianBlur stdDeviation="1.71" id="feGaussianBlur3176-6" />
        </filter>
        <linearGradient gradientTransform="scale(1.0058652,0.994169)" gradientUnits="userSpaceOnUse" id="ButtonShadow-1" y2="7.0165396" x2="45.447727" y1="92.539597" x1="45.447727">
            <stop offset="0" style="stop-color:#000000;stop-opacity:1" id="stop3750-0" />
            <stop offset="1" style="stop-color:#000000;stop-opacity:0.58823532" id="stop3752-3" />
        </linearGradient>
        <filter id="filter3174-2-9" color-interpolation-filters="sRGB">
            <feGaussianBlur stdDeviation="1.71" id="feGaussianBlur3176-1-6" />
        </filter>
        <linearGradient gradientTransform="scale(1.0058652,0.994169)" gradientUnits="userSpaceOnUse" id="ButtonShadow-9-8" y2="7.0165396" x2="45.447727" y1="92.539597" x1="45.447727">
            <stop offset="0" style="stop-color:#000000;stop-opacity:1" id="stop3750-3-4" />
            <stop offset="1" style="stop-color:#000000;stop-opacity:0.58823532" id="stop3752-0-5" />
        </linearGradient>
        <linearGradient x1="45.447727" y1="92.539597" x2="45.447727" y2="7.0165396" id="ButtonShadow-91-98" gradientUnits="userSpaceOnUse" gradientTransform="scale(1.0058652,0.994169)">
            <stop id="stop3750-4-7" style="stop-color:#000000;stop-opacity:1" offset="0" />
            <stop id="stop3752-2-9" style="stop-color:#000000;stop-opacity:0.58823532" offset="1" />
        </linearGradient>
        <filter color-interpolation-filters="sRGB" id="filter3174-4-7">
            <feGaussianBlur id="feGaussianBlur3176-2-0" stdDeviation="1.71" />
        </filter>
        <linearGradient inkscape:collect="always" xlink:href="#linearGradient3799-8" id="linearGradient3326" gradientUnits="userSpaceOnUse" gradientTransform="matrix(0.58045224,0,0,0.58045224,-2.933844,-2.6692199)" x1="20.644068" y1="5.7966099" x2="20.644068" y2="41.810966" />
    </defs>
    <path inkscape:connector-curvature="0" style="color:black;fill:url(#linearGradient3326);fill-opacity:1;fill-rule:nonzero;stroke:#3f6800;stroke-width:1;stroke-linecap:round;stroke-linejoin:round;stroke-miterlimit:4;stroke-opacity:1;stroke-dasharray:none;stroke-dashoffset:0;marker:none;visibility:visible;display:inline;overflow:visible;enable-background:accumulate" id="path26-8" d="m 3.5,0.5000004 h 15 a 2,2 0 0 1 2,2 V 19.5 a 2,2 0 0 1 -2,2 h -15 a 2,2 0 0 1 -2,-2 V 2.5000004 a 2,2 0 0 1 2,-2" />
    <path inkscape:connector-curvature="0" style="opacity:0.25;color:black;fill:none;stroke:url(#linearGradient3075-4);stroke-width:1;stroke-linecap:round;stroke-linejoin:round;stroke-miterlimit:4;stroke-opacity:1;stroke-dasharray:none;stroke-dashoffset:0;marker:none;visibility:visible;display:inline;overflow:visible;enable-background:accumulate" id="path28" d="m 3.5,1.5 h 15 a 1,1 0 0 1 1,1 v 17 a 1,1 0 0 1 -1,1 h -15 a 1,1 0 0 1 -1,-1 v -17 a 1,1 0 0 1 1,-1" />
    <g id="layer2" style="display:none" transform="translate(-19.143001,-205.6879)">
        <rect width="86" height="85" rx="6" ry="6" x="5" y="7" id="rect3745" style="opacity:0.9;fill:url(#ButtonShadow);fill-opacity:1;fill-rule:nonzero;stroke:none;filter:url(#filter3174)" />
    </g>
    <g id="layer4" transform="translate(-21.143001,-203.6879)" />
    <g id="layer2-0" style="display:none" transform="translate(7.42138,-195.23404)">
        <rect width="86" height="85" rx="6" ry="6" x="5" y="7" id="rect3745-7" style="opacity:0.9;fill:url(#ButtonShadow-91);fill-opacity:1;fill-rule:nonzero;stroke:none;filter:url(#filter3174-4)" />
    </g>
    <g id="layer4-3" transform="translate(5.42138,-193.23404)" />
    <g id="layer2-1" style="display:none" transform="translate(63.546381,-192.29881)">
        <rect width="86" height="85" rx="6" ry="6" x="5" y="7" id="rect3745-1" style="opacity:0.9;fill:url(#ButtonShadow-9);fill-opacity:1;fill-rule:nonzero;stroke:none;filter:url(#filter3174-2)" />
    </g>
    <g id="layer4-8" transform="translate(61.546381,-190.29881)" />
    <g id="layer2-3" style="display:none" transform="translate(3.517217,-203.75518)">
        <rect width="86" height="85" rx="6" ry="6" x="5" y="7" id="rect3745-4" style="opacity:0.9;fill:url(#ButtonShadow-1);fill-opacity:1;fill-rule:nonzero;stroke:none;filter:url(#filter3174-3)" />
    </g>
    <g id="layer4-35" transform="translate(2.517217,-202.75518)" />
    <g id="layer2-0-8" style="display:none" transform="translate(30.081598,-193.30132)">
        <rect width="86" height="85" rx="6" ry="6" x="5" y="7" id="rect3745-7-7" style="opacity:0.9;fill:url(#ButtonShadow-91-98);fill-opacity:1;fill-rule:nonzero;stroke:none;filter:url(#filter3174-4-7)" />
    </g>
    <g id="layer4-3-6" transform="translate(29.081598,-192.30132)" />
    <g id="layer2-1-5" style="display:none" transform="translate(86.206599,-190.36609)">
        <rect width="86" height="85" rx="6" ry="6" x="5" y="7" id="rect3745-1-2" style="opacity:0.9;fill:url(#ButtonShadow-9-8);fill-opacity:1;fill-rule:nonzero;stroke:none;filter:url(#filter3174-2-9)" />
    </g>
    <g id="layer4-8-8" transform="translate(85.206599,-189.36609)" />
    <path inkscape:connector-curvature="0" style="opacity:0.4;color:black;fill:black;fill-opacity:1;fill-rule:nonzero;stroke:none;stroke-width:1;marker:none;visibility:visible;display:inline;overflow:visible;enable-background:accumulate" d="m 19.950707,10.079419 -0.07895,0.384205 -0.04934,-0.384205 -0.03948,-0.384206 -0.09868,0.384206 -0.09869,0.384205 -0.01973,-0.364748 c -0.01263,-0.200805 -0.0852,-0.364753 -0.157897,-0.364753 -0.0727,0 -0.156198,-0.104269 -0.1875,-0.228578 -0.0313,-0.124308 -0.07486,0.119096 -0.09869,0.539835 -0.04035,0.712311 -0.05021,0.733829 -0.148025,0.345295 -0.05777,-0.229495 -0.110002,-0.626951 -0.118423,-0.88513 -0.0085,-0.258178 -0.07533,-0.46688 -0.148031,-0.46688 -0.0727,0 -0.156198,-0.104268 -0.187499,-0.228577 -0.04133,-0.164131 -0.07545,-0.122129 -0.108552,0.155629 L 18.37174,9.349922 18.27306,8.965717 c -0.06752,-0.271513 -0.11277,-0.03678 -0.148026,0.80245 -0.04402,1.04773 -0.05342,1.109102 -0.128289,0.554419 l -0.08881,-0.627373 -0.06908,0.559286 -0.06908,0.554421 -0.04934,-0.729501 C 17.697065,9.677807 17.629875,9.270455 17.572403,9.174836 17.482983,9.02605 17.451414,9.05663 17.325693,9.383961 17.196404,9.720581 17.171252,9.611638 17.128321,8.479378 17.081681,7.2493684 17.073731,7.2807614 17.000033,9.208879 l -0.07895,2.01829 -0.02959,-1.60004 c -0.01847,-0.879717 -0.07031,-1.7143666 -0.118419,-1.8577986 -0.09826,-0.292977 -0.33553,-0.354851 -0.33553,-0.08754 0,0.108178 -0.07553,0.17022 -0.207237,0.17022 -0.181509,0 -0.22101,0.2414696 -0.246712,1.6875796 -0.01649,0.92753 -0.04413,1.349798 -0.06908,0.938627 -0.02542,-0.419152 -0.111061,-0.744094 -0.1875,-0.744094 -0.07644,0 -0.13816,0.0746 -0.13816,0.17022 0,0.09563 -0.06055,0.175081 -0.13816,0.175081 -0.07761,0 -0.152423,-0.178863 -0.167762,-0.398797 -0.01728,-0.247659 -0.06558,-0.109027 -0.118423,0.364754 l -0.07895,0.763544 -0.04934,-0.763544 C 14.98925,9.349221 14.97344,9.315496 14.888189,9.695218 l -0.09869,0.41825 -0.03948,-0.554421 -0.04934,-0.559287 -0.09868,0.384206 c -0.07388,0.297086 -0.108488,0.162885 -0.148025,-0.59333 l -0.04934,-0.9726696 -0.07895,0.7684066 -0.08882,0.763544 -0.04934,-0.938626 c -0.04555,-0.8281216 -0.0728,-0.6925276 -0.217105,1.147751 L 13.802656,11.64542 13.773066,9.486094 C 13.755206,8.300385 13.689276,7.2074144 13.625063,7.0544215 l -0.118422,-0.2772137 -0.02959,0.3452956 c -0.01813,0.191243 -0.07891,0.444539 -0.13816,0.559287 -0.09686,0.187587 -0.120989,0.171607 -0.157896,-0.141038 l -0.0395,-0.345295 -0.08882,0.452294 c -0.08547,0.4181346 -0.0925,0.3896126 -0.13816,-0.350162 l -0.04934,-0.797589 -0.09869,1.040758 C 12.712645,8.114489 12.644433,9.162702 12.618461,9.870304 l -0.04934,1.288788 -0.07895,-0.938626 C 12.427071,9.47105 12.393691,9.36215 12.332274,9.695223 l -0.06908,0.41825 -0.02959,-0.539834 c -0.01468,-0.296425 -0.0852,-0.534968 -0.157897,-0.534968 -0.0727,0 -0.156203,-0.104269 -0.1875,-0.228578 -0.0313,-0.124309 -0.07708,0.104175 -0.09868,0.505791 -0.02161,0.401615 -0.08878,0.823879 -0.148026,0.938626 L 11.53295,10.463635 11.51321,10.210743 C 11.50401,10.072644 11.453,9.809294 11.394788,9.622278 L 11.28622,9.281845 11.20727,9.695228 c -0.06077,0.308793 -0.091,0.189305 -0.108552,-0.46688 -0.01437,-0.536958 -0.08231,-0.885129 -0.167762,-0.885129 -0.07761,0 -0.13816,0.05968 -0.13816,0.136175 0,0.0765 -0.06055,0.141038 -0.13816,0.141038 -0.08676,0 -0.158156,0.420822 -0.177634,1.094254 -0.02622,0.905751 -0.04427,0.780294 -0.108551,-0.71491 L 10.289501,7.1954734 10.230291,8.8636 10.171081,10.531727 10.092131,8.99977 10.013181,7.4726804 9.953971,8.620432 C 9.902471,9.649941 9.885371,9.705208 9.805939,9.174852 9.733299,8.689875 9.708679,8.820293 9.66778,9.904353 L 9.61845,11.227185 9.500027,10.079435 C 9.434047,9.448329 9.326154,8.385195 9.26318,7.7158494 L 9.144757,6.5000108 9.095417,8.134094 9.046077,9.768177 8.967127,8.328628 C 8.922847,7.5381494 8.837821,6.869123 8.779625,6.8404441 8.721425,6.8117651 8.658662,7.4410574 8.641466,8.241088 l -0.02959,1.45414 -0.07895,-1.60004 C 8.498636,7.3969124 8.456806,6.9329041 8.434236,6.8988026 c -0.0031,0.00884 -0.0077,0.031236 -0.0099,0.063225 -0.01722,0.2559218 -0.09015,0.4870138 -0.167763,0.5106528 -0.07761,0.02364 -0.148025,0.383289 -0.148025,0.8413556 0,0.922413 -0.276727,1.939018 -0.434216,1.590317 L 7.585522,9.695228 7.565782,9.889762 c -0.01048,0.119976 -0.09419,0.189673 -0.226973,0.189673 -0.14657,0 -0.221469,0.08204 -0.236846,0.262621 C 7.079823,10.602241 7.046723,10.465735 6.776304,9.16026 6.714904,8.863831 6.605688,8.620426 6.539458,8.620426 6.473228,8.620426 6.406624,8.550846 6.391433,8.464798 6.376233,8.378738 6.330113,8.637065 6.282881,9.03867 6.253891,9.285114 6.229291,9.430516 6.213801,9.456921 6.193901,9.422131 6.178081,9.12456 6.164461,8.498842 6.147251,7.7081744 6.084611,7.2295064 5.996699,7.2295064 c -0.0776,0 -0.146835,0.09941 -0.148025,0.223716 -0.0016,0.171508 -0.03436,0.200742 -0.13816,0.121584 -0.103799,-0.07916 -0.138986,-0.05515 -0.157897,0.106994 -0.01658,0.142001 -0.05256,0.09564 -0.118422,-0.141037 l -0.09869,-0.345296 -0.04934,0.277213 c -0.0374,0.220955 -0.06566,0.177549 -0.138159,-0.209125 -0.05829,-0.3108687 -0.10545,0.180006 -0.13816,1.3568766 -0.03292,1.184508 -0.08615,1.629814 -0.13816,1.249883 L 4.792736,9.281851 4.684185,9.734144 c -0.0582,0.248617 -0.12352,0.59143 -0.148032,0.763545 -0.02451,0.172116 -0.06528,-0.03156 -0.08881,-0.452293 C 4.405143,9.2905 4.406903,9.286037 4.269709,9.680642 4.193249,9.90057 4.082532,10.07944 4.022997,10.07944 3.963467,10.07944 3.862872,9.741657 3.796024,9.330485 3.689385,8.674678 3.664425,8.630208 3.608516,8.965732 L 3.539416,9.349939 3.450606,8.965732 C 3.373916,8.64264 3.350052,8.703749 3.312446,9.349939 3.269396,10.089514 3.264096,10.098216 3.16442,9.661195 3.10772,9.412577 3.041308,9.00523 3.016395,8.756612 2.983905,8.432457 2.947985,8.560595 2.888106,9.208906 L 2.809156,10.113488 2.779566,9.364534 C 2.762486,8.92197 2.695336,8.620442 2.611804,8.620442 c -0.07761,0 -0.147576,-0.178864 -0.157897,-0.398797 -0.01838,-0.3910326 -0.02328,-0.3911476 -0.13816,0.1459 -0.166175,0.77669 -0.24534,0.798096 -0.286185,0.07781 L 1.999972,7.8179864 v 5.6414846 c 0.0096,0.107429 0.02488,0.283615 0.03948,0.515515 l 0.05921,0.938626 0.08881,-0.80245 c 0.04076,-0.38428 0.06428,-0.578568 0.07895,-0.607917 0.01153,0.01008 0.01781,0.142987 0.02959,0.384206 0.04088,0.833131 0.303922,0.722052 0.335531,-0.141037 0.01961,-0.535246 0.04479,-0.617914 0.09868,-0.33071 l 0.07895,0.384206 0.08881,-0.384206 0.08882,-0.379338 0.02959,0.452293 c 0.01711,0.248618 0.08381,0.576508 0.148026,0.729501 0.08757,0.208638 0.132597,0.0268 0.167762,-0.729501 l 0.03948,-1.011576 0.08882,1.356876 0.07895,1.356877 0.04934,-1.079663 c 0.02745,-0.592855 0.07492,-1.005232 0.108552,-0.919174 0.133608,0.341843 0.325659,0.127762 0.325659,-0.364753 0,-0.41726 0.0379,-0.520377 0.207237,-0.520377 0.173299,0 0.214012,0.132042 0.236845,0.744093 l 0.02957,0.748953 0.07895,-0.763545 0.07895,-0.768406 0.108551,0.59333 c 0.05775,0.325115 0.119958,1.154735 0.13816,1.843209 0.02577,0.974714 0.04891,0.767124 0.108552,-0.938626 l 0.07895,-2.193371 0.04934,2.193371 c 0.03114,1.204832 0.100464,1.984833 0.148026,1.736215 0.09234,-0.482676 0.197911,-0.45166 0.384871,0.106993 0.08079,0.241378 0.138519,-0.268143 0.187499,-1.668126 0.0756,-2.160962 0.267868,-2.318681 0.296057,-0.243169 l 0.0099,1.215838 0.1875,-0.661413 c 0.103872,-0.36336 0.20748,-0.691256 0.226973,-0.729501 0.01949,-0.03825 0.07119,0.259803 0.118423,0.661413 l 0.08881,0.729501 0.05921,-0.938627 c 0.04907,-0.868447 0.05466,-0.90072 0.13816,-0.418248 l 0.08882,0.520376 0.03948,-0.452294 c 0.02305,-0.248618 0.09132,-0.65597 0.148026,-0.904583 l 0.108551,-0.452293 0.02959,0.384207 c 0.06294,0.67659 0.261844,0.793884 0.296056,0.17508 0.05361,-0.969469 0.235591,-0.252034 0.286186,1.113707 l 0.04934,1.249883 0.07895,-1.079663 0.08882,-1.074803 0.05921,1.634085 c 0.04563,1.301336 0.0658,1.48603 0.128289,0.904582 0.04326,-0.40258 0.120152,-0.655137 0.167762,-0.559287 0.04761,0.09585 0.107196,-0.356492 0.128288,-1.006715 0.02109,-0.650222 0.07481,-1.559305 0.128289,-2.018289 0.08206,-0.704123 0.111997,-0.519832 0.157897,1.181795 0.04951,1.835219 0.06375,1.919521 0.138159,0.938626 0.06199,-0.817288 0.08652,-0.949885 0.128289,-0.554419 l 0.05921,0.520375 0.08881,-0.520375 0.08882,-0.520378 0.05921,0.37934 c 0.03401,0.239029 0.08622,0.03229 0.138159,-0.554421 0.07367,-0.832203 0.08486,-0.725786 0.13816,0.938626 l 0.05921,1.877253 0.07895,-1.527091 0.07895,-1.531956 0.06908,2.188509 0.05921,2.19337 0.07895,-2.713751 c 0.0367,-1.317563 0.06144,-1.950774 0.07895,-2.032882 0.01184,0.06948 0.02356,0.398033 0.03948,0.953217 0.05026,1.753431 0.243529,2.520481 0.315793,1.254746 l 0.03948,-0.729501 0.07895,0.729501 c 0.06355,0.59333 0.102766,0.678325 0.1875,0.452292 0.05735,-0.152991 0.107699,-0.486824 0.108551,-0.73923 8.47e-4,-0.252405 0.03709,-0.705159 0.08882,-1.006713 0.09298,-0.542093 0.100872,-0.545886 0.27632,-0.30639 0.09759,0.133227 0.181599,0.392196 0.1875,0.573873 0.0076,0.234508 0.06677,0.330711 0.207237,0.330711 0.265585,0 0.500287,-0.35842 0.52303,-0.792728 0.01753,-0.334549 0.03025,-0.341413 0.128289,-0.111856 0.08376,0.196123 0.104899,0.14305 0.128288,-0.277212 0.01595,-0.286864 0.08588,-0.664379 0.148026,-0.836495 0.06761,-0.187256 0.126891,0.806066 0.148026,2.470584 0.02114,1.664517 0.08041,2.652978 0.148025,2.465716 0.06215,-0.172116 0.122763,-0.624226 0.13816,-1.006714 0.01539,-0.382487 0.07253,-0.914055 0.128289,-1.181794 l 0.09868,-0.486334 0.05921,0.588464 c 0.03332,0.370565 0.07862,0.04982 0.128289,-0.865675 l 0.07895,-1.46387 0.04934,1.2207 c 0.02521,0.669351 0.09093,1.498972 0.148026,1.843209 l 0.09868,0.622508 0.03948,-0.904582 c 0.03388,-0.974918 0.338362,-1.9577 0.463819,-1.493046 0.03771,0.139679 0.08263,-0.01094 0.108551,-0.350164 0.02486,-0.325114 0.07725,-0.489062 0.108552,-0.364752 0.03452,0.137092 0.133602,0.228577 0.256582,0.228577 0.157733,0 0.206666,-0.127467 0.226975,-0.573873 0.01936,-0.425401 0.04051,-0.479835 0.07895,-0.209125 0.02848,0.200805 0.113945,0.364755 0.1875,0.364755 0.07355,0 0.143436,0.104268 0.157897,0.228577 0.01446,0.124308 0.06973,-0.03963 0.118422,-0.364754 0.06165,-0.41168 0.107387,-0.02377 0.148026,1.283926 l 0.04934,1.877253 0.07895,-2.052333 0.07895,-2.052334 0.05921,2.193372 c 0.05028,1.798313 0.08184,2.015087 0.148026,1.215838 l 0.07895,-0.972671 0.06908,0.972671 c 0.06852,0.940941 0.07656,0.924637 0.118422,-0.520376 0.05691,-1.964453 0.24343,-2.626327 0.305922,-1.079663 0.02677,0.663152 0.07368,0.957465 0.118424,0.729501 0.0736,-0.375069 0.07531,-0.370533 0.157896,0.209124 l 0.08882,0.593331 0.03948,-0.802451 c 0.02867,-0.511558 0.07923,-0.71011 0.138159,-0.554419 l 0.08882,0.243168 0.118422,-0.311256 c 0.318536,-0.891217 0.335039,-0.899166 0.384871,-0.141037 0.04177,0.635474 0.05828,0.569005 0.128289,-0.520377 l 0.07895,-1.254744 0.05921,1.672994 c 0.04994,1.425226 0.06785,1.548597 0.138159,0.865676 l 0.07895,-0.797588 0.07895,0.797588 0.06907,0.802452 0.02959,-0.782998 c 0.01661,-0.430295 0.0852,-0.782998 0.157897,-0.782998 0.0727,0 0.156198,0.104268 0.1875,0.228578 0.0313,0.124309 0.08093,-0.198552 0.108546,-0.714911 l 0.04934,-0.938626 0.08882,0.729501 c 0.04722,0.401611 0.103227,0.659936 0.118423,0.573874 0.01519,-0.08607 0.09015,-0.155629 0.167762,-0.155629 0.07761,0 0.148714,-0.178864 0.157897,-0.398797 0.01373,-0.329095 0.02978,-0.366241 0.118423,-0.194534 0.09232,0.178796 0.120147,0.157577 0.148025,-0.17022 l 0.02957,-0.384206 z" id="path53-4" />
    <path inkscape:connector-curvature="0" id="path3875" d="m 3,7 v 3 H 6 V 7 H 3 z" style="opacity:0.75;fill:white" />
    <path inkscape:connector-curvature="0" id="path3879" d="M 3,2 V 5 H 6 V 2 H 3 z" style="opacity:0.75;fill:white" />
    <path style="opacity:0.75;fill:white" d="m 3,17 v 3 H 6 V 17 H 3 z" id="path3881" inkscape:connector-curvature="0" />
    <path style="opacity:0.75;fill:white" d="m 3,12 v 3 H 6 V 12 H 3 z" id="path3883" inkscape:connector-curvature="0" />
    <path style="opacity:0.75;fill:white" d="m 16,7 v 3 h 3 V 7 h -3 z" id="path3885" inkscape:connector-curvature="0" />
    <path style="opacity:0.75;fill:white" d="m 16,2 v 3 h 3 V 2 h -3 z" id="path3887" inkscape:connector-curvature="0" />
    <path inkscape:connector-curvature="0" id="path3889" d="m 16,17 v 3 h 3 v -3 h -3 z" style="opacity:0.75;fill:white" />
    <path inkscape:connector-curvature="0" id="path3891" d="m 16,12 v 3 h 3 v -3 h -3 z" style="opacity:0.75;fill:white" />
    <path style="opacity:0.98999999;fill:url(#linearGradient3186)" inkscape:connector-curvature="0" d="m 8,1 10,0 c 1.160474,0 2,1.005258 2,2 l 0,17 -6.652508,0 z" id="path57-5-9" sodipodi:nodetypes="cssccc" />
    <path id="path3076" d="m 9,7 v 6 l 6,-3 z" inkscape:connector-curvature="0" style="opacity:0.4;color:black;fill:black;fill-opacity:1;fill-rule:nonzero;stroke:none;stroke-width:1;marker:none;visibility:visible;display:inline;overflow:visible;enable-background:accumulate" />
    <path style="fill:white" inkscape:connector-curvature="0" d="m 9,8 v 6 l 6,-3 z" id="path53" />
</svg>
