<?xml version="1.0" encoding="UTF-8" standalone="no"?>
<svg
   xmlns:dc="http://purl.org/dc/elements/1.1/"
   xmlns:cc="http://creativecommons.org/ns#"
   xmlns:rdf="http://www.w3.org/1999/02/22-rdf-syntax-ns#"
   xmlns:svg="http://www.w3.org/2000/svg"
   xmlns="http://www.w3.org/2000/svg"
   xmlns:xlink="http://www.w3.org/1999/xlink"
   xmlns:sodipodi="http://sodipodi.sourceforge.net/DTD/sodipodi-0.dtd"
   xmlns:inkscape="http://www.inkscape.org/namespaces/inkscape"
   viewBox="0 0 22 22"
   id="svg2"
   version="1.1"
   inkscape:version="0.48.3.1 r9886"
   width="100%"
   height="100%"
   sodipodi:docname="x-office-document.svg">
  <metadata
     id="metadata68">
    <rdf:RDF>
      <cc:Work
         rdf:about="">
        <dc:format>image/svg+xml</dc:format>
        <dc:type
           rdf:resource="http://purl.org/dc/dcmitype/StillImage" />
      </cc:Work>
    </rdf:RDF>
  </metadata>
  <sodipodi:namedview
     pagecolor="#ffffff"
     bordercolor="#666666"
     borderopacity="1"
     objecttolerance="10"
     gridtolerance="10"
     guidetolerance="10"
     inkscape:pageopacity="0"
     inkscape:pageshadow="2"
     inkscape:window-width="640"
     inkscape:window-height="480"
     id="namedview66"
     showgrid="false"
     inkscape:zoom="10.727273"
     inkscape:cx="11"
     inkscape:cy="11.279661"
     inkscape:window-x="0"
     inkscape:window-y="24"
     inkscape:window-maximized="0"
     inkscape:current-layer="svg2" />
  <defs
     id="defs4">
    <linearGradient
       gradientUnits="userSpaceOnUse"
       id="linearGradient3120"
       x2="0"
       y1="27.54085"
       y2="48.62325">
      <stop
         offset="0"
         stop-color="#fff"
         stop-opacity=".669"
         id="stop15" />
      <stop
         offset="1"
         stop-color="#fff"
         stop-opacity="0"
         id="stop17" />
    </linearGradient>
    <linearGradient
       gradientUnits="userSpaceOnUse"
       id="linearGradient3258-1"
       x2="0"
       y1="28.70543"
       y2="48.05029">
      <stop
         offset="0"
         stop-color="#d1d1d1"
         id="stop20" />
      <stop
         offset="1"
         stop-color="#fbfbfb"
         id="stop22" />
    </linearGradient>
    <linearGradient
       gradientUnits="userSpaceOnUse"
       id="linearGradient4210"
       x2="0"
       y1="33.88551"
       y2="31.64707">
      <stop
         offset="0"
         stop-color="#d3b72c"
         id="stop25" />
      <stop
         offset="1"
         stop-color="#f2ea73"
         id="stop27" />
    </linearGradient>
    <linearGradient
       gradientUnits="userSpaceOnUse"
       id="linearGradient4212"
       x2="0"
       y1="32.60298"
       y2="29.05001">
      <stop
         offset="0"
         stop-color="#ceeefb"
         id="stop30" />
      <stop
         offset="1"
         stop-color="#61a2f4"
         id="stop32" />
    </linearGradient>
    <linearGradient
       inkscape:collect="always"
       xlink:href="#linearGradient3120"
       id="linearGradient3059"
       gradientUnits="userSpaceOnUse"
       y1="27.54085"
       x2="0"
       y2="48.62325"
       gradientTransform="translate(0,-26)" />
    <linearGradient
       inkscape:collect="always"
       xlink:href="#linearGradient3258-1"
       id="linearGradient3062"
       gradientUnits="userSpaceOnUse"
       y1="28.70543"
       x2="0"
       y2="48.05029"
       gradientTransform="translate(0,-26)" />
  </defs>
  <path
     inkscape:connector-curvature="0"
     style="fill:url(#linearGradient3062);stroke:#818181;stroke-linecap:round;stroke-linejoin:round"
     id="path36"
     d="m 3.5,0.5 h 15 a 2,2 0 0 1 2,2 v 17 a 2,2 0 0 1 -2,2 h -15 a 2,2 0 0 1 -2,-2 v -17 a 2,2 0 0 1 2,-2" />
  <path
     inkscape:connector-curvature="0"
     style="fill:none;stroke:url(#linearGradient3059)"
     id="path38"
     d="m 3.5,1.5 h 15 a 1,1 0 0 1 1,1 v 17 a 1,1 0 0 1 -1,1 h -15 a 1,1 0 0 1 -1,-1 v -17 a 1,1 0 0 1 1,-1" />
  <path
     style="fill:#999999"
     inkscape:connector-curvature="0"
     id="path40"
     d="m 12,5 h 5 v 1 h -5 z" />
  <g
     id="g42"
     transform="translate(0,-24.18356)">
    <path
       style="fill:#ffffff"
       inkscape:connector-curvature="0"
       id="path44"
       d="m 5,29.18356 h 6 v 5 H 5 z" />
    <path
       inkscape:connector-curvature="0"
       style="fill:url(#linearGradient4210)"
       id="path46"
       d="m 5,32.93356 h 6 v 1.25 H 5 z" />
    <path
       inkscape:connector-curvature="0"
       style="fill:url(#linearGradient4212)"
       id="path48"
       d="m 5,29.18356 h 6 v 3.75 H 5 z" />
    <path
       style="fill:#a86516"
       inkscape:connector-curvature="0"
       id="path50"
       d="m 5,32.30856 h 0.77852 c 1.0089,0 0.47939,-1.30335 2.01346,-1.30335 1.4378,0.05392 0.86291,1.30335 2.20521,1.30335 H 11 v 0.625 H 5 z" />
    <path
       style="fill:#ffff00"
       inkscape:connector-curvature="0"
       id="path52"
       transform="matrix(0.666667,0,0,0.625,-32.065554,20.129865)"
       d="m 63.92725,16.43188 c 0,0.63543 -0.51512,1.15055 -1.15055,1.15055 -0.63543,0 -1.15055,-0.51512 -1.15055,-1.15055 0,-0.63543 0.51512,-1.15055 1.15055,-1.15055 0.63543,0 1.15055,0.51512 1.15055,1.15055 z" />
  </g>
  <path
     style="fill:#999999"
     inkscape:connector-curvature="0"
     id="path54"
     d="m 12,7 h 5 v 1 h -5 z" />
  <path
     style="fill:#999999"
     inkscape:connector-curvature="0"
     id="path56"
     d="m 12,9 h 5 v 1 h -5 z" />
  <path
     style="fill:#999999"
     inkscape:connector-curvature="0"
     id="path58"
     d="m 5,11 h 12 v 1 H 5 z" />
  <path
     style="fill:#999999"
     inkscape:connector-curvature="0"
     id="path60"
     d="m 5,13 h 12 v 1 H 5 z" />
  <path
     style="fill:#999999"
     inkscape:connector-curvature="0"
     id="path62"
     d="m 5,15 h 12 v 1 H 5 z" />
  <path
     style="fill:#999999"
     inkscape:connector-curvature="0"
     id="path64"
     d="m 5,17 h 9 v 1 H 5 z" />
</svg>
