<?xml version="1.0" encoding="UTF-8" standalone="no"?>
<!-- Created with Inkscape (http://www.inkscape.org/) -->

<svg
   xmlns:dc="http://purl.org/dc/elements/1.1/"
   xmlns:cc="http://creativecommons.org/ns#"
   xmlns:rdf="http://www.w3.org/1999/02/22-rdf-syntax-ns#"
   xmlns:svg="http://www.w3.org/2000/svg"
   xmlns="http://www.w3.org/2000/svg"
   xmlns:xlink="http://www.w3.org/1999/xlink"
   xmlns:sodipodi="http://sodipodi.sourceforge.net/DTD/sodipodi-0.dtd"
   xmlns:inkscape="http://www.inkscape.org/namespaces/inkscape"
   width="24"
   height="24"
   id="svg6662"
   version="1.1"
   inkscape:version="0.91 r13725"
   sodipodi:docname="document-print.svg">
  <defs
     id="defs6664">
    <linearGradient
       y2="11.02436"
       y1="3.0069399"
       x2="0"
       id="linearGradient1022-8-8-3-0-2"
       gradientUnits="userSpaceOnUse">
      <stop
         id="stop3001-0-9-4-1"
         offset="0" />
      <stop
         id="stop3003-5-6-6-1"
         stop-color="#363636"
         offset="1" />
    </linearGradient>
    <linearGradient
       y2="22.453711"
       x2="103.25951"
       y1="9.8686085"
       x1="103.25951"
       gradientTransform="matrix(1.679991,0,0,1.5097216,-163.47504,1015.4641)"
       gradientUnits="userSpaceOnUse"
       id="linearGradient6892"
       xlink:href="#linearGradient1022-8-8-3-0-2"
       inkscape:collect="always" />
  </defs>
  <sodipodi:namedview
     id="base"
     pagecolor="#ffffff"
     bordercolor="#666666"
     borderopacity="1.0"
     inkscape:pageopacity="0.0"
     inkscape:pageshadow="2"
     inkscape:zoom="3.959798"
     inkscape:cx="31.628015"
     inkscape:cy="12.379252"
     inkscape:document-units="px"
     inkscape:current-layer="capa1"
     showgrid="false"
     inkscape:showpageshadow="false"
     inkscape:window-width="730"
     inkscape:window-height="702"
     inkscape:window-x="484"
     inkscape:window-y="29"
     inkscape:window-maximized="0" />
  <metadata
     id="metadata6667">
    <rdf:RDF>
      <cc:Work
         rdf:about="">
        <dc:format>image/svg+xml</dc:format>
        <dc:type
           rdf:resource="http://purl.org/dc/dcmitype/StillImage" />
        <dc:title />
      </cc:Work>
    </rdf:RDF>
  </metadata>
  <g
     inkscape:label="Capa 1"
     inkscape:groupmode="layer"
     id="capa1"
     transform="translate(0,-1028.3622)">
    <path
       id="path6621"
       d="m 7.999995,1031.3629 0,10.0008 -1.999995,0 0,2 12,0 0,-2 -1.999995,0 0,-10.0008 z m 2.00001,2 3.99999,0 0,8.0008 -3.99999,0 z m -6,4 -2.00001,2 0,9 2.00001,2 15.99999,0 2.00001,-2 0,-9 -2.00001,-2 -3,0 0,2 2.00001,8e-4 0.99999,1 0,7 -0.99999,1 -14.00001,0 -0.99999,-1 0,-7 0.99999,-1 2.00001,-8e-4 0,-2 z"
       style="color:#000000;display:inline;overflow:visible;visibility:visible;opacity:0.6;fill:#ffffff;fill-opacity:1;fill-rule:nonzero;stroke:none;stroke-width:0.66666669;marker:none;enable-background:accumulate"
       inkscape:connector-curvature="0"
       sodipodi:nodetypes="ccccccccccccccccccccccccccccccccccc" />
    <path
       sodipodi:nodetypes="ccccccccccccccccccccccccccccccccccc"
       inkscape:connector-curvature="0"
       style="color:#000000;display:inline;overflow:visible;visibility:visible;opacity:0.7;fill:url(#linearGradient6892);fill-opacity:1;fill-rule:nonzero;stroke:none;stroke-width:1;marker:none;enable-background:accumulate"
       d="m 7.999995,1030.3622 0,10.0008 -1.999995,0 0,1.9999 12,0 0,-1.9999 -1.999995,0 0,-10.0008 z m 2.00001,2 3.99999,0 0,8.0008 -3.99999,0 z m -6,4 -2.00001,2 0,9 2.00001,2 15.99999,0 2.00001,-2 0,-9 -2.00001,-2 -3,0 0,2 2.00001,7e-4 0.99999,1 0,7 -0.99999,1 -14.00001,0 -0.99999,-1 0,-7 0.99999,-1 2.00001,-7e-4 0,-2 z"
       id="path3147" />
  </g>
</svg>
