<?xml version="1.0" encoding="UTF-8" standalone="no"?>
<!-- Created with Inkscape (http://www.inkscape.org/) -->

<svg
   xmlns:dc="http://purl.org/dc/elements/1.1/"
   xmlns:cc="http://creativecommons.org/ns#"
   xmlns:rdf="http://www.w3.org/1999/02/22-rdf-syntax-ns#"
   xmlns:svg="http://www.w3.org/2000/svg"
   xmlns="http://www.w3.org/2000/svg"
   xmlns:xlink="http://www.w3.org/1999/xlink"
   xmlns:sodipodi="http://sodipodi.sourceforge.net/DTD/sodipodi-0.dtd"
   xmlns:inkscape="http://www.inkscape.org/namespaces/inkscape"
   width="24"
   height="24"
   id="svg6662"
   version="1.1"
   inkscape:version="0.91 r13725"
   sodipodi:docname="stock_text_indent.svg">
  <defs
     id="defs6664">
    <linearGradient
       y2="11.02436"
       y1="3.0069399"
       x2="0"
       id="linearGradient1022-8-8-3-0-2-5-0"
       gradientUnits="userSpaceOnUse">
      <stop
         id="stop3001-0-9-4-1-6-9"
         offset="0" />
      <stop
         id="stop3003-5-6-6-1-6-7"
         stop-color="#363636"
         offset="1" />
    </linearGradient>
    <linearGradient
       inkscape:collect="always"
       xlink:href="#linearGradient1022-8-8-3-0-2-5-0"
       id="linearGradient3819"
       gradientUnits="userSpaceOnUse"
       gradientTransform="matrix(4.3199768,0,0,0.23226486,-342.50724,1.708)"
       x1="82.525269"
       y1="4433.1035"
       x2="82.525269"
       y2="4510.6016" />
  </defs>
  <sodipodi:namedview
     id="base"
     pagecolor="#ffffff"
     bordercolor="#666666"
     borderopacity="1.0"
     inkscape:pageopacity="0.0"
     inkscape:pageshadow="2"
     inkscape:zoom="21.868421"
     inkscape:cx="11"
     inkscape:cy="10.5"
     inkscape:document-units="px"
     inkscape:current-layer="capa1"
     showgrid="true"
     inkscape:showpageshadow="false"
     inkscape:window-width="1280"
     inkscape:window-height="998"
     inkscape:window-x="0"
     inkscape:window-y="0"
     inkscape:window-maximized="1"
     inkscape:snap-bbox="true">
    <inkscape:grid
       type="xygrid"
       id="grid3327"
       empspacing="5"
       visible="true"
       enabled="true"
       snapvisiblegridlinesonly="true" />
  </sodipodi:namedview>
  <metadata
     id="metadata6667">
    <rdf:RDF>
      <cc:Work
         rdf:about="">
        <dc:format>image/svg+xml</dc:format>
        <dc:type
           rdf:resource="http://purl.org/dc/dcmitype/StillImage" />
        <dc:title />
      </cc:Work>
    </rdf:RDF>
  </metadata>
  <g
     inkscape:label="Capa 1"
     inkscape:groupmode="layer"
     id="capa1"
     transform="translate(0,-1028.3622)">
    <path
       id="path3821"
       d="m 5,1032.3622 -1,1 0,0.9688 1,1.0312 14,0 1,-1 0,-1 -1,-1 -14,0 z m 5,5 -1,1 0,0.9688 1,1.0312 9,0 1,-1 0,-1 -1,-1 -9,0 z m -6,1 0,6 1,0 3,-3 -3,-3 -1,0 z m 6,4 -1,1 0,0.9688 1,1.0312 9,0 1,-1 0,-1 -1,-1 -9,0 z m -5,5 -1,1 0,0.9688 1,1.0312 14,0 1,-1 0,-1 -1,-1 -14,0 z"
       style="opacity:0.6;color:black;fill:white;fill-opacity:1;fill-rule:nonzero;stroke:none;stroke-width:0.66666669;marker:none;visibility:visible;display:inline;overflow:visible;enable-background:accumulate"
       inkscape:connector-curvature="0" />
    <path
       style="opacity:0.7;color:black;fill:url(#linearGradient3819);fill-opacity:1;fill-rule:nonzero;stroke:none;stroke-width:1;marker:none;visibility:visible;display:inline;overflow:visible;enable-background:accumulate"
       d="m 5,1031.3622 -1,1 0,0.9688 1,1.0312 14,0 1,-1 0,-1 -1,-1 -14,0 z m 5,5 -1,1 0,0.9688 1,1.0312 9,0 1,-1 0,-1 -1,-1 -9,0 z m -6,1 0,6 1,0 3,-3 -3,-3 -1,0 z m 6,4 -1,1 0,0.9688 1,1.0312 9,0 1,-1 0,-1 -1,-1 -9,0 z m -5,5 -1,1 0,0.9688 1,1.0312 14,0 1,-1 0,-1 -1,-1 -14,0 z"
       id="path3006"
       inkscape:connector-curvature="0" />
  </g>
</svg>
