<?xml version="1.0" encoding="UTF-8" standalone="no"?>
<!-- Created with Inkscape (http://www.inkscape.org/) -->

<svg
   xmlns:dc="http://purl.org/dc/elements/1.1/"
   xmlns:cc="http://creativecommons.org/ns#"
   xmlns:rdf="http://www.w3.org/1999/02/22-rdf-syntax-ns#"
   xmlns:svg="http://www.w3.org/2000/svg"
   xmlns="http://www.w3.org/2000/svg"
   xmlns:xlink="http://www.w3.org/1999/xlink"
   xmlns:sodipodi="http://sodipodi.sourceforge.net/DTD/sodipodi-0.dtd"
   xmlns:inkscape="http://www.inkscape.org/namespaces/inkscape"
   width="24"
   height="24"
   id="svg6662"
   version="1.1"
   inkscape:version="0.91 r13725"
   sodipodi:docname="process-stop.svg">
  <defs
     id="defs6664">
    <linearGradient
       y2="11.02436"
       y1="3.0069399"
       x2="0"
       id="linearGradient1022-8-8-3-0-27-9"
       gradientUnits="userSpaceOnUse">
      <stop
         id="stop3001-0-9-4-6-9"
         offset="0" />
      <stop
         id="stop3003-5-6-6-01-7-4"
         stop-color="#363636"
         offset="1" />
    </linearGradient>
    <linearGradient
       y2="-489.34335"
       x2="124.68819"
       y1="-499.27896"
       x1="124.68819"
       gradientTransform="matrix(-1.679991,0,0,1.5097216,224.47504,1786.1359)"
       gradientUnits="userSpaceOnUse"
       id="linearGradient9162"
       xlink:href="#linearGradient1022-8-8-3-0-27-9"
       inkscape:collect="always" />
  </defs>
  <sodipodi:namedview
     id="base"
     pagecolor="#ffffff"
     bordercolor="#666666"
     borderopacity="1.0"
     inkscape:pageopacity="0.0"
     inkscape:pageshadow="2"
     inkscape:zoom="7.919596"
     inkscape:cx="31.628015"
     inkscape:cy="12.758059"
     inkscape:document-units="px"
     inkscape:current-layer="capa1"
     showgrid="false"
     inkscape:showpageshadow="false"
     inkscape:window-width="730"
     inkscape:window-height="702"
     inkscape:window-x="484"
     inkscape:window-y="29"
     inkscape:window-maximized="0" />
  <metadata
     id="metadata6667">
    <rdf:RDF>
      <cc:Work
         rdf:about="">
        <dc:format>image/svg+xml</dc:format>
        <dc:type
           rdf:resource="http://purl.org/dc/dcmitype/StillImage" />
        <dc:title />
      </cc:Work>
    </rdf:RDF>
  </metadata>
  <g
     inkscape:label="Capa 1"
     inkscape:groupmode="layer"
     id="capa1"
     transform="translate(0,-1028.3622)">
    <path
       inkscape:connector-curvature="0"
       d="m 8,1040.3637 8,0 0,2 -8,0 z m 10.99999,4 -3.99999,4 -6,0 -4.00001,-4 10e-6,-6 4,-4 6,0 4,4 z m 2,1 -4.99998,5 -8,0 -5,-5 0,-8 5,-5 8,0 5,5 z"
       style="color:#000000;display:inline;overflow:visible;visibility:visible;opacity:0.6;fill:#ffffff;fill-opacity:1;fill-rule:evenodd;stroke:none;stroke-width:1;marker:none;enable-background:accumulate"
       id="path6267" />
    <path
       id="rect4505"
       style="color:#000000;display:inline;overflow:visible;visibility:visible;opacity:0.7;fill:url(#linearGradient9162);fill-opacity:1;fill-rule:evenodd;stroke:none;stroke-width:1;marker:none;enable-background:accumulate"
       d="m 8,1039.3637 8,0 0,2 -8,0 z m 10.99999,4 -3.99999,4 -6,0 -4.00001,-4 10e-6,-6 4,-4 6,0 4,4 z m 2,1 -4.99998,5 -8,0 -5,-5 0,-8 5,-5 8,0 5,5 z"
       inkscape:connector-curvature="0" />
  </g>
</svg>
