<?xml version="1.0" encoding="UTF-8" standalone="no"?>
<!-- Created with Inkscape (http://www.inkscape.org/) -->

<svg
   xmlns:dc="http://purl.org/dc/elements/1.1/"
   xmlns:cc="http://creativecommons.org/ns#"
   xmlns:rdf="http://www.w3.org/1999/02/22-rdf-syntax-ns#"
   xmlns:svg="http://www.w3.org/2000/svg"
   xmlns="http://www.w3.org/2000/svg"
   xmlns:xlink="http://www.w3.org/1999/xlink"
   xmlns:sodipodi="http://sodipodi.sourceforge.net/DTD/sodipodi-0.dtd"
   xmlns:inkscape="http://www.inkscape.org/namespaces/inkscape"
   width="24"
   height="24"
   id="svg6662"
   version="1.1"
   inkscape:version="0.48.4 r9939"
   sodipodi:docname="view-list-details.svg">
  <defs
     id="defs6664">
    <linearGradient
       y2="11.02436"
       y1="3.0069399"
       x2="0"
       id="linearGradient1022-8-8-3-0-06-59-5"
       gradientUnits="userSpaceOnUse">
      <stop
         id="stop3001-0-9-4-9-02-3"
         offset="0" />
      <stop
         id="stop3003-5-6-6-5-70-4"
         stop-color="#363636"
         offset="1" />
    </linearGradient>
    <linearGradient
       inkscape:collect="always"
       xlink:href="#linearGradient1022-8-8-3-0-06-59-5"
       id="linearGradient3145"
       gradientUnits="userSpaceOnUse"
       gradientTransform="matrix(0,-3.3600109,0.88807142,0,-1207.8368,-283.42362)"
       x1="-391.00641"
       y1="1372.4536"
       x2="-396.66116"
       y2="1372.4536" />
  </defs>
  <sodipodi:namedview
     id="base"
     pagecolor="#ffffff"
     bordercolor="#666666"
     borderopacity="1.0"
     inkscape:pageopacity="0.0"
     inkscape:pageshadow="2"
     inkscape:zoom="15.839192"
     inkscape:cx="26.763885"
     inkscape:cy="10.495438"
     inkscape:document-units="px"
     inkscape:current-layer="capa1"
     showgrid="true"
     inkscape:showpageshadow="false"
     inkscape:window-width="1280"
     inkscape:window-height="975"
     inkscape:window-x="0"
     inkscape:window-y="24"
     inkscape:window-maximized="1"
     inkscape:snap-bbox="true">
    <inkscape:grid
       type="xygrid"
       id="grid2990" />
  </sodipodi:namedview>
  <metadata
     id="metadata6667">
    <rdf:RDF>
      <cc:Work
         rdf:about="">
        <dc:format>image/svg+xml</dc:format>
        <dc:type
           rdf:resource="http://purl.org/dc/dcmitype/StillImage" />
        <dc:title />
      </cc:Work>
    </rdf:RDF>
  </metadata>
  <g
     inkscape:label="Capa 1"
     inkscape:groupmode="layer"
     id="capa1"
     transform="translate(0,-1028.3622)">
    <path
       inkscape:connector-curvature="0"
       d="m 9,1042.3622 10,0 0,2 -10,0 z m 0,3 8,0 0,1 -8,0 z m 0,-9 10,0 0,2 -10,0 z m 0,3 8,0 0,1 -8,0 z m -5,3 4,0 0,4 -4,0 z m 0,-6 4,0 0,4 -4,0 z m -1,-2 18,0 0,14 -18,0 z m 0,-3 -2,2 0,15 2,2 18,0 2,-2 0,-15 -2,-2 z"
       style="opacity:0.59999999999999998;color:#000000;fill:#ffffff;fill-opacity:1;fill-rule:nonzero;stroke:none;stroke-width:0.66666674999999997;marker:none;visibility:visible;display:inline;overflow:visible;enable-background:accumulate"
       id="path3249" />
    <path
       id="rect3122"
       style="opacity:0.66000001;color:#000000;fill:url(#linearGradient3145);fill-opacity:1;fill-rule:nonzero;stroke:none;stroke-width:1;marker:none;visibility:visible;display:inline;overflow:visible;enable-background:accumulate"
       d="m 9,1041.3622 10,0 0,2 -10,0 z m 0,3 8,0 0,1 -8,0 z m 0,-9 10,0 0,2 -10,0 z m 0,3 8,0 0,1 -8,0 z m -5,3 4,0 0,4 -4,0 z m 0,-6 4,0 0,4 -4,0 z m -1,-2 18,0 0,14 -18,0 z m 0,-3 -2,2 0,15 2,2 18,0 2,-2 0,-15 -2,-2 z"
       inkscape:connector-curvature="0" />
  </g>
</svg>
