<?xml version="1.0" encoding="UTF-8" standalone="no"?>
<svg
   xmlns:dc="http://purl.org/dc/elements/1.1/"
   xmlns:cc="http://creativecommons.org/ns#"
   xmlns:rdf="http://www.w3.org/1999/02/22-rdf-syntax-ns#"
   xmlns:svg="http://www.w3.org/2000/svg"
   xmlns="http://www.w3.org/2000/svg"
   xmlns:sodipodi="http://sodipodi.sourceforge.net/DTD/sodipodi-0.dtd"
   xmlns:inkscape="http://www.inkscape.org/namespaces/inkscape"
   viewBox="-384 0 0 16"
   id="svg3224"
   version="1.1"
   inkscape:version="0.91 r13725"
   width="24"
   height="24"
   sodipodi:docname="vm_clone_wizard.svg"
   inkscape:export-filename="/home/wolf/.icons/Box/actions/24/vm_clone_wizard.png"
   inkscape:export-xdpi="90"
   inkscape:export-ydpi="90">
  <metadata
     id="metadata3292">
    <rdf:RDF>
      <cc:Work
         rdf:about="">
        <dc:format>image/svg+xml</dc:format>
        <dc:type
           rdf:resource="http://purl.org/dc/dcmitype/StillImage" />
        <dc:title />
      </cc:Work>
    </rdf:RDF>
  </metadata>
  <sodipodi:namedview
     pagecolor="#ffffff"
     bordercolor="#666666"
     borderopacity="1"
     objecttolerance="10"
     gridtolerance="10"
     guidetolerance="10"
     inkscape:pageopacity="0"
     inkscape:pageshadow="2"
     inkscape:window-width="1301"
     inkscape:window-height="744"
     id="namedview3290"
     showgrid="true"
     inkscape:zoom="20.85965"
     inkscape:cx="19.71701"
     inkscape:cy="11.670753"
     inkscape:window-x="65"
     inkscape:window-y="24"
     inkscape:window-maximized="1"
     inkscape:current-layer="svg3224"
     inkscape:snap-bbox="true"
     inkscape:bbox-paths="true"
     inkscape:snap-bbox-edge-midpoints="true"
     inkscape:bbox-nodes="true">
    <inkscape:grid
       type="xygrid"
       id="grid3056" />
  </sodipodi:namedview>
  <defs
     id="defs3226" />
  <path
     style="color:#000000;display:inline;overflow:visible;visibility:visible;opacity:0.7;fill:#363636;fill-opacity:1;fill-rule:nonzero;stroke:none;stroke-width:1;marker:none;enable-background:accumulate"
     d="m 4,6 -2,2 0,9 2,2 12,0 2,-2 L 18,8 16,6 4,6 Z m 1,2 10,0 1,1 0,6 -1,1 L 5,16 4,15 4,9 5,8 Z m 8,9 2,0 0,1 -2,0 0,-1 z m -7,3 -1,1 1,1 8,0 1,-1 -1,-1 -8,0 z"
     id="path3078"
     inkscape:connector-curvature="0" />
  <path
     style="color:#000000;display:inline;overflow:visible;visibility:visible;opacity:0.7;fill:#363636;fill-opacity:1;fill-rule:nonzero;stroke:none;stroke-width:1;marker:none;enable-background:accumulate"
     d="m 8,2 -2,2 0,1 2,0 1,-1 10,0 1,1 0,6 -1,1 0,1 0,1 0,1 1,0 2,-2 L 22,4 20,2 8,2 Z"
     id="path4134"
     inkscape:connector-curvature="0" />
</svg>
