<?xml version="1.0" encoding="UTF-8" standalone="no"?>
<svg xmlns:dc="http://purl.org/dc/elements/1.1/" xmlns:cc="http://creativecommons.org/ns#" xmlns:rdf="http://www.w3.org/1999/02/22-rdf-syntax-ns#" xmlns:svg="http://www.w3.org/2000/svg" xmlns="http://www.w3.org/2000/svg" xmlns:sodipodi="http://sodipodi.sourceforge.net/DTD/sodipodi-0.dtd" xmlns:inkscape="http://www.inkscape.org/namespaces/inkscape" viewBox="0 0 16 16" id="svg3224" version="1.1" inkscape:version="0.48.3.1 r9886" width="100%" height="100%" sodipodi:docname="video-display.svg">
  <metadata id="metadata3292">
    <rdf:RDF>
      <cc:Work rdf:about="">
        <dc:format>image/svg+xml</dc:format>
        <dc:type rdf:resource="http://purl.org/dc/dcmitype/StillImage" />
      </cc:Work>
    </rdf:RDF>
  </metadata>
  <sodipodi:namedview pagecolor="#ffffff" bordercolor="#666666" borderopacity="1" objecttolerance="10" gridtolerance="10" guidetolerance="10" inkscape:pageopacity="0" inkscape:pageshadow="2" inkscape:window-width="640" inkscape:window-height="480" id="namedview3290" showgrid="false" inkscape:zoom="14.75" inkscape:cx="8" inkscape:cy="8" inkscape:window-x="0" inkscape:window-y="24" inkscape:window-maximized="0" inkscape:current-layer="svg3224" />
  <defs id="defs3226">
    <linearGradient gradientUnits="userSpaceOnUse" id="linearGradient4258" x1="9.22739" x2="7.27984" y1="11.06376" y2=".94943">
      <stop offset="0" stop-color="#5489a7" id="stop3237" />
      <stop offset="1" stop-color="#242e4f" id="stop3239" />
    </linearGradient>
    <linearGradient gradientUnits="userSpaceOnUse" id="linearGradient4310" x1="3.72963" x2="11.31715" y1="-2.20922" y2="6.282">
      <stop offset="0" stop-color="#fff" id="stop3264" />
      <stop offset="1" stop-color="#fff" stop-opacity="0" id="stop3266" />
    </linearGradient>
    <radialGradient cx="8" cy="8.1999998" gradientUnits="userSpaceOnUse" id="radialGradient4281-3-4" r="7">
      <stop offset="0" stop-color="#2286be" id="stop3274-4" />
      <stop offset="1" stop-color="#152f49" id="stop3276-2" />
    </radialGradient>
    <linearGradient gradientUnits="userSpaceOnUse" id="linearGradient4302-3" x2="0" y1="11.88722" y2="15.45103">
      <stop offset="0" stop-color="#787878" id="stop3242-3" />
      <stop offset=".35" stop-color="#bebebe" id="stop3244-4" />
      <stop offset=".494" stop-color="#c8c8c8" id="stop3246-8" />
      <stop offset=".589" stop-color="#e6e6e6" id="stop3248-6" />
      <stop offset="1" stop-color="#8c8c8c" id="stop3250-3" />
    </linearGradient>
    <linearGradient gradientUnits="userSpaceOnUse" id="linearGradient4305-8" x2="0" y1="11.83589" y2="15.44184">
      <stop offset="0" stop-color="#464646" id="stop3253-3" />
      <stop offset=".35" stop-color="#8c8c8c" id="stop3255-0" />
      <stop offset=".51" stop-color="#969696" id="stop3257-9" />
      <stop offset=".62" stop-color="#aaa" id="stop3259-0" />
      <stop offset="1" stop-color="#646464" id="stop3261-1" />
    </linearGradient>
  </defs>
  <path id="path3278" d="m 4.74971,13.50713 c -0.33272,0.05057 -0.33548,1.99374 0,1.99374 h 6.50055 c 0.33548,0 0.3328,-1.94381 0,-1.99374 z" style="color:#000000;fill:url(#linearGradient4302-3);fill-opacity:1;fill-rule:nonzero;stroke:url(#linearGradient4305-8);stroke-width:0.99826998000000000;stroke-linecap:round;stroke-linejoin:round;stroke-miterlimit:4;stroke-opacity:1;stroke-dasharray:none;stroke-dashoffset:0.50000000000000000;marker:none;visibility:visible;display:inline;overflow:visible;enable-background:accumulate" />
  <path id="path3282" d="m 1.50012,0.5 h 13 a 1,1 0 0 1 1,1 v 11 a 1,1 0 0 1 -1,1 h -13 a 1,1 0 0 1 -1,-1 v -11 a 1,1 0 0 1 1,-1" style="color:#000000;fill:#1a1a1a;fill-opacity:1;fill-rule:nonzero;stroke:#000000;stroke-width:1;stroke-linecap:round;stroke-linejoin:round;stroke-miterlimit:4;stroke-opacity:1;stroke-dasharray:none;stroke-dashoffset:0.50000000000000000;marker:none;visibility:visible;display:inline;overflow:visible;enable-background:accumulate" />
  <path d="m 1.5,1 h 13 A 0.5,0.5 0 0 1 15,1.5 v 11 A 0.5,0.5 0 0 1 14.5,13 H 1.5 A 0.5,0.5 0 0 1 1,12.5 V 1.5 A 0.5,0.5 0 0 1 1.5,1" id="path3284" style="color:#000000;fill:url(#radialGradient4281-3-4);fill-opacity:1;fill-rule:nonzero;stroke-width:1;stroke-linecap:butt;stroke-linejoin:miter;stroke-miterlimit:4;stroke-opacity:1;stroke-dasharray:none;stroke-dashoffset:0;marker:none;visibility:visible;display:inline;overflow:visible;enable-background:accumulate" />
  <path d="m15,3c-.69999,1.26195-2.84217,4.40293-6.28906,3.08372 2.95514,1.51371 5.50336-.72645 6.28906-1.53488v-1.54884zm-12.61094.86512c-.61917-.00246-1.07736.09367-1.38906.19535v.92093c.96958-.5063 3.20026-1.11403 6.95625.86512-2.49295-1.56931-4.33906-1.97648-5.56719-1.9814zm.92969,1.03256c-1.52988.00999-2.30781.47442-2.30781.47442l.01094,2.17674c0,0 2.6811-3.36177 6.94531-1.26977 3.5505,1.74186 6.23208,1.24869 7.03281,1.03256v-2.34419c-.83696.85738-3.35515,2.91623-6.94531,1.14419-1.94467-.95986-3.54604-1.22172-4.73594-1.21395zm2.13281,1.0186c-2.33011-.00317-4.15958,1.66092-4.45156,1.93953v1.14419c.30154-.52742 2.54796-4.1605 6.48594-2.62326-.69922-.32584-1.38643-.45958-2.03438-.46047z" fill="url(#linearGradient4258)" opacity=".403" id="path3286" />
  <path d="m7,1h7c.6764,0 1,.32317 1,1v9h-4.43501z" fill="url(#linearGradient4310)" opacity=".99" id="path3288" />
</svg>
