<?xml version="1.0" encoding="UTF-8" standalone="no"?>
<!-- Created with Inkscape (http://www.inkscape.org/) -->

<svg
   xmlns:dc="http://purl.org/dc/elements/1.1/"
   xmlns:cc="http://creativecommons.org/ns#"
   xmlns:rdf="http://www.w3.org/1999/02/22-rdf-syntax-ns#"
   xmlns:svg="http://www.w3.org/2000/svg"
   xmlns="http://www.w3.org/2000/svg"
   xmlns:xlink="http://www.w3.org/1999/xlink"
   xmlns:sodipodi="http://sodipodi.sourceforge.net/DTD/sodipodi-0.dtd"
   xmlns:inkscape="http://www.inkscape.org/namespaces/inkscape"
   version="1.0"
   width="22"
   height="24"
   id="svg3167"
   sodipodi:version="0.32"
   inkscape:version="0.48.4 r9939"
   sodipodi:docname="gnome-netstatus-75-100.svg"
   inkscape:output_extension="org.inkscape.output.svg.inkscape">
  <metadata
     id="metadata18">
    <rdf:RDF>
      <cc:Work
         rdf:about="">
        <dc:format>image/svg+xml</dc:format>
        <dc:type
           rdf:resource="http://purl.org/dc/dcmitype/StillImage" />
        <dc:title />
      </cc:Work>
    </rdf:RDF>
  </metadata>
  <sodipodi:namedview
     inkscape:window-height="974"
     inkscape:window-width="1280"
     inkscape:pageshadow="2"
     inkscape:pageopacity="0.0"
     guidetolerance="10.0"
     gridtolerance="10.0"
     objecttolerance="10.0"
     borderopacity="1.0"
     bordercolor="#666666"
     pagecolor="#ffffff"
     id="base"
     showgrid="true"
     inkscape:zoom="20.75"
     inkscape:cx="16.150526"
     inkscape:cy="11.512641"
     inkscape:window-x="0"
     inkscape:window-y="26"
     inkscape:current-layer="svg3167"
     inkscape:window-maximized="1"
     inkscape:snap-bbox="true">
    <inkscape:grid
       type="xygrid"
       id="grid2993" />
  </sodipodi:namedview>
  <defs
     id="defs3169">
    <linearGradient
       id="linearGradient3587-6-5-3">
      <stop
         id="stop3589-9-2-0"
         style="stop-color:#bebebe;stop-opacity:1;"
         offset="0" />
      <stop
         id="stop3591-7-4-7"
         style="stop-color:#ffffff;stop-opacity:1;"
         offset="1" />
    </linearGradient>
    <linearGradient
       inkscape:collect="always"
       xlink:href="#linearGradient3587-6-5-3"
       id="linearGradient3784"
       gradientUnits="userSpaceOnUse"
       gradientTransform="translate(-1.000124,0)"
       x1="14"
       y1="3"
       x2="14"
       y2="21" />
  </defs>
  <path
     inkscape:connector-curvature="0"
     id="path3786"
     d="M 10.96875,6.125 C 7.484347,6.125 4.905715,7.022542 3.1875,7.9375 1.469285,8.852458 0.5625,9.84375 0.5625,9.84375 l 1.28125,1.125 c 0,0 0.653106,-0.730818 2.15625,-1.53125 C 5.503144,8.637068 7.775483,7.84375 10.96875,7.84375 14.144635,7.84375 16.481408,8.634334 18,9.4375 19.518592,10.240666 20.1875,11 20.1875,11 l 1.25,-1.15625 c 0,0 -0.92595,-0.991115 -2.65625,-1.90625 C 17.05095,7.022365 14.437706,6.125 10.96875,6.125 z m -0.875,4.15625 C 8.046957,10.37681 6.472218,10.929964 5.375,11.5 4.121037,12.151469 3.4375,12.875 3.4375,12.875 l 1.25,1.15625 c 0,0 0.432854,-0.493073 1.46875,-1.03125 1.035896,-0.538177 2.616944,-1.071608 4.8125,-1.03125 2.229143,0.04097 3.837127,0.594338 4.875,1.125 1.037873,0.530662 1.4375,1 1.4375,1 l 1.25,-1.1875 c 0,0 -0.695238,-0.677334 -1.9375,-1.3125 C 15.351488,10.958584 13.49844,10.327175 11,10.28125 c -0.311642,-0.0057 -0.613851,-0.01365 -0.90625,0 z m 0.8125,4 c -1.676463,0.01768 -2.859543,0.361903 -3.625,0.75 -0.765457,0.388097 -1.1875,0.90625 -1.1875,0.90625 l 1.34375,1.03125 c 0,0 0.101087,-0.140619 0.625,-0.40625 0.523913,-0.265631 1.399739,-0.578523 2.84375,-0.59375 1.414949,-0.01492 2.342888,0.284917 2.90625,0.5625 C 14.375862,16.808833 14.53125,17 14.53125,17 l 1.28125,-1.09375 c 0,0 -0.45342,-0.513754 -1.25,-0.90625 -0.79658,-0.392496 -1.989628,-0.736327 -3.65625,-0.71875 z m 0.0625,3.90625 c -1.440233,-0.0058 -1.986845,0.427456 -2.125,0.53125 0.07731,0.06262 2.125,2.28125 2.125,2.28125 0,0 2.09325,-2.19996 2.1875,-2.28125 -0.107939,-0.100609 -0.770343,-0.52555 -2.1875,-0.53125 z"
     style="opacity:1;fill:#000000;fill-opacity:1;fill-rule:evenodd;stroke:none;overflow:visible" />
  <path
     style="opacity:1;fill:url(#linearGradient3784);fill-opacity:1;fill-rule:evenodd;stroke:none;overflow:visible"
     d="M 10.96875,5.125 C 7.484347,5.125 4.905715,6.022542 3.1875,6.9375 1.469285,7.852458 0.5625,8.84375 0.5625,8.84375 l 1.28125,1.125 c 0,0 0.653106,-0.730818 2.15625,-1.53125 C 5.503144,7.637068 7.775483,6.84375 10.96875,6.84375 14.144635,6.84375 16.481408,7.634334 18,8.4375 19.518592,9.240666 20.1875,10 20.1875,10 l 1.25,-1.15625 c 0,0 -0.92595,-0.991115 -2.65625,-1.90625 C 17.05095,6.022365 14.437706,5.125 10.96875,5.125 z m -0.875,4.15625 C 8.046957,9.37681 6.472218,9.929964 5.375,10.5 4.121037,11.151469 3.4375,11.875 3.4375,11.875 l 1.25,1.15625 c 0,0 0.432854,-0.493073 1.46875,-1.03125 1.035896,-0.538177 2.616944,-1.071608 4.8125,-1.03125 2.229143,0.04097 3.837127,0.594338 4.875,1.125 1.037873,0.530662 1.4375,1 1.4375,1 l 1.25,-1.1875 c 0,0 -0.695238,-0.677334 -1.9375,-1.3125 C 15.351488,9.958584 13.49844,9.327175 11,9.28125 c -0.311642,-0.0057 -0.613851,-0.01365 -0.90625,0 z m 0.8125,4 c -1.676463,0.01768 -2.859543,0.361903 -3.625,0.75 -0.765457,0.388097 -1.1875,0.90625 -1.1875,0.90625 l 1.34375,1.03125 c 0,0 0.101087,-0.140619 0.625,-0.40625 0.523913,-0.265631 1.399739,-0.578523 2.84375,-0.59375 1.414949,-0.01492 2.342888,0.284917 2.90625,0.5625 C 14.375862,15.808833 14.53125,16 14.53125,16 l 1.28125,-1.09375 c 0,0 -0.45342,-0.513754 -1.25,-0.90625 -0.79658,-0.392496 -1.989628,-0.736327 -3.65625,-0.71875 z m 0.0625,3.90625 c -1.440233,-0.0058 -1.986845,0.427456 -2.125,0.53125 0.07731,0.06262 2.125,2.28125 2.125,2.28125 0,0 2.09325,-2.19996 2.1875,-2.28125 -0.107939,-0.100609 -0.770343,-0.52555 -2.1875,-0.53125 z"
     id="path3375"
     inkscape:connector-curvature="0" />
</svg>
